<?xml version="1.0" encoding="utf-8"?>
<!-- Generator: Adobe Illustrator 18.0.0, SVG Export Plug-In . SVG Version: 6.00 Build 0)  -->
<!DOCTYPE svg PUBLIC "-//W3C//DTD SVG 1.1//EN" "http://www.w3.org/Graphics/SVG/1.1/DTD/svg11.dtd">
<svg version="1.1" id="Layer_1" xmlns="http://www.w3.org/2000/svg" xmlns:xlink="http://www.w3.org/1999/xlink" x="0px" y="0px"
	 width="50px" height="50px" viewBox="0 0 50 50" enable-background="new 0 0 50 50" xml:space="preserve">
<g>
	<path d="M47.18573,24.7647457c-0.0984421-0.3174248-0.2276726-0.593153-0.3937645-0.8102703
		c-0.5537872-0.7244263-1.8041229-1.8816872-3.2569389-2.9313526c-0.2803955-0.2091866-0.5747833-0.4120159-0.8866692-0.6066818
		c-1.1903839-0.7748127-2.4446869-1.4185276-3.5254364-1.663929c-0.0447884-0.0107307-0.0881767-0.0062981-0.1317978-0.0040245
		c-1.4150276-0.446249-2.9047012-0.7144527-4.3432922-0.7144527c-5.0591984,0-5.8112679,0.727808-7.8845882,3.5112095
		l-0.1469612,0.1961803c-0.1978149,0.0392475-0.3429108-0.060358-0.4016953-0.116869
		c-0.1324978-0.1250343-0.243536-0.366703-0.1222343-0.639164c0.2454033-0.5533218,0.294857-1.0068016,0.294857-1.5582581
		c0-2.9588203-5.8122025-5.4940186-10.5700169-5.4940186c-2.0161686,0-4.1825647,0.2360125-5.9395685,0.7872925
		c-0.0170288,0.0019827-0.0328913-0.0026245-0.0499201,0.0011663c-4.2824059,0.9878483-6.6036944,2.2722425-7.0972977,3.9267817
		c-0.0291591,0.0599518-0.048754,0.1256752-0.0510867,0.1974659l-0.0013995,0.0483456
		c-0.0398896,0.2198582-0.0457213,0.4428082-0.0200615,0.6679745l-0.1576917,5.2852993
		c-0.0030327,0.1060791,0.0356905,0.2003212,0.0921423,0.2813835c0.5880785,1.7977104,3.4479916,2.6865921,4.0190411,2.8472595
		L34.1355667,35.70578c0.1380959,0.0251923,2.0266685,0.3611069,4.2800751,0.3611069
		c1.7607346,0,3.7435455-0.2052803,5.2850075-0.9256248c1.0049324-0.4702759,3.0110741-2.0350647,3.2648735-3.3497849
		c0.0816422-0.4139996,0.5663834-2.9966106,0.4849701-5.1842346c0.0109634-0.0559845,0.0261269-0.1117954,0.0319595-0.1679554
		C47.5188408,26.0947456,47.5305061,25.3840828,47.18573,24.7647457z M34.647831,18.9895172
		c2.8118591,0,5.727993,1.0616779,7.78825,2.4259109c0.129467,0.0875931,0.2570648,0.1774025,0.3841972,0.2675629
		c1.4670486,1.0560207,2.4171638,2.2552719,2.4171638,3.278286c0,0.0548763-0.0139961,0.1027565-0.0172615,0.1559429
		c-0.0891075-0.3655376-0.2384033-0.724369-0.4595451-1.0703697c-1.6198387-2.5333328-6.6510468-4.1018524-10.3834-4.1018524
		c-2.4645157,0-4.3101635,0.2296562-5.7025623,0.7165527C29.8494301,19.3484058,30.9651699,18.9895172,34.647831,18.9895172z
		 M26.9615231,22.6271c0.0648499-0.0079308,0.1278343-0.0276432,0.1852188-0.061409
		c0.0104961-0.0051327,0.0221596-0.0054817,0.0326576-0.0108471c0.0438557-0.0214615,0.0877094-0.0457211,0.1315651-0.0718479
		c0.0114307-0.0069389,0.0167961-0.0176125,0.0270596-0.0252514c0.0107307-0.0076389,0.0233269-0.0099144,0.0335922-0.0186043
		c1.2615337-1.0637188,3.4216309-1.53866,7.005619-1.53866c3.4953461,0,8.1785126,1.4714794,9.5781441,3.6605015
		c0.487072,0.7623329,0.5374603,1.5377293,0.1520958,2.3691101c-0.0121307,0.026535-0.0123634,0.0544109-0.0193634,0.0817032
		c-1.7292442,1.242115-5.0421715,1.4879246-7.3102722,1.4918327l-19.8213482-5.1192684
		c-0.1315651-0.0352821-0.2677956-0.0730152-0.4021606-0.1095791c-0.1856842-0.049572-0.3585377-0.0987911-0.5374584-0.1481876
		c-1.2927923-0.3616295-2.6611652-0.7801762-3.9236326-1.2572765c-0.0151625-0.0057735-0.0305586-0.011488-0.0457211-0.0172615
		c-0.2288399-0.086895-0.4527807-0.1762962-0.6732235-0.2670383c-0.0457211-0.018837-0.0919085-0.0377312-0.1366968-0.0564518
		c-0.1954823-0.081995-0.3858318-0.1657982-0.572916-0.2508259c-0.0513201-0.0234432-0.1052055-0.0472374-0.1551256-0.0705643
		c-0.1856842-0.0866032-0.364604-0.1751881-0.5395575-0.2648811c-0.0389566-0.0200615-0.0825787-0.0407047-0.120369-0.0606499
		c-0.1856842-0.0975666-0.3620377-0.197464-0.5323257-0.2985878c-1.0326948-0.6216698-1.4724126-1.1623936-1.4724126-1.5739441
		c0-0.9526825,2.1125102-1.9706802,8.0432148-1.9706802c4.5802937,0,9.2331352,2.4362907,9.2618275,3.8085136
		c-0.1371651,0.5305767-0.0007,1.0858803,0.4077587,1.4718285C25.9453907,22.6837845,26.4760857,22.7836246,26.9615231,22.6271z
		 M25.4289265,19.4083557c-1.658329-1.8283844-6.0648346-3.325407-9.5408192-3.325407
		c-4.7111597,0-7.582037,0.6154881-8.5869722,1.827919c0.242836-1.7890205,3.6698332-3.0222712,8.516057-3.0222712
		C20.6631832,14.8885965,25.3990688,17.4705086,25.4289265,19.4083557z M6.8135967,16.5979538
		C6.4993796,17.0387211,6.322093,17.541481,6.322093,18.113348c0,1.2410641,0.8463106,2.3365097,2.6707296,3.3767853
		c1.580184,0.9267883,4.0409689,1.8387661,7.3879547,2.728405c0.0037327,0.0009918,0.0069981,0.0004673,0.0107307,0.0013428
		c0.1091709,0.0297413,0.2104111,0.0593662,0.3214474,0.0891685l19.8859634,5.1357136
		c0.040123,0.0102634,0.080246,0.0149288,0.1194344,0.0149288c7.7285309,0,9.4274521-2.3826389,9.4703712-4.417469
		c0.0433884,0.0470028,0.0928421,0.0898094,0.1259689,0.1424122c0.0965729,0.3619213,0.1518593,0.8086357,0.1742554,1.3080711
		c-0.2514687,1.0284958-1.9415245,2.3486404-3.1522064,2.9455242c-0.8976288,0.4432163-2.0033379,0.7669983-3.2854004,0.9638805
		c-2.6966209,0.4152241-5.4165726,0.2855244-7.6578484-0.3657703L6.7363839,22.5903015
		c-0.9144258-0.2687302-1.6133084-0.9396191-2.3084588-1.6627617C3.9385209,20.419239,3.67609,19.9379997,3.6166055,19.4863853
		l0.0121303-0.4095078c0.0088644-0.0510292,0.0023327-0.1044483,0.0172622-0.1545429
		C3.8351815,18.2857933,4.5888829,17.4383755,6.8135967,16.5979538z M25.9104004,30.1271992l-0.0121307-0.5151215
		c0.2153111,0.2360115,0.3354454,0.5536709,0.3363781,0.8867245l-0.3237801-0.3689194l0.0009327-0.0019836L25.9104004,30.1271992z
		 M26.1205788,30.57374l-0.2561321,0.2395115l-0.1031075-0.298296l0.1019402-0.2340889L26.1205788,30.57374z M26.2276497,30.6523533
		c-0.0142288,0.1312733-0.047121,0.2630138-0.1003056,0.3919544c-0.0562191,0.1361141-0.1317997,0.2578239-0.2204437,0.3644867
		l0.0074654-0.463686L26.2276497,30.6523533z M24.2089157,30.0825863l-0.0569191-0.3223228l0.3783665-0.0498619
		l-0.1096363,0.2714691L24.2089157,30.0825863z M24.3432808,30.174263l-0.0604191,0.1495266l-0.0319576-0.100832
		L24.3432808,30.174263z M24.2737656,30.7188358l0.0928421,0.2724609l-0.0023327-0.001049l-0.1600246-0.0670662
		L24.2737656,30.7188358z M24.4263248,31.1649685l0.0867767,0.2440605l-0.3916626,0.0286922l0.0333576-0.3865318
		L24.4263248,31.1649685z M24.3439789,30.51618l0.1707554-0.4230957l0.0044327-0.0109653l0.4691105-0.2229481l0.4583778,0.199913
		l0.0692825,0.1817188l0.1047382,0.2748528l-0.1420612,0.326931l-0.0814133,0.1869087l-0.4562798,0.2025375l-0.4114914-0.1725044
		L24.3439789,30.51618z M24.6001129,29.8965511l0.0683479-0.154892l0.1460285,0.0527782L24.6001129,29.8965511z
		 M25.1601982,29.7844067l0.1439285-0.0614681l0.0653152,0.1527939L25.1601982,29.7844067z M25.6929913,30.3334122
		l-0.0737133-0.1928577l0.1257324,0.0597763L25.6929913,30.3334122z M25.7422123,30.8641644l-0.1677227,0.0808868
		l0.0877094-0.202013l0.0212288-0.0488129L25.7422123,30.8641644z M25.54813,29.9538212l-0.1066055-0.2792282l0.32798-0.0284576
		l0.0093307,0.4084587L25.54813,29.9538212z M25.3188229,31.2098732l-0.0011654,0.0029163l-0.0018673,0.0043144
		l-0.0632172,0.1454449l-0.1364632-0.057209l-0.0065327-0.0026836L25.3188229,31.2098732z M24.7620029,31.3056316
		l-0.1268997,0.0516682l-0.043623-0.123167L24.7620029,31.3056316z M24.9362564,31.3787041l0.2384052,0.0999565
		l-0.2521667,0.2936306l-0.2381706-0.2910652L24.9362564,31.3787041z M25.3101921,31.5197754l0.4691086,0.0223351
		c-0.2202072,0.2021294-0.4971008,0.3241901-0.7840252,0.3446598L25.3101921,31.5197754z M25.7772026,31.4054127
		l-0.3949299-0.0186615l0.1103382-0.2539749l0.0007-0.0012836l0.2904224-0.1399632L25.7772026,31.4054127z M25.3769073,29.5440788
		l-0.2640629-0.3184757c0.1229343,0.009798,0.2456341,0.0386066,0.364603,0.0884686
		c0.1166363,0.0489883,0.2216091,0.1150627,0.3139839,0.194025L25.3769073,29.5440788z M25.2411442,29.5917244l-0.2498341,0.1189098
		l-0.0009346,0.000349l-0.2332706-0.0945911l0.2894897-0.2590485L25.2411442,29.5917244z M24.6222725,29.5618649
		l-0.5383911,0.0709152c0.2454014-0.2571239,0.5775814-0.4053097,0.9174576-0.4102669L24.6222725,29.5618649z
		 M24.0883141,30.1536179l-0.3893318,0.323082c0.0130634-0.1364059,0.0457211-0.2738037,0.1012402-0.407877
		c0.0541191-0.1313896,0.1261997-0.2498341,0.2108784-0.3539906L24.0883141,30.1536179z M23.8263493,30.5411396l0.3013878-0.250124
		l0.0772133,0.2262154l-0.1257343,0.3117085L23.8263493,30.5411396z M24.0311623,30.9793415l-0.0410557,0.4754658
		c-0.1945496-0.2356033-0.3020878-0.5418892-0.2981224-0.8614731L24.0311623,30.9793415z M24.5590572,31.5418777
		l0.2838917,0.3465252c-0.1322651-0.0072327-0.2649975-0.0356331-0.3928299-0.0894012
		c-0.1310997-0.0550537-0.2468014-0.1317997-0.3466434-0.2238827L24.5590572,31.5418777z M28.8510265,30.9633617
		l-0.011898-0.5151806c0.2150764,0.2360134,0.3352127,0.5536709,0.3363781,0.8867836l-0.3240147-0.3689194l0.0009327-0.0019836
		L28.8510265,30.9633617z M29.0614376,31.4099026l-0.2561321,0.2394543l-0.1031075-0.2982388l0.1017075-0.234087
		L29.0614376,31.4099026z M29.1682758,31.4885159c-0.0142288,0.131216-0.0468884,0.2630138-0.1003075,0.3918972
		c-0.0562172,0.1361732-0.1315651,0.2578812-0.2204418,0.3645439l0.0074654-0.4636841L29.1682758,31.4885159z
		 M27.1495399,30.9186916l-0.0566845-0.3223248l0.3781338-0.0498028l-0.1096382,0.271471L27.1495399,30.9186916z
		 M27.283905,31.0103664l-0.0604172,0.1495285l-0.0317249-0.1007748L27.283905,31.0103664z M27.2143898,31.5549393
		l0.0928421,0.2724628l-0.0023327-0.0010509l-0.1600246-0.0670643L27.2143898,31.5549393z M27.3671837,32.0011292
		l0.086544,0.2440643l-0.3916645,0.0286903l0.0333576-0.3865318L27.3671837,32.0011292z M27.2848377,31.3522854l0.1707554-0.4230976
		l0.0042-0.0109634l0.4693432-0.22295l0.4581451,0.1999722l0.0692825,0.1817188l0.1049709,0.2747955l-0.1422958,0.3269882
		l-0.0811787,0.1869087l-0.4565125,0.2025375l-0.4112587-0.1725025L27.2848377,31.3522854z M27.5407372,30.7327156
		l0.0683498-0.1549511l0.1462612,0.0527782L27.5407372,30.7327156z M28.1010571,30.6205692l0.1439285-0.0615253l0.0653152,0.1528511
		L28.1010571,30.6205692z M28.6336174,31.1695175l-0.0734806-0.1928005l0.1257324,0.0597763L28.6336174,31.1695175z
		 M28.6830692,31.7003269l-0.1679554,0.0808868l0.087944-0.2020721l0.0209942-0.0487537L28.6830692,31.7003269z
		 M28.4887543,30.7899837l-0.1066055-0.2792854l0.32798-0.0284595l0.0093327,0.4085178L28.4887543,30.7899837z
		 M28.2596817,32.0460358l-0.0014,0.0029144l-0.0018654,0.0042572l-0.0632172,0.1454468l-0.1362305-0.0571518l-0.0065327-0.0026817
		L28.2596817,32.0460358z M27.7026291,32.1417351l-0.1268997,0.0517273l-0.043623-0.1231651L27.7026291,32.1417351z
		 M27.8768826,32.2148666l0.2384033,0.0998993l-0.2519341,0.2936287l-0.2384033-0.2910042L27.8768826,32.2148666z
		 M28.2510509,32.355938l0.4688759,0.0223351c-0.2202091,0.2020721-0.4968681,0.324131-0.7837925,0.3446007L28.2510509,32.355938z
		 M28.7180614,32.2415771l-0.3949299-0.0187225l0.1103382-0.253973l0.0004654-0.0012245l0.290657-0.1399632L28.7180614,32.2415771z
		 M28.3177662,30.3802414l-0.2640629-0.3185329c0.1226997,0.0098553,0.2454014,0.0386066,0.3643703,0.0884686
		c0.116869,0.0490456,0.2218418,0.1150608,0.3139839,0.1940231L28.3177662,30.3802414z M28.1817684,30.427887l-0.2498341,0.1189098
		l-0.0009327,0.0002918l-0.2332726-0.0945339l0.2897243-0.2590485L28.1817684,30.427887z M27.5628986,30.3980274
		l-0.5383911,0.0709152c0.2456341-0.2571239,0.5775814-0.4053097,0.9174576-0.4103241L27.5628986,30.3980274z
		 M27.0291729,30.9897232l-0.3895645,0.3231392c0.0130634-0.1364059,0.0457211-0.2738037,0.1012402-0.407877
		c0.0543518-0.1314468,0.1261997-0.2498913,0.2111111-0.3540478L27.0291729,30.9897232z M26.7669754,31.3773041l0.3013859-0.250185
		l0.0772133,0.2262154l-0.1257324,0.3117104L26.7669754,31.3773041z M26.9717884,31.8154469l-0.0410576,0.475523
		c-0.194315-0.2356033-0.3018532-0.5418892-0.2978878-0.8614712L26.9717884,31.8154469z M27.4996815,32.3779831l0.2838917,0.3465805
		c-0.1320305-0.0072289-0.2647629-0.0356903-0.3928299-0.0894585c-0.1310978-0.0549927-0.2468014-0.1317406-0.3466415-0.2238808
		L27.4996815,32.3779831z M31.7916508,31.7994671l-0.0118961-0.5151215
		c0.2153091,0.2360115,0.3354454,0.5536709,0.3363762,0.8867817l-0.3240128-0.3689766l0.0009327-0.0019836L31.7916508,31.7994671z
		 M32.0020638,32.2460098l-0.256134,0.2395096l-0.1031055-0.2982368l0.1017056-0.234148L32.0020638,32.2460098z
		 M32.108902,32.3246803c-0.0139961,0.1312141-0.0468903,0.2629547-0.1003075,0.3918953
		c-0.0559864,0.136116-0.1315651,0.2578239-0.2202091,0.3645477l0.0074654-0.4637451L32.108902,32.3246803z M30.0901661,31.7548542
		l-0.0566845-0.3223228l0.3781338-0.0498047l-0.1094055,0.2714119L30.0901661,31.7548542z M30.2245312,31.8465309
		l-0.0601845,0.1495266l-0.0319576-0.100832L30.2245312,31.8465309z M30.1550159,32.3911018l0.0930748,0.2724648
		l-0.0023327-0.0010529l-0.1600246-0.0670624L30.1550159,32.3911018z M30.3078098,32.8372955l0.0867767,0.2439995
		l-0.3916645,0.0287514l0.0331249-0.3865891L30.3078098,32.8372955z M30.2254639,32.1884499l0.1707554-0.4230976
		l0.0044327-0.0109653l0.4691086-0.2229481l0.458147,0.199913l0.0695152,0.1817188l0.1047382,0.2748528l-0.1420631,0.3269882
		l-0.0814114,0.1869087l-0.4565125,0.2024803l-0.4112587-0.1725044L30.2254639,32.1884499z M30.481596,31.568819l0.0683498-0.154892
		l0.1460266,0.0527782L30.481596,31.568819z M31.0416832,31.4566746l0.1439285-0.0614681l0.0653152,0.1527939L31.0416832,31.4566746
		z M31.5744743,32.0056801l-0.0737133-0.1927986l0.1257343,0.0597744L31.5744743,32.0056801z M31.6236954,32.5364304
		L31.45574,32.6173172l0.087944-0.2020111l0.0212269-0.0488129L31.6236954,32.5364304z M31.4296131,31.6261463l-0.1068382-0.2792854
		l0.32798-0.0284576l0.0093307,0.4085159L31.4296131,31.6261463z M31.2003078,32.8821983l-0.0011673,0.0028572l-0.0018654,0.0043182
		l-0.0634499,0.145443l-0.1362324-0.057209l-0.0065308-0.0026245L31.2003078,32.8821983z M30.6434879,32.9778976
		l-0.1269016,0.0517273l-0.0438538-0.1232224L30.6434879,32.9778976z M30.8175087,33.050972l0.238636,0.0999565L30.803978,33.444561
		l-0.2384033-0.2910652L30.8175087,33.050972z M31.1916752,33.1921005l0.4691105,0.0222778
		c-0.2202091,0.2021294-0.4971027,0.3241882-0.7840271,0.3446579L31.1916752,33.1921005z M31.6586857,33.0776825
		l-0.394928-0.0186653l0.1103363-0.2539711l0.0007-0.0012283l0.2904243-0.1399612L31.6586857,33.0776825z M31.2583923,31.2163467
		l-0.2640648-0.3184757c0.1229343,0.0098572,0.2454033,0.0386066,0.3646049,0.0884686
		c0.1166363,0.0489883,0.2216072,0.1150608,0.3137493,0.194025L31.2583923,31.2163467z M31.1226273,31.2639923l-0.2500668,0.1189098
		l-0.0009327,0.000349L30.6383553,31.28866l0.2897243-0.2589893L31.1226273,31.2639923z M30.5035248,31.2341328l-0.538393,0.0709152
		c0.245636-0.2570667,0.5775814-0.4052525,0.9176922-0.4102669L30.5035248,31.2341328z M29.9697971,31.8258858l-0.3895626,0.323082
		c0.0130634-0.1364059,0.0457211-0.2738037,0.1012402-0.407877c0.0543518-0.1313896,0.1264324-0.2498341,0.2111111-0.3539906
		L29.9697971,31.8258858z M29.7075996,32.2134094l0.3013878-0.2501259l0.077446,0.2262154l-0.1257324,0.3117104
		L29.7075996,32.2134094z M29.9126453,32.6516113l-0.0410557,0.4754639
		c-0.1945477-0.2356033-0.3020859-0.5418892-0.2981205-0.8614731L29.9126453,32.6516113z M30.4405403,33.2141457
		l0.2838917,0.3465233c-0.1322651-0.0072289-0.2649956-0.0356293-0.3930626-0.0894012
		c-0.1310997-0.0550499-0.2465687-0.1317978-0.3464088-0.2238808L30.4405403,33.2141457z M44.9523849,31.45994l0.1436958,0.2493095
		l-0.0025673-0.0005245l-0.1700554-0.034874L44.9523849,31.45994z M44.7657661,30.8481846l-0.1180344-0.305294l0.3613396-0.1219425
		l-0.0550537,0.2875061L44.7657661,30.8481846z M44.9820099,31.247488l0.0858459-0.4481163l0.0020981-0.0116043l0.4173241-0.3094349
		l0.4882393,0.1076546l0.1031036,0.1648655l0.0795479,0.1271324c-0.0422249,0.2571239-0.0858459,0.5044498-0.1304016,0.730608
		v0.0000572l-0.321682,0.2258663l-0.4369164-0.0897522L44.9820099,31.247488z M45.113575,30.5900688l0.0370903-0.1652145
		l0.1537285,0.0235615L45.113575,30.5900688z M45.6414719,30.3717842l0.1294632-0.0881176l0.093544,0.1372814L45.6414719,30.3717842
		z M46.1607323,30.6325245l0.0354576,0.0090389c-0.0018654,0.012598-0.0037308,0.0258942-0.0055962,0.0384331L46.1607323,30.6325245
		z M45.8920059,31.8725986l-0.0067673-0.0013409l0.0611191-0.042923c-0.0076981,0.0176697-0.010498,0.0333576-0.0191307,0.0514946
		L45.8920059,31.8725986z M45.5446625,31.9412975l-0.1145363,0.0752888l-0.0667152-0.1124382L45.5446625,31.9412975z
		 M45.7296486,31.9793777l0.1296959,0.0265923c-0.0508499,0.0892868-0.1035728,0.1792717-0.1730843,0.2745056l-0.1838188-0.1518631
		L45.7296486,31.9793777z M46.2174187,30.4990349l-0.16259-0.035923l-0.1586266-0.2533932l0.3163185-0.0913258l0.0368576,0.1669655
		C46.2391129,30.3578472,46.2281494,30.427887,46.2174187,30.4990349z M45.8077927,30.0941334l-0.3207474-0.2614975
		c0.122467-0.0140553,0.2484322-0.0095654,0.3746338,0.016386c0.1240997,0.0255451,0.2398033,0.0700417,0.3457069,0.1296997
		L45.8077927,30.0941334z M45.6836929,30.1671467l-0.2223091,0.1649246l-0.0009308,0.0005245l-0.247036-0.0477047
		l0.2339706-0.3101349L45.6836929,30.1671467z M45.070652,30.2574234l-0.514595,0.1736126
		c0.1912804-0.299696,0.4882355-0.5092316,0.8208847-0.5797977L45.070652,30.2574234z M44.6612625,30.941143l-0.3198166,0.3923054
		c-0.0135307-0.1363468-0.0079308-0.2774773,0.0205269-0.4197731c0.0277596-0.1394386,0.0755806-0.2695446,0.1387978-0.3881054
		L44.6612625,30.941143z M44.782795,31.6055603l-0.3039513-0.2335052l0.2472687-0.3036613l0.1196671,0.2070293L44.782795,31.6055603
		z M44.8161545,32.2368507c-0.2363052-0.1935577-0.4009933-0.4733067-0.458847-0.7876415l0.4072952,0.3131676L44.8161545,32.2368507
		z M44.8341179,30.9778252l0.0809441-0.0656662l-0.0303268,0.158392L44.8341179,30.9778252z M45.1882248,31.868166
		l0.1322632,0.2227154l-0.3788338,0.1038055l-0.0419884-0.3856544L45.1882248,31.868166z M45.3911705,32.2122993
		l0.2097092,0.1729736c-0.0272903,0.0349884-0.0573845,0.0703316-0.0867767,0.1056709
		c-0.0601845-0.0026817-0.1194344,0.0072899-0.1800842-0.005249c-0.1392632-0.0286942-0.2675629-0.081646-0.3832664-0.1527328
		L45.3911705,32.2122993z M46.3100281,29.8290195c-0.1262016-0.0741215-0.2612648-0.1348305-0.411026-0.1655064
		l-0.0543518-0.0099144c-0.7663002-0.1253242-1.4941063,0.4121342-1.656929,1.2242107
		c-0.1658592,0.8291073,0.3314781,1.6336613,1.1089745,1.793047l0.0541191,0.0098534
		c0.0018654,0.0002937,0.0032654,0.0000572,0.0051308,0.0002937c-0.5789795,0.6381721-1.4147949,1.2927322-2.060257,1.5943527
		c-3.2350159,1.5125351-8.9305801,0.5010681-8.9455109,0.5001373l-3.681963-1.0342712
		c0.6216679,0.0550537,1.2393723-0.3146248,1.5046024-0.9561234c0.3226166-0.7815781-0.0102654-1.6671944-0.7415714-1.9735966
		l-0.0515518-0.020237c-0.7275753-0.2710609-1.54566,0.1156445-1.8619766,0.8810101
		c-0.3116512,0.7538185-0.0093307,1.599369,0.6690235,1.9337082l-2.5020752-0.7029076
		c0.6359005,0.0766296,1.2759972-0.2978287,1.5475273-0.9541397c0.3226147-0.7815189-0.0102654-1.6671944-0.7415714-1.9735966
		l-0.0515537-0.0201778c-0.727808-0.2711201-1.54566,0.1156445-1.8622093,0.8809509
		c-0.3174839,0.7681065,0.0007,1.6337776,0.7065811,1.9542923l-2.6238422-0.7370796
		c0.6629581,0.1226425,1.3483105-0.255024,1.6319695-0.9404945c0.322382-0.7815762-0.0102634-1.6671944-0.7418041-1.9735966
		l-0.051321-0.020237c-0.727808-0.2710609-1.5456581,0.1156464-1.8622093,0.8809528
		c-0.323082,0.7814026,0.0095654,1.6669598,0.7413387,1.9735374l0.0053654,0.0021591L6.8698153,27.0560589
		c-1.014266-0.2855244-3.0250697-1.1197052-3.3768439-2.237545c-0.0072312-0.0235023-0.0233271-0.0406475-0.0338242-0.0621662
		l0.1005402-3.3696709c0.0594842,0.0678234,0.1147697,0.1358814,0.1796193,0.2033539
		c0.755801,0.7865944,1.5890481,1.5825176,2.7292812,1.9174957l25.658041,7.4469719
		c1.4658813,0.4254875,3.1202469,0.6410313,4.8380585,0.6410313c1.0627899,0,2.1498337-0.0830441,3.2322159-0.2491341
		c1.37817-0.2108784,2.5771904-0.564518,3.5634613-1.05159c0.565918-0.2791691,1.8020248-1.0335121,2.6968575-1.982811
		C46.4231644,28.8203526,46.3720779,29.3339005,46.3100281,29.8290195z"/>
	<path d="M5.0507612,22.9521065l-0.0377898-0.0077572c-0.532793-0.096283-1.0728176,0.4171486-1.2298095,1.1694508
		c-0.1600246,0.7679901,0.1481276,1.4968472,0.6865189,1.624155l0.0377903,0.0077572
		c0.5330262,0.0963402,1.0730505-0.4171486,1.2298093-1.1693916C5.8970718,23.8082142,5.5889196,23.0793552,5.0507612,22.9521065z
		 M4.8016267,24.9571953l-0.3027868-0.0717907l-0.1761203-0.4509144l0.0837445-0.4150486l0.0023327-0.0107307l0.3095522-0.2955551
		l0.3380108,0.0869522l0.0639167,0.1492939l0.0965743,0.2258663l-0.0718479,0.3228474l-0.0410557,0.1845188L4.8016267,24.9571953z
		 M5.064291,24.8606777l-0.0004663,0.0028591L5.0628915,24.867794l-0.0321918,0.1435776l-0.100307-0.0237942l-0.0046654-0.0011063
		L5.064291,24.8606777z M4.682425,25.0596008l-0.0844445,0.072197l-0.0410557-0.1019382L4.682425,25.0596008z M4.3789382,24.8570633
		L4.3770719,24.856596l-0.117569-0.0278759l0.0312586-0.1978149L4.3789382,24.8570633z M4.1913877,24.0719852l-0.0671825-0.2782917
		l0.260798-0.121418l-0.0536523,0.2662792L4.1913877,24.0719852z M4.4496198,23.8254757l0.0347571-0.1531429l0.1068387,0.0178452
		L4.4496198,23.8254757z M4.8324189,23.6111584l0.0956411-0.0845032l0.0587845,0.1242161L4.8324189,23.6111584z
		 M5.2520747,23.9967556l-0.0678821-0.158392l0.0930758,0.0282269L5.2520747,23.9967556z M5.3316207,24.4640579
		l-0.1108041,0.1067219l0.0445547-0.1994476l0.0107307-0.0481701L5.3316207,24.4640579z M5.1795273,24.756115l0.0004663-0.0012245
		L5.37151,24.5701389l0.0305586,0.3734684l-0.2782931,0.0632153L5.1795273,24.756115z M5.3152914,24.146225l0.0515532-0.2311134
		l0.2050462,0.2111683l-0.1590915,0.2672138L5.3152914,24.146225z M5.1184101,23.6848717l-0.0982075-0.2294807l0.2272067-0.0920258
		l0.0412893,0.3654194L5.1184101,23.6848717z M5.0148373,23.12397c0.085844,0.0204105,0.1649232,0.0584927,0.2360711,0.1108608
		L4.963984,23.3511181l-0.2120442-0.2328644C4.8389502,23.1022167,4.9271269,23.1032085,5.0148373,23.12397z M4.8727746,23.4215069
		l-0.1649232,0.1575165l-0.0006995,0.0005264L4.535697,23.5417595l0.1810188-0.2915897L4.8727746,23.4215069z M4.6735606,23.1381397
		l-0.2367711,0.3819256l-0.3711357,0.1728535C4.2158813,23.4120007,4.4358563,23.211504,4.6735606,23.1381397z
		 M3.9039967,24.1424351c0.0268261-0.1291161,0.0671823-0.250185,0.1178024-0.3610477l0.0912089,0.3788929l-0.2454019,0.3694439
		C3.8652735,24.404398,3.8764706,24.2742329,3.9039967,24.1424351z M3.8727381,24.6359787l0.270129,0.2782936l0.0116634,0.4358692
		C3.9982386,25.1776943,3.8969984,24.9241276,3.8727381,24.6359787z M4.1638613,24.769352l-0.2015467-0.2074947l0.1898832-0.2859917
		l0.0732474,0.1877251L4.1638613,24.769352z M4.2933273,24.1272125l-0.0296254,0.1466713l-0.0307918-0.0842113L4.2933273,24.1272125
		z M4.43539,25.0011673l0.0814118,0.2018375l-0.2717619,0.1051464l-0.0093307-0.3542805L4.43539,25.0011673z M4.5058379,25.5663834
		c-0.0965743-0.0229187-0.1840515-0.0684643-0.2617307-0.1310978l0.3163166-0.1221771l0.2281399,0.254034
		C4.6952548,25.5874958,4.60008,25.5887775,4.5058379,25.5663834z M4.6427689,25.2332726l0.1677222-0.1432304l0.1756539,0.0414658
		L4.834518,25.4466L4.6427689,25.2332726z M4.8949356,25.5348339l0.1896501-0.3937626l0.3305464-0.0749969
		C5.2779679,25.2924061,5.0943832,25.4582634,4.8949356,25.5348339z M5.6164455,24.5479774
		c-0.0277596,0.1337814-0.0702147,0.2585239-0.1234007,0.3724194l-0.0340576-0.4184322l0.1945486-0.3266964
		C5.6547022,24.2961597,5.6430387,24.4212532,5.6164455,24.5479774z M5.3873725,23.7696667l0.0004668-0.0019836
		l-0.0009332-0.0002918l-0.0520196-0.4607697c0.1707549,0.1685963,0.2817922,0.4298611,0.3107181,0.7291489L5.3873725,23.7696667z"
		/>
	<path d="M7.9055429,24.1223736l-0.0513201-0.0201778c-0.7278085-0.271122-1.5458927,0.1156445-1.862443,0.8809509
		c-0.3228478,0.7814026,0.0095644,1.6669025,0.7413383,1.9734802l0.0515532,0.0202351
		c0.7280416,0.2712383,1.5458932-0.1155853,1.8626761-0.8808918C8.9697294,25.3144512,8.6370831,24.4287758,7.9055429,24.1223736z
		 M7.8332286,24.2972107c0.1166358,0.0489864,0.2216077,0.1150608,0.3137507,0.1940231L7.732688,24.527216l-0.2640634-0.3184738
		C7.5915585,24.2185974,7.7142596,24.2473488,7.8332286,24.2972107z M7.2967029,26.2151718l-0.4114914-0.1724472
		l-0.185451-0.5434055l0.1707549-0.4230976l0.0044322-0.0109634l0.4691095-0.22295l0.4581461,0.1999722l0.0692816,0.1817188
		l0.1049724,0.2747955l-0.1422958,0.3269882l-0.0811787,0.1869087L7.2967029,26.2151718z M7.6746035,26.1930695
		l-0.0011663,0.0029163L7.6713376,26.200243l-0.0632167,0.1454449L7.47189,26.2885361l-0.0065312-0.0026836L7.6746035,26.1930695z
		 M7.1175504,26.2887688l-0.126667,0.0517273l-0.0438547-0.1232243L7.1175504,26.2887688z M6.5644627,25.0657234
		l-0.056685-0.3223228l0.3781333-0.0498028l-0.1094041,0.2714691L6.5644627,25.0657234z M6.6990604,25.1574001l-0.0606508,0.1495266
		l-0.0317249-0.1007729L6.6990604,25.1574001z M6.6295452,25.701973l0.0928426,0.2724628l-0.0023327-0.0010509l-0.1600246-0.0670643
		L6.6295452,25.701973z M6.7821054,26.1481647l0.0867767,0.2440605l-0.3916636,0.0286922l0.0333581-0.3865318L6.7821054,26.1481647z
		 M6.9558926,24.8796902l0.0683489-0.154892l0.146028,0.0527763L6.9558926,24.8796902z M7.5159788,24.7676029l0.1439285-0.0615253
		l0.0653162,0.152792L7.5159788,24.7676029z M8.0179796,25.7261753l0.0209942-0.0488129l0.0590181,0.1699982l-0.1679559,0.0808868
		L8.0179796,25.7261753z M8.0487719,25.3165493l-0.0737143-0.1927986L8.100791,25.183527L8.0487719,25.3165493z
		 M7.9036765,24.9370174L7.7973046,24.657732l0.3277469-0.0284595l0.0093307,0.4085178L7.9036765,24.9370174z M7.5966907,24.5749207
		l-0.2498341,0.1188526l-0.0009332,0.000349l-0.2332721-0.0945911l0.2897239-0.2589912L7.5966907,24.5749207z M7.3568873,24.2056503
		l-0.3788338,0.3394108l-0.5386248,0.0708561C6.6850643,24.3588524,7.0170102,24.2106667,7.3568873,24.2056503z
		 M6.1557703,25.0519619c0.0543523-0.1313915,0.1262002-0.2498341,0.2111111-0.3539906l0.0772128,0.4387836l-0.389564,0.3231411
		C6.0675936,25.3234901,6.1004848,25.1860924,6.1557703,25.0519619z M6.3458867,26.4379463
		c-0.1945486-0.2355461-0.3020868-0.5418911-0.2981215-0.8614731l0.3391776,0.3860073L6.3458867,26.4379463z M6.1818967,25.5243378
		l0.3013873-0.250185l0.0772128,0.2262154l-0.1255002,0.3117104L6.1818967,25.5243378z M6.8056655,26.7821388
		c-0.1308656-0.0549946-0.2465682-0.1317406-0.3464084-0.2238827l0.4555798-0.0332413l0.2838922,0.3465843
		C7.0664635,26.8643665,6.933732,26.8359089,6.8056655,26.7821388z M7.2782745,26.7554302l-0.2384038-0.291008l0.2519336-0.1025219
		l0.238637,0.0998974L7.2782745,26.7554302z M7.3510551,26.8699074l0.3149171-0.3669357l0.46911,0.0223351
		C7.9148736,26.7273788,7.63798,26.8494377,7.3510551,26.8699074z M8.1329832,26.3886089l-0.3949299-0.0187206l0.1103377-0.253973
		l0.0007-0.0012264l0.2904229-0.1399632L8.1329832,26.3886089z M8.1171198,25.4981518l0.1017075-0.2340889l0.2575321,0.2928734
		l-0.2561331,0.2394543L8.1171198,25.4981518z M8.4831238,26.0274467C8.426672,26.1636181,8.351325,26.2853279,8.262682,26.3919926
		l0.0074644-0.4636879l0.3132849-0.2927551C8.5689678,25.7667656,8.5363102,25.8985634,8.4831238,26.0274467z M8.2666473,25.1130791
		l0.0007-0.0020409L8.266181,25.1103954l-0.0121298-0.5151806c0.2150764,0.2360134,0.3354445,0.5536709,0.3363781,0.8867836
		L8.2666473,25.1130791z"/>
	<path d="M10.8461685,24.9585361l-0.0513201-0.020237c-0.727808-0.2710609-1.54566,0.1156445-1.8622093,0.8810101
		c-0.323082,0.7813435,0.0095634,1.6669025,0.7413378,1.9734802l0.0515528,0.0201778
		c0.7280416,0.2712364,1.5458927-0.1155281,1.862443-0.8808346C11.9105873,26.1505547,11.5777092,25.2649384,10.8461685,24.9585361z
		 M10.7738543,25.1333733c0.1166353,0.0489864,0.2216082,0.1150608,0.3139839,0.1940231l-0.4142914,0.0359821l-0.2642965-0.3184738
		C10.5321846,25.05476,10.6548853,25.0835114,10.7738543,25.1333733z M10.2373285,27.0513344L9.8258371,26.87883
		l-0.1854515-0.5433483L9.811141,25.912384l0.0044317-0.0109634l0.4693432-0.22295l0.4581461,0.1999149l0.0692816,0.1817188
		l0.1047392,0.2748528l-0.1420622,0.3269882l-0.0814123,0.1868515L10.2373285,27.0513344z M10.6152287,27.029232
		l-0.0011663,0.0028572l-0.0018663,0.0043163l-0.0632162,0.1454449l-0.1364641-0.0572109l-0.0062981-0.0026817L10.6152287,27.029232
		z M10.0584087,27.1249313L9.931509,27.1766605l-0.043622-0.1232262L10.0584087,27.1249313z M9.5053215,25.9018879
		l-0.0566854-0.3223248l0.3781338-0.0498619l-0.1096373,0.271471L9.5053215,25.9018879z M9.6396856,25.9935627l-0.0604172,0.1495285
		l-0.0319586-0.100832L9.6396856,25.9935627z M9.5701704,26.5381374l0.0928431,0.2724609l-0.0023327-0.001049l-0.1600246-0.0670662
		L9.5701704,26.5381374z M9.7227306,26.9843273l0.0867767,0.2440033l-0.3916626,0.0286922l0.0333576-0.3865318L9.7227306,26.9843273
		z M9.8965187,25.7158527l0.0683479-0.154892l0.1462622,0.0527782L9.8965187,25.7158527z M10.456604,25.6037083l0.1441622-0.0614681
		l0.0650826,0.1527939L10.456604,25.6037083z M10.9586048,26.5623379l0.0212278-0.048811l0.0590181,0.1699371l-0.1679554,0.0808887
		L10.9586048,26.5623379z M10.989397,26.1527138l-0.0737143-0.1928577l0.1257343,0.0597763L10.989397,26.1527138z
		 M10.8445349,25.77318l-0.1066046-0.2792854l0.32798-0.0284595l0.0093307,0.4084606L10.8445349,25.77318z M10.537549,25.411026
		l-0.2498341,0.1189098l-0.0009327,0.000349l-0.2332716-0.0945911l0.2894897-0.2590485L10.537549,25.411026z M10.2977457,25.0418148
		l-0.3790665,0.3393517l-0.5383921,0.0709152C9.6259232,25.1949577,9.9578686,25.0468292,10.2977457,25.0418148z
		 M9.0966291,25.8881245c0.0541191-0.1313896,0.1261997-0.2498341,0.2108774-0.3539906l0.077446,0.4387856L8.995389,26.2959995
		C9.0084524,26.1595955,9.04111,26.0221977,9.0966291,25.8881245z M9.2865124,27.2741089
		c-0.1945486-0.2356033-0.3020868-0.5418892-0.2981215-0.8614731l0.3391771,0.3860073L9.2865124,27.2741089z M9.1227551,26.3604412
		l0.3013878-0.2501259l0.0772133,0.2262154L9.3756218,26.648241L9.1227551,26.3604412z M9.7465248,27.6183014
		c-0.1310987-0.0550518-0.2468023-0.1317978-0.3466425-0.2238827l0.4555798-0.0332413l0.2838926,0.3465252
		C10.0070887,27.7004719,9.8743572,27.6720715,9.7465248,27.6183014z M10.2191334,27.5915928l-0.2384043-0.2910652
		l0.2519341-0.1025238l0.2384033,0.0999584L10.2191334,27.5915928z M10.2916813,27.7060699l0.3149166-0.3669357l0.4691095,0.0222778
		C10.8554993,27.5635414,10.5788383,27.6856003,10.2916813,27.7060699z M11.0736084,27.2247143l-0.3949299-0.0186615
		l0.1103382-0.2539749l0.0007-0.0012836l0.2904234-0.1399632L11.0736084,27.2247143z M11.0577459,26.3342571l0.1019392-0.2340889
		l0.2572994,0.2928734l-0.2561331,0.2395115L11.0577459,26.3342571z M11.423749,26.8636093
		c-0.0562181,0.1361141-0.1317978,0.2578239-0.2204418,0.3645458l0.0074654-0.4637451l0.3132839-0.2926979
		C11.5098267,26.6029282,11.4769354,26.7346687,11.423749,26.8636093z M11.2072735,25.9491825l0.0009327-0.0019817l-0.0014-0.0007
		L11.19491,25.4313774c0.2150764,0.2360134,0.3352108,0.5536709,0.3361444,0.8867245L11.2072735,25.9491825z"/>
	<path d="M13.7870274,25.7946415l-0.0515537-0.0201797c-0.7275753-0.2711201-1.5456591,0.1156464-1.8622093,0.8809528
		c-0.323082,0.7814026,0.0095644,1.6669598,0.7413378,1.9734802l0.0515537,0.0202351
		c0.7280416,0.2712383,1.5458927-0.1155281,1.862442-0.8808918C14.8512135,26.9867191,14.5183344,26.1010437,13.7870274,25.7946415z
		 M13.7144794,25.9694786c0.116869,0.0490456,0.2218418,0.1150608,0.3139839,0.1940231L13.614172,26.199543l-0.2640629-0.3185329
		C13.4728098,25.8908653,13.5955105,25.9196167,13.7144794,25.9694786z M13.1779537,27.8874969l-0.4112577-0.1725044
		l-0.1854515-0.5434055l0.1707554-0.4230385l0.0041981-0.0110226l0.4693432-0.22295l0.4581461,0.1999722l0.0692816,0.1817188
		l0.1049728,0.2747936l-0.1422958,0.3269901l-0.0811787,0.1869087L13.1779537,27.8874969z M13.5560875,27.8653374
		l-0.0011663,0.0029163l-0.002099,0.0043144l-0.0632172,0.1453876l-0.1362305-0.0571518l-0.0065317-0.0026836L13.5560875,27.8653374
		z M12.9990349,27.9610367l-0.126667,0.0517273l-0.0438547-0.123167L12.9990349,27.9610367z M12.4459467,26.7379913
		l-0.0566854-0.3223228l0.3781338-0.0498028l-0.1096373,0.2714691L12.4459467,26.7379913z M12.5803118,26.829668
		l-0.0604181,0.1495266l-0.0317249-0.1007729L12.5803118,26.829668z M12.5107965,27.3742409l0.0930758,0.2724628
		l-0.0025663-0.0010509l-0.1600246-0.0670662L12.5107965,27.3742409z M12.6635895,27.8204327l0.086544,0.2440605
		l-0.3914309,0.0286922l0.0331249-0.3865318L12.6635895,27.8204327z M12.8373766,26.5520153l0.0683489-0.1549492
		l0.1460285,0.0527763L12.8373766,26.5520153z M13.3974628,26.4398708l0.1439285-0.0615253l0.0653162,0.1528511
		L13.3974628,26.4398708z M13.8994637,27.3984432l0.0212278-0.0487537l0.0587845,0.169939l-0.1679554,0.0808868
		L13.8994637,27.3984432z M13.9302559,26.9888172l-0.0737143-0.1927986l0.1257334,0.0597763L13.9302559,26.9888172z
		 M13.7853937,26.6092854l-0.1068382-0.2792854l0.32798-0.0284595l0.0093307,0.4085178L13.7853937,26.6092854z
		 M13.4781752,26.2471886l-0.2498341,0.1189098l-0.0009336,0.0002918l-0.2332716-0.0945339l0.2897234-0.2590485
		L13.4781752,26.2471886z M13.2383718,25.8779182l-0.3790674,0.3394108l-0.5383911,0.0709152
		C12.5665483,26.0311203,12.8984947,25.8829346,13.2383718,25.8779182z M12.0372543,26.724287
		c0.0543528-0.1314487,0.1261997-0.2498913,0.2111111-0.3539906l0.0772133,0.4387264l-0.3895645,0.3231411
		C11.9490776,26.9957581,11.9817352,26.8583603,12.0372543,26.724287z M12.2271376,28.1102734
		c-0.194315-0.2356052-0.3018541-0.5418911-0.2978878-0.8614731l0.3389435,0.3859482L12.2271376,28.1102734z M12.0633812,27.1966057
		l0.3013868-0.250185l0.0772133,0.2262154l-0.1257334,0.3117676L12.0633812,27.1966057z M12.68715,28.4544067
		c-0.1310987-0.0549946-0.2468014-0.1317406-0.3466425-0.2238827l0.4558134-0.0332413l0.2838917,0.3465843
		C12.9479475,28.5366344,12.8152161,28.5081768,12.68715,28.4544067z M13.1597586,28.4276981l-0.2384033-0.291008
		l0.2519331-0.1025219l0.238637,0.0998974L13.1597586,28.4276981z M13.2325392,28.5421753l0.3149176-0.3669357l0.4688768,0.0223351
		C13.7963581,28.3996468,13.5194645,28.5217648,13.2325392,28.5421753z M14.0144672,28.0608768l-0.3949299-0.0187206
		l0.1103382-0.253973l0.0004663-0.0012264l0.290657-0.1399632L14.0144672,28.0608768z M13.9986048,27.1704197l0.1017065-0.2340889
		l0.2575321,0.2928734l-0.2561331,0.2394543L13.9986048,27.1704197z M14.3643751,27.6997147
		c-0.0562191,0.1361713-0.131566,0.2578812-0.2202091,0.3645458l0.0074644-0.4636879l0.3130512-0.2927551
		C14.4504519,27.4390335,14.4177942,27.5708313,14.3643751,27.6997147z M14.1478987,26.785347l0.0009327-0.0019836l-0.001399-0.0007
		l-0.0118971-0.5151806c0.2150764,0.2360134,0.3352118,0.5536709,0.3363781,0.8867836L14.1478987,26.785347z"/>
	<path d="M16.7276516,26.6308041l-0.0513191-0.020237c-0.727808-0.2710609-1.5458927,0.1156445-1.8622093,0.8810101
		c-0.323082,0.7814026,0.0093307,1.6669025,0.7413378,1.9734802l0.0513201,0.0201778
		c0.7282753,0.2712364,1.5461254-0.1155281,1.862442-0.8808346C17.7920723,27.8228226,17.4591923,26.9372063,16.7276516,26.6308041z
		 M16.6553383,26.8056412c0.1166363,0.0489864,0.2218418,0.1150608,0.3137512,0.1940231l-0.4142914,0.0359821l-0.2640648-0.3184738
		C16.4136677,26.7270279,16.5363693,26.7557793,16.6553383,26.8056412z M16.1185799,28.7236023l-0.4112587-0.1725044
		l-0.1854515-0.5433483l0.1707554-0.4230976l0.0044317-0.0109634l0.4691095-0.22295l0.458147,0.1999149l0.0695152,0.1817188
		l0.1047382,0.2748528l-0.1420631,0.3269882l-0.0814114,0.1869087L16.1185799,28.7236023z M16.4967136,28.7014999
		l-0.0011673,0.0029163l-0.0018654,0.0042572l-0.0634499,0.1454449l-0.1362305-0.0572109l-0.0065327-0.0026226
		L16.4967136,28.7014999z M15.9398928,28.7971992l-0.1268997,0.0517292l-0.0438547-0.1232262L15.9398928,28.7971992z
		 M15.3865719,27.5741558l-0.0564518-0.3223248l0.3779011-0.0498028l-0.1094046,0.2714119L15.3865719,27.5741558z
		 M15.520937,27.6658306l-0.0601845,0.1495285l-0.0319576-0.1007748L15.520937,27.6658306z M15.4514217,28.2104053
		l0.0930758,0.2724609l-0.0023327-0.0010509l-0.1600246-0.0670643L15.4514217,28.2104053z M15.6042147,28.6565952
		l0.0867777,0.2440033l-0.3916636,0.0287495l0.0333576-0.3865891L15.6042147,28.6565952z M15.7780027,27.3881207l0.0683489-0.154892
		l0.1462612,0.0527782L15.7780027,27.3881207z M16.338089,27.2759762l0.1439285-0.0614681l0.0653152,0.1527939L16.338089,27.2759762
		z M16.8400898,28.2346058l0.0212269-0.048811l0.0587845,0.1699371l-0.1679554,0.080946L16.8400898,28.2346058z
		 M16.870882,27.8249817l-0.0737152-0.1928005l0.1257343,0.0597763L16.870882,27.8249817z M16.7260189,27.4454479
		l-0.1066055-0.2792854l0.3277473-0.0284595l0.0093307,0.4085178L16.7260189,27.4454479z M16.4190331,27.083292
		l-0.2500668,0.1189117l-0.0009327,0.000349l-0.2332726-0.0945911l0.2897243-0.2589912L16.4190331,27.083292z
		 M16.1792297,26.7140827l-0.3793001,0.3393517l-0.5383911,0.0709152
		C15.5074072,26.8672829,15.8391199,26.7190971,16.1792297,26.7140827z M14.9778795,27.5603924
		c0.0543528-0.1313896,0.1264334-0.2498341,0.2111111-0.3539906l0.0772133,0.4387856l-0.3895636,0.3230801
		C14.8897028,27.8318634,14.9223614,27.6944656,14.9778795,27.5603924z M15.1679964,28.9463768
		c-0.1945486-0.2355461-0.3020868-0.5418911-0.2981215-0.8614731l0.3391771,0.3860073L15.1679964,28.9463768z
		 M15.0040064,28.0327091l0.3013868-0.2501259l0.0774469,0.2262154l-0.1257334,0.3117104L15.0040064,28.0327091z
		 M15.6277752,29.2905693c-0.1310987-0.0549927-0.2465677-0.1317978-0.3464088-0.2238827l0.4555807-0.0332413l0.2838907,0.3465252
		C15.8885736,29.3727398,15.7558413,29.3443394,15.6277752,29.2905693z M16.1003838,29.2638607l-0.2384033-0.2910652
		l0.2519341-0.1025238l0.238636,0.0999584L16.1003838,29.2638607z M16.1731644,29.3783379l0.3149185-0.3669357l0.4691086,0.0222778
		C16.7369823,29.2358093,16.4600887,29.3578682,16.1731644,29.3783379z M16.9550934,28.8969822l-0.3949299-0.0186615
		l0.1103363-0.2539749l0.0007-0.0012245l0.2904243-0.1399632L16.9550934,28.8969822z M16.93923,28.0065823l0.1017075-0.2341461
		l0.2575321,0.2928734l-0.256134,0.2395115L16.93923,28.0065823z M17.3050003,28.5358772
		c-0.0559845,0.1361141-0.1315651,0.2578239-0.2202091,0.3645458l0.0074654-0.4637451l0.3130512-0.2926979
		C17.3913116,28.2751961,17.3584194,28.4069939,17.3050003,28.5358772z M17.0885239,27.6214504l0.0009327-0.0019817l-0.0014-0.0007
		l-0.0116634-0.5151234c0.2150784,0.2360134,0.3352127,0.5536709,0.3361454,0.8867836L17.0885239,27.6214504z"/>
	<path d="M19.6685104,27.4669094l-0.0515518-0.0201797c-0.7275753-0.2710609-1.54566,0.1156464-1.8622093,0.8809528
		c-0.323082,0.7814026,0.0095634,1.6669598,0.7413368,1.9734802l0.0515537,0.0202351
		c0.7280407,0.2712383,1.5458927-0.1155281,1.862442-0.8808918C20.7326984,28.658987,20.3998184,27.7733116,19.6685104,27.4669094z
		 M19.5959644,27.6417465c0.116869,0.0490456,0.2218399,0.1151199,0.3139839,0.1940823l-0.4145241,0.0359821l-0.2640648-0.3185329
		C19.3542938,27.5631332,19.4769955,27.5918846,19.5959644,27.6417465z M19.0594387,29.5597649L18.64818,29.3872604
		l-0.1856842-0.5433483l0.1707554-0.4230957l0.0044308-0.0109653l0.4691105-0.2230072l0.4583797,0.1999722l0.0692806,0.1817188
		l0.1049728,0.2747936l-0.1422958,0.3269901l-0.0811787,0.1869087L19.0594387,29.5597649z M19.4375725,29.5376053l-0.0014,0.0029163
		l-0.0018673,0.0043144l-0.0632153,0.1454449l-0.1364651-0.057209l-0.0065308-0.0026836L19.4375725,29.5376053z
		 M18.880518,29.6333637l-0.1268997,0.0516682l-0.0436211-0.123167L18.880518,29.6333637z M18.3274307,28.4103184
		l-0.0566845-0.322382l0.3781338-0.0498028l-0.1096382,0.2714691L18.3274307,28.4103184z M18.4617958,28.5019951
		l-0.0604172,0.1494675l-0.0317249-0.1007729L18.4617958,28.5019951z M18.3922806,29.0465679l0.0930748,0.2724037
		L18.48279,29.3179207l-0.1600246-0.0670071L18.3922806,29.0465679z M18.5450745,29.4927006l0.086544,0.2440605
		l-0.3916645,0.0286922l0.0333576-0.3865318L18.5450745,29.4927006z M18.7186279,28.2242832l0.0685825-0.1549492
		l0.1460285,0.0528355L18.7186279,28.2242832z M19.2789478,28.1121387l0.1436939-0.0614681l0.0653172,0.1527939
		L19.2789478,28.1121387z M19.7809486,29.0707111l0.0209942-0.0487537l0.0587845,0.169939l-0.1677227,0.0808868
		L19.7809486,29.0707111z M19.8117409,28.6611443l-0.0737152-0.1928577l0.1255016,0.0597763L19.8117409,28.6611443z
		 M19.6666451,28.2815533l-0.1066055-0.2792282l0.32798-0.0284576l0.0093307,0.4084587L19.6666451,28.2815533z
		 M19.3596592,27.9194565l-0.2498341,0.1189098l-0.0009327,0.000349l-0.2332726-0.0945911l0.2894897-0.2590485
		L19.3596592,27.9194565z M19.1198559,27.5502453l-0.3790665,0.3393517l-0.538393,0.0709152
		C18.4480324,27.7033882,18.7799778,27.5552025,19.1198559,27.5502453z M17.9187393,28.3965549
		c0.0543518-0.1314487,0.1261997-0.2498341,0.2111111-0.3539906l0.0769787,0.4387264l-0.3893299,0.3231411
		C17.8305626,28.668026,17.8632202,28.5306282,17.9187393,28.3965549z M18.1086216,29.7825413
		c-0.194315-0.2356052-0.3020859-0.5418911-0.2978878-0.8614731l0.3389435,0.3860054L18.1086216,29.7825413z M17.9448643,28.8688736
		l0.3013878-0.2501259l0.0772133,0.2261562l-0.1257343,0.3117676L17.9448643,28.8688736z M18.568634,30.1267338
		c-0.1310978-0.0550537-0.2468014-0.1317997-0.3466415-0.2239418l0.4555798-0.0331821l0.2841244,0.3465252
		C18.8291988,30.2089024,18.696701,30.1804447,18.568634,30.1267338z M19.0410099,30.1000233l-0.2381706-0.2910652
		l0.2519341-0.1025219l0.238636,0.0998974L19.0410099,30.1000233z M19.1137905,30.2145023l0.3149166-0.3669949l0.4691105,0.0223351
		C19.6778412,30.0719147,19.4007149,30.1940327,19.1137905,30.2145023z M19.8957176,29.7331448l-0.3946953-0.0187206
		l0.1101036-0.253973l0.0007-0.0012264l0.2904243-0.1399632L19.8957176,29.7331448z M19.8798561,28.8426876l0.1019382-0.2340889
		l0.2572994,0.2928734l-0.2561321,0.2394543L19.8798561,28.8426876z M20.2458591,29.3720398
		c-0.0562191,0.1361141-0.1317978,0.2578239-0.2204418,0.3644886l0.0074654-0.4636879l0.3132839-0.2927551
		C20.3319359,29.1113586,20.2992783,29.2430992,20.2458591,29.3720398z M20.0293827,28.4576149l0.0009327-0.0019836l-0.0014-0.0007
		l-0.0118961-0.5151215c0.2150764,0.2359543,0.3352127,0.5536118,0.3363781,0.8867245L20.0293827,28.4576149z"/>
	<path d="M22.6091366,28.303072l-0.0513191-0.0201778c-0.7278099-0.2711201-1.5458927,0.1156445-1.8624439,0.8809509
		c-0.3228474,0.7814026,0.0095654,1.6669025,0.7413387,1.9734802l0.0515537,0.020237
		c0.7280407,0.2712364,1.5458927-0.1155872,1.862442-0.8808937C23.6733227,29.4950905,23.3406773,28.6094742,22.6091366,28.303072z
		 M22.5368214,28.4779091c0.1166363,0.0489864,0.2216091,0.1150608,0.3137512,0.1940231l-0.4142914,0.0359821l-0.2640629-0.3184738
		C22.2951527,28.3992958,22.4178543,28.4280472,22.5368214,28.4779091z M22.0000629,30.3958702l-0.4112568-0.1724453
		l-0.1854515-0.5434074l0.1707554-0.4230976l0.0044308-0.0109634l0.4691105-0.22295l0.4581451,0.1999722l0.0692825,0.1817188
		l0.1049728,0.2747955l-0.1422958,0.3269882l-0.0811787,0.1869087L22.0000629,30.3958702z M22.3781967,30.3737679
		l-0.0013981,0.0029163l-0.0018673,0.0042572l-0.0632172,0.1454449l-0.1364632-0.0571518l-0.0062981-0.0026817
		L22.3781967,30.3737679z M21.8211441,30.4694672l-0.1268997,0.0517292l-0.0436211-0.1232262L21.8211441,30.4694672z
		 M21.2680569,29.2464237l-0.0566864-0.3223248l0.3781338-0.0498028l-0.1094036,0.271471L21.2680569,29.2464237z
		 M21.402422,29.3380985l-0.0604191,0.1495285l-0.0317249-0.1007748L21.402422,29.3380985z M21.3329067,29.8826714
		l0.0930748,0.2724628l-0.0023327-0.0010509l-0.1600246-0.0670643L21.3329067,29.8826714z M21.4856987,30.3288631
		l0.0867767,0.2440033l-0.3918953,0.0287495l0.0335903-0.3865891L21.4856987,30.3288631z M21.6592541,29.0603886l0.0685806-0.154892
		l0.1460285,0.0527782L21.6592541,29.0603886z M22.2195721,28.9482441l0.1439285-0.0614681l0.0653172,0.1527939
		L22.2195721,28.9482441z M22.7215729,29.9068737l0.0209961-0.048811l0.0590172,0.1699963l-0.1679554,0.0808868
		L22.7215729,29.9068737z M22.7523651,29.4972496l-0.0737133-0.1928005l0.1257324,0.0597763L22.7523651,29.4972496z
		 M22.6072712,29.1177158l-0.1063728-0.2792854l0.3277473-0.0284595l0.0093307,0.4085178L22.6072712,29.1177158z
		 M22.3002853,28.755619l-0.2498341,0.1188526l-0.0009346,0.000349l-0.2332706-0.0945911l0.2897224-0.2589912L22.3002853,28.755619z
		 M22.060482,28.3863506l-0.3790684,0.3393517l-0.5383911,0.0709152
		C21.3886585,28.5395508,21.7206039,28.3913651,22.060482,28.3863506z M20.8593636,29.2326603
		c0.0543537-0.1313896,0.1261997-0.2498341,0.2111111-0.3539906l0.0772133,0.4387856l-0.3895645,0.3231392
		C20.7711868,29.5041294,20.8038464,29.3667908,20.8593636,29.2326603z M21.0494804,30.6186447
		c-0.1945477-0.2355461-0.3020859-0.5418911-0.2981205-0.8614731l0.3391762,0.3860073L21.0494804,30.6186447z
		 M20.8854904,29.7050362l0.3013878-0.250185l0.0772133,0.2262154l-0.1255016,0.3117104L20.8854904,29.7050362z
		 M21.5092602,30.9628372c-0.130867-0.0549927-0.2465687-0.1317406-0.3464088-0.2238827l0.4553471-0.0332413l0.2841244,0.3465252
		C21.7700577,31.0450668,21.6373253,31.0166073,21.5092602,30.9628372z M21.9818687,30.9361286l-0.2384033-0.291008
		l0.2519321-0.1025219l0.2386379,0.0998993L21.9818687,30.9361286z M22.0546494,31.0506058L22.369566,30.68367l0.4691105,0.0223351
		C22.6184673,30.9080772,22.3415737,31.0301361,22.0546494,31.0506058z M22.8365765,30.5693073l-0.3949299-0.0187187
		l0.1103382-0.2539749l0.0007-0.0012245l0.2904243-0.1399632L22.8365765,30.5693073z M22.820715,29.6788502l0.1017056-0.234087
		l0.2575321,0.2928715l-0.2561321,0.2394543L22.820715,29.6788502z M23.1864853,30.2081451
		c-0.0562191,0.1361713-0.131567,0.2578239-0.2204418,0.3645458l0.0074635-0.4637451l0.3132839-0.2926979
		C23.272562,29.947464,23.2399044,30.0792618,23.1864853,30.2081451z M22.9700089,29.2937775l0.0009327-0.0020409
		l-0.0011673-0.0006409l-0.0121288-0.5151825c0.2150764,0.2360134,0.3354435,0.5536709,0.3363781,0.8867836L22.9700089,29.2937775z"
		/>
	<path d="M34.1213379,31.4846096l-0.0543518-0.0098572c-0.7663002-0.1253834-1.494339,0.4121342-1.656929,1.2242107
		c-0.1658592,0.8290482,0.3314781,1.6336632,1.1087379,1.793045l0.0543556,0.0098572
		c0.7667618,0.1254387,1.4945717-0.4121361,1.6573944-1.2241554C35.3959351,32.4485474,34.8981323,31.6438751,34.1213379,31.4846096
		z M34.5528908,32.9844894l0.090744,0.1553574l-0.1492958,0.1118546l0.0473557-0.2152519L34.5528908,32.9844894z
		 M33.928421,33.6556702l-0.437149-0.0897522l-0.2869263-0.4972763l0.0858459-0.4481163l0.0020981-0.0116043l0.4173241-0.3094368
		l0.4880028,0.1076546l0.1033401,0.1648674l0.1560593,0.2493668l-0.0765114,0.3483353l-0.0436249,0.1990356L33.928421,33.6556702z
		 M34.2948914,33.5609016l-0.0006981,0.0030937l-0.0009346,0.0045471l-0.0340576,0.154953l-0.1448631-0.0297432l-0.0067635-0.0014
		L34.2948914,33.5609016z M33.7669983,33.7624512l-0.1145363,0.0752296l-0.0667152-0.1124382L33.7669983,33.7624512z
		 M33.1744881,33.2810364l0.1439285,0.2493668l-0.0025673-0.0005836l-0.1700554-0.034874L33.1744881,33.2810364z
		 M32.9878693,32.6693382l-0.1178017-0.305294l0.3613396-0.1219444l-0.0550537,0.2875099L32.9878693,32.6693382z
		 M33.3359108,32.4112244l0.0370903-0.1652145l0.1537285,0.0235596L33.3359108,32.4112244z M33.8638039,32.1929398
		l0.129467-0.0881767l0.093544,0.1373367L33.8638039,32.1929398z M34.3830681,32.4536781l0.1348305,0.0343513l-0.0251923,0.1406021
		L34.3830681,32.4536781z M34.4504852,33.4516144l0.0004654-0.001339l0.2579994-0.1934433l0.0734787,0.4073524l-0.3911972,0.0579681
		L34.4504852,33.4516144z M34.7535057,33.0662498l-0.1588593-0.2726936l0.0548172-0.2493668l0.3090858,0.2376442
		L34.7535057,33.0662498z M34.5228004,32.338501l-0.245636-0.0542946l-0.1586266-0.2533913l0.3160858-0.0912685
		L34.5228004,32.338501z M34.0842476,31.6701183c0.123867,0.0255432,0.2398033,0.0700989,0.3452415,0.1297569l-0.3993607,0.1153526
		l-0.3207474-0.2614384C33.8318481,31.639677,33.9578133,31.6442242,34.0842476,31.6701183z M33.9060287,31.9882431
		l-0.2223091,0.1649818l-0.0009346,0.0005226l-0.2470322-0.04776l0.2339706-0.3100777L33.9060287,31.9882431z
		 M33.5992737,31.6723347l-0.3062859,0.4062443l-0.514595,0.1736107
		C32.9696732,31.9524364,33.2666283,31.7428989,33.5992737,31.6723347z M32.5843086,32.7348289
		c0.0277596-0.1394386,0.0755806-0.2695465,0.1385651-0.3881073l0.1604919,0.4155769l-0.3195839,0.3923035
		C32.550251,33.0181961,32.555851,32.8770676,32.5843086,32.7348289z M32.5796432,33.2703056l0.4072914,0.3132248
		l0.0515556,0.4744186C32.8021851,33.8643913,32.6374969,33.5846405,32.5796432,33.2703056z M33.0051308,33.4266548
		l-0.3039513-0.233448l0.2475014-0.3036613l0.1194344,0.2069702L33.0051308,33.4266548z M33.0564499,32.7989197l0.0811806-0.0656052
		l-0.0305595,0.15839L33.0564499,32.7989197z M33.1220016,33.630127l0.2885551,0.0591927l0.132267,0.2226563L33.16399,34.0158424
		L33.1220016,33.630127z M33.5561218,34.3067894c-0.1390305-0.0286903-0.2673302-0.081646-0.3830338-0.1527328l0.4404182-0.1206017
		l0.3457069,0.2851143C33.8278809,34.337059,33.6923523,34.3347816,33.5561218,34.3067894z M33.7245407,33.9497681
		l0.2274399-0.1492958l0.253334,0.0519638l-0.1905823,0.3368454L33.7245407,33.9497681z M34.1082764,34.2875443l0.2381706-0.4209366
		l0.4644432-0.0686989C34.6338348,34.0387039,34.3858681,34.2119637,34.1082764,34.2875443z M35.056057,33.2421951
		c-0.028923,0.144455-0.0793114,0.2784119-0.1457939,0.400238l-0.0823441-0.456398l0.2507668-0.3477478
		C35.0901146,32.9697914,35.0835838,33.105381,35.056057,33.2421951z M34.6669617,32.3868446l0.0004654-0.0020981l-0.0014-0.0004082
		l-0.1112709-0.5031681c0.2565994,0.1900005,0.4359856,0.4784412,0.5013008,0.8050785L34.6669617,32.3868446z"/>
	<path d="M37.0582314,31.8889275l-0.0543518-0.0098553c-0.7663002-0.1253853-1.494339,0.4121342-1.6569328,1.2242107
		c-0.1658554,0.8290482,0.3314819,1.6336594,1.1087418,1.793045l0.0543518,0.0098534
		c0.7667656,0.1254425,1.4945755-0.412075,1.6573982-1.2241516C38.3328285,32.8528633,37.8350258,32.0481949,37.0582314,31.8889275z
		 M37.4897842,33.3888054l0.090744,0.1553612l-0.1492958,0.1118546l0.0473557-0.2152519L37.4897842,33.3888054z
		 M36.8653145,34.0599899l-0.437149-0.0897522l-0.2869263-0.4972763l0.0858421-0.4481163l0.0021019-0.0116043l0.4173241-0.3094368
		l0.4880028,0.1076546l0.1033401,0.1648674l0.1560593,0.2493668l-0.0765152,0.3483315l-0.0436211,0.1990395L36.8653145,34.0599899z
		 M37.2317848,33.9652214l-0.0006981,0.0030899l-0.0009346,0.0046082l-0.0340576,0.154892l-0.1448631-0.0297394l-0.0067635-0.0014
		L37.2317848,33.9652214z M36.7038918,34.1667671l-0.1145363,0.0752335l-0.0667152-0.1124382L36.7038918,34.1667671z
		 M36.1113815,33.6853523l0.1439285,0.2493706l-0.0025673-0.0005836l-0.1700554-0.034874L36.1113815,33.6853523z
		 M35.9247627,33.073658l-0.1178017-0.305294l0.3613358-0.1219444l-0.0550499,0.2875061L35.9247627,33.073658z
		 M36.2728043,32.8155403l0.0370903-0.1652145l0.1537247,0.0235596L36.2728043,32.8155403z M36.8006973,32.5972557
		l0.129467-0.0881767l0.0933075,0.1373405L36.8006973,32.5972557z M37.3199615,32.8579979l0.1348305,0.0343475l-0.0251923,0.1406059
		L37.3199615,32.8579979z M37.3873787,33.8559341l0.0004654-0.0013428l0.2579994-0.1934395l0.0734787,0.4073524
		l-0.3911972,0.0579681L37.3873787,33.8559341z M37.6903992,33.4706268l-0.1588593-0.2727509l0.0548172-0.2493706
		l0.3090858,0.237648L37.6903992,33.4706268z M37.4596901,32.7428207l-0.2456322-0.0542946l-0.1586266-0.2533913l0.316082-0.0912704
		L37.4596901,32.7428207z M37.0209084,32.0744362c0.1240997,0.0255432,0.240036,0.0700989,0.3454742,0.1297569l-0.3993607,0.1153526
		l-0.3207474-0.2614365C36.7687416,32.0439949,36.8947067,32.048542,37.0209084,32.0744362z M36.8429222,32.3925629
		l-0.2223091,0.164978l-0.0009346,0.0005264l-0.2470322-0.0477638l0.2339706-0.3100739L36.8429222,32.3925629z
		 M36.5361671,32.0766525l-0.3062859,0.4062424l-0.514595,0.1736145
		C35.9065666,32.3567543,36.2035217,32.1472168,36.5361671,32.0766525z M35.5212021,33.1391487
		c0.0277596-0.1394386,0.0755806-0.2695465,0.1385651-0.3881073l0.1604881,0.4155731l-0.3195801,0.3923073
		C35.4871445,33.4225159,35.4927444,33.2814445,35.5212021,33.1391487z M35.5165367,33.6746254l0.4072914,0.3132248
		l0.0515556,0.4744148C35.7390785,34.2687073,35.5743866,33.9889565,35.5165367,33.6746254z M35.9420242,33.8309746
		l-0.3039513-0.233448l0.2472687-0.3036613l0.1196671,0.2069702L35.9420242,33.8309746z M35.9933434,33.2032394l0.0809479-0.065609
		l-0.0303268,0.1583939L35.9933434,33.2032394z M36.0588951,34.0344467l0.2885551,0.0591927l0.132267,0.2226563
		l-0.3788338,0.1038666L36.0588951,34.0344467z M36.4930115,34.7111092
		c-0.1390266-0.0286942-0.2673264-0.081646-0.3830299-0.1527367l0.4404182-0.1206017l0.3457069,0.2851181
		C36.7647743,34.741375,36.6292458,34.7391014,36.4930115,34.7111092z M36.6614342,34.3540878l0.2274399-0.1492958l0.253334,0.05196
		l-0.1905823,0.3368454L36.6614342,34.3540878z M37.045166,34.691864l0.2379379-0.4209404l0.4646797-0.0686989
		C37.5707283,34.4430199,37.3227615,34.6163406,37.045166,34.691864z M37.9929504,33.6465149
		c-0.028923,0.1444511-0.0793114,0.2784691-0.1457939,0.4002342l-0.0823441-0.4563942l0.2507668-0.3477516
		C38.0270081,33.3741112,38.0204773,33.5097008,37.9929504,33.6465149z M37.6038551,32.7911644l0.0004654-0.0020981
		l-0.0014-0.0004082l-0.1112709-0.50317c0.2565994,0.1900024,0.4359856,0.4784431,0.5013008,0.8050804L37.6038551,32.7911644z"/>
	<path d="M40.088665,31.7417908l-0.0545845-0.0098553c-0.7662964-0.1253262-1.4941063,0.4121342-1.6566963,1.2242107
		c-0.1660919,0.8291054,0.3314781,1.6336632,1.1087418,1.793045l0.0543518,0.0098534
		c0.7667656,0.1254425,1.4945717-0.412075,1.6571617-1.2241516C41.3632622,32.7057304,40.8654633,31.9011154,40.088665,31.7417908z
		 M40.5202179,33.2417297l0.0905113,0.1553574l-0.1490631,0.1117973l0.047123-0.2151947L40.5202179,33.2417297z
		 M39.8955154,33.9128532l-0.4369164-0.0897522l-0.287159-0.4972763l0.0858459-0.4481163l0.0023308-0.0116043l0.4170914-0.3094368
		l0.4882393,0.1076546l0.1033363,0.1648674l0.1558266,0.249424l-0.0762787,0.3482742l-0.0436211,0.1991005L39.8955154,33.9128532z
		 M40.2622185,33.8180847l-0.0006981,0.0030937l-0.0011673,0.0046043l-0.0338249,0.154892l-0.1448593-0.0297394l-0.007-0.0013428
		L40.2622185,33.8180847z M39.7340927,34.0196342l-0.1143036,0.0752869l-0.0667152-0.1124382L39.7340927,34.0196342z
		 M39.1418152,33.5382767l0.1439285,0.2493095l-0.0025673-0.0005264l-0.1700516-0.034874L39.1418152,33.5382767z
		 M38.9551964,32.9265213l-0.1180344-0.305294l0.3613396-0.1219444l-0.0550537,0.2875061L38.9551964,32.9265213z
		 M39.3030052,32.6684036l0.037323-0.1652145l0.1534958,0.0235634L39.3030052,32.6684036z M39.8311348,32.4501228
		l0.1292305-0.0881195l0.093544,0.1372795L39.8311348,32.4501228z M40.350399,32.7108612l0.1348305,0.0343475l-0.0254288,0.1406059
		L40.350399,32.7108612z M40.4178123,33.7088547l0.0002327-0.001339l0.2579994-0.1935005l0.0737152,0.4073524l-0.3911972,0.0579681
		L40.4178123,33.7088547z M40.7208328,33.3234901l-0.1588593-0.2726936l0.0545883-0.2493668l0.3093185,0.237587
		L40.7208328,33.3234901z M40.4901276,32.5957413l-0.2458687-0.0542946l-0.1583939-0.2533913l0.3160858-0.0913277
		L40.4901276,32.5957413z M40.051342,31.9273586c0.1240997,0.0255432,0.2398033,0.0700397,0.3454781,0.1296978l-0.3995972,0.1154137
		l-0.3205147-0.2614994C39.7989426,31.8969173,39.9249077,31.9014072,40.051342,31.9273586z M39.8731232,32.2454834
		l-0.2223091,0.1649246l-0.0006981,0.0005226l-0.2472687-0.0477028l0.2342033-0.3101349L39.8731232,32.2454834z
		 M39.5666046,31.929575l-0.3065186,0.4061832l-0.5145988,0.1736145
		C38.9367676,32.2096748,39.2339592,32.0001411,39.5666046,31.929575z M38.551403,32.992012
		c0.0279922-0.1394386,0.0755806-0.2695465,0.1387978-0.3881073l0.1604919,0.4155731l-0.3198166,0.3923073
		C38.5173454,33.2754364,38.5229454,33.1343079,38.551403,32.992012z M38.5467377,33.5275459l0.4072952,0.3131676
		l0.0517845,0.4744759C38.7692795,34.1216316,38.6045914,33.8418808,38.5467377,33.5275459z M38.9722252,33.6838951
		l-0.3037186-0.2335052l0.2472687-0.3036613l0.1194344,0.2070313L38.9722252,33.6838951z M39.0235481,33.05616l0.0811768-0.0656662
		l-0.0303268,0.1583939L39.0235481,33.05616z M39.0893288,33.8873672l0.2883263,0.0591354l0.1324959,0.2227173l-0.3788338,0.1038055
		L39.0893288,33.8873672z M39.5234489,34.5639725c-0.1392632-0.0286331-0.2675629-0.0815849-0.3832664-0.1526756
		l0.4406509-0.1206589l0.3454742,0.2851715C39.7952118,34.5942383,39.6594467,34.5920219,39.5234489,34.5639725z
		 M39.6918716,34.2069511l0.2274399-0.1492386l0.253334,0.0519066l-0.1908188,0.3368416L39.6918716,34.2069511z
		 M40.0753708,34.5447273l0.2381706-0.4208794l0.4646759-0.0687561
		C40.6011658,34.2959442,40.3531952,34.4692078,40.0753708,34.5447273z M41.0231514,33.4994354
		c-0.0286903,0.1443977-0.0793114,0.2784119-0.1455612,0.400238l-0.0823441-0.4564552l0.2507668-0.3476906
		C41.0574455,33.2270317,41.0506783,33.3626213,41.0231514,33.4994354z M40.6342888,32.6440849l0.0004654-0.0021553
		l-0.0016327-0.0004082l-0.1110344-0.503109c0.2565956,0.1899986,0.4357491,0.4784393,0.5010643,0.8050194L40.6342888,32.6440849z"
		/>
	<path d="M43.1123352,30.9773006l-0.0545845-0.0099144c-0.7662964-0.1253242-1.4941063,0.4121342-1.6566963,1.2242107
		c-0.1660919,0.8291054,0.3314781,1.6336632,1.1087418,1.793045l0.0543518,0.0098572
		c0.7667656,0.1254387,1.4945717-0.412075,1.6571617-1.2241554C44.3869324,31.9411793,43.8891335,31.1365662,43.1123352,30.9773006z
		 M43.5438881,32.4771805l0.0905113,0.1553574l-0.1490631,0.1117973l0.047123-0.2151947L43.5438881,32.4771805z
		 M42.9191856,33.148304l-0.4369164-0.0897522l-0.287159-0.4972763l0.0858459-0.4481163l0.0023308-0.0116043l0.4170914-0.3094349
		l0.4882393,0.1076546L43.291954,32.06464l0.1558266,0.249424l-0.0762787,0.348278l-0.0436211,0.1990967L42.9191856,33.148304z
		 M43.2858925,33.0535355l-0.0007019,0.0030937l-0.0011673,0.0046043l-0.0338249,0.1548958l-0.1448593-0.0297432l-0.007-0.0013428
		L43.2858925,33.0535355z M42.7577629,33.255085l-0.1143036,0.0752869l-0.0667152-0.1124382L42.7577629,33.255085z
		 M42.1654854,32.7737274l0.1439285,0.2493095l-0.0028-0.0005264l-0.1698189-0.034874L42.1654854,32.7737274z M41.9788666,32.161972
		l-0.1180344-0.305294l0.3613396-0.1219444l-0.0550537,0.2875099L41.9788666,32.161972z M42.3266754,31.9038563l0.037323-0.1652145
		l0.1534958,0.0235615L42.3266754,31.9038563z M42.854805,31.6855717l0.1292305-0.0881176l0.093544,0.1372795L42.854805,31.6855717z
		 M43.3740692,31.946312l0.1348305,0.0343494l-0.0254288,0.140604L43.3740692,31.946312z M43.4412498,32.9443092
		l0.0004654-0.0013428l0.2579994-0.1935005l0.0737152,0.4073524l-0.3911972,0.0579681L43.4412498,32.9443092z M43.744503,32.5589409
		l-0.1588593-0.2726936l0.0545883-0.2493668l0.309082,0.237587L43.744503,32.5589409z M43.5137978,31.831192l-0.2458687-0.0542927
		l-0.1583939-0.2533932l0.3160858-0.0913258L43.5137978,31.831192z M43.0750122,31.1628094
		c0.1240997,0.0255432,0.2398033,0.0700397,0.3454781,0.1296997l-0.3995972,0.1154118l-0.3205147-0.2614975
		C42.8226128,31.1323681,42.9485779,31.136858,43.0750122,31.1628094z M42.8967934,31.4809341l-0.2223091,0.1649246
		l-0.0006981,0.0005245l-0.2472687-0.0477047l0.2342033-0.3101349L42.8967934,31.4809341z M42.5900421,31.1650257
		l-0.3062859,0.4061852l-0.5145988,0.1736126C41.9604416,31.4451275,42.2576294,31.2355919,42.5900421,31.1650257z
		 M41.5750732,32.2274628c0.0279922-0.1394386,0.0755806-0.2695446,0.1387978-0.3881054l0.1604919,0.415575l-0.3198166,0.3923035
		C41.5410156,32.5108871,41.5466156,32.3697586,41.5750732,32.2274628z M41.5704079,32.7629967l0.4072952,0.3131676
		l0.0517845,0.4744759C41.7929497,33.3570824,41.6282616,33.0773315,41.5704079,32.7629967z M41.9958954,32.9193459
		l-0.3037186-0.2335052l0.2472687-0.3036613l0.1194344,0.2070313L41.9958954,32.9193459z M42.0472183,32.2916145
		l0.0811768-0.0656662l-0.030323,0.15839L42.0472183,32.2916145z M42.112999,33.122818l0.2883263,0.0591354l0.1322632,0.2227173
		l-0.3786011,0.1038055L42.112999,33.122818z M42.5471191,33.7994804c-0.1392632-0.0286903-0.2675629-0.0816422-0.3832664-0.1527328
		l0.4406509-0.1206589l0.3454742,0.2851753C42.818882,33.8296928,42.6831169,33.8274765,42.5471191,33.7994804z
		 M42.7155418,33.4424019l0.2274399-0.1492348l0.253334,0.0519028l-0.1908188,0.3368416L42.7155418,33.4424019z
		 M43.099041,33.7801781l0.2381706-0.4208794l0.4644432-0.0687561C43.624836,33.531395,43.3766327,33.7046585,43.099041,33.7801781z
		 M44.0468254,32.7348862c-0.0286942,0.1443977-0.0793152,0.2784119-0.145565,0.400238l-0.0823441-0.4564552l0.2507668-0.3476906
		C44.0811157,32.4624863,44.0743484,32.5980721,44.0468254,32.7348862z M43.6577263,31.8795376l0.0006981-0.0021572
		l-0.0016327-0.0004082l-0.1110344-0.503109c0.2565956,0.1900005,0.4357491,0.4784412,0.5010681,0.8050804L43.6577263,31.8795376z"
		/>
</g>
</svg>
