<?xml version="1.0" encoding="utf-8"?>
<!-- Generator: Adobe Illustrator 18.0.0, SVG Export Plug-In . SVG Version: 6.00 Build 0)  -->
<!DOCTYPE svg PUBLIC "-//W3C//DTD SVG 1.1//EN" "http://www.w3.org/Graphics/SVG/1.1/DTD/svg11.dtd">
<svg version="1.1" id="Layer_1" xmlns="http://www.w3.org/2000/svg" xmlns:xlink="http://www.w3.org/1999/xlink" x="0px" y="0px"
	 width="50px" height="50px" viewBox="0 0 50 50" enable-background="new 0 0 50 50" xml:space="preserve">
<path d="M46.385128,25.6300659l-0.2481766,0.0296078c-0.3478851,0.0296078-0.6665993,0.0722771-0.9578819,0.113205
	l-0.1602287,0.0226402v0.0008698c-1.1720963,0.1698074-1.8974724,0.2638531-3.018631-0.7950401
	c1.1207237-1.0597649,1.8452301-0.9657192,3.018631-0.795042l0.1580505,0.0217705
	c0.293026,0.0417976,0.6086922,0.0853386,0.9570122,0.1140747l0.2512245,0.0296078
	c0.2642899,0.0296078,0.525528-0.0426693,0.7336502-0.2081223c0.2094269-0.1645813,0.3422241-0.4031811,0.3740082-0.670517
	c0.0317841-0.2629814-0.0422325-0.5233498-0.2072487-0.7332134c-0.1658897-0.2098637-0.4036179-0.3430958-0.670517-0.374445
	l-0.1715469-0.017416l0.0008698-0.0043545l-0.0966606-0.0078354c-0.2899742-0.0243835-0.5673256-0.0557327-0.8355331-0.0862103
	c-1.6910934-0.1907063-3.0325623-0.3404827-4.8098679,1.3732529c-1.3972015-1.1720982-3.3678207-1.4681702-4.0204887-1.4821033
	H35.506649c-0.6052055,0.0130615-2.6219826,0.3161011-4.0135212,1.4821033
	c-1.7768707-1.7137356-3.1179028-1.5639591-4.8098698-1.3732529c-0.2682056,0.0304775-0.545557,0.0618267-0.8350983,0.0862103
	l-0.2625465,0.0296059H24.419611l-0.1719837-0.017416l0.0008717-0.0043545l-0.0966587-0.0078354
	c-0.2899761-0.0243835-0.5673275-0.0557327-0.8355331-0.0862103c-1.691967-0.1907063-3.0330009-0.3404827-4.8094349,1.3732529
	c-1.3976345-1.1720982-3.3682575-1.4681702-4.0204868-1.4821033h-1.1755819
	c-0.6052065,0.0130615-2.6219807,0.3161011-4.0135212,1.4821033c-1.7773046-1.7146072-3.1183381-1.5639591-4.8094335-1.3732529
	c-0.2686419,0.0304775-0.5459919,0.0618267-0.8355334,0.0862103l-0.2729959,0.0296059
	c-0.2638528,0.0322208-0.4998398,0.1645813-0.6648567,0.374445c-0.1650167,0.208992-0.2385993,0.4719734-0.206815,0.7393093
	c0.0313487,0.2638531,0.1641459,0.4998398,0.3731382,0.6644211c0.2094276,0.1645813,0.4663138,0.2385998,0.7340851,0.2081223
	l0.2481782-0.0296078c0.3496268-0.0287361,0.6657274-0.0722771,0.9578812-0.113203l0.1737247-0.0235119v-0.0017414
	c1.1646962-0.1671944,1.8887672-0.2586288,3.0046983,0.7976532c-1.1141896,1.0527973-1.8373899,0.9648476-2.9972963,0.7985249
	l0.0008707-0.0034847l-0.1798205-0.0226402c-0.2934599-0.0417976-0.6126084-0.0844669-0.9570103-0.1140747L3.614871,25.6300659
	c-0.2660296-0.0322189-0.5242221,0.043541-0.7340851,0.2081223c-0.2094278,0.1645813-0.3417895,0.4031811-0.3735738,0.670517
	c-0.0317841,0.2629814,0.0422339,0.5233517,0.2072506,0.7332134c0.1654522,0.2098637,0.4027455,0.3430958,0.6700814,0.374445
	l0.2677712,0.0296078c0.2895415,0.0243816,0.5668914,0.0557308,0.8355334,0.0862083
	c0.5015817,0.0566025,0.9757328,0.1097202,1.4450941,0.1097202c0.9034562,0,2.0080671-0.1776428,3.3634686-1.4838448
	c1.3162155,1.1050472,3.1784239,1.4333401,3.9029303,1.4777508l1.3162155,0.0052242l0.0892563-0.0008717v-0.0034828
	c0.7236357-0.043539,2.5845385-0.3718319,3.9029303-1.4786205c1.355402,1.3062019,2.4600124,1.4838448,3.3634682,1.4838448
	c0.4693623,0,0.9435139-0.0531178,1.4450951-0.1097202c0.2682056-0.0304775,0.545557-0.0618267,0.8355331-0.0862083
	l0.0962238-0.0104504l-0.0004368-0.0017414l0.1667595-0.017416h1.1660023l0.2677708,0.0296078
	c0.2895412,0.0243816,0.5668926,0.0557308,0.8350983,0.0862083c0.5020161,0.0566025,0.9766026,0.1097202,1.4455299,0.1097202
	c0.9034557,0,2.0080662-0.1776428,3.3634682-1.4838448c1.3162155,1.1050472,3.1784248,1.4333401,3.9029312,1.4777508
	l1.3162155,0.0052242l0.0892563-0.0008717v-0.0034828c0.7236366-0.043539,2.5845375-0.3718319,3.9024925-1.4786205
	c1.3558388,1.3062019,2.4604492,1.4838448,3.3639069,1.4838448c0.4693604,0,0.943512-0.0531178,1.4450912-0.1097202
	c0.2682076-0.0304775,0.5455589-0.0618267,0.8355331-0.0862083l0.0962257-0.0104504l-0.0004349-0.0017414l0.1767731-0.017416
	c0.2634163-0.0313492,0.4998398-0.1645813,0.6652908-0.374445c0.165451-0.2098618,0.2385979-0.4719734,0.2063789-0.7384396
	c-0.0309143-0.2638512-0.1637115-0.5007095-0.3735733-0.6661625C46.9089165,25.6736069,46.648983,25.5995884,46.385128,25.6300659z
	 M35.5149193,22.7842884h1.1603432c0.7993965,0.017416,2.4617538,0.3892479,3.590313,1.3096848l-0.0400581,0.0426693
	c-0.1480331,0.1645813-0.3039093,0.3187141-0.4632645,0.4580421c-1.0793571-0.8107166-2.0816498-0.9961967-2.629818-1.0292873
	L36.8511658,23.55756c-0.7889481-0.0026112-3.1483803-0.0130615-4.42062,1.0345116
	c-0.1580505-0.1384563-0.3130531-0.2917175-0.4606552-0.4545574l-0.0400562-0.0444107
	C33.0579567,23.1735363,34.7163963,22.8017044,35.5149193,22.7842884z M39.2454338,24.9926395
	c-1.0527992,0.7140579-2.0337563,0.8150711-2.4116859,0.8255196l-0.0984001-0.0008698
	c-1.8247643-0.0034847-3.0974388-0.2769146-3.7871132-0.8133297c1.3819618-0.8255177,3.2985954-0.8168106,3.946907-0.8220348
	h0.0927391C37.4224091,24.1941166,38.281456,24.3160286,39.2454338,24.9926395z M13.3190765,22.7842884h1.1603422
	c0.7993956,0.017416,2.4617548,0.3892479,3.590312,1.3096848l-0.0400562,0.0426693
	c-0.148037,0.1645813-0.3039093,0.3187141-0.4632664,0.4580421c-1.0728264-0.8054905-2.069459-0.9935837-2.6198044-1.0284157
	l-0.2912836-0.008709c-0.7880745-0.0026112-3.1483803-0.0130615-4.4206209,1.0345116
	c-0.156744-0.1375866-0.3113108-0.2899761-0.4606533-0.4545574l-0.0400572-0.043541
	C10.8616762,23.1735363,12.5205517,22.8017044,13.3190765,22.7842884z M17.0495872,24.9926395
	c-1.0841465,0.7340851-2.1169167,0.8176823-2.4112473,0.8255196l-0.0984011-0.0008698
	c-1.8247633-0.0034847-3.0978737-0.2769146-3.7875481-0.8133297c1.3819609-0.8255177,3.29424-0.8168106,3.9469051-0.8220348
	h0.0927401C15.2265663,24.1941166,16.0856113,24.3160286,17.0495872,24.9926395z M4.5575132,27.1121693
	c-0.1206059-0.0130615-0.2429538-0.0269947-0.3674784-0.0400562l-0.7366974-0.0757599
	c-0.0988359-0.0113201-0.1872222-0.060957-0.2486136-0.139328c-0.0631332-0.0801144-0.0901279-0.1767731-0.0779366-0.2803974
	c0.0117557-0.098402,0.0613914-0.1863518,0.1406343-0.2490501c0.0788074-0.0618267,0.1754663-0.0896912,0.2738669-0.0775013
	l1.1999636,0.1419411l0.1223474,0.017416c0.4153724,0.0600853,0.8076682,0.1166878,1.1864667,0.1166878
	c0.8638344,0,1.5805035-0.3230686,2.3820753-1.0797939c0.1036253,0.1149464,0.2107344,0.2368584,0.3217611,0.3700905
	c0.0309134,0.0374451,0.0622625,0.0731468,0.0940466,0.1088505C7.2883449,27.420433,6.1401935,27.2915554,4.5575132,27.1121693z
	 M26.7533569,27.1121693c-0.1206055-0.0130615-0.2429523-0.0269947-0.3674774-0.0400562l-0.7388744-0.0757599l-1.2905273-0.0008717
	l-0.7906876,0.080986l0.0004368,0.0008698c-0.1084156,0.0113201-0.2150879,0.0235119-0.3195839,0.034832
	c-1.58181,0.1785145-2.7312679,0.3091354-4.2904377-1.1869011c0.031786-0.0357037,0.0631332-0.0714054,0.0936127-0.1079788
	c0.1084137-0.130621,0.2142162-0.252533,0.3221951-0.3709621c0.8015728,0.7558556,1.5182419,1.0797939,2.3820763,1.0797939
	c0.3787994,0,0.7710953-0.0566025,1.1869011-0.1166878l1.3114262-0.1593571h1.4899406l1.1947403,0.1419411l0.1223469,0.017416
	c0.4153709,0.0600853,0.8076668,0.1166878,1.1864662,0.1166878c0.8638344,0,1.5805035-0.3230686,2.3820763-1.0797939
	c0.1036243,0.1149464,0.2107334,0.2368584,0.3217602,0.3700905c0.0304775,0.0374451,0.0618267,0.0731468,0.0936108,0.1088505
	C29.4850597,27.420433,28.3369083,27.2915554,26.7533569,27.1121693z M27.0189514,25.7737484
	c-0.2930241-0.0417976-0.6121731-0.0844669-0.9574451-0.1140747l-0.2642879-0.0296078l-0.1785145,0.0060959l-0.6944637-0.0139332
	l-0.3152294-0.0139313l-0.4197254,0.0217686l-0.2481785,0.0296078c-0.3478851,0.0296078-0.6665993,0.0722771-0.9578819,0.113205
	l-0.1602268,0.0226402v0.0008698c-1.1720982,0.1698074-1.8979111,0.2638531-3.0181961-0.7950401
	c1.1211567-1.0606365,1.8460979-0.9657192,3.0181961-0.795042l0.1589203,0.0226421
	c0.2938957,0.0417976,0.6099968,0.0844669,0.9456902,0.11059c0.0191574,0.0052261,0.475893,0.1149464,0.949173,0.1227837
	c0.2856236,0.0043545,0.493309,0.0026131,0.7515011-0.0731468c0.0552959-0.0156746,0.1358452-0.0165462,0.1824322-0.017416
	l0.2477436-0.0296078c0.3504982-0.0287361,0.6665974-0.0722771,0.9583168-0.113203l0.1737251-0.0235119v-0.0017414
	c1.1633892-0.1689358,1.8878956-0.2586288,3.0046978,0.7976532c-1.1141891,1.0527973-1.8369541,0.9648476-2.9972973,0.7985249
	l0.0008717-0.0034847L27.0189514,25.7737484z M40.6870422,25.5055428l-0.0378799,0.040926
	c-0.1040611,0.1123333-0.2063789,0.2116051-0.3117447,0.3012981c-1.1281242,0.9648476-2.8422966,1.3514824-3.6556244,1.3697701
	h-1.1620827c-0.8185539-0.0191574-2.5357704-0.4066639-3.6617184-1.3697701
	c-0.1040611-0.0888214-0.2059441-0.1872215-0.3117466-0.3021679l-0.0326538-0.034832
	c-0.0291729-0.0304775-0.057909-0.060957-0.0849037-0.0923042c-0.1384583-0.1671944-0.2756081-0.3230686-0.4197254-0.478941
	c-0.1075439-0.1149464-0.2120419-0.2220554-0.3143597-0.3213253c-0.9382877-0.9073753-1.6706314-1.143362-2.4456444-1.143362
	c-0.377058,0-0.7645645,0.0557308-1.1903858,0.1175575l-2.1434765,0.2743034l-1.9741058-0.2743034
	c-1.3018475-0.1880932-2.2431831-0.3221951-3.6355934,1.0258045c-0.1023178,0.0992699-0.2068157,0.2063789-0.3143597,0.3213253
	c-0.1428108,0.1541309-0.2803974,0.3100052-0.4201603,0.4780693c-0.0252533,0.0304775-0.0526829,0.0592136-0.0796795,0.0879517
	l-0.0374432,0.040926c-0.1058025,0.1140766-0.2076855,0.2124767-0.3117466,0.3012981
	c-1.1285591,0.9648476-2.8422947,1.3514824-3.6556225,1.3697701h-1.1625195
	c-0.8181171-0.0191574-2.5353365-0.4066639-3.6617184-1.3697701c-0.1040602-0.0888214-0.2059441-0.1872215-0.3117466-0.3021679
	l-0.0309134-0.0330906c-0.0296068-0.0304775-0.0587788-0.0618267-0.0862093-0.0940456
	c-0.1397629-0.1689358-0.2773495-0.32481-0.4201612-0.478941c-0.1075439-0.1149464-0.2120399-0.2220554-0.3143587-0.3213253
	c-1.3941526-1.3488712-2.3337469-1.2138977-3.6360297-1.0258045L3.5417237,23.751749
	c-0.097965,0.0113201-0.1959302-0.0165462-0.2747376-0.0775013c-0.0796783-0.0635681-0.1284432-0.1515198-0.1410699-0.2542744
	c-0.0113204-0.0984001,0.0165453-0.1959305,0.0783722-0.2743015c0.0622621-0.0792427,0.1493423-0.1280079,0.2433887-0.139328
	l1.1098361-0.115818c1.6035795-0.180254,2.761745-0.3117466,4.3526983,1.2461166
	c0.1014481,0.0992718,0.2042027,0.2063808,0.3095694,0.3195839c0.0304785,0.0322208,0.0605211,0.0644398,0.0914345,0.0984001
	c0.1597919,0.1785145,0.333952,0.3500633,0.5181265,0.5111618c0.0509415,0.0444107,0.1049318,0.0853386,0.1580505,0.1253948
	c0.0683575,0.0505066,0.1327972,0.0992718,0.1863508,0.1541309c1.0954676,1.1215916,3.5215197,1.1033058,4.3252687,1.0963383
	l0.2277145-0.0017414l0.0008707-0.0017414c0.5037584-0.0235119,1.686305-0.1819973,2.8919287-1.0841465
	c0.1171246-0.08708,0.2364235-0.1837387,0.3552876-0.2882347c0.1841736-0.1610985,0.3583355-0.3326473,0.5181274-0.5102901
	c0.0309124-0.034832,0.060955-0.0670509,0.0914326-0.0992718c0.1053677-0.113203,0.2081223-0.2203121,0.3095703-0.3195839
	c1.5922604-1.5578632,2.7499886-1.4263706,4.3531342-1.2461166l0.287365,0.0313492l1.2604828,0.0914345l0.0431061-0.0008698
	l0.1158161,0.0148029l1.352354-0.0879517l0.447155-0.0487652c1.6027107-0.1811256,2.7608757-0.3126163,4.3522644,1.2461166
	c0.1018829,0.0992718,0.2046375,0.2063808,0.3095684,0.3187141l0.0914345,0.1001415
	c0.1606636,0.1776428,0.3352585,0.3500614,0.5185604,0.5102901c0.0509453,0.0444107,0.1049347,0.0853386,0.1580505,0.1253948
	c0.0683594,0.0505066,0.1327972,0.0992718,0.1863518,0.1541309c1.0954704,1.1215916,3.523262,1.1033058,4.3248329,1.0963383
	l0.2616768-0.0017414v-0.0034828c0.5207405-0.0287361,1.6793404-0.1994133,2.8597107-1.0824051
	c0.1193008-0.0896931,0.2385979-0.1863518,0.3548508-0.2882347c0.1841736-0.1610985,0.3583336-0.3326473,0.5185623-0.5111618
	c0.0256882-0.0287361,0.0505066-0.0557308,0.0909996-0.0984001c0.1049309-0.113203,0.2085571-0.2203121,0.3095703-0.3195839
	c1.5918236-1.5578632,2.7486801-1.4263706,4.3531303-1.2461166l1.1037407,0.1149464
	c0.0984001,0.0113201,0.1867867,0.0618267,0.2486153,0.139328c0.0631332,0.0801144,0.0896912,0.1767731,0.0779381,0.2803974
	c-0.0121918,0.098402-0.0618286,0.1872234-0.1406364,0.2481785c-0.0792427,0.0626984-0.1772079,0.0888233-0.2743034,0.078373
	l-1.2003975-0.1419411l-0.1214752-0.017416c-1.3027191-0.1907043-2.2418785-0.3221951-3.6351585,1.0258045
	c-0.1023216,0.0992699-0.2068176,0.2063789-0.3143616,0.3213253c-0.1428108,0.1541309-0.2803955,0.3100052-0.4201622,0.4780693
	C40.7414665,25.4480686,40.7140388,25.4768047,40.6870422,25.5055428z M46.7952766,26.8570251
	c-0.0613937,0.078371-0.1484718,0.1271362-0.2429543,0.1384563l-0.742794,0.0757599v0.0008717
	c-0.1245232,0.0130615-0.2468719,0.0269947-0.3670425,0.0400562c-1.5826797,0.1793861-2.7325706,0.307394-4.2904358-1.1869011
	c0.0317841-0.0357037,0.0631332-0.0714054,0.0936127-0.1079788c0.1110268-0.1341038,0.2181358-0.2560158,0.3217621-0.3709621
	c0.8020058,0.7567253,1.5186768,1.0797939,2.3825111,1.0797939c0.3787956,0,0.7710915-0.0566025,1.1869011-0.1166878
	l1.3218765-0.1593571c0.0944786-0.0113201,0.194622,0.0156746,0.2738647,0.078373
	c0.0796776,0.0618267,0.1284447,0.1497765,0.1410713,0.2534027C46.8849678,26.6802521,46.8575401,26.7777824,46.7952766,26.8570251z
	"/>
</svg>
