<?xml version="1.0" encoding="UTF-8"?>
<!DOCTYPE svg PUBLIC "-//W3C//DTD SVG 1.1//EN" "http://www.w3.org/Graphics/SVG/1.1/DTD/svg11.dtd">
<!-- Creator: CorelDRAW X7 -->
<svg xmlns="http://www.w3.org/2000/svg" xml:space="preserve" width="49px" height="49px" version="1.1" style="shape-rendering:geometricPrecision; text-rendering:geometricPrecision; image-rendering:optimizeQuality; fill-rule:evenodd; clip-rule:evenodd"
viewBox="0 0 118238 118238"
 xmlns:xlink="http://www.w3.org/1999/xlink">
 <defs>
  <style type="text/css">
   <![CDATA[
    .fil0 {fill:none}
    .fil1 {fill:black}
   ]]>
  </style>
 </defs>
 <g id="Layer_x0020_1">
  <metadata id="CorelCorpID_0Corel-Layer"/>
  <rect class="fil0" x="-1" width="118240" height="118239"/>
  <path class="fil1" d="M31400 76658l283 3c3963,0 7182,-3098 7333,-7059 148,-4043 -3019,-7462 -7059,-7610l-283 -6c-3961,0 -7179,3101 -7330,7062 -151,4041 3012,7459 7056,7610zm71892 -10988c928,0 1774,360 2402,948l2324 -1850c-300,-520 -474,-1123 -474,-1768 0,-1942 1576,-3518 3518,-3518l283 11 628 -2167c-1068,-603 -1787,-1753 -1787,-3067 0,-774 245,-1488 671,-2067l-2022 -2114c-423,180 -882,277 -1368,277 -1945,0 -3521,-1576 -3521,-3518l14 -317 -3104 -879c-591,1116 -1762,1876 -3112,1876 -1856,0 -3376,-1442 -3507,-3267l-3338 -371c-468,1393 -1785,2401 -3335,2401 -1639,0 -3016,-1116 -3407,-2632l-3110 2c-394,1511 -1770,2628 -3404,2628 -1604,0 -2961,-1077 -3384,-2545l-2847 3c-425,1468 -1779,2542 -3381,2542 -1362,0 -2541,-774 -3126,-1902l-1919 0c-329,8 -611,-183 -743,-460l-14 -20c-266,-491 -2530,-4478 -3969,-1054 -177,412 -657,614 -1071,440 -420,-180 -617,-657 -446,-1076 2479,-5877 5791,-1020 6714,525l1054 0c14,-1930 1584,-3492 3520,-3492 1605,0 2959,1073 3381,2544l2847 -3c426,-1471 1780,-2541 3384,-2541 1574,0 2904,1033 3356,2458l3206 -3c452,-1422 1785,-2453 3359,-2453 1653,0 3041,1143 3418,2682l3663 405c594,-1102 1760,-1850 3099,-1850 1853,0 3372,1433 3509,3250l3418 968c643,-840 1657,-1380 2796,-1380 1942,0 3518,1577 3518,3521 0,746 -231,1437 -628,2008l2053 2144c400,-157 840,-248 1297,-248 1941,0 3518,1576 3518,3518 0,1887 -1485,3427 -3350,3515l-700 2416c854,640 1405,1662 1405,2810 0,1945 -1576,3521 -3518,3521 -582,0 -1133,-143 -1616,-394l-2747 2187c71,283 111,574 111,877 0,1942 -1576,3518 -3518,3518 -1556,0 -2875,-1011 -3341,-2410l-1333 0 0 6062c0,1979 -1625,3604 -3604,3604l-71207 0c-1979,0 -3604,-1625 -3604,-3604l0 -5928 -2870 0c-465,1399 -1784,2410 -3341,2410 -1941,0 -3518,-1576 -3518,-3518 0,-303 40,-594 112,-877l-2747 -2187c-483,251 -1034,394 -1617,394 -1941,0 -3518,-1576 -3518,-3521 0,-1148 551,-2170 1405,-2810l-699 -2416c-1865,-88 -3350,-1627 -3350,-3515 0,-1942 1576,-3518 3518,-3518 457,0 897,91 1296,249l2054 -2145c-397,-571 -629,-1262 -629,-2007 0,-1945 1577,-3521 3518,-3521 1140,0 2154,539 2796,1379l3418 -968c137,-1816 1656,-3250 3510,-3250 1339,0 2504,748 3098,1851l3664 -406c377,-1539 1765,-2681 3418,-2681 1573,0 2907,1031 3358,2453l3207 2c451,-1424 1782,-2458 3355,-2458 1605,0 2959,1071 3384,2541l2847 3c423,-1471 1776,-2544 3381,-2544 1945,0 3521,1576 3521,3521 0,1942 -1576,3518 -3521,3518 -1602,0 -2955,-1074 -3381,-2542l-2847 -3c-423,1468 -1779,2545 -3384,2545 -1633,0 -3010,-1117 -3404,-2627l-3109 -3c-392,1516 -1768,2633 -3407,2633 -1551,0 -2867,-1008 -3335,-2402l-3339 371c-131,1825 -1650,3267 -3506,3267 -1351,0 -2522,-759 -3113,-1876l-3104 880 14 317c0,1941 -1576,3518 -3521,3518 -485,0 -945,-98 -1367,-277l-2022 2113c425,579 671,1293 671,2067 0,1314 -720,2465 -1788,3067l629 2167 282 -11c1942,0 3518,1576 3518,3518 0,645 -174,1248 -474,1768l2325 1850c628,-588 1473,-948 2401,-948 1654,0 3039,1139 3418,2676l2793 0 0 -6200c0,-1979 1625,-3603 3604,-3603l71207 0c1979,0 3604,1624 3604,3603l0 6066 1256 0c380,-1537 1765,-2676 3418,-2676zm-8278 -5057l-71207 0c-460,0 -880,188 -1179,488 -300,300 -489,720 -489,1179l0 14081c0,460 189,880 489,1180 299,299 719,488 1179,488l71207 0c460,0 879,-189 1179,-488 300,-300 489,-720 489,-1180l0 -14081c0,-459 -189,-879 -489,-1179 -300,-300 -719,-488 -1179,-488zm-92333 -5226l295 1017c-866,-260 -1497,-1063 -1497,-2011 0,-1156 943,-2096 2099,-2096 1159,0 2099,940 2099,2096 0,660 -306,1248 -780,1634l-365 -1263 -1851 623zm45798 -13467l-1085 0c351,-668 1054,-1125 1859,-1125 1159,0 2099,939 2099,2099 0,1156 -940,2099 -2099,2099 -802,0 -1505,-454 -1856,-1120l1079 0 3 -1953zm-9612 -86l-1036 0c365,-622 1039,-1039 1810,-1039 1160,0 2099,939 2099,2099 0,1156 -939,2099 -2099,2099 -836,0 -1562,-494 -1899,-1205l1123 0 2 -1954zm-10166 -43l-816 92c360,-648 1045,-1088 1836,-1088 1159,0 2099,942 2099,2099 0,1159 -940,2099 -2099,2099 -814,0 -1519,-463 -1868,-1143l1094 -120 -246 -1939zm-10665 1503l-471 134c288,-811 1065,-1394 1976,-1394 1159,0 2099,940 2099,2096 0,1160 -940,2099 -2099,2099 -697,0 -1311,-334 -1694,-857l811 -231 -622 -1847zm-9432 3935l-660 691c-143,-286 -225,-609 -225,-948 0,-1160 939,-2099 2098,-2099 1160,0 2099,939 2099,2099 0,1156 -939,2096 -2099,2096l-257 -18 440 -459 -1396 -1362zm-468 16770l-948 -754 -1214 1528 551 440 -303 20c-1159,0 -2099,-940 -2099,-2099 0,-1156 940,-2096 2099,-2096 1160,0 2099,940 2099,2096 0,309 -66,600 -185,865zm7778 4481l-728 0 0 1953 588 0c-371,594 -1031,988 -1782,988 -1156,0 -2098,-939 -2098,-2096 0,-1159 942,-2099 2098,-2099 860,0 1597,517 1922,1254zm98689 -13227l-294 1016c865,-260 1496,-1062 1496,-2010 0,-1157 -942,-2096 -2098,-2096 -1160,0 -2099,939 -2099,2096 0,660 305,1248 779,1633l366 -1262 1850 623zm-45798 -13467l1085 0c-351,-668 -1053,-1125 -1859,-1125 -1159,0 -2098,939 -2098,2099 0,1156 939,2098 2098,2098 803,0 1505,-454 1857,-1119l-1080 0 -3 -1953zm9612 -86l1037 0c-366,-622 -1040,-1039 -1811,-1039 -1159,0 -2099,939 -2099,2099 0,1156 940,2098 2099,2098 837,0 1562,-494 1899,-1205l-1122 0 -3 -1953zm10166 -43l817 92c-360,-649 -1045,-1088 -1836,-1088 -1160,0 -2099,942 -2099,2099 0,1159 939,2098 2099,2098 813,0 1519,-462 1867,-1142l-1093 -120 245 -1939zm10666 1502l471 135c-289,-811 -1065,-1394 -1976,-1394 -1160,0 -2099,939 -2099,2096 0,1159 939,2099 2099,2099 697,0 1311,-334 1693,-857l-811 -231 623 -1848zm9432 3935l659 691c143,-285 226,-608 226,-948 0,-1159 -940,-2099 -2099,-2099 -1159,0 -2099,940 -2099,2099 0,1157 940,2096 2099,2096l257 -17 -440 -460 1397 -1362zm468 16771l948 -754 1214 1528 -551 440 302 20c1160,0 2099,-940 2099,-2099 0,-1157 -939,-2096 -2099,-2096 -1159,0 -2099,939 -2099,2096 0,308 66,600 186,865zm-7779 4481l729 0 0 1953 -589 0c372,594 1031,988 1782,988 1157,0 2099,-940 2099,-2096 0,-1160 -942,-2099 -2099,-2099 -859,0 -1596,517 -1922,1254zm-14783 8312l280 6c3966,0 7187,-3104 7339,-7065 151,-4046 -3019,-7464 -7062,-7616l-283 -5c-3963,0 -7184,3104 -7336,7067 -151,4044 3016,7462 7062,7613zm-845 -10506l2547 132 654 699 991 1057 -97 1705 -55 974 -1821 1673 -2276 -89 -1854 -2127 63 -2185 3 -54 1845 -1785zm-1791 817l52 -811 791 -6 -843 817zm2479 -1439l577 -517 585 574 -1162 -57zm2830 828l708 60 -14 683 -694 -743zm468 5303l0 14 -3 23 -43 757 -753 -29 -38 0 837 -765zm-2493 1359l-514 443 -428 -477 942 34zm-2450 -751l-14 0 -885 -34 -32 -1034 931 1068zm-908 623l1502 57 851 951 -1822 782 -531 -1790zm2744 2864c-725,-29 -1413,-180 -2056,-426l2119 -911 1976 1080c-645,188 -1331,282 -2039,257zm554 -1819l1023 -880 1319 49 -683 1739 -1659 -908zm2211 1299l853 -2173 2282 -683c-691,1274 -1799,2285 -3135,2856zm1750 -5834l-660 643 63 -1054 14 -254 583 665zm-531 -1599l68 -1219 1754 882 -800 1502 -1022 -1165zm956 2099l706 1870 -1922 574 74 -1322 3 -6 1139 -1116zm1737 -337c-26,705 -172,1376 -403,2005l-791 -2094 977 -1836c165,611 242,1257 217,1925zm-457 -2627l-2208 -1114 0 -11 -5 0 -977 -2291c1451,700 2590,1922 3190,3416zm-2973 -1231l-1282 -66 -1008 -1076 1519 -677 771 1819zm-2758 -2818c645,25 1265,145 1844,345l-1916 854 -1830 -985c605,-163 1242,-240 1902,-214zm-637 1641l-983 951 -5 3 -1282 -34 922 -1648 1348 728zm-1805 -1256l-1208 2156 -2450 1216c717,-1562 2042,-2781 3658,-3372zm-1805 5743l354 -374 -22 773 -332 -399zm303 1396l-46 1608 -1722 -868 994 -1625 774 885zm-754 -1956l-845 -1351 1719 -856 -40 1402 -834 805zm-1979 622c26,-679 157,-1333 377,-1941l1151 1839 -1288 2101c-180,-634 -265,-1305 -240,-1999zm2727 3698l651 2202c-1350,-731 -2410,-1927 -2961,-3367l2310 1165zm-14977 3890l282 5c3967,0 7194,-3104 7342,-7070 152,-4049 -3021,-7470 -7065,-7622l-282 -2c-3967,0 -7191,3104 -7342,7070 -151,4046 3016,7467 7065,7619zm-845 -10515l2550 132 654 699 990 1060 -97 1705 -54 976 -1822 1671 -2276 -86 -1856 -2130 63 -2185 0 -57 1848 -1785zm-1791 817l49 -808 793 -9 -842 817zm2479 -1439l579 -517 583 577 -1162 -60zm2832 831l709 57 -12 685 -697 -742zm469 5303l0 14 -3 23 -43 759 -754 -28 -37 0 837 -768zm-2496 1362l-514 442 -428 -476 942 34zm-2450 -751l-14 0 -886 -34 -31 -1034 931 1068zm-908 622l1502 57 851 951 -1822 783 -531 -1791zm2744 2865c-722,-29 -1413,-180 -2056,-426l2122 -911 1976 1082c-646,189 -1331,283 -2042,255zm557 -1819l1022 -880 1322 49 -685 1741 -1659 -910zm2210 1302l854 -2176 2284 -683c-694,1277 -1801,2288 -3138,2859zm1753 -5840l-659 642 60 -1053 14 -254 585 665zm-534 -1602l72 -1219 1753 885 -799 1502 -1026 -1168zm960 2105l705 1867 -1922 577 75 -1325 0 -6 1142 -1113zm1736 -340c-26,705 -171,1379 -403,2007l-793 -2096 979 -1836c166,611 243,1257 217,1925zm-457 -2627l-2210 -1117 3 -11 -9 0 -973 -2293c1447,699 2590,1924 3189,3421zm-2975 -1234l-1282 -66 -1008 -1076 1519 -677 771 1819zm-2762 -2821c646,25 1268,148 1848,348l-1919 854 -1830 -988c605,-163 1245,-237 1901,-214zm-634 1642l-985 953 -5 3 -1283 -34 923 -1648 1350 726zm-1807 -1257l-1208 2159 -2453 1219c720,-1565 2045,-2787 3661,-3378zm-1808 5748l354 -374 -23 774 -331 -400zm306 1397l-46 1610 -1725 -868 997 -1627 774 885zm-757 -1956l-845 -1354 1722 -854 -40 1400 -837 808zm-1979 622c26,-682 157,-1333 377,-1944l1154 1841 -1288 2102c-183,-634 -269,-1305 -243,-1999zm2727 3701l651 2202c-1350,-731 -2410,-1928 -2961,-3370l2310 1168zm-14966 3875l283 6c3963,0 7187,-3101 7336,-7065 151,-4046 -3019,-7464 -7062,-7616l-283 -5c-3963,0 -7184,3104 -7336,7067 -151,4044 3016,7462 7062,7613zm-845 -10506l2547 132 654 699 991 1057 -97 1705 -54 974 -1822 1673 -2273 -89 -1857 -2127 63 -2182 3 -57 1845 -1785zm-1791 817l52 -811 791 -6 -843 817zm2479 -1439l577 -517 585 574 -1162 -57zm2830 831l708 57 -11 683 -697 -740zm468 5300l0 14 -3 23 -42 757 -754 -26 -35 -3 834 -765zm-2493 1359l-514 443 -428 -477 942 34zm-2450 -751l-14 0 -882 -34 -32 -1034 928 1068zm-905 623l1499 57 851 951 -1822 782 -528 -1790zm2741 2864c-725,-29 -1413,-180 -2056,-426l2122 -911 1973 1080c-645,188 -1330,282 -2039,257zm557 -1819l1020 -880 1322 49 -683 1742 -1659 -911zm2208 1299l853 -2173 2282 -683c-691,1274 -1799,2285 -3135,2856zm1750 -5834l-657 643 60 -1054 15 -254 582 665zm-531 -1599l68 -1219 1754 882 -797 1502 -1025 -1165zm957 2099l705 1870 -1922 577 74 -1325 3 -6 1140 -1116zm1736 -337c-26,705 -169,1376 -403,2005l-791 -2094 977 -1836c165,611 242,1260 217,1925zm-457 -2627l-2208 -1114 0 -11 -5 0 -974 -2291c1448,700 2587,1922 3187,3416zm-2973 -1231l-1282 -66 -1008 -1076 1519 -677 771 1819zm-2758 -2818c645,25 1265,145 1844,345l-1916 854 -1830 -985c605,-163 1242,-240 1902,-214zm-637 1641l-982 951 -6 3 -1282 -34 922 -1648 1348 728zm-1805 -1256l-1208 2156 -2450 1216c720,-1562 2042,-2781 3658,-3372zm-1805 5743l355 -374 -23 773 -332 -399zm303 1396l-46 1611 -1721 -871 996 -1625 771 885zm-754 -1956l-845 -1351 1719 -856 -40 1402 -834 805zm-1979 622c26,-679 157,-1333 377,-1941l1151 1839 -1285 2101c-183,-634 -268,-1305 -243,-1999zm2727 3698l651 2202c-1350,-731 -2410,-1925 -2961,-3367l2310 1165zm-15805 -6619l2547 129 654 699 991 1057 -97 1705 -55 973 -1821 1671 -2274 -86 -1853 -2127 63 -2182 0 -57 1845 -1782zm-1788 814l52 -808 791 -6 -843 814zm2476 -1439l580 -517 582 577 -1162 -60zm2830 831l705 60 -11 682 -694 -742zm468 5297l-3 14 0 23 -43 760 -753 -29 -38 0 837 -768zm-2493 1359l-514 446 -428 -480 942 34zm-2447 -748l-14 -3 -886 -31 -31 -1034 931 1068zm-908 623l1502 54 848 951 -1819 782 -531 -1787zm2741 2858c-722,-26 -1410,-177 -2053,-423l2119 -911 1973 1080c-645,188 -1331,282 -2039,254zm557 -1816l1020 -880 1319 52 -683 1736 -1656 -908zm2207 1299l851 -2170 2282 -686c-691,1277 -1796,2285 -3133,2856zm1751 -5831l-660 642 60 -1053 15 -254 585 665zm-531 -1599l68 -1219 1751 882 -797 1502 -1022 -1165zm954 2099l705 1867 -1919 577 74 -1322 0 -9 1140 -1113zm1736 -337c-26,705 -172,1376 -403,2004l-791 -2093 977 -1836c165,611 242,1259 217,1925zm-457 -2625l-2207 -1113 2 -12 -8 0 -974 -2290c1448,700 2587,1922 3187,3415zm-2970 -1230l-1282 -69 -1008 -1074 1519 -673 771 1816zm-2758 -2819c645,26 1265,146 1844,349l-1916 853 -1827 -988c602,-162 1242,-237 1899,-214zm-634 1642l-986 948 -2 6 -1283 -37 923 -1645 1348 728zm-1805 -1256l-1208 2156 -2447 1216c717,-1562 2039,-2781 3655,-3372zm-1805 5739l354 -374 -23 774 -331 -400zm303 1397l-46 1608 -1722 -869 997 -1624 771 885zm-754 -1956l-845 -1351 1719 -854 -40 1400 -834 805zm-1979 622c26,-679 160,-1330 380,-1942l1151 1839 -1288 2102c-180,-634 -269,-1305 -243,-1999zm2727 3695l651 2202c-1350,-731 -2410,-1925 -2961,-3364l2310 1162z"/>
 </g>
</svg>
