<?xml version="1.0" encoding="utf-8"?>
<!-- Generator: Adobe Illustrator 18.0.0, SVG Export Plug-In . SVG Version: 6.00 Build 0)  -->
<!DOCTYPE svg PUBLIC "-//W3C//DTD SVG 1.1//EN" "http://www.w3.org/Graphics/SVG/1.1/DTD/svg11.dtd">
<svg version="1.1" id="Layer_1" xmlns="http://www.w3.org/2000/svg" xmlns:xlink="http://www.w3.org/1999/xlink" x="0px" y="0px"
	 width="50px" height="50px" viewBox="0 0 50 50" enable-background="new 0 0 50 50" xml:space="preserve">
<g>
	<path d="M33.7894783,32.1980705c0.439003,0,0.8819504-0.1496925,1.24786-0.4210606
		c0.423687-0.3142643,0.711689-0.7598343,0.8106041-1.2539902c0.0997963-0.4976559-0.0039368-0.9852448-0.2915001-1.3726025
		c-0.3405266-0.4591389-0.9016495-0.7086239-1.5091629-0.6841125c-0.030201,0.0017509-0.0604019,0.0039387-0.1129265,0.0087528
		l-1.018074,0.0516491c-0.1129227,0.0056896-0.2144661,0.0722179-0.264801,0.1737633l-0.5725021,1.1629486
		c-0.1882076,0.53092-0.0779114,1.147192,0.2941284,1.6487865C32.6965599,31.9481468,33.2125969,32.1980705,33.7894783,32.1980705z
		 M32.6199646,30.0892677l0.485836-0.9856834l0.8600655-0.0437698c0.0070038-0.0004368,0.0433311-0.0035,0.0424576-0.0039387
		l0.1326218-0.0056896c0.3891068,0,0.7335701,0.1636963,0.9454155,0.4490719
		c0.398735,0.537487,0.2201576,1.3485298-0.3978653,1.8072319c-0.2661171,0.1973991-0.5851936,0.3059464-0.8990173,0.3059464
		c-0.3891106,0-0.7340126-0.1636963-0.9458542-0.4490719C32.5932655,30.8254662,32.5114136,30.4197254,32.6199646,30.0892677z"/>
	<path d="M41.1313286,23.9646397c-0.4114304-0.3247681-0.9799919-0.4162464-1.5100403-0.2472973
		c-0.0266991,0.0087547-0.0529594,0.0179462-0.077034,0.0271378l-0.911274,0.2963181
		c-0.1019821,0.0328255-0.1777039,0.1181755-0.1978378,0.222784l-0.2306633,1.1690769
		c-0.0407066,0.5182266,0.2048416,1.0412693,0.6569748,1.3993015c0.2748718,0.2175331,0.6114578,0.3326473,0.9729919,0.3326473
		c0.5528069,0,1.1003571-0.2748718,1.4645195-0.7348862C41.924427,25.6396866,41.849144,24.5340767,41.1313286,23.9646397z
		 M41.1370163,25.1757336c0.0153198,0.3129501-0.0901642,0.6289635-0.2976303,0.8902664
		c-0.2538605,0.3208275-0.629837,0.512537-1.00494,0.512537c-0.2284775,0-0.4394417-0.0713444-0.6097069-0.206152
		c-0.2915001-0.2306652-0.4552002-0.557621-0.4394417-0.8618164l0.1912727-0.9651127l0.7265663-0.2359161
		c0.0070038-0.0021877,0.0402679-0.0144424,0.041584-0.0153179l0.055584-0.0192585
		c0.3462143-0.1098614,0.7081871-0.0560246,0.9673004,0.1492519C40.9908295,24.600605,41.1217003,24.8680363,41.1370163,25.1757336z
		"/>
	<path d="M43.9154892,18.5963421c-0.3659096-0.1952114-0.825489-0.1860199-1.2119713,0.0192585
		c-0.0196953,0.010067-0.0389519,0.0210094-0.0713425,0.0402679l-0.6438446,0.3453388
		c-0.0800972,0.0424557-0.1308708,0.1251812-0.1321831,0.2153454l-0.0153198,0.9331589
		c0.0420189,0.4101181,0.3072586,0.7839069,0.7094994,0.9992523c0.1777039,0.0949802,0.3716011,0.1431255,0.5764389,0.1431255
		c0.5186653,0,1.0040665-0.3059464,1.2675591-0.7983513c0.1812019-0.3396492,0.2324142-0.7230682,0.1435623-1.0797863
		C44.4481621,19.0532932,44.2271271,18.7631035,43.9154892,18.5963421z M43.8774109,20.2171173
		c-0.1584473,0.2971935-0.4534492,0.4893398-0.7506447,0.4893398c-0.107235,0-0.2083397-0.0249481-0.2998199-0.0744076
		c-0.2232208-0.1190529-0.3729134-0.3147011-0.4000473-0.5103493l0.0118179-0.6972446l0.4709549-0.2525482
		c0.0056915-0.0030632,0.0297623-0.0175076,0.0310745-0.018383l0.0367699-0.0205708
		c0.2188454-0.1168652,0.4661407-0.1251812,0.6617889-0.0196972c0.1693878,0.0906029,0.2884407,0.2538624,0.3348351,0.4595776
		C44.0214119,19.783802,43.9872704,20.0127144,43.8774109,20.2171173z"/>
	<path d="M16.0301113,29.9054375c0.0827236,0.4972172,0.3562813,0.9515419,0.7698994,1.2793732
		c0.375103,0.2985077,0.8359928,0.4626408,1.2968826,0.4626408c0.5506172,0,1.0513382-0.2337265,1.3739166-0.6407814
		c0.38867-0.4897766,0.5186653-1.102108,0.3440266-1.6487865l-0.5309219-1.1699505
		c-0.0463943-0.1032963-0.14575-0.1733265-0.2586746-0.182518l-1.0368938-0.0875397
		c-0.030201-0.0039387-0.0599632-0.0070019-0.0914783-0.0096283c-0.6053276-0.0525227-1.1773911,0.1890831-1.5306091,0.6346531
		C16.0660019,28.9206295,15.946949,29.4047165,16.0301113,29.9054375z M16.824522,28.9066238
		c0.2118435-0.2661171,0.5458031-0.4188728,0.91609-0.4188728c0.0363293,0,0.0730953,0.0017509,0.1081104,0.0043774
		l0.062151,0.0061283c0.0061283,0.0008755,0.0437698,0.0056896,0.0498981,0.0061264l0.8561268,0.0713444l0.4495087,0.9891853
		c0.1019821,0.3457756,0.0070038,0.7484531-0.2538605,1.0775986c-0.2114067,0.2661171-0.5453644,0.4188709-0.9156532,0.4188709
		c-0.3291435,0-0.6604767-0.1190529-0.9331589-0.3352718c-0.2932549-0.2328529-0.4897785-0.5519314-0.5528069-0.8981457
		C16.5487766,29.4856892,16.6249352,29.1587334,16.824522,28.9066238z"/>
	<path d="M12.0563021,26.6113644c0.3339586,0,0.6486597-0.1024208,0.9099617-0.2954426
		c0.4534492-0.3361473,0.7103748-0.8399315,0.6863022-1.3590336l-0.1877699-1.1393147
		c-0.0170708-0.1037331-0.0888519-0.1903954-0.1877708-0.2258492l-0.8561258-0.3085728l-0.0227604-0.0091915
		c-0.0253859-0.0105038-0.0512094-0.020134-0.077033-0.0297623c-0.5116625-0.182518-1.0723467-0.1103001-1.4850903,0.194334
		c-0.7204418,0.5335484-0.8294268,1.6133347-0.2424822,2.4068718C10.949378,26.3251133,11.4960556,26.6113644,12.0563021,26.6113644
		z M12.0563021,26.025732c-0.3759785,0-0.7467031-0.1978378-0.9918108-0.529171
		c-0.1969624-0.2661152-0.2888775-0.5825672-0.2586765-0.8902645c0.02845-0.289753,0.1628218-0.537487,0.3786039-0.6968079
		c0.1593199-0.1181755,0.3536549-0.1803284,0.5615587-0.1803284c0.1264935,0,0.2538624,0.0223217,0.3764162,0.0660915
		l0.7930984,0.2888775l0.1536293,0.9292202c0.006566,0.3068218-0.1623831,0.6175842-0.4516983,0.8316154
		C12.4576654,25.9631424,12.2637682,26.025732,12.0563021,26.025732z"/>
	<path d="M7.6045327,20.8894119c0.2236609,0,0.4381299-0.0498962,0.6368423-0.1479397
		c0.4836502-0.2389793,0.810607-0.6692314,0.8762608-1.1620731l0.0170698-1.1007957
		c0.0013132-0.1019821-0.0525236-0.1965237-0.1400614-0.2468586l-0.7523937-0.4350662l-0.0862255-0.0533981
		c-0.4512606-0.2582397-0.9887466-0.2858143-1.4299407-0.068718c-0.7681499,0.3794785-1.0535254,1.3761044-0.6364045,2.2221642
		C6.3877482,20.4998665,6.9825721,20.8894119,7.6045327,20.8894119z M7.6045327,20.3037796
		c-0.4009261,0-0.7895966-0.2617397-0.9891844-0.6670418c-0.1374354-0.2774982-0.1693869-0.5838833-0.0906024-0.8622551
		c0.0739698-0.2604275,0.2376671-0.4648285,0.4604526-0.5746899c0.1181769-0.0582123,0.2455454-0.0875378,0.3777285-0.0875378
		c0.1689491,0,0.3422751,0.0481453,0.4994068,0.1378727l0.0472708,0.02845
		c0.0048146,0.0035019,0.0319514,0.0205708,0.0354528,0.0223217l0.6009517,0.3479652l-0.0126934,0.8823891
		c-0.0450821,0.2805595-0.2507973,0.5366096-0.551054,0.684988C7.8640847,20.2744541,7.7367158,20.3037796,7.6045327,20.3037796z"/>
	<path d="M43.0274124,9.3115749c-0.1142387-0.1032953-0.3068237-0.0958548-0.4140587,0.0214472l-0.0179443,0.0245104
		c-0.0590897,0.0551491-0.0906029,0.1234293-0.0919151,0.1991501c-0.0013123,0.0949793-0.2328529,9.529438-9.0681114,13.9667625
		l-0.1588821,0.0800972c-2.5797577,1.2960072-4.8089256,2.4160614-6.6192207,3.5142326
		c-0.030201,0.0008755-0.0713444,0.0021877-0.1138,0.0280113c-0.2175331,0.1352482-0.4359417,0.2831879-0.6661682,0.452137
		c-0.011816-0.0091915-0.0258236-0.0175076-0.0424557-0.0236359C11.3901339,22.3443012,8.3017769,7.8483691,8.2724514,7.7021799
		C8.2448769,7.5704346,8.1319523,7.4741426,7.9923282,7.4684525c-0.0415807,0-0.0765958,0.0157571-0.10811,0.0262613
		c-0.0245109,0-0.0660915,0-0.1072345,0.0245109c-0.0512099,0.030201-5.1398211,3.0817914-5.2741928,9.0948105
		c-0.16501,7.4591522,6.9873199,15.9486332,21.2569656,25.2312107c0.0595264,0.0415802,0.1199284,0.0809746,0.1798916,0.1181793
		l0.1282444,0.084034c0.0196972,0.0118179,0.0367661,0.0144463,0.030201,0.0091934
		c0.5637474,0.3107605,1.2027779,0.4748955,1.8483753,0.4748955c0.5129757,0,1.011507-0.0997925,1.4680195-0.2919426
		l0.077034-0.0341377c0.2135944-0.0936661,0.41712-0.2061539,0.5983257-0.3295822
		c11.936306-6.4953537,18.4334106-13.4319019,19.3105469-20.6170597
		C48.277092,14.0841722,43.0794983,9.3579702,43.0274124,9.3115749z M43.1976738,23.579031
		c-0.7024956-0.5563068-1.6627922-0.8753834-2.6340332-0.8753834c-0.3978615,0-0.7865334,0.0529594-1.1546326,0.1571312
		l-1.140625,0.3138256c1.1752052-1.2461109,2.1595726-2.5963917,2.9321022-4.0206413l0.0021858,1.0417061
		c0.0888519,1.0119457,0.7935371,2.0624065,1.7135658,2.5543728c0.4897766,0.2617397,1.0316429,0.4004898,1.5669403,0.4004898
		c0.8990173,0,1.6842384-0.3716011,2.1700783-1.0106316c-0.3252068,1.6702328-0.9686127,3.337841-1.9179688,4.970871
		C44.9007339,25.8340225,44.3225441,24.4697361,43.1976738,23.579031z M24.3230667,35.7197418l0.0008755-0.0008736
		c0.0739708-0.0463982,0.1173019-0.125618,0.1234303-0.2245369c0.5011578-0.8819504,1.0036278-1.669796,1.3585968-2.2068443
		c1.4198742,1.9507942,3.0402107,4.5449944,3.0402107,5.5932693c0,1.5406761-1.3008213,2.7937889-2.8997116,2.7937889
		c-1.599329,0-2.9001503-1.2531128-2.9001503-2.7937889C23.0463181,38.3126297,23.4875126,37.2197151,24.3230667,35.7197418z
		 M24.0871506,30.5847359c0.3983002-0.906023,1.0898533-1.7315121,2.0545273-2.4532661
		c1.890831-1.2382317,4.4430161-2.5202332,7.397438-4.0044479l0.1593208-0.0792217
		c5.8821487-2.9552975,8.0876808-8.0246506,8.9140434-11.385253C42.1953583,17.1966019,39.3114052,25.9246254,24.0871506,30.5847359
		z M31.787035,29.7675629l0.7843456-1.6671696l1.5485535-0.0091915c1.2579269,0,2.5324898,0.6228371,3.2476768,1.5866356
		c0.5816956,0.7847824,0.8605042,1.7179413,0.7839088,2.6283417c-0.0744095,0.8867645-0.2700577,1.7455177-0.9300957,2.235733
		c-0.4801483,0.3562813-1.2671204,0.5567436-1.8917084,0.5567436c-1.1239929,0-2.2414207-0.7064362-2.9784966-1.6995583
		C31.6067047,32.3959045,31.3760414,30.8998737,31.787035,29.7675629z M19.383709,27.5904827l0.7265701,1.6842403
		c0.3772907,1.1520061,0.0980415,2.6401596-0.6779861,3.6188393c-0.7410126,0.9331589-1.8326187,1.4903412-2.9202824,1.4903412
		c-0.6639805,0-1.2767496-0.2074661-1.7726545-0.6005135c-0.6438456-0.5112228-1.0237627-1.2820015-1.0692825-2.1705151
		c-0.046833-0.9121513,0.2617397-1.8361206,0.8688192-2.6016445c0.7147512-0.9003315,1.9608612-1.4820251,3.1745815-1.4820251
		c0.0573387,0,0.1142387,0.0013123,0.1746407,0.0039387L19.383709,27.5904827z M23.66609,35.136734
		c-0.2289124,0.4039917-0.4337521,0.786972-0.6110172,1.1423798c-0.7839069-1.6435356-0.9681759-2.9802475-0.5808182-4.1961594
		c0.2057152-0.6460323,0.5821304-1.2684307,1.1432533-1.8895168c-0.1707001,0.35672-0.3002586,0.7248192-0.3869209,1.0994835
		C22.8445415,32.9504623,23.327755,34.3970337,23.66609,35.136734z M24.2801723,28.7648106
		C8.4939241,22.1079483,7.756412,12.5561876,8.0575447,9.1465645c1.1682005,3.8004827,5.4107523,14.3974514,17.2415771,18.8514099
		C24.9196415,28.2619019,24.5848064,28.5144501,24.2801723,28.7648106z M5.4996705,17.6395473
		c0.3440261-0.1584454,0.7541437-0.2420444,1.184833-0.2420444c0.5449271,0,1.1034226,0.1369972,1.5735044,0.3864822
		l0.9961872,0.5212917L9.242815,19.6117878c-0.0901642,0.8539391-0.7221918,1.7118149-1.5362997,2.0864792
		c-0.3921723,0.1798916-0.8254876,0.2748718-1.2531133,0.2748718c-0.9786801,0-1.8374324-0.47402-2.2405472-1.2369194
		c-0.259989-0.4919662-0.3024452-1.0609646-0.1190519-1.6019535C4.3104606,18.4947968,4.822998,17.9503078,5.4996705,17.6395473z
		 M8.5302525,17.2653198c-0.5584955-0.2967548-1.196651-0.4534492-1.8457489-0.4534492
		c-0.5151639,0-1.0097561,0.1024208-1.429503,0.2954426c-1.0539632,0.484087-1.7319486,1.4045544-1.8396211,2.4042435
		c-0.2372291-0.9904976-0.34709-1.9556084-0.326956-2.8782654c0.0993562-4.5800114,3.2481148-7.3519173,4.4754038-8.2592535
		c-0.2481713,1.5717535-0.4363794,5.1892805,1.8978338,9.378871L8.5302525,17.2653198z M6.453402,22.5587711
		c0.5121002,0,1.0298901-0.1138,1.4973454-0.3287067c1.00144-0.4600143,1.7735291-1.5196686,1.8776999-2.5850105
		l0.0109425-1.2509251c0.9139013,1.4925308,2.0956707,2.9255352,3.5181713,4.2683754l-0.800539-0.2486095
		c-0.4026775-0.1278057-0.82899-0.192585-1.2671194-0.192585c-0.8994579,0-1.7962894,0.2823124-2.4615822,0.7747154
		c-1.3813567,1.0228882-1.9451046,2.6839294-1.4855275,4.0766678c-1.465394-1.8960838-2.5622511-3.7475224-3.2721882-5.5241165
		C4.6378541,22.1832314,5.5014215,22.5587711,6.453402,22.5587711z M7.8408866,25.4667988
		c0.1746392-0.7812805,0.6490979-1.4912186,1.3362746-1.9998169c0.5663738-0.4193077,1.3362751-0.6596012,2.1127415-0.6596012
		c0.3781662,0,0.7458277,0.0555859,1.0924797,0.165884l1.2539883,0.3891087l0.2328529,1.5971394
		c0.0564623,1.0710335-0.5247936,2.2786274-1.4128714,2.9364796c-0.6127691,0.453886-1.3467789,0.703371-2.066783,0.703371
		c-0.8832636,0-1.6641064-0.3702888-2.1416283-1.0158844C7.8119993,26.9947834,7.6675606,26.2432652,7.8408866,25.4667988z
		 M10.3895693,29.1854324c0.8443089,0,1.7021856-0.2906265,2.4151859-0.8184834
		c1.0447721-0.77384,1.7227573-2.1954651,1.647912-3.4656487l-0.2083416-1.4308167
		c1.4715767,1.262907,3.1859627,2.4419403,5.1133404,3.5323963l-1.4463539-0.0553684
		c-1.4435101-0.066967-2.9706182,0.6153965-3.8306837,1.6999969c-0.6959305,0.8766975-1.0495863,1.9407291-0.9953117,2.9955673
		c0.0509357,0.9939442,0.4693155,1.8582783,1.1624556,2.4718685c-2.1311235-1.8139076-3.9778566-3.5992546-5.5069904-5.3440056
		C9.2270584,29.0414314,9.7916813,29.1854324,10.3895693,29.1854324z M16.5120106,34.9699745
		c1.2653675,0,2.5285473-0.6403427,3.3785458-1.7126884c0.897707-1.1309967,1.214159-2.8515663,0.7677135-4.1904678
		l-0.7588501-1.7594681c1.2165108,0.6633778,2.5134487,1.292778,3.8927269,1.8833351
		c-0.9611721,0.8832626-1.5752544,1.7722168-1.8755112,2.7141304c-0.4639549,1.4522629-0.1960869,3.1049881,0.8184834,5.0514069
		c-0.3619709,0.8202362-0.5453644,1.467144-0.5453644,1.9245338c0,0.4884644,0.1019821,0.9738655,0.2967548,1.4216232
		c-3.0177784-2.0294151-5.696455-4.0361786-8.0327482-6.0088577C15.0395575,34.7326927,15.7469234,34.9699745,16.5120106,34.9699745
		z M29.7031803,38.8807564c0-1.9744301-3.6984997-6.7623482-3.8556309-6.9654369l-0.0744076-0.095417l-0.0695934,0.0989189
		c-0.0087528,0.0118179-0.8276768,1.1725788-1.6641064,2.5745068c-0.2805595-0.7620239-0.5195408-1.8667564-0.2372284-3.0730381
		c0.008316-0.0380783,0.020134-0.0748463,0.0319519-0.1116123c0.0035-0.0113792,0.0074406-0.0223217,0.0109406-0.0337009
		c3.04809-0.9051476,5.7902336-2.0273914,8.1559582-3.3378429l-0.7545795,1.6045799
		c-0.4867134,1.3174553-0.2258492,3.0472145,0.6346531,4.2066612c0.8464966,1.1410637,2.1398773,1.9359131,3.4485779,1.9359131
		c0.7515182,0,1.6588554-0.2402916,2.2409859-0.6722946c1.6422195-1.2180977,1.6465988-3.8236809,0.2665558-5.6834354
		c-0.8211136-1.1073608-2.2808151-1.8229885-3.7181969-1.8229885l-1.38311,0.008316
		c1.8812027-1.1104259,3.5374298-2.3609123,4.9310417-3.7234478l-0.2783699,1.5555573
		c-0.1177406,1.2872543,0.5278549,2.7622776,1.5695648,3.5877647c0.7475777,0.5917606,1.6579781,0.917841,2.5631256,0.917841
		c0.5952606,0,1.1533203-0.1387482,1.6409073-0.4048653c-2.9215965,3.7860374-7.5847702,7.5151787-13.8726578,11.09375
		C29.5609303,40.0266342,29.7031803,39.4589462,29.7031803,38.8807564z M41.5213127,29.2659683
		c-0.7734032,0-1.5546837-0.2809982-2.1998444-0.7917862c-0.8889503-0.7042465-1.4443817-1.9621735-1.351593-3.0502777
		l0.2928162-1.6404705l1.30476-0.3589077c0.316452-0.0892887,0.6517258-0.1348095,0.9961891-0.1348095
		c0.8421211,0,1.669796,0.2726822,2.2707481,0.7488918c0.6959305,0.551054,1.1603241,1.3038864,1.3082619,2.1197433
		c0.1435623,0.7930984-0.0315132,1.550745-0.4932785,2.1341896C43.1595955,28.9109993,42.383564,29.2659683,41.5213127,29.2659683z
		 M46.3451195,21.5380726c-0.3435898,0.6429691-1.039959,1.0263882-1.8619423,1.0263882
		c-0.4394455,0-0.885891-0.1142368-1.2907562-0.3308945c-0.7488899-0.4000511-1.3262062-1.252676-1.4045563-2.0645962
		l-0.0021858-1.2281647l0.8915787-0.4276237c0.7633362-0.3724766,1.7831573-0.3641605,2.4961586,0.0166321
		c0.587822,0.3142624,1.0312042,0.8079796,1.2487373,1.39011C46.6318092,20.4797325,46.6042328,21.0544224,46.3451195,21.5380726z
		 M43.922493,17.6478634c-0.5287323,0-1.0478363,0.1173019-1.5017242,0.338335l-0.8268013,0.3969879
		c1.7958527-3.7370176,1.71838-6.9461775,1.624279-8.0281534c1.0723457,1.2089062,3.6569176,4.6014595,3.6871185,9.2182379
		c-0.2783737-0.6512852-0.7891579-1.2036533-1.4553261-1.5599346C45.0031548,17.7743568,44.4748611,17.6478634,43.922493,17.6478634
		z"/>
</g>
</svg>
