<?xml version="1.0" encoding="utf-8"?>
<!-- Generator: Adobe Illustrator 18.0.0, SVG Export Plug-In . SVG Version: 6.00 Build 0)  -->
<!DOCTYPE svg PUBLIC "-//W3C//DTD SVG 1.1//EN" "http://www.w3.org/Graphics/SVG/1.1/DTD/svg11.dtd">
<svg version="1.1" id="Layer_1" xmlns="http://www.w3.org/2000/svg" xmlns:xlink="http://www.w3.org/1999/xlink" x="0px" y="0px"
	 width="50px" height="50px" viewBox="0 0 50 50" enable-background="new 0 0 50 50" xml:space="preserve">
<path d="M30.1704273,14.9940338c3.0762501-0.9696655,5.4843006-5.2188797,6.3310413-7.8165002
	c0.1669502-0.5121832-0.6374969-0.7297659-0.8032265-0.221446c-0.9510574,2.9176393-2.7580109,5.9510856-5.7413311,7.125421
	c-2.8729019,1.1308699-5.8222637-2.3825283-7.4594193-4.3099642c-2.3677864-2.7875981-3.9740334-8.3521194-8.7258739-7.0873952
	c-0.5185375,0.1380227-0.2983112,0.9415021,0.221446,0.8031745c3.9425135-1.0492766,5.646369,3.753756,7.4433565,6.2689695
	c0.9966087,1.3948164,2.2976303,2.7538424,3.733675,3.8243179c-0.0028458,0.0276556-0.0124035,0.0508881-0.0097599,0.0822544
	c0.1140785,1.3615685,0.6031303,2.6405268,1.2255783,3.8471956c0.1868782,0.3622131,0.4955597,0.7295113,0.8495884,1.1040268
	c-0.3613491,0.3567238-0.7521839,0.7050076-1.1617279,1.0623932c-1.0631027,0.9278259-1.8695831,1.9755268-1.4706135,3.3943386
	c-0.4367924,0.9869499-2.6921253,6.7676811-4.0380878,11.9041023c-0.0130138,0.0354843-0.0276546,0.0651207-0.0402622,0.1013184
	c-0.0146408,0.0412788-0.0160656,0.0830688-0.0174885,0.1246033c-0.156374,0.6068916-0.3033943,1.2065125-0.4282513,1.7836151
	c-0.9394684,4.3361969,1.3860207,8.6203346,5.4090614,9.9648743C26.5365963,47.2999039,27.2409935,47.5,27.9502716,47.5
	c0.862196,0,1.7325268-0.2952614,3.2373028-0.9736328c1.9171658-0.8646355,4.0628948-3.3259621,4.2011738-5.6124077
	c0.083374-1.3655853-0.1584091-3.6010933-0.7155838-6.198204c-0.0038643-0.0236397-0.0018272-0.0472298-0.009964-0.0706139
	c-0.0032539-0.0094566-0.0071144-0.0171318-0.0105743-0.026535c-0.7767868-3.581419-2.1565056-7.8378525-4.14464-11.492527
	c0.522604-1.4256229-0.3176308-2.5158749-1.2882118-3.5531025c-0.2804165-0.299633-0.5498524-0.5998268-0.8119698-0.9019508
	c0.0467701-0.0446854,0.094965-0.08988,0.1364479-0.1330414C29.4784336,17.5664902,29.9682999,16.3034935,30.1704273,14.9940338z
	 M20.8924637,37.1601524c0.1346169-0.6220932,0.2942448-1.2715874,0.4668884-1.9311447
	c1.022028-2.7722473,2.6829758-3.0431061,3.2525539-3.0477829c-0.0241985,0.2102089-0.0502281,0.4199638-0.0502281,0.6386642
	c0,0.9633102,0.249712,1.8473167,0.6600685,2.571846c-0.958786,0.4589081-3.6783657,2.0504608-4.25811,5.5237503
	C20.6578007,39.7303734,20.6134701,38.4491272,20.8924637,37.1601524z M34.5562401,39.914299
	c-0.7717056-2.8324852-2.9658318-4.1159706-3.8355522-4.5219536c0.4105587-0.7246323,0.6604748-1.6088905,0.6604748-2.5724564
	c0-0.2285118-0.0260296-0.4481277-0.0524635-0.6672859c0.5632744,0.0825081,1.7093449,0.5247917,2.4926395,2.6255798
	C34.269928,36.8495369,34.5070305,38.6461182,34.5562401,39.914299z M30.5482483,32.8198891
	c0,1.9602776-1.1558304,3.5553398-2.576828,3.5553398s-2.576828-1.5950623-2.576828-3.5553398
	s1.1558304-3.5553398,2.576828-3.5553398S30.5482483,30.8596134,30.5482483,32.8198891z M27.8559189,46.1204872
	c-0.7930584,0-1.6804695-1.8699913-1.6804695-4.3727989c0-2.5028114,0.8874111-4.3727989,1.6804695-4.3727989
	c0.7930565,0,1.6804695,1.8699875,1.6804695,4.3727989C29.5363884,44.2504959,28.6489754,46.1204872,27.8559189,46.1204872z
	 M21.695282,42.7567024c-0.0002022-0.0061035,0.0028477-0.0113373,0.0024414-0.0174904
	c-0.264761-4.5991249,3.2669907-6.3439026,4.0124645-6.6601105c0.3300343,0.3797035,0.7149734,0.673542,1.1411915,0.8659592
	c-0.9044933,0.7720642-1.5088444,2.5827255-1.5088444,4.8026276c0,2.1627083,0.5750694,3.9327507,1.4407215,4.7367401
	c-0.3015652-0.0835762-0.6364803-0.1933823-1.0315857-0.3257141C23.9733925,45.5643272,22.567646,44.3258896,21.695282,42.7567024z
	 M30.8459492,45.7666588c-0.8394203,0.3784332-1.4494648,0.6242294-1.9633255,0.7624054
	c0.8916817-0.7827911,1.4866772-2.5799294,1.4866772-4.7813759c0-2.1630669-0.5750675-3.9334145-1.4411278-4.7372017
	c0.48946-0.1858597,0.9315376-0.5028801,1.3028526-0.929451c0.7263584,0.294754,4.0173454,1.8849335,3.7538071,6.4499474
	c-0.0022392,0.0403671,0.0077248,0.0775795,0.0164719,0.115097C33.2873497,44.0086136,32.0066605,45.2434959,30.8459492,45.7666588z
	 M29.6663265,23.0299969c-0.0591736,0.1409721-0.0311108,0.2553539,0.0368061,0.3410149
	c0.0052872,0.0118961,0.005085,0.0247078,0.0113888,0.0362988c1.5364971,2.7944603,2.6821613,5.9238873,3.4744053,8.8005524
	c-0.8062744-0.7545738-1.6160069-0.8926487-2.0304298-0.9049511c-0.4821396-1.671217-1.7231731-2.8712749-3.1870766-2.8712749
	c-1.4779339,0-2.7268982,1.2238503-3.1988697,2.9199772c-0.4158478-0.0213509-1.5236874,0.0311127-2.5998058,1.024622
	c1.3669052-4.465374,3.0465622-8.7031498,3.2202206-9.034811c0.0239944-0.0424995,0.0355854-0.0879993,0.0435162-0.1334972
	c0.0203362-0.0684776,0.0278587-0.1437168-0.0012188-0.2318172c-0.4888496-1.4881535,1.1769791-2.7758045,2.3734798-3.776989
	C28.9794178,20.3641529,30.259901,21.6131687,29.6663265,23.0299969z M26.0733681,14.2057037
	c0.2454414,0.1552057,0.4935265,0.3020735,0.7438488,0.4372492c0.8481636,0.457737,1.6737576,0.6097393,2.4637661,0.534297
	c-0.2517452,1.1259899-0.7649956,2.0070972-1.4472294,2.7953777C26.9693203,16.8642273,26.3102684,15.6678782,26.0733681,14.2057037
	z"/>
</svg>
