<?xml version="1.0" encoding="utf-8"?>
<!-- Generator: Adobe Illustrator 18.0.0, SVG Export Plug-In . SVG Version: 6.00 Build 0)  -->
<!DOCTYPE svg PUBLIC "-//W3C//DTD SVG 1.1//EN" "http://www.w3.org/Graphics/SVG/1.1/DTD/svg11.dtd">
<svg version="1.1" id="Layer_1" xmlns="http://www.w3.org/2000/svg" xmlns:xlink="http://www.w3.org/1999/xlink" x="0px" y="0px"
	 width="50px" height="50px" viewBox="0 0 50 50" enable-background="new 0 0 50 50" xml:space="preserve">
<g>
	<path d="M26.9186535,6.4023242c0.0419559-1.1291308-0.842577-2.0828686-1.9710579-2.1253653l-0.078722-0.0012975
		c-1.1059895,0-2.0054455,0.8658252-2.0474014,1.9718156c-0.0426044,1.1291304,0.8414955,2.0828691,1.9706268,2.1253648
		l0.078722,0.001298C25.977459,8.3741398,26.8766975,7.5083141,26.9186535,6.4023242z M26.6654053,6.3931327
		c-0.0073528,0.1966949-0.0475788,0.3843069-0.1128922,0.559267l-0.2205925-0.5841374l0.2724972-0.5126615
		C26.6506996,6.0265598,26.6725426,6.2068186,26.6654053,6.3931327z M26.0620193,6.3471761l-0.1838264,0.1796098
		l0.0168686-0.2940149l0.0038929-0.0709357L26.0620193,6.3471761z M25.9138775,5.9010167l0.0194626-0.3406205l0.4891968,0.2466526
		l-0.2227554,0.419342L25.9138775,5.9010167z M26.1807499,6.4873171l0.1970196,0.5213118l-0.5363426,0.1607947l0.0209789-0.3694925
		l0.0002155-0.0018382L26.1807499,6.4873171z M26.5375919,5.6599874L25.9218788,5.349103l0.0002155-0.0029192l-0.0021629-0.0002165
		l-0.2720642-0.639502C26.0522881,4.9016466,26.3706322,5.2433486,26.5375919,5.6599874z M25.7082062,5.3164468l-0.3579216-0.018599
		l-0.281147-0.2999625l0.4234505-0.1885848L25.7082062,5.3164468z M25.735672,5.5146556l-0.0032444,0.190856l-0.1942062-0.2070761
		L25.735672,5.5146556z M25.0730305,5.2833581l-0.3246174-0.0167608l0.1615505-0.1441422L25.0730305,5.2833581z
		 M24.9378624,4.5296669c0.180151,0.0069208,0.3531647,0.0406585,0.5153656,0.0965633l-0.5350456,0.2383265l-0.5108223-0.2756324
		C24.5762634,4.5439405,24.7542515,4.5227466,24.9378624,4.5296669z M24.7605247,4.9876127l-0.2744446,0.2654676
		l-0.0010815,0.0008655l-0.3583546-0.009624l0.2577915-0.4594598L24.7605247,4.9876127z M24.2920895,5.4403682l-0.2355156,0.2279453
		l0.0142746-0.2258911L24.2920895,5.4403682z M24.2568378,4.6371517L23.9196777,5.238915l-0.6834049,0.339972
		C23.4363194,5.1423516,23.8057041,4.8019476,24.2568378,4.6371517z M23.7529354,6.2399077l0.098835-0.1040249L23.8454971,6.351285
		L23.7529354,6.2399077z M23.8377113,6.629837l-0.0127583,0.4489708l-0.4807625-0.2423272l0.2779026-0.4538369L23.8377113,6.629837z
		 M23.626852,6.0837626l-0.2359486-0.3771701L23.8708,5.467834l-0.0112457,0.3910108L23.626852,6.0837626z M23.0745049,6.2572088
		c0.0071373-0.1898823,0.0443344-0.3717632,0.1057549-0.541749l0.3211575,0.5134182l-0.3592205,0.5862999
		C23.0918064,6.6382718,23.067152,6.4509845,23.0745049,6.2572088z M23.1910725,6.9644022l0.6444778,0.3251576l0.1816635,0.6145234
		C23.6404762,7.6998186,23.3446236,7.3664432,23.1910725,6.9644022z M24.0403538,5.9542189l0.000433-0.0157876l0.5153656-0.4980631
		l0.7108688,0.0366569l0.1829624,0.1951814l0.2766056,0.2952046l-0.0272503,0.4757876l-0.0155697,0.271956l-0.5084457,0.4664879
		l-0.6347427-0.0241137l-0.5177441-0.5938692L24.0403538,5.9542189z M25.6688461,6.9775949L25.6686287,6.981812
		l-0.0004311,0.0062718l-0.0121117,0.211617L25.4456577,7.191699L25.435709,7.1913748L25.6688461,6.9775949z M24.973114,7.3572516
		l-0.1436005,0.1239209l-0.1195965-0.1338692L24.973114,7.3572516z M24.289278,7.1480131l-0.0036774-0.000216l-0.2469769-0.0092998
		l-0.0088673-0.2882838L24.289278,7.1480131z M24.0362453,7.3218918l0.4191265,0.0157876L24.6924,7.6028228l-0.5084438,0.2186465
		L24.0362453,7.3218918z M24.8020477,8.1205664c-0.2022095-0.0077858-0.3946877-0.0499573-0.5737572-0.1187305l0.5914898-0.2541137
		l0.5512657,0.301476C25.1908951,8.1018591,24.9997158,8.1281357,24.8020477,8.1205664z M24.9566784,7.61342l0.2852554-0.2458959
		l0.3680878,0.0138412l-0.1905308,0.4853034L24.9566784,7.61342z M25.573473,7.9761l0.2378922-0.6064129l0.6371231-0.190856
		C26.255146,7.5345907,25.9463158,7.8166032,25.573473,7.9761z"/>
	<path d="M15.9781322,39.9372482c0.0127592,0.0592003,0.0648804,0.0995369,0.1232719,0.0995369
		c0.0084343,0,0.0175171-0.0009766,0.0263844-0.002758c0.0681248-0.0145988,0.1113777-0.0816956,0.0968876-0.149765
		c-0.0147057-0.0680161-0.081749-0.1113777-0.1498737-0.0967789C16.0066795,39.8020782,15.9634256,39.869175,15.9781322,39.9372482z
		"/>
	<path d="M15.8163643,39.4393463c0.0179501,0.0524445,0.0668268,0.0854797,0.119379,0.0854797
		c0.0136251,0,0.0272503-0.0020561,0.040659-0.006813c0.0659618-0.022438,0.1012135-0.0940208,0.0787201-0.1598206
		c-0.0224915-0.0660706-0.0938597-0.1011047-0.160037-0.0786667C15.82934,39.30196,15.7940884,39.3735466,15.8163643,39.4393463z"/>
	<path d="M14.5516338,37.4821815c0.0131922,0.0045433,0.0268173,0.0065422,0.0404425,0.0065422
		c0.0525522,0,0.101429-0.0330353,0.1191626-0.0854797c0.0224924-0.0657997-0.0127592-0.1373825-0.0785046-0.1598206
		c-0.0659618-0.022438-0.1373301,0.012867-0.1602545,0.0786667C14.4504213,37.3881607,14.4854565,37.4597435,14.5516338,37.4821815z
		"/>
	<path d="M14.3777552,37.9916534c0.0136251,0.0044861,0.0272493,0.0067596,0.0408745,0.0067596
		c0.0525532,0,0.101429-0.0329819,0.1191635-0.0854263c0.0224915-0.0657997-0.0127602-0.1376534-0.0785055-0.1598206
		c-0.0661774-0.022438-0.1377621,0.0125961-0.1602535,0.0786667C14.2767582,37.8975754,14.3120098,37.9692154,14.3777552,37.9916534
		z"/>
	<path d="M14.7899599,36.9918518c0.000433,0.069313,0.0566626,0.1255417,0.1260843,0.1255417h0.000432
		c0.0698547-0.0002708,0.1258678-0.0569878,0.1256514-0.1265182c-0.000432-0.0695839-0.0570946-0.1258125-0.1267328-0.1255417
		C14.845974,36.865551,14.7897444,36.9222679,14.7899599,36.9918518z"/>
	<path d="M14.2043085,38.501339c0.0136251,0.0045433,0.0272503,0.0065422,0.0408745,0.0065422
		c0.0525532,0,0.1014299-0.0329781,0.1191635-0.0854225c0.0224915-0.0657997-0.0127592-0.1373863-0.0785046-0.1598244
		c-0.0659618-0.0224342-0.1377621,0.0128174-0.160038,0.0786133C14.1033125,38.4073181,14.1385641,38.4789047,14.2043085,38.501339z
		"/>
	<path d="M15.2826166,37.479641c0.0657454-0.022438,0.100997-0.0940208,0.0785055-0.1598206
		c-0.0222759-0.0657997-0.0940762-0.1011047-0.160038-0.0786667c-0.0657454,0.022438-0.100997,0.0940208-0.0785046,0.1598206
		c0.0177336,0.0524445,0.0666103,0.0854797,0.1191626,0.0854797C15.2553673,37.486454,15.2689924,37.4844513,15.2826166,37.479641z"
		/>
	<path d="M13.7064619,40.0362968c0.0088673,0.0019989,0.0177336,0.002758,0.0263844,0.002758
		c0.0583925,0,0.1105127-0.0403328,0.1232729-0.0995903c0.0144892-0.0680161-0.0289803-0.1351128-0.0968876-0.1497116
		c-0.0681248-0.0143814-0.1351671,0.0289803-0.1496572,0.0970497S13.6385546,40.0219154,13.7064619,40.0362968z"/>
	<path d="M13.7099218,40.3244171c-0.0674753,0.0163841-0.1089983,0.0844536-0.0929947,0.1520386
		c0.0142736,0.0576897,0.0659618,0.096508,0.1226234,0.096508c0.0097322,0,0.019681-0.0012436,0.0296288-0.0035133
		c0.0676918-0.0163841,0.1092148-0.0844536,0.0929947-0.1522522C13.8457384,40.3496132,13.7776136,40.3080368,13.7099218,40.3244171
		z"/>
	<path d="M14.0308628,39.0108109c0.0134087,0.0045433,0.0272493,0.006813,0.040658,0.006813
		c0.0523367,0,0.1016455-0.0330353,0.11938-0.0854797c0.0224915-0.0660133-0.0127602-0.1375999-0.078722-0.160038
		c-0.0657454-0.022438-0.1375456,0.0128136-0.1598215,0.0788841C13.9298658,38.91679,13.9651175,38.9883728,14.0308628,39.0108109z"
		/>
	<path d="M15.2960253,37.910717c0.0177336,0.0524445,0.0670433,0.0854225,0.11938,0.0854225
		c0.0134077,0,0.0270329-0.0022163,0.040658-0.0067558c0.0657454-0.022438,0.100997-0.0940781,0.0785046-0.1600914
		c-0.022275-0.0657997-0.0940762-0.1011047-0.1598215-0.0786705C15.3087854,37.7730598,15.2735338,37.8446465,15.2960253,37.910717z
		"/>
	<path d="M13.8574162,39.5205002c0.0134087,0.0045395,0.0272503,0.0065956,0.040659,0.0065956
		c0.0523357,0,0.1016455-0.0330353,0.119379-0.0854797c0.0222759-0.0657997-0.0127602-0.1373825-0.078721-0.1598206
		c-0.0657454-0.022438-0.1375465,0.012867-0.1598215,0.0786667C13.7564201,39.4262619,13.7914553,39.4980621,13.8574162,39.5205002z
		"/>
	<path d="M14.282814,41.2011642c-0.0300617,0.0627747-0.0032444,0.1381416,0.059473,0.168148
		c0.0173016,0.0083275,0.0359011,0.0123291,0.0540667,0.0123291c0.0471468,0,0.0923462-0.0267105,0.1137571-0.0718002
		c0.0302773-0.0627747,0.0034599-0.1381416-0.0592575-0.168148C14.3879194,41.1116867,14.3128748,41.1383934,14.282814,41.2011642z"
		/>
	<path d="M13.8976421,40.827076c-0.0540667,0.0441208-0.0620689,0.1235428-0.0179501,0.1774483
		c0.0248709,0.0305481,0.0609875,0.0463905,0.0977526,0.0463905c0.0281143,0,0.0560131-0.0093002,0.0793705-0.028492
		c0.0540667-0.0438499,0.062068-0.1232758,0.0181656-0.1771774C14.0308628,40.7912865,13.9517088,40.7832298,13.8976421,40.827076z"
		/>
	<path d="M15.385993,41.1406631c-0.0629339,0.0302811-0.0893192,0.105648-0.0592575,0.168148
		c0.0216265,0.0453644,0.0666103,0.0715866,0.1137562,0.0715866c0.0181665,0,0.0369816-0.0037842,0.0542831-0.0123291
		c0.0627174-0.0300064,0.0893183-0.1053734,0.0592575-0.168148C15.5237551,41.1371498,15.4487104,41.1106567,15.385993,41.1406631z"
		/>
	<path d="M14.9195042,41.2465286h-0.0010815h-0.0010815c-0.0696373,0-0.1260834,0.0564995-0.1260834,0.1260834
		c0,0.0695305,0.0564461,0.12603,0.1260834,0.12603h0.0010815h0.001298h0.000432
		c0.0694218-0.0002708,0.1258678-0.0567169,0.1256514-0.1263008C15.0455885,41.3027573,14.9891424,41.2463112,14.9195042,41.2465286
		z"/>
	<path d="M15.7609997,40.8434601c-0.0439024,0.0542297-0.0354681,0.1333809,0.018383,0.1772308
		c0.0235729,0.0191383,0.0514717,0.0282211,0.0793695,0.0282211c0.0365496,0,0.0730982-0.0158958,0.0981855-0.0466576
		c0.0436859-0.0539055,0.0354681-0.1333275-0.0185986-0.1771774C15.8842716,40.7811737,15.8049021,40.7895012,15.7609997,40.8434601
		z"/>
	<path d="M16.1249771,40.3218765c-0.0676918-0.0161095-0.1358156,0.0254669-0.1520357,0.0933189
		c-0.0160036,0.0675316,0.0255194,0.135601,0.0934267,0.1519814c0.0097332,0.0022736,0.0194645,0.0035172,0.0294132,0.0035172
		c0.0570946,0,0.1085663-0.0390358,0.1224079-0.0967789h-0.0002174
		C16.2344093,40.4061127,16.1926689,40.3380432,16.1249771,40.3218765z"/>
	<path d="M15.4694719,38.4201851c0.0177336,0.0524445,0.0670424,0.0854263,0.119379,0.0854263
		c0.0134087,0,0.0272493-0.0019989,0.040658-0.006813c0.0657454-0.022438,0.100997-0.0940208,0.0785055-0.1598206
		c-0.0222759-0.0660133-0.0940762-0.1010513-0.1598215-0.0786133C15.4822311,38.2828026,15.447196,38.3543892,15.4694719,38.4201851
		z"/>
	<path d="M15.6429176,38.9298744c0.0179501,0.0524445,0.0670433,0.0854797,0.11938,0.0854797
		c0.0134087,0,0.0272493-0.0022697,0.040658-0.006813c0.0659618-0.022438,0.100997-0.0940208,0.0785046-0.1600914
		c-0.022275-0.0657997-0.0940762-0.1010513-0.1598215-0.0786133C15.6558943,38.7922745,15.6206427,38.8638573,15.6429176,38.9298744
		z"/>
	<path d="M14.3111448,40.7685242c0.1619844,0.1619301,0.3771696,0.2510834,0.6061964,0.2510834
		c0.2290277,0,0.4442129-0.0891533,0.6061974-0.2510834c0.2327032-0.2327042,0.3114243-0.5708923,0.2054539-0.8824806
		l-0.6922712-2.0331802c-0.017518-0.0510941-0.0655289-0.0854263-0.11938-0.0854263
		c-0.0538502,0-0.101861,0.0343323-0.119379,0.0854263l-0.6922712,2.0331802
		C13.9997206,40.1976318,14.0784416,40.53582,14.3111448,40.7685242z M14.34445,39.967308l0.5728912-1.6827202l0.5728922,1.6827202
		c0.0748281,0.2199974,0.0194635,0.4587021-0.1448994,0.6230125c-0.1144047,0.114296-0.2664404,0.1772842-0.4279928,0.1772842
		c-0.1615515,0-0.3135872-0.0629883-0.4279919-0.1772842C14.3249855,40.4260101,14.2696218,40.1873055,14.34445,39.967308z"/>
	<path d="M20.3956051,43.8110237c0.0127583,0.0592575,0.0648804,0.0995903,0.1232719,0.0995903
		c0.0084343,0,0.0175171-0.0010262,0.0263844-0.002758c0.0681248-0.0146523,0.1113777-0.0816956,0.0968876-0.149765
		c-0.0147057-0.0680695-0.081749-0.1114311-0.1498737-0.0967789C20.4241524,43.6759109,20.3808975,43.7429543,20.3956051,43.8110237
		z"/>
	<path d="M20.2338371,43.3131752c0.0179501,0.0524445,0.0670414,0.0854263,0.119379,0.0854263
		c0.0136242,0,0.0272503-0.0019989,0.0408745-0.006813c0.0657444-0.022438,0.100996-0.0940208,0.0785046-0.1598206
		c-0.0222759-0.0660172-0.0938587-0.1010513-0.160038-0.0786133C20.2468128,43.1757927,20.2115612,43.2473755,20.2338371,43.3131752
		z"/>
	<path d="M18.9691067,41.355957c0.0131912,0.0045433,0.0268173,0.0065994,0.0404415,0.0065994
		c0.0525532,0,0.101429-0.0330353,0.1191635-0.0854797c0.0224915-0.0657997-0.0127602-0.1373863-0.0785046-0.1598244
		c-0.0659618-0.0224342-0.137331,0.0128708-0.160038,0.0786705C18.8678932,41.2619362,18.9029293,41.3335228,18.9691067,41.355957z"
		/>
	<path d="M18.7952271,41.8654289c0.0136261,0.0045433,0.0272503,0.006813,0.0408745,0.006813
		c0.0525532,0,0.101429-0.0330353,0.1191635-0.0854797c0.0224915-0.0657463-0.0127602-0.1375999-0.0785046-0.1598206
		c-0.0659618-0.022438-0.1377621,0.0126534-0.160038,0.0786667C18.694231,41.7714081,18.7294827,41.8429909,18.7952271,41.8654289z"
		/>
	<path d="M19.2074337,40.8656807c0.0004311,0.069313,0.0566616,0.1255455,0.1260834,0.1255455h0.0004311
		c0.0698547-0.0002708,0.1258678-0.0569878,0.1256523-0.1265717s-0.0570946-0.1257591-0.1265163-0.1255417
		C19.2634468,40.7393799,19.2072163,40.7960968,19.2074337,40.8656807z"/>
	<path d="M18.6217823,42.3751717c0.0138397,0.0045433,0.0272484,0.0065422,0.0408745,0.0065422
		c0.0525513,0,0.101429-0.0330353,0.1191616-0.0854797c0.0224934-0.0657997-0.0127583-0.1373825-0.0785046-0.1598206
		c-0.0659618-0.022438-0.1377621,0.012867-0.160038,0.0786667C18.5207844,42.2811508,18.556036,42.3527336,18.6217823,42.3751717z"
		/>
	<path d="M19.7000885,41.3534737c0.0657463-0.022438,0.1009979-0.0940247,0.078722-0.1598244
		c-0.0224915-0.0657997-0.0940762-0.1011047-0.1602535-0.0786667c-0.0657463,0.022438-0.1009979,0.0940247-0.0785046,0.1598206
		c0.0177326,0.0524445,0.0666103,0.0854797,0.1191616,0.0854797C19.6728401,41.3602829,19.6864643,41.3582306,19.7000885,41.3534737
		z"/>
	<path d="M18.1239338,43.9100723c0.0088673,0.0020561,0.0177345,0.0028114,0.0266018,0.0028114
		c0.058176,0,0.1102962-0.0403328,0.1230564-0.0995903c0.0144901-0.0680695-0.0287647-0.1351128-0.0968876-0.1497116
		c-0.0681248-0.0143814-0.1351681,0.0289803-0.1496582,0.0970497
		C18.0125561,43.8286476,18.0560265,43.8957443,18.1239338,43.9100723z"/>
	<path d="M18.1276112,44.1982498c-0.0676918,0.0163803-0.1092148,0.0844536-0.0932121,0.1519814
		c0.0142746,0.0577431,0.0659618,0.0965652,0.1226234,0.0965652c0.0097332,0,0.0196819-0.0012436,0.0296288-0.0035172
		c0.0676918-0.0163803,0.1092148-0.0844498,0.0929947-0.1523056C18.2632103,44.2234459,18.1950855,44.1818657,18.1276112,44.1982498
		z"/>
	<path d="M18.4483356,42.8846436c0.0134087,0.0044861,0.0272484,0.0067596,0.040657,0.0067596
		c0.0525532,0,0.1016464-0.0329819,0.119381-0.0854263c0.0224915-0.0660706-0.0127602-0.1376534-0.078722-0.1600914
		c-0.0657444-0.022438-0.1375465,0.012867-0.1598206,0.0788803C18.3473377,42.7905655,18.3825893,42.8622055,18.4483356,42.8846436z
		"/>
	<path d="M19.7134972,41.7844925c0.0177345,0.0524445,0.0670433,0.0854797,0.119381,0.0854797
		c0.0134087,0,0.0270329-0.0022697,0.040657-0.006813c0.0657463-0.022438,0.1009979-0.0940208,0.078722-0.160038
		c-0.0224915-0.0657997-0.0940762-0.1011047-0.160038-0.0786667S19.6910057,41.7184753,19.7134972,41.7844925z"/>
	<path d="M18.274889,43.3943291c0.0134087,0.0045433,0.0272503,0.0065422,0.040659,0.0065422
		c0.0525513,0,0.1016445-0.0330315,0.119379-0.0854225c0.0222759-0.0657997-0.0127602-0.1373863-0.078722-0.1598244
		c-0.0657444-0.022438-0.1373291,0.0128136-0.1598206,0.0786133S18.2089272,43.3718948,18.274889,43.3943291z"/>
	<path d="M18.7002869,45.0749969c-0.0300617,0.0627708-0.0032444,0.1381416,0.059473,0.168148
		c0.0173016,0.0082703,0.0361156,0.0123253,0.0542831,0.0123253c0.0471458,0,0.0921288-0.0267067,0.1135406-0.0718536
		c0.0302773-0.0627708,0.0036755-0.1381416-0.0592575-0.168148C18.8053913,44.9855156,18.7303467,45.0122261,18.7002869,45.0749969z
		"/>
	<path d="M18.315115,44.7009087c-0.0540676,0.044117-0.0620689,0.1234894-0.0179501,0.1774483
		c0.0248699,0.0304909,0.0609875,0.0463867,0.0979691,0.0463867c0.0278988,0,0.0557957-0.0093536,0.0791531-0.028492
		c0.0540676-0.0438461,0.0620689-0.1232719,0.0181675-0.1772308C18.4483356,44.6651154,18.3691807,44.6570053,18.315115,44.7009087z
		"/>
	<path d="M19.8034649,45.0144958c-0.0627174,0.0302238-0.0893173,0.1055908-0.0592575,0.168148
		c0.0216274,0.0453606,0.0668278,0.0715828,0.1139736,0.0715828c0.0179501,0,0.0367641-0.0037842,0.0540657-0.0123787
		c0.0629349-0.0300102,0.0893192-0.1053772,0.0592575-0.168148C19.941227,45.0109291,19.8661823,44.9844894,19.8034649,45.0144958z"
		/>
	<path d="M19.336977,45.1203575h-0.0008659h-0.001297c-0.0696373,0-0.1260834,0.0564461-0.1260834,0.12603
		s0.0564461,0.12603,0.1260834,0.12603h0.001297h0.0010815h0.000433c0.0694218-0.0002174,0.1258678-0.0567169,0.1256504-0.1262436
		C19.4630604,45.17659,19.4066143,45.1200867,19.336977,45.1203575z"/>
	<path d="M20.1784725,44.717289c-0.0439034,0.0541763-0.0354691,0.1333313,0.018383,0.1771774
		c0.0235729,0.0191956,0.0514717,0.0282784,0.0793686,0.0282784c0.0367661,0,0.0730991-0.0158958,0.0981865-0.0466614
		c0.0439014-0.0539589,0.0354671-0.1333275-0.0185986-0.1772308C20.3017445,44.6550064,20.222374,44.6633339,20.1784725,44.717289z"
		/>
	<path d="M20.54245,44.1957092c-0.0676918-0.0161133-0.1358166,0.0254631-0.1520367,0.0932655
		c-0.0160027,0.0675812,0.0255203,0.1356506,0.0934277,0.1520348c0.0097332,0.0022697,0.01968,0.0035133,0.0294132,0.0035133
		c0.0570946,0,0.1085663-0.0390892,0.122406-0.0967789l0,0C20.6518803,44.279892,20.6101418,44.2118187,20.54245,44.1957092z"/>
	<path d="M19.8871613,42.2939644c0.0175171,0.0524445,0.0668259,0.0854797,0.1191616,0.0854797
		c0.0134087,0,0.0272503-0.0020027,0.040659-0.006813c0.0657444-0.022438,0.100996-0.0940208,0.0785046-0.1598206
		c-0.0222759-0.0660706-0.0940762-0.1011047-0.1598206-0.0786667C19.899704,42.1565781,19.8646679,42.2281647,19.8871613,42.2939644
		z"/>
	<path d="M20.060606,42.8037033c0.0179501,0.0524483,0.0668278,0.0854263,0.1191635,0.0854263
		c0.0134087,0,0.0272503-0.0022697,0.040659-0.0067558c0.0659618-0.022438,0.100996-0.0940781,0.0785046-0.1600914
		c-0.0222759-0.0657997-0.0940762-0.1011086-0.1598206-0.0786705C20.0733662,42.66605,20.0381145,42.7376366,20.060606,42.8037033z"
		/>
	<path d="M18.7286167,44.6423531c0.1619854,0.1619301,0.3771706,0.2510872,0.6061974,0.2510872
		s0.4444294-0.0892105,0.6061974-0.2510872c0.2327023-0.2327576,0.3114243-0.5709457,0.2054539-0.8824768l-0.6922722-2.0332336
		c-0.0175171-0.0510406-0.0655289-0.0854263-0.119379-0.0854263s-0.101862,0.0343323-0.1191635,0.0854263l-0.6922703,2.0332336
		C18.4171925,44.0714645,18.4959145,44.4095955,18.7286167,44.6423531z M18.7619228,43.8411369l0.5728912-1.6827736
		l0.5728912,1.6827736c0.0748291,0.219944,0.0194645,0.4587059-0.1448994,0.6230125
		c-0.1141891,0.114296-0.2662239,0.1772308-0.4279919,0.1772308c-0.1615524,0-0.3135872-0.0629349-0.4279919-0.1772308
		C18.7426739,44.2998428,18.6870937,44.0610809,18.7619228,43.8411369z"/>
	<path d="M26.1041908,45.1702614c0.0129776,0.0592575,0.0650978,0.0995903,0.1232738,0.0995903
		c0.0086498,0,0.0177326-0.0010262,0.0265999-0.0028114c0.0681248-0.014595,0.1113777-0.0816383,0.0966721-0.1497078
		c-0.0144901-0.0680733-0.0815334-0.1114349-0.1496582-0.0968361
		C26.1331711,45.0351486,26.0897026,45.1021919,26.1041908,45.1702614z"/>
	<path d="M25.9428558,44.6724167c0.0177345,0.0523911,0.0666103,0.0854225,0.1191635,0.0854225
		c0.0136242,0,0.0272503-0.0019989,0.0408745-0.0068092c0.0657463-0.022438,0.1009979-0.0940247,0.0785046-0.1598244
		c-0.022274-0.0660133-0.0940762-0.1010475-0.160038-0.0786133C25.955616,44.5350304,25.9203644,44.606617,25.9428558,44.6724167z"
		/>
	<path d="M24.6776943,42.7151985c0.0134087,0.0045395,0.0270329,0.0065422,0.040657,0.0065422
		c0.0523376,0,0.1012135-0.0329819,0.1191635-0.0854263c0.0224915-0.0657997-0.0127602-0.1373825-0.0785046-0.1598206
		c-0.0657463-0.022438-0.1375465,0.012867-0.160038,0.0786133C24.5766964,42.6211739,24.6117325,42.6927605,24.6776943,42.7151985z"
		/>
	<path d="M24.5040302,43.2246704c0.0136261,0.0045395,0.0272503,0.0068092,0.0408745,0.0068092
		c0.0523376,0,0.1014309-0.0330315,0.119381-0.0854759c0.022274-0.0657997-0.0129757-0.1375999-0.078722-0.1598244
		c-0.0661774-0.022438-0.1377621,0.0125999-0.160038,0.0786667C24.4030342,43.1306458,24.4382858,43.2022324,24.5040302,43.2246704z
		"/>
	<path d="M24.9162369,42.2249184c0.0004311,0.0693169,0.0566616,0.1255455,0.1260834,0.1255455h0.000433
		c0.0698528-0.0002708,0.1258659-0.0569878,0.1256504-0.1265717s-0.0570946-0.1258125-0.1265163-0.1255417
		C24.97225,42.0986214,24.9160194,42.1553345,24.9162369,42.2249184z"/>
	<path d="M24.3305855,43.7344093c0.0136242,0.0044899,0.0272484,0.0065422,0.0408745,0.0065422
		c0.0523357,0,0.101429-0.0330353,0.119379-0.0854797c0.0222759-0.0657997-0.0129757-0.1373825-0.078722-0.1598206
		c-0.0661774-0.022438-0.1377621,0.012867-0.160038,0.0786667C24.2295876,43.6403351,24.2648392,43.7119713,24.3305855,43.7344093z"
		/>
	<path d="M25.4088936,42.7127113c0.0657444-0.022438,0.100996-0.0940781,0.0785046-0.1598206
		c-0.0224915-0.0657997-0.0938606-0.1011047-0.160038-0.0786705c-0.0657444,0.022438-0.100996,0.0940247-0.078722,0.1598244
		c0.0179501,0.0524445,0.0670433,0.0854263,0.119381,0.0854263C25.3816433,42.719471,25.3952675,42.7174683,25.4088936,42.7127113z"
		/>
	<path d="M23.8327389,45.2693138c0.0088654,0.0020523,0.0177326,0.0028114,0.0265999,0.0028114
		c0.058176,0,0.1102962-0.0403366,0.122839-0.0995903c0.0147076-0.0680733-0.0285473-0.1351166-0.0966702-0.149765
		c-0.0681248-0.014328-0.1351681,0.0290337-0.1498737,0.0970497C23.7213612,45.1878891,23.7646141,45.2549858,23.8327389,45.2693138
		z"/>
	<path d="M23.8364143,45.5574875c-0.0676918,0.0163841-0.1092148,0.0844002-0.0929947,0.1519814
		c0.0140572,0.0577431,0.0657444,0.0965652,0.1224079,0.0965652c0.0097313,0,0.01968-0.001297,0.0298443-0.0035706
		c0.0674744-0.0163803,0.1089993-0.0843964,0.0925617-0.1522522C23.9720135,45.5826836,23.9038906,45.5410538,23.8364143,45.5574875
		z"/>
	<path d="M24.1571388,44.2438278c0.0134087,0.0045433,0.0272503,0.006813,0.040659,0.006813
		c0.0525513,0,0.1016445-0.0330353,0.1191616-0.0854263c0.0227089-0.0660706-0.0125427-0.1376534-0.0785046-0.1600914
		s-0.1373291,0.012867-0.1598206,0.0788841C24.0561428,44.149807,24.0913925,44.2213898,24.1571388,44.2438278z"/>
	<path d="M25.4220848,43.1437302c0.0179501,0.0524445,0.0670433,0.0854797,0.1195965,0.0854797
		c0.0134087,0,0.0270329-0.0022697,0.0404415-0.006813c0.0659618-0.022438,0.1012135-0.0940208,0.078722-0.1600914
		c-0.0224934-0.0657997-0.0938606-0.1010513-0.1598225-0.0786133S25.3998089,43.0777168,25.4220848,43.1437302z"/>
	<path d="M23.9839096,44.7535706c0.0131912,0.0045395,0.0270329,0.0065422,0.0404415,0.0065422
		c0.0525532,0,0.1016445-0.0330353,0.1191635-0.0854263c0.0224915-0.0657997-0.0125446-0.1374397-0.0785065-0.1598206
		c-0.0659599-0.022438-0.1373291,0.0128136-0.1598206,0.0786133S23.9177303,44.7311325,23.9839096,44.7535706z"/>
	<path d="M24.40909,46.4342346c-0.0300617,0.0627708-0.0032444,0.1381416,0.059473,0.1680946
		c0.0173016,0.0083275,0.0361176,0.0123825,0.0542831,0.0123825c0.0471458,0,0.0921307-0.0267105,0.1135406-0.0718575
		c0.0302773-0.0627708,0.0036755-0.1381378-0.0592575-0.168148C24.5141964,46.3446999,24.4389343,46.3714638,24.40909,46.4342346z"
		/>
	<path d="M24.0239182,46.0600929c-0.0540676,0.0441208-0.0620689,0.1235428-0.0179501,0.1775017
		c0.0250874,0.0304947,0.0609875,0.0463905,0.0977535,0.0463905c0.0281143,0,0.0560131-0.0093536,0.079586-0.0284958
		c0.0538502-0.0438461,0.0618515-0.1232719,0.0179501-0.1772308C24.1571388,46.0242996,24.0779858,46.0162468,24.0239182,46.0600929
		z"/>
	<path d="M25.5120525,46.3737335c-0.0627174,0.0302238-0.0891018,0.1055946-0.059042,0.1680946
		c0.0216274,0.0454178,0.0668278,0.07164,0.1139736,0.07164c0.0181656,0,0.0367661-0.0037842,0.0540676-0.0123825
		c0.0627174-0.0300064,0.0893173-0.1053772,0.0592556-0.168148C25.6500301,46.3701668,25.5749855,46.3437271,25.5120525,46.3737335z
		"/>
	<path d="M25.0457802,46.479599h-0.000864h-0.0012989c-0.0696373,0-0.1260834,0.0564461-0.1260834,0.12603
		s0.0564461,0.1260262,0.1260834,0.1260262h0.0012989h0.0010796h0.0002174
		c0.0696373-0.0002136,0.1260834-0.0567131,0.1258678-0.126297C25.1718636,46.5358276,25.1154175,46.4793282,25.0457802,46.479599z"
		/>
	<path d="M25.8872757,46.0765305c-0.0439014,0.0541725-0.0354671,0.1333275,0.018383,0.1771774
		c0.0233574,0.0191917,0.0514717,0.0282211,0.0793705,0.0282211c0.0365486,0,0.0730972-0.0158424,0.0981846-0.0466042
		c0.0439014-0.0539589,0.0354671-0.1333847-0.018816-0.1772308C26.0105476,46.0142441,25.9311771,46.0225716,25.8872757,46.0765305z
		"/>
	<path d="M26.2512531,45.5549469c-0.0679073-0.0161667-0.1358147,0.0254669-0.1520348,0.0932655
		c-0.0160046,0.067585,0.0255184,0.135601,0.0932102,0.1519814c0.0099487,0.0022697,0.0198975,0.0035706,0.0296288,0.0035706
		c0.056879,0,0.1085663-0.039093,0.1226234-0.0968361h-0.000433C26.3606853,45.6391296,26.3187294,45.5710602,26.2512531,45.5549469
		z"/>
	<path d="M25.5959644,43.6532021c0.0175171,0.0524445,0.0666103,0.0854797,0.1191635,0.0854797
		c0.0134068,0,0.0272484-0.0020561,0.0404415-0.006813c0.0659618-0.022438,0.1012135-0.0940208,0.0787201-0.1598206
		c-0.0224915-0.0660706-0.0938587-0.1011047-0.1598206-0.0786667S25.573473,43.5874023,25.5959644,43.6532021z"/>
	<path d="M25.7694092,44.1629448c0.0177345,0.0524445,0.0666103,0.0854263,0.1191635,0.0854263
		c0.0131931,0,0.0272503-0.0022736,0.0404434-0.006813c0.0661774-0.022438,0.1012115-0.0940247,0.0787201-0.160038
		c-0.0224915-0.0657997-0.0938587-0.1011047-0.1598206-0.0786667
		C25.7821693,44.0252914,25.7469177,44.0968742,25.7694092,44.1629448z"/>
	<path d="M24.4374218,46.0015373c0.1619835,0.1619873,0.3771687,0.2511406,0.6061954,0.2511406
		s0.4442139-0.0892105,0.6061974-0.2511406c0.2327042-0.2327003,0.3114243-0.5708885,0.2052364-0.8824768l-0.6920547-2.0331802
		c-0.0175171-0.0510406-0.0653114-0.0854263-0.119379-0.0854263c-0.0540657,0-0.101862,0.0343323-0.119379,0.0854263
		l-0.6920547,2.0331802C24.1259956,45.4307022,24.2047176,45.768837,24.4374218,46.0015373z M24.470726,45.2003784
		l0.5728912-1.6827736l0.5728912,1.6827736c0.0750446,0.219944,0.019249,0.4586487-0.1448975,0.6229553
		c-0.1144066,0.1142998-0.2662258,0.1772881-0.4279938,0.1772881s-0.3135872-0.0629883-0.4279919-0.1772881
		C24.451479,45.6590271,24.3956814,45.4203224,24.470726,45.2003784z"/>
	<path d="M31.6771793,43.9129944c0.0127602,0.0592003,0.0650959,0.0995369,0.1232719,0.0995369
		c0.0084343,0,0.0175171-0.0009727,0.0263844-0.002758c0.0681248-0.0145988,0.1113777-0.0816956,0.0968876-0.149765
		c-0.0147057-0.0680161-0.081749-0.1113777-0.1498718-0.0967789C31.7059422,43.7778816,31.6624737,43.8449249,31.6771793,43.9129944
		z"/>
	<path d="M31.5156269,43.4150925c0.0177345,0.0524445,0.0668278,0.0854797,0.1191635,0.0854797
		c0.0136261,0,0.0272503-0.0020561,0.0408745-0.006813c0.0657463-0.022438,0.1009979-0.0940208,0.078722-0.1598206
		c-0.0224915-0.0660706-0.0940762-0.1011047-0.160038-0.0786667S31.4931355,43.3492928,31.5156269,43.4150925z"/>
	<path d="M30.2506809,41.4579277c0.0131931,0.0045433,0.0270348,0.0065422,0.0404415,0.0065422
		c0.0525532,0,0.1014309-0.0330353,0.119381-0.0854797c0.0224915-0.0657425-0.0129757-0.1373825-0.078722-0.1598206
		c-0.0657444-0.022438-0.1373291,0.012867-0.160038,0.0786667C30.1494675,41.3639069,30.1845036,41.4354897,30.2506809,41.4579277z"
		/>
	<path d="M30.0770187,41.9673996c0.0134087,0.0045433,0.0272503,0.006813,0.040659,0.006813
		c0.0525532,0,0.101429-0.0330353,0.119379-0.0854797c0.0224915-0.0657997-0.0129757-0.1376534-0.078722-0.1598206
		c-0.0659599-0.022438-0.1375446,0.0125961-0.160038,0.0786667C29.9758053,41.8733788,30.0112743,41.9449615,30.0770187,41.9673996z
		"/>
	<path d="M30.4892235,40.967598c0.000433,0.069313,0.0566616,0.1255417,0.1258678,0.1255417h0.000433
		c0.0700703-0.0002174,0.1258678-0.0569839,0.1256504-0.1265144c-0.0002155-0.0695839-0.0568771-0.1258163-0.1265163-0.1255455
		C30.5450211,40.8412971,30.4887924,40.8980141,30.4892235,40.967598z"/>
	<path d="M29.9035721,42.4770889c0.0134087,0.0045395,0.0272503,0.0065422,0.040659,0.0065422
		c0.0525532,0,0.101429-0.0329819,0.119379-0.0854263c0.0224915-0.0657997-0.0129757-0.1373825-0.0787201-0.1598206
		c-0.0659618-0.022438-0.1375465,0.012867-0.160038,0.0786133C29.8023605,42.3830643,29.8378277,42.4546509,29.9035721,42.4770889z"
		/>
	<path d="M30.9816647,41.4553871c0.0657444-0.022438,0.100996-0.0940208,0.0787201-0.1598206
		c-0.0224915-0.0657997-0.0940762-0.1010513-0.1602535-0.0786667c-0.0657444,0.022438-0.100996,0.0940742-0.0785046,0.1598206
		c0.0179501,0.0524445,0.0668259,0.0854797,0.1191635,0.0854797C30.9544144,41.4622002,30.9680386,41.4602013,30.9816647,41.4553871
		z"/>
	<path d="M29.4057255,44.012043c0.0086517,0.0020027,0.0175171,0.002758,0.0263844,0.002758
		c0.058176,0,0.1102962-0.0403328,0.1230564-0.0995369c0.0144901-0.0680695-0.0287628-0.1351662-0.0968876-0.149765
		c-0.0681248-0.0143814-0.1351662,0.0289803-0.1496563,0.0970497S29.3376007,43.9976616,29.4057255,44.012043z"/>
	<path d="M29.4091854,44.3001671c-0.0674744,0.0163803-0.1092148,0.0844498-0.0929947,0.1520348
		c0.0140572,0.0576897,0.0657463,0.096508,0.1224079,0.096508c0.0099487,0,0.01968-0.0012436,0.0298443-0.0035133
		c0.0674763-0.0163841,0.1089993-0.0844536,0.0927792-0.1522522C29.5447845,44.3253593,29.4766617,44.283783,29.4091854,44.3001671z
		"/>
	<path d="M29.7301273,42.9865608c0.0134068,0.0045395,0.0272484,0.0068092,0.040657,0.0068092
		c0.0523376,0,0.101429-0.0330353,0.1191635-0.0854797c0.0227089-0.0660133-0.0127602-0.1375999-0.078722-0.160038
		c-0.0657444-0.0224342-0.1373291,0.0128174-0.1598206,0.0788841C29.6289139,42.8925362,29.664381,42.9641228,29.7301273,42.9865608
		z"/>
	<path d="M30.9950733,41.8864632c0.0179501,0.0524445,0.0670433,0.0854797,0.119379,0.0854797
		c0.0134087,0,0.0270329-0.0022736,0.040659-0.006813c0.0657444-0.022438,0.100996-0.0940208,0.0787201-0.1600914
		c-0.0224915-0.0657997-0.0940762-0.1011047-0.1598206-0.0786667
		C31.0078335,41.7488098,30.9725819,41.8203926,30.9950733,41.8864632z"/>
	<path d="M29.5566807,43.4962997c0.0134087,0.0044899,0.0272484,0.0065422,0.040657,0.0065422
		c0.0523376,0,0.1014309-0.0330353,0.1191635-0.0854797c0.0222759-0.0657997-0.0127602-0.1373825-0.0787201-0.1598206
		c-0.0657463-0.022438-0.137331,0.012867-0.1598225,0.0786667S29.4905033,43.4738617,29.5566807,43.4962997z"/>
	<path d="M29.9818611,45.1769142c-0.0298443,0.0627708-0.0032444,0.1381378,0.059473,0.1681442
		c0.017519,0.0083275,0.0361176,0.0123825,0.0542831,0.0123825c0.0471478,0,0.0921307-0.0267639,0.1137562-0.0718536
		c0.0302792-0.0627708,0.0034618-0.1381416-0.0592556-0.168148C30.0869675,45.0874329,30.0119228,45.1141396,29.9818611,45.1769142z
		"/>
	<path d="M29.5966892,44.8028259c-0.0538502,0.044117-0.0620689,0.1235428-0.0179501,0.1774979
		c0.0250874,0.0304947,0.0609875,0.0463371,0.0977535,0.0463371c0.0281143,0,0.0560131-0.0093002,0.079586-0.0284386
		c0.0538502-0.0439034,0.0618515-0.1232719,0.0181656-0.1772308C29.7301273,44.7670326,29.6509724,44.758976,29.5966892,44.8028259z
		"/>
	<path d="M31.0850391,45.1164131c-0.0627174,0.0302773-0.0893173,0.1056442-0.0592556,0.168148
		c0.0216255,0.0453606,0.0668259,0.0715828,0.1139717,0.0715828c0.0181675,0,0.0367661-0.0037842,0.0540676-0.0123291
		c0.062933-0.0300064,0.0893173-0.1053734,0.0592575-0.1681442C31.2228012,45.112896,31.1477566,45.0864029,31.0850391,45.1164131z"
		/>
	<path d="M30.6185513,45.2222748h-0.000864h-0.0012989c-0.0696373,0-0.1260834,0.0564995-0.1260834,0.1260834
		s0.0564461,0.12603,0.1260834,0.12603h0.0012989h0.001297h0.0002155c0.0694218-0.0002708,0.1260853-0.0567169,0.1256523-0.1263008
		C30.7446346,45.2785034,30.6881905,45.2220573,30.6185513,45.2222748z"/>
	<path d="M31.4600468,44.8192062c-0.0439014,0.0542297-0.0354671,0.1333847,0.018383,0.1772308
		c0.0235729,0.0191383,0.0514717,0.0282249,0.079586,0.0282249c0.0365486,0,0.0730991-0.0158958,0.0979691-0.046608
		c0.0439034-0.0539589,0.0356846-0.1333809-0.0185986-0.1772308C31.5833187,44.7569771,31.5039501,44.7652473,31.4600468,44.8192062
		z"/>
	<path d="M31.8240242,44.2976799c-0.0676918-0.0161667-0.1358147,0.0254097-0.1518192,0.0932655
		c-0.0162201,0.0675278,0.0253029,0.1355972,0.0932121,0.1519814c0.0097313,0.0022697,0.01968,0.0035133,0.0294113,0.0035133
		c0.0570946,0,0.1087818-0.0390358,0.1226234-0.0967789h-0.000433
		C31.9334564,44.3818588,31.891716,44.3137894,31.8240242,44.2976799z"/>
	<path d="M31.1687355,42.3959351c0.0177345,0.0524445,0.0668259,0.0854225,0.1191635,0.0854225
		c0.0134087,0,0.0272484-0.0019989,0.040657-0.0067558c0.0657463-0.022438,0.1009979-0.0940781,0.0785065-0.1598244
		c-0.0222759-0.0660667-0.0938606-0.1011047-0.159605-0.0786667C31.1812782,42.2585487,31.146244,42.3301353,31.1687355,42.3959351z
		"/>
	<path d="M31.3421822,42.9056206c0.0177326,0.0524445,0.0668259,0.0854797,0.1191635,0.0854797
		c0.0134068,0,0.0272484-0.0022697,0.040657-0.006813c0.0659618-0.022438,0.1009979-0.0940208,0.0785046-0.1600914
		c-0.022274-0.0657997-0.0938587-0.1010513-0.159605-0.0786133C31.3549423,42.7680206,31.3196907,42.8396072,31.3421822,42.9056206z
		"/>
	<path d="M30.0104084,44.7442703c0.161768,0.1619301,0.3771706,0.2510872,0.6059799,0.2510872
		c0.2290268,0,0.4444294-0.0891571,0.6061974-0.2510872c0.2329197-0.2327042,0.3114243-0.5708923,0.2054539-0.8824768
		l-0.6922703-2.0331841c-0.0173016-0.0510902-0.0653133-0.0854225-0.119381-0.0854225
		c-0.0538502,0-0.101862,0.0343323-0.1191616,0.0854225l-0.6922722,2.0331841
		C29.6989841,44.173378,29.7774887,44.5115662,30.0104084,44.7442703z M30.0434971,43.9430542l0.5728912-1.6827202
		l0.5731087,1.6827202c0.0748291,0.2199974,0.0192471,0.4587021-0.1451149,0.6230125
		c-0.1141891,0.114296-0.2662258,0.1772842-0.4279938,0.1772842c-0.1615505,0-0.3135872-0.0629883-0.4277763-0.1772842
		C30.02425,44.4017563,29.9686699,44.1630516,30.0434971,43.9430542z"/>
	<path d="M36.259449,39.7195206c-0.0681267,0.0145988-0.1113777,0.0816956-0.0968895,0.149765
		c0.0129776,0.0592003,0.0650978,0.0995369,0.1232719,0.0995369c0.0086517,0,0.0177345-0.0009727,0.0265999-0.002758
		c0.0679092-0.0145988,0.1113777-0.0816956,0.0966721-0.149765C36.3946152,39.7482834,36.3275719,39.7049217,36.259449,39.7195206z"
		/>
	<path d="M36.0010071,39.3713837c0.017952,0.0524445,0.0668259,0.0854797,0.119381,0.0854797
		c0.0134087,0,0.0272484-0.0020561,0.040657-0.006813c0.0657463-0.022438,0.1012154-0.0940208,0.0787239-0.1598206
		c-0.0224953-0.0660706-0.0940781-0.1011047-0.160038-0.0786667C36.0139847,39.2340012,35.9785156,39.305584,36.0010071,39.3713837z
		"/>
	<path d="M34.7360611,37.4142189c0.0134087,0.0045433,0.0270348,0.0065422,0.040657,0.0065422
		c0.0523376,0,0.1012154-0.0330353,0.1191635-0.0854797c0.0224915-0.0657997-0.0127602-0.1373825-0.0787201-0.1598206
		c-0.0657463-0.022438-0.1373291,0.012867-0.160038,0.0786667C34.6350632,37.3201981,34.6701012,37.3917809,34.7360611,37.4142189z"
		/>
	<path d="M34.5624008,37.9236908c0.0136223,0.0044899,0.0272484,0.0067596,0.0408745,0.0067596
		c0.0523338,0,0.101429-0.0329819,0.1191635-0.0854263c0.0224915-0.0657997-0.0127602-0.1376534-0.0787239-0.1598206
		c-0.0659599-0.022438-0.1375465,0.0125961-0.160038,0.0786667C34.4611855,37.8296165,34.4966545,37.9012527,34.5624008,37.9236908z
		"/>
	<path d="M35.1004715,37.0494308H35.10112c0.0698547-0.0002708,0.1256523-0.0569839,0.1256523-0.1265144
		c-0.0004349-0.0695839-0.0570946-0.1258163-0.1267319-0.1255455c-0.0696373,0.0002174-0.1258698,0.0569344-0.1254349,0.1265182
		C34.9750366,36.9932022,35.0312653,37.0494308,35.1004715,37.0494308z"/>
	<path d="M34.3889542,38.4333801c0.0136223,0.0045395,0.0272484,0.0065422,0.0408745,0.0065422
		c0.0523338,0,0.101429-0.0329819,0.1191635-0.0854263c0.0224915-0.0657997-0.0127602-0.1373825-0.0787239-0.1598206
		c-0.0659599-0.022438-0.1375465,0.0128136-0.160038,0.0786133C34.2879562,38.3393555,34.3232079,38.4109421,34.3889542,38.4333801z
		"/>
	<path d="M35.4672623,37.4116783c0.0657425-0.022438,0.1009941-0.0940208,0.0785027-0.1598206
		s-0.0940742-0.1011047-0.160038-0.0786667c-0.0657425,0.022438-0.1009941,0.0940208-0.0787201,0.1598206
		c0.017952,0.0524445,0.0668259,0.0854797,0.1191635,0.0854797C35.4400101,37.4184914,35.4534187,37.4164925,35.4672623,37.4116783z
		"/>
	<path d="M33.8911057,39.9683342c0.0088692,0.0020027,0.0177345,0.002758,0.0263863,0.002758
		c0.0583916,0,0.1105118-0.0403328,0.1230545-0.0995903c0.0147057-0.0680161-0.0287628-0.1351128-0.0966721-0.1497116
		c-0.0681229-0.0143814-0.1351662,0.0289803-0.1498718,0.0970497
		C33.7797279,39.8869095,33.8229828,39.9539528,33.8911057,39.9683342z"/>
	<path d="M33.8945656,40.2564583c-0.0674744,0.0163803-0.1089973,0.0844498-0.0929947,0.1520348
		c0.0142746,0.0576897,0.0657463,0.096508,0.1226234,0.096508c0.0097313,0,0.01968-0.0012436,0.0296288-0.0035133
		c0.0674744-0.0163841,0.1092148-0.0844536,0.0927773-0.1522522C34.0301666,40.2816505,33.9622574,40.2400742,33.8945656,40.2564583
		z"/>
	<path d="M34.2155075,38.942852c0.0134087,0.0045395,0.0272484,0.0068092,0.040657,0.0068092
		c0.0523376,0,0.1016464-0.0330353,0.1191635-0.0854797c0.0227089-0.0660133-0.0125427-0.1375999-0.0785065-0.160038
		c-0.0659599-0.0224342-0.1375427,0.0128174-0.1600342,0.0788841C34.1145096,38.8488274,34.1497612,38.920414,34.2155075,38.942852z
		"/>
	<path d="M35.4804535,37.8427544c0.0179482,0.0524445,0.0670433,0.0854263,0.1195946,0.0854263
		c0.0134087,0,0.0268173-0.0022202,0.0404434-0.0067596c0.0659599-0.022438,0.1012115-0.0940781,0.0787201-0.1600914
		c-0.0224915-0.0657997-0.0940742-0.1011047-0.1598206-0.0786667C35.4932137,37.705101,35.4581795,37.7766838,35.4804535,37.8427544
		z"/>
	<path d="M34.0420609,39.4525375c0.0134087,0.0045433,0.0272484,0.0065956,0.040657,0.0065956
		c0.0523376,0,0.1016464-0.0330353,0.1191635-0.0854797c0.0224915-0.0657997-0.0125427-0.1373825-0.0785027-0.1598206
		c-0.0659637-0.022438-0.1375465,0.012867-0.160038,0.0786667C33.9410629,39.3582993,33.9761009,39.4300995,34.0420609,39.4525375z"
		/>
	<path d="M34.4672432,41.1332054c-0.0298462,0.0627708-0.0030289,0.1381378,0.0596886,0.1681442
		c0.0172997,0.0083275,0.0359001,0.0123291,0.0540657,0.0123291c0.0471458,0,0.0923462-0.0267105,0.1137581-0.0718002
		c0.0302773-0.0627708,0.0034599-0.1381416-0.0592575-0.168148C34.5723457,41.0437241,34.497303,41.0704308,34.4672432,41.1332054z"
		/>
	<path d="M34.0822868,40.7591171c-0.0540657,0.044117-0.0620689,0.1235428-0.017952,0.1774445
		c0.0248718,0.0305481,0.0609894,0.0463905,0.0977554,0.0463905c0.0278969,0,0.0560112-0.0093002,0.0793686-0.028492
		c0.0540657-0.0438499,0.0620689-0.1232185,0.0181656-0.1771774C34.2155075,40.7233238,34.1363525,40.7152672,34.0822868,40.7591171
		z"/>
	<path d="M35.5704193,41.0727043c-0.0627174,0.0302773-0.0890999,0.1056442-0.0592575,0.168148
		c0.021843,0.0453606,0.0668297,0.0715828,0.1139755,0.0715828c0.0181656,0,0.0367622-0.0037842,0.0542831-0.0123291
		c0.0627174-0.0300064,0.0893173-0.1053734,0.0592575-0.1681442C35.7083969,41.0691872,35.6333542,41.0426941,35.5704193,41.0727043
		z"/>
	<path d="M35.1041489,41.178566h-0.0010834h-0.001297c-0.0694199,0-0.1258659,0.0564995-0.1258659,0.1260834
		c0,0.0695305,0.0564461,0.12603,0.1258659,0.12603h0.001297h0.0013008h0.0002136
		c0.0696373-0.0002708,0.1260834-0.0567169,0.1258698-0.1263008C35.2302322,41.2347946,35.1735687,41.1783485,35.1041489,41.178566z
		"/>
	<path d="M35.9456444,40.7754974c-0.0439034,0.0542297-0.0354691,0.1333847,0.018383,0.1772308
		c0.0233574,0.0191383,0.0512543,0.0282249,0.0793686,0.0282249c0.0365486,0,0.0730972-0.0158958,0.0981865-0.0466614
		c0.0436859-0.0539055,0.0354691-0.1333275-0.0188141-0.1771774C36.0689163,40.7132111,35.9893303,40.7215385,35.9456444,40.7754974
		z"/>
	<path d="M36.3096199,40.2539139c-0.0679054-0.0161095-0.1360321,0.0254669-0.1520348,0.0933228
		c-0.0160027,0.0675278,0.0255203,0.1355972,0.0932121,0.1519814c0.0099487,0.0022697,0.01968,0.0035133,0.0296288,0.0035133
		c0.0568771,0,0.1085663-0.0390358,0.122406-0.0967789h-0.0002174C36.4190521,40.33815,36.3770981,40.2700806,36.3096199,40.2539139
		z"/>
	<path d="M35.6541176,38.3522263c0.0177307,0.0524445,0.0668259,0.0854225,0.1193771,0.0854225
		c0.0134087,0,0.0272484-0.0019989,0.0404434-0.0068092c0.0659599-0.022438,0.1012115-0.0940247,0.0787201-0.1598244
		c-0.0224915-0.0660133-0.0940742-0.1010513-0.1598206-0.0786133
		C35.6666603,38.2148399,35.6316223,38.2864265,35.6541176,38.3522263z"/>
	<path d="M35.8275604,38.8619118c0.017952,0.0524445,0.0668297,0.0854797,0.119381,0.0854797
		c0.0131912,0,0.0272484-0.0022697,0.0404434-0.006813c0.0659599-0.022438,0.1012115-0.0940208,0.0787201-0.1600914
		c-0.0224915-0.0657997-0.0940781-0.1010513-0.1598206-0.0786133C35.840538,38.7243118,35.805069,38.7958984,35.8275604,38.8619118z
		"/>
	<path d="M35.2211494,37.7849007c-0.0173035-0.0510902-0.0653114-0.0854225-0.1191635-0.0854225
		c-0.0540657,0-0.1018639,0.0343323-0.119381,0.0854225l-0.6922684,2.0331841
		c-0.1059723,0.3115845-0.0272522,0.6497726,0.205452,0.8824768c0.1617699,0.1619301,0.3771706,0.2510872,0.6061974,0.2510872
		s0.4442139-0.0891571,0.6061974-0.2510872c0.2327042-0.2327042,0.3114243-0.5708923,0.2052383-0.8824768L35.2211494,37.7849007z
		 M35.5299797,40.5223579c-0.1144066,0.114296-0.2664413,0.1772842-0.4279938,0.1772842
		c-0.1617699,0-0.3138046-0.0629883-0.4279938-0.1772842c-0.1643639-0.1643105-0.219944-0.4030151-0.1448975-0.6230125
		l0.5728912-1.6827202l0.5728912,1.6827202C35.7497063,40.1193428,35.6941261,40.3580475,35.5299797,40.5223579z"/>
	<path d="M36.9677238,39.5785675l-1.3849754-4.0684166c-0.0047569-0.0142746-0.014492-0.0254135-0.020546-0.0389824
		c0.2571411-0.1625252,0.4375076-0.4357796,0.4375076-0.7620735c0-0.2463799-0.0999146-0.4681091-0.2584381-0.6329575
		c0.522068-0.2385445,0.8873444-0.7623978,0.8873444-1.3722687c0-0.8330612-0.678215-1.5112762-1.5121422-1.5112762
		c-0.0144882,0-0.0278969,0.0038395-0.0423851,0.0042725c0.8713379-1.6138401,1.367672-3.4587612,1.367672-5.4178715
		c0-3.8253326-2.3555832-7.7959976-6.0018463-10.1161108c-0.0359001-0.0228167-0.0752602-0.0326567-0.1144047-0.0441189
		c-0.3951206-0.8449554-1.2474289-1.4351482-2.2403107-1.4351482c-0.2506542,0-0.4878998,0.0484438-0.7162781,0.118082
		c0.0741806-0.2352991,0.1254349-0.480546,0.1254349-0.7400665c0-1.2687311-0.9615231-2.305624-2.1920834-2.449441v-1.0850124
		c1.8927708-0.2068596,3.3763638-1.7966394,3.3763638-3.7433681C28.6786366,4.1972647,26.9805069,2.5,24.893961,2.5
		s-3.7838097,1.6972647-3.7838097,3.7838097c0,1.983386,1.5389576,3.5978203,3.4827652,3.7541809v1.0880404
		c-1.1650314,0.201993-2.0554028,1.2136908-2.0554028,2.4356003c0,0.2473021,0.0475788,0.481411,0.1150551,0.7069778
		c-0.1961555-0.0501747-0.3981476-0.0849934-0.6098747-0.0849934c-0.9416256,0-1.7524109,0.5338554-2.1717529,1.3090649
		c-0.0499592,0.0086508-0.099699,0.0223837-0.1457653,0.0490923c-3.6324215,2.0882759-6.1696682,6.2985649-6.1696682,10.2372208
		c0,1.9859276,0.5099573,3.8543682,1.403574,5.4838314c-0.0093002-0.0001621-0.017951-0.0027561-0.0272503-0.0027561
		c-0.8330612,0-1.5112743,0.6782131-1.5112743,1.5121403c0,0.61063,0.3661404,1.1351852,0.8888578,1.3732948
		c-0.1790695,0.1673927-0.2945557,0.4014473-0.2945557,0.6656723c0,0.3154793,0.1702023,0.5804596,0.4139347,0.7453079
		c-0.0032434,0.0078392-0.0090828,0.0139503-0.0116777,0.022007l-1.3849754,4.0684166
		c-0.2456789,0.719738-0.0631495,1.5008926,0.4740582,2.0389671c0.3737097,0.3745728,0.8711233,0.5804596,1.4014111,0.5804596
		c0.5302868,0,1.0277014-0.2058868,1.4005451-0.5804596c0.5389385-0.5372086,0.720602-1.3183632,0.4749241-2.0389671
		l-1.3841105-4.0660934c0.2640619-0.1610107,0.4498358-0.4385338,0.4498358-0.7696381
		c0-0.2641182-0.1152706-0.4981194-0.2943401-0.6655083c0.3769541-0.1715546,0.6671848-0.4933052,0.802351-0.8883743
		c0.6678333,0.770668,1.4303913,1.4567223,2.2794552,2.0268555c-0.5101738,0.2430878-0.8661499,0.7597466-0.8661499,1.3618355
		c0,0.6130638,0.3687363,1.1398888,0.8949146,1.3765945c-0.1397095,0.1609039-0.2322712,0.3645172-0.2322712,0.5940323
		c0,0.3273735,0.1816635,0.6014938,0.439888,0.7637482c-0.0125446,0.0240059-0.0287647,0.045578-0.037632,0.071907
		l-1.3858395,4.0684166c-0.2448139,0.7206039-0.0631504,1.5017586,0.4749222,2.0389671
		c0.3737106,0.3745766,0.8719902,0.5804634,1.4014111,0.5804634c0.5285568,0,1.0268364-0.2058868,1.400547-0.5804634
		c0.5380726-0.5372086,0.7197361-1.3183632,0.4749222-2.0389671l-1.3858395-4.0701447
		c-0.0058403-0.0168152-0.017086-0.0300102-0.0244389-0.0458488c0.2792015-0.15728,0.4760036-0.4450798,0.4760036-0.7880783
		c0-0.2530327-0.102726-0.4822235-0.2686024-0.6482086c0.4712448-0.2563286,0.7954292-0.7497406,0.7954292-1.3224182
		c0-0.083477-0.0116768-0.163929-0.0246544-0.2437859c0.9727707,0.3887939,2.0073929,0.6545868,3.089592,0.7621231
		c-0.1924763,0.2537918-0.3114243,0.5664597-0.3114243,0.9090271c0,0.5760269,0.3278618,1.0719795,0.8034325,1.3269043
		c-0.1472778,0.1626892-0.2428684,0.3735504-0.2428684,0.6099815c0,0.3319702,0.1866398,0.6102524,0.4517822,0.7709389
		c-0.004324,0.0105972-0.0121098,0.0190849-0.0157871,0.030117l-1.3849735,4.0684166
		c-0.2456799,0.719738-0.0640163,1.5017586,0.4749222,2.0398331C24.0072651,47.2941132,24.5055447,47.5,25.0341015,47.5
		s1.0268364-0.2058868,1.400547-0.5804596c0.5372066-0.5380745,0.7197361-1.3200951,0.4749222-2.0398331l-1.3849754-4.0684166
		c-0.0049744-0.014492-0.0147057-0.0257912-0.0207615-0.0395775c0.2571411-0.1624718,0.4377251-0.4356155,0.4377251-0.7614784
		c0-0.2247543-0.0903988-0.4235573-0.2249184-0.583107c0.502821-0.245842,0.8529587-0.7577477,0.8529587-1.3537788
		c0-0.3489494-0.1234894-0.6665344-0.3226719-0.9226494c0.9621735-0.1049461,1.8843365-0.3381882,2.7604351-0.6674538
		c-0.0116787,0.0755844-0.0233574,0.1513863-0.0233574,0.2302132c0,0.6306381,0.3884163,1.1709785,0.9377346,1.3975182
		c-0.1461964,0.1624718-0.241354,0.3723068-0.241354,0.6077118c0,0.3381882,0.1920452,0.6216049,0.4649734,0.7805634
		c-0.0090828,0.0188141-0.0220585,0.0349274-0.0289803,0.0550919l-1.3849735,4.0684204
		c-0.2456799,0.7206001-0.0640163,1.5017586,0.4740562,2.0389633c0.3737106,0.3745766,0.8711243,0.5804634,1.4014111,0.5804634
		c0.5302887,0,1.0277023-0.2058868,1.400547-0.5804634c0.5389366-0.5372047,0.7206001-1.3183632,0.4749222-2.0389633
		l-1.3849754-4.0684204c-0.0080013-0.0236244-0.0229225-0.0427666-0.0339527-0.0645561
		c0.2647114-0.1609535,0.4509163-0.4390221,0.4509163-0.7710991c0-0.2716866-0.1237049-0.5092545-0.3116398-0.6772385
		c0.4757862-0.2549248,0.8038635-0.7512054,0.8038635-1.3279915c0-0.5782433-0.3304558-1.0759277-0.8090553-1.3299332
		c0.9353561-0.6057091,1.7762032-1.3419914,2.4974518-2.1861916c0.1304092,0.3742523,0.4016113,0.679512,0.7526131,0.8546333
		c-0.1725845,0.1667976-0.2817993,0.398365-0.2817993,0.6571274c0,0.3324051,0.1864243,0.6106873,0.4515686,0.771534
		c-0.0043259,0.010437-0.0118942,0.0187073-0.0155716,0.0295219l-1.3849754,4.0684166
		c-0.2456779,0.719738-0.0640144,1.5017586,0.4749222,2.0398331c0.3737106,0.3745728,0.8719902,0.5804596,1.400547,0.5804596
		s1.0268364-0.2058868,1.4005432-0.5804596C37.0317383,41.0803261,37.2134018,40.2983055,36.9677238,39.5785675z
		 M35.082737,35.0949173c-0.2128067,0-0.3858185-0.1730156-0.3858185-0.3858223s0.1730118-0.3858185,0.3858185-0.3858185
		s0.3858223,0.1730118,0.3858223,0.3858185S35.2955437,35.0949173,35.082737,35.0949173z M29.8542633,16.6620369
		c0,0.9757977-0.7932682,1.7690659-1.7690639,1.7690659c-0.9757977,0-1.7690659-0.7932682-1.7690659-1.7690659
		s0.7932682-1.7690649,1.7690659-1.7690649C29.0609951,14.892972,29.8542633,15.6862392,29.8542633,16.6620369z
		 M28.4883213,19.2996311c1.3460464,0.8884258,2.1176872,2.2431221,2.1176872,3.7189293
		c0,2.5623341-2.3711529,4.6462841-5.2864342,4.6462841s-5.2872982-2.08395-5.2872982-4.6462841
		c0-1.6202736,0.7257919-3.0675335,1.9412136-3.8703156l-0.0103817-0.015789
		c0.0270348,0.0008659,0.0523376,0.0080032,0.079586,0.0080032c1.3668098,0,2.4784222-1.1116142,2.4784222-2.4784222
		c0-0.2473011-0.0473633-0.481411-0.1150551-0.7069769c0.1961555,0.0501738,0.3981495,0.0849924,0.6098747,0.0849924
		c0.2506523,0,0.4878979-0.0484438,0.7162762-0.118082c-0.0741787,0.2352982-0.1254349,0.480547-0.1254349,0.7400665
		c0,1.3668079,1.1116123,2.4784222,2.4784222,2.4784222c0.0778561,0,0.1513863-0.0158958,0.2275124-0.0229244l-0.0268173,0.0566616
		C28.3551006,19.2139893,28.4234409,19.2572422,28.4883213,19.2996311z M21.9959812,6.2838097
		c0-1.5977817,1.3001976-2.8979795,2.8979797-2.8979795c1.5986462,0,2.8988438,1.3001978,2.8988438,2.8979795
		c0,1.5986466-1.3001976,2.8988447-2.8988438,2.8988447C23.2961788,9.1826544,21.9959812,7.8824563,21.9959812,6.2838097z
		 M25.0159359,11.7925663c0.9757977,0,1.7690639,0.7932673,1.7690639,1.7690649s-0.7932663,1.7690649-1.7690639,1.7690649
		S23.24687,14.5374289,23.24687,13.5616312S24.0401382,11.7925663,25.0159359,11.7925663z M22.0426941,14.892972
		c0.9757977,0,1.7690659,0.7932673,1.7690659,1.7690649s-0.7932682,1.7690659-1.7690659,1.7690659
		c-0.9757957,0-1.7690639-0.7932682-1.7690639-1.7690659S21.0668983,14.892972,22.0426941,14.892972z M14.9318314,35.1961288
		c-0.2128067,0-0.3858204-0.1730118-0.3858204-0.3849525c0-0.2128067,0.1730137-0.3858223,0.3858204-0.3858223
		s0.3858204,0.1730156,0.3858204,0.3858223C15.3176517,35.0231171,15.1446381,35.1961288,14.9318314,35.1961288z
		 M15.9318504,41.3104362c-0.5449924,0.5484505-1.5026236,0.5484505-2.0493469,0
		c-0.3936062-0.3936081-0.5268269-0.9654198-0.3468924-1.4922447l1.3590221-4.0684166l1.3849745,4.0684166
		C16.4595432,40.3450165,16.3263226,40.9168282,15.9318504,41.3104362z M15.9128189,32.7722092
		c0,0.5406685-0.4403191,0.9801216-0.9809875,0.9801216c-0.5406675,0-0.9801226-0.4394531-0.9801226-0.9801216
		s0.439455-0.9809895,0.9801226-0.9809895c0.1457644,0,0.281147,0.0363331,0.4057169,0.0936451
		c0.1743116,0.274929,0.360734,0.5403442,0.5573206,0.7987823C15.8976803,32.7143021,15.9128189,32.7407951,15.9128189,32.7722092z
		 M19.3497372,39.00243c-0.2128067,0-0.3858204-0.1730118-0.3858204-0.3858185s0.1730137-0.3858223,0.3858204-0.3858223
		s0.3858204,0.1730156,0.3858204,0.3858223S19.5625439,39.00243,19.3497372,39.00243z M20.6975136,43.691967
		c0.1790695,0.5268288,0.0458488,1.0986366-0.3468933,1.4922447c-0.5493183,0.5475883-1.5034885,0.5458565-2.0510769,0
		c-0.3927402-0.3936081-0.5259609-0.965416-0.3468933-1.4922447l1.3598881-4.0684166L20.6975136,43.691967z M20.2623844,36.6459846
		c0,0.5406685-0.440321,0.9801216-0.9809875,0.9801216c-0.5406685,0-0.9801235-0.4394531-0.9801235-0.9801216
		c0-0.5356407,0.4321022-0.9700127,0.9658489-0.9781227c0.2599525,0.151226,0.5268269,0.2900696,0.799324,0.4209099
		C20.1806355,36.2491341,20.2623844,36.434639,20.2623844,36.6459846z M25.0245857,40.3951912
		c-0.2128067,0-0.3858204-0.1730118-0.3858204-0.3849564c0-0.2128067,0.1730137-0.3858185,0.3858204-0.3858185
		s0.3858204,0.1730118,0.3858204,0.3858185C25.4104061,40.2221794,25.2373924,40.3951912,25.0245857,40.3951912z
		 M26.4061012,45.0509911c0.1790676,0.526825,0.0458488,1.0986366-0.3468933,1.4931068
		c-0.5484524,0.5467262-1.5017586,0.5467262-2.0502129,0c-0.3936062-0.3944702-0.5268269-0.9662819-0.3468914-1.4931068
		l1.3590221-4.0684166L26.4061012,45.0509911z M26.0384464,38.073349c0,0.5406685-0.439455,0.9801216-0.9801235,0.9801216
		c-0.5406666,0-0.9801216-0.4394531-0.9801216-0.9801216c0-0.3838768,0.2270794-0.709034,0.5491028-0.8700447
		c0.1243534,0.0040016,0.2458954,0.0188179,0.3713303,0.0188179c0.1628494,0,0.3211555-0.0176811,0.4824924-0.0244408
		C25.8079052,37.3569107,26.0384464,37.6858521,26.0384464,38.073349z M30.5973568,39.1045113
		c-0.2128067,0-0.3858204-0.1730156-0.3858204-0.3858223s0.1730137-0.3858185,0.3858204-0.3858185
		c0.2128086,0,0.3858223,0.1730118,0.3858223,0.3858185S30.8101654,39.1045113,30.5973568,39.1045113z M31.9788723,43.7940483
		c0.1799335,0.526825,0.0467129,1.0986366-0.3477573,1.4922409c-0.5449944,0.5484543-1.5026245,0.5484543-2.0493469,0
		c-0.3936062-0.3936043-0.5268269-0.965416-0.3468933-1.4922409l1.3590221-4.0684204L31.9788723,43.7940483z M31.4754028,36.713459
		c0,0.5406685-0.439455,0.9809875-0.9801235,0.9809875s-0.9801216-0.4403191-0.9801216-0.9809875
		c0-0.1866913,0.0663929-0.3513794,0.1572247-0.5000076c0.3135872-0.1410065,0.620472-0.2931519,0.9182701-0.4608116
		C31.0843906,35.8029213,31.4754028,36.2066383,31.4754028,36.713459z M24.9986343,36.3362923
		c-5.8210468,0-10.5572968-4.7362518-10.5572968-10.5572987c0-3.4174519,2.0787601-7.0603638,5.1250992-9.0956535
		c0.0082169,0.9493046,0.5564556,1.7638741,1.3482094,2.1729431c-1.1161556,1.0043449-1.7681999,2.5092392-1.7681999,4.1622772
		c0,3.0502319,2.769083,5.532114,6.1731281,5.532114c3.4031792,0,6.1722641-2.4818821,6.1722641-5.532114
		c0-1.623518-0.8144627-3.166151-2.1868935-4.2122345c0.7074108-0.4039879,1.1931458-1.1401615,1.243969-1.9989567
		c3.0616932,2.196949,5.0070171,5.6493301,5.0070171,8.9716244C35.5559311,31.6000404,30.8196812,36.3362923,24.9986343,36.3362923z
		 M34.1363525,32.7038689c0-0.0319023,0.0151405-0.0588264,0.0181656-0.0899124
		c0.1903152-0.2542229,0.3702507-0.5153122,0.5393715-0.7852135c0.1291122-0.0628262,0.2694702-0.1049976,0.4225845-0.1049976
		c0.5406685,0,0.9809875,0.439455,0.9809875,0.9801235s-0.4403191,0.9801216-0.9809875,0.9801216
		C34.5758095,33.6839905,34.1363525,33.2445374,34.1363525,32.7038689z M36.1173592,41.2429581
		c-0.5484543,0.5467262-1.5017586,0.5467262-2.0502129,0c-0.3936043-0.3944702-0.526825-0.9662819-0.3468895-1.4931068
		l1.3590202-4.0684166l1.3849754,4.0684166C36.6441879,40.2766762,36.5109673,40.8484879,36.1173592,41.2429581z"/>
</g>
</svg>
