<?xml version="1.0" encoding="utf-8"?>
<!-- Generator: Adobe Illustrator 18.0.0, SVG Export Plug-In . SVG Version: 6.00 Build 0)  -->
<!DOCTYPE svg PUBLIC "-//W3C//DTD SVG 1.1//EN" "http://www.w3.org/Graphics/SVG/1.1/DTD/svg11.dtd">
<svg version="1.1" id="Layer_1" xmlns="http://www.w3.org/2000/svg" xmlns:xlink="http://www.w3.org/1999/xlink" x="0px" y="0px"
	 width="50px" height="50px" viewBox="0 0 50 50" enable-background="new 0 0 50 50" xml:space="preserve">
<path d="M31.369297,37.2179337c0.2607651-0.1557846,0.4985142-0.3859367,0.6997871-0.6843719
	c0.541069-0.8024864,0.7251892-1.9627876,0.4802742-3.0266914l-1.4894619-6.4911022
	c-0.0210609-0.0928192-0.0610104-0.1707668-0.1081276-0.240572c0.4702892-0.1637115,0.8107376-0.6070747,0.8107376-1.132513
	c0-0.5672321-0.39538-1.0406685-0.924509-1.1670341c0.1437359-0.23102,0.2388344-0.5117588,0.2783508-0.8313637
	c0.1042194-0.8606739-0.2205963-1.8603077-0.8485146-2.6089478l-3.796175-4.531786
	c-0.0121593-0.0147648-0.0280094-0.0234489-0.041254-0.0366936c0.3986378-0.3910389,0.6474609-0.934063,0.6474609-1.5352755
	c0-0.8943291-0.5480175-1.6622925-1.3255348-1.9878683c0.1263657-0.1017218,0.2457829-0.2209225,0.3476124-0.3744278
	c0.3708458-0.5593081,0.494173-1.3626623,0.3204746-2.0965376l-1.0256882-4.3346395
	c-0.002388-0.0106387-0.0082512-0.0188894-0.0112915-0.0290942c0.7892418-0.2058325,1.3765583-0.9186463,1.3765583-1.7721562
	C26.7599964,3.324198,25.9357986,2.5,24.9231377,2.5c-1.0135288,0-1.8377266,0.824198-1.8377266,1.8368587
	c0,0.8804331,0.6224918,1.616262,1.4501629,1.7948456c-0.0010853,0.0039082-0.0032558,0.0068393-0.0041256,0.0107474
	l-0.9683666,4.3502727c-0.1632767,0.7356119-0.0295296,1.5363607,0.3482647,2.0904579
	c0.0883694,0.1291876,0.1893311,0.2336235,0.2952862,0.3254671c-0.8350544,0.2970238-1.438221,1.0873508-1.438221,2.022933
	c0,0.5925274,0.2407894,1.1295805,0.6292229,1.5193167c-0.0186729,0.0176945-0.0399513,0.0305061-0.0568867,0.0509148
	L19.5914707,20.97715c-0.6209698,0.739954-0.9423122,1.7282963-0.8389626,2.580286
	c0.0471172,0.3810501,0.1828175,0.6969643,0.3782291,0.9475231c-0.4804935,0.1579571-0.8307114,0.6052303-0.8307114,1.1377239
	c0,0.5067654,0.3159122,0.9393826,0.7603626,1.116663c-0.0529766,0.0729523-0.0977039,0.1556778-0.120285,0.2555542
	l-1.4894619,6.4919701c-0.244915,1.0639038-0.0607948,2.224205,0.4802742,3.0266914
	c0.2119122,0.3141785,0.4655113,0.5475845,0.7425613,0.7030449c-0.7375679,0.4167671-1.2541027,1.3392143-1.2541027,2.4139709
	c0,1.4634056,0.9536037,2.6532402,2.1260662,2.6532402c1.1724644,0,2.126936-1.1898346,2.126936-2.6532402
	c0-1.1194839-0.5603943-2.0739555-1.3478985-2.4630432c0.2440453-0.1550255,0.4681168-0.3719292,0.6583157-0.6539726
	c0.5410709-0.8024864,0.7251911-1.9627876,0.4802761-3.0266914l-1.4894619-6.4911022
	c-0.0201931-0.0892372-0.0577545-0.1649055-0.1022644-0.2329731c0.4830971-0.1565456,0.8352699-0.6055546,0.8352699-1.1401119
	c0-0.2284126-0.0673084-0.4398899-0.178257-0.6218395c0.217123-0.037344,0.4359818-0.1013966,0.6559277-0.2232018
	c0.7503757-0.4168758,1.3617935-1.2567062,1.5971546-2.1929398l1.4204178-5.6524658
	c0.0807705,0.028986,0.161974,0.0575371,0.2468681,0.0767517l-0.9716244,4.3685112
	c-0.1676178,0.7512436-0.0312653,1.5684948,0.3552132,2.1347504c0.1102982,0.1606712,0.2388344,0.284214,0.374754,0.3878899
	c-0.5102386,0.2940941-0.8585033,0.8390713-0.8585033,1.4689445c0,0.7638378,0.5098038,1.4043503,1.20438,1.6186504
	c-0.0082512,0.0292034-0.0208435,0.0538464-0.0267067,0.0853291l-1.4894619,8.0899963
	c-0.2388344,1.2966576-0.0590572,2.7088242,0.4689846,3.6858749c0.219511,0.4054756,0.4872246,0.6989174,0.7807751,0.8908539
	c-0.4750652,0.2532768-0.8024864,0.7477722-0.8024864,1.3229294c0,0.5619164,0.3126564,1.0467491,0.769701,1.305233
	c-0.7818604,0.3924522-1.3368263,1.3443184-1.3368263,2.4588089c0,1.4634056,0.9544716,2.6532402,2.126936,2.6532402
	c1.1724625,0,2.1260662-1.1898346,2.1260662-2.6532402c0-1.1438026-0.5857983-2.1115189-1.4000092-2.4835587
	c0.4325104-0.2645645,0.7243233-0.737133,0.7243233-1.2804832c0-0.5522499-0.3018017-1.030571-0.7460346-1.2924232
	c0.3154793-0.1887856,0.6036015-0.4902611,0.8363571-0.92136c0.5289116-0.9770508,0.7086887-2.3892174,0.4698544-3.6858749
	l-1.4903316-8.0899963c-0.0056458-0.0303974-0.0180206-0.0542812-0.0258369-0.0827236
	c0.6991348-0.2113686,1.2130642-0.8541603,1.2130642-1.6212559c0-0.6815491-0.4055843-1.2669106-0.9859543-1.5380974
	c0.1059551-0.094883,0.2067013-0.2022495,0.2946358-0.3343697c0.3786621-0.5705986,0.5037251-1.3895855,0.3265514-2.1382256
	l-1.026556-4.3376789c0.0853291-0.0176945,0.1647968-0.0491772,0.2462177-0.076643l1.4369183,5.7170601
	c0.2388344,0.9475231,0.8580704,1.7969074,1.6153946,2.2172565c0.2720547,0.1507931,0.5428066,0.2240715,0.8089981,0.2466526
	c-0.069479,0.1520939-0.1107311,0.3197136-0.1107311,0.4976444c0,0.5158844,0.3278542,0.9536037,0.7846813,1.1244793
	c-0.0499382,0.0712166-0.0927124,0.1513348-0.1150761,0.2477379l-1.4894619,6.4919701
	c-0.244915,1.0639038-0.0607948,2.224205,0.4802761,3.0266914c0.1858559,0.2754211,0.4047165,0.4867897,0.6420307,0.6411629
	c-0.7653561,0.4018974-1.3046894,1.3463783-1.3046894,2.4454536c0,1.4634094,0.9544716,2.6532402,2.1269341,2.6532402
	s2.1260662-1.1898308,2.1260662-2.6532402C32.6075478,38.5541077,32.0979614,37.6389351,31.369297,37.2179337z
	 M23.3016663,14.9315825c0-0.1900911,0.0390816-0.369978,0.0994415-0.5397673l0.2579422,0.4122076l-0.3087482,0.5039415
	C23.321207,15.1867018,23.3016663,15.0617476,23.3016663,14.9315825z M23.7671776,14.9417868l0.1930218,0.2213573
	l-0.011507,0.4020023l-0.4305553-0.2169056L23.7671776,14.9417868z M23.8844223,14.8140106l0.0883694-0.093255l-0.0054283,0.1930227
	L23.8844223,14.8140106z M23.7715187,14.6741829l-0.2114773-0.3377342l0.429903-0.2138662l-0.0099869,0.3500023
	L23.7715187,14.6741829z M23.4912128,14.1872854c0.1758709-0.3364315,0.4605179-0.6068583,0.813343-0.7531986l-0.2709694,0.483532
	L23.4912128,14.1872854z M26.3913231,15.4520254l-0.1975822-0.5231571l0.2440472-0.4591064
	c0.0414696,0.1530714,0.0607929,0.3146114,0.0547142,0.4813614C26.4857712,15.1273184,26.4499454,15.2952633,26.3913231,15.4520254z
	 M26.0756264,14.8018513l-0.2562046-0.2912703l0.0175858-0.3050575l0.4379368,0.2208138L26.0756264,14.8018513z
	 M25.9520836,14.9100866l-0.1645794,0.16078l0.0149822-0.2632618l0.0036907-0.0636168L25.9520836,14.9100866z
	 M26.0584736,15.0354757l0.1763039,0.4669218l-0.4802761,0.1439533l0.0188904-0.3308954l0.0002174-0.0015202L26.0584736,15.0354757z
	 M26.2981777,15.6548185c-0.173048,0.3185186-0.4496613,0.5710325-0.783596,0.7138987l0.2129974-0.5431318L26.2981777,15.6548185z
	 M24.5132103,15.7970333l0.212347,0.2374249l-0.455307,0.1957359l-0.1322269-0.4472733L24.5132103,15.7970333z
	 M24.1321602,15.3603992l0.2325382,0.2668447l-0.0034733-0.0002174l-0.2210312-0.0084677L24.1321602,15.3603992z
	 M24.8397636,16.1641884l0.4937363,0.2698841c-0.1615391,0.0473328-0.3326321,0.0707817-0.5098038,0.063942
	c-0.1810799-0.0068398-0.3532581-0.0447273-0.5137119-0.1062813L24.8397636,16.1641884z M24.74119,15.8057184l0.235796,0.0087938
	l-0.1285381,0.1110582L24.74119,15.8057184z M24.9622211,16.0439014l0.2553368-0.2201614l0.3295918,0.0124846l-0.1706581,0.4345713
	L24.9622211,16.0439014z M25.3912544,15.6660004l0.2086563-0.1913939l-0.0002174,0.0036907l-0.0002174,0.0056458
	l-0.0110722,0.1895475l-0.1882458-0.007165L25.3912544,15.6660004z M25.6570129,14.3354712l-0.173914-0.1855307l0.1767368,0.0145473
	L25.6570129,14.3354712z M25.3148289,13.9702711l-0.2518635-0.2685814l0.379097-0.1688128l0.1932392,0.4540043
	L25.3148289,13.9702711z M25.0664387,13.9573526l-0.2907257-0.0149822l0.1446037-0.1290789L25.0664387,13.9573526z
	 M24.5407848,13.930212l-0.0008678,0.0007601l-0.3209076-0.0085764l0.2308006-0.4114475l0.3367577,0.1815147L24.5407848,13.930212z
	 M24.3670864,14.0979395l-0.2110424,0.2042036l0.0128098-0.2023582L24.3670864,14.0979395z M24.1414967,14.5581312
	l0.0004349-0.0141134l0.4616032-0.4460783l0.6366024,0.0328941l0.1637115,0.1747837l0.2479534,0.2642384l-0.0245342,0.4262123
	l-0.013895,0.2433939l-0.455307,0.4177446l-0.568428-0.0214949l-0.4635563-0.5317335L24.1414967,14.5581312z M25.7838135,13.5630569
	c0.2644558,0.1797781,0.4741955,0.4321833,0.5940475,0.731596l-0.5512753-0.2784605l0.0002174-0.0026054l-0.0019531-0.0002174
	l-0.2368813-0.5569191C25.6559277,13.4872818,25.7210655,13.5234327,25.7838135,13.5630569z M24.9276981,13.5822725
	l-0.4023285-0.2170143c0.1281033-0.032568,0.2598953-0.0551491,0.397768-0.0551491
	c0.1582832,0,0.3083153,0.0299635,0.452919,0.0725193L24.9276981,13.5822725z M23.4017601,15.4730864l0.5567017,0.2807398
	l0.1626244,0.5504055c-0.317215-0.1718521-0.5606098-0.4513979-0.7043457-0.7825098
	C23.4106617,15.5059805,23.4074039,15.4889364,23.4017601,15.4730864z M23.7231007,4.8473144l0.3754063,0.1893311
	l0.1161594,0.3925581C23.9984131,5.2885079,23.8255825,5.087018,23.7231007,4.8473144z M23.6186657,4.3368587
	c0-0.1297307,0.0247517-0.2525139,0.06036-0.3708458l0.1654472,0.264564l-0.2030106,0.3315468
	C23.6286526,4.4886274,23.6186657,4.4139376,23.6186657,4.3368587z M26.0901737,3.7671285l-0.4062366-0.2050724l0.0002174-0.0022798
	h-0.0015202l-0.1587162-0.3730168C25.7694836,3.3155131,25.9679337,3.5176544,26.0901737,3.7671285z M26.2267437,4.3368587
	c0,0.0885863-0.009119,0.1752181-0.0260544,0.2588105c-0.0006523,0.002388-0.0008698,0.0047765-0.0015202,0.0070562
	c-0.0108566,0.051784-0.0297451,0.1003108-0.0464649,0.1497064l-0.157196-0.4158988l0.180645-0.3396885
	C26.2059002,4.1059484,26.2267437,4.2185268,26.2267437,4.3368587z M25.7905445,4.3205748L25.6509342,4.457036l0.0125923-0.2234192
	l0.0030403-0.0539551L25.7905445,4.3205748z M25.6778564,3.9815373l0.0149822-0.258919l0.3717136,0.1874857l-0.1693554,0.3186276
	L25.6778564,3.9815373z M25.880867,4.4269648l0.1495972,0.3962488l-0.4077568,0.1222405l0.0160675-0.2808485l0.0002174-0.0014114
	L25.880867,4.4269648z M25.1671848,5.0959201l0.2796535,0.0106387l-0.1446037,0.3686748l-0.351738-0.1923709L25.1671848,5.0959201z
	 M24.8538761,5.1823349l-0.0909748-0.1017222l0.2001877,0.0074911L24.8538761,5.1823349z M25.3222103,4.9623895L25.314394,4.9620638
	l0.1771717-0.1624079v0.0031486l-0.0004349,0.0047765l-0.009119,0.1608882L25.3222103,4.9623895z M25.1165943,4.9546819
	l-0.4822292-0.0182385l-0.3934269-0.4512897l0.0132446-0.4633403l0.0002174-0.0118332l0.3916893-0.3785534l0.5402012,0.0279002
	l0.1389599,0.1481864l0.210392,0.2243965l-0.020628,0.361618l-0.0119419,0.2067008L25.1165943,4.9546819z M24.5694447,5.0733395
	l0.1804295,0.2014899L24.3633957,5.440928l-0.1122513-0.3796391L24.5694447,5.0733395z M24.2461491,4.7028193l0.1971474,0.2263503
	l-0.002821-0.000217L24.2528801,4.921896L24.2461491,4.7028193z M25.0388641,3.5120094l-0.2466507-0.0125933l0.1226749-0.1095383
	L25.0388641,3.5120094z M25.0360432,3.2951035l0.3217754-0.1431923l0.1637096,0.3852842L25.249691,3.5230825L25.0360432,3.2951035z
	 M24.5928955,3.4889944l-0.0008698,0.0007598l-0.2722721-0.0072737l0.1958447-0.349242l0.2857342,0.1540487L24.5928955,3.4889944z
	 M24.4454689,3.6314268l-0.1791267,0.173264l0.0108566-0.1717441L24.4454689,3.6314268z M25.3925571,3.6755028l0.150032,0.0123761
	l-0.002388,0.1450379L25.3925571,3.6755028z M24.9211845,3.1938159l-0.2503433-0.1350505
	c0.0816383-0.0161755,0.1658821-0.0255117,0.2522964-0.0255117c0.0977058,0,0.1923714,0.0128102,0.2839966,0.0332196
	L24.9211845,3.1938159z M24.32757,3.1838281l-0.1652298,0.2945271l-0.3426189,0.1704414
	C23.9439144,3.4509978,24.1193504,3.2917383,24.32757,3.1838281z M24.0357571,4.2390451l0.0749073-0.0791416l-0.0045586,0.1638193
	L24.0357571,4.2390451z M24.1002426,4.5353088l-0.0097694,0.3412085l-0.3654175-0.1841202l0.2112598-0.3448992L24.1002426,4.5353088
	z M23.9400063,4.1203876L23.760664,3.8337853l0.3647652-0.1815147L24.116745,3.949403L23.9400063,4.1203876z M24.8464947,5.3849106
	l0.391037,0.2136488c-0.1011791,0.025403-0.2053967,0.0427732-0.314394,0.0427732
	c-0.164362,0-0.3200378-0.0338712-0.4650764-0.0896721L24.8464947,5.3849106z M25.8433056,5.2598476
	c-0.0429916,0.0427732-0.0916271,0.0790329-0.1400452,0.1157265c-0.04603,0.0351739-0.0957508,0.0647025-0.1461239,0.0940142
	c-0.0429897,0.024209-0.0846767,0.050807-0.1307068,0.0701308l0.1736984-0.4421706l0.4616032-0.1381989
	c-0.0132446,0.0238838-0.0245361,0.0488529-0.0390835,0.0718679C25.9696712,5.1132898,25.9116993,5.191237,25.8433056,5.2598476z
	 M24.084177,10.6082335l0.883255-3.96032l0.9336281,3.9481606c0.1406956,0.5949163,0.0468979,1.2376003-0.2457829,1.6779251
	c-0.1789093,0.2709694-0.4099293,0.4212179-0.6478958,0.4229555l-0.0008678,0.0883684l-0.0017376-0.0002165v-0.0881519
	c-0.2379665,0-0.4698524-0.147644-0.6522369-0.4142704C24.0546474,11.8467016,23.9521656,11.2048864,24.084177,10.6082335z
	 M21.139122,39.6505775c0,1.1689873-0.7147675,2.1199875-1.5936813,2.1199875c-0.8780441,0-1.5928116-0.9510002-1.5928116-2.1199875
	c0-1.1689911,0.7147675-2.1199875,1.5928116-2.1199875C20.4243546,37.5305901,21.139122,38.4815865,21.139122,39.6505775z
	 M20.9437122,33.6267242c0.2119122,0.924942,0.0573196,1.9245758-0.4038486,2.608078
	c-0.5940475,0.8823853-1.5719681,0.8823853-2.1660175,0c-0.4611683-0.6835022-0.6157589-1.683136-0.4038467-2.608078
	l1.4868565-6.4789448L20.9437122,33.6267242z M19.5037537,26.313158c-0.369978,0-0.670475-0.3004971-0.670475-0.670475
	c0-0.3691082,0.3004971-0.6696072,0.670475-0.6696072c0.3691082,0,0.6696072,0.300499,0.6696072,0.6696072
	C20.1733608,26.012661,19.8728619,26.313158,19.5037537,26.313158z M22.2638187,22.4744282
	c-0.2006207,0.7981434-0.7130318,1.5094376-1.3383446,1.8559647c-0.2353611,0.1311436-0.4637737,0.1971474-0.6791611,0.1971474
	c-0.1467743,0-0.2839966-0.0321331-0.4073219-0.0955334c-0.3031025-0.1545906-0.5011196-0.4880924-0.5567017-0.9397068
	c-0.0859814-0.7086887,0.1893311-1.5415726,0.7173729-2.172966l3.648531-4.3554821L22.2638187,22.4744282z M24.2411556,24.5518589
	c0.0655708-0.0631828,0.1474266-0.1057396,0.2262421-0.1525288c0.0501556-0.0296383,0.0935802-0.0689373,0.1482944-0.0905399
	c0.0060806-0.002388,0.0132446-0.0016289,0.0193253-0.0039082l-0.2062683,0.3679142l-0.418829,0.208437
	c0.0271397-0.0553665,0.0668736-0.1016121,0.102047-0.1515503C24.1538734,24.6691055,24.188612,24.6030998,24.2411556,24.5518589z
	 M25.0705643,24.2250881c0.1124706,0.0021725,0.2158203,0.0326767,0.3183022,0.0644855l-0.3298092,0.1467762l-0.2931156-0.1579571
	c0.0696964-0.0179138,0.1383076-0.0382137,0.212347-0.0428829C25.0095539,24.2339916,25.0386486,24.2240028,25.0705643,24.2250881z
	 M24.2439785,25.206049l-0.1489468-0.238184l0.302887-0.1506824l-0.0069485,0.2467594L24.2439785,25.206049z M24.3859768,25.2388344
	l-0.0039082,0.1360283l-0.0584068-0.07024L24.3859768,25.2388344z M24.3770752,25.5506229l-0.0080338,0.2833462
	l-0.3035374-0.1528549l0.1754341-0.2863846L24.3770752,25.5506229z M24.3757725,25.9670658l0.1146412,0.3878899
	c-0.237751-0.1289711-0.4244766-0.3393631-0.5215302-0.593071L24.3757725,25.9670658z M25.3317642,24.7099247l-0.1773891-0.1893311
	l0.2672768-0.1189842l0.136137,0.3200397L25.3317642,24.7099247z M25.5749416,24.8467121l-0.001955,0.1205025l-0.122673-0.1307087
	L25.5749416,24.8467121z M25.1567631,24.7008057l-0.2049637-0.0106392l0.102047-0.0909748L25.1567631,24.7008057z
	 M24.7863503,24.6816978l-0.0006504,0.0004349l-0.2262421-0.0059719l0.1626244-0.2900753l0.2375336,0.1279945L24.7863503,24.6816978
	z M24.6638947,24.7998123l-0.1487293,0.1439533l0.0089016-0.1426506L24.6638947,24.7998123z M24.8306446,24.7998123
	l0.448576,0.0232334l0.115509,0.1231079l0.1745663,0.1862907l-0.0171528,0.300499l-0.0097694,0.171526l-0.321125,0.2944183
	l-0.4003754-0.0151978l-0.3269863-0.374754l0.0110722-0.3847408l0.0002174-0.0099888L24.8306446,24.7998123z M24.7668095,25.9974613
	l0.1498146,0.1674023l-0.3209076,0.1378727l-0.0933628-0.3152618L24.7668095,25.9974613z M24.49823,25.6897984l0.1639271,0.1879196
	l-0.002388-0.0001068l-0.1558952-0.0058632L24.49823,25.6897984z M24.9969597,26.2562733l0.3480492,0.1901989
	c-0.1139908,0.0332203-0.2344933,0.0499382-0.3593388,0.0450535c-0.1274509-0.0048866-0.2490406-0.0315914-0.3619442-0.0749073
	L24.9969597,26.2562733z M24.9274807,26.0035419l0.166317,0.0062962l-0.0907574,0.0781651L24.9274807,26.0035419z
	 M25.0833759,26.1714859l0.1799946-0.1552429l0.2323208,0.0087929l-0.1202869,0.3063602L25.0833759,26.1714859z
	 M25.3919067,25.9052925l-0.0062962-0.0002155l0.1472092-0.134943l-0.0002174,0.0026054l-0.0002174,0.0040169l-0.0075989,0.1336403
	L25.3919067,25.9052925z M25.4726772,26.4003334l0.1500301-0.3827877l0.4023285-0.1203938
	C25.9030132,26.1216564,25.7078209,26.2996979,25.4726772,26.4003334z M25.7809906,25.3722572l-0.1159439,0.1133385
	l0.0106392-0.1855316l0.002388-0.044836L25.7809906,25.3722572z M25.6876278,25.0906487l0.0123768-0.2150593l0.3085308,0.1556759
	l-0.1404781,0.2646732L25.6876278,25.0906487z M25.8561153,25.4607353l0.1241932,0.3289394l-0.3384933,0.101614l0.0132446-0.2332973
	l0.0002174-0.0010872L25.8561153,25.4607353z M25.9514313,25.3856106l0.1719627-0.3236217
	c0.0290928,0.1078014,0.0429897,0.2216816,0.0384293,0.3392544c-0.0045586,0.1241932-0.0299625,0.2425251-0.0712147,0.3530407
	L25.9514313,25.3856106z M25.6926212,24.7422752v-0.0018463l-0.0013027-0.0001087l-0.1717434-0.4036312
	c0.2553368,0.1231098,0.4561749,0.3388214,0.561697,0.6018658L25.6926212,24.7422752z M23.9378357,25.6663494
	c-0.0310497-0.109972-0.04603-0.2264595-0.0419044-0.3467445c0.0073814-0.1191998,0.0284424-0.2344933,0.0690441-0.3414249
	l0.1999702,0.3192787l-0.2268925,0.3700848L23.9378357,25.6663494z M26.6366711,44.8467598
	c0,1.1689873-0.7147675,2.1199875-1.5928116,2.1199875c-0.8789139,0-1.5936813-0.9510002-1.5936813-2.1199875
	c0-1.1689911,0.7147675-2.1199875,1.5936813-2.1199875C25.9219036,42.7267723,26.6366711,43.6777687,26.6366711,44.8467598z
	 M24.9891434,42.0545616c-0.5358582,0-0.9718418-0.4359818-0.9718418-0.9718437
	c0-0.5358582,0.4359837-0.9718399,0.9718418-0.9718399c0.5358601,0,0.9718418,0.4359818,0.9718418,0.9718399
	C25.9609852,41.6185799,25.5250034,42.0545616,24.9891434,42.0545616z M26.5298481,35.2803307
	c0.2179909,1.1820145,0.0590572,2.460434-0.4142704,3.3350067c-0.5992603,1.1081924-1.539835,1.1081924-2.140831,0
	c-0.4724598-0.8754425-0.6313934-2.1529922-0.4134026-3.3350067l1.484251-8.0587311L26.5298481,35.2803307z M25.6153259,23.2213306
	c-0.1858578,0.2787857-0.4229546,0.4333763-0.6687374,0.4351139l-0.0008698,0.0417957l-0.0043411,0.0004349v-0.0422306
	c-0.2431774,0-0.481144-0.1511173-0.6687393-0.4255619c-0.3057079-0.4481411-0.4107952-1.1055889-0.2744427-1.7170067
	l0.9075737-4.0749607l0.9614182,4.0628033C26.0113583,22.1105309,25.9149551,22.7697144,25.6153259,23.2213306z
	 M27.5607452,22.5508556l-1.3913212-5.5774517l3.6893501,4.4041195c0.5358582,0.6400776,0.8146439,1.4833832,0.7277946,2.2016258
	c-0.0564518,0.4594307-0.2570724,0.7990112-0.5653877,0.9553394c-0.3057079,0.1563282-0.7043457,0.1181145-1.1038513-0.1033497
	C28.2841988,24.0811367,27.7648411,23.3602886,27.5607452,22.5508556z M29.8900394,25.642683
	c0-0.3691082,0.3004971-0.6696072,0.6696072-0.6696072c0.3691082,0,0.6696053,0.300499,0.6696053,0.6696072
	c0,0.369978-0.3004971,0.670475-0.6696053,0.670475C30.1905365,26.313158,29.8900394,26.012661,29.8900394,25.642683z
	 M29.0562878,33.6267242l1.4868565-6.4789448l1.4868584,6.4789448c0.2119102,0.924942,0.0573196,1.9245758-0.4038486,2.608078
	c-0.5940495,0.8823853-1.57197,0.8823853-2.1660175,0C28.9989681,35.5513,28.8443756,34.5516663,29.0562878,33.6267242z
	 M30.4814816,41.7401657c-0.878912,0-1.5936813-0.9509964-1.5936813-2.1199875c0-1.1681175,0.7147694-2.1191177,1.5936813-2.1191177
	c0.8780441,0,1.5928135,0.9510002,1.5928135,2.1191177C32.074295,40.7891693,31.3595257,41.7401657,30.4814816,41.7401657z"/>
</svg>
