<?xml version="1.0" encoding="UTF-8"?>
<!DOCTYPE svg PUBLIC "-//W3C//DTD SVG 1.1//EN" "http://www.w3.org/Graphics/SVG/1.1/DTD/svg11.dtd">
<!-- Creator: CorelDRAW X7 -->
<svg xmlns="http://www.w3.org/2000/svg" xml:space="preserve" width="50px" height="50px" version="1.1" style="shape-rendering:geometricPrecision; text-rendering:geometricPrecision; image-rendering:optimizeQuality; fill-rule:evenodd; clip-rule:evenodd"
viewBox="0 0 468662 469448"
 xmlns:xlink="http://www.w3.org/1999/xlink">
 <defs>
  <style type="text/css">
   <![CDATA[
    .fil0 {fill:none}
    .fil1 {fill:black;fill-rule:nonzero}
   ]]>
  </style>
 </defs>
 <g id="Layer_x0020_1">
  <metadata id="CorelCorpID_0Corel-Layer"/>
  <rect class="fil0" x="-6" y="766" width="468673" height="468673"/>
  <path class="fil1" d="M216075 199036c-1406,-4450 -2868,-8679 -4285,-12798l-1262 -3664 -44 476c-161716,-16751 -194221,-181035 -194320,-181500l7329 -1550c88,454 31143,157243 184588,175233 -2136,-6653 -4063,-13517 -5557,-21378l-11 -122 -34 -210 -22 -66c-299,-2170 332,-4695 1528,-6687 1284,-2148 3344,-3919 5768,-4384l211 -34 155 -22c8115,-1085 16396,-1494 24688,-1428 8237,66 16474,609 24534,1417l265 33 975 166 276 56c2536,631 4263,2114 5259,4063l11 0c864,1683 1130,3664 930,5635l0 22c-66,687 -199,1395 -365,2070l-5115 20748c152593,-18555 183515,-174658 183603,-175112l7329 1550c-99,465 -32427,163719 -192847,181323l-4827 19584c3321,8724 4782,19917 4384,32859 12521,-23227 27058,-34010 38616,-34010 6897,0 12389,3819 15134,10440 3930,9543 2137,26371 -11270,48082 13739,-8514 26648,-13131 37531,-13131 11624,0 19585,5680 20769,14758 1561,11846 -8879,27490 -33789,40908 24024,-675 42425,5491 48713,16441 3022,5214 3022,10993 0,16208 -6288,10938 -24810,17226 -48657,16440 24910,13418 35350,29117 33777,40908 -1173,9089 -9144,14758 -20758,14758 -10883,0 -23792,-4606 -37597,-13186 13407,21711 15211,38550 11281,48082 -2745,6632 -8248,10440 -15156,10440 -11558,0 -26084,-10783 -38594,-34010 553,18577 -2701,33556 -9765,42756 -4096,5336 -9311,8248 -14758,8248 -5447,0 -10639,-2889 -14746,-8060 -7075,-9211 -10319,-24190 -9765,-42756 -12510,23227 -27047,33999 -38605,33999l0 0c-6897,0 -12400,-3808 -15145,-10429 -3930,-9532 -2126,-26371 11281,-48093 -13805,8525 -26659,13131 -37542,13131l0 0c-11614,0 -19585,-5669 -20758,-14747 -1572,-11846 8868,-27501 33789,-40908 -1296,44 -2524,-122 -3820,44 -32549,-44 -47085,-12388 -47085,-24622 0,-12233 14536,-24589 47085,-24589 1229,0 2524,0 3820,56 -24921,-13407 -35361,-29128 -33789,-40908 1173,-9089 9144,-14747 20758,-14747 10828,0 23737,4595 37542,13131 -13407,-21722 -15211,-38550 -11281,-48082 2745,-6632 8248,-10440 15145,-10440 11558,0 26095,10772 38605,33999 -443,-14769 1517,-27268 5890,-36391zm16905 174060l1772 22c24943,0 45214,-19507 46166,-44439 941,-25441 -18998,-46941 -44428,-47894l-1771 -33c-24933,0 -45204,19519 -46145,44440 -963,25441 18954,46941 44406,47904zm-5314 -66094l16020 819 4130 4406 6233 6654 -620 10728 -343 6122 -11459 10518 -14304 -543 -11669 -13385 388 -13739 11 -354 11613 -11226zm-11259 5137l321 -5093 4982 -44 -5303 5137zm15588 -9056l3642 -3255 3665 3631 -7307 -376zm17802 5225l4451 366 -78 4306 -4373 -4672zm2945 33335l0 100 -11 144 -277 4772 -4738 -178 -221 -11 5247 -4827zm-15676 8558l-3244 2790 -2690 -3011 5934 221zm-15411 -4716l-89 -11 -5558 -210 -199 -6499 5846 6720zm-5702 3919l9444 354 5336 5968 -11459 4926 -3321 -11248zm17249 18002c-4561,-177 -8890,-1129 -12931,-2679l13329 -5724 12433 6797c-4063,1185 -8370,1772 -12831,1606zm3487 -11426l6433 -5546 8303 321 -4296 10938 -10440 -5713zm13906 8171l5358 -13673 14359 -4296c-4351,8016 -11315,14371 -19717,17969zm11004 -36712l-4140 4052 387 -6631 89 -1595 3664 4174zm-3332 -10052l432 -7673 11026 5558 -5026 9444 -6432 -7329zm6011 13207l4440 11758 -12090 3620 476 -8325 0 -45 7174 -7008zm10928 -2114c-166,4428 -1074,8657 -2547,12599l-4971 -13164 6145 -11547c1040,3842 1528,7905 1373,12112zm-2890 -16529l-13872 -7008 0 -67 -44 -11 -6134 -14414c9123,4406 16286,12111 20050,21500zm-18688 -7750l-8071 -421 -6333 -6753 9544 -4263 4860 11437zm-17359 -17725c4063,155 7960,919 11613,2181l-12056 5369 -11514 -6210c3797,-1019 7816,-1495 11957,-1340zm-3997 10318l-6189 5979 -22 22 -8082 -211 5812 -10362 8481 4572zm-11359 -7893l-7595 13562 -15411 7661c4517,-9831 12843,-17515 23006,-21223zm-11348 36114l2225 -2348 -144 4861 -2081 -2513zm1904 8790l-288 10119 -10838 -5458 6266 -10230 4860 5569zm-4749 -12300l-5314 -8503 10816 -5380 -255 8812 -5247 5071zm-12444 3908c155,-4284 996,-8381 2380,-12211l7241 11569 -8104 13219c-1130,-3986 -1683,-8215 -1517,-12577zm17149 23260l4096 13850c-8491,-4605 -15156,-12111 -18621,-21179l14525 7329zm-54448 -21732c0,-4783 432,-9433 1262,-13972 -6642,-897 -12942,-1339 -18876,-1339 -27600,0 -37874,9421 -37874,15377 0,5945 10274,15422 37874,15422l0 0c5945,0 12256,-465 18910,-1350 -842,-4584 -1296,-9311 -1296,-14138zm4484 -26028c3200,-8979 7993,-17183 14060,-24290 -24356,-18777 -40310,-20548 -45347,-20548 -3266,0 -10894,620 -11680,6742 -1173,9123 11780,25198 42967,38096zm22884 -33125c7108,-6067 15333,-10872 24312,-14071 -12743,-31055 -28209,-42990 -37022,-42990 -3144,0 -5391,1584 -6675,4728 -3875,9421 1173,28641 19385,52333zm36291 -17282c4572,-841 9256,-1284 14060,-1284 4816,0 9499,443 14072,1284 3598,-26770 -465,-44074 -6599,-52056 -1638,-2137 -4262,-4661 -7462,-4661 -3199,0 -5834,2524 -7461,4661 -6123,7982 -10197,25286 -6610,52056zm40133 3222c8967,3210 17204,8004 24290,14071 18245,-23703 23316,-42923 19396,-52344 -1295,-3144 -3531,-4728 -6675,-4728 -8780,0 -24257,11924 -37011,43001zm33114 22906c6055,7107 10860,15322 14060,24290 31198,-12887 44196,-28984 42978,-38107 -797,-6078 -8425,-6742 -11680,-6742 -5049,0 -21013,1793 -45358,20559zm17293 36335c830,4539 1262,9200 1262,13972 0,4838 -443,9554 -1296,14149 6654,885 12965,1339 18910,1339 22098,0 33722,-6388 36867,-11890 1328,-2358 1328,-4661 0,-7019 -3145,-5491 -14714,-11890 -36867,-11890 -5934,0 -12234,453 -18876,1339zm-3277 40155c-3233,8957 -8038,17171 -14105,24246 24412,18832 40398,20614 45447,20614 3255,0 10883,-620 11680,-6731 1173,-9134 -11802,-25242 -43022,-38129zm-22929 33047c-7118,6045 -15311,10839 -24268,14027 12765,31177 28243,43122 37078,43122 3144,0 5380,-1561 6675,-4705 3886,-9444 -1195,-28696 -19485,-52444zm-36224 17238c-4562,841 -9256,1273 -14050,1273 -4804,0 -9476,-432 -14038,-1273 -3631,26847 443,44207 6588,52200 1627,2126 4262,4661 7461,4661 3200,0 5835,-2524 7462,-4661 6134,-7993 10208,-25341 6577,-52200zm-40033 -3200c-8968,-3188 -17183,-7982 -24290,-14027 -18290,23737 -23394,42989 -19463,52433 1284,3144 3531,4705 6675,4705l0 0c8824,0 24324,-11945 37078,-43111zm-33114 -22828c-6056,-7108 -10861,-15312 -14083,-24257 -31231,12887 -44240,28995 -43022,38129 786,6056 8414,6731 11680,6731l0 0c5049,0 21024,-1771 45425,-20603zm-5657 -50440c0,35660 29094,64777 64777,64777 35682,0 64777,-29017 64777,-64777 0,-35660 -29040,-64755 -64777,-64755 -35749,0 -64777,29006 -64777,64755zm79601 -134282l9886 -40110 0 -22 188 -1030c56,-587 23,-1118 -132,-1428l0 -22c-34,-56 -144,-133 -344,-188l-675 -111c-7905,-797 -15876,-1329 -23725,-1384 -7850,-55 -15766,332 -23604,1384 -166,55 -465,398 -731,852 -376,642 -597,1351 -531,1838l-11 0 0 22 11 0c2214,11625 5524,21224 9001,31343l2458 7207c3852,-4274 8524,-6587 13373,-6587 5447,0 10662,2922 14758,8137l78 99z"/>
 </g>
</svg>
