<?xml version="1.0" encoding="utf-8"?>
<!-- Generator: Adobe Illustrator 18.0.0, SVG Export Plug-In . SVG Version: 6.00 Build 0)  -->
<!DOCTYPE svg PUBLIC "-//W3C//DTD SVG 1.1//EN" "http://www.w3.org/Graphics/SVG/1.1/DTD/svg11.dtd">
<svg version="1.1" id="Layer_1" xmlns="http://www.w3.org/2000/svg" xmlns:xlink="http://www.w3.org/1999/xlink" x="0px" y="0px"
	 width="50px" height="50px" viewBox="0 0 50 50" enable-background="new 0 0 50 50" xml:space="preserve">
<path d="M31.5499287,15.6610727c2.2136326-4.400857,4.6653118-8.5165749,7.8057194-12.3313208
	c0.3848076-0.4673169-0.2810364-1.1410785-0.6693115-0.6693704c-2.3109322,2.8071377-4.3530731,5.7833366-6.1294327,8.95714
	c-1.5082664,2.6949301-5.3320827,13.2635288-9.7977104,9.6885643c-3.0699177-2.4576893-3.9169579-7.5799751-5.5830746-11.0052338
	C15.9306335,7.7403159,14.22153,3.791811,11.1213369,3.1420856c-0.5955868-0.1248605-0.8491211,0.7876441-0.2516861,0.9127936
	c2.5880394,0.5424871,3.9557858,3.8362975,5.1025839,5.9686337c1.1491089,2.1364956,1.9765053,4.4109106,2.8644543,6.6616354
	c0.9512749,2.4108315,2.3543816,5.4351025,4.989336,6.1840916c-0.4220181,0.7906494-0.0681782,2.0990562,0.7143803,2.589716
	c-1.1752262,3.8698101-6.6873474,7.4731998-5.4656658,11.9130573c1.1241493,4.0847473,5.5135078,7.5988693,8.7394276,10.0565033
	c0.2727165,0.2077141,0.7515888-0.0704346,0.7122993-0.4087296c-0.3725586-3.2053528,2.0273514-5.4987755,3.2901707-8.2095375
	c0.7291737-1.5657539,1.1844692-3.5779686,0.890028-5.3075829c-0.6018257-3.536829-3.5820694-7.0396271-6.9669971-8.3164291
	c0.1629372-0.2432499,0.2606983-0.5430641,0.2639351-0.7953281c0.0060081-0.4546051-0.219099-1.0254631-0.5764046-1.4027023
	C28.3568268,22.4833927,30.4999676,17.7486305,31.5499287,15.6610727z M24.803648,37.5744133
	c-2.2106266-1.0707626-0.8985806-3.6122894-0.0189514-4.9988136c0.9078236-1.4310131,1.9090195-3.1185646,1.7705803-4.6579723
	c0.9080563,1.6178131,1.1040421,3.4970188,1.0742283,5.4108334C27.6119404,34.4645729,27.1568718,38.7144508,24.803648,37.5744133z
	 M24.9920063,24.6471024c-0.0760365,0.0904236-0.3494473-0.6419258-0.3626213-0.6946774
	c-0.0171013-0.0685844-0.0455284-0.2496643-0.0404453-0.4173393C24.8917027,23.644289,25.1995487,24.4006157,24.9920063,24.6471024z
	 M20.1069031,35.105629c0.627018-3.2126865,3.5827637-5.3898602,4.9458866-8.3350887
	c1.5205135,1.5095921,0.1077003,3.4993877-1.1070461,5.4847355c-0.0314312,0.0198746-0.0642509,0.0327606-0.0940647,0.062748
	c-1.6799831,1.6874924-3.2575817,3.3328667-3.6220531,5.2081451C20.0119152,36.7283554,19.9483585,35.9180603,20.1069031,35.105629z
	 M31.4491634,37.0654945c-0.8334064,3.2755547-3.7537899,5.5892563-3.8970833,8.9785194
	c-1.6940804-1.3063278-3.8168831-3.0391769-5.3803844-4.9869118c-0.0013866-0.0017319-0.0011559-0.0034065-0.0025425-0.0051422
	c-1.1271534-1.5309143-1.5639629-2.973423-0.6339512-4.7380562c0.3096962-0.5879593,0.7476616-1.1164055,1.2260704-1.6158485
	c-0.106081,0.4030685-0.1439838,0.7967186-0.0832005,1.1763268c0.1248016,0.7801323,0.6431961,1.8630257,1.4128132,2.4619064
	c1.2309246,1.3661842,3.2603569,1.4018936,4.6932774,0.2812691c1.4301453-1.1184883,2.3072319-2.8424416,2.8489685-4.6174126
	C31.7519245,35.0157852,31.7070885,36.0513,31.4491634,37.0654945z M31.1574936,31.9503746
	c-0.2791882,1.424427-0.7428074,2.7614326-1.413044,4.0603065c-0.639267,1.2391281-1.9998493,2.5018311-3.3507233,2.4708633
	c1.7458515-0.8692856,2.0379829-3.2697182,2.1824303-5.1530838c0.1737995-2.2672482-0.2983704-4.6328964-1.5884609-6.4957504
	C28.9193649,28.0004826,30.4065971,29.8505669,31.1574936,31.9503746z"/>
</svg>
