<?xml version="1.0" encoding="utf-8"?>
<!-- Generator: Adobe Illustrator 18.0.0, SVG Export Plug-In . SVG Version: 6.00 Build 0)  -->
<!DOCTYPE svg PUBLIC "-//W3C//DTD SVG 1.1//EN" "http://www.w3.org/Graphics/SVG/1.1/DTD/svg11.dtd">
<svg version="1.1" id="Layer_1" xmlns="http://www.w3.org/2000/svg" xmlns:xlink="http://www.w3.org/1999/xlink" x="0px" y="0px"
	 width="50px" height="50px" viewBox="0 0 50 50" enable-background="new 0 0 50 50" xml:space="preserve">
<g>
	<path d="M32.7613792,7.6742563c0-3.2137866-2.6147671-5.8285527-5.8285522-5.8285527s-5.8285561,2.6145172-5.8285561,5.8285527
		s2.6147671,5.8285522,5.8285542,5.8285522C30.1466084,13.5028086,32.7613792,10.8880434,32.7613792,7.6742563z
		 M22.1929169,7.6742563c0-2.6138282,2.1264324-4.7399082,4.7399082-4.7399082c2.6138287,0,4.7399044,2.1264331,4.7399044,4.7399082
		s-2.1264324,4.7399082-4.7399082,4.7399082C24.3193493,12.4141645,22.1929169,10.2877312,22.1929169,7.6742563z"/>
	<path d="M30.4012184,21.460844c0-1.9412479-1.5794182-3.5206661-3.5206661-3.5206661s-3.520668,1.5792675-3.520668,3.5206661
		s1.5794182,3.5206661,3.5206661,3.5206661S30.4012184,23.4020939,30.4012184,21.460844z M24.0174675,21.460844
		c0-1.5788498,1.2844448-2.8630829,2.8630829-2.8630829c1.5788517,0,2.8630829,1.2844448,2.8630829,2.8630829
		s-1.2844467,2.8630848-2.8630848,2.8630848C25.3019123,24.3239288,24.0174675,23.0394821,24.0174675,21.460844z"/>
	<path d="M26.931448,15.2741776c-0.80229,0-1.4526119,0.650321-1.4526119,1.4525547
		c0,0.8022346,0.650322,1.4525547,1.4526119,1.4525547s1.45261-0.6503201,1.45261-1.4525547
		C28.384058,15.9244986,27.7337379,15.2741776,26.931448,15.2741776z M26.931448,17.7028179
		c-0.5390739,0-0.9761372-0.4369583-0.9761372-0.9760857c0-0.5390739,0.4370632-0.9760838,0.9761372-0.9760838
		s0.9761372,0.4370098,0.9761372,0.9760838C27.9075851,17.2658596,27.4705219,17.7028179,26.931448,17.7028179z"/>
	<path d="M30.4369316,32.3322067c0-1.9412479-1.5794182-3.5206661-3.5206661-3.5206661s-3.520668,1.5792675-3.520668,3.5206661
		s1.5794182,3.520668,3.5206661,3.520668S30.4369316,34.2734566,30.4369316,32.3322067z M24.0531807,32.3322067
		c0-1.5788517,1.2844448-2.8630829,2.8630829-2.8630829c1.5788517,0,2.8630829,1.2844448,2.8630829,2.8630829
		c0,1.57864-1.2844467,2.8630829-2.8630848,2.8630829C25.3376255,35.1952896,24.0531807,33.9108467,24.0531807,32.3322067z"/>
	<path d="M26.931448,26.1455402c-0.80229,0-1.4526119,0.6503201-1.4526119,1.4525547s0.650322,1.4525547,1.4526119,1.4525547
		s1.45261-0.6503201,1.45261-1.4525547S27.7337379,26.1455402,26.931448,26.1455402z M26.931448,28.5741806
		c-0.5390739,0-0.9761372-0.4369583-0.9761372-0.9760857c0-0.5390739,0.4370632-0.9760838,0.9761372-0.9760838
		s0.9761372,0.4370098,0.9761372,0.9760838C27.9075851,28.1372223,27.4705219,28.5741806,26.931448,28.5741806z"/>
	<path d="M26.9506054,16.5961628h-0.0000019c-0.3444061,0-0.6236038-0.2791977-0.6236038-0.6236057v-2.76227
		c0-0.344408,0.2791977-0.6236048,0.6236038-0.6236048h0.0000019c0.344408,0,0.6236057,0.2791967,0.6236057,0.6236048v2.76227
		C27.5742111,16.3169651,27.2950134,16.5961628,26.9506054,16.5961628z"/>
	<path d="M26.9506054,27.3663025h-0.0000019c-0.3444061,0-0.6236038-0.2791977-0.6236038-0.6236057v-1.8107719
		c0-0.344408,0.2791977-0.6236057,0.6236038-0.6236057h0.0000019c0.344408,0,0.6236057,0.2791977,0.6236057,0.6236057v1.8107719
		C27.5742111,27.0871048,27.2950134,27.3663025,26.9506054,27.3663025z"/>
	<path d="M30.4369316,43.3250389c0-1.9412498-1.5794182-3.520668-3.5206661-3.520668s-3.520668,1.5792656-3.520668,3.520668
		c0,1.9413986,1.5794182,3.5206642,3.5206661,3.5206642S30.4369316,45.2662849,30.4369316,43.3250389z M24.0531807,43.3250389
		c0-1.5788536,1.2844448-2.8630867,2.8630829-2.8630867c1.5788517,0,2.8630829,1.2844467,2.8630829,2.8630867
		c0,1.5786362-1.2844467,2.8630829-2.8630848,2.8630829C25.3376255,46.1881218,24.0531807,44.9036751,24.0531807,43.3250389z"/>
	<path d="M26.931448,37.1383705c-0.80229,0-1.4526119,0.650322-1.4526119,1.4525566
		c0,0.8022308,0.650322,1.4525528,1.4526119,1.4525528s1.45261-0.650322,1.45261-1.4525528
		C28.384058,37.7886925,27.7337379,37.1383705,26.931448,37.1383705z M26.931448,39.567009
		c-0.5390739,0-0.9761372-0.4369583-0.9761372-0.9760818c0-0.5390778,0.4370632-0.9760857,0.9761372-0.9760857
		s0.9761372,0.4370079,0.9761372,0.9760857C27.9075851,39.1300507,27.4705219,39.567009,26.931448,39.567009z"/>
	<path d="M26.9506054,38.3591309h-0.0000019c-0.3444061,0-0.6236038-0.2791977-0.6236038-0.6236038v-1.8107719
		c0-0.3444099,0.2791977-0.6236076,0.6236038-0.6236076h0.0000019c0.344408,0,0.6236057,0.2791977,0.6236057,0.6236076v1.8107719
		C27.5742111,38.0799332,27.2950134,38.3591309,26.9506054,38.3591309z"/>
	<path d="M27.0587425,4.3761706l-0.1279793-0.0020981c-1.797987,0-3.2602959,1.4077592-3.3284798,3.2057471
		c-0.0692348,1.8357525,1.367897,3.3861761,3.2036495,3.45541l0.1279774,0.0020981
		c1.7990379,0,3.2613449-1.4077597,3.3295288-3.2057476C30.331625,5.9958282,28.8934441,4.4454045,27.0587425,4.3761706z
		 M25.2497387,7.5777221l0.1486969-0.156826l-0.0091801,0.324666L25.2497387,7.5777221z M25.3773232,8.1651621L25.3580494,8.841506
		l-0.7243366-0.3650522l0.4188137-0.6836867L25.3773232,8.1651621z M25.0597382,7.3424835l-0.3556099-0.5682964l0.7231541-0.3598075
		L25.410368,7.0033937L25.0597382,7.3424835z M24.870657,7.5609379L24.3293724,8.444459
		c-0.0757904-0.2667084-0.1128998-0.5488896-0.1018848-0.8407745c0.0107517-0.2861147,0.0666122-0.5601664,0.1591854-0.8161225
		L24.870657,7.5609379z M25.3743076,9.159091l0.2736588,0.9260054c-0.5679035-0.3078814-1.0133343-0.810091-1.2449017-1.4158888
		L25.3743076,9.159091z M25.500843,6.0695205l-1.0295944,0.5121746c0.3014565-0.6577234,0.8578205-1.1706848,1.5377045-1.4187737
		L25.500843,6.0695205z M28.9077377,7.9503794l0.2966042,0.7854395L28.3962173,8.978138l0.0318642-0.556757l0.0002632-0.0026226
		L28.9077377,7.9503794z M28.451685,8.0099106l0.0253067-0.4429412l0.006031-0.106998l0.2457294,0.2792964L28.451685,8.0099106z
		 M28.5055771,7.0671206l0.0293713-0.5132236l0.7369232,0.3716087l-0.3355484,0.6317606L28.5055771,7.0671206z
		 M28.5175095,6.2355251l0.0001297-0.0044584l-0.0030155-0.0002623l-0.4098969-0.9635077
		c0.6093388,0.2939825,1.088995,0.8087802,1.3404922,1.4366074L28.5175095,6.2355251z M28.1955967,6.1862221l-0.5393181-0.0280609
		l-0.4235344-0.4518571l0.6377926-0.2840171L28.1955967,6.1862221z M28.2370319,6.4849248l-0.0048523,0.2876887l-0.2926712-0.312078
		L28.2370319,6.4849248z M25.8127899,6.0776501l0.3882618-0.6923404l0.5665913,0.3055215l-0.4134369,0.3999314l-0.0015736,0.0013113
		L25.8127899,6.0776501z M26.0620594,6.3729439l-0.3550873,0.3435483l0.0215054-0.3404012L26.0620594,6.3729439z
		 M26.9927864,5.8940749l0.2455959,0.2423196l-0.4888344-0.025176L26.9927864,5.8940749z M27.0051117,5.5054202
		l-0.7694416-0.4151421c0.2543812-0.0679231,0.5227947-0.0999174,0.7993374-0.0894275
		c0.2714291,0.0104899,0.5318432,0.0613666,0.776392,0.1455488L27.0051117,5.5054202z M25.6825829,7.1471071l0.0006561-0.023603
		l0.7766533-0.7505603l1.0709,0.055335l0.2756252,0.2939825l0.4169769,0.4447765l-0.041172,0.7169924l-0.0234718,0.4096346
		l-0.7661648,0.7028313l-0.9560337-0.036191l-0.7801933-0.8947983L25.6825829,7.1471071z M27.4930286,9.2765789l0.5545273,0.0209799
		l-0.2871628,0.7311544l-0.6970615-0.3815746L27.4930286,9.2765789z M26.8717575,9.4478283l-0.1802979-0.2016697
		l0.3965225,0.0149479L26.8717575,9.4478283z M27.7999916,9.0117064l-0.0150795-0.0005245l0.351284-0.3220434l-0.0003929,0.0062943
		L28.1352787,8.704874l-0.0183563,0.3188963L27.7999916,9.0117064z M26.0577316,8.9458818l-0.0056381-0.0002623
		l-0.3720016-0.0141621l-0.0133743-0.4342861L26.0577316,8.9458818z M26.3079185,9.2317343l0.357317,0.3994074l-0.7661648,0.3293867
		l-0.2223873-0.7526588L26.3079185,9.2317343z M26.8570709,9.8493338l0.8306789,0.4542179
		c-0.2716923,0.0794611-0.5595112,0.1190615-0.8575592,0.107522c-0.304472-0.0115385-0.5943909-0.0752659-0.8642464-0.1788549
		L26.8570709,9.8493338z M27.9924831,10.1934061l0.3584976-0.9136801L29.3109474,8.9923
		C29.0197182,9.5283394,28.554224,9.9531851,27.9924831,10.1934061z M29.1352386,7.7710004l0.410553-0.7723269
		c0.069891,0.2575297,0.102541,0.5292211,0.0920506,0.8098288c-0.0112762,0.2963428-0.0717258,0.5790482-0.1702003,0.8426104
		L29.1352386,7.7710004z"/>
	<path d="M27.056179,41.3326721l-0.0797329-0.0013084c-1.1201992,0-2.0312614,0.8770752-2.0737419,1.9972763
		c-0.0431347,1.1437263,0.8522396,2.1096878,1.9959679,2.1528206l0.0797348,0.0013084
		c1.1208534,0,2.0319138-0.8770752,2.0743942-1.9972763C29.0952835,42.3417664,28.1992531,41.3758087,27.056179,41.3326721z
		 M25.9291172,43.3273315l0.0926437-0.0977058l-0.0057201,0.2022781L25.9291172,43.3273315z M26.0086079,43.693325
		l-0.0120106,0.4213829l-0.4512806-0.2274399l0.2609329-0.4259567L26.0086079,43.693325z M25.8107414,43.1807709
		l-0.2215557-0.3540649l0.4505463-0.2241707l-0.0105381,0.3669739L25.8107414,43.1807709z M25.6929379,43.3168755
		l-0.3372364,0.5504608c-0.0472183-0.1661682-0.0703392-0.3419762-0.0634766-0.5238266
		c0.0066986-0.1782608,0.041502-0.3490028,0.0991783-0.5084686L25.6929379,43.3168755z M26.0067291,44.3125725l0.170496,0.5769272
		c-0.3538208-0.1918182-0.6313381-0.5047073-0.77561-0.8821373L26.0067291,44.3125725z M26.0855637,42.3876801l-0.641468,0.3190994
		c0.1878166-0.4097824,0.5344486-0.7293701,0.9580364-0.8839378L26.0855637,42.3876801z M28.2081585,43.5595093l0.1847935,0.4893532
		l-0.5034847,0.1509705l0.0198517-0.3468742l0.000164-0.0016365L28.2081585,43.5595093z M27.9240246,43.5965996l0.0157661-0.2759666
		l0.0037575-0.0666618l0.1530972,0.1740112L27.9240246,43.5965996z M27.9576015,43.0092125l0.0182991-0.3197517l0.4591255,0.2315216
		l-0.2090588,0.3936081L27.9576015,43.0092125z M27.9650345,42.4911041l0.000082-0.0027771l-0.0018787-0.000164
		l-0.2553787-0.6002922c0.3796368,0.1831589,0.6784763,0.5038948,0.8351669,0.8950462L27.9650345,42.4911041z
		 M27.7644749,42.4603882l-0.3360119-0.0174828l-0.2638741-0.2815208l0.3973637-0.1769524L27.7644749,42.4603882z
		 M27.7902889,42.6464882l-0.0030212,0.1792374l-0.1823444-0.1944313L27.7902889,42.6464882z M26.2799149,42.392746
		l0.2418995-0.4313507l0.3530025,0.1903496l-0.2575836,0.2491684l-0.0009804,0.0008163L26.2799149,42.392746z
		 M26.4352169,42.5767212L26.2139874,42.79076l0.0133991-0.2120781L26.4352169,42.5767212z M27.0150871,42.2783699
		l0.1530151,0.1509743l-0.3045578-0.015686L27.0150871,42.2783699z M27.0227661,42.0362282l-0.4793854-0.2586479
		c0.1584892-0.0423164,0.3257179-0.0622482,0.4980125-0.0557137c0.1691074,0.0065346,0.3313541,0.0382347,0.4837151,0.0906792
		L27.0227661,42.0362282z M26.1987934,43.0590477l0.0004082-0.0147057l0.4838772-0.4676208l0.667202,0.0344734l0.1717224,0.1831627
		l0.2597904,0.2771072l-0.0256519,0.4467087l-0.0146236,0.2552147l-0.4773426,0.4378815l-0.5956383-0.0225449l-0.486084-0.5574875
		L26.1987934,43.0590477z M27.3267536,44.3857727l0.3454876,0.0130692l-0.1789131,0.4555321l-0.434288-0.2377319
		L27.3267536,44.3857727z M26.9396839,44.492466l-0.1123314-0.1256485l0.2470455,0.0093155L26.9396839,44.492466z
		 M27.5180016,44.2207489l-0.0093956-0.0003281l0.2188606-0.2006416l-0.000246,0.0039215l-0.0003262,0.0058823l-0.0114365,0.1986809
		L27.5180016,44.2207489z M26.4325218,44.1797371l-0.0035133-0.000164l-0.2317677-0.0088234l-0.0083332-0.2705727
		L26.4325218,44.1797371z M26.5883961,44.35783l0.2226181,0.2488441l-0.4773426,0.2052155l-0.1385555-0.4689255L26.5883961,44.35783
		z M26.9305325,44.7426147l0.5175381,0.2829895c-0.1692715,0.0495071-0.3485928,0.0741806-0.5342846,0.0669899
		c-0.1896954-0.0071869-0.3703232-0.0468941-0.5384502-0.1114311L26.9305325,44.7426147z M27.637928,44.9569817l0.2233543-0.5692482
		l0.5980873-0.1790771C28.2779255,44.5426254,27.9879093,44.8073158,27.637928,44.9569817z M28.3498993,43.4477501
		l0.2557869-0.4811821c0.0435429,0.16045,0.0638847,0.3297195,0.0573502,0.5045471
		c-0.0070267,0.1846313-0.0446873,0.3607635-0.106041,0.524971L28.3498993,43.4477501z"/>
	<path d="M27.056179,30.1576405l-0.0797329-0.0013065c-1.1201992,0-2.0312614,0.8770752-2.0737419,1.9972725
		c-0.0431347,1.1437302,0.8522396,2.1096878,1.9959679,2.1528244l0.0797348,0.0013084
		c1.1208534,0,2.0319138-0.877079,2.0743942-1.9972763C29.0952835,31.1667347,28.1992531,30.2007751,27.056179,30.1576405z
		 M25.9291172,32.1523018l0.0926437-0.0977058l-0.0057201,0.2022743L25.9291172,32.1523018z M26.0086079,32.5182953
		l-0.0120106,0.4213791l-0.4512806-0.2274361l0.2609329-0.4259567L26.0086079,32.5182953z M25.8107414,32.0057411
		l-0.2215557-0.3540649l0.4505463-0.2241707l-0.0105381,0.366972L25.8107414,32.0057411z M25.6929379,32.1418457
		l-0.3372364,0.550457c-0.0472183-0.1661644-0.0703392-0.3419724-0.0634766-0.5238266
		c0.0066986-0.178257,0.041502-0.348999,0.0991783-0.5084686L25.6929379,32.1418457z M26.0067291,33.1375389l0.170496,0.576931
		c-0.3538208-0.1918182-0.6313381-0.5047112-0.77561-0.8821411L26.0067291,33.1375389z M26.0855637,31.2126465l-0.641468,0.3191013
		c0.1878166-0.4097824,0.5344486-0.729372,0.9580364-0.8839378L26.0855637,31.2126465z M28.2081585,32.3844795l0.1847935,0.4893494
		l-0.5034847,0.1509743l0.0198517-0.3468781l0.000164-0.0016327L28.2081585,32.3844795z M27.9240246,32.421566l0.0157661-0.2759628
		l0.0037575-0.0666656l0.1530972,0.1740112L27.9240246,32.421566z M27.9576015,31.8341808l0.0182991-0.3197536l0.4591255,0.2315235
		l-0.2090588,0.3936062L27.9576015,31.8341808z M27.9650345,31.3160725l0.000082-0.0027771l-0.0018787-0.000164
		l-0.2553787-0.6002922c0.3796368,0.1831589,0.6784763,0.5038929,0.8351669,0.8950481L27.9650345,31.3160725z
		 M27.7644749,31.2853565l-0.3360119-0.0174828l-0.2638741-0.2815208l0.3973637-0.1769505L27.7644749,31.2853565z
		 M27.7902889,31.4714565l-0.0030212,0.1792393l-0.1823444-0.1944351L27.7902889,31.4714565z M26.2799149,31.2177124
		l0.2418995-0.4313488l0.3530025,0.1903496l-0.2575836,0.2491684l-0.0009804,0.0008163L26.2799149,31.2177124z
		 M26.4352169,31.4016895l-0.2212296,0.2140408l0.0133991-0.21208L26.4352169,31.4016895z M27.0150871,31.1033401
		l0.1530151,0.1509724l-0.3045578-0.015686L27.0150871,31.1033401z M27.0227661,30.8611965l-0.4793854-0.258646
		c0.1584892-0.0423183,0.3257179-0.062252,0.4980125-0.0557156c0.1691074,0.0065346,0.3313541,0.0382328,0.4837151,0.0906811
		L27.0227661,30.8611965z M26.1987934,31.884016l0.0004082-0.0147057l0.4838772-0.4676208l0.667202,0.0344753l0.1717224,0.1831589
		l0.2597904,0.2771091l-0.0256519,0.4467068l-0.0146236,0.2552147l-0.4773426,0.4378853l-0.5956383-0.0225487l-0.486084-0.5574837
		L26.1987934,31.884016z M27.3267536,33.2107391l0.3454876,0.013073l-0.1789131,0.4555283l-0.434288-0.2377319
		L27.3267536,33.2107391z M26.9396839,33.3174324l-0.1123314-0.1256447l0.2470455,0.0093117L26.9396839,33.3174324z
		 M27.5180016,33.0457153l-0.0093956-0.0003281l0.2188606-0.2006416l-0.000246,0.0039215l-0.0003262,0.0058823l-0.0114365,0.1986809
		L27.5180016,33.0457153z M26.4325218,33.0047035l-0.0035133-0.0001602l-0.2317677-0.0088234l-0.0083332-0.2705765
		L26.4325218,33.0047035z M26.5883961,33.1828003l0.2226181,0.2488403l-0.4773426,0.2052193l-0.1385555-0.4689293
		L26.5883961,33.1828003z M26.9305325,33.5675812l0.5175381,0.2829933
		c-0.1692715,0.0495071-0.3485928,0.0741768-0.5342846,0.0669899c-0.1896954-0.0071907-0.3703232-0.0468941-0.5384502-0.1114349
		L26.9305325,33.5675812z M27.637928,33.7819481l0.2233543-0.5692482l0.5980873-0.1790733
		C28.2779255,33.3675919,27.9879093,33.6322861,27.637928,33.7819481z M28.3498993,32.2727203l0.2557869-0.481184
		c0.0435429,0.16045,0.0638847,0.3297215,0.0573502,0.504549c-0.0070267,0.1846275-0.0446873,0.3607635-0.106041,0.524971
		L28.3498993,32.2727203z"/>
	<path d="M27.056179,19.2741318l-0.0797329-0.0013084c-1.1201992,0-2.0312614,0.8770771-2.0737419,1.9972763
		c-0.0431347,1.1437263,0.8522396,2.1096859,1.9959679,2.1528206l0.0797348,0.0013084
		c1.1208534,0,2.0319138-0.8770771,2.0743942-1.9972763C29.0952835,20.283226,28.1992531,19.3172665,27.056179,19.2741318z
		 M25.9291172,21.2687912l0.0926437-0.0977058l-0.0057201,0.2022762L25.9291172,21.2687912z M26.0086079,21.6347847
		l-0.0120106,0.421381l-0.4512806-0.227438l0.2609329-0.4259567L26.0086079,21.6347847z M25.8107414,21.1222305
		l-0.2215557-0.3540649l0.4505463-0.2241707l-0.0105381,0.3669739L25.8107414,21.1222305z M25.6929379,21.2583351
		l-0.3372364,0.5504589c-0.0472183-0.1661663-0.0703392-0.3419743-0.0634766-0.5238266
		c0.0066986-0.1782589,0.041502-0.3490009,0.0991783-0.5084686L25.6929379,21.2583351z M26.0067291,22.2540321l0.170496,0.5769291
		c-0.3538208-0.1918201-0.6313381-0.5047112-0.77561-0.8821411L26.0067291,22.2540321z M26.0855637,20.3291378l-0.641468,0.3190994
		c0.1878166-0.4097805,0.5344486-0.7293701,0.9580364-0.8839378L26.0855637,20.3291378z M28.2081585,21.5009689l0.1847935,0.4893513
		l-0.5034847,0.1509724l0.0198517-0.3468761l0.000164-0.0016346L28.2081585,21.5009689z M27.9240246,21.5380573l0.0157661-0.2759647
		l0.0037575-0.0666618l0.1530972,0.1740093L27.9240246,21.5380573z M27.9576015,20.9506721l0.0182991-0.3197536l0.4591255,0.2315235
		l-0.2090588,0.3936062L27.9576015,20.9506721z M27.9650345,20.4325638l0.000082-0.0027771l-0.0018787-0.000164
		l-0.2553787-0.6002941c0.3796368,0.1831608,0.6784763,0.5038948,0.8351669,0.8950481L27.9650345,20.4325638z
		 M27.7644749,20.4018459l-0.3360119-0.0174828l-0.2638741-0.2815189l0.3973637-0.1769524L27.7644749,20.4018459z
		 M27.7902889,20.5879478l-0.0030212,0.1792374l-0.1823444-0.1944332L27.7902889,20.5879478z M26.2799149,20.3342037
		l0.2418995-0.4313488l0.3530025,0.1903477l-0.2575836,0.2491703l-0.0009804,0.0008163L26.2799149,20.3342037z
		 M26.4352169,20.5181789l-0.2212296,0.2140408l0.0133991-0.21208L26.4352169,20.5181789z M27.0150871,20.2198296
		l0.1530151,0.1509724l-0.3045578-0.0156841L27.0150871,20.2198296z M27.0227661,19.9776859l-0.4793854-0.2586441
		c0.1584892-0.0423183,0.3257179-0.062252,0.4980125-0.0557175c0.1691074,0.0065365,0.3313541,0.0382347,0.4837151,0.0906811
		L27.0227661,19.9776859z M26.1987934,21.0005054l0.0004082-0.0147038l0.4838772-0.4676228l0.667202,0.0344753l0.1717224,0.1831608
		l0.2597904,0.2771091l-0.0256519,0.4467068l-0.0146236,0.2552147l-0.4773426,0.4378834l-0.5956383-0.0225468l-0.486084-0.5574856
		L26.1987934,21.0005054z M27.3267536,22.3272305l0.3454876,0.0130711l-0.1789131,0.4555302l-0.434288-0.2377319
		L27.3267536,22.3272305z M26.9396839,22.4339237l-0.1123314-0.1256466l0.2470455,0.0093136L26.9396839,22.4339237z
		 M27.5180016,22.1622066l-0.0093956-0.0003262l0.2188606-0.2006435l-0.000246,0.0039215l-0.0003262,0.0058823l-0.0114365,0.1986809
		L27.5180016,22.1622066z M26.4325218,22.1211948l-0.0035133-0.0001621l-0.2317677-0.0088234l-0.0083332-0.2705727
		L26.4325218,22.1211948z M26.5883961,22.2992897l0.2226181,0.2488422l-0.4773426,0.2052174l-0.1385555-0.4689274
		L26.5883961,22.2992897z M26.9305325,22.6840725l0.5175381,0.2829914
		c-0.1692715,0.0495071-0.3485928,0.0741787-0.5342846,0.0669899c-0.1896954-0.0071888-0.3703232-0.0468922-0.5384502-0.1114311
		L26.9305325,22.6840725z M27.637928,22.8984394l0.2233543-0.5692482l0.5980873-0.1790752
		C28.2779255,22.4840832,27.9879093,22.7487755,27.637928,22.8984394z M28.3498993,21.3892097l0.2557869-0.4811821
		c0.0435429,0.1604481,0.0638847,0.3297195,0.0573502,0.5045471c-0.0070267,0.1846294-0.0446873,0.3607635-0.106041,0.524971
		L28.3498993,21.3892097z"/>
	<path fill="none" stroke="#000000" stroke-miterlimit="10" d="M16.7737045,18.6611137"/>
</g>
</svg>
