<?xml version="1.0" encoding="UTF-8"?>
<!DOCTYPE svg PUBLIC "-//W3C//DTD SVG 1.1//EN" "http://www.w3.org/Graphics/SVG/1.1/DTD/svg11.dtd">
<!-- Creator: CorelDRAW X7 -->
<svg xmlns="http://www.w3.org/2000/svg" xml:space="preserve" width="50px" height="50px" version="1.1" style="shape-rendering:geometricPrecision; text-rendering:geometricPrecision; image-rendering:optimizeQuality; fill-rule:evenodd; clip-rule:evenodd"
viewBox="0 0 142722 142722"
 xmlns:xlink="http://www.w3.org/1999/xlink">
 <defs>
  <style type="text/css">
   <![CDATA[
    .fil2 {fill:none}
    .fil0 {fill:black}
    .fil1 {fill:black;fill-rule:nonzero}
   ]]>
  </style>
 </defs>
 <g id="Layer_x0020_1">
  <metadata id="CorelCorpID_0Corel-Layer"/>
  <path class="fil0" d="M51216 137641l236 -24c3318,-388 5708,-3294 5448,-6621 -269,-3396 -3253,-5944 -6648,-5675l-236 24c-3314,384 -5708,3294 -5445,6621 266,3396 3247,5941 6645,5675zm-1729 -8699l2140 -141 617 522 934 789 85 1433 47 819 -1359 1575 -1911 152 -1760 -1599 -159 -1830 -3 -47 1369 -1673zm-1420 857l-37 -681 664 -85 -627 766zm1932 -1447l435 -489 543 425 -978 64zm2448 418l600 -20 54 573 -654 -553zm910 4387l0 13 0 17 41 641 -634 47 -31 3 624 -721zm-1952 1379l-388 421 -404 -357 792 -64zm-2124 -388l-10 0 -742 57 -128 -860 880 803zm-695 610l1261 -101 803 711 -1450 833 -614 -1443zm2573 2124c-610,47 -1200,-13 -1763,-155l1685 -968 1757 712c-523,219 -1086,364 -1679,411zm286 -1574l769 -833 1109 -88 -401 1521 -1477 -600zm1976 873l499 -1902 1841 -792c-452,1133 -1281,2084 -2340,2694zm894 -5051l-489 604 -51 -887 -13 -216 553 499zm-601 -1284l-60 -1025 1551 566 -520 1335 -971 -876zm1005 1662l772 1494 -1551 670 -67 -1116 0 -3 846 -1045zm1420 -452c47,594 -11,1170 -142,1716l-867 -1672 638 -1632c199,496 327,1029 371,1588zm-641 -2151l-1952 -715 0 -10 -7 0 -1038 -1820c1281,445 2353,1358 2997,2545zm-2603 -738l-1079 71 -947 -803 1204 -711 822 1443zm-2586 -2087c543,-41 1076,0 1578,108l-1517 903 -1629 -647c493,-196 1019,-320 1568,-364zm-371 1433l-728 890 -3 3 -1076 98 610 -1467 1197 476zm-1631 -873l-799 1921 -1929 1254c445,-1375 1436,-2525 2728,-3175zm-948 4976l260 -347 54 647 -314 -300zm388 1139l118 1349 -1524 -560 674 -1456 732 667zm-819 -1564l-840 -1045 1355 -883 102 1176 -617 752zm-1598 715c-44,-573 3,-1130 128,-1659l1143 1423 -874 1881c-212,-509 -350,-1062 -397,-1645zm2643 2825l758 1777c-1200,-479 -2201,-1376 -2805,-2525l2047 748z"/>
  <path class="fil0" d="M65579 128251l236 -23c3317,-388 5708,-3294 5448,-6622 -270,-3395 -3253,-5944 -6649,-5678l-236 27c-3314,385 -5707,3294 -5445,6619 267,3398 3247,5943 6646,5677zm-1730 -8698l2141 -142 617 523 930 789 88 1432 47 820 -1362 1574 -1908 152 -1760 -1598 -158 -1834 -7 -47 1372 -1669zm-1419 856l-37 -681 664 -84 -627 765zm1932 -1446l434 -489 543 425 -977 64zm2447 418l600 -20 54 573 -654 -553zm911 4386l0 14 0 16 40 638 -634 50 -30 4 624 -722zm-1953 1379l-387 421 -405 -357 792 -64zm-2124 -388l-10 0 -741 58 -129 -860 880 802zm-697 611l1260 -102 806 712 -1449 832 -617 -1442zm2575 2124c-610,47 -1200,-14 -1763,-156l1686 -967 1756 711c-522,219 -1085,364 -1679,412zm287 -1575l769 -833 1109 -87 -401 1520 -1477 -600zm1972 873l503 -1901 1840 -793c-455,1133 -1281,2084 -2343,2694zm897 -5050l-489 603 -50 -886 -14 -216 553 499zm-600 -1285l-61 -1025 1551 567 -522 1335 -968 -877zm1005 1662l772 1494 -1551 668 -68 -1113 0 -7 847 -1042zm1419 -451c47,593 -10,1170 -145,1716l-863 -1673 637 -1631c199,495 327,1028 371,1588zm-641 -2151l-1952 -715 0 -10 -6 0 -1039 -1821c1278,445 2353,1355 2997,2546zm-2602 -739l-1083 68 -944 -799 1201 -712 826 1443zm-2586 -2087c543,-44 1072,0 1578,108l-1518 904 -1628 -648c489,-195 1015,-320 1568,-364zm-371 1433l-728 890 -4 4 -1079 97 614 -1466 1197 475zm-1632 -873l-799 1918 -1928 1258c445,-1376 1432,-2525 2727,-3176zm-951 4976l260 -347 57 647 -317 -300zm391 1140l118 1348 -1523 -559 674 -1457 731 668zm-822 -1565l-840 -1045 1356 -883 104 1173 -620 755zm-1595 715c-44,-573 3,-1129 128,-1659l1143 1423 -873 1882c-213,-513 -351,-1066 -398,-1646zm2643 2826l759 1776c-1200,-482 -2205,-1375 -2805,-2525l2046 749z"/>
  <path class="fil0" d="M78495 116330l236 -24c3314,-388 5708,-3294 5448,-6622 -270,-3398 -3253,-5944 -6648,-5677l-236 23c-3315,388 -5708,3294 -5449,6622 267,3395 3250,5944 6649,5678zm-1733 -8702l2144 -138 617 519 931 789 84 1436 50 819 -1362 1575 -1908 148 -1760 -1598 -162 -1831 -3 -47 1369 -1672zm-1416 856l-37 -681 664 -81 -627 762zm1932 -1443l435 -489 542 425 -977 64zm2447 418l597 -20 57 573 -654 -553zm911 4383l0 14 0 20 37 637 -634 51 -27 3 624 -725zm-1956 1382l-384 422 -408 -361 792 -61zm-2120 -387l-11 0 -745 57 -124 -860 880 803zm-698 607l1261 -98 802 711 -1446 833 -617 -1446zm2572 2124c-607,47 -1197,-11 -1760,-152l1686 -971 1756 711c-522,223 -1085,368 -1682,412zm290 -1572l769 -836 1106 -87 -402 1520 -1473 -597zm1972 870l503 -1898 1841 -795c-456,1132 -1282,2086 -2344,2693zm897 -5047l-489 600 -54 -886 -10 -213 553 499zm-600 -1284l-61 -1029 1551 570 -522 1332 -968 -873zm1005 1662l772 1493 -1551 668 -67 -1113 0 -6 846 -1042zm1419 -452c44,593 -10,1167 -145,1716l-863 -1675 637 -1629c199,496 327,1028 371,1588zm-640 -2151l-1956 -718 0 -7 -7 0 -1038 -1820c1281,441 2353,1355 3001,2545zm-2607 -738l-1078 67 -948 -799 1204 -715 822 1447zm-2582 -2087c543,-44 1072,-4 1578,108l-1521 900 -1625 -647c489,-193 1015,-321 1568,-361zm-371 1433l-728 890 -4 3 -1078 94 613 -1463 1197 476zm-1632 -874l-799 1919 -1932 1257c449,-1375 1437,-2525 2731,-3176zm-951 4977l260 -348 57 648 -317 -300zm392 1136l118 1349 -1524 -557 674 -1456 732 664zm-823 -1561l-840 -1049 1356 -880 104 1174 -620 755zm-1595 711c-44,-569 4,-1129 128,-1658l1143 1426 -873 1881c-212,-513 -351,-1065 -398,-1649zm2640 2826l762 1780c-1200,-482 -2205,-1376 -2805,-2529l2043 749z"/>
  <path class="fil0" d="M87901 101829l236 -27c3318,-384 5708,-3294 5449,-6622 -267,-3395 -3251,-5944 -6649,-5674l-236 24c-3314,387 -5705,3294 -5445,6621 266,3395 3247,5944 6645,5678zm-1729 -8702l2141 -138 617 519 933 789 85 1433 47 822 -1359 1575 -1911 148 -1760 -1598 -159 -1831 -3 -47 1369 -1672zm-1420 856l-33 -681 660 -84 -627 765zm1932 -1443l435 -488 546 424 -981 64zm2451 418l597 -20 57 573 -654 -553zm907 4383l0 14 4 20 37 637 -634 51 -31 0 624 -722zm-1952 1379l-388 422 -404 -358 792 -64zm-2121 -387l-13 0 -742 60 -128 -859 883 799zm-698 610l1261 -98 803 708 -1447 833 -617 -1443zm2573 2124c-610,47 -1200,-10 -1760,-155l1682 -968 1757 712c-519,219 -1086,364 -1679,411zm287 -1571l768 -836 1109 -88 -401 1521 -1476 -597zm1975 870l499 -1902 1844 -792c-455,1133 -1281,2087 -2343,2694zm894 -5051l-489 604 -51 -887 -13 -212 553 495zm-600 -1284l-61 -1025 1551 566 -520 1335 -970 -876zm1004 1665l772 1490 -1551 671 -67 -1116 0 -3 846 -1042zm1420 -452c47,590 -7,1167 -142,1713l-866 -1672 637 -1629c199,493 327,1029 371,1588zm-641 -2151l-1952 -718 0 -10 -7 0 -1038 -1817c1281,442 2353,1355 2997,2545zm-2603 -741l-1079 70 -947 -802 1204 -711 822 1443zm-2582 -2087c542,-41 1072,0 1578,111l-1521 900 -1628 -647c492,-196 1018,-321 1571,-364zm-371 1436l-732 890 -3 3 -1076 95 611 -1467 1200 479zm-1635 -877l-799 1922 -1929 1258c449,-1379 1436,-2526 2728,-3180zm-948 4977l260 -344 54 647 -314 -303zm388 1139l118 1349 -1524 -557 674 -1456 732 664zm-819 -1561l-840 -1048 1356 -884 101 1177 -617 755zm-1595 712c-47,-570 3,-1130 125,-1659l1143 1426 -870 1881c-216,-512 -354,-1065 -398,-1648zm2640 2825l758 1777c-1200,-479 -2201,-1376 -2805,-2526l2047 749z"/>
  <path class="fil0" d="M93316 85572l236 -24c3317,-388 5708,-3294 5448,-6622 -270,-3398 -3253,-5944 -6648,-5677l-236 23c-3315,388 -5708,3294 -5449,6622 270,3395 3250,5944 6649,5678zm-1730 -8702l2141 -138 617 519 931 789 84 1436 51 819 -1363 1575 -1908 148 -1760 -1598 -162 -1831 -3 -47 1372 -1672zm-1419 856l-37 -681 664 -81 -627 762zm1932 -1443l435 -489 542 425 -977 64zm2447 418l597 -20 57 573 -654 -553zm911 4383l0 14 0 20 37 637 -631 51 -30 3 624 -725zm-1952 1382l-388 422 -405 -361 793 -61zm-2124 -387l-11 0 -741 57 -128 -860 880 803zm-698 607l1261 -98 802 711 -1446 833 -617 -1446zm2576 2124c-611,47 -1201,-11 -1764,-152l1686 -971 1757 711c-523,223 -1086,368 -1679,412zm286 -1572l769 -836 1109 -87 -405 1520 -1473 -597zm1972 870l503 -1898 1841 -795c-456,1132 -1282,2086 -2344,2693zm897 -5047l-489 600 -50 -886 -14 -213 553 499zm-600 -1284l-61 -1029 1551 570 -522 1332 -968 -873zm1005 1662l772 1490 -1551 671 -67 -1113 0 -6 846 -1042zm1419 -452c47,593 -10,1167 -145,1713l-863 -1672 637 -1629c199,496 327,1028 371,1588zm-640 -2151l-1952 -718 0 -7 -7 0 -1039 -1820c1278,441 2354,1355 2998,2545zm-2603 -738l-1082 67 -948 -799 1204 -715 826 1447zm-2586 -2087c543,-44 1072,-4 1578,108l-1517 900 -1629 -648c489,-192 1015,-320 1568,-360zm-371 1433l-728 890 -4 3 -1078 94 613 -1466 1197 479zm-1632 -874l-799 1919 -1928 1257c445,-1375 1433,-2525 2727,-3176zm-951 4977l260 -348 57 648 -317 -300zm392 1136l118 1348 -1524 -556 674 -1456 732 664zm-823 -1561l-840 -1049 1356 -880 104 1174 -620 755zm-1595 711c-44,-569 4,-1129 128,-1658l1143 1426 -873 1881c-212,-513 -351,-1065 -398,-1649zm2643 2826l759 1780c-1200,-482 -2205,-1376 -2805,-2529l2046 749z"/>
  <path class="fil0" d="M94634 68576l236 -24c3318,-384 5708,-3294 5448,-6621 -269,-3395 -3253,-5944 -6648,-5674l-236 23c-3314,384 -5708,3294 -5448,6622 269,3395 3250,5944 6648,5674zm-1729 -8699l2140 -138 617 519 931 789 84 1433 51 820 -1362 1574 -1909 152 -1759 -1598 -162 -1831 -4 -47 1373 -1673zm-1420 857l-37 -681 664 -84 -627 765zm1932 -1447l435 -485 543 425 -978 60zm2448 422l596 -20 58 569 -654 -549zm910 4383l0 13 0 17 37 641 -630 50 -31 0 624 -721zm-1952 1379l-388 421 -404 -357 792 -64zm-2124 -388l-10 0 -742 61 -128 -863 880 802zm-698 610l1261 -101 806 712 -1450 832 -617 -1443zm2576 2124c-610,48 -1200,-10 -1764,-155l1686 -967 1757 711c-523,219 -1086,364 -1679,411zm286 -1571l769 -836 1109 -88 -401 1521 -1477 -597zm1973 870l502 -1901 1841 -793c-455,1133 -1281,2087 -2343,2694zm896 -5050l-488 603 -51 -887 -13 -212 552 496zm-600 -1285l-60 -1025 1551 567 -523 1335 -968 -877zm1005 1662l772 1494 -1551 671 -67 -1116 0 -4 846 -1045zm1419 -448c48,590 -10,1166 -145,1712l-863 -1672 638 -1628c199,492 327,1025 370,1588zm-640 -2155l-1952 -714 0 -10 -7 0 -1038 -1818c1277,442 2353,1356 2997,2542zm-2603 -738l-1082 71 -944 -803 1200 -711 826 1443zm-2586 -2087c543,-40 1072,0 1578,111l-1517 901 -1629 -648c489,-195 1015,-320 1568,-364zm-371 1433l-728 893 -3 4 -1079 94 613 -1466 1197 475zm-1632 -873l-799 1922 -1928 1254c445,-1376 1433,-2526 2727,-3176zm-950 4976l259 -347 58 651 -317 -304zm391 1140l118 1348 -1524 -559 674 -1454 732 665zm-823 -1561l-839 -1049 1355 -883 105 1176 -621 756zm-1595 711c-43,-570 4,-1129 129,-1659l1143 1426 -874 1882c-212,-513 -350,-1066 -398,-1649zm2644 2825l758 1777c-1200,-479 -2205,-1375 -2805,-2525l2047 748z"/>
  <path class="fil0" d="M92571 51024l236 -24c3317,-384 5711,-3294 5448,-6621 -266,-3395 -3250,-5944 -6649,-5674l-236 23c-3314,388 -5704,3294 -5444,6622 266,3395 3246,5944 6645,5674zm-1730 -8698l2144 -139 614 520 934 788 84 1433 47 820 -1358 1574 -1912 152 -1756 -1598 -162 -1831 -4 -47 1369 -1672zm-1416 856l-37 -681 661 -84 -624 765zm1932 -1443l432 -489 546 425 -978 64zm2448 418l596 -20 58 570 -654 -550zm907 4383l0 13 3 21 37 637 -634 50 -30 0 624 -721zm-1952 1379l-388 421 -405 -357 793 -64zm-2121 -388l-14 0 -741 61 -128 -863 883 802zm-698 610l1261 -101 802 712 -1446 832 -617 -1443zm2572 2124c-610,48 -1200,-10 -1759,-155l1682 -967 1756 711c-519,219 -1082,364 -1679,411zm287 -1571l769 -836 1109 -87 -401 1520 -1477 -597zm1976 870l499 -1901 1844 -793c-455,1133 -1281,2087 -2343,2694zm893 -5050l-489 603 -50 -887 -14 -212 553 496zm-600 -1285l-61 -1025 1551 567 -519 1335 -971 -877zm1005 1666l772 1490 -1551 671 -64 -1116 0 -4 843 -1041zm1419 -452c47,590 -7,1166 -142,1713l-866 -1673 637 -1628c199,492 327,1025 371,1588zm-637 -2155l-1956 -714 0 -10 -6 0 -1039 -1818c1281,442 2354,1356 3001,2542zm-2606 -738l-1079 71 -948 -802 1204 -712 823 1443zm-2583 -2087c543,-40 1072,0 1578,111l-1521 901 -1625 -648c489,-195 1015,-320 1568,-364zm-371 1433l-731 894 -4 3 -1075 94 610 -1466 1200 475zm-1631 -873l-803 1922 -1928 1257c448,-1379 1436,-2528 2731,-3179zm-951 4976l259 -347 54 651 -313 -304zm391 1140l118 1348 -1527 -556 674 -1456 735 664zm-823 -1561l-839 -1049 1355 -883 101 1177 -617 755zm-1594 711c-44,-570 3,-1129 128,-1659l1139 1426 -870 1882c-212,-513 -354,-1066 -397,-1649zm2639 2825l759 1777c-1200,-479 -2202,-1375 -2802,-2525l2043 748z"/>
  <path class="fil0" d="M87166 34416l236 -24c3318,-387 5708,-3293 5449,-6621 -267,-3395 -3251,-5944 -6649,-5678l-236 27c-3314,385 -5708,3294 -5445,6618 266,3399 3247,5944 6645,5678zm-1729 -8698l2141 -142 617 523 933 785 85 1436 47 820 -1359 1574 -1911 149 -1760 -1595 -159 -1834 -3 -47 1369 -1669zm-1420 856l-33 -681 660 -84 -627 765zm1932 -1446l435 -489 546 425 -981 64zm2451 418l597 -21 57 574 -654 -553zm907 4386l0 13 4 17 37 638 -634 50 -31 4 624 -722zm-1952 1379l-388 421 -404 -357 792 -64zm-2124 -388l-10 0 -742 58 -128 -860 880 802zm-694 610l1260 -101 803 712 -1447 832 -616 -1443zm2572 2124c-610,48 -1200,-13 -1763,-155l1685 -967 1757 711c-523,219 -1086,364 -1679,411zm287 -1574l768 -836 1109 -84 -401 1520 -1476 -600zm1975 870l499 -1898 1844 -793c-455,1133 -1284,2084 -2343,2691zm894 -5047l-489 603 -51 -886 -13 -216 553 499zm-600 -1285l-61 -1025 1551 567 -519 1335 -971 -877zm1004 1662l772 1494 -1551 667 -67 -1112 0 -7 846 -1042zm1420 -451c47,593 -7,1169 -142,1716l-866 -1673 637 -1631c199,495 327,1028 371,1588zm-641 -2151l-1952 -715 0 -10 -7 0 -1038 -1821c1281,445 2353,1355 2997,2546zm-2603 -739l-1079 68 -947 -799 1204 -715 822 1446zm-2582 -2087c539,-44 1072,0 1578,108l-1521 904 -1628 -648c492,-195 1018,-320 1571,-364zm-371 1433l-732 890 -3 4 -1076 97 611 -1466 1200 475zm-1635 -873l-799 1918 -1929 1258c449,-1376 1436,-2525 2728,-3176zm-948 4976l260 -347 54 647 -314 -300zm388 1140l118 1348 -1524 -559 674 -1457 732 668zm-819 -1565l-840 -1045 1356 -883 101 1173 -617 755zm-1595 715c-47,-573 3,-1129 125,-1662l1143 1426 -874 1881c-212,-512 -350,-1065 -394,-1645zm2640 2825l758 1777c-1200,-482 -2201,-1375 -2805,-2525l2047 748z"/>
  <path class="fil0" d="M79358 18553l236 -23c3317,-388 5708,-3294 5448,-6622 -269,-3395 -3253,-5944 -6648,-5678l-236 27c-3315,385 -5708,3294 -5449,6619 267,3398 3250,5944 6649,5677zm-1733 -8698l2144 -142 617 523 931 789 84 1433 51 819 -1362 1574 -1909 152 -1760 -1598 -161 -1834 -4 -47 1369 -1669zm-1416 856l-37 -681 664 -84 -627 765zm1932 -1446l435 -489 543 425 -978 64zm2447 418l597 -20 58 573 -655 -553zm911 4386l0 14 0 17 37 637 -631 50 -30 4 624 -722zm-1952 1379l-388 422 -405 -358 793 -64zm-2124 -388l-10 0 -746 58 -124 -860 880 802zm-698 611l1261 -102 802 712 -1446 833 -617 -1443zm2572 2124c-607,47 -1197,-14 -1760,-155l1686 -968 1757 711c-523,219 -1086,364 -1683,412zm290 -1575l769 -836 1106 -84 -401 1520 -1474 -600zm1972 870l503 -1898 1841 -792c-455,1132 -1281,2083 -2344,2690zm897 -5047l-489 603 -54 -886 -10 -216 553 499zm-600 -1285l-61 -1025 1551 567 -522 1335 -968 -877zm1005 1663l772 1493 -1551 668 -67 -1113 0 -7 846 -1041zm1419 -452c44,593 -10,1170 -145,1716l-863 -1672 637 -1632c199,495 327,1028 371,1588zm-640 -2151l-1956 -715 0 -10 -3 0 -1039 -1821c1278,445 2354,1356 2998,2546zm-2606 -739l-1079 68 -948 -799 1204 -712 823 1443zm-2583 -2087c543,-43 1072,0 1578,108l-1521 904 -1625 -647c489,-196 1015,-321 1568,-365zm-371 1433l-728 890 -3 4 -1079 98 613 -1467 1197 475zm-1632 -873l-799 1918 -1932 1258c449,-1376 1437,-2525 2731,-3176zm-950 4976l259 -347 57 647 -316 -300zm391 1140l118 1349 -1524 -560 674 -1457 732 668zm-823 -1564l-839 -1046 1355 -883 104 1173 -620 756zm-1595 714c-44,-573 4,-1129 128,-1658l1143 1422 -873 1882c-212,-513 -350,-1066 -398,-1646zm2644 2826l758 1776c-1200,-482 -2205,-1375 -2805,-2525l2047 749z"/>
  <path class="fil1" d="M84843 22296c139,317 -10,694 -330,839 -320,145 -698,3 -836,-313l-2134 -4889c-139,-317 10,-695 330,-840 320,-145 698,-3 836,314l2134 4889zm-41004 101201c1207,-590 2381,-1200 3507,-1814 18779,-10245 30094,-25323 34166,-42986 4087,-17717 921,-38081 -9248,-58829 -856,-1750 -1766,-3503 -2710,-5236 -2155,-3951 -1875,-7424 -270,-9939 755,-1183 1810,-2161 3038,-2872l3 0c1214,-698 2613,-1147 4063,-1288 3519,-348 7420,1062 10013,4855 2717,3968 5182,8148 7363,12477 9407,18689 13554,40307 10074,60859 -3479,20590 -14605,40114 -35710,54567 -3817,2610 -7971,5061 -12445,7317l-60 23c-6170,2593 -11072,1784 -14177,-563 -1251,-947 -2219,-2151 -2856,-3476 -637,-1325 -954,-2795 -914,-4272l0 -3c88,-3368 2027,-6793 6163,-8820zm4410 -161c-1173,640 -2370,1260 -3580,1854 -3432,1682 -5041,4464 -5111,7178l0 3c-31,1167 222,2337 731,3399 509,1058 1288,2026 2296,2788 2616,1975 6834,2623 12249,364 4403,-2219 8486,-4626 12228,-7188 20640,-14133 31517,-33209 34915,-53320 3409,-20141 -664,-41351 -9898,-59699 -2145,-4255 -4569,-8365 -7236,-12262 -2157,-3156 -5377,-4329 -8273,-4046 -1187,118 -2320,482 -3304,1045 -971,563 -1804,1329 -2391,2253 -1261,1975 -1446,4763 331,8024 971,1783 1894,3560 2751,5310 10364,21146 13580,41941 9396,60076 -4194,18189 -15816,33701 -35104,44221zm8311 6560c-287,196 -684,122 -887,-168 -202,-290 -135,-688 152,-884l4406 -3010c287,-196 685,-122 887,168 202,290 135,688 -152,884l-4406 3010zm14325 -10323c-252,236 -657,222 -900,-30 -243,-253 -236,-658 17,-894l4076 -3803c253,-236 658,-222 900,30 243,253 236,658 -17,894l-4076 3803zm11996 -13537c-165,304 -553,418 -863,253 -310,-165 -428,-549 -263,-853l2397 -4393c165,-303 553,-418 863,-253 310,166 428,550 263,853l-2397 4393zm8233 -15404c-98,331 -455,523 -795,428 -341,-94 -536,-448 -439,-778l1487 -5007c98,-331 455,-523 796,-428 340,94 536,448 438,778l-1487 5007zm2930 -17188c-17,348 -317,614 -664,597 -347,-17 -614,-317 -597,-664l280 -4933c17,-347 317,-613 664,-596 347,17 614,317 597,664l-280 4932zm617 -17440c54,340 -182,671 -529,731 -348,61 -678,-168 -732,-509l-863 -5266c-54,-341 182,-671 529,-732 348,-60 678,169 732,509l863 5267zm-3365 -17330c95,334 -104,691 -441,789 -337,98 -691,-91 -786,-425l-1446 -5138c-95,-334 104,-691 441,-789 338,-97 692,91 786,425l1446 5138z"/>
  <rect class="fil2" x="-1" y="-1" width="142724" height="142724"/>
 </g>
</svg>
