<?xml version="1.0" encoding="utf-8"?>
<!-- Generator: Adobe Illustrator 18.0.0, SVG Export Plug-In . SVG Version: 6.00 Build 0)  -->
<!DOCTYPE svg PUBLIC "-//W3C//DTD SVG 1.1//EN" "http://www.w3.org/Graphics/SVG/1.1/DTD/svg11.dtd">
<svg version="1.1" id="Layer_1" xmlns="http://www.w3.org/2000/svg" xmlns:xlink="http://www.w3.org/1999/xlink" x="0px" y="0px"
	 width="50px" height="50px" viewBox="0 0 50 50" enable-background="new 0 0 50 50" xml:space="preserve">
<g>
	<path d="M34.8477707,18.3618259c0.7394562-0.3771667,1.3410873-1.0058727,1.6722221-1.8111057
		c0.7428093-1.8113871-0.1261902-3.8903637-1.9375763-4.6340694c-0.2237396-0.0914536-0.453743-0.157177-0.6875496-0.2015324
		c0.4333839-0.362401,0.7873383-0.8252039,1.0124168-1.3735867c0.7437057-1.8104906-0.1252937-3.8894672-1.9366798-4.6340685
		c-0.431366-0.1763058-0.8842125-0.2658014-1.3469028-0.2658014c-1.4471397,0-2.7376633,0.8645253-3.2871647,2.2033758
		c-0.0975494,0.2377777-0.1633282,0.4824915-0.2074051,0.7297783c-1.0186806-2.0236573-2.2854881-3.9493737-3.8225708-5.7173538
		c-0.1655655-0.1897302-0.4555302-0.2121041-0.6461563-0.0447478c-0.1906242,0.1655664-0.2112083,0.4555314-0.0447464,0.6461565
		c6.6011753,7.5936799,8.3302269,18.0887985,4.5123539,27.3900509c-2.7680912,6.7425804-7.5829391,11.5198402-13.9236851,13.8145027
		c-0.2237387,0.0805435-0.4483719,0.1575089-0.6747952,0.2326851c-0.2407427,0.0787582-0.3714056,0.338295-0.2917547,0.5781403
		c0.0635414,0.1933098,0.2425318,0.3150253,0.434947,0.3150253c0.0474329,0,0.0957603-0.0071602,0.1431923-0.0232697
		c0.2353735-0.0769653,0.468956-0.1575127,0.6998539-0.2416382c0.0993404-0.035965,0.1950998-0.0780296,0.2937689-0.1151695
		c-0.0879297,0.1045418-0.1657906,0.2183151-0.2194872,0.3487549c-0.2944403,0.7177505,0.049222,1.5411072,0.7669744,1.836441
		C15.5279627,47.4642029,15.7078485,47.5,15.8913136,47.5c0.5745602,0,1.0855789-0.3427658,1.3021564-0.8725815
		c0.0809937-0.1969986,0.1103039-0.4049072,0.0988941-0.6114197c0.1848068,0.2847061,0.4494896,0.5082779,0.7710018,0.6400604
		c0.2040501,0.0841255,0.4188385,0.1261864,0.6381016,0.1261864c0.68643,0,1.2985783-0.4098854,1.5581131-1.0444107
		c0.1709366-0.416153,0.1691475-0.8743668-0.0035782-1.2896271c-0.1736221-0.4143639-0.4984894-0.737442-0.9146423-0.9083786
		c-0.2675915-0.1096878-0.5499496-0.1342964-0.8233585-0.1006813c0.3948994-0.2321281,0.7819653-0.4753876,1.1614265-0.7294998
		c-0.0409451,0.3169289-0.0062656,0.640007,0.1201477,0.9429474c0.1906242,0.4546356,0.5459213,0.8081436,1.0014534,0.9942932
		c0.2237377,0.0921783,0.4600048,0.1387177,0.699852,0.1387177c0.7508659,0,1.4211864-0.4483719,1.7066765-1.1437492
		c0.1870461-0.4564285,0.1852551-0.9576035-0.0044746-1.4122391s-0.5459213-0.8081436-1.0014534-0.9942932
		c-0.1378212-0.0569954-0.2801189-0.0892143-0.4233112-0.1095734c0.283699-0.2404633,0.562254-0.4879189,0.8349915-0.7423096
		c-0.047657,0.3431015-0.0102921,0.6934204,0.1270828,1.0219269c0.2013645,0.4823799,0.5790348,0.8582573,1.0632038,1.0560417
		c0.2380581,0.0984459,0.4886456,0.1476669,0.7437077,0.1476669c0.7982979,0,1.5088902-0.4770088,1.8113861-1.2153435
		c0.2644577-0.6431389,0.156168-1.34478-0.2183704-1.8745384c0.0903912,0.0557671,0.1832428,0.1088486,0.2837009,0.1499634
		c0.2371635,0.0975494,0.4877491,0.1476669,0.7428112,0.1476669c0.7965088,0,1.5071011-0.4761162,1.809597-1.2135582
		c0.256628-0.6268044,0.163105-1.3106575-0.1881657-1.8342628c0.1593018,0.0366364,0.3210659,0.0604668,0.4861851,0.0604668
		c0.8860035,0,1.6771412-0.5298157,2.0145397-1.3504868c0.2201576-0.5378685,0.2183685-1.1294327-0.0062656-1.6655083
		c-0.1069469-0.2557335-0.2608776-0.4815979-0.4479237-0.6745148c0.0268497,0.0008965,0.0530262,0.0077744,0.0800991,0.0077744
		c1.004137,0,1.8981972-0.599617,2.2803421-1.5285797c0.3725243-0.907259,0.154377-1.9069786-0.4653778-2.589325
		c1.0202484-0.0693035,1.914753-0.6998539,2.3071899-1.6563339c0.2729607-0.6658459,0.2702751-1.3970242-0.0062637-2.061079
		c-0.205616-0.4912739-0.5448036-0.900156-0.977066-1.1911278c1.0220375-0.1807804,1.8932762-0.8641891,2.297123-1.8499241
		C36.9679146,20.7680206,36.2897644,19.0630207,34.8477707,18.3618259z M22.4450569,43.3286209
		c-0.2085228,0.506546-0.8153019,0.7660828-1.3307953,0.5557671c-0.251482-0.1038132-0.4483719-0.2989159-0.5530815-0.550396
		c-0.1056042-0.2505875-0.1056042-0.5280228-0.0026836-0.7795067c0.1575108-0.3848267,0.5280228-0.633625,0.9432812-0.633625
		c0.132452,0,0.2622204,0.0259552,0.3866196,0.0769653C22.4083652,42.2108269,22.6580563,42.8077583,22.4450569,43.3286209z
		 M16.5150967,46.3490906c-0.1369286,0.3356056-0.5432377,0.5065422-0.8788452,0.3669319
		c-0.3445568-0.1414032-0.5092278-0.535183-0.3678255-0.8788452c0.1047096-0.2541695,0.3490314-0.4188385,0.6237822-0.4188385
		c0.0877056,0,0.1736221,0.0170021,0.2559566,0.0510101c0.1664619,0.0680199,0.2962303,0.1968918,0.3651409,0.3624573
		C16.5831127,45.9982681,16.5840073,46.1817322,16.5150967,46.3490906z M18.7023621,44.1466103
		c0.1235046,0,0.2443218,0.0241623,0.3597717,0.0715942c0.2353725,0.0966568,0.4188385,0.2783318,0.5172825,0.5128098
		c0.0975513,0.234478,0.0984459,0.4931183,0.001791,0.7284927c-0.1933098,0.4725342-0.7633953,0.7150688-1.2395115,0.518177
		c-0.2353725-0.096653-0.4188385-0.2783318-0.5172825-0.5128098c-0.0975494-0.234478-0.0984459-0.4931183-0.001791-0.7284889
		C17.9693947,44.3784027,18.3148479,44.1466103,18.7023621,44.1466103z M17.144249,44.4580536
		c-0.1145554,0.2790031-0.1445351,0.5764618-0.1044865,0.8676567c-0.1541557-0.2307281-0.351717-0.4272842-0.613266-0.5347328
		c-0.1230564-0.0503998-0.2503643-0.0745049-0.3781185-0.0871468c0.455307-0.2003593,0.9012184-0.4151459,1.3395214-0.6414604
		C17.2912445,44.1821289,17.2046585,44.3111115,17.144249,44.4580536z M27.2661724,35.4924088
		c0.0684643,0.1630516,0.1599731,0.3104362,0.2622204,0.4493217c-0.4591103-0.0814934-0.9298553,0.0169487-1.3287811,0.2436523
		c0.3139038-0.461853,0.6190834-0.9328766,0.9081535-1.4215775C27.1205177,35.0109253,27.1681747,35.2571487,27.2661724,35.4924088z
		 M25.362606,38.6149025c0.0561581,0.1341324,0.1286488,0.2574654,0.210537,0.3735313
		c-0.089941-0.0554314-0.1814518-0.1092987-0.2821331-0.1506882c-0.3463478-0.1425781-0.7155151-0.1676369-1.0667839-0.104599
		c0.3526115-0.3981972,0.6920223-0.8117218,1.0215893-1.2365456C25.1742191,37.869854,25.2127018,38.25597,25.362606,38.6149025z
		 M28.6737099,31.6880188c0.1371517,0.3067455,0.3322525,0.5750618,0.572546,0.7976837
		c-0.3870659,0.0104599-0.7640648,0.1286469-1.0945282,0.3267136
		C28.3322849,32.4440308,28.5061302,32.0692139,28.6737099,31.6880188z M30.9401798,22.7562714
		c0.2561798,0.4017773,0.6023045,0.7303371,1.0133114,0.974268c-0.4432259,0.0997314-0.8506527,0.3039494-1.1860371,0.5998421
		C30.8406162,23.8059959,30.8976688,23.2815533,30.9401798,22.7562714z M31.0048409,19.364006
		c-0.0223751-0.5018463-0.0507889-1.002964-0.1009064-1.5020676c0.2872791,0.2524319,0.6087914,0.4732056,0.981987,0.6263542
		c0.0100689,0.0041409,0.0210323,0.0053139,0.0310993,0.0093422C31.5581455,18.7175694,31.2487144,19.011282,31.0048409,19.364006z
		 M35.6715736,16.2025833c-0.4072037,0.9933968-1.365696,1.6350784-2.43964,1.6350784
		c-0.3418732,0-0.6783752-0.0662251-0.9987679-0.1977844c-1.3433266-0.5512905-1.9876938-2.0941906-1.4364014-3.4384108
		c0.4072037-0.9925032,1.3648033-1.6341848,2.4387474-1.6341848c0.3427658,0,0.6792679,0.066226,0.9987679,0.1977844
		C35.5784988,13.3163576,36.2228661,14.8592577,35.6715736,16.2025833z M29.1849518,7.9922795
		c0.4072037-0.9925036,1.3648052-1.6341853,2.4387493-1.6341853c0.3427658,0,0.6792698,0.0662265,0.9987659,0.1977849
		c1.344223,0.5512915,1.9885864,2.0941911,1.4364014,3.4384112c-0.4072037,0.9925032-1.3639069,1.6341848-2.4387474,1.6341848
		c-0.3427677,0-0.6783752-0.066226-0.9987679-0.1977844c-0.650631-0.266696-1.1589661-0.77145-1.4301357-1.4211864
		C28.9191513,9.3597679,28.9173622,8.6438055,29.1849518,7.9922795z M30.2741108,12.2791061
		c0.2232914,0.0914536,0.4532948,0.157177,0.6868763,0.2015324c-0.3485832,0.2914753-0.6398907,0.6510792-0.8589306,1.0662251
		c-0.1472206-0.5487175-0.3107738-1.0928497-0.492672-1.6324511C29.8163414,12.0564308,30.0365009,12.1814451,30.2741108,12.2791061
		z M30.1358414,27.5218983c0.127306,0.2623329,0.2886219,0.5087242,0.496027,0.7193184
		c-0.2705002,0.0311565-0.5307083,0.1018009-0.7701073,0.214901C29.9555073,28.1450653,30.0535049,27.8345718,30.1358414,27.5218983
		z M25.5961895,41.0804977c-0.2317944,0.5638199-0.9092731,0.8502083-1.4793587,0.618412
		c-0.2801208-0.115448-0.4993839-0.3320274-0.6157284-0.6121445c-0.117239-0.2792282-0.1181335-0.5870895-0.0035801-0.8672104
		c0.1763058-0.4277878,0.587986-0.7043304,1.0506763-0.7043304c0.1476669,0,0.2917538,0.0286407,0.4295769,0.085022
		C25.5559158,39.8383026,25.8333511,40.5023575,25.5961895,41.0804977z M28.2139282,38.2900352
		c-0.2317924,0.5629234-0.9101677,0.849308-1.4766731,0.6166229c-0.2792263-0.1145554-0.4975948-0.3311348-0.6139393-0.6103592
		c-0.1163425-0.2783318-0.117239-0.5861931-0.0026836-0.8654213c0.1745148-0.4259987,0.5852985-0.7016411,1.0461998-0.7016411
		c0.1476669,0,0.2917557,0.0286369,0.4295788,0.0850182c0.2792244,0.1145554,0.4975929,0.3311348,0.6139374,0.6103592
		C28.3266926,37.7029457,28.3284817,38.010807,28.2139282,38.2900352z M30.4405727,35.1308479
		c-0.2577477,0.6264687-1.0095081,0.9513359-1.6440296,0.6873245c-0.3123398-0.1279793-0.5548725-0.368721-0.6846409-0.6792679
		c-0.1297665-0.3105507-0.1306629-0.6533165-0.0026836-0.9638672c0.1950989-0.4752197,0.65242-0.7821884,1.1652298-0.7821884
		c0.1637764,0,0.3248672,0.0313225,0.4787998,0.0948639c0.3114433,0.1270828,0.5539761,0.368721,0.6837444,0.6792717
		C30.566761,34.4775314,30.5685501,34.8203011,30.4405727,35.1308479z M32.3468246,31.2700195
		c-0.3141289,0.7687645-1.2413025,1.1634407-2.0172272,0.8439407c-0.3821449-0.1566162-0.6801643-0.4528465-0.8394661-0.8340969
		s-0.1610909-0.801878-0.0035801-1.1840229c0.2389526-0.5826149,0.8000889-0.9593906,1.4301357-0.9593906
		c0.2013645,0,0.3982544,0.0384827,0.5870895,0.1163445C32.2922325,29.576767,32.6707954,30.4815655,32.3468246,31.2700195z
		 M34.1886368,27.0243607c-0.3615608,0.8833179-1.4229774,1.3361645-2.3161392,0.9674435
		c-0.9056931-0.3714046-1.3397446-1.4104462-0.9683399-2.3161392c0.2747517-0.669426,0.9200134-1.1016884,1.6431332-1.1016884
		c0.2308998,0,0.4573212,0.0447483,0.673008,0.1333485c0.4394226,0.1798859,0.781292,0.519968,0.9647598,0.9575996
		C34.3676262,26.1025581,34.3694191,26.584938,34.1886368,27.0243607z M35.50243,21.9231243
		c-0.43853,1.0667858-1.7236824,1.6144962-2.8021011,1.170599c-0.5307083-0.2174721-0.9450703-0.6291523-1.1661243-1.1589642
		c-0.2210522-0.5289173-0.2228432-1.1124268-0.0044746-1.6440296c0.3320274-0.8090382,1.1124287-1.3325863,1.9876919-1.3325863
		c0.2792244,0,0.5530815,0.0545921,0.8144073,0.1619873C35.4272537,19.569397,35.9525909,20.826807,35.50243,21.9231243z"/>
	
		<line fill="none" stroke="#000000" stroke-linecap="round" stroke-linejoin="round" stroke-miterlimit="10" x1="25.8476658" y1="11.3843918" x2="28.4824085" y2="8.749649"/>
	
		<line fill="none" stroke="#000000" stroke-linecap="round" stroke-linejoin="round" stroke-miterlimit="10" x1="15.2707071" y1="45.2075081" x2="16.8358841" y2="41.8260918"/>
</g>
</svg>
