<?xml version="1.0" encoding="utf-8"?>
<!-- Generator: Adobe Illustrator 18.0.0, SVG Export Plug-In . SVG Version: 6.00 Build 0)  -->
<!DOCTYPE svg PUBLIC "-//W3C//DTD SVG 1.1//EN" "http://www.w3.org/Graphics/SVG/1.1/DTD/svg11.dtd">
<svg version="1.1" id="Layer_1" xmlns="http://www.w3.org/2000/svg" xmlns:xlink="http://www.w3.org/1999/xlink" x="0px" y="0px"
	 width="50px" height="50px" viewBox="0 0 50 50" enable-background="new 0 0 50 50" xml:space="preserve">
<path d="M37.454464,3.0443823c0.1688461-0.5464263-0.6850967-0.7782648-0.8528633-0.235131
	c-1.1061325,3.5812707-4.337513,9.2575092-8.2604694,10.4007778c-0.5119343-1.2395668-1.4153214-2.0545378-2.4728718-2.0545378
	c-0.7833405,0-1.4803123,0.4524498-1.9998035,1.1863441c-0.2999058-0.2138634-0.6004601-0.4523411-0.9014454-0.7381582
	c-1.7059422-1.6196852-2.7755833-3.8269825-4.4292755-5.5148964c-1.5103245-1.5413618-3.4589548-2.5813155-5.4753838-3.287627
	C12.5225639,2.6121211,12.2926149,3.4667118,12.82722,3.653964c3.5351725,1.2382712,5.7262774,3.5713387,7.8545485,6.5400591
	c0.7449074,1.0390368,1.6424637,2.1690264,2.7313232,2.9657526c-0.293644,0.6906033-0.4665928,1.514966-0.4665928,2.414197
	c0,2.0934563,0.9206619,3.7895203,2.192831,4.2698765c-3.2875175,3.1314125-6.8721371,6.6522827-6.8678169,10.2205982
	c0.0034542,2.2717495,2.5208054,6.273241,7.5118904,6.478632c-0.0069084,0.0320625-0.0196476,0.059864-0.0196476,0.0966759
	c0,0.3171768,0,0.634304,0,0.9514809c0,0.0361137,0.0127392,0.0632629,0.0194321,0.0947876
	c-0.1200485,0.0847473-0.2141876,0.2058754-0.2638474,0.3517265l-1.9665527,5.7744255
	c-0.3445988,1.0147972-0.0880928,2.1142387,0.6684723,2.871666C24.7480927,47.2098122,25.4476566,47.5,26.1929951,47.5
	c0.7444744,0,1.4449005-0.2901878,1.9725971-0.8170204c0.7565651-0.757431,1.0122089-1.8577309,0.6676083-2.8708038
	l-1.9665508-5.7761536c-0.0466385-0.1353264-0.1334362-0.2471161-0.2416096-0.3304024
	c0.0095005-0.0369225,0.0231037-0.0708199,0.0231037-0.1143837c0-0.3171768,0-0.634304,0-0.9514809
	c0-0.0394058-0.0131721-0.069416-0.0209446-0.1033707c5.1143742-0.2798767,7.2618618-4.2982674,7.264452-6.4719372
	c0.0043182-3.6166801-3.6809139-7.1873722-7.0060024-10.3532238c1.1199512-0.6140614,1.9043694-2.205677,1.9043694-4.1372509
	c0-0.5727682-0.0751381-1.111907-0.2008018-1.6099148C33.1778374,12.7528839,36.1455879,7.2818184,37.454464,3.0443823z
	 M25.8682594,12.0398788c0.6326294,0,1.2017803,0.5407047,1.5787678,1.3541098
	c-0.9161263,0.0966759-1.8626957-0.0716295-2.8226528-0.5771399C24.9719963,12.3396769,25.4020977,12.0398788,25.8682594,12.0398788
	z M27.7709007,21.7916183c1.95187,2.0427151,2.7881069,6.0516586,0.9491615,8.4043751
	c-0.5747662-0.7114925-1.280592-1.3967533-1.9605064-2.044281c0.9718323-1.2680149,1.4114342-2.4165726,1.4993114-4.1122589
	c0.037569-0.7284966-0.1455269-1.5282459-0.4892635-2.2490768L27.7709007,21.7916183z M23.3584652,32.8480225
	c-0.0025921-1.3654461,1.528677-2.8552589,2.9191685-4.1783848c1.3904915,1.3239899,2.9217587,2.8129387,2.9200306,4.1783848
	c-0.0008621,0.6157875-0.6857452,2.3137436-2.8803024,2.3387871C24.2117596,35.1859474,23.3584652,33.5363579,23.3584652,32.8480225
	z M19.155899,30.0627193c-0.0041027-3.1901951,3.4222488-6.5573864,6.6119595-9.5617867
	c0.0200806,0.0191631,0.0351944,0.0404301,0.0619678,0.0564613c2.7537766,1.6441917,1.7836723,5.4746819,0.1593437,7.4397774
	c-0.0012951,0.0012951-0.0012951,0.0028057-0.0023746,0.0041027c-0.0326023,0.0196476-0.0686607,0.0334129-0.0969448,0.0603466
	c-1.5200405,1.4466305-3.242178,3.0849915-3.2395859,4.7872639c0.0012951,0.8062782,0.6736546,2.0751038,2.0030422,2.6883545
	C20.7707253,34.8330345,19.1582737,31.5348263,19.155899,30.0627193z M28.163002,44.0401802
	c0.25737,0.7565651,0.0665016,1.5779076-0.4974689,2.1427383c-0.7876568,0.7859306-2.1591473,0.7859306-2.9433498,0
	c-0.5648327-0.5648308-0.7565651-1.3861732-0.4991951-2.1427383l1.9743252-5.7744255L28.163002,44.0401802z M28.1785469,35.4211845
	c1.189043-0.6525993,1.7255917-1.8345718,1.7273178-2.5723c0.0006485-0.7040443-0.302496-1.3959961-0.75527-2.0691109
	c0.0082054-0.0083675,0.0172749-0.0109043,0.0250473-0.0205116c1.4727554-1.8150883,1.5694847-4.4556732,0.7639065-6.7038326
	c1.7515011,1.9855003,3.0703087,4.0309677,3.0677185,6.0072899C33.0057564,31.3315983,31.8035412,34.5050049,28.1785469,35.4211845z
	 M27.9056301,15.5739727c0,1.91646-0.9327507,3.5349579-2.0373707,3.5349579s-2.0373726-1.6184978-2.0373726-3.5349579
	c0-0.7073908,0.128685-1.3727865,0.3446007-1.9325991c0.5173302,0.2729702,1.0715847,0.4669695,1.6720428,0.5344963
	c0.6511993,0.0732498,1.271307,0.0465298,1.8715496-0.0362196C27.8363228,14.5815201,27.9056301,15.065547,27.9056301,15.5739727z"
	/>
</svg>
