<?xml version="1.0" encoding="utf-8"?>
<!-- Generator: Adobe Illustrator 18.0.0, SVG Export Plug-In . SVG Version: 6.00 Build 0)  -->
<!DOCTYPE svg PUBLIC "-//W3C//DTD SVG 1.1//EN" "http://www.w3.org/Graphics/SVG/1.1/DTD/svg11.dtd">
<svg version="1.1" id="Layer_1" xmlns="http://www.w3.org/2000/svg" xmlns:xlink="http://www.w3.org/1999/xlink" x="0px" y="0px"
	 width="50px" height="50px" viewBox="0 0 50 50" enable-background="new 0 0 50 50" xml:space="preserve">
<path d="M25,2.5c-0.3276043,0-0.6524734,0.0206463-0.9753513,0.0562177C23.7574902,2.5228851,23.4885902,2.5,23.2169552,2.5
	c-4.4839802,0-8.56598,4.5640783-10.6534958,11.9121742c-0.0218906,0.0770512-0.020647,0.1536036-0.0072145,0.2274828
	c-0.0194025,1.8887644-0.382081,2.6132498-0.382081,2.6132498s0.0990028,0.2487507,0.2935266,0.0835819
	c0.57337-0.4869308,1.1469889-2.1118946,1.2502203-2.7449646c0.1019878-0.3034763,0.2064638-0.6045895,0.3171577-0.898737
	c2.2014427-5.8808398,5.8642979-9.5658331,9.9390831-10.0992794C29.7073593,4.3564267,34.2550201,13.6529875,34.2550201,25
	c0,11.3049736-4.5138321,20.5769081-10.2166901,21.4000244c-5.2722721-0.6603088-9.7112284-6.6636581-11.3084564-14.7680817
	c-0.0082092-0.0488796-0.0171642-0.0970135-0.0251245-0.1460171c-0.0442772-0.2302189-0.0756197-0.4692669-0.1154203-0.7027206
	c-0.0828333-0.5771008-0.1562147-1.1630344-0.21492-1.7604084C12.2445602,27.7034225,12.1788902,26.3502197,12.1788902,25
	c0-0.2815857-0.2278557-0.5094414-0.5094414-0.5094414c-0.014925,0-0.0276108,0.0072136-0.0422878,0.0084572
	c-0.0146761-0.0012436-0.0273619-0.0084572-0.0422869-0.0084572c-0.2815866,0-0.5094423,0.2278557-0.5094423,0.5094414
	l0.0014925,0.3442707c0.0226364,2.4468365,0.2853174,4.78298,0.7397852,6.9672604
	C13.4549818,41.274765,17.9941845,47.5,23.2169552,47.5c0.3037243,0,0.6037178-0.0281105,0.9019699-0.0695267
	C24.411705,47.4592056,24.7022457,47.5,25,47.5c7.6779404,0,13.9245682-10.0933075,13.9245682-22.5S32.6779404,2.5,25,2.5z
	 M37.9056854,25c0,0.7491131-0.0293541,1.4860992-0.0746269,2.2155609
	c-0.2144203-0.4781609-0.6813278-0.8227444-1.2390251-0.8438244l-0.0547256-0.0008717
	c-0.6460075,0-1.1671371,0.4361839-1.3400192,1.0291443C35.2425613,26.6098518,35.2739029,25.8121719,35.2739029,25
	c0-0.2558403-0.0114441-0.5063324-0.0161705-0.7601204c0.2134285,0.480711,0.6815796,0.8274078,1.2415161,0.8485508
	l0.0544777,0.0008717c0.6275978,0,1.1392784-0.4100666,1.3280792-0.9759121
	C37.889019,24.4092789,37.9056854,24.701189,37.9056854,25z M34.7992859,31.4862995l0.2064629,0.3298435L34.77491,32.1930008
	c-0.032341-0.1137428-0.0482597-0.2341366-0.0435333-0.3586369C34.7358551,31.7123508,34.7597351,31.5955009,34.7992859,31.4862995z
	 M35.1674385,31.8232937l0.0634308-0.0668507l-0.0039825,0.1384296L35.1674385,31.8232937z M35.2219124,32.0738487
	l-0.0084572,0.2884903l-0.3087006-0.1557198l0.1786041-0.2915974L35.2219124,32.0738487z M35.0863457,31.7229862
	l-0.151741-0.2423458l0.3084526-0.1534786l-0.0072136,0.2512379L35.0863457,31.7229862z M35.2204208,32.4977837l0.1169128,0.3949509
	c-0.2422829-0.13134-0.4323273-0.3455124-0.5310822-0.6039047L35.2204208,32.4977837z M35.2743988,31.180088l-0.439045,0.2184029
	c0.1286049-0.2804661,0.3659134-0.4992428,0.6557083-0.6050873L35.2743988,31.180088z M36.7276001,31.9822464l0.1263657,0.3350029
	l-0.3445206,0.1033592l0.0134354-0.2374954l0.000248-0.0011215L36.7276001,31.9822464z M36.5330772,32.007618l0.0106964-0.1888638
	l0.0024872-0.0456448l0.1049728,0.1190891L36.5330772,32.007618z M36.5559616,31.6055756l0.0126877-0.2189007l0.3141708,0.1584549
	l-0.1430283,0.2694588L36.5559616,31.6055756z M36.5611877,31.2508564V31.248991l-0.0012436-0.000124l-0.1748734-0.4109364
	c0.259697,0.12537,0.4644203,0.3449554,0.5716286,0.6127357L36.5611877,31.2508564z M36.4238777,31.2298374l-0.2300949-0.01194
	l-0.1805916-0.1927204l0.2718811-0.1211414L36.4238777,31.2298374z M36.4415398,31.3572598l-0.0022392,0.1226959
	l-0.1248741-0.1330814L36.4415398,31.3572598z M36.0154266,31.2085686l-0.2084503-0.0106964l0.1039772-0.0925961
	L36.0154266,31.2085686z M35.9159279,30.9394836l-0.3281021-0.1770496c0.1087036-0.0289783,0.2231293-0.0425987,0.3410378-0.0381203
	c0.1156693,0.0044785,0.22686,0.0261803,0.3310852,0.0620632L35.9159279,30.9394836z M35.8146858,31.0185852l-0.1763649,0.1705818
	l-0.0004959,0.0005589l-0.2303429-0.0061569l0.1656685-0.2953281L35.8146858,31.0185852z M35.5139465,31.3094997
	l-0.1514893,0.1465149l0.0092049-0.1452084L35.5139465,31.3094997z M35.3520088,31.6396542l0.000248-0.0100746l0.331337-0.3200798
	l0.456707,0.0235691l0.1174088,0.12537l0.1778603,0.1897354l-0.0174141,0.3057766l-0.0102005,0.1746845l-0.3266068,0.2998085
	l-0.4077034-0.0154877l-0.3328285-0.3815804L35.3520088,31.6396542z M36.3985023,32.2973518l-0.000248,0.0026741
	l-0.000248,0.0040398l-0.0077095,0.1360054l-0.1350746-0.0051613l-0.0064659-0.000248L36.3985023,32.2973518z M35.951252,32.5412521
	l-0.092041,0.0796623l-0.0768623-0.0860062L35.951252,32.5412521z M35.5119553,32.4068642l-0.0024872-0.0001259l-0.1584549-0.006031
	l-0.0057182-0.185257L35.5119553,32.4068642z M35.6186714,32.5287514l0.1524849,0.1703339l-0.3268585,0.14048l-0.0947762-0.3210144
	L35.6186714,32.5287514z M35.852993,32.7921791l0.3542213,0.1937141c-0.1159172,0.0338936-0.2385521,0.0507431-0.3659134,0.0458336
	c-0.1298447-0.0049133-0.2532272-0.0320892-0.3683968-0.0762444L35.852993,32.7921791z M35.9408035,32.705925l0.1833267-0.15802
	l0.2365646,0.0088921l-0.1223869,0.3118706L35.9408035,32.705925z M36.4900436,32.5492096l0.4094429-0.12257
	c-0.1241264,0.2286034-0.322876,0.4098167-0.5621758,0.5122414L36.4900436,32.5492096z M36.8246155,31.905756l0.1751175-0.3294086
	c0.0296021,0.1098232,0.0435333,0.2257404,0.0390549,0.3453903c-0.0047264,0.1264267-0.0303459,0.2469482-0.0723839,0.3593826
	L36.8246155,31.905756z M35.9388123,30.45784l-0.0544777-0.0008717c-0.4201393,0-0.785305,0.1902332-1.0452499,0.4794064
	c0.1360664-0.9273434,0.2425346-1.8761406,0.3141747-2.8468285c0.1338272,0.6194515,0.6691399,1.0973015,1.3308144,1.1222382
	l0.0547256,0.0009327c0.5074501,0,0.9338112-0.2766094,1.1850471-0.6763515
	c-0.1047211,1.0457478-0.2596931,2.0612717-0.4522285,3.0503674C37.1402779,30.9639854,36.602478,30.4829006,35.9388123,30.45784z
	 M35.3487778,15.7423687l0.3977509,0.0205841l0.1024857,0.1092014l0.1549721,0.1652336l-0.0154228,0.2664108l-0.0087051,0.152174
	l-0.2845726,0.2611256l-0.355217-0.0134315l-0.2897949-0.3324566l0.0097008-0.3412228l0.0002518-0.0087681L35.3487778,15.7423687z
	 M35.0689316,15.8700399l0.0079613-0.1264896l0.1241264-0.0011816L35.0689316,15.8700399z M35.4562378,15.6451693
	l0.0905457-0.080719l0.0910416,0.0900478L35.4562378,15.6451693z M35.8985138,15.7749548l0.1104469,0.0090179l-0.0017433,0.1069002
	L35.8985138,15.7749548z M35.9713974,16.6029224v0.0023003l-0.000248,0.0035458l-0.0069656,0.1184673l-0.1176567-0.0044785
	l-0.0054741-0.0001869L35.9713974,16.6029224z M35.5821037,16.8154182l-0.0803452,0.0693378l-0.0669136-0.074873
	L35.5821037,16.8154182z M35.199276,16.6983185l-0.0022392-0.0001259l-0.1380539-0.0052853l-0.0049782-0.161314
	L35.199276,16.6983185z M35.2923088,16.804472l0.1325836,0.1484432l-0.2845688,0.1223221l-0.0825844-0.2795963L35.2923088,16.804472
	z M35.4962845,17.0339451l0.3087006,0.1687775c-0.1009941,0.0294762-0.2079544,0.0442142-0.3186493,0.0399246
	c-0.1131821-0.0042915-0.22089-0.0279846-0.3211365-0.0664787L35.4962845,17.0339451z M35.5728989,16.9588223l0.1596985-0.1376839
	l0.2059669,0.0078354l-0.1067162,0.271637L35.5728989,16.9588223z M36.0512466,16.8223209l0.3567085-0.1067772
	c-0.1082039,0.1991253-0.281086,0.3569565-0.4897881,0.4462585L36.0512466,16.8223209z M36.1915436,16.2500076L36.088562,16.350565
	l0.0094528-0.1645489l0.0022354-0.0398006L36.1915436,16.2500076z M36.1087112,16.0002613l0.0109444-0.1906672L36.393528,15.94765
	l-0.1248703,0.2347593L36.1087112,16.0002613z M36.2582092,16.3284264l0.1101952,0.2918453l-0.3002396,0.0899868
	l0.0116882-0.2068367l0.0002518-0.0009956L36.2582092,16.3284264z M36.3427849,16.2618217l0.1524849-0.2869329
	c0.0258675,0.095645,0.0380554,0.1965742,0.0340767,0.3008642c-0.0042267,0.1100712-0.0266151,0.215107-0.0631828,0.3130531
	L36.3427849,16.2618217z M36.1131859,15.6913128v-0.0016165l-0.0012436-0.0001249l-0.1522331-0.3579521
	c0.2263603,0.1092014,0.4047165,0.3004913,0.4979973,0.5337572L36.1131859,15.6913128z M35.9935379,15.6730299l-0.2004929-0.0104475
	l-0.1572113-0.1678448l0.2368126-0.1055326L35.9935379,15.6730299z M35.5512581,15.4201126l-0.2858124-0.1542883
	c0.0945244-0.0251856,0.1942749-0.0371256,0.2970085-0.0332079c0.1007423,0.0039177,0.197506,0.0228233,0.2882996,0.0541029
	L35.5512581,15.4201126z M35.4629517,15.4889545l-0.1534767,0.1485662l-0.0004997,0.0004969l-0.2007408-0.0053482
	l0.1442757-0.2572079L35.4629517,15.4889545z M34.9923172,15.6296844l-0.3823318,0.1902323
	c0.1119385-0.2443352,0.3186493-0.4349403,0.5711327-0.5271025L34.9923172,15.6296844z M34.8283882,16.102623l-0.1320839-0.2111902
	l0.268898-0.1336412l-0.0064659,0.2188387L34.8283882,16.102623z M34.954258,16.1317253l-0.0032349,0.1206455l-0.0519867-0.0623741
	L34.954258,16.1317253z M34.9465446,16.4082127l-0.0072136,0.2513008l-0.269146-0.1356316l0.1557159-0.2539749
	L34.9465446,16.4082127z M34.9453011,16.777483l0.1017418,0.3440838c-0.2109413-0.1144257-0.3763618-0.3009872-0.462429-0.5260448
	L34.9453011,16.777483z M34.7582436,16.1837769l-0.2009926,0.3282261c-0.0283585-0.0990639-0.042038-0.2039127-0.0378113-0.3123684
	c0.0039825-0.1062775,0.0246277-0.2081423,0.0589561-0.3032265L34.7582436,16.1837769z M35.4771309,17.4745445l0.04776,0.0007458
	c0.6683922,0,1.2116661-0.5229988,1.2367897-1.1909561c0.0034828-0.0874977-0.0263672-0.1656685-0.0407944-0.2487507
	c0.2243729,0.8078175,0.412178,1.6471024,0.5756073,2.5051689c-0.2708893-0.2646713-0.6328201-0.4376774-1.0397758-0.4530373
	l-0.0606956-0.0009956c-0.5979996,0-1.1119156,0.3320198-1.3803177,0.8221836
	c-0.1092033-0.7213764-0.2335777-1.43013-0.3793449-2.1203518C34.6338654,17.1751728,35.0134621,17.4570694,35.4771309,17.4745445z
	 M35.835331,23.6137753l0.0636826-0.0668526l-0.0039825,0.1384296L35.835331,23.6137753z M35.8898087,23.8643284
	l-0.0082092,0.2884884l-0.3089485-0.1557178l0.1786041-0.2915974L35.8898087,23.8643284z M35.7544899,23.5134659
	l-0.151741-0.2423458l0.3084526-0.1534786l-0.0072136,0.2512379L35.7544899,23.5134659z M35.673645,23.6066227l-0.2308426,0.3768578
	c-0.0323372-0.1138039-0.048008-0.2341366-0.0432816-0.3586369c0.0044785-0.1220112,0.0283585-0.238863,0.0679092-0.3480644
	L35.673645,23.6066227z M35.8885651,24.2882614l0.1166649,0.3948917c-0.2420349-0.1312771-0.4320793-0.3454514-0.5308342-0.6038418
	L35.8885651,24.2882614z M35.942543,22.9705677l-0.439045,0.2184029c0.1283569-0.2804661,0.3656654-0.4992428,0.6557083-0.6050854
	L35.942543,22.9705677z M37.3954964,23.7727261l0.1266136,0.3350048l-0.3447685,0.1033554l0.0136833-0.2374935v-0.0011196
	L37.3954964,23.7727261z M37.2009735,23.7980995l0.0109444-0.1888657l0.0024872-0.0456448l0.1049728,0.1190891
	L37.2009735,23.7980995z M37.2241096,23.3960552l0.0124359-0.2189007l0.3144188,0.1584549l-0.14328,0.2694588L37.2241096,23.3960552
	z M37.229084,23.0413361l0.000248-0.0018654l-0.0014915-0.000124l-0.1746254-0.4109364
	c0.259697,0.12537,0.4644203,0.3449554,0.5716286,0.6127357L37.229084,23.0413361z M37.091774,23.0203171l-0.229847-0.01194
	l-0.1808434-0.1927185l0.2721329-0.1211433L37.091774,23.0203171z M37.1094322,23.1477394l-0.0019875,0.1226959
	l-0.1248741-0.1331425L37.1094322,23.1477394z M36.6835709,22.9990501l-0.2084503-0.0106964l0.1037292-0.092598
	L36.6835709,22.9990501z M36.5840721,22.7299633L36.25597,22.5529156c0.1084557-0.0289803,0.2228813-0.0425987,0.3410378-0.0381222
	c0.1156693,0.0044785,0.2266121,0.0261192,0.3308372,0.0620632L36.5840721,22.7299633z M36.48283,22.8090668l-0.1763649,0.170517
	l-0.0004959,0.0005608l-0.2303429-0.006094l0.1656685-0.29533L36.48283,22.8090668z M36.1818428,23.0999794l-0.1514893,0.1465149
	l0.0092049-0.1452084L36.1818428,23.0999794z M36.020153,23.4301338l0.0002518-0.0100746l0.3313332-0.3200798l0.456707,0.0235691
	l0.1174126,0.12537l0.1778564,0.1897354l-0.017662,0.3057766l-0.0099525,0.1746845l-0.3268585,0.2998085l-0.4074516-0.0154858
	l-0.3328285-0.3815842L36.020153,23.4301338z M37.0666504,24.0878315l-0.0002518,0.0026741l-0.000248,0.0040417
	l-0.0079613,0.1360054l-0.1350708-0.0051632l-0.0064659-0.000248L37.0666504,24.0878315z M36.6193962,24.3317318
	l-0.092041,0.0796623l-0.0771103-0.0860062L36.6193962,24.3317318z M36.1800995,24.1972809l-0.0024872-0.000061
	l-0.1587029-0.0060329l-0.0054703-0.185257L36.1800995,24.1972809z M36.2868156,24.319231l0.1524849,0.170332l-0.3268585,0.1404819
	l-0.0950241-0.3210125L36.2868156,24.319231z M36.5208893,24.5826588l0.3542213,0.1937141
	c-0.1156693,0.0338917-0.2385521,0.050745-0.3656654,0.0458317c-0.1298447-0.0049114-0.2534752-0.0320873-0.3686485-0.0763035
	L36.5208893,24.5826588z M36.6089478,24.4964046l0.1833305-0.1580811l0.2365608,0.008955l-0.1226349,0.3118706
	L36.6089478,24.4964046z M37.1581879,24.3396912l0.4094429-0.1225719c-0.1243744,0.2286015-0.322876,0.4098167-0.5624237,0.5122395
	L37.1581879,24.3396912z M37.4925079,23.6962357l0.1751213-0.3294086c0.02985,0.1098232,0.0437813,0.2257423,0.0393028,0.3453903
	c-0.0047264,0.1263657-0.0305939,0.2469482-0.0726357,0.3593826L37.4925079,23.6962357z M36.6069565,22.2483196
	l-0.0544739-0.0008698c-0.6126747,0-1.1181374,0.3899155-1.3181305,0.934866
	c-0.0355721-0.8256645-0.1029854-1.6335449-0.18507-2.4319115c0.2743721,0.2906036,0.6574478,0.4792194,1.0875359,0.4954491
	l0.0606956,0.0009956c0.6099358,0,1.1335564-0.3445206,1.3969841-0.85079
	c0.1174088,0.8875427,0.2114372,1.7888908,0.2601929,2.7135601C37.6439972,22.6221294,37.1716232,22.2696495,36.6069565,22.2483196z
	 M35.9726448,19.0347099l0.507946,0.0262432l0.1305962,0.1394234l0.1977577,0.2109413l-0.0194054,0.3400421l-0.0111923,0.1942749
	l-0.3634262,0.3333244l-0.4534721-0.0171623l-0.3698921-0.4243698l0.0124397-0.4355621l0.000248-0.0111942L35.9726448,19.0347099z
	 M35.6154366,19.1976414l0.0102005-0.1614399l0.1582031-0.0014915L35.6154366,19.1976414z M36.1099548,18.9105816
	L36.2253723,18.8076l0.1164169,0.1149216L36.1099548,18.9105816z M36.6743698,19.0762501l0.1410408,0.0115681l-0.0022392,0.1364384
	L36.6743698,19.0762501z M36.7676506,20.1331921l-0.000248,0.002985l-0.0002518,0.0044785l-0.0087051,0.1512394
	l-0.1502457-0.0057201l-0.0072136-0.0002499L36.7676506,20.1331921z M36.2703972,20.4044552l-0.1024857,0.0885544
	l-0.0855713-0.095644L36.2703972,20.4044552z M35.7818527,20.2549553l-0.002739-0.000124l-0.1763649-0.0067158l-0.006218-0.2059669
	L35.7818527,20.2549553z M35.9005051,20.3905239l0.1693993,0.1894245l-0.3634262,0.1562157l-0.1054688-0.3569584
	L35.9005051,20.3905239z M36.1609459,20.6834297l0.3940239,0.2154179c-0.1288528,0.0376854-0.265419,0.0564651-0.4067078,0.050993
	c-0.1445236-0.0054722-0.2820854-0.035696-0.4099426-0.0848236L36.1609459,20.6834297z M36.2587051,20.5875359l0.2039757-0.1757431
	l0.2629318,0.0099506l-0.1363182,0.3467579L36.2587051,20.5875359z M36.8693886,20.4132862l0.4554634-0.1363163
	c-0.1383057,0.2542229-0.3589478,0.4557114-0.6253586,0.5696392L36.8693886,20.4132862z M37.0487404,19.6827049l-0.1315918,0.128355
	l0.012188-0.2100697l0.002739-0.050745L37.0487404,19.6827049z M36.9427719,19.3639297l0.0139275-0.2434025l0.3494949,0.1762409
	l-0.1591988,0.2996197L36.9427719,19.3639297z M37.133564,19.7828274l0.1405411,0.3725033l-0.3830757,0.1149235l0.0149269-0.2640495
	l0.000248-0.0012436L37.133564,19.7828274z M37.241272,19.6977539l0.1947708-0.3662853
	c0.0330849,0.1221371,0.0487556,0.2509899,0.0437813,0.3840714c-0.0054741,0.1405449-0.0340805,0.2746201-0.0808449,0.3996181
	L37.241272,19.6977539z M36.9484901,18.9695358v-0.0021133l-0.0014915-0.000124l-0.1942749-0.4569569
	c0.2890511,0.1394253,0.516407,0.3835735,0.635807,0.6813297L36.9484901,18.9695358z M36.7957573,18.9461536l-0.2557144-0.0133076
	l-0.2009888-0.2143002l0.3024788-0.134697L36.7957573,18.9461536z M36.2310944,18.6232758l-0.3649178-0.1968861
	c0.1206436-0.0322132,0.2480049-0.0473881,0.379097-0.0424118c0.1288528,0.0049744,0.2522316,0.0291023,0.3681526,0.0690269
	L36.2310944,18.6232758z M36.118412,18.7112083l-0.1960182,0.1896725l-0.0007439,0.0006218l-0.2559662-0.0068398l0.1840782-0.328352
	L36.118412,18.7112083z M35.5176773,18.8908062l-0.4882965,0.2429047c0.1430321-0.3119316,0.4069557-0.5552101,0.7293358-0.6728706
	L35.5176773,18.8908062z M35.3084793,19.494524l-0.1686554-0.2695198l0.343029-0.1706448l-0.0079613,0.2793484L35.3084793,19.494524
	z M35.4691696,19.5317135l-0.0044746,0.1539764l-0.0661697-0.0796013L35.4691696,19.5317135z M35.4592209,19.8846893
	l-0.0092049,0.3207645l-0.3435249-0.17313l0.1985054-0.3242474L35.4592209,19.8846893z M35.4577293,20.3560734l0.1298485,0.4391689
	c-0.2693977-0.1460171-0.480587-0.3841953-0.5905342-0.6715031L35.4577293,20.3560734z M35.2189293,19.5981293l-0.2492485,0.4069557
	c-0.0169144-0.1376209-0.032589-0.2758026-0.0507469-0.4124279c0.0074654-0.1259918,0.0293541-0.2480049,0.0703964-0.361311
	L35.2189293,19.5981293z M36.3365669,27.2233334l0.4567032,0.023632l0.1176605,0.12537l0.1778564,0.1896725l-0.017662,0.3058395
	l-0.0099487,0.1746845l-0.3268585,0.2997456l-0.4077034-0.0154228l-0.3325806-0.3816471l0.0109482-0.3916569l0.0004959-0.0100746
	L36.3365669,27.2233334z M36.0154266,27.3699112l0.0092049-0.1452084l0.1422844-0.0013695L36.0154266,27.3699112z
	 M36.4601936,27.1117077l0.1037292-0.092598l0.1047249,0.1033554L36.4601936,27.1117077z M36.9676476,27.2607079
	l0.1268616,0.0103855l-0.0019913,0.1226978L36.9676476,27.2607079z M37.0514755,28.2111855v0.0027351l-0.000248,0.0039806
	l-0.0079613,0.1360054l-0.1350708-0.0051003l-0.0064697-0.000248L37.0514755,28.2111855z M36.6044693,28.4551468
	l-0.0920372,0.0796623l-0.0771141-0.0860043L36.6044693,28.4551468z M36.1651764,28.3206978l-0.0024872-0.000124
	l-0.1587029-0.0060329l-0.005722-0.185194L36.1651764,28.3206978z M36.2718887,28.4426479l0.1522369,0.170332l-0.3266106,0.1404819
	l-0.0950203-0.3210125L36.2718887,28.4426479z M36.5059662,28.7060127l0.3542175,0.1937141
	c-0.1156654,0.0338917-0.2385483,0.050808-0.3656616,0.0458946c-0.1298485-0.0049133-0.253479-0.0320892-0.3686485-0.0763035
	L36.5059662,28.7060127z M36.5940208,28.6198196l0.1830826-0.1580811l0.2365608,0.008955l-0.1223831,0.3118095
	L36.5940208,28.6198196z M37.1432648,28.4631081l0.4094429-0.1225719c-0.1243744,0.2286015-0.3228798,0.4097538-0.5624237,0.5122395
	L37.1432648,28.4631081z M37.3042068,27.8060951l-0.1181564,0.1154194l0.0109444-0.1889248l0.0024872-0.0456467
	L37.3042068,27.8060951z M37.2091827,27.5194092l0.0124359-0.2189007l0.3141747,0.1585159l-0.1430321,0.2694607
	L37.2091827,27.5194092z M37.3805733,27.896143l0.1266136,0.3350048l-0.3447685,0.1032944l0.0136795-0.2374344V28.09589
	L37.3805733,27.896143z M37.4775848,27.8196507l0.1751213-0.3294067c0.02985,0.1098232,0.0437775,0.2256794,0.0393028,0.3453903
	c-0.0047264,0.1263657-0.0305977,0.2469463-0.0726357,0.3593826L37.4775848,27.8196507z M37.2141571,27.164753v-0.0019283
	l-0.0012436-0.000061l-0.1746216-0.4109364c0.2596931,0.12537,0.4641685,0.3448925,0.5716286,0.6126728L37.2141571,27.164753z
	 M37.0768471,27.143734l-0.2300949-0.0120029l-0.1805916-0.1927185l0.2721329-0.1210804L37.0768471,27.143734z
	 M36.569149,26.8533802l-0.3281059-0.1770496c0.1084557-0.0289783,0.2228813-0.0426598,0.3407898-0.0381832
	c0.1159172,0.0044785,0.22686,0.0261822,0.331089,0.0621262L36.569149,26.8533802z M36.467907,26.9324207l-0.1763649,0.1705799
	l-0.0007477,0.0005608l-0.2300949-0.0061569l0.1656685-0.2952671L36.467907,26.9324207z M35.9276199,27.0939217l-0.439045,0.2184658
	c0.1283531-0.280529,0.3656616-0.4993057,0.6557045-0.6050873L35.9276199,27.0939217z M35.739315,27.6368828l-0.1514893-0.2424088
	l0.3084526-0.1534157l-0.0072174,0.2511749L35.739315,27.6368828z M35.8838387,27.6702766l-0.0037308,0.1384926l-0.0597-0.071579
	L35.8838387,27.6702766z M35.8748856,27.9877453l-0.0082092,0.2884254l-0.3089485-0.1556549l0.1786003-0.2915974
	L35.8748856,27.9877453z M35.873642,28.4116154l0.1166611,0.3949547c-0.2420349-0.131279-0.4320793-0.3455143-0.5308342-0.6038418
	L35.873642,28.4116154z M35.6587181,27.7300396l-0.2308388,0.3767948c-0.0323372-0.1137409-0.048008-0.2340736-0.0432816-0.3585739
	c0.0044746-0.1220131,0.0283546-0.2389259,0.0676575-0.3480644L35.6587181,27.7300396z M34.0000496,13.0335979l0.0502472-0.0530462
	l-0.0029831,0.1097612L34.0000496,13.0335979z M34.0433311,13.2321634l-0.0064659,0.2286634l-0.245018-0.1234417
	l0.1415367-0.2310896L34.0433311,13.2321634z M33.9358711,12.9540596l-0.1201439-0.1921597l0.2445221-0.1216393l-0.005722,0.1991253
	L33.9358711,12.9540596z M33.8719444,13.0278769l-0.1828346,0.298687c-0.0256195-0.0901098-0.0383072-0.1855679-0.0345764-0.2841978
	c0.0037346-0.0967636,0.0226364-0.1894236,0.0539818-0.2759266L33.8719444,13.0278769z M34.0423355,13.5681629l0.0925369,0.3131151
	c-0.1920357-0.1041021-0.3427773-0.2738743-0.420887-0.4787207L34.0423355,13.5681629z M34.0851212,12.5236588l-0.3482513,0.173193
	c0.1019897-0.2223835,0.2900467-0.3957624,0.5198898-0.4796534L34.0851212,12.5236588z M35.2368393,13.1595278l0.1002464,0.265542
	l-0.2731285,0.0819626l0.0106964-0.188242v-0.0008707L35.2368393,13.1595278z M35.0826111,13.179677l0.008709-0.1497478
	l0.0019875-0.0361938l0.0830841,0.0944633L35.0826111,13.179677z M35.1010208,12.8609648l0.0099487-0.1735039l0.2490005,0.1256199
	l-0.11343,0.2135525L35.1010208,12.8609648z M35.1049995,12.579814v-0.0014925l-0.0009956-0.000124l-0.1385536-0.3257389
	c0.2059669,0.0993757,0.3681526,0.2734394,0.4529762,0.4856853L35.1049995,12.579814z M34.996048,12.5631485l-0.1823349-0.0095148
	l-0.1430321-0.1527328l0.2154198-0.0960178L34.996048,12.5631485z M35.0099792,12.6641407l-0.0014954,0.0972614
	l-0.0990028-0.1055317L35.0099792,12.6641407z M34.6724243,12.5462952l-0.1651726-0.0085192l0.0823364-0.0733814
	L34.6724243,12.5462952z M34.5935707,12.3329916l-0.2601967-0.140358c0.086071-0.0229473,0.1768646-0.0337677,0.2703934-0.0302229
	c0.0917892,0.0035448,0.1798477,0.0207081,0.2624321,0.0491905L34.5935707,12.3329916z M34.5134697,12.3956766l-0.1397972,0.1351957
	l-0.0004959,0.0004358l-0.1825829-0.0048504l0.13134-0.2340746L34.5134697,12.3956766z M34.2746696,12.6262684l-0.1198959,0.1161671
	l0.0072136-0.1151094L34.2746696,12.6262684z M34.1465645,12.8880167l0.000248-0.0080223l0.2624321-0.253726l0.3621826,0.0187187
	l0.0930328,0.0993757l0.1410408,0.1503696l-0.0139313,0.2424078l-0.0079613,0.1384916l-0.2589493,0.2375574l-0.3231239-0.0121889
	l-0.2639275-0.3025427L34.1465645,12.8880167z M34.9761467,13.4093361l-0.000248,0.0021143l-0.000248,0.0031719l-0.006218,0.1078329
	l-0.1072121-0.0041046l-0.0049744-0.000186L34.9761467,13.4093361z M34.6216774,13.6026773l-0.0731316,0.0631208
	L34.4876022,13.59764L34.6216774,13.6026773z M34.2734261,13.496088l-0.0019875-0.0000629l-0.1256218-0.0047884
	l-0.0047264-0.1468248L34.2734261,13.496088z M34.3580017,13.5927277l0.1206436,0.1350718l-0.2589493,0.1113157
	l-0.0751228-0.2544098L34.3580017,13.5927277z M34.5435715,13.8015537l0.280838,0.1535416
	c-0.0917892,0.026865-0.1890488,0.0402355-0.2900429,0.0363798c-0.1027336-0.0039177-0.2007408-0.0254974-0.2920341-0.0605087
	L34.5435715,13.8015537z M34.6132202,13.7332096l0.1452713-0.125308l0.1875572,0.0070887l-0.0970116,0.2471962
	L34.6132202,13.7332096z M35.0487823,13.6089582l0.3243713-0.0971375c-0.0985069,0.1812153-0.2557144,0.3248062-0.4457626,0.406024
	L35.0487823,13.6089582z M35.3137016,13.0988951l0.1388054-0.2610636c0.0236282,0.0870628,0.0345764,0.1789131,0.0310936,0.2737494
	c-0.0037346,0.1001844-0.0241318,0.1957674-0.0574646,0.2848825L35.3137016,13.0988951z M34.6117287,11.9512215
	l-0.0432854-0.0007467c-0.6076965,0-1.102211,0.4759226-1.1250992,1.083807
	c-0.0019875,0.0530462,0.0194054,0.0993757,0.0243797,0.1508055c-0.2400436-0.7230558-0.5032234-1.4159517-0.7845612-2.0816078
	c0.1736298,0.1830797,0.4144211,0.3027916,0.6858063,0.3129902l0.0383072,0.0006218
	c0.5395393,0,0.9778404-0.4220676,0.9982376-0.9611731c0.0022392-0.0579586-0.0194016-0.1090145-0.0268669-0.1646729
	c0.3619347,0.6379213,0.7004852,1.310854,1.0139084,2.0184879C35.1965408,12.0993528,34.9209251,11.9628506,34.6117287,11.9512215z
	 M33.2652397,10.0185528l0.3211365,0.0166044l0.0825882,0.0881815l0.1251183,0.1333303l-0.0124359,0.214983l-0.0069656,0.1228209
	l-0.229847,0.2107544l-0.2865601-0.0108833l-0.2338257-0.2682772l0.0077133-0.2753677l0.000248-0.0070896L33.2652397,10.0185528z
	 M33.0393753,10.1215973l0.0064659-0.1020498l0.0999985-0.0009947L33.0393753,10.1215973z M33.3520546,9.940134l0.0728836-0.0651102
	l0.0736313,0.0726347L33.3520546,9.940134z M33.7090111,10.044858l0.0890541,0.0072756l-0.0014954,0.0862551L33.7090111,10.044858z
	 M33.7677155,10.7130642v0.0018663l-0.000248,0.0028601l-0.0054741,0.095583l-0.0950203-0.0036068l-0.0044785-0.0001249
	L33.7677155,10.7130642z M33.4535446,10.8845787l-0.0649223,0.0559683l-0.0539818-0.0605087L33.4535446,10.8845787z
	 M33.1445961,10.7900534l-0.0017395-0.0001249l-0.1114426-0.0042286l-0.0039787-0.1302214L33.1445961,10.7900534z
	 M33.2197189,10.8757477l0.1072121,0.1197739l-0.229847,0.0987539l-0.0666656-0.2256794L33.2197189,10.8757477z
	 M33.3843918,11.0609426l0.2490005,0.1361914c-0.0815926,0.0238171-0.1676598,0.0356951-0.2572098,0.0322132
	c-0.0912895-0.0034828-0.1781044-0.0225744-0.2591972-0.053606L33.3843918,11.0609426z M33.4460831,11.0003099l0.1288528-0.1111298
	l0.1664124,0.0062809l-0.0860672,0.2192736L33.4460831,11.0003099z M33.8321419,10.8901129l0.2878075-0.0861301
	c-0.0870628,0.1606932-0.2268639,0.2880535-0.3952675,0.3601294L33.8321419,10.8901129z M33.9455719,10.4282455
	l-0.0830803,0.0811548l0.0074615-0.1328335l0.0017395-0.0320263L33.9455719,10.4282455z M33.8786583,10.2266951l0.008709-0.1538525
	l0.22089,0.1114407l-0.1004944,0.1894236L33.8786583,10.2266951z M33.999054,10.4915524l0.0890541,0.2355042l-0.2422829,0.0726357
	l0.0094528-0.1669121v-0.0008078L33.999054,10.4915524z M34.0674629,10.4377594l0.1231308-0.2315865
	c0.0208931,0.0772371,0.0305939,0.1587029,0.0273628,0.2428427c-0.0032349,0.0888662-0.0213928,0.1736279-0.0509949,0.2526684
	L34.0674629,10.4377594z M34.160244,10.1178045l-0.2781029-0.14042V9.976016l-0.0009956-0.000062l-0.1228828-0.2888613
	C33.9410973,9.7752123,34.0848732,9.9295616,34.160244,10.1178045z M33.7856255,9.9625835l-0.1616859-0.0083952
	l-0.1268654-0.1355066l0.1910439-0.0851355L33.7856255,9.9625835z M33.428669,9.7584839l-0.2305908-0.1245003
	c0.0761185-0.0203352,0.1567116-0.029974,0.2395477-0.0268021c0.0813408,0.003171,0.1594467,0.0184069,0.23283,0.0436554
	L33.428669,9.7584839z M33.3575249,9.8140793l-0.1241264,0.1198978l-0.000248,0.0003738l-0.1619377-0.0042915l0.1164169-0.2075825
	L33.3575249,9.8140793z M32.977684,9.9276342l-0.3087006,0.1535416c0.0902977-0.197197,0.2572098-0.3509874,0.4609375-0.4254265
	L32.977684,9.9276342z M32.8453484,10.3092804l-0.1064644-0.1703949l0.2166634-0.1078949l-0.0049782,0.1766129
	L32.8453484,10.3092804z M32.9468384,10.3327866l-0.0024872,0.0973244l-0.042038-0.0503101L32.9468384,10.3327866z
	 M32.9406204,10.5559788l-0.005722,0.2027321l-0.2171593-0.1094503l0.125618-0.2049713L32.9406204,10.5559788z
	 M32.9398727,10.853982l0.0818405,0.277606c-0.1701469-0.0922871-0.3037262-0.2428427-0.373127-0.4244938L32.9398727,10.853982z
	 M32.7886353,10.3747635l-0.1621857,0.2649193c-0.0228882-0.0799732-0.0338326-0.1645479-0.0305977-0.2521086
	c0.0032349-0.0857563,0.0201492-0.1679068,0.04776-0.2446461L32.7886353,10.3747635z M27.415369,3.9096704
	c2.5310383,0.8017235,4.7976551,2.8447132,6.5747318,5.7205825c-0.1562157-0.1162291-0.3365593-0.2024832-0.5452614-0.2103806
	l-0.0383072-0.0006227c-0.5392952,0-0.9775925,0.4220686-0.9979897,0.9611731
	c-0.0019913,0.0479469,0.0174141,0.0898609,0.0221405,0.1362534C31.1016064,7.5781217,29.3802509,5.2763066,27.415369,3.9096704z
	 M33.6152306,13.6361961c0.1885567,0.3195829,0.5136719,0.5512943,0.9111748,0.5662813l0.0432854,0.0006838
	c0.6079445,0,1.1024628-0.4759216,1.1253471-1.083744c0.0024872-0.0603848-0.0208969-0.113555-0.0281105-0.1717625
	c0.360939,0.880702,0.6858063,1.8048105,0.9659004,2.7724514c-0.19104-0.4055882-0.5840683-0.70154-1.0616684-0.719574
	l-0.0475121-0.0007467c-0.6544609,0-1.1820641,0.5043421-1.2275848,1.1526499
	C34.0963173,15.28473,33.8697052,14.4438276,33.6152306,13.6361961z M34.5873489,32.4444885
	c0.2121849,0.4833221,0.6818275,0.8322563,1.2437553,0.8534622l0.0544777,0.0008698
	c0.4979973,0,0.9158974-0.2674675,1.1696243-0.6543999c-0.245018,1.0652122-0.5365562,2.0919304-0.8760986,3.0682144
	c0.0126839-0.6506691-0.4965096-1.197361-1.148983-1.2220497l-0.0460167-0.0007439
	c-0.4139214,0-0.7616768,0.2202034-0.9768448,0.5391045C34.2301445,34.1971207,34.4201889,33.3307877,34.5873489,32.4444885z
	 M33.4687195,38.330925l0.0462646-0.0485077l-0.0029831,0.1004333L33.4687195,38.330925z M33.5082703,38.5126991l-0.00597,0.2093239
	l-0.2241249-0.1129341l0.1296005-0.2116241L33.5082703,38.5126991z M33.4100113,38.2581024l-0.1099472-0.1758652l0.223877-0.1113815
	l-0.0054741,0.1823349L33.4100113,38.2581024z M33.3515549,38.3256989l-0.167408,0.2734413
	c-0.023632-0.0825233-0.0350723-0.1698341-0.0315895-0.2601929c0.003231-0.0885544,0.0206451-0.1733818,0.0492516-0.2525444
	L33.3515549,38.3256989z M33.5075226,38.820343l0.0845757,0.2865601c-0.1756172-0.0952721-0.3136749-0.250679-0.3853149-0.4381752
	L33.5075226,38.820343z M33.5465775,37.8641434l-0.3186493,0.1585159c0.0932808-0.2035408,0.2654152-0.3623047,0.4758606-0.439106
	L33.5465775,37.8641434z M34.5455589,38.3809242l-0.0858192,0.0837669l0.0079613-0.1371269l0.0017395-0.0330811
	L34.5455589,38.3809242z M34.4764061,38.172905l0.0092049-0.1588287l0.2281036,0.1149864l-0.1039772,0.1955185L34.4764061,38.172905
	z M34.6010323,38.4462814l0.0917892,0.2430305l-0.2502441,0.0749969l0.0099487-0.1722603v-0.0008087L34.6010323,38.4462814z
	 M34.6714287,38.3907471l0.1271095-0.239048c0.0213928,0.0797234,0.0315933,0.1638031,0.0283585,0.250679
	c-0.0034828,0.0916634-0.0221367,0.1791611-0.0527344,0.2607536L34.6714287,38.3907471z M34.4801369,37.9155121v-0.0013695
	l-0.0009918-0.000061l-0.1268654-0.2981911c0.1888046,0.0909805,0.337307,0.2503052,0.414917,0.4445801L34.4801369,37.9155121z
	 M34.3806381,37.9002762l-0.1669121-0.008709L34.082634,37.75177l0.1972618-0.0879326L34.3806381,37.9002762z
	 M34.3933258,37.9927483l-0.0014954,0.0889893l-0.0905418-0.0965767L34.3933258,37.9927483z M34.0843773,37.8848534
	L33.932888,37.877079l0.0753708-0.0672264L34.0843773,37.8848534z M34.0119896,37.6895828l-0.2380524-0.128479
	c0.0788536-0.021019,0.1619339-0.0309067,0.2475052-0.0276756c0.0840759,0.0032349,0.1646729,0.0189667,0.2402916,0.0450249
	L34.0119896,37.6895828z M33.9386101,37.7469826l-0.127861,0.1237526l-0.0004959,0.0003738l-0.16716-0.0044174l0.1201477-0.2142982
	L33.9386101,37.7469826z M33.7202034,37.958046l-0.1096954,0.1063423l0.0064659-0.1053467L33.7202034,37.958046z
	 M33.6027946,38.1976547l0.000248-0.0072746l0.2402954-0.2323341l0.3313332,0.0171661l0.0855713,0.0909805l0.1288528,0.137619
	l-0.0126839,0.2218857l-0.0072174,0.1268005l-0.2373047,0.2175331l-0.2957649-0.0111923l-0.241539-0.2769241L33.6027946,38.1976547z
	 M34.3622322,38.6748848l-0.0002518,0.0019264l-0.000248,0.0029221l-0.0054703,0.0986938l-0.098011-0.0037308l-0.0047226-0.0001259
	L34.3622322,38.6748848z M34.0378609,38.8519325l-0.0671654,0.0577736l-0.0557175-0.062439L34.0378609,38.8519325z
	 M33.7189598,38.7543602l-0.0017395-0.000061l-0.1151733-0.0044174l-0.0042267-0.134388L33.7189598,38.7543602z
	 M33.7963219,38.8427925l0.1106949,0.1236267l-0.2373085,0.1019249l-0.0686531-0.2328911L33.7963219,38.8427925z
	 M33.9662209,39.0339546l0.257206,0.1406059c-0.0840759,0.0245667-0.17313,0.0368156-0.2654152,0.0332718
	c-0.0942764-0.0036049-0.1840744-0.0233192-0.2674065-0.0553474L33.9662209,39.0339546z M34.0301476,38.9713936l0.1330833-0.1146736
	l0.1716385,0.0064697l-0.0890541,0.2262993L34.0301476,38.9713936z M34.4286461,38.8576546l0.2970085-0.0889282
	c-0.0900459,0.1659164-0.2340736,0.2973824-0.4079514,0.3716965L34.4286461,38.8576546z M34.028656,37.3400879l-0.0395508-0.0006218
	c-0.3892937,0-0.7178955,0.2201424-0.8935127,0.5386696c0.2577057-0.6861801,0.4900398-1.406498,0.7059555-2.1455994
	c0.0248756,0.6182709,0.5089417,1.1291428,1.1375351,1.1528358l0.0460205,0.0008087
	c0.3820801,0,0.7064514-0.1886177,0.925602-0.4661598c-0.2858162,0.752533-0.5932732,1.4791946-0.931324,2.1649399
	c0.0126877-0.0591393,0.0388031-0.1128693,0.0410423-0.1754951C35.0415688,37.84132,34.5965538,37.3615417,34.028656,37.3400879z
	 M34.8147087,35.2087288l0.385067,0.0199013l0.0992508,0.1057167l0.1497459,0.1599503l-0.0146751,0.2578278l-0.0084572,0.1473236
	l-0.2756157,0.2527924l-0.3437729-0.0130577l-0.2805901-0.3217621l0.0094528-0.3302765l0.000248-0.008522L34.8147087,35.2087288z
	 M34.5438194,35.3322334l0.0079613-0.1223831l0.1198959-0.0011215L34.5438194,35.3322334z M34.9189339,35.1145782
	l0.0873108-0.0781097l0.0883064,0.0871887L34.9189339,35.1145782z M35.3467865,35.2401962l0.1069641,0.00877l-0.0017433,0.1034775
	L35.3467865,35.2401962z M35.4174309,36.0416718v0.0022392l-0.000248,0.003418l-0.0067177,0.1146736L35.2965393,36.15765
	l-0.0054741-0.0001869L35.4174309,36.0416718z M35.0405731,36.2473869l-0.077858,0.0671654l-0.0646744-0.0725746
	L35.0405731,36.2473869z M34.6701851,36.1340218l-0.0022392-0.0001259l-0.1335793-0.0051003l-0.0049744-0.1561508
	L34.6701851,36.1340218z M34.7599831,36.2368164l0.1286049,0.1436539l-0.2756157,0.1184044l-0.0800972-0.2706413
	L34.7599831,36.2368164z M34.9574928,36.458889l0.298748,0.1633682c-0.0977592,0.0286064-0.2012405,0.0428467-0.3084526,0.0386772
	c-0.1094475-0.0041656-0.2136765-0.02705-0.310688-0.0643005L34.9574928,36.458889z M35.03162,36.3861923l0.1544724-0.1332703
	l0.1994972,0.0075874l-0.1032295,0.262928L35.03162,36.3861923z M35.4947929,36.2540436l0.3452644-0.1033554
	c-0.1047211,0.1927795-0.2721329,0.3455734-0.4743652,0.4319534L35.4947929,36.2540436z M35.6306114,35.7000732
	l-0.0997505,0.0973244l0.0092049-0.1592636l0.0022392-0.0384941L35.6306114,35.7000732z M35.5502625,35.4583511l0.0106964-0.1845741
	l0.2649193,0.1336403l-0.1206436,0.2272339L35.5502625,35.4583511z M35.6950378,35.7760048l0.1067123,0.2824554
	l-0.2907867,0.0871277l0.0114403-0.2001839l0.000248-0.0009956L35.6950378,35.7760048z M35.7768745,35.7115173l0.1475105-0.2777939
	c0.0251236,0.092598,0.0368156,0.1903572,0.0333328,0.2912254c-0.0042305,0.1065903-0.0258713,0.2082672-0.0614395,0.3030396
	L35.7768745,35.7115173z M35.5547409,35.1592903v-0.0016174l-0.0009956-0.000061L35.4062386,34.8111
	c0.2191467,0.1057205,0.3915329,0.2908516,0.4820786,0.516655L35.5547409,35.1592903z M35.4388237,35.1415672l-0.1940269-0.0100746
	l-0.1522331-0.1625595l0.2293472-0.1021118L35.4388237,35.1415672z M35.0107231,34.8967323l-0.2766113-0.1493111
	c0.0912933-0.0244408,0.187809-0.0359459,0.2873077-0.0321503c0.0977592,0.0037918,0.1912918,0.0220757,0.2793465,0.0523605
	L35.0107231,34.8967323z M34.9254036,34.963398l-0.1487541,0.1438408l-0.0004959,0.0004349l-0.1942749-0.0051613
	l0.1397972-0.2490005L34.9254036,34.963398z M34.4696922,35.0995903l-0.3701439,0.1842003
	c0.1084557-0.2365608,0.3084526-0.4210129,0.5529747-0.5102501L34.4696922,35.0995903z M34.3112373,35.557354l-0.1281052-0.2043495
	l0.2601929-0.1294136l-0.00597,0.2118111L34.3112373,35.557354z M34.4328766,35.5855865l-0.0032349,0.1167259l-0.0502472-0.0603218
	L34.4328766,35.5855865z M34.425415,35.853241l-0.0069656,0.2432175l-0.2604446-0.131279l0.1504974-0.2458878L34.425415,35.853241z
	 M34.4244194,36.2106972l0.0982552,0.3330154c-0.2042236-0.1107559-0.364418-0.2913513-0.4477501-0.5091934L34.4244194,36.2106972z
	 M34.2430801,35.6359596l-0.1945229,0.3177147c-0.0273628-0.0958939-0.0405464-0.1973839-0.0365677-0.3023567
	c0.0037308-0.1029205,0.02388-0.2014236,0.0572128-0.2935257L34.2430801,35.6359596z M27.415369,46.0903282
	c2.2681103-1.5774498,4.2135887-4.3969803,5.6026134-8.0094604c-0.0243797,0.0819016-0.0557213,0.16119-0.0589561,0.250679
	c-0.021389,0.5681458,0.4233742,1.0479851,0.9915237,1.0694389l0.0395508,0.0006218
	c0.2773552,0,0.528347-0.1085167,0.7134171-0.2857513C32.8413696,42.6527176,30.2998829,45.1766701,27.415369,46.0903282z"/>
</svg>
