<?xml version="1.0" encoding="utf-8"?>
<!-- Generator: Adobe Illustrator 18.0.0, SVG Export Plug-In . SVG Version: 6.00 Build 0)  -->
<!DOCTYPE svg PUBLIC "-//W3C//DTD SVG 1.1//EN" "http://www.w3.org/Graphics/SVG/1.1/DTD/svg11.dtd">
<svg version="1.1" id="Layer_1" xmlns="http://www.w3.org/2000/svg" xmlns:xlink="http://www.w3.org/1999/xlink" x="0px" y="0px"
	 width="50px" height="50px" viewBox="0 0 50 50" enable-background="new 0 0 50 50" xml:space="preserve">
<path d="M37.3002052,40.0848618c0.2254181-0.1497536,0.3609848-0.4019699,0.3609848-0.6731033
	c0-4.8773155-2.7763443-9.1115837-6.8271618-11.225565c0.3322144-0.026207,0.597435-0.2974377,0.597435-0.6364498
	c0-0.3562546-0.2900486-0.6463032-0.6463032-0.6463032h-2.3219604c-0.0721169-1.462162-1.0679741-2.6686592-2.4204807-3.0635338
	c0.511919-0.3117218,0.872509-0.849947,0.872509-1.4921112c0-0.5423622-0.2581272-1.0111294-0.6423626-1.3369408
	c2.3668861-0.5756626,4.1339722-2.6976223,4.1339722-5.2395821c0-2.4765406-1.6811752-4.54599-3.9558449-5.1843128
	c0.2805901-0.3139887,0.4642353-0.7180262,0.4642353-1.1715212c0-0.7956619-0.5351715-1.4455113-1.2579269-1.6703377
	l1.0593071-3.1123018c0.2017708-0.5911303,0.0520191-1.2327039-0.3893585-1.6709285
	c-0.6100464-0.6147757-1.6803875-0.6163521-2.2998924-0.0015764c-0.4413757,0.4429538-0.5895538,1.0829511-0.3877811,1.6740813
	l1.0545769,3.0964398c-0.7578297,0.2022648-1.3288612,0.8639369-1.3288612,1.6846232
	c0,0.4221649,0.1686687,0.7944794,0.4157619,1.0995026c-2.3944721,0.5555639-4.1879616,2.6945696-4.1879616,5.2563314
	c0,2.6130924,1.8612728,4.796629,4.3282566,5.2978096c-0.3393097,0.3234463-0.556057,0.7737885-0.556057,1.2787132
	c0,0.6312294,0.3499489,1.1603889,0.8472881,1.4751663c-1.3804874,0.3774357-2.4015675,1.5985146-2.4748669,3.0804787h-2.4031429
	c-0.3562546,0-0.6463013,0.2900486-0.6463013,0.6463032c0,0.3090611,0.2226582,0.5560551,0.5131016,0.6193066
	c-4.0701303,2.1077747-6.8626308,6.3514004-6.8626308,11.2427082c0,0.2821693,0.1466007,0.542263,0.3877811,0.6888657
	c0.3601961,0.2196045,0.7255144,0.4193077,1.0908327,0.6182251l-0.1079798,1.2928009
	c-0.6691589,0.0671921-1.2003889,0.6151695-1.2003889,1.3015709c0,0.7314262,0.5958595,1.3272858,1.3272848,1.3272858
	s1.3272848-0.5958595,1.3272848-1.3272858c0-0.6056137-0.4165497-1.0969429-0.9726057-1.2553635l0.0910339-1.0862045
	c1.0786152,0.5581284,2.1796951,1.0191116,3.2981129,1.397728l-0.0476837,1.4434433
	c-0.6435452,0.0910339-1.1487637,0.6229515-1.1487637,1.2911263c0,0.7314262,0.5958595,1.3272858,1.3272839,1.3272858
	c0.7314262,0,1.3272858-0.5958595,1.3272858-1.3272858c0-0.6227531-0.4405899-1.1230469-1.0206852-1.2651176l0.0433502-1.3129005
	c1.4415684,0.4524117,2.9126949,0.7550697,4.4090443,0.9090614v1.4580231
	c-0.6155643,0.1148758-1.0924091,0.6315231-1.0924091,1.2796974c0,0.7314262,0.5958595,1.3272858,1.3272839,1.3272858
	c0.7314262,0,1.3272858-0.5958595,1.3272858-1.3272858c0-0.6425591-0.4689636-1.155365-1.0766449-1.2765465v-1.4102402
	c0.6064987,0.0490646,1.2161522,0.0810852,1.8301392,0.0810852c1.0861034,0,2.1174297-0.0829544,3.0991001-0.2130051v1.2690582
	c-0.5737915,0.1462059-1.0088634,0.6441345-1.0088634,1.2627525c0,0.7314262,0.5958595,1.3272858,1.3272858,1.3272858
	c0.7314243,0,1.3272839-0.5958595,1.3272839-1.3272858c0-0.6722107-0.5107365-1.2074814-1.1601925-1.2933922v-1.3046227
	c1.5239353-0.2330055,2.8965397-0.5893593,4.0874691-0.9834442v1.5553627
	c-0.5903416,0.134285-1.0419655,0.6391106-1.0419655,1.2694511c0,0.7314262,0.5958595,1.3272858,1.3272858,1.3272858
	s1.3272858-0.5958595,1.3272858-1.3272858c0-0.6604881-0.4941864-1.186203-1.1270905-1.2866936v-1.7019653
	c1.023838-0.3615723,1.8876762-0.7388115,2.5741768-1.072998v1.4161491
	c-0.6250229,0.107193-1.1113243,0.6286697-1.1113243,1.2835426c0,0.7314262,0.5958595,1.3272858,1.327282,1.3272858
	c0.7314262,0,1.3272858-0.5958595,1.3272858-1.3272858c0-0.6358604-0.4595032-1.1442299-1.0577278-1.2727051v-1.6701393
	C36.7784348,40.4227905,37.2399101,40.1248589,37.3002052,40.0848618z M14.7405396,43.313221
	c0,0.4995499-0.4047203,0.9042702-0.9042702,0.9042702c-0.4995489,0-0.9042692-0.4047203-0.9042692-0.9042702
	s0.4047203-0.9042702,0.9042692-0.9042702C14.3358192,42.4089508,14.7405396,42.8136711,14.7405396,43.313221z
	 M18.677702,45.1247864c0,0.5225677-0.4233685,0.9459343-0.9459362,0.9459343s-0.9459362-0.4233665-0.9459362-0.9459343
	s0.4233685-0.9459381,0.9459362-0.9459381S18.677702,44.6022186,18.677702,45.1247864z M23.6090717,46.1727142
	c0,0.4995499-0.4047203,0.9042702-0.9042702,0.9042702s-0.9042683-0.4047203-0.9042683-0.9042702
	s0.4047184-0.9042702,0.9042683-0.9042702S23.6090717,45.6731644,23.6090717,46.1727142z M29.2011223,45.8858185
	c0,0.551342-0.4466782,0.9980202-0.9980183,0.9980202c-0.551342,0-0.9980202-0.4466782-0.9980202-0.9980202
	c0-0.5513382,0.4466782-0.9980202,0.9980202-0.9980202C28.7544441,44.8877983,29.2011223,45.3344803,29.2011223,45.8858185z
	 M33.6785049,45.1291733c0,0.5168114-0.4187088,0.9355202-0.9355202,0.9355202
	c-0.5168152,0-0.9355202-0.4187088-0.9355202-0.9355202c0-0.5168152,0.418705-0.9355202,0.9355202-0.9355202
	C33.2597961,44.1936531,33.6785049,44.6123581,33.6785049,45.1291733z M36.7000847,43.7672081
	c0,0.5340767-0.4326897,0.9667702-0.9667702,0.9667702c-0.5340767,0-0.9667664-0.4326935-0.9667664-0.9667702
	s0.4326897-0.9667702,0.9667664-0.9667702C36.267395,42.8004379,36.7000847,43.2331314,36.7000847,43.7672081z
	 M25.1402683,23.5068321c-0.6388855,0-1.1590385-0.520153-1.1590385-1.1590366c0-0.6388855,0.520153-1.1590385,1.1590385-1.1590385
	c0.6388836,0,1.1590366,0.520153,1.1590366,1.1590385C26.299305,22.9866791,25.7791519,23.5068321,25.1402683,23.5068321z
	 M24.5403252,3.5940347c0.1686516-0.1705894,0.3954582-0.2636383,0.6377716-0.2636383
	c0.2423153,0,0.4691219,0.0930488,0.6377735,0.2636383c0.246191,0.2442534,0.3295479,0.6009407,0.2171135,0.9304886
	l-0.854887,2.5103803l-0.8548851-2.5103803C24.2107773,4.1949754,24.2941341,3.8382881,24.5403252,3.5940347z M25.1402645,8.2514038
	c0.6416378,0,1.1640339,0.5223961,1.1640339,1.1640339c0,0.6416388-0.5223961,1.1640339-1.1640339,1.1640339
	s-1.1640339-0.5223951-1.1640339-1.1640339C23.9762306,8.7737999,24.4986267,8.2514038,25.1402645,8.2514038z M20.815506,15.7712727
	c0-2.3065395,1.8779182-4.1844578,4.1844578-4.1844578s4.1844578,1.8779182,4.1844578,4.1844578
	s-1.8779163,4.1844578-4.1844578,4.1844578S20.815506,18.0778122,20.815506,15.7712727z M13.3580751,39.1674271
	c0.2510605-6.2050171,5.377017-11.1746826,11.6418886-11.1746826c6.2665367,0,11.3941555,4.9729919,11.6418896,11.1796722
	c-1.3267975,0.7698059-5.9107285,3.1523857-11.8680096,3.1523857C20.785141,42.3248024,16.9477406,41.2623672,13.3580751,39.1674271
	z"/>
</svg>
