<?xml version="1.0" encoding="utf-8"?>
<!-- Generator: Adobe Illustrator 18.0.0, SVG Export Plug-In . SVG Version: 6.00 Build 0)  -->
<!DOCTYPE svg PUBLIC "-//W3C//DTD SVG 1.1//EN" "http://www.w3.org/Graphics/SVG/1.1/DTD/svg11.dtd">
<svg version="1.1" id="Layer_1" xmlns="http://www.w3.org/2000/svg" xmlns:xlink="http://www.w3.org/1999/xlink" x="0px" y="0px"
	 width="50px" height="50px" viewBox="0 0 50 50" enable-background="new 0 0 50 50" xml:space="preserve">
<path d="M46.8152885,28.0995998c0.1308594-0.9820843,0.2217369-2.0650558,0.2217369-3.0559425
	c0-1.811882-0.2195663-3.6108837-0.6476669-5.3494282l0.0282516-0.0135193
	c0.5803223-0.2938614,0.7514839-1.1260815,0.3897095-1.8950424c-0.2895889-0.6145039-0.8392372-0.9989204-1.3555336-1.0093784
	c-1.0572701-2.6437216-2.593277-5.0282745-4.5637627-7.0909071l0.0005112-0.0007658
	c0.3556557-0.5447378,0.0878143-1.3509407-0.6100388-1.8361158c-0.5424423-0.3765087-1.1888962-0.4423208-1.640274-0.2170792
	c-2.2557335-1.7902002-4.7934036-3.0986691-7.5399876-3.8931375c-0.0017223-0.6262383-0.6194801-1.161921-1.4423904-1.2310498
	c-0.6418629-0.0535681-1.2246094,0.19731-1.5112629,0.5999646c-2.7528973-0.3809724-5.8065453-0.2316189-8.5019207,0.4318624
	c-0.3161163-0.5384886-1.111414-0.6971529-1.8570328-0.3464081c-0.5760517,0.2714126-0.9516659,0.771893-1.0054893,1.2588544
	c-2.6214018,1.0711098-5.0526352,2.6693573-7.098114,4.659163C9.137413,8.7573748,8.3328686,9.0247059,7.8485222,9.7214766
	c-0.3987646,0.5743284-0.436964,1.2556658-0.1618524,1.7079344l-0.0493593-0.038518
	c-1.7521925,2.2511425-3.0320916,4.7785444-3.8138056,7.5093775l-0.0313756-0.0024223
	c-0.6494515-0.0357132-1.2138314,0.599453-1.2850008,1.4463425c-0.0567567,0.6808281,0.2305987,1.2909946,0.676682,1.5557747
	c-0.1455908,1.0292778-0.2207139,2.0866127-0.2207139,3.143692c0,1.7828045,0.2124236,3.5556583,0.6282153,5.2713737
	l-0.0089281,0.0043354c-0.5803227,0.2938614-0.7514861,1.1259537-0.389709,1.8950424
	c0.2856975,0.6060867,0.8244412,0.9894829,1.334615,1.0100174c1.0526166,2.6247177,2.6013131,5.0988045,4.5548329,7.1494484
	l0.0140295-0.0133934c-0.3163071,0.5434647-0.0550346,1.3181648,0.6253462,1.790966
	c0.5481176,0.3804626,1.2004395,0.4410477,1.6523256,0.2072601c2.2310543,1.7481117,4.8282232,3.2084846,7.5343122,3.9918556
	c0.0573311,0.5870819,0.6524487,1.0764656,1.4360123,1.1422806c0.6023254,0.050251,1.1480198-0.1703987,1.450552-0.5300713
	c0.9766655,0.1330261,2.212944,0.248455,3.2048492,0.248455c1.8325443,0,3.6538658-0.2265167,5.4160061-0.6734314
	l-0.0036335-0.0142822c0.3429642,0.4803276,1.0904961,0.6188393,1.8024445,0.283783
	c0.5520096-0.2600632,0.9164009-0.730442,0.9937553-1.1977615c2.6286697-1.0825882,5.1346436-2.693718,7.1771889-4.6971703
	c0.5421257,0.2953911,1.2999878,0.0367317,1.7661591-0.6338921c0.3662415-0.5275192,0.4386215-1.1543961,0.2354469-1.6037331
	c1.7306366-2.2507591,3.04459-4.8494568,3.8120842-7.5732765l0.0088615,0.0007648
	c0.6494522,0.0355854,1.2138329-0.599453,1.2850037-1.4463425C47.5496864,28.9746761,47.2619476,28.3641262,46.8152885,28.0995998z
	 M47.2949791,29.0767117l-0.346405-0.2568741l0.0001907-0.0022945l-0.0012131-0.0001278l-0.1320076-0.4966545
	C47.0434647,28.4826126,47.2150116,28.7533875,47.2949791,29.0767117z M46.4359741,30.193737l-0.3693657-0.0386467
	l-0.2774696-0.469614l0.0357132-0.4645138l0.0008926-0.0118618l0.3217926-0.3634987l0.4133682,0.05089l0.0985909,0.154583
	l0.1492233,0.234169l-0.0359001,0.3620968l-0.0204735,0.2068748L46.4359741,30.193737z M46.7326431,30.0539494l-0.0003204,0.0031891
	l-0.0004463,0.0048466l-0.0160065,0.1609592l-0.1224403-0.0127544l-0.005806-0.0006371L46.7326431,30.0539494z
	 M46.3106003,30.3211517l-0.0889626,0.0900459l-0.0642166-0.1059875L46.3106003,30.3211517z M46.4084892,28.1631165
	c0.1048431,0.011097,0.2043266,0.042345,0.29673,0.0903015l-0.3223648,0.1645298l-0.2865906-0.2265167
	C46.1967049,28.1623516,46.301609,28.1518936,46.4084892,28.1631165z M46.7204628,28.3942261l0.1047134,0.3938541
	l-0.2081528-0.0257645l-0.1515198-0.2377415L46.7204628,28.3942261z M46.4556808,28.7424183l-0.1887016-0.0232124
	l0.1003151-0.1047134L46.4556808,28.7424183z M46.2857285,28.5067196l-0.1713524,0.193737l-0.0006409,0.000639l-0.208725-0.018877
	l0.1696358-0.3421993L46.2857285,28.5067196z M45.9933357,28.8370571L45.8462143,29.0035l0.0177917-0.1718006L45.9933357,28.8370571
	z M45.7843552,28.671505l-0.4131775,0.2374859c0.1350708-0.3266392,0.3649025-0.5744553,0.635231-0.6856728L45.7843552,28.671505z
	 M45.9201889,30.1397858l-0.0021667-0.0002556l-0.1437416-0.0151768l0.0068855-0.2201405L45.9201889,30.1397858z
	 M45.6451416,29.4298782l0.061985-0.0762711l-0.0125618,0.1641483L45.6451416,29.4298782z M45.6782379,29.7298603
	l-0.026207,0.3420715l-0.2705231-0.200243l0.1812401-0.337225L45.6782379,29.7298603z M45.5780525,29.3066711l-0.121994-0.2952633
	l0.290226-0.1668262l-0.0229568,0.2978134L45.5780525,29.3066711z M45.4987221,29.4132977l-0.2342339,0.435688
	c-0.0219994-0.1365986-0.0285072-0.2802124-0.0161324-0.4277802c0.0121155-0.1446342,0.0413857-0.2821255,0.0843697-0.4097977
	L45.4987221,29.4132977z M45.6494789,30.2331467l0.0802879,0.4747181c-0.2114677-0.1681023-0.3700676-0.4318619-0.4429588-0.7434521
	L45.6494789,30.2331467z M45.7652893,30.2642689l0.243927,0.0255089l0.1273499,0.2098083l-0.3060379,0.1505013
	L45.7652893,30.2642689z M46.7183571,28.9214897l0.1145973,0.0186214l-0.0098839,0.1455269L46.7183571,28.9214897z
	 M46.8531685,29.9246197l0.0001945-0.0014019l0.1987762-0.2269001l0.0930405,0.4039288l-0.3198128,0.1056061L46.8531685,29.9246197z
	 M46.8737679,29.7168522l0.0221291-0.2237129l0.0052948-0.0540771l0.087429,0.1466751L46.8737679,29.7168522z
	 M47.0741386,29.4979877l-0.1533051-0.2573833l0.0256348-0.2591686l0.2751732,0.2038136L47.0741386,29.4979877z
	 M44.7211533,18.2458458l0.1679115-0.2895241l0.1290741,0.2694988L44.974453,18.440731L44.7211533,18.2458458z
	 M44.9740715,19.0672245c-0.087368-0.1073914-0.1648483-0.2285576-0.2278557-0.3624783
	c-0.0618591-0.1313686-0.1052856-0.2650356-0.1318817-0.3971691l0.3446884,0.2650337L44.9740715,19.0672245z M44.5964165,18.1996746
	c-0.046299-0.3503628,0.0288239-0.6799335,0.2073212-0.9114265l0.0318222,0.4992065L44.5964165,18.1996746z M45.12183,17.035202
	c0.0963593-0.0428543,0.198204-0.0655575,0.3021507-0.0704041l-0.1969261,0.3038082l-0.3614578-0.0529289
	C44.9381065,17.1402988,45.0236855,17.0788231,45.12183,17.035202z M45.7832718,17.6785316l0.2462234,0.1281815l0.1499901,0.3314857
	l0.0857086,0.1895294l-0.1042023,0.4522686l-0.3392639,0.1511402l-0.4751015-0.2679691l-0.2013283-0.4201279l-0.0051651-0.0107136
	l0.0969353-0.4757385l0.3833961-0.1627445L45.7832718,17.6785316z M45.769371,17.5369587l0.1086006-0.0411968l0.0642204,0.1309872
	L45.769371,17.5369587z M46.3055,18.7154598l-0.0053596,0.0022964l0.0478287-0.2071304l0.001339,0.0028057l0.0019798,0.0043373
	l0.0667038,0.14744L46.3055,18.7154598z M46.4567032,18.8012962l0.0681076,0.3811016l-0.328743-0.0503807l0.0638351-0.2429695
	L46.4567032,18.8012962z M46.301609,18.147892l-0.0927238-0.2047081l-0.0223846-0.0494862l0.1490326,0.0832863L46.301609,18.147892z
	 M45.8393898,19.0764084l0.215168,0.1181049l-0.189785,0.2834015l-0.2494125-0.3015118L45.8393898,19.0764084z
	 M45.5532455,19.0506439l-0.1041374-0.1941204l0.2381859,0.1344299l-0.0020409,0.0010204L45.5532455,19.0506439z
	 M45.9754791,19.0156975l0.1406822-0.0627518l-0.0320778,0.1224422L45.9754791,19.0156975z M45.1808853,18.5652142
	l-0.086731-0.051527l0.0154953-0.0969334L45.1808853,18.5652142z M44.9453735,17.7364368l-0.0241699-0.3812275l0.2661209,0.0389004
	l-0.0514641,0.2534294l-0.0002556,0.0008926L44.9453735,17.7364368z M45.2729073,18.75704l0.1482697,0.3094196l-0.3344193-0.0381355
	l-0.0116081-0.3827572L45.2729073,18.75704z M45.2773705,17.5874653l0.0345001-0.1408081l0.1404915,0.0665779L45.2773705,17.5874653
	z M44.9845963,17.8861732l0.1147232-0.0598183l-0.0441933,0.2177162L44.9845963,17.8861732z M45.4995499,19.2072678
	l0.3068695,0.3708973c-0.2671394-0.0396671-0.5363808-0.1887646-0.7553749-0.4221687L45.4995499,19.2072678z M46.2903862,19.5184746
	c-0.1080933,0.0480843-0.2230759,0.0701485-0.3402252,0.0705318l0.2207794-0.3294449l0.3916855,0.0599442
	C46.4867363,19.4030476,46.396183,19.4714108,46.2903862,19.5184746z M46.8241539,18.4417515
	c0.0219383,0.2936058-0.0418358,0.5673141-0.1813011,0.7744446l-0.0852013-0.4762478L46.8241539,18.4417515z M46.6661263,17.8489304
	c0.0639648,0.1359615,0.1077766,0.2744732,0.1341133,0.410944l-0.3166885-0.3397751l-0.0348206-0.4214039
	C46.5318871,17.6030254,46.6054802,17.7201118,46.6661263,17.8489304z M46.4458618,18.0410099l0.2826347,0.3034267
	l-0.2242851,0.2512608l-0.1165123-0.2575111l-0.0005074-0.0011482L46.4458618,18.0410099z M46.1042976,17.7120762
	l-0.1073914-0.2373581l0.3402214,0.0390282l0.0285721,0.3444939L46.1042976,17.7120762z M46.3463745,17.3830128
	l-0.4284821-0.0492306l-0.0009537-0.0020409l-0.0010872,0.0003815l-0.3626671-0.3640079
	C45.8314819,16.9943886,46.1154594,17.1431046,46.3463745,17.3830128z M45.7951965,17.367836l-0.1931648,0.0818825
	l-0.2501106-0.1300945l0.1557274-0.2402916L45.7951965,17.367836z M39.3381157,8.2678633l0.2772789-0.0122442l0.2957115,0.2122326
	l0.1689301,0.1211662l0.1358986,0.4437237l-0.2182274,0.3006201l-0.5454407,0.0053568l-0.3843498-0.2629948L39.058033,9.0688362
	L38.9041481,8.608532l0.2506905-0.332634L39.3381157,8.2678633z M39.2552147,8.1520538l0.0734634-0.0899181l0.1211662,0.0813723
	L39.2552147,8.1520538z M39.7948494,8.2525578l0.1707191-0.0024233l0.056118,0.165041l-0.1826439-0.1309872L39.7948494,8.2525578z
	 M40.093174,8.2505169l0.3964043,0.1214218l-0.0685539,0.3295727l-0.229641-0.1645317L40.190361,8.536087L40.093174,8.2505169z
	 M40.2636375,9.2050524l0.0334167,0.1220598l-0.123909,0.0026779L40.2636375,9.2050524z M39.911232,9.452487l-0.001339,0.0017853
	l-0.0849419,0.1168299l-0.187233-0.1160641L39.911232,9.452487z M39.2597427,9.3369322l-0.1008263-0.0012751l-0.0350723-0.0918312
	L39.2597427,9.3369322z M38.8544731,8.4418325l-0.0406227-0.1392775l0.1550293-0.0124998L38.8544731,8.4418325z
	 M39.0667686,8.1602163l-0.2817459,0.0124998l0.0147324-0.2860804L39.1931,7.9928794L39.0667686,8.1602163z M38.8197174,8.7377329
	l0.0705299,0.2107019L38.750267,8.8470383L38.8197174,8.7377329z M38.9491081,9.1243181l0.0695763,0.2078953L38.701992,9.2902517
	l0.0006409-0.3346739L38.9491081,9.1243181z M39.0713577,9.4542723l0.2602539,0.420639
	c-0.1292648-0.0492325-0.257-0.115427-0.3785477-0.1998606c-0.1191902-0.0827761-0.2237129-0.1769028-0.3127365-0.2779179
	L39.0713577,9.4542723z M39.2083397,9.4593744l0.2270279-0.0022955l0.2830849,0.193738l-0.3086548,0.1341763L39.2083397,9.4593744z
	 M39.8567734,9.733593l0.4511833,0.1678467c-0.2511978,0.099102-0.55896,0.1045856-0.8652534,0.0119896L39.8567734,9.733593z
	 M39.9415894,9.6489038l0.1440582-0.1984577l0.2453957-0.0053568l-0.0227051,0.3401585L39.9415894,9.6489038z M40.3087845,8.9045601
	l-0.0034409,0.0048466l-0.0621796-0.2034321l0.0026169,0.001914l0.0038872,0.0028057l0.1315002,0.0943823L40.3087845,8.9045601z
	 M40.4826927,8.9034119l0.2494736,0.2960291l-0.3098679,0.120656l-0.0661926-0.2423325L40.4826927,8.9034119z M40.4643898,9.4431763
	L40.8334999,9.29918c-0.0239143,0.1103249-0.0681725,0.2147827-0.1363449,0.3084002
	c-0.0694466,0.0957851-0.1580238,0.1723108-0.2592964,0.2312365L40.4643898,9.4431763z M40.6211395,8.408289
	c0.1658058,0.2432251,0.2474365,0.5123415,0.230217,0.7613068l-0.3118439-0.3696213L40.6211395,8.408289z M40.1878738,7.9740028
	c0.1233978,0.0857096,0.2305984,0.1837902,0.3216019,0.2887583l-0.4441681-0.1359615l-0.2408028-0.3474278
	C39.9486656,7.8280931,40.070919,7.8927579,40.1878738,7.9740028z M39.9323425,8.1321573l-0.2994728,0.0040808l-0.2116585-0.1517768
	L39.7352867,7.84799L39.9323425,8.1321573z M39.6780205,7.7303948l-0.3957024,0.1714187L39.280468,7.900538l-0.0007668,0.0010204
	l-0.4960175-0.1339207C39.0377502,7.651063,39.358078,7.6380534,39.6780205,7.7303948z M38.7618752,8.5646572l0.0002556,0.0008926
	L38.6414757,8.736968l-0.2115974-0.3180933l0.2499237-0.0994844L38.7618752,8.5646572z M38.5718346,8.8359423L38.570816,9.3124447
	c-0.2152939-0.2802134-0.315033-0.6031532-0.2761345-0.8928051L38.5718346,8.8359423z M38.6514854,8.1908264l-0.3395195,0.1349411
	c0.0251274-0.1015244,0.0684891-0.1974373,0.1316261-0.2844219c0.0620499-0.0853262,0.1388931-0.155858,0.2265167-0.211977
	L38.6514854,8.1908264z M30.8979893,3.821187c-0.0123711,0.117595-0.0507622,0.228303-0.1089859,0.3299551l-0.1748619-0.355974
	l0.2476273-0.3091655C30.896204,3.5933943,30.9101696,3.7061427,30.8979893,3.821187z M28.5245342,3.5344691l-0.1302223-0.2549593
	l0.3936634-0.1047132l-0.0257015,0.2081509L28.5245342,3.5344691z M28.7423782,3.5442901l-0.0231495,0.1886368l-0.1047764-0.1002491
	L28.7423782,3.5442901z M28.7004795,3.8855965l0.0006371,0.0006375l-0.0188122,0.2087886l-0.3422623-0.1697602l0.1667633-0.2109568
	L28.7004795,3.8855965z M28.6715279,4.2156792l0.237421,0.4131131c-0.3265743-0.1350684-0.5744553-0.3647742-0.6856098-0.6351666
	L28.6715279,4.2156792z M29.051096,3.3404756l0.2340431-0.1490984l0.3621597,0.0357122l0.2068748,0.0205345l0.3395844,0.3164353
	l-0.0387096,0.3693659l-0.469614,0.2774069l-0.4644489-0.0355844l-0.0119267-0.0010204l-0.3634987-0.3216646l0.050827-0.413496
	L29.051096,3.3404756z M28.9213848,3.281678l0.0186844-0.1145339l0.1455917,0.0096931L28.9213848,3.281678z M29.4390202,3.0987806
	l0.1466122-0.0873673l0.1311131,0.1149168l-0.223711-0.0221927L29.4390202,3.0987806z M30.1396809,4.079845l-0.0002556,0.0021687
	l-0.0150509,0.1437411l-0.2202034-0.006887L30.1396809,4.079845z M29.5177784,4.3054695l-0.0880051,0.0493593l-0.0762081-0.061986
	L29.5177784,4.3054695z M29.0035229,4.1538205l-0.1719284-0.0178561l0.0055485-0.1293292L29.0035229,4.1538205z
	 M28.8446045,4.2538147l0.2978134,0.02283l0.1642113,0.1452723l-0.2952614,0.1219316L28.8446045,4.2538147z M29.4132557,4.5012488
	l0.4358177,0.2342973c-0.1366634,0.0219374-0.2803421,0.0284424-0.4279099,0.0161982
	c-0.1446342-0.0122442-0.2821903-0.0414515-0.4097958-0.084434L29.4132557,4.5012488z M29.5344868,4.437222l0.1954594-0.1155543
	l0.3420086,0.0262737l-0.200243,0.2706475L29.5344868,4.437222z M30.2331066,4.3504925l0.4746532-0.0803523
	c-0.1679764,0.2115946-0.431736,0.370131-0.7433243,0.4430861L30.2331066,4.3504925z M30.4111557,3.7783322l-0.1059246,0.0642819
	l0.0160065-0.1533072L30.4111557,3.7783322z M30.3376923,3.5329387l0.0223827-0.2142732l0.3640728,0.1314974l-0.2080231,0.259551
	L30.3376923,3.5329387z M30.499609,3.8635314l0.1504364,0.3058493L30.2642269,4.234683l0.0255089-0.2438633L30.499609,3.8635314z
	 M30.8124714,3.3648365l-0.4549465-0.1642761l-0.1250572-0.379952C30.4976311,2.9482794,30.7028484,3.1404874,30.8124714,3.3648365z
	 M30.2100849,3.4066706L30.2095108,3.41241l-0.1555405-0.1450169l0.0031261,0.0002551l0.0047817,0.0005102l0.1610889,0.0159428
	L30.2100849,3.4066706z M30.2058125,3.174669l-0.2812347-0.0279319h-0.001339l-0.2269001-0.1988404L30.1003323,2.85479
	L30.2058125,3.174669z M29.640028,2.6610515c0.1498013,0.0126266,0.2916298,0.0438747,0.4229984,0.0894079L29.6103745,2.85479
	l-0.3823109-0.180474C29.3599434,2.6542916,29.4981995,2.6491899,29.640028,2.6610515z M29.4978809,2.9258318L29.2405624,3.079139
	l-0.2592316-0.0255086l0.2038784-0.275239L29.4978809,2.9258318z M29.0766697,2.7049263l-0.2568741,0.3465357L28.817564,3.0513344
	l-0.0001907,0.0010204L28.3207817,3.18449C28.4826355,2.9565697,28.7534733,2.7850237,29.0766697,2.7049263z M28.2533131,3.2946875
	l0.1646576,0.3224299l-0.2265816,0.2867177c-0.0289516-0.1005042-0.0394745-0.2053449-0.0282497-0.3122263
	C28.1742344,3.486768,28.2054825,3.387284,28.2533131,3.2946875z M19.3194008,3.4374087
	c0.0836048,0.0758884,0.151968,0.1664441,0.1989689,0.2723053c0.0482101,0.1079018,0.0701485,0.2229459,0.0705948,0.3400311
	l-0.3293819-0.2206504L19.3194008,3.4374087z M18.1382198,3.8205492l0.1894665-0.0858369l0.4522057,0.1043308l0.1512661,0.3392658
	L18.663126,4.6532807L18.2430611,4.854672l-0.0107765,0.005229l-0.4756737-0.0969329l-0.1626816-0.3833957l0.0846882-0.1627455
	l0.1280537-0.2462866L18.1382198,3.8205492z M17.8937206,3.8135343l0.0832214-0.1489706l0.1710358,0.0339265l-0.204834,0.0925965
	L17.8937206,3.8135343z M18.5105209,3.6520643l0.0029335-0.0012755l0.0043354-0.0020406l0.1475048-0.0667052l0.0500603,0.1124933
	l0.0024242,0.0052295L18.5105209,3.6520643z M18.8565464,4.5508633l0.1344948-0.2381239l0.0008278,0.0020409l0.0587978,0.1320076
	L18.8565464,4.5508633z M19.0664177,4.5787954l-0.0381355,0.3344188l-0.3826942,0.011734l0.1115379-0.1978197L19.0664177,4.5787954z
	 M18.565237,4.819087L18.513773,4.9058166l-0.0970612-0.0155602L18.565237,4.819087z M18.0440292,4.9448452l-0.1577702,0.0706592
	L17.826376,4.9007149L18.0440292,4.9448452z M17.5368538,4.2306018l-0.0411339-0.1085396l0.1309872-0.0641546L17.5368538,4.2306018z
	 M17.5131302,4.5476747l0.0742931,0.1749897l-0.140871-0.0344367L17.5131302,4.5476747z M17.6474972,4.8642378l0.0008926,0.0002551
	l0.088068,0.1900396l-0.3812275,0.0242333l0.0389023-0.2660561L17.6474972,4.8642378z M17.7874756,5.164475l0.4121571,0.2390165
	c-0.3503609,0.0464258-0.6799335-0.0286975-0.9113617-0.2072582L17.7874756,5.164475z M17.9563446,5.1109066l0.269434-0.1290741
	l0.2148476,0.0437474l-0.1946945,0.2531738L17.9563446,5.1109066z M18.5726337,5.0410128l0.4945507-0.0150499
	c-0.1073933,0.0872397-0.2285595,0.1647863-0.3624802,0.2277927c-0.1313057,0.061986-0.2650986,0.105351-0.3971062,0.1318798
	L18.5726337,5.0410128z M19.0157204,4.0244913l-0.0626888-0.140553l0.1223145,0.0320134L19.0157204,4.0244913z
	 M18.8890057,3.7400694l-0.0877495-0.1966722l0.3810997-0.0681081l-0.0503807,0.3286796L18.8890057,3.7400694z
	 M19.1944714,3.9454143l0.2833385,0.1897848l-0.3015118,0.249475L19.0764313,4.160708L19.1944714,3.9454143z M19.2072906,4.5004835
	L19.578186,4.193614c-0.0397282,0.267076-0.1888275,0.536448-0.4222965,0.7553124L19.2072906,4.5004835z M19.2161541,3.3571837
	l-0.47612,0.0851991L18.4417095,3.175817C18.7352524,3.1538794,19.0090237,3.2176511,19.2161541,3.3571837z M18.5956554,3.4956961
	l-0.2574463,0.1165748l-0.0012112,0.00051L18.0410957,3.554111l0.303299-0.2826364L18.5956554,3.4956961z M17.8489513,3.3339708
	c0.1360264-0.0640268,0.2744751-0.1079018,0.4109459-0.1341758l-0.3398399,0.3166904l-0.421339,0.0348196
	C17.6029854,3.4681466,17.7201328,3.3945539,17.8489513,3.3339708z M17.5136395,3.6629055l0.3446236-0.0285697l-0.1462288,0.2613366
	l-0.2372952,0.1073918L17.5136395,3.6629055z M17.319582,4.6481791l-0.2402916-0.155858l0.2885685-0.2874832l0.0818825,0.1931009
	L17.319582,4.6481791z M17.3830357,3.6535947l-0.0492954,0.4285462l-0.0020409,0.0010204l0.0004463,0.0010204l-0.3640099,0.362606
	C16.9942837,4.1686153,17.1430626,3.8844485,17.3830357,3.6535947z M17.2686291,4.7729163l-0.0529308,0.3614583
	c-0.0753136-0.0724444-0.1368542-0.1580262-0.1806011-0.2561073c-0.0427914-0.0964227-0.0654297-0.1982026-0.0702133-0.302278
	L17.2686291,4.7729163z M9.6508398,10.2815199l0.1341114,0.3086548l-0.3256187,0.201519L9.457037,10.5646658L9.6508398,10.2815199z
	 M9.45506,10.3622551l-0.002615-0.2734537l0.0017223,0.001276l0.1169577,0.0849438L9.45506,10.3622551z M9.6488628,10.0583181
	L9.4504051,9.9143219l-0.0054207-0.245266l0.3402853,0.0227022L9.6488628,10.0583181z M9.4541674,10.9286757l0.4208298-0.2603168
	c-0.0493593,0.1293297-0.1154909,0.257-0.1999884,0.3786774c-0.082839,0.1191254-0.1769028,0.223711-0.2779808,0.3127365
	L9.4541674,10.9286757z M9.733551,10.1432629l0.1677837-0.4512491c0.099165,0.2512608,0.1047134,0.5588951,0.0119886,0.8652554
	L9.733551,10.1432629z M9.6076021,9.3027506C9.7033234,9.3723898,9.77985,9.4609051,9.8388386,9.5621748L9.4431343,9.5356455
	L9.299202,9.1665344C9.4094629,9.1905127,9.5139856,9.234643,9.6076021,9.3027506z M7.9844837,10.578824l-0.1364079-0.3141403
	l0.2841673-0.1970549L8.13626,10.3672285L7.9844837,10.578824z M8.1434669,10.5501261l0.0086088,0.1946316l-0.0899181-0.0734653
	L8.1434669,10.5501261z M7.9928379,10.8069992l0.1674004,0.1262674l0.012372,0.2816162l-0.2859526-0.0146675L7.9928379,10.8069992z
	 M8.1908493,11.3485489l0.1349411,0.3395205c-0.1014614-0.0251265-0.1975651-0.068491-0.2844858-0.1316252
	c-0.0852633-0.061986-0.1557946-0.138895-0.2119136-0.2265167L8.1908493,11.3485489z M8.2500935,10.0343409l0.165041-0.0561199
	l-0.1309872,0.1827698L8.2525167,10.205121L8.2500935,10.0343409z M8.2900143,11.0312204l0.1518402,0.1142788L8.3026409,11.186058
	L8.2900143,11.0312204z M8.3194132,11.3202343l0.2452021-0.0821381l0.0008926-0.0002556l0.1714182,0.120656L8.4188328,11.570219
	L8.3194132,11.3202343z M8.8360281,11.4281359l0.4764385,0.0010204c-0.2802134,0.2152929-0.6032171,0.315032-0.892868,0.2761316
	L8.8360281,11.4281359z M8.7377558,11.1803188l0.210638-0.0705318l-0.1013975,0.1399155L8.7377558,11.1803188z
	 M9.2902098,11.2980413l-0.3347378-0.000638l0.1688042-0.246541l0.2078962-0.0696392L9.2902098,11.2980413z M9.2439117,10.8761272
	l0.0929794-0.1359615l-0.0012121,0.1010151L9.2439117,10.8761272z M9.0756817,10.9321194L9.068922,10.9419403L8.60849,11.0958853
	l-0.3325691-0.2506237l-0.0080996-0.1834068L8.255641,10.3845749l0.2121687-0.2956457l0.1211662-0.1688681l0.4437876-0.1359606
	l0.3005562,0.2182264l0.0054846,0.5455036L9.0756817,10.9321194z M8.7059336,9.7568054l0.0019131-0.0025501l0.0027418-0.0038271
	L8.8049707,9.618804L8.904582,9.6912489l0.0047836,0.0033159L8.7059336,9.7568054z M9.2050753,9.7363987l0.121995-0.0334158
	L9.3297482,9.826827L9.2050753,9.7363987z M9.3201189,9.5777349L9.0777864,9.6438026l-0.1743517-0.126524L9.199399,9.2678041
	L9.3201189,9.5777349z M9.1696177,9.1486788L8.7998695,9.4605227L8.4083109,9.3788948
	C8.651536,9.213088,8.9205256,9.1314602,9.1696177,9.1486788z M8.3718328,9.5103922L8.7015972,9.57901L8.5368748,9.808588
	L8.5360451,9.8096085L8.2504759,9.9067974L8.3718328,9.5103922z M7.9739614,9.8121595
	c0.085773-0.1234617,0.1837897-0.2305984,0.2888227-0.3216648L8.1268225,9.9347286l-0.3474927,0.2408028
	C7.8280516,10.0514317,7.8927159,9.9289894,7.9739614,9.8121595z M7.7302895,10.3220787l0.1716099,0.3956394l-0.0012755,0.0017862
	l0.0008926,0.0007648l-0.1339207,0.4961443C7.6510849,10.962347,7.637948,10.6419573,7.7302895,10.3220787z M3.0113719,20.4143391
	l0.1148529-0.131115L3.1041596,20.506937l-0.0053568,0.0540771L3.0113719,20.4143391z M3.0791612,20.7594719L3.053525,21.0186405
	L2.7783499,20.814827l0.1475677-0.3127365L3.0791612,20.7594719z M2.947855,20.3036327l-0.0930429-0.4039307l0.3198154-0.1054783
	l-0.0278046,0.281105l-0.0001912,0.0014038L2.947855,20.3036327z M3.1769233,20.9143105l0.1047132,0.1642761l-0.1145978-0.0186214
	L3.1769233,20.9143105z M3.5640178,19.8062115l0.3694296,0.0387745L4.2108545,20.3146l-0.0357122,0.464386l-0.0008926,0.0119896
	l-0.3217285,0.3633709l-0.4134324-0.0507622l-0.0985911-0.154583l-0.149226-0.234169l0.0359035-0.3620968l0.0204709-0.2070026
	L3.5640178,19.8062115z M3.2673516,19.9459991l0.0003188-0.0030594l0.0004463-0.0048466l0.0160067-0.1609612l0.1224418,0.0127544
	l0.005867,0.0005112L3.2673516,19.9459991z M3.689393,19.6787968l0.0889616-0.0899181l0.064218,0.1058598L3.689393,19.6787968z
	 M3.9907782,19.7103004l-0.1273522-0.209938l0.3060405-0.1503735l0.0652385,0.3858185L3.9907782,19.7103004z M4.2257133,19.8755951
	l-0.0068874,0.2201405l-0.1390224-0.235445l0.0021682,0.0002556L4.2257133,19.8755951z M4.1537786,20.9964485l-0.0177922,0.1719284
	l-0.1293287-0.0054836L4.1537786,20.9964485z M3.7330129,21.2808704L3.6327,21.3854561L3.5443122,21.257658L3.7330129,21.2808704z
	 M3.3829696,21.2377605l0.1515856,0.2377415L3.279532,21.6057224l-0.1047132-0.3937263L3.3829696,21.2377605z M3.591567,21.8369598
	c-0.1049044-0.0112247-0.2043884-0.0424728-0.2967937-0.0903015l0.3223662-0.1645298l0.2865901,0.2265167
	C3.8032892,21.8375969,3.6983848,21.8480568,3.591567,21.8369598z M3.7143278,21.4932308l0.1712909-0.1937389l0.0006375-0.0005112
	l0.208725,0.0187492l-0.1696329,0.3421993L3.7143278,21.4932308z M4.2156372,21.3284435l0.4131775-0.2373581
	c-0.1350689,0.3265114-0.364902,0.5744553-0.6352305,0.6856747L4.2156372,21.3284435z M4.3548512,20.5701981l-0.0619864,0.0762711
	L4.305428,20.482193L4.3548512,20.5701981z M4.3217535,20.2700882l0.0262103-0.3419437l0.2705197,0.2001152l-0.1812391,0.3373528
	L4.3217535,20.2700882z M4.4219389,20.6934052l0.1219954,0.2952633l-0.290225,0.1666985l0.0229578-0.2978134L4.4219389,20.6934052z
	 M4.5012712,20.5867786l0.2342334-0.4358158c0.0220013,0.1365986,0.0285058,0.2803402,0.0161343,0.4279079
	c-0.0121164,0.1446342-0.041388,0.2821255-0.0843701,0.4096699L4.5012712,20.5867786z M4.3505144,19.7669296L4.270226,19.2922115
	c0.2114673,0.1679745,0.370131,0.431736,0.4430223,0.7433243L4.3505144,19.7669296z M3.8212092,19.1020451
	c0.1176589,0.0123711,0.2282388,0.0507622,0.329891,0.1089211L3.7951903,19.385828l-0.3092291-0.2476883
	C3.5934165,19.1037025,3.7060373,19.0899277,3.8212092,19.1020451z M3.7096725,19.4837818L3.532897,19.662344l-0.214273-0.0224476
	l0.131561-0.3640099L3.7096725,19.4837818z M3.3647947,19.1874981l-0.1642759,0.4549484l-0.3798883,0.1251202
	C2.9483652,19.5024033,3.1405096,19.2971859,3.3647947,19.1874981z M2.6610737,20.3600063
	c0.012563-0.1497364,0.0438747-0.2916927,0.089344-0.4229336l0.1043305,0.4525242l-0.1805377,0.3823738
	C2.6543138,20.6400909,2.6492121,20.5018349,2.6610737,20.3600063z M2.7050123,20.9233665l0.3464081,0.2568722l-0.0001276,0.0021687
	l0.001148,0.0002537l0.1320074,0.4965267C2.9565279,21.5173359,2.784982,21.2465611,2.7050123,20.9233665z M5.2788401,31.7541027
	l-0.1679111,0.289526l-0.1290741-0.2693729l0.0436835-0.2149105L5.2788401,31.7541027z M5.0259213,30.9328518
	c0.0873671,0.1073914,0.1648498,0.2285576,0.2279201,0.3624783c0.0617948,0.1313686,0.1052232,0.2650356,0.1318164,0.3971691
	l-0.3446865-0.2650337L5.0259213,30.9328518z M5.4035773,31.8004017c0.0462985,0.3503628-0.0288248,0.6799335-0.2073216,0.9112988
	l-0.0318222-0.4990768L5.4035773,31.8004017z M4.8781619,32.9648743c-0.0963588,0.0428543-0.1982026,0.0655556-0.3020868,0.0702744
	l0.1968637-0.3036804l0.3614583,0.052803C5.0618882,32.8596497,4.9763069,32.9212532,4.8781619,32.9648743z M4.2167854,32.3214188
	l-0.2462866-0.1281815l-0.149991-0.3314877L3.7347984,31.672348l0.104203-0.4522686l0.3392656-0.1512661l0.4750996,0.268095
	l0.2013273,0.420002l0.0051656,0.0108414l-0.0969329,0.4757366L4.3795309,32.406105L4.2167854,32.3214188z M4.2306237,32.4631195
	l-0.1085396,0.041069l-0.0642819-0.1308632L4.2306237,32.4631195z M3.6944947,31.2846165L3.6998515,31.28232l-0.0478289,0.2071304
	l-0.0013392-0.0028057l-0.0019767-0.0043354l-0.0667055-0.1475697L3.6944947,31.2846165z M3.5432918,31.1986523
	l-0.0681081-0.3810997l0.3287432,0.0505066l-0.0638354,0.2429695L3.5432918,31.1986523z M3.6983848,31.8520565l0.0927241,0.2047062
	l0.0223839,0.0494881l-0.1490345-0.0831566L3.6983848,31.8520565z M3.8838329,31.0470028l0.0320773-0.1223145l0.108603,0.0595627
	L3.8838329,31.0470028z M4.3126979,31.0089951l0.0020409-0.0008926l0.1320076-0.0587978l0.1041389,0.1941204L4.3126979,31.0089951z
	 M4.8191094,31.4348621l0.0867295,0.0513992l-0.0154967,0.0970612L4.8191094,31.4348621z M5.0546184,32.2635117l0.0241694,0.3812294
	l-0.2661195-0.0387726l0.0514641-0.2534294l0.0002551-0.0008926L5.0546184,32.2635117z M4.7271504,31.2429085l-0.1482692-0.3092918
	l0.3343554,0.0381355l0.0116701,0.3827572L4.7271504,31.2429085z M4.7226229,32.4126091l-0.0345006,0.1408081l-0.1404891-0.0665779
	L4.7226229,32.4126091z M5.015399,32.1137772l-0.1147256,0.0598183l0.0441937-0.2175903L5.015399,32.1137772z M4.500442,30.7928085
	l-0.3068695-0.3708973c0.2671394,0.0396671,0.5363841,0.1887646,0.7553763,0.4221687L4.500442,30.7928085z M4.3846326,30.8236732
	l-0.22403,0.0998669L3.9454365,30.805563l0.1897845-0.2834015L4.3846326,30.8236732z M3.7096725,30.4816017
	c0.1080291-0.0482101,0.2230096-0.0701485,0.3401585-0.0706577l-0.2207778,0.3295708l-0.3916223-0.0599442
	C3.5132554,30.5970287,3.6038113,30.5286655,3.7096725,30.4816017z M3.1758392,31.5583248
	c-0.0219376-0.2936058,0.0418341-0.5673141,0.181303-0.7744446l0.0851989,0.47612L3.1758392,31.5583248z M3.3338654,32.1511459
	c-0.0639629-0.1360893-0.1077743-0.2744732-0.1341119-0.4110718l0.3167543,0.3399048l0.0347555,0.421402
	C3.4681051,32.397049,3.3945761,32.2798386,3.3338654,32.1511459z M3.5541332,31.9589386l-0.2826364-0.303299l0.2242851-0.2513885
	l0.1165111,0.2575111l0.00051,0.001276L3.5541332,31.9589386z M3.8956945,32.288002l0.1073916,0.2373581L3.662864,32.4863319
	l-0.0285697-0.3446236L3.8956945,32.288002z M3.6536169,32.6169357l0.4284825,0.0492325l0.0009565,0.0020409l0.0010839-0.0002556
	l0.3626699,0.3640099C4.16851,33.0056877,3.8845346,32.8569717,3.6536169,32.6169357z M4.2047963,32.6321144l0.1931643-0.0817566
	l0.250113,0.1300926L4.4923429,32.920742L4.2047963,32.6321144z M10.6618767,41.7322121l-0.2772799,0.0121193l-0.2957096-0.2121048
	l-0.168931-0.1211662l-0.1358337-0.4438515l0.2181625-0.3004951l0.5454397-0.0054817l0.3843527,0.2631226l0.0098848,0.0067596
	l0.1538811,0.4603043l-0.2506866,0.332634L10.6618767,41.7322121z M10.7447796,41.8480225l-0.0734644,0.0897903
	l-0.1211672-0.0813713L10.7447796,41.8480225z M10.205143,41.7475166l-0.1707163,0.0022964L9.9783068,41.584774l0.1826429,0.131115
	L10.205143,41.7475166z M9.9068193,41.7495575l-0.3964052-0.121418L9.578969,41.298439l0.2296419,0.1646576l0.0010204,0.0007668
	L9.9068193,41.7495575z M9.7363577,40.7950249l-0.0334167-0.1221886l0.123908-0.0025482L9.7363577,40.7950249z
	 M10.0887604,40.5475883l0.001339-0.0017853l0.0849438-0.1168289l0.1872339,0.1159363L10.0887604,40.5475883z
	 M10.7402525,40.6631432l0.1008224,0.0012779l0.0350742,0.0917015L10.7402525,40.6631432z M11.1455212,41.5582428
	l0.0406227,0.1391525l-0.1550293,0.0126266L11.1455212,41.5582428z M10.9332256,41.8397331l0.281743-0.0123711l-0.0147314,0.2859497
	l-0.3933439-0.1061134L10.9332256,41.8397331z M11.1802769,41.2622147l-0.0705309-0.2105751l0.1399784,0.1012726
	L11.1802769,41.2622147z M11.0508842,40.8757591l-0.0695753-0.2080231l0.3166904,0.0420876l-0.0006371,0.3346748
	L11.0508842,40.8757591z M10.9286337,40.5458031l-0.260252-0.4207649c0.1293287,0.0493584,0.257,0.1154251,0.3785486,0.1999893
	c0.1191893,0.0827751,0.223711,0.1769028,0.3127365,0.277916L10.9286337,40.5458031z M10.7916517,40.5407028l-0.2270269,0.0022964
	l-0.283083-0.1938667l0.3086557-0.1341782L10.7916517,40.5407028z M10.1432848,40.2664833l-0.4512491-0.1678467
	c0.2511969-0.0992279,0.55896-0.1045876,0.8652554-0.0119896L10.1432848,40.2664833z M10.0584049,40.3511734l-0.1440611,0.1984558
	L9.6689501,40.554985l0.0227032-0.3402824L10.0584049,40.3511734z M9.6912069,41.0953903l0.0034437-0.0047226l0.0621777,0.2033043
	l-0.002615-0.0017853l-0.00389-0.0028038l-0.1314974-0.0943832L9.6912069,41.0953903z M9.5173016,41.0965347l-0.2494755-0.2958984
	l0.3098669-0.1206551l0.0661955,0.2423325L9.5173016,41.0965347z M9.5356035,40.5567741l-0.3690472,0.1441231
	c0.0238514-0.1104546,0.0681086-0.2147827,0.136281-0.3085289c0.0694466-0.0957832,0.1580257-0.1723099,0.2592955-0.2312355
	L9.5356035,40.5567741z M9.3788528,41.5916595c-0.1658068-0.2430954-0.2473707-0.5122147-0.230216-0.7613068l0.3118439,0.369751
	L9.3788528,41.5916595z M9.8121185,42.0260735c-0.1233988-0.0858383-0.2305994-0.1837883-0.3216009-0.288887l0.44417,0.1359634
	l0.2408018,0.3475533C10.0513258,42.1719818,9.9290752,42.107193,9.8121185,42.0260735z M10.0676517,41.8677902l0.2994719-0.0040779
	l0.2116585,0.1519012l-0.3140755,0.1363449L10.0676517,41.8677902z M10.3219728,42.26968l0.3957043-0.1715431l0.0018492,0.0012741
	l0.0007648-0.0008926l0.4960804,0.1339188C10.9622412,42.3488846,10.6419163,42.3620224,10.3219728,42.26968z M11.2381182,41.435421
	l-0.0002556-0.0008926l0.120657-0.1714211l0.2115946,0.3180962l-0.2499218,0.0993538L11.2381182,41.435421z M11.4281578,41.1640053
	l0.0010204-0.4765015c0.2152929,0.2802124,0.315032,0.6031532,0.2761316,0.8929329L11.4281578,41.1640053z M11.3485069,41.8091202
	l0.3395205-0.1348114c-0.0251255,0.1013985-0.068491,0.1974373-0.1316242,0.28442
	c-0.0620499,0.0852013-0.138895,0.1558609-0.2265177,0.2119789L11.3485069,41.8091202z M19.1020031,46.1788902
	c0.0123711-0.1177216,0.0507622-0.228302,0.1089859-0.3299561l0.1748619,0.3559723l-0.2476254,0.309166
	C19.1037884,46.4065552,19.0898228,46.2939339,19.1020031,46.1788902z M21.4754601,46.4654808l0.1302853,0.2549591
	l-0.3937263,0.1048393l0.0256996-0.208149L21.4754601,46.4654808z M21.257616,46.455658l0.0231495-0.1886368l0.1047764,0.1002502
	L21.257616,46.455658z M21.2995129,46.1143532l-0.0006371-0.0005112l0.0188122-0.2089157l0.3422642,0.1697617l-0.1667004,0.2110825
	L21.2995129,46.1143532z M21.3284664,45.7842712l-0.2374229-0.4129868c0.3265762,0.1349411,0.5744553,0.3647728,0.6856098,0.6351662
	L21.3284664,45.7842712z M20.9488964,46.6594734l-0.2340412,0.1492271l-0.3621597-0.0358429l-0.2068768-0.0205345
	l-0.3395844-0.3163071l0.0387096-0.3693657l0.4696159-0.2775345l0.4644489,0.0357132l0.0119247,0.0008926l0.3634987,0.3217926
	l-0.0508251,0.4133682L20.9488964,46.6594734z M21.0786076,46.718399l-0.0186844,0.1145325l-0.1455917-0.009819
	L21.0786076,46.718399z M20.5609722,46.9011688l-0.1466103,0.0874939l-0.131115-0.1149178l0.223711,0.0221939L20.5609722,46.9011688
	z M19.8603134,45.9202309l0.0002537-0.0021667l0.0150509-0.1437416l0.2202034,0.0068855L19.8603134,45.9202309z
	 M20.4822159,45.6944809l0.0880032-0.0492325l0.0762081,0.061985L20.4822159,45.6944809z M20.9965343,45.8462563
	l0.1718655,0.0178566l-0.0054855,0.1293297L20.9965343,45.8462563z M21.1553898,45.7462616l-0.2978134-0.0229568
	l-0.1642132-0.1451454l0.2952633-0.1220589L21.1553898,45.7462616z M20.5867367,45.4988289l-0.4358158-0.2344246
	c0.1366634-0.0219383,0.2803402-0.0283165,0.4279079-0.0160713c0.1446342,0.0122452,0.2821903,0.0413246,0.4097977,0.0844345
	L20.5867367,45.4988289z M20.4655075,45.5628548l-0.1954613,0.1154251l-0.3420086-0.0262718l0.2002449-0.2705193
	L20.4655075,45.5628548z M19.7668877,45.6495857l-0.4746532,0.0802231c0.1679745-0.2114677,0.4317341-0.3701324,0.7433872-0.4429588
	L19.7668877,45.6495857z M19.5888367,46.2217445l0.1059246-0.0642815l-0.0160065,0.1531792L19.5888367,46.2217445z
	 M19.662302,46.4671364l-0.0223846,0.2142754l-0.3640728-0.1316261l0.2080231-0.2594223L19.662302,46.4671364z
	 M19.5004482,46.1365433l-0.1505013-0.3059769l0.3858204-0.0651741l-0.0255089,0.243866L19.5004482,46.1365433z
	 M19.187521,46.6352386l0.4549484,0.1642761l0.1251202,0.3798256C19.5023613,47.0516701,19.2971439,46.8594627,19.187521,46.6352386
	z M19.7899094,46.5934067l0.0005741-0.005867l0.1555386,0.1451454l-0.0031242-0.0002556l-0.0047836-0.0005112l-0.161087-0.0160713
	L19.7899094,46.5934067z M19.7941818,46.8254089l0.2812328,0.0278015l0.001339,0.0001297l0.2269001,0.1987114l-0.4039936,0.0931091
	L19.7941818,46.8254089z M20.3599644,47.3390236c-0.1497993-0.0127525-0.2916279-0.0438728-0.4229984-0.0894051l0.452652-0.104332
	l0.3823128,0.1804733C20.6400509,47.3456573,20.5017929,47.3507576,20.3599644,47.3390236z M20.5021114,47.0741158
	l0.2573185-0.1531792l0.2592335,0.0255089l-0.2038784,0.275238L20.5021114,47.0741158z M20.9233246,47.2950211l0.2568722-0.3465347
	l0.0022316,0.0002556l0.0002556-0.0011482l0.4965267-0.1320076C21.5174217,47.0433807,21.2465191,47.2150536,20.9233246,47.2950211z
	 M21.5820217,46.3829575l0.2265816-0.2867165c0.0289516,0.1005058,0.0394745,0.2053452,0.0282516,0.3122253
	c-0.011097,0.1048431-0.042345,0.2043266-0.0901737,0.2967949L21.5820217,46.3829575z M22.0411148,46.381813l0.0001926-0.002552
	c0.0356483-0.6490707-0.5994549-1.2134476-1.4462795-1.2846184c-0.6648216-0.0557365-1.2642117,0.2159309-1.5388126,0.6440926
	c-2.6122818-0.7592659-5.1322861-2.0739822-7.2887917-3.7598534c0.3061047-0.5425682,0.0461702-1.3092346-0.6295547-1.7789764
	c-0.5614462-0.3900261-1.228116-0.4391327-1.6805763-0.1842995l0.0778646-0.0743599
	c-1.9128971-2.0086823-3.4008832-4.3331604-4.4232078-6.9069901c0.479691-0.3429642,0.6179481-1.0901127,0.2830825-1.8018055
	c-0.2661834-0.565527-0.7530165-0.9360409-1.2313046-1.0005779l0.0472546-0.0114803
	c-0.4122205-1.6835728-0.6213918-3.4253063-0.6213918-5.1767349c0-1.0140972,0.0725086-2.0274296,0.2103832-3.0151272
	c0.570502-0.0781841,1.0409462-0.6661606,1.1054194-1.433588c0.0511451-0.6096592-0.1749897-1.1616669-0.5425701-1.4616489
	l0.0399847,0.0112228c0.7534633-2.672163,2.003581-5.1430626,3.7117071-7.3452291
	c0.5351725,0.2312365,1.2411261-0.0219374,1.6855507-0.6614399c0.3576956-0.5147657,0.4295025-1.1211071,0.2441826-1.5680199
	l0.0296535,0.0303555c1.9937601-1.9506502,4.3042097-3.4689279,6.8668146-4.5165701
	c0.3315487,0.5057101,1.0998058,0.653533,1.8268051,0.311461c0.5703735-0.2683511,0.943119-0.7611794,1.0028744-1.2434211
	c2.6198063-0.6470282,5.5172749-0.7944686,8.1959438-0.4243374c0.0356483,0.6027703,0.6390572,1.1109037,1.4386272,1.1781192
	c0.6278324,0.0526752,1.1966763-0.1873612,1.4897079-0.5748386c2.6632977,0.7662816,5.123167,2.0329156,7.313406,3.7625327
	c-0.2478142,0.5373411,0.0063133,1.2566862,0.6540451,1.7069149c0.5124702,0.356101,1.1151123,0.4279079,1.561451,0.2457762
	l-0.0290184,0.0278044c1.9310722,2.0085554,3.4318771,4.3362236,4.4669571,6.9152813
	c-0.4559059,0.3526573-0.5846596,1.0813122-0.2565536,1.7785931c0.2521515,0.5356827,0.7023163,0.8940792,1.1555443,0.9859104
	c0.4188538,1.6958199,0.6500244,3.5242825,0.6500244,5.2902489c0,0.9772396-0.0661964,1.9621296-0.1957779,2.9268684
	c-0.5770721,0.0698948-1.0551033,0.660675-1.1201515,1.4344826c-0.0503807,0.6008568,0.1689301,1.1454678,0.5271378,1.4483833
	c-0.7432594,2.6787968-1.9827271,5.1560726-3.6834564,7.3653812c-0.54002-0.2726898-1.279644-0.0164528-1.7383537,0.6434555
	c-0.3629265,0.5221634-0.4351158,1.1404953-0.2392082,1.5889397c-1.985405,1.9519234-4.2895432,3.4740295-6.8458977,4.5288124
	c-0.301384-0.5660362-1.1211071-0.73312-1.882349-0.3749771c-0.6057053,0.2850609-0.9891644,0.8226547-1.0104008,1.3323174
	C27.6222916,46.5927696,24.7032661,46.7297516,22.0411148,46.381813z M42.0155106,39.4211235l0.1364059,0.31427
	l-0.2841034,0.1969261l-0.0040817-0.2994728L42.0155106,39.4211235z M41.8565254,39.4498215l-0.0086098-0.1945038l0.08992,0.0734673
	L41.8565254,39.4498215z M42.0072174,39.1930771l-0.1674614-0.1262665l-0.0123749-0.2817459l0.2859535,0.0146675
	L42.0072174,39.1930771z M41.8091431,38.6515274l-0.1349411-0.3395195c0.1014633,0.0251236,0.197567,0.0684891,0.2844887,0.1316223
	c0.0853233,0.0619888,0.1557922,0.1387672,0.2119102,0.2265205L41.8091431,38.6515274z M40.9672279,40.2159767l-0.3005562-0.2182274
	L40.66119,39.4522476l0.2631226-0.3844185l0.0067596-0.009819l0.4604301-0.1539459l0.3325691,0.2507515l0.0080986,0.1834068
	l0.0121803,0.2772789l-0.2121658,0.2956467l-0.1211662,0.1688652L40.9672279,40.2159767z M41.2940598,40.2432709
	l-0.0018501,0.002552l-0.0028038,0.0038261l-0.0943832,0.1314964l-0.0996132-0.072319l-0.0047798-0.0034409L41.2940598,40.2432709z
	 M40.7949181,40.2636757l-0.121994,0.0334167l-0.0026779-0.12397L40.7949181,40.2636757z M41.435379,38.761982l-0.0008926,0.0001259
	l-0.1713562-0.1206551l0.3180313-0.2115936l0.0994186,0.2499847L41.435379,38.761982z M41.6973534,38.8138924l0.0126266,0.1549644
	l-0.1518402-0.1144066L41.6973534,38.8138924z M41.1640282,38.5718117l-0.4765015-0.0008926
	c0.2802773-0.2152939,0.6032181-0.3150291,0.892868-0.2762566L41.1640282,38.5718117z M41.2622375,38.8197594l-0.2106361,0.0705299
	l0.1013947-0.1400414L41.2622375,38.8197594z M40.7097816,38.702034l0.3347397,0.0006371l-0.1688042,0.2465439L40.66782,39.0187263
	L40.7097816,38.702034z M40.7560806,39.1239471l-0.0929794,0.1358376l0.0012131-0.1008873L40.7560806,39.1239471z
	 M41.715847,39.8389587l0.0316315-0.0441322l0.0024223,0.1707802l-0.1650429,0.0561218L41.715847,39.8389587z
	 M40.0866699,39.4426804l0.1797714,0.414135l-0.1677818,0.4512482
	C39.9994926,40.0568008,39.9939461,39.7490387,40.0866699,39.4426804z M40.3491554,39.7185555l-0.1341133-0.3087807
	l0.3256187-0.2013931l0.0022964,0.2270279L40.3491554,39.7185555z M40.5449333,39.6376953l0.0026131,0.2734528l-0.0017204-0.0012779
	l-0.1169586-0.0849419L40.5449333,39.6376953z M40.3511314,39.9416313l0.1985207,0.1439972l0.0053558,0.2453918
	l-0.3402863-0.0227013L40.3511314,39.9416313z M40.545826,39.0713997l-0.4208298,0.2601891
	c0.0493584-0.1293297,0.11549-0.2568703,0.1999893-0.3785477c0.08284-0.1191254,0.1769638-0.2237129,0.2779808-0.3127365
	L40.545826,39.0713997z M31.8617725,46.1795273l-0.1894665,0.0857086l-0.4522057-0.1042023l-0.1512012-0.3392677
	l0.2679672-0.4750977l0.4200649-0.2013893l0.0107784-0.0051041l0.4756718,0.0969353l0.1626816,0.3833923l-0.0846863,0.1627464
	l-0.1280556,0.2461586L31.8617725,46.1795273z M32.1062737,46.1865425l-0.0832214,0.1489716l-0.1710377-0.0339279
	l0.2048359-0.092598L32.1062737,46.1865425z M31.4894733,46.348011l-0.0029335,0.0012779l-0.0043373,0.0020409l-0.1475029,0.0667038
	l-0.0500622-0.1124916l-0.0024223-0.0053596L31.4894733,46.348011z M30.8236961,45.6154022l0.0998669,0.2239647l-0.118042,0.2152939
	l-0.2833385-0.189785L30.8236961,45.6154022z M30.4218063,45.8064613c0.0397301-0.2672043,0.1888275-0.5364456,0.4222965-0.7553101
	l-0.0513363,0.4484406L30.4218063,45.8064613z M30.8680172,46.1959801l0.2429714,0.0640259l0.0877495,0.1966743
	l-0.3810997,0.0681076L30.8680172,46.1959801z M31.7742138,45.0182419l-0.2148476-0.0437469l0.1947594-0.2532997
	l0.2895222,0.1679764L31.7742138,45.0182419z M32.1137352,44.9845734l0.0598793,0.1147881l-0.2176514-0.0442581
	L32.1137352,44.9845734z M31.5832806,45.1096916l-0.1485233,0.0712967l0.0514641-0.0868568L31.5832806,45.1096916z
	 M31.4274235,44.9590645l-0.4946136,0.015049c0.1073914-0.087368,0.2285576-0.1647873,0.3624783-0.2279205
	c0.1313057-0.0618591,0.2650986-0.1052246,0.3971062-0.131752L31.4274235,44.9590645z M30.9335747,45.421154l0.0381355-0.3342934
	l0.3826942-0.011734l-0.111536,0.1976929L30.9335747,45.421154z M31.1434479,45.4490852L31.009016,45.687336l-0.0008926-0.0020409
	l-0.0587978-0.1321335L31.1434479,45.4490852z M30.9842739,45.9754562l0.0626869,0.1406822l-0.1223145-0.0321426
	L30.9842739,45.9754562z M32.4631386,45.7693481l0.0411339,0.1085396l-0.1309853,0.0642815L32.4631386,45.7693481z
	 M32.4868622,45.4524002l-0.0742912-0.1749878l0.1408691,0.0344353L32.4868622,45.4524002z M32.3524971,45.1358376
	l-0.0008316-0.0002556l-0.088131-0.1901665l0.3812256-0.0241051l-0.0388985,0.2660561L32.3524971,45.1358376z
	 M32.2125168,44.8356018l-0.4121571-0.2391434c0.3503628-0.046299,0.6799335,0.028698,0.9113636,0.2072563L32.2125168,44.8356018z
	 M30.6805916,46.562542c-0.0836048-0.0757637-0.151968-0.166317-0.198967-0.2721786
	c-0.0481472-0.1080284-0.0701485-0.2229462-0.0705948-0.3401604l0.32938,0.2207794L30.6805916,46.562542z M30.7838383,46.6428909
	l0.47612-0.0851974l0.2983246,0.2664375C31.2647419,46.8461952,30.9909687,46.782299,30.7838383,46.6428909z M31.4043369,46.5042534
	l0.2574482-0.1164474l0.0012112-0.0005112l0.2959003,0.0585442l-0.303299,0.2826347L31.4043369,46.5042534z M32.151104,46.6661072
	c-0.1360893,0.0640259-0.2745361,0.1078987-0.4110088,0.1341743l0.3398418-0.3168182l0.4213371-0.0346909
	C32.397007,46.531929,32.2798615,46.6053963,32.151104,46.6661072z M32.4863548,46.3371696l-0.3446236,0.0284424
	l0.1462288-0.2613373l0.2372932-0.1073914L32.4863548,46.3371696z M32.6804085,45.3518982l0.2402954,0.1557312l-0.2885704,0.2876091
	l-0.0818825-0.1931L32.6804085,45.3518982z M32.6169586,46.3463554l0.0492935-0.428421l0.0020409-0.0010185l-0.0004463-0.0010223
	l0.3640099-0.3627319C33.0057106,45.8314629,32.8569298,46.1155014,32.6169586,46.3463554z M32.7313652,45.2271614
	l0.0529289-0.3614578c0.0753136,0.0724411,0.1368561,0.1580238,0.180603,0.2561073
	c0.0427895,0.0964203,0.0654297,0.1982002,0.0702133,0.3021469L32.7313652,45.2271614z M40.3923912,40.697197
	c-0.0957222-0.0695114-0.1722488-0.1580238-0.2312355-0.2592964l0.3957024,0.0265312l0.1439323,0.3691101
	C40.5905304,40.8095627,40.4860077,40.7653046,40.3923912,40.697197z M40.6798744,40.4223404l0.2423325-0.0661926
	l0.1744156,0.1265221l-0.2960281,0.2496033L40.6798744,40.4223404z M40.8303757,40.8513985l0.3697472-0.3119736l0.3915596,0.0816307
	C41.3484573,40.7868614,41.0794678,40.8684883,40.8303757,40.8513985z M41.6281586,40.4896851l-0.3297615-0.0686188
	l0.1647224-0.2295799l0.0008278-0.0011444l0.2855721-0.0970612L41.6281586,40.4896851z M42.0260963,40.1879158
	c-0.0858383,0.1234627-0.1838531,0.2305984-0.288887,0.3216667l0.1359634-0.4442368l0.3474922-0.2409286
	C42.1719398,39.9486465,42.1072769,40.070961,42.0260963,40.1879158z M42.2697029,39.6779976l-0.171608-0.3956413
	l0.0012741-0.0019112l-0.0008926-0.0006371l0.1339226-0.4961433C42.3489075,39.0377312,42.3620453,39.35812,42.2697029,39.6779976z
	 M46.1787834,30.8979034c-0.1176567-0.0122433-0.2281761-0.0507622-0.3298912-0.1089211l0.3559113-0.1748619l0.309227,0.2476883
	C46.4065781,30.896246,46.2939568,30.9101486,46.1787834,30.8979034z M46.2903214,30.5161667l0.1768379-0.1784344
	l0.2142105,0.0224476l-0.1315613,0.3640099L46.2903214,30.5161667z M46.6351967,30.8124504l0.1642761-0.4548206l0.3798904-0.125248
	C47.0516281,30.497673,46.8594818,30.7027626,46.6351967,30.8124504z M47.2495766,30.0630054l-0.104332-0.452652
	l0.1805382-0.3822479c0.0198975,0.1318798,0.0249977,0.2701359,0.0131378,0.4119644
	C47.326355,29.7898064,47.2950439,29.9316349,47.2495766,30.0630054z"/>
</svg>
