<?xml version="1.0" encoding="utf-8"?>
<!-- Generator: Adobe Illustrator 18.0.0, SVG Export Plug-In . SVG Version: 6.00 Build 0)  -->
<!DOCTYPE svg PUBLIC "-//W3C//DTD SVG 1.1//EN" "http://www.w3.org/Graphics/SVG/1.1/DTD/svg11.dtd">
<svg version="1.1" id="Layer_1" xmlns="http://www.w3.org/2000/svg" xmlns:xlink="http://www.w3.org/1999/xlink" x="0px" y="0px"
	 width="50px" height="50px" viewBox="0 0 50 50" enable-background="new 0 0 50 50" xml:space="preserve">
<g>
	<g>
		<path stroke="#000000" stroke-width="0.6" stroke-miterlimit="10" d="M45.7876549,22.3783398
			c-2.0827713-2.0543556-11.6234741-3.1533394-20.667654-3.1533394c-8.9760952,0-18.4448452,1.0821095-20.6229496,3.106699
			l-0.0250196-0.039669C3.5185938,22.8939056,2.5,23.8778133,2.5,24.8349991c0,3.3309383,9.8831253,5.9400005,22.5,5.9400005
			s22.5-2.6090622,22.5-5.9400005C47.5,23.9623642,46.8752747,23.0699215,45.7876549,22.3783398z M25.1200008,19.7049999
			c10.9625378,0,18.9234943,1.5133591,20.3710537,3.0341892l-0.007618,0.0122166
			c0.0164642,0.0102253,0.0306473,0.0214462,0.046875,0.0317879c0.1298447,0.1494732,0.199688,0.2988873,0.199688,0.446806
			c0,0.4379597-0.5890999,0.8887806-1.6703911,1.3158989l0.004921-0.0127735
			c-3.4579659-1.3199997-10.8942184-2.1731243-18.9445286-2.1731243c-8.0737514,0-15.5028524,0.8550282-18.9566021,2.1792774
			c-1.0705662-0.425127-1.653398-0.8735752-1.653398-1.3092785C4.5100002,21.5626564,12.9742184,19.7049999,25.1200008,19.7049999z
			 M43.363163,24.7967091c-3.3261909,1.085743-9.9195099,1.9582901-18.2431622,1.9582901
			c-8.3248253,0-14.918848-0.8727818-18.2445717-1.9587593c3.6002345-1.194931,10.6236916-1.9562397,18.2445717-1.9562397
			C32.7300377,22.8400002,39.7632828,23.6020699,43.363163,24.7967091z M25,30.2950001
			C13.0637503,30.2950001,2.98,27.7946873,2.98,24.8349991c0-0.4680462,0.4036815-1.0735836,1.0528417-1.626709
			c-0.0001755,0.0073242-0.0028415,0.0143566-0.0028415,0.0217094c0,2.6015625,10.8660927,4.0050011,21.0900002,4.0050011
			c10.1315022,0,20.8871479-1.3788872,21.0808582-3.9354782c0.520607,0.4870892,0.8191414,1.0292854,0.8191414,1.5354767
			C47.0200005,27.7946873,36.9362488,30.2950001,25,30.2950001z"/>
	</g>
	<path d="M26.6803665,27.5306549l-0.0464382-0.0007648c-0.6524258,0-1.1830158,0.5107517-1.2077656,1.1631775
		c-0.0251331,0.6660767,0.4963989,1.2286892,1.1624756,1.2537575l0.0464382,0.0007668
		c0.6528091,0,1.1832714-0.5107536,1.2080212-1.1631794C27.8678474,28.1183357,27.3460598,27.5557251,26.6803665,27.5306549z
		 M26.9179134,28.1328793l-0.1658497-0.1769485l0.249794-0.1112461l0.1271954,0.2991676L26.9179134,28.1328793z
		 M27.1452541,28.2607746l-0.0019131,0.112587l-0.114563-0.1221542L27.1452541,28.2607746z M26.7543602,28.1243324
		l-0.1914921-0.0098877l0.0952988-0.0850296L26.7543602,28.1243324z M26.6746254,27.6797295
		c0.1062717,0.0040817,0.2083321,0.023983,0.3040142,0.0569611l-0.3156242,0.1405907l-0.3013344-0.1625957
		C26.4613171,27.6881485,26.5663128,27.6756458,26.6746254,27.6797295z M26.570013,27.9498711l-0.1618958,0.156601
		l-0.0006371,0.0005093l-0.2113934-0.0056763l0.152071-0.2710361L26.570013,27.9498711z M26.2936821,28.2169533
		l-0.1389313,0.1344643l0.0084209-0.1332531L26.2936821,28.2169533z M26.2728863,27.7431335l-0.1988907,0.3549824
		l-0.403141,0.2005501C25.7888622,28.041153,26.0067635,27.8403473,26.2728863,27.7431335z M25.9756336,28.6886024
		l0.0583019-0.0613632l-0.0036983,0.1270657L25.9756336,28.6886024z M26.0256443,28.918623l-0.0075283,0.2648487
		l-0.2836018-0.1429501l0.1639366-0.2677174L26.0256443,28.918623z M25.9012566,28.5964928l-0.139185-0.2224941l0.2830906-0.1408443
		l-0.0066338,0.2306595L25.9012566,28.5964928z M25.5754261,28.6988087c0.0042114-0.112011,0.0261536-0.2193031,0.0623856-0.3195782
		l0.1894512,0.302866l-0.2119045,0.3458595C25.5856323,28.9235992,25.5710888,28.813118,25.5754261,28.6988087z
		 M25.6441898,29.115984l0.3801785,0.1918106l0.1071644,0.3625088
		C25.9092941,29.5498085,25.7347698,29.3531494,25.6441898,29.115984z M26.1451836,28.5200748l0.0002537-0.0093136
		l0.3040161-0.293808l0.4193439,0.0216236l0.1079292,0.1151371l0.1631699,0.1741428l-0.0160751,0.2806683l-0.0091858,0.1604271
		l-0.2999306,0.2751827l-0.3744373-0.014225l-0.305418-0.3503246L26.1451836,28.5200748z M27.1058331,29.1237659
		l-0.0001278,0.0024872l-0.0002537,0.0037003l-0.0071449,0.1248341l-0.1241322-0.0047207l-0.0058689-0.0001907
		L27.1058331,29.1237659z M26.6954193,29.3477268l-0.0847092,0.073101l-0.0705509-0.07897L26.6954193,29.3477268z
		 M26.2920227,29.2242966l-0.0021687-0.0001278l-0.1456909-0.0054855l-0.0052319-0.1700592L26.2920227,29.2242966z
		 M26.1427593,29.3268681l0.247242,0.0093136l0.1398239,0.1564083l-0.2999306,0.1289787L26.1427593,29.3268681z
		 M26.5945072,29.798008c-0.1192837-0.0045929-0.2328262-0.0294704-0.3384609-0.0700397l0.3489227-0.1499023l0.3251915,0.1778412
		C26.8238888,29.786972,26.7111111,29.8024731,26.5945072,29.798008z M26.6857243,29.4988403l0.1682739-0.1450539
		l0.2171345,0.0081654l-0.1123943,0.2862816L26.6857243,29.4988403z M27.049572,29.7127857l0.1403351-0.3577232l0.3758392-0.112587
		C27.4516926,29.4523392,27.2695141,29.6186981,27.049572,29.7127857z M27.3377666,28.7518806l-0.1084385,0.1059532
		l0.0099506-0.1734409l0.0022964-0.0418453L27.3377666,28.7518806z M27.2503777,28.4886913l0.0114822-0.2009335l0.288578,0.1455002
		l-0.1314049,0.2473717L27.2503777,28.4886913z M27.4078064,28.8345509l0.1162224,0.3075218l-0.3163891,0.0948544
		l0.0123749-0.2179642l0.0001278-0.0010853L27.4078064,28.8345509z M27.6937065,28.7789917
		c-0.0043392,0.1160297-0.0280685,0.2267017-0.0665951,0.3299122l-0.1301289-0.3445835l0.1607456-0.3024216
		C27.68503,28.562748,27.697916,28.6690845,27.6937065,28.7789917z M27.2550983,28.1631165l0.0001278-0.0017223l-0.001276-0.0001278
		l-0.1604919-0.3772449c0.2385674,0.115139,0.4263611,0.3167095,0.5248489,0.5624847L27.2550983,28.1631165z"/>
	<path d="M24.1816978,27.5166035l-0.0467072-0.0007706c-0.6562195,0-1.1898937,0.5137215-1.2147884,1.1699409
		c-0.0252781,0.6699486,0.4992867,1.2358322,1.1692352,1.2610474l0.0467072,0.0007706
		c0.6566048,0,1.1901512-0.5137234,1.2150459-1.1699409C25.3760834,28.1077003,24.851263,27.5418167,24.1816978,27.5166035z
		 M24.4206276,28.1223297l-0.1668148-0.1779785l0.2512474-0.1118927l0.1279335,0.3009052L24.4206276,28.1223297z
		 M24.6492901,28.250967l-0.0019245,0.1132412l-0.1152306-0.1228638L24.6492901,28.250967z M24.2561226,28.1137314
		l-0.192606-0.0099449l0.0958538-0.0855236L24.2561226,28.1137314z M24.1759243,27.6665421
		c0.1068897,0.0041065,0.2095432,0.0241241,0.3057823,0.0572948l-0.3174591,0.141407l-0.3030872-0.1635418
		C23.9613762,27.6750126,24.0669823,27.6624374,24.1759243,27.6665421z M24.0707035,27.9382572l-0.1628361,0.1575108
		l-0.0006409,0.0005131l-0.2126236-0.0057106l0.1529541-0.2726116L24.0707035,27.9382572z M23.7927666,28.2068901
		l-0.13974,0.1352482l0.0084705-0.1340294L23.7927666,28.2068901z M23.7718506,27.7303162l-0.2000484,0.3570461
		l-0.4054852,0.2017155C23.2850113,28.0300674,23.504179,27.8280945,23.7718506,27.7303162z M23.472868,28.681282
		l0.0586414-0.0617199l-0.0037212,0.1278038L23.472868,28.681282z M23.5231686,28.9126415l-0.0075703,0.2663879
		l-0.2852516-0.1437817l0.1648903-0.2692757L23.5231686,28.9126415z M23.3980598,28.5886364l-0.1399956-0.2237854
		l0.2847385-0.1416645l-0.0066738,0.2320004L23.3980598,28.5886364z M23.0703354,28.6915493
		c0.0042343-0.1126652,0.0263042-0.2205791,0.062746-0.3214378l0.1905537,0.3046265l-0.2131367,0.3478718
		C23.0806007,28.9176445,23.0659714,28.8065224,23.0703354,28.6915493z M23.1394978,29.1111488l0.3823891,0.1929264
		l0.1077862,0.3646164C23.4061432,29.5474949,23.2306042,29.3496933,23.1394978,29.1111488z M23.643404,28.5117741
		l0.0002556-0.009367l0.3057823-0.295517l0.4217815,0.0217514l0.1085587,0.1158066l0.1641178,0.1751537l-0.0161667,0.2823009
		l-0.0092392,0.1613598l-0.3016758,0.2767811l-0.3766155-0.014307l-0.3071938-0.3523617L23.643404,28.5117741z
		 M24.6096401,29.1189766l-0.0001297,0.0025024l-0.0002556,0.0037212l-0.0071869,0.1255589l-0.1248531-0.0047474
		l-0.0059032-0.0001926L24.6096401,29.1189766z M24.1968403,29.3442383l-0.0852032,0.0735264l-0.070961-0.0794277
		L24.1968403,29.3442383z M23.7910976,29.2200909l-0.002182-0.0001278l-0.1465378-0.005518l-0.0052624-0.1710491
		L23.7910976,29.2200909z M23.6409664,29.3232594l0.2486801,0.009367l0.1406364,0.1573181l-0.3016758,0.1297302
		L23.6409664,29.3232594z M24.0953407,29.7971382c-0.119978-0.0046196-0.2341805-0.0296421-0.3404293-0.0704479l0.3509502-0.1507721
		l0.3270836,0.178875C24.3260555,29.7860374,24.2126236,29.8016281,24.0953407,29.7971382z M24.187088,29.4962311
		l0.1692505-0.1458969l0.218399,0.008213L24.461689,29.646492L24.187088,29.4962311z M24.553051,29.711422l0.1411495-0.3598042
		l0.378027-0.1132412C24.95751,29.4494591,24.774271,29.616787,24.553051,29.711422z M24.8429222,28.7449284l-0.1090698,0.1065693
		l0.0100079-0.1744499l0.0023098-0.0420876L24.8429222,28.7449284z M24.755024,28.4802074l0.011549-0.2021008l0.2902546,0.146347
		l-0.1321678,0.2488098L24.755024,28.4802074z M24.9133682,28.8280792l0.1168976,0.3093109l-0.3182278,0.0954037
		l0.0124454-0.2192307l0.0001297-0.001091L24.9133682,28.8280792z M25.2009296,28.7721958
		c-0.0043621,0.1167068-0.0282307,0.2280216-0.0669823,0.331831l-0.1308842-0.3465862l0.1616802-0.3041782
		C25.1922035,28.554697,25.205164,28.6616497,25.2009296,28.7721958z M24.7597713,28.1527405l0.0001297-0.0017319
		l-0.0012836-0.0001297l-0.1614246-0.3794365c0.239954,0.1158085,0.4288387,0.3185501,0.5279007,0.5657558L24.7597713,28.1527405z"
		/>
	<path d="M21.6578999,27.4744453l-0.0475178-0.0007839c-0.6675987,0-1.2105293,0.5226307-1.2358551,1.1902313
		c-0.0257168,0.6815662,0.507946,1.2572632,1.1895123,1.2829151l0.0475178,0.0007839
		c0.6679916,0,1.2107906-0.5226307,1.2361164-1.1902313C22.8729992,28.0757942,22.339077,27.5000973,21.6578999,27.4744453z
		 M21.9009724,28.0906754l-0.1697063-0.1810627l0.2556038-0.1138344l0.1301517,0.3061237L21.9009724,28.0906754z
		 M22.1336002,28.2215462L22.1316433,28.33675l-0.1172295-0.1249943L22.1336002,28.2215462z M21.7336159,28.0819302
		l-0.1959457-0.0101185l0.0975151-0.0870075L21.7336159,28.0819302z M21.6520252,27.6269855
		c0.1087437,0.0041771,0.2131786,0.0245419,0.3110867,0.0582867l-0.3229656,0.1438599l-0.3083439-0.166378
		C21.4337578,27.635601,21.5411949,27.6228085,21.6520252,27.6269855z M21.544981,27.9034119l-0.1656609,0.1602421
		l-0.0006523,0.0005207l-0.2163105-0.0058079l0.1556072-0.2773399L21.544981,27.9034119z M21.2622223,28.1767044
		l-0.1421604,0.1375923l0.0086155-0.1363525L21.2622223,28.1767044z M21.2409439,27.6918659l-0.203516,0.3632374
		l-0.4125175,0.2052135C20.7456627,27.9968147,20.9686317,27.7913399,21.2409439,27.6918659z M20.936779,28.6593227
		l0.0596581-0.0627918l-0.0037861,0.130022L20.936779,28.6593227z M20.9879513,28.8946934l-0.0077019,0.2710075
		l-0.2901974-0.1462746l0.1677475-0.2739449L20.9879513,28.8946934z M20.860672,28.5650711l-0.1424236-0.2276688
		l0.2896767-0.1441193l-0.0067883,0.2360229L20.860672,28.5650711z M20.5272636,28.6697674
		c0.0043087-0.1146183,0.026762-0.2244053,0.0638351-0.327013l0.1938572,0.3099117l-0.2168331,0.3539028
		C20.5377064,28.8997841,20.5228252,28.7867336,20.5272636,28.6697674z M20.5976257,29.0966434l0.3890209,0.1962719
		l0.1096554,0.3709393C20.8688965,29.540556,20.6903133,29.339323,20.5976257,29.0966434z M21.1102715,28.4868755
		l0.0002594-0.009531l0.3110867-0.3006401l0.4290962,0.0221272l0.1104393,0.117815l0.1669655,0.1781921l-0.016449,0.2871952
		l-0.0093994,0.1641579l-0.3069077,0.2815819l-0.3831444-0.014555l-0.312521-0.3584728L21.1102715,28.4868755z
		 M22.0932636,29.1046066l-0.0001316,0.0025463l-0.0002613,0.0037842l-0.0073109,0.127737l-0.127018-0.0048294l-0.0060043-0.0001965
		L22.0932636,29.1046066z M21.6733036,29.3337765l-0.0866795,0.0748005l-0.0721912-0.0808067L21.6733036,29.3337765z
		 M21.2605267,29.2074757l-0.0022202-0.0001316l-0.1490803-0.0056133l-0.005352-0.174015L21.2605267,29.2074757z
		 M21.10779,29.3124313l0.2529926,0.009531l0.1430759,0.1600456l-0.3069077,0.131979L21.10779,29.3124313z M21.5700455,29.794529
		c-0.1220589-0.0046997-0.2382431-0.0301552-0.3463326-0.0716686l0.3570366-0.153389l0.3327541,0.1819782
		C21.8047619,29.7832375,21.6893616,29.7990971,21.5700455,29.794529z M21.6633835,29.4884052l0.1721859-0.148428
		l0.2221851,0.0083542l-0.1150074,0.2929401L21.6633835,29.4884052z M22.0356922,29.707325l0.1435986-0.3660431l0.3845806-0.1152039
		C22.4471664,29.4408207,22.2607498,29.6110497,22.0356922,29.707325z M22.3305912,28.7240734l-0.1109619,0.1084156
		l0.0101814-0.1774731l0.0023499-0.04282L22.3305912,28.7240734z M22.241169,28.4547615l0.0117493-0.2056065l0.2952881,0.1488857
		l-0.1344585,0.2531223L22.241169,28.4547615z M22.4022598,28.8086643l0.1189251,0.3146744l-0.3237476,0.0970592l0.012661-0.223032
		l0.0001316-0.0011101L22.4022598,28.8086643z M22.6948071,28.7518139
		c-0.0044384,0.1187286-0.0287189,0.2319756-0.0681438,0.3375835l-0.1331539-0.3525963l0.164484-0.309454
		C22.6859303,28.5305424,22.6991158,28.639349,22.6948071,28.7518139z M22.2459984,28.1216145l0.0001316-0.0017624
		l-0.0013065-0.0001297l-0.1642227-0.3860168c0.2441158,0.117815,0.4362755,0.3240738,0.537056,0.5755653L22.2459984,28.1216145z"/>
	<path d="M19.1911201,27.4030151l-0.0458984-0.0007553c-0.644846,0-1.1692715,0.504818-1.1937332,1.149662
		c-0.0248413,0.6583366,0.4906311,1.2144127,1.1489697,1.2391891l0.0458984,0.0007572
		c0.6452236,0,1.1695213-0.504818,1.193985-1.149662C20.3648033,27.9838676,19.8490791,27.4277935,19.1911201,27.4030151z
		 M19.4259071,27.9982433l-0.1639233-0.1748924l0.2468929-0.1099548l0.1257153,0.2956905L19.4259071,27.9982433z
		 M19.6506062,28.1246529l-0.0018921,0.1112766l-0.1132317-0.1207352L19.6506062,28.1246529z M19.2642536,27.9897938
		l-0.1892662-0.0097713l0.0941925-0.0840416L19.2642536,27.9897938z M19.1854458,27.5503559
		c0.1050358,0.0040359,0.2059116,0.0237064,0.3004818,0.0563011l-0.3119564,0.1389561l-0.2978344-0.1607075
		C18.9746151,27.5586796,19.078392,27.5463219,19.1854458,27.5503559z M19.0820484,27.8173618l-0.1600132,0.1547794
		l-0.0006313,0.0005054l-0.2089386-0.0056114l0.1503048-0.2678871L19.0820484,27.8173618z M18.8089275,28.0813389
		l-0.1373158,0.1329041l0.0083218-0.1317062L18.8089275,28.0813389z M18.7883739,27.6130257l-0.196579,0.3508568
		l-0.3984585,0.1982193C18.3099747,27.9075813,18.5253429,27.7091084,18.7883739,27.6130257z M18.4945755,28.5475082
		l0.0576248-0.0606499l-0.0036564,0.1255894L18.4945755,28.5475082z M18.5440044,28.7748566l-0.0074387,0.2617722
		L18.256258,28.89534l0.1620312-0.2646084L18.5440044,28.7748566z M18.4210625,28.4564686l-0.1375675-0.2199078l0.2798023-0.1392078
		l-0.0065575,0.2279778L18.4210625,28.4564686z M18.0990181,28.5575962
		c0.0041618-0.1107101,0.0258503-0.2167549,0.0616608-0.3158665l0.1872501,0.2993488l-0.2094421,0.3418407
		C18.1091061,28.7797737,18.0947304,28.6705761,18.0990181,28.5575962z M18.1669827,28.9699249l0.375761,0.1895809
		l0.1059189,0.3582973C18.4290066,29.3987064,18.2565098,29.2043324,18.1669827,28.9699249z M18.6621552,28.3809395
		l0.0002518-0.0092049l0.3004818-0.2903957l0.4144726,0.0213737l0.1066742,0.1138l0.161274,0.1721172l-0.0158863,0.2774067
		l-0.009079,0.1585636l-0.2964478,0.271986l-0.3700867-0.014061l-0.3018684-0.3462543L18.6621552,28.3809395z
		 M19.6116428,28.9776154l-0.0001259,0.0024586l-0.0002518,0.0036583l-0.007061,0.1233826l-0.1226902-0.0046654
		l-0.0058002-0.0001888L19.6116428,28.9776154z M19.2059994,29.1989746l-0.0837269,0.0722504l-0.0697308-0.0780506
		L19.2059994,29.1989746z M18.8072891,29.0769787l-0.0021439-0.0001278l-0.1439991-0.0054207l-0.0051708-0.1680832
		L18.8072891,29.0769787z M18.6597595,29.1783581l0.2443695,0.0092049l0.1381989,0.1545906L18.745882,29.469635
		L18.6597595,29.1783581z M19.1062584,29.6440239c-0.1178989-0.0045395-0.2301216-0.029129-0.334528-0.0692272l0.3448677-0.148159
		l0.321413,0.1757736C19.3329754,29.6331158,19.221508,29.6484356,19.1062584,29.6440239z M19.1964149,29.3483315
		l0.1663189-0.1433678l0.2146111,0.00807l-0.1110878,0.2829552L19.1964149,29.3483315z M19.556036,29.5597916l0.1387024-0.3535671
		l0.3714733-0.1112785C19.9534836,29.302372,19.7734222,29.4667969,19.556036,29.5597916z M19.8408813,28.6100521
		l-0.1071796,0.1047211l0.0098362-0.1714249l0.0022697-0.0413589L19.8408813,28.6100521z M19.7545071,28.3499203
		l0.0113487-0.1985989l0.2852249,0.1438103l-0.1298771,0.2444954L19.7545071,28.3499203z M19.9101086,28.691761l0.1148701,0.3039494
		l-0.3127117,0.09375l0.0122299-0.2154312l0.0001259-0.0010719L19.9101086,28.691761z M20.1926842,28.6368465
		c-0.0042858,0.1146832-0.0277405,0.2240696-0.0658207,0.3260784l-0.1286163-0.34058l0.1588783-0.2989044
		C20.1841106,28.4231167,20.196846,28.5282173,20.1926842,28.6368465z M19.7591724,28.0281277l0.0001278-0.0017033
		l-0.0012627-0.0001259l-0.1586246-0.37286c0.235796,0.1138,0.4214058,0.3130283,0.5187492,0.5559483L19.7591724,28.0281277z"/>
	<path d="M16.7601643,27.225235l-0.0453568-0.0007477c-0.6372566,0-1.155509,0.4988766-1.1796837,1.1361313
		c-0.0245485,0.650589,0.4848576,1.200119,1.1354465,1.2246056l0.0453587,0.0007477
		c0.6376286,0,1.155756-0.4988766,1.1799316-1.1361313C17.9200344,27.7992516,17.4103794,27.2497215,16.7601643,27.225235z
		 M16.9921894,27.8134556l-0.161993-0.1728325l0.2439861-0.1086597l0.1242352,0.2922096L16.9921894,27.8134556z
		 M17.2142429,27.9383774l-0.0018692,0.1099682l-0.1118984-0.1193142L17.2142429,27.9383774z M16.8324394,27.8051071
		l-0.1870403-0.0096569l0.0930843-0.0830517L16.8324394,27.8051071z M16.7545567,27.370842
		c0.1038017,0.0039883,0.2034893,0.0234261,0.2969456,0.0556374l-0.3082848,0.1373215l-0.2943287-0.1588154
		C16.5462093,27.3790665,16.6487637,27.3668537,16.7545567,27.370842z M16.6523762,27.6347027l-0.1581287,0.1529598
		l-0.0006237,0.0004978l-0.2064781-0.0055447l0.1485348-0.2647343L16.6523762,27.6347027z M16.3824711,27.8955746
		l-0.1357002,0.1313381l0.0082245-0.1301537L16.3824711,27.8955746z M16.3621597,27.4327736l-0.1942654,0.3467274
		l-0.3937683,0.1958866C15.88939,27.7238617,16.1022243,27.5277252,16.3621597,27.4327736z M16.0718193,28.3562584
		l0.0569458-0.0599384l-0.0036125,0.1241112L16.0718193,28.3562584z M16.1206665,28.5809288l-0.0073528,0.2586918
		l-0.2770071-0.1396255l0.1601238-0.2614956L16.1206665,28.5809288z M15.9991713,28.2662888l-0.1359491-0.2173195
		l0.2765102-0.1375694l-0.0064812,0.2252941L15.9991713,28.2662888z M15.6809177,28.3662262
		c0.0041122-0.1094074,0.0255451-0.2142048,0.0609341-0.3121471l0.1850462,0.2958241l-0.2069778,0.3378162
		C15.6908865,28.5857887,15.6766806,28.4778767,15.6809177,28.3662262z M15.7480822,28.7737007l0.3713388,0.1873512
		l0.1046715,0.3540802C16.0070229,29.1974373,15.8365555,29.005352,15.7480822,28.7737007z M16.2374268,28.1916485
		l0.000248-0.0090981l0.2969456-0.2869759l0.4095936,0.021122l0.1054192,0.1124592l0.1593761,0.1700935l-0.0156994,0.2741413
		l-0.0089722,0.1566982l-0.2929592,0.2687836l-0.3657303-0.013895l-0.298315-0.3421783L16.2374268,28.1916485z
		 M17.1757393,28.7813015l-0.000124,0.00243l-0.0002499,0.0036144l-0.006979,0.1219311l-0.1212444-0.0046101L17.0414104,28.90448
		L17.1757393,28.7813015z M16.774868,29.0000553l-0.0827408,0.0714016l-0.0689087-0.0771332L16.774868,29.0000553z
		 M16.3808517,28.8794956l-0.0021191-0.0001259l-0.1423035-0.0053577l-0.0051098-0.1661053L16.3808517,28.8794956z
		 M16.2350578,28.979681l0.2414951,0.0090961l0.1365719,0.1527729l-0.2929573,0.1259804L16.2350578,28.979681z M16.676302,29.439867
		c-0.1165104-0.0044861-0.2274132-0.0287857-0.3305893-0.0684109l0.340807-0.1464176l0.3176308,0.1737061
		C16.9003506,29.4290867,16.7901955,29.4442272,16.676302,29.439867z M16.765398,29.1476555l0.16436-0.1416817l0.2120876,0.0079746
		l-0.1097813,0.2796249L16.765398,29.1476555z M17.1207867,29.3566265l0.1370697-0.3494053l0.3671017-0.1099701
		C17.5135574,29.1022358,17.3356133,29.2647266,17.1207867,29.3566265z M17.4022808,28.4180641l-0.1059189,0.1034889
		l0.0097198-0.1694069l0.002243-0.0408726L17.4022808,28.4180641z M17.3169231,28.1609936l0.0112133-0.1962605l0.281868,0.1421185
		l-0.1283474,0.2416172L17.3169231,28.1609936z M17.4706917,28.4988117l0.1135197,0.3003731l-0.3090343,0.0926476
		l0.0120888-0.2128963l0.000124-0.0010605L17.4706917,28.4988117z M17.7499428,28.4445438
		c-0.0042381,0.1133327-0.0274143,0.2214317-0.0650463,0.3222408l-0.1271038-0.3365707l0.1570091-0.2953892
		C17.7414684,28.2333298,17.754055,28.3371925,17.7499428,28.4445438z M17.3215332,27.842989l0.000124-0.0016823
		l-0.0012455-0.000124l-0.1567593-0.3684731c0.2330208,0.1124611,0.4164467,0.3093452,0.5126457,0.5494061L17.3215332,27.842989z"/>
	<path d="M14.3674107,27.042387l-0.0431967-0.0007114c-0.6068974,0-1.100461,0.4751091-1.1234837,1.0820065
		c-0.0233784,0.6195946,0.4617596,1.1429462,1.0813541,1.1662655l0.0431976,0.0007114
		c0.6072531,0,1.1006975-0.4751091,1.1237202-1.0820065C15.4720249,27.5890579,14.9866505,27.0657063,14.3674107,27.042387z
		 M14.5883808,27.6025867l-0.1542749-0.1646004l0.2323627-0.1034851l0.1183176,0.2782898L14.5883808,27.6025867z
		 M14.7998581,27.7215557l-0.0017805,0.1047306l-0.1065693-0.1136303L14.7998581,27.7215557z M14.4362421,27.594635
		l-0.1781292-0.0091972l0.0886488-0.0790958L14.4362421,27.594635z M14.362071,27.181057
		c0.098855,0.0037975,0.1937933,0.0223103,0.2827988,0.0529881l-0.2935982,0.1307774l-0.2803078-0.1512489
		C14.1636486,27.1888905,14.2613163,27.1772594,14.362071,27.181057z M14.2647581,27.4323483l-0.1505966,0.1456718
		l-0.0005932,0.0004749l-0.1966429-0.0052814l0.1414595-0.252121L14.2647581,27.4323483z M14.0077114,27.6807919
		l-0.1292362,0.125082l0.0078325-0.1239548L14.0077114,27.6807919z M13.9883671,27.2400379l-0.1850119,0.3302097
		l-0.3750086,0.186554C13.5381193,27.5172596,13.7408142,27.3304672,13.9883671,27.2400379z M13.7118578,28.1195278
		l0.0542336-0.0570812l-0.0034409,0.1181984L13.7118578,28.1195278z M13.758378,28.3334961l-0.0070019,0.2463665
		l-0.2638111-0.1329727l0.1524954-0.2490368L13.758378,28.3334961z M13.6426706,28.0338459l-0.1294727-0.2069664
		l0.2633371-0.1310158l-0.0061712,0.2145615L13.6426706,28.0338459z M13.3395786,28.1290226
		c0.0039158-0.1041965,0.0243282-0.2040005,0.0580311-0.2972775l0.1762304,0.2817307l-0.1971169,0.3217239
		C13.3490725,28.3381252,13.3355436,28.2353535,13.3395786,28.1290226z M13.4035435,28.5170841l0.3536472,0.1784267
		l0.0996866,0.3372116C13.6501474,28.9206352,13.4878016,28.7376995,13.4035435,28.5170841z M13.8695755,27.9627609
		l0.0002365-0.0086632l0.2827997-0.2733059l0.3900805,0.0201149l0.1003981,0.1071033l0.151783,0.1619892l-0.0149527,0.2610817
		l-0.0085449,0.1492329l-0.2790012,0.2559795l-0.3483076-0.0132332l-0.2841043-0.3258781L13.8695755,27.9627609z
		 M14.7631874,28.5243244l-0.0001183,0.0023136l-0.0002375,0.0034409l-0.0066462,0.1161232l-0.115469-0.0043907
		l-0.0054588-0.0001793L14.7631874,28.5243244z M14.3814144,28.7326546l-0.0787992,0.0680008l-0.0656261-0.0734596
		L14.3814144,28.7326546z M14.0061684,28.6178379l-0.002017-0.0001183l-0.1355257-0.0051022L13.86376,28.4544258
		L14.0061684,28.6178379z M13.8673201,28.713253l0.22999,0.0086632l0.1300659,0.1454926l-0.2790012,0.1199799L13.8673201,28.713253z
		 M14.2875433,29.1515141c-0.11096-0.0042725-0.2165794-0.0274143-0.3148413-0.0651512l0.3245726-0.1394424l0.3024998,0.165432
		C14.5009184,29.1412487,14.3960114,29.1556683,14.2875433,29.1515141z M14.3723955,28.8732243l0.1565304-0.1349316
		l0.2019825,0.0075951l-0.1045513,0.266304L14.3723955,28.8732243z M14.7108526,29.0722408l0.1305408-0.3327618l0.3496122-0.1047287
		C15.0849113,28.8299675,14.9154463,28.9847183,14.7108526,29.0722408z M14.9789362,28.1783905l-0.100873,0.0985584
		l0.0092573-0.1613369l0.0021362-0.0389252L14.9789362,28.1783905z M14.897645,27.933567l0.0106802-0.1869106l0.2684402,0.1353474
		l-0.1222343,0.2301064L14.897645,27.933567z M15.0440884,28.255291l0.1081114,0.2860622l-0.2943106,0.0882339L14.8694,28.4268341
		l0.0001192-0.001009L15.0440884,28.255291z M15.3100357,28.2036076c-0.004035,0.107935-0.0261078,0.2108841-0.0619478,0.3068905
		l-0.121047-0.3205376l0.1495285-0.2813148C15.3019657,28.0024567,15.3139515,28.1013718,15.3100357,28.2036076z
		 M14.9020357,27.6307106l0.0001183-0.0016022l-0.0011864-0.0001183l-0.149291-0.3509178
		c0.2219191,0.1071033,0.3966064,0.2946072,0.4882231,0.5232315L14.9020357,27.6307106z"/>
	<path d="M12.0741596,26.7189102l-0.0421171-0.0006943c-0.5917234,0-1.0729475,0.4632301-1.0953951,1.0549545
		c-0.0227938,0.604105,0.4502144,1.1143703,1.0543194,1.1371059l0.0421171,0.0006943
		c0.5920706,0,1.0731783-0.4632301,1.0956259-1.0549545C13.1511564,27.2519112,12.6779165,26.7416458,12.0741596,26.7189102z
		 M12.2896051,27.2651024l-0.1504183-0.1604843l0.226553-0.1008968l0.1153603,0.2713318L12.2896051,27.2651024z
		 M12.4957943,27.3810978l-0.0017357,0.1021118l-0.1039047-0.1107883L12.4957943,27.3810978z M12.1412697,27.2573509
		l-0.1736755-0.0089684l0.0864325-0.0771179L12.1412697,27.2573509z M12.0689526,26.8541126
		c0.096384,0.0037022,0.1889486,0.0217533,0.2757292,0.0516624l-0.2862587,0.1275101l-0.2732983-0.1474686
		C11.8754911,26.8617496,11.9707174,26.8504105,12.0689526,26.8541126z M11.9740734,27.0991211l-0.1468315,0.1420307
		l-0.0005789,0.0004616l-0.1917257-0.0051479l0.1379223-0.2458191L11.9740734,27.0991211z M11.7234526,27.3413525
		l-0.1260042,0.1219559l0.0076361-0.1208553L11.7234526,27.3413525z M11.7045927,26.9116192l-0.1803865,0.3219528
		l-0.365633,0.1818905C11.2656012,27.1819096,11.4632282,26.9997864,11.7045927,26.9116192z M11.4349957,27.7691212
		l0.0528784-0.0556545l-0.003355,0.115242L11.4349957,27.7691212z M11.4803534,27.9777393L11.473526,28.217947l-0.2572155-0.1296501
		l0.1486835-0.2428093L11.4803534,27.9777393z M11.3675394,27.6855812l-0.126236-0.2017937l0.256753-0.127739l-0.0060167,0.2091961
		L11.3675394,27.6855812z M11.0720243,27.7783775c0.0038185-0.1015911,0.0237198-0.1989002,0.0565805-0.2898445l0.1718245,0.2746868
		l-0.1921883,0.3136806C11.0812807,27.9822521,11.0680904,27.8820496,11.0720243,27.7783775z M11.1343899,28.1567383
		l0.3448057,0.1739635l0.0971937,0.3287811C11.3748283,28.5501976,11.2165422,28.3718357,11.1343899,28.1567383z
		 M11.5887699,27.616272l0.0002317-0.0084457l0.2757292-0.2664738l0.3803272,0.0196133l0.097888,0.1044254l0.1479883,0.1579399
		l-0.0145788,0.2545528l-0.0083303,0.1455021l-0.272027,0.2495785l-0.3395987-0.0129013l-0.2770014-0.3177299L11.5887699,27.616272z
		 M12.460041,28.1637955l-0.0001154,0.0022564l-0.0002317,0.003355l-0.0064793,0.1132202l-0.1125832-0.004282l-0.0053225-0.0001736
		L12.460041,28.1637955z M12.0878124,28.3669186l-0.076829,0.0662994l-0.0639858-0.0716209L12.0878124,28.3669186z
		 M11.7219486,28.2549725l-0.0019674-0.0001163l-0.1321363-0.0049744l-0.0047445-0.1542377L11.7219486,28.2549725z
		 M11.5865717,28.3480015l0.2242393,0.0084457l0.1268148,0.1418571l-0.2720261,0.1169796L11.5865717,28.3480015z
		 M11.9962893,28.7753048c-0.1081858-0.0041656-0.2111645-0.0267277-0.3069696-0.0635223l0.3164568-0.1359558l0.2949362,0.1612949
		C12.2043295,28.7652969,12.1020451,28.779356,11.9962893,28.7753048z M12.0790195,28.503973l0.1526165-0.1315575
		l0.1969328,0.0074043l-0.1019373,0.2596455L12.0790195,28.503973z M12.4090147,28.6980133l0.1272774-0.3244419l0.3408718-0.1021099
		C12.7737217,28.4617977,12.6084929,28.6126804,12.4090147,28.6980133z M12.6703959,27.8265114l-0.0983505,0.0960941
		l0.0090246-0.1573029l0.0020828-0.0379524L12.6703959,27.8265114z M12.5911369,27.5878086l0.0104132-0.1822376l0.2617283,0.1319637
		l-0.1191778,0.2243538L12.5911369,27.5878086z M12.7339182,27.9014893l0.1054096,0.2789097l-0.286953,0.0860291
		l0.0112238-0.1976852l0.0001154-0.0009842L12.7339182,27.9014893z M12.9932175,27.851099
		c-0.0039339,0.1052341-0.0254555,0.2056103-0.0603991,0.2992172l-0.118021-0.3125229l0.1457901-0.2742825
		C12.9853487,27.6549759,12.997035,27.7514172,12.9932175,27.851099z M12.595418,27.2925243l0.0001154-0.0015621
		l-0.0011568-0.0001144l-0.1455593-0.342144c0.2163715,0.1044235,0.386692,0.287241,0.476017,0.510149L12.595418,27.2925243z"/>
	<path d="M9.865283,26.3391819l-0.0410376-0.0006771c-0.5765505,0-1.045434,0.4513531-1.0673056,1.0279045
		c-0.0222101,0.5886135,0.4386702,1.0857944,1.0272837,1.1079483l0.0410366,0.0006771
		c0.576889,0,1.04566-0.4513531,1.0675316-1.0279045C10.9146633,26.8585167,10.453558,26.3613358,9.865283,26.3391819z
		 M10.0752039,26.8713703l-0.1465616-0.1563702l0.2207441-0.0983105l0.112402,0.2643757L10.0752039,26.8713703z
		 M10.2761059,26.9843903l-0.0016909,0.099493l-0.1012402-0.1079483L10.2761059,26.9843903z M9.9306717,26.8638153
		l-0.1692219-0.0087376l0.0842161-0.07514L9.9306717,26.8638153z M9.8602095,26.4709187
		c0.0939121,0.0036068,0.184104,0.0211945,0.2686586,0.0503387l-0.2789173,0.124239l-0.2662916-0.1436882
		C9.6717091,26.4783592,9.7644939,26.46731,9.8602095,26.4709187z M9.7677631,26.7096443L9.6246967,26.848032l-0.0005636,0.000452
		l-0.1868095-0.0050182l0.1343851-0.2395153L9.7677631,26.7096443z M9.5235691,26.9456654l-0.1227732,0.1188278l0.0074406-0.1177578
		L9.5235691,26.9456654z M9.5051928,26.5269489l-0.1757612,0.3136997l-0.3562574,0.1772251
		C9.0774584,26.7903099,9.2700176,26.6128578,9.5051928,26.5269489z M9.2425098,27.362463l0.0515213-0.0542278l-0.0032692,0.1122894
		L9.2425098,27.362463z M9.2867031,27.565733l-0.0066509,0.2340469l-0.2506208-0.1263237l0.1448708-0.2365856L9.2867031,27.565733z
		 M9.1767826,27.281065l-0.1229992-0.1966171l0.2501688-0.1244659L9.29809,27.1638165L9.1767826,27.281065z M8.8888454,27.3714828
		c0.0037203-0.0989857,0.0231113-0.1938,0.0551291-0.2824135l0.1674185,0.2676449l-0.1872606,0.3056355
		C8.8978643,27.5701294,8.8850117,27.472496,8.8888454,27.3714828z M8.9496117,27.7401409l0.3359642,0.1695042l0.0947018,0.3203487
		C9.1838846,28.1235123,9.0296574,27.9497242,8.9496117,27.7401409z M9.3923407,27.2135334l0.0002251-0.0082302l0.2686586-0.2596378
		l0.370575,0.0191097l0.0953779,0.1017456l0.1441936,0.1538906l-0.014205,0.2480278l-0.0081177,0.1417694l-0.2650509,0.2431793
		l-0.3308907-0.0125713l-0.2698984-0.3095818L9.3923407,27.2135334z M10.2412701,27.7470188l-0.0001135,0.0021973
		l-0.0002251,0.0032692l-0.0063133,0.1103153l-0.1096954-0.0041714l-0.0051861-0.0001678L10.2412701,27.7470188z
		 M9.8785858,27.9449329l-0.0748587,0.0646l-0.0623446-0.0697861L9.8785858,27.9449329z M9.5221033,27.8358574l-0.0019159-0.0001125
		l-0.1287489-0.0048485L9.386816,27.6806145L9.5221033,27.8358574z M9.3901987,27.9264984l0.2184887,0.0082302l0.1235628,0.1382198
		l-0.2650509,0.1139793L9.3901987,27.9264984z M9.7894096,28.3428459c-0.1054115-0.0040569-0.2057505-0.0260429-0.299099-0.0618935
		l0.3083429-0.1324692l0.2873735,0.1571598C9.992115,28.3330956,9.8924532,28.3467922,9.7894096,28.3428459z M9.870018,28.0784721
		l0.1487036-0.1281853l0.1918831,0.0072155l-0.0993242,0.2529888L9.870018,28.0784721z M10.1915512,28.2675362l0.1240139-0.3161221
		l0.3321304-0.0994911C10.5469065,28.0373783,10.3859148,28.184391,10.1915512,28.2675362z M10.4462299,27.4183826
		l-0.0958281,0.0936298l0.0087929-0.1532707l0.0020294-0.0369778L10.4462299,27.4183826z M10.3690033,27.1858006
		l0.0101471-0.1775646l0.2550163,0.1285782l-0.1161213,0.2186031L10.3690033,27.1858006z M10.5081244,27.4914379l0.102706,0.271759
		l-0.2795944,0.0838203l0.0109358-0.1926155l0.0001125-0.0009575L10.5081244,27.4914379z M10.7607737,27.4423389
		c-0.0038328,0.1025372-0.0248022,0.2003384-0.0588503,0.291544l-0.114994-0.3045082l0.1420517-0.2672501
		C10.7531071,27.2512455,10.7644939,27.3452148,10.7607737,27.4423389z M10.3731747,26.8980885l0.0001135-0.0015221
		L10.37216,26.8964539l-0.1418257-0.3333702c0.2108231,0.1017475,0.3767757,0.2798748,0.46381,0.4970684L10.3731747,26.8980885z"/>
	<path d="M7.6660991,27.7725239l0.0367222,0.0006065c0.5159278,0,0.9355102-0.4038944,0.9550815-0.9198227
		c0.0198746-0.526722-0.3925447-0.9716263-0.9192672-0.9914513l-0.0367222-0.0006046
		c-0.5162306,0-0.9357119,0.4038944-0.9552836,0.9198227C6.7270579,27.3077965,7.1396794,27.7527008,7.6660991,27.7725239z
		 M7.4782505,27.2962952l0.1311512,0.1399288l-0.1975336,0.0879707L7.311285,27.2876186L7.4782505,27.2962952z M7.2984729,27.195158
		l0.001513-0.0890312l0.0905952,0.0965977L7.2984729,27.195158z M7.6075854,27.3030548l0.1514292,0.0078182l-0.0753617,0.0672398
		L7.6075854,27.3030548z M7.670639,27.6546402c-0.0840378-0.0032291-0.1647458-0.0189667-0.2404099-0.0450459l0.2495904-0.1111755
		l0.2382913,0.1285782C7.8393192,27.6479816,7.7562904,27.6578693,7.670639,27.6546402z M7.753365,27.4410152l0.1280236-0.1238365
		l0.000504-0.0004044l0.1671672,0.0044899l-0.1202555,0.2143307L7.753365,27.4410152z M7.9718828,27.2298126l0.1098642-0.1063347
		l-0.0066586,0.1053753L7.9718828,27.2298126z M7.988327,27.6044998l0.15728-0.280714l0.3187981-0.1585903
		C8.3710861,27.3688316,8.1987734,27.527626,7.988327,27.6044998z M8.2233896,26.8568382L8.1772852,26.905365l0.0029259-0.1004829
		L8.2233896,26.8568382z M8.1838427,26.674942l0.0059519-0.2094383l0.2242689,0.1130428l-0.1296377,0.2117081L8.1838427,26.674942z
		 M8.2822056,26.929678l0.1100664,0.1759434l-0.2238646,0.1113777l0.0052462-0.1823997L8.2822056,26.929678z M8.5398674,26.8487682
		c-0.0033293,0.0885773-0.0206814,0.1734219-0.0493336,0.252718l-0.1498146-0.239502l0.1675711-0.2735004
		C8.5317965,26.6710072,8.5432978,26.7583752,8.5398674,26.8487682z M8.4854898,26.5188732l-0.3006382-0.1516819
		l-0.0847435-0.286665C8.2758503,26.1758118,8.4138613,26.3313274,8.4854898,26.5188732z M8.0893135,26.9901085
		l-0.0002022,0.0073643l-0.2404099,0.2323399l-0.3316102-0.0171013l-0.0853491-0.0910492l-0.1290321-0.1377087l0.0127115-0.2219467
		l0.0072637-0.1268635l0.2371817-0.2176094l0.2960982,0.0112476l0.2415195,0.2770309L8.0893135,26.9901085z M7.3296466,26.5127182
		l0.0001006-0.0019665l0.0002017-0.0029259l0.0056496-0.0987167l0.0981617,0.0037327l0.0046406,0.0001526L7.3296466,26.5127182z
		 M7.6541944,26.3356152l0.066988-0.0578079l0.0557899,0.0624485L7.6541944,26.3356152z M7.9731941,26.4332218l0.0017152,0.0000992
		l0.115211,0.0043392l0.0041361,0.1344795L7.9731941,26.4332218z M8.0912304,26.3521099l-0.1955161-0.0073662l-0.1105704-0.1236839
		l0.2371817-0.1019955L8.0912304,26.3521099z M7.733995,25.9795399c0.0943279,0.0036316,0.1841159,0.023304,0.2676492,0.0553856
		l-0.2759218,0.1185398l-0.2571568-0.1406326C7.5526032,25.988266,7.6417856,25.9760094,7.733995,25.9795399z M7.6618619,26.216116
		l-0.1330676,0.114706l-0.1717072-0.0064564l0.0888801-0.226387L7.6618619,26.216116z M7.3741369,26.0469303L7.2631631,26.329813
		l-0.2972083,0.0890312C7.0561461,26.2528877,7.2002106,26.1213341,7.3741369,26.0469303z M7.1462369,26.8067989
		l0.0857525-0.0837841l-0.0078692,0.1371536L7.2223043,26.893259L7.1462369,26.8067989z M7.215343,27.0149269l-0.0090795,0.1588936
		l-0.2282028-0.1150589l0.1039119-0.1956177L7.215343,27.0149269z M7.0908508,26.7414265l-0.0919065-0.243185l0.2501955-0.0750084
		l-0.0097857,0.1723633L7.239253,26.5964527L7.0908508,26.7414265z M6.8647666,26.7853622
		c0.0034299-0.0917568,0.0221949-0.1792736,0.0526624-0.260891l0.1029029,0.2724915l-0.1271157,0.2391491
		C6.8716269,26.9563618,6.8614373,26.8722744,6.8647666,26.7853622z M7.2116103,27.2723846l-0.0001006,0.0013638
		l0.0010085,0.0000992l0.126914,0.2983189c-0.1886559-0.0910492-0.3371587-0.2504482-0.4150424-0.4448032L7.2116103,27.2723846z"/>
	<path d="M5.8488078,27.0464935l0.0313025,0.0005169c0.4397764,0,0.7974277-0.3442802,0.8141108-0.7840557
		c0.0169411-0.4489784-0.3346052-0.8282146-0.7835827-0.8451118L5.8793359,25.417326
		c-0.4400344,0-0.7975998,0.3442802-0.8142829,0.7840557C5.0483704,26.6503601,5.4000883,27.0295963,5.8488078,27.0464935z
		 M5.6886859,26.6405563l0.111793,0.1192741l-0.1683774,0.0749874l-0.0857368-0.2016563L5.6886859,26.6405563z
		 M5.5354438,26.5543461l0.0012898-0.0758896l0.0772233,0.0823402L5.5354438,26.5543461z M5.7989311,26.6463184l0.1290779,0.0066643
		L5.863771,26.7102985L5.7989311,26.6463184z M5.8526778,26.9460087c-0.0716333-0.0027504-0.140429-0.0161667-0.2049251-0.0383968
		l0.2127504-0.0947647l0.2031193,0.1096001C5.9964609,26.9403343,5.9256873,26.948761,5.8526778,26.9460087z M5.9231935,26.763916
		l0.109127-0.1055584l0.0004301-0.0003452l0.1424928,0.003828l-0.1025052,0.1826954L5.9231935,26.763916z M6.1094575,26.5838852
		l0.0936484-0.0906372l-0.0056758,0.0898209L6.1094575,26.5838852z M6.1234746,26.9032707L6.2575402,26.66399l0.2717433-0.1351833
		C6.4497385,26.7023869,6.3028598,26.8377419,6.1234746,26.9032707z M6.323842,26.2659645l-0.0392995,0.0413628l0.0024939-0.0856514
		L6.323842,26.2659645z M6.2901325,26.1109161l0.0050735-0.1785259l0.1911659,0.0963573l-0.1105032,0.18046L6.2901325,26.1109161z
		 M6.3739772,26.3280525l0.0938201,0.1499748l-0.1908221,0.0949364l0.0044718-0.1554775L6.3739772,26.3280525z
		 M6.5936074,26.2590847c-0.0028377,0.0755024-0.0176291,0.1478233-0.0420513,0.215416l-0.1277022-0.2041512l0.142837-0.2331314
		C6.5867276,26.1075611,6.5965314,26.1820335,6.5936074,26.2590847z M6.5472565,25.9778824l-0.2562642-0.1292934
		l-0.0722356-0.2443542C6.3685594,25.6854572,6.4862003,25.818018,6.5472565,25.9778824z M6.2095556,26.3795624
		l-0.0001721,0.0062771l-0.2049251,0.1980457l-0.2826643-0.014576l-0.0727515-0.07761l-0.1099873-0.117382l0.0108352-0.189188
		l0.0061917-0.108139l0.2021732-0.1854897l0.2523942,0.0095882l0.2058711,0.2361412L6.2095556,26.3795624z M5.562016,25.9726353
		l0.0000858-0.0016766l0.0001721-0.0024929l0.0048156-0.0841465l0.083673,0.0031815l0.0039558,0.0001297L5.562016,25.9726353z
		 M5.8386607,25.8216724L5.895761,25.772398l0.047555,0.0532303L5.8386607,25.8216724z M6.1105757,25.9048729l0.001462,0.0000858
		l0.0982056,0.0036983l0.0035257,0.1146297L6.1105757,25.9048729z M6.2111893,25.8357334l-0.1666574-0.006279l-0.0942502-0.1054287
		l0.2021732-0.0869408L6.2111893,25.8357334z M5.9066825,25.5181541c0.0804048,0.0030956,0.15694,0.019865,0.2281437,0.0472107
		L5.899631,25.6664085l-0.2192006-0.119875C5.7520642,25.5255928,5.8280835,25.5151443,5.9066825,25.5181541z M5.8451962,25.7198124
		l-0.1134267,0.0977764l-0.1463633-0.0055046l0.0757613-0.1929722L5.8451962,25.7198124z M5.5999398,25.5755997
		l-0.0945945,0.2411289l-0.2533398,0.0758896C5.3288846,25.7511578,5.451685,25.6390209,5.5999398,25.5755997z
		 M5.4056778,26.2233105l0.0730953-0.0714188l-0.0067077,0.116909l-0.0015478,0.0282078L5.4056778,26.2233105z
		 M5.4645839,26.4007168l-0.0077391,0.1354427l-0.19452-0.0980778l0.0885744-0.1667442L5.4645839,26.4007168z M5.3584666,26.1675854
		l-0.078341-0.2072887l0.2132668-0.0639381l-0.0083418,0.1469231l-0.0000858,0.0007305L5.3584666,26.1675854z M5.1657529,26.2050362
		c0.002924-0.0782108,0.0189185-0.1528111,0.044889-0.2223816l0.0877147,0.2322712l-0.1083531,0.2038498
		C5.1716003,26.3507977,5.1629148,26.2791214,5.1657529,26.2050362z M5.4614024,26.6201763L5.4613161,26.621336l0.0008602,0.0000858
		l0.108181,0.2542877c-0.16081-0.0776119-0.287394-0.2134819-0.3537817-0.3791504L5.4614024,26.6201763z"/>
	<path d="M4.4112349,26.0492687l0.024291,0.0004005c0.34128,0,0.6188288-0.2671719,0.6317754-0.6084518
		c0.0131469-0.3484211-0.2596641-0.6427193-0.6080847-0.6558342l-0.024291-0.0004005
		c-0.3414803,0-0.6189623,0.2671719-0.6319089,0.6084518C3.7900703,25.7418556,4.063014,26.0361538,4.4112349,26.0492687z
		 M4.2869749,25.7342472l0.0867548,0.0925617l-0.1306658,0.0581913L4.1765294,25.728508L4.2869749,25.7342472z M4.1680541,25.667347
		l0.0010014-0.0588932l0.0599275,0.0638981L4.1680541,25.667347z M4.3725286,25.7387199l0.1001687,0.0051708l-0.0498509,0.0444794
		L4.3725286,25.7387199z M4.4142375,25.9712887c-0.0555897-0.0021362-0.1089773-0.0125465-0.1590281-0.0297966l0.1651011-0.0735416
		l0.1576271,0.0850525C4.5258179,25.9668846,4.4708953,25.9734249,4.4142375,25.9712887z M4.4689598,25.8299789l0.0846863-0.0819168
		l0.0003338-0.000267l0.110579,0.0029697l-0.0795479,0.141777L4.4689598,25.8299789z M4.6135068,25.6902695l0.0726738-0.0703373
		L4.681776,25.6896362L4.6135068,25.6902695z M4.6243844,25.9381218l0.1040392-0.185688l0.2108808-0.104908
		C4.8775749,25.7822304,4.7635927,25.88727,4.6243844,25.9381218z M4.7798758,25.443552l-0.0304976,0.0321007l0.0019355-0.0664692
		L4.7798758,25.443552z M4.753716,25.3232307l0.0039372-0.1385403l0.1483507,0.0747757L4.82025,25.3995075L4.753716,25.3232307z
		 M4.8187819,25.4917355L4.8915892,25.60812l-0.1480837,0.0736752l0.0034704-0.120657L4.8187819,25.4917355z M4.989222,25.4382133
		c-0.0022025,0.0585938-0.0136805,0.1147175-0.0326333,0.1671696l-0.0991006-0.1584263l0.110846-0.1809177
		C4.9838834,25.3206272,4.9914908,25.3784199,4.989222,25.4382133z M4.9532518,25.2199917l-0.1988688-0.1003342
		l-0.0560565-0.1896267C4.8145776,24.9930611,4.9058704,25.095932,4.9532518,25.2199917z M4.691186,25.5317097L4.6910524,25.536581
		l-0.1590285,0.1536884l-0.2193561-0.0113106l-0.0564575-0.0602283L4.170857,25.5276375l0.0084085-0.1468143l0.0048051-0.0839195
		l0.1568928-0.1439457l0.1958656,0.0074406l0.1597624,0.1832523L4.691186,25.5317097z M4.1886754,25.2159214l0.0000668-0.0013008
		l0.000133-0.001936l0.0037374-0.0653l0.0649323,0.00247l0.0030699,0.0000992L4.1886754,25.2159214z M4.4033599,25.0987682
		l0.044312-0.0382385l0.0369039,0.0413094L4.4033599,25.0987682z M4.6143746,25.1633339l0.0011344,0.0000668l0.0762105,0.0028706
		l0.0027361,0.0889568L4.6143746,25.1633339z M4.6924539,25.1096802l-0.1293316-0.0048714l-0.0731411-0.0818176l0.1568928-0.0674686
		L4.6924539,25.1096802z M4.4561472,24.8632298c0.0623965,0.0024033,0.1217904,0.0154152,0.1770463,0.0366364l-0.182519,0.078413
		L4.2805686,24.885252C4.3361583,24.8690014,4.3951516,24.8608932,4.4561472,24.8632298z M4.408432,25.019722l-0.0880227,0.0758762
		l-0.1135821-0.0042706l0.0587931-0.1497517L4.408432,25.019722z M4.2181053,24.9078083l-0.0734081,0.1871243l-0.1965997,0.0588932
		C4.0077581,25.0440464,4.103055,24.9570255,4.2181053,24.9078083z M4.0673518,25.4104519l0.0567245-0.0554218L4.1188712,25.445755
		l-0.0012016,0.0218887L4.0673518,25.4104519z M4.1130652,25.5481262L4.107059,25.6532326l-0.1509533-0.0761108l0.0687366-0.1293983
		L4.1130652,25.5481262z M4.0307145,25.3672085l-0.0607948-0.1608639l0.1655016-0.0496159l-0.0064735,0.1140156L4.128881,25.2713108
		L4.0307145,25.3672085z M3.8811629,25.3962708c0.0022688-0.0606937,0.0146816-0.1185875,0.0348353-0.172575l0.0680692,0.1802502
		L3.899982,25.5621395C3.8857007,25.5093861,3.8789606,25.4537621,3.8811629,25.3962708z M4.1105957,25.7184315
		l-0.0000668,0.0009022l0.0006676,0.0000668l0.083952,0.1973324c-0.1247935-0.0602264-0.2230265-0.1656685-0.2745457-0.2942314
		L4.1105957,25.7184315z"/>
	<path d="M27.8698559,28.8112736c0.0598125,0.6539612,0.6199665,1.1385345,1.2756386,1.1035595l0.0466003-0.0032558
		c0.667654-0.0608654,1.1613312-0.6538868,1.1004028-1.3215389c-0.0598125-0.6539612-0.6200943-1.1385269-1.2753811-1.1035728
		l-0.0466003,0.0032578C28.3032455,27.5505657,27.8093109,28.1436024,27.8698559,28.8112736z M28.5527134,28.1296463
		l0.1117249-0.3072929l0.2568493,0.0983524l-0.1570969,0.1866093L28.5527134,28.1296463z M28.6591816,28.2321014
		l-0.1085224,0.128828l-0.0079536-0.112978L28.6591816,28.2321014z M29.0195332,27.989481l0.1002731,0.0802975l-0.191803,0.0201893
		L29.0195332,27.989481z M29.3004589,27.657486l-0.2939453,0.1794529l-0.3245411-0.1242962
		c0.0943356-0.03825,0.1957779-0.0637074,0.3022957-0.0734997C29.0928383,27.6292381,29.1989632,27.6361713,29.3004589,27.657486z
		 M29.3202343,27.7728519l0.1672592,0.2640781l-0.2120171,0.0170269l-0.0006676-0.0004787l-0.1709957-0.148613
		L29.3202343,27.7728519z M29.5268135,28.1525383l0.0155964,0.1333866l-0.1467438-0.1276112L29.5268135,28.1525383z
		 M30.0256023,28.207016l-0.4156532-0.1798306l-0.2187824-0.3458824
		C29.6636658,27.7646847,29.89328,27.9546967,30.0256023,28.207016z M29.6890545,28.6839085l-0.0105228-0.1274261
		l0.0618458,0.0585098L29.6890545,28.6839085z M29.8224106,28.6954269l0.1789989,0.2601109l-0.2771893,0.1587696
		l-0.0217495-0.2656059L29.8224106,28.6954269z M29.665163,28.3925858L29.646143,28.161272l0.2918797,0.1262951
		l-0.1278763,0.2309265L29.665163,28.3925858z M30.1204147,28.936533l-0.2313633-0.3360252l0.1740551-0.3143444
		c0.0417633,0.098774,0.0695515,0.2053604,0.0797806,0.3176384C30.153368,28.71838,30.14468,28.8301239,30.1204147,28.936533z
		 M29.6363907,29.6093521l0.088213-0.3698406l0.3715687-0.2130203
		C30.0179024,29.2695484,29.8531475,29.4764214,29.6363907,29.6093521z M29.5906963,28.8153419l-0.2879887,0.3682251
		l-0.3753185,0.0343475l-0.3159904-0.2603207l-0.0178204-0.1606388l-0.0311832-0.2810383l0.1545563-0.1836472l0.1022358-0.1214256
		l0.4200249-0.0441856l0.3210888,0.2788105l0.0007553,0.0093403L29.5906963,28.8153419z M28.7734222,29.2319107
		l-0.0058842,0.0005054l-0.124424,0.0113926l-0.0138645-0.1249981l-0.0004539-0.0037022l-0.0002613-0.0024929L28.7734222,29.2319107
		z M29.208374,29.3013573l-0.0666275,0.0830975l-0.0889988-0.0688839L29.208374,29.3013573z M29.5956516,28.985342
		l0.0038567,0.1710854l-0.1460361,0.0133152l-0.0021725,0.0002441L29.5956516,28.985342z M29.5349865,29.5656738
		l-0.308157-0.1134758l0.1320572-0.164587l0.2478275-0.0226002L29.5349865,29.5656738z M28.8388462,29.7381172l0.3170891-0.196043
		l0.3584843,0.1318665c-0.1039238,0.0464058-0.2166309,0.0774765-0.3361931,0.08848
		C29.0613499,29.7731514,28.9472466,29.7636261,28.8388462,29.7381172z M28.8043747,29.6315022l-0.1282253-0.2815151
		l0.2176495-0.0198345l0.1767826,0.1366749L28.8043747,29.6315022z M28.1729641,29.2564869l0.3835201,0.0929432l0.1601162,0.3517761
		C28.4906521,29.6184883,28.2987614,29.4611607,28.1729641,29.2564869z M28.4664154,28.6365585l0.004549,0.0419064
		l0.0192871,0.1736679l-0.1145916-0.1006069L28.4664154,28.6365585z M28.2902184,28.6843147l-0.1452332-0.241415
		l0.2820492-0.1616001l0.0222969,0.2011986L28.2902184,28.6843147z M28.5080509,29.0123863l0.0001869,0.0010834l0.024107,0.2182579
		l-0.3228588-0.0783195l0.100256-0.3150978L28.5080509,29.0123863z M28.0387573,28.4774151l0.1776543,0.2951336
		l-0.1122379,0.3530674c-0.0442257-0.1015987-0.073988-0.2114849-0.0845623-0.3277912
		C28.0094948,28.6876602,28.0167408,28.5801697,28.0387573,28.4774151z M28.0721703,28.3594036
		c0.0857525-0.2521305,0.2635708-0.4646473,0.497015-0.593071l-0.1409836,0.3874969l-0.0012741,0.0001965l0.0002193,0.0017223
		L28.0721703,28.3594036z"/>
	<path d="M30.4099617,28.6538963c0.058815,0.6430473,0.6096191,1.1195316,1.2543468,1.0851421l0.0458241-0.0032024
		c0.6565094-0.0598488,1.1419487-0.6429729,1.0820389-1.2994823c-0.058815-0.6430454-0.609745-1.119524-1.254097-1.0851536
		l-0.0458221,0.0032024C30.8361187,27.4142303,30.3504276,27.9973679,30.4099617,28.6538963z M31.0814228,27.9836464
		l0.1098595-0.3021641l0.2525635,0.0967102l-0.1544743,0.1834946L31.0814228,27.9836464z M31.1861134,28.0843906
		l-0.1067104,0.1266785l-0.007822-0.1110916L31.1861134,28.0843906z M31.540451,27.8458195l0.0986004,0.0789566
		l-0.1886024,0.0198536L31.540451,27.8458195z M31.8166885,27.5193653l-0.2890396,0.1764584l-0.3191242-0.122221
		c0.0927601-0.037611,0.1925106-0.062645,0.2972507-0.0722752C31.6125317,27.4915905,31.7168865,27.4984074,31.8166885,27.5193653z
		 M31.836134,27.6328068l0.1644688,0.2596703l-0.2084808,0.0167427l-0.0006561-0.0004711l-0.1681404-0.1461315L31.836134,27.6328068
		z M32.0392647,28.006155l0.0153351,0.1311607l-0.1442947-0.1254807L32.0392647,28.006155z M32.5297279,28.0597248
		l-0.4087143-0.1768303l-0.2151318-0.3401108C32.1738319,27.6247749,32.3996162,27.811615,32.5297279,28.0597248z
		 M32.1987991,28.528656l-0.0103493-0.1252975l0.0608139,0.0575333L32.1987991,28.528656z M32.3299294,28.5399837
		l0.1760101,0.2557697l-0.2725601,0.1561203l-0.021389-0.2611752L32.3299294,28.5399837z M32.1753044,28.242197
		l-0.0187035-0.2274532l0.2870102,0.1241875l-0.1257439,0.2270718L32.1753044,28.242197z M32.6229591,28.7770653
		l-0.2275009-0.3304157l0.1711502-0.3090992c0.0410652,0.097126,0.0683899,0.2019329,0.0784492,0.3123379
		C32.6553612,28.5625534,32.6468201,28.6724339,32.6229591,28.7770653z M32.1470146,29.4386539l0.0867386-0.3636665
		l0.3653679-0.209465C32.5221558,29.1045227,32.3601532,29.3079414,32.1470146,29.4386539z M32.1020813,28.6578979
		l-0.2831821,0.3620777l-0.3690529,0.0337753l-0.3107185-0.2559757l-0.0175228-0.1579571l-0.0306606-0.2763481l0.1519756-0.180582
		l0.1005287-0.1194l0.4130135-0.0434475l0.315731,0.2741566l0.0007439,0.0091839L32.1020813,28.6578979z M31.2984467,29.0675125
		l-0.005785,0.0004978l-0.1223469,0.0112019l-0.0136318-0.1229115l-0.0004482-0.0036411l-0.0002556-0.0024509L31.2984467,29.0675125
		z M31.726141,29.1358013l-0.0655174,0.0817089l-0.087513-0.0677338L31.726141,29.1358013z M32.1069527,28.8250599
		l0.0037956,0.1682301l-0.1436005,0.013092l-0.0021362,0.0002403L32.1069527,28.8250599z M32.0473022,29.3957062
		l-0.3030148-0.1115837l0.1298523-0.1618385l0.2436924-0.0222225L32.0473022,29.3957062z M31.3627796,29.5652714
		l0.3117981-0.1927719l0.352499,0.1296654c-0.1021881,0.0456314-0.2130146,0.0761833-0.3305817,0.0870037
		C31.5815697,29.5997219,31.4693718,29.590353,31.3627796,29.5652714z M31.3288822,29.4604359l-0.1260853-0.2768173
		l0.2140179-0.0195026l0.1738319,0.1343937L31.3288822,29.4604359z M30.7080116,29.0916786l0.3771191,0.0913925l0.1574421,0.3459053
		C31.0203972,29.4476395,30.8317089,29.2929363,30.7080116,29.0916786z M30.9965649,28.4820976l0.0044727,0.0412064
		l0.0189648,0.1707706l-0.1126785-0.0989285L30.9965649,28.4820976z M30.8233089,28.5290565L30.6805,28.2916718l0.2773418-0.1589031
		l0.021925,0.1978397L30.8233089,28.5290565z M31.0375061,28.8516541l0.0001831,0.0010643l0.0237045,0.2146149l-0.3174706-0.0770111
		l0.0985832-0.3098412L31.0375061,28.8516541z M30.576046,28.3256092l0.1746883,0.2902088l-0.1103649,0.3471737
		c-0.0434875-0.0999012-0.0727539-0.2079544-0.0831509-0.3223209C30.5472717,28.5323467,30.5543938,28.4266491,30.576046,28.3256092
		z M30.6089001,28.209568c0.084322-0.2479229,0.2591705-0.456892,0.4887199-0.5831718l-0.1386299,0.3810291l-0.001255,0.0001926
		l0.0002174,0.0016937L30.6089001,28.209568z"/>
	<path d="M32.8684883,28.449234c0.0567207,0.6201687,0.5879288,1.0797024,1.2097206,1.0465355l0.0441933-0.003088
		c0.6331558-0.0577202,1.101326-0.6200981,1.0435448-1.2532501c-0.0567207-0.6201706-0.5880547-1.0796986-1.2094803-1.0465488
		l-0.0441933,0.003088C33.2794838,27.2536697,32.8110733,27.816061,32.8684883,28.449234z M33.5160599,27.8028278
		l0.1059532-0.2914143l0.243576,0.0932693L33.71661,27.7816505L33.5160599,27.8028278z M33.6170273,27.8999882l-0.1029167,0.1221714
		L33.5065689,27.91502L33.6170273,27.8999882z M33.9587593,27.6699047l0.0950928,0.0761471l-0.1818924,0.0191479
		L33.9587593,27.6699047z M34.2251701,27.3550644l-0.278759,0.1701794l-0.3077698-0.1178722
		c0.0894585-0.036274,0.1856613-0.0604153,0.2866745-0.0697021C34.0282745,27.3282776,34.1289177,27.3348503,34.2251701,27.3550644z
		 M34.2439232,27.4644699l0.1586151,0.2504311l-0.2010612,0.0161476l-0.0006332-0.0004539l-0.162159-0.140934L34.2439232,27.4644699
		z M34.439827,27.8245373l0.0147896,0.1264935l-0.1391602-0.1210175L34.439827,27.8245373z M34.9128418,27.8761997
		l-0.3941765-0.1705399l-0.2074776-0.3280087C34.5696068,27.4567242,34.7873573,27.6369171,34.9128418,27.8761997z
		 M34.5936852,28.3284492l-0.0099792-0.120842l0.0586472,0.0554867L34.5936852,28.3284492z M34.72015,28.3393726
		l0.1697464,0.2466698l-0.2628632,0.1505661l-0.0206261-0.2518826L34.72015,28.3393726z M34.5710258,28.0521812L34.55299,27.832819
		l0.2767982,0.1197701l-0.1212692,0.2189922L34.5710258,28.0521812z M35.0027542,28.5680199l-0.2194099-0.3186607
		l0.165062-0.2981014c0.039608,0.0936699,0.0659599,0.1947479,0.0756607,0.3012238
		C35.0340042,28.3611393,35.0257645,28.4671097,35.0027542,28.5680199z M34.5437431,29.2060719l0.0836525-0.350729
		l0.3523674-0.202013C34.9055405,28.8838272,34.7492981,29.0800114,34.5437431,29.2060719z M34.5004082,28.4530926
		L34.2272987,28.80229l-0.3559227,0.0325718l-0.2996635-0.2468681l-0.0168991-0.152338l-0.0295715-0.2665157l0.1465721-0.1741581
		l0.0969505-0.1151524l0.3983192-0.0419025l0.3045006,0.2644024l0.0007133,0.0088577L34.5004082,28.4530926z M33.7253647,28.848135
		l-0.0055809,0.0004807l-0.1179924,0.0108013l-0.0131493-0.1185379l-0.0004311-0.0035114l-0.000248-0.0023632L33.7253647,28.848135z
		 M34.1378403,28.9139938l-0.0631828,0.0788021l-0.0844002-0.0653248L34.1378403,28.9139938z M34.5051079,28.6143055
		l0.0036583,0.1622467l-0.1384926,0.0126266l-0.0020599,0.0002327L34.5051079,28.6143055z M34.4475784,29.1646519
		l-0.2922363-0.1076126l0.1252327-0.1560822l0.2350235-0.0214329L34.4475784,29.1646519z M33.7874069,29.328186l0.300705-0.185915
		l0.339962,0.1250534c-0.0985527,0.0440083-0.2054405,0.073473-0.318821,0.0839081
		C33.9984131,29.3614082,33.8902092,29.352375,33.7874069,29.328186z M33.7547188,29.2270794l-0.1216011-0.2669697
		l0.2064018-0.0188084l0.1676483,0.129612L33.7547188,29.2270794z M33.1559334,28.8714409l0.3637047,0.0881424l0.1518402,0.3335972
		C33.4572067,29.2147369,33.2752304,29.0655384,33.1559334,28.8714409z M33.4342232,28.2835464l0.0043144,0.0397415
		l0.0182877,0.1646938l-0.1086693-0.0954094L33.4342232,28.2835464z M33.2671318,28.3288345l-0.1377296-0.228941
		l0.2674751-0.1532497l0.0211449,0.1908035L33.2671318,28.3288345z M33.4737053,28.6399555l0.0001793,0.0010262l0.0228615,0.2069798
		l-0.306179-0.0742722l0.0950775-0.2988167L33.4737053,28.6399555z M33.0286636,28.1326256l0.1684723,0.2798843
		l-0.1064377,0.3348236c-0.0419426-0.0963497-0.0701637-0.2005577-0.0801926-0.310854
		C33.0009117,28.3320084,33.007782,28.2300701,33.0286636,28.1326256z M33.0603485,28.0207119
		c0.0813217-0.2391014,0.2499504-0.4406376,0.4713326-0.5624256l-0.1336975,0.3674736l-0.0012093,0.0001869l0.0002098,0.0016346
		L33.0603485,28.0207119z"/>
	<path d="M35.3020325,28.1798267c0.0533257,0.5829983,0.5526962,1.0149899,1.1372185,0.9838104l0.0415421-0.002903
		c0.5952072-0.0542603,1.0353165-0.5829315,0.980999-1.1781368c-0.0533218-0.5829983-0.5528069-1.0149841-1.1369858-0.9838219
		l-0.0415459,0.002903C35.6883965,27.0559196,35.2480583,27.5846043,35.3020325,28.1798267z M35.9107933,27.5721645
		l0.0996017-0.2739487l0.228981,0.0876789l-0.1400528,0.1663609L35.9107933,27.5721645z M36.0057068,27.6635017
		l-0.0967445,0.1148472l-0.0070915-0.1007175L36.0057068,27.6635017z M36.3269577,27.4472084l0.0893936,0.0715828
		l-0.17099,0.0179996L36.3269577,27.4472084z M36.5774002,27.1512375l-0.2620468,0.1599808l-0.2893257-0.1108093
		c0.0840988-0.0340977,0.1745338-0.0567932,0.2694931-0.0655251C36.3923073,27.1260548,36.4869194,27.1322365,36.5774002,27.1512375
		z M36.5950317,27.2540855l0.1491089,0.2354221L36.55513,27.5046864l-0.0005951-0.0004253l-0.1524429-0.1324883
		L36.5950317,27.2540855z M36.7791939,27.5925713l0.0139046,0.1189137l-0.1308212-0.1137657L36.7791939,27.5925713z
		 M37.2238579,27.6411381l-0.3705521-0.1603184l-0.1950417-0.3083496
		C36.9011955,27.2468033,37.105896,27.4161968,37.2238579,27.6411381z M36.9238319,28.0662823l-0.0093842-0.1135998
		l0.0551338,0.0521622L36.9238319,28.0662823z M37.042717,28.0765514l0.1595726,0.231884l-0.2471085,0.1415424L36.935791,28.213192
		L37.042717,28.0765514z M36.9025307,27.806572l-0.0169563-0.2062149l0.2602081,0.1125908l-0.1140022,0.2058678
		L36.9025307,27.806572z M37.3083839,28.2914925l-0.2062607-0.2995605l0.1551704-0.2802353
		c0.0372314,0.0880566,0.0620041,0.1830769,0.0711212,0.2831707C37.3377609,28.0970116,37.3300133,28.1966324,37.3083839,28.2914925
		z M36.8768806,28.891304l0.07864-0.3297081l0.3312492-0.1899052C37.2169914,28.5883732,37.070118,28.7727966,36.8768806,28.891304z
		 M36.8361435,28.1834545l-0.2567368,0.3282681l-0.3345909,0.0306206l-0.2817039-0.2320728l-0.0158882-0.1432076
		l-0.0277977-0.2505436L36.0572128,27.7528l0.0911407-0.1082497l0.3744469-0.0393906l0.2862473,0.2485561l0.0006714,0.0083256
		L36.8361435,28.1834545z M36.1075516,28.5548191l-0.0052452,0.000452l-0.11092,0.0101547l-0.0123596-0.1114349
		l-0.0004044-0.0032997l-0.0002327-0.0022221L36.1075516,28.5548191z M36.4953079,28.6167316l-0.0593987,0.0740795
		l-0.0793419-0.061409L36.4953079,28.6167316z M36.8405609,28.3350067l0.0034409,0.1525192L36.71381,28.4993973
		l-0.0019341,0.0002174L36.8405609,28.3350067z M36.7864799,28.8523655l-0.2747192-0.1011639l0.1177292-0.1467266
		l0.2209358-0.0201473L36.7864799,28.8523655z M36.1658783,29.0060978l0.2826805-0.1747704l0.3195839,0.1175556
		c-0.0926437,0.0413723-0.1931229,0.0690708-0.2997093,0.0788803C36.3642387,29.0373306,36.262516,29.0288372,36.1658783,29.0060978
		z M36.1351471,28.9110508l-0.1143112-0.250967l0.1940308-0.017683l0.1576004,0.1218452L36.1351471,28.9110508z
		 M35.5722504,28.5767288l0.3419075,0.082859l0.1427383,0.3136024
		C35.8554688,28.8994503,35.6843987,28.7591934,35.5722504,28.5767288z M35.8338623,28.0240707l0.004055,0.0373573
		l0.0171928,0.1548233l-0.1021576-0.0896893L35.8338623,28.0240707z M35.6767845,28.0666447l-0.1294746-0.2152195
		l0.251442-0.1440639l0.0198784,0.1793671L35.6767845,28.0666447z M35.8709793,28.3591175l0.000164,0.0009651l0.021492,0.1945724
		l-0.2878265-0.0698185l0.0893784-0.2809067L35.8709793,28.3591175z M35.45261,27.8821945l0.1583748,0.2631092l-0.1000595,0.3147545
		c-0.0394249-0.0905724-0.0659599-0.1885357-0.075386-0.2922211C35.4265213,28.0696259,35.4329796,27.9737988,35.45261,27.8821945z
		 M35.4823952,27.776989c0.0764465-0.2247715,0.2349701-0.4142265,0.4430847-0.5287151l-0.1256866,0.3454475l-0.0011368,0.0001755
		l0.0001984,0.0015373L35.4823952,27.776989z"/>
	<path d="M37.7313766,27.7859516c0.0517159,0.5654488,0.5360565,0.9844341,1.1029816,0.9541931l0.0402946-0.0028152
		c0.5772896-0.0526257,1.0041504-0.5653839,0.9514656-1.1426697c-0.0517159-0.5654488-0.5361633-0.9844303-1.1027603-0.9542065
		l-0.0402946,0.0028152C38.1061096,26.695879,37.6790276,27.2086468,37.7313766,27.7859516z M38.3218117,27.1965809
		l0.0966034-0.2657013l0.222084,0.0850391l-0.1358337,0.1613541L38.3218117,27.1965809z M38.413868,27.2851677l-0.0938339,0.111393
		l-0.0068779-0.0976868L38.413868,27.2851677z M38.7254486,27.075386l0.0867004,0.0694294l-0.165844,0.017458L38.7254486,27.075386z
		 M38.9683495,26.7883263l-0.254158,0.1551647l-0.2806168-0.1074734c0.0815697-0.0330734,0.169281-0.0550842,0.2613831-0.0635529
		C38.7888298,26.7639027,38.8805923,26.7698956,38.9683495,26.7883263z M38.9854507,26.8880768l0.144619,0.2283363
		l-0.1833191,0.0147228l-0.0005798-0.0004139l-0.14785-0.1284981L38.9854507,26.8880768z M39.1640701,27.2163734l0.013485,0.1153336
		l-0.1268845-0.1103401L39.1640701,27.2163734z M39.5953484,27.2634792l-0.3593979-0.1554928l-0.1891708-0.2990685
		C39.2823982,26.8810158,39.4809341,27.0453091,39.5953484,27.2634792z M39.3043518,27.6758232l-0.0090981-0.110178
		l0.0534744,0.0505905L39.3043518,27.6758232z M39.4196587,27.6857834l0.1547699,0.224905l-0.2396698,0.1372814
		l-0.0188065-0.2296581L39.4196587,27.6857834z M39.2836914,27.423933l-0.0164452-0.2000065l0.2523766,0.1092014
		l-0.110569,0.1996708L39.2836914,27.423933z M39.6773262,27.8942566l-0.2000465-0.2905445l0.1504974-0.2717991
		c0.0361099,0.0854053,0.0601349,0.1775665,0.0689812,0.2746468C39.7058182,27.7056293,39.698307,27.8022499,39.6773262,27.8942566z
		 M39.2588158,28.4760113l0.0762711-0.3197842l0.3212776-0.1841888
		C39.5886879,28.1821995,39.4462357,28.3610706,39.2588158,28.4760113z M39.2193031,27.7894688l-0.2490082,0.3183861
		l-0.3245201,0.0296993l-0.2732201-0.2250862l-0.0154114-0.1388969l-0.0269585-0.243l0.1336365-0.1587925l0.088398-0.10499
		l0.3631744-0.0382042l0.2776299,0.2410717l0.0006523,0.0080776L39.2193031,27.7894688z M38.5126457,28.1496544l-0.005085,0.0004387
		l-0.1075859,0.0098495l-0.0119858-0.1080799l-0.0003929-0.0032005l-0.0002251-0.0021553L38.5126457,28.1496544z
		 M38.8887291,28.2097034l-0.0576096,0.0718479l-0.0769539-0.0595589L38.8887291,28.2097034z M39.2235909,27.9364586
		l0.003334,0.1479301l-0.1262703,0.0115128l-0.0018768,0.0002117L39.2235909,27.9364586z M39.1711349,28.4382439
		l-0.266449-0.0981178l0.1141853-0.1423092l0.214283-0.0195408L39.1711349,28.4382439z M38.5692177,28.5873489l0.2741699-0.1695099
		l0.3099632,0.1140175c-0.0898552,0.0401268-0.1873093,0.0669899-0.2906876,0.0765057
		C38.7616043,28.6176414,38.6629448,28.6094036,38.5692177,28.5873489z M38.5394096,28.495163l-0.1108704-0.243412
		l0.1881905-0.0171509l0.1528587,0.1181774L38.5394096,28.495163z M37.9934616,28.1709042l0.3316116,0.0803661l0.138443,0.3041611
		C38.2681503,28.4839115,38.1022301,28.3478756,37.9934616,28.1709042z M38.2471962,27.6348839l0.0039291,0.0362339
		l0.0166779,0.1501617l-0.0990829-0.0869904L38.2471962,27.6348839z M38.0948448,27.6761761l-0.125576-0.2087402
		l0.2438736-0.1397285l0.0192795,0.1739674L38.0948448,27.6761761z M38.2831955,27.9598446l0.0001602,0.0009346l0.0208435,0.1887169
		l-0.2791595-0.0677185l0.0866852-0.2724495L38.2831955,27.9598446z M37.8774185,27.4972782l0.1536102,0.2551899
		l-0.0970459,0.3052788c-0.0382423-0.0878468-0.0639763-0.1828594-0.0731201-0.2834244
		C37.8521156,27.6790676,37.8583794,27.5861263,37.8774185,27.4972782z M37.9063072,27.3952408
		c0.0741501-0.2180061,0.2278976-0.4017582,0.4297485-0.5128002l-0.1219025,0.3350506l-0.0011024,0.0001698l0.0001907,0.0014896
		L37.9063072,27.3952408z"/>
	<path d="M40.077652,27.3026371c0.0482635,0.5277042,0.5002708,0.9187241,1.0293579,0.890501l0.0376053-0.0026283
		c0.5387535-0.0491123,0.9371185-0.5276432,0.8879547-1.0663948c-0.0482674-0.5277061-0.5003777-0.9187183-1.0291519-0.8905125
		l-0.0376053,0.0026283C40.4273682,26.2853279,40.0287971,26.7638683,40.077652,27.3026371z M40.6286736,26.7526073
		l0.0901566-0.2479649l0.2072601,0.0793629l-0.1267662,0.1505833L40.6286736,26.7526073z M40.7145882,26.8352814
		l-0.0875702,0.1039562l-0.0064201-0.0911655L40.7145882,26.8352814z M41.0053673,26.6395035l0.0809135,0.0647945
		l-0.1547699,0.0162907L41.0053673,26.6395035z M41.2320557,26.371603l-0.2371941,0.1448078l-0.2618828-0.1002979
		c0.0761223-0.0308647,0.1579781-0.0514088,0.2439346-0.0593109C41.064518,26.3488102,41.1501579,26.3544044,41.2320557,26.371603z
		 M41.2480125,26.4646969l0.1349678,0.2130947l-0.1710815,0.0137386l-0.0005417-0.0003853l-0.1379814-0.1199207
		L41.2480125,26.4646969z M41.414711,26.77108l0.0125847,0.1076355l-0.118412-0.1029758L41.414711,26.77108z M41.8172035,26.8150406
		l-0.3354073-0.145113l-0.1765442-0.2791042C41.5251427,26.458107,41.7104263,26.611433,41.8172035,26.8150406z
		 M41.5456276,27.1998615l-0.0084915-0.1028252l0.0499077,0.0472145L41.5456276,27.1998615z M41.6532402,27.209156
		l0.1444397,0.2098923l-0.2236748,0.1281185l-0.0175514-0.2143288L41.6532402,27.209156z M41.5263481,26.9647827
		l-0.0153465-0.186655l0.235527,0.1019115l-0.1031876,0.1863422L41.5263481,26.9647827z M41.8937073,27.4037132
		l-0.1866951-0.2711506l0.1404533-0.2536564c0.033699,0.0797043,0.0561218,0.1657143,0.0643768,0.2563152
		C41.9202995,27.2276783,41.9132881,27.3178482,41.8937073,27.4037132z M41.5031319,27.9466343l0.0711823-0.2984371
		l0.2998314-0.1718941C41.8109856,27.6724358,41.6780396,27.8393688,41.5031319,27.9466343z M41.466259,27.3059196
		l-0.2323875,0.2971344l-0.3028564,0.0277157l-0.2549858-0.210062l-0.0143814-0.1296253l-0.0251617-0.226778l0.1247177-0.1481934
		l0.0824966-0.0979824l0.338932-0.0356541l0.2590981,0.2249813l0.0006104,0.0075359L41.466259,27.3059196z M40.8067703,27.6420631
		l-0.0047455,0.0004101l-0.1004028,0.0091915l-0.0111885-0.1008663l-0.0003662-0.0029869l-0.0002098-0.0020103
		L40.8067703,27.6420631z M41.1577492,27.698103l-0.0537643,0.0670528l-0.0718155-0.055584L41.1577492,27.698103z
		 M41.4702568,27.4430981l0.0031128,0.1380558l-0.1178398,0.0107441l-0.0017548,0.0001965L41.4702568,27.4430981z
		 M41.4213066,27.9113884l-0.2486649-0.091568l0.1065636-0.1328087l0.1999817-0.0182381L41.4213066,27.9113884z
		 M40.8595657,28.0505409l0.2558708-0.1581955l0.2892723,0.1064072c-0.0838585,0.0374489-0.1748085,0.0625191-0.271286,0.0713978
		C41.0391121,28.0788116,40.9470367,28.0711231,40.8595657,28.0505409z M40.831749,27.9645081l-0.1034698-0.2271633
		l0.1756287-0.0160065l0.1426544,0.1102886L40.831749,27.9645081z M40.3222427,27.6618958l0.3094749,0.0749989l0.1292038,0.2838612
		C40.5785942,27.9540081,40.4237518,27.8270531,40.3222427,27.6618958z M40.5590363,27.1616535l0.0036736,0.0338154
		l0.0155602,0.1401386l-0.0924683-0.0811844L40.5590363,27.1616535z M40.4168587,27.2001896l-0.1171951-0.1948071
		l0.2275963-0.1303997l0.0179939,0.1623535L40.4168587,27.2001896z M40.5926361,27.464922l0.0001488,0.0008736l0.019455,0.1761208
		l-0.2605286-0.0631981l0.0809021-0.2542648L40.5926361,27.464922z M40.2139435,27.0332336l0.1433563,0.2381554
		l-0.0905685,0.2849026c-0.0356865-0.0819836-0.0597038-0.1706543-0.0682373-0.2645073
		C40.1903305,27.2028885,40.1961784,27.1161499,40.2139435,27.0332336z M40.2409058,26.9380074
		c0.0691986-0.2034531,0.2126846-0.3749409,0.401062-0.4785709l-0.1137657,0.312685l-0.00103,0.0001583l0.0001793,0.0013905
		L40.2409058,26.9380074z"/>
	<path d="M42.1999931,26.7784576c0.040657,0.4445591,0.4214478,0.7739677,0.8671684,0.7501926l0.0316772-0.0022144
		c0.4538651-0.0413761,0.789463-0.4445057,0.7480469-0.8983707c-0.0406609-0.4445572-0.4215355-0.773962-0.8669968-0.7502003
		l-0.0316772,0.0022144C42.494606,25.9214401,42.1588326,26.3245811,42.1999931,26.7784576z M42.6641922,26.315094
		l0.0759506-0.2088947l0.1746025,0.0668583l-0.1067924,0.1268559L42.6641922,26.315094z M42.7365685,26.3847427
		l-0.0737724,0.0875759l-0.0054054-0.0768013L42.7365685,26.3847427z M42.9815331,26.2198105l0.0681648,0.0545845
		l-0.1303864,0.0137253L42.9815331,26.2198105z M43.1725044,25.9941216l-0.1998215,0.1219921l-0.2206192-0.0844955
		c0.0641251-0.026001,0.1330872-0.0433083,0.2054977-0.0499649C43.0313644,25.9749203,43.103508,25.9796333,43.1725044,25.9941216z
		 M43.1859474,26.0725479l0.1137009,0.1795177l-0.1441269,0.0115757l-0.0004539-0.0003262l-0.1162415-0.1010265
		L43.1859474,26.0725479z M43.3263779,26.3306561l0.010601,0.0906754l-0.0997543-0.08675L43.3263779,26.3306561z
		 M43.665451,26.3676891l-0.2825584-0.1222477l-0.1487274-0.2351284
		C43.4194107,26.0669956,43.5755005,26.1961632,43.665451,26.3676891z M43.4366684,26.6918774l-0.0071526-0.0866241
		l0.0420418,0.0397758L43.4366684,26.6918774z M43.5273247,26.699707l0.1216812,0.1768208l-0.1884308,0.1079311
		l-0.0147858-0.1805573L43.5273247,26.699707z M43.4204254,26.4938393l-0.012928-0.1572456l0.1984177,0.0858536
		l-0.0869293,0.1569824L43.4204254,26.4938393z M43.7299042,26.8636093l-0.15728-0.2284279l0.1183205-0.2136879
		c0.0283928,0.0671444,0.0472794,0.1396027,0.0542336,0.2159271C43.7523041,26.7153091,43.7463989,26.7912731,43.7299042,26.8636093
		z M43.4008675,27.3209858l0.059967-0.2514153l0.2525902-0.1448097
		C43.6602173,27.0899906,43.5482178,27.2306194,43.4008675,27.3209858z M43.3698044,26.7812252l-0.1957703,0.2503147
		l-0.2551384,0.0233498l-0.2148094-0.1769638l-0.0121155-0.1092014l-0.0211945-0.1910458l0.1050644-0.1248436l0.0695-0.0825424
		l0.2855263-0.0300388l0.218277,0.1895332l0.0005112,0.0063496L43.3698044,26.7812252z M42.8142281,27.0644035l-0.0039978,0.0003452
		l-0.0845833,0.0077438l-0.0094261-0.0849724l-0.000309-0.0025177l-0.0001755-0.0016937L42.8142281,27.0644035z
		 M43.1099052,27.1116142l-0.0452919,0.056488l-0.0605011-0.0468273L43.1099052,27.1116142z M43.3731728,26.8967876
		l0.0026245,0.1163025l-0.0992775,0.0090523l-0.0014763,0.0001659L43.3731728,26.8967876z M43.3319359,27.2912941
		l-0.2094841-0.0771408l0.0897713-0.1118851l0.1684723-0.0153618L43.3319359,27.2912941z M42.8587036,27.4085197
		l0.2155533-0.1332684l0.2436943,0.0896416c-0.0706444,0.0315456-0.1472626,0.0526676-0.2285385,0.0601482
		C43.0099602,27.4323349,42.9323921,27.4258595,42.8587036,27.4085197z M42.8352699,27.3360443l-0.0871658-0.1913719
		l0.1479568-0.013483l0.1201744,0.0929108L42.8352699,27.3360443z M42.406044,27.08111l0.2607117,0.0631828l0.1088448,0.2391338
		C42.6220055,27.327198,42.4915581,27.2202454,42.406044,27.08111z M42.6055298,26.6596889l0.0030899,0.0284882l0.0131111,0.1180573
		l-0.0778999-0.0683918L42.6055298,26.6596889z M42.4857521,26.6921539l-0.0987282-0.1641121l0.1917343-0.1098557
		l0.0151558,0.1367741L42.4857521,26.6921539z M42.633831,26.9151745l0.0001259,0.0007343l0.0163879,0.1483707l-0.2194748-0.0532398
		l0.0681534-0.2142029L42.633831,26.9151745z M42.3148117,26.5515041l0.1207657,0.2006302l-0.0762978,0.2400112
		c-0.0300636-0.0690651-0.0502968-0.1437645-0.0574837-0.2228298
		C42.2949181,26.6944275,42.2998428,26.6213551,42.3148117,26.5515041z M42.3375244,26.4712811
		c0.0582924-0.1713963,0.1791725-0.3158627,0.3378677-0.4031658l-0.0958405,0.2634182l-0.0008659,0.0001335l0.0001488,0.0011711
		L42.3375244,26.4712811z"/>
	<path d="M43.9768486,26.0913353c0.034584,0.3781033,0.358448,0.6582699,0.7375412,0.6380501l0.0269432-0.0018845
		c0.3860207-0.0351887,0.6714516-0.3780594,0.6362228-0.7640781c-0.0345802-0.3781033-0.3585205-0.6582661-0.7373886-0.6380558
		l-0.0269432,0.0018826C44.2274246,25.3624287,43.9418449,25.7053051,43.9768486,26.0913353z M44.3716583,25.697237
		l0.0645981-0.1776695l0.1485023,0.0568657l-0.0908279,0.107893L44.3716583,25.697237z M44.4332161,25.7564735l-0.0627441,0.0744839
		l-0.0046005-0.0653191L44.4332161,25.7564735z M44.6415634,25.6161976l0.0579758,0.0464249l-0.1108971,0.011673
		L44.6415634,25.6161976z M44.8039856,25.4242458l-0.1699524,0.103754l-0.1876411-0.0718632
		c0.0545425-0.0221157,0.1131973-0.0368347,0.1747818-0.0424976C44.6839447,25.4079132,44.7453041,25.4119225,44.8039856,25.4242458
		z M44.8154182,25.4909477l0.0967064,0.1526833l-0.1225815,0.0098438l-0.0003891-0.0002766l-0.0988617-0.0859241
		L44.8154182,25.4909477z M44.9348602,25.7104721l0.0090141,0.0771217l-0.0848427-0.073782L44.9348602,25.7104721z
		 M45.2232475,25.7419701l-0.2403221-0.1039734l-0.1264954-0.1999817
		C45.0139847,25.4862251,45.14674,25.5960846,45.2232475,25.7419701z M45.0286636,26.0176964l-0.0060844-0.0736752
		l0.0357552,0.0338306L45.0286636,26.0176964z M45.1057663,26.0243568l0.1034927,0.1503887l-0.1602631,0.0917969
		l-0.0125771-0.1535664L45.1057663,26.0243568z M45.0148506,25.8492622l-0.0109978-0.1337414l0.1687546,0.0730209
		l-0.0739326,0.1335163L45.0148506,25.8492622z M45.2780647,26.1637573l-0.13377-0.1942806l0.1006355-0.1817455
		c0.024147,0.0571079,0.0402107,0.1187344,0.0461273,0.1836491C45.2971153,26.0376263,45.2920914,26.1022339,45.2780647,26.1637573z
		 M44.9982147,26.552763l0.0510025-0.2138309l0.2148285-0.1231632C45.218792,26.3562984,45.1235352,26.4759064,44.9982147,26.552763
		z M44.9717941,26.0936871l-0.1665077,0.2128983l-0.2169991,0.0198593l-0.1826973-0.1505108l-0.0103035-0.0928764
		l-0.0180283-0.1624889l0.0893593-0.1061802l0.0591087-0.0702057l0.2428474-0.025547l0.1856461,0.1612015l0.0004387,0.0053997
		L44.9717941,26.0936871z M44.4992676,26.3345356l-0.0034027,0.0002937l-0.0719376,0.0065861l-0.0080147-0.0722713
		l-0.0002632-0.00214l-0.0001526-0.00144L44.4992676,26.3345356z M44.7507439,26.3746891l-0.0385208,0.0480442l-0.0514565-0.0398273
		L44.7507439,26.3746891z M44.974659,26.1919765l0.0022316,0.098917l-0.0844345,0.0077l-0.0012589,0.0001411L44.974659,26.1919765z
		 M44.9395828,26.5275097l-0.1781693-0.065609l0.076355-0.0951595l0.1432877-0.0130672L44.9395828,26.5275097z
		 M44.5370941,26.6272125l0.1833344-0.113348l0.2072639,0.0762424c-0.0600853,0.0268307-0.1252518,0.0447941-0.1943779,0.051157
		C44.665741,26.6474686,44.5997696,26.6419601,44.5370941,26.6272125z M44.5171623,26.5655708l-0.0741348-0.1627655
		l0.1258392-0.011467l0.102211,0.0790215L44.5171623,26.5655708z M44.1520996,26.3487453l0.2217407,0.0537376l0.0925751,0.2033882
		C44.3357773,26.5580463,44.2248306,26.467083,44.1520996,26.3487453z M44.3217659,25.9903202l0.0026283,0.024229
		l0.0111504,0.1004105l-0.0662537-0.0581684L44.3217659,25.9903202z M44.2198906,26.017931l-0.0839691-0.1395798
		l0.1630745-0.0934334l0.0128899,0.1163292L44.2198906,26.017931z M44.3458366,26.2076149l0.0001068,0.0006256l0.0139389,0.1261902
		l-0.1866684-0.0452824l0.0579643-0.1821804L44.3458366,26.2076149z M44.0745049,25.8983078l0.1027145,0.1706371
		l-0.0648918,0.2041359c-0.0255737-0.0587425-0.042778-0.1222763-0.048893-0.1895218
		C44.0575867,26.019865,44.0617752,25.957716,44.0745049,25.8983078z M44.0938225,25.8300762
		c0.0495796-0.1457748,0.1523895-0.2686462,0.2873611-0.3428974l-0.0815125,0.2240391l-0.0007362,0.0001144l0.0001259,0.0009956
		L44.0938225,25.8300762z"/>
	<path d="M45.4067307,25.2773571c0.023262,0.2543068,0.2410889,0.4427433,0.4960594,0.429142l0.0181198-0.0012665
		c0.2596321-0.0236683,0.4516106-0.2542763,0.4279175-0.5139065c-0.023262-0.2543068-0.2411385-0.4427395-0.4959602-0.4291477
		l-0.0181198,0.0012665C45.575264,24.7871056,45.3831863,25.0177193,45.4067307,25.2773571z M45.6722755,25.0122929
		l0.0434456-0.1194973l0.0998802,0.0382462l-0.0610886,0.072567L45.6722755,25.0122929z M45.7136765,25.0521355
		l-0.0421982,0.0500965l-0.0030937-0.0439339L45.7136765,25.0521355z M45.8538094,24.9577866l0.03899,0.0312252l-0.074585,0.0078526
		L45.8538094,24.9577866z M45.9630508,24.8286839l-0.1143074,0.0697842l-0.1262016-0.048336
		c0.0366821-0.0148735,0.0761299-0.0247726,0.1175537-0.0285816C45.8823128,24.8176994,45.923584,24.8203945,45.9630508,24.8286839z
		 M45.9707413,24.8735466l0.0650406,0.1026917l-0.0824471,0.0066223l-0.0002594-0.0001869l-0.066494-0.0577908
		L45.9707413,24.8735466z M46.051075,25.0211945l0.0060654,0.0518703l-0.0570641-0.0496235L46.051075,25.0211945z
		 M46.2450371,25.0423794l-0.1616325-0.069931l-0.0850792-0.1345024
		C46.1042938,24.8703709,46.1935806,24.9442596,46.2450371,25.0423794z M46.1141663,25.227829l-0.0040932-0.049551
		l0.0240479,0.0227528L46.1141663,25.227829z M46.1660233,25.2323093l0.0696068,0.1011486l-0.1077881,0.0617409l-0.008461-0.1032867
		L46.1660233,25.2323093z M46.1048737,25.114542l-0.0073967-0.0899506l0.1135025,0.0491123l-0.0497246,0.0897999
		L46.1048737,25.114542z M46.2819099,25.326067l-0.0899734-0.1306686l0.067688-0.1222401
		c0.0162392,0.0384102,0.0270462,0.0798588,0.0310211,0.1235199C46.2947235,25.2412338,46.2913437,25.2846889,46.2819099,25.326067z
		 M46.0936852,25.5877075l0.0343018-0.1438198l0.1444931-0.0828381
		C46.2420425,25.4555683,46.1779747,25.5360146,46.0936852,25.5877075z M46.0759163,25.2789402l-0.1119919,0.1431923
		l-0.1459503,0.0133553l-0.122879-0.1012306l-0.0069275-0.0624676l-0.0121269-0.1092873l0.0601006-0.0714149l0.0397568-0.0472183
		l0.1633377-0.0171833l0.1248589,0.1084213l0.0002937,0.0036316L46.0759163,25.2789402z M45.7581024,25.4409313
		l-0.0022888,0.0001965l-0.0483856,0.0044308l-0.0053902-0.0486088l-0.0001755-0.00144l-0.000103-0.0009689L45.7581024,25.4409313z
		 M45.9272423,25.4679375l-0.0259094,0.0323143l-0.0346107-0.0267868L45.9272423,25.4679375z M46.0778427,25.345047
		l0.0014992,0.0665302l-0.0567894,0.0051785l-0.000843,0.0000954L46.0778427,25.345047z M46.0542526,25.5707226
		l-0.1198349-0.0441284l0.0513535-0.064003l0.0963745-0.0087891L46.0542526,25.5707226z M45.7835426,25.6377811l0.1233063-0.0762367
		l0.1394043,0.0512791c-0.0404129,0.0180454-0.08424,0.0301285-0.1307335,0.0344067
		C45.8700676,25.6514034,45.8256989,25.6476994,45.7835426,25.6377811z M45.7701378,25.5963211l-0.0498619-0.1094742
		l0.0846367-0.0077114l0.0687447,0.0531483L45.7701378,25.5963211z M45.524601,25.450489l0.1491394,0.0361423l0.0622673,0.136795
		C45.64814,25.5912609,45.5735207,25.5300789,45.524601,25.450489z M45.6387177,25.2094173l0.0017662,0.0162945l0.0075035,0.0675354
		l-0.0445633-0.0391235L45.6387177,25.2094173z M45.5701981,25.2279873l-0.0564766-0.0938797l0.1096802-0.0628414
		l0.0086708,0.0782413L45.5701981,25.2279873z M45.6549072,25.3555641l0.0000725,0.0004215l0.0093765,0.0848751
		l-0.1255531-0.0304565l0.0389862-0.1225319L45.6549072,25.3555641z M45.4724121,25.1475296l0.0690842,0.114769l-0.043644,0.1372986
		c-0.0172005-0.0395088-0.0287743-0.0822411-0.0328827-0.12747C45.4610329,25.2292881,45.4638519,25.1874886,45.4724121,25.1475296z
		 M45.485405,25.1016388c0.0333481-0.0980453,0.1024971-0.180687,0.1932755-0.2306271l-0.0548248,0.1506863l-0.0004959,0.0000763
		l0.0000877,0.0006695L45.485405,25.1016388z"/>
</g>
</svg>
