<?xml version="1.0" encoding="utf-8"?>
<!-- Generator: Adobe Illustrator 18.0.0, SVG Export Plug-In . SVG Version: 6.00 Build 0)  -->
<!DOCTYPE svg PUBLIC "-//W3C//DTD SVG 1.1//EN" "http://www.w3.org/Graphics/SVG/1.1/DTD/svg11.dtd">
<svg version="1.1" id="Layer_1" xmlns="http://www.w3.org/2000/svg" xmlns:xlink="http://www.w3.org/1999/xlink" x="0px" y="0px"
	 width="50px" height="50px" viewBox="0 0 50 50" enable-background="new 0 0 50 50" xml:space="preserve">
<path d="M46.1742363,16.9040546c-0.3519363-0.9055367-1.5114899-1.3088598-2.3433456-0.8047066l-12.6910934,7.7036114v-5.3243942
	l13.0061913-3.4117622c0.3441811-0.0901651,0.5506897-0.4430733,0.4605255-0.7882242
	c-0.0911369-0.344182-0.4401665-0.5545692-0.7882271-0.4605246L30.3302422,17.355854
	c-0.284071,0.0746536-0.4818535,0.3306084-0.4818535,0.6243744v6.3451843
	c-0.0426598-0.0088463-0.082653-0.0258141-0.1279774-0.0258141h-13.414362v-4.6391811v-1.215786
	c0-0.051384-0.0067863-0.1018009-0.0184212-0.1512451c-0.0213299-0.0872574-0.5380859-2.1368351-2.7650871-3.2488823
	c-1.9216003-0.9588614-4.2416763-0.5419645-5.5146637,0.9898853c-0.7116323,0.8590012-1.0315762,1.9070587-0.9511051,3.1160564
	c0.0029082,0.0465374,0.0106645,0.0930748,0.0242381,0.1376743c0.0164819,0.0572014,0.4178658,1.3912697,1.6404376,1.9371128
	c0.8124628,0.3635712,1.7538729,0.2918262,2.796113-0.2084484c0.3209133-0.1541557,0.4566469-0.5400257,0.3024921-0.860939
	c-0.1541548-0.3228531-0.5419645-0.4585857-0.860939-0.3024921c-0.6825466,0.3276997-1.2555361,0.3926582-1.7034569,0.1968136
	c-0.5710506-0.2501373-0.8444576-0.8764515-0.9162025-1.0674477c-0.0387812-0.8328228,0.1842098-1.5473633,0.6621866-2.1242313
	c0.8948727-1.0771437,2.5547009-1.3515196,3.9450006-0.658308c1.4998569,0.7475033,1.974925,2.0330944,2.0679989,2.3336487
	v1.1265888v4.6391811H3.1457043C2.7889187,24.2995987,2.5,24.5885181,2.5,24.945303
	c0,0.3567867,0.2889187,0.6457043,0.6457043,0.6457043h11.8689365v4.4617596v1.1265888
	c-0.0950136,0.3073387-0.5720196,1.5880852-2.0679989,2.3346176c-1.3932085,0.6951523-3.0520678,0.4168968-3.9440317-0.6592751
	c-0.4789457-0.57687-0.7009668-1.2914104-0.6631556-2.1242332c0.0736847-0.1948738,0.3461208-0.8173103,0.9152327-1.0674477
	c0.4479208-0.1977844,1.0218801-0.1299171,1.7044268,0.1977825c0.3218822,0.1551247,0.7067842,0.0213299,0.860939-0.3024921
	c0.1541548-0.3209133,0.0184212-0.7067833-0.3024921-0.860939c-1.044179-0.5002747-1.9846191-0.5700817-2.796113-0.2094173
	c-1.2225718,0.5458431-1.6239557,1.8799114-1.6404376,1.9371128c-0.0135736,0.0445976-0.0213299,0.091135-0.0242381,0.1376724
	c-0.080471,1.2089996,0.2394729,2.2570572,0.9520741,3.1160583c0.8124628,0.9792213,2.0524864,1.5027657,3.3448648,1.5027657
	c0.7290831,0,1.4746494-0.1667595,2.1688299-0.5119133c2.2270012-1.1120453,2.7437572-3.1625919,2.7650871-3.2498493
	c0.0116348-0.0494461,0.0184212-0.0998611,0.0184212-0.151247v-1.2157841v-4.4617596h13.414362
	c0.0453243,0,0.0853176-0.0169659,0.1279774-0.0258141v6.013607c0,0.2850399,0.1871185,0.5361481,0.4605255,0.618557
	l13.2669907,3.9799042c0.0620499,0.0184212,0.1240997,0.0271454,0.1851807,0.0271454
	c0.2782555,0,0.5342102-0.1803284,0.618557-0.4605217c0.1018028-0.3412743-0.0921021-0.7009697-0.4333763-0.8037376
	l-12.806469-3.8412628v-5.3103352L42.7789574,33.48489c0.3005524,0.1987495,0.6505508,0.3044281,1.0121841,0.3044281
	c0.6777,0,1.2865601-0.366478,1.590992-0.9569206C48.9625931,25.856657,47.1282501,19.3695602,46.1742363,16.9040546z
	 M44.2342148,32.2419548c-0.1657906,0.324791-0.5293617,0.3092804-0.7436256,0.1667595l-11.5063343-7.608839l12.5156116-7.5972061
	c0.1444588-0.0862885,0.375206-0.0785313,0.4702187,0.1677284C45.8620491,19.6739902,47.5752029,25.7325592,44.2342148,32.2419548z"
	/>
</svg>
