<?xml version="1.0" encoding="utf-8"?>
<!-- Generator: Adobe Illustrator 18.0.0, SVG Export Plug-In . SVG Version: 6.00 Build 0)  -->
<!DOCTYPE svg PUBLIC "-//W3C//DTD SVG 1.1//EN" "http://www.w3.org/Graphics/SVG/1.1/DTD/svg11.dtd">
<svg version="1.1" id="Layer_1" xmlns="http://www.w3.org/2000/svg" xmlns:xlink="http://www.w3.org/1999/xlink" x="0px" y="0px"
	 width="50px" height="50px" viewBox="0 0 50 50" enable-background="new 0 0 50 50" xml:space="preserve">
<g>
	<path d="M47.5,9.8509302c0-1.1038027-0.8987236-2.0016656-2.0025291-2.0016656
		c-0.6867523,0-1.3235283,0.5359607-1.6897392,1.0374541c-0.0127106,0.0175028-0.0161552,0.0380754-0.0258484,0.0567093
		c-0.0540695,0.0302124-0.1034012,0.0699568-0.1421776,0.1233807c-0.0439453,0.0611782-4.5220604,6.1083984-13.7221394,7.1475754
		c-2.1955414,0.2481613-4.0653725,0.9150963-5.5569267,1.9844322c-2.0145912,1.4433022-2.7978516,3.1588936-2.3963127,5.2294922
		c0.006031,0.0385056,0.6393604,3.7649174,3.8717117,4.2091637c-0.8110504,0.2398682-1.4081898,0.982954-1.4081898,1.8708
		c0,0.9211826,0.6410847,1.6911945,1.4988804,1.899826c-0.0521317,0.0641956-0.096508,0.135498-0.1245117,0.2173042
		l-2.2110519,6.4952908c-0.3774128,1.1081085-0.0982304,2.3101425,0.7289753,3.1373482
		c0.5747356,0.5755997,1.3407631,0.8926926,2.1559048,0.8926926c0.8142815,0,1.5794468-0.3170929,2.1550426-0.8926926
		c0.8272076-0.8263435,1.1072502-2.0292397,0.7298374-3.1373482l-2.2119141-6.4952908
		c-0.0342503-0.1015701-0.0954304-0.185421-0.1665173-0.259203c0.7886448-0.25387,1.3651047-0.9861832,1.3651047-1.8579273
		c0-0.9013634-0.6154499-1.6546803-1.4456711-1.8822708c0.5656872-0.0954838,1.1031551-0.3283501,1.5516567-0.68293
		c0.6238518-0.4928761,1.0141888-1.1804905,1.1003551-1.9353161c0.0174503-0.1537552,0.0150795-0.302124,0.0023708-0.4482861
		c0.5129108,0.9452019,1.4144363,1.8974037,2.8514919,2.0277328c0.0861664,0.0077534,0.1731949,0.0112019,0.2593613,0.0112019
		c0.6738281,0,1.3338699-0.2352371,1.8439789-0.6634884c0.5083885-0.4273911,0.8177299-1.0124664,0.8702927-1.6457958
		c0.0913353-1.0926018-0.7867088-1.8103752-1.6578598-2.3687382c-0.2024918-0.1309738-0.4765053-0.0723801-0.6092033,0.1335583
		c-0.1318359,0.2050781-0.0715179,0.4773674,0.1335602,0.6092033c1.1546402,0.7401772,1.2847519,1.183939,1.2545967,1.5527344
		c-0.043087,0.5101109-0.3274384,0.8487473-0.559227,1.0434856c-0.3903389,0.3291588-0.9426689,0.4963245-1.4562263,0.4489326
		c-2.0637074-0.1869831-2.5488281-2.5660629-2.5712318-2.6806641c-0.3093414-1.3752308,0.1568241-2.4488754,1.5096493-3.4811592
		c1.0693378-0.8151417,2.4368114-1.3467941,4.0662365-1.5794468c7.7610855-1.111557,11.3016968-6.2229996,11.4481812-6.4401417
		c0.0049553-0.007432,0.0053864-0.0162106,0.0099106-0.0238037c0.0124931-0.0114174,0.0286522-0.0165329,0.0400696-0.0296202
		C47.2707939,11.15378,47.5,10.1059856,47.5,9.8509302z M25.4174805,29.4398232l0.0853062-0.0899372l-0.0053864,0.1862297
		L25.4174805,29.4398232z M25.4905071,29.7767906l-0.0109863,0.3879681l-0.4155407-0.2093868l0.2401905-0.392168
		L25.4905071,29.7767906z M25.3084793,29.3049164l-0.2040024-0.3259811l0.4146805-0.2064247l-0.0096931,0.3378849
		L25.3084793,29.3049164z M25.1999073,29.4302368l-0.3104172,0.5067711
		c-0.0435143-0.1529999-0.0648403-0.3148327-0.0583782-0.4822674c0.006031-0.1641483,0.0381298-0.3213501,0.0913372-0.4681568
		L25.1999073,29.4302368z M24.8804436,30.2664909c-0.0208969-0.0414696-0.0441608-0.0811596-0.0618248-0.124567
		C24.8360672,30.1851692,24.8595467,30.2250767,24.8804436,30.2664909z M25.4887848,30.3469486l0.1570396,0.531168
		c-0.3257122-0.17659-0.5811996-0.4646568-0.7141113-0.8121815L25.4887848,30.3469486z M26.111557,28.7487621l0.6143742,0.0317192
		l0.1581173,0.1686726l0.2391129,0.2551098l-0.023695,0.4112873l-0.0133572,0.2349663l-0.4394531,0.4031563l-0.5484543-0.0207348
		l-0.4476395-0.5132885l0.0150795-0.526804l0.0004311-0.0135708L26.111557,28.7487621z M25.6796436,28.945816l0.0122795-0.1952229
		l0.1915073-0.0018311L25.6796436,28.945816z M26.2776451,28.5986156l0.1395912-0.124567l0.1408844,0.1389999L26.2776451,28.5986156
		z M26.9603062,28.7990074l0.1706104,0.0140018l-0.0028,0.1650105L26.9603062,28.7990074z M27.073185,30.0773525
		l-0.0002155,0.0036087l-0.0004311,0.0054398l-0.0105553,0.1829433l-0.1818123-0.0069466l-0.0086174-0.0002689L27.073185,30.0773525
		z M26.4717369,30.405489l-0.1238651,0.1070633l-0.1036167-0.1156807L26.4717369,30.405489z M26.024313,30.3886318
		l0.2050781,0.2290974l-0.4396687,0.1889229l-0.1275272-0.4316978L26.024313,30.3886318z M25.6565952,29.9672737
		l0.2242489,0.2573719l-0.003231-0.0001621l-0.2132626-0.008131L25.6565952,29.9672737z M25.8554249,31.109314
		c-0.0521297-0.017395-0.104908-0.0324211-0.1546688-0.0546093C25.7505169,31.0767326,25.8032951,31.0920258,25.8554249,31.109314z
		 M26.3239594,31.0650997c-0.1747036-0.0066242-0.3410053-0.0431385-0.495676-0.1025925l0.5111866-0.2196198l0.4765053,0.2605476
		C26.6600132,31.048996,26.4950027,31.0717239,26.3239594,31.0650997z M26.2061272,31.1848717
		c-0.065918-0.0071621-0.1320515-0.012764-0.195385-0.0272503C26.0740757,31.1718922,26.1402092,31.1778717,26.2061272,31.1848717z
		 M26.4577351,30.6268845l0.246439-0.2125626l0.3181725,0.0120621l-0.1647949,0.4194202L26.4577351,30.6268845z
		 M27.1964035,30.416153l0.5506096-0.1649036c-0.1671638,0.3075104-0.4340687,0.5512009-0.7563343,0.6890144L27.1964035,30.416153z
		 M27.4131145,29.5325069l-0.1589794,0.155262l0.0144348-0.2540855l0.0034466-0.0613937L27.4131145,29.5325069z
		 M27.2849407,29.1469612l0.0170174-0.2944221l0.4226513,0.2131557l-0.1925831,0.362442L27.2849407,29.1469612z
		 M27.5156536,29.6536255l0.1701813,0.4505463l-0.4635811,0.1389999l0.0183105-0.3194122l0.0002155-0.0014534L27.5156536,29.6536255
		z M27.6461964,29.5507088l0.2354527-0.4430065c0.0400677,0.1477222,0.0588093,0.3035774,0.0527782,0.4645481
		c-0.006464,0.1699657-0.0411453,0.3321228-0.0975857,0.4832916L27.6461964,29.5507088z M27.2918339,28.6699181l0.0002155-0.0025311
		l-0.0019379-0.0001621L27.05509,28.1145172c0.3494072,0.1686707,0.624712,0.4639568,0.769043,0.8240814L27.2918339,28.6699181z
		 M27.1072216,28.6416454l-0.3093414-0.0161037l-0.2429924-0.259201l0.3657818-0.1629105L27.1072216,28.6416454z
		 M26.424345,28.2511444l-0.441391-0.2381439c0.1458378-0.03899,0.2998619-0.0573006,0.4586239-0.0513229
		c0.1555328,0.006031,0.3050327,0.0352211,0.4452705,0.0835285L26.424345,28.2511444z M26.2882004,28.3575077l-0.2373905,0.2293663
		l-0.0008621,0.0007553l-0.3095551-0.0082397l0.2227421-0.3971786L26.2882004,28.3575077z M25.5613804,28.5747032
		l-0.5906773,0.2937775c0.1729813-0.3772526,0.4922314-0.6715126,0.8821373-0.813797L25.5613804,28.5747032z M24.8888435,28.7349739
		c0.0344677-0.0666714,0.0687199-0.1331825,0.1115875-0.1943607C24.9575634,28.6015224,24.9233112,28.6684647,24.8888435,28.7349739
		z M24.7725182,29.0229893c0.0206795-0.0679111,0.0400677-0.1360378,0.0685024-0.2001247
		C24.8125858,28.8866825,24.7931976,28.9550781,24.7725182,29.0229893z M24.7378368,29.1348438
		c-0.0144329,0.0634422-0.0196037,0.1302204-0.0267124,0.1962471C24.7182331,29.264904,24.7234039,29.198555,24.7378368,29.1348438z
		 M24.6966915,29.4745045c-0.0015087,0.0613956,0.0062466,0.1205807,0.0114174,0.180521
		c-0.0043087-0.0491695-0.014864-0.096508-0.014864-0.1467533C24.6932449,29.4966927,24.696476,29.4860306,24.6966915,29.4745045z
		 M24.7649784,29.9692135c-0.0140018-0.0494385-0.0305882-0.097477-0.0402832-0.1485844
		C24.7341747,29.8716278,24.7509766,29.9198818,24.7649784,29.9692135z M24.9707031,30.4326324
		c0.0239105,0.0367279,0.0529938,0.0696869,0.0797043,0.1044235C25.0234814,30.5022125,24.9946136,30.4694672,24.9707031,30.4326324
		z M25.1734123,30.6862869c0.0303726,0.0313969,0.0650558,0.0581627,0.0977993,0.0871353
		C25.2384682,30.7443962,25.2040005,30.7177906,25.1734123,30.6862869z M25.540699,30.9676762
		c-0.0409279-0.0237503-0.0827198-0.0449677-0.1214943-0.0720024C25.4577637,30.9225998,25.4999847,30.9439812,25.540699,30.9676762
		z M28.7767124,38.3197365c0.300724,0.884079,0.0775509,1.8422585-0.5816288,2.5023003
		c-0.9185448,0.9168205-2.5212555,0.9168205-3.438076,0c-0.6591797-0.6600418-0.8823528-1.6190834-0.5816288-2.5023003
		l2.2110519-6.4944267c0.0129261-0.0387745,0.0491161-0.0654869,0.0896149-0.0654869
		c0.0396366,0,0.0758266,0.0258503,0.0887527,0.0646248L28.7767124,38.3197365z M26.6705685,31.1736164
		c0.2214489-0.0376987,0.4280357-0.116703,0.6109257-0.2314129c-0.1824589,0.114172-0.3871059,0.1941452-0.6072636,0.2320061
		C26.6729374,31.1738319,26.6716461,31.1739941,26.6705685,31.1736164z M27.5421505,30.741972
		c-0.0721645,0.0674801-0.1484241,0.1301136-0.2313595,0.1842899C27.3937263,30.8720303,27.4704151,30.8096142,27.5421505,30.741972
		z M28.0822029,29.5082722c0,0.4805984-0.2029228,0.912672-0.5251884,1.2213135
		c0.3028774-0.2921619,0.4963226-0.6976318,0.5135574-1.1525421c0.0346813-0.9302826-0.6940784-1.7159672-1.6238232-1.7510796
		l-0.0650558-0.0010242c-0.5501785,0-1.0353012,0.2628651-1.3433475,0.6696281
		c0.3095551-0.4105339,0.7964001-0.6803436,1.3489475-0.6803436C27.3222084,27.8142242,28.0822029,28.5742188,28.0822029,29.5082722
		z M35.3659248,17.0932903c-1.7793541,0.2550545-3.2846985,0.8444386-4.4755287,1.7517815
		c-1.6190834,1.2356377-2.2196693,2.6668758-1.83881,4.3609257c0.0135708,0.0717888,0.0398521,0.157793,0.0603161,0.2377129
		c-0.3145103-0.4312134-0.7936001-0.8624802-1.4786301-1.3311768c-0.198185-0.1352825-0.4739208-0.0861664-0.613512,0.1154652
		c-0.1370049,0.2007694-0.0853043,0.4756432,0.1154652,0.6135101c1.4484711,0.9909248,1.5975418,1.5785847,1.5415325,2.0662918
		c-0.0749664,0.666935-0.4601326,1.0986328-0.7703362,1.3433475c-0.5170021,0.409296-1.2287445,0.6066189-1.8965416,0.5238972
		c-2.6289635-0.318819-3.1528606-3.3562145-3.1761246-3.4992523c-0.3369141-1.7362709,0.311924-3.1209793,2.0404396-4.3600655
		c1.3683376-0.9797211,3.0977135-1.5940933,5.1416016-1.8241596c9.6059303-1.0848465,14.1503906-7.2466688,14.3390961-7.5086174
		c0.0118484-0.0164261,0.0148659-0.0356522,0.024128-0.0530472c0.0538559-0.0299969,0.1031876-0.0695801,0.1421776-0.1227341
		c0.2447128-0.3360529,0.6591797-0.6755514,0.9762726-0.6755514c0.6178207,0,1.1201744,0.5023546,1.1201744,1.1167278
		c-0.006031,0.168026-0.1947365,0.8935547-0.2981377,1.0521021c-0.0124931,0.0150795-0.0168037,0.0334978-0.0271416,0.049654
		c-0.0292969,0.0250425-0.060318,0.0478764-0.0831528,0.0813208C46.1756096,11.081399,42.7246094,16.039465,35.3659248,17.0932903z"
		/>
	<path d="M19.8747711,18.5090179c-0.9736919-0.8737354-2.2041607-1.5174046-3.6560783-1.9129124
		C9.0607767,14.645278,6.2930837,9.2873964,6.2663717,9.2331114C6.2650795,9.2303104,6.2620635,9.2287493,6.2607708,9.2260027
		C5.994945,8.6384497,5.2530446,7.8492646,4.5016661,7.8492646C3.3978631,7.8492646,2.5,8.7471275,2.5,9.8509302
		c0,0.2869377,0.0654871,0.6238518,0.1663029,0.8590879c0.0467458,0.109271,0.1374366,0.1753502,0.2388988,0.2180033
		c0.0277889,0.0238581,0.0527775,0.050354,0.0868134,0.0672102c0.0413604,0.0206804,4.164465,2.1145458,5.7352943,7.626667
		c0.3868914,1.3562717,1.0055723,2.4652443,1.8379478,3.2941742c0.9202671,0.9176826,1.850873,1.3769531,2.7651081,1.3769531
		c0.3343296,0,0.666935-0.0620403,0.9952326-0.1843987c0.2981386-0.0815887,0.6807213-0.2538147,1.0471478-0.5124798
		c-0.1984005,0.3841457-0.2791824,0.8174057-0.2328672,1.3155594c0.1111555,1.18997,1.1365461,2.1834793,2.3842478,2.3101444
		c0.1249428,0.0129261,0.2473011,0.0189571,0.3662109,0.0189571c2.0723248,0,3.2441998-1.8465652,3.5802517-2.8659229
		C22.3219204,21.0604324,20.967371,19.489603,19.8747711,18.5090179z M20.6373501,23.0827789
		c-0.0336056,0.1016769-0.847023,2.481617-3.0236092,2.2618904c-0.8366852-0.0853062-1.5225754-0.7367306-1.5949574-1.5148201
		c-0.0534229-0.5747375,0.060318-1.183939,1.2459793-1.7405796c0.2205887-0.1034012,0.3153725-0.3662109,0.2111111-0.5867996
		c-0.1034012-0.2197266-0.3636265-0.3145103-0.5867996-0.2111092c-0.2460079,0.115572-0.4571171,0.2418594-0.6503487,0.3740196
		c0.2550564-0.4365444,0.4082184-0.9688435,0.3392849-1.6208611c-0.108572-1.0236664-0.9280224-1.8612137-1.9077444-1.9491043
		c-1.0624418-0.0904751-1.5811691,0.7005405-1.9870167,1.5725536c-0.1025391,0.2214508-0.0068941,0.4833984,0.2136946,0.5859375
		c0.2180033,0.1025391,0.4833984,0.0068932,0.5859375-0.2136955c0.4790897-1.0314217,0.7918768-1.0925999,1.1089725-1.0658894
		c0.5669813,0.0508404,1.0443478,0.5506096,1.1089735,1.1632595c0.1688871,1.6018486-1.5363626,2.0998955-1.6457958,2.1317787
		c-0.925436,0.3429451-1.8612127,0.0241261-2.866785-0.9779987c-0.7246666-0.7220821-1.2675209-1.7018051-1.6130514-2.9115925
		c-1.6024961-5.6254311-5.6239228-7.8795671-6.1348948-8.14604c-0.0327437-0.1205797-0.0579476-0.2589865-0.0579476-0.3827982
		c0-0.6169577,0.5023553-1.1193123,1.1193132-1.1193123c0.2757349,0,0.7892923,0.4653034,0.9650736,0.8737364
		C5.4684629,9.6091232,5.471694,9.6113319,5.4734173,9.614994c0.0019388,0.0044155,0.0015082,0.009263,0.0036621,0.0136251
		c0.1171875,0.234375,2.9546757,5.7594204,10.5089617,7.8188181c1.3192205,0.3593178,2.4290552,0.9375,3.2993441,1.7181759
		C20.2633839,20.0427971,21.3008385,21.2792969,20.6373501,23.0827789z"/>
</g>
</svg>
