<?xml version="1.0" encoding="utf-8"?>
<!-- Generator: Adobe Illustrator 18.0.0, SVG Export Plug-In . SVG Version: 6.00 Build 0)  -->
<!DOCTYPE svg PUBLIC "-//W3C//DTD SVG 1.1//EN" "http://www.w3.org/Graphics/SVG/1.1/DTD/svg11.dtd">
<svg version="1.1" id="Layer_1" xmlns="http://www.w3.org/2000/svg" xmlns:xlink="http://www.w3.org/1999/xlink" x="0px" y="0px"
	 width="50px" height="50px" viewBox="0 0 50 50" enable-background="new 0 0 50 50" xml:space="preserve">
<g>
	<path d="M27.0752048,23.7708416h-3.9156723l-1.1539497,1.1542988v3.9156723l1.1539497,1.1536007h3.9156723l1.1539497-1.1536007
		v-3.9156723L27.0752048,23.7708416z M27.4785461,28.3236237v-2.8818607l0.4641304-0.3004971v3.4828548L27.4785461,28.3236237z
		 M27.8945942,24.995842l-0.4808121,0.3113289l-0.7422237-0.7227039l0.3163052-0.4957047L27.8945942,24.995842z
		 M23.4024715,29.7079353l0.2959976-0.463913h2.8375359l0.2960415,0.463913H23.4024715z M22.9041462,25.5377941h0.0000877v0.0000439
		l0.4880619,0.3161297v2.0576687l-0.4880619,0.3160858V25.537838L22.9041462,25.5377941z M26.832222,24.0573196L26.536005,24.52145
		h-2.8375359l-0.2961731-0.4641304H26.832222z M24.0596695,28.4261608l-0.5191994-0.5055733V25.844841l0.5534801-0.5389366
		h2.0465317l0.5534782,0.5389366v2.0757027l-0.5534782,0.5389385h-2.0465317l-0.005022-0.0048046 M26.4414139,29.0958481h-2.6484413
		l0.3114586-0.4880619h2.025568L26.4414139,29.0958481z M23.7929726,24.6696682h2.6484413l-0.3114147,0.4881058h-2.025568
		L23.7929726,24.6696682z M26.2655106,25.2208767l0.3246021-0.5088043l0.6960201,0.6777229l-0.5086746,0.3294926
		L26.2655106,25.2208767z M23.9689655,25.2208767l-0.5119495,0.4984112l-0.5087624-0.3294926l0.696064-0.6777229
		L23.9689655,25.2208767z M23.457016,28.0461845l0.5118618,0.4983234l-0.3245602,0.5088501l-0.6959763-0.6776352
		L23.457016,28.0461845z M26.2655964,28.544508l0.511776-0.4983234l0.5088482,0.3294945l-0.6959763,0.6776791L26.2655964,28.544508z
		 M26.8421783,27.9115047v-2.0576229l0.4881496-0.3161316v2.6898842L26.8421783,27.9115047z M23.56283,24.5844669
		l-0.7421818,0.7227039l-0.4806366-0.3112411l0.9066868-0.906992L23.56283,24.5844669z M22.2920609,25.1414833l0.4637814,0.3003235
		v2.8819027l-0.4637814,0.3003674V25.1414833z M22.3397484,28.7696743l0.4808998-0.3113708l0.7421818,0.7226582l-0.316,0.4954872
		L22.3397484,28.7696743z M26.6715584,29.1809616l0.7422237-0.7226582l0.4811172,0.3115005l-0.9071236,0.9067745
		L26.6715584,29.1809616z"/>
	<path d="M20.9914455,23.6444664l-3.877739-0.5517902l-1.3054333,0.9805031l-0.5517902,3.8777409l0.9802074,1.3050365
		l3.8777409,0.5517902l1.3053341-0.9798126l0.5517902-3.877739L20.9914455,23.6444664z M20.7493095,28.2099819l0.4061069-2.8539429
		l0.5019798-0.2321815l-0.490799,3.4491138L20.7493095,28.2099819z M21.6302738,24.9730663l-0.5200272,0.2405567
		l-0.6331921-0.8202953l0.3830948-0.4463291L21.6302738,24.9730663z M16.5176468,29.0064888l0.3585052-0.4177055
		l2.8100452,0.3998604l0.2278023,0.5011349L16.5176468,29.0064888z M16.6117992,24.8065224l0.0000858,0.0000134l-0.0000057,0.000042
		l0.4387856,0.3818455l-0.2899628,2.0377331l-0.5278778,0.2442493l0.379055-2.6638279L16.6117992,24.8065224z
		 M20.7104473,23.8939285l-0.3587513,0.4178905l-2.8100471-0.3998604l-0.2278996-0.5013695L20.7104473,23.8939285z
		 M17.349102,27.8297443l-0.4429245-0.5738411l0.292511-2.0556374l0.6240654-0.4557228l2.0267048,0.2883949l0.4721718,0.6117115
		l-0.2925034,2.0555954l-0.6240654,0.4557209l-2.0267048-0.288393l-0.0042973-0.0054646 M19.6134052,28.8285751
		l-2.6227856-0.3732147l0.3772182-0.4394436l2.0059452,0.2854404L19.6134052,28.8285751z M17.6143494,24.0720577
		l2.6227856,0.3732147l-0.3771801,0.4394932l-2.0059471-0.2854404L17.6143494,24.0720577z M19.9852581,24.9663544
		l0.393158-0.4581337l0.5937748,0.7692394l-0.5501785,0.2546196L19.9852581,24.9663544z M17.7109604,24.6427288
		l-0.5772247,0.4214401l-0.4574013-0.3979969l0.7848244-0.5730686L17.7109604,24.6427288z M16.8058338,27.3685226
		l0.4366798,0.5656281l-0.3931217,0.4581833l-0.5937424-0.7691479L16.8058338,27.3685226z M19.5169849,28.2577991
		l0.5770397-0.4213772l0.4574871,0.3980083l-0.7847328,0.5730381L19.5169849,28.2577991z M20.1771832,27.7121792
		l0.2899551-2.0376911l0.5279694-0.244278l-0.3790531,2.663826L20.1771832,27.7121792z M17.3984413,23.9552517l-0.836832,0.6111145
		l-0.4321232-0.3759556l1.0257168-0.7704372L17.3984413,23.9552517z M16.0614891,24.3277988l0.4169674,0.3627663
		l-0.4061127,2.8539867l-0.5016146,0.2321014L16.0614891,24.3277988z M15.5974379,27.9275608l0.5201178-0.2405872
		l0.6331558,0.8202457l-0.382761,0.4461555L15.5974379,27.9275608z M19.8293247,28.9452953l0.8368702-0.6110649l0.43256,0.3762817
		l-1.0261173,0.7701607L19.8293247,28.9452953z"/>
	<path d="M14.8843966,22.7064266l-3.799511-0.9513435l-1.4001637,0.8396931l-0.9513445,3.799511l0.8394394,1.3997402
		l3.799511,0.9513435l1.3999929-0.839016l0.9513454-3.799511L14.8843966,22.7064266z M14.1696358,27.2221413l0.7001715-2.7963676
		l0.5233698-0.1788177l-0.8461885,3.3795319L14.1696358,27.2221413z M15.3818541,24.0941658l-0.5421886,0.1852741
		l-0.5446186-0.8815937l0.4273577-0.4041481L15.3818541,24.0941658z M9.8781519,27.5750713l0.3999281-0.3782349l2.7533579,0.6894035
		l0.1745481,0.5220737L9.8781519,27.5750713z M10.4077806,23.407568l0.0000849,0.0000229l-0.0000105,0.000042l0.3967762,0.4253311
		l-0.4999275,1.996624l-0.5503788,0.1881313l0.6535301-2.6100864L10.4077806,23.407568z M14.5790195,22.9253731
		l-0.4001942,0.3783932l-2.7533569-0.6894035l-0.1746225-0.5223179L14.5790195,22.9253731z M10.8272696,26.4909935
		l-0.3809624-0.6167183l0.5043201-2.0141678l0.6679993-0.3884773l1.9858189,0.497221l0.4061213,0.657423l-0.5043087,2.0141258
		l-0.6680002,0.3884773l-1.9858189-0.4972229l-0.003706-0.0058804 M12.9756536,27.7194786l-2.5698738-0.6434593l0.4207973-0.397913
		l1.9654789,0.4921303L12.9756536,27.7194786z M11.4811573,22.7811432l2.5698729,0.6434612l-0.4207649,0.3979645
		l-1.9654789-0.4921284L11.4811573,22.7811432z M13.7464237,23.9167252l0.438591-0.4148464l0.5107145,0.8267212l-0.573637,0.1961327
		L13.7464237,23.9167252z M11.5180073,23.3587608l-0.6178551,0.3592415l-0.4136152-0.443327l0.8400736-0.4885025
		L11.5180073,23.3587608z M10.3348141,25.9758701l0.3756046,0.6079025l-0.4385595,0.4148979l-0.5106936-0.8266258
		L10.3348141,25.9758701z M12.9390039,27.1417789l0.6176643-0.3592014l0.4137001,0.4433479l-0.8399773,0.4884815
		L12.9390039,27.1417789z M13.6522751,26.6676388l0.4999161-1.996582l0.5504742-0.1881523l-0.6535292,2.6100864
		L13.6522751,26.6676388z M11.2785416,22.6425552l-0.89575,0.5209446l-0.3907604-0.4187813l1.1001511-0.6597996
		L11.2785416,22.6425552z M9.91014,22.8743038l0.3770561,0.4040928l-0.700182,2.7964096L9.0640154,26.253582L9.91014,22.8743038z
		 M9.074914,26.4064465l0.542284-0.1852951l0.5445862,0.8815403l-0.4270077,0.4040127L9.074914,26.4064465z M13.1782904,27.8579826
		l0.8957815-0.5208912l0.3911629,0.4191532l-1.1005211,0.659481L13.1782904,27.8579826z"/>
	<path d="M8.8484116,21.1688004l-3.7400899-1.1632137l-1.4451084,0.7597408L2.5,24.5054169l0.75951,1.4446716l3.7400904,1.1632118
		l1.4449005-0.7590714l1.1632128-3.7400913L8.8484116,21.1688004z M7.8811898,25.637249l0.8561025-2.752634l0.5325861-0.1491451
		L8.2352409,26.062149L7.8811898,25.637249z M9.2671528,22.5822849L8.715416,22.7368183l-0.4942513-0.9107857l0.449379-0.3795128
		L9.2671528,22.5822849z M3.5766585,25.7486248l0.4205382-0.3551788l2.7102976,0.8429356l0.1449552,0.5310535L3.5766585,25.7486248z
		 M4.3394866,21.6174412L4.33957,21.6174679l-0.0000129,0.000042l0.3722644,0.4469414L4.1005588,24.02985l-0.560075,0.1569271
		l0.7990735-2.5692673L4.3394866,21.6174412z M8.5312214,21.3702507l-0.4208117,0.3553219L5.4001126,20.882637l-0.1450157-0.5312996
		L8.5312214,21.3702507z M4.5851579,24.7195587L4.239429,24.0824184l0.6166339-1.9826679l0.6887617-0.3503513l1.9547625,0.607954
		l0.3685617,0.6791916l-0.616621,1.9826279L6.5627661,25.369524l-1.9547625-0.6079559l-0.0033698-0.0060806 M6.6611629,26.0667515
		l-2.5296831-0.7867622l0.4424782-0.3736534l1.934741,0.6017284L6.6611629,26.0667515z M5.4463472,21.0522823l2.5296831,0.7867622
		l-0.4424496,0.3737087l-1.934741-0.6017284L5.4463472,21.0522823z M7.644268,22.313282l0.4611959-0.3895607l0.4634819,0.8540955
		l-0.583746,0.1636105L7.644268,22.313282z M5.4507022,21.6310558l-0.637054,0.3239803l-0.3880668-0.4658546l0.8661804-0.4405556
		L5.4507022,21.6310558z M4.1224065,24.1775913l0.3408747,0.6280365l-0.4611673,0.389616l-0.4634664-0.8540001L4.1224065,24.1775913
		z M6.6570134,25.4879055l0.6368613-0.3239498L7.682025,25.629837l-0.8660841,0.4405403L6.6570134,25.4879055z
		 M7.3957849,25.0545673l0.6112494-1.9653568l0.5601721-0.1569424l-0.7990732,2.5692673L7.3957849,25.0545673z
		 M5.2518339,20.9025345l-0.9235907,0.46982l-0.3666267-0.4400654l1.1354671-0.5969753L5.2518339,20.9025345z M3.8725774,21.0570717
		l0.3537691,0.4246292l-0.8561158,2.7526779l-0.532213,0.1491222L3.8725774,21.0570717z M2.8403153,24.5367374l0.5518334-0.1545506
		l0.4942226,0.9107323l-0.4490221,0.3793945L2.8403153,24.5367374z M6.8557019,26.2164173l0.9236197-0.4697666l0.3670073,0.4404583
		L7.01051,26.7837467L6.8557019,26.2164173z"/>
	<path d="M33.1200714,23.2415619l-3.8563194,0.4195156l-1.0127888,1.2604351l0.4195175,3.8563194l1.2600517,1.0124836
		l3.8563213-0.4195175l1.0128632-1.2597466l-0.4195175-3.8563194L33.1200714,23.2415619z M34.0050735,27.6821194
		l-0.308754-2.8381767l0.4249001-0.3456688l0.3731461,3.4300632L34.0050735,27.6821194z M34.0582848,24.3602066
		l-0.4401665,0.3581219l-0.808403-0.6322289l0.2584-0.5220795L34.0582848,24.3602066z M30.1390972,29.482151l0.2418098-0.4885921
		l2.7945232-0.3040085l0.341259,0.4251633L30.1390972,29.482151z M29.2015457,25.4286098l0.0000858-0.0000095l0.0000057,0.000042
		l0.5145321,0.2590504l0.2204552,2.0264778l-0.4468002,0.3635845l-0.288187-2.6491127L29.2015457,25.4286098z
		 M32.9114647,23.5497303l-0.2420006,0.4888306l-2.7945251,0.3040085l-0.3414097-0.4253635L32.9114647,23.5497303z
		 M30.6490059,28.149395l-0.5654945-0.4422836l-0.2223911-2.0442829l0.4873505-0.5900669l2.0155087-0.2192612l0.6028328,0.4714699
		l0.2223854,2.044239l-0.4873505,0.5900688l-2.0155087,0.2192612l-0.0054607-0.0041943 M33.0663986,28.5537567l-2.6082973,0.2837486
		l0.2544479-0.5140324l1.9948673-0.2170162L33.0663986,28.5537567z M29.9838905,24.4784145l2.6082954-0.2837486
		l-0.2543983,0.5140724l-1.9948654,0.2170143L29.9838905,24.4784145z M32.4780045,24.7563667l0.2651711-0.5358696
		l0.7580795,0.5928783l-0.4656639,0.3789978L32.4780045,24.7563667z M30.2162704,25.0024128L29.76548,25.5481205
		l-0.5363522-0.2699928l0.6129036-0.7420254L30.2162704,25.0024128z M30.0147781,27.8397446l0.5574932,0.4359322
		l-0.2651234,0.5359077l-0.758028-0.5927982L30.0147781,27.8397446z M32.8341789,28.0296097l0.4506264-0.5456009l0.536438,0.2699833
		l-0.6128235,0.741972L32.8341789,28.0296097z M33.3342018,27.3444271l-0.2204514-2.0264339l0.4468803-0.3636379
		l0.2881889,2.6491127L33.3342018,27.3444271z M29.748106,24.4191628l-0.6535015,0.7912636l-0.5066967-0.2550278
		l0.7957706-0.9903851L29.748106,24.4191628z M28.5562782,25.1038837l0.4889259,0.2460823l0.3087616,2.8382206l-0.4245701,0.3455009
		L28.5562782,25.1038837z M28.9919605,28.6719704l0.4402504-0.3581753l0.8083553,0.6321907l-0.2581253,0.5218315
		L28.9919605,28.6719704z M33.3021736,28.6129227l0.6535492-0.7912254l0.5071983,0.2552338l-0.7962227,0.9902172
		L33.3021736,28.6129227z"/>
	<path d="M39.1780167,22.2449627l-3.8137856,0.672287l-0.9257393,1.3223877l0.672287,3.8137836l1.3219872,0.9254608
		l3.8137817-0.6722889l0.9258614-1.3217049l-0.672287-3.8137856L39.1780167,22.2449627z M40.3525352,26.6100273
		l-0.4947929-2.8068714l0.4004631-0.372366l0.5979767,3.3922291L40.3525352,26.6100273z M40.1864052,23.2974072
		l-0.4148483,0.3857765L38.9245644,23.10672l0.2229652-0.5371132L40.1864052,23.2974072z M36.6201973,28.6581459
		l0.2086449-0.5026608l2.7637024-0.4871807l0.3679886,0.4010124L36.6201973,28.6581459z M35.4188614,24.6820736l0.0000839-0.0000153
		l0.0000076,0.000042l0.5296402,0.2241096l0.3532829,2.0041256l-0.421093,0.3916588l-0.4618301-2.619894L35.4188614,24.6820736z
		 M38.9905396,22.5657043l-0.2088203,0.5029125l-2.7637024,0.4871807l-0.3681526-0.4012032L38.9905396,22.5657043z
		 M37.0402222,27.2968903l-0.5924911-0.4032764l-0.3563881-2.0217342l0.4465485-0.6199417l1.9932785-0.3513718l0.6316109,0.4298859
		l0.3563805,2.0216923l-0.4465485,0.6199417l-1.9932785,0.3513718l-0.0057182-0.0038166 M39.4749756,27.540226l-2.5795288,0.4547157
		l0.2195587-0.5288372l1.9728622-0.3477726L39.4749756,27.540226z M36.1355095,23.6839333l2.5795288-0.4547157l-0.2195091,0.5288715
		l-1.9728622,0.3477726L36.1355095,23.6839333z M38.6383476,23.7962856l0.2287979-0.5512981l0.7942696,0.5405884
		l-0.4388657,0.4082546L38.6383476,23.7962856z M36.4015617,24.1905823l-0.4130554,0.5733395l-0.5520973-0.2335701
		l0.5615959-0.7795963L36.4015617,24.1905823z M36.3880119,27.0302715l0.5841026,0.3974743l-0.2287483,0.5513325
		l-0.7942123-0.5405102L36.3880119,27.0302715z M39.2090721,27.0334187l0.412899-0.573225l0.5521812,0.2335548l-0.5615158,0.7795391
		L39.2090721,27.0334187z M39.6619682,26.3178921l-0.3532753-2.0040836l0.4211693-0.391716l0.4618301,2.619894
		L39.6619682,26.3178921z M35.8967247,23.6404629l-0.5987854,0.8313236l-0.5215683-0.2206192l0.7273712-1.0390644
		L35.8967247,23.6404629z M34.7546577,24.401165l0.5032768,0.2128811l0.4948006,2.8069153l-0.4001427,0.3721771
		L34.7546577,24.401165z M35.4240341,27.9267597l0.4149284-0.3858356l0.8469429,0.5764294l-0.2227058,0.5368481
		L35.4240341,27.9267597z M39.7137451,27.5836124l0.598835-0.8312893l0.5220795,0.2207928l-0.7278328,1.0389252
		L39.7137451,27.5836124z"/>
	<path d="M45.1192245,20.769062l-3.7448578,0.9863892l-0.8128319,1.3946323l0.9863853,3.7448578l1.3942108,0.8125877
		l3.7448578-0.9863873L47.5,25.3271751l-0.9863892-3.7448578L45.1192245,20.769062z M46.6518517,25.0216312l-0.7259636-2.7561436
		l0.368187-0.4043064l0.8773575,3.3309212L46.6518517,25.0216312z M46.2114563,21.7342148L45.8300438,22.15308l-0.8918991-0.5042038
		l0.1776352-0.5537586L46.2114563,21.7342148z M43.1023064,27.3723488l0.1662254-0.5182381l2.7137527-0.7147961l0.3999901,0.3690987
		L43.1023064,27.3723488z M41.5752296,23.5096569l0.0000839-0.0000229l0.0000114,0.000042l0.5464058,0.1793938l0.5183449,1.967905
		l-0.387146,0.4252453L41.575325,23.509676L41.5752296,23.5096569z M44.9590073,21.1042538l-0.166378,0.5185013l-2.7137527,0.714798
		l-0.4001694-0.3692741L44.9590073,21.1042538z M43.4079475,25.980938l-0.623909-0.3527279l-0.5228958-1.9851952
		l0.3935738-0.6548538l1.9572525-0.5155373l0.6651001,0.3760014l0.5228844,1.9851551l-0.3935699,0.6548519l-1.9572563,0.5155373
		l-0.006012-0.0033283 M45.8544922,26.021431l-2.5329056,0.6671638l0.1749229-0.545229l1.9372063-0.5102577L45.8544922,26.021431z
		 M42.2065964,22.4554996l2.5329056-0.6671638l-0.1748695,0.5452595l-1.9372063,0.5102577L42.2065964,22.4554996z
		 M44.710125,22.3598118l0.1822739-0.5683804l0.83638,0.472826l-0.4034805,0.4432583L44.710125,22.3598118z M42.5137634,22.9383278
		l-0.3640633,0.6056347l-0.5695686-0.1869602l0.494976-0.8235016L42.5137634,22.9383278z M42.7358665,25.7693501
		l0.6150627,0.3476448l-0.1822166,0.568409l-0.836319-0.4727516L42.7358665,25.7693501z M45.5474586,25.5384331l0.3639183-0.6055069
		l0.5696526,0.1869373l-0.4949036,0.8234386L45.5474586,25.5384331z M45.9394302,24.787796l-0.5183334-1.9678631
		l0.3872185-0.4253082l0.6776047,2.5725441L45.9394302,24.787796z M41.9650307,22.4319897l-0.5277519,0.8781376
		l-0.5380745-0.1765862l0.6386566-1.095829L41.9650307,22.4319897z M40.8900146,23.2848244l0.5191994,0.1703911l0.725975,2.7561855
		l-0.3678856,0.4040928L40.8900146,23.2848244z M41.8495903,26.7427273l0.381485-0.4189301l0.8918457,0.5041733
		l-0.1773987,0.5534744L41.8495903,26.7427273z M46.0960388,26.044857l0.5278015-0.8781071l0.5386009,0.1767159
		l-0.6391296,1.0957298L46.0960388,26.044857z"/>
</g>
</svg>
