<?xml version="1.0" encoding="utf-8"?>
<!-- Generator: Adobe Illustrator 18.0.0, SVG Export Plug-In . SVG Version: 6.00 Build 0)  -->
<!DOCTYPE svg PUBLIC "-//W3C//DTD SVG 1.1//EN" "http://www.w3.org/Graphics/SVG/1.1/DTD/svg11.dtd">
<svg version="1.1" id="Layer_1" xmlns="http://www.w3.org/2000/svg" xmlns:xlink="http://www.w3.org/1999/xlink" x="0px" y="0px"
	 width="50px" height="50px" viewBox="0 0 50 50" enable-background="new 0 0 50 50" xml:space="preserve">
<path stroke="#000000" stroke-width="0.1" stroke-miterlimit="10" d="M46.9096489,26.5716724l0.5836258-0.5797234L47.5,24.0186806
	l-0.5794563-0.5834923l-0.6787415-0.0022869c-0.014801-0.1929283-0.0312157-0.3850479-0.0492439-0.5760918l0.6570854-0.1135502
	l0.4741096-0.672287l-0.3359413-1.9444771l-0.6720161-0.473978l-0.6651535,0.1148968
	c-0.047226-0.1875458-0.0974083-0.3742847-0.1494751-0.5591412l0.6246605-0.2248116l0.3500671-0.7445335l-0.6683846-1.8566246
	l-0.7441292-0.3500671l-0.6355553,0.2289829c-0.0792427-0.1767826-0.1603699-0.3512783-0.2444572-0.5245638l0.5767632-0.3302908
	l0.2155304-0.7939091l-0.9806442-1.7123995l-0.7937775-0.215395l-0.5883331,0.3368835
	c-0.1091118-0.1592932-0.2196999-0.3172407-0.3317719-0.4735746l0.5128593-0.4272919l0.0744019-0.819068L41.605217,9.785367
	l-0.8189316-0.0742645l-0.5241623,0.4367104c-0.0926933-0.0936384-0.1945419-0.1937351-0.2965202-0.2914095l-0.116375-0.1116667
	l0.4379196-0.5182409l-0.068882-0.8196049l-1.5073624-1.2738061l-0.8193359,0.0690184l-0.4383278,0.5187783
	c-0.1563339-0.1131463-0.3142815-0.224544-0.4726295-0.3332505l0.3354034-0.5760918l-0.2104187-0.7952542l-1.7054024-0.9926214
	L34.605072,5.2339468l-0.3492622,0.6000395l0.0086098-0.0180283c-0.1727448-0.0822029-0.3476448-0.1641364-0.5232162-0.2435136
	l0.2292519-0.6231804l-0.345089-0.7466855l-1.8520508-0.6813006l-0.7464161,0.3449554L30.793745,4.4997725
	c-0.1852589-0.0524697-0.3722668-0.1023831-0.5590057-0.1493368l0.1175861-0.6542585l-0.4695377-0.6753807l-1.9421902-0.3495297
	l-0.6751118,0.4695377l-0.1200085,0.6673083c-0.1918507-0.0185661-0.3837013-0.0352488-0.5760918-0.0489717l0.0022869-0.668654
	l-0.5797234-0.5836258l-1.9734039-0.0069959l-0.5833569,0.5795896l-0.0024223,0.679955
	c-0.1926575,0.0133193-0.3839703,0.0294638-0.5750141,0.0481646l0.0013447,0.0126467l-0.1158371-0.6698647l-0.672287-0.4739776
	l-1.9446106,0.3358068l-0.4738445,0.672152l0.1148968,0.6650214c-0.1880836,0.0474916-0.3748226,0.0961943-0.5594101,0.1489334
	L18.983326,3.874171l-0.7442646-0.3502023l-1.8567581,0.668654l-0.3499336,0.7439952l0.228714,0.6352882
	c-0.1759758,0.0793772-0.3507395,0.1614456-0.5238905,0.245532L15.40623,5.2398663l-0.7937746-0.2155299l-1.7123995,0.980782
	l-0.2155294,0.7935052l0.3793974,0.6623306l-0.0478954-0.0703635c-0.1582174,0.1070924-0.3133392,0.2174134-0.4676542,0.3285418
	l-0.4275618-0.5131278l-0.8193369-0.0743995l-1.515974,1.2631769L9.7111025,9.21385l0.4360371,0.5230837
	c-0.1383047,0.1344032-0.2749958,0.2690754-0.4099369,0.4073811L9.2266312,9.7127161L8.4068909,9.7818689l-1.2736712,1.5070944
	l0.0688834,0.8196058l0.51824,0.4377871c-0.112608,0.1561985-0.2230639,0.3142805-0.3317704,0.4735737L6.8116736,12.684123
	l-0.7953887,0.2101479l-0.9926214,1.7056732l0.2101483,0.7949848l0.5908909,0.3437443l-0.0683451,0.1374979
	c-0.0618873,0.1228333-0.1206808,0.2406883-0.184855,0.3823566L4.949264,16.0295448l-0.746551,0.3452244L3.5211434,18.22682
	l0.3452244,0.7464161l0.6490111,0.2388039c-0.0248895,0.0875854-0.0480299,0.1566029-0.0688834,0.222393
	c-0.0317507,0.0991535-0.0622907,0.1931953-0.0970016,0.3306942L3.6961772,19.647541l-0.6753807,0.4696712l-0.349395,1.9421902
	l0.469403,0.6752472l0.667712,0.1200066c-0.0188353,0.1915836-0.035249,0.3837032-0.0493753,0.5760918l-0.6687884-0.0024204
	l-0.5834913,0.5797234L2.5,25.9813194l0.5795896,0.5834923l0.6783407,0.0022869
	c0.0137229,0.1930618,0.0309436,0.3849125,0.0503173,0.5760918l-0.6578908,0.1135502l-0.474112,0.672287l0.336076,1.9444771
	l0.6718826,0.473978l0.6654251-0.1148968c0.0476265,0.1874123,0.0967326,0.3738823,0.1490679,0.5591412L3.874171,31.0165386
	l-0.3500679,0.7445335l0.668385,1.8566265l0.7442641,0.3500671l0.6350193-0.228714
	c0.0788393,0.1758385,0.1605039,0.3504715,0.2445898,0.5244255l-0.5763607,0.3301582l-0.2155299,0.7939072l0.9806476,1.7124023
	l0.7936397,0.2153931l0.5882001-0.3368835c0.1084375,0.1590271,0.2191625,0.3172417,0.3316364,0.4737091l-0.5125899,0.4271584
	L7.1316051,38.698391l1.2633114,1.516243l0.818799,0.0742645l0.5225449-0.4350967
	c0.1339998,0.1377678,0.2706909,0.274456,0.4084578,0.4084587l-0.4318666,0.5112419l0.0688829,0.8196068l1.5073633,1.2738075
	l0.8193369-0.0690193l0.4379215-0.5181046c0.1555252,0.1127396,0.3138771,0.2231979,0.4731693,0.3323059l-0.3354025,0.5763626
	l0.2102823,0.7952538l1.7055387,0.9926224l0.7949848-0.2102852l0.3399773-0.5841637
	c0.1736889,0.0838165,0.3476458,0.1672325,0.523757,0.2463417l-0.2289848,0.6225052l0.3450909,0.746685l1.8519154,0.6813011
	l0.7465515-0.3449554l0.2328854-0.6331367c0.1856613,0.0524712,0.3718624,0.1023865,0.5591393,0.150013l-0.1175861,0.6531792
	l0.4695377,0.6753807l1.9421902,0.3495293l0.6751118-0.4695358l0.1202774-0.6675758
	c0.1913128,0.0195045,0.3835678,0.0355148,0.5758228,0.0495071l-0.0022869,0.6683846l0.5797234,0.5836258l1.9734039,0.0069962
	l0.5833569-0.5795898L26.567234,46.24086c0.1927929-0.013588,0.3847771-0.030407,0.5759563-0.0487022l0.1136837,0.657486
	l0.6721535,0.4739761l1.9446106-0.3358078l0.4738445-0.6721497l-0.1148968-0.6648865
	c0.1872768-0.04776,0.3741512-0.0974045,0.5591412-0.1498756l0.224947,0.6249275l0.7442646,0.3502045l1.85676-0.6686554
	l0.3499298-0.7439957l-0.2284431-0.6350174c0.1750336-0.0791092,0.3487206-0.1595612,0.522007-0.2432442l-0.0174904-0.0360565
	l0.3500671,0.6110687l0.7937737,0.2155304l1.7124023-0.9807816l0.2155304-0.7935028l-0.3368835-0.5881996
	c0.1598282-0.1084404,0.3169708-0.2195663,0.4733047-0.3323097l0.4272919,0.5131264l0.8193359,0.0744019l1.5159721-1.2631798
	l0.0745354-0.8190651l-0.4350967-0.5222778c0.1377678-0.1337318,0.274189-0.2706909,0.4084587-0.4084587l0.5111084,0.4318695
	l0.8197403-0.0691528l1.273674-1.5070953l-0.0690193-0.8196068l-0.517971-0.4377861
	c0.112339-0.1563339,0.2233315-0.3142815,0.3312302-0.4737091l0.5773048,0.3359413l0.7952538-0.2101479l0.9926224-1.7056732
	l-0.2101479-0.7949829l-0.7088814-0.4126282l0.1338654,0.064846c0.0772247-0.1586189,0.1614456-0.3481827,0.2367859-0.5160866
	l0.6229095,0.2292519l0.7465515-0.3452225l0.6814346-1.8520527l-0.345089-0.7464161l-0.6329994-0.2328854
	c0.0519295-0.1852589,0.1022491-0.3719978,0.1501427-0.5590057l0.6529121,0.1175861l0.6753807-0.4696712l0.3493958-1.9421902
	l-0.4692688-0.6752472l-0.6677094-0.1200066c0.0192375-0.1915836,0.0353813-0.3837032,0.0493736-0.5760918L46.9096489,26.5716724z
	 M45.0592117,26.4208565l0.1501427-0.2334232l1.4300079,0.0051117l0.1483917,0.2343655L45.0592117,26.4208565z
	 M47.0413589,25.6815701l-0.2453957-0.1601009l0.0036316-1.0370178l0.2464752-0.1584873L47.0413589,25.6815701z
	 M45.0896187,25.5833569l0.2572365,0.2521248l-0.1644058,0.2558899l-0.3496666-0.342802L45.0896187,25.5833569z
	 M44.8108559,25.6739006l0.0045738-1.3556042l0.2455292,0.1602345l-0.0036316,1.0368843L44.8108559,25.6739006z
	 M45.1319962,25.5202579l0.0036316-1.046032l0.2798424-0.2706909l1.0313683,0.0034981l0.0026894,0.0024223l0.0145302,0.0145302
	l0.2608681,0.255621l-0.0036316,1.0461674l-0.2798386,0.2706909l-1.0313683-0.0036316L45.1319962,25.5202579z
	 M45.4149284,25.8675003l1.0208778,0.0034981l0.1560631,0.2466087l-1.3346176-0.0047092L45.4149284,25.8675003z
	 M46.5041504,25.8395176l0.2589836-0.2502403l0.2557564,0.1668262l-0.3519478,0.3403816L46.5041504,25.8395176z
	 M46.76717,24.4165096l-0.2570992-0.2519913l0.1644058-0.2558899l0.3496628,0.3426685L46.76717,24.4165096z M46.4419937,24.1323643
	l-1.020874-0.0036316l-0.1560631-0.2464752l1.3346138,0.0045757L46.4419937,24.1323643z M45.3526382,24.1604824
	l-0.2587166,0.2502403l-0.2558899-0.1669617l0.3519516-0.3402462L45.3526382,24.1604824z M44.7738571,24.2019215
	l-0.2420349-0.1579475l0.4587746-0.4552784l0.1584854,0.2502422L44.7738571,24.2019215z M44.7408943,24.2697277
	l-0.0049782,1.4522038l-0.2345009,0.1506824l0.0061913-1.7551823L44.7408943,24.2697277z M44.7683411,25.7900066l0.3726692,0.365406
	l-0.160099,0.2494335l-0.4555473-0.4587746L44.7683411,25.7900066z M46.8663254,26.4113045L46.70784,26.1609287l0.3753624-0.3628502
	l0.2416306,0.1576786L46.8663254,26.4113045z M47.3491821,25.8824348l-0.2331543-0.1521626l0.0051117-1.4524727l0.2340965-0.1504135
	L47.3491821,25.8824348z M47.3315582,24.0539284l-0.2429771,0.156065l-0.3726692-0.3655396l0.160099-0.2491646
	L47.3315582,24.0539284z M46.6475677,23.8124332l-1.4300041-0.0049782l-0.1483955-0.2343655l1.7284088,0.0060539
	L46.6475677,23.8124332z M45.001091,22.9160061l0.1073608-0.2558918l1.409153-0.2433777l0.1870079,0.2050362L45.001091,22.9160061z
	 M44.8420677,22.0246925l-0.2152596,0.1988468l-0.2307358-1.3358269l0.2694817,0.1151638L44.8420677,22.0246925z
	 M44.738472,20.9856548l0.2285805-0.3150883l1.0164337-0.1757069l0.0028267,0.0020199l0.0169525,0.0117035l0.3012314,0.2065163
	l0.1781273,1.0308304l-0.228714,0.3152218l-1.0163002,0.1754379l-0.3210068-0.2201042L44.738472,20.9856548z M44.8857918,22.085907
	l0.2969246,0.2036915l-0.1174507,0.2805099l-0.4037476-0.2768784L44.8857918,22.085907z M45.2555008,22.3092403l1.0059433-0.1736889
	l0.1965599,0.2156639l-1.3152428,0.2271004L45.2555008,22.3092403z M46.3233299,22.0926342l0.2114944-0.291544l0.2809143,0.1200085
	l-0.2876396,0.3962135L46.3233299,22.0926342z M46.5554085,21.7287083l-0.1765137-1.0218163l0.2152596-0.1988468
	l0.2307358,1.3356934L46.5554085,21.7287083z M46.3351707,20.6455441l-0.2969246-0.2035561l0.1174507-0.2805119l0.4038811,0.2767448
	L46.3351707,20.6455441z M45.9654579,20.4222107l-1.0059395,0.1738224l-0.1965599-0.2157993l1.3152428-0.2271004
	L45.9654579,20.4222107z M44.8976326,20.6390858l-0.2113609,0.291275l-0.2809143-0.119875l0.2873726-0.396347L44.8976326,20.6390858
	z M44.3348579,20.7803497l-0.2657127-0.1134148l0.3728065-0.5281963l0.1993866,0.2190285L44.3348579,20.7803497z
	 M44.3141403,20.8527317l0.2472801,1.4312153l-0.2047653,0.1890259l-0.2986755-1.72962L44.3141403,20.8527317z
	 M44.6051445,22.3452969l0.4306564,0.2951756l-0.114624,0.2733822l-0.5280647-0.3726711L44.6051445,22.3452969z
	 M46.7791443,22.5927124l-0.1995201-0.218895l0.3066139-0.422718l0.2653084,0.1134167L46.7791443,22.5927124z
	 M47.1628494,21.9880981l-0.2560272-0.1093788l-0.2471466-1.4312153l0.2044983-0.1888924L47.1628494,21.9880981z
	 M46.8279839,20.1904011l-0.2121658,0.1958866l-0.4305229-0.295311l0.114357-0.2731113L46.8279839,20.1904011z
	 M46.1125107,20.0713348l-1.409153,0.2435131l-0.1868706-0.2050343l1.7032509-0.2941017L46.1125107,20.0713348z
	 M44.3353958,19.4745235l0.0613518-0.270689l1.3453789-0.4843369l0.2196999,0.1695175L44.3353958,19.4745235z
	 M45.4945755,18.4340076l0.1576805-0.323698l0.2973289,0.0692863l-0.2141838,0.4402084L45.4945755,18.4340076z
	 M45.6720314,18.6652775l-1.2557755,0.4521828l0.0643082-0.2846813l0.9604645-0.3457642L45.6720314,18.6652775z
	 M45.65979,18.0352364l-0.3511467-0.9756699l0.1773224-0.2331543l0.4593124,1.2755566L45.65979,18.0352364z M45.2548294,17.0068283
	l-0.3277359-0.148798l0.0670013-0.2967911l0.4457245,0.2026138L45.2548294,17.0068283z M45.2368011,17.0806904l0.3543739,0.9842796
	l-0.1704597,0.3499336l-0.9704208,0.3495293l-0.3543739-0.1611767l-0.3543739-0.9841461l0.1703262-0.3500671l0.9705544-0.3493958
	l0.0030975,0.0013466l0.0186996,0.0086098L45.2368011,17.0806904z M44.0240746,18.6243782l-0.1775894,0.2331543
	l-0.4591789-1.2754192l0.2853584,0.0664616L44.0240746,18.6243782z M44.8520241,16.8510342l-0.9604683,0.3458958
	l-0.2310028-0.1782627l1.2557793-0.4521809L44.8520241,16.8510342z M43.8381462,17.2500725l-0.1576805,0.3237l-0.297596-0.0694218
	l0.2144508-0.4402084L43.8381462,17.2500725z M43.3083344,17.4869938l-0.2813187-0.0655193l0.2753983-0.5849705l0.2345009,0.1810875
	L43.3083344,17.4869938z M43.3005295,17.5619316l0.4921417,1.3665028l-0.1688461,0.2217197l-0.5945244-1.6514549
	L43.3005295,17.5619316z M43.8462181,18.9811745l0.4754562,0.2159328l-0.0653839,0.2889881l-0.5848389-0.2752647
	L43.8462181,18.9811745z M43.8927689,18.9202271l0.1848526-0.2431087l0.3280029,0.1489334l-0.067131,0.2966557
	L43.8927689,18.9202271z M46.0303078,18.8474426l-0.2346344-0.180954l0.2285805-0.4695377l0.2810478,0.0656548
	L46.0303078,18.8474426z M46.3031502,18.1853809l-0.2712288-0.0632324l-0.4918709-1.3666363l0.1685753-0.2214508
	L46.3031502,18.1853809z M45.0761642,16.1979866l0.5849686,0.2751293l-0.1748962,0.2296562l-0.4751892-0.2159328
	L45.0761642,16.1979866z M44.9359741,16.4801121l-1.3455124,0.4844723l-0.2197037-0.1695194l1.626297-0.5855083
	L44.9359741,16.4801121z M43.0823097,16.2009468l0.0131836-0.2771492l1.2409821-0.7107639l0.2456627,0.1287527
	L43.0823097,16.2009468z M44.1419334,14.6287346l0.30513,0.0166826l-0.1346741,0.4706144l-0.2694778-0.1411304
	L44.1419334,14.6287346z M44.1365509,14.5536623l-0.5152817-0.8999243l0.1342697-0.2604656l0.6737671,1.1762657
	L44.1365509,14.5536623z M44.2579041,15.1718645l-1.1581039,0.6634073l0.0138588-0.2914095l0.8859329-0.5074778
	L44.2579041,15.1718645z M44.6424141,15.2890472l-0.262352-0.1374979l0.1434174-0.5020952l0.2881813,0.0158749
	L44.6424141,15.2890472z M44.7961884,14.5895844l-0.2780876-0.0152025l-0.7217979-1.2603521l0.1276779-0.2474155
	L44.7961884,14.5895844z M43.2428131,12.8455687l0.6238556,0.1692486l-0.1323891,0.2566986l-0.5055923-0.1302328
	L43.2428131,12.8455687z M43.2250557,13.2175655l0.4739761,0.1220264l-0.1399193,0.2714977l-0.348587-0.0897369
	L43.2250557,13.2175655z M43.1805229,13.5906401l0.0199127,0.0052471l0.3536987,0.0910816l0.519989,0.9077282l-0.10709,0.3744192
	l-0.8949471,0.5125895l-0.3771095-0.0971365l-0.519989-0.9078617l0.10709-0.3742847l0.8950806-0.5125904L43.1805229,13.5906401z
	 M42.2061996,14.0966368l-0.0990219,0.3461666l-0.30513-0.0166826l0.1346703-0.4706144L42.2061996,14.0966368z
	 M41.9912071,13.899539l1.1581039-0.6632719l-0.0139923,0.2914085l-0.8857994,0.5073433L41.9912071,13.899539z
	 M42.1125603,14.5178757l0.5152817,0.8997898l-0.1342697,0.2606001l-0.6737671-1.1764002L42.1125603,14.5178757z
	 M41.7256279,14.4218159l-0.2884483-0.0156069l0.1695175-0.6237183l0.2624855,0.1374979L41.7256279,14.4218159z
	 M41.7310104,14.4970226l0.7217979,1.2603512l-0.1276779,0.2476845l-0.872345-1.5232391L41.7310104,14.4970226z
	 M42.5148277,15.8000231l0.5055962,0.1300983l-0.0141258,0.2961168l-0.6238556-0.169651L42.5148277,15.8000231z
	 M42.549942,15.7319469l0.1399193-0.2714977l0.3488579,0.0896015L43.024189,15.853838L42.549942,15.7319469z M43.153614,13.1477404
	l-1.2409782,0.7106304l-0.2456665-0.1286192l1.4998322-0.859025L43.153614,13.1477404z M41.2795029,13.1945601l-0.0349808-0.2752647
	l1.0986366-0.9153967l0.2645035,0.0842209L41.2795029,13.1945601z M39.652935,11.751236l0.9296608,1.1158581l-0.0826073,0.2661161
	l-1.123661-1.348609L39.652935,11.751236z M39.347805,11.7127581l0.0586586-0.6436291l0.2823944,0.0898714l-0.0542183,0.5193167
	L39.347805,11.7127581z M42.0318375,11.389329l-0.6638107-0.7967339l0.0870476-0.2798395l0.8677673,1.0414591L42.0318375,11.389329z
	 M42.3535194,11.4256544l-0.0508575,0.4870272l-0.2899284-0.0922928l0.0375366-0.35814L42.3535194,11.4256544z
	 M41.2996826,10.5613823l-0.3589478-0.0278492l-0.0386124-0.3017693l0.488102,0.03794L41.2996826,10.5613823z
	 M40.9196129,10.6068563l0.0034981,0.0002689l0.0205841,0.0016146l0.3640594,0.0282526l0.6697311,0.8035955l-0.0404968,0.3873348
	l-0.7922935,0.6600437l-0.388279-0.0300026l-0.6695938-0.80373l0.0404968-0.3872004L40.9196129,10.6068563z M41.1620483,12.8630581
	l-0.488102-0.0379391l0.0906792-0.2916784l0.3590813,0.0278492L41.1620483,12.8630581z M40.6961441,12.5022278l-0.0870476,0.2798386
	l-0.8677673-1.0413237l0.2910042-0.0352497L40.6961441,12.5022278z M40.0140381,11.6325741l-0.3033829,0.0365944
	l0.0508537-0.4870281l0.2899284,0.0922928L40.0140381,11.6325741z M40.651207,12.8983068l0.5205307,0.0403614l0.0373993,0.2941008
	l-0.6437645-0.0587931L40.651207,12.8983068z M41.1963577,12.5420504l0.7843552-0.653451l0.2780914,0.0883913l-1.0254478,0.8545856
	L41.1963577,12.5420504z M42.6577072,12.0256939l-0.2822609-0.0898714l0.0540848-0.5193167l0.2865677-0.0344419
	L42.6577072,12.0256939z M42.6877098,11.3102207l-0.276474,0.0333652l-0.929657-1.1158581l0.0826035-0.2658472
	L42.6877098,11.3102207z M41.4987984,9.9207125l-0.0858345,0.2758026l-0.5203934-0.0403614l-0.0375366-0.2938309
	L41.4987984,9.9207125z M40.8678131,10.5527716l-0.7843552,0.653451l-0.2779541-0.0885258l1.0254478-0.8544512
	L40.8678131,10.5527716z M40.8196487,10.1755276l-1.0986366,0.9153957l-0.2642326-0.0842199l1.3278923-1.1064405
	L40.8196487,10.1755276z M38.9822655,10.547121l-0.0823364-0.2650394l0.9230652-1.0921793l0.2749939,0.0368633L38.9822655,10.547121
	z M37.1298103,9.4081221l1.1092682,0.9374609l-0.0352516,0.2763414l-1.3406715-1.1328096L37.1298103,9.4081221z
	 M36.822525,9.4231911l-0.0539474-0.6441679l0.2936974,0.0395536l0.0367279,0.5207968L36.822525,9.4231911z M39.4460182,9.1390467
	l0.289257,0.0390158l-0.8615837,1.0193949L38.7870522,9.918829L39.4460182,9.1390467z M39.4403687,8.7071791l0.2923508-0.0885258
	l0.0345764,0.4883728l-0.3016357-0.0406303L39.4403687,8.7071791z M38.808979,10.2409124l-0.4872971,0.047492l0.0386124-0.3029795
	l0.3584099-0.0349798L38.808979,10.2409124z M38.7266426,9.8747005l-0.3874702,0.0376701l-0.7990189-0.6751118l-0.0274467-0.3884106
	l0.6656952-0.7877207L38.1819,8.0605898l0.0204468-0.0018835l0.3635216-0.0353832l0.7991562,0.6752462l0.0273132,0.3882761
	L38.7266426,9.8747005z M38.5446129,7.9502687l-0.358139,0.0349798l-0.0904121-0.2904673l0.4872971-0.047492L38.5446129,7.9502687z
	 M38.1178589,8.0168648l-0.6588326,0.7796478l-0.2891235-0.0387468l0.8614464-1.0195289L38.1178589,8.0168648z
	 M37.4392471,8.8694324l0.0252953,0.3589478l-0.2922173,0.0887947l-0.0344429-0.4883728L37.4392471,8.8694324z
	 M37.2148399,9.3822908l0.2806473-0.0850277l0.7918892,0.6691923l-0.0369987,0.2908707L37.2148399,9.3822908z M38.3119965,10.364419
	l0.5195847-0.0505867l0.0878563,0.2829332l-0.6440353,0.0539503L38.3119965,10.364419z M40.136467,9.1565361l-0.2935638-0.0394192
	l-0.0368614-0.5207968l0.276207-0.083683L40.136467,9.1565361z M38.7012138,7.3139043l1.340538,1.1328101l-0.2663841,0.0808573
	L38.665966,7.5901108L38.7012138,7.3139043z M39.6900711,8.5535374l-0.2803802,0.0850277l-0.79216-0.6694608l0.0371323-0.2906022
	L39.6900711,8.5535374z M38.6296425,7.2848439l-0.0365944,0.2864313l-0.5195885,0.0507207l-0.087986-0.2827988L38.6296425,7.2848439
	z M37.9227791,7.3887072l0.0823364,0.2649055l-0.9230652,1.0923142l-0.2748604-0.0369987L37.9227791,7.3887072z
	 M36.2601585,8.3386803l-0.12714-0.2466087l0.7193756-1.236135l0.2771492-0.011301L36.2601585,8.3386803z M36.6643105,6.3091741
	l0.11866,0.4749193L36.479187,6.7964711l-0.0874519-0.3492608L36.6643105,6.3091741z M36.3494911,6.3847847l-0.8961563-0.5214691
	l-0.0139923-0.2927547l1.1716919,0.6818385l0,0l0,0l0,0L36.3494911,6.3847847z M36.7638664,6.8597035l-0.6713448,1.1535287
	l-0.133728-0.2593889l0.5133972-0.8823004L36.7638664,6.8597035z M36.0362854,8.067317l-0.4716873,0.1313086l-0.0145302-0.3051319
	l0.3468361-0.0965981L36.0362854,8.067317z M36.0712662,8.1351242l0.1356163,0.2634249l-0.6247978,0.1649437L35.5683632,8.275178
	L36.0712662,8.1351242z M37.1553726,6.7688909l-0.2959824,0.0121083l-0.1267357-0.5065355l0.2575073-0.1305022L37.1553726,6.7688909
	z M36.9387665,6.0862451l-0.2483559,0.125793l-1.2552414-0.7305417l-0.0131836-0.27809L36.9387665,6.0862451z M35.4117622,5.9254718
	l0.9042282,0.5263128l0.0944443,0.3776484l-0.5187759,0.8914485l-0.3750916,0.1044016l-0.9040947-0.5261784l-0.0944481-0.3777823
	l0.5187798-0.8913145l0.0033646-0.0009418l0.0199089-0.0056505L35.4117622,5.9254718z M34.449276,6.9544187l0.0873146,0.3492603
	l-0.272438,0.1380363l-0.1189308-0.4749193L34.449276,6.9544187z M34.1645927,6.8911858l0.6713448-1.1535287l0.1335983,0.2593889
	l-0.5135345,0.8823004L34.1645927,6.8911858z M34.5788345,7.3659701l0.8961601,0.5216041l0.0139923,0.2927542l-1.1715584-0.681838
	L34.5788345,7.3659701z M34.1958084,7.4764261l-0.2577782,0.1305017l-0.1649437-0.6250634l0.2959862-0.0121088L34.1958084,7.4764261
	z M34.2380524,7.5385823l1.2552376,0.7306762l0.0131874,0.2783594l-1.5170517-0.8829732L34.2380524,7.5385823z
	 M35.3782616,5.8573956l-0.3467064,0.0965981l-0.1393814-0.270421l0.4715576-0.131309L35.3782616,5.8573956z M35.3463745,5.1872621
	l0.0137253,0.2883148l-0.502903,0.1401887L34.721447,5.3524747L35.3463745,5.1872621z M34.6683044,5.412344l0.1270027,0.2464738
	l-0.7192383,1.2360005l-0.2771492,0.0114355L34.6683044,5.412344z M33.195919,6.6365051l-0.1680374-0.2207766l0.4937553-1.3421512
	l0.2710953-0.0593314L33.195919,6.6365051z M33.1437187,5.0797663l-0.1466446-0.3288112l0.2443199-0.1833754l0.1995201,0.4472046
	L33.1437187,5.0797663z M33.4351273,5.0924125l-0.4609261,1.2526836L32.797554,6.1128836l0.3524895-0.9580455L33.4351273,5.0924125z
	 M33.1792374,4.5210299h-0.0001335L32.944603,4.6968708l-0.9732475-0.35814l-0.064579-0.2857585l1.2723274,0.4680576
	l0.0001335-0.0001345V4.5210299z M31.9414883,4.4073453l0.9817219,0.3610997l0.1586227,0.3557186L32.7255745,6.09203
	l-0.3511429,0.1680379l-0.9817238-0.3612347L31.234087,5.5433841l0.356123-0.9681354l0.0030937-0.0014801l0.0185661-0.0088797
	L31.9414883,4.4073453z M32.4088745,6.6145754l-1.272192-0.4681921l0.234499-0.1758413l0.973114,0.358006L32.4088745,6.6145754z
	 M31.5717773,4.5013871l-0.1841831-0.242034l0.4416885-0.2112246l0.0672703,0.2978673L31.5717773,4.5013871z M31.5182323,4.5545297
	L31.165741,5.5124402l-0.2849503,0.0624256l0.4607925-1.2525487L31.5182323,4.5545297z M31.1721992,5.587647l0.146513,0.3288107
	L31.0742569,6.099833l-0.1993866-0.4472041L31.1721992,5.587647z M31.013176,6.1457105l-0.2311363,0.1734195l-0.2709599-0.5868545
	l0.289257-0.0633674L31.013176,6.1457105z M31.0655117,6.1997948l1.3630047,0.5014234l0.061348,0.2719011l-1.6472836-0.6060934
	L31.0655117,6.1997948z M32.4866371,6.6194191l-0.0672684-0.2980018l0.3247719-0.1553917l0.184185,0.242034L32.4866371,6.6194191z
	 M32.974472,6.4687362l0.1794739,0.23598l-0.5868568,0.2709594l-0.0635033-0.2815881L32.974472,6.4687362z M33.8048401,4.9351377
	l-0.2893906,0.0633674L33.302742,4.5217023l0.2308693-0.1732845L33.8048401,4.9351377z M33.4730682,4.3005219L33.2502747,4.467618
	L31.88727,3.9660606l-0.0613499-0.2716322L33.4730682,4.3005219z M31.7488289,3.6916029l0.0635033,0.2817225l-0.4708843,0.2252166
	L31.161974,3.9628317L31.7488289,3.6916029z M31.1199989,4.0310426l0.1679039,0.2207766l-0.4937553,1.3420167l-0.2709599,0.0593314
	L31.1199989,4.0310426z M29.8825188,5.4922595l-0.2036915-0.1883531l0.2532005-1.407402l0.2565651-0.1054778L29.8825188,5.4922595z
	 M27.9088459,5.1090956l-0.2088032,0.2230639l-0.2739182-0.405767l0.2813187-0.1155682L27.9088459,5.1090956z M27.7608547,4.7563367
	l0.1825676-1.015089l0.0028248-0.0020182l0.0166836-0.0121083l0.29706-0.212301l1.0297527,0.1851244l0.2178173,0.3226218
	l-0.1825676,1.015224l-0.3167019,0.2264276L27.978672,5.078959L27.7608547,4.7563367z M27.9699268,5.153224l1.0206051,0.1837788
	l0.1132813,0.2701521l-1.3342133-0.2400155L27.9699268,5.153224z M29.0630474,5.3168221l0.2928886-0.2094755l0.2234688,0.2065158
	l-0.3983669,0.2846823L29.0630474,5.3168221z M29.3993931,5.0458627l0.1806831-1.0047297l0.2698841-0.1109941l-0.236248,1.3137634
	L29.3993931,5.0458627z M29.5609722,3.9682131l-0.2015381-0.2984052l0.2088032-0.2229295l0.2740536,0.4057665L29.5609722,3.9682131z
	 M29.2983551,3.6256795L28.27775,3.4421697l-0.1132813-0.2704215l1.3343468,0.2400157L29.2983551,3.6256795z M28.2052326,3.4622157
	L27.912344,3.6716914l-0.2233334-0.2063813l0.3982334-0.284817L28.2052326,3.4622157z M27.8688889,3.7331753l-0.180685,1.0047297
	l-0.2698841,0.1109939l0.2362499-1.3137636L27.8688889,3.7331753z M27.647707,5.3879929l-0.1973667,0.2108207l-0.3689022-0.5308867
	l0.2740536-0.112474L27.647707,5.3879929z M27.7086544,5.4322557l1.4295998,0.257102l0.1076298,0.2569675l-1.727602-0.3107829
	L27.7086544,5.4322557z M29.2106361,5.6693115l0.4248714-0.3037868L29.853054,5.566659l-0.5307522,0.3687687L29.2106361,5.6693115z
	 M30.1868439,3.7109766l-0.2739201,0.1126082L29.620573,3.3910451l0.1973667-0.2106864L30.1868439,3.7109766z M29.7498646,3.1434953
	l-0.190237,0.2034214L28.1301613,3.08968l-0.1076298-0.2569675L29.7498646,3.1434953z M27.9459782,2.8434756l0.1116676,0.2663851
	l-0.4247379,0.3035178l-0.2175465-0.2009997L27.9459782,2.8434756z M27.3857632,3.2869127l0.2036896,0.1880841l-0.2532005,1.4075367
	l-0.2564297,0.1054778L27.3857632,3.2869127z M24.4107227,4.9062119l-0.1669617,0.2558913l-0.3403797-0.3519511l0.2571011-0.1627913
	L24.4107227,4.9062119z M24.2035351,4.5843973l0.0036316-1.0313685l0.0024223-0.0024216l0.0143967-0.0147991l0.2557564-0.2607348
	l1.046032,0.0037673l0.2706909,0.279839l-0.0036316,1.0313683l-0.2725754,0.2779555l-1.0461674-0.0036325L24.2035351,4.5843973z
	 M24.4783955,4.9390392l1.0370197,0.0036325L25.6739006,5.18928l-1.3556042-0.0047088L24.4783955,4.9390392z M25.5834904,4.9102483
	l0.2519913-0.257102l0.2557564,0.1645398l-0.3426685,0.3495297L25.5834904,4.9102483z M25.8675003,4.5849352l0.0036335-1.0207396
	l0.2464733-0.1561987l-0.0045738,1.3348858L25.8675003,4.5849352z M25.8395176,3.4957156l-0.2503757-0.2588511l0.1670971-0.2557566
	l0.3402462,0.3519514L25.8395176,3.4957156z M25.5214691,3.2040374l-1.0370178-0.0034981l-0.1583519-0.2466083l1.3556042,0.004709
	L25.5214691,3.2040374z M24.4165096,3.2328284l-0.2519913,0.2571023l-0.2558899-0.1645401l0.3426685-0.3495297L24.4165096,3.2328284
	z M24.1323643,3.5581412l-0.0034981,1.0208745l-0.2464733,0.156064l0.0045738-1.3347516L24.1323643,3.5581412z
	 M24.2019215,5.2261434l-0.157814,0.2418995l-0.4554119-0.4586401l0.2503757-0.1586204L24.2019215,5.2261434z M24.2695923,5.2591052
	l1.4524727,0.0049777l0.1506824,0.2344999l-1.7553158-0.0060544L24.2695923,5.2591052z M25.7900066,5.2317939l0.3655396-0.3729391
	l0.2491646,0.1603694l-0.4586391,0.4552765L25.7900066,5.2317939z M26.1875668,4.7907786l0.0048428-1.4301391l0.2345009-0.1483953
	l-0.0060539,1.728544L26.1875668,4.7907786z M26.4111691,3.1338086l-0.2502403,0.1584857l-0.3629837-0.375361l0.1578121-0.2416303
	L26.4111691,3.1338086z M25.8824348,2.6508172l-0.1521626,0.2332888L24.277935,2.8789935l-0.1506824-0.2343652L25.8824348,2.6508172
	z M24.0537949,2.668576l0.1560631,0.2428412l-0.3654041,0.3728046l-0.2491646-0.1601002L24.0537949,2.668576z M23.5791435,3.2024229
	l0.2332897,0.1500099l-0.0049782,1.4300046l-0.23423,0.1483951L23.5791435,3.2024229z M22.9161415,4.9987741l-0.2558918-0.1072268
	l-0.2435131-1.4091508l0.2050362-0.1868732L22.9161415,4.9987741z M20.9303608,5.3138623l-0.1200085,0.2809153l-0.39608-0.2875075
	l0.224678-0.2049017L20.9303608,5.3138623z M20.4949951,4.0166469l0.0018845-0.0029597l0.0117035-0.016952l0.2065163-0.3012304
	l1.0308304-0.1779938l0.3150883,0.22858l0.1757069,1.0163002l-0.2202396,0.3211422l-1.0308304,0.1781282L20.670433,5.0329471
	L20.4949951,4.0166469z M21.0028763,5.3344464l1.0218163-0.1765137l0.1988468,0.2152605l-1.3358269,0.2307329L21.0028763,5.3344464z
	 M22.0860424,5.1142077l0.2035561-0.29706l0.2805099,0.1175866l-0.2768784,0.403883L22.0860424,5.1142077z M22.3093739,4.7444973
	l-0.1738224-1.0059404l0.2156639-0.1965601l0.2272358,1.3152435L22.3093739,4.7444973z M22.0924988,3.6768038l-0.2914085-0.2114937
	l0.1200085-0.2809153l0.396349,0.2873731L22.0924988,3.6768038z M21.7287083,3.4445913l-1.0219498,0.1765139l-0.1988468-0.215261
	l1.3359623-0.2307324L21.7287083,3.4445913z M20.6455441,3.66483L20.441988,3.9617553l-0.2805119-0.1175861l0.2767448-0.403614
	L20.6455441,3.66483z M20.4222107,4.0345402l0.1736889,1.0059409l-0.2155304,0.1964254L20.1531334,3.921663L20.4222107,4.0345402z
	 M20.7803497,5.6652756L20.666935,5.9308534l-0.5281963-0.3726702l0.2190285-0.1996546L20.7803497,5.6652756z M20.8528671,5.6857252
	l1.4310799-0.2471461l0.1890259,0.2046323l-1.72962,0.298943L20.8528671,5.6857252z M22.3451614,5.3948541l0.295311-0.4305215
	l0.2732468,0.1144919L22.54105,5.6068859L22.3451614,5.3948541z M22.5927124,3.2209892l-0.218895,0.1993852l-0.4225826-0.3064775
	l0.1132813-0.2654433L22.5927124,3.2209892z M21.9880981,2.8370178L21.8788528,3.093178l-1.4312153,0.2472808l-0.1890259-0.2044978
	L21.9880981,2.8370178z M20.1904011,3.1720173l0.1958866,0.2121663l-0.2951756,0.4306562l-0.2731113-0.1144919L20.1904011,3.1720173
	z M20.0714703,3.8874903l0.2433777,1.4091511l-0.2049007,0.1868734l-0.2943687-1.7031167L20.0714703,3.8874903z
	 M19.4745235,5.6646028L19.203968,5.6033878l-0.4844704-1.3455143l0.1695175-0.2197008L19.4745235,5.6646028z M18.6771183,5.9222431
	l0.1489334-0.3277345l0.2966557,0.0669999l-0.2024803,0.445859L18.6771183,5.9222431z M18.8576679,6.1535139l-1.2755547,0.459178
	l0.066597-0.2854896l0.975668-0.3511443L18.8576679,6.1535139z M18.8329124,5.5194364l-0.3457623-0.9604669l0.1781273-0.2310019
	l0.4521828,1.2557778L18.8329124,5.5194364z M18.4340076,4.505558l-0.3238335-0.1576786l0.0694218-0.2975979l0.4402084,0.2144532
	L18.4340076,4.505558z M18.4150372,4.5792847l0.3493958,0.9704227l-0.1610413,0.3545074l-0.9842815,0.354373L17.269043,6.0881286
	l-0.3493958-0.9704227l0.0014801-0.0032291l0.0084763-0.0187006l0.1510868-0.3324432l0.9842796-0.354373L18.4150372,4.5792847z
	 M18.0353718,4.340076l-0.9756699,0.3514132l-0.2332897-0.1775899l1.2755566-0.4590435L18.0353718,4.340076z M17.0069637,4.7450356
	l-0.1489334,0.3278689l-0.2966576-0.0669999l0.2023449-0.4457245L17.0069637,4.7450356z M16.8511677,5.1479769l0.3457623,0.9604669
	l-0.1782627,0.2310014l-0.4521809-1.2559118L16.8511677,5.1479769z M17.4869938,6.6916656l-0.0656528,0.2813191
	l-0.5847034-0.2752647l0.180954-0.2346344L17.4869938,6.6916656z M17.0642757,6.402813l0.1857967-0.2408233l0.3237,0.1575441
	l-0.0692883,0.2974634L17.0642757,6.402813z M17.5619316,6.6993346l1.3665028-0.4918709l0.2217197,0.1687107l-1.6514549,0.5946579
	L17.5619316,6.6993346z M18.9811745,6.1536484l0.2160664-0.4751883l0.2889881,0.0652509l-0.2752647,0.584837L18.9811745,6.1536484z
	 M18.2624722,3.6946974l0.5849705,0.2751303l-0.1810875,0.2344995l-0.4692688-0.2285798L18.2624722,3.6946974z
	 M18.1853809,3.6968501l-0.0632324,0.2710941L16.7556458,4.460084l-0.2217178-0.1687107L18.1853809,3.6968501z
	 M16.4731159,4.3388653l0.2297916,0.1747651l-0.2160683,0.4754572l-0.2888527-0.0653853L16.4731159,4.3388653z
	 M16.4801121,5.0641599l0.4844723,1.3453798l-0.169384,0.2195659l-0.5855103-1.6261606L16.4801121,5.0641599z M16.2009468,6.9178243
	l-0.2771492-0.0133195L15.2130337,5.663661l0.1288872-0.2459354L16.2009468,6.9178243z M15.5501852,6.9614143l0.3037872,0.0145302
	l-0.1221609,0.474112l-0.2714968-0.1399198L15.5501852,6.9614143z M15.5437279,6.8863425L15.03652,6.0005441l0.1353445-0.2585821
	l0.6634073,1.1583724L15.5437279,6.8863425z M15.6782656,7.5064278l-1.1764002,0.6737661l0.0160103-0.2926197l0.8999243-0.5154152
	L15.6782656,7.5064278z M15.7573738,7.5471931l0.2476845,0.127811l-1.5231047,0.872344l0.015069-0.278224L15.7573738,7.5471931z
	 M15.8000231,7.4851708l0.1300983-0.5055938l0.2959833,0.0141268l-0.1695175,0.6237178L15.8000231,7.4851708z M14.665329,5.1883383
	l0.6237183,0.1693835l-0.1374979,0.2623487l-0.5019608-0.1435518L14.665329,5.1883383z M14.6454172,5.5530705l0.4707489,0.1345382
	l-0.1412649,0.2694798L14.6287346,5.857934L14.6454172,5.5530705z M14.9689817,6.0331025l0.5125895,0.8949466l-0.097002,0.3769755
	l-0.9077272,0.5198545l-0.3742847-0.1069574l-0.5125904-0.8950815l0.0008078-0.0033631l0.0051126-0.0199118l0.0910816-0.3537006
	l0.9077282-0.5198545L14.9689817,6.0331025z M13.6110897,6.4407525L13.5213528,6.789475l-0.3037872-0.0145302l0.1220264-0.474112
	L13.6110897,6.4407525z M13.3932724,6.244596l1.1764002-0.6737661l0,0l0,0l0,0l-0.0161448,0.2926202L13.653738,6.3788648
	L13.3932724,6.244596z M13.5276756,6.8645473l0.5073433,0.8859324L13.899539,8.0089273l-0.6634073-1.1583719L13.5276756,6.8645473z
	 M13.9199886,8.1308184l0.5019617,0.1436872L14.406209,8.5629549L13.7823563,8.393302L13.9199886,8.1308184z M13.9553719,8.0632811
	l0.1412649-0.2693453l0.3460321,0.09902l-0.0165482,0.3049974L13.9553719,8.0632811z M14.5895844,5.2038102l-0.0150681,0.2779555
	l-1.2603521,0.721931l-0.24755-0.127542L14.5895844,5.2038102z M13.0149517,6.1334677l0.2565641,0.1322508l-0.1300983,0.5055938
	l-0.2959833-0.0141263L13.0149517,6.1334677z M13.1477404,6.846519l0.7107649,1.2408442l-0.1287537,0.2456665L12.8707266,6.8332
	L13.1477404,6.846519z M13.1946945,8.7203646l-0.2752647,0.0351143l-0.9153967-1.0986376l0.0842209-0.2643671L13.1946945,8.7203646z
	 M10.5527716,9.1323195l0.653451,0.7842226l-0.0885258,0.2780895L10.263381,9.1691828L10.5527716,9.1323195z M10.2318983,9.0978775
	l0.0378056-0.4881039l0.2916784,0.0906792l-0.0278492,0.3589468L10.2318983,9.0978775z M12.5420504,8.8035088l-0.653451-0.7842216
	l0.0885258-0.2780905l0.8543167,1.0254488L12.5420504,8.8035088z M12.8630581,8.8379507l-0.0378046,0.4881039l-0.2916784-0.0906792
	l0.0277147-0.3589468L12.8630581,8.8379507z M11.8205233,7.9871321l-0.35814-0.0374017L11.4257889,7.646482l0.4870272,0.0508552
	L11.8205233,7.9871321z M11.440588,8.0226498l0.3872004,0.0403614l0.6603127,0.792429l-0.0301371,0.3881426l-0.80373,0.6695957
	L11.2670336,9.872817l-0.6601772-0.792429L10.6069908,9.07689l0.0016146-0.0204496l0.0282526-0.3641949L11.440588,8.0226498z
	 M11.669034,10.2893467l-0.4867592-0.0508556l0.0922937-0.2897949l0.3578711,0.0374012L11.669034,10.2893467z M11.1590004,10.311142
	l0.5191813,0.0543528l0.0347109,0.2867002l-0.6437635-0.0587931L11.1590004,10.311142z M11.7056274,9.9676657l0.7967348-0.6636753
	l0.2798386,0.0869112l-1.0415926,0.8677702L11.7056274,9.9676657z M12.8672285,9.4172707l0.2659817,0.0828762l-1.3484735,1.1235266
	l-0.0333662-0.2766104L12.8672285,9.4172707z M12.8984413,9.3489256l0.0403614-0.5206623l0.2938318-0.0374012l-0.0586586,0.64363
	L12.8984413,9.3489256z M12.0258284,7.3424263l-0.0900059,0.2822604l-0.5191822-0.0543532l-0.0345764-0.2864313
	L12.0258284,7.3424263z M11.389329,7.9681625l-0.7967339,0.6638107l-0.2798395-0.0870466l1.0414591-0.8677702L11.389329,7.9681625z
	 M11.3102207,7.3122897l0.0333652,0.2764754l-1.1158581,0.9297924L9.9617462,8.4358168L11.3102207,7.3122897z M9.9208469,8.5013361
	l0.2756681,0.0855665l-0.0403614,0.5206623L9.8623228,9.1449661L9.9208469,8.5013361z M10.1753931,9.1803493l0.9153957,1.0986376
	l-0.083951,0.2643671l-0.4733047-0.5680189c0.0005379-0.0005388,0.0010757-0.0010767,0.0016146-0.0016146l-0.0223341-0.0231409
	l-0.6124163-0.735116L10.1753931,9.1803493z M9.2269001,9.9021463l1.3202209,1.1155891l-0.2650394,0.0823364l-1.0923147-0.9229298
	L9.2269001,9.9021463z M8.6384306,10.5904427l-0.6691918,0.7920246l-0.2907367-0.0369978l0.8749008-1.0355387v-0.0001345
	l0.0001345,0.0001345H8.5534029L8.6384306,10.5904427z M9.9665899,11.7124891l0.2906017,0.0371323l-0.8749008,1.0354052
	l-0.0851622-0.2803774L9.9665899,11.7124891z M9.9504452,11.2812948l0.2904673-0.0902748l0.047492,0.4872971L9.985425,11.6397047
	L9.9504452,11.2812948z M9.3171749,12.8278093l-0.4883728,0.0344419L8.869298,12.560751l0.3592167-0.0254269L9.3171749,12.8278093z
	 M9.2372589,12.4599829l-0.3884106,0.0273104L8.0609932,11.8216l-0.0002689-0.0034981l-0.002018-0.0205841l-0.0353832-0.3633871
	l0.6752462-0.7990217l0.3884106-0.0274458l0.7877207,0.6656942l0.0378046,0.3874693L9.2372589,12.4599829z M9.0665302,10.5342054
	l-0.3592157,0.0254278l-0.0887957-0.2923508l0.4883728-0.0344419L9.0665302,10.5342054z M7.9504032,11.4552526l0.0348454,0.3584089
	l-0.2904673,0.0902758l-0.0473576-0.4871626L7.9504032,11.4552526z M8.0168648,11.8820076l0.7797823,0.658967l-0.0390158,0.2892561
	l-1.0193944-0.8615808L8.0168648,11.8820076z M8.8185768,12.9378614l0.5207968-0.0368633l0.083952,0.2764759l-0.6441679,0.0539494
	L8.8185768,12.9378614z M9.4081221,12.8703232l0.9374609-1.1093998l0.2764759,0.0352488l-1.1330786,1.3408051L9.4081221,12.8703232z
	 M10.364419,11.6880035l-0.0507212-0.5195856l0.2830677-0.0879879l0.0540848,0.6441679L10.364419,11.6880035z M10.1974573,11.126442
	L9.918829,11.2129498l-0.7796478-0.6588326l0.0387468-0.289257L10.1974573,11.126442z M9.1566706,9.8636684l-0.0395536,0.2935619
	l-0.5207968,0.0367289l-0.0838175-0.276207L9.1566706,9.8636684z M8.4468489,9.9582481l0.0807228,0.2665195L7.5901108,11.334034
	l-0.2762065-0.0352488L8.4468489,9.9582481z M7.2849784,11.3703594l0.2862968,0.0365944l0.0505862,0.5195856l-0.2827988,0.0878534
	L7.2849784,11.3703594z M7.6536126,11.995019l1.0923142,0.9229307L8.7089281,13.192811l-1.3200865-1.1155891L7.6536126,11.995019z
	 M8.3386803,13.7399769l-0.2467432,0.1270037l-1.2358656-0.7192402L6.84477,12.8703232L8.3386803,13.7399769z M8.0671825,13.9637136
	l0.131443,0.4715557L7.8936281,14.449934l-0.0967326-0.3469734L8.0671825,13.9637136z M7.7538433,14.0412073l-0.8823004-0.5135317
	l-0.0119739-0.2914085l1.1536632,0.6713438L7.7538433,14.0412073z M8.1804628,14.511014l-0.6819725,1.1716919l-0.1325202-0.2615423
	l0.5216041-0.8962917L8.1804628,14.511014z M7.4417152,15.7359829l-0.4749193,0.1186619l-0.0125117-0.3037863l0.3492603-0.08745
	L7.4417152,15.7359829z M7.4762912,15.804328l0.1306367,0.2575064l-0.624929,0.1650772l-0.0121083-0.2959833L7.4762912,15.804328z
	 M7.5387173,15.7620831l0.7305412-1.2552395l0.2783594-0.013319l-0.8829732,1.5170498L7.5387173,15.7620831z M8.275178,14.4317713
	l-0.1401882-0.502903l0.2635593-0.1358833l0.1649437,0.6250639L8.275178,14.4317713z M6.829433,13.5895634l0.8914485,0.5187788
	l0.1044016,0.3750916l-0.5261784,0.9040956l-0.3776479,0.0944452l-0.891449-0.5187778l-0.0009418-0.0033636L6.02355,14.9400558
	l-0.0979438-0.3519516l0.5260439-0.9040947L6.829433,13.5895634z M6.2525339,13.389102l0.1323853,0.2612724l-0.5217385,0.8962927
	l-0.2926197,0.0139914L6.2525339,13.389102z M5.8572612,14.6217394l0.0967326,0.346839l-0.2702866,0.1393805l-0.1314435-0.4716902
	L5.8572612,14.6217394z M5.9969115,15.0304651l0.8823004,0.5133972l0.0119739,0.2916784L5.7375221,15.164196L5.9969115,15.0304651z
	 M6.7966056,13.5209494l-0.3493953,0.0871801l-0.1380363-0.272439l0.4750538-0.1187973L6.7966056,13.5209494z M6.7688909,12.8447609
	l0.0121083,0.2959833l-0.5064011,0.1266003l-0.1305017-0.2573709L6.7688909,12.8447609z M6.0862451,13.0610981l0.1259274,0.2484922
	l-0.7305412,1.255374l-0.2782249,0.0131845L6.0862451,13.0610981z M5.1872621,14.6536245l0.2884493-0.0137234l0.1400542,0.502903
	L5.3524747,15.278553L5.1872621,14.6536245z M5.6589522,15.2046919l1.2358661,0.7193747l0.011301,0.2771492L5.412344,15.3316956
	L5.6589522,15.2046919z M6.6365051,16.8042145l-0.2209115,0.1679039L5.0735774,16.478363L5.014246,16.2074032L6.6365051,16.8042145z
	 M4.6968708,17.0552616L4.3388653,18.028511l-0.285893,0.0645771l0.4680576-1.272192L4.6968708,17.0552616z M4.5675797,16.7584705
	l0.4472046-0.1993847l0.0649819,0.2971954l-0.3289456,0.1466465L4.5675797,16.7584705z M4.3459959,18.1035824l0.1553912,0.3247738
	l-0.242034,0.1840496l-0.211359-0.441555L4.3459959,18.1035824z M4.5543952,18.4817677l0.9581795,0.3524914l0.0624256,0.2850857
	l-1.2528176-0.460928L4.5543952,18.4817677z M5.5432496,18.765913L4.5753832,18.40979l-0.0016146-0.0032272l-0.0088797-0.018568
	l-0.1575437-0.3293476l0.3612342-0.9818592l0.3554497-0.1584854l0.9681354,0.3559875l0.1679034,0.3512783l-0.3611002,0.9817238
	L5.5432496,18.765913z M6.3214173,17.5807686l-0.1553917-0.3247757l0.242034-0.1843166l0.2112246,0.4416885L6.3214173,17.5807686z
	 M6.6144409,17.590992l-0.4679232,1.2723255l-0.1759758-0.234499l0.3581405-0.9732475L6.6144409,17.590992z M6.1128836,17.202446
	l-0.9580455-0.3524895l-0.0622907-0.2849503l1.2525487,0.4607925L6.1128836,17.202446z M5.9164577,18.6812878l0.1832409,0.2443218
	l-0.4469352,0.1993847l-0.0651164-0.29706L5.9164577,18.6812878z M6.1457105,18.9869595l0.1734195,0.2311363l-0.5868545,0.2709579
	l-0.0633674-0.2895241L6.1457105,18.9869595z M6.1997948,18.9344883l0.5015578-1.3630047l0.2717667-0.0614834l-0.6060934,1.647419
	L6.1997948,18.9344883z M6.6940875,17.4965477l-0.2252164-0.4710178l0.2357101-0.1793404l0.2710943,0.5868549L6.6940875,17.4965477z
	 M4.9351377,16.1952953l0.0632329,0.289257l-0.4768028,0.2127037l-0.1730156-0.2308674L4.9351377,16.1952953z M4.3003874,16.5269318
	l0.1670961,0.2226601L3.9660606,18.11273l-0.2716322,0.0613499L4.3003874,16.5269318z M3.6917377,18.2513046l0.2815878-0.0636368
	l0.2253511,0.4710178L3.9629662,18.838026L3.6917377,18.2513046z M4.2516847,18.7119637l1.3421512,0.4938889l0.0593314,0.2708244
	l-1.6221247-0.5966759L4.2516847,18.7119637z M5.492394,20.1174812l-0.1883531,0.203825l-1.4075365-0.2532005l-0.1054778-0.2566986
	L5.492394,20.1174812z M3.4118986,20.501318L3.4118986,20.501318L3.4118986,20.501318l0.2139153,0.2003269L3.442035,21.72225
	l-0.2701521,0.1132813L3.4118986,20.501318L3.4118986,20.501318z M5.3368683,21.0094681l0.2704215-0.1131458l-0.240016,1.3340778
	l-0.2139153-0.2003269L5.3368683,21.0094681z M5.078959,22.021328l-0.3226223,0.2179527l-1.015089-0.182703l-0.0020182-0.0026913
	l-0.0119739-0.0168171l-0.2124355-0.2971935l0.1852589-1.0294857l0.3226223-0.2179508l1.015089,0.182703l0.2264276,0.3167019
	L5.078959,22.021328z M5.3168221,20.9369526l-0.2094755-0.2928886l0.2063813-0.2234688l0.2848167,0.3982334L5.3168221,20.9369526z
	 M5.0457282,20.6006069l-1.0045953-0.1806831l-0.1109941-0.2700176l1.3136289,0.236517L5.0457282,20.6006069z M3.9683478,20.4391613
	l-0.2984054,0.2015381l-0.2230639-0.2088032l0.4057665-0.2741871L3.9683478,20.4391613z M3.4622157,21.7947674l0.2093413,0.2928886
	l-0.2063813,0.2234669l-0.2846825-0.3982315L3.4622157,21.7947674z M3.7331753,22.1311111l1.0047297,0.1808205l0.1108594,0.2698822
	l-1.3136292-0.2363834L3.7331753,22.1311111z M4.8108244,22.2925568L5.10923,22.0910187l0.2229295,0.2089386l-0.405632,0.2740536
	L4.8108244,22.2925568z M5.3879929,22.352293l0.2109551,0.1975002l-0.5308867,0.3687687l-0.1127429-0.2740536L5.3879929,22.352293z
	 M5.4321213,22.2912121l0.2572365-1.4293308l0.2569675-0.1076317l-0.3107829,1.7274685L5.4321213,22.2912121z M5.6691771,20.7892303
	l-0.3035178-0.4246025L5.566659,20.146946l0.3689032,0.5308857L5.6691771,20.7892303z M3.7111111,19.8132915l0.1124737,0.2739182
	L3.3909106,20.379427l-0.210552-0.1972332L3.7111111,19.8132915z M3.1436298,20.2500019l0.2031524,0.190506L3.08968,21.8698387
	l-0.2568328,0.1076298L3.1436298,20.2500019z M2.8434756,22.0538864l0.2662506-0.1113968l0.3037868,0.4246025l-0.2009997,0.2175465
	L2.8434756,22.0538864z M3.4751315,22.4104118l1.407402,0.2532005l0.1053429,0.2566986l-1.7010982-0.3062077L3.4751315,22.4104118z
	 M4.9407883,23.5791435l-0.1501446,0.2334232L3.360774,23.8074551l-0.1485298-0.2343655L4.9407883,23.5791435z
	 M4.9103827,24.4166431l-0.2572365-0.2521248l0.1645398-0.2558899l0.3496642,0.342802L4.9103827,24.4166431z M5.18928,24.3260994
	l-0.0047088,1.3556042l-0.2453976-0.1602345l0.0034981-1.0368843L5.18928,24.3260994z M4.8680034,24.4797421l-0.0036325,1.046032
	l-0.279839,0.2706909l-1.0313683-0.0034981l-0.0025563-0.0024223l-0.0146646-0.0145302l-0.2607346-0.255621l0.0034978-1.0461674
	l0.2799737-0.2706909l1.0313683,0.0036316L4.8680034,24.4797421z M4.5850697,24.1324997l-1.020874-0.0034981l-0.1560643-0.2466087
	l1.3346169,0.0047092L4.5850697,24.1324997z M3.4958503,24.1604824L3.236999,24.4107227L2.981108,24.2438965l0.3519514-0.3403816
	L3.4958503,24.1604824z M3.2041719,24.4785309l-0.003767,1.0370178L2.9539311,25.674036l0.004709-1.3556061L3.2041719,24.4785309z
	 M3.2328284,25.5834904l0.2571023,0.2519913L3.325525,26.0913715L2.9759955,25.748703L3.2328284,25.5834904z M3.5581412,25.8676357
	l1.02074,0.0036316l0.1561985,0.2464752l-1.3347516-0.0045757L3.5581412,25.8676357z M4.6474953,25.8395176l0.2587166-0.2502403
	l0.2558913,0.1669617l-0.3519511,0.3402462L4.6474953,25.8395176z M5.2262778,25.7980785l0.2418995,0.1579475l-0.4587746,0.4552784
	l-0.1584859-0.2502422L5.2262778,25.7980785z M5.2591052,25.7302723l0.0051126-1.4522038l0.234365-0.1506824L5.492394,25.8825684
	L5.2591052,25.7302723z M5.2316594,24.2099934l-0.3726702-0.365406l0.1602349-0.2494335l0.455411,0.4587746L5.2316594,24.2099934z
	 M3.1338086,23.5886955l0.1583512,0.2503757l-0.3752265,0.3628502l-0.2417648-0.1576786L3.1338086,23.5886955z
	 M2.6508172,24.1175652l0.2331543,0.1521626l-0.0049779,1.4524727L2.644763,25.8726139L2.6508172,24.1175652z M2.6684415,25.9460716
	l0.2429757-0.156065l0.3728046,0.3655396l-0.1602347,0.2491646L2.6684415,25.9460716z M3.3524327,26.1875668l1.4300046,0.0049782
	l0.1483951,0.2343655l-1.7284095-0.0060539L3.3524327,26.1875668z M4.9989085,27.0839939l-0.1073613,0.2558918l-1.4091508,0.2433777
	l-0.1868732-0.2050362L4.9989085,27.0839939z M5.1579328,27.9753075l0.2152605-0.1988468l0.2308674,1.3358269l-0.2696142-0.1151638
	L5.1579328,27.9753075z M5.2615271,29.0143452l-0.22858,0.3150883l-1.0163002,0.1757069l-0.0028253-0.0020199l-0.0170865-0.0117035
	l-0.3012304-0.2065163l-0.1781282-1.0308304l0.2287145-0.3152218l1.0163002-0.1754379l0.3211422,0.2201042L5.2615271,29.0143452z
	 M5.1142077,27.914093l-0.2969251-0.2036915l0.1175861-0.2805099l0.4037485,0.2768784L5.1142077,27.914093z M4.7444973,27.6907597
	l-1.0059404,0.1736889l-0.1964254-0.2156639l1.3152432-0.2271004L4.7444973,27.6907597z M3.6766694,27.9073658l-0.2114937,0.291544
	l-0.2809153-0.1200085l0.287642-0.3962135L3.6766694,27.9073658z M3.4447258,28.2712917l0.1765139,1.0218163l-0.2152607,0.1988468
	l-0.2308671-1.3356934L3.4447258,28.2712917z M3.66483,29.3544559l0.29706,0.2035561l-0.1175864,0.2805119l-0.403883-0.2767448
	L3.66483,29.3544559z M4.0345402,29.5777893l1.0059409-0.1738224l0.1965599,0.2157993l-1.3152435,0.2271004L4.0345402,29.5777893z
	 M5.1025028,29.3609142l0.211225-0.291275l0.2810497,0.119875l-0.2875075,0.396347L5.1025028,29.3609142z M5.6651411,29.2196503
	l0.2657123,0.1134148l-0.3726702,0.5281963l-0.1995196-0.2190285L5.6651411,29.2196503z M5.6858597,29.1472683L5.4385791,27.716053
	l0.2047668-0.1890259l0.2986741,1.72962L5.6858597,29.1472683z M5.3949885,27.6547031l-0.4307904-0.2951756l0.1146264-0.2733822
	l0.5281959,0.3726711L5.3949885,27.6547031z M3.2208545,27.4072876l0.1996543,0.218895l-0.3067465,0.422718l-0.2653089-0.1134167
	L3.2208545,27.4072876z M2.8371522,28.0119019l0.2561603,0.1093788l0.2471464,1.4312153l-0.2046323,0.1888924L2.8371522,28.0119019z
	 M3.1721518,29.8095989l0.2120318-0.1958866l0.4305217,0.295311l-0.1143575,0.2731113L3.1721518,29.8095989z M3.887625,29.9286652
	l1.4091508-0.2435131l0.186739,0.2050343L3.7802637,30.184288L3.887625,29.9286652z M5.6646028,30.5254765l-0.0612149,0.270689
	l-1.3455143,0.4843369l-0.2197008-0.1695175L5.6646028,30.5254765z M4.505558,31.5659924l-0.1576786,0.323698L4.050416,31.8204041
	l0.2143188-0.4402084L4.505558,31.5659924z M4.3279676,31.3347225l1.2559123-0.4521828l-0.0643091,0.2846813l-0.9606013,0.3457642
	L4.3279676,31.3347225z M4.0547209,31.8980312L4.0547209,31.8980312l0.28549,0.0667324l0.3512783,0.9756699l-0.1774554,0.2331543
	L4.0547209,31.8980312L4.0547209,31.8980312L4.0547209,31.8980312z M4.7451701,32.9931717l0.3277345,0.1487999l-0.0669999,0.2967911
	l-0.4457245-0.2026138L4.7451701,32.9931717z M4.7631984,32.9193115L4.4088249,31.93503l0.1705942-0.3499336l0.9702883-0.3495293
	l0.3545074,0.1611767l0.354373,0.9841461L6.0881286,32.730957l-0.9704227,0.3493958l-0.0030942-0.0013466l-0.0188355-0.0086098
	L4.7631984,32.9193115z M5.976058,31.3756218l0.1774559-0.2331543l0.4593124,1.2754211l-0.2854896-0.0664635L5.976058,31.3756218z
	 M5.1479769,33.1489677l0.9606013-0.3458977l0.2308669,0.1782608l-1.2557774,0.4521828L5.1479769,33.1489677z M6.1619897,32.7499275
	l0.1575441-0.3237l0.2975979,0.0694237L6.402813,32.9358597L6.1619897,32.7499275z M6.6916656,32.5130043l0.2813191,0.0655212
	l-0.2753992,0.5849724l-0.2343655-0.1810913L6.6916656,32.5130043z M6.6994691,32.4380684l-0.4921403-1.3665028l0.1688457-0.2217197
	l0.594523,1.6514549L6.6994691,32.4380684z M6.1537828,31.0188255l-0.4754572-0.2159328l0.0653853-0.2889881l0.584837,0.2752647
	L6.1537828,31.0188255z M6.1072326,31.0797729l-0.184855,0.2431087l-0.3278689-0.1489334l0.0671344-0.2966557L6.1072326,31.0797729z
	 M3.9698277,31.1525574l0.2344995,0.180954l-0.2285798,0.4695377l-0.28105-0.0656548L3.9698277,31.1525574z M3.6968501,31.8146191
	l0.2712286,0.0632324l0.4918709,1.3666363l-0.1685762,0.2214508L3.6968501,31.8146191z M4.9238367,33.8020134l-0.5849714-0.2751312
	l0.1748996-0.2296562l0.4751883,0.2159348L4.9238367,33.8020134z M5.0640249,33.519886l1.3456492-0.4844704L6.62924,33.2049332
	l-1.6262951,0.5855103L5.0640249,33.519886z M6.9178243,33.7990532l-0.0133195,0.2771492l-1.2409782,0.7107658L5.41786,34.6582146
	L6.9178243,33.7990532z M5.8580685,35.3712654l-0.3051324-0.0166817l0.1348071-0.4706154l0.2693453,0.1411324L5.8580685,35.3712654z
	 M5.8634501,35.4463387l0.5154147,0.8999214L6.244596,36.6067276l-0.6737661-1.1762657L5.8634501,35.4463387z M5.7420964,34.8281364
	l1.1581035-0.6634064l-0.0138574,0.2914085l-0.8857985,0.5074768L5.7420964,34.8281364z M5.3577218,34.7109528l0.2623487,0.1374969
	l-0.1435518,0.5020981L5.1883383,35.334671L5.3577218,34.7109528z M5.2039447,35.4104156l0.2779555,0.0152016l0.7217965,1.2603531
	l-0.127542,0.2474136L5.2039447,35.4104156z M6.7573204,37.1544304l-0.6238527-0.1692467l0.1322508-0.2566986l0.5055938,0.1302338
	L6.7573204,37.1544304z M6.7750793,36.7824326L6.3009677,36.660408l0.1399193-0.2714958l0.348588,0.0897369L6.7750793,36.7824326z
	 M6.8194771,36.409359l-0.0199118-0.0052452l-0.3537006-0.0910835l-0.519989-0.9077263l0.1070919-0.3744202l0.8950815-0.5125885
	l0.37711,0.0971336l0.519855,0.9078636l-0.1070924,0.3742867l-0.8949471,0.5125885L6.8194771,36.409359z M7.7939358,35.9033623
	l0.09902-0.3461647l0.3049974,0.0166817l-0.1345377,0.4706154L7.7939358,35.9033623z M8.0089273,36.1004601l-1.1582375,0.6632729
	l0.0139918-0.2914085l0.885798-0.5073433L8.0089273,36.1004601z M7.8874397,35.4821243L7.372159,34.5823326l0.1342688-0.2605972
	l0.6737661,1.1763992L7.8874397,35.4821243z M8.2743711,35.578186l0.2884493,0.0156059L8.393302,36.2175102l-0.2623491-0.1375008
	L8.2743711,35.578186z M8.2689896,35.5029793l-0.721662-1.2603531l0.127542-0.2476845l0.872344,1.5232391L8.2689896,35.5029793z
	 M7.4851708,34.1999779l-0.5055938-0.1301003l0.0142612-0.2961159l0.6237178,0.169651L7.4851708,34.1999779z M7.4500566,34.268055
	l-0.1399198,0.2714958l-0.3487225-0.0896034l0.0145302-0.3037834L7.4500566,34.268055z M6.8463845,36.8522606l1.2409787-0.7106323
	l0.2456665,0.1286201L6.8332,37.1292725L6.8463845,36.8522606z M8.720499,36.805439l0.0349798,0.2752647l-1.0986376,0.9153976
	l-0.2643671-0.0842209L8.720499,36.805439z M10.3470631,38.248764l-0.929657-1.11586l0.0827408-0.2661133l1.1235266,1.3486061
	L10.3470631,38.248764z M10.652195,38.2872429l-0.0586586,0.6436272l-0.2822599-0.0898705l0.0540838-0.5193176L10.652195,38.2872429
	z M7.646482,38.5743446l0.0509901-0.4870262l0.2897944,0.0922928l-0.0374012,0.358139L7.646482,38.5743446z M7.9681625,38.610672
	l0.6638107,0.7967339l-0.0869122,0.2798386l-0.8677697-1.0414581L7.9681625,38.610672z M8.7004528,39.4386177l0.3589468,0.0278511
	l0.0384779,0.3017654l-0.4879694-0.0379372L8.7004528,39.4386177z M9.0803881,39.3931427L9.07689,39.3928757l-0.0205841-0.0016136
	l-0.3640604-0.0282555l-0.6697302-0.8035965l0.0406313-0.3873329l0.7922935-0.6600418l0.3881426,0.0299988l0.6697302,0.80373
	L9.872817,38.7329674L9.0803881,39.3931427z M8.8379507,37.13694l0.4882383,0.037941l-0.0906792,0.2916794l-0.3590813-0.0278511
	L8.8379507,37.13694z M9.3038559,37.4977722l0.0871801-0.2798386l0.8676357,1.0413246l-0.2910061,0.0352478L9.3038559,37.4977722z
	 M9.9860973,38.3674278l0.3033838-0.0365944l-0.0508556,0.4870262l-0.2899294-0.0922928L9.9860973,38.3674278z
	 M9.3487911,37.1016922l-0.5203924-0.0403595L8.7908621,36.767231l0.6437645,0.0587921L9.3487911,37.1016922z M8.8036432,37.4579506
	l-0.7843561,0.65345l-0.277956-0.0883904l1.0254488-0.8545876L8.8036432,37.4579506z M7.3424263,37.974308l0.2822604,0.0898705
	l-0.0542188,0.5193176l-0.2865658,0.0344391L7.3424263,37.974308z M7.3124242,38.6897812l0.276341-0.0333672l0.9296579,1.1158562
	l-0.0826063,0.2658501L7.3124242,38.6897812z M8.5012016,40.0792885l0.0858355-0.2758026l0.5203934,0.0403595l0.0376701,0.2938309
	L8.5012016,40.0792885z M9.1323195,39.4472275l0.7842226-0.65345l0.2780895,0.0885239l-1.0254488,0.854454L9.1323195,39.4472275z
	 M9.1803493,39.8244743l1.0986376-0.9153976l0.2643671,0.0842209l-1.3280249,1.1064415L9.1803493,39.8244743z M11.0178699,39.452877
	l0.082202,0.2650414l-0.9230652,1.0921783l-0.2749949-0.0368614L11.0178699,39.452877z M12.8701887,40.591877l-1.1092653-0.9374619
	l0.0353832-0.2763405l1.3405361,1.1328125L12.8701887,40.591877z M13.177474,40.5768089l0.0539494,0.6441689l-0.2936964-0.0395546
	l-0.0365944-0.5207977L13.177474,40.5768089z M10.5539827,40.8609543l-0.2891226-0.0390167l0.8614473-1.0193939l0.0866423,0.2786293
	L10.5539827,40.8609543z M10.5596333,41.29282l-0.2923508,0.0885277l-0.0344419-0.4883728l0.3014994,0.0406303L10.5596333,41.29282z
	 M11.1911545,39.7590866l0.4872971-0.047493l-0.0387468,0.3029823l-0.3584099,0.0349808L11.1911545,39.7590866z
	 M11.2734919,40.1253014l0.3874693-0.037674l0.7988863,0.6751137l0.0274458,0.3884125L11.8216,41.9388733l-0.0034981,0.0005379
	l-0.0204496,0.0018806l-0.3635216,0.0353851l-0.7990217-0.6752472l-0.0274458-0.3882751L11.2734919,40.1253014z
	 M11.4553871,42.0497322l0.3582745-0.0349808l0.0902758,0.2904663l-0.4872971,0.047493L11.4553871,42.0497322z
	 M11.8821421,41.9831352l0.6588326-0.7796478l0.2891216,0.0387459l-0.8614464,1.0195313L11.8821421,41.9831352z
	 M12.560751,41.1305695l-0.0252924-0.3589478l0.2922163-0.0887947l0.0345764,0.4883728L12.560751,41.1305695z M12.785161,40.6177101
	l-0.2805119,0.0850258l-0.7920256-0.6691895l0.0371332-0.2908745L12.785161,40.6177101z M11.688138,39.635582l-0.5197201,0.0505867
	l-0.0878534-0.2829361l0.6440334-0.0539474L11.688138,39.635582z M9.863534,40.8434639l0.2936964,0.0394211l0.0367289,0.5207939
	l-0.2760725,0.083683L9.863534,40.8434639z M11.2987852,42.6860962l-1.3405371-1.1328087l0.2663851-0.0808601l1.1094007,0.9374619
	L11.2987852,42.6860962z M10.3099308,41.4464645l0.2805119-0.0850296l0.7920246,0.6694603l-0.0371323,0.2906036
	L10.3099308,41.4464645z M11.3703594,42.7151566l0.0365944-0.2864304l0.5195856-0.050724l0.0879879,0.2827988L11.3703594,42.7151566
	z M12.0772219,42.6112938l-0.0823374-0.2649078l0.9230652-1.0923119l0.2748613,0.0369987L12.0772219,42.6112938z
	 M13.7398424,41.6613197l0.1271381,0.2466087l-0.7193747,1.2361336l-0.2771482,0.0113029L13.7398424,41.6613197z
	 M13.6505089,43.6152153l0.8962927,0.5214691l0.0139914,0.2927551l-1.1718254-0.681839L13.6505089,43.6152153z
	 M13.3356905,43.6908264l-0.1186628-0.4749184l0.3037872-0.0123787l0.0874491,0.3492622L13.3356905,43.6908264z
	 M13.2361317,43.1402969l0.6714792-1.1535301l0.1335964,0.2593918l-0.5133972,0.8822975L13.2361317,43.1402969z
	 M13.9637136,41.932682l0.4716902-0.1313095l0.0145302,0.3051338l-0.346839,0.0965996L13.9637136,41.932682z M13.9287338,41.8648758
	l-0.1356144-0.2634239l0.6249294-0.1649437l0.0137224,0.2883148L13.9287338,41.8648758z M12.8447609,43.2311096l0.2959833-0.0121078
	l0.1266003,0.5065346l-0.2573709,0.1305008L12.8447609,43.2311096z M13.0612326,43.9137535l0.2483578-0.1257896l1.2552395,0.7305412
	l0.013319,0.2780876L13.0612326,43.9137535z M14.5882387,44.0745277L13.684144,43.548214l-0.0944462-0.3776474l0.5187788-0.891449
	l0.3750916-0.1044006l0.9040956,0.5261765l0.0944452,0.3777847l-0.5187778,0.8913155l-0.0034981,0.0009384l-0.0197773,0.0056534
	L14.5882387,44.0745277z M15.550724,43.0455818l-0.0871811-0.3492622l0.27244-0.1380348l0.1187963,0.4749184L15.550724,43.0455818z
	 M15.8355408,43.1088142l-0.6714792,1.1535301l-0.1335964-0.2593918l0.5135317-0.8822975L15.8355408,43.1088142z
	 M15.421298,42.6340294l-0.8962917-0.5216026l-0.0139923-0.2927551l1.1716919,0.681839L15.421298,42.6340294z M15.804328,42.5235748
	l0.2576399-0.1305008l0.1649437,0.625061l-0.2959833,0.0121078L15.804328,42.5235748z M15.7620831,42.4614182l-1.255374-0.7306747
	l-0.0131845-0.2783623l1.5170498,0.8829727L15.7620831,42.4614182z M14.6217394,44.1426048l0.346839-0.0965996l0.1393805,0.2704239
	l-0.4715548,0.1313057L14.6217394,44.1426048z M14.6536245,44.8127365l-0.0137234-0.2883148l0.502903-0.1401863l0.1357489,0.2632904
	L14.6536245,44.8127365z M15.3316956,44.5876541l-0.1270037-0.2464714l0.7192402-1.2360001l0.2771482-0.0114365
	l-0.3746881,0.6440315c-0.0025558-0.0012093-0.0051126-0.0024185-0.0076685-0.0036316l-0.0513935,0.1052094L15.3316956,44.5876541z
	 M16.8042145,43.3634949l0.1680374,0.2207756l-0.4937534,1.3421516l-0.2712288,0.05933L16.8042145,43.3634949z
	 M16.8562813,44.9202347l0.1466465,0.3288116l-0.2443218,0.1833725l-0.1993847-0.4472046L16.8562813,44.9202347z
	 M16.5648708,44.907589l0.460928-1.2526855l0.1767826,0.2322121l-0.3524895,0.958046L16.5648708,44.907589z M17.055397,45.3031273
	l0.9732475,0.3581429l0.064579,0.285759l-1.2723274-0.4680595L17.055397,45.3031273z M18.0586472,45.5926552l-0.9817238-0.3610992
	l-0.1587563-0.3557205l0.3562584-0.967865l0.3511429-0.1680374l0.9818592,0.3612328l0.1584854,0.3554497l-0.3559875,0.9681358
	l-0.0032291,0.0014801l-0.0185661,0.0088806L18.0586472,45.5926552z M17.5911274,43.3854256l1.2721901,0.4681892
	l-0.2343636,0.1758423l-0.9732494-0.3580055L17.5911274,43.3854256z M18.4282227,45.4986115l0.1843166,0.2420349
	L18.1708508,45.95187l-0.0674038-0.2978668L18.4282227,45.4986115z M18.4817677,45.4454689l0.3524914-0.9579086l0.2849503-0.0624275
	l-0.4607925,1.2525482L18.4817677,45.4454689z M18.8279343,44.4123535l-0.1466465-0.3288116l0.2444553-0.1833763
	l0.1993866,0.4472046L18.8279343,44.4123535z M18.9869595,43.85429l0.2310009-0.17342l0.2710934,0.586853l-0.2893906,0.0633698
	L18.9869595,43.85429z M18.9346237,43.8002052l-1.3631401-0.5014229l-0.061348-0.2719002l1.6472836,0.6060905L18.9346237,43.8002052
	z M17.5133648,43.3805809l0.0674038,0.2980003l-0.3249111,0.1553917l-0.1840477-0.2420311L17.5133648,43.3805809z
	 M17.0255299,43.5312653l-0.1793404-0.235981l0.5867214-0.2709579l0.0636368,0.2815857L17.0255299,43.5312653z
	 M16.1951599,45.0648613l0.289526-0.0633659l0.2125702,0.4768028l-0.2308674,0.1732826L16.1951599,45.0648613z
	 M16.5269318,45.6994781l0.2227955-0.1670952l1.3630028,0.5015564l0.0614853,0.2716331L16.5269318,45.6994781z
	 M18.2513046,46.3083954l-0.0636368-0.2817192l0.4708843-0.2252197l0.1794739,0.2357101L18.2513046,46.3083954z
	 M18.8800011,45.968956l-0.1679039-0.2207756l0.4937553-1.3420143l0.2709599-0.0593338L18.8800011,45.968956z M20.1174812,44.50774
	l0.203825,0.1883545l-0.253334,1.407402l-0.2565651,0.1054764L20.1174812,44.50774z M22.0911541,44.8909035l0.2088032-0.2230644
	l0.2740536,0.4057693l-0.2813187,0.1155663L22.0911541,44.8909035z M22.2392807,45.2436638l-0.1825676,1.0150871
	l-0.0029602,0.002018l-0.0166836,0.0121117l-0.29706,0.2122993l-1.0296192-0.1851234l-0.2179508-0.3226242l0.1825676-1.0152206
	l0.3167019-0.226429l1.0296192,0.185257L22.2392807,45.2436638z M22.0300732,44.8467751l-1.0206051-0.1837769l-0.1132813-0.270153
	l1.3343487,0.2400169L22.0300732,44.8467751z M20.9369526,44.6831779l-0.2928886,0.2094765l-0.2233334-0.2065163
	l0.3982315-0.2846832L20.9369526,44.6831779z M20.6007423,44.9541359l-0.1808186,1.0047302l-0.2698841,0.1109962l0.236248-1.3137665
	L20.6007423,44.9541359z M20.4390278,46.0317879l0.2015381,0.2984047l-0.2088032,0.2229309l-0.2739201-0.4057693
	L20.4390278,46.0317879z M20.7016449,46.374321l1.0206051,0.1835098l0.1132813,0.2704201l-1.3342133-0.2400131L20.7016449,46.374321
	z M21.7949009,46.5377846l0.2927551-0.2094765l0.2234669,0.2063828l-0.3982315,0.2848167L21.7949009,46.5377846z
	 M22.1312466,46.2668266l0.180685-1.0047302l0.2698822-0.1109962l-0.2363834,1.3137627L22.1312466,46.2668266z
	 M22.3524265,44.6120071l0.1973667-0.2108192l0.3687687,0.5308838l-0.2740536,0.1124763L22.3524265,44.6120071z
	 M22.2913456,44.5677452l-1.4294643-0.257103l-0.1076317-0.2569695l1.727602,0.3107834L22.2913456,44.5677452z
	 M20.7893639,44.3306885l-0.424736,0.3037872l-0.2175484-0.2011337l0.5307522-0.3687706L20.7893639,44.3306885z
	 M19.8131561,46.2890244l0.2740536-0.1126099l0.2922173,0.4325409l-0.1972332,0.2106857L19.8131561,46.2890244z
	 M20.2501354,46.8565063l0.190237-0.2034225l1.4296017,0.2572365l0.1074944,0.2569656L20.2501354,46.8565063z
	 M22.0540218,47.1565247l-0.1116676-0.2663841l0.4247379-0.3035202l0.2175465,0.2010002L22.0540218,47.1565247z
	 M22.6142368,46.713089l-0.2036896-0.1880875l0.2532005-1.4075356l0.2564297-0.1054764L22.6142368,46.713089z
	 M25.5894108,45.0937881l0.1668282-0.2558899l0.3403797,0.3519516l-0.2569675,0.1627884L25.5894108,45.0937881z
	 M25.7966003,45.4156036l-0.003767,1.0313683l-0.0024223,0.0024223l-0.0142612,0.0147972l-0.2557564,0.2607346l-1.0461674-0.0037651
	l-0.2705555-0.2798386l0.0034962-1.0313683l0.2725754-0.2779579l1.0461674,0.0036316L25.7966003,45.4156036z M25.5216045,45.0609589
	l-1.0370197-0.0036316l-0.1584854-0.2466087l1.3556042,0.0047112L25.5216045,45.0609589z M24.4166431,45.0897522
	l-0.2519894,0.257103l-0.2558918-0.1645393l0.342804-0.3495331L24.4166431,45.0897522z M24.1324997,45.4150658l-0.0034981,1.0207405
	l-0.2466087,0.1561966l0.0047092-1.3348846L24.1324997,45.4150658z M24.1606178,46.5042839l0.2502403,0.2588501
	l-0.1669617,0.2557564l-0.3403816-0.3519478L24.1606178,46.5042839z M24.3182964,47.0413589h0.0001335l0.1602345-0.2453957
	l1.0370197,0.0034981l0.1583519,0.2466087l-1.3556061-0.0047112H24.3182964L24.3182964,47.0413589z M25.5834904,46.76717
	l0.2521248-0.2570992l0.2558918,0.1645393l-0.342804,0.3495293L25.5834904,46.76717z M25.8676357,46.4418602l0.0034981-1.020874
	l0.2466087-0.1560669l-0.0047092,1.3347511L25.8676357,46.4418602z M25.798214,44.7738571l0.1576786-0.2419014l0.4555454,0.4586411
	l-0.2503757,0.1586189L25.798214,44.7738571z M25.7304077,44.7408943l-1.4524727-0.0049782l-0.1505489-0.2345009
	l1.7553177,0.0060577L25.7304077,44.7408943z M24.2101269,44.7682076l-0.3656731,0.3729362l-0.2491646-0.1603661
	l0.4587746-0.4552765L24.2101269,44.7682076z M23.8125668,45.2092209l-0.0049763,1.4301414l-0.2343655,0.1483917
	l0.0059185-1.7285423L23.8125668,45.2092209z M23.5888309,46.8661919l0.2502403-0.1584854l0.3629837,0.3753586l-0.1576786,0.2416306
	L23.5888309,46.8661919z M24.1175652,47.3491821l0.1521626-0.2332878l1.4523373,0.0051117l0.1506824,0.2343674
	L24.1175652,47.3491821z M25.9462051,47.3314247l-0.1560631-0.2428436l0.3654041-0.3728027l0.2491646,0.160099
	L25.9462051,47.3314247z M26.4208565,46.7975769l-0.2332897-0.1500092l0.0051117-1.4300041l0.2342319-0.1483955
	L26.4208565,46.7975769z M27.0839939,45.0012245l0.2558918,0.1072273l0.2433777,1.409153l-0.2050362,0.1868706
	L27.0839939,45.0012245z M29.0696392,44.6861382l0.1200085-0.2809143l0.3962135,0.2875061l-0.2248116,0.2049026
	L29.0696392,44.6861382z M29.5050049,45.9833527l-0.0018845,0.0029602l-0.01157,0.0169525l-0.2066498,0.3012314
	l-1.0308304,0.1779938l-0.3150883-0.2285805l-0.1755714-1.0163002l0.2202377-0.3211441l1.0308304-0.1781273l0.3150883,0.228714
	L29.5050049,45.9833527z M28.9972591,44.665554l-1.0219517,0.1765137l-0.1988468-0.2152596l1.3358269-0.2307358
	L28.9972591,44.665554z M27.9139576,44.8857918l-0.2034206,0.2970619l-0.2806454-0.117588l0.2768784-0.4038811
	L27.9139576,44.8857918z M27.6907597,45.2555008l0.1736889,1.0059433l-0.2155304,0.1965599l-0.2273693-1.3152428
	L27.6907597,45.2555008z M27.9075012,46.3231964l0.2914085,0.2114944l-0.1200085,0.2809143l-0.396349-0.2873726
	L27.9075012,46.3231964z M28.2712917,46.5554085l1.0219498-0.1765137l0.1988468,0.2152596l-1.3359623,0.2307358
	L28.2712917,46.5554085z M29.3544559,46.3351707l0.2035561-0.2969246l0.2806473,0.1175842l-0.2768803,0.403614
	L29.3544559,46.3351707z M29.5779247,45.9654579l-0.1738243-1.0059395l0.2155304-0.1964264l0.2273693,1.3152466
	L29.5779247,45.9654579z M29.2197838,44.3347244l0.1132813-0.2655792l0.5281963,0.372673l-0.2190285,0.1996536
	L29.2197838,44.3347244z M29.1472683,44.3142738l-1.4312153,0.2471466l-0.1890259-0.2046318l1.72962-0.2989426
	L29.1472683,44.3142738z M27.6548386,44.6051445l-0.295311,0.4305229l-0.2732468-0.1144905l0.3726692-0.5280647
	L27.6548386,44.6051445z M27.4072876,46.7790108l0.2190285-0.1993866l0.4224491,0.3064804l-0.1132813,0.2654419
	L27.4072876,46.7790108z M28.0119019,47.1629829l0.1093788-0.2561607l1.4310818-0.2472801l0.1890259,0.2044983
	L28.0119019,47.1629829z M29.8095989,46.8279839l-0.1958866-0.2121658l0.2951756-0.4306564l0.2732468,0.1144905
	L29.8095989,46.8279839z M29.9285297,46.1125107l-0.2432442-1.409153l0.2049007-0.1868706l0.2942352,1.7031136
	L29.9285297,46.1125107z M30.5254765,44.3353958l0.270689,0.0612144l0.4844723,1.3455162l-0.1695175,0.2196999
	L30.5254765,44.3353958z M31.3228817,44.0777588l-0.1489334,0.3277321l-0.2966557-0.0669975l0.2026138-0.4458618
	L31.3228817,44.0777588z M31.1424675,43.8464851l1.2754211-0.4591789l-0.066597,0.2854919l-0.9756699,0.3511429
	L31.1424675,43.8464851z M31.1670876,44.4805641l0.3458977,0.9604645l-0.1782627,0.2310028l-0.4521828-1.2557755
	L31.1670876,44.4805641z M31.5661278,45.494442l0.323698,0.1576805l-0.0694218,0.297596l-0.4402084-0.2144547L31.5661278,45.494442z
	 M31.5849628,45.4207153l-0.3492603-0.9704208l0.1609058-0.3545113l0.9842815-0.3543701l0.3500671,0.1704597l0.3493958,0.9704208
	l-0.0014801,0.003231l-0.0084763,0.0186996l-0.1510849,0.3324432L31.93503,45.5910416L31.5849628,45.4207153z
	 M31.9646282,45.6599236l0.975668-0.3514137l0.2332916,0.1775894l-1.2754211,0.4590454L31.9646282,45.6599236z
	 M32.9930382,45.2549629l0.1490669-0.3278694l0.2966576,0.0670013l-0.2024803,0.4457245L32.9930382,45.2549629z
	 M33.1488304,44.8520241l-0.3457603-0.9604683l0.1782608-0.2310028l0.4521828,1.2559128L33.1488304,44.8520241z
	 M32.5130043,43.3083344l0.0656548-0.2813187l0.5847015,0.2752647l-0.180954,0.2346344L32.5130043,43.3083344z
	 M32.9357224,43.597187l-0.1857948,0.2408218l-0.3235664-0.1575432l0.0692902-0.2974625L32.9357224,43.597187z
	 M32.4382019,43.3006668l-1.3666363,0.4918709l-0.2217197-0.1687126l1.6515884-0.5946579L32.4382019,43.3006668z
	 M31.0188255,43.8463516l-0.2159328,0.4751892l-0.2891216-0.0652504l0.2753983-0.5848389L31.0188255,43.8463516z
	 M31.7375278,46.3053017l-0.5849705-0.2751274l0.1810875-0.2345009l0.4692688,0.2285805L31.7375278,46.3053017z
	 M31.8147526,46.3031502l0.0632343-0.2710953l1.3663673-0.4921379l0.2217178,0.1687088L31.8147526,46.3031502z
	 M33.5268822,45.6611328l-0.2297897-0.1747627l0.2160683-0.4754562l0.2889862,0.0653839L33.5268822,45.6611328z
	 M33.519886,44.9358406l-0.4843369-1.3453789l0.169384-0.2195663l0.5853767,1.6261597L33.519886,44.9358406z M33.7991867,43.0821762
	l0.2771492,0.0133171l0.7106323,1.2408447l-0.1287537,0.2459373L33.7991867,43.0821762z M34.4498138,43.0385857
	l-0.3037872-0.0145302l0.1221619-0.4741135l0.2714958,0.1399193L34.4498138,43.0385857z M34.4562721,43.1136589l0.5073433,0.8857956
	l-0.135479,0.2585831l-0.6632729-1.158371L34.4562721,43.1136589z M34.3217354,42.4935722l1.1763992-0.6737671l-0.0160103,0.2926216
	l-0.8999252,0.5154152L34.3217354,42.4935722z M34.2426262,42.4528084l-0.247551-0.1278114l1.5231056-0.872345l-0.0152016,0.2782249
	L34.2426262,42.4528084z M34.2001114,42.5148277l-0.1302338,0.5055962l-0.2959824-0.0141258l0.1695175-0.6237183
	L34.2001114,42.5148277z M35.3348045,44.8116608l-0.6237183-0.169384l0.1374969-0.2623482l0.5018272,0.1435509
	L35.3348045,44.8116608z M35.3547173,44.4469299l-0.4708824-0.1345406l0.1412659-0.2694778l0.3462982,0.0991554
	L35.3547173,44.4469299z M35.0310173,43.9668961l-0.5125885-0.8949432l0.0971375-0.376976l0.9075928-0.5198555l0.3744202,0.1069565
	l0.5125885,0.8950806l-0.0009422,0.0033646l-0.0051117,0.0199127l-0.09095,0.3536987l-0.9078598,0.5198555L35.0310173,43.9668961z
	 M36.3889122,43.5592461l0.0897369-0.3487206l0.3037834,0.0145302l-0.121891,0.4741096L36.3889122,43.5592461z
	 M36.6067276,43.7554054l-1.1763992,0.6737633l0.0161438-0.2926178l0.8997879-0.5154152L36.6067276,43.7554054z
	 M36.4724579,43.1354523l-0.5074768-0.8859329l0.135479-0.2584457l0.6634064,1.158371L36.4724579,43.1354523z
	 M36.0801468,41.8691826l-0.5020981-0.1436882l0.0158768-0.2884483l0.6237183,0.169651L36.0801468,41.8691826z
	 M36.0446281,41.936718l-0.1412659,0.2693481l-0.3460312-0.0990219l0.0166817-0.3049965L36.0446281,41.936718z
	 M35.4104156,44.7961884l0.0150681-0.2779541l1.2603531-0.7219315l0.2475471,0.1275444L35.4104156,44.7961884z
	 M36.9851837,43.8665314l-0.2565651-0.1322517l0.1301003-0.5055923l0.2958488,0.0141258L36.9851837,43.8665314z
	 M36.8523941,43.1534805l-0.7108994-1.2408447l0.1288872-0.2456665l0.8588905,1.4998322L36.8523941,43.1534805z
	 M36.8053055,41.2796364l0.2752647-0.0351143l0.9153976,1.0986366l-0.0840874,0.2643661L36.8053055,41.2796364z
	 M39.4472275,40.8676796l-0.65345-0.7842216l0.0885239-0.2780914l0.8543167,1.0254517L39.4472275,40.8676796z
	 M39.7682343,40.9021225l-0.0378036,0.488102l-0.2916794-0.0906754l0.0277176-0.3589478L39.7682343,40.9021225z
	 M37.4580841,41.1964912l0.6533165,0.7842216l-0.0885277,0.2780914L37.16856,41.2333565L37.4580841,41.1964912z
	 M37.1370773,41.1620483l0.0378036-0.488102l0.2916794,0.0906792l-0.0278511,0.3589478L37.1370773,41.1620483z
	 M38.1796112,42.012867l0.358139,0.0374031l0.0364609,0.3032494l-0.4868927-0.0508575L38.1796112,42.012867z M38.5594101,41.9773483
	l-0.3871994-0.0403595L37.511898,41.144558l0.0301361-0.3881416l0.80373-0.6695938l0.3872032,0.0403595l0.6603127,0.7924309
	l-0.0002708,0.0034981l-0.0016136,0.0204506l-0.0282555,0.364193L38.5594101,41.9773483z M38.3309669,39.7106552
	l0.4868927,0.0508537l-0.0922928,0.2897949l-0.3580055-0.0374031L38.3309669,39.7106552z M38.8409996,39.688858
	l-0.5191803-0.0543518l-0.0347137-0.2867012l0.6437645,0.0587921L38.8409996,39.688858z M38.2943726,40.0323334
	l-0.7966003,0.6636772l-0.2799721-0.0869141l1.0415916-0.8677673L38.2943726,40.0323334z M37.1329041,40.5827293
	l-0.2659798-0.0828743l1.3483391-1.1235275l0.0335007,0.2766075L37.1329041,40.5827293z M37.1016922,40.6510735
	l-0.0403595,0.5206642l-0.2939682,0.0373993l0.0586586-0.6436272L37.1016922,40.6510735z M37.974308,42.6575737l0.0898705-0.2822609
	l0.5191803,0.0543556l0.0347099,0.2864304L37.974308,42.6575737z M38.6108055,42.0318375l0.7967339-0.6638107l0.2798386,0.0870476
	l-1.0415916,0.8677673L38.6108055,42.0318375z M38.6899147,42.6877098l-0.0333672-0.276474l1.11586-0.9297943l0.2658463,0.0827408
	L38.6899147,42.6877098z M40.079155,41.4986649l-0.2755356-0.0855675l0.0403595-0.5206604l0.2936974-0.0374031L40.079155,41.4986649
	z M39.8246078,40.8196487l-0.9153976-1.0986366l0.0840874-0.2643661l1.1063042,1.3278885L39.8246078,40.8196487z
	 M40.7732353,40.0978546l-1.3202209-1.1155891l0.264904-0.0823364l1.0923157,0.9229279L40.7732353,40.0978546z
	 M41.4465981,39.6900711l-0.0850296-0.2805138l0.6691933-0.7920265l0.2908707,0.0369987L41.4465981,39.6900711z
	 M40.0334091,38.2875099l-0.2905998-0.0371323l0.8750343-1.0354042l0.0850296,0.2803764L40.0334091,38.2875099z
	 M40.0495567,38.7187042l-0.2904701,0.0902748l-0.047493-0.4872971l0.3029823,0.0386124L40.0495567,38.7187042z
	 M40.6829605,37.1721916l0.4882393-0.0344429l-0.0404968,0.3014984l-0.3592186,0.0254288L40.6829605,37.1721916z
	 M40.7628746,37.5400162l0.388279-0.0273094l0.7878532,0.6656952l0.000267,0.0034981l0.002018,0.0205841l0.0353851,0.3633842
	l-0.6751099,0.7990227l-0.3884125,0.0274467l-0.7877197-0.6656952l-0.0378075-0.3874702L40.7628746,37.5400162z
	 M40.9336052,39.4657936l0.3592148-0.025425l0.0886612,0.2923508l-0.4883728,0.0344391L40.9336052,39.4657936z
	 M42.0497322,38.5447464l-0.0349808-0.3584099l0.2904663-0.0902748l0.047493,0.4871635L42.0497322,38.5447464z
	 M41.9831352,38.1179924l-0.7796478-0.6589661l0.0388832-0.289257l1.0195274,0.8615799L41.9831352,38.1179924z
	 M41.1814232,37.0621376l-0.5207977,0.0368652l-0.0838165-0.2764778l0.6440353-0.0539474L41.1814232,37.0621376z
	 M40.5920105,37.1296768l-0.937458,1.1094017l-0.2764778-0.0352516l1.132946-1.3408051L40.5920105,37.1296768z
	 M39.6357155,38.3119965l0.0505867,0.5195847l-0.2830696,0.0879898l-0.0539474-0.6441689L39.6357155,38.3119965z
	 M39.8025436,38.873558l0.2787628-0.0865059l0.7796478,0.6588326l-0.0388832,0.2892532L39.8025436,38.873558z
	 M40.8433304,40.1363335l0.0395546-0.2935638l0.5207939-0.0367279l0.0838165,0.276207L40.8433304,40.1363335z
	 M41.5532875,40.0417519l-0.0808601-0.2665215l0.9374619-1.1092644l0.276207,0.0352478L41.5532875,40.0417519z
	 M42.715023,38.6296425l-0.2862968-0.0365944l-0.0505867-0.5195885l0.2827988-0.0878525L42.715023,38.6296425z M42.346386,38.004982
	l-1.0921783-0.9229317l0.0368652-0.2748604l1.3200836,1.1155891L42.346386,38.004982z M41.6613197,36.2600212l0.2467422-0.1270027
	l1.2358665,0.7192421l0.0114365,0.2774162L41.6613197,36.2600212z M41.9328194,36.0362854l-0.1313095-0.4715538l0.3049965-0.0146637
	l0.0967331,0.3469734L41.9328194,36.0362854z M42.2461586,35.9587936l0.8822975,0.5135307l0.0119743,0.2914085l-1.1535301-0.6713448
	L42.2461586,35.9587936z M41.8196716,35.488987l0.6819725-1.1716919l0.1323853,0.2615395l-0.5216026,0.8962936L41.8196716,35.488987
	z M42.5582848,34.264019l0.4750519-0.1186638l0.0123787,0.3037872l-0.3492584,0.0874481L42.5582848,34.264019z
	 M42.5237083,34.1956711l-0.1306343-0.2575035l0.6249275-0.165081l0.0121078,0.2959862L42.5237083,34.1956711z
	 M42.4612846,34.2379189l-0.7305412,1.2552376l-0.2782249,0.0133209l0.8828354-1.5170517L42.4612846,34.2379189z
	 M41.724823,35.5682297l0.1401863,0.502903l-0.2634239,0.1358833l-0.1650772-0.6250648L41.724823,35.5682297z
	 M43.1705666,36.4104347l-0.891449-0.5187759l-0.1044006-0.3750916l0.5261765-0.9040947l0.3776512-0.0944481l0.891449,0.5187798
	l0.0010757,0.0033646l0.0053787,0.0197754l0.0980797,0.3519516l-0.5261765,0.9040947L43.1705666,36.4104347z M43.6150818,36.3496246
	l0.5217361-0.8962898l0.2927551-0.0139923l-0.6819725,1.1715546L43.6150818,36.3496246z M44.1427383,35.3782616
	l-0.0965996-0.3468399l0.2702904-0.1393814l0.131443,0.4716911L44.1427383,35.3782616z M44.0030899,34.9695358l-0.8823013-0.5133972
	l-0.0118408-0.2916794l1.1535301,0.6713448L44.0030899,34.9695358z M43.2033958,36.4790497l0.3493958-0.0871811l0.1381683,0.2724419
	l-0.4750519,0.1187973L43.2033958,36.4790497z M43.2311096,37.1552391l-0.0121078-0.2959824l0.5065346-0.1266022l0.1303673,0.25737
	L43.2311096,37.1552391z M43.9137535,36.9389l-0.125927-0.2484894l0.7305412-1.2553749l0.2782249-0.0131836L43.9137535,36.9389z
	 M44.8127365,35.3463745l-0.2884483,0.0137253l-0.1399193-0.502903l0.2631569-0.1357498L44.8127365,35.3463745z
	 M44.3411827,34.7953072l-1.2360001-0.7193756l-0.0113029-0.2771454l1.4939117,0.8695183L44.3411827,34.7953072z
	 M43.3634949,33.1957855l0.2209129-0.1679039l1.3421478,0.4937553l0.0591965,0.2709579L43.3634949,33.1957855z
	 M45.4789696,33.1791039l-0.175705-0.2343674l0.3578682-0.9732475l0.2860298-0.0645771L45.4789696,33.1791039z
	 M45.4324188,33.2415276l-0.4472046,0.1993866l-0.0649796-0.2971954l0.3289452-0.1466446L45.4324188,33.2415276z
	 M45.6541405,31.8964176l-0.155529-0.3247738l0.2421684-0.1840496l0.2112274,0.441555L45.6541405,31.8964176z
	 M45.4456062,31.5182323l-0.9581795-0.3524914l-0.062294-0.2850857l1.2526855,0.460928L45.4456062,31.5182323z M44.456749,31.234087
	l0.9678688,0.356123l0.0016136,0.0032272l0.0088806,0.018568l0.1576767,0.3293476l-0.3613701,0.9818573l-0.3554459,0.1584854
	l-0.9680023-0.3559875l-0.1680374-0.3512764l0.3612328-0.9817238L44.456749,31.234087z M43.6785812,32.4192314l0.155529,0.3247757
	l-0.2421684,0.1843185l-0.2112274-0.4416885L43.6785812,32.4192314z M43.3855591,32.409008l0.4680557-1.2723255l0.1758423,0.234499
	l-0.3580055,0.9732475L43.3855591,32.409008z M43.8871155,32.797554l0.9581795,0.3524895l0.062294,0.2849503l-1.2526855-0.4607925
	L43.8871155,32.797554z M44.0835419,31.3187122l-0.183239-0.2443218l0.4470673-0.1993847l0.0649834,0.29706L44.0835419,31.3187122z
	 M43.85429,31.0130405l-0.1732864-0.2311363l0.5868568-0.2709579l0.0632324,0.2895241L43.85429,31.0130405z M43.8002052,31.0655117
	l-0.5015564,1.3630047l-0.2717667,0.0614815l0.6060905-1.6474171L43.8002052,31.0655117z M43.305912,32.5034523l0.2253532,0.4710197
	l-0.2358475,0.1793365l-0.2709579-0.586853L43.305912,32.5034523z M45.0648613,33.8047028l-0.0632324-0.2892532l0.4768028-0.2127075
	l0.1731491,0.2308693L45.0648613,33.8047028z M45.6996117,33.4730682l-0.1670952-0.2226601l0.5014229-1.3631382l0.2716331-0.0613499
	L45.6996117,33.4730682z M46.3083954,31.7486954l-0.2815857,0.0636368l-0.2253532-0.4710178l0.2357101-0.1793404
	L46.3083954,31.7486954z M45.7483139,31.2880363l-1.3421478-0.4938889l-0.0592003-0.2708244l1.6219902,0.5966759
	L45.7483139,31.2880363z M44.50774,29.8825188l0.1883545-0.203825l1.407402,0.2532005l0.1054764,0.2566986L44.50774,29.8825188z
	 M46.5882378,29.498682h-0.0001373l0,0l-0.2137794-0.2003269l0.1836433-1.0206051l0.270153-0.1132813l-0.2400169,1.3342133
	H46.5882378z M44.6631317,28.9905319l-0.2704201,0.1131458l0.2400131-1.3340778l0.2139168,0.2003269L44.6631317,28.9905319z
	 M44.9210396,27.978672l0.3226242-0.2179527l1.0150871,0.182703l0.0021553,0.0026913l0.011837,0.0168171l0.2125702,0.2971935
	l-0.1853905,1.0294857l-0.3226242,0.2179508l-1.0149536-0.182703l-0.2265625-0.3167019L44.9210396,27.978672z
	 M44.6831779,29.0630474l0.2094765,0.2928886l-0.2063828,0.2234688l-0.2846832-0.3982334L44.6831779,29.0630474z
	 M44.9542732,29.3993931l1.0047302,0.1806831l0.1108589,0.2700176l-1.3136292-0.236517L44.9542732,29.3993931z
	 M46.0317879,29.5608387l0.2984047-0.2015381l0.2229309,0.2088032l-0.4057693,0.2741871L46.0317879,29.5608387z
	 M46.5377846,28.2052326l-0.209343-0.2928886l0.2063828-0.2234669l0.2846832,0.3982315L46.5377846,28.2052326z
	 M46.2668266,27.8688889l-1.0047302-0.1808205l-0.1108589-0.2698822l1.3136253,0.2363834L46.2668266,27.8688889z
	 M45.1891747,27.7074432l-0.2982712,0.2015381l-0.2229271-0.2089386l0.405632-0.2740536L45.1891747,27.7074432z
	 M44.6120071,27.647707l-0.2108192-0.1975002l0.5307503-0.3687687l0.1127434,0.2740536L44.6120071,27.647707z
	 M44.5678787,27.7087879l-0.2572365,1.4293308l-0.2569695,0.1076317l0.3107834-1.7274685L44.5678787,27.7087879z
	 M44.330822,29.2107697l0.3036537,0.4246025L44.433342,29.853054l-0.3689041-0.5308857L44.330822,29.2107697z
	 M46.2890244,30.1867085l-0.1126099-0.2739182l0.4326744-0.2922173l0.2105522,0.1972332L46.2890244,30.1867085z
	 M46.856369,29.7499981l-0.2031517-0.190506l0.2572365-1.4293308l0.2566986-0.1076298L46.856369,29.7499981z M47.1566582,27.9461136
	l-0.2663841,0.1113968l-0.3036537-0.4246025l0.2008667-0.2175465L47.1566582,27.9461136z M46.524868,27.5895882
	l-1.4072685-0.2532005l-0.1054764-0.2566986l1.7010994,0.3062077L46.524868,27.5895882z M45.7554474,27.0667725l-0.8384438-0.150816
	l-0.6752434,0.4692669l-0.3495293,1.9421921l0.4694023,0.6755142l0.8532372,0.1535072
	c-0.0413017,0.1619854-0.0851593,0.3238335-0.1296921,0.4846058l-0.803463-0.2955799l-0.7465515,0.3446865l-0.6812973,1.8520489
	l0.3449554,0.7468224l0.8142204,0.2996178c-0.067131,0.1501427-0.1401863,0.3137398-0.2086678,0.4566193l-0.7438583-0.4328079
	l-0.7949867,0.2100143l-0.9926224,1.7055397l0.2100143,0.7952538l0.7461472,0.434288
	c-0.0939064,0.1380348-0.1896973,0.2748604-0.2873726,0.4103394l-0.6510277-0.5501251l-0.8194733,0.0687485l-1.2736702,1.5073624
	l0.0687485,0.8196068l0.6578903,0.555912c-0.1167755,0.1194687-0.2343636,0.2373238-0.3541031,0.3541031l-0.5443382-0.6533165
	l-0.8188019-0.0746689l-1.516243,1.263176l-0.0745316,0.8192024l0.5517387,0.6623306
	c-0.135479,0.0979462-0.2714958,0.1945419-0.409668,0.2880478l-0.4235268-0.7392883l-0.7935028-0.2157974l-1.7123985,0.9807816
	l-0.2158012,0.7937737l0.4313278,0.7530098c-0.1506805,0.0725174-0.3029785,0.1422081-0.4552765,0.2110901l-0.2897949-0.8052101
	l-0.7439919-0.3502007l-1.85676,0.6683846l-0.350338,0.7442627l0.2936974,0.8155708
	c-0.1606388,0.0446663-0.3223534,0.087986-0.4846058,0.1291542l-0.1455708-0.8426094l-0.6718826-0.4741135l-1.9446125,0.3359413
	l-0.4743805,0.6721535l0.147049,0.8505478c-0.1657505,0.0161438-0.3321743,0.0308113-0.499136,0.0430527l0.0029602-0.8516273
	l-0.5793209-0.5836258l-1.973402-0.0067253l-0.5837612,0.5794563l-0.0029602,0.86306
	c-0.1666927-0.0126457-0.3331146-0.0269089-0.499136-0.0438576l0.1509514-0.8384438l-0.4692669-0.6753807l-1.9421921-0.3493919
	l-0.6755142,0.4694023l-0.1535072,0.8528366c-0.1621189-0.0410347-0.3235645-0.0844917-0.4846058-0.1292915l0.2957134-0.803463
	l-0.3449554-0.7465515l-1.8520508-0.6814346l-0.746685,0.3449554l-0.2994823,0.8139572
	c-0.1522961-0.0688858-0.3032475-0.1409988-0.4539309-0.2133789l0.4299841-0.7386131l-0.2098789-0.7951202l-1.7056732-0.9926224
	l-0.7952538,0.2098808l-0.4344234,0.746685c-0.1383057-0.0947151-0.2747269-0.1902351-0.4102068-0.2879105l0.5501261-0.6508942
	l-0.068614-0.8194733L11.806262,39.197525l-0.8197393,0.068615l-0.5557766,0.6578903
	c-0.1197395-0.1167793-0.2373257-0.2343636-0.354104-0.3541031l0.6533165-0.5442047l0.0745335-0.8189354l-1.2631769-1.5161095
	l-0.8192015-0.0746689l-0.6635418,0.5529518c-0.0974054-0.1353455-0.1926584-0.2723045-0.2868352-0.4108772l0.7394214-0.4233932
	l0.2156639-0.7936363l-0.9806471-1.7124023L6.9524007,33.612854l-0.7523365,0.4310608
	c-0.0726509-0.1513557-0.1431484-0.302845-0.211494-0.4550095l0.8048062-0.2897949l0.350337-0.7439957l-0.668654-1.8566227
	l-0.7441297-0.350338l-0.8163762,0.2938309c-0.0446668-0.1606388-0.0875845-0.3223534-0.1287532-0.4847393l0.8430152-0.1457062
	l0.474112-0.6718826l-0.3358068-1.9446106l-0.672152-0.4741135l-0.8502803,0.1467819
	c-0.0169516-0.165617-0.0320196-0.3319054-0.0446663-0.4990025l0.8529706,0.0029602l0.5834913-0.5793209l0.0068617-1.973402
	L5.063756,23.4351883l-0.8626575-0.0030937c0.0126467-0.1665592,0.0271769-0.3328476,0.0435901-0.498867l0.8383064,0.150816
	l0.6752462-0.4692669l0.3495297-1.9421921l-0.4692683-0.6755142l-0.8527021-0.1533737
	c0.0279841-0.1084366,0.0535464-0.1910439,0.0804539-0.2736492c0.0191045-0.0597363,0.0407648-0.1288891,0.0635018-0.205574
	l0.788527,0.2900639l0.7465515-0.3446865l0.6813006-1.8520508l-0.344821-0.7468204L5.987494,16.4116325
	c0.0556989-0.1213531,0.1084375-0.2289829,0.1627908-0.3374214l0.0562372-0.1132813l0.7329626,0.4266205l0.7951198-0.2100143
	l0.9926209-1.7055378l-0.2101479-0.7952538l-0.746686-0.4345579c0.0947146-0.1377668,0.1909094-0.2745924,0.2881804-0.4098034
	l0.6508951,0.5498571l0.8193359-0.0687485l1.2738056-1.5073643L10.73386,10.9865227l-0.6582947-0.55618
	c0.1167793-0.1192007,0.2355766-0.2363834,0.3551807-0.3528938l0.5435333,0.6523752l0.8189325,0.0746679l1.5161085-1.2631769
	l0.0746689-0.8192015l-0.5525475-0.6631384c0.1350765-0.0975399,0.2717667-0.1942725,0.4095335-0.2887182l0.4243326,0.7407665
	l0.7935057,0.2157984l1.7123995-0.980782l0.2157993-0.7937741l-0.4299841-0.7509909
	c0.150279-0.072516,0.3016348-0.1436868,0.4541998-0.2124357l0.289526,0.8045373l0.7439957,0.3502026l1.8567581-0.668385
	l0.350338-0.7442641l-0.2939663-0.8163762c0.1607742-0.0449357,0.3227577-0.0878534,0.4848747-0.1288877l0.1457062,0.8431497
	l0.6718826,0.474112l1.9446106-0.3359413l0.474247-0.672152l-0.1469154-0.8508182
	c0.1657505-0.0164137,0.3317719-0.0304055,0.4990025-0.0427833l-0.0029602,0.8516254l0.5794544,0.5836258l1.9734039,0.0067272
	l0.5836258-0.5794554l0.0029602-0.8629265c0.1668262,0.0122428,0.3331146,0.0270419,0.499136,0.0431867l-0.1509514,0.8389788
	l0.4692669,0.6753807l1.9421921,0.3493953l0.6755142-0.4694033l0.1533737-0.8522978
	c0.1621189,0.0407648,0.3235645,0.0842204,0.4846058,0.1292906l-0.2954464,0.8029227l0.3448219,0.7465515l1.8520508,0.6814351
	l0.746685-0.3449554l0.2993469-0.813417c0.1529694,0.0686145,0.3041916,0.1391125,0.4548721,0.211494l-0.4307899,0.7399588
	l0.2098808,0.7951198l1.7056732,0.9926209l0.7953873-0.2098789l0.4345589-0.746686
	c0.1381683,0.0947146,0.274456,0.1910439,0.4098015,0.2881804l-0.5499916,0.6506262l0.0687485,0.8194704l1.5072289,1.2736712
	l0.8197403-0.068614l0.550396-0.651433l0.0971375,0.0925617c0.0898705,0.0866432,0.1773186,0.1724777,0.2614059,0.2558918
	l-0.6522408,0.5433989l-0.0746689,0.8189325l1.2633133,1.5161085l0.8190651,0.0746689l0.6632729-0.5526819
	c0.0974045,0.1354799,0.1929283,0.2728434,0.2868347,0.4106102l-0.739151,0.4233904l-0.2156639,0.7936401l0.9807816,1.7123985
	l0.7937737,0.2157993l0.7518005-0.4306555c0.0727844,0.1508169,0.14328,0.3023062,0.2121658,0.4544687l-0.8050766,0.2899303
	l-0.3502007,0.7439938l0.6685181,1.8566246l0.7442627,0.350338l0.8158417-0.2938309
	c0.0456047,0.160368,0.0886574,0.3220844,0.1306343,0.4846058l-0.8444939,0.1458397l-0.4741135,0.6718826l0.3359413,1.9446106
	l0.6720161,0.4741135l0.851223-0.1469154c0.0157433,0.1654816,0.0302734,0.3323078,0.0433235,0.499136l-0.8524361-0.0029602
	l-0.5834885,0.5793209l-0.0069962,1.973402l0.5795898,0.5837612l0.8629265,0.0030937
	C45.7866592,26.7344646,45.7721291,26.900753,45.7554474,27.0667725z"/>
</svg>
