<?xml version="1.0" encoding="utf-8"?>
<!-- Generator: Adobe Illustrator 18.0.0, SVG Export Plug-In . SVG Version: 6.00 Build 0)  -->
<!DOCTYPE svg PUBLIC "-//W3C//DTD SVG 1.1//EN" "http://www.w3.org/Graphics/SVG/1.1/DTD/svg11.dtd">
<svg version="1.1" id="Layer_1" xmlns="http://www.w3.org/2000/svg" xmlns:xlink="http://www.w3.org/1999/xlink" x="0px" y="0px"
	 width="50px" height="50px" viewBox="0 0 50 50" enable-background="new 0 0 50 50" xml:space="preserve">
<path d="M47.5,23.663908c0-4.135601-9.8831367-7.3755188-22.5-7.3755188S2.5,19.528307,2.5,23.663908
	c0,1.8732815,1.9386992,3.5726528,5.603301,4.9179077c-0.0501451,0.796442,0.6905432,1.6017246,1.8137922,1.9032803
	c0.2742481,0.0736675,0.550684,0.1108646,0.8212852,0.1108646c0.7771578,0,1.3984089-0.3033314,1.676486-0.7901936
	c3.0333214,0.6589966,6.5615282,1.069685,10.2156439,1.1922665c-0.3046074,0.466486-0.5097466,0.962101-0.5766678,1.4006901
	c-0.0773144,0.5083771,0.0386581,0.8942223,0.3260345,1.0853195c0.1181602,0.0787735,0.256012,0.1174316,0.4077244,0.1174316
	c0.2158966,0,0.4602413-0.0795021,0.7184429-0.2363205c0.3887596-0.2363205,0.7775211-0.630188,1.0948029-1.106472
	c0.0167751-0.0247993,0.0605392-0.0714798,0.1137829-0.1312904c0.0739422-0.0836525,0.163929-0.1872692,0.2467136-0.2893829
	c0.08078,0.1694908,0.1684875,0.3388901,0.2740669,0.5023613c0.309988,0.4821243,0.6929131,0.8818245,1.0780277,1.1239815
	c0.2611179,0.1641083,0.5091095,0.247261,0.728653,0.247261c0.1466064,0,0.2800827-0.0372009,0.3960552-0.1123276
	c0.560894-0.361042,0.4595108-1.447094-0.2355919-2.5265808c-0.010849-0.0168209-0.0350094-0.0449486-0.0532436-0.0681057
	c3.5262909-0.1078587,6.9495602-0.4827614,9.9234333-1.0918407c0.2801743,0.4584618,0.8763542,0.743742,1.6097488,0.743742
	c0.3012352,0,0.6075745-0.0466805,0.9109993-0.1393108c0.5674591-0.1721344,1.0576057-0.4850407,1.380722-0.8803654
	c0.2251968-0.2751598,0.3429909-0.5688744,0.3692513-0.8582115C45.3134918,27.4244232,47.5,25.6084881,47.5,23.663908z
	 M12.1001358,29.4129028c-0.1181593,0.4398174-0.6651964,0.7344875-1.3617573,0.7344875
	c-0.2312145,0-0.4689932-0.032093-0.7045841-0.0955486c-0.9576788-0.2567425-1.6301699-0.9839363-1.4682474-1.5871372
	c0.1181602-0.4398174,0.6651974-0.7344875,1.3617582-0.7344875c0.2312136,0,0.4689932,0.032093,0.7045832,0.0955486
	C11.5895681,28.0825081,12.2620592,28.8097038,12.1001358,29.4129028z M24.3798428,31.8290749
	c-0.074398,0.083149-0.1312885,0.1495228-0.1517124,0.1801567c-0.2822704,0.4244995-0.6214333,0.7702293-0.9547615,0.9729958
	c-0.2757072,0.1670303-0.5178623,0.2144394-0.645504,0.1283722c-0.1298294-0.0860672-0.1786995-0.3274918-0.1305599-0.6447754
	c0.0583515-0.3858414,0.2458019-0.8322239,0.5288029-1.2567253c0.0291748-0.0444927,0.1057606-0.1400414,0.1677589-0.2180862
	l0.0846081-0.1079483c0.0485039-0.06423,0.0440369-0.1408157,0.0167751-0.2108364
	c-0.0047417-0.0413933-0.0074768-0.0840626-0.0357399-0.118845c-0.0809612-0.098465-0.1590042-0.2042255-0.2334023-0.3158226
	c-0.2830009-0.4244995-0.4704514-0.870882-0.5288029-1.2567253c-0.0481396-0.3172817,0.0007305-0.5587082,0.1305599-0.6447754
	c0.1298294-0.0867958,0.3697968-0.0393867,0.645504,0.1283722c0.3333282,0.2027683,0.6724911,0.5484962,0.955492,0.9729958
	c0.0428505,0.0639591,0.0864315,0.1330223,0.1303768,0.2003078c-0.3702526,0.1975708-0.6256294,0.5833683-0.6256294,1.03162
	c0,0.4843102,0.2949448,0.9006062,0.7145233,1.0793953C24.4254284,31.774416,24.4002647,31.8061447,24.3798428,31.8290749z
	 M24.730402,29.979269c0.0540657-0.0108967,0.1087685-0.0207424,0.1663895-0.0186005
	c0.0714798,0.0027351,0.1402245,0.0161381,0.2046833,0.0383835l-0.2125225,0.0946388l-0.1974812-0.1065369
	C24.7038708,29.9831886,24.7175465,29.9825954,24.730402,29.979269z M24.1814499,30.6693554
	c0-0.0709782,0.0215168-0.1353455,0.0404816-0.2002163l0.1042099,0.1665287l-0.1138744,0.1857643
	C24.2010517,30.7708302,24.1814499,30.7232838,24.1814499,30.6693554z M24.4259758,30.6400433l0.0393867-0.0413017
	l-0.002552,0.0855656L24.4259758,30.6400433z M24.4597092,30.7949467l-0.005106,0.1783791l-0.1909161-0.0962791l0.110321-0.180294
	L24.4597092,30.7949467z M24.3760128,30.5780468l-0.0937252-0.1498432l0.1905518-0.0948658l-0.0044689,0.1553593
	L24.3760128,30.5780468z M24.2374306,30.9452896l0.2213669,0.1117325l0.0621796,0.2103825
	C24.398077,31.1877193,24.2940483,31.08214,24.2374306,30.9452896z M24.5385742,31.0698776l0.166481,0.0062466l0.094183,0.1053486
	l-0.2020397,0.0868435L24.5385742,31.0698776z M24.5360222,30.8825169l0.1031151,0.1182976l-0.0014572-0.0000916
	l-0.0981026-0.0036926L24.5360222,30.8825169z M24.7388802,31.0045986l-0.2056847-0.2359104l0.007019-0.2421093l0.0001831-0.0062904
	l0.2046833-0.1978455l0.2824535,0.0145874l0.0726643,0.0774975l0.1098633,0.1172943l-0.0107574,0.1890011l-0.0062008,0.1080399
	l-0.2020378,0.1853085L24.7388802,31.0045986z M25.2437954,31.0888424l0.2530975-0.0758114
	c-0.0768604,0.1413193-0.1994877,0.2533703-0.3476429,0.3167343L25.2437954,31.0888424z M25.1820717,31.021328l-0.0836048-0.003191
	l-0.0040112-0.0000916l0.0926304-0.0849266v0.0016403l-0.0001812,0.0025082L25.1820717,31.021328z M25.2124329,30.4277935
	l-0.0771332-0.082283l0.0784092,0.0064278L25.2124329,30.4277935z M25.3433571,30.6826668l-0.0731201,0.0713425l0.0067463-0.1167927
	l0.0015507-0.0281715L25.3433571,30.6826668z M25.2844601,30.5054264l0.0077496-0.1352997l0.1942883,0.0979652l-0.088438,0.1666183
	L25.2844601,30.5054264z M25.3904934,30.738327l0.0782261,0.2070999l-0.2130699,0.0638657l0.0083866-0.1467876v-0.0007286
	L25.3904934,30.738327z M25.4505768,30.6910553l0.1081295-0.20368c0.0184174,0.0679226,0.0271702,0.1395397,0.0242538,0.2135715
	c-0.0029182,0.0781345-0.0188732,0.1526241-0.0448589,0.2221432L25.4505768,30.6910553z M25.2876511,30.2862015l0.0000896-0.0011845
	l-0.0009117-0.0000916l-0.1080399-0.2540073c0.1606464,0.0775414,0.2871037,0.213253,0.3534775,0.3787766L25.2876511,30.2862015z
	 M25.2027683,30.2732086l-0.1422291-0.0073833l-0.1115952-0.1191635l0.1681213-0.0748978L25.2027683,30.2732086z
	 M24.9504013,30.2600803l-0.1289177-0.0066547l0.0641861-0.0572567L24.9504013,30.2600803z M24.7172737,30.248045
	l-0.0004559,0.0003662l-0.1423206-0.00383l0.1023865-0.1825275l0.1494312,0.0805511L24.7172737,30.248045z M24.6402321,30.322443
	l-0.093544,0.0905342l0.0056534-0.0897141L24.6402321,30.322443z M24.9107418,31.0839176l-0.0569839,0.0492344l-0.0475922-0.0531998
	L24.9107418,31.0839176z M25.0175056,31.0880222l0.1462402,0.0054703l-0.0756721,0.1927834l-0.1838055-0.1006088
	L25.0175056,31.0880222z M24.6261921,30.0033836l-0.133934,0.2390556l-0.2349529,0.1168823
	c0.0663738-0.1384449,0.1762371-0.2475796,0.3107185-0.3204727C24.5887184,30.0289574,24.6044922,30.0113163,24.6261921,30.0033836z
	 M24.6232738,31.3363762l0.2265644-0.0973263l0.218998,0.1197548c-0.0661011,0.0193291-0.1364861,0.0270329-0.2086945,0.0261669
	C24.7773552,31.3794556,24.6962128,31.367466,24.6232738,31.3363762z M27.1959896,33.2229233
	c-0.1305599,0.0816917-0.3712559,0.0335541-0.6440449-0.1378517c-0.33041-0.2086029-0.6644688-0.5587082-0.9401741-0.9868546
	c-0.0783176-0.1219444-0.1400433-0.2478542-0.2033157-0.3731251c0.3953247-0.1887283,0.6708488-0.5890675,0.6708488-1.0557365
	c0-0.4546337-0.2623959-0.8453541-0.6412182-1.0401459c0.059536-0.0994225,0.1189804-0.1961117,0.1736851-0.2807655
	c0.2757053-0.4281483,0.6097641-0.7789822,0.9409027-0.9868565c0.2720604-0.1721325,0.5142155-0.2239189,0.6425858-0.1385822
	c0.2866478,0.1852646,0.1889114,1.0401001-0.3690662,1.9073372c-0.1086788,0.1692162-0.2290268,0.3282223-0.3566685,0.4733696
	c-0.0156822,0.0179596-0.0121269,0.0418472-0.0211525,0.0625896c-0.0121269,0.0270786-0.0258923,0.0491409-0.0266228,0.0785904
	c-0.0010929,0.0294037,0.0111237,0.0521965,0.0213356,0.0799141c0.007658,0.0211048,0.002552,0.0446281,0.0169563,0.063364
	c0.0306358,0.0393867,0.0911732,0.1072197,0.1568184,0.1808872c0.0816898,0.0911732,0.1743221,0.1925564,0.2093334,0.2465305
	C27.3848991,32.1835556,27.4819069,33.0383911,27.1959896,33.2229233z M40.6277542,29.3530941
	c-0.2676811,0.3274918-0.6812439,0.5886116-1.164093,0.7352161c-0.2618484,0.079504-0.5244255,0.1203499-0.7811699,0.1203499
	c-0.6651955,0-1.1772232-0.2720604-1.3048668-0.6914558c-0.0846062-0.277895,0.0051079-0.5973644,0.2516365-0.8993282
	c0.2676849-0.3274937,0.6812439-0.5886135,1.1640968-0.735218c0.2618484-0.079504,0.5244255-0.120348,0.7811699-0.120348
	c0.6651955,0,1.1772232,0.2720585,1.304863,0.6914539C40.9640007,28.7316589,40.8742867,29.0511284,40.6277542,29.3530941z
	 M41.1754303,28.0453091c-0.2835464-0.4505749-0.8746223-0.7308407-1.6009026-0.7308407
	c-0.3012352,0-0.6075783,0.0466805-0.9109993,0.1393127c-0.5674591,0.1721344-1.0576057,0.4850388-1.380722,0.8803635
	c-0.2228279,0.2723351-0.3400764,0.5628109-0.3681564,0.8492756c-2.8901787,0.5906639-6.2136116,0.9572697-9.642622,1.0692749
	c0.6257191-1.0380478,0.7054043-2.0577698,0.1661167-2.4060516c-0.2888355-0.1874504-0.6885376-0.1393108-1.1247082,0.1356659
	c-0.3851147,0.2421551-0.7680397,0.6411266-1.0780277,1.1232491c-0.0762215,0.1177959-0.1616497,0.2574272-0.2435226,0.3988819
	c-0.0287209-0.0020981-0.0560722-0.0086613-0.0854301-0.0086613c-0.0334606,0-0.0650063,0.0071106-0.0978279,0.0098915
	c-0.0687447-0.1074924-0.1394024-0.2156239-0.2070541-0.3169613c-0.3180103-0.477747-0.7067719-0.8708839-1.0955315-1.1072044
	c-0.4383602-0.267683-0.8387909-0.3114452-1.1261673-0.1188889c-0.2873764,0.1910992-0.4033489,0.5769424-0.3260345,1.0853214
	c0.0572567,0.3754501,0.2191792,0.792202,0.4543152,1.1972828c-3.5649509-0.1272774-6.9998875-0.5303535-9.9534321-1.1727562
	c-0.0872526-0.7190819-0.7883711-1.4067059-1.8061342-1.6799526c-0.2742472-0.0736675-0.550684-0.1108646-0.8212843-0.1108646
	c-0.6741323,0-1.2315636,0.2280235-1.5495739,0.6057968c-3.3082981-1.2118225-5.1308432-2.7099762-5.1308432-4.2235355
	c0-3.5929394,9.9619102-6.6286316,21.7531128-6.6286316s21.7531128,3.0356922,21.7531128,6.6286316
	C46.7531128,25.2297096,44.7207794,26.8235931,41.1754303,28.0453091z"/>
</svg>
