<?xml version="1.0" encoding="utf-8"?>
<!-- Generator: Adobe Illustrator 18.0.0, SVG Export Plug-In . SVG Version: 6.00 Build 0)  -->
<!DOCTYPE svg PUBLIC "-//W3C//DTD SVG 1.1//EN" "http://www.w3.org/Graphics/SVG/1.1/DTD/svg11.dtd">
<svg version="1.1" id="Layer_1" xmlns="http://www.w3.org/2000/svg" xmlns:xlink="http://www.w3.org/1999/xlink" x="0px" y="0px"
	 width="50px" height="50px" viewBox="0 0 50 50" enable-background="new 0 0 50 50" xml:space="preserve">
<g>
	<path fill="#020202" d="M40.7369995,23.59972c-0.7246056-0.4186401-1.6222115-0.2591362-2.1662102,0.3325958
		c-0.0536194-0.1829643-0.2159309-0.3192348-0.4161034-0.3192348c-0.2432899,0-0.4405632,0.1972733-0.4405632,0.4405613
		c0,0.2433319,0.1972733,0.4405594,0.4405632,0.4405594c0.0280762,0,0.0523529-0.0109596,0.0789795-0.0159416
		c-0.3142967,0.795166-0.0143089,1.7204876,0.7488823,2.1607761c0.8396378,0.484354,1.9122353,0.1970024,2.3969955-0.6426792
		C41.8643074,25.1574879,41.5769997,24.084074,40.7369995,23.59972z M39.4098854,24.1236572
		c0.3050575,0.1764412,0.4090385,0.5659618,0.2333221,0.8702068c-0.1764412,0.3050137-0.5655556,0.4089031-0.8700714,0.2332783
		c-0.3050613-0.1763973-0.4094048-0.5659637-0.2333221-0.870163C38.7157097,24.0519199,39.1053696,23.9480305,39.4098854,24.1236572
		z M40.8226852,25.6752644c-0.3729897,0.6455345-1.199585,0.8677177-1.8459358,0.4942284
		c-0.5807724-0.3351307-0.8166313-1.0363235-0.5881996-1.6434994c-0.0902138,0.3503475,0.0579681,0.7324867,0.38694,0.9225159
		c0.3958168,0.2287941,0.9021378,0.0927486,1.1303864-0.3025684c0.2287941-0.3961334,0.0931129-0.902317-0.3025208-1.1311111
		c-0.3293343-0.1892128-0.734211-0.1273956-0.9930763,0.1265354c0.4123039-0.5016556,1.1372719-0.6471653,1.7176819-0.3124428
		C40.9739456,24.2023678,41.1953125,25.0284634,40.8226852,25.6752644z"/>
	<path fill="#020202" d="M41.8219185,19.3023071c-0.8559418-0.2287483-1.7269211,0.2199173-2.0629539,1.0135441
		c-0.0697441-0.1515789-0.2208252-0.2581425-0.3985367-0.2581425c-0.1188354,0-0.2258949,0.0481873-0.3052406,0.1247234
		c0.2188339-1.0250015,0.3423767-2.086277,0.3423767-3.1779881c0-0.0394459-0.0036201-0.0784836-0.0039825-0.1178837
		c0.079525,0.0773525,0.1873093,0.1258545,0.3068695,0.1258545c0.1309738,0,0.2452774-0.0596886,0.3260727-0.1503544
		c0.115757,0.8572083,0.8423538,1.5201778,1.7310829,1.5201778c0.969162,0,1.7551804-0.7856998,1.7551804-1.7552223
		c0-0.9695692-0.785656-1.7552233-1.7551804-1.7552233c-0.8557587,0-1.566597,0.6132879-1.7214813,1.4242144
		c-0.0807953-0.0982761-0.1983604-0.1647129-0.3356743-0.1647129c-0.1315155,0-0.2460022,0.0603237-0.3267975,0.1517143
		c-0.0461922-0.9882727-0.1880341-1.9635477-0.4217224-2.9142761c0.0764465,0.0638561,0.1713715,0.1068344,0.278614,0.1068344
		c0.2103157,0,0.3778801-0.1503563,0.4217186-0.3474941c0.3925552,0.6552706,1.1785736,1.0044851,1.9531784,0.7968407
		c0.936554-0.2502155,1.4919624-1.2123575,1.2412491-2.1497259c-0.2507133-0.9357386-1.2131729-1.4910135-2.1497269-1.2399826
		c-0.9291267,0.2483587-1.4810944,1.1981363-1.2441483,2.1280327c-0.0662994-0.0397625-0.1393051-0.0687923-0.222271-0.0687923
		c-0.1822395,0-0.3383942,0.1107292-0.4054184,0.2684669c-0.0436592-0.1556091-0.0885849-0.3118525-0.1355019-0.458993
		c-0.0246353-0.084054-2.4998932-8.3460159-10.6263523-8.3460159c-0.1210079,0-0.2434673,0.0014491-0.3673744,0.0057969
		c-0.114851,0.0034418-0.2277069,0.0154881-0.3421955,0.0204248c0.0503597-0.6473906-0.0192013-1.058152-0.2143021-1.2957323
		c-0.306509-0.3695493-0.8202553-0.3159282-1.5745697,0.2862196c-0.289299,0.2303796-0.4889278,0.4440477-0.6327629,0.6463034
		c-0.0697422-0.0975049-0.144558-0.1913412-0.2244473-0.278928c-0.047823-0.0521717-0.0927486-0.101445-0.1369495-0.1579642
		C24.4619789,3.1528702,23.8909893,2.5,23.3431873,2.5c-0.3572311,0-0.7854729,0.242743-0.7977905,1.3977656
		c-0.0032616,0.3145695,0.0021725,0.591188,0.014492,0.8414493c-6.0906792,1.41185-10.9207239,4.842906-11.4480562,8.6139383
		c-0.0349617,0.2512579-0.076808,0.5035563-0.1182919,0.7560368c-0.002717-0.2409773-0.197998-0.4357605-0.4396544-0.4357605
		c-0.092207,0-0.1730003,0.0349169-0.2438307,0.083375c0.0427523-0.8107443-0.4822254-1.5684557-1.2975883-1.7866526
		c-0.9370975-0.2510309-1.8986497,0.3041983-2.1497259,1.240798c-0.2507138,0.9357386,0.3050594,1.898242,1.2416124,2.149725
		c0.863369,0.2307873,1.7414103-0.2282963,2.0709257-1.0346012c0.0755396,0.1340523,0.2137585,0.2284775,0.3786068,0.2284775
		c0.2298813,0,0.4126625-0.1779814,0.4329519-0.4026098c-0.0094194,0.0580139-0.0175714,0.1155291-0.027173,0.1736336
		c-0.1420221,0.861557-0.2898426,1.7528229-0.2898426,2.6788692c0,0.2527065,0.0246372,0.4989834,0.0367737,0.7486095
		c-0.0751772-0.1352749-0.2141209-0.2305145-0.3798742-0.2305145c-0.1534357,0-0.2818718,0.083147-0.3608541,0.2021198
		c-0.1470947-0.8203907-0.8604698-1.4438248-1.7234764-1.4431c-0.9698853-0.0008144-1.7551775,0.7848854-1.7551775,1.7544079
		c0,0.968708,0.7860169,1.7552223,1.7551775,1.7552223c0.9059391,0,1.6430454-0.6891441,1.7363386-1.5707188
		c0.0802498,0.1083279,0.2027082,0.1831894,0.3479919,0.1831894c0.178072,0,0.3296957-0.1069698,0.3992577-0.2590923
		c0.0842361,1.1306114,0.2796984,2.2293415,0.5978003,3.2751751c-0.0789824-0.07477-0.1842308-0.1222763-0.3014364-0.1222763
		c-0.1972733,0-0.3581362,0.1319237-0.4142933,0.3105392c-0.3340435-0.7970219-1.2070131-1.2483616-2.0651283-1.0183449
		c-0.9365535,0.2510757-1.4921451,1.2123566-1.2412505,2.1497707c0.2507138,0.9357395,1.2131724,1.4909687,2.1497264,1.2407532
		c0.858839-0.2302895,1.3888884-1.0592842,1.2785673-1.9177608c0.0780764,0.0703316,0.178978,0.1161633,0.2923784,0.1161633
		c0.2269831,0,0.4070482-0.1739063,0.4311409-0.394413c0.36339,1.0918465,0.8467026,2.1241837,1.4349022,3.0846043
		c-0.0733671-0.0547085-0.1597757-0.0932026-0.2585039-0.0932026c-0.2231789,0-0.4003448,0.1689243-0.4291477,0.384449
		c-0.5345783-0.6568546-1.4765663-0.8516846-2.2332363-0.4143391c-0.8400002,0.4839458-1.1276693,1.5569534-0.6425447,2.3966351
		c0.4843988,0.8388691,1.5577221,1.1262207,2.3973598,0.6418667c0.7622862-0.4404716,1.0620918-1.3642082,0.7488804-2.1595535
		c0.0496359,0.0192471,0.1025324,0.0320625,0.1586885,0.0320625c0.2434683,0,0.4405613-0.1972733,0.4405613-0.4405594
		c0-0.0209236-0.009058-0.0388584-0.011775-0.0590115c0.5932713,0.9218369,1.2874441,1.7660923,2.0605993,2.5279255
		c-0.0262671-0.0048447-0.0501795-0.0157146-0.0778952-0.0157146c-0.2329607,0-0.4190035,0.1826916-0.4345827,0.4117584
		c-0.6796808-0.4372101-1.5939531-0.3601761-2.1881304,0.2348175c-0.6854773,0.6855221-0.6854773,1.7964802,0,2.4824104
		c0.6851158,0.6842995,1.796299,0.6851158,2.4819584-0.0008163c0.6148281-0.614872,0.6729774-1.5703125,0.1842308-2.2558346
		c0.2219105-0.022871,0.3970842-0.2038403,0.3970842-0.4317741c0-0.0372276-0.0123186-0.0704231-0.0210133-0.1049328
		c0.7994213,0.7391434,1.6718483,1.3945961,2.6170959,1.9361935c-0.1912956,0.0480061-0.3360348,0.2132149-0.3360348,0.4194565
		c0,0.093338,0.0355053,0.1750832,0.0851402,0.2463207c-0.7977905-0.3216343-1.7298164-0.0229149-2.1712828,0.7441711
		c-0.4847612,0.8396816-0.1974554,1.9126873,0.6421824,2.3974972c0.838913,0.4839439,1.9131413,0.1965942,2.3969975-0.6426811
		c0.4579525-0.7929916,0.2204628-1.7882385-0.5142879-2.305109l0.0018101,0.0003624
		c0.2434673,0,0.4405613-0.1972294,0.4405613-0.4405613c0-0.0527153-0.0130424-0.101717-0.0298901-0.1485901
		c0.9439812,0.4906044,1.9461117,0.8736954,2.9946175,1.141119c-0.099453,0.0807953-0.1666603,0.1989059-0.1666603,0.3368969
		c0,0.1273041,0.0556145,0.2398453,0.1420231,0.3202782c-0.8738747-0.1346874-1.7278233,0.3981247-1.9616909,1.2720451
		c-0.2505322,0.936554,0.3043346,1.8986931,1.241251,2.1497269c0.935648,0.2502136,1.8982868-0.3050613,2.1493626-1.2416153
		c0.2320557-0.8682137-0.2329597-1.7511902-1.0481415-2.0764503c0.2025261-0.0397148,0.3583164-0.2098179,0.3583164-0.4239845
		c0-0.0602322-0.0124989-0.1175671-0.0344181-0.1698284c0.8959751,0.1808796,1.8194866,0.2814178,2.7658215,0.2814178
		c0.0463753,0,0.0909386-0.0067024,0.1373138-0.0071545c-0.0269909,0.0570164-0.0445633,0.1189709-0.0445633,0.1861782
		c0,0.1484089,0.0780754,0.2731762,0.1905708,0.3530178c-0.8421726,0.1002235-1.5113468,0.7941246-1.5454044,1.6685867
		c-0.0345993,0.889183,0.6005192,1.6415977,1.453743,1.7897339c-0.1764431,0.0963745-0.3007126,0.2770271-0.3007126,0.4922333
		c0,0.2128525,0.122097,0.3912888,0.2952766,0.4885674c-2.6372032,0.1216431-4.738018,2.2913857-4.738018,4.9588432
		c0,2.7456245,2.2238159,4.9705734,4.9695301,4.9705734c2.7431793,0,4.9680824-2.2249489,4.9680824-4.9705734
		c0-2.6413269-2.0607796-4.7948112-4.6597614-4.9549484c0.1768036-0.0963287,0.3010731-0.2770729,0.3010731-0.4924622
		c0-0.2070999-0.1162987-0.3803711-0.2818718-0.4796448c0.8202553-0.1193771,1.4658794-0.8069382,1.4992104-1.6657791
		c0.0351429-0.8979683-0.6133785-1.6559067-1.4787407-1.7932625c0.1222782-0.0783043,0.2081432-0.2088699,0.2081432-0.3648853
		c0-0.0845528-0.0300713-0.1590519-0.071373-0.2261219c1.0182533-0.0656681,2.006979-0.2374458,2.9573002-0.511301
		c-0.0088768,0.0350533-0.0215588,0.068882-0.0215588,0.1067429c0,0.2250824,0.1713696,0.4036522,0.3892956,0.430191
		c-0.7646408,0.3498478-1.1910725,1.2057438-0.9668064,2.0455189c0.2514381,0.936554,1.2137165,1.4922333,2.1497269,1.2407494
		c0.9361916-0.2502136,1.4917831-1.2123108,1.2408886-2.1488647c-0.2425632-0.9069786-1.1532116-1.4498901-2.0613251-1.2557869
		c0.0798874-0.079752,0.129343-0.1899834,0.129343-0.3118076c0-0.1321945-0.0610485-0.2471352-0.1532555-0.3278847
		c1.0035801-0.3479462,1.9539013-0.8101082,2.844986-1.3662891c-0.0059776,0.0289383-0.0173912,0.0557938-0.0173912,0.0865002
		c0,0.23699,0.1882172,0.4270191,0.4226265,0.4369373c-0.6447182,0.5364799-0.8323898,1.4710865-0.3990746,2.2222328
		c0.4842186,0.8392754,1.5577202,1.1273956,2.3969955,0.6426353c0.838913-0.4847641,1.1265831-1.5577698,0.6421852-2.3974972
		c-0.4525185-0.7833004-1.4160652-1.0775814-2.2249069-0.7199421c0.026268-0.0564747,0.0432968-0.1179295,0.0432968-0.1843662
		c0-0.2052002-0.1432915-0.3699131-0.3331375-0.418869c0.8831139-0.6061783,1.6915932-1.3147984,2.4229012-2.1017647
		c0.008152,0.2361755,0.1994476,0.4260216,0.437664,0.4260216c0.0480042,0,0.092205-0.0130863,0.1353188-0.0273075
		c-0.5494308,0.6894169-0.5132027,1.6918659,0.1244507,2.3296089c0.6851158,0.6851158,1.7964821,0.6851158,2.4819603,0
		c0.685112-0.6851158,0.6854744-1.796072,0-2.4820023c-0.6376534-0.6374283-1.6394234-0.6738853-2.3285255-0.1252213
		c0.0141296-0.0433407,0.0273552-0.0875416,0.0273552-0.1356373c0-0.2432861-0.1972733-0.4405613-0.4405594-0.4405613
		c-0.0155792,0-0.0288048,0.0072918-0.0438385,0.0088768c1.4897881-1.7386932,2.5844879-3.8359299,3.1529427-6.1524506
		c0.0547066,0.181242,0.2162933,0.3158379,0.4153786,0.3158379c0.1009026,0,0.1893044-0.0397644,0.2635765-0.096735
		c-0.0755386,0.8344288,0.4521561,1.6267414,1.2894363,1.8507347c0.9360123,0.25103,1.8986511-0.3041992,2.1495476-1.240797
		C43.3137016,20.5158863,42.7584724,19.553791,41.8219185,19.3023071z M40.9833679,17.4547424
		c0.4572258,0,0.8278618-0.3701839,0.8282242-0.8277264c-0.0003624-0.4571819-0.370636-0.8277273-0.8282242-0.8277273
		c-0.3800583,0-0.6990662,0.2567816-0.7963448,0.6063585c0.1059761-0.6410036,0.6612053-1.1294794,1.3311043-1.1294794
		c0.7459793,0,1.3508453,0.605545,1.3508453,1.3508482c0,0.7465248-0.604866,1.3508472-1.3508453,1.3508472
		c-0.669899,0-1.2251282-0.4884758-1.3311043-1.1286659C40.2839394,17.1979141,40.6033096,17.4547424,40.9833679,17.4547424z
		 M40.2335815,16.6270161c-0.0003624-0.3516159,0.2853127-0.6368847,0.6369286-0.6368847
		c0.3519745,0,0.637291,0.2848167,0.637291,0.6368847c0,0.3520222-0.2853165,0.6368828-0.637291,0.6368828
		C40.5185318,17.2647152,40.2335815,16.9790382,40.2335815,16.6270161z M40.1297798,11.8444328
		c0.340023-0.0919352,0.6896439,0.1104565,0.7807617,0.4501162c0.0909386,0.3397045-0.1108627,0.6892366-0.4507027,0.7803555
		c-0.340023,0.0919342-0.6894646-0.1104574-0.7807655-0.450161C39.5881386,12.2850838,39.7901192,11.9355068,40.1297798,11.8444328z
		 M40.5707016,10.9874048c0.720623-0.1933346,1.461895,0.2349987,1.6551819,0.9547138
		c0.1929283,0.7213907-0.2345886,1.4621649-0.9552116,1.6554985c-0.6483421,0.1726828-1.3108139-0.1558352-1.5787354-0.7465706
		c0.1838684,0.3124866,0.5590324,0.4773798,0.9262276,0.379241c0.4414673-0.1182919,0.7032318-0.5725746,0.5854836-1.0136337
		c-0.1188354-0.4418745-0.5726204-0.7036381-1.0137253-0.5853462c-0.3673744,0.098094-0.6097565,0.4291029-0.6126556,0.7914515
		C39.5138664,11.7764101,39.9236298,11.1609478,40.5707016,10.9874048z M8.4391222,15.0321112
		c-0.7206206-0.1933336-1.1477761-0.934062-0.9548497-1.6546383c0.1932888-0.7213907,0.9341989-1.1488628,1.65482-0.9555292
		c0.6474352,0.1739511,1.056838,0.7898207,0.9937973,1.4353542c-0.0041666-0.363163-0.2461853-0.6933575-0.6130171-0.7914505
		c-0.4414663-0.1183376-0.8957949,0.1442413-1.0140867,0.5853453c-0.1173859,0.4418745,0.1441975,0.8953419,0.5854826,1.0136337
		c0.3675566,0.0981388,0.7423592-0.0667543,0.9262276-0.37924C9.7495728,14.876729,9.0865583,15.2048397,8.4391222,15.0321112z
		 M10.0301771,14.0592823c-0.0907574,0.3400669-0.4407425,0.5420513-0.78022,0.4509773
		c-0.3402023-0.0911198-0.5412807-0.4411049-0.4510679-0.7803564c0.0914822-0.3404741,0.4407425-0.5416431,0.7807636-0.4509764
		C9.9196739,13.3700457,10.1209335,13.7192154,10.0301771,14.0592823z M9.0160904,17.2082405
		c-0.4570456,0-0.8280439,0.3701839-0.8280439,0.8277264c0.0003624,0.4571819,0.370636,0.8277264,0.8280439,0.8277264
		c0.3802366,0,0.6992455-0.2567825,0.7965231-0.6063595c-0.1059732,0.6410046-0.6612034,1.1294804-1.3311014,1.1294804
		c-0.7465258,0-1.3504853-0.6047287-1.3508472-1.3508472c0-0.7465248,0.6052275-1.3508472,1.3508472-1.3508472
		c0.6706228,0,1.2254906,0.4884758,1.3314638,1.1286659C9.7156973,17.4642067,9.396327,17.2082405,9.0160904,17.2082405z
		 M9.7658768,18.0359669c0.0005436,0.3520222-0.28477,0.6368847-0.6367483,0.6368847
		c-0.3519773,0.0008144-0.637291-0.2848167-0.637291-0.6368847c0.0003624-0.3520222,0.2853136-0.6368828,0.6367483-0.6368828
		C9.4811068,17.3982677,9.7658768,17.6839447,9.7658768,18.0359669z M10.0182209,22.6710014
		c-0.3400211,0.091074-0.6892815-0.1113167-0.7807636-0.4509754c-0.0905752-0.3397045,0.1114082-0.6892376,0.4505243-0.7803574
		c0.3405647-0.0919342,0.6898251,0.1105042,0.7807636,0.4501629C10.5604076,22.2298985,10.358242,22.5790672,10.0182209,22.6710014z
		 M9.5776606,23.5271702c-0.7209835,0.1933327-1.4613504-0.2341385-1.6551824-0.9547138
		c-0.1929264-0.7213917,0.234591-1.4621201,0.9552121-1.6554546c0.6483421-0.1727276,1.310813,0.1557903,1.5790987,0.7465267
		c-0.1842318-0.3124866-0.5588531-0.4773808-0.9262285-0.3792419c-0.4414663,0.1182919-0.7041359,0.5725746-0.5856628,1.0144482
		c0.1186543,0.4411049,0.5724392,0.7028694,1.0135431,0.5845318c0.3677378-0.098093,0.6097565-0.4291019,0.6126547-0.7914505
		C10.6344986,22.7381649,10.2247334,23.3536263,9.5776606,23.5271702z M12.1639614,25.5025368
		c0.1768036,0.3050137,0.0717363,0.6949883-0.2325983,0.8702068c-0.3050594,0.1763973-0.6945353,0.0716915-0.870615-0.2325077
		c-0.1755362-0.3050594-0.0713739-0.6949883,0.2329607-0.8702068
		C11.5987682,25.0935879,11.9886065,25.1982937,12.1639614,25.5025368z M11.7273855,27.3154564
		c-0.646348,0.3726749-1.4720373,0.1513081-1.8459339-0.4950409c-0.3728104-0.6463947-0.1514425-1.4724903,0.4941816-1.8455276
		c0.581315-0.3355389,1.306284-0.1888046,1.718585,0.3120327c-0.2588663-0.253521-0.6637402-0.3165607-0.9930735-0.1257191
		c-0.3958158,0.228796-0.5313177,0.7349777-0.3025227,1.1302967c0.2287941,0.3961773,0.7342072,0.5313625,1.1302042,0.3025684
		c0.3293343-0.1900291,0.4775162-0.5717144,0.3871212-0.9225159C12.5443792,26.279541,12.3077955,26.9799194,11.7273855,27.3154564z
		 M14.737401,29.3806763c-0.2490835,0.2489929-0.6525087,0.2489929-0.9015913,0
		c-0.2485409-0.2493553-0.2485409-0.6529617,0-0.9010944c0.2490826-0.2493992,0.6525078-0.2489929,0.9012289,0
		C14.9859409,28.7277145,14.9859409,29.1317272,14.737401,29.3806763z M14.7839565,30.3436317
		c-0.5276947,0.5272427-1.3825483,0.5272427-1.9106054,0c-0.5276947-0.5280571-0.5276947-1.3838158-0.0003624-1.9114666
		c0.4747982-0.4740276,1.2126284-0.5202217,1.7403231-0.1434269c-0.3161097-0.178072-0.7229757-0.1335526-0.9914427,0.1351852
		c-0.3231745,0.3236275-0.3235369,0.8479252-0.0003624,1.1707363c0.3235369,0.3235836,0.8474274,0.3227673,1.1706018,0
		c0.2688284-0.2687836,0.3133917-0.6764641,0.1347771-0.9918041C15.3049488,29.1309128,15.2580299,29.8691959,14.7839565,30.3436317
		z M18.4651375,32.6970177c-0.3731728,0.6455345-1.1992226,0.8673096-1.8459339,0.4942284
		c-0.6459866-0.3734474-0.8673544-1.199543-0.4943638-1.8454838c0.3356743-0.5808163,1.0360069-0.8166313,1.6439514-0.5890598
		c-0.3510723-0.0903034-0.7329388,0.0581055-0.9229679,0.3870754c-0.2284317,0.3961334-0.093111,0.9023151,0.3030682,1.1311092
		c0.3959961,0.2279816,0.9019527,0.0927505,1.1302032-0.303381c0.1900291-0.32938,0.1278934-0.7341633-0.1264439-0.9926205
		C18.6542606,31.3910961,18.7997246,32.1157913,18.4651375,32.6970177z M17.9374428,30.9091873
		c0.3050594,0.1752186,0.4092216,0.5651932,0.2333241,0.8693924c-0.1764412,0.3058739-0.5655556,0.4097633-0.870615,0.2333221
		c-0.3041534-0.1764412-0.4088593-0.5659618-0.2329597-0.8702068C17.2432709,30.8366356,17.6332893,30.73279,17.9374428,30.9091873z
		 M22.6635075,33.8549385c-0.1932888,0.7205772-0.9340172,1.1480484-1.6550007,0.9555283
		c-0.7206211-0.194149-1.14814-0.9349213-0.9552135-1.6546364c0.1735439-0.6480255,0.7894592-1.0569763,1.4349022-0.9938889
		c-0.3623028,0.0033073-0.6929054,0.2456856-0.7909069,0.6125641c-0.1182938,0.4410591,0.1438332,0.89534,0.5853004,1.0136337
		c0.4414654,0.1183357,0.8948879-0.1434288,1.0135422-0.5853462c0.0981846-0.3672867-0.0666637-0.7424049-0.3791504-0.9258194
		C22.5084419,32.5448952,22.8363247,33.2077293,22.6635075,33.8549385z M21.6907234,32.2646103
		c0.3405647,0.0902557,0.5416431,0.4406509,0.4508858,0.7794952c-0.0914822,0.3404732-0.4405613,0.5416412-0.7807636,0.4509735
		c-0.3400211-0.0907097-0.5410995-0.4402428-0.4505234-0.7803535C21.001442,32.3742523,21.3505211,32.1730804,21.6907234,32.2646103
		z M29.2766266,41.0545807c0,2.1140862-1.7147808,3.8253784-3.8251972,3.8253784
		c-2.1142197,0-3.8266449-1.712471-3.8266449-3.8253784c0.0010853-1.8992386,1.3856277-3.4705009,3.1973248-3.7705345
		c-0.9898129,0.2755318-1.7147808,1.1813812-1.7147808,2.2576485c0,1.292244,1.0483246,2.3440552,2.344101,2.3440552
		c1.2921543,0,2.3439198-1.0506325,2.3439198-2.3440552c0-1.0762672-0.7273235-1.9809837-1.7171345-2.2576485
		C27.8933525,37.5852585,29.2766266,39.1564751,29.2766266,41.0545807z M25.4514294,37.4159698
		c0.9968777,0,1.803545,0.808979,1.803545,1.8059006c0,0.9968758-0.8066673,1.8035469-1.803545,1.8035469
		c-0.9970589,0-1.8059006-0.8066711-1.8059006-1.8035469C23.6455288,38.2249489,24.4543705,37.4159698,25.4514294,37.4159698z
		 M26.8843384,33.8841934c-0.0289841,0.7459373-0.6577606,1.3262558-1.4024754,1.2972717
		c-0.7459812-0.0290756-1.3267536-0.6568565-1.2975883-1.4024277c0.0264473-0.6701279,0.5365715-1.2055664,1.1800213-1.2864952
		c-0.3530655,0.0836029-0.6213493,0.39328-0.6362038,0.7730637c-0.0177536,0.4559593,0.3378468,0.8414955,0.7948933,0.8592949
		c0.4559574,0.0177498,0.841629-0.3385277,0.8593826-0.7948952c0.0146732-0.3797836-0.2295189-0.7090263-0.5747948-0.8202095
		C26.443779,32.640995,26.9104252,33.2144318,26.8843384,33.8841934z M25.5843945,32.5477028
		c0.3517971,0.0137215,0.6253357,0.3102226,0.6115685,0.6620178c-0.013586,0.3517532-0.3094063,0.6252899-0.6612034,0.6116142
		c-0.3516159-0.0136757-0.6260605-0.3094521-0.6122932-0.6612015
		C24.9362354,32.8083344,25.2325993,32.5340271,25.5843945,32.5477028z M31.2332439,32.7905807
		c0.1932888,0.7213936-0.2349529,1.4621658-0.955574,1.6555023c-0.7206211,0.1933327-1.4613495-0.2350006-1.6546383-0.9555321
		c-0.1735439-0.6476173,0.1554279-1.3104477,0.7465248-1.5784187c-0.3124847,0.1842766-0.4773331,0.5585823-0.3793297,0.9258652
		c0.1182919,0.4418755,0.5726185,0.70364,1.0137234,0.5853462c0.4411049-0.1182899,0.7035923-0.5717583,0.5853004-1.0136337
		c-0.0980034-0.3672829-0.4289665-0.6097107-0.7914505-0.6125622
		C30.4434242,31.7344685,31.0597019,32.1434174,31.2332439,32.7905807z M29.5954533,31.900177
		c0.3400211-0.0919342,0.6896439,0.110096,0.7804012,0.450161c0.0909386,0.3396606-0.1105022,0.6892357-0.4503422,0.7803116
		c-0.3403854,0.0911179-0.6900063-0.1104584-0.781126-0.4501152C29.0534477,32.3408279,29.2557945,31.9912968,29.5954533,31.900177z
		 M35.0202179,30.641264c0.3731728,0.6455345,0.1512604,1.471632-0.4941826,1.8455257
		c-0.646347,0.3726311-1.4723969,0.1512642-1.8455696-0.4942703c-0.3351326-0.5812244-0.1887627-1.3059216,0.3121223-1.718132
		c-0.2536125,0.2592735-0.3157463,0.6641006-0.1257172,0.9926186c0.2287941,0.3961334,0.7342072,0.5313644,1.1302032,0.3033848
		c0.3952713-0.2287502,0.5309563-0.7349777,0.3025246-1.1311111c-0.1898499-0.3285637-0.5717163-0.4773331-0.9224243-0.3866673
		C33.9843941,29.8238182,34.6850891,30.0600395,35.0202179,30.641264z M33.2085228,30.2047348
		c0.3050575-0.1764431,0.6947136-0.0717373,0.8702507,0.2324619c0.1758995,0.3050594,0.0717354,0.695034-0.2333221,0.8702068
		c-0.3041534,0.1764412-0.6941719,0.0717354-0.8702545-0.2324619
		C32.7996635,30.7698822,32.9043694,30.3799076,33.2085228,30.2047348z M38.122982,27.5846481
		c0.5276947,0.5272408,0.5273323,1.3830013,0,1.9106503c-0.5271492,0.5280571-1.3829117,0.5280571-1.9106064,0
		c-0.4744339-0.4744797-0.5209923-1.2119484-0.1434708-1.7400055c-0.1780701,0.3157921-0.1335068,0.7230663,0.1353188,0.9918041
		c0.3231773,0.3227673,0.847065,0.3227673,1.1702423,0c0.3231735-0.3235817,0.3231735-0.8479252,0-1.1706905
		c-0.2684669-0.2687836-0.6760597-0.313303-0.9914436-0.135231C36.910717,27.0636101,37.6485481,27.1101665,38.122982,27.5846481z
		 M37.1596184,27.6312485c0.2490845,0.2489491,0.2490845,0.6521015,0.0003624,0.9010944
		c-0.2489014,0.2489929-0.6525078,0.2489929-0.9014091,0s-0.2489014-0.6521454,0-0.9010944
		C36.507473,27.3822556,36.9110794,27.3826637,37.1596184,27.6312485z M25.9343796,3.5383608
		c0.3883896-0.3094068,0.5891056-0.3760707,0.7043171-0.3760707c0.0152168,0,0.0297089,0.0014493,0.0420284,0.003623
		c0.0530758,0.0643542,0.1358624,0.2832758,0.0735474,0.9540348c-0.4901962,0.0324717-0.9756832,0.0783935-1.4579086,0.1374488
		C25.3807812,4.0586281,25.571352,3.8276145,25.9343796,3.5383608z M26.6774635,4.7176123
		c-0.0246372,0.1532545-0.0534401,0.3181024-0.089489,0.5025597c-0.1217327,0.6217122-0.284771,0.7615614-0.3318691,0.7615614
		c-0.1572399,0-0.4840374-0.3702736-0.6659126-0.6927238C25.5546856,5.2208967,25.5112095,5.15061,25.465559,5.0767002
		c-0.047823-0.0772161-0.0916615-0.1527562-0.1300659-0.2289305C25.779314,4.7933335,26.2263966,4.7493138,26.6774635,4.7176123z
		 M23.1395741,3.9035625c0.0057964-0.5941772,0.1253567-0.8101099,0.2036133-0.8101099
		c0.1927452,0,0.5717144,0.331145,0.7651844,0.563019c0.0463753,0.0594177,0.102169,0.1210091,0.1601391,0.1854992
		c0.1441956,0.157783,0.2740822,0.3092256,0.3155651,0.5024238c-0.483675,0.0726418-0.9622765,0.1576018-1.4336338,0.2553334
		C23.1421089,4.3961134,23.1366749,4.1731162,23.1395741,3.9035625z M24.4281044,4.9719038
		c-0.0809746,0.1380377-0.1851368,0.2886653-0.3407459,0.467824c-0.4238949,0.4876599-0.6086693,0.5122967-0.6412773,0.5122967
		l-0.0340557-0.0188398c-0.0548897-0.0557947-0.1554279-0.2278433-0.2181072-0.7394605
		C23.599699,5.1092167,24.0123615,5.0377073,24.4281044,4.9719038z M25.0336933,31.2074528
		c-7.5931492,0-13.7696934-6.3714638-13.7696934-14.2030087c0-0.8774967,0.1427479-1.7441263,0.281148-2.5817719
		c0.0550699-0.3304205,0.1086903-0.6593914,0.1550655-0.9869137c0.4938192-3.5321836,5.0883665-6.7507496,10.9123907-8.1065331
		c0.068655,0.5032845,0.1903896,0.8320289,0.3777008,1.0213323c0.1260815,0.1275311,0.2840443,0.1949191,0.4557762,0.1949191
		c0.3188267,0,0.664465-0.2275262,1.0890846-0.7166357c0.1630363-0.1878085,0.2809658-0.3580914,0.3791504-0.5205841
		c0.0161209,0.0269461,0.0304317,0.0550699,0.046917,0.0814729c0.0376797,0.0601425,0.073185,0.1166615,0.1065178,0.1804271
		c0.0941982,0.1681085,0.5934525,1.0050287,1.1883545,1.0050287c0.6717091,0,0.854311-0.9340172,0.9144535-1.2405257
		c0.0463734-0.2378068,0.0818806-0.4507051,0.1123142-0.6527801c0.1438332-0.0067477,0.2860374-0.0211492,0.4304161-0.0254517
		c0.1181107-0.0028982,0.2347717-0.0050721,0.3499832-0.0050721c7.6743069,0,10.0328999,7.8373418,10.05826,7.9250197
		c0.0579681,0.1818762,0.1123161,0.3659258,0.1630363,0.5521498c0.3441887,1.2528439,0.5188179,2.5564108,0.5188179,3.8759184
		C38.8033867,24.835989,32.6268425,31.2074528,25.0336933,31.2074528z M39.8955498,20.6037006
		c0.0907593-0.3400669,0.4403801-0.5420513,0.7804031-0.4509773c0.3400192,0.0911198,0.5416412,0.4410591,0.4508858,0.7811718
		c-0.0914803,0.3396587-0.440197,0.541235-0.7807655,0.4501152C40.0056915,21.2929363,39.8047943,20.9437675,39.8955498,20.6037006z
		 M42.4410934,21.2855091c-0.1929283,0.7213917-0.9342003,1.1488628-1.6546402,0.9555302
		c-0.6472549-0.1739521-1.0566559-0.7898216-0.9936142-1.4353542c0.0038033,0.3623486,0.2458229,0.6933575,0.6126518,0.7914505
		c0.4414673,0.1183376,0.8957977-0.1434269,1.0140877-0.5853462c0.1179314-0.4410591-0.1441956-0.8953419-0.5854797-1.0136337
		c-0.3671951-0.0981388-0.7423592,0.0667553-0.9260483,0.3792419c0.2677422-0.5911446,0.9307556-0.9192543,1.5778313-0.7465267
		C42.206501,19.8242054,42.6343803,20.5649338,42.4410934,21.2855091z"/>
	<circle fill="#020202" cx="20.7022705" cy="44.1802979" r="0.3207289"/>
	<circle fill="#020202" cx="21.1815186" cy="44.9996338" r="0.3207742"/>
	<circle fill="#020202" cx="21.7998047" cy="45.7106934" r="0.3207515"/>
	<circle fill="#020202" cx="22.557373" cy="46.3135986" r="0.3207515"/>
	<circle fill="#020202" cx="23.4384766" cy="46.7927856" r="0.3207515"/>
	<circle fill="#020202" cx="24.3659668" cy="47.0401001" r="0.3207742"/>
	<circle fill="#020202" cx="25.4169922" cy="47.1791992" r="0.3207742"/>
	<circle fill="#020202" cx="26.5146484" cy="47.0401001" r="0.3207742"/>
	<circle fill="#020202" cx="27.4730225" cy="46.7618408" r="0.3207742"/>
	<circle fill="#020202" cx="28.4468994" cy="46.251709" r="0.3207742"/>
	<circle fill="#020202" cx="29.2353516" cy="45.6643066" r="0.3207515"/>
	<circle fill="#020202" cx="29.9000244" cy="44.8914185" r="0.3207515"/>
	<circle fill="#020202" cx="30.3822021" cy="43.9329834" r="0.3207742"/>
</g>
</svg>
