<?xml version="1.0" encoding="utf-8"?>
<!-- Generator: Adobe Illustrator 18.0.0, SVG Export Plug-In . SVG Version: 6.00 Build 0)  -->
<!DOCTYPE svg PUBLIC "-//W3C//DTD SVG 1.1//EN" "http://www.w3.org/Graphics/SVG/1.1/DTD/svg11.dtd">
<svg version="1.1" id="Layer_1" xmlns="http://www.w3.org/2000/svg" xmlns:xlink="http://www.w3.org/1999/xlink" x="0px" y="0px"
	 width="50px" height="50px" viewBox="0 0 50 50" enable-background="new 0 0 50 50" xml:space="preserve">
<path fill="#010101" d="M46.9466286,24.0090218c0.2911377-0.5283337,2.5290565-5.2223015-6.1264229-10.9642029l-14.3275051-8.023489
	c-0.1193123-0.0674562-0.2588387-0.0580077-0.3739758,0.0032959l-0.4370365-0.4676332
	c0.0268078-0.3415656,0.0613041-1.4212482-0.518116-1.7078269c-0.4093513-0.2008302-0.9492188,0.0358155-1.6631126,0.715101
	c-0.0780029,0.0742126-0.0817375,0.1995668-0.0063705,0.2776248c0.0742664,0.0793211,0.1984119,0.0831115,0.2775135,0.006372
	c0.5475597-0.5219061,0.9852562-0.7572885,1.217947-0.6473153c0.3197021,0.1586428,0.335083,1.0144787,0.2928944,1.4046588
	c-0.0063705,0.0575681,0.0127449,0.1138182,0.052515,0.1560607l0.5802994,0.6207833
	c0.0065918,0.1305728,0.0711918,0.2558718,0.1935787,0.3245912l14.3020172,8.0080538
	c8.2869987,5.4982243,5.9486656,9.7415333,5.8359451,9.9334087c-0.0388908,0.0648193-0.0498772,0.1359024-0.0489998,0.2064896
	c-0.4445076,0.0925598-0.8143082,0.4941101-0.8978043,1.0424938l-0.3133278,2.0730114
	c-0.029007,0.1901188-0.0173607,0.3763371,0.0219727,0.5513496c-0.1052513,0.1323318-0.190506,0.2916336-0.2414818,0.47505
	l-0.5581055,2.0017662c-0.0509758,0.1834164-0.0626221,0.3701839-0.0441666,0.5496464
	c-0.1208496,0.1144238-0.2238998,0.2574654-0.2966309,0.431324l-0.791893,1.8918476
	c-0.0722923,0.173912-0.1059113,0.3567276-0.1094246,0.5373421c-0.1327171,0.0942078-0.2522469,0.2192879-0.3449707,0.3791389
	l-1.0100861,1.7449036c-0.0925026,0.1598511-0.1478767,0.3359642-0.1724854,0.514328
	c-0.1428223,0.0712471-0.2757568,0.17556-0.38694,0.3191528l-1.2089348,1.5642891
	c-0.1107445,0.1435928-0.1863289,0.3084984-0.2320328,0.4812584c-0.150074,0.0476799-0.2942123,0.129528-0.4212151,0.2535095
	l-1.3836212,1.3528557c-0.1270027,0.1244774-0.2214851,0.2753754-0.2878418,0.4391251
	c-0.154026,0.0224686-0.306736,0.0802002-0.4471436,0.1823196l-1.5323753,1.115551
	c-0.140625,0.1026688-0.2518044,0.236702-0.337059,0.3875999c-0.1555672-0.0022545-0.3133316,0.0302658-0.4651642,0.1082687
	l-1.6503677,0.8564415c-0.1511726,0.0791016-0.2777328,0.1940727-0.380127,0.3298111
	c-0.1535873-0.027523-0.3139877-0.0213165-0.4732895,0.0319672l-1.7365017,0.5805206
	c-0.1593018,0.0532837-0.2979507,0.1469421-0.4155045,0.2647133c-0.1491947-0.0521851-0.3084965-0.0717926-0.4721928-0.0448761
	l-1.7890148,0.2927856c-0.1641369,0.0269165-0.3124523,0.0970078-0.443409,0.1951714
	c-0.1415043-0.0762444-0.2970715-0.1216736-0.4625244-0.1216736l-1.8068142,0.0005493
	c-0.1661129,0-0.3216801,0.0454292-0.4627457,0.1211243c-0.1305161-0.0981636-0.2792721-0.1682549-0.4434071-0.1951714
	l-1.7894554-0.2922363c-0.1641369-0.0269165-0.3234386-0.0078583-0.4721928,0.0448761
	c-0.1175537-0.1183205-0.2562027-0.2119789-0.4155045-0.2652626l-1.7364998-0.5799713
	c-0.1593018-0.0532837-0.3197041-0.059433-0.4732914-0.0325165c-0.1019535-0.1357384-0.2285175-0.2507095-0.3796883-0.3298111
	l-1.6508083-0.8558922c-0.1511726-0.0785522-0.3095951-0.1110725-0.4651623-0.1088181
	c-0.0852528-0.1514473-0.196434-0.2854805-0.336401-0.3875999l-1.5330334-1.1150017
	c-0.1404057-0.102066-0.2926769-0.1598511-0.4471445-0.182869c-0.065918-0.1637497-0.160181-0.3157463-0.2874031-0.4391251
	l-1.384059-1.3528557c-0.1270018-0.1239815-0.271143-0.2058296-0.421216-0.2535095
	c-0.0457029-0.1733093-0.1212893-0.3382149-0.2315922-0.4812584l-1.2093763-1.5642891
	c-0.1107426-0.1435928-0.2441168-0.2479057-0.386939-0.3191528c-0.0250483-0.1783638-0.0795412-0.3544769-0.1720457-0.514328
	l-1.0105238-1.7449036c-0.0922852-0.1598511-0.2118168-0.2854805-0.3449707-0.3791389
	c-0.0030766-0.1800652-0.0362549-0.3628807-0.1089849-0.53619l-0.7923346-1.8918457
	c-0.0722904-0.1738586-0.1757817-0.3163528-0.2961922-0.431324c0.0188966-0.1800671,0.0079103-0.3662853-0.0437255-0.5496464
	l-0.5578861-2.0018215c-0.0509768-0.183363-0.1362309-0.3421154-0.2416997-0.4755993
	c0.0395508-0.1744633,0.0505371-0.3612309,0.0219727-0.5508003l-0.3142095-2.0730114
	c-0.1001954-0.6645088-0.6198492-1.1131363-1.1856456-1.0568314c-0.0096684-0.0100536-0.0149417-0.0229073-0.025928-0.0320797
	c-0.0219727-0.0179081-2.2003441-1.8446617-2.2234154-4.3251572c-0.0140626-1.5580845,0.8187022-3.0689259,2.4279814-4.4543028
	c0.1803956-0.1126099,4.4237599-2.7862453,5.8757148-4.9891167c0.4502201-0.6805487,1.0105228-1.4493732,1.7512226-1.98666
	c1.513258-1.0988541,3.9911175-2.2476406,7.2213211-1.4890337C20.5899601,6.5726557,20.616766,6.568316,20.6442318,6.56914
	c0.0850334,0.6322093,0.7602539,1.1130261,1.6167488,1.1130261c0.915823,0,1.6336689-0.5475039,1.6336689-1.2446971
	s-0.7178459-1.2446976-1.6336689-1.2446976c-0.6286373,0-1.1573009,0.2610903-1.4312992,0.6482491
	c-0.0287838-0.0149965-0.0555916-0.0327945-0.0885506-0.0405946c-3.5114536-0.825129-6.2145329,0.4234133-7.8609457,1.6169696
	c-0.8441906,0.6127634-1.4570084,1.4506359-1.9456816,2.1913357c-1.359889,2.0596085-5.5955625,4.7293997-5.6849914,4.7908134
	c-1.843508,1.5798359-2.768338,3.2952967-2.7492218,5.0990896c0.0261474,2.4193573,1.7391376,4.209692,2.3194361,4.7480221
	c-0.2276368,0.2863598-0.3449712,0.6861515-0.2821293,1.1000614l0.3137703,2.0730133
	c0.0380125,0.2529602,0.1386476,0.4739513,0.2781739,0.6489639c-0.0522952,0.2321949-0.0518556,0.4823551,0.0160398,0.727459
	l0.5583262,2.0012169c0.0685544,0.2445564,0.1942382,0.4470348,0.352881,0.5984821
	c-0.0239501,0.2372494,0.006372,0.485157,0.1026125,0.7161999l0.7925544,1.8924522
	c0.0962405,0.231041,0.2454352,0.4105568,0.4212165,0.5344849c0.0041747,0.2400513,0.0639405,0.4801025,0.1872072,0.6932373
	l1.0109634,1.7449074c0.1232662,0.2131348,0.2917967,0.367382,0.4809818,0.4615898
	c0.0327387,0.2361526,0.12041,0.464447,0.2680664,0.6557198l1.2093763,1.5642891
	c0.1478767,0.1912193,0.333765,0.3162994,0.5315189,0.3796883c0.0610847,0.2282982,0.1746836,0.4408836,0.3440924,0.605732
	l1.3842793,1.3534088c0.1689701,0.1654549,0.3682623,0.2591667,0.5717287,0.2894325
	c0.0876713,0.2164879,0.2258797,0.4083099,0.4126472,0.5445938l1.532814,1.1150589
	c0.1874275,0.1362877,0.3952885,0.1974258,0.6009531,0.1940727c0.1120605,0.1996765,0.2720222,0.3673859,0.4737301,0.4722481
	l1.6508083,0.8553429c0.2012691,0.104866,0.4148445,0.1306839,0.6176529,0.0942078
	c0.1355705,0.1800652,0.3137684,0.3197021,0.5262451,0.3909492l1.7362804,0.5799675
	c0.2118168,0.0706444,0.4271488,0.0622368,0.6235847-0.0067558c0.1555672,0.1559525,0.3489265,0.2658691,0.5675545,0.3017387
	l1.7894554,0.2922363c0.2181892,0.0359268,0.430006-0.0078545,0.616333-0.1071167
	c0.172266,0.1289825,0.376833,0.2063789,0.5978775,0.2063789h1.8068142c0.2203846,0,0.4249516-0.0773964,0.5972176-0.2063789
	c0.1869869,0.1004181,0.3981438,0.1435928,0.6167717,0.1071167l1.7890167-0.2927856
	c0.2186279-0.0353203,0.4115486-0.145237,0.5675545-0.3011894c0.1964359,0.0689926,0.411108,0.0774002,0.6235847,0.0067558
	l1.7362804-0.5799675c0.2118187-0.0712471,0.3911133-0.2108841,0.5262451-0.3909492
	c0.2032471,0.0364761,0.4163818,0.0106583,0.6180916-0.0942078l1.6503677-0.8564415
	c0.2017097-0.1043701,0.3616714-0.2714729,0.473732-0.4711494c0.2056656,0.0028038,0.4141846-0.0583344,0.6013908-0.194622
	l1.5323753-1.1156082c0.1872101-0.1357346,0.3254166-0.3275566,0.4126472-0.5440445
	c0.203907-0.0303192,0.4027596-0.124527,0.5717316-0.2899818l1.3842773-1.3528595
	c0.1687508-0.1649055,0.2825699-0.3768845,0.3436508-0.6051826c0.1981964-0.0627861,0.3845253-0.1884689,0.5319595-0.3796883
	l1.2087173-1.5642891c0.1478767-0.1912727,0.2351074-0.4201164,0.2682877-0.6562691
	c0.1887436-0.0942078,0.3577156-0.248455,0.4814224-0.4615898L44.45998,35.231678
	c0.1232681-0.2131348,0.1828156-0.4537354,0.1872101-0.692688c0.1757813-0.1245308,0.3249741-0.3045425,0.4216537-0.5356407
	l0.7918968-1.8918457c0.0968971-0.2310982,0.1272202-0.4790058,0.1026115-0.7156506
	c0.1593018-0.1520519,0.2860832-0.3545303,0.353981-0.5984821l0.5574455-2.0023689
	c0.0687752-0.2445011,0.0687752-0.4946613,0.0162582-0.7263069c0.1397476-0.1755619,0.2403831-0.396553,0.2788353-0.6495132
	l0.3128891-2.0730133C47.5667,24.798336,47.3370857,24.2734623,46.9466286,24.0090218z M22.2609806,5.7172594
	c0.6011734,0,1.108963,0.3300295,1.108963,0.7202096c0,0.3901796-0.5077896,0.7202091-1.108963,0.7202091
	c-0.6013908,0-1.1091805-0.3300295-1.1091805-0.7202091C21.1518002,6.0472889,21.6595898,5.7172594,22.2609806,5.7172594z
	 M5.2552252,27.336729l-0.312891-2.0730114C4.895752,24.9559898,5.0104494,24.6661148,5.207984,24.487093
	c0.0182371,0.0025253,0.0333982,0.0185108,0.0516357,0.0185108c0.11272,0,0.2252197-0.0486145,0.3032231-0.143261
	c0.0096679-0.0117016,0.0125241-0.0260925,0.0206542-0.0385075c0.3506837-0.0251579,0.6701665,0.245985,0.7338877,0.657753
	l0.3128905,2.0730114c0.0087895,0.054987,0.0109868,0.10882,0.0101075,0.162653
	c-0.2397218-0.1216736-0.5145998-0.149744-0.7833261-0.0487785c-0.2133546,0.0813541-0.3904543,0.2310963-0.5214114,0.4212151
	C5.2987309,27.512291,5.2697272,27.4287395,5.2552252,27.336729z M6.5089865,27.6693401
	c-0.1026125,0.1660042-0.2579594,0.2877331-0.4449468,0.3270092c-0.1516118,0.0313663-0.2994881,0-0.4278083-0.0734978
	c0.0830569-0.1351871,0.2012696-0.2439518,0.3480473-0.2994881C6.1646743,27.5554676,6.3514423,27.5784836,6.5089865,27.6693401z
	 M6.2046647,30.8876801c-0.0461426-0.0706978-0.0852542-0.1491947-0.1096439-0.2378006l-0.5585451-2.0012169
	c-0.0246096-0.0892086-0.0323-0.1795158-0.0307622-0.268671c0.1916018,0.0964603,0.4091315,0.1323318,0.6301765,0.0869026
	c0.2772956-0.0571842,0.5088873-0.2327461,0.6714854-0.4711494c0.0226316,0.0471325,0.0419679,0.097065,0.0569091,0.1497993
	l0.5578866,2.0017662c0.0145016,0.0532837,0.0246091,0.1060181,0.0298824,0.1593018
	c-0.2518067-0.0813541-0.528223-0.0644894-0.7813482,0.0790462C6.468996,30.5006847,6.3116717,30.6778946,6.2046647,30.8876801z
	 M7.3755889,30.7760582c-0.0819583,0.1811638-0.221045,0.3275585-0.4012213,0.3960018
	c-0.1467776,0.055481-0.2968507,0.0487804-0.432642-0.0039539c0.0663576-0.1474915,0.1702881-0.2731209,0.3091555-0.3527718
	C7.02073,30.7188187,7.2083769,30.7115688,7.3755889,30.7760582z M7.4588652,34.0129089
	c-0.0540528-0.062294-0.1021729-0.1329346-0.1373291-0.2176399l-0.7918954-1.8918476
	c-0.0351563-0.084156-0.0533938-0.1722107-0.0626221-0.2596626c0.2012696,0.063942,0.4203372,0.0644913,0.6334724-0.0163136
	c0.2682862-0.1020641,0.4763675-0.314045,0.6090827-0.5760136c0.0285645,0.0426254,0.0529542,0.0892086,0.0742674,0.1390858
	l0.7923346,1.8924522c0.0206547,0.0498772,0.0364752,0.1015129,0.0481205,0.1525459
	c-0.259058-0.0392761-0.5306406,0.0213127-0.7639899,0.204731C7.6739779,33.5866394,7.5390654,33.7879639,7.4588652,34.0129089z
	 M8.6045208,33.7117195C8.545414,33.9046402,8.425004,34.0723457,8.2544956,34.16996
	c-0.1384277,0.078495-0.288281,0.0964584-0.4289064,0.0667419c0.0487795-0.1570511,0.1362309-0.2989388,0.2638922-0.3999062
	C8.2468052,33.7128181,8.4318151,33.6757927,8.6045208,33.7117195z M9.0740767,36.9042397
	c-0.0613031-0.053833-0.1171141-0.116127-0.1623774-0.1935234l-1.0105238-1.7443047
	c-0.0448246-0.0780029-0.0736084-0.1621017-0.0929446-0.2473564C8.015873,34.7498741,8.232523,34.71455,8.4346724,34.5995789
	c0.2531252-0.1441422,0.4341803-0.3875961,0.5339355-0.6685715c0.0327396,0.037571,0.0635014,0.0796509,0.0905275,0.1261749
	l1.0103045,1.7449074c0.0270262,0.046032,0.0487785,0.0942612,0.0661373,0.1441422
	c-0.261035,0.0022507-0.5229502,0.1065674-0.7323494,0.326458C9.2362356,36.4482498,9.127471,36.6692429,9.0740767,36.9042397z
	 M9.677227,36.6271629c0.1415043-0.1474915,0.3197031-0.2136841,0.4952641-0.2052803
	c-0.0355959,0.1996765-0.1346922,0.3852921-0.2915773,0.5087242c-0.1252441,0.0970078-0.2671881,0.1401863-0.4069338,0.1368332
	C9.5034237,36.9042397,9.5636282,36.7477379,9.677227,36.6271629z M11.2687082,38.8252563
	c-0.1428223,0.1985207-0.2243404,0.432972-0.2493896,0.6730232c-0.0663576-0.0426292-0.1302977-0.0897026-0.184351-0.158699
	l-1.2089367-1.5637398c-0.0527344-0.0689964-0.087451-0.1497459-0.1164551-0.2305489
	c0.2069826-0.0038986,0.4155035-0.0734444,0.6002932-0.2187386c0.2298346-0.1805611,0.377491-0.4447823,0.4449472-0.7330627
	c0.0366945,0.031971,0.0771236,0.0532837,0.1087646,0.0936584l1.2089367,1.5642891
	c0.0307617,0.040432,0.0452642,0.0897598,0.0683355,0.1351891C11.6881666,38.4343071,11.446907,38.5789948,11.2687082,38.8252563z
	 M11.5831375,39.1325989c0.1217289-0.1682549,0.2898197-0.2624626,0.4645023-0.2832298
	c-0.011426,0.2035789-0.0870113,0.4032555-0.2271976,0.5508003c-0.1111813,0.1160736-0.246973,0.168808-0.3847418,0.1873169
	C11.446907,39.4264832,11.4868975,39.2666321,11.5831375,39.1325989z M13.4222507,41.0525169
	c-0.1179934,0.2203865-0.1705074,0.4654922-0.1672115,0.7072449c-0.0703135-0.0314217-0.140626-0.0678406-0.2017097-0.1278801
	l-1.3834-1.3528595c-0.0613041-0.0599861-0.1045895-0.1334839-0.1430416-0.2091789
	c0.204565-0.0375748,0.4027586-0.140789,0.5684328-0.3146477c0.2056646-0.2159386,0.3208008-0.5008698,0.3528814-0.7970047
	c0.0399904,0.0252113,0.0828371,0.0398254,0.119092,0.0751457l1.3838396,1.3528595
	c0.0358152,0.0353203,0.0553703,0.0818481,0.0839348,0.1228256C13.789854,40.5970764,13.5685892,40.7787933,13.4222507,41.0525169z
	 M13.6668072,41.783329c-0.0083504-0.1621056,0.02351-0.3286591,0.1028318-0.4778519
	c0.1006346-0.1867676,0.2557621-0.3090477,0.4267092-0.3572769c0.0129642,0.2035789-0.0375729,0.4133606-0.1595211,0.5832672
	C13.9383888,41.668354,13.8058939,41.7435036,13.6668072,41.783329z M15.8196898,42.9084396
	c-0.0909662,0.239502-0.1135988,0.4930115-0.0799799,0.7336655c-0.074707-0.0202141-0.1472168-0.0510864-0.2157717-0.099865
	l-1.5317163-1.1156082c-0.0683346-0.0498772-0.1237059-0.1127205-0.1709471-0.1817131
	c0.1997318-0.0700912,0.3856201-0.204731,0.5299807-0.4055061c0.1810551-0.2512589,0.2614756-0.5597534,0.2546635-0.864296
	c0.0428467,0.019062,0.0852547,0.0426292,0.1261234,0.0723457l1.5323753,1.1156082
	c0.0404301,0.0297165,0.0771236,0.0627861,0.110302,0.1003609C16.1369762,42.3896637,15.9341679,42.6084023,15.8196898,42.9084396z
	 M16.1527958,43.6050835c-0.030323-0.1632576-0.0202141-0.3376656,0.042408-0.5020218
	c0.0775623-0.2018738,0.21665-0.3482666,0.3799076-0.4240189c0.0369129,0.2002258,0.0109863,0.4167671-0.0892105,0.604084
	C16.4041634,43.4351234,16.2857304,43.543396,16.1527958,43.6050835z M18.424551,45.0953255
	c-0.0755863-0.0073051-0.1511707-0.0258179-0.224781-0.0633926l-1.6512451-0.8558884
	c-0.0731697-0.0381241-0.1357918-0.0914078-0.191164-0.1519966c0.1902847-0.102066,0.3577156-0.2658691,0.4765873-0.4874115
	c0.1498547-0.2787781,0.1916027-0.5967751,0.149416-0.897419c0.0446033,0.0118103,0.0898666,0.0286217,0.1331539,0.051033
	l1.6508064,0.8559456c0.0439453,0.0229607,0.0843754,0.0504837,0.1219501,0.0812988
	c-0.2206059,0.1638069-0.3952904,0.4139099-0.4728527,0.7297134C18.3544579,44.6084633,18.3625889,44.8631287,18.424551,45.0953255z
	 M18.8290691,44.9921074c-0.0500984-0.1558952-0.0606461-0.3303604-0.0184574-0.5031204
	c0.052515-0.2125282,0.172924-0.3796844,0.3260746-0.4806519c0.0602055,0.1912727,0.0602055,0.4100113-0.0164795,0.6119385
	C19.0571442,44.7840271,18.952774,44.9096565,18.8290691,44.9921074z M21.1601505,45.3712997
	c-0.0309811,0.2591133,0.0072498,0.5103722,0.0962391,0.7302628c-0.076025,0.0056038-0.1535873-0.0006027-0.2307129-0.0263672
	l-1.7360611-0.5805168c-0.0769043-0.0263672-0.1456795-0.0689926-0.2078609-0.1200256
	c0.1757813-0.1312332,0.3225594-0.3202515,0.4135246-0.5592041c0.1146984-0.3000946,0.1188736-0.6225967,0.0404301-0.9131317
	c0.0461426,0.0045052,0.0925064,0.0134583,0.138649,0.029171l1.7360611,0.5805168
	c0.045702,0.0151596,0.0896473,0.0359268,0.1300774,0.0605888C21.3420849,44.7705688,21.199482,45.0459404,21.1601505,45.3712997z
	 M21.8889847,45.5176392c-0.0428467,0.17276-0.1309586,0.3140984-0.2441177,0.4156151
	c-0.0683346-0.1469421-0.099535-0.3174515-0.0784416-0.4958153c0.0268059-0.2192879,0.1265621-0.4043503,0.2652092-0.5288811
	C21.9149113,45.0880203,21.9414978,45.3051071,21.8889847,45.5176392z M24.180954,46.6388512
	c-0.0736084,0.0162582-0.1516113,0.0235634-0.2309322,0.0106544l-1.7890167-0.293335
	c-0.0795403-0.0129089-0.1522694-0.0442734-0.2201653-0.0847015c0.1584225-0.1581497,0.2808113-0.3695831,0.3427734-0.6208954
	c0.0775642-0.3157463,0.0435066-0.6359978-0.0692139-0.9102707c0.0461426-0.0034065,0.0929451-0.0017052,0.140625,0.0061493
	l1.7894554,0.2927856c0.0470219,0.0078583,0.0922852,0.0213165,0.1355705,0.0386734
	c-0.1727047,0.2277451-0.2814693,0.5249825-0.2814693,0.8531456C23.9985809,46.1929703,24.0664768,46.4347229,24.180954,46.6388512z
	 M24.5459213,46.4083557c-0.084816-0.1340866-0.1362305-0.2978363-0.1362305-0.4779053
	c0.0004387-0.2215385,0.0764637-0.4206123,0.1992912-0.5676079c0.1034908,0.1655083,0.1555672,0.3752365,0.1289806,0.5939751
	C24.7164288,46.1346321,24.6461163,46.2888794,24.5459213,46.4083557z M26.9145756,46.7437706h-1.8068142
	c-0.0804195,0-0.1564445-0.0196648-0.228735-0.0488358c0.1382084-0.1828117,0.2344494-0.4122047,0.2658691-0.6707687
	c0.0388927-0.3253632-0.032959-0.6366043-0.1773186-0.8907204c0.0452633-0.0106544,0.0920658-0.0162582,0.1401844-0.0162582
	h1.8068142c0.0481205,0,0.0942631,0.0062065,0.1395264,0.0162582c-0.1443596,0.2541161-0.2162113,0.5653572-0.1770992,0.8907204
	c0.0307617,0.2591133,0.1276608,0.4885063,0.2652092,0.6713753C27.071022,46.7241058,26.9949951,46.7437706,26.9145756,46.7437706z
	 M27.4753189,46.408905c-0.0995369-0.1200256-0.1705093-0.2737236-0.1920414-0.4520874
	c-0.0259285-0.2192879,0.0259266-0.4290695,0.1300774-0.5939751c0.1226082,0.1469955,0.1986332,0.3460693,0.1992931,0.5676079
	C27.6115494,46.1105194,27.5596943,46.2742691,27.4753189,46.408905z M29.8608932,46.3556213l-1.7894554,0.293335
	c-0.0795422,0.0123596-0.1571045,0.0061531-0.2311535-0.0112038c0.1144772-0.2036324,0.1825924-0.4458809,0.1825924-0.7078514
	c0-0.3286552-0.108984-0.624794-0.2816887-0.8530884c0.0432854-0.0173569,0.0889893-0.0308723,0.1362305-0.0387268
	l1.7894554-0.2927322c0.0474606-0.0078545,0.0938225-0.0095558,0.1395264-0.0062065
	c-0.1122799,0.2742729-0.1463375,0.5945244-0.0687752,0.9097786c0.061964,0.2512589,0.184351,0.463295,0.343214,0.6214447
	C30.0129433,46.3112946,29.9402142,46.3427124,29.8608932,46.3556213z M30.3763714,45.933857
	c-0.1131592-0.1026688-0.2017097-0.2440071-0.2445564-0.4162178c-0.0518551-0.212532-0.0259266-0.4290695,0.0573502-0.6090813
	c0.1390858,0.1250801,0.2384033,0.3101425,0.2652092,0.5288811C30.4754677,45.6158028,30.4442673,45.7869148,30.3763714,45.933857z
	 M32.732502,45.4946785l-1.7365017,0.5805168c-0.0775623,0.0257645-0.1549072,0.031971-0.2304916,0.0263672
	c0.0894279-0.2204399,0.1274414-0.4711494,0.0962391-0.7308655c-0.0395508-0.3247566-0.1825924-0.6006775-0.3807869-0.7986526
	c0.0408707-0.0247192,0.084156-0.0454292,0.1302986-0.0605888l1.7364998-0.5799675
	c0.0463638-0.0151634,0.0920677-0.0246658,0.1382103-0.0286217c-0.0788841,0.2899857-0.074707,0.6119385,0.0399895,0.9120331
	c0.0914078,0.2388954,0.2381821,0.4290695,0.4144058,0.5603027C32.8779602,45.4262352,32.8094063,45.4688606,32.732502,45.4946785z
	 M33.1926117,44.9926567c-0.1241455-0.0823975-0.2289581-0.2086296-0.2915802-0.3723831
	c-0.076683-0.2019272-0.076683-0.4206657-0.0153809-0.6124878c0.1520538,0.1015167,0.2729034,0.2686729,0.3258553,0.4806519
	C33.2532539,44.6622963,33.2422676,44.8362122,33.1926117,44.9926567z M35.4727135,44.1760445l-1.6503677,0.8558884
	c-0.0731659,0.0375748-0.1496315,0.0566368-0.2252197,0.0633926c0.0621834-0.2321968,0.0698738-0.4868622,0.0076904-0.7381172
	c-0.0775642-0.3158035-0.2513657-0.5659065-0.4717522-0.7291641c0.0375748-0.0313644,0.0780029-0.0583382,0.121727-0.0818481
	l1.6508102-0.8564949c0.0439453-0.0224113,0.0885468-0.0392761,0.1329346-0.051033
	c-0.0432892,0.3006439-0.0004387,0.6191902,0.1491928,0.8979683c0.1188736,0.2220917,0.2869644,0.3858948,0.4765892,0.4874115
	C35.6085052,44.0846367,35.5458832,44.1379204,35.4727135,44.1760445z M35.8688812,43.6050835
	c-0.1327133-0.0616875-0.2518044-0.16996-0.3335457-0.3214073c-0.100193-0.1878662-0.1265602-0.4044075-0.0889893-0.604084
	c0.1632576,0.0757523,0.302784,0.2221451,0.3803482,0.4240189C35.8890991,43.2674179,35.8992043,43.4418259,35.8688812,43.6050835z
	 M38.0296745,42.4260826l-1.5323715,1.1150589c-0.0685577,0.0493279-0.1415062,0.0802002-0.2153358,0.0998116
	c0.0334015-0.2400513,0.0105476-0.4941101-0.0804176-0.7330627c-0.1144791-0.3000946-0.3172874-0.5193787-0.5550308-0.6450081
	c0.0338364-0.0370255,0.0703125-0.0712471,0.1111832-0.1009636l1.5323753-1.1150055
	c0.0404282-0.0297737,0.0828362-0.0532837,0.1261215-0.0717964c-0.0072517,0.3039932,0.0731697,0.6118851,0.2542229,0.8637466
	c0.1443634,0.2002258,0.3302498,0.3359642,0.5306396,0.4055061C38.1527214,42.3133621,38.0973511,42.3767548,38.0296745,42.4260826z
	 M37.9844131,41.5320702c-0.1219482-0.1694107-0.1724854-0.3791924-0.159523-0.5833206
	c0.1705093,0.0487785,0.325634,0.1710587,0.4262695,0.3578262c0.0793228,0.1480942,0.1116219,0.315197,0.1028328,0.4778519
	C38.2160034,41.7446022,38.0835075,41.6689034,37.9844131,41.5320702z M40.3524094,40.2790222l-1.3840599,1.3528595
	c-0.0610847,0.0594368-0.1309586,0.0964584-0.2017097,0.1278801c0.0039558-0.2417526-0.0492172-0.4868584-0.1669922-0.7072449
	c-0.1467781-0.272625-0.3682632-0.4554405-0.6130371-0.5434952c0.0285645-0.0415268,0.0487785-0.0875053,0.0843735-0.1234322
	l1.3840599-1.3533516c0.0355949-0.0353775,0.0784416-0.0493851,0.1184311-0.0745964
	c0.0318604,0.2961349,0.1478767,0.5816154,0.3528824,0.797554c0.1656761,0.174408,0.3638687,0.2770729,0.5690918,0.3146477
	C40.4563408,40.1455383,40.4137115,40.2190361,40.3524094,40.2790222z M40.2012367,39.4007187
	c-0.1410637-0.1480942-0.2155533-0.3472214-0.2271996-0.5513496c0.1738052,0.0207672,0.3423347,0.114975,0.4640656,0.2837791
	c0.0957985,0.1334839,0.1357918,0.293335,0.1478767,0.4548874C40.4482079,39.5689774,40.313076,39.5167923,40.2012367,39.4007187z
	 M42.395649,37.7763901l-1.2093773,1.5631905c-0.0533943,0.0689964-0.1184349,0.1166763-0.1843529,0.1593018
	c-0.0250473-0.2400513-0.1065674-0.4744987-0.2498283-0.6730766c-0.1777573-0.2468109-0.4188004-0.3909492-0.672142-0.4386292
	c0.0230713-0.0454292,0.0371323-0.0953064,0.0687714-0.1357384l1.2093773-1.5642891
	c0.0307617-0.0403748,0.0716324-0.0611382,0.1078873-0.0931091c0.0674553,0.2883377,0.2155495,0.5525017,0.445385,0.73312
	c0.1847916,0.145237,0.3933105,0.2147827,0.6007347,0.2187347C42.4826584,37.6271935,42.4486008,37.7073936,42.395649,37.7763901z
	 M42.1409836,36.9300575c-0.1564445-0.1239815-0.2561989-0.3090477-0.2917976-0.5081749
	c0.1751251-0.0090065,0.3537598,0.0583382,0.4948273,0.2052803c0.1135979,0.1200256,0.1738014,0.2765274,0.2032471,0.4391785
	C42.407074,37.0702438,42.2655678,37.0276146,42.1409836,36.9300575z M44.1200638,34.9658089l-1.0105247,1.7443581
	c-0.0452614,0.0779457-0.1010742,0.1402397-0.162159,0.1935234c-0.0525131-0.235054-0.1623764-0.4559898-0.3293686-0.6315498
	c-0.2098389-0.2198906-0.4713135-0.3242073-0.7321281-0.326458c0.0171356-0.0499344,0.0393295-0.0987129,0.0663567-0.1446915
	l1.0098648-1.7449074c0.0270233-0.0459747,0.0573463-0.0875053,0.0905266-0.1256256
	c0.0997543,0.2809753,0.2808113,0.5249786,0.5339355,0.6685715c0.2017097,0.1149712,0.4188004,0.1502953,0.626442,0.1188736
	C44.1936722,34.8037605,44.1648865,34.8878593,44.1200638,34.9658089z M43.4167175,33.7117195
	c0.172924-0.0359268,0.3577156,0.0016479,0.5150414,0.1250763c0.1276588,0.1009674,0.215332,0.2428551,0.2638893,0.3999062
	c-0.140625,0.0297165-0.2902565,0.0117531-0.4289055-0.0667419C43.5962334,34.0723457,43.4758263,33.9046402,43.4167175,33.7117195z
	 M45.4916,31.9034214l-0.7918968,1.8918476c-0.0351563,0.084156-0.0832748,0.1547966-0.1371078,0.2176399
	c-0.0808601-0.2243423-0.2153358-0.4262695-0.4016609-0.5726624c-0.2333527-0.1834183-0.5053749-0.2445564-0.764431-0.204731
	c0.0116463-0.0515823,0.0279045-0.1032181,0.0485611-0.1530952l0.7923317-1.8919029
	c0.0213165-0.0504265,0.0463638-0.0964603,0.0738297-0.1390858c0.1322746,0.2625179,0.3407974,0.4744987,0.6090813,0.5760136
	c0.2131348,0.0813541,0.4322052,0.0808048,0.6339149,0.0163136C45.5456505,31.7312107,45.527195,31.818716,45.4916,31.9034214z
	 M44.6463089,30.7760582c0.1665535-0.06394,0.3537598-0.0566349,0.5247078,0.0398254
	c0.1382103,0.0791016,0.2425804,0.2052803,0.3091545,0.3527718c-0.135788,0.0521851-0.2860832,0.0583363-0.4324226,0.0039539
	C44.8666954,31.1036167,44.7276077,30.957222,44.6463089,30.7760582z M46.4852028,28.6480598l-0.5583267,2.0018196
	c-0.0250473,0.0886059-0.0639381,0.1671028-0.110302,0.2378006c-0.1067886-0.2092361-0.2643318-0.386446-0.4660416-0.5020218
	c-0.2531242-0.1435356-0.529541-0.1598511-0.7813454-0.0790462c0.0052719-0.0532837,0.0149384-0.1065674,0.0298805-0.1598511
	l0.557888-2.0018215c0.0149384-0.0532837,0.0338364-0.1031609,0.0569077-0.149744
	c0.1625977,0.2384033,0.3941917,0.4139652,0.6719246,0.4711494c0.2210464,0.0454292,0.4381371,0.010107,0.6301765-0.0863533
	C46.5175018,28.4685974,46.5098114,28.5583553,46.4852028,28.6480598z M45.5122528,27.6687908
	c0.1575432-0.0903072,0.3443108-0.1133232,0.5247078-0.0454273c0.1463394,0.0560856,0.2645493,0.1643009,0.3480453,0.2994881
	c-0.1283188,0.0734978-0.2757568,0.1048641-0.4278069,0.0734978C45.7708702,27.9570732,45.6148643,27.834795,45.5122528,27.6687908z
	 M46.7655754,27.3361797c-0.0140648,0.0919552-0.0435066,0.1755619-0.0804214,0.2529602
	c-0.1305161-0.1901188-0.3082771-0.3393116-0.5214119-0.4206657c-0.2682838-0.1015148-0.543602-0.0728951-0.7828865,0.0487785
	c-0.0013161-0.0543823,0.0019798-0.10882,0.0101089-0.1637516l0.3133278-2.0724621
	c0.0681152-0.441431,0.4291267-0.7364159,0.8094749-0.659565c0.3792496,0.0790462,0.6319351,0.5002613,0.5655785,0.9422436
	L46.7655754,27.3361797z"/>
</svg>
