<?xml version="1.0" encoding="utf-8"?>
<!-- Generator: Adobe Illustrator 18.0.0, SVG Export Plug-In . SVG Version: 6.00 Build 0)  -->
<!DOCTYPE svg PUBLIC "-//W3C//DTD SVG 1.1//EN" "http://www.w3.org/Graphics/SVG/1.1/DTD/svg11.dtd">
<svg version="1.1" id="Layer_1" xmlns="http://www.w3.org/2000/svg" xmlns:xlink="http://www.w3.org/1999/xlink" x="0px" y="0px"
	 width="50px" height="50px" viewBox="0 0 50 50" enable-background="new 0 0 50 50" xml:space="preserve">
<g>
	<path d="M44.9446793,20.5685883H29.9956856l-0.3091221-0.3091431l-0.695612-0.6955891l-3.9910622-3.9910192l-3.9909515,3.9910192
		l-0.695591,0.6955891l-0.3091202,0.3091431H5.0553217C2.8191199,20.5685883,1,22.3877087,1,24.6239109
		s1.8191199,4.0553207,4.0553217,4.0553207h14.1966372l1.0613213,1.0613232l0.695591,0.6955891l3.9910183,3.9910183
		l3.9911289-3.9910183l0.6955891-0.6955891l1.0613461-1.0613232h14.1967258C47.1808815,28.6792316,49,26.8601131,49,24.6239109
		S47.1808815,20.5685883,44.9446793,20.5685883z M5.0553217,27.9836426c-1.8526318,0-3.3597319-1.5070992-3.3597319-3.3597317
		s1.5071001-3.3597546,3.3597319-3.3597546h14.253314l-3.7358322,3.735899l2.9835644,2.9835873H5.0553217z M28.7030125,29.7405548
		l-0.695591,0.6955891l-3.0075321,3.0073986l-3.0074234-3.0073986l-0.6955662-0.6955891l-4.7404995-4.7404995l4.7405434-4.7406101
		l0.6955891-0.6955891l3.0073566-3.0074005l3.0074654,3.0074005l0.695591,0.6955891l4.740654,4.7406101L28.7030125,29.7405548z
		 M44.9446793,27.9836426H31.4435654l2.983654-2.9835873l-3.7359447-3.735899h14.2534046
		c1.8526306,0,3.3597298,1.507122,3.3597298,3.3597546S46.7973099,27.9836426,44.9446793,27.9836426z"/>
	<path d="M25,19.8990421c-2.8126831,0-5.1009693,2.2882862-5.1009693,5.1009693S22.1873169,30.1009579,25,30.1009579
		s5.1009693-2.2882633,5.1009693-5.1009464S27.8126831,19.8990421,25,19.8990421z M25,29.4053917
		c-2.4291134,0-4.4053802-1.9762669-4.4053802-4.4053802c0-2.4291363,1.9762669-4.4053802,4.4053802-4.4053802
		s4.4053802,1.976244,4.4053802,4.4053802C29.4053802,27.4291248,27.4291134,29.4053917,25,29.4053917z"/>
</g>
</svg>
