<?xml version="1.0" encoding="UTF-8"?>
<!DOCTYPE svg PUBLIC "-//W3C//DTD SVG 1.1//EN" "http://www.w3.org/Graphics/SVG/1.1/DTD/svg11.dtd">
<!-- Creator: CorelDRAW X7 -->
<svg xmlns="http://www.w3.org/2000/svg" xml:space="preserve" width="50px" height="50px" version="1.1" style="shape-rendering:geometricPrecision; text-rendering:geometricPrecision; image-rendering:optimizeQuality; fill-rule:evenodd; clip-rule:evenodd"
viewBox="0 0 105278 105274"
 xmlns:xlink="http://www.w3.org/1999/xlink">
 <defs>
  <style type="text/css">
   <![CDATA[
    .fil0 {fill:none}
    .fil1 {fill:black}
   ]]>
  </style>
 </defs>
 <g id="Layer_x0020_1">
  <metadata id="CorelCorpID_0Corel-Layer"/>
  <rect class="fil0" x="2" y="-1" width="105274" height="105274"/>
  <path class="fil1" d="M96147 43821l-30258 0c-241,-356 -495,-696 -763,-1030 214,15 430,10 649,-15l25 0 67 -10c955,-139 1773,-651 2313,-1367l0 -5c527,-702 790,-1599 683,-2527l0 -7 -9 -73c-132,-962 -652,-1783 -1368,-2325l-5 0c-721,-542 -1649,-813 -2611,-676 -963,137 -1781,654 -2321,1370l0 5c-527,701 -795,1602 -684,2537l0 15 5 42c-2800,-1952 -6251,-3007 -9930,-2798l-606 42c-3298,311 -6262,1624 -8630,3606 142,-383 222,-795 222,-1223 0,-970 -398,-1855 -1035,-2492 -637,-637 -1522,-1035 -2492,-1035 -970,0 -1855,398 -2492,1035 -636,637 -1034,1522 -1034,2492 0,970 398,1855 1034,2492 637,636 1522,1034 2492,1034 440,0 863,-82 1251,-231 -303,368 -589,748 -860,1144l-30895 0c-4904,0 -8895,3989 -8895,8893 0,4904 3991,8895 8895,8895l30857 -7c214,313 438,619 672,918 -192,-33 -388,-50 -587,-50 -970,0 -1855,398 -2492,1034 -637,637 -1034,1522 -1034,2492 0,970 397,1855 1034,2492 637,637 1522,1035 2492,1035 970,0 1855,-398 2492,-1035 636,-637 1034,-1522 1034,-2492 0,-229 -22,-450 -64,-666 2877,2173 6518,3364 10410,3146l606 -45c2684,-254 5148,-1169 7247,-2572l-2 137c0,970 397,1855 1034,2492 637,637 1522,1035 2492,1035 970,0 1855,-398 2492,-1035 636,-637 1034,-1522 1034,-2492 0,-970 -398,-1855 -1034,-2492 -607,-606 -1438,-997 -2353,-1032 222,-281 430,-567 632,-863l30526 0c4854,0 8811,-3909 8893,-8743 82,-4974 -4153,-9045 -9129,-9045zm-29758 20872c-328,-328 -796,-537 -1303,-537 -507,0 -975,209 -1303,537 -328,328 -537,796 -537,1303 0,507 209,975 537,1303 328,329 796,537 1303,537 507,0 975,-208 1303,-537 328,-328 537,-796 537,-1303 0,-507 -209,-975 -537,-1303zm85 -26890c-376,-279 -866,-421 -1366,-351 -500,70 -935,346 -1216,719l-2 -3c-279,376 -418,866 -348,1366l2 19c75,495 346,918 714,1197l-3 2c376,279 863,418 1366,348l20 -2c494,-75 917,-346 1196,-714l2 3c279,-376 418,-863 348,-1366l-7 -52c-77,-480 -346,-890 -709,-1164l3 -2zm-25772 276c-328,-329 -795,-537 -1303,-537 -507,0 -975,208 -1303,537 -328,328 -537,796 -537,1303 0,507 209,975 537,1303 328,328 796,537 1303,537 508,0 975,-209 1303,-537 329,-328 538,-796 538,-1303 0,-507 -209,-975 -538,-1303zm438 26614c-328,-328 -796,-537 -1303,-537 -507,0 -975,209 -1303,537 -328,328 -537,796 -537,1303 0,507 209,975 537,1303 328,329 796,537 1303,537 507,0 975,-208 1303,-537 328,-328 537,-796 537,-1303 0,-507 -209,-975 -537,-1303zm25664 -19348l29365 0c3964,0 7379,3042 7573,6998 209,4230 -3174,7739 -7359,7739l-29603 0c1395,-2631 2064,-5677 1763,-8855 -202,-2124 -806,-4109 -1739,-5882zm-27934 0c-1396,2631 -2067,5680 -1766,8858 201,2122 808,4106 1738,5879l-29947 0c-4063,0 -7368,-3305 -7368,-7368 0,-4061 3305,-7369 7368,-7369l29975 0zm16850 13631l-4869 460 -4113 -3365 -239 -2086 -418 -3646 2000 -2390 1323 -1582 5451 -589 4183 3603 10 120 400 4678 -3728 4797zm3793 -2587l60 2221 -1898 179 -25 3 1863 -2403zm-5014 4121l-860 1082 -1159 -890 2019 -192zm-5647 -885l-77 5 -1614 154 -184 -1624 -8 -47 -2 -33 1885 1545zm-2932 -11295l-107 -1468 1509 -211 -1402 1679zm4891 -3534l1182 -1308 1305 1037 -2487 271zm6071 865l1703 -77 209 1731 -1912 -1654zm-1564 -1348l-8 -7 -2226 -1923 2803 -1723 2184 3419 -2753 234zm-3798 -5371c1408,-132 2785,-48 4103,223l-3807 2343 -4220 -1599c1226,-500 2541,-836 3924,-967zm-806 3658l-2031 2427 -2746 301 1440 -3994 3337 1266zm-4578 -1992l-1815 5036 -18 5 3 22 -4598 2659c1106,-3276 3404,-6044 6428,-7722zm-3581 11932l-1897 -3129 3655 -2111 296 2611 -2054 2629zm2283 -629l62 542 259 2255 -1490 -1300 1169 -1497zm-2022 2623l2582 2253 2 15 323 2833 -4195 -1005 1288 -4096zm-3770 -510c-139,-1430 -47,-2825 236,-4160l2318 3822 -1442 4588c-577,-1315 -968,-2743 -1112,-4250zm2012 5946l4984 1192 2094 4561c-2940,-1067 -5439,-3099 -7078,-5753zm6535 1192l2825 -266 2303 1765 -3449 2149 -1679 -3648zm6536 5334c-1517,144 -2999,27 -4407,-301l4108 -2556 4661 1696c-1348,604 -2808,1012 -4362,1161zm4623 -2569l-4004 -1460 1709 -2143 3215 -301 -920 3904zm1318 560l1129 -4802 4812 -2783c-1002,3158 -3131,5851 -5941,7585zm2375 -11873l2335 3370 -3591 2074 -293 -3447 1549 -1997zm-1731 -141l-142 -1654 806 756 -664 898zm1567 -2154l-1888 -1629 -258 -3002 3795 1627 -1649 3004zm4322 1094c142,1487 32,2937 -276,4320l-3022 -4352 2248 -4086c548,1278 911,2661 1050,4118zm-6943 -7463l-2855 -4479c3541,1070 6530,3527 8261,6797l-5406 -2318z"/>
 </g>
</svg>
