<?xml version="1.0" encoding="UTF-8"?>
<!DOCTYPE svg PUBLIC "-//W3C//DTD SVG 1.1//EN" "http://www.w3.org/Graphics/SVG/1.1/DTD/svg11.dtd">
<!-- Creator: CorelDRAW X7 -->
<svg xmlns="http://www.w3.org/2000/svg" xml:space="preserve" width="50px" height="50px" version="1.1" style="shape-rendering:geometricPrecision; text-rendering:geometricPrecision; image-rendering:optimizeQuality; fill-rule:evenodd; clip-rule:evenodd"
viewBox="0 0 119965 119965"
 xmlns:xlink="http://www.w3.org/1999/xlink">
 <defs>
  <style type="text/css">
   <![CDATA[
    .fil0 {fill:none}
    .fil1 {fill:black}
   ]]>
  </style>
 </defs>
 <g id="Layer_x0020_1">
  <metadata id="CorelCorpID_0Corel-Layer"/>
  <rect class="fil0" y="-1" width="119965" height="119966"/>
  <path class="fil1" d="M77190 49837l-67047 20c-5589,0 -10137,4546 -10137,10134 0,5586 4548,10134 10137,10134l62813 -8 0 8 36867 0c5531,0 10037,-4455 10131,-9961 93,-5668 -4730,-10307 -10401,-10307l-32363 0 0 -20zm-65466 1757c802,468 1525,1091 2142,1837 366,439 695,921 981,1439l-20 -360c0,-887 360,-1692 938,-2270 266,-266 581,-487 932,-649l-4973 3zm3877 5008c345,1051 535,2190 535,3381 0,1470 -289,2865 -805,4109 125,-196 273,-377 434,-539 578,-578 1383,-938 2270,-938 779,0 1499,281 2057,743 -425,-1071 -663,-2233 -663,-3452 0,-952 142,-1873 408,-2740 -513,348 -1136,552 -1802,552 -887,0 -1692,-360 -2270,-938l-164 -178zm-624 8252c-317,609 -688,1173 -1111,1681 -623,751 -1354,1380 -2165,1850l4401 0c-119,-88 -232,-187 -337,-292 -578,-578 -938,-1386 -938,-2270 0,-337 54,-660 150,-969zm-2579 -10199c-1079,-1301 -2567,-2111 -4197,-2111 -1629,0 -3117,810 -4197,2111 -1122,1349 -1816,3236 -1816,5328 0,2091 694,3978 1816,5327 1080,1301 2568,2112 4197,2112 1630,0 3118,-811 4197,-2112 1123,-1349 1817,-3236 1817,-5327 0,-2092 -694,-3979 -1817,-5328zm94545 13730c-856,-465 -1629,-1085 -2292,-1825l-250 -292c-88,728 -425,1383 -915,1873l-275 244 3732 0zm-4293 -5384c-295,-947 -453,-1964 -453,-3018 0,-890 113,-1749 325,-2568 -399,176 -841,275 -1303,275 -182,0 -360,-11 -536,-43 193,746 295,1531 295,2336 0,955 -145,1876 -411,2746 210,-43 428,-66 652,-66 513,0 1000,122 1431,338zm1695 -9236l306 -360c654,-731 1422,-1346 2267,-1811l-4302 0c323,156 618,366 870,618 417,417 723,952 859,1553zm10947 915c-1182,-1317 -2817,-2136 -4611,-2136 -1794,0 -3429,819 -4608,2136 -1207,1346 -1955,3225 -1955,5303 0,2077 748,3956 1955,5302 1179,1318 2814,2137 4608,2137 1794,0 3429,-819 4611,-2137 1207,-1343 1955,-3222 1955,-5302 0,-2081 -748,-3959 -1955,-5303zm-19526 -3086c910,454 1738,1049 2452,1757 161,-433 413,-822 731,-1139 252,-252 547,-462 870,-618l-4053 0zm3752 3373c151,238 292,481 423,734l28 31c320,320 762,518 1250,518 484,0 926,-198 1247,-518 320,-321 518,-765 518,-1250 0,-485 -198,-930 -518,-1250 -321,-320 -763,-518 -1247,-518 -488,0 -930,198 -1250,518 -320,320 -519,763 -519,1250 0,167 23,332 68,485zm-1397 11740c-697,678 -1502,1245 -2383,1678l3486 0 -275 -244c-388,-388 -680,-884 -828,-1434zm-10630 1678c-926,-456 -1768,-1063 -2491,-1785l0 -3c-167,-167 -328,-340 -481,-522 -80,751 -420,1429 -921,1930 -139,139 -292,267 -457,380l4350 0zm-4789 -5549c-289,-898 -445,-1859 -445,-2853 0,-944 142,-1857 403,-2718 -406,187 -859,289 -1332,289 -230,0 -451,-23 -666,-68 -165,-14 -329,-40 -485,-79 235,816 360,1683 360,2576 0,892 -125,1754 -360,2573 241,-57 493,-88 751,-88 227,0 451,25 666,71l20 0 0 3c385,34 754,136 1088,294zm1802 -8935c159,-187 323,-363 496,-536 714,-714 1548,-1315 2463,-1771l-4483 0c226,136 433,298 618,482 478,479 810,1117 906,1825zm12376 816c-1340,-1340 -3205,-2173 -5262,-2173 -2058,0 -3923,836 -5263,2176 -1340,1340 -2176,3205 -2176,5263 0,2057 833,3922 2173,5262l3 0c1340,1341 3205,2177 5263,2177 2054,0 3919,-834 5262,-2174l3 -3c1340,-1343 2174,-3208 2174,-5262 0,-2058 -836,-3923 -2177,-5263l0 -3zm-21555 -3123c919,456 1749,1057 2466,1771l3 0 48 49c150,-536 436,-1018 816,-1398 159,-158 337,-300 524,-422l-3857 0zm2517 14955l-48 48 -3 3c-723,722 -1564,1329 -2494,1785l2216 0 1692 0c-198,-127 -383,-275 -547,-439 -380,-380 -666,-862 -816,-1397zm-10792 1836c-926,-456 -1768,-1063 -2491,-1785l0 -3c-178,-179 -351,-363 -513,-556 -28,842 -382,1607 -935,2160l-201 184 4140 0zm-4701 -5285c-346,-978 -533,-2026 -533,-3117 0,-870 122,-1715 346,-2517 -403,181 -850,283 -1321,283 -371,0 -728,-62 -1060,-178 204,771 315,1578 315,2412 0,1042 -176,2048 -490,2987 379,-159 799,-247 1235,-247 544,0 1060,139 1508,377zm1649 -9122c176,-213 366,-417 561,-613 726,-725 1570,-1332 2500,-1788l-4988 0c391,165 745,400 1040,694 454,454 768,1046 887,1707zm12441 739c-1340,-1340 -3205,-2173 -5262,-2173 -2058,0 -3923,836 -5263,2176 -1340,1340 -2177,3205 -2177,5263 0,2057 834,3922 2174,5262l3 0c1340,1341 3205,2177 5263,2177 2054,0 3919,-834 5262,-2174l3 -3c1340,-1343 2174,-3208 2174,-5262 0,-2058 -836,-3923 -2177,-5263l0 -3zm-21580 -3134c927,456 1768,1060 2491,1782l3 0 374 397c141,-575 442,-1088 844,-1491 292,-291 644,-529 1035,-691l-4747 3zm2794 14699l-300 315 -3 3c-723,722 -1564,1329 -2494,1785l3916 0 -201 -184c-501,-502 -839,-1170 -918,-1919zm-11044 2103c-926,-456 -1768,-1063 -2491,-1785l0 -3c-513,-513 -963,-1085 -1349,-1703 100,309 153,637 153,977 0,885 -359,1692 -938,2270l-274 244 4899 0zm-4389 -4520c-542,-1185 -845,-2499 -845,-3882 0,-1114 196,-2185 556,-3177 -573,547 -1361,884 -2217,884 -773,0 -1485,-275 -2037,-728 306,926 473,1915 473,2944 0,1352 -289,2638 -808,3803l102 -108c579,-578 1383,-938 2270,-938 885,0 1692,360 2270,938l236 264zm680 -9000c354,-542 762,-1043 1218,-1500 720,-719 1556,-1323 2483,-1782l-5509 3c334,158 635,368 892,626 579,578 938,1383 938,2270l-22 383zm13098 -148c-1340,-1340 -3205,-2173 -5262,-2173 -2058,0 -3923,836 -5263,2176 -1340,1340 -2177,3205 -2177,5263 0,2057 834,3922 2174,5262l3 0c1340,1341 3205,2177 5263,2177 2054,0 3919,-834 5262,-2174l3 -3c1340,-1343 2174,-3208 2174,-5262 0,-2058 -836,-3923 -2177,-5263l0 -3zm-22921 -3128c862,444 1647,1020 2327,1700l3 0c405,405 774,850 1102,1326l-3 -133c0,-887 360,-1692 938,-2270 256,-255 556,-470 890,-626l-5257 3zm3540 13444c-351,535 -760,1037 -1210,1487l-3 3c-765,763 -1661,1397 -2652,1862l4967 0 -275 -244c-578,-578 -938,-1385 -938,-2270 0,-289 40,-572 111,-838zm-11792 3352c-989,-465 -1890,-1099 -2652,-1862l0 -3c-346,-345 -669,-722 -958,-1119 19,139 28,281 28,422 0,884 -360,1692 -938,2270 -105,105 -218,204 -337,292l4857 0zm-3585 -14011c284,-385 595,-748 933,-1085 677,-677 1459,-1256 2320,-1700l-5126 2c349,159 669,380 938,649 550,550 901,1301 935,2134zm12812 267c-1340,-1341 -3205,-2174 -5262,-2174 -2058,0 -3922,836 -5263,2176 -1340,1341 -2176,3206 -2176,5263 0,2057 833,3922 2173,5263l3 0c1341,1340 3205,2176 5263,2176 2054,0 3919,-833 5262,-2174l3 -2c1341,-1344 2174,-3208 2174,-5263 0,-2057 -836,-3922 -2177,-5263l0 -2zm67167 9462c-488,0 -930,198 -1250,519 -320,320 -519,762 -519,1249 0,485 199,930 519,1250 320,320 762,519 1250,519 484,0 926,-199 1247,-519 320,-320 518,-765 518,-1250 0,-484 -198,-929 -518,-1249 -321,-321 -763,-519 -1247,-519zm-20348 3341l57 0c485,0 930,-198 1250,-518 320,-321 518,-766 518,-1250 0,-488 -198,-930 -518,-1250 -218,-218 -496,-380 -799,-459l-51 0c-488,0 -930,198 -1250,519 -320,320 -519,762 -519,1249 0,485 199,930 519,1250 218,218 487,377 793,459zm0 -11389l57 0c485,0 930,-199 1250,-519 320,-320 518,-765 518,-1250 0,-487 -198,-929 -518,-1249 -218,-219 -496,-380 -799,-459l-51 0c-488,0 -930,198 -1250,518 -320,320 -519,762 -519,1250 0,485 199,929 519,1250 218,218 487,377 793,459zm-18780 8626c-320,-320 -765,-518 -1250,-518 -487,0 -929,198 -1250,518 -320,320 -518,763 -518,1250 0,485 198,929 518,1250 321,320 763,518 1250,518 485,0 930,-198 1250,-518 320,-321 519,-765 519,-1250 0,-487 -199,-930 -519,-1250zm0 -11389c-320,-321 -765,-519 -1250,-519 -487,0 -929,198 -1250,519 -320,320 -518,762 -518,1249 0,485 198,930 518,1250 321,320 763,519 1250,519 485,0 930,-199 1250,-519 320,-320 519,-765 519,-1250 0,-487 -199,-929 -519,-1249zm-42806 11282c-320,-321 -765,-519 -1250,-519 -487,0 -930,198 -1250,519 -320,320 -518,762 -518,1249 0,485 198,930 518,1250 320,320 763,519 1250,519 485,0 930,-199 1250,-519 320,-320 518,-765 518,-1250 0,-487 -198,-929 -518,-1249zm21679 48c-320,-321 -765,-519 -1250,-519 -487,0 -929,198 -1249,519 -321,320 -519,762 -519,1249 0,485 198,930 519,1250 320,320 762,519 1249,519 485,0 930,-199 1250,-519 320,-320 519,-765 519,-1250 0,-487 -199,-929 -519,-1249zm-21679 -11361c-320,-321 -765,-519 -1250,-519 -487,0 -930,198 -1250,519 -320,320 -518,762 -518,1249 0,485 198,930 518,1250 320,320 763,519 1250,519 485,0 930,-199 1250,-519 320,-320 518,-765 518,-1250 0,-487 -198,-929 -518,-1249zm21679 -29c-320,-320 -765,-518 -1250,-518 -487,0 -929,198 -1249,518 -321,320 -519,763 -519,1250 0,485 198,929 519,1250 320,320 762,518 1249,518 485,0 930,-198 1250,-518 320,-321 519,-765 519,-1250 0,-487 -199,-930 -519,-1250z"/>
 </g>
</svg>
