<?xml version="1.0" encoding="utf-8"?>
<!-- Generator: Adobe Illustrator 18.0.0, SVG Export Plug-In . SVG Version: 6.00 Build 0)  -->
<!DOCTYPE svg PUBLIC "-//W3C//DTD SVG 1.1//EN" "http://www.w3.org/Graphics/SVG/1.1/DTD/svg11.dtd">
<svg version="1.1" id="Layer_1" xmlns="http://www.w3.org/2000/svg" xmlns:xlink="http://www.w3.org/1999/xlink" x="0px" y="0px"
	 width="50px" height="50px" viewBox="0 0 50 50" enable-background="new 0 0 50 50" xml:space="preserve">
<g>
	<path d="M43.8857155,19.6158791H28.952776l-3.9527874-3.9528313l-3.9527645,3.9528313H6.1142616
		C3.2941954,19.6158791,1,21.9101639,1,24.7302513v0.5394745c0,2.8200893,2.2941954,5.1143951,5.1142616,5.1143951h14.9328957
		l3.9528313,3.9528313l3.9528313-3.9528313h14.9328957C46.7058029,30.3841209,49,28.0898151,49,25.2697258v-0.5394745
		C49,21.9101639,46.7058029,19.6158791,43.8857155,19.6158791z M34.0230484,25.3139362l0.1155167-0.1155396
		c1.012764,0.0890846,1.809864,0.9413471,1.809864,1.9767685c0,1.0946064-0.8905334,1.9850521-1.9851608,1.9850521
		c-1.035511,0-1.8877068-0.7970104-1.9767475-1.8097763L34.0230484,25.3139362z M44.1317482,23.30793
		c0.132103,0.5580673,0.4407806,1.0483189,0.863987,1.4084091c-0.3058739-0.1235123-0.6395569-0.1921692-0.9891357-0.1921692
		c-0.2082443,0-0.4106598,0.0248871-0.6051941,0.0704899C43.7559319,24.2490997,44.0139542,23.8054676,44.1317482,23.30793z
		 M46.56604,26.4854813c-0.1417313-0.5253201-0.4411392-0.9862862-0.8442268-1.3292637
		c0.3059425,0.1235352,0.6396904,0.1922359,0.9893799,0.1922359c0.1900711,0,0.3751755-0.0210457,0.5540924-0.0592728
		C46.9354057,25.6146011,46.6903458,26.025507,46.56604,26.4854813z M41.4595528,26.4411812
		c-0.1400757-0.4851704-0.4148369-0.9135876-0.7816429-1.2416363c0.2740097,0.0960407,0.568161,0.1489086,0.874588,0.1489086
		c0.2081604,0,0.4104881-0.024889,0.6049538-0.0704689C41.8325386,25.5946827,41.5887146,25.9937515,41.4595528,26.4411812z
		 M36.4379959,26.2257137c-0.1374474-0.3569775-0.3497124-0.6769638-0.6179352-0.9404621
		c0.1848145,0.0409412,0.376564,0.0632019,0.5735474,0.0632019c0.2397575,0,0.4719658-0.0325737,0.6930199-0.0925083
		C36.8040047,25.5249653,36.5806084,25.8553104,36.4379959,26.2257137z M38.973053,23.3079071
		c0.1268692,0.5359859,0.4164276,1.0095177,0.8140602,1.3651714c-0.2740097-0.0960407-0.5681839-0.1489086-0.8746109-0.1489086
		c-0.2396927,0-0.4718323,0.0325508-0.6928215,0.0924625C38.5859985,24.2679596,38.8527451,23.8161106,38.973053,23.3079071z
		 M36.3936081,24.682375c-1.0946274,0-1.9849396-0.8904228-1.9849396-1.9850273
		c0-1.0946293,0.8903122-1.9850731,1.9849396-1.9850731c1.0946045,0,1.9851608,0.8904438,1.9851608,1.9850731
		C38.3787689,23.7919521,37.4882126,24.682375,36.3936081,24.682375z M38.9125023,25.1902256
		c1.0946045,0,1.9851608,0.8904228,1.9851608,1.9849396c0,1.0946064-0.8905563,1.9850521-1.9851608,1.9850521
		c-1.0946274,0-1.9849396-0.8904457-1.9849396-1.9850521C36.9275627,26.0806484,37.8178749,25.1902256,38.9125023,25.1902256z
		 M44.0065994,25.1902256c1.0946083,0,1.9849396,0.8904228,1.9849396,1.9849396
		c0,1.0946064-0.8903313,1.9850521-1.9849396,1.9850521c-1.0946274,0-1.9851608-0.8904457-1.9851608-1.9850521
		C42.0214386,26.0806484,42.911972,25.1902256,44.0065994,25.1902256z M41.5524979,24.682375
		c-1.0946274,0-1.9851608-0.8904228-1.9851608-1.9850273c0-1.0946293,0.8905334-1.9850731,1.9851608-1.9850731
		c1.0946312,0,1.9849434,0.8904438,1.9849434,1.9850731C43.5374413,23.7919521,42.6471291,24.682375,41.5524979,24.682375z
		 M38.973053,22.0867424c-0.1863403-0.7871838-0.7239799-1.4399014-1.438221-1.78195h2.8764458
		C39.6970139,20.646841,39.1593933,21.2995586,38.973053,22.0867424z M33.8143616,22.0867424
		c-0.1863403-0.7871838-0.7239609-1.4399014-1.4382019-1.78195h2.8763351
		C34.5383186,20.646841,34.0006981,21.2995586,33.8143616,22.0867424z M33.2200737,22.6973476
		c0,0.3420486-0.0886612,0.6628971-0.2421417,0.9437542l-2.6070957-2.6071625l-0.0802727-0.0802727
		c0.280901-0.1533909,0.6022568-0.2413921,0.9443512-0.2413921C32.3295212,20.7122746,33.2200737,21.6027184,33.2200737,22.6973476z
		 M33.8142929,23.307642c0.116909,0.4941368,0.3720627,0.9351864,0.7227669,1.2797756
		c-0.1848831-0.040966-0.3767433-0.0632477-0.5737915-0.0632477c-0.0334549,0-0.0666695,0.0010605-0.0997505,0.0025177
		l-0.3292618-0.3292408l-0.0700951-0.0700932C33.6242218,23.8791809,33.744091,23.6029854,33.8142929,23.307642z
		 M36.4379959,28.1246834c0.2853165,0.7410736,0.8940201,1.3224392,1.6525612,1.5705032h-3.3052368
		C35.543972,29.4471226,36.1526566,28.865757,36.4379959,28.1246834z M41.4595528,27.9091949
		c0.2433357,0.8429661,0.8942413,1.5143433,1.7249947,1.7859917h-3.4499931
		C40.5652847,29.4235382,41.2162132,28.752161,41.4595528,27.9091949z M46.566391,27.8635921
		c0.0657425,0.2424984,0.1651421,0.4711266,0.2928696,0.6809406c-0.4198456,0.3815784-0.9131241,0.6837006-1.455822,0.882473
		C45.9669838,29.0761223,46.3897247,28.5199318,46.566391,27.8635921z M47.1404266,27.1751652
		c0-0.8030167,0.4804459-1.4938049,1.1681213-1.8057766c-0.022438,1.0062504-0.3817787,1.9304371-0.9702759,2.664135
		C47.2122421,27.7736683,47.1404266,27.4829865,47.1404266,27.1751652z M48.2417221,23.9552593
		c-0.3638,0.4429913-0.9136734,0.7271156-1.530529,0.7271156c-1.0946274,0-1.9851608-0.8904228-1.9851608-1.9850273
		c0-0.8454838,0.5326958-1.5657539,1.2791328-1.8508511C47.160965,21.4797802,48.0037537,22.6142254,48.2417221,23.9552593z
		 M45.2205238,20.5109615c-0.5375977,0.3670254-0.9340401,0.9249401-1.0886002,1.5765972
		c-0.186161-0.7875576-0.7238922-1.4406071-1.4383125-1.7827663h1.1921043
		C44.350769,20.3047924,44.7991066,20.3773575,45.2205238,20.5109615z M30.0950603,20.3047924
		c-0.1005898,0.0482082-0.1977558,0.1024666-0.2908821,0.1624889l-0.162468-0.1624889H30.0950603z M5.5399399,26.3621674
		c-0.1328316-0.4112148-0.3634038-0.7787476-0.6644883-1.0751286c0.1824307,0.0398178,0.3716187,0.0614147,0.5658197,0.0614147
		c0.295321,0,0.5791802-0.0492897,0.8446884-0.138773C5.94486,25.518362,5.6845636,25.9144936,5.5399399,26.3621674z
		 M2.315726,22.7545204c0,0.5500298-0.226023,1.0469284-0.5889187,1.4062462
		c0.0775567-0.6006241,0.2755561-1.1637039,0.569618-1.6643333C2.3078866,22.5810337,2.315726,22.6667614,2.315726,22.7545204z
		 M2.8940449,23.4299622c0.1278186,0.4437199,0.3682179,0.8400497,0.6887798,1.1556225
		c-0.1824527-0.0398388-0.3716185-0.0614147-0.5658195-0.0614147c-0.3004663,0-0.5882564,0.0526466-0.8577616,0.1451759
		C2.508028,24.3361073,2.7669332,23.9095898,2.8940449,23.4299622z M18.3379707,22.0872498
		c-0.1862278-0.7873821-0.7237587-1.4403419-1.4380016-1.7824574h2.8763351
		C19.0618858,20.6469078,18.5242004,21.2998466,18.3379707,22.0872498z M15.7588568,25.3484535
		c0.0811558,0,0.1610975-0.0049686,0.2403994-0.0122566l0.3116188,0.3116188
		c-0.220171,0.3099384-0.3751965,0.6688156-0.4455328,1.0569305c-0.1010752-0.5617332-0.3794136-1.0623188-0.7752352-1.4418888
		C15.3038292,25.3185959,15.5279093,25.3484535,15.7588568,25.3484535z M10.659833,26.6411686
		c-0.1115217-0.5430737-0.3901472-1.0256386-0.778924-1.3926868c0.2289152,0.0646381,0.4699554,0.0999718,0.7192545,0.0999718
		c0.3166971,0,0.6205196-0.0560265,0.9023256-0.1583385C11.0803442,25.5635891,10.77736,26.0688114,10.659833,26.6411686z
		 M8.0207176,23.3079071c0.121171,0.5118256,0.3908529,0.9665222,0.7611904,1.3161907
		c-0.2288275-0.0645943-0.4698009-0.0999279-0.7190332-0.0999279c-0.2952328,0-0.5790257,0.0492458-0.8444896,0.1387272
		C7.6100774,24.3084602,7.8950853,23.8386803,8.0207176,23.3079071z M8.6150026,22.6973476
		c0-1.0946293,0.8905554-1.9850731,1.9851608-1.9850731c1.0946274,0,1.9849396,0.8904438,1.9849396,1.9850731
		c0,1.0946045-0.8903122,1.9850273-1.9849396,1.9850273C9.505558,24.682375,8.6150026,23.7919521,8.6150026,22.6973476z
		 M13.2569895,25.1902256c1.0946274,0,1.9849405,0.8904228,1.9849405,1.9849396
		c0,1.0946064-0.8903131,1.9850521-1.9849405,1.9850521c-1.0946054,0-1.9851608-0.8904457-1.9851608-1.9850521
		C11.2718287,26.0806484,12.162384,25.1902256,13.2569895,25.1902256z M13.2569895,24.5241699
		c-0.3167858,0-0.620697,0.0560265-0.9025469,0.1583824c0.4031544-0.3567123,0.696929-0.8338242,0.8249683-1.3746223
		c0.1194925,0.5048466,0.3835211,0.9540672,0.7461081,1.3017902C13.7118626,24.5539818,13.4878712,24.5241699,13.2569895,24.5241699
		z M13.1794109,22.0867424c-0.1863394-0.7871838-0.723959-1.4399014-1.4381342-1.78195h2.8763342
		C13.9033689,20.646841,13.3657503,21.2995586,13.1794109,22.0867424z M8.0207176,22.0867424
		c-0.1863394-0.7871838-0.7239809-1.4399014-1.4382229-1.78195h2.8764448
		C8.7446756,20.646841,8.207057,21.2995586,8.0207176,22.0867424z M5.4412713,20.7122746
		c1.0946054,0,1.9851608,0.8904438,1.9851608,1.9850731c0,1.0946045-0.8905554,1.9850273-1.9851608,1.9850273
		c-1.0946274,0-1.9849401-0.8904228-1.9849401-1.9850273C3.4563313,21.6027184,4.3466439,20.7122746,5.4412713,20.7122746z
		 M8.0628748,25.1902256c1.0946274,0,1.9849396,0.8904228,1.9849396,1.9849396c0,1.0946064-0.8903122,1.9850521-1.9849396,1.9850521
		s-1.9849405-0.8904457-1.9849405-1.9850521C6.0779343,26.0806484,6.9682469,25.1902256,8.0628748,25.1902256z
		 M10.659833,27.7091866c0.1921911,0.9360466,0.8795576,1.6931744,1.7751255,1.9860001H8.8848171
		C9.7802744,29.4023609,10.4676409,28.6452332,10.659833,27.7091866z M15.8652763,27.6460495
		c0.1737747,0.9649105,0.870924,1.7497959,1.7864552,2.0491371h-3.5727997
		C14.9943533,29.3958454,15.6914806,28.61096,15.8652763,27.6460495z M16.4886017,27.1751652
		c0-0.3848228,0.1113663-0.7433472,0.302166-1.0474339l0.0389996,0.0389767l0.3438377,0.3438587l2.3475037,2.3475056
		c-0.3040657,0.1907558-0.6625214,0.302145-1.0473461,0.302145C17.3791351,29.1602173,16.4886017,28.2697716,16.4886017,27.1751652z
		 M16.0356503,24.6274986l-0.0385809,0.0385799c-0.0782404,0.0096283-0.1573658,0.0162964-0.2382126,0.0162964
		c-1.0946274,0-1.9851608-0.8904228-1.9851608-1.9850273c0-1.0946293,0.8905334-1.9850731,1.9851608-1.9850731
		c1.0946054,0,1.9849405,0.8904438,1.9849405,1.9850731c0,0.0802059-0.0053883,0.1590881-0.0147972,0.2367764L16.0356503,24.6274986
		z M3.0611498,21.5313015c-0.0767176,0.1559963-0.1386395,0.3204727-0.1837337,0.4917736
		c-0.0219288-0.0759888-0.0461321-0.1510487-0.0745313-0.224102C2.8851676,21.7061138,2.9714472,21.6169624,3.0611498,21.5313015z
		 M1.708964,25.6843185c0.3495795-0.3071136,0.8071908-0.4940929,1.3080412-0.4940929
		c1.0946052,0,1.9849398,0.8904228,1.9849398,1.9849396c0,0.8315277-0.5140119,1.544754-1.2408414,1.8398094
		C2.6278303,28.300312,1.8399183,27.0866337,1.708964,25.6843185z M4.4807119,29.3813591
		c0.4946451-0.3289986,0.8727117-0.8185635,1.0586758-1.3947411c0.2599874,0.8066177,0.8964739,1.4452896,1.7015443,1.7085686
		H6.1142616C5.5373783,29.6951866,4.9865088,29.5830688,4.4807119,29.3813591z M19.2926788,29.6951866
		c0.2551727-0.0836525,0.4935856-0.2046261,0.7083683-0.3571777l0.2214508,0.2214298l0.135725,0.1357479H19.2926788z
		 M28.6675701,29.6951866l-0.6889343,0.6889343l-2.9786472,2.9786453l-2.9786243-2.9786453l-0.6889343-0.6889343
		l-0.5437813-0.5437584l-0.3245583-0.3245602l-2.9071636-2.9071636l-0.324625-0.324646l-0.279995-0.279995l-0.3150177-0.3150196
		l0.1525517-0.1525517l2.2260227-2.2260456l0.4010353-0.4010563l1.915575-1.9155979l0.6889343-0.6889133l2.9785805-2.9786453
		l2.9785805,2.9786453l0.6889343,0.6889133l0.860323,0.8603458l0.3259735,0.3259945l2.8963184,2.8962975l0.3248482,0.3249111
		l0.1103935,0.1103516l0.1773529,0.177351l-0.3168983,0.3168526l-1.4926796,1.4927025l-0.5247669,0.5247879L28.6675701,29.6951866z
		 M31.1741848,28.162756l0.24687-0.24687c0.2446404,0.8394318,0.8926773,1.5081596,1.7200279,1.7793007h-3.4993267
		L31.1741848,28.162756z"/>
	<path d="M24.9999886,19.9478817c-2.7857704,0-5.0521622,2.2663918-5.0521622,5.0521622
		c0,2.7857933,2.2663918,5.0521641,5.0521622,5.0521641c2.7857933,0,5.0521641-2.2663708,5.0521641-5.0521641
		C30.0521526,22.2142735,27.7857819,19.9478817,24.9999886,19.9478817z M24.9999886,29.3632736
		c-2.4058704,0-4.3632278-1.9573593-4.3632278-4.3632298s1.9573574-4.3632278,4.3632278-4.3632278
		s4.3632298,1.9573574,4.3632298,4.3632278S27.405859,29.3632736,24.9999886,29.3632736z"/>
</g>
</svg>
