<?xml version="1.0" encoding="utf-8"?>
<!-- Generator: Adobe Illustrator 18.0.0, SVG Export Plug-In . SVG Version: 6.00 Build 0)  -->
<!DOCTYPE svg PUBLIC "-//W3C//DTD SVG 1.1//EN" "http://www.w3.org/Graphics/SVG/1.1/DTD/svg11.dtd">
<svg version="1.1" id="Layer_1" xmlns="http://www.w3.org/2000/svg" xmlns:xlink="http://www.w3.org/1999/xlink" x="0px" y="0px"
	 width="50px" height="50px" viewBox="0 0 50 50" enable-background="new 0 0 50 50" xml:space="preserve">
<g>
	<path d="M43.8855019,19.6158829H28.9527893l-3.9527855-3.9528303l-3.9527874,3.9528303H6.114284
		c-2.820087,0-5.1142812,2.2942829-5.1142812,5.1143684v0.5394745c0,2.8200874,2.2941942,5.1143913,5.1142812,5.1143913h14.932888
		l3.9528313,3.9528313l3.9528294-3.9528313h14.9326687c2.8200874,0,5.114502-2.2943039,5.114502-5.1143913v-0.5394745
		C49.0000038,21.9101658,46.7055893,19.6158829,43.8855019,19.6158829z M43.8855019,20.3047943
		c1.2946587,0,2.4575653,0.5622864,3.2675819,1.4514275H31.0931072l-1.4514065-1.4514275H43.8855019z M44.3474846,22.4451561
		v5.1023998h-2.9279442v-5.1023998H44.3474846z M40.730587,22.4451561v5.1023998h-3.2533646v-5.1023998H40.730587z
		 M33.5351715,24.1983089v-1.7531528h3.2531395v5.1023998h-3.2531395v-1.7457752l0.801712-0.8017368L33.5351715,24.1983089z
		 M32.8462601,22.4451561v1.0642395l-1.0642414-1.0642395H32.8462601z M6.114284,20.3047943H20.358305l-1.4514046,1.4514275
		H2.8467886C3.6567173,20.8670807,4.8196263,20.3047943,6.114284,20.3047943z M18.2179871,22.4451561l-0.4517365,0.4517593
		v-0.4517593H18.2179871z M17.0772953,22.4451561v1.1407146l-1.4141741,1.4141731l1.4141741,1.414196v1.133316h-3.2533627
		v-5.1023998H17.0772953z M13.1350203,22.4451561v5.1023998H9.8818789v-5.1023998H13.1350203z M9.1929455,22.4451561v5.1023998
		H6.1118107v-5.1023998H9.1929455z M2.4949348,22.1974258c0.0503058-0.0716839,0.1026654-0.1417542,0.1570125-0.2102337
		c-0.0541263,0.0686569-0.1067066,0.1385727-0.1570125,0.2102547V22.1974258z M1.8060007,26.2801266
		c-0.0761875-0.3246689-0.1170638-0.6628094-0.1170638-1.0104008v-0.5394745c0-0.3452721,0.0410529-0.6807404,0.1170638-1.0028915
		V26.2801266z M2.4949348,27.5475559v-5.1023998h2.927964v5.1023998H2.4949348z M6.114284,29.6951828
		c-1.2998033,0-2.470331-0.5634327-3.2806792-1.4587135h16.065918l1.4587383,1.4587135H6.114284z M17.7662506,27.5475559v-0.4443607
		l0.4443607,0.4443607H17.7662506z M28.6675606,29.6951828l-0.6889114,0.6889343l-2.9786453,2.9786453l-2.9786472-2.9786453
		l-0.6889114-0.6889343l-1.4587364-1.4587135l-0.6889133-0.6889133l-2.5474892-2.5475121l2.5549107-2.5548878l0.6888676-0.6889343
		l1.4514046-1.4514275l0.6889572-0.6889114l2.9785576-2.9786453l2.9785995,2.9786453l0.6889133,0.6889114l1.4514046,1.4514275
		l0.6888676,0.6889343l2.5549126,2.5548878l-2.5474911,2.5475121l-0.6889133,0.6889133L28.6675606,29.6951828z
		 M32.8462601,26.4906921v1.0568638h-1.0568657L32.8462601,26.4906921z M43.8855019,29.6951828H29.6417885l1.4586945-1.4587135
		h16.0658073C46.3558769,29.1317501,45.1852837,29.6951828,43.8855019,29.6951828z M47.5104828,27.5475559H45.036396v-5.1023998
		h2.4740868V27.5475559z M48.3110466,25.2697258c0,0.3391342-0.0389977,0.6692352-0.1116524,0.986639v-2.5056419
		c0.0725212,0.3150196,0.1116524,0.6425819,0.1116524,0.9795284V25.2697258z"/>
	<path d="M28.8693142,21.7562218c-0.5346375-0.6366844-1.2232418-1.1392345-2.0077744-1.4514275
		c-0.5765076-0.2293797-1.2042046-0.3569107-1.861536-0.3569107c-0.6572895,0-1.2850304,0.1275311-1.8614941,0.3569107
		c-0.7845764,0.3121929-1.473135,0.814743-2.0078182,1.4514275c-0.1806412,0.2151356-0.3432636,0.4455986-0.4865837,0.6889343
		c-0.4416676,0.7501717-0.6962433,1.623148-0.6962433,2.5548878c0,2.1283932,1.3235874,3.9522343,3.1903801,4.6951389
		c0.5765514,0.2294693,1.2043381,0.3570213,1.8617592,0.3570213s1.2852058-0.127552,1.8618011-0.3570213
		c1.8667488-0.7429047,3.1903801-2.5667458,3.1903801-4.6951389c0-0.9317398-0.2546196-1.8047161-0.6962872-2.5548878
		C29.2125778,22.2018204,29.0499554,21.9713573,28.8693142,21.7562218z M25.0000038,29.3632717
		c-2.4058933,0-4.3632278-1.9573574-4.3632278-4.3632278c0-0.9545956,0.3117294-1.8357658,0.8338223-2.5548878
		c0.182497-0.2513962,0.3908768-0.4818592,0.6216469-0.6889343c0.7727394-0.6934605,1.7902088-1.1194038,2.9077587-1.1194038
		c1.117548,0,2.1350174,0.4259434,2.9077568,1.1194038c0.230772,0.2070751,0.4391937,0.4375381,0.6216469,0.6889343
		c0.5220928,0.7191219,0.8338223,1.6002922,0.8338223,2.5548878C29.3632298,27.4059143,27.4058952,29.3632717,25.0000038,29.3632717
		z"/>
</g>
</svg>
