<?xml version="1.0" encoding="UTF-8"?>
<!DOCTYPE svg PUBLIC "-//W3C//DTD SVG 1.1//EN" "http://www.w3.org/Graphics/SVG/1.1/DTD/svg11.dtd">
<!-- Creator: CorelDRAW X7 -->
<svg xmlns="http://www.w3.org/2000/svg" xml:space="preserve" width="50px" height="50px" version="1.1" style="shape-rendering:geometricPrecision; text-rendering:geometricPrecision; image-rendering:optimizeQuality; fill-rule:evenodd; clip-rule:evenodd"
viewBox="0 0 140056 139404"
 xmlns:xlink="http://www.w3.org/1999/xlink">
 <defs>
  <style type="text/css">
   <![CDATA[
    .fil0 {fill:none}
    .fil1 {fill:#030303}
   ]]>
  </style>
 </defs>
 <g id="Layer_x0020_1">
  <metadata id="CorelCorpID_0Corel-Layer"/>
  <rect class="fil0" x="323" y="-1" width="139406" height="139406"/>
  <path class="fil1" d="M55337 74879l2441 2440 -4874 0 2433 -2440zm12267 2440l2434 -2440 2440 2440 -4874 0zm14648 0l2460 -2467 2463 2467 -4923 0zm14697 0l2460 -2467 2467 2467 -4927 0zm14701 0l2802 -2809 0 -9675 -2855 -2852 -9675 3 -2509 2510 -2513 -2513 -9679 3 -2509 2510 -2513 -2513 -9675 3 -2509 2510 -2490 -2487 -9675 4 -2509 2509 -2513 -2513 -9678 4 -2510 2509 -2512 -2513 -9675 4 -2852 2851 0 0 3 9679 2776 2776 -23780 0c-1491,-2170 -2367,-4798 -2367,-7617l0 -3c0,-2895 925,-5589 2493,-7792l130604 0c1568,2203 2493,4897 2493,7792l0 3c0,2819 -876,5447 -2367,7617l-23806 0zm-73443 0l2433 -2440 2437 2440 -4870 0zm95355 2203l-127068 0c2414,2269 5667,3672 9231,3672l108606 0c3564,0 6817,-1403 9231,-3672zm-130019 -19818l66 0c320,-385 656,-754 1011,-1110 2849,-2848 6784,-4620 11105,-4620l108606 0c4321,0 8256,1772 11105,4620 356,356 691,725 1011,1110l66 0 0 79c2209,2714 3543,6168 3543,9916l0 3c0,4321 -1772,8256 -4620,11104 -2849,2849 -6784,4621 -11105,4621l-108606 0c-4321,0 -8256,-1772 -11105,-4621 -2848,-2848 -4620,-6783 -4620,-11104l0 -3c0,-3748 1334,-7202 3543,-9916l0 -79zm3139 0l126692 0c-2394,-2167 -5572,-3497 -9043,-3497l-108606 0c-3471,0 -6649,1330 -9043,3497zm63698 14213l0 -8480 0 -3 1146 738 4 7011 -1150 734zm10545 -10080l-7123 3 -744 -1149 8611 0 -744 1146zm-8223 -1024l767 1185 -1785 1838 -1225 -781 2243 -2245 0 3zm11645 11098l-1146 -731 0 -7011 1146 -735 0 8477zm-10305 1231l0 0 0 0 781 -1202 5088 -3 780 1205 -6649 0 0 0zm7137 -2855l-1249 1284 -5130 0 -1331 -1366 -3 -5062 1334 -1366 5127 0 1334 1366 3 5062 -10 10 -72 72 -3 0zm1653 -5888l3 6550 -1209 -774 0 -5005 1209 -768 -3 -3zm-10937 6550l0 -6547 1206 771 0 5005 -1206 771zm1364 -6112l-1258 -800 1673 -1722 816 1257 -1231 1268 0 -3zm-4 5677l1235 1268 -813 1252 -1676 -1716 1254 -804 0 0zm6985 1262l1235 -1265 1258 804 -1676 1719 -817 -1258zm1232 -6939l-1235 -1268 816 -1258 1677 1723 -1258 803 0 0zm-1568 -1429l-5084 3 -781 -1205 6646 0 -781 1202zm-8220 8111l1789 1834 -771 1186 -2239 -2240 1221 -780 0 0zm1377 3138l744 -1146 7123 -3 745 1146 -8612 3zm8967 -118l-767 -1189 1781 -1835 1225 781 -2239 2243 0 0zm1014 -10706l-1784 -1838 767 -1185 2242 2242 -1225 781zm-46189 -1970l-7123 4 -744 -1150 8611 0 -744 1146zm-8223 -1024l768 1186 -1785 1837 -1225 -780 2242 -2246 0 3zm11645 11098l-1146 -731 0 -7011 1146 -734 0 8476zm-10304 1232l0 0 0 0 780 -1202 5088 -4 780 1206 -6648 0 0 0zm-3662 -9708l1146 737 3 7011 -1149 735 0 -8480 0 -3zm10798 6852l-1248 1285 -5131 0 -1330 -1367 -4 -5061 1334 -1367 5127 0 1334 1367 3 5061 -9 10 -73 72 -3 0zm1653 -5888l3 6550 -1208 -773 0 -5006 1208 -767 -3 -4zm-10936 6550l0 -6546 1205 770 0 5006 -1205 770zm1363 -6112l-1258 -800 1673 -1722 816 1258 -1231 1268 0 -4zm-3 5678l1234 1268 -813 1251 -1676 -1716 1255 -803 0 0zm6984 1261l1235 -1265 1258 804 -1676 1719 -817 -1258zm1232 -6939l-1235 -1267 817 -1258 1676 1722 -1258 803 0 0zm-1568 -1429l-5084 3 -781 -1205 6646 0 -781 1202zm-8219 8111l1788 1834 -771 1186 -2239 -2239 1222 -781 0 0zm1376 3138l745 -1146 7123 -3 744 1146 -8612 3zm8967 -118l-767 -1189 1782 -1834 1225 780 -2240 2243 0 0zm1015 -10706l-1785 -1838 767 -1185 2243 2243 -1225 780zm56651 -2022l-7123 3 -741 -1149 8608 0 -744 1146zm-8223 -1027l771 1188 -1785 1838 -1228 -784 2246 -2242 -4 0zm11648 11101l-1146 -731 0 -7015 1143 -731 3 8477zm-10307 1231l0 0 0 0 783 -1202 5085 -3 780 1205 -6648 0 0 0zm-3659 -9708l1146 738 3 7011 -1149 734 0 -8480 0 -3zm10798 6853l-1248 1284 -5134 0 -1330 -1366 0 -5062 1330 -1366 5131 0 1333 1366 4 5062 -14 10 -72 72 0 0zm1653 -5888l3 6547 -1208 -771 0 -5005 1205 -768 0 -3zm-10936 6550l0 -6547 1205 771 0 5005 -1205 771zm1363 -6112l-1258 -803 1673 -1719 813 1257 -1228 1265 0 0zm-3 5674l1231 1268 -810 1255 -1676 -1716 1255 -804 0 -3zm6984 1265l1235 -1265 1255 800 -1673 1723 -817 -1258zm1229 -6939l-1232 -1268 814 -1258 1679 1723 -1258 803 -3 0zm-1564 -1429l-5085 3 -784 -1205 6649 0 -780 1202zm-8220 8111l1788 1834 -774 1186 -2239 -2243 1225 -777 0 0zm1376 3138l745 -1146 7123 -3 741 1146 -8609 3zm8968 -122l-768 -1189 1782 -1831 1225 781 -2239 2243 0 -4zm1014 -10702l-1785 -1838 767 -1185 2243 2242 -1225 781zm-46193 -1970l-7123 4 -741 -1150 8609 0 -745 1146zm-8223 -1027l771 1189 -1785 1837 -1228 -783 2246 -2243 -4 0zm11648 11101l-1146 -731 0 -7014 1143 -731 3 8476zm-10307 1232l0 0 0 0 784 -1202 5084 -4 781 1206 -6649 0 0 0zm-3659 -9708l1146 737 3 7011 -1149 735 0 -8480 0 -3zm10798 6852l-1248 1285 -5134 0 -1330 -1367 0 -5061 1330 -1367 5131 0 1334 1367 3 5061 -13 10 -73 72 0 0zm1653 -5888l4 6547 -1209 -770 0 -5006 1205 -767 0 -4zm-10936 6550l0 -6546 1205 770 0 5006 -1205 770zm1363 -6112l-1258 -803 1673 -1719 814 1258 -1229 1264 0 0zm-3 5674l1232 1268 -810 1255 -1677 -1716 1255 -803 0 -4zm6985 1265l1235 -1265 1254 801 -1673 1722 -816 -1258zm1228 -6939l-1232 -1267 814 -1258 1679 1722 -1258 803 -3 0zm-1564 -1429l-5085 3 -784 -1205 6649 0 -780 1202zm-8220 8111l1788 1834 -774 1186 -2239 -2243 1225 -777 0 0zm1377 3138l744 -1146 7123 -3 741 1146 -8608 3zm8967 -121l-767 -1189 1781 -1831 1225 780 -2239 2243 0 -3zm1014 -10703l-1785 -1838 768 -1185 2242 2243 -1225 780zm56652 -2022l-7123 3 -745 -1149 8612 0 -744 1146zm-8223 -1024l767 1185 -1785 1838 -1225 -781 2243 -2245 0 3zm11647 11098l-1149 -731 0 -7011 1146 -735 3 8477zm-10307 1231l0 0 0 0 780 -1202 5088 -3 781 1205 -6649 0 0 0zm-3662 -9708l1146 738 3 7011 -1146 734 0 -8480 -3 -3zm10801 6853l-1251 1284 -5131 0 -1330 -1366 -3 -5062 1333 -1366 5131 0 1334 1366 0 5062 -10 10 -73 72 0 0zm1654 -5888l0 6550 -1206 -774 0 -5005 1206 -768 0 -3zm-10940 6550l0 -6547 1208 771 0 5005 -1208 771zm1363 -6112l-1258 -800 1673 -1722 817 1257 -1232 1268 0 -3zm-3 5677l1235 1268 -814 1252 -1676 -1716 1255 -804 0 0zm6988 1262l1232 -1265 1258 804 -1677 1719 -813 -1258zm1228 -6939l-1231 -1268 813 -1258 1676 1723 -1258 803 0 0zm-1567 -1429l-5082 3 -783 -1205 6648 0 -783 1202zm-8220 8111l1788 1834 -770 1186 -2240 -2240 1222 -780 0 0zm1377 3138l744 -1146 7123 -3 744 1146 -8611 3zm8967 -118l-768 -1189 1782 -1835 1228 781 -2242 2243 0 0zm1014 -10706l-1785 -1838 771 -1185 2242 2242 -1228 781zm-46189 -1970l-7123 4 -744 -1150 8611 0 -744 1146zm-8223 -1024l767 1186 -1785 1837 -1225 -780 2243 -2246 0 3zm11648 11098l-1150 -731 0 -7011 1146 -734 4 8476zm-10308 1232l0 0 0 0 781 -1202 5088 -4 780 1206 -6649 0 0 0zm-3662 -9708l1146 737 4 7011 -1146 735 0 -8480 -4 -3zm10802 6852l-1252 1285 -5130 0 -1331 -1367 -3 -5061 1334 -1367 5130 0 1334 1367 0 5061 -10 10 -72 72 0 0zm1653 -5888l0 6550 -1205 -773 0 -5006 1205 -767 0 -4zm-10940 6550l0 -6546 1209 770 0 5006 -1209 770zm1363 -6112l-1257 -800 1672 -1722 817 1258 -1232 1268 0 -4zm-3 5678l1235 1268 -813 1251 -1676 -1716 1254 -803 0 0zm6988 1261l1232 -1265 1258 804 -1676 1719 -814 -1258zm1229 -6939l-1232 -1267 813 -1258 1676 1722 -1257 803 0 0zm-1568 -1429l-5081 3 -784 -1205 6649 0 -784 1202zm-8220 8111l1789 1834 -771 1186 -2239 -2239 1221 -781 0 0zm1377 3138l744 -1146 7123 -3 744 1146 -8611 3zm8967 -118l-767 -1189 1781 -1834 1229 780 -2243 2243 0 0zm1014 -10706l-1785 -1838 771 -1185 2243 2243 -1229 780z"/>
 </g>
</svg>
