<?xml version="1.0" encoding="utf-8"?>
<!-- Generator: Adobe Illustrator 18.0.0, SVG Export Plug-In . SVG Version: 6.00 Build 0)  -->
<!DOCTYPE svg PUBLIC "-//W3C//DTD SVG 1.1//EN" "http://www.w3.org/Graphics/SVG/1.1/DTD/svg11.dtd">
<svg version="1.1" id="Layer_1" xmlns="http://www.w3.org/2000/svg" xmlns:xlink="http://www.w3.org/1999/xlink" x="0px" y="0px"
	 width="50px" height="50px" viewBox="0 0 50 50" enable-background="new 0 0 50 50" xml:space="preserve">
<path d="M46.2133064,22.3542557h-5.158535c-0.3643646-0.1581764-0.76548-0.2461414-1.1866493-0.2461414
	c-1.1282997,0-2.1130867,0.6293888-2.6289597,1.5580597c-0.5678139-1.3118076-1.865509-2.2312679-3.3726196-2.2312679
	c-1.392086,0-2.6058578,0.7842751-3.2304325,1.9377956c-0.710577-2.3501301-2.9174843-4.0686855-5.5239601-4.0686855
	c-2.6345253,0-4.8603821,1.7558346-5.5459137,4.1448154c-0.6118107-1.1947784-1.8471794-2.0139256-3.2695236-2.0139256
	c-1.5071096,0-2.8048048,0.9194603-3.3725767,2.2312679c-0.5159149-0.9286709-1.500659-1.5580597-2.6290035-1.5580597
	c-0.4211683,0-0.8222399,0.087965-1.1866045,0.2461414H3.7866936C2.2501228,22.3542557,1,23.6067638,1,25.1462269
	c0,1.5394859,1.2501228,2.7919941,2.7866936,2.7919941h5.3216133c0.3644094,0.1582203,0.7655687,0.2462521,1.1868258,0.2462521
	c1.1283445,0,2.1131325-0.6294556,2.6290035-1.5581684c0.5678167,1.3118057,1.8654671,2.231245,3.3725767,2.231245
	c1.4658089,0,2.7335987-0.8695927,3.3243408-2.1240883c0.7441006,2.2956028,2.9239311,3.9625225,5.4910965,3.9625225
	c2.53969,0,4.6995544-1.6318264,5.4660072-3.8894634c0.6050529,1.2149181,1.8513317,2.0510292,3.2883854,2.0510292
	c1.5071106,0,2.8048058-0.9194393,3.3726196-2.231245c0.515873,0.9287128,1.5006599,1.5581684,2.6289597,1.5581684
	c0.421257,0,0.8224182-0.0880318,1.1868706-0.2462521h5.1583138C47.7498322,27.938221,49,26.6857128,49,25.1462269
	C49,23.6067638,47.7498322,22.3542557,46.2133064,22.3542557z M1.6889766,25.1462269
	c0-1.1595287,0.9411036-2.102972,2.0977168-2.102972h4.337841c-0.5203772,0.5463047-0.8412781,1.2873135-0.8412781,2.102972
	c0,0.8156376,0.320857,1.5566692,0.8411894,2.1029739H3.7866936C2.6300802,27.2492008,1.6889766,26.3057785,1.6889766,25.1462269z
	 M10.2951326,27.4954758c-1.2808657,0-2.3228993-1.053894-2.3228993-2.3492489c0-1.295332,1.0420337-2.3491364,2.3228993-2.3491364
	c1.2809105,0,2.3228998,1.0538044,2.3228998,2.3491364C12.6180325,26.4415817,11.5760431,27.4954758,10.2951326,27.4954758z
	 M16.2967129,28.1685505c-1.6484566,0-2.9896593-1.3558025-2.9896593-3.0223236s1.3412027-3.0223007,2.9896593-3.0223007
	c1.6484985,0,2.989481,1.3557796,2.989481,3.0223007S17.9452114,28.1685505,16.2967129,28.1685505z M25.1121502,30.0069847
	c-2.7988415,0-5.0759792-2.2460651-5.0759792-5.0069847s2.2771378-5.0069847,5.0759792-5.0069847
	c2.7987957,0,5.0759354,2.2460651,5.0759354,5.0069847S27.9109459,30.0069847,25.1121502,30.0069847z M33.8665428,28.1685505
	c-1.6484566,0-2.9894371-1.3558025-2.9894371-3.0223236s1.3409805-3.0223007,2.9894371-3.0223007
	c1.6484985,0,2.9897041,1.3557796,2.9897041,3.0223007S35.5150414,28.1685505,33.8665428,28.1685505z M37.5452232,25.1462269
	c0-1.295332,1.0420341-2.3491364,2.3228989-2.3491364s2.3228989,1.0538044,2.3228989,2.3491364
	c0,1.2953548-1.0420341,2.3492489-2.3228989,2.3492489S37.5452232,26.4415817,37.5452232,25.1462269z M46.2133064,27.2492008
	h-4.1744957c0.5203323-0.5463047,0.8411865-1.2873363,0.8411865-2.1029739c0-0.8156586-0.3208542-1.5566673-0.8412323-2.102972
	h4.1745415c1.1566124,0,2.0977173,0.9434433,2.0977173,2.102972C48.3110237,26.3057785,47.3699188,27.2492008,46.2133064,27.2492008
	z"/>
</svg>
