<?xml version="1.0" encoding="utf-8"?>
<!-- Generator: Adobe Illustrator 18.0.0, SVG Export Plug-In . SVG Version: 6.00 Build 0)  -->
<!DOCTYPE svg PUBLIC "-//W3C//DTD SVG 1.1//EN" "http://www.w3.org/Graphics/SVG/1.1/DTD/svg11.dtd">
<svg version="1.1" id="Layer_1" xmlns="http://www.w3.org/2000/svg" xmlns:xlink="http://www.w3.org/1999/xlink" x="0px" y="0px"
	 width="50px" height="50px" viewBox="0 0 50 50" enable-background="new 0 0 50 50" xml:space="preserve">
<path d="M46.2927132,22.2926044h-8.0027809c-0.7991753-1.0050564-2.0312462-1.6512375-3.4121208-1.6512375
	c-1.8114052,0-3.3678627,1.1110783-4.0248203,2.6873875c-0.730032-2.5795765-3.1040573-4.4757633-5.9142284-4.4757633
	c-2.7493763,0-5.0826797,1.8145008-5.8659973,4.3087692c-0.6947422-1.4870701-2.2039852-2.5203934-3.950799-2.5203934
	c-1.3807611,0-2.6127682,0.6461811-3.4119205,1.6512375H3.7072854C2.214385,22.2926044,1,23.5070992,1,25
	s1.214385,2.7073956,2.7072854,2.7073956h8.0027599c0.7991524,1.0050354,2.0311594,1.6512375,3.4119205,1.6512375
	c1.7468138,0,3.2560568-1.0333233,3.950799-2.5204163c0.7833176,2.4942913,3.116621,4.3087921,5.8659973,4.3087921
	c2.8101711,0,5.1841965-1.8961868,5.9142284-4.4757862c0.6569576,1.5763092,2.2134151,2.6874104,4.0248203,2.6874104
	c1.3808746,0,2.6129456-0.6462021,3.4121208-1.6512375h8.0027809C47.785614,27.7073956,49,26.4929008,49,25
	S47.785614,22.2926044,46.2927132,22.2926044z M3.7072854,27.0184612c-1.1130226,0-2.0183513-0.9054604-2.0183513-2.0184612
	c0-1.1130219,0.9053288-2.0184612,2.0183513-2.0184612h7.5535407C10.9438419,23.585474,10.763443,24.2718906,10.763443,25
	s0.1803989,1.414526,0.4973831,2.0184612H3.7072854z M15.1219664,28.6696987c-2.0235186,0-3.669589-1.6461792-3.669589-3.6696987
	s1.6460705-3.6696987,3.669589-3.6696987c2.0234957,0,3.6698103,1.6461792,3.6698103,3.6696987
	S17.145462,28.6696987,15.1219664,28.6696987z M24.9387627,30.4580746c-3.0095615,0-5.4580517-2.4484901-5.4580517-5.4580746
	s2.4484901-5.4580746,5.4580517-5.4580746c3.0096073,0,5.4580746,2.4484901,5.4580746,5.4580746
	S27.94837,30.4580746,24.9387627,30.4580746z M34.8778114,28.6696987c-2.0235176,0-3.6695881-1.6461792-3.6695881-3.6696987
	s1.6460705-3.6696987,3.6695881-3.6696987c2.0234985,0,3.6698112,1.6461792,3.6698112,3.6696987
	S36.90131,28.6696987,34.8778114,28.6696987z M46.2927132,27.0184612H38.739151
	C39.0561562,26.414526,39.236557,25.7281094,39.236557,25s-0.1804008-1.414526-0.497406-2.0184612h7.5535622
	c1.1130028,0,2.0183525,0.9054394,2.0183525,2.0184612C48.3110657,26.1130009,47.4057159,27.0184612,46.2927132,27.0184612z"/>
</svg>
