<?xml version="1.0" encoding="utf-8"?>
<!-- Generator: Adobe Illustrator 18.0.0, SVG Export Plug-In . SVG Version: 6.00 Build 0)  -->
<!DOCTYPE svg PUBLIC "-//W3C//DTD SVG 1.1//EN" "http://www.w3.org/Graphics/SVG/1.1/DTD/svg11.dtd">
<svg version="1.1" id="Layer_1" xmlns="http://www.w3.org/2000/svg" xmlns:xlink="http://www.w3.org/1999/xlink" x="0px" y="0px"
	 width="50px" height="50px" viewBox="0 0 50 50" enable-background="new 0 0 50 50" xml:space="preserve">
<g>
	<path d="M20.013443,24.9999352c0,2.7495956,2.2369614,4.986557,4.986557,4.986557s4.986557-2.2369614,4.986557-4.986557
		S27.7495956,20.0133991,25,20.0133991S20.013443,22.2503395,20.013443,24.9999352z M29.3065681,24.9999352
		c0,2.374651-1.9319172,4.3065681-4.3065681,4.3065681c-2.3746281,0-4.3065681-1.9319172-4.3065681-4.3065681
		c0-2.37463,1.9319401-4.3065701,4.3065681-4.3065701C27.374651,20.6933651,29.3065681,22.6253052,29.3065681,24.9999352z"/>
	<path d="M46.9306335,22.4771118H33.6392517v1.946434L25,15.784296l-8.6392498,8.6392498v-1.946434H3.0696075
		C1.7930905,22.4771118,1,23.4438553,1,24.9999352c0,1.3910789,1.1317658,2.5228233,2.5229328,2.5228233h12.8378172v-1.946413
		L25,34.2157059l8.6392517-8.6393604v1.946413h12.8380547C47.8682556,27.5227585,49,26.3910141,49,24.9999352
		C49,23.4438553,48.2071266,22.4771118,46.9306335,22.4771118z M15.6807613,26.8427925H3.5229328
		c-1.0162222,0-1.8429447-0.8267441-1.8429447-1.8428574c0-0.5540257,0.1354657-1.8428364,1.3896195-1.8428364h12.6111536
		V26.8427925z M25,33.2541695l-8.2541046-8.2542343L25,16.7458305l8.2541046,8.2541046L25,33.2541695z M46.4773064,26.8427925
		H34.3192596v-3.6856937h12.6113739c1.253933,0,1.3894005,1.2888107,1.3894005,1.8428364
		C48.320034,26.0160484,47.4932899,26.8427925,46.4773064,26.8427925z"/>
</g>
</svg>
