<?xml version="1.0" encoding="UTF-8"?>
<!DOCTYPE svg PUBLIC "-//W3C//DTD SVG 1.1//EN" "http://www.w3.org/Graphics/SVG/1.1/DTD/svg11.dtd">
<!-- Creator: CorelDRAW X7 -->
<svg xmlns="http://www.w3.org/2000/svg" xml:space="preserve" width="51px" height="50px" version="1.1" style="shape-rendering:geometricPrecision; text-rendering:geometricPrecision; image-rendering:optimizeQuality; fill-rule:evenodd; clip-rule:evenodd"
viewBox="0 0 172606 169649"
 xmlns:xlink="http://www.w3.org/1999/xlink">
 <defs>
  <style type="text/css">
   <![CDATA[
    .fil0 {fill:none}
    .fil1 {fill:black}
   ]]>
  </style>
 </defs>
 <g id="Layer_x0020_1">
  <metadata id="CorelCorpID_0Corel-Layer"/>
  <rect class="fil0" x="1479" width="169646" height="169647"/>
  <path class="fil1" d="M108869 95336c1362,-2946 2180,-6216 2312,-9670 397,-10748 -6047,-20197 -15424,-24136 3622,-1066 6011,-3238 7273,-5835 737,-1527 1082,-3206 1050,-4877 -24,-1659 -425,-3342 -1162,-4893l0 -4c-1960,-4116 -6324,-7422 -12599,-7422l0 4 -13942 8c-9702,-12 -19849,8712 -30128,17556 -10134,8721 -20425,17573 -29843,17609l-3835 20 -2629 16 0 -4 -60 0 -16 4c-2817,36 -5318,1314 -7101,3422 -1723,2044 -2773,4885 -2761,8107l-4 0 0 100 4 16c40,3459 1334,6288 3270,8296 2176,2264 5178,3506 8155,3506l0 -4 4949 24 4 0c21841,-16 30152,-7149 46370,-21964 -1074,2649 -1711,5530 -1828,8556 -412,10944 6276,20545 15934,24348 -3627,1066 -6019,3234 -7282,5835 -737,1527 -1082,3206 -1050,4877 24,1659 425,3342 1163,4893l0 4c1959,4116 6323,7422 12599,7422l0 -4 13942 -8c9697,12 19848,-8712 30127,-17556 10135,-8721 20426,-17573 29843,-17609l3835 -20 2629 -16 0 4 60 0 16 -4c2813,-36 5318,-1314 7101,-3422 1723,-2044 2773,-4885 2761,-8107l4 0 0 -100 -4 -17c-40,-3458 -1334,-6287 -3270,-8295 -2176,-2264 -5177,-3506 -8155,-3506l0 4 -4949 -24 -4 0c-22277,16 -30480,7441 -47355,22866zm15565 16001c10543,-9072 21247,-18281 31758,-18321l3835 -20 2633 -16 4 -4 60 0 0 4c1908,-29 3627,-914 4857,-2373 1291,-1531 2072,-3703 2064,-6195l-4 -4 0 -100 4 0c-32,-2629 -1002,-4761 -2445,-6260 -1607,-1675 -3827,-2593 -6023,-2593l-4 -4 -4953 -24c-21207,12 -29110,7233 -45524,22241l0 4 -3823 3487 -12 8c-9501,8503 -15516,8776 -22117,9072l-2468 129 -92 0c-5390,0 -8608,2107 -9947,4869 -529,1094 -773,2320 -753,3546 20,1230 324,2497 881,3671 1515,3178 4946,5730 9923,5730l0 4 13942 -8c8607,8 18341,-8359 28204,-16843zm-76261 -53025c-10544,9072 -21251,18281 -31759,18321l-3835 20 -2633 16 -4 4 -60 0 0 -4c-1907,28 -3626,914 -4857,2373 -1290,1531 -2072,3703 -2064,6195l4 4 0 100 -4 0c33,2629 1002,4761 2445,6260 1607,1675 3827,2593 6023,2593l4 4 4953 24c21207,-12 29110,-7234 45524,-22241l0 -4 3823 -3487 12 -8c9502,-8503 15517,-8776 22117,-9072l2469 -129 92 0c5390,0 8608,-2108 9946,-4869 529,-1094 774,-2320 754,-3546 -20,-1230 -325,-2497 -882,-3671 -1515,-3178 -4945,-5731 -9922,-5731l0 -4 -13942 8c-8608,-8 -18342,8360 -28204,16844zm34027 15556l8720 449 2244 2397 3394 3622 -332 5835 -193 3334 -6235 5723 -7787 -297 -6347 -7281 212 -7478 8 -192 6316 -6112zm-6128 2797l177 -2769 2713 -28 -2890 2797zm8484 -4929l1980 -1771 1999 1976 -3979 -205zm9690 2846l2420 200 -40 2340 -2380 -2540zm1603 18141l-4 52 -4 80 -148 2593 -2581 -96 -120 0 2857 -2629zm-8536 4657l-1759 1522 -1467 -1643 3226 121zm-8383 -2565l-48 -4 -3026 -116 -108 -3535 3182 3655zm-3106 2132l5141 192 2906 3250 -6236 2681 -1811 -6123zm9389 9798c-2480,-96 -4837,-617 -7037,-1455l7258 -3118 6760 3699c-2208,641 -4552,966 -6981,874zm1900 -6224l3502 -3013 4516 172 -2336 5951 -5682 -3110zm7566 4449l2917 -7438 7814 -2340c-2368,4364 -6159,7822 -10731,9778zm5991 -19977l-2252 2204 204 -3607 48 -869 2000 2272zm-1816 -5474l237 -4176 5999 3026 -2733 5141 -3503 -3991zm3270 7193l2421 6396 -6580 1971 256 -4532 0 -20 3903 -3815zm5947 -1154c-92,2412 -585,4713 -1382,6860l-2709 -7165 3346 -6287c565,2092 834,4304 745,6592zm-1567 -8997l-7553 -3815 4 -36 -29 -4 -3334 -7842c4961,2396 8865,6588 10912,11697zm-10174 -4212l-4392 -232 -3447 -3679 5198 -2316 2641 6227zm-9450 -9649c2212,84 4332,497 6324,1182l-6564 2925 -6264 -3378c2068,-557 4252,-818 6504,-729zm-2172 5614l-3366 3258 -16 8 -4396 -116 3166 -5639 4612 2489zm-6179 -4296l-4136 7378 -8383 4171c2452,-5353 6985,-9529 12519,-11549zm-6180 19656l1211 -1278 -80 2645 -1131 -1367zm1038 4785l-160 5506 -5895 -2973 3410 -5566 2645 3033zm-2584 -6700l-2894 -4625 5887 -2929 -136 4797 -2857 2757zm-6777 2132c92,-2329 545,-4565 1299,-6649l3939 6300 -4408 7189c-617,-2168 -918,-4468 -830,-6840zm9337 12659l2228 7538c-4620,-2505 -8251,-6596 -10134,-11525l7906 3987z"/>
 </g>
</svg>
