<?xml version="1.0" encoding="utf-8"?>
<!-- Generator: Adobe Illustrator 18.0.0, SVG Export Plug-In . SVG Version: 6.00 Build 0)  -->
<!DOCTYPE svg PUBLIC "-//W3C//DTD SVG 1.1//EN" "http://www.w3.org/Graphics/SVG/1.1/DTD/svg11.dtd">
<svg version="1.1" id="Layer_1" xmlns="http://www.w3.org/2000/svg" xmlns:xlink="http://www.w3.org/1999/xlink" x="0px" y="0px"
	 width="50px" height="50px" viewBox="0 0 50 50" enable-background="new 0 0 50 50" xml:space="preserve">
<g>
	<path d="M25.0268593,29.5734978c-2.5219765,0-4.5736141-2.0516376-4.5736141-4.5734882s2.0516376-4.5734901,4.5736141-4.5734901
		c2.5217266,0,4.5733662,2.0516376,4.5733662,4.5734901S27.5485859,29.5734978,25.0268593,29.5734978z M25.0268593,21.190197
		c-2.1008587,0-3.8099365,1.7090759-3.8099365,3.8098125s1.7090778,3.8098106,3.8099365,3.8098106
		c2.1006107,0,3.8096886-1.7090759,3.8096886-3.8098106S27.12747,21.190197,25.0268593,21.190197z"/>
	<path d="M48.4047928,26.5749626c-0.3271408-0.2577915-0.7340851-0.3725014-1.1455345-0.3242779l-0.4304924,0.0510635
		l-0.0000496-0.0009785c-0.5989113,0.0505505-1.1430855,0.1245747-1.6359062,0.1949539l-0.1410484,0.0167198l0.0003929,0.0033283
		c-0.0268784,0.0038681-0.0556183,0.007906-0.0821533,0.0117264c-2.1070824,0.3039341-3.4118309,0.4909325-5.4670639-1.5079517
		c2.0549889-1.9988098,3.3598328-1.8119354,5.4670639-1.5079994c0.026535,0.0038185,0.055275,0.0078831,0.0821533,0.0117493
		l-0.0003929,0.0033054l0.1397285,0.016573c0.4931602,0.0704994,1.0377274,0.1446228,1.6372261,0.1952229l0.0000954-0.0010777
		l0.4304466,0.0510387c0.0619316,0.0073452,0.1235695,0.0109425,0.1849632,0.0109425
		c0.3470192,0,0.6826324-0.1161041,0.9605713-0.3350964c0.3271408-0.2577915,0.5342369-0.6264515,0.5841751-1.0475693
		c0.0490074-0.4115467-0.0663414-0.818367-0.3241577-1.1455345c-0.2577667-0.3272629-0.6264229-0.5343342-1.0445824-0.583807
		l-0.4562454-0.0460949l0.0003433-0.0038662c-0.4982033-0.0421543-0.9752541-0.0958366-1.4366417-0.1479301
		c-2.8693695-0.3232975-5.1791878-0.581358-8.2223091,2.4095249c-2.3239708-2.0208912-5.7502918-2.570549-6.8998394-2.5962029
		h-1.8562679l-3.7224236-3.7224483l-3.7654095,3.7653847v-0.0429363l-1.8754101,0.0001221
		c-1.1403446,0.025507-4.5572653,0.5737953-6.8808918,2.5872917c-0.0034761-0.0033779-0.0069513-0.0070972-0.0104275-0.0104771
		c-3.0434656-2.9911518-5.3531871-2.732748-8.2223597-2.4094257c-0.4614351,0.0520687-0.9384391,0.1057758-1.4366424,0.1479053
		l0.0002937,0.0038662l-0.462904,0.0467319c-0.4114484,0.0488358-0.7801069,0.2559319-1.0378741,0.5831947
		c-0.2578163,0.3271427-0.3731628,0.733963-0.3229313,1.1552048c0.0487139,0.4114227,0.2558089,0.7800827,0.5829506,1.0378742
		c0.2779382,0.2190151,0.6135007,0.3351212,0.9605685,0.3351212c0.0613942,0,0.123033-0.0036221,0.1849167-0.0109425
		l0.4304445-0.0510387l0.0001469,0.0010757c0.5994496-0.0505981,1.1440654-0.1247215,1.6372261-0.1952457l0.1397276-0.016573
		l-0.0003915-0.0033054c0.0268292-0.0038662,0.0556169-0.007906,0.0821528-0.0117245
		c2.099689-0.302639,3.4034085-0.4892197,5.4475303,1.4894924c-2.0436316,1.9784679-3.3468132,1.7922783-5.4472857,1.4892254
		c-0.0265846-0.0038204-0.05547-0.0078831-0.0823975-0.0117512l0.0003915-0.0033054l-0.139679-0.0165462
		c-0.4932094-0.0704269-1.0378742-0.1445274-1.6372747-0.1951256L3.1712658,26.245348l-0.4305425-0.0510635
		c-0.4113994-0.0479794-0.8183436,0.0664864-1.1454853,0.3242779s-0.5342367,0.6264496-0.5842235,1.0475922
		c-0.0489586,0.4115219,0.0663879,0.8183441,0.3242042,1.1455097c0.2577672,0.3271427,0.6264257,0.5342121,1.0445815,0.5836849
		l0.4562945,0.0460949l-0.0003917,0.004015c0.4982033,0.0421295,0.9752073,0.0958118,1.4366424,0.1479034
		c0.8588815,0.096817,1.6675315,0.1880512,2.4608083,0.1880512c1.8503432,0,3.6179461-0.5023403,5.7402539-2.5797291
		c0.0067072,0.0058994,0.013072,0.0122395,0.0198278,0.0181141c2.3237734,2.0217228,5.7514658,2.5717983,6.9012594,2.597477
		h1.9298515l3.7024975,3.7024479l3.6832561-3.6832809l1.903904-0.0001221
		c1.1422539-0.0255566,4.5690174-0.5755825,6.8927402-2.5972557c2.1314163,2.0939121,3.9040108,2.5987492,5.7601318,2.5987492
		c0.7932777,0,1.6019249-0.0912342,2.4608078-0.1880512c0.4613876-0.0520916,0.9384384-0.1057739,1.4366417-0.1479034
		l-0.0003891-0.0039902l0.4630013-0.04673c0.4114494-0.0488625,0.7801056-0.2559319,1.0378723-0.5830746
		c0.2578163-0.3271656,0.3731651-0.7339878,0.3229332-1.1552277C48.9390297,27.2014122,48.7319336,26.8327541,48.4047928,26.5749626
		z M30.597065,21.0662594c1.321785,0.0295696,4.3618736,0.6643677,6.3743172,2.3836002
		c-0.0588989,0.0634747-0.1174011,0.1252842-0.1768875,0.1912079c-0.2964439,0.3286839-0.5986176,0.6202564-0.9020157,0.8796158
		c-2.0227242-1.5585995-3.9109612-1.8013115-4.7470779-1.8218002l-1.6325741-1.6325264L30.597065,21.0662594z
		 M35.2652702,25.0070381c-1.2084923,0.8629456-2.3878593,1.2535362-3.2542801,1.4284668l1.4354668-1.4354935l-1.4451103-1.4451351
		C32.8424568,23.7058144,34.0148659,24.0854645,35.2652702,25.0070381z M19.394495,21.0664063h1.1461716l-1.6732597,1.6732597
		l-0.0009308-0.0411263c-0.8285751,0.018507-2.719408,0.2556858-4.7468338,1.8129883
		c-0.004015-0.0034275-0.0080786-0.0066338-0.0120926-0.0100861c-0.3033972-0.2593822-0.6055698-0.5509815-0.9020147-0.8796883
		c-0.056057-0.06213-0.1112823-0.1206341-0.1667042-0.180315C15.051178,21.7287178,18.0823555,21.0958061,19.394495,21.0664063z
		 M18.063652,23.5434189l-1.4566174,1.4565926l1.4245491,1.4245262c-0.8669586-0.1699848-2.0593958-0.5567818-3.2833128-1.4273167
		C16.0259933,24.0591488,17.2215633,23.685791,18.063652,23.5434189z M4.3578272,28.7344055
		c-0.2497377-0.0281506-0.505204-0.0564251-0.765713-0.0835724l0.0000489-0.0004406L2.463079,28.5362701
		c-0.2090535-0.0247231-0.3965161-0.1303768-0.528019-0.2973251c-0.1317477-0.1669254-0.1904491-0.3739948-0.1645499-0.5924988
		c0.024822-0.2089539,0.1304747-0.3965149,0.2975217-0.528141c0.1668019-0.1316242,0.3734074-0.190815,0.5827057-0.1655521
		l2.0616481,0.2444496c0.0696197,0.0099869,0.1400709,0.0199261,0.2090049,0.0298653
		c0.7231679,0.1041584,1.3772063,0.1984787,2.0123959,0.1984787c1.2960329,0,2.5137329-0.3965664,4.0734568-1.8996201
		c0.0061197,0.0066586,0.0121908,0.0129986,0.0183601,0.0197048c0.2121859,0.2301064,0.4316683,0.480114,0.6617737,0.7563381
		c0.0769625,0.0924587,0.1573038,0.1813431,0.2387218,0.2690277C9.1581736,29.2725849,7.109499,29.0448036,4.3578272,28.7344055z
		 M19.4029655,28.9537163c-1.3219814-0.0296688-4.3631458-0.6648331-6.3753948-2.3845558
		c-0.1939745-0.1657734-0.3749256-0.3444233-0.5472593-0.5308094c-0.0691299-0.0747356-0.1411486-0.1469498-0.2062635-0.225111
		c-0.2470942-0.29669-0.4844456-0.5653496-0.7149429-0.813179c-0.1823215-0.195982-0.3599434-0.3775444-0.5331106-0.5452042
		c-2.334691-2.259367-3.8999472-2.0360909-6.1048489-1.7183247c-0.0679054,0.0097904-0.1374269,0.0195827-0.206018,0.0293999
		L2.6507375,23.010725c-0.209543,0.0247478-0.4159038-0.0340519-0.5829506-0.165554
		c-0.1668022-0.1315022-0.2724549-0.3190632-0.2985499-0.5377121c-0.0246261-0.2088089,0.0340753-0.415905,0.165823-0.5829506
		c0.1315029-0.1669254,0.3189654-0.2725773,0.5213115-0.29669l1.1357915-0.1147346v-0.0003185
		c0.2604601-0.0271473,0.5159264-0.0554447,0.7656641-0.0835724c2.758575-0.3111076,4.8095016-0.5397434,7.5861912,2.1803741
		c0.1757126,0.1721382,0.3544598,0.3563213,0.5363417,0.5528164c0.0525818,0.0567913,0.104722,0.1119671,0.1578913,0.170866
		c0.2877789,0.3191109,0.5810413,0.6046619,0.875968,0.8632126c0.1994085,0.1748085,0.3995028,0.3378639,0.5994005,0.4874325
		c1.9836569,1.4836197,3.9398012,1.7731361,4.8015223,1.8241749l1.6455975,1.6455746L19.4029655,28.9537163z M25.026844,32.3398438
		l-7.3399277-7.3398323l7.3399277-7.3398304l7.3397331,7.3398304L25.026844,32.3398438z M37.5196686,26.0575924
		c-0.1724319,0.1863861-0.3533325,0.365036-0.5473061,0.5308094c-2.012104,1.7196732-5.0523376,2.3548126-6.366827,2.3843842
		h-1.1317768l1.6477509-1.6478004c0.8796387-0.0570869,2.8090019-0.3590145,4.7648506-1.8218498
		c0.1998978-0.149519,0.4000435-0.3126011,0.5994492-0.4873829c0.2949753-0.2585506,0.588192-0.5441017,0.8759689-0.8631897
		c0.0531693-0.0589218,0.1053085-0.1141224,0.1579399-0.1709404c0.1819305-0.1964951,0.36063-0.3806763,0.5363426-0.5527916
		c2.7769852-2.7202396,4.8282509-2.4917736,7.5860939-2.1804714c0.2497864,0.0281525,0.5052528,0.0564251,0.7657127,0.0835724
		v0.0003433l1.1290817,0.1140976c0.2090569,0.024725,0.3965187,0.1303768,0.528019,0.297327
		c0.1317482,0.1670456,0.190403,0.3741169,0.1645508,0.5926437c-0.0248222,0.208931-0.1304741,0.396492-0.2972755,0.5279942
		c-0.1673393,0.1315269-0.3738976,0.1905479-0.5830002,0.1655788l-2.0633125-0.2446709
		c-0.0688362-0.0098648-0.1385536-0.0197067-0.2068024-0.0295219c-2.2048035-0.3175468-3.7700577-0.5412388-6.1050453,1.718277
		c-0.1731644,0.1676579-0.3508835,0.349247-0.5331573,0.5452518c-0.2304993,0.2478294-0.4678497,0.516489-0.7149429,0.813179
		C37.6608658,25.9106178,37.5887489,25.982832,37.5196686,26.0575924z M48.0649681,28.2953453
		c-0.1315002,0.1669483-0.3189621,0.2726021-0.5213089,0.2967129l-1.1357918,0.1147346l0.0000496,0.0004406
		c-0.2605095,0.0271473-0.515976,0.0554218-0.7657623,0.0835724c-2.7576942,0.3112068-4.8091087,0.5399647-7.5861435-2.1803722
		c0.0877342-0.0940247,0.1738548-0.1898613,0.2566414-0.2892723c0.2300072-0.2762489,0.4495888-0.526207,0.6617241-0.7563133
		c1.5685387,1.5178642,2.7906456,1.917099,4.0918655,1.917099c0.6351891,0,1.2894745-0.0943203,2.0126419-0.1984787
		c0.0693245-0.0100117,0.1401672-0.0200005,0.210228-0.0300121l2.0601311-0.2443027
		c0.2088585-0.0255089,0.4156609,0.0339279,0.5827065,0.1655521c0.1670952,0.1316261,0.272747,0.3191872,0.2988434,0.5378361
		C48.2553711,27.9213505,48.1967163,28.1284199,48.0649681,28.2953453z"/>
</g>
</svg>
