<?xml version="1.0" encoding="utf-8"?>
<!-- Generator: Adobe Illustrator 18.0.0, SVG Export Plug-In . SVG Version: 6.00 Build 0)  -->
<!DOCTYPE svg PUBLIC "-//W3C//DTD SVG 1.1//EN" "http://www.w3.org/Graphics/SVG/1.1/DTD/svg11.dtd">
<svg version="1.1" id="Layer_1" xmlns="http://www.w3.org/2000/svg" xmlns:xlink="http://www.w3.org/1999/xlink" x="0px" y="0px"
	 width="50px" height="50px" viewBox="0 0 50 50" enable-background="new 0 0 50 50" xml:space="preserve">
<g>
	<path d="M47.0138664,28.1894436c0.9970627-0.7315331,1.6459389-1.910984,1.6459389-3.2396717
		c0-2.2148285-1.801712-4.0165215-4.0165176-4.0165215H30.2656765l-0.6284046-0.6284027l-0.6889114-0.6889133l-3.9528332-3.9528313
		l-3.9528313,3.9528313l-0.6889343,0.6889133l-0.6283817,0.6284027H5.1356158c-2.2148278,0-4.0165424,1.801693-4.0165424,4.0165215
		c0,1.3580151,0.6780473,2.5598583,1.7126744,3.2871513C1.7675953,28.6011219,1,29.6086521,1,30.7949028
		c0,1.4929008,1.2143857,2.7075081,2.7072866,2.7075081h20.4537563l0.8344841,0.8344841l0.834465-0.8344841h20.4627438
		C47.7856369,33.5024109,49,32.2878036,49,30.7949028C49,29.5520306,48.1573639,28.5055218,47.0138664,28.1894436z
		 M44.6432877,21.6221638c1.8349037,0,3.3275833,1.4927025,3.3275833,3.3276081s-1.4926796,3.3275852-3.3275833,3.3275852
		H31.0550461l3.2773666-3.2773685l-3.3778248-3.3778248H44.6432877z M1.8080078,24.9497719
		c0-1.8349056,1.49268-3.3276081,3.3276081-3.3276081h13.9008293l-3.3778257,3.3778248l3.2773695,3.2773685H5.1356158
		C3.3006878,28.2773571,1.8080078,26.7846775,1.8080078,24.9497719z M3.7072866,32.8134766
		c-1.113023,0-2.0183523-0.90555-2.0183523-2.0185738c0-1.1130009,0.9053292-2.0183506,2.0183523-2.0183506h0.2090852
		c0.384758,0.1228485,0.7942719,0.1897392,1.219244,0.1897392h14.4892845l0.7288609,0.7288399l0.6889343,0.6889343
		l2.4294128,2.4294109H3.7072866z M25.5447407,32.8134766L24.9955273,33.36269l-0.5492115-0.5492134l-2.4294338-2.4294109
		l-0.6889343-0.6889343l-4.6951427-4.6951427l4.6951427-4.6951408l0.6889343-0.6889133l2.9786453-2.9786453l2.9786263,2.9786453
		l0.6889343,0.6889133l4.6951427,4.6951408l-4.6951427,4.6951427l-0.6889343,0.6889343L25.5447407,32.8134766z
		 M46.2927361,32.8134766H26.5189266l2.4294338-2.4294109l0.6889114-0.6889343l0.7288399-0.7288399h14.2771759
		c0.4249687,0,0.8344841-0.0668907,1.2192192-0.1897392h0.4302292c1.112999,0,2.0183525,0.9053497,2.0183525,2.0183506
		C48.3110886,31.9079266,47.405735,32.8134766,46.2927361,32.8134766z"/>
	<path d="M30.0476685,24.9999886c0-2.7857704-2.2663689-5.0521622-5.0521412-5.0521622s-5.0521622,2.2663918-5.0521622,5.0521622
		s2.2663918,5.0521641,5.0521622,5.0521641S30.0476685,27.785759,30.0476685,24.9999886z M24.9955273,29.3632183
		c-2.4058914,0-4.3632278-1.9573364-4.3632278-4.3632298c0-2.4058704,1.9573364-4.3632278,4.3632278-4.3632278
		c2.4058723,0,4.3632298,1.9573574,4.3632298,4.3632278C29.358757,27.4058819,27.4013996,29.3632183,24.9955273,29.3632183z"/>
</g>
</svg>
