<?xml version="1.0" encoding="utf-8"?>
<!-- Generator: Adobe Illustrator 18.0.0, SVG Export Plug-In . SVG Version: 6.00 Build 0)  -->
<!DOCTYPE svg PUBLIC "-//W3C//DTD SVG 1.1//EN" "http://www.w3.org/Graphics/SVG/1.1/DTD/svg11.dtd">
<svg version="1.1" id="Layer_1" xmlns="http://www.w3.org/2000/svg" xmlns:xlink="http://www.w3.org/1999/xlink" x="0px" y="0px"
	 width="50px" height="50px" viewBox="0 0 50 50" enable-background="new 0 0 50 50" xml:space="preserve">
<path d="M44.8373642,20.944685H32.3448753c-0.1931801-0.3504601-0.4110184-0.6880531-0.6539192-1.009037
	c0.1800232-0.2515965,0.2806263-0.5518227,0.2806263-0.863842c0-0.8278999-0.673317-1.5015278-1.501194-1.5015278
	c-0.35425,0-0.6946316,0.1279602-0.9623699,0.3527126c-1.3478355-0.8612328-2.8994198-1.3150387-4.5081272-1.3150387
	c-1.5892658,0-3.1245728,0.4428349-4.4609032,1.2839127c-0.2614956-0.2067127-0.5829258-0.3215866-0.9212112-0.3215866
	c-0.827877,0-1.5011921,0.6736279-1.5011921,1.5015278c0,0.2907486,0.0838795,0.5672054,0.237772,0.8060703
	c-0.2608719,0.3383312-0.4936047,0.6953449-0.6985569,1.0668087H5.055326C2.8191218,20.944685,1,22.7638073,1,25.0000114
	s1.8191218,4.0553265,4.055326,4.0553265h12.5995808c0.1994228,0.3616734,0.4254227,0.7094364,0.6778202,1.0396271
	c-0.1399326,0.2314625-0.2161427,0.49617-0.2161427,0.7718906c0,0.8278999,0.673315,1.501236,1.5011921,1.501236
	c0.316925,0,0.6228371-0.1032333,0.8771076-0.288784c1.347168,0.8595161,2.8978596,1.3127403,4.5050068,1.3127403
	c1.6265888,0,3.1936474-0.4634132,4.5519619-1.3432426c0.2609177,0.2051964,0.5812321,0.3192863,0.9185352,0.3192863
	c0.827877,0,1.501194-0.673336,1.501194-1.501236c0-0.2981739-0.0927544-0.5877419-0.2586861-0.8333836
	c0.2338028-0.3117313,0.4445972-0.6387558,0.6317539-0.9781342h12.6000938c2.2131271,0,4.0177803-1.7818203,4.0547028-3.9863415
	C49.037487,22.8008633,47.1058311,20.944685,44.8373642,20.944685z M31.1340733,29.5229206v-0.000021
	c-0.047224-0.0236359-0.095787-0.044014-0.1450176-0.0624981c-0.0145378-0.0054626-0.0293865-0.0098991-0.0440578-0.0148945
	c-0.031126-0.0105915-0.0623417-0.0206242-0.0940933-0.0291195l0.5869846-0.3396683
	C31.3417892,29.2286053,31.2410984,29.3777924,31.1340733,29.5229206z M21.7461758,30.2819901l1.0985146-2.0721436h4.526144
	l1.2458954,1.8662796l-3.6131821,2.0907631L21.7461758,30.2819901z M18.8882294,29.5547829
	c-0.1177273-0.1579494-0.228632-0.3203583-0.3333359-0.4863796l0.6258678,0.3621655
	C19.0791321,29.4614944,18.9810276,29.5026531,18.8882294,29.5547829z M17.3779831,25.0000114
	c0-1.2429523,0.3059998-2.4625835,0.8782234-3.5503941v7.1006546
	C17.6842499,27.4622364,17.3779831,26.2422047,17.3779831,25.0000114z M30.9170818,20.5012932
	c0.0155182-0.0049725,0.031126-0.0095444,0.0465107-0.015028c0.0438347-0.0156536,0.0870914-0.0330658,0.1294556-0.0527992
	c0.0024071-0.0011139,0.0049496-0.0018501,0.0073566-0.0029869c0.113802,0.151907,0.2209606,0.3081837,0.3227234,0.4676285
	l-0.6264038-0.3624554c0.0076694-0.0017624,0.0150719-0.0045929,0.0227432-0.0064888
	C30.8523312,20.5210705,30.8847961,20.5116386,30.9170818,20.5012932z M31.2030144,21.4038181v1.937809h-2.5090942
	l-3.4125557-2.5342007v-2.8301659L31.2030144,21.4038181z M28.238533,23.6900787l-1.0845127,3.9684143h-4.2427959
	l-0.8617229-3.9447784l2.9859753-2.4022923L28.238533,23.6900787z M24.7776375,20.8111725l-3.1450844,2.5304546h-2.8283825
	v-1.937809l5.9734669-3.4565907V20.8111725z M18.571928,20.9051304c0.1096992-0.1723309,0.22649-0.340559,0.3502808-0.5041275
	c0.0989532,0.0522633,0.2033901,0.0925751,0.3112621,0.121315L18.571928,20.9051304z M18.8041706,28.5795708v-4.7343063h2.7098961
	l0.8969975,4.1072769l-1.1010113,2.0770721L18.8041706,28.5795708z M27.6916389,27.7832661l1.0759068-3.9380016h2.4354687v4.7343063
	l-2.1494465,1.2437763L27.6916389,27.7832661z M31.7509785,28.534174v-7.0713577
	c0.5676289,1.0847797,0.871088,2.3003521,0.871088,3.5371952C32.6220665,26.2346687,32.318119,27.4495945,31.7509785,28.534174z
	 M31.201767,19.071806c0,0.2105923-0.0954762,0.412466-0.2614975,0.5537834l-0.0001774,0.0001564
	c-0.0956078,0.0808926-0.2547188,0.1774139-0.4697037,0.1774139c-0.4035702,0-0.7316875-0.3280964-0.7316875-0.7313538
	c0-0.1512604,0.0478477-0.2977276,0.1386414-0.4243279c0.1401558-0.1951637,0.3563461-0.3073387,0.5930462-0.3073387
	C30.8736477,18.3401394,31.201767,18.6682358,31.201767,19.071806z M29.0537891,18.5795174
	c-0.0082035,0.0234108-0.0158749,0.046957-0.0229206,0.0707245c-0.0049057,0.0165672-0.0097218,0.0331326-0.0140018,0.0498772
	c-0.0063324,0.0243263-0.0116844,0.0488529-0.0167675,0.0734901c-0.0032997,0.0162106-0.0068665,0.0323315-0.0096321,0.0486526
	c-0.0046368,0.0272903-0.0080261,0.0548038-0.0111027,0.0824089c-0.0015621,0.0138454-0.003746,0.0275574-0.0049057,0.0414925
	c-0.0035229,0.0416279-0.005619,0.0835018-0.005619,0.1256428c0,0.1549168,0.023634,0.3044395,0.0674248,0.4451542
	l-3.6809196-2.1299839c1.3214378,0.0607586,2.590744,0.4587784,3.7073193,1.1651821
	C29.0593204,18.5611439,29.0570011,18.5704651,29.0537891,18.5795174z M24.6524639,17.3865757l-3.5866947,2.0754681
	c0.0336685-0.1246834,0.0532455-0.2550755,0.0532455-0.3902378c0-0.1957645-0.0381718-0.3861351-0.1121521-0.5641747
	C22.1083202,17.8278275,23.3561783,17.4448586,24.6524639,17.3865757z M19.6177769,18.3401394
	c0.2213612,0,0.4294338,0.1028538,0.5707951,0.2820759c0.0733566,0.0929317,0.1605816,0.2460003,0.1605816,0.4495907
	c0,0.4032574-0.3280735,0.7313538-0.7313766,0.7313538c-0.1873379,0-0.3665581-0.072464-0.5043068-0.204483
	c-0.1464443-0.1401558-0.227026-0.3271809-0.227026-0.5268707C18.8864441,18.6682358,19.2145176,18.3401394,19.6177769,18.3401394z
	 M5.055326,28.3597469c-1.8526337,0-3.3597355-1.5071011-3.3597355-3.3597355s1.5071018-3.3597584,3.3597355-3.3597584H17.313055
	c-0.4598923,1.0528069-0.7049332,2.1966724-0.7049332,3.3597584c0,1.1624603,0.2449074,2.3067722,0.7045326,3.3597355H5.055326z
	 M18.8864441,30.8668556c0-0.1903248,0.0739365-0.3710175,0.2076721-0.5087223l0.0004005-0.0004005
	c0.139534-0.1434574,0.3250866-0.2225437,0.5232601-0.2225437c0.4033031,0,0.7313766,0.3280964,0.7313766,0.7316666
	c0,0.2191105-0.0985069,0.3793335-0.1811829,0.4749641l-0.0001335-0.0001106
	c-0.1431446,0.1653976-0.3383312,0.2565231-0.5500603,0.2565231C19.2145176,31.5982323,18.8864441,31.2701359,18.8864441,30.8668556
	z M21.0793266,30.5291729l3.6047535,2.0859013c-1.3161297-0.0537567-2.5823154-0.4424782-3.6985779-1.13624
	c0.087225-0.1921749,0.1335125-0.4005604,0.1335125-0.6119785C21.1190147,30.7506008,21.1044331,30.6379128,21.0793266,30.5291729z
	 M25.3236847,32.6146965l3.6990242-2.1404419c-0.0340691,0.1253967-0.0538692,0.2565918-0.0538692,0.392601
	c0,0.0459099,0.0025864,0.0914612,0.0067787,0.1367016c0.0013809,0.0148945,0.0037899,0.0295658,0.005619,0.0443707
	c0.0037441,0.0302563,0.0079365,0.0604019,0.0135117,0.0902786c0.0032539,0.0173912,0.0072231,0.0345612,0.0111027,0.051796
	c0.0060654,0.0268898,0.0127087,0.0535793,0.0202904,0.0800667c0.0051727,0.0181274,0.0106125,0.0361214,0.0165005,0.0540485
	c0.0082493,0.0251942,0.0174351,0.0501003,0.0270672,0.0748711c0.0046825,0.0119953,0.0081615,0.0243492,0.0131111,0.036232
	C27.9520645,32.155117,26.6645184,32.5585976,25.3236847,32.6146965z M30.4703884,31.5982323
	c-0.2216282,0-0.4297466-0.1028538-0.5713749-0.2823868l-0.0001774,0.0001106
	c-0.0730438-0.0929317-0.1601353-0.2462444-0.1601353-0.4491005c0-0.4035702,0.3281174-0.7316666,0.7316875-0.7316666
	c0.1783295,0,0.3518429,0.0685635,0.4886551,0.1927547l0.0003128,0.0002899v0.0000229
	c0.1563892,0.1419411,0.2424107,0.3332024,0.2424107,0.538599C31.201767,31.2701359,30.8736477,31.5982323,30.4703884,31.5982323z
	 M44.9447441,28.3597469H32.6866379c0.4601593-1.0536308,0.7052879-2.1986122,0.7052879-3.3597355
	c0-1.1621494-0.2450829-2.306572-0.7048416-3.3597584h12.1602707c1.8069687,0,3.3639946,1.3858528,3.4529572,3.1906376
	C48.3953857,26.760046,46.8534355,28.3597469,44.9447441,28.3597469z"/>
</svg>
