<?xml version="1.0" encoding="utf-8"?>
<!-- Generator: Adobe Illustrator 18.0.0, SVG Export Plug-In . SVG Version: 6.00 Build 0)  -->
<!DOCTYPE svg PUBLIC "-//W3C//DTD SVG 1.1//EN" "http://www.w3.org/Graphics/SVG/1.1/DTD/svg11.dtd">
<svg version="1.1" id="Layer_1" xmlns="http://www.w3.org/2000/svg" xmlns:xlink="http://www.w3.org/1999/xlink" x="0px" y="0px"
	 width="50px" height="50px" viewBox="0 0 50 50" enable-background="new 0 0 50 50" xml:space="preserve">
<g>
	<path d="M44.9446793,20.9446774H16.9792347h-0.3654881H5.0553217C2.8190978,20.9446774,1,22.7637978,1,25
		s1.8190978,4.0553226,4.0553217,4.0553226h11.5584249h0.3654881h27.9654446C47.1808586,29.0553226,49,27.2362022,49,25
		S47.1808586,20.9446774,44.9446793,20.9446774z M48.2410202,25.0464439l-0.2622528,0.300827l-0.0867805,0.0032768
		l-0.2346039,0.0088749l-0.2575722-0.2362118l-0.0076256-0.1327763l-0.0140915-0.2459774l0.1160774-0.1238575l0.1166992-0.1245041
		l0.3600464-0.0186863l0.261097,0.2524223L48.2410202,25.0464439z M47.8674622,24.2481995l0.1905022-0.1027431l0.1305237,0.2327785
		l-0.1814919,0.0048599l-0.0005379-0.0004902L47.8674622,24.2481995z M47.8735695,24.389473l-0.1643257,0.0085163
		l0.0825424-0.0814934L47.8735695,24.389473z M47.7876396,24.1858139l-0.2710381-0.1206703
		c0.0822296-0.0282936,0.1697235-0.0454845,0.2610054-0.0489178c0.0929337-0.0035229,0.1831436,0.0072231,0.2686729,0.030077
		L47.7876396,24.1858139z M47.7111168,24.2533722l-0.1424294,0.1519089L47.387413,24.41469l0.1092987-0.2567921
		L47.7111168,24.2533722z M47.4735222,24.5068645l-0.0406227,0.0433674l-0.0577927,0.0616493l-0.001606-0.0967236
		L47.4735222,24.5068645z M47.2801666,24.429739l-0.0009804,0.0000687v0.0014935l-0.3118401,0.1573925
		c0.084549-0.2110157,0.2457542-0.3840828,0.4506149-0.4829025L47.2801666,24.429739z M47.1384048,24.8755836l-0.1128197-0.2123089
		l0.2477608-0.1250172l0.0098534,0.1725998L47.1384048,24.8755836z M47.2907791,24.8428974l0.0027657,0.0489864l0.0077591,0.1359425
		l-0.0931091-0.0910149L47.2907791,24.8428974z M47.1479912,25.0077591l0.1612053,0.1574821l0.0000458,0.0008698l0.010746,0.1871357
		l-0.2717056-0.0814495L47.1479912,25.0077591z M47.0715599,24.9475136l-0.1117516,0.2958317
		c-0.0331345-0.0886517-0.0534668-0.1836796-0.0572128-0.2833004c-0.0035667-0.0942268,0.0074005-0.1856651,0.0309029-0.2722206
		L47.0715599,24.9475136z M47.3351517,25.4547405l0.1205368,0.3071156
		c-0.1888084-0.0808258-0.3453331-0.2235241-0.4432144-0.4038601L47.3351517,25.4547405z M47.4073906,25.2561436l0.118084,0.1082745
		l-0.0050812,0.0002003l-0.1065369,0.0040359l-0.0061531-0.1071587L47.4073906,25.2561436z M47.4372253,25.4606724
		l0.1863556-0.0070686l0.1444817,0.1246166l-0.2343369,0.128273L47.4372253,25.4606724z M47.8374062,25.6461353l0.2995338,0.1287422
		c-0.0907021,0.0348053-0.1881409,0.0562992-0.2905273,0.0601788c-0.1001549,0.0037899-0.1969223-0.0094776-0.2882957-0.0361214
		L47.8374062,25.6461353z M47.8325005,25.511219l-0.072731-0.0627651l0.1333351-0.0050392L47.8325005,25.511219z
		 M48.2240295,24.5929508l-0.1193771-0.1154289l0.1121559,0.0010033L48.2240295,24.5929508z M48.2161369,24.2377434
		l-0.093647-0.1670475c0.0193558,0.0070686,0.0381279,0.0152283,0.0568581,0.0235462
		C48.1926804,24.1416664,48.2048988,24.1895161,48.2161369,24.2377434z M44.9446793,28.3597317H16.9792347h-0.3654881H5.0553217
		c-0.268898,0-0.5302153-0.0326653-0.7810082-0.092598c0.001873-0.0000668,0.0036564,0.0001335,0.0054851,0.0000668
		c0.5057778-0.0191517,0.9017224-0.4461784,0.8825474-0.9519787c-0.0191307-0.5058002-0.4461565-0.9017239-0.9519796-0.8825703
		c-0.5057778,0.0191307-0.9016778,0.4461575-0.8825474,0.9519787c0.0102119,0.2707272,0.1380165,0.5092125,0.3315072,0.6701717
		C2.5018158,27.5237408,1.6955675,26.3546581,1.6955675,25c0-1.8526325,1.5071224-3.3597317,3.3597541-3.3597317h11.5584249
		h0.3654881h27.9654446c1.4973984,0,2.7686234,0.9847546,3.2012672,2.3405495
		c-0.1161194-0.0412045-0.2414284-0.0622959-0.3718643-0.0573692c-0.5526009,0.0209141-0.985157,0.4874725-0.9642868,1.0401192
		c0.020916,0.5526009,0.4874954,0.985157,1.0401421,0.9642639c0.1222305-0.0046368,0.2380371-0.0321293,0.3449287-0.0764771
		C47.8169365,27.2929916,46.5032158,28.3597317,44.9446793,28.3597317z M3.8806431,27.7554016L3.8750243,27.65732l0,0
		l-0.0002675-0.0049057l0.1080942,0.0991077l-0.0046377,0.0001793l0,0L3.8806431,27.7554016z M4.1035652,27.7469521
		l-0.235765-0.2162113l-0.0082498-0.1439915l-0.0115943-0.2026539l0.1000228-0.1067581l0.1130443-0.1205807l0.329545-0.0170784
		l0.2389312,0.231039l0.0082498,0.2897663L4.397748,27.7358265l-0.1149173,0.0043468L4.1035652,27.7469521z M3.7776768,27.443449
		l-0.0852625-0.0832996l0.0755858-0.0859547l0.0043256,0.075386L3.7776768,27.443449z M4.5142703,27.731411l0.1203132-0.1380386
		l-0.0041027,0.133646L4.5142703,27.731411z M4.3014259,26.8591862l-0.150413,0.0078049l0.0755854-0.074604L4.3014259,26.8591862z
		 M4.5129328,26.9397678l0.1026535,0.0009365l0.0066447,0.1047039L4.5129328,26.9397678z M4.7199798,27.3620892
		l-0.0028543-0.0999336l0.045753,0.0482941L4.7199798,27.3620892z M3.8437197,26.9742165l0.0915501-0.0075817l-0.0900786,0.0960979
		L3.8437197,26.9742165z M4.2556734,27.8262386l0.0636349-0.0024071L4.263834,27.8858833l-0.0665779-0.057436L4.2556734,27.8262386z
		 M4.4373021,27.8193722l0.1942043-0.0073586l-0.0684066,0.2315731l-0.2357202-0.1013374L4.4373021,27.8193722z
		 M4.7296119,27.6992817l-0.0059757-0.2080498l0.0999341-0.1146278l0.1288748,0.2103691L4.7296119,27.6992817z
		 M4.8213849,27.2380524L4.713469,27.1336823v-0.0000229l0,0l-0.0051727-0.181139l0.222476,0.1106815L4.8213849,27.2380524z
		 M4.4235229,26.853323l-0.0004458-0.0004463l0,0l-0.1272249-0.1229877l0.1743598-0.0940475l0.1194658,0.2130661
		L4.4235229,26.853323z M4.0224051,26.8736572l-0.1659317,0.0086079l0.100023-0.2350311l0.1962554,0.0873585L4.0224051,26.8736572z
		 M3.7520356,26.9953537l0.0090525,0.1579704l-0.1325314,0.1507702l-0.1032338-0.194315L3.7520356,26.9953537z
		 M3.6373415,27.4251003l0.1475151,0.144125l0.0000446,0.000803h0.0000446l0.0098104,0.1712818L3.5460589,27.66675
		L3.6373415,27.4251003z M4.0718594,27.8331947h0.0000448l0.0007582-0.0000439l0.1322193,0.1140709l-0.2145388,0.1174145
		l-0.088295-0.2250195L4.0718594,27.8331947z M4.2683377,28.0093613l0.2741604,0.1178379
		c-0.0830331,0.0318623-0.1722198,0.0515499-0.2659106,0.0550957c-0.0916839,0.0034561-0.1802907-0.0086727-0.2638588-0.0330658
		L4.2683377,28.0093613z M4.7245727,27.7969856l0.2988648-0.1506805c-0.07126,0.1864223-0.2082958,0.3409157-0.3830571,0.4356556
		L4.7245727,27.7969856z M5.0460463,27.5771408l-0.1665115-0.271841l0.1488972-0.2379951
		c0.0284953,0.0787735,0.0457082,0.1630554,0.0490084,0.2511272C5.0808291,27.4081993,5.0694132,27.4950657,5.0460463,27.5771408z
		 M4.6856427,26.8463898l-0.1563444-0.2789764c0.2091875,0.0762978,0.3803816,0.2341595,0.4731359,0.4365025L4.6856427,26.8463898z
		 M4.2227635,26.6727638l-0.2480731-0.1104355c0.0752735-0.0259075,0.1553636-0.0416279,0.2388868-0.0447712
		c0.085084-0.003233,0.1676712,0.0066223,0.2459326,0.0275135L4.2227635,26.6727638z M3.7582788,26.8960209l-0.0008919,0.0000896
		l0.0000446,0.0013371l-0.2854421,0.1440811c0.0773695-0.1931324,0.2249289-0.3515511,0.4124441-0.442009L3.7582788,26.8960209z
		 M3.4409969,27.1322556l0.1263776,0.2376823l-0.1022971,0.270771c-0.0303235-0.0811386-0.048919-0.1681175-0.0523527-0.2592888
		C3.4094694,27.2951775,3.419503,27.2114754,3.4409969,27.1322556z M3.8086693,27.8341999l0.1102793,0.2810936
		c-0.1728439-0.0739803-0.3160777-0.2045937-0.4056659-0.3696346L3.8086693,27.8341999z M48.1594582,25.683527l-0.2575264-0.1107254
		l0.1200905-0.1342697h0.0003586l0.2118187-0.008028L48.1594582,25.683527z M48.2330818,25.3376617l-0.1269569,0.0047932
		l0.1314621-0.1508141L48.2330818,25.3376617z"/>
	<path d="M16.3126087,21.896122c-0.7267838,0.0274925-1.295661,0.641119-1.2681475,1.3678799
		c0.0274696,0.7267838,0.6410742,1.29566,1.3678579,1.2681694c0.7267818-0.0275154,1.29566-0.641119,1.2681904-1.3679028
		C17.6529961,22.4374866,17.0393906,21.8686314,16.3126087,21.896122z M16.6188755,22.5006084l-0.0006695-0.0006466
		l-0.1827888-0.1767235l0.2505264-0.1351624l0.1716404,0.3061771L16.6188755,22.5006084z M16.8948631,22.6261387
		l0.0094986,0.1504803l-0.1570129-0.1518192L16.8948631,22.6261387z M16.4434452,22.5090141l-0.2161446,0.0112152
		l0.1085854-0.1071796L16.4434452,22.5090141z M16.3172016,22.0181293c0.1222744-0.0046368,0.2409382,0.0095215,0.3534012,0.0395546
		l-0.3402023,0.1834583l-0.3564348-0.1586857C16.0821056,22.0452652,16.1972008,22.0226784,16.3172016,22.0181293z
		 M16.2297974,22.3300152l-0.1872921,0.1997795l-0.2383957,0.0123749l0.1436796-0.3377056L16.2297974,22.3300152z
		 M15.9172878,22.6633968l-0.1294098,0.1381054l-0.002141-0.127203L15.9172878,22.6633968z M15.844244,22.1359234
		l-0.1812277,0.4260235l-0.0012932,0.0001106l0.0000448,0.0019627l-0.4101706,0.2070026
		C15.3627691,22.4934959,15.57481,22.2658901,15.844244,22.1359234z M15.4766159,23.148304l-0.148407-0.2791977l0.325799-0.1644382
		l0.0130215,0.2270012L15.4766159,23.148304z M15.6769743,23.1053391l0.0049944,0.0872917l0.0088739,0.1558971l-0.1224985-0.119688
		L15.6769743,23.1053391z M15.4891911,23.3221512l0.211997,0.2071152l0.0000896,0.0011368l0.0140915,0.2461109l-0.3572826-0.1071358
		L15.4891911,23.3221512z M15.1664686,23.2593861c-0.0046816-0.1239014,0.0097666-0.2441711,0.0406246-0.3579941
		l0.1815844,0.3414955l-0.1469793,0.3890762C15.1981306,23.5153751,15.1714191,23.3904018,15.1664686,23.2593861z
		 M15.3109512,23.7827568l0.4243956,0.1272469l0.1585293,0.403883
		C15.6455355,24.2075748,15.4396925,24.0199051,15.3109512,23.7827568z M15.8303747,23.648798l0.1552744,0.1424084
		l-0.146801,0.0055523L15.8303747,23.648798z M15.8695278,23.9177628l0.2451305-0.0092525l0.190012,0.1638813l-0.3081846,0.1686954
		L15.8695278,23.9177628z M16.293745,23.9017315l0.1101894-0.0041695l0.065197-0.0024738l-0.0797329,0.0891647L16.293745,23.9017315
		z M16.4077263,24.4101639c-0.1317291,0.0049725-0.2589989-0.0124645-0.3791332-0.047493l0.3672714-0.2009811l0.3939381,0.1693211
		C16.6705151,24.3768082,16.5423527,24.4050579,16.4077263,24.4101639z M16.8194122,24.2108765l-0.3386879-0.1456203
		l0.1579494-0.1765671l0.2790661-0.0105686L16.8194122,24.2108765z M16.9162693,23.7560005L16.7492657,23.76231l0.1728897-0.1983509
		L16.9162693,23.7560005z M16.5818176,23.7686424l-0.4227009,0.0160103l-0.3387747-0.3106823l-0.0051289-0.0893211
		l-0.0234118-0.4087868l0.1745386-0.1862221l0.1316404-0.1404247l0.4734917-0.0245495l0.3433685,0.3319759l0.0118618,0.4163685
		L16.5818176,23.7686424z M16.9304485,24.2659931l0.1209373-0.4094563l0.4294796-0.2165241
		C17.3784351,23.9078865,17.1815548,24.1298485,16.9304485,24.2659931z M17.1936836,23.2524967l0.1851521,0.3022537
		l-0.3201809,0.1614056l-0.0085621-0.298975L17.1936836,23.2524967z M17.0448303,23.2316494l-0.0040569-0.1436119
		l0.0656853,0.0693855L17.0448303,23.2316494z M17.1905174,23.0534096l-0.1550503-0.1499672v-0.0000439l-0.0074482-0.2602482
		l0.3197346,0.1589985L17.1905174,23.0534096z M17.5585022,23.1688843c0.0048599,0.1290092-0.011549,0.2538033-0.0451279,0.3717537
		l-0.2392883-0.3905945l0.2139587-0.3419857C17.5289822,22.921236,17.5536861,23.0423508,17.5585022,23.1688843z
		 M16.9955101,22.4906406l-0.2247047-0.4008713c0.3006477,0.1096325,0.5465813,0.3364563,0.6799145,0.6272278L16.9955101,22.4906406
		z"/>
	<path d="M23.3186283,21.7699909c-1.3032856,0.0493202-2.3234043,1.149683-2.274128,2.4529686
		c0.0493202,1.3033085,1.1497059,2.3234501,2.4529934,2.2741299c1.3033295-0.0492992,2.3234482-1.149662,2.274128-2.4529705
		S24.6219597,21.7206917,23.3186283,21.7699909z M25.3602028,23.2423515l-0.8169498-0.4062443l-0.4034367-0.7197609
		C24.6794415,22.3128929,25.1210938,22.7204304,25.3602028,23.2423515z M24.8986607,24.2023144l0.3320427,0.5420322
		l-0.5741844,0.2894325L24.64118,24.4976559L24.8986607,24.2023144z M24.6317711,24.1649227l-0.0073586-0.2575054
		l0.1178608,0.1244373L24.6317711,24.1649227z M24.8930435,23.8452988l-0.2780857-0.268898v-0.0000896l-0.0133781-0.466713
		l0.5733376,0.2851295L24.8930435,23.8452988z M24.379818,23.3489304l-0.2815628-0.2722435l0.2644825,0.002409L24.379818,23.3489304
		z M24.2959366,22.8425732l-0.428051,0.0114155l-0.0011597-0.0011597h-0.0000439l-0.3277626-0.316925l0.449234-0.242342
		L24.2959366,22.8425732z M23.5532341,22.8690834l-0.387516,0.0200882l0.1946945-0.1921959L23.5532341,22.8690834z
		 M23.3269234,21.9887867c0.2193108-0.0082932,0.4321995,0.016901,0.6339397,0.070816l-0.6103058,0.3291206l-0.6398258-0.2848854
		C22.9048023,22.0370598,23.1115379,21.9969254,23.3269234,21.9887867z M23.1701336,22.5480556l-0.3358784,0.3583069
		l-0.4275169,0.0221634l0.2577496-0.6056004L23.1701336,22.5480556z M22.6097717,23.1459408l-0.0981045,0.1046619
		l-0.1339588,0.1429653l-0.0038357-0.2280941L22.6097717,23.1459408z M22.4791145,22.1992245l-0.3253536,0.7647762
		l-0.0023193,0.0002003l0.0000458,0.0035l-0.7367725,0.3718643C21.6140919,22.8411903,21.9953213,22.4324017,22.4791145,22.1992245z
		 M21.8194885,24.0154667L21.5534,23.5147953l0.5842628-0.2948513l0.0232773,0.4070702L21.8194885,24.0154667z
		 M22.1787777,23.9384327l0.0101681,0.1778164l0.0147591,0.2583065l-0.2197113-0.2146511L22.1787777,23.9384327z
		 M21.8420982,24.3272648l0.3801575,0.3713722l0.0000896,0.0020523l0.0253296,0.4413414l-0.6407623-0.1921082L21.8420982,24.3272648
		z M21.2633209,24.2146893c-0.0084286-0.2222099,0.0174789-0.4379082,0.0728645-0.6420116l0.3255768,0.6124229l-0.2640381,0.6990013
		C21.319418,24.6747799,21.2721939,24.4499626,21.2633209,24.2146893z M21.5196438,25.1523972l0.7638397,0.2290096
		l0.2853527,0.7270508C22.1218758,25.9176865,21.7508144,25.5792236,21.5196438,25.1523972z M22.4538746,24.9129982
		l0.2784405,0.2553864l-0.263279,0.0099449l-0.0144482-0.2526894L22.4538746,24.9129982z M22.5241528,25.3953419l0.439558-0.0166111
		l0.3407383,0.2938709l-0.5527363,0.3025208L22.5241528,25.3953419z M23.2848263,25.3665581l0.314518-0.0118847
		l-0.1429672,0.1598892L23.2848263,25.3665581z M23.4892426,26.2783146
		c-0.2365665,0.0089626-0.4655094-0.0214939-0.6811638-0.0844822l0.6599388-0.3610725l0.708231,0.3044167
		C23.9619331,26.2195396,23.7311172,26.2691727,23.4892426,26.2783146z M24.2274876,25.9209194l-0.6073627-0.2610931
		l0.2832565-0.316658l0.5004272-0.0189304L24.2274876,25.9209194z M24.4011784,25.1052399l-0.29949,0.0113277l0.3100586-0.3556767
		L24.4011784,25.1052399z M23.8013973,25.1279392l-0.7579994,0.0286732l-0.6074944-0.557106l-0.0235004-0.4101257
		l-0.0276489-0.4831467l0.2724667-0.2907028l0.2765675-0.2950306l0.849102-0.0440369l0.6157017,0.5953007l0.0213146,0.7466927
		L23.8013973,25.1279392z M24.4257927,26.0225925l0.2177048-0.7370834l0.7703075-0.3883419
		C25.2299004,25.3782864,24.8770332,25.7785549,24.4257927,26.0225925z M25.4724445,24.7197762l-0.4295673-0.7011871
		l0.3839035-0.6136494c0.0734463,0.2030334,0.1174583,0.4204483,0.1260662,0.6474514
		C25.5615864,24.2838974,25.53269,24.5081577,25.4724445,24.7197762z"/>
	<path d="M19.1228828,26.3578682c-0.5058231,0.0191307-0.9017239,0.4461784-0.8825932,0.9519787
		c0.0191307,0.5058231,0.4461575,0.9017239,0.9519806,0.8825932c0.5058231-0.0191536,0.901722-0.4462013,0.8825912-0.9520016
		S19.6286602,26.3387375,19.1228828,26.3578682z M19.3360386,26.7785625l-0.0004902-0.0004463l-0.1271801-0.1229877
		l0.1743145-0.0940704l0.1194668,0.213089L19.3360386,26.7785625z M19.5281029,26.865921l0.0065994,0.1047268l-0.1092987-0.1056633
		L19.5281029,26.865921z M19.2138977,26.7844257l-0.1503696,0.007782l0.0755424-0.0745831L19.2138977,26.7844257z
		 M19.1260929,26.4427738c0.0850391-0.0032101,0.1676273,0.0066452,0.2459335,0.0275364l-0.2367916,0.1276932L18.887207,26.487545
		C18.9624348,26.4616604,19.0425262,26.44594,19.1260929,26.4427738z M19.0652237,26.659832l-0.1303463,0.1390648
		l-0.1659317,0.008585l0.1000214-0.2350292L19.0652237,26.659832z M18.8477421,26.8918743l-0.0900345,0.0960979
		l-0.0015163-0.0885181L18.8477421,26.8918743z M18.7969055,26.5247593l-0.1261559,0.2965012l-0.0008907,0.0000668
		l0.0000439,0.0013599l-0.2854424,0.1440601C18.4618301,26.773613,18.6093903,26.6152172,18.7969055,26.5247593z
		 M18.541029,27.2293129l-0.1032352-0.194294l0.2267132-0.1144276l0.0090523,0.1579723L18.541029,27.2293129z
		 M18.6804714,27.1994343l0.0043259,0.075386l0.005352,0.0938683l-0.0852642-0.0832996L18.6804714,27.1994343z
		 M18.5498123,27.350338l0.1475601,0.1441269l0.0000439,0.000803l0.0098114,0.1712818l-0.2486534-0.0745602L18.5498123,27.350338z
		 M18.3251972,27.3066368c-0.0032558-0.0862217,0.0067768-0.1699448,0.0282707-0.2491436l0.126379,0.2376614l-0.1022987,0.2707939
		C18.3472252,27.484787,18.3286304,27.397831,18.3251972,27.3066368z M18.4257545,27.6708755l0.2953873,0.088562l0.110323,0.2810726
		C18.6586208,27.9665298,18.5153866,27.8359165,18.4257545,27.6708755z M18.7872276,27.5776539l0.1080952,0.0991077
		l-0.0046387,0.0001793l-0.0975246,0.0037003l-0.005619-0.0981045v0.000021L18.7872276,27.5776539z M18.8145199,27.7648335
		l0.1698551-0.0064201l0.0007591-0.0000229l0.1322193,0.114048l-0.2144947,0.1174145L18.8145199,27.7648335z M19.1097279,27.753685
		l0.0584164-0.0022297l0.0636806-0.0024071l-0.0555191,0.0620747L19.1097279,27.753685z M19.1890583,28.1075344
		c-0.0916824,0.0034561-0.1802464-0.0086956-0.2638588-0.0330658l0.2556095-0.1398678l0.2741604,0.1178379
		C19.3719368,28.084301,19.2827492,28.1039658,19.1890583,28.1075344z M19.4755726,27.9688263l-0.2357216-0.1013374
		l0.1099224-0.1229l0.1942482-0.0073357L19.4755726,27.9688263z M19.5429974,27.6522579l-0.1162548,0.0043926l0.1203575-0.1380386
		L19.5429974,27.6522579z M19.3102188,27.6610661l-0.130703,0.0049496l-0.1634789,0.006176l-0.2357655-0.2162113
		l-0.0072689-0.1272926l-0.0125751-0.2193756l0.0799561-0.0853081l0.133112-0.1420078l0.3295441-0.0171013l0.2389755,0.231039
		l0.0082054,0.2897892L19.3102188,27.6610661z M19.5528526,28.0071774l0.0841923-0.2849751l0.2989082-0.1506805
		C19.8646488,27.757967,19.7276134,27.9124374,19.5528526,28.0071774z M19.736042,27.3018436l0.1288738,0.2103462
		l-0.2228317,0.1123314l-0.0059757-0.2080498L19.736042,27.3018436z M19.632452,27.2873287l-0.0028553-0.0999336
		l0.0457535,0.0482941L19.632452,27.2873287z M19.7338562,27.1632919l-0.1079159-0.104372V27.058876l-0.0051727-0.1811161
		l0.2225208,0.1106586L19.7338562,27.1632919z M19.9899559,27.2436714c0.0033894,0.0897655-0.0080719,0.1766338-0.0313931,0.2586861
		l-0.1665573-0.2718182l0.1489429-0.238018C19.9693985,27.0713177,19.9866123,27.1555996,19.9899559,27.2436714z
		 M19.598114,26.7716064l-0.1563435-0.2789555c0.2091866,0.0762787,0.3803806,0.2341385,0.473135,0.4365025L19.598114,26.7716064z"
		/>
	<path d="M31.1743317,22.2538509c-0.7651329,0.0289402-1.3640213,0.674942-1.3350811,1.4400768
		c0.0289421,0.7651329,0.674921,1.3640213,1.4400539,1.3350582c0.7651329-0.0289421,1.3640213-0.674921,1.335083-1.4400539
		C32.5854454,22.8237991,31.9394646,22.2249088,31.1743317,22.2538509z M31.4967861,22.8902435l-0.0007133-0.0006924h-0.0000439
		l-0.192421-0.1860657l0.2637253-0.142252l0.1807365,0.3223209L31.4967861,22.8902435z M31.7872677,23.0223961l0.0100346,0.1584167
		l-0.165308-0.1598225L31.7872677,23.0223961z M31.3120365,22.8990936l-0.2275162,0.011795l0.1142941-0.1128426
		L31.3120365,22.8990936z M31.1791935,22.3823013c0.1286964-0.0048828,0.2536011,0.0100346,0.3719978,0.0416508
		l-0.3581295,0.1931553l-0.3752537-0.1670914C30.9316559,22.4108639,31.0528145,22.3870735,31.1791935,22.3823013z
		 M31.0871525,22.7106209l-0.1971931,0.2103462l-0.2509708,0.0130215l0.1512604-0.3555202L31.0871525,22.7106209z
		 M30.7581425,23.061615l-0.0457535,0.0488529l-0.0904789,0.0965443l-0.0022297-0.1339149L30.7581425,23.061615z
		 M30.681263,22.5062943l-0.190815,0.4485188l-0.0013828,0.0001354l0.0000458,0.0020504l-0.4317989,0.2179279
		C30.1744156,22.8827515,30.397604,22.6431503,30.681263,22.5062943z M30.2941933,23.5720978l-0.1562119-0.2939148
		l0.3430138-0.173111l0.0136452,0.2389755L30.2941933,23.5720978z M30.5051193,23.5268803l0.0066891,0.1170349l0.0079384,0.138998
		l-0.1289654-0.1260204L30.5051193,23.5268803z M30.3074818,23.7551308l0.2231445,0.2180405l0.0000896,0.0012035v0.0000229
		l0.0148945,0.2590866l-0.3761902-0.1127987L30.3074818,23.7551308z M29.96768,23.6890659
		c-0.0049057-0.1304569,0.0102558-0.2570591,0.0428104-0.3768806l0.1911259,0.3595123l-0.1547394,0.4095898
		C30.0010357,23.9585667,29.9728966,23.8269939,29.96768,23.6890659z M30.119833,24.2400398l0.4467812,0.1339588
		l0.1668682,0.4251976C30.4720306,24.6872883,30.255352,24.4897175,30.119833,24.2400398z M30.6666374,24.0990124
		l0.1634789,0.1499233l-0.0070457,0.000267l-0.1475143,0.0055981l-0.0085182-0.1483631L30.6666374,24.0990124z
		 M30.7078857,24.3822041l0.2580624-0.0097675l0.2000446,0.172533l-0.3245049,0.1775932L30.7078857,24.3822041z
		 M31.1544876,24.365303l0.184618-0.0070019l-0.0839252,0.0938683L31.1544876,24.365303z M31.2744446,24.9005566
		c-0.1386852,0.0052395-0.272644-0.0131321-0.3991108-0.0500107l0.3866692-0.2115746l0.4147186,0.1782627
		C31.5511017,24.8654404,31.4162064,24.8952065,31.2744446,24.9005566z M31.7078476,24.6907444l-0.3565693-0.1532898
		l0.1663342-0.1858864l0.0004463-0.0000229l0.293335-0.0111046L31.7078476,24.6907444z M31.8098316,24.2118797l-0.1731548,0.0065327
		l-0.002676,0.0001106l0.1820297-0.2088089L31.8098316,24.2118797z M31.4577236,24.2251892l-0.0592213,0.0022526
		l-0.3857765,0.0145817l-0.3566132-0.3270473l-0.000803-0.013958l-0.029253-0.510437l0.1608486-0.1716175l0.1614723-0.172266
		l0.4985085-0.0258408l0.3614311,0.3494778l0.0124855,0.4383526L31.4577236,24.2251892z M31.8247719,24.7487602l0.1273575-0.4310608
		l0.4520874-0.2279396C32.2963905,24.371769,32.089119,24.6054592,31.8247719,24.7487602z M32.1018753,23.681797
		l0.1949615,0.3182182l-0.3371258,0.1699238l-0.0089626-0.3147411L32.1018753,23.681797z M31.9452171,23.6598358
		l-0.004324-0.1511726l0.0691624,0.0730438L31.9452171,23.6598358z M32.0985756,23.472208l-0.1632118-0.1578827v-0.0000439
		l-0.0078945-0.273983l0.3365917,0.1673813L32.0985756,23.472208z M32.4859581,23.593792
		c0.005127,0.135788-0.0121765,0.2672043-0.047493,0.3913517l-0.2519073-0.4112167l0.2252426-0.3600254
		C32.4548759,23.3330555,32.4809189,23.4605465,32.4859581,23.593792z M31.8932228,22.8797417l-0.2365246-0.4220104
		c0.3165245,0.1154079,0.5754337,0.3542061,0.7157688,0.6602936L31.8932228,22.8797417z"/>
	<path d="M36.3756599,25.2277832c-0.8214989,0.0310822-1.4645348,0.7246876-1.4334564,1.5462074
		c0.0310822,0.8215218,0.7246895,1.4645596,1.5461884,1.4334774c0.8215446-0.0310822,1.4645348-0.7246876,1.4334984-1.5462093
		C37.8907623,25.8397388,37.1972046,25.196701,36.3756599,25.2277832z M36.7218819,25.9110641l-0.0007591-0.0007343h-0.000042
		l-0.2065582-0.1997566l0.283123-0.1527538l0.1940269,0.3460655L36.7218819,25.9110641z M37.0338135,26.0529613l0.010746,0.1701012
		l-0.1774826-0.1716175L37.0338135,26.0529613z M36.5235291,25.9205856l-0.2442818,0.0126648l0.1227226-0.1211605
		L36.5235291,25.9205856z M36.3808784,25.3656883c0.1381912-0.0052185,0.2723312,0.0107689,0.3994217,0.0447273
		l-0.3845291,0.2073803l-0.4029007-0.1793976C36.1151009,25.396368,36.2451782,25.3708382,36.3808784,25.3656883z
		 M36.2820587,25.7182217l-0.211731,0.2258644l-0.2694778,0.013958l0.1624527-0.3817196L36.2820587,25.7182217z
		 M35.928833,26.0950794l-0.0787048,0.083992l-0.0675621,0.0721302l-0.0024529-0.1437912L35.928833,26.0950794z
		 M35.8462448,25.4988441l-0.2048607,0.4815865l-0.0014725,0.0001106l0.0000458,0.0022068l-0.4635925,0.2339821
		C35.3020287,25.903038,35.5417175,25.6457558,35.8462448,25.4988441z M35.4306793,26.6431999l-0.1677132-0.315588
		l0.3682518-0.1858654l0.0146713,0.2565899L35.4306793,26.6431999z M35.6571693,26.5946369l0.0064659,0.1132889l0.0092316,0.1616077
		l-0.1385078-0.1352978L35.6571693,26.5946369z M35.4449081,26.8397217l0.2396431,0.2340927l0.0000877,0.0012932v0.0000229
		l0.0159645,0.2781963l-0.4039268-0.1211166L35.4449081,26.8397217z M35.0800896,26.768774
		c-0.0053101-0.1400681,0.0110588-0.2760105,0.045929-0.4046631l0.205265,0.3860226l-0.1661568,0.4397812
		C35.1158981,27.0581188,35.0857048,26.9168682,35.0800896,26.768774z M35.2434349,27.3603725l0.4797325,0.1438141
		l0.1791763,0.4565468C35.6215858,27.8405533,35.3889847,27.6284237,35.2434349,27.3603725z M35.8305511,27.2089329
		l0.175518,0.1609821l-0.0075378,0.0002899l-0.1583939,0.0059986l-0.00914-0.1592884L35.8305511,27.2089329z M35.8748322,27.5129929
		l0.2771034-0.0105019l0.2148056,0.1852627l-0.3484535,0.1907043L35.8748322,27.5129929z M36.3543434,27.4948425
		l0.1982613-0.0074902l-0.0901222,0.1007805L36.3543434,27.4948425z M36.4831734,28.0695629
		c-0.1488953,0.0056419-0.2927551-0.0141144-0.4285431-0.0537128l0.4151649-0.2271595l0.4453087,0.1913948
		C36.7802086,28.0318375,36.6353722,28.0637875,36.4831734,28.0695629z M36.9485054,27.8442764L36.56567,27.6797047
		l0.1785545-0.1996002l0.3154526-0.0119495L36.9485054,27.8442764z M37.0580254,27.3301163l-0.1888084,0.0071335
		l0.1954536-0.2241917L37.0580254,27.3301163z M36.679966,27.344408l-0.3594246,0.0136013l-0.118351,0.0044804l-0.3829689-0.3511505
		l-0.0123062-0.2147827l-0.0199318-0.3482742l0.1729317-0.1845055l0.1731567-0.1847057l0.5352097-0.0277596l0.3881416,0.3752308
		l0.0133781,0.4706612L36.679966,27.344408z M37.0740814,27.9065971l0.1367226-0.4628582l0.4854431-0.2447281
		C37.5804367,27.5018005,37.357872,27.7527046,37.0740814,27.9065971z M37.3716087,26.7609711l0.2092743,0.3416519
		l-0.3619194,0.1824532l-0.0096741-0.3379517L37.3716087,26.7609711z M37.2033577,26.737402l-0.0046387-0.1623192
		l0.0742912,0.0784397L37.2033577,26.737402z M37.368042,26.5359306l-0.1752548-0.1695004v-0.0000668l-0.0084267-0.2941608
		l0.3613853,0.1797123L37.368042,26.5359306z M37.7839622,26.6664772c0.0055313,0.1457977-0.0130653,0.2868919-0.0509682,0.4201813
		l-0.270504-0.4414978l0.2418747-0.3865566C37.7506065,26.3865414,37.7785683,26.5234203,37.7839622,26.6664772z
		 M37.1475716,25.8997822l-0.2539597-0.4530907c0.3398018,0.1239033,0.6178398,0.3802929,0.7685204,0.7089691L37.1475716,25.8997822
		z"/>
	<path d="M8.4858904,23.3247604c-0.5057783,0.0191307-0.9016781,0.4461784-0.8825474,0.9519787
		c0.0191302,0.5058022,0.4461565,0.901701,0.9519796,0.8825703C9.0611,25.1401787,9.4570446,24.713131,9.43787,24.2073307
		C9.4187393,23.7015305,8.9917135,23.3056068,8.4858904,23.3247604z M8.6990471,23.7454548l-0.0004463-0.0004463
		l-0.1272249-0.1230106l0.1743603-0.0940475l0.1194658,0.213068L8.6990471,23.7454548z M8.8911104,23.8328133l0.0066442,0.1047058
		l-0.1092978-0.1056423L8.8911104,23.8328133z M8.5769501,23.751297L8.4265366,23.7591l0.0755854-0.074604L8.5769501,23.751297z
		 M8.4891014,23.4096661c0.085084-0.0032101,0.1676712,0.0066223,0.2459326,0.0275364l-0.2367468,0.1276703l-0.2480726-0.1104355
		C8.3254881,23.4285507,8.4055777,23.4128323,8.4891014,23.4096661z M8.4282761,23.6267033l-0.1303463,0.1390629
		L8.1319971,23.774374l0.1000233-0.2350292L8.4282761,23.6267033z M8.2107935,23.8587437l-0.0900784,0.0961208l-0.0014715-0.0885391
		L8.2107935,23.8587437z M8.1599569,23.4916286l-0.1261539,0.296524l-0.0008917,0.0000668l0.0000439,0.0013371l-0.2854419,0.1440811
		C7.8248825,23.7405052,7.9724422,23.5821095,8.1599569,23.4916286z M7.9040804,24.1962051l-0.1032333-0.194294l0.2267122-0.1144485
		l0.0090532,0.1579933L7.9040804,24.1962051z M8.0435238,24.1663036l0.0043259,0.075386l0.0053511,0.0938683l-0.0852623-0.0832996
		L8.0435238,24.1663036z M7.9128656,24.3172092l0.1475143,0.144125l0.0000448,0.000803h0.0000448l0.0098104,0.1712837
		l-0.2486973-0.0745602L7.9128656,24.3172092z M7.6882486,24.2735291c-0.0032554-0.0862427,0.0067782-0.1699448,0.0282722-0.2491436
		l0.1263776,0.2376614l-0.1022973,0.270771C7.7102776,24.4516792,7.6916823,24.3647003,7.6882486,24.2735291z M7.7888069,24.6377678
		l0.2953415,0.088541l0.1103239,0.2810936C8.0216284,24.9334221,7.8783946,24.8028088,7.7888069,24.6377678z M8.150281,24.5445232
		l0.1080942,0.0991096l-0.0046377,0.0001774v0.0000229L8.156167,24.6475124l-0.005619-0.0980835L8.150281,24.5445232z
		 M8.1775713,24.7317257l0.1698122-0.0064201h0.0000448l0.0007582-0.0000229l0.1322193,0.114048l-0.2145395,0.1174145
		L8.1775713,24.7317257z M8.4727802,24.7205563l0.0527086-0.0019855l0.0693436-0.0026302l-0.0554743,0.0620518L8.4727802,24.7205563
		z M8.5521116,25.0744038c-0.0916843,0.0034561-0.1802912-0.0086727-0.2638588-0.0330658l0.2556086-0.1398449l0.2741604,0.117815
		C8.7349892,25.0511932,8.6458025,25.070858,8.5521116,25.0744038z M8.838624,24.9356956l-0.2357206-0.1013145l0.1099224-0.1229
		l0.1942043-0.0073586L8.838624,24.9356956z M8.9060049,24.6191273L8.789794,24.6235428l0.1203136-0.1380615L8.9060049,24.6191273z
		 M8.6732721,24.6279583L8.5425243,24.632885l-0.163435,0.006176l-0.2357655-0.2161884l-0.0077143-0.1346283l-0.0121298-0.2120399
		l0.0799561-0.0853081l0.133111-0.1420288l0.329545-0.0170803l0.2389317,0.231039l0.0082493,0.2897663L8.6732721,24.6279583z
		 M8.915904,24.9740696l0.0841923-0.2849751l0.2988653-0.1506805C9.2277012,24.7248363,9.0906658,24.8793297,8.915904,24.9740696z
		 M9.0990944,24.268713l0.1288748,0.2103691l-0.2228336,0.1123314l-0.0059757-0.2080727L9.0990944,24.268713z M8.9955034,24.254221
		l-0.0028543-0.0999565l0.0457535,0.0482941L8.9955034,24.254221z M9.0969086,24.1301613l-0.1079159-0.1043491v-0.0000439
		L8.98382,23.8446522l0.222476,0.1106586L9.0969086,24.1301613z M9.3529644,24.2105408
		c0.0033884,0.0897675-0.0080271,0.1766338-0.031394,0.258709l-0.1665115-0.271841l0.1488972-0.2379951
		C9.3324509,24.038187,9.3496637,24.1224689,9.3529644,24.2105408z M8.9611664,23.7384987L8.804822,23.4595222
		c0.2091875,0.0762997,0.3803816,0.2341595,0.4731359,0.4365234L8.9611664,23.7384987z"/>
	<path d="M40.3969994,21.8929787c-0.5057755,0.0191307-0.901722,0.4461784-0.8825912,0.9519787
		c0.0191765,0.5058002,0.4462013,0.901701,0.9520264,0.8825703c0.5057755-0.0191307,0.9016762-0.4461784,0.8825455-0.9519787
		S40.9028244,21.8738251,40.3969994,21.8929787z M40.610157,22.313673l-0.0004463-0.0004692l-0.127224-0.1229877
		l0.1743584-0.0940475l0.1194687,0.2130661L40.610157,22.313673z M40.8022194,22.4010315l0.0066452,0.1047268l-0.1092987-0.1056633
		L40.8022194,22.4010315z M40.48806,22.3195362l-0.1504135,0.007782l0.0755882-0.0745831L40.48806,22.3195362z
		 M40.4002113,21.9778843c0.085083-0.003233,0.1676712,0.0066223,0.2459335,0.0275364l-0.2367477,0.1276703l-0.2480736-0.1104355
		C40.236599,21.996769,40.3166885,21.9810505,40.4002113,21.9778843z M40.339386,22.1949425l-0.1303444,0.1390419
		l-0.1659355,0.0086079l0.1000252-0.2350311L40.339386,22.1949425z M40.1219025,22.4269619l-0.0900764,0.0960999
		l-0.0014725-0.0885181L40.1219025,22.4269619z M40.0710678,22.0598698l-0.1261559,0.2965012l-0.0008888,0.0000668v0.0013599
		l-0.2854004,0.1440582C39.7359924,22.3087234,39.8835526,22.1503277,40.0710678,22.0598698z M39.8151894,22.7644444
		l-0.1032753-0.194315l0.226757-0.1144485l0.0090523,0.1579933L39.8151894,22.7644444z M39.9546356,22.7345219l0.0032539,0.0566788
		l0.0064201,0.1125755l-0.0852623-0.0832767L39.9546356,22.7345219z M39.8239746,22.8854275l0.1475182,0.144125l0.000042,0.000803
		l0.0098572,0.1712837l-0.2486992-0.0745602L39.8239746,22.8854275z M39.5993576,22.8417473
		c-0.0032539-0.0862217,0.0067787-0.1699238,0.0282745-0.2491436l0.1263313,0.2376614l-0.102253,0.270771
		C39.6213875,23.0198975,39.6027946,22.9329185,39.5993576,22.8417473z M39.6999168,23.205986l0.2953415,0.088541
		l0.1103249,0.2810936C39.9327393,23.5016403,39.789505,23.371027,39.6999168,23.205986z M40.0613899,23.1127644
		l0.1080971,0.0990849l-0.102211,0.0038815l-0.005619-0.0980835v0.000021L40.0613899,23.1127644z M40.0886841,23.2999439
		l0.1705666-0.006443l0.132267,0.114048l-0.2145386,0.1174145L40.0886841,23.2999439z M40.3838921,23.2887745l0.0676003-0.0025425
		l0.054451-0.0020733L40.45047,23.3462105L40.3838921,23.2887745z M40.4632225,23.642622
		c-0.0916862,0.003479-0.1802902-0.0086727-0.2638588-0.0330429l0.2556076-0.1398678l0.2741623,0.1178379
		C40.6460991,23.6193886,40.5569115,23.6390762,40.4632225,23.642622z M40.749733,23.5039368l-0.2357178-0.1013393
		l0.1099205-0.1228981l0.0003128-0.0000229l0.1938934-0.0073128L40.749733,23.5039368z M40.8171158,23.1873684l-0.1144714,0.0043259
		l-0.0017395,0.0000668l0.1203117-0.1380386L40.8171158,23.1873684z M40.5843391,23.1961536l-0.1933594,0.0073357
		l-0.1007805,0.0038128l-0.2357635-0.2162113l-0.0025864-0.0452404l-0.0172577-0.3014278l0.1169243-0.1247959l0.0961418-0.10252
		l0.3295441-0.0171013l0.2389336,0.231039l0.0082474,0.2897892L40.5843391,23.1961536z M40.8270149,23.5422878l0.0841484-0.2849751
		l0.2989082-0.1506805C41.1387672,23.2930546,41.0017776,23.4475479,40.8270149,23.5422878z M41.0102043,22.8369541
		l0.12883,0.2103462l-0.2228317,0.1123314l-0.0059319-0.2080727L41.0102043,22.8369541z M40.9066124,22.8224163
		l-0.0028534-0.0999336l0.0457535,0.0482941L40.9066124,22.8224163z M41.0080185,22.6983795l-0.107914-0.1043491v-0.0000439
		l-0.0051727-0.1811161l0.222477,0.1106586L41.0080185,22.6983795z M41.2640762,22.778759
		c0.0033875,0.0897675-0.0080299,0.1766338-0.031395,0.258709l-0.1665115-0.2718201l0.1488953-0.2380161
		C41.2435608,22.6064053,41.2607765,22.6906872,41.2640762,22.778759z M40.8722763,22.3067169l-0.1563873-0.2789555
		c0.2092323,0.0762768,0.3804245,0.2341385,0.4731789,0.4365025L40.8722763,22.3067169z"/>
</g>
</svg>
