<?xml version="1.0" encoding="UTF-8"?>
<!DOCTYPE svg PUBLIC "-//W3C//DTD SVG 1.1//EN" "http://www.w3.org/Graphics/SVG/1.1/DTD/svg11.dtd">
<!-- Creator: CorelDRAW X7 -->
<svg xmlns="http://www.w3.org/2000/svg" xml:space="preserve" width="50px" height="50px" version="1.1" style="shape-rendering:geometricPrecision; text-rendering:geometricPrecision; image-rendering:optimizeQuality; fill-rule:evenodd; clip-rule:evenodd"
viewBox="0 0 271617 271623"
 xmlns:xlink="http://www.w3.org/1999/xlink">
 <defs>
  <style type="text/css">
   <![CDATA[
    .fil0 {fill:none}
    .fil1 {fill:#030303}
   ]]>
  </style>
 </defs>
 <g id="Layer_x0020_1">
  <metadata id="CorelCorpID_0Corel-Layer"/>
  <rect class="fil0" y="1" width="271618" height="271621"/>
  <path class="fil1" d="M248672 112861l-57662 0 0 3933 57662 0c10485,0 19012,8527 19012,19018 0,10477 -8527,19004 -19012,19004l-57662 0 0 3940 57662 0c12653,0 22945,-10298 22945,-22951 0,-12653 -10292,-22944 -22945,-22944zm-795 9342l-411 -7c-5691,0 -10317,4453 -10535,10144 -212,5820 4331,10722 10144,10946l404 7c5691,0 10317,-4459 10535,-10151 219,-5819 -4330,-10727 -10137,-10939zm2066 5248l-1444 -1540 2182 -975 1103 2612 -1841 -97zm1983 1117l-13 981 -1001 -1065 1014 84zm-3407 -1187l-1669 -90 828 -744 841 834zm-700 -3882c930,38 1822,212 2650,494l-2753 1225 -2624 -1418c873,-230 1784,-340 2727,-301zm-911 2355l-1412 1366 -6 7 -1841 -52 1328 -2361 1931 1040zm-2412 2335l-1207 1174 77 -1167 1130 -7zm-174 -4138l-1732 3099 -3523 1751c1033,-2252 2933,-4003 5255,-4850zm-2592 8251l501 -539 -32 1110 -469 -571zm430 2008l-64 2310 -2477 -1251 1437 -2336 1104 1277zm-1084 -2816l-1213 -1938 2464 -1226 -58 2009 -1193 1155zm-2836 898c32,-975 224,-1912 539,-2785l1649 2637 -1842 3022c-263,-911 -385,-1880 -346,-2874zm596 3638l3318 1674 930 3164c-1938,-1053 -3458,-2766 -4248,-4838zm4370 -5197l0 -84 2650 -2560 3663 186 937 1008 1425 1520 -142 2451 -83 1399 -2618 2406 -3266 -128 -2656 -3054 90 -3144zm8379 5267l0 20 0 32 -64 1084 -1084 -38 -45 0 1193 -1098zm-3580 1951l-738 641 -616 -692 1354 51zm-3516 -1072l-26 0 -1270 -51 -38 -1482 1334 1533zm-1302 892l2155 77 1213 1367 -2618 1123 -750 -2567zm3939 4113c-1039,-39 -2027,-257 -2951,-610l3041 -1308 2830 1552c-918,263 -1906,404 -2920,366zm796 -2618l1463 -1264 1899 71 -988 2502 -2374 -1309zm3176 1874l1219 -3119 3279 -988c-995,1835 -2580,3285 -4498,4107zm2509 -8386l-944 924 84 -1508 19 -366 841 950zm-764 -2297l103 -1758 2515 1277 -1142 2155 -1476 -1674zm1373 3022l1020 2682 -2759 827 109 -1905 0 -7 1630 -1597zm2496 -494c-39,1013 -244,1982 -584,2881l-1129 -3003 1399 -2644c237,886 352,1810 314,2766zm-3824 -5371l0 -19 -13 0 -1399 -3291c2079,1007 3722,2765 4582,4908l-3170 -1598zm-191139 1130l-410 -7c-5691,0 -10317,4453 -10536,10144 -211,5820 4331,10722 10144,10946l405 7c5691,0 10317,-4460 10535,-10151 218,-5819 -4331,-10728 -10138,-10939zm2066 5248l-1443 -1540 2181 -975 1104 2611 -1842 -96zm1983 1116l-13 982 -1001 -1065 1014 83zm-3407 -1187l-1668 -89 828 -745 840 834zm-699 -3881c930,38 1822,211 2650,494l-2753 1225 -2624 -1418c872,-231 1784,-340 2727,-301zm-911 2354l-1412 1367 -6 7 -1842 -52 1328 -2361 1932 1039zm-2413 2336l-1206 1174 77 -1168 1129 -6zm-173 -4139l-1732 3100 -3523 1751c1033,-2252 2932,-4004 5255,-4851zm-2592 8252l500 -539 -32 1110 -468 -571zm430 2008l-65 2310 -2476 -1251 1437 -2336 1104 1277zm-1085 -2817l-1212 -1937 2463 -1226 -57 2008 -1194 1155zm-2836 899c32,-976 225,-1912 539,-2785l1649 2637 -1841 3022c-263,-911 -385,-1880 -347,-2874zm597 3638l3317 1674 931 3163c-1938,-1052 -3459,-2765 -4248,-4837zm4369 -5198l0 -83 2650 -2560 3664 186 937 1007 1424 1521 -141 2451 -83 1399 -2618 2406 -3266 -129 -2656 -3054 89 -3144zm8380 5268l0 19 0 32 -64 1085 -1084 -39 -45 0 1193 -1097zm-3580 1951l-738 641 -616 -693 1354 52zm-3516 -1072l-26 0 -1270 -51 -39 -1482 1335 1533zm-1303 892l2156 77 1213 1367 -2618 1122 -751 -2566zm3940 4113c-1040,-39 -2028,-257 -2952,-610l3042 -1309 2829 1553c-917,263 -1905,404 -2919,366zm795 -2618l1463 -1264 1899 71 -988 2502 -2374 -1309zm3176 1873l1219 -3118 3279 -988c-994,1835 -2579,3285 -4498,4106zm2509 -8385l-943 923 83 -1507 20 -366 840 950zm-763 -2297l102 -1759 2515 1277 -1142 2156 -1475 -1674zm1373 3022l1020 2682 -2759 827 109 -1905 0 -7 1630 -1597zm2496 -495c-39,1014 -244,1983 -584,2881l-1130 -3002 1399 -2644c238,886 353,1809 315,2765zm-3824 -5370l0 -19 -13 0 -1399 -3292c2079,1008 3721,2766 4581,4909l-3169 -1598zm-42225 -12159l-411 -6c-5691,0 -10317,4453 -10535,10144 -212,5820 4330,10721 10144,10946l404 6c5691,0 10317,-4459 10535,-10150 218,-5819 -4331,-10728 -10137,-10940zm2066 5249l-1444 -1540 2181 -975 1104 2611 -1841 -96zm1982 1116l-13 982 -1001 -1065 1014 83zm-3407 -1187l-1668 -90 828 -744 840 834zm-699 -3881c930,38 1822,211 2650,494l-2753 1225 -2624 -1418c873,-231 1784,-340 2727,-301zm-911 2354l-1412 1367 -6 6 -1842 -51 1328 -2361 1932 1039zm-2413 2336l-1206 1174 77 -1168 1129 -6zm-173 -4139l-1732 3099 -3523 1752c1033,-2252 2932,-4004 5255,-4851zm-2592 8252l500 -539 -32 1110 -468 -571zm430 2008l-64 2310 -2477 -1252 1437 -2335 1104 1277zm-1085 -2817l-1212 -1938 2464 -1225 -58 2008 -1194 1155zm-2836 898c32,-975 225,-1912 539,-2784l1649 2637 -1841 3022c-263,-911 -385,-1880 -347,-2875zm597 3638l3317 1675 931 3163c-1938,-1052 -3459,-2765 -4248,-4838zm4370 -5197l0 -83 2649 -2560 3664 186 937 1007 1424 1521 -141 2451 -83 1399 -2618 2406 -3266 -129 -2656 -3054 90 -3144zm8379 5268l0 19 0 32 -64 1085 -1084 -39 -45 0 1193 -1097zm-3580 1950l-738 642 -616 -693 1354 51zm-3516 -1071l-26 0 -1270 -51 -39 -1483 1335 1534zm-1303 892l2156 77 1213 1366 -2618 1123 -751 -2566zm3940 4113c-1040,-39 -2028,-257 -2952,-610l3042 -1309 2829 1553c-917,263 -1905,404 -2919,366zm795 -2618l1463 -1264 1900 70 -989 2503 -2374 -1309zm3176 1873l1220 -3118 3278 -988c-994,1835 -2579,3285 -4498,4106zm2509 -8386l-943 924 83 -1508 20 -365 840 949zm-763 -2297l102 -1758 2515 1277 -1142 2156 -1475 -1675zm1373 3022l1020 2682 -2759 828 109 -1906 0 -6 1630 -1598zm2496 -494c-39,1014 -244,1983 -584,2881l-1129 -3003 1398 -2643c238,885 353,1809 315,2765zm-3824 -5370l0 -19 -13 0 -1399 -3292c2079,1008 3721,2766 4581,4909l-3169 -1598zm69416 -5512l-410 -6c-5691,0 -10317,4453 -10536,10144 -211,5820 4331,10721 10144,10946l405 6c5691,0 10317,-4459 10535,-10150 218,-5819 -4331,-10728 -10138,-10940zm2066 5249l-1443 -1540 2181 -975 1104 2611 -1842 -96zm1983 1116l-13 982 -1001 -1065 1014 83zm-3407 -1187l-1668 -90 827 -744 841 834zm-699 -3881c930,38 1822,211 2650,494l-2753 1225 -2624 -1418c872,-231 1783,-340 2727,-301zm-911 2354l-1412 1367 -6 6 -1842 -51 1328 -2361 1932 1039zm-2413 2336l-1206 1174 77 -1168 1129 -6zm-173 -4139l-1733 3099 -3522 1752c1033,-2252 2932,-4004 5255,-4851zm-2592 8252l500 -539 -32 1110 -468 -571zm430 2008l-65 2310 -2476 -1252 1437 -2335 1104 1277zm-1085 -2817l-1212 -1938 2463 -1225 -57 2008 -1194 1155zm-2836 898c32,-975 225,-1912 539,-2784l1649 2637 -1841 3022c-263,-911 -385,-1880 -347,-2875zm597 3638l3317 1675 931 3163c-1938,-1052 -3459,-2765 -4248,-4838zm4369 -5197l0 -83 2650 -2560 3664 186 937 1007 1424 1521 -141 2451 -83 1399 -2618 2406 -3266 -129 -2656 -3054 89 -3144zm8380 5268l0 19 0 32 -64 1085 -1085 -39 -44 0 1193 -1097zm-3580 1950l-738 642 -616 -693 1354 51zm-3516 -1071l-26 0 -1270 -51 -39 -1483 1335 1534zm-1303 892l2156 77 1213 1366 -2618 1123 -751 -2566zm3940 4113c-1040,-39 -2028,-257 -2952,-610l3042 -1309 2829 1553c-917,263 -1906,404 -2919,366zm795 -2618l1463 -1264 1899 70 -988 2503 -2374 -1309zm3176 1873l1219 -3118 3279 -988c-994,1835 -2579,3285 -4498,4106zm2509 -8386l-943 924 83 -1508 20 -365 840 949zm-763 -2297l102 -1758 2515 1277 -1142 2156 -1475 -1675zm1373 3022l1020 2682 -2759 828 109 -1906 0 -6 1630 -1598zm2496 -494c-39,1014 -244,1983 -584,2881l-1130 -3003 1399 -2643c238,885 353,1809 315,2765zm-3825 -5370l0 -19 -12 0 -1399 -3292c2079,1008 3721,2766 4581,4909l-3170 -1598zm32203 1136l-410 -7c-5691,0 -10318,4453 -10536,10144 -211,5820 4331,10722 10144,10946l405 7c5691,0 10317,-4460 10535,-10151 218,-5819 -4331,-10728 -10138,-10939zm2066 5248l-1443 -1540 2181 -975 1104 2611 -1842 -96zm1983 1116l-13 982 -1001 -1065 1014 83zm-3407 -1187l-1668 -89 827 -745 841 834zm-699 -3881c930,38 1822,211 2649,494l-2752 1225 -2624 -1418c872,-231 1783,-340 2727,-301zm-912 2354l-1411 1367 -6 7 -1842 -52 1328 -2361 1931 1039zm-2412 2336l-1206 1174 77 -1168 1129 -6zm-173 -4139l-1733 3100 -3522 1751c1033,-2252 2932,-4004 5255,-4851zm-2592 8252l500 -539 -32 1110 -468 -571zm430 2008l-65 2310 -2476 -1251 1437 -2336 1104 1277zm-1085 -2817l-1212 -1937 2463 -1226 -57 2008 -1194 1155zm-2836 899c32,-976 225,-1912 539,-2785l1649 2637 -1841 3022c-263,-911 -385,-1880 -347,-2874zm597 3638l3317 1674 930 3163c-1937,-1052 -3458,-2765 -4247,-4837zm4369 -5198l0 -83 2650 -2560 3664 186 937 1007 1424 1521 -141 2451 -84 1399 -2617 2406 -3266 -129 -2656 -3054 89 -3144zm8380 5268l0 19 0 32 -64 1085 -1085 -39 -45 0 1194 -1097zm-3580 1951l-738 641 -616 -693 1354 52zm-3516 -1072l-26 0 -1270 -51 -39 -1482 1335 1533zm-1303 892l2156 77 1213 1367 -2618 1122 -751 -2566zm3940 4113c-1040,-39 -2028,-257 -2952,-610l3041 -1309 2830 1553c-918,263 -1906,404 -2919,366zm795 -2618l1463 -1264 1899 71 -988 2502 -2374 -1309zm3176 1873l1219 -3118 3279 -988c-994,1835 -2579,3285 -4498,4106zm2509 -8385l-943 923 83 -1507 19 -366 841 950zm-764 -2297l103 -1759 2515 1277 -1142 2156 -1476 -1674zm1374 3022l1020 2682 -2759 827 109 -1905 0 -7 1630 -1597zm2495 -495c-38,1014 -243,1983 -583,2881l-1130 -3002 1399 -2644c237,886 353,1809 314,2765zm-3824 -5370l0 -19 -12 0 -1399 -3292c2079,1008 3721,2766 4581,4909l-3170 -1598zm69430 -5505l-411 -6c-5691,0 -10317,4452 -10535,10144 -212,5819 4331,10721 10144,10946l404 6c5691,0 10317,-4459 10536,-10150 218,-5820 -4331,-10728 -10138,-10940zm2066 5248l-1444 -1539 2182 -976 1103 2612 -1841 -97zm1983 1117l-13 982 -1001 -1066 1014 84zm-3407 -1187l-1669 -90 828 -744 841 834zm-700 -3882c931,39 1822,212 2650,494l-2752 1226 -2625 -1418c873,-231 1784,-340 2727,-302zm-911 2355l-1411 1367 -7 6 -1841 -51 1328 -2362 1931 1040zm-2412 2335l-1207 1175 77 -1168 1130 -7zm-174 -4138l-1732 3099 -3522 1752c1033,-2253 2932,-4004 5254,-4851zm-2592 8251l501 -539 -32 1110 -469 -571zm430 2008l-64 2310 -2477 -1251 1438 -2335 1103 1276zm-1084 -2816l-1213 -1938 2464 -1225 -58 2008 -1193 1155zm-2836 898c32,-975 224,-1912 539,-2785l1649 2637 -1842 3022c-263,-911 -385,-1880 -346,-2874zm597 3638l3317 1675 930 3163c-1938,-1053 -3458,-2766 -4247,-4838zm4369 -5197l0 -84 2650 -2560 3664 186 936 1008 1425 1520 -141 2451 -84 1399 -2618 2406 -3265 -128 -2657 -3054 90 -3144zm8380 5268l0 19 0 32 -65 1084 -1084 -38 -45 0 1194 -1097zm-3581 1950l-738 642 -615 -693 1353 51zm-3516 -1071l-25 0 -1271 -52 -38 -1482 1334 1534zm-1302 891l2156 77 1212 1367 -2618 1123 -750 -2567zm3939 4113c-1039,-38 -2027,-256 -2951,-609l3041 -1309 2830 1552c-918,264 -1906,405 -2920,366zm796 -2618l1463 -1264 1899 71 -988 2502 -2374 -1309zm3176 1874l1219 -3118 3279 -988c-995,1835 -2580,3285 -4498,4106zm2509 -8386l-943 924 83 -1508 19 -366 841 950zm-764 -2297l103 -1758 2515 1277 -1142 2156 -1476 -1675zm1373 3022l1020 2682 -2759 828 110 -1906 0 -6 1629 -1598zm2496 -494c-38,1014 -244,1983 -584,2881l-1129 -3003 1399 -2643c237,885 353,1809 314,2765zm-3824 -5370l0 -20 -13 0 -1398 -3291c2078,1007 3721,2765 4581,4908l-3170 -1597zm-42238 -12159l-410 -7c-5692,0 -10318,4453 -10536,10144 -211,5820 4331,10722 10144,10946l404 7c5692,0 10318,-4459 10536,-10151 218,-5819 -4331,-10727 -10138,-10939zm2066 5248l-1443 -1540 2181 -975 1104 2612 -1842 -97zm1983 1117l-13 981 -1001 -1065 1014 84zm-3407 -1187l-1668 -90 827 -744 841 834zm-699 -3882c930,38 1822,212 2649,494l-2752 1225 -2624 -1418c872,-230 1783,-340 2727,-301zm-912 2355l-1411 1366 -7 7 -1841 -52 1328 -2361 1931 1040zm-2412 2335l-1206 1174 77 -1167 1129 -7zm-173 -4138l-1733 3099 -3522 1751c1033,-2252 2932,-4003 5255,-4850zm-2592 8251l500 -539 -32 1110 -468 -571zm429 2008l-64 2310 -2476 -1251 1437 -2336 1103 1277zm-1084 -2816l-1213 -1938 2464 -1226 -57 2009 -1194 1155zm-2836 898c32,-975 225,-1912 539,-2785l1649 2637 -1841 3022c-263,-911 -385,-1880 -347,-2874zm597 3638l3317 1674 930 3164c-1937,-1053 -3458,-2766 -4247,-4838zm4369 -5197l0 -84 2650 -2560 3664 186 937 1008 1424 1520 -141 2451 -84 1399 -2617 2406 -3266 -128 -2657 -3054 90 -3144zm8380 5267l0 20 0 32 -64 1084 -1085 -38 -45 0 1194 -1098zm-3580 1951l-738 641 -616 -692 1354 51zm-3516 -1072l-26 0 -1271 -51 -38 -1482 1335 1533zm-1303 892l2156 77 1213 1367 -2618 1123 -751 -2567zm3940 4113c-1040,-39 -2028,-257 -2952,-610l3041 -1308 2830 1552c-918,263 -1906,404 -2919,366zm795 -2618l1463 -1264 1899 71 -988 2502 -2374 -1309zm3176 1874l1219 -3119 3279 -988c-995,1835 -2579,3285 -4498,4107zm2509 -8386l-943 924 83 -1508 19 -366 841 950zm-764 -2297l103 -1758 2515 1277 -1142 2155 -1476 -1674zm1373 3022l1021 2682 -2759 827 109 -1905 0 -7 1629 -1597zm2496 -494c-38,1013 -243,1982 -584,2881l-1129 -3003 1399 -2644c237,886 353,1810 314,2766zm-3824 -5371l0 -19 -13 0 -1398 -3291c2079,1007 3721,2765 4581,4908l-3170 -1598zm12608 -14853l-168066 0c-12652,0 -22944,10291 -22944,22944 0,12653 10292,22951 22944,22951l168066 0 0 -3940 -168066 0c-10484,0 -19011,-8527 -19011,-19011 0,-10484 8527,-19011 19011,-19011l168066 0 0 -3933z"/>
 </g>
</svg>
