<?xml version="1.0" encoding="UTF-8"?>
<!DOCTYPE svg PUBLIC "-//W3C//DTD SVG 1.1//EN" "http://www.w3.org/Graphics/SVG/1.1/DTD/svg11.dtd">
<!-- Creator: CorelDRAW X7 -->
<svg xmlns="http://www.w3.org/2000/svg" xml:space="preserve" width="50px" height="50px" version="1.1" style="shape-rendering:geometricPrecision; text-rendering:geometricPrecision; image-rendering:optimizeQuality; fill-rule:evenodd; clip-rule:evenodd"
viewBox="0 0 207663 207663"
 xmlns:xlink="http://www.w3.org/1999/xlink">
 <defs>
  <style type="text/css">
   <![CDATA[
    .fil1 {fill:none}
    .fil0 {fill:black}
   ]]>
  </style>
 </defs>
 <g id="Layer_x0020_1">
  <metadata id="CorelCorpID_0Corel-Layer"/>
  <path class="fil0" d="M190121 86292l-44085 0 0 3007 44085 0c8016,0 14535,6519 14535,14540 0,8010 -6519,14530 -14535,14530l-44085 0 0 3012 44085 0c9674,0 17542,-7874 17542,-17547 0,-9674 -7868,-17542 -17542,-17542zm-55883 18690c618,-16762 -12509,-30914 -29256,-31547l-1168 -20c-16413,0 -29766,12852 -30389,29266 -633,16762 12489,30914 29251,31547l1168 20c16423,5 29766,-12848 30394,-29266zm-3763 -133c-107,2914 -706,5705 -1677,8300l-3272 -8672 4042 -7609c687,2541 1015,5215 907,7981zm-8957 -682l-2727 2664 250 -4361 59 -1054 2418 2751zm-2193 -6622l285 -5057 7260 3664 -3301 6225 -4244 -4832zm3959 8697l2924 7741 -7962 2384 314 -5484 5 -24 4719 -4617zm5298 -12278l-9139 -4616 5 -44 -29 -5 -4043 -9492c6000,2904 10724,7976 13206,14157zm-12313 -5097l-5312 -279 -4175 -4454 6284 -2797 3203 7530zm407 2944l-54 2830 -2879 -3076 2933 246zm-9835 -3434l-4822 -250 2399 -2144 2423 2394zm-2011 -11190c2673,103 5244,604 7652,1433l-7942 3537 -7584 -4091c2507,-663 5151,-982 7874,-879zm-2625 6799l-4076 3939 -15 15 -5317 -142 3826 -6819 5582 3007zm-6956 6721l-3492 3385 216 -3356 3276 -29zm-525 -11925l-5003 8933 -10145 5042c2973,-6475 8453,-11527 15148,-13975zm-7480 23791l1466 -1545 -93 3193 -1373 -1648zm1260 5789l-191 6666 -7137 -3600 4125 -6741 3203 3675zm-3129 -8104l-3503 -5602 7123 -3542 -172 5803 -3448 3341zm-8197 2575c103,-2820 657,-5518 1569,-8045l4764 7618 -5333 8703c-745,-2625 -1113,-5401 -1000,-8276zm1726 10493l9566 4827 2703 9119c-5597,-3026 -9988,-7976 -12269,-13946zm12607 -14991l5 -236 7653 -7392 10547 539 2712 2900 4106 4380 -402 7064 -231 4032 -7549 6927 -9424 -358 -7682 -8820 265 -9036zm24175 15192l-5 64 -5 93 -182 3140 -3125 -118 -147 -5 3464 -3174zm-10326 5632l-2134 1839 -1771 -1987 3905 148zm-10155 -3106l-54 -4 -3669 -138 -128 -4277 3851 4419zm-3757 2581l6225 235 3517 3934 -7550 3248 -2192 -7417zm11370 11856c-3002,-113 -5857,-741 -8515,-1761l8780 -3772 8183 4469c-2679,789 -5514,1177 -8448,1064zm2296 -7530l4234 -3649 5464 201 -2830 7206 -6868 -3758zm9154 5387l3537 -9002 9452 -2835c-2869,5278 -7456,9467 -12989,11837zm-10434 -61888c14299,0 26720,8035 33009,19833l9193 0 0 3007 -7756 0c1889,4469 2934,9384 2934,14540 0,5151 -1045,10061 -2929,14530l7751 0 0 3012 -9188 0c-6284,11802 -18710,19837 -33014,19837 -14304,0 -26730,-8035 -33014,-19837l-53278 0c-9674,0 -17542,-7874 -17542,-17547 0,-9674 7868,-17542 17542,-17542l53283 0c6289,-11798 18709,-19833 33009,-19833zm-34451 51910c-1884,-4469 -2929,-9379 -2929,-14530 0,-5156 1045,-10071 2934,-14540l-51846 0c-8016,0 -14535,6519 -14535,14535 0,8015 6519,14535 14535,14535l51841 0zm62657 -32077l30 44 29 49 54 88 30 50 137 225 29 49 108 182 30 49 24 44 30 49 319 559 24 44 29 49 207 378 24 49 25 44 24 49 49 94 30 49 24 49 25 44 24 49 25 49 24 49 25 39 0 5 24 49 25 49 24 49 25 44 24 50 25 49 24 49 25 49 20 49 24 44 25 49 24 49c2154,4415 3346,9330 3346,14540 0,5209 -1202,10139 -3341,14530l-5 0 -93 191 -25 49 -24 49 -25 49 -24 49 -25 49 -196 383 -24 49 -25 44 -412 761 -25 44 -770 1295 5 0c-5867,9408 -16306,15678 -28211,15678 -11906,0 -22349,-6265 -28216,-15678l-30 -44 -29 -49 -25 -45 -29 -44 -30 -49 -29 -44 -25 -44 -29 -49 -29 -44 -25 -44 -29 -50 -30 -44 -24 -49 -30 -44 -24 -44 -30 -49 -54 -93 -29 -44 -25 -49 -29 -45 -20 -39 -5 -10 -24 -44 -30 -49 -24 -44 -30 -49 -24 -44 -29 -49 -25 -44 -25 -49 -29 -50 -24 -44 -25 -49 -25 -44 -29 -49 -24 -49 -20 -34 -5 -10 -25 -49 -29 -49 -25 -44 -24 -49 -25 -50 -24 -44 -25 -49 -29 -49 -49 -93 -25 -49 -24 -49 -25 -44 -24 -49 -15 -35 -10 -14 -24 -49 -25 -49 -24 -45 -143 -289 -24 -49 -25 -49 -24 -49c-2134,-4425 -3336,-9340 -3336,-14530 0,-5578 1369,-10836 3802,-15452l24 -45 25 -49 103 -191 24 -44 25 -49 5 -5 20 -44 29 -44 24 -49 25 -45 54 -98 24 -44 30 -49 24 -44 54 -93 25 -49 29 -44 25 -49 24 -45 5 -4 25 -45 24 -44 30 -49 24 -44 30 -49 54 -93 29 -44 25 -45 29 -49 25 -44 29 -49 30 -44 24 -44 29 -44 0 -5 30 -44 24 -44 30 -50 29 -44c5828,-9477 16350,-15810 28300,-15810 11905,0 22339,6264 28206,15673z"/>
  <rect class="fil1" width="207664" height="207664"/>
 </g>
</svg>
