<?xml version="1.0" encoding="utf-8"?>
<!-- Generator: Adobe Illustrator 18.0.0, SVG Export Plug-In . SVG Version: 6.00 Build 0)  -->
<!DOCTYPE svg PUBLIC "-//W3C//DTD SVG 1.1//EN" "http://www.w3.org/Graphics/SVG/1.1/DTD/svg11.dtd">
<svg version="1.1" id="Layer_1" xmlns="http://www.w3.org/2000/svg" xmlns:xlink="http://www.w3.org/1999/xlink" x="0px" y="0px"
	 width="50px" height="50px" viewBox="0 0 50 50" enable-background="new 0 0 50 50" xml:space="preserve">
<path d="M45.6530113,21.6530113H16.6126709h-1.6023703H4.3469892C2.501379,21.6530113,1,23.1543903,1,25
	s1.501379,3.3469887,3.3469892,3.3469887l13.1280079-0.0289917l0.0000381-0.0000286l28.1779766,0.0290203
	C47.4986191,28.3469887,49,26.8456097,49,25S47.4986191,21.6530113,45.6530113,21.6530113z M28.389904,24.8944721
	c0,1.3845806,0.9302483,2.5553093,2.1983051,2.9220829L25.79492,27.8304405c1.293047-0.3504982,2.2472-1.5336571,2.2472-2.9359684
	c0-1.2330742-0.7378178-2.2963428-1.7947826-2.773613l3.8902588,0.0212994
	C29.1058025,22.6294117,28.389904,23.6797085,28.389904,24.8944721z M31.4319305,22.1910992
	c1.4905968,0,2.703373,1.2127876,2.703373,2.703373c0,1.4905968-1.2127762,2.703207-2.703373,2.703207
	c-1.4905949,0-2.7031879-1.2126102-2.7031879-2.703207C28.7287426,23.4038868,29.9413357,22.1910992,31.4319305,22.1910992z
	 M15.8646774,24.8944721c0-1.4905853,1.2126122-2.703373,2.703207-2.703373c1.4905777,0,2.703373,1.2127876,2.703373,2.703373
	c0,1.4905968-1.2127953,2.703207-2.703373,2.703207C17.0772896,27.5976791,15.8646774,26.3850689,15.8646774,24.8944721z
	 M21.610096,24.8944721c0-1.2643681-0.7754669-2.3507042-1.8756237-2.8092594l4.0479107,0.0221577
	c-1.0728664,0.4705811-1.8245029,1.5424347-1.8245029,2.7871017c0,1.4081364,0.9619732,2.5955372,2.2631187,2.9405308
	l-4.9313812,0.0142899C20.6197643,27.5243378,21.610096,26.3231449,21.610096,24.8944721z M24.9999084,22.1910992
	c1.4905949,0,2.703373,1.2127876,2.703373,2.703373c0,1.4905968-1.2127781,2.703207-2.703373,2.703207
	s-2.703207-1.2126102-2.703207-2.703207C22.2967014,23.4038868,23.5093136,22.1910992,24.9999084,22.1910992z M4.3469892,27.7729053
	c-1.5290375,0-2.7728963-1.2438679-2.7728963-2.7729053s1.2438587-2.7729053,2.7728963-2.7729053l12.3428421-0.1584339
	l-0.0000172-0.0001202l0.7434654,0.0040684c-1.1168461,0.4507599-1.9074411,1.5453873-1.9074411,2.8218632
	c0,1.4329243,0.996295,2.6369057,2.3323107,2.9575806L4.3469892,27.7729053z M45.6530113,27.7729053L32.2930984,27.811615
	c1.2592964-0.3723965,2.1810646-1.5388737,2.1810646-2.9171429c0-1.2027473-0.7016754-2.2445412-1.7170715-2.7379684
	l12.8959198,0.070591c1.5290375,0,2.7729149,1.2438679,2.7729149,2.7729053S47.1820488,27.7729053,45.6530113,27.7729053z"/>
</svg>
