<?xml version="1.0" encoding="utf-8"?>
<!-- Generator: Adobe Illustrator 18.0.0, SVG Export Plug-In . SVG Version: 6.00 Build 0)  -->
<!DOCTYPE svg PUBLIC "-//W3C//DTD SVG 1.1//EN" "http://www.w3.org/Graphics/SVG/1.1/DTD/svg11.dtd">
<svg version="1.1" id="Layer_1" xmlns="http://www.w3.org/2000/svg" xmlns:xlink="http://www.w3.org/1999/xlink" x="0px" y="0px"
	 width="50px" height="50px" viewBox="0 0 50 50" enable-background="new 0 0 50 50" xml:space="preserve">
<path d="M44.9446793,20.9241371l-13.6752739-0.0229874c-0.4303932-0.4612293-1.0333843-0.7582436-1.7029991-0.7889576
	l0.0315723-0.0069675c-0.0643253-0.2918186-0.2028561-0.5543175-0.3988209-0.7694931
	c0.0200672-0.0576019,0.0311699-0.1193428,0.0302563-0.183857c-0.0041466-0.2965698-0.2479382-0.533617-0.5444851-0.5294685
	c-0.1628323,0.002285-0.3074036,0.0770683-0.4042835,0.1928883c-0.2257099-0.0449505-0.4601364-0.0442924-0.6917095,0.0068226
	l0.0139122,0.0630322c-0.3530006-1.0638866-1.3645782-1.8267231-2.543539-1.8102112
	c-1.0751915,0.015049-1.9926319,0.6743965-2.3909855,1.604435l0.0075588-0.0320168
	c-0.2101917-0.0496998-0.423481-0.0576153-0.6309738-0.0274258c-0.0956745-0.1567898-0.2688541-0.2607365-0.4658012-0.2579842
	c-0.2965679,0.0041599-0.5336037,0.2479286-0.5294571,0.5444965c0.0009823,0.0697784,0.0156307,0.136055,0.0407143,0.1968803
	c-0.212532,0.2141037-0.3645725,0.4812069-0.4384632,0.7811203c-0.800787,0.0420284-1.5056953,0.4413624-1.9613743,1.0396938
	H5.0553441C2.8191199,20.9241371,1,22.743269,1,24.9794712s1.8191199,4.0553207,4.0553441,4.0553207H18.217659
	c0.4799137,0.7261696,1.3077011,1.2016907,2.240818,1.1886253c0.1043701-0.001461,0.2070236-0.0096645,0.3080959-0.0229206
	c0.0798664,0.2690315,0.2211151,0.503727,0.404707,0.6926804c-0.0210476,0.0588074-0.0326881,0.1220188-0.0317726,0.1881504
	c0.0041695,0.2965679,0.2479382,0.5336037,0.5445061,0.5294571c0.1779289-0.0024967,0.3339615-0.0915947,0.4298134-0.226244
	c0.0957432,0.0155849,0.1933136,0.0235443,0.291975,0.0221615c0.1392651-0.0019608,0.2805386-0.0218506,0.4208508-0.0602112
	c0.4147854,0.9411983,1.363018,1.5938549,2.4545536,1.5785732c0.9977551-0.013958,1.8600349-0.5825691,2.2974281-1.4076138
	c0.1324196,0.0262985,0.2654877,0.038908,0.3975506,0.0370579c0.1744709-0.0024319,0.3470478-0.0293427,0.5135822-0.0796452
	c0.0995541,0.1045494,0.2403355,0.1693211,0.3960781,0.1671371c0.2965679-0.0041485,0.5336266-0.2479401,0.5294781-0.5444965
	c-0.0009804-0.0698662-0.0156746-0.1362114-0.040802-0.1970921c0.1999111-0.2307034,0.3408947-0.5077839,0.4106827-0.81287
	c0.7843075-0.0582504,1.4720497-0.4596691,1.9164219-1.0527496h13.2430534C47.1808815,29.0347919,49,27.2156715,49,24.9794712
	S47.1808815,20.9241371,44.9446793,20.9241371z M32.0633469,24.5012836
	c-0.1647949,0.093647-0.2749424,0.2717304-0.2720871,0.4746532c0.0034332,0.2468681,0.1731548,0.4519539,0.4009399,0.5115414
	c-0.0363884,0.2611046-0.1283188,0.5101585-0.2706394,0.7341518c-0.3303699-0.6225452-0.9016781-1.097353-1.5877018-1.2997627
	c0.5342293-0.2034569,0.9799614-0.5857563,1.2649574-1.0724487C31.801918,24.0332985,31.9592419,24.2548828,32.0633469,24.5012836z
	 M27.7414665,24.4009056c0.270504,0.256321,0.5980873,0.4522877,0.9611664,0.5671597
	c-0.3604031,0.1286755-0.6843739,0.3332691-0.9531384,0.5945187c0.0421181-0.1930885,0.0637894-0.3936253,0.0609131-0.599535
	C27.8076878,24.7698154,27.7836075,24.5818863,27.7414665,24.4009056z M31.6695633,22.5653973
	c0.0171242,1.2233295-0.964241,2.2325554-2.1875725,2.2496796c-1.2233295,0.0171242-2.2325439-0.9642429-2.249691-2.187561
	c-0.0171242-1.2233315,0.9642429-2.2325573,2.1875725-2.2496815C30.6432037,20.3607121,31.652441,21.3420773,31.6695633,22.5653973z
	 M28.1635876,19.0676041c-0.0055523,0.0322628-0.008606,0.0653725-0.0081158,0.099308
	c0.0041466,0.2965584,0.2479172,0.5336056,0.5444851,0.529459c0.1317291-0.001852,0.2515507-0.0511379,0.3438816-0.1311722
	c0.1311054,0.1582165,0.2257538,0.3442383,0.2783737,0.5478516c-1.3272533,0.0682278-2.3771381,1.1783581-2.358387,2.5182209
	c0.0023422,0.1662903,0.0213165,0.328476,0.0547829,0.4852772c-0.485487-0.4764023-1.1530514-0.7669392-1.8853188-0.7566833
	c-0.6796913,0.00951-1.296463,0.2764797-1.7589855,0.7064705c0.0396881-0.1879387,0.0600452-0.3827991,0.0572586-0.5827465
	c-0.0042362-0.3017521-0.059845-0.5908165-0.1572819-0.8598042c0.4831696,0.4612961,1.1398067,0.7415104,1.858942,0.7314434
	c1.4558182-0.02038,2.6235619-1.221302,2.6031837-2.6771088c-0.0028763-0.2053299-0.0299892-0.4046288-0.0772362-0.5959682
	C27.8278675,19.0466003,27.9980354,19.0426426,28.1635876,19.0676041z M27.5419121,24.966795
	c0.0183048,1.3077564-1.0307102,2.3865585-2.3384552,2.4048653c-1.3077679,0.0183048-2.3865471-1.0306988-2.4048538-2.3384552
	c-0.0183277-1.3077564,1.0306873-2.386549,2.3384552-2.4048653C26.4448032,22.6100349,27.5236053,23.65905,27.5419121,24.966795z
	 M25.063055,17.3434238c1.3077679-0.0183067,2.386549,1.0307083,2.4048767,2.3384533
	c0.0183048,1.307745-1.0307102,2.386549-2.3384781,2.4048538c-1.307745,0.0183067-2.3865471-1.0306969-2.4048309-2.3384533
	C22.706295,18.4405308,23.7553101,17.3617287,25.063055,17.3434238z M22.5843773,18.9032211
	c-0.0866241,0.2673035-0.1323986,0.5526123-0.128252,0.8488235c0.0042152,0.3017521,0.059845,0.5908184,0.1572819,0.8598061
	c-0.4432583-0.4231701-1.0326042-0.6932945-1.6821957-0.7273407c0.0643482-0.2169018,0.1763668-0.4079857,0.322855-0.5641174
	c0.0934238,0.0738125,0.2117519,0.1173134,0.3400688,0.1155071c0.2965698-0.0041466,0.5336056-0.2479267,0.529459-0.5444851
	c-0.0000458-0.0033226-0.000536-0.0065098-0.0006256-0.0098095C22.2733593,18.8638573,22.4286118,18.8697205,22.5843773,18.9032211z
	 M20.7582111,20.1489029c1.307745-0.0183048,2.386549,1.0307102,2.4048538,2.3384552s-1.0307083,2.386549-2.3384552,2.4048538
	c-1.3077679,0.0183067-2.3865471-1.0307083-2.4048538-2.3384533C18.4014282,21.2460117,19.4504433,20.1672096,20.7582111,20.1489029
	z M18.404438,25.8823967c-0.0979271-0.1320744-0.1719284-0.2771358-0.2185287-0.430727
	c0.2152519-0.0724316,0.369009-0.2771358,0.3656654-0.5164146c-0.002943-0.2095432-0.1257763-0.3888988-0.3020535-0.4749298
	c0.080246-0.1793442,0.198061-0.3399906,0.3475609-0.4738045c0.3086758,0.4604721,0.7578201,0.8182106,1.2850037,1.0123253
	C19.2936974,25.1214447,18.7779083,25.4401093,18.404438,25.8823967z M5.0553441,28.3392143
	c-1.8526542,0-3.3597543-1.5071125-3.3597543-3.3597431c0-1.852644,1.5071001-3.3597431,3.3597543-3.3597431h13.2545567
	c-0.1065559,0.2924976-0.1632557,0.6084976-0.1586399,0.9377861c0.0060425,0.4314747,0.1164322,0.8372307,0.3057766,1.1946678
	c-0.2129555,0.1792431-0.3750305,0.4032803-0.4767265,0.655344c-0.2838364,0.0180168-0.5067368,0.2552319-0.5027008,0.5427685
	c0.0036354,0.2592335,0.1903687,0.4729691,0.4354095,0.5198917c0.0595551,0.2259769,0.1650181,0.4393234,0.3159447,0.6268501
	l0.0272694-0.0219517c-0.3058434,0.4378624-0.4828796,0.9715004-0.4748535,1.5451488
	c0.0035,0.2497692,0.0424747,0.4907169,0.1107922,0.7189808H5.0553441z M20.454731,29.9549313
	c-1.307745,0.0183067-2.386549-1.0307083-2.4048538-2.3384533c-0.0183067-1.3077564,1.0307083-2.386549,2.3384533-2.4048653
	c1.3077469-0.0183067,2.386549,1.0307083,2.4048538,2.3384533C22.811491,28.8578224,21.762476,29.936615,20.454731,29.9549313z
	 M22.2105732,31.1277046c0.0020294-0.0202007,0.0031872-0.0406361,0.0028973-0.0614166
	c-0.0041466-0.2965565-0.2479153-0.5336151-0.5444851-0.5294685c-0.1304569,0.0018291-0.249321,0.0500793-0.3412724,0.1287422
	c-0.1301003-0.1447506-0.2318192-0.3180408-0.294384-0.514185c1.1760387-0.2800236,2.0459442-1.3470325,2.0283298-2.6050549
	c-0.0157185-1.1233082-0.7346077-2.0745182-1.7308235-2.4413319c0.4794903-0.0999126,0.911108-0.3296356,1.2565289-0.6507511
	c-0.039711,0.1879158-0.0600662,0.3827896-0.0572567,0.5827236c0.0203781,1.4557953,1.2213001,2.6235619,2.6770954,2.6031837
	c0.7010078-0.0098114,1.3347015-0.2938595,1.8016396-0.7477646c-0.0420952,0.1930885-0.0637684,0.3936253-0.0608921,0.599535
	c0.0047722,0.3408279,0.0749607,0.6655006,0.197258,0.9631958c-0.4892788-0.5079861-1.1787128-0.8209648-1.9379387-0.8103294
	c-1.4557953,0.02038-2.6235619,1.221302-2.6031818,2.6770973c0.003767,0.2688084,0.048027,0.5276833,0.1264668,0.7711754
	C22.5559254,31.137537,22.3801174,31.1485634,22.2105732,31.1277046z M25.2774372,32.6565895
	c-1.307745,0.0183029-2.3865471-1.0307102-2.4048538-2.3384552c-0.0183048-1.3077564,1.0307102-2.386549,2.3384552-2.4048653
	c1.307745-0.0183067,2.3865471,1.0307083,2.4048538,2.3384533C27.6341972,31.5594788,26.5851822,32.6382713,25.2774372,32.6565895z
	 M27.695982,31.2642612c0.1259308-0.3140602,0.1934242-0.6573639,0.188406-1.0162945
	c-0.0047703-0.3408279-0.0749607-0.6655006-0.1972809-0.9632072c0.4635925,0.4813309,1.1069412,0.787241,1.8190536,0.8089809
	c-0.0591755,0.2168789-0.1604919,0.4158096-0.2987309,0.5872936c-0.0928879-0.072197-0.2098351-0.1147614-0.3366127-0.112999
	c-0.2965679,0.004158-0.5336266,0.2479401-0.5294571,0.544508c0.0005798,0.0412045,0.006197,0.0810699,0.0155411,0.1194878
	C28.1430302,31.2883968,27.9191265,31.2994995,27.695982,31.2642612z M29.6213017,29.8266029
	c-1.3077469,0.0183067-2.386549-1.0307083-2.4048767-2.3384533c-0.0182838-1.3077469,1.0307312-2.386549,2.3384762-2.4048538
	c1.307745-0.0183067,2.386549,1.0307083,2.4048538,2.3384533C31.9780617,28.7294941,30.9290466,29.8082981,29.6213017,29.8266029z
	 M44.9446793,28.3392143l-12.8636971-0.0137348c0.0994873-0.283926,0.1517067-0.5896149,0.1472473-0.9074879
	c-0.0044823-0.3209267-0.0664902-0.6277733-0.175808-0.9110641c0.2268219-0.3009949,0.3674278-0.6508408,0.4120178-1.0195713
	c0.2333603-0.0610943,0.4042854-0.2744064,0.4007607-0.5264473c-0.0041237-0.294651-0.2448387-0.5303059-0.5387993-0.5292568
	c-0.1273117-0.3173828-0.3303242-0.6012535-0.5985317-0.8287468l-0.0065098,0.0076828
	c0.1436138-0.3202152,0.2219181-0.6755352,0.2166786-1.0489483c-0.0044365-0.3166466-0.0687847-0.6184998-0.1810703-0.8957806
	l13.1877117-0.0461311c1.8526306,0,3.3597298,1.5070992,3.3597298,3.3597431
	C48.304409,26.8321018,46.7973099,28.3392143,44.9446793,28.3392143z"/>
</svg>
