<?xml version="1.0" encoding="utf-8"?>
<!-- Generator: Adobe Illustrator 18.0.0, SVG Export Plug-In . SVG Version: 6.00 Build 0)  -->
<!DOCTYPE svg PUBLIC "-//W3C//DTD SVG 1.1//EN" "http://www.w3.org/Graphics/SVG/1.1/DTD/svg11.dtd">
<svg version="1.1" id="Layer_1" xmlns="http://www.w3.org/2000/svg" xmlns:xlink="http://www.w3.org/1999/xlink" x="0px" y="0px"
	 width="50px" height="50px" viewBox="0 0 50 50" enable-background="new 0 0 50 50" xml:space="preserve">
<g>
	<path d="M44.6585655,20.9884949H30.0486088v0.695591h2.4988346v3.2017155h-0.1689186h-2.329916v-0.6922455v-4.4542332
		l-4.4541683,0.0000229h-0.7763252l-5.2907391,0.0000439v1.2491055H5.2914457C2.9250302,20.9884949,1,22.8076153,1,25.0438194
		s1.9250302,4.0553226,4.2914457,4.0553226h14.2359304v1.1614132l4.4542561,0.0000553h0.7763252l5.2906952,0.0000668v-1.1615353
		h14.6099129C47.0525627,29.0991421,49,27.2800217,49,25.0438194S47.0525627,20.9884949,44.6585655,20.9884949z
		 M39.0101852,24.8858013h-2.3102951h-0.6399117v-3.2017155h2.9502068V24.8858013z M35.7439003,24.8858013h-2.8803787v-3.2017155
		h2.8803787V24.8858013z M32.8635216,25.2018795h2.8803787v3.2016735h-2.8803787V25.2018795z M36.0599785,25.2018795h0.6399117
		h2.3102951v3.2016735h-2.9502068V25.2018795z M16.6123505,24.8858013h-2.8803778v-3.2017155h2.8803778V24.8858013z
		 M13.4158945,24.8858013h-0.6400042h-2.3650551v-3.2017155h3.0050592V24.8858013z M10.4108353,25.2018795h2.3650551h0.6400042
		v3.2016735h-3.0050592V25.2018795z M13.7319727,25.2018795h2.8803778v3.2016735h-2.8803778V25.2018795z M19.5273762,24.8858013
		h-2.4300289h-0.1689205v-3.2017155h2.5989494V24.8858013z M1.7360809,25.0438194
		c0-1.8526344,1.5948606-3.3597336,3.5553648-3.3597336h4.8033113v6.7194672H5.2914457
		C3.3309414,28.403553,1.7360809,26.896452,1.7360809,25.0438194z M19.5273762,28.403553h-2.5989494v-3.2016735h0.1689205h2.4300289
		v0.604475V28.403553z M24.2090588,29.7117329h-0.7763271l-3.3565006-0.0000553v-3.3564453v-0.7763157v-5.2906494
		l5.2907829-0.0000439h0.7762833l3.356411-0.0000229l0.0000439,3.3564777v0.7763042l0.0000458,5.2908173L24.2090588,29.7117329z
		 M30.0486088,25.2018795h2.329916h0.1689186v3.2016735h-2.4987907L30.0486088,25.2018795z M44.6585655,28.403553h-5.3323021
		v-3.2016735v-0.3160782v-3.2017155h5.3323021c1.9833374,0,3.5968132,1.5070992,3.5968132,3.3597336
		C48.2553787,26.896452,46.6419029,28.403553,44.6585655,28.403553z"/>
	<path d="M21.9415722,22.1535206c-1.5695534,1.5695534-1.5695534,4.123394,0,5.6929588
		c1.5695553,1.5695667,4.1234188,1.5695667,5.6929722,0c1.5695534-1.5695648,1.5695534-4.1234055,0-5.6929588
		C26.064991,20.5839653,23.5111275,20.5839653,21.9415722,22.1535206z M27.2463589,27.4583282
		c-1.355505,1.355505-3.5611401,1.355505-4.9166451,0c-1.355505-1.3555279-1.355505-3.5611401,0-4.9166565
		s3.5611401-1.3555164,4.9166451,0C28.6019096,23.8971882,28.6019096,26.1028004,27.2463589,27.4583282z"/>
</g>
</svg>
