<?xml version="1.0" encoding="UTF-8"?>
<!DOCTYPE svg PUBLIC "-//W3C//DTD SVG 1.1//EN" "http://www.w3.org/Graphics/SVG/1.1/DTD/svg11.dtd">
<!-- Creator: CorelDRAW X7 -->
<svg xmlns="http://www.w3.org/2000/svg" xml:space="preserve" width="50px" height="50px" version="1.1" style="shape-rendering:geometricPrecision; text-rendering:geometricPrecision; image-rendering:optimizeQuality; fill-rule:evenodd; clip-rule:evenodd"
viewBox="0 0 1107220 1107220"
 xmlns:xlink="http://www.w3.org/1999/xlink">
 <defs>
  <style type="text/css">
   <![CDATA[
    .fil0 {fill:none}
    .fil1 {fill:black}
   ]]>
  </style>
 </defs>
 <g id="Layer_x0020_1">
  <metadata id="CorelCorpID_0Corel-Layer"/>
  <rect class="fil0" x="-1" y="1" width="1107220" height="1107220"/>
  <path class="fil1" d="M225142 261419l152405 0 0 32956c45039,11220 85292,34550 117096,66329 120444,120548 27280,229693 143121,345533 91908,91935 242718,91935 334653,0 128264,-128290 71037,-333711 -96669,-393031l-13130 -3766 -107366 0 0 -49172 152431 0 0 41116c192187,55763 272065,312055 119607,464513 -107445,107445 -283782,107445 -391200,0 -132266,-132266 -29948,-252082 -157113,-379274 -45902,-45902 -108910,-74698 -178639,-76032l-11168 0c-24063,444 -46425,3531 -66983,8814 -213190,84611 -181856,456143 94262,456143 35937,0 70070,-7977 100514,-22284 18753,-8814 50662,-27175 78570,-45431 23827,-15432 43966,-6879 21002,26547l-9677 14124c-25527,30340 -57724,55213 -94132,72292 -35649,16740 -75536,26129 -117410,26129 -4158,0 -8239,-78 -12267,-209 -327356,-11456 -346580,-479997 -57907,-545410l0 -39887zm371872 420285c10750,23906 26678,47968 50976,72266 100906,100854 266467,100854 367347,0 124053,-124079 86103,-314121 -38683,-399387 95597,90758 116076,253102 6643,362561 -97924,97872 -258542,97872 -356414,0 -11927,-11900 -21761,-23696 -29869,-35440zm-467311 -315900c-160566,132292 -108334,456980 156668,464120 2956,79 5937,105 8945,105 39442,0 76896,-8762 110296,-24481 34184,-16007 64420,-39468 88430,-67977l13260 -19276c-29084,20035 -63425,39285 -83879,48831 -32484,15275 -68840,23828 -106974,23828 -248734,0 -311009,-283390 -186746,-425150z"/>
 </g>
</svg>
