<?xml version="1.0" encoding="utf-8"?>
<!-- Generator: Adobe Illustrator 18.0.0, SVG Export Plug-In . SVG Version: 6.00 Build 0)  -->
<!DOCTYPE svg PUBLIC "-//W3C//DTD SVG 1.1//EN" "http://www.w3.org/Graphics/SVG/1.1/DTD/svg11.dtd">
<svg version="1.1" id="Layer_1" xmlns="http://www.w3.org/2000/svg" xmlns:xlink="http://www.w3.org/1999/xlink" x="0px" y="0px"
	 width="50px" height="50px" viewBox="0 0 50 50" enable-background="new 0 0 50 50" xml:space="preserve">
<path d="M44.956398,20.7998466H30.8024616c0.0278778-0.0896969,0.0445976-0.1842384,0.0445976-0.2830162
	c0-0.5334415-0.4339733-0.9674149-0.9673691-0.9674149c-0.2080059,0-0.400404,0.0666084-0.558342,0.1787357
	c-0.3695889-0.3590832-0.7826633-0.667244-1.2282429-0.9081764c-0.5155201-0.279459-1.0660801-0.4694996-1.6361141-0.564743
	c-0.9668369-0.1637173-2.0065937-0.0422859-2.9053116,0.3388634c-0.4857292,0.2043591-1.258522,0.5873318-1.9196205,1.1671162
	c-0.1654072-0.1321926-0.3746586-0.2117958-0.6024055-0.2117958c-0.5334835,0-0.9674587,0.4339733-0.9674587,0.9674149
	c0,0.0683746,0.0090714,0.1343937,0.0227222,0.1987324l-15.041316,0.00387C2.8138845,20.7194328,1,22.5332947,1,24.7630329
	s1.8138845,4.043602,4.043601,4.043602l14.8467836-0.0038128c0.0641174,0.0771446,0.1303253,0.153347,0.1996899,0.2274914
	c-0.0175629,0.0727882-0.0278797,0.1483555-0.0278797,0.2264576c0,0.5334396,0.4339752,0.9674587,0.9674587,0.9674587
	c0.2027149,0,0.3908882-0.0629616,0.5465584-0.1699886c0.1649189,0.1477108,0.3333054,0.2883301,0.4870644,0.4163208
	l0.0980873,0.0817261c0.4431343,0.3723011,0.9338436,0.6685677,1.4583473,0.880619
	c0.6175232,0.2505569,1.2936497,0.3829727,1.9551926,0.3829727l0.0443764-0.0001774
	c0.8908005-0.0027561,1.7751102-0.238863,2.5568848-0.6826191c0.4706573-0.2649632,0.9056988-0.605629,1.2880478-1.0039196
	c0.1261024,0.0602951,0.266655,0.0950661,0.4154778,0.0950661c0.5333958,0,0.9673691-0.4340191,0.9673691-0.9674587
	c0-0.0937538-0.0148067-0.183794-0.0400181-0.269455l14.1493568-0.1002674c2.2297173,0,4.043602-1.8138618,4.043602-4.043602
	S47.1861153,20.7998466,44.956398,20.7998466z M21.8191204,19.9596443c0.6302853-0.5509148,1.3721752-0.9175129,1.8389187-1.1138802
	c0.8516731-0.3612728,1.8365612-0.4764805,2.7536869-0.3211212c0.5403328,0.0903072,1.0622559,0.2704773,1.5512772,0.535574
	c0.4203224,0.2272587,0.8105869,0.5172005,1.1601219,0.8553524c-0.1316147,0.1652756-0.2108936,0.3740349-0.2108936,0.6012611
	c0,0.31394,0.151001,0.5925884,0.3834171,0.7694359c-0.3708782,0.3922977-0.7941799,0.7279282-1.2539444,0.9867325
	c-0.7413998,0.4208565-1.5793781,0.6446915-2.4241142,0.6472702l-0.0426865,0.0001774
	c-0.6266823,0-1.2672386-0.1254787-1.8526573-0.3630085c-0.498003-0.201334-0.9640789-0.4827938-1.3854256-0.8367767
	l-0.098711-0.082304c-0.1638069-0.1363049-0.3446884-0.287384-0.5183659-0.4448109
	c0.1712322-0.174612,0.2772808-0.4134083,0.2772808-0.6767159C21.9970245,20.3093357,21.9307709,20.1173611,21.8191204,19.9596443z
	 M23.3706207,26.8711624l0.0104046,0.0130711l0.0195637,0.0179195c0.0227661,0.0153847,0.0493565,0.0235214,0.0769253,0.0235214
	l1.0012054-0.0000095c-0.3191662,0.068285-0.6308613,0.165062-0.9270401,0.2906742
	c-0.2573605,0.1082706-0.5954685,0.2664986-0.9548302,0.4774609c0.1724777-0.2455883,0.326992-0.504406,0.4348621-0.7713261
	c0.1452217-0.3577614,0.2490902-0.7348423,0.3121414-1.117115v0.9891014
	C23.3444748,26.8222504,23.3537235,26.8487511,23.3706207,26.8711624z M22.7944508,22.4794025
	c-0.0285473-0.0533123-0.0640736-0.1056252-0.1049824-0.1565704c0.295023,0.1934109,0.6061401,0.3567944,0.9302425,0.4878311
	c0.3027592,0.1228447,0.6197014,0.216877,0.9420242,0.2812386h-1.0851994l-0.0109386,0.0006676
	c-0.0174294,0.0020885-0.0339718,0.0073814-0.0554028,0.0191193l-0.0265007,0.0206318
	c-0.0240116,0.0235214-0.0384178,0.0558033-0.0398407,0.0927086v0.8803291
	C23.250967,23.5405483,23.0670166,22.988945,22.7944508,22.4794025z M23.52598,26.7435932l-0.0000896-3.4695644h3.8618317v3.4694748
	L23.52598,26.7435932z M27.4352093,26.9256306c0.0220547,0,0.0439301-0.0053349,0.063406-0.0154743l0.0269451-0.0181847
	c0.0292587-0.0261459,0.0454426-0.0633621,0.0442867-0.0994225v-1.0553436
	c0.0663853,0.4130306,0.1806602,0.8174572,0.3423767,1.1986961c0.0345936,0.082037,0.0648289,0.1706104,0.0968437,0.2643852
	c0.0271683,0.0796146,0.0559368,0.1622295,0.0884857,0.2445107c-0.0015125-0.0008221-0.0029354-0.0017662-0.0044479-0.0025787
	c-0.4405537-0.2388191-0.9068089-0.4117184-1.3888035-0.5165882H27.4352093z M27.5698471,24.0541363V23.225029
	c0-0.0734119-0.0608273-0.1331272-0.1355267-0.1331272h-0.8142796c0.510498-0.1025791,1.0060997-0.2822723,1.4680405-0.5329285
	c-0.2041359,0.4069824-0.4257469,0.9387226-0.514677,1.471529C27.5720711,24.0383511,27.5711365,24.0462875,27.5698471,24.0541363z
	 M5.043601,28.1130543c-1.8472774,0-3.3499994-1.5027428-3.3499994-3.3500214c0-1.8472767,1.502722-3.3500328,3.3499994-3.3500328
	l14.7917814-0.0714207c-0.3107624,0.3379078-0.5792389,0.7097874-0.7942696,1.1075439
	c-0.2795029,0.5155659-0.4695454,1.0660801-0.5646992,1.6360264c-0.1644287,0.9707928-0.0440197,2.0027256,0.3388195,2.9053097
	c0.1334381,0.3171425,0.3429985,0.7569084,0.6335754,1.2079563L5.043601,28.1130543z M21.544775,28.4393806
	c-0.1493568-0.0944881-0.3257027-0.1500244-0.5151215-0.1500244c-0.3219662,0-0.6054726,0.1596947-0.7812843,0.4023819
	l-0.2579842-0.1992779c-0.4461117-0.5734711-0.7506943-1.1975517-0.9234829-1.6083145
	c-0.3629189-0.8555412-0.4769268-1.8333607-0.3211231-2.7536869c0.0902634-0.5403328,0.2704334-1.062212,0.535532-1.5512772
	c0.2743893-0.5074844,0.6394424-0.9716377,1.0718594-1.3719521c0.174612,0.1710777,0.4132977,0.2770138,0.6764832,0.2770138
	c0.1643867,0,0.3191662-0.0414639,0.4548721-0.1141071c0.0964432,0.1091385,0.1916428,0.219677,0.2884865,0.3323383
	c0.201067,0.2337952,0.4088955,0.4755936,0.6528263,0.7327747c0.0534477,0.0562935,0.0963993,0.114542,0.1277924,0.1730576
	c0.3820381,0.7143211,0.5853291,1.5149937,0.5877304,2.316288c0.0057812,0.6408215-0.1196976,1.2961845-0.3628292,1.8953438
	c-0.1972446,0.4880867-0.5737705,0.9610558-0.9150791,1.3679943C21.7389069,28.2575417,21.6352596,28.3444481,21.544775,28.4393806z
	 M28.0417042,30.8952427c-0.7413998,0.4208565-1.5793781,0.6446915-2.4241142,0.6472702l-0.0426865,0.0001774
	c-0.6266823,0-1.2672386-0.1254787-1.8526573-0.3630085c-0.498003-0.201334-0.9640789-0.4827499-1.3854256-0.8367767
	l-0.098711-0.082304c-0.145443-0.1210442-0.3043137-0.2538261-0.4597187-0.3921986
	c0.136507-0.1668205,0.2186337-0.3797722,0.2186337-0.6116314c0-0.239397-0.0879078-0.4583302-0.2324619-0.6274281
	c0.0849724-0.0765457,0.1724777-0.1488342,0.261097-0.2185211l0.0133381-0.0070572l0.0086708-0.0103607
	c0.5740814-0.4468899,1.1990738-0.7523613,1.6103706-0.925396c0.8516731-0.3612728,1.8365612-0.4763927,2.7536869-0.3211212
	c0.5403328,0.0903072,1.0622559,0.2704773,1.5512772,0.535574c0.442688,0.2393532,0.8531399,0.5469131,1.2165031,0.9085884
	c-0.1651402,0.1736107-0.2672749,0.4077377-0.2672749,0.6657219c0,0.2849941,0.124588,0.5407982,0.3213444,0.7180119
	C28.8778591,30.3388805,28.4756775,30.6509438,28.0417042,30.8952427z M29.394804,28.4209499
	c-0.2373066-0.2388744-0.4940891-0.4555168-0.766613-0.6466484c-0.1871052-0.1542797-0.2753677-0.412508-0.3606071-0.6622753
	c-0.0321026-0.0940437-0.0653629-0.1913319-0.1036911-0.2824841c-0.3629189-0.8555412-0.4769249-1.8334045-0.3211212-2.7537308
	c0.098177-0.5875969,0.3716335-1.1831551,0.5886211-1.5863152c0.5639858-0.4934654,0.873415-0.7939129,1.0931587-1.0482712
	c0.0058689-0.0062923,0.0116043-0.0126724,0.0174751-0.0189877c0.1052914,0.0394077,0.2187653,0.062006,0.3376637,0.062006
	c0.2791023,0,0.5301933-0.1195202,0.7069397-0.3092289c0.3999577,0.3747807,0.7416687,0.8039627,1.0044975,1.2707729
	c0.4208126,0.7414455,0.6446476,1.5794678,0.6472263,2.4242058c0.0057793,0.6408215-0.1196976,1.2961845-0.3628311,1.8953438
	c-0.1932869,0.4781036-0.8937817,1.4253426-1.2572346,1.868063c-0.1775894-0.2100945-0.4426422-0.3440437-0.7385979-0.3440437
	C29.702898,28.2893562,29.5375786,28.337801,29.394804,28.4209499z M44.956398,28.1934681l-13.7184525,0.0879631
	c0.3535385-0.4753361,0.7459373-1.055254,0.8907585-1.4135609c0.2565613-0.632061,0.3888855-1.3237953,0.3828392-1.9995232
	c-0.002758-0.8908463-0.2388649-1.775156-0.6826191-2.5569744c-0.2101402-0.3732586-0.4418774-0.6502266-0.7383652-0.9697933
	l13.865839,0.1518459c1.8472786,0,3.3499985,1.5027447,3.3499985,3.3500214
	C48.3063965,26.6907253,46.8036766,28.1934681,44.956398,28.1934681z"/>
</svg>
