<?xml version="1.0" encoding="UTF-8"?>
<!DOCTYPE svg PUBLIC "-//W3C//DTD SVG 1.1//EN" "http://www.w3.org/Graphics/SVG/1.1/DTD/svg11.dtd">
<!-- Creator: CorelDRAW X7 -->
<svg xmlns="http://www.w3.org/2000/svg" xml:space="preserve" width="50px" height="50px" version="1.1" style="shape-rendering:geometricPrecision; text-rendering:geometricPrecision; image-rendering:optimizeQuality; fill-rule:evenodd; clip-rule:evenodd"
viewBox="0 0 742592 741191"
 xmlns:xlink="http://www.w3.org/1999/xlink">
 <defs>
  <style type="text/css">
   <![CDATA[
    .fil0 {fill:none}
    .fil1 {fill:black}
   ]]>
  </style>
 </defs>
 <g id="Layer_x0020_1">
  <metadata id="CorelCorpID_0Corel-Layer"/>
  <rect class="fil0" x="701" width="741195" height="741195"/>
  <path class="fil1" d="M700782 328794l-202050 0c13727,-11591 19417,-23462 18139,-33126 -1348,-10418 -10452,-16896 -23759,-16896 -12466,0 -27243,5270 -42983,15022 15355,-24862 17403,-44121 12921,-55029 -3152,-7599 -9437,-11976 -17334,-11976 -13219,0 -29887,12361 -44191,38956 630,-21255 -3082,-38431 -11171,-48954 -4692,-5970 -10663,-9314 -16913,-9314 -6216,0 -12186,3344 -16878,9419 -8089,10558 -11801,27699 -11171,48955 -14339,-26596 -30973,-38922 -44209,-38922 -7896,0 -14200,4377 -17351,11941 -4482,10943 -2434,30202 12939,55064 -15793,-9787 -30588,-15040 -42984,-15040 -13289,0 -22411,6479 -23777,16879 -1260,9559 4395,21378 17894,32898l-206093 105c-23042,0 -41811,18752 -41811,41793 0,23059 18769,41811 41811,41811l206338 158c-13691,11573 -19399,23444 -18139,33108 1366,10418 10488,16879 23777,16879l0 0c12466,0 27191,-5253 42984,-15005 -15373,24844 -17421,44121 -12939,55029 3151,7599 9455,11941 17351,11941l0 0c13236,0 29870,-12326 44209,-38921 -630,21255 3082,38413 11171,48954 4692,5900 10645,9209 16878,9209 6215,0 12203,-3327 16878,-9420 8089,-10540 11836,-27698 11188,-48936 14322,26578 30955,38922 44192,38922 7914,0 14199,-4378 17333,-11959 4500,-10925 2452,-30185 -12903,-55047 15810,9840 30570,15093 43036,15093 13289,0 22411,-6461 23776,-16896 1278,-9612 -4429,-21501 -18156,-33109l201997 17c23041,0 41810,-18751 41810,-41810 0,-23041 -18769,-41793 -41810,-41793zm-329302 94651l2031 35c28556,0 51755,-22341 52841,-50880 1068,-29116 -21746,-53733 -50863,-54819l-2031 -35c-28539,0 -51738,22341 -52823,50862 -1103,29135 21711,53734 50845,54837zm-6093 -75654l18349 945 4710 5043 7143 7616 -700 12273 -403 7021 -13114 12029 -16370 -630 -13359 -15321 437 -15722 18 -403 13289 -12851zm-12886 5883l367 -5831 5708 -52 -6075 5883zm17841 -10365l4167 -3730 4202 4150 -8369 -420zm20380 5970l5095 420 -88 4938 -5007 -5358zm3379 38169l-18 105 0 175 -315 5445 -5427 -193 -245 -17 6005 -5515zm-17946 9787l-3712 3204 -3082 -3449 6794 245zm-17649 -5393l-88 0 -6373 -245 -227 -7441 6688 7686zm-6531 4483l10821 402 6110 6846 -13114 5638 -3817 -12886zm19750 20607c-5218,-192 -10172,-1295 -14795,-3064l15268 -6548 14217 7774c-4658,1365 -9577,2031 -14690,1838zm4009 -13079l7354 -6338 9507 350 -4920 12537 -11941 -6549zm15898 9350l6146 -15653 16440 -4920c-4990,9192 -12956,16458 -22586,20573zm12606 -42021l-4744 4640 437 -7581 105 -1839 4202 4780zm-3816 -11503l490 -8789 12624 6355 -5743 10821 -7371 -8387zm6880 15128l5078 13446 -13832 4150 543 -9525 0 -53 8211 -8018zm12502 -2434c-193,5077 -1226,9910 -2907,14427l-5690 -15075 7038 -13219c1191,4395 1751,9052 1559,13867zm-3292 -18927l-15898 -8019 18 -70 -53 -17 -7021 -16494c10435,5043 18647,13867 22954,24600zm-21395 -8859l-9245 -473 -7249 -7756 10926 -4868 5568 13097zm-19873 -20293c4640,175 9105,1051 13289,2486l-13797 6163 -13183 -7108c4359,-1173 8946,-1716 13691,-1541zm-4587 11819l-7073 6845 -35 18 -9245 -245 6653 -11854 9700 5236zm-12991 -9052l-8702 15530 -17631 8772c5165,-11259 14689,-20048 26333,-24302zm-13009 41355l2556 -2696 -158 5567 -2398 -2871zm2188 10067l-332 11574 -12396 -6251 7161 -11713 5567 6390zm-5427 -14094l-6093 -9735 12378 -6145 -280 10085 -6005 5795zm-14252 4482c192,-4902 1138,-9595 2731,-13989l8282 13254 -9263 15127c-1313,-4570 -1943,-9402 -1750,-14392zm19627 26631l4692 15845c-9717,-5270 -17351,-13867 -21308,-24232l16616 8387zm-62331 -24880c0,-5463 508,-10803 1453,-16003 -7581,-1015 -14812,-1523 -21588,-1523 -31620,0 -43369,10768 -43369,17596 0,6811 11749,17649 43369,17649l0 0c6794,0 14025,-526 21623,-1541 -963,-5253 -1488,-10663 -1488,-16178zm5130 -29800c3677,-10277 9175,-19679 16108,-27821 -27891,-21500 -46135,-23514 -51913,-23514 -3729,0 -12484,718 -13376,7704 -1349,10470 13481,28872 49181,43631zm26211 -37923c8141,-6934 17543,-12449 27803,-16108 -14602,-35560 -32268,-49199 -42353,-49199 -3607,0 -6163,1803 -7634,5410 -4430,10785 1331,32776 22184,59897zm41547 -19802c5218,-946 10593,-1454 16091,-1454 5498,0 10890,508 16108,1471 4114,-30640 -543,-50442 -7564,-59582 -1873,-2433 -4867,-5340 -8544,-5340 -3642,0 -6671,2889 -8544,5340 -7004,9140 -11661,28924 -7547,59565zm45943 3694c10278,3659 19680,9192 27804,16125 20887,-27121 26700,-49129 22201,-59914 -1489,-3607 -4045,-5410 -7652,-5410 -10050,0 -27768,13656 -42353,49199zm37924 26228c6933,8141 12413,17543 16073,27803 35717,-14759 50582,-33161 49181,-43631 -893,-6933 -9630,-7704 -13359,-7704 -5778,0 -24039,2049 -51895,23532zm19767 41600c945,5183 1453,10540 1453,16003 0,5533 -508,10943 -1488,16195 7616,1016 14847,1524 21640,1524 25318,0 38607,-7301 42214,-13622 1523,-2679 1523,-5323 0,-8019 -3607,-6286 -16844,-13604 -42214,-13604 -6793,0 -14006,508 -21605,1523zm-3747 45978c-3677,10242 -9192,19627 -16125,27751 27908,21553 46222,23584 52000,23584 3729,0 12466,-700 13359,-7704 1366,-10470 -13499,-28889 -49234,-43631zm-26245 37818c-8142,6916 -17509,12414 -27752,16056 14603,35665 32304,49356 42406,49356 3607,0 6163,-1768 7652,-5375 4447,-10820 -1366,-32846 -22306,-60037zm-41478 19715c-5235,963 -10593,1471 -16073,1471 -5498,0 -10890,-508 -16091,-1454 -4149,30746 526,50618 7547,59775 1873,2433 4902,5322 8544,5322 3677,0 6688,-2889 8544,-5322 7021,-9157 11696,-29029 7529,-59792zm-45838 -3659c-10242,-3660 -19644,-9140 -27786,-16038 -20940,27191 -26771,49216 -22271,60019 1471,3607 4027,5375 7634,5375l0 0c10102,0 27821,-13674 42423,-49356zm-37888 -26123c-6934,-8124 -12449,-17491 -16126,-27751 -35770,14742 -50635,33161 -49251,43631 892,6934 9647,7704 13376,7704l0 0c5778,0 24074,-2049 52001,-23584zm-11363 -57726c0,4990 472,9875 1365,14620l35 192 35 193 35 175 35 193 35 192 53 193 17 122 18 53 35 192 35 193 35 175 52 193 35 192 35 193 53 175 35 193 53 192 35 175 52 193 35 175 53 192 35 193 52 175 35 193 53 175 52 192 35 193 53 175 0 53 52 140 35 175 53 192 52 175 53 193 52 175 53 193 52 175 18 52 17 140 53 176 35 87 18 105 52 175 53 193 52 140 18 35 52 192 53 176 52 175 53 192 52 175 53 175 35 123 35 70 52 175 53 175 70 193 52 175 53 175 70 193 53 175 70 175 52 192 53 158 17 17 53 175 70 176 52 175 70 192 53 175 70 175c3291,9262 8246,17737 14567,25055l193 228 52 52 245 298 263 280 245 280 263 298 192 210 53 70 262 280 263 280 263 280 262 281 193 210 70 52 262 280 263 281 263 262 262 280 193 193 87 70 263 280 280 263 263 262 280 263 193 193 87 70 263 262 280 263 280 262 280 263 193 175 87 88 280 245 298 262 280 246 280 262 193 158 105 87 280 245c7336,6286 15793,11223 25072,14498l176 70 175 52 175 70 192 53 175 70 35 17 141 35 175 53 175 70 192 52 175 70 175 53 176 52 175 53 192 70 175 53 88 35 87 17 193 53 175 52 158 53 17 17 193 53 175 52 175 53 193 52 175 53 175 52 140 53 52 0 175 52 175 53 193 52 175 53 193 52 175 35 192 53 175 53 176 52 192 35 18 18 157 35 193 52 175 53 193 35 175 52 192 35 193 53 175 52 192 35 176 53 70 17 122 18 175 35 193 52 192 35 176 53 192 35 175 35 193 52 192 35 175 35 141 35 52 0 193 36 105 35 70 17 192 35 193 35 193 35 175 35 192 35c4885,946 9753,1348 14532,1348 4955,0 9805,-472 14497,-1348l193 -35 193 -35 175 -35 192 -35 193 -35 193 -35 175 -35 87 -18 105 -35 193 -35 175 -35 193 -35 192 -52 175 -35 193 -35 192 -53 175 -35 193 -35 140 -35 53 -17 175 -35 192 -53 175 -35 193 -52 193 -35 175 -53 192 -52 175 -35 193 -53 175 -35 0 -17 193 -35 175 -53 192 -53 175 -52 193 -53 175 -35 193 -52 175 -53 192 -52 175 -53 53 0 123 -52 192 -53 175 -52 175 -53 193 -52 175 -53 193 -52 17 -18 158 -52 175 -53 192 -52 88 -18 87 -35 176 -52 175 -71 192 -52 175 -53 175 -52 175 -70 193 -53 350 -122 158 -35 17 -18 368 -122 175 -70 175 -53 175 -70c9262,-3257 17736,-8211 25073,-14480l297 -245 88 -87 192 -158 280 -262 298 -246 280 -262 280 -245 88 -70 193 -193 280 -263 280 -262 840 -788 280 -263 263 -262 280 -263 263 -280 70 -53 210 -210 263 -280 262 -262 280 -281 263 -280 52 -52 211 -210 262 -280 263 -281 245 -280 263 -280 52 -52 210 -228 245 -298 263 -280 245 -280 263 -298 35 -35 210 -245c6268,-7318 11258,-15775 14567,-25072l70 -175 53 -175 70 -193 52 -175 70 -175 53 -175 70 -175 52 -193 53 -175 70 -175 52 -193 70 -175 53 -175 52 -192 53 -175 70 -175 0 -35 52 -158 53 -175 53 -175 52 -193 53 -175 52 -175 53 -193 17 -35 53 -140 52 -192 18 -88 17 -87 35 -88 18 -105 52 -175 53 -193 52 -175 53 -192 52 -175 53 -193 35 -175 52 -193 53 -175 35 -122 17 -70 35 -175 53 -193 53 -193 35 -175 52 -192 35 -175 53 -193 52 -193 35 -175 53 -175 0 -17 35 -175 35 -193 52 -193 35 -175 53 -192 35 -193 35 -192 35 -176 52 -192 35 -193 18 -35 17 -140 35 -192 53 -193 35 -193 35 -175 35 -192 35 -193c998,-4867 1366,-9735 1366,-14637 0,-4937 -456,-9770 -1331,-14445l-35 -192 -35 -193 -35 -175 -35 -192 -35 -193 -53 -193 -35 -192 -17 -123 -18 -52 -35 -193 -35 -193 -52 -192 -35 -175 -35 -193 -53 -192 -35 -176 -35 -192 -52 -193 -35 -157 0 -18 -53 -192 -35 -193 -52 -175 -35 -193 -53 -192 -52 -175 -35 -193 -53 -175 -35 -193 -53 -192 0 -18 -52 -157 -53 -193 -35 -175 -52 -193 -53 -175 -52 -192 -53 -175 -52 -193 -53 -175 -52 -193 0 -52 -53 -123 -52 -192 -53 -175 -52 -175 -53 -193 -52 -175 -53 -193 -52 -175 -53 -175 -53 -192 -17 -36 -18 -70 -35 -70 -52 -175 -53 -192 -52 -175 -70 -175 -53 -193 -70 -175 -52 -175 -53 -193 -70 -175 -35 -140 -17 -35 -70 -175 -53 -175 -70 -193 -52 -175 -71 -175c-3291,-9279 -8229,-17789 -14532,-25125l-245 -297 -35 -35 -227 -246 -246 -280 -262 -297 -245 -280 -263 -281 -17 -35 -246 -245 -245 -280 -262 -280 -263 -280 -263 -280 -17 -18 -245 -262 -280 -281 -263 -262 -263 -280 -542 -543 -263 -263 -280 -262 -280 -280 -263 -263 -280 -263 -280 -262 -280 -263 -280 -245 -263 -245 -18 -18 -280 -262 -297 -245 -280 -263 -281 -245 -262 -228 -35 -35 -280 -245c-7372,-6268 -15828,-11258 -25125,-14550l-175 -70 -175 -52 -193 -70 -175 -53 -175 -70 -53 -17 -122 -35 -175 -70 -193 -53 -175 -52 -175 -70 -175 -53 -193 -70 -175 -53 -175 -52 -193 -53 -87 -35 -88 -35 -175 -52 -192 -53 -175 -52 -175 -53 -193 -52 -175 -53 -175 -52 -193 -53 -175 -52 -158 -53 -35 0 -175 -52 -175 -53 -192 -52 -175 -53 -193 -52 -175 -53 -193 -53 -175 -35 -192 -52 -175 -53 -18 0 -175 -52 -175 -35 -193 -53 -175 -35 -192 -52 -193 -53 -175 -35 -193 -52 -175 -35 -192 -53 -70 -17 -123 -18 -175 -52 -193 -35 -192 -35 -175 -53 -193 -35 -192 -35 -176 -52 -192 -36 -193 -35 -122 -35 -53 0 -192 -35 -193 -52 -193 -35 -192 -35 -175 -35 -193 -35 -192 -35c-4885,-928 -9718,-1348 -14533,-1348 -4972,0 -9839,472 -14549,1348l-193 35 -192 35 -176 35 -192 35 -193 35 -192 52 -175 35 -53 0 -140 35 -193 35 -175 36 -192 52 -193 35 -192 35 -176 53 -192 35 -193 35 -175 52 -105 18 -87 17 -176 53 -192 35 -193 52 -175 35 -192 53 -175 35 -193 52 -193 53 -175 35 -157 35 -35 17 -175 53 -193 52 -175 35 -193 53 -175 53 -192 52 -175 53 -193 52 -175 35 -193 53 -175 52 -175 53 -193 52 -175 53 -192 52 -175 53 -88 35 -87 35 -193 52 -175 53 -175 52 -70 18 -123 35 -175 52 -175 70 -192 53 -176 53 -175 70 -175 52 -192 53 -175 70 -176 52 -105 35 -70 18 -175 70 -192 52 -175 70 -175 53 -176 70c-9279,3274 -17788,8246 -25124,14567l-298 245 -280 263 -280 245 -298 263 -280 245 -560 507 -280 263 -281 263 -280 262 -262 228 -18 35 -280 263 -280 262 -263 263 -280 280 -245 228 -18 35 -280 280 -262 262 -263 280 -263 263 -227 245 -35 35 -263 280 -262 280 -263 281 -263 280 -210 227 -52 53 -245 280 -263 280 -245 298 -263 280 -192 228 -53 52 -245 298c-6303,7371 -11241,15828 -14515,25142l-70 175 -52 175 -70 193 -53 175 -70 175 -52 175 -53 175 -70 193 -53 175 -52 175 -70 193 -53 175 -52 175 -70 192 -53 175 -17 35 -35 141 -53 192 -52 175 -53 175 -70 193 -52 175 -53 193 -52 175 -53 175 -52 192 -35 88 -18 87 -53 193 -87 368 -53 175 -52 192 -53 175 -52 193 -140 490 0 53 -53 192 -35 193 -52 175 -53 193 -35 175 -52 192 -35 193 -53 175 -35 193 -52 175 0 17 -35 175 -53 193 -35 192 -35 176 -53 192 -35 193 -35 175 -52 192 -35 193 -35 193 -18 35 -17 140 -35 192 -53 193 -35 193 -35 192 -35 175 -35 193 -35 192c-980,4850 -1330,9700 -1330,14445zm189162 -31200l217195 0c17176,0 31165,13989 31165,31165 0,17193 -13989,31165 -31165,31165l-217072 0 -5445 -3081c27296,910 48499,-6286 55695,-18804 3466,-5971 3466,-12607 0,-18577 -7196,-12536 -28277,-19575 -55765,-18822 1873,-998 3659,-2013 5392,-3046zm-220363 62488l5463 -3099c-1453,70 -2889,-140 -4342,70 -37276,-70 -53909,-14200 -53909,-28189 0,-13989 16633,-28154 53909,-28154 1400,0 2889,0 4342,70l-5848 -3326 -221028 122c-17176,0 -31166,13990 -31166,31165 0,17194 13990,31166 31166,31166l221413 175z"/>
 </g>
</svg>
