<?xml version="1.0" encoding="UTF-8"?>
<!DOCTYPE svg PUBLIC "-//W3C//DTD SVG 1.1//EN" "http://www.w3.org/Graphics/SVG/1.1/DTD/svg11.dtd">
<!-- Creator: CorelDRAW X7 -->
<svg xmlns="http://www.w3.org/2000/svg" xml:space="preserve" width="50px" height="50px" version="1.1" style="shape-rendering:geometricPrecision; text-rendering:geometricPrecision; image-rendering:optimizeQuality; fill-rule:evenodd; clip-rule:evenodd"
viewBox="0 0 4651978 4651978"
 xmlns:xlink="http://www.w3.org/1999/xlink">
 <defs>
  <style type="text/css">
   <![CDATA[
    .fil0 {fill:none}
    .fil1 {fill:#030303}
   ]]>
  </style>
 </defs>
 <g id="Layer_x0020_1">
  <metadata id="CorelCorpID_0Corel-Layer"/>
  <rect class="fil0" x="5" y="-1" width="4652000" height="4652000"/>
  <g>
   <path class="fil1" d="M4259011 1932967l-987582 0 0 67363 987582 0c179560,0 325604,146044 325604,325714 0,179451 -146044,325494 -325604,325494l-987582 0 0 67473 987582 0c216703,0 392967,-176374 392967,-393077 0,-216703 -176264,-392967 -392967,-392967zm-2233516 845934c3516,-96483 -71979,-178022 -168352,-181648l-6813 -110c-94396,0 -171319,74066 -174835,168571 -3627,96484 71868,178022 168351,181649l6703 110c94506,0 171319,-73957 174946,-168572zm-21649 -769c-659,16813 -4066,32857 -9670,47802l-18791 -49890 23186 -43846c3956,14615 5934,30000 5275,45934zm-51538 -3846l-15715 15274 1429 -25055 330 -6153 13956 15934zm-12638 -38242l1649 -29011 41758 21099 -19011 35824 -24396 -27912zm22748 50110l16813 44615 -45824 13736 1868 -31648 0 -110 27143 -26593zm30549 -70659l-52637 -26594 0 -220 -110 -110 -23297 -54615c34506,16703 61758,45934 76044,81539zm-70879 -29341l-30659 -1649 -23956 -25604 36153 -16154 18462 43407zm2308 16923l-330 16264 -16593 -17693 16923 1429zm-56594 -19780l-27692 -1429 13736 -12308 13956 13737zm-11538 -64396c15384,550 30110,3407 43956,8242l-45715 20330 -43626 -23517c14506,-3846 29670,-5714 45385,-5055zm-15165 39121l-23407 22747 -110 0 -30659 -769 22088 -39231 32088 17253zm-40000 38681l-20110 19561 1209 -19341 18901 -220zm-3077 -68571l-28791 51319 -58352 29120c17143,-37362 48681,-66373 87143,-80439zm-42967 136923l8461 -8901 -549 18351 -7912 -9450zm7253 33297l-1099 38461 -41099 -20769 23736 -38791 18462 21099zm-18022 -46594l-20220 -32307 40989 -20330 -879 33406 -19890 19231zm-47253 14835c659,-16263 3846,-31868 9121,-46373l27362 43846 -30659 50110c-4286,-15055 -6373,-31099 -5824,-47583zm10000 60330l55055 27802 15494 52528c-32197,-17363 -57472,-45934 -70549,-80330zm72527 -86264l110 -1318 43956 -42638 60770 3187 15604 16594 23626 25274 -2307 40660 -1429 23186 -43406 39891 -54176 -2088 -44286 -50660 1538 -52088zm139121 87473l0 330 0 549 -1099 18132 -17912 -659 -879 -110 19890 -18242zm-59450 32417l-12198 10660 -10220 -11539 22418 879zm-58352 -17912l-330 0 -21098 -769 -770 -24615 22198 25384zm-21648 14945l35824 1319 20220 22637 -43407 18682 -12637 -42638zm65384 68242c-17252,-659 -33626,-4286 -49011,-10220l50550 -21648 47143 25714c-15385,4506 -31759,6814 -48682,6154zm13297 -43406l24286 -20989 31428 1208 -16263 41429 -39451 -21648zm52637 30989l20330 -51759 54396 -16373c-16484,30439 -42857,54505 -74726,68132zm1063847 -134506c3516,-96483 -71978,-178022 -168352,-181648l-6703 -110c-94506,0 -171319,74066 -174945,168571 -3627,96484 71868,178022 168351,181649l6704 110c94505,0 171318,-73957 174945,-168572zm-21649 -769c-659,16813 -4066,32857 -9670,47802l-18791 -49890 23296 -43846c3847,14615 5825,30000 5165,45934zm-51538 -3846l-15714 15274 1428 -25055 330 -6153 13956 15934zm-12638 -38242l1649 -29011 41758 21099 -19011 35824 -24396 -27912zm22748 50110l16813 44615 -45824 13736 1868 -31648 0 -110 27143 -26593zm30549 -70659l-52637 -26594 0 -220 -110 -110 -23297 -54615c34506,16703 61758,45934 76044,81539zm-70879 -29341l-30549 -1649 -24066 -25604 36153 -16154 18462 43407zm2308 16923l-220 16264 -16593 -17693 16813 1429zm-56594 -19780l-27692 -1429 13736 -12308 13956 13737zm-11538 -64396c15384,550 30220,3407 43956,8242l-45605 20330 -43736 -23517c14506,-3846 29671,-5714 45385,-5055zm-15165 39121l-23407 22747 -109 0 -30550 -769 21978 -39231 32088 17253zm-40000 38681l-20110 19561 1209 -19341 18901 -220zm-2967 -68571l-28901 51319 -58352 29120c17143,-37362 48682,-66373 87253,-80439zm-43077 136923l8462 -8901 -550 18351 -7912 -9450zm7253 33297l-1099 38461 -41099 -20769 23736 -38791 18462 21099zm-18022 -46594l-20110 -32307 40879 -20330 -879 33406 -19890 19231zm-47143 14835c549,-16263 3736,-31868 9011,-46373l27363 43846 -30660 50110c-4285,-15055 -6373,-31099 -5714,-47583zm9890 60330l55055 27802 15495 52528c-32198,-17363 -57363,-45934 -70550,-80330zm72528 -86264l109 -1318 43956 -42638 60770 3187 15604 16594 23626 25274 -2307 40660 -1319 23186 -43516 39891 -54176 -2088 -44286 -50660 1539 -52088zm139120 87473l0 330 0 549 -1098 18132 -17913 -659 -879 -110 19890 -18242zm-59340 32417l-12308 10660 -10220 -11539 22528 879zm-58462 -17912l-329 0 -21099 -769 -770 -24615 22198 25384zm-21648 14945l35824 1319 20220 22637 -43407 18682 -12637 -42638zm65494 68242c-17362,-659 -33736,-4286 -49121,-10220l50550 -21648 47143 25714c-15385,4506 -31758,6814 -48572,6154zm13187 -43406l24396 -20989 31428 1208 -16373 41429 -39451 -21648zm52638 30989l20329 -51759 54506 -16373c-16594,30439 -42967,54505 -74835,68132zm-359561 -134506c3517,-96483 -71978,-178022 -168352,-181648l-6703 -110c-94505,0 -171319,74066 -174945,168571 -3626,96484 71868,178022 168352,181649l6703 110c94506,0 171319,-73957 174945,-168572zm-21648 -769c-660,16813 -4066,32857 -9671,47802l-18791 -49890 23297 -43846c3846,14615 5824,30000 5165,45934zm-51539 -3846l-15714 15274 1429 -25055 329 -6153 13956 15934zm-12637 -38242l1648 -29011 41759 21099 -19011 35824 -24396 -27912zm22747 50110l16813 44615 -45824 13736 1868 -31648 0 -110 27143 -26593zm30550 -70659l-52638 -26594 0 -220 -110 -110 -23296 -54615c34505,16703 61758,45934 76044,81539zm-70879 -29341l-30550 -1649 -24066 -25604 36154 -16154 18462 43407zm2307 16923l-220 16264 -16593 -17693 16813 1429zm-56593 -19780l-27693 -1429 13737 -12308 13956 13737zm-11539 -64396c15385,550 30220,3407 43956,8242l-45604 20330 -43736 -23517c14505,-3846 29670,-5714 45384,-5055zm-15164 39121l-23407 22747 -110 0 -30549 -769 21978 -39231 32088 17253zm-40000 38681l-20110 19561 1208 -19341 18902 -220zm-2968 -68571l-28901 51319 -58351 29120c17143,-37362 48681,-66373 87252,-80439zm-43076 136923l8461 -8901 -549 18351 -7912 -9450zm7252 33297l-1099 38461 -41099 -20769 23737 -38791 18461 21099zm-18022 -46594l-20219 -32307 40989 -20330 -880 33406 -19890 19231zm-47143 14835c550,-16263 3737,-31868 9011,-46373l27363 43846 -30659 50110c-4286,-15055 -6374,-31099 -5715,-47583zm9891 60330l55055 27802 15494 52528c-32198,-17363 -57363,-45934 -70549,-80330zm72527 -86264l110 -1318 43956 -42638 60769 3187 15605 16594 23626 25274 -2308 40660 -1318 23186 -43517 39891 -54176 -2088 -44285 -50660 1538 -52088zm139121 87473l0 330 0 549 -1099 18132 -17912 -659 -879 -110 19890 -18242zm-59341 32417l-12307 10660 -10220 -11539 22527 879zm-58461 -17912l-330 0 -21099 -769 -769 -24615 22198 25384zm-21649 14945l35825 1319 20219 22637 -43406 18682 -12638 -42638zm65495 68242c-17363,-659 -33736,-4286 -49121,-10220l50549 -21648 47143 25714c-15384,4506 -31758,6814 -48571,6154zm13187 -43406l24395 -20989 31429 1208 -16374 41429 -39450 -21648zm52637 30989l20330 -51759 54505 -16373c-16593,30439 -42967,54505 -74835,68132zm-359450 -590550c3516,-96593 -71979,-178022 -168352,-181648l-6813 -110c-94396,0 -171319,73956 -174835,168461 -3627,96594 71868,178022 168351,181649l6703 110c94506,0 171319,-73956 174946,-168462zm-21649 -769c-659,16813 -4066,32857 -9670,47802l-18791 -50000 23186 -43736c3956,14615 5934,30000 5275,45934zm-51538 -3956l-15715 15384 1429 -25164 330 -6044 13956 15824zm-12638 -38132l1649 -29121 41758 21099 -19011 35824 -24396 -27802zm22748 50110l16813 44505 -45824 13737 1868 -31539 0 -110 27143 -26593zm30549 -70769l-52637 -26484 0 -330 -110 0 -23297 -54615c34506,16703 61758,45934 76044,81429zm-70879 -29341l-30659 -1538 -23956 -25715 36153 -16044 18462 43297zm2308 16923l-330 16374 -16593 -17693 16923 1319zm-56594 -19670l-27692 -1429 13736 -12417 13956 13846zm-11538 -64506c15384,660 30110,3517 43956,8242l-45715 20440 -43626 -23517c14506,-3846 29670,-5714 45385,-5165zm-15165 39231l-23407 22637 -110 110 -30659 -879 22088 -39231 32088 17363zm-40000 38681l-20110 19451 1209 -19341 18901 -110zm-3077 -68681l-28791 51429 -58352 29011c17143,-37253 48681,-66374 87143,-80440zm-42967 136923l8461 -8791 -549 18352 -7912 -9561zm7253 33407l-1099 38351 -41099 -20659 23736 -38901 18462 21209zm-18022 -46704l-20220 -32197 40989 -20440 -879 33407 -19890 19230zm-47253 14836c659,-16264 3846,-31759 9121,-46264l27362 43846 -30659 50110c-4286,-15165 -6373,-31099 -5824,-47692zm10000 60439l55055 27802 15494 52528c-32197,-17473 -57472,-45934 -70549,-80330zm72527 -86374l110 -1318 43956 -42528 60770 3077 15604 16704 23626 25274 -2307 40660 -1429 23186 -43406 39891 -54176 -2088 -44286 -50770 1538 -52088zm139121 87473l0 440 0 549 -1099 18022 -17912 -659 -879 0 19890 -18352zm-59450 32527l-12198 10550 -10220 -11429 22418 879zm-58352 -17912l-330 0 -21098 -879 -770 -24615 22198 25494zm-21648 14836l35824 1318 20220 22748 -43407 18681 -12637 -42747zm65384 68241c-17252,-659 -33626,-4175 -49011,-10110l50550 -21758 47143 25824c-15385,4506 -31759,6704 -48682,6044zm13297 -43296l24286 -21099 31428 1209 -16263 41538 -39451 -21648zm52637 30989l20330 -51868 54396 -16264c-16484,30329 -42857,54505 -74726,68132zm1063847 -134506c3516,-96593 -71978,-178022 -168352,-181648l-6703 -110c-94506,0 -171319,73956 -174945,168461 -3627,96594 71868,178022 168351,181649l6704 110c94505,0 171318,-73956 174945,-168462zm-21649 -769c-659,16813 -4066,32857 -9670,47802l-18791 -50000 23296 -43736c3847,14615 5825,30000 5165,45934zm-51538 -3956l-15714 15384 1428 -25164 330 -6044 13956 15824zm-12638 -38132l1649 -29121 41758 21099 -19011 35824 -24396 -27802zm22748 50110l16813 44505 -45824 13737 1868 -31539 0 -110 27143 -26593zm30549 -70769l-52637 -26484 0 -330 -110 0 -23297 -54615c34506,16703 61758,45934 76044,81429zm-70879 -29341l-30549 -1538 -24066 -25715 36153 -16044 18462 43297zm2308 16923l-220 16374 -16593 -17693 16813 1319zm-56594 -19670l-27692 -1429 13736 -12417 13956 13846zm-11538 -64506c15384,660 30220,3517 43956,8242l-45605 20440 -43736 -23517c14506,-3846 29671,-5714 45385,-5165zm-15165 39231l-23407 22637 -109 110 -30550 -879 21978 -39231 32088 17363zm-40000 38681l-20110 19451 1209 -19341 18901 -110zm-2967 -68681l-28901 51429 -58352 29011c17143,-37253 48682,-66374 87253,-80440zm-43077 136923l8462 -8791 -550 18352 -7912 -9561zm7253 33407l-1099 38351 -41099 -20659 23736 -38901 18462 21209zm-18022 -46704l-20110 -32197 40879 -20440 -879 33407 -19890 19230zm-47143 14836c549,-16264 3736,-31759 9011,-46264l27363 43846 -30660 50110c-4285,-15165 -6373,-31099 -5714,-47692zm9890 60439l55055 27802 15495 52528c-32198,-17473 -57363,-45934 -70550,-80330zm72528 -86374l109 -1318 43956 -42528 60770 3077 15604 16704 23626 25274 -2307 40660 -1319 23186 -43516 39891 -54176 -2088 -44286 -50770 1539 -52088zm139120 87473l0 440 0 549 -1098 18022 -17913 -659 -879 0 19890 -18352zm-59340 32527l-12308 10550 -10220 -11429 22528 879zm-58462 -17912l-329 0 -21099 -879 -770 -24615 22198 25494zm-21648 14836l35824 1318 20220 22748 -43407 18681 -12637 -42747zm65494 68241c-17362,-659 -33736,-4175 -49121,-10110l50550 -21758 47143 25824c-15385,4506 -31758,6704 -48572,6044zm13187 -43296l24396 -21099 31428 1209 -16373 41538 -39451 -21648zm52638 30989l20329 -51868 54506 -16264c-16594,30329 -42967,54505 -74835,68132zm-359561 -134506c3517,-96593 -71978,-178022 -168352,-181648l-6703 -110c-94505,0 -171319,73956 -174945,168461 -3626,96594 71868,178022 168352,181649l6703 110c94506,0 171319,-73956 174945,-168462zm-21648 -769c-660,16813 -4066,32857 -9671,47802l-18791 -50000 23297 -43736c3846,14615 5824,30000 5165,45934zm-51539 -3956l-15714 15384 1429 -25164 329 -6044 13956 15824zm-12637 -38132l1648 -29121 41759 21099 -19011 35824 -24396 -27802zm22747 50110l16813 44505 -45824 13737 1868 -31539 0 -110 27143 -26593zm30550 -70769l-52638 -26484 0 -330 -110 0 -23296 -54615c34505,16703 61758,45934 76044,81429zm-70879 -29341l-30550 -1538 -24066 -25715 36154 -16044 18462 43297zm2307 16923l-220 16374 -16593 -17693 16813 1319zm-56593 -19670l-27693 -1429 13737 -12417 13956 13846zm-11539 -64506c15385,660 30220,3517 43956,8242l-45604 20440 -43736 -23517c14505,-3846 29670,-5714 45384,-5165zm-15164 39231l-23407 22637 -110 110 -30549 -879 21978 -39231 32088 17363zm-40000 38681l-20110 19451 1208 -19341 18902 -110zm-2968 -68681l-28901 51429 -58351 29011c17143,-37253 48681,-66374 87252,-80440zm-43076 136923l8461 -8791 -549 18352 -7912 -9561zm7252 33407l-1099 38351 -41099 -20659 23737 -38901 18461 21209zm-18022 -46704l-20219 -32197 40989 -20440 -880 33407 -19890 19230zm-47143 14836c550,-16264 3737,-31759 9011,-46264l27363 43846 -30659 50110c-4286,-15165 -6374,-31099 -5715,-47692zm9891 60439l55055 27802 15494 52528c-32198,-17473 -57363,-45934 -70549,-80330zm72527 -86374l110 -1318 43956 -42528 60769 3077 15605 16704 23626 25274 -2308 40660 -1318 23186 -43517 39891 -54176 -2088 -44285 -50770 1538 -52088zm139121 87473l0 440 0 549 -1099 18022 -17912 -659 -879 0 19890 -18352zm-59341 32527l-12307 10550 -10220 -11429 22527 879zm-58461 -17912l-330 0 -21099 -879 -769 -24615 22198 25494zm-21649 14836l35825 1318 20219 22748 -43406 18681 -12638 -42747zm65495 68241c-17363,-659 -33736,-4175 -49121,-10110l50549 -21758 47143 25824c-15384,4506 -31758,6704 -48571,6044zm13187 -43296l24395 -21099 31429 1209 -16374 41538 -39450 -21648zm52637 30989l20330 -51868 54505 -16264c-16593,30329 -42967,54505 -74835,68132zm-351978 -590770c3517,-96483 -71978,-178022 -168462,-181648l-6703 -110c-94395,0 -171318,74066 -174835,168572 -3626,96483 71868,178022 168352,181648l6703 110c94505,0 171319,-73956 174945,-168572zm-21648 -769c-660,16813 -4066,32857 -9671,47802l-18901 -49890 23297 -43846c3956,14615 5824,30000 5275,45934zm-51539 -3846l-15714 15275 1429 -25055 329 -6154 13956 15934zm-12637 -38132l1648 -29121 41758 21099 -19011 35824 -24395 -27802zm22747 50000l16813 44616 -45824 13736 1758 -31649 110 -109 27143 -26594zm30440 -70659l-52528 -26594 0 -219 -220 0 -23186 -54726c34505,16704 61758,45934 75934,81539zm-70879 -29341l-30550 -1648 -23956 -25605 36154 -16153 18352 43406zm2417 16923l-330 16264 -16593 -17692 16923 1428zm-56593 -19780l-27802 -1429 13846 -12307 13956 13736zm-11539 -64396c15385,550 30110,3407 43956,8242l-45714 20330 -43626 -23517c14505,-3846 29670,-5604 45384,-5055zm-15165 39121l-23516 22748 0 0 -30659 -770 22088 -39230 32087 17252zm-40000 38682l-20109 19560 1208 -19341 18901 -219zm-3076 -68572l-28792 51319 -58351 29121c17143,-37363 48681,-66374 87143,-80440zm-42968 136923l8352 -8901 -549 18462 -7803 -9561zm7143 33297l-1099 38461 -40989 -20769 23737 -38791 18351 21099zm-17912 -46593l-20220 -32308 40989 -20330 -989 33407 -19780 19231zm-47253 14835c660,-16264 3847,-31759 9011,-46374l27473 43846 -30659 50110c-4286,-15055 -6484,-31099 -5825,-47582zm10000 60439l55055 27693 15495 52527c-32198,-17363 -57473,-45934 -70550,-80220zm72528 -86373l0 -1319 44066 -42637 60659 3186 15715 16594 23626 25275 -2418 40659 -1318 23297 -43407 39780 -54286 -1978 -44175 -50769 1538 -52088zm139121 87472l0 330 0 549 -1099 18132 -18022 -659 -769 -110 19890 -18242zm-59451 32418l-12198 10659 -10219 -11538 22417 879zm-58461 -17912l-220 0 -21099 -770 -769 -24615 22088 25385zm-21539 14945l35824 1318 20220 22638 -43516 18681 -12528 -42637zm65385 68241c-17253,-659 -33736,-4285 -49011,-10219l50549 -21649 47143 25715c-15494,4505 -31758,6813 -48681,6153zm13187 -43406l24395 -20989 31429 1209 -16264 41428 -39560 -21648zm52747 30989l20330 -51758 54395 -16374c-16483,30440 -42857,54506 -74725,68132zm1063846 -134506c3517,-96483 -71978,-178022 -168352,-181648l-6813 -110c-94395,0 -171318,74066 -174835,168572 -3626,96483 71868,178022 168352,181648l6703 110c94506,0 171319,-73956 174945,-168572zm-21648 -769c-660,16813 -4066,32857 -9671,47802l-18901 -49890 23297 -43846c3956,14615 5824,30000 5275,45934zm-51539 -3846l-15714 15275 1429 -25055 329 -6154 13956 15934zm-12637 -38132l1648 -29121 41759 21099 -19011 35824 -24396 -27802zm22747 50000l16813 44616 -45824 13736 1868 -31649 0 -109 27143 -26594zm30550 -70659l-52638 -26594 0 -219 -110 0 -23296 -54726c34505,16704 61758,45934 76044,81539zm-70879 -29341l-30660 -1648 -23956 -25605 36154 -16153 18462 43406zm2307 16923l-329 16264 -16594 -17692 16923 1428zm-56593 -19780l-27802 -1429 13846 -12307 13956 13736zm-11539 -64396c15385,550 30110,3407 43956,8242l-45714 20330 -43626 -23517c14505,-3846 29670,-5604 45384,-5055zm-15164 39121l-23407 22748 -110 0 -30659 -770 22088 -39230 32088 17252zm-40000 38682l-20110 19560 1208 -19341 18902 -219zm-3077 -68572l-28792 51319 -58351 29121c17143,-37363 48681,-66374 87143,-80440zm-42967 136923l8351 -8901 -549 18462 -7802 -9561zm7142 33297l-989 38461 -41098 -20769 23736 -38791 18351 21099zm-17912 -46593l-20219 -32308 40989 -20330 -989 33407 -19781 19231zm-47252 14835c659,-16264 3846,-31759 9120,-46374l27363 43846 -30659 50110c-4286,-15055 -6374,-31099 -5824,-47582zm10000 60439l55055 27693 15494 52527c-32198,-17363 -57472,-45934 -70549,-80220zm72527 -86373l0 -1319 44066 -42637 60769 3186 15605 16594 23626 25275 -2308 40659 -1428 23297 -43407 39780 -54176 -1978 -44285 -50769 1538 -52088zm139121 87472l0 330 0 549 -1099 18132 -17912 -659 -879 -110 19890 -18242zm-59451 32418l-12197 10659 -10220 -11538 22417 879zm-58351 -17912l-330 0 -21099 -770 -769 -24615 22198 25385zm-21649 14945l35825 1318 20219 22638 -43406 18681 -12638 -42637zm65385 68241c-17253,-659 -33736,-4285 -49011,-10219l50549 -21649 47143 25715c-15494,4505 -31758,6813 -48681,6153zm13297 -43406l24285 -20989 31429 1209 -16264 41428 -39450 -21648zm52637 30989l20330 -51758 54395 -16374c-16483,30440 -42857,54506 -74725,68132zm-359560 -134506c3516,-96483 -71978,-178022 -168462,-181648l-6703 -110c-94396,0 -171319,74066 -174835,168572 -3627,96483 71868,178022 168351,181648l6704 110c94505,0 171318,-73956 174945,-168572zm-21649 -769c-659,16813 -4066,32857 -9670,47802l-18901 -49890 23297 -43846c3956,14615 5824,30000 5274,45934zm-51538 -3846l-15714 15275 1428 -25055 330 -6154 13956 15934zm-12638 -38132l1649 -29121 41758 21099 -19011 35824 -24396 -27802zm22748 50000l16813 44616 -45824 13736 1868 -31649 0 -109 27143 -26594zm30549 -70659l-52637 -26594 0 -219 -110 0 -23297 -54726c34506,16704 61758,45934 76044,81539zm-70879 -29341l-30659 -1648 -23956 -25605 36154 -16153 18461 43406zm2308 16923l-330 16264 -16593 -17692 16923 1428zm-56594 -19780l-27802 -1429 13846 -12307 13956 13736zm-11538 -64396c15384,550 30110,3407 43956,8242l-45714 20330 -43627 -23517c14506,-3846 29671,-5604 45385,-5055zm-15165 39121l-23407 22748 -109 0 -30660 -770 22088 -39230 32088 17252zm-40000 38682l-20110 19560 1209 -19341 18901 -219zm-3077 -68572l-28791 51319 -58352 29121c17143,-37363 48682,-66374 87143,-80440zm-42967 136923l8352 -8901 -550 18462 -7802 -9561zm7143 33297l-989 38461 -41099 -20769 23736 -38791 18352 21099zm-17912 -46593l-20220 -32308 40989 -20330 -989 33407 -19780 19231zm-47253 14835c659,-16264 3846,-31759 9121,-46374l27363 43846 -30660 50110c-4285,-15055 -6373,-31099 -5824,-47582zm10000 60439l55055 27693 15495 52527c-32198,-17363 -57473,-45934 -70550,-80220zm72528 -86373l0 -1319 44066 -42637 60769 3186 15604 16594 23627 25275 -2308 40659 -1429 23297 -43406 39780 -54286 -1978 -44176 -50769 1539 -52088zm139120 87472l0 330 0 549 -1098 18132 -17913 -659 -879 -110 19890 -18242zm-59450 32418l-12198 10659 -10220 -11538 22418 879zm-58352 -17912l-329 0 -21099 -770 -770 -24615 22198 25385zm-21648 14945l35824 1318 20220 22638 -43407 18681 -12637 -42637zm65385 68241c-17253,-659 -33737,-4285 -49011,-10219l50549 -21649 47143 25715c-15495,4505 -31758,6813 -48681,6153zm13296 -43406l24286 -20989 31429 1209 -16264 41428 -39451 -21648zm52638 30989l20329 -51758 54396 -16374c-16484,30440 -42857,54506 -74725,68132zm-680989 -456594l1229230 0c45825,0 87693,18902 117912,49121l0 110c30110,30220 49011,72088 49011,117802l0 221429 0 20659 0 46704 0 651208 0 28022 0 39451 0 221538c0,45715 -18901,87583 -49011,117803l0 110c-30219,30219 -72087,49120 -117912,49120l-1229230 0c-45825,0 -87693,-18901 -117913,-49120l0 -110c-30109,-30220 -49011,-72088 -49011,-117803l0 -221538 0 -67473 0 -651208 0 -67363 0 -221429c0,-45714 18902,-87582 49011,-117802l0 -110c30220,-30219 72088,-49121 117913,-49121zm1229230 74506l-1229230 0c-25385,0 -48682,10440 -65385,27143l-110 -110c-16374,16483 -26923,40110 -26923,65494l0 221429 0 255165 0 342198 0 121208 0 289011c0,25385 10549,48902 26923,65385l110 0c16703,16703 40000,27143 65385,27143l1229230 0c25385,0 48682,-10440 65385,-27143l110 0c16373,-16483 26923,-40000 26923,-65385l0 -1229011c0,-25384 -10550,-49011 -26923,-65494l-110 110c-16703,-16703 -40000,-27143 -65385,-27143zm-1396154 1032527l-1151538 0c-179560,0 -325604,-146043 -325604,-325604 0,-179560 146044,-325604 325604,-325604l1151538 0 0 651208zm1563077 -651208l163847 0 0 -67363 -163847 0 0 67363zm-1563077 -67363l-1151538 0c-216703,0 -392967,176264 -392967,392967 0,216703 176264,393077 392967,393077l1151538 0 0 -786044zm1563077 786044l163847 0 0 -67473 -163847 0 0 67473z"/>
  </g>
 </g>
</svg>
