<?xml version="1.0" encoding="UTF-8"?>
<!DOCTYPE svg PUBLIC "-//W3C//DTD SVG 1.1//EN" "http://www.w3.org/Graphics/SVG/1.1/DTD/svg11.dtd">
<!-- Creator: CorelDRAW X7 -->
<svg xmlns="http://www.w3.org/2000/svg" xml:space="preserve" width="50px" height="50px" version="1.1" style="shape-rendering:geometricPrecision; text-rendering:geometricPrecision; image-rendering:optimizeQuality; fill-rule:evenodd; clip-rule:evenodd"
viewBox="0 0 5207134 5207011"
 xmlns:xlink="http://www.w3.org/1999/xlink">
 <defs>
  <style type="text/css">
   <![CDATA[
    .fil0 {fill:none}
    .fil5 {fill:black}
    .fil2 {fill:black}
    .fil1 {fill:#030303}
    .fil3 {fill:white}
    .fil4 {fill:black;fill-rule:nonzero}
   ]]>
  </style>
 </defs>
 <g id="Layer_x0020_1">
  <metadata id="CorelCorpID_0Corel-Layer"/>
  <rect class="fil0" x="78" y="26" width="5207035" height="5207035"/>
  <path class="fil1" d="M4767282 2163592l-1105535 0 0 75399 1105535 0c200984,0 364452,163469 364452,364576 0,200861 -163468,364330 -364452,364330l-1105535 0 0 75522 1105535 0c242558,0 439729,-197417 439729,-439975 0,-242558 -197294,-439852 -439729,-439852zm-1105535 0l-3221895 0c-242558,0 -439852,197294 -439852,439852 0,242558 197417,439975 439852,439975l3221895 0 0 -75522 -3221895 0c-200984,0 -364452,-163469 -364452,-364453 0,-200984 163468,-364453 364452,-364453l3221895 0 0 -75399z"/>
  <circle class="fil2" cx="2929766" cy="1790406" r="273801"/>
  <path id="_1" class="fil3" d="M2978475 1568635c-122386,-26815 -243420,50553 -270234,173185 -26937,122387 50431,243297 172940,270234 122386,26937 243296,-50430 270234,-173063 27183,-122263 -50431,-243296 -172940,-270356l0 0z"/>
  <circle class="fil2" cx="2483272" cy="1736285" r="273801"/>
  <circle class="fil2" cx="3284994" cy="2054859" r="273801"/>
  <path id="_1_0" class="fil3" d="M3437269 1884133c-93481,-83272 -237023,-74785 -320418,18696 -198524,222755 140345,524969 338992,301968 83394,-93604 75153,-237023 -18574,-320541l0 -123z"/>
  <circle class="fil2" cx="3470357" cy="2469988" r="273801"/>
  <path id="_1_1" class="fil3" d="M3685978 2398770c-39238,-118942 -167405,-183641 -286593,-144403 -119065,38991 -183764,167281 -144649,286469 39237,119189 167404,183887 286592,144650 119066,-39115 183764,-167528 144650,-286593l0 -123z"/>
  <path class="fil2" d="M2065068 1639606c151291,0 273800,122510 273800,273801 0,151292 -122509,273801 -273800,273801 -151292,0 -273801,-122509 -273801,-273801 0,-151291 122509,-273801 273801,-273801zm-167036 120173c-84994,92128 -78844,235793 13407,320541 92128,84994 235793,78967 320664,-13284 84994,-92251 78844,-235671 -13407,-320665 -92251,-84993 -235793,-78966 -320664,13408z"/>
  <circle class="fil2" cx="1791882" cy="2275769" r="273801"/>
  <circle class="fil2" cx="3420910" cy="2922386" r="273801"/>
  <path id="_1_2" class="fil3" d="M1570357 2226322c-27430,122140 49569,243666 171955,270849 122510,27429 243789,-49570 271095,-171833 27429,-122386 -49569,-243665 -171956,-271094 -122509,-27307 -243788,49692 -271094,172078l0 0z"/>
  <path id="_1_3" class="fil3" d="M3643050 2969004c25954,-122633 -52767,-242928 -175399,-268635 -122633,-25953 -242928,52522 -268881,175277 -25830,122755 52768,243050 175523,268757 122509,25954 242804,-52644 268757,-175399z"/>
  <circle class="fil2" cx="3151538" cy="3288684" r="273801"/>
  <path id="_1_4" class="fil3" d="M3320418 3440344c83764,-93112 76138,-236531 -17220,-320418 -93112,-83887 -236531,-76138 -320295,17097 -84010,93235 -76261,236532 16974,320419 93112,84009 236531,76137 320541,-17098l0 0z"/>
  <circle class="fil2" cx="2733333" cy="3470972" r="273801"/>
  <path id="_1_5" class="fil3" d="M2803075 3686962c119311,-38500 184748,-166421 146248,-285732 -38253,-119311 -166174,-184871 -285608,-146371 -119435,38376 -184748,166297 -146372,285608 38500,119312 166421,184871 285732,146495l0 0z"/>
  <circle class="fil2" cx="2285855" cy="3420541" r="273801"/>
  <path id="_1_6" class="fil3" d="M2239114 3642681c122633,25954 243051,-52767 268758,-175522 25953,-122510 -52398,-242805 -175154,-268758 -122632,-25953 -243173,52768 -268880,175277 -25954,122755 52521,243050 175276,269003z"/>
  <circle class="fil2" cx="1917589" cy="3148462" r="273801"/>
  <path id="_1_7" class="fil3" d="M1765068 3316605c92866,84133 236408,77245 320664,-15867 84133,-92743 77122,-236285 -15744,-320541 -92866,-84133 -236409,-77245 -320542,15744 -84255,92866 -77244,236408 15622,320664l0 0z"/>
  <circle class="fil2" cx="1736777" cy="2727798" r="273801"/>
  <path id="_1_8" class="fil3" d="M1520418 2796310c37516,119557 165191,185609 284625,147847 119680,-37515 185732,-164944 148217,-284624 -37762,-119681 -165191,-185855 -284871,-148094 -119558,37638 -185855,165191 -148094,284871l123 0z"/>
  <path id="_1_9" class="fil3" d="M2415375 1519557c-119557,37270 -186101,164699 -148708,284379 37269,119680 164575,186224 284256,148832 119557,-37270 186223,-164576 148954,-284256 -37392,-119681 -164699,-186224 -284502,-148955l0 0z"/>
  <path class="fil4" d="M3341820 2603567l-137146 0 0 0 -738 -31119 -2460 -30259 -3813 -30258 -5412 -29643 -6642 -28782 -8118 -28537 -9348 -28044 -10824 -27429 -11932 -26692 -13284 -25707 -14391 -25215 -15744 -24354 -16605 -23617 -17958 -22509 -18943 -21894 -19926 -20910 -20910 -19926 -21894 -18943 -22509 -17835 -23617 -16728 -24354 -15744 -25215 -14391 -25707 -13284 -26692 -11809 -27306 -10947 -28167 -9348 -28536 -8118 -28783 -6642 -29643 -5412 -30135 -3813 -30382 -2460 -31119 -615 0 -137146 38007 984 37393 2706 36900 4920 36163 6273 36039 8241 35055 10086 34195 11685 33579 13038 32718 14760 31981 16237 30873 17958 29889 19065 28905 20541 28045 22140 26691 23125 25461 24477 24601 25461 23124 26814 22017 28045 20664 28905 18942 29766 18082 30997 16236 31980 14637 32718 13161 33579 11685 34195 10086 34932 8241 36040 6273 36162 4920 36900 2706 37516 984 37884 0 0 0 0zm-738253 738130l0 -137146 0 0 31119 -738 30382 -2337 30135 -3936 29643 -5289 28783 -6642 28536 -8118 28167 -9471 27306 -10824 26692 -11809 25707 -13284 25215 -14391 24354 -15744 23617 -16728 22509 -17835 21894 -18943 20910 -19926 19926 -20910 18943 -21894 17958 -22509 16605 -23740 15744 -24231 14391 -25215 13284 -25707 11932 -26569 10824 -27429 9348 -28044 8118 -28536 6642 -28906 5412 -29643 3813 -30135 2460 -30259 738 -31119 137146 0 -984 38007 -2706 37393 -4920 36900 -6396 36163 -8241 36039 -9963 35055 -11685 34195 -13161 33579 -14760 32718 -16236 31858 -17959 30996 -19065 29766 -20541 28905 -22017 28045 -23248 26814 -24477 25461 -25461 24478 -26814 23247 -28045 22017 -28782 20541 -29889 19065 -30996 17959 -31981 16236 -32718 14760 -33579 13161 -34195 11562 -34932 10086 -36039 8241 -36163 6396 -36900 4797 -37516 2829 -37884 861 0 0 0 -123zm-738130 -738130l137146 0 0 0 615 31119 2460 30259 3936 30135 5289 29766 6642 28783 8118 28536 9471 28044 10824 27429 11809 26569 13284 25830 14391 25092 15744 24354 16728 23617 17835 22509 18943 21894 19926 20910 20910 19926 21894 18943 22509 17835 23740 16728 24231 15744 25215 14391 25830 13284 26569 11809 27306 10947 28167 9348 28537 8118 28782 6642 29643 5289 30135 3936 30382 2460 31119 615 0 137146 -38007 -861 -37393 -2829 -37023 -4797 -36162 -6396 -36040 -8241 -34932 -10086 -34195 -11685 -33579 -13038 -32718 -14760 -31980 -16236 -30874 -17959 -29889 -19065 -28905 -20541 -28045 -22140 -26691 -23125 -25461 -24477 -24600 -25461 -23125 -26814 -22017 -28045 -20664 -28905 -18942 -29766 -18081 -30996 -16237 -31858 -14637 -32718 -13161 -33579 -11685 -34195 -10086 -35055 -8241 -36039 -6273 -36163 -4920 -36900 -2706 -37516 -984 -37884 0 0 123 123zm738130 -738253l0 137269 0 0 -31119 615 -30259 2337 -30135 3936 -29766 5412 -28782 6519 -28537 8241 -28044 9348 -27429 10824 -26569 11809 -25830 13284 -25092 14514 -24354 15621 -23617 16728 -22509 17835 -21894 19066 -20910 19926 -19926 20910 -19066 21894 -17835 22509 -16728 23617 -15621 24354 -14514 25092 -13284 25830 -11809 26569 -10824 27429 -9348 28044 -8118 28537 -6642 28905 -5412 29643 -3936 30135 -2337 30259 -738 31242 -137146 0 984 -38007 2706 -37393 4920 -37023 6273 -36162 8241 -35917 10086 -35055 11685 -34195 13161 -33456 14760 -32841 16237 -31857 17958 -30997 18942 -29889 20664 -28782 22017 -28045 23248 -26814 24477 -25461 25461 -24477 26814 -23248 28045 -22017 28782 -20664 29889 -18942 30874 -17958 31980 -16237 32718 -14760 33579 -13161 34195 -11685 35055 -9963 35917 -8241 36162 -6396 37023 -4797 37393 -2829 38007 -984 0 0 -123 0z"/>
  <path id="_1_10" class="fil3" d="M2603567 1933948c369865,0 669619,299754 669619,669619 0,369865 -299754,669619 -669619,669619 -369865,0 -669619,-299754 -669619,-669619 0,-369865 299754,-669619 669619,-669619z"/>
  <path class="fil4" d="M2404797 1760640l-46371 14637 0 0 -1722 -6396 -1476 -6396 -1230 -6642 -861 -6643 -492 -6519 -123 -6396 123 -6273 492 -6396 861 -6273 984 -6150 1230 -6150 1599 -6273 2091 -5904 2337 -6150 2583 -5781 2583 -5412 3198 -5658 3321 -5412 3567 -5043 3567 -4797 4059 -5167 4551 -4674 4059 -4059 5043 -4551 5043 -4059 5289 -3936 5289 -3198 5658 -3444 6027 -3075 5781 -2706 6396 -2460 6150 -2091 14515 46249 -4182 1476 -3690 1476 -3937 1722 -3690 1845 -3444 2091 -3567 2214 -3075 2337 -3075 2460 -2829 2583 -3075 3075 -2583 2706 -2460 2952 -2583 3321 -2337 3444 -2091 3321 -1722 3198 -1968 3936 -1599 3321 -1353 3567 -1107 3813 -861 3813 -984 3936 -738 3936 -492 3936 -123 4059 -123 4059 123 4059 123 4182 492 3813 738 4060 1107 4182 1107 4059 0 0 -123 246zm102952 53997l14637 46249 0 0 -6519 1845 -6150 1476 -7011 1230 -6642 861 -6273 492 -6519 123 -6273 -123 -6396 -492 -6273 -861 -6273 -984 -6519 -1476 -5782 -1722 -5781 -1722 -6027 -2337 -5658 -2460 -6027 -2829 -5289 -3199 -5289 -3198 -4920 -3444 -5043 -3690 -5289 -4182 -4674 -4551 -4059 -4428 -4182 -4305 -4059 -5043 -4182 -5658 -3321 -5412 -3198 -5289 -2952 -5904 -2952 -5904 -2460 -6396 -2091 -6150 46371 -14637 1353 4182 1476 3813 1599 3690 1968 3567 2214 3813 2337 3690 1968 2706 2337 2829 2952 3321 3075 3198 2829 2583 2583 2214 3321 2460 3444 2460 3198 1845 3813 2214 3075 1599 3691 1476 3690 1599 3936 1107 4059 1107 3321 861 3936 615 4059 492 4059 246 4059 123 4182 -123 4059 -246 4059 -492 3690 -615 4182 -1107 4182 -1230 0 0 369 123zm53998 -102952l46371 -14637 0 0 1722 6519 1476 6150 1353 7011 738 6642 492 6273 123 6519 -123 6396 -492 6273 -738 6274 -984 6273 -1476 6642 -1845 5658 -1722 5781 -2214 6027 -2460 5658 -2952 6027 -3075 5412 -3321 5166 -3321 5043 -3813 5043 -4182 5166 -4551 4674 -4305 4059 -4428 4182 -5043 4059 -5658 4182 -5289 3321 -5413 3199 -5781 2952 -6027 2952 -6396 2460 -6150 2091 -14514 -46249 4182 -1599 3690 -1476 3813 -1599 3567 -1845 3690 -2337 3690 -2214 2829 -1968 2706 -2460 3444 -2829 3075 -3198 2583 -2706 2337 -2583 2337 -3444 2461 -3321 1968 -3321 2091 -3690 1599 -3075 1476 -3813 1599 -3690 1107 -3936 1230 -3936 738 -3444 738 -3937 492 -4059 123 -4059 123 -4059 -123 -4182 -123 -4059 -492 -4059 -738 -3690 -1107 -4182 -1107 -4182 0 0 0 -246zm-102952 -53997l-14638 -46372 0 0 6397 -1722 6519 -1476 6642 -1230 6642 -861 6396 -492 6396 -246 6273 246 6396 492 6273 861 6150 984 6519 1353 5781 1599 6027 2091 6150 2337 5412 2337 6150 2952 5166 2952 5167 3198 5412 3690 4674 3567 5166 4059 4920 4674 4059 4428 4059 4183 4182 5289 4182 5658 3321 5289 3198 5412 2952 5781 2952 6027 2460 6273 2091 6150 -46248 14637 -1476 -4182 -1599 -3813 -1599 -3690 -1845 -3567 -2337 -3813 -2214 -3690 -1969 -2706 -2583 -2952 -2706 -3198 -3198 -3075 -2583 -2460 -2829 -2460 -3444 -2583 -3075 -2091 -3567 -2214 -3567 -2091 -3321 -1599 -3690 -1599 -3567 -1353 -3813 -984 -4182 -1353 -3567 -861 -3936 -615 -4059 -492 -3936 -123 -4059 -246 -4059 246 -4182 123 -3813 492 -4059 615 -4182 1107 -4059 1230 0 0 -123 -123z"/>
  <path id="_1_11" class="fil3" d="M2451538 1634440c-56212,17590 -87454,77368 -69865,133457 17466,56088 77122,87454 133456,69864 56089,-17466 87331,-77121 69865,-133333 -17589,-56089 -77368,-87454 -133456,-69988z"/>
  <path class="fil4" d="M2851538 1814760l-46495 14637 0 0 -1722 -6396 -1476 -6519 -1230 -6642 -861 -6642 -492 -6396 -123 -6396 123 -6273 492 -6396 861 -6273 984 -6150 1230 -6150 1599 -6273 2091 -6028 2337 -6150 2583 -5658 2583 -5535 3075 -5535 3444 -5535 3567 -5043 3567 -4674 4059 -5166 4551 -4797 4059 -3936 5043 -4674 5044 -4059 5289 -3813 5166 -3321 5781 -3321 5904 -3075 5904 -2829 6273 -2460 6273 -2091 14514 46371 -4182 1476 -3690 1476 -3936 1722 -3690 1722 -3444 2214 -3567 2214 -3075 2337 -3075 2460 -2829 2583 -3075 3075 -2583 2706 -2460 2952 -2583 3321 -2214 3444 -2214 3198 -1722 3322 -1968 3936 -1599 3321 -1353 3567 -1107 3813 -984 3813 -985 3936 -615 3813 -492 4059 -123 4059 -123 4059 123 4059 123 4182 492 3813 615 4059 1231 4182 1107 4059 0 0 0 246zm102952 53998l14514 46371 0 0 -6396 1722 -6273 1476 -6889 1353 -6642 738 -6396 492 -6396 123 -6396 -123 -6273 -492 -6396 -738 -6150 -984 -6642 -1476 -5658 -1845 -5781 -1722 -6027 -2337 -5781 -2337 -5904 -2952 -5412 -3075 -5166 -3198 -5043 -3444 -5044 -3813 -5166 -4182 -4674 -4551 -4059 -4305 -4182 -4428 -4059 -5043 -4182 -5658 -3321 -5289 -3321 -5412 -2829 -5782 -2952 -6027 -2460 -6273 -2091 -6150 46372 -14637 1476 4182 1476 3813 1599 3690 1845 3567 2337 3690 2337 3813 1845 2706 2460 2829 2952 3321 2952 3075 2829 2584 2583 2337 3444 2460 3321 2460 3321 1968 3690 1968 3075 1722 3813 1353 3690 1599 3936 1230 4059 1107 3321 861 3936 615 4059 492 4059 123 3936 246 4305 -246 4059 -123 3936 -492 3813 -615 4183 -1230 4182 -1107 0 0 246 0zm53874 -102952l46495 -14637 0 0 1722 6519 1476 6150 1230 7011 861 6642 492 6273 123 6519 -123 6273 -492 6396 -861 6273 -861 6273 -1476 6642 -1722 5658 -1845 5781 -2214 6027 -2461 5658 -2952 6028 -3075 5289 -3321 5289 -3321 5043 -3813 4920 -4182 5289 -4551 4674 -4305 4059 -4428 4182 -5043 4059 -5658 4182 -5289 3198 -5412 3321 -5781 2952 -6027 2952 -6273 2337 -6150 2214 -14637 -46371 4182 -1476 3813 -1476 3690 -1599 3567 -1845 3813 -2337 3690 -2214 2706 -1968 2829 -2460 3321 -2829 3075 -3199 2583 -2706 2337 -2583 2460 -3444 2460 -3321 1845 -3321 2214 -3690 1599 -3075 1476 -3690 1599 -3813 1107 -3813 1230 -4059 738 -3444 615 -3813 615 -4059 123 -4059 123 -4059 -123 -4182 -123 -4059 -615 -4059 -615 -3690 -1107 -4182 -1107 -4305 0 0 -246 -246zm-102829 -53998l-14637 -46248 0 0 6273 -1845 6519 -1476 6642 -1230 6642 -861 6519 -492 6273 -123 6273 123 6396 492 6273 861 6274 984 6396 1476 5904 1599 5904 1845 6273 2460 5289 2337 6150 2829 5289 3198 5166 3075 5289 3690 4797 3567 5166 4059 4797 4674 4059 4428 4059 4182 4182 5166 4182 5781 3321 5289 3321 5289 2829 5904 2953 6027 2460 6273 2091 6151 -46372 14637 -1476 -4182 -1476 -3813 -1599 -3690 -1968 -3567 -2214 -3814 -2337 -3690 -1968 -2706 -2583 -2952 -2706 -3321 -3075 -3075 -2583 -2460 -2952 -2337 -3444 -2706 -3075 -2091 -3567 -2091 -3567 -2091 -3321 -1599 -3690 -1599 -3567 -1476 -3690 -984 -4306 -1353 -3567 -738 -3813 -738 -4059 -492 -4059 -123 -4059 -123 -4059 123 -4182 123 -3690 492 -4059 738 -4182 1107 -4059 1107 0 0z"/>
  <path id="_1_12" class="fil3" d="M2898278 1688684c-56335,17466 -87454,77368 -69988,133456 17589,56089 77245,87331 133457,69865 56088,-17589 87453,-77245 69864,-133456 -17466,-56089 -77244,-87331 -133333,-69865z"/>
  <path class="fil4" d="M3206519 2079213l-46371 14637 0 0 -1722 -6396 -1476 -6396 -1230 -6642 -861 -6642 -492 -6519 -123 -6273 123 -6397 492 -6273 861 -6396 861 -6150 1353 -6150 1599 -6150 2091 -6027 2337 -6273 2583 -5535 2583 -5658 3075 -5412 3321 -5535 3690 -5043 3567 -4674 4059 -5289 4428 -4674 4059 -4059 5043 -4551 5043 -4059 5289 -3814 5289 -3321 5658 -3321 6027 -3198 5781 -2706 6273 -2460 6150 -2091 14638 46372 -4182 1476 -3813 1353 -3814 1845 -3813 1722 -3321 2091 -3567 2337 -3075 2337 -3075 2337 -2829 2583 -3075 3198 -2583 2706 -2337 2952 -2706 3444 -2214 3321 -2091 3321 -1845 3198 -1845 3936 -1599 3444 -1353 3444 -1107 3813 -984 3813 -984 3936 -615 3936 -615 3936 -123 4060 -123 4059 123 4059 123 4182 615 3813 615 4059 1107 4182 1107 4059 0 0 0 123zm103075 53997l14637 46372 0 0 -6519 1722 -6150 1476 -7011 1353 -6642 861 -6396 492 -6519 123 -6273 -123 -6273 -492 -6396 -861 -6150 -984 -6642 -1476 -5659 -1722 -5904 -1845 -5904 -2214 -5781 -2460 -6027 -2952 -5289 -3075 -5166 -3321 -5043 -3321 -5043 -3813 -5166 -4182 -4797 -4552 -3936 -4305 -4305 -4428 -4059 -4920 -4182 -5781 -3198 -5289 -3321 -5412 -2829 -5781 -2952 -6027 -2460 -6273 -2091 -6273 46371 -14514 1476 4182 1476 3690 1599 3690 1968 3690 2214 3690 2337 3690 1968 2829 2460 2706 2829 3321 3198 3075 2706 2583 2583 2337 3321 2460 3444 2460 3321 1968 3690 2091 3076 1599 3813 1476 3690 1599 3936 1107 4059 1107 3444 861 3813 738 4059 369 4059 246 4059 123 4182 -123 4059 -246 4059 -369 3690 -738 4182 -1107 4305 -1107 0 0 0 0zm53875 -102952l46371 -14637 0 0 1845 6519 1353 6150 1353 7011 861 6642 492 6273 123 6520 -123 6273 -492 6396 -861 6273 -984 6150 -1476 6642 -1722 5658 -1722 5904 -2337 6027 -2460 5658 -2952 5904 -2952 5412 -3321 5166 -3444 5043 -3690 5043 -4182 5166 -4551 4674 -4305 4060 -4428 4305 -5043 3936 -5658 4305 -5412 3198 -5290 3321 -5781 2829 -6027 2952 -6396 2460 -6150 2091 -14637 -46372 4182 -1476 3813 -1476 3690 -1599 3567 -1845 3690 -2337 3690 -2214 2829 -1968 2706 -2460 3444 -2829 3075 -3075 2583 -2829 2337 -2583 2338 -3444 2460 -3321 1968 -3321 2214 -3690 1599 -3075 1353 -3813 1599 -3690 1230 -3936 1107 -4059 861 -3321 615 -3936 492 -3936 123 -4059 246 -4059 -246 -4182 -123 -4060 -492 -4059 -615 -3813 -1107 -4182 -1230 -4182 0 0 0 -123zm-102952 -53997l-14515 -46372 0 0 6274 -1722 6519 -1476 6642 -1353 6642 -738 6519 -492 6273 -123 6396 123 6273 492 6396 738 6150 984 6519 1476 5781 1599 5904 1845 6150 2460 5412 2337 6150 2829 5167 3198 5166 3075 5412 3690 4674 3568 5166 4059 4920 4674 4059 4428 4059 4182 4182 5166 4182 5781 3321 5289 3198 5289 2952 5904 2952 5904 2337 6396 2214 6150 -46371 14514 -1476 -4182 -1476 -3690 -1599 -3813 -1968 -3567 -2214 -3690 -2337 -3690 -1845 -2829 -2584 -2829 -2829 -3321 -3075 -3075 -2583 -2460 -2829 -2460 -3444 -2583 -3075 -2091 -3567 -2214 -3567 -2091 -3198 -1599 -3813 -1599 -3567 -1476 -3690 -984 -4305 -1230 -3567 -861 -3813 -615 -4059 -492 -4059 -246 -4059 -123 -4059 123 -4182 246 -3690 492 -4059 615 -4182 1107 -4059 1107 0 0 -246 246z"/>
  <path id="_1_13" class="fil3" d="M3253260 1953137c-56212,17466 -87331,77244 -69865,133333 17466,56088 77122,87454 133456,69988 56089,-17590 87331,-77245 69865,-133457 -17466,-56088 -77368,-87454 -133456,-69864z"/>
  <path class="fil4" d="M3391882 2494219l-46372 14637 0 0 -1722 -6273 -1476 -6519 -1353 -6642 -861 -6642 -369 -6519 -246 -6273 246 -6396 369 -6273 861 -6396 984 -6151 1353 -6150 1599 -6150 2091 -6027 2337 -6150 2584 -5658 2583 -5535 3075 -5535 3444 -5535 3567 -5043 3567 -4674 4059 -5166 4428 -4797 4059 -4059 5043 -4551 5043 -4059 5289 -3813 5166 -3321 5658 -3321 6027 -3075 5781 -2830 6396 -2460 6150 -2091 14637 46372 -4305 1476 -3690 1476 -3936 1722 -3690 1722 -3321 2214 -3567 2214 -3198 2337 -3075 2460 -2706 2583 -3075 3075 -2583 2706 -2460 2952 -2583 3444 -2214 3321 -2214 3321 -1722 3198 -1968 3936 -1599 3444 -1230 3567 -1230 3690 -984 3936 -984 3814 -615 3936 -492 4059 -123 4059 -123 4059 123 3936 123 4305 492 3690 615 4059 1230 4182 1107 4059 0 0 0 123zm102952 53997l14637 46372 0 0 -6519 1845 -6150 1476 -6888 1230 -6642 861 -6396 492 -6396 123 -6396 -123 -6273 -492 -6396 -861 -6151 -984 -6642 -1476 -5658 -1722 -5904 -1722 -5904 -2337 -5781 -2460 -5904 -2952 -5412 -3075 -5166 -3198 -5043 -3444 -5043 -3813 -5166 -4182 -4674 -4428 -4059 -4428 -4305 -4305 -3936 -5044 -4305 -5781 -3198 -5289 -3321 -5289 -2829 -5904 -2952 -6027 -2461 -6273 -2091 -6150 46372 -14637 1476 4182 1476 3690 1599 3813 1968 3567 2214 3690 2337 3813 1968 2706 2460 2706 2829 3444 3198 3075 2706 2583 2583 2337 3321 2337 3444 2460 3321 1968 3690 2214 3198 1599 3690 1353 3690 1722 3936 1107 4060 1107 3444 862 3813 615 4059 492 4059 123 4059 246 4182 -246 4059 -123 4059 -492 3690 -615 4182 -1108 4305 -1230 0 0 -123 0zm53997 -102952l46372 -14514 0 0 1722 6396 1476 6150 1230 7012 861 6642 492 6273 123 6519 -123 6396 -492 6273 -861 6396 -984 6150 -1476 6642 -1722 5658 -1722 5781 -2337 6027 -2460 5658 -2829 6027 -3075 5289 -3321 5166 -3444 5043 -3690 5044 -4182 5166 -4551 4797 -4428 4059 -4305 4182 -5043 4059 -5659 4182 -5289 3198 -5412 3321 -5781 2952 -6027 2829 -6273 2460 -6273 2091 -14637 -46372 4305 -1476 3690 -1353 3690 -1599 3567 -1968 3813 -2337 3690 -2214 2706 -1968 2829 -2460 3444 -2829 3075 -3075 2583 -2706 2214 -2583 2460 -3444 2460 -3444 1968 -3198 2091 -3813 1599 -3075 1476 -3690 1599 -3813 1107 -3813 1231 -4059 738 -3444 738 -3813 492 -4059 123 -4059 123 -4059 -123 -4182 -123 -4059 -492 -4059 -738 -3690 -1108 -4306 -1107 -4182 0 0 0 -123zm-102952 -53997l-14514 -46372 0 0 6273 -1722 6519 -1476 6643 -1230 6642 -861 6396 -492 6396 -123 6273 123 6396 492 6273 861 6150 861 6519 1476 5904 1599 5904 1968 6273 2460 5289 2215 6150 2952 5166 3075 5289 3075 5289 3690 4675 3567 5289 4059 4797 4797 4059 4305 4059 4182 4182 5166 4182 5781 3321 5289 3198 5412 2952 5781 2952 5904 2460 6396 1968 6150 -46249 14637 -1476 -4182 -1476 -3690 -1599 -3813 -1968 -3567 -2214 -3690 -2337 -3813 -1845 -2706 -2583 -2952 -2829 -3198 -3075 -3198 -2583 -2337 -2952 -2460 -3321 -2583 -3075 -2214 -3690 -2091 -3567 -2091 -3198 -1599 -3813 -1599 -3567 -1476 -3690 -984 -4182 -1353 -3567 -738 -3936 -615 -4059 -615 -4059 -123 -4059 -123 -4059 123 -4182 123 -3690 615 -4059 615 -4182 1107 -4060 1107 0 0 -123 123z"/>
  <path id="_1_14" class="fil3" d="M3438622 2368143c-56334,17466 -87453,77367 -69987,133456 17589,56089 77244,87331 133456,69865 56089,-17466 87454,-77245 69865,-133457 -17466,-56088 -77245,-87330 -133334,-69864z"/>
  <path class="fil4" d="M3342435 2946740l-46371 14638 0 0 -1722 -6273 -1476 -6520 -1230 -6642 -861 -6642 -492 -6396 -123 -6396 123 -6273 492 -6396 861 -6273 984 -6150 1230 -6273 1599 -6150 2214 -6027 2214 -6150 2583 -5658 2583 -5535 3075 -5535 3444 -5535 3567 -4921 3567 -4797 4059 -5166 4428 -4674 4059 -4059 5043 -4551 5043 -4059 5412 -3936 5167 -3321 5658 -3321 6027 -3075 5781 -2829 6273 -2337 6273 -2214 14514 46371 -4182 1476 -3690 1476 -3936 1722 -3690 1846 -3444 2091 -3567 2214 -3075 2337 -3075 2337 -2829 2706 -3075 3075 -2583 2706 -2460 2952 -2583 3444 -2214 3321 -2215 3321 -1722 3198 -1968 3936 -1599 3321 -1230 3567 -1230 3813 -984 3813 -984 3936 -615 3936 -492 4059 -123 3936 -123 4059 123 4059 123 4182 492 3813 615 4059 1230 4182 1107 4059 0 0 0 123zm102952 53998l14638 46371 0 0 -6519 1722 -6151 1477 -7011 1230 -6642 861 -6273 492 -6519 246 -6273 -246 -6396 -492 -6273 -861 -6150 -984 -6642 -1354 -5781 -1845 -5781 -1722 -6027 -2337 -5658 -2337 -6027 -2952 -5289 -3075 -5167 -3198 -5043 -3444 -5043 -3813 -5289 -4182 -4674 -4551 -4059 -4305 -4182 -4428 -4059 -5043 -4182 -5658 -3321 -5289 -3198 -5412 -2952 -5781 -2952 -6027 -2460 -6273 -2091 -6150 46371 -14638 1476 4183 1476 3690 1599 3813 1845 3444 2338 3813 2337 3690 1845 2706 2460 2829 2952 3321 3075 3075 2706 2583 2583 2337 3444 2460 3444 2460 3198 1968 3813 2091 2952 1599 3813 1476 3690 1599 3936 1107 4059 1230 3444 738 3813 738 4059 492 4059 123 4059 123 4182 -123 4059 -123 4059 -492 3690 -738 4182 -1107 4305 -1107 0 0 123 0zm53998 -102952l46371 -14514 0 0 1722 6396 1476 6273 1231 6888 861 6642 492 6396 123 6396 -123 6396 -492 6273 -861 6396 -985 6150 -1476 6643 -1722 5658 -1722 5904 -2337 5904 -2460 5781 -2829 5904 -3075 5412 -3321 5166 -3444 5043 -3690 4920 -4182 5289 -4551 4674 -4428 4059 -4305 4182 -5043 4059 -5658 4182 -5289 3321 -5412 3198 -5781 2952 -6027 2952 -6273 2337 -6273 2091 -14515 -46248 4182 -1476 3691 -1476 3813 -1599 3567 -1968 3690 -2214 3813 -2337 2706 -1845 2706 -2460 3444 -2952 3075 -3075 2583 -2706 2337 -2583 2337 -3444 2460 -3444 1968 -3198 2091 -3690 1599 -3075 1476 -3813 1599 -3691 1107 -3936 1230 -4059 738 -3321 738 -3936 492 -4059 123 -3936 123 -4059 -123 -4305 -123 -3936 -492 -4059 -738 -3813 -1107 -4182 -1107 -4182 0 0 0 -246zm-102952 -53998l-14514 -46371 0 0 6273 -1722 6519 -1476 6642 -1353 6642 -738 6396 -492 6396 -123 6273 123 6396 492 6273 738 6150 984 6520 1476 5781 1599 6027 1968 6273 2460 5289 2214 6150 2952 5166 3075 5289 3075 5289 3813 4674 3567 5289 4059 4797 4674 4059 4305 4059 4182 4182 5289 4182 5658 3321 5413 3198 5289 2952 5904 2952 5904 2460 6396 2091 6150 -46371 14514 -1476 -4182 -1353 -3690 -1722 -3813 -1845 -3567 -2337 -3690 -2214 -3690 -1968 -2829 -2583 -2829 -2706 -3321 -3198 -3075 -2583 -2460 -2829 -2460 -3444 -2583 -3075 -2091 -3567 -2091 -3567 -2092 -3321 -1722 -3690 -1599 -3568 -1353 -3813 -984 -4182 -1353 -3567 -861 -3936 -615 -3936 -492 -4059 -123 -4059 -246 -4059 246 -4182 123 -3813 492 -4059 615 -4182 1230 -4059 1107 0 0 -123 0z"/>
  <path id="_1_15" class="fil3" d="M3389176 2820664c-56335,17466 -87454,77368 -69988,133457 17589,55965 77245,87330 133457,69864 56088,-17466 87453,-77245 69864,-133456 -17466,-56089 -77245,-87331 -133333,-69865z"/>
  <path class="fil4" d="M3073063 3313038l-46372 14514 0 0 -1722 -6273 -1476 -6519 -1230 -6642 -861 -6642 -492 -6519 -123 -6273 123 -6273 492 -6396 861 -6273 984 -6273 1230 -6150 1599 -6150 2214 -6028 2214 -6150 2583 -5658 2583 -5535 3075 -5535 3444 -5535 3567 -5043 3567 -4674 4060 -5166 4551 -4797 4059 -4059 5043 -4551 5043 -4059 5289 -3813 5166 -3321 5658 -3321 6027 -3198 5781 -2706 6396 -2460 6150 -2091 14637 46248 -4305 1476 -3690 1476 -3936 1722 -3690 1845 -3321 2091 -3690 2337 -3075 2214 -3075 2460 -2706 2583 -3075 3075 -2583 2706 -2460 2952 -2583 3321 -2337 3444 -2091 3321 -1722 3198 -1968 3937 -1599 3321 -1230 3690 -1230 3690 -984 3936 -984 3813 -615 3936 -492 4059 -123 4059 -123 3936 123 4059 123 4305 492 3690 615 4059 1230 4182 1107 4059 0 0 -123 369zm103075 53998l14637 46371 0 0 -6519 1722 -6150 1476 -7011 1230 -6642 861 -6396 492 -6396 123 -6397 -123 -6273 -492 -6396 -861 -6150 -984 -6642 -1476 -5658 -1722 -5904 -1722 -5904 -2337 -5658 -2460 -6027 -2829 -5412 -3198 -5166 -3198 -5043 -3444 -5043 -3690 -5166 -4182 -4674 -4551 -4059 -4428 -4182 -4305 -4060 -5043 -4305 -5658 -3198 -5412 -3321 -5289 -2829 -5782 -2952 -6027 -2460 -6396 -2091 -6150 46372 -14637 1476 4305 1476 3690 1599 3690 1968 3567 2214 3813 2337 3690 1968 2829 2460 2706 2829 3444 3198 3075 2706 2584 2583 2214 3444 2460 3321 2460 3321 1968 3690 2091 3198 1599 3690 1476 3690 1599 3936 1107 4059 1107 3444 861 3813 738 4059 369 4059 246 4060 123 4182 -123 4059 -246 4059 -369 3690 -738 4305 -1107 4182 -1107 0 0 0 0zm53874 -102952l46372 -14515 0 0 1722 6397 1476 6150 1353 7011 738 6642 615 6273 123 6519 -123 6396 -615 6273 -738 6396 -984 6150 -1476 6642 -1722 5658 -1845 5781 -2214 6027 -2460 5658 -2952 6027 -3075 5413 -3198 5166 -3444 5043 -3690 5043 -4306 5166 -4428 4674 -4428 4059 -4428 4182 -5043 4059 -5535 4182 -5412 3321 -5289 3198 -5904 2952 -6027 2952 -6273 2460 -6150 2091 -14637 -46248 4182 -1476 3690 -1476 3813 -1722 3444 -1845 3813 -2337 3690 -2214 2829 -1968 2706 -2460 3444 -2830 3075 -3198 2583 -2706 2214 -2583 2460 -3321 2460 -3444 1968 -3198 2091 -3813 1599 -3075 1476 -3690 1599 -3690 1107 -3936 1230 -4059 861 -3444 615 -3813 492 -4059 123 -4059 123 -4059 -123 -4182 -123 -4059 -492 -4059 -615 -3690 -1230 -4305 -1107 -4182 0 0 0 -246zm-102829 -53998l-14637 -46371 0 0 6273 -1722 6519 -1476 6642 -1230 6642 -861 6519 -492 6274 -123 6396 123 6273 492 6396 861 6150 984 6519 1353 5781 1722 6027 1968 6150 2337 5289 2337 6273 2952 5166 2952 5166 3198 5289 3690 4797 3567 5166 4059 4920 4797 4059 4305 3937 4182 4305 5166 4182 5658 3198 5412 3321 5289 2952 5781 2829 6027 2460 6396 2091 6150 -46372 14638 -1476 -4305 -1353 -3690 -1599 -3690 -1968 -3568 -2337 -3813 -2214 -3690 -1968 -2829 -2583 -2829 -2706 -3321 -3075 -3075 -2583 -2337 -2952 -2460 -3321 -2583 -3198 -2214 -3567 -2091 -3567 -2091 -3198 -1599 -3813 -1599 -3567 -1476 -3690 -984 -4182 -1230 -3567 -861 -3936 -738 -4059 -369 -4059 -246 -4059 -123 -4060 123 -4182 246 -3690 369 -4059 738 -4182 1107 -4059 1107 0 0 -123 0z"/>
  <path id="_1_16" class="fil3" d="M3119803 3186839c-56211,17589 -87331,77368 -69865,133456 17467,56089 77245,87454 133457,69865 56088,-17466 87331,-77122 69865,-133333 -17467,-56089 -77368,-87454 -133457,-69988z"/>
  <path class="fil4" d="M2654982 3495326l-46249 14637 0 0 -1845 -6396 -1476 -6519 -1230 -6642 -861 -6642 -492 -6396 -123 -6396 123 -6273 492 -6396 861 -6273 984 -6151 1230 -6273 1599 -6150 2214 -6027 2214 -6150 2583 -5658 2706 -5535 3075 -5535 3321 -5412 3567 -5043 3567 -4797 4059 -5166 4551 -4674 4059 -4059 5043 -4551 5044 -4059 5412 -3936 5166 -3198 5658 -3444 6027 -3075 5781 -2706 6396 -2461 6150 -2214 14637 46372 -4182 1476 -3813 1476 -3813 1722 -3813 1845 -3321 2091 -3567 2337 -3075 2214 -3198 2460 -2706 2583 -3075 3075 -2583 2829 -2460 2829 -2583 3444 -2337 3444 -2091 3198 -1845 3321 -1968 3813 -1599 3444 -1230 3567 -1107 3690 -984 3937 -984 3936 -738 3813 -369 4059 -246 4059 -123 4059 123 4059 246 4182 369 3690 738 4059 1107 4182 1107 4059 0 0 -123 246zm102952 53997l14637 46372 0 0 -6519 1722 -6150 1476 -7011 1353 -6643 861 -6273 492 -6519 123 -6273 -123 -6396 -492 -6273 -861 -6273 -984 -6642 -1476 -5658 -1722 -5781 -1845 -6027 -2214 -5781 -2460 -5904 -2952 -5412 -3075 -5166 -3198 -5043 -3444 -4920 -3690 -5167 -4182 -4797 -4551 -4059 -4428 -4182 -4305 -4059 -5043 -4182 -5659 -3198 -5412 -3321 -5289 -2952 -5781 -2829 -6027 -2460 -6396 -2091 -6150 46372 -14637 1476 4182 1353 3813 1599 3690 1968 3567 2337 3690 2214 3690 1968 2829 2460 2706 2829 3444 3075 3075 2706 2583 2706 2214 3321 2460 3444 2460 3198 1968 3813 2091 3075 1599 3690 1476 3813 1599 3813 1230 4059 1108 3444 861 3813 615 4059 492 4059 123 4059 123 4182 -123 4059 -123 4059 -492 3690 -615 4306 -1230 4182 -1108 0 0 123 0zm53997 -103075l46372 -14514 0 0 1845 6519 1353 6150 1353 6889 861 6642 369 6396 246 6396 -246 6396 -369 6273 -861 6396 -984 6150 -1353 6642 -1845 5658 -1722 5904 -2337 6027 -2460 5658 -2830 6027 -3075 5289 -3321 5166 -3321 5043 -3813 5044 -4182 5166 -4551 4674 -4428 4059 -4305 4182 -5043 4059 -5658 4182 -5412 3321 -5289 3198 -5904 2952 -5904 2952 -6396 2337 -6150 2214 -14637 -46372 4305 -1476 3690 -1476 3690 -1599 3567 -1968 3813 -2214 3690 -2337 2829 -1845 2706 -2460 3321 -2952 3198 -3075 2583 -2706 2214 -2583 2460 -3444 2460 -3321 1968 -3321 2091 -3690 1599 -3198 1476 -3690 1599 -3690 1107 -3936 1107 -4059 861 -3321 615 -3936 492 -4059 246 -4059 123 -4059 -123 -4182 -246 -4059 -492 -4059 -615 -3690 -1107 -4182 -1107 -4183 0 0 -123 -246zm-102952 -53874l-14637 -46372 0 0 6273 -1845 6519 -1353 6642 -1353 6642 -861 6519 -492 6273 -123 6396 123 6273 492 6397 861 6150 984 6519 1353 5781 1599 6027 1968 6150 2460 5289 2215 6273 2952 5166 3075 5166 3075 5289 3813 4797 3567 5166 4059 4920 4674 3936 4305 4059 4305 4305 5166 4182 5658 3198 5412 3321 5289 2830 5781 2952 6027 2460 6273 2091 6150 -46372 14637 -1476 -4182 -1353 -3813 -1722 -3690 -1968 -3567 -2214 -3690 -2337 -3813 -1968 -2706 -2583 -2952 -2706 -3198 -3075 -3198 -2706 -2337 -2829 -2460 -3444 -2583 -3075 -2214 -3567 -2091 -3567 -2091 -3321 -1599 -3690 -1599 -3567 -1476 -3813 -984 -4182 -1353 -3568 -738 -3813 -738 -4059 -492 -4059 -123 -4059 -123 -4059 123 -4182 123 -3813 492 -3936 738 -4305 1107 -4059 1107 0 0 123 246z"/>
  <path id="_1_17" class="fil3" d="M2701722 3369127c-56212,17466 -87454,77367 -69865,133456 17466,56089 77122,87331 133457,69865 55965,-17466 87331,-77245 69864,-133457 -17589,-56088 -77367,-87330 -133456,-69864z"/>
  <path class="fil4" d="M1839114 3172817l-46371 14514 0 0 -1722 -6273 -1476 -6519 -1353 -6642 -738 -6642 -492 -6519 -246 -6274 246 -6396 492 -6273 738 -6273 984 -6273 1353 -6150 1599 -6150 2091 -6027 2337 -6150 2583 -5781 2583 -5412 3075 -5535 3444 -5535 3567 -5043 3567 -4674 4059 -5289 4428 -4674 4059 -4059 5043 -4552 5043 -4059 5289 -3813 5166 -3321 5659 -3321 6027 -3198 5904 -2706 6273 -2460 6150 -2091 14637 46249 -4182 1476 -3813 1476 -3813 1845 -3813 1722 -3321 2091 -3567 2337 -3198 2337 -3075 2337 -2706 2583 -3075 3075 -2583 2829 -2460 2829 -2583 3444 -2215 3444 -2214 3198 -1722 3321 -1968 3813 -1599 3444 -1230 3567 -1107 3690 -984 3936 -984 3936 -738 3813 -492 4059 -123 4059 -123 4059 123 4060 123 4182 492 3690 738 4059 1107 4182 1107 4059 0 0 0 369zm102952 53997l14638 46249 0 0 -6396 1845 -6274 1476 -7011 1230 -6642 861 -6273 492 -6519 123 -6273 -123 -6396 -492 -6273 -861 -6150 -984 -6642 -1476 -5781 -1722 -5781 -1722 -5904 -2337 -5781 -2460 -6027 -2829 -5289 -3075 -5167 -3321 -5043 -3444 -5043 -3690 -5166 -4183 -4797 -4551 -4059 -4428 -4182 -4305 -4059 -5043 -4182 -5658 -3198 -5289 -3321 -5412 -2952 -5781 -2829 -6027 -2460 -6396 -2091 -6150 46371 -14514 1353 4182 1476 3690 1599 3813 1968 3567 2337 3690 2215 3813 2091 2706 2337 2706 2952 3444 3075 3075 2829 2583 2583 2337 3321 2337 3444 2460 3321 1968 3690 2091 3075 1599 3813 1476 3690 1599 3936 1107 3936 1230 3444 738 3936 738 4059 492 4059 123 4059 123 4182 -123 4059 -123 4059 -492 3690 -738 4182 -1107 4182 -1107 0 0zm53998 -102952l46371 -14637 0 0 1722 6519 1476 6150 1230 7011 861 6519 492 6396 246 6519 -246 6274 -492 6396 -861 6273 -984 6150 -1353 6642 -1845 5781 -1722 5781 -2337 6027 -2460 5658 -2829 6027 -3075 5289 -3321 5166 -3321 5043 -3813 5043 -4182 5166 -4551 4797 -4305 4059 -4428 4182 -5043 4060 -5658 4182 -5289 3198 -5412 3321 -5781 2952 -6027 2952 -6273 2337 -6273 2214 -14638 -46372 4305 -1476 3690 -1476 3691 -1599 3567 -1845 3690 -2337 3813 -2214 2706 -1968 2829 -2460 3321 -2829 3075 -3198 2583 -2706 2337 -2583 2460 -3444 2460 -3321 1968 -3321 2091 -3690 1599 -3075 1476 -3690 1599 -3813 1107 -3813 1107 -4059 861 -3321 738 -3936 369 -4059 246 -4059 123 -4060 -123 -4182 -246 -4059 -369 -4059 -738 -3690 -1107 -4182 -1107 -4182 0 0 0 -369zm-102952 -53997l-14514 -46372 0 0 6273 -1722 6519 -1476 6642 -1353 6642 -861 6519 -369 6273 -246 6273 246 6396 369 6273 861 6273 984 6396 1476 5905 1599 5904 1968 6273 2460 5289 2214 6150 2952 5166 3075 5289 3075 5289 3813 4674 3567 5289 4060 4797 4674 4059 4305 4059 4305 4182 5166 4182 5658 3321 5412 3321 5289 2829 5781 2952 6027 2460 6396 2091 6150 -46371 14514 -1476 -4182 -1476 -3690 -1599 -3690 -1845 -3690 -2337 -3690 -2337 -3690 -1845 -2829 -2583 -2952 -2829 -3198 -3075 -3075 -2583 -2460 -2829 -2460 -3444 -2583 -3075 -2091 -3567 -2091 -3567 -2091 -3321 -1599 -3691 -1722 -3567 -1353 -3813 -984 -4182 -1353 -3567 -861 -3813 -615 -4059 -492 -4059 -123 -4059 -123 -4059 123 -4182 123 -3813 492 -4059 615 -4182 1230 -4059 1107 0 0 -123 0z"/>
  <path id="_1_18" class="fil3" d="M1885855 3046617c-56335,17590 -87454,77368 -69865,133457 17466,56088 77122,87454 133333,69864 56089,-17466 87454,-77121 69988,-133333 -17589,-56088 -77368,-87454 -133456,-69988z"/>
  <path class="fil4" d="M1658426 2752276l-46372 14514 0 0 -1722 -6273 -1476 -6519 -1353 -6643 -861 -6642 -369 -6519 -246 -6273 246 -6396 369 -6273 861 -6273 984 -6273 1353 -6150 1599 -6150 2091 -6027 2337 -6150 2583 -5658 2583 -5535 3075 -5535 3444 -5535 3567 -5043 3567 -4675 4059 -5166 4551 -4797 4059 -3936 5044 -4551 5043 -4059 5289 -3936 5166 -3198 5781 -3444 5904 -3075 5904 -2706 6273 -2460 6150 -2091 14637 46371 -4182 1354 -3813 1476 -3813 1845 -3813 1722 -3321 2091 -3567 2337 -3075 2214 -3198 2460 -2706 2583 -3075 3198 -2706 2706 -2337 2952 -2583 3321 -2337 3444 -2091 3198 -1845 3321 -1845 3936 -1599 3321 -1353 3690 -1107 3690 -984 3936 -984 3813 -615 3936 -492 4059 -123 4059 -246 4059 246 3936 123 4305 492 3690 615 4059 1230 4182 1107 4060 0 0 -123 123zm102829 53874l14637 46495 0 0 -6519 1722 -6150 1476 -7011 1230 -6643 861 -6273 492 -6519 123 -6273 -123 -6396 -492 -6273 -861 -6150 -984 -6642 -1476 -5781 -1722 -5781 -1722 -6027 -2338 -5658 -2460 -6027 -2829 -5289 -3198 -5166 -3198 -5043 -3444 -5043 -3690 -5166 -4182 -4798 -4551 -4059 -4428 -4182 -4305 -4059 -5043 -4182 -5658 -3198 -5412 -3321 -5289 -2952 -5904 -2829 -5904 -2460 -6396 -2091 -6150 46249 -14637 1476 4305 1476 3690 1599 3690 1968 3567 2214 3813 2337 3690 1845 2706 2460 2829 2952 3321 3075 3198 2706 2583 2706 2214 3321 2460 3444 2460 3198 1845 3813 2214 3075 1599 3690 1476 3690 1599 3936 1107 4059 1107 3321 861 3936 615 4059 492 4059 246 4059 123 4182 -123 4059 -246 4059 -492 3691 -615 4182 -1107 4182 -1230 0 0 246 0zm53997 -102829l46372 -14637 0 0 1722 6396 1476 6273 1353 7011 861 6642 369 6273 246 6519 -246 6273 -369 6396 -861 6273 -984 6151 -1476 6642 -1722 5781 -1845 5781 -2214 5904 -2460 5781 -2952 6027 -3076 5289 -3321 5166 -3321 5043 -3690 5043 -4305 5166 -4551 4797 -4305 4059 -4305 4182 -5043 4059 -5781 4182 -5289 3198 -5412 3321 -5781 2952 -6027 2829 -6273 2461 -6273 2091 -14514 -46372 4182 -1476 3690 -1353 3813 -1599 3567 -1968 3690 -2337 3813 -2337 2706 -1968 2706 -2337 3444 -2952 3075 -3075 2583 -2829 2337 -2583 2460 -3321 2337 -3444 1968 -3321 2091 -3690 1599 -3075 1476 -3813 1599 -3690 1230 -3936 1107 -4060 861 -3321 615 -3936 492 -4059 123 -4059 123 -4059 -123 -4182 -123 -4059 -492 -4059 -615 -3690 -1230 -4182 -1107 -4182 0 0 0 0zm-102952 -53998l-14514 -46371 0 0 6273 -1722 6519 -1476 6642 -1353 6642 -861 6519 -492 6273 -123 6273 123 6396 492 6274 861 6273 984 6396 1476 5904 1599 5904 1968 6273 2460 5289 2214 6150 2952 5289 3075 5166 3075 5289 3813 4797 3567 5166 4059 4797 4674 4059 4305 4059 4305 4182 5166 4182 5659 3321 5289 3322 5412 2829 5781 2952 6027 2460 6273 2091 6273 -46249 14514 -1476 -4182 -1476 -3690 -1599 -3690 -1968 -3567 -2337 -3813 -2214 -3690 -1968 -2706 -2583 -2952 -2706 -3198 -3075 -3075 -2706 -2460 -2829 -2460 -3444 -2583 -3075 -2091 -3567 -2214 -3567 -2091 -3321 -1599 -3690 -1599 -3567 -1476 -3813 -862 -4182 -1353 -3567 -861 -3814 -615 -4059 -492 -4059 -123 -4059 -246 -4059 246 -4182 123 -3813 492 -3936 615 -4305 1230 -4059 1107 0 0 -123 -123z"/>
  <path id="_1_19" class="fil3" d="M1705043 2626076c-56212,17466 -87454,77245 -69865,133457 17590,56088 77245,87330 133457,69864 56088,-17589 87331,-77244 69864,-133456 -17589,-56089 -77367,-87454 -133456,-69865z"/>
  <path class="fil4" d="M1986716 1937884l-46372 14638 0 0 -1845 -6397 -1476 -6519 -1230 -6642 -861 -6642 -492 -6396 -123 -6396 123 -6273 492 -6396 861 -6273 861 -6150 1353 -6273 1599 -6150 2091 -6027 2337 -6150 2583 -5658 2583 -5535 3076 -5536 3444 -5412 3567 -5043 3567 -4797 4059 -5166 4551 -4674 4059 -4059 5043 -4551 5043 -4059 5289 -3936 5166 -3198 5781 -3444 5904 -3075 5904 -2706 6273 -2460 6150 -2214 14637 46371 -4182 1476 -3813 1476 -3813 1722 -3813 1845 -3321 2091 -3567 2337 -3198 2214 -3075 2461 -2706 2583 -3075 3075 -2583 2829 -2460 2829 -2583 3444 -2214 3444 -2214 3198 -1722 3321 -1968 3813 -1599 3444 -1353 3567 -1107 3690 -984 3936 -984 3936 -615 3813 -492 4059 -123 4059 -246 4059 246 4059 123 4182 492 3690 615 4059 1107 4182 1230 4059 0 0 0 246zm102829 53998l14637 46371 0 0 -6396 1722 -6150 1476 -7011 1353 -6642 861 -6396 492 -6519 123 -6273 -123 -6396 -492 -6274 -861 -6150 -984 -6642 -1476 -5658 -1722 -5904 -1845 -5904 -2214 -5781 -2460 -6027 -2952 -5289 -3075 -5166 -3198 -5043 -3444 -5043 -3690 -5166 -4182 -4797 -4551 -4059 -4428 -4182 -4305 -4059 -5043 -4182 -5658 -3198 -5412 -3321 -5289 -2953 -5781 -2829 -6027 -2460 -6396 -2091 -6150 46372 -14638 1476 4182 1353 3813 1722 3690 1968 3568 2214 3690 2337 3690 1968 2829 2460 2706 2952 3444 2952 3075 2829 2583 2583 2214 3321 2460 3444 2460 3321 1968 3690 2091 3075 1599 3813 1476 3690 1599 3936 1230 4059 1107 3321 861 3937 615 4059 492 4059 123 4059 123 4182 -123 4059 -123 4059 -492 3690 -615 4182 -1230 4182 -1107 0 0 0 0zm54120 -103075l46372 -14514 0 0 1722 6519 1476 6150 1230 6888 861 6642 492 6396 246 6396 -246 6396 -492 6273 -861 6396 -984 6150 -1353 6642 -1845 5659 -1722 5904 -2337 6027 -2460 5658 -2952 6027 -2952 5289 -3321 5166 -3444 5043 -3690 5043 -4182 5166 -4551 4674 -4428 4059 -4306 4182 -5043 4059 -5658 4182 -5412 3321 -5289 3198 -5781 2952 -6027 2952 -6396 2337 -6150 2214 -14637 -46371 4182 -1476 3813 -1476 3690 -1599 3567 -1968 3690 -2214 3813 -2337 2706 -1845 2829 -2460 3321 -2952 3075 -3075 2583 -2706 2337 -2583 2460 -3444 2460 -3321 1968 -3321 2091 -3690 1599 -3199 1476 -3690 1599 -3690 1107 -3936 1107 -4059 861 -3321 738 -3936 369 -4059 246 -4059 123 -4059 -123 -4182 -246 -4059 -369 -4059 -738 -3690 -1107 -4182 -1107 -4182 0 0 0 -246zm-103075 -53875l-14514 -46371 0 0 6273 -1845 6519 -1353 6642 -1353 6643 -861 6519 -492 6273 -123 6396 123 6273 492 6396 861 6150 984 6396 1353 5904 1599 5904 1968 6150 2460 5412 2214 6150 2952 5166 3075 5166 3075 5412 3813 4674 3567 5167 4059 4920 4674 4059 4305 4059 4305 4182 5166 4182 5658 3321 5412 3198 5289 2952 5782 2952 6027 2337 6273 2214 6150 -46372 14637 -1476 -4182 -1476 -3813 -1599 -3690 -1968 -3567 -2214 -3690 -2337 -3813 -1845 -2706 -2706 -2952 -2706 -3198 -3075 -3198 -2583 -2337 -2829 -2461 -3444 -2583 -3075 -2214 -3567 -2091 -3567 -2091 -3321 -1599 -3690 -1599 -3567 -1476 -3690 -984 -4305 -1353 -3567 -738 -3813 -738 -4059 -492 -4059 -123 -4059 -123 -4059 123 -4182 123 -3690 492 -4060 738 -4305 1107 -3936 1107 0 0 -246 246z"/>
  <path id="_1_20" class="fil3" d="M2033333 1811685c-56211,17589 -87331,77368 -69864,133456 17589,56089 77244,87454 133456,69865 56089,-17466 87331,-77122 69865,-133456 -17467,-56089 -77245,-87331 -133457,-69865z"/>
  <path class="fil4" d="M1713407 2300246l-46248 14637 0 0 -1845 -6396 -1353 -6396 -1353 -6642 -861 -6642 -492 -6519 -123 -6396 123 -6273 492 -6396 861 -6273 984 -6150 1353 -6151 1599 -6273 2091 -6027 2337 -6150 2583 -5658 2583 -5535 3075 -5535 3444 -5535 3567 -4920 3567 -4797 4059 -5166 4551 -4674 4059 -4059 5043 -4551 4920 -4059 5412 -3936 5166 -3198 5658 -3444 6027 -3075 5904 -2706 6273 -2460 6151 -2091 14637 46371 -4182 1353 -3690 1476 -3936 1845 -3690 1722 -3445 2091 -3567 2214 -3075 2337 -3075 2460 -2829 2583 -3075 3075 -2583 2706 -2460 2952 -2583 3444 -2337 3321 -2091 3321 -1722 3198 -1968 3936 -1599 3321 -1230 3567 -1230 3814 -861 3813 -984 3936 -738 3936 -492 3936 -123 4059 -123 4059 123 4059 123 4182 492 3813 738 4059 1107 4182 1107 4059 0 0 -246 246zm103075 53998l14514 46248 0 0 -6396 1845 -6273 1476 -6888 1230 -6642 861 -6396 492 -6396 123 -6396 -123 -6273 -492 -6396 -861 -6150 -984 -6642 -1476 -5658 -1722 -5905 -1722 -5904 -2337 -5781 -2460 -5904 -2829 -5412 -3075 -5166 -3321 -5043 -3444 -5043 -3690 -5166 -4182 -4674 -4551 -4059 -4428 -4182 -4305 -4059 -5043 -4305 -5659 -3198 -5289 -3321 -5412 -2829 -5781 -2952 -6027 -2460 -6396 -2091 -6150 46371 -14637 1476 4182 1476 3813 1599 3690 1845 3567 2337 3813 2214 3690 1968 2706 2460 2829 2952 3444 3075 3075 2706 2583 2583 2214 3444 2460 3444 2460 3199 1968 3690 2091 3075 1600 3813 1476 3690 1599 3936 1107 4059 1230 3321 738 3936 738 4059 492 3936 123 4059 123 4305 -123 3936 -123 4059 -492 3813 -738 4182 -1107 4182 -1107 0 0 246 0zm53875 -102952l46371 -14638 0 0 1845 6519 1476 6150 1230 6889 861 6642 492 6396 123 6519 -123 6273 -492 6396 -861 6273 -984 6150 -1476 6642 -1722 5781 -1722 5781 -2337 6027 -2460 5658 -2829 6027 -3198 5289 -3198 5166 -3444 5044 -3690 5043 -4182 5166 -4551 4797 -4428 4059 -4305 4182 -5043 4059 -5658 4182 -5412 3198 -5289 3321 -5905 2952 -5904 2829 -6396 2460 -6150 2091 -14637 -46371 4182 -1476 3813 -1353 3690 -1600 3567 -1968 3813 -2337 3690 -2214 2706 -1968 2829 -2460 3321 -2829 3199 -3198 2583 -2706 2214 -2583 2460 -3444 2460 -3321 1845 -3321 2214 -3690 1599 -3075 1476 -3690 1599 -3813 1107 -3813 1107 -4059 861 -3444 615 -3813 492 -4059 246 -4059 123 -4059 -123 -4182 -246 -4059 -492 -4059 -615 -3690 -1107 -4305 -1230 -4182 0 0 0 -123zm-102829 -53998l-14637 -46371 0 0 6273 -1723 6519 -1476 6642 -1353 6642 -861 6519 -369 6273 -246 6273 246 6396 369 6273 861 6273 984 6396 1476 5904 1600 5904 1968 6273 2337 5289 2337 6151 2952 5166 3075 5289 3075 5289 3690 4674 3567 5289 4059 4797 4797 4059 4305 4059 4182 4182 5166 4182 5781 3321 5289 3321 5412 2829 5781 2952 6027 2460 6273 2091 6150 -46371 14638 -1476 -4183 -1476 -3813 -1599 -3690 -1968 -3567 -2214 -3690 -2337 -3813 -1968 -2706 -2583 -2952 -2706 -3198 -3199 -3198 -2583 -2337 -2829 -2460 -3444 -2583 -3075 -2091 -3567 -2091 -3567 -2214 -3321 -1599 -3690 -1599 -3567 -1476 -3813 -984 -4182 -1230 -3567 -861 -3936 -615 -4059 -492 -4059 -246 -3936 -123 -4059 123 -4305 246 -3690 492 -4059 615 -4182 1107 -4059 1230 0 0 123 0z"/>
  <path id="_1_21" class="fil3" d="M1760148 2174047c-56212,17589 -87454,77368 -69865,133456 17466,56089 77245,87454 133456,69865 56089,-17466 87331,-77245 69865,-133457 -17589,-56088 -77368,-87330 -133456,-69864z"/>
  <path class="fil5" d="M2613653 1740959c2706,-71709 -53628,-132349 -125461,-135178l-4920 0c-70603,0 -127675,55228 -130381,125461 -2706,71956 53505,132596 125338,135302l5043 0c70603,0 127798,-54982 130381,-125585l0 0zm-16113 -369c-492,12424 -3075,24478 -7257,35425l-14022 -37147 17343 -32472c2952,10824 4428,22263 3936,34194l0 0zm-38376 -2952l-11686 11316 984 -18573 369 -4551 10333 11808zm-9472 -28413l1231 -21771 31119 15744 -14145 26814 -18205 -20787zm17098 37269l12423 33088 -34195 10209 1476 -23493 0 0 20296 -19804zm22632 -52644l-39114 -19803 0 -123 -246 0 -17344 -40714c25831,12423 46126,34195 56827,60640l-123 0zm-52768 -21894l-22878 -1107 -17835 -19188 26814 -12055 13899 32350 0 0zm1722 12669l-246 12177 -12300 -13161 12669 984 -123 0zm-42066 -14760l-20787 -984 10332 -9225 10455 10209zm-8733 -48094c11439,492 22509,2706 32841,6273l-34071 15252 -32595 -17466c10824,-2952 22017,-4305 33702,-3936l123 -123zm-11193 29275l-17589 16851 0 123 -22879 -615 16360 -29275 24108 12916 0 0zm-29890 28782l-14883 14514 861 -14268 14022 -246 0 0zm-2337 -51046l-21402 38254 -43542 21648c12792,-27675 36285,-49447 64944,-59902zm-32103 101968l6396 -6642 -369 13653 -5904 -7011 -123 0zm5658 24847l-861 28536 -30750 -15375 17712 -28906 13899 15745zm-13530 -34810l-15129 -23985 30627 -15129 -738 24846 -14760 14268zm-35178 11193c492,-12300 2706,-23739 6765,-34563l20418 32472 -22878 37393c-3198,-11193 -4797,-23125 -4305,-35302zm7503 44896l40959 20664 11439 39114c-23862,-12915 -42804,-34194 -52398,-59778zm53874 -64207l0 -1107 32965 -31734 45264 2337 11562 12546 17589 18696 -1722 30135 -984 17344 -32226 29766 -40590 -1476 -32965 -37761 1230 -38746 -123 0zm103813 65068l-123 246 0 492 -738 13530 -13407 -738 -738 0 14883 -13653 123 123zm-44403 24108l-9102 7872 -7626 -8610 16728 738zm-43543 -13284l-246 0 -15744 -738 -492 -18327 16482 18942 0 123zm-16113 11070l26692 1107 15129 16851 -32473 13776 -9471 -31734 123 0zm48832 50800c-12915,-493 -25215,-3199 -36532,-7627l37639 -15990 35178 19065c-11562,3444 -23616,5044 -36285,4552zm9840 -32227l18081 -15744 23370 984 -11931 30750 -29520 -15990 0 0zm39237 23001l15252 -38622 40591 -12054c-12300,22632 -32103,40590 -55720,50676l-123 0z"/>
  <path class="fil5" d="M3060271 1795203c2829,-71956 -53629,-132595 -125462,-135301l-4920 0c-70479,0 -127798,55104 -130381,125584 -2706,71833 53629,132472 125338,135178l5043 0c70603,0 127799,-54981 130382,-125461l0 0zm-15991 -492c-492,12546 -3075,24477 -7380,35547l-13899 -37146 17343 -32595c2952,10824 4428,22386 3936,34194zm-38499 -2952l-11685 11316 984 -18696 369 -4551 10332 11808 0 123zm-9348 -28413l1107 -21772 31119 15745 -14022 26814 -18204 -20787zm16974 37392l12546 33087 -34194 10209 1476 -23493 0 0 20295 -19803 -123 0zm22755 -52768l-39237 -19680 0 -246 -123 0 -17343 -40590c25830,12300 46002,34194 56826,60639l-123 -123zm-52890 -21894l-22878 -1107 -17836 -19188 26938 -11931 13776 32226 0 0zm1845 12669l-246 12178 -12423 -13039 12669 984 0 -123zm-42190 -14760l-20787 -984 10455 -9225 10332 10209zm-8733 -47970c11562,492 22510,2583 32965,6150l-34072 15252 -32595 -17466c10824,-2952 22017,-4182 33702,-3936l0 0zm-11193 29151l-17466 16851 0 246 -22878 -738 16359 -29151 23985 12792 0 0zm-29766 28905l-15006 14391 861 -14268 14145 -123zm-2337 -51168l-21402 38376 -43543 21525c12792,-27798 36286,-49446 64945,-59901zm-32103 102091l6273 -6642 -246 13653 -6027 -7011zm5535 24723l-861 28536 -30628 -15375 17713 -28905 13776 15744zm-13530 -34809l-15007 -23985 30628 -15130 -861 24847 -14760 14268zm-35056 11193c369,-12177 2706,-23616 6765,-34563l20418 32595 -22878 37392c-3321,-11316 -4920,-23001 -4305,-35424l0 0zm7380 44895l40960 20788 11562 38991c-23985,-12915 -42805,-34194 -52522,-59779zm53998 -64206l0 -1107 32841 -31735 45265 2337 11562 12546 17712 18697 -1845 30135 -984 17343 -32227 29643 -40590 -1353 -32841 -37761 1107 -38745 0 0zm103690 64944l-123 369 0 492 -615 13407 -13407 -615 -738 0 14883 -13653 0 0zm-44404 24232l-8979 7995 -7626 -8610 16605 615zm-43419 -13285l-369 0 -15621 -615 -615 -18327 16605 18942 0 0zm-16236 10948l26814 1230 15129 16851 -32472 13776 -9348 -31734 -123 -123zm48831 51045c-12792,-492 -25092,-3321 -36531,-7626l37638 -16113 35179 19188c-11562,3321 -23617,4920 -36286,4551l0 0zm9840 -32349l18205 -15744 23370 984 -12054 30873 -29521 -15990 0 -123zm39361 23001l15252 -38622 40467 -12055c-12300,22633 -32103,40591 -55719,50677z"/>
  <path class="fil5" d="M3415375 2059656c2829,-71833 -53628,-132473 -125461,-135302l-4920 0c-70480,0 -127675,55228 -130258,125584 -2706,71710 53505,132350 125338,135179l4920 0c70603,0 127798,-54982 130381,-125461zm-15990 -492c-492,12423 -3075,24354 -7380,35424l-13899 -37146 17343 -32596c2952,10824 4305,22386 3813,34195l123 123zm-38376 -2952l-11686 11316 985 -18697 246 -4428 10455 11809zm-9471 -28414l1107 -21648 31119 15621 -14145 26814 -18081 -20787zm16974 37270l12423 33087 -34195 10209 1476 -23493 0 0 20296 -19680 0 -123zm22755 -52645l-39237 -19803 0 -123 -123 0 -17467 -40713c25831,12300 46126,34194 56827,60762l0 -123zm-52891 -21894l-22878 -1107 -17835 -19188 26937 -11931 13899 32226 -123 0zm1722 12669l-246 12177 -12300 -13161 12669 984 -123 0zm-42066 -14760l-20787 -984 10455 -9225 10332 10209 0 0zm-8733 -47971c11439,492 22509,2583 32841,6150l-34071 15253 -32595 -17590c10947,-2829 22140,-4182 33825,-3813zm-11193 29152l-17589 16851 0 123 -22879 -615 16360 -29151 24108 12792 0 0zm-29890 28905l-14883 14391 861 -14268 14022 -123 0 0zm-2214 -51046l-21402 38131 -43665 21648c12915,-27675 36408,-49446 65067,-59779zm-32103 101968l6273 -6642 -246 13654 -6027 -7012 0 0zm5412 24724l-738 28536 -30750 -15375 17712 -28905 13776 15744zm-13407 -34810l-15129 -23985 30750 -15129 -861 24846 -14760 14268 0 0zm-35178 11194c492,-12178 2706,-23740 6765,-34564l20418 32595 -22878 37270c-3198,-11193 -4797,-23001 -4305,-35301zm7503 44895l40959 20787 11562 38992c-23985,-12916 -42804,-34195 -52521,-59779zm53997 -64207l0 -1107 32842 -31734 45264 2337 11562 12423 17589 18819 -1722 30136 -984 17343 -32226 29643 -40467 -1476 -32965 -37761 1230 -38746 -123 123zm103690 64945l-123 369 0 492 -615 13407 -13530 -615 -615 0 14883 -13653 0 0zm-44403 24231l-9102 7995 -7626 -8610 16728 615zm-43420 -13284l-369 0 -15744 -738 -369 -18327 16482 19065 0 0zm-16236 10947l26815 1230 15129 16851 -32473 13776 -9348 -31734 -123 -123zm48832 50923c-12915,-492 -25215,-3321 -36532,-7626l37639 -15991 35178 19066c-11562,3444 -23616,5043 -36285,4551zm9840 -32227l18204 -15744 23370 984 -12054 30874 -29520 -15991 0 -123zm39237 23002l15252 -38500 40468 -12300c-12177,22755 -32103,40713 -55720,50800l0 0z"/>
  <path class="fil5" d="M3600738 2474662c2706,-71833 -53629,-132473 -125461,-135179l-4920 0c-70480,0 -127676,55105 -130259,125462 -2829,71832 53383,132472 125216,135301l5043 0c70602,0 127798,-55105 130381,-125584zm-16113 -492c-369,12423 -3075,24477 -7257,35424l-14022 -37146 17343 -32473c2952,10825 4428,22264 3936,34195l0 0zm-38377 -2952l-11685 11439 984 -18696 369 -4551 10332 11808zm-9471 -28291l1230 -21771 31120 15744 -14145 26692 -18205 -20665zm17098 37270l12423 33087 -34195 10209 1476 -23493 0 0 20296 -19803 0 0zm22755 -52768l-39238 -19680 0 -246 -246 0 -17220 -40590c25707,12300 46003,34194 56704,60639l0 -123zm-52891 -21894l-22878 -1107 -17835 -19188 26937 -11931 13776 32226 0 0zm1722 12669l-246 12177 -12300 -13038 12546 861 0 0zm-42066 -14637l-20787 -984 10332 -9348 10455 10332zm-8856 -48093c11562,492 22509,2583 32964,6150l-34071 15252 -32596 -17466c10948,-2952 22018,-4305 33703,-3936zm-11193 29151l-17467 16851 0 246 -22878 -738 16359 -29151 23986 12792 0 0zm-29767 28905l-14883 14391 738 -14268 14145 -123 0 0zm-2214 -51045l-21402 38253 -43665 21525c12792,-27675 36285,-49446 65067,-59778zm-32226 101968l6396 -6642 -369 13653 -5904 -6888 -123 -123zm5535 24846l-861 28536 -30627 -15498 17712 -28782 13776 15744zm-13407 -34932l-15129 -23986 30627 -15129 -738 24846 -14760 14269 0 0zm-35178 11193c492,-12177 2706,-23617 6765,-34564l20418 32596 -22878 37392c-3198,-11193 -4797,-23124 -4305,-35424zm7380 44895l41082 20787 11562 39115c-24108,-13038 -42804,-34195 -52644,-59902zm53997 -64207l0 -1107 32965 -31611 45264 2214 11439 12423 17712 18819 -1722 30136 -984 17343 -32226 29643 -40591 -1476 -32964 -37761 1230 -38746 -123 123zm103813 65068l-123 369 0 492 -738 13407 -13407 -615 -738 0 14883 -13653 123 0zm-44403 24108l-9102 7995 -7626 -8610 16728 615zm-43543 -13284l-246 0 -15744 -615 -492 -18327 16605 18942 -123 0zm-16113 11070l26691 1107 15130 16852 -32350 13899 -9471 -31858 0 0zm48709 50923c-12792,-492 -25093,-3321 -36409,-7626l37639 -16113 35178 19188c-11562,3321 -23739,5043 -36408,4551zm9963 -32349l18081 -15622 23370 984 -12054 30751 -29520 -15990 123 -123zm39237 23124l15252 -38623 40468 -12177c-12300,22632 -32104,40591 -55720,50677l0 123z"/>
  <path class="fil5" d="M3551292 2927183c2706,-71832 -53629,-132472 -125585,-135178l-4797 0c-70602,0 -127798,55104 -130381,125461 -2706,71833 53505,132472 125338,135179l5043 0c70480,0 127675,-54982 130382,-125462zm-16114 -492c-369,12423 -3075,24478 -7257,35548l-14022 -37147 17343 -32595c2952,10824 4428,22386 3936,34194l0 0zm-38376 -2952l-11685 11439 984 -18696 246 -4551 10455 11808zm-9471 -28413l1230 -21648 31119 15744 -14145 26691 -18204 -20787zm17097 37392l12423 33088 -34194 10209 1476 -23493 0 0 20295 -19804 0 0zm22755 -52767l-39237 -19680 0 -246 -246 0 -17220 -40591c25707,12300 46002,34195 56703,60640l0 -123zm-52890 -21894l-22878 -1107 -17836 -19189 26938 -11931 13776 32227 0 0zm1722 12669l-246 12177 -12300 -13038 12669 861 -123 0zm-42067 -14760l-20787 -861 10332 -9226 10455 10210 0 -123zm-8856 -47971c11562,492 22509,2583 32965,6150l-34072 15252 -32595 -17466c10824,-2952 22017,-4182 33702,-3936zm-11193 29151l-17466 16852 0 246 -22878 -615 16359 -29275 23985 12792zm-29766 28906l-14883 14391 738 -14268 14145 -123 0 0zm-2214 -51046l-21525 38254 -43543 21525c12792,-27676 36286,-49447 65068,-59779zm-32227 101968l6397 -6642 -369 13653 -5905 -7011 -123 0zm5536 24846l-861 28537 -30628 -15498 17712 -28783 13777 15744zm-13408 -34932l-15129 -23985 30628 -15129 -738 24846 -14761 14268 0 0zm-35178 11193c369,-12177 2706,-23616 6765,-34563l20418 32595 -22878 37270c-3321,-11194 -4920,-23002 -4305,-35302zm7380 44896l41083 20787 11439 38991c-23986,-12915 -42805,-34194 -52522,-59778zm53998 -64207l0 -1107 32964 -31611 45264 2214 11440 12546 17712 18696 -1722 30135 -984 17343 -32227 29644 -40590 -1353 -32964 -37762 1230 -38868 -123 123zm103813 65068l-123 246 0 615 -738 13407 -13407 -738 -738 0 15006 -13653 0 123zm-44404 24108l-9102 7872 -7626 -8487 16728 615zm-43542 -13284l-246 0 -15744 -615 -492 -18327 16605 18942 -123 0zm-16113 11070l26691 1107 15129 16851 -32349 13776 -9471 -31734 0 0zm48708 50922c-12792,-492 -25092,-3321 -36408,-7626l37638 -16113 35179 19188c-11563,3321 -23740,5043 -36409,4551zm9963 -32349l18081 -15744 23371 984 -11931 30873 -29521 -15990 0 -123zm39238 23001l15252 -38499 40590 -12177c-12300,22632 -32103,40590 -55842,50676l0 0z"/>
  <path class="fil5" d="M3282042 3293358c2706,-71710 -53752,-132349 -125584,-135178l-4797 0c-70603,0 -127799,55227 -130382,125584 -2706,71833 53506,132472 125338,135178l5044 0c70479,0 127798,-54981 130381,-125584zm-16113 -369c-492,12423 -3075,24477 -7380,35547l-13900 -37146 17344 -32595c2952,10824 4428,22263 3813,34194l123 0zm-38377 -2952l-11685 11316 984 -18573 246 -4551 10455 11808zm-9471 -28413l1107 -21649 31120 15622 -14023 26814 -18204 -20787zm16974 37392l12546 32964 -34194 10209 1353 -23493 0 0 20295 -19680zm22756 -52768l-39238 -19803 0 -123 -123 0 -17343 -40713c25707,12423 46002,34194 56704,60639l0 0zm-52891 -21894l-22755 -1107 -17835 -19188 26814 -12054 13899 32349 -123 0zm1845 12669l-369 12177 -12300 -13161 12669 984 0 0zm-42189 -14760l-20788 -984 10456 -9225 10332 10209zm-8733 -47970c11439,369 22509,2583 32841,6150l-33948 15252 -32596 -17466c10824,-2952 22017,-4305 33703,-3936l0 0zm-11194 29151l-17466 16851 0 123 -22878 -615 16359 -29274 23985 12915 0 0zm-29889 28905l-14883 14391 861 -14268 14145 -123 -123 0zm-2214 -51168l-21402 38253 -43543 21525c12793,-27675 36286,-49446 64945,-59778zm-32103 101968l6273 -6642 -246 13653 -6027 -7011zm5535 24846l-861 28536 -30627 -15375 17589 -28782 13899 15621zm-13530 -34932l-15006 -23863 30627 -15129 -861 24847 -14760 14145zm-35179 11316c615,-12177 2829,-23739 6888,-34564l20419 32596 -22879 37269c-3321,-11193 -4920,-23001 -4428,-35301l0 0zm7503 44895l40960 20788 11562 38991c-23985,-12915 -42804,-34194 -52522,-59779zm53998 -64206l0 -1230 32841 -31612 45265 2337 11562 12423 17712 18820 -1845 30135 -861 17343 -32349 29643 -40468 -1476 -32964 -37761 1230 -38745 -123 123zm103690 64944l-123 369 0 492 -615 13407 -13530 -615 -615 0 14883 -13653 0 0zm-44403 24232l-8980 7872 -7626 -8610 16606 738zm-43420 -13285l-369 0 -15621 -738 -492 -18327 16482 18942 0 123zm-16236 10948l26814 1107 15129 16974 -32472 13776 -9348 -31734 -123 -123zm48831 50922c-12792,-369 -25215,-3198 -36531,-7626l37638 -15990 35179 19065c-11562,3444 -23616,5043 -36286,4551zm9841 -32226l18204 -15744 23370 984 -12054 30873 -29520 -16113zm39237 23001l15252 -38622 40591 -12178c-12301,22756 -32104,40714 -55843,50800z"/>
  <path class="fil5" d="M2863838 3475646c2706,-71833 -53629,-132473 -125462,-135179l-4920 0c-70602,0 -127798,55105 -130381,125462 -2706,71832 53506,132472 125338,135178l5043 0c70480,0 127676,-54982 130382,-125461l0 0zm-15991 -492c-615,12546 -3198,24477 -7380,35547l-13899 -37146 17343 -32596c2952,10825 4305,22387 3936,34195zm-38499 -2952l-11685 11439 984 -18696 246 -4551 10455 11808 0 0zm-9348 -28291l1107 -21771 31119 15744 -14145 26692 -18081 -20665zm16974 37270l12546 33087 -34194 10209 1476 -23493 0 0 20172 -19803 0 0zm22632 -52768l-39237 -19680 0 -246 -123 0 -17343 -40590c25830,12300 46125,34194 56826,60639l-123 -123zm-52767 -21894l-22878 -1107 -17836 -19188 26815 -11931 13899 32226 0 0zm1722 12669l-246 12177 -12300 -13038 12669 861 -123 0zm-42190 -14760l-20664 -861 10332 -9225 10332 10209 0 -123zm-8733 -47970c11562,615 22633,2583 32965,6150l-34072 15375 -32595 -17589c10824,-2952 22017,-4182 33702,-3936zm-11193 29151l-17466 16851 0 246 -22878 -615 16482 -29274 23862 12792zm-29766 28905l-15006 14514 861 -14268 14145 -246zm-2337 -51045l-21279 38253 -43666 21525c12792,-27675 36286,-49446 64945,-59778zm-32103 101968l6396 -6642 -369 13653 -6027 -7011zm5535 24846l-738 28536 -30751 -15498 17713 -28782 13776 15744zm-13407 -34932l-15130 -23986 30628 -15129 -738 24846 -14760 14269 0 0zm-35179 11193c492,-12177 2706,-23617 6765,-34564l20418 32596 -22878 37392c-3198,-11316 -4797,-23124 -4305,-35424zm7380 44895l41083 20787 11562 38992c-23985,-12915 -42805,-34072 -52645,-59779zm53998 -64207l0 -1107 32964 -31611 45142 2214 11562 12546 17712 18696 -1722 30136 -1107 17343 -32226 29766 -40591 -1476 -32841 -37761 1107 -38746 0 0zm103813 65068l-123 246 0 615 -615 13407 -13530 -738 -615 0 14883 -13530 0 0zm-44404 24108l-9102 7995 -7626 -8610 16728 615zm-43419 -13161l-369 0 -15744 -738 -492 -18327 16605 19065zm-16236 10947l26691 1107 15129 16852 -32472 13776 -9348 -31735 0 0zm48831 50923c-12915,-492 -25215,-3321 -36531,-7626l37515 -16113 35179 19188c-11439,3321 -23617,5043 -36286,4551l123 0zm9840 -32349l18082 -15622 23370 984 -11931 30751 -29521 -15990 0 -123zm39238 23124l15252 -38623 40467 -12177c-12300,22632 -32103,40591 -55719,50677l0 123z"/>
  <path class="fil4" d="M2207503 3445018l-46371 14515 0 0 -1722 -6273 -1476 -6520 -1353 -6642 -738 -6642 -615 -6396 -123 -6396 123 -6273 615 -6396 738 -6273 984 -6273 1353 -6150 1599 -6150 2091 -6027 2337 -6150 2583 -5658 2583 -5535 3075 -5535 3444 -5536 3567 -5043 3567 -4674 4059 -5166 4551 -4797 4059 -4059 5043 -4551 5043 -4059 5289 -3813 5166 -3321 5781 -3321 6027 -3198 5781 -2706 6273 -2460 6273 -2091 14638 46371 -4305 1353 -3690 1476 -3937 1722 -3690 1845 -3444 2092 -3567 2337 -3075 2214 -3075 2460 -2706 2583 -3198 3075 -2583 2706 -2460 2952 -2583 3321 -2214 3444 -2214 3321 -1722 3198 -1968 3936 -1599 3321 -1353 3690 -1107 3690 -861 3936 -984 3813 -738 3936 -492 4059 -123 4059 -123 4059 123 3936 123 4305 492 3690 738 4059 1107 4182 1107 4059 0 0 -123 369zm102952 53998l14637 46371 0 0 -6519 1722 -6150 1476 -7011 1230 -6642 862 -6273 492 -6519 123 -6273 -123 -6396 -492 -6273 -862 -6273 -984 -6642 -1476 -5659 -1722 -5781 -1722 -6027 -2337 -5781 -2460 -5904 -2829 -5289 -3198 -5289 -3198 -4920 -3444 -5043 -3690 -5166 -4182 -4797 -4551 -4059 -4428 -4182 -4305 -4059 -5043 -4182 -5658 -3198 -5412 -3321 -5289 -2952 -5781 -2829 -6027 -2460 -6396 -2091 -6150 46371 -14638 1476 4305 1353 3691 1722 3690 1845 3567 2337 3813 2214 3690 1968 2829 2460 2706 2829 3444 3198 3075 2706 2583 2583 2214 3444 2460 3321 2460 3321 1968 3690 2091 3076 1599 3690 1476 3813 1599 3813 1107 4059 1107 3444 861 3813 738 4059 369 4059 246 4059 123 4182 -123 4059 -246 4059 -369 3690 -738 4305 -1107 4182 -1107 0 0 123 0zm53998 -102952l46371 -14637 0 0 1722 6519 1476 6150 1353 7011 738 6642 492 6273 123 6519 -123 6273 -492 6396 -738 6273 -984 6150 -1476 6643 -1845 5781 -1722 5781 -2337 6027 -2337 5658 -2952 6027 -3075 5289 -3321 5166 -3321 5043 -3813 5043 -4182 5166 -4551 4797 -4305 4059 -4428 4182 -5043 4059 -5658 4182 -5412 3321 -5290 3198 -5904 2952 -5904 2952 -6396 2460 -6150 2091 -14514 -46371 4182 -1476 3690 -1476 3813 -1599 3567 -1968 3690 -2214 3690 -2337 2829 -1845 2706 -2460 3444 -2952 3075 -3075 2583 -2706 2214 -2583 2461 -3444 2460 -3444 1968 -3198 2091 -3813 1599 -3075 1476 -3690 1599 -3691 1107 -3936 1230 -4059 738 -3444 615 -3813 615 -4059 123 -4059 123 -4059 -123 -4182 -123 -4059 -615 -4059 -615 -3690 -1107 -4182 -1107 -4305 0 0 0 -123zm-102952 -53998l-14638 -46371 0 0 6274 -1722 6519 -1476 6642 -1230 6642 -861 6519 -492 6273 -123 6396 123 6273 492 6396 861 6150 984 6519 1476 5781 1599 6027 1968 6150 2337 5289 2337 6273 2952 5167 3075 5166 3075 5289 3690 4797 3567 5166 4059 4920 4797 4059 4305 3936 4182 4305 5166 4182 5658 3198 5413 3321 5289 2952 5781 2829 6027 2460 6396 2091 6150 -46371 14637 -1476 -4305 -1353 -3690 -1722 -3690 -1968 -3567 -2214 -3813 -2337 -3690 -1968 -2829 -2584 -2829 -2706 -3321 -3075 -3075 -2706 -2337 -2829 -2460 -3444 -2583 -3075 -2214 -3567 -2092 -3567 -2091 -3321 -1599 -3690 -1599 -3567 -1476 -3813 -984 -4182 -1230 -3567 -861 -3813 -738 -4059 -369 -4059 -246 -4059 -123 -4059 123 -4182 246 -3813 369 -3936 738 -4305 1107 -4059 1107 0 0 123 0z"/>
  <path id="_1_22" class="fil3" d="M2254244 3318942c-56212,17466 -87454,77245 -69865,133334 17466,56088 77122,87453 133456,69864 56089,-17466 87331,-77122 69865,-133333 -17589,-56089 -77368,-87454 -133456,-69865z"/>
  <path class="fil5" d="M2416359 3425338c2706,-71709 -53751,-132349 -125584,-135178l-4797 0c-70603,0 -127798,55227 -130381,125584 -2829,71833 53505,132472 125338,135179l5043 0c70480,0 127675,-54982 130258,-125585l123 0zm-16113 -369c-492,12423 -3075,24477 -7257,35548l-14022 -37147 17343 -32595c2952,10824 4428,22263 3936,34194l0 0zm-38376 -2952l-11685 11316 984 -18573 246 -4674 10455 11931zm-9471 -28413l1230 -21771 31119 15744 -14145 26814 -18204 -20787zm17097 37269l12423 33088 -34195 10209 1476 -23493 0 0 20296 -19804 0 0zm22632 -52644l-39114 -19803 0 -123 -246 0 -17344 -40714c25831,12423 46126,34195 56827,60640l-123 0zm-52768 -21894l-22878 -1107 -17958 -19189 26937 -12054 13776 32350 123 0zm1722 12669l-246 12177 -12300 -13161 12669 984 -123 0zm-42189 -14760l-20664 -984 10332 -9226 10332 10210zm-8733 -47971c11562,369 22632,2583 32964,6150l-34071 15252 -32595 -17466c10824,-2952 22017,-4305 33702,-3936l0 0zm-11193 29151l-17466 16852 0 123 -22879 -615 16360 -29275 23985 12915 0 0zm-29767 28906l-15006 14391 861 -14268 14145 -123zm-2337 -51169l-21279 38254 -43665 21525c12792,-27676 36285,-49447 64944,-59779zm-32103 101968l6396 -6642 -369 13653 -6027 -7011zm5535 24846l-861 28537 -30627 -15375 17712 -28906 13776 15744zm-13407 -34809l-15129 -23985 30750 -15129 -861 24846 -14760 14268 0 0zm-35178 11193c492,-12177 2706,-23739 6765,-34563l20418 32595 -22878 37270c-3198,-11194 -4797,-23002 -4305,-35302zm7380 44896l41082 20787 11439 38991c-23985,-12915 -42804,-34194 -52521,-59778zm53997 -64207l0 -1230 32965 -31611 45141 2337 11562 12423 17712 18819 -1722 30135 -984 17343 -32349 29644 -40590 -1476 -32842 -37762 1107 -38745 0 123zm103813 64945l-123 369 0 492 -738 13407 -13407 -615 -615 0 14883 -13653 0 0zm-44403 24231l-9102 7872 -7626 -8610 16728 738zm-43543 -13284l-246 0 -15744 -738 -492 -18327 16482 18942 0 123zm-16113 10947l26692 1107 15129 16974 -32473 13776 -9348 -31734 0 -123zm48832 50922c-12915,-369 -25215,-3198 -36532,-7626l37516 -15990 35178 19065c-11439,3444 -23616,5043 -36285,4551l123 0zm9840 -32226l18081 -15744 23370 984 -11931 30750 -29520 -15990zm39237 23001l15252 -38622 40591 -12177c-12423,22755 -32103,40713 -55843,50799l0 0z"/>
  <path class="fil5" d="M2047970 3153137c2707,-71833 -53628,-132473 -125584,-135179l-4797 0c-70480,0 -127798,55105 -130381,125461 -2706,71833 53505,132473 125338,135302l5043 0c70480,0 127798,-54982 130381,-125584zm-16113 -369c-369,12423 -2952,24477 -7257,35424l-13899 -37146 17220 -32473c2952,10824 4428,22263 3936,34195l0 0zm-38376 -3076l-11685 11440 984 -18697 369 -4551 10332 11808 0 0zm-9348 -28290l1107 -21771 31119 15744 -14145 26691 -18081 -20664zm16974 37270l12423 33087 -34194 10209 1476 -23493 0 0 20295 -19803 0 0zm22755 -52645l-39237 -19803 0 -123 -123 0 -17343 -40714c25707,12301 46002,34195 56703,60640l0 0zm-52890 -21894l-22879 -1107 -17835 -19188 26938 -11931 13776 32226 0 0zm1722 12546l-246 12300 -12300 -13161 12669 984 -123 -123zm-42067 -14637l-20787 -984 10332 -9225 10455 10209zm-8856 -48094c11562,492 22509,2706 32965,6273l-34072 15253 -32595 -17467c10947,-2952 22140,-4305 33702,-3936l0 -123zm-11193 29275l-17466 16851 0 123 -22878 -615 16359 -29274 23985 12915 0 0zm-29766 28782l-14883 14514 738 -14268 14145 -246 0 0zm-2214 -51046l-21402 38254 -43666 21525c12792,-27675 36285,-49446 65068,-59779zm-32104 101968l6274 -6642 -369 13653 -5905 -7011 0 0zm5413 24847l-738 28536 -30751 -15375 17712 -28905 13777 15744zm-13408 -34933l-15129 -23862 30751 -15129 -861 24723 -14761 14268zm-35178 11316c492,-12177 2706,-23739 6765,-34563l20418 32595 -22878 37270c-3321,-11193 -4920,-23001 -4305,-35302l0 0zm7380 44896l41083 20664 11562 39114c-24109,-12915 -42805,-34194 -52645,-59778zm53998 -64207l0 -1230 32964 -31611 45264 2337 11440 12423 17712 18819 -1722 30136 -984 17343 -32227 29643 -40590 -1476 -32841 -37761 1107 -38746 -123 123zm103813 64945l-123 369 0 369 -738 13530 -13407 -615 -615 0 14883 -13653 0 0zm-44404 24231l-9102 7872 -7626 -8610 16728 738zm-43419 -13284l-369 0 -15744 -738 -492 -18327 16605 18942 0 123zm-16236 10947l26814 1107 15006 16851 -32349 13899 -9471 -31734 0 -123zm48708 50923c-12792,-492 -25092,-3321 -36408,-7626l37638 -16114 35178 19189c-11562,3444 -23739,5043 -36408,4551zm9963 -32227l18204 -15744 23248 984 -11931 30873 -29521 -16113 0 0zm39238 23002l15252 -38623 40467 -12177c-12300,22755 -32103,40713 -55719,50800z"/>
  <path class="fil5" d="M1867159 2732595c2829,-71832 -53629,-132472 -125462,-135178l-4920 0c-70479,0 -127675,55105 -130381,125461 -2706,71833 53629,132473 125338,135179l5043 0c70603,0 127799,-54859 130382,-125462l0 0zm-15990 -492c-492,12423 -3199,24478 -7381,35548l-13899 -37147 17220 -32595c2953,10824 4429,22386 3937,34194l123 0zm-38500 -2952l-11685 11439 984 -18696 369 -4551 10332 11808zm-9348 -28290l1107 -21771 31119 15744 -14145 26691 -18081 -20664zm16974 37269l12546 33088 -34194 10209 1353 -23616 0 0 20295 -19681 0 0zm22755 -52644l-39237 -19803 0 -123 -123 0 -17343 -40714c25707,12300 46002,34195 56703,60640l0 0zm-52890 -21894l-22878 -1230 -17836 -19066 26938 -12054 13776 32350zm1845 12546l-369 12177 -12300 -13161 12669 984 0 0zm-42190 -14637l-20787 -984 10332 -9225 10455 10209zm-8733 -48094c11563,492 22510,2706 32842,6273l-34072 15252 -32595 -17466c10824,-2952 22140,-4305 33702,-3936l123 -123zm-11193 29274l-17589 16852 0 123 -22755 -738 16236 -29152 24108 12792 0 123zm-29889 28783l-14883 14391 861 -14268 14022 -123zm-2214 -51046l-21525 38254 -43543 21525c12792,-27675 36286,-49447 65068,-59779zm-32103 101968l6273 -6642 -246 13653 -6027 -6888 0 -123zm5535 24846l-861 28537 -30628 -15375 17713 -28906 13776 15744zm-13530 -34932l-15130 -23985 30751 -15006 -861 24723 -14760 14268zm-35179 11193c492,-12177 2706,-23616 6765,-34563l20418 32595 -22755 37270c-3321,-11194 -4920,-23002 -4428,-35302zm7503 44896l40960 20787 11562 39114c-23985,-13038 -42805,-34194 -52522,-59901zm53875 -64084l0 -1230 32964 -31611 45265 2337 11562 12546 17712 18696 -1845 30135 -984 17467 -32226 29643 -40591 -1476 -32841 -37762 1107 -38745 -123 0zm103813 64945l-123 369 0 369 -738 13530 -13407 -615 -615 0 14883 -13653 0 0zm-44404 24108l-9102 7995 -7626 -8610 16728 615zm-43419 -13284l-369 0 -15621 -615 -492 -18327 16482 18942zm-16236 11070l26814 1107 15006 16851 -32472 13899 -9348 -31734 0 -123zm48831 50922c-12792,-492 -25215,-3321 -36531,-7626l37638 -16113 35179 19188c-11439,3444 -23617,5043 -36286,4551zm9840 -32226l18205 -15744 23247 861 -11931 30873 -29521 -16113 0 123zm39238 23001l15252 -38622 40590 -12177c-12300,22755 -32103,40713 -55719,50676l-123 123z"/>
  <path class="fil5" d="M1922263 2280566c2829,-71710 -53628,-132473 -125461,-135179l-4920 0c-70480,0 -127798,55105 -130381,125462 -2706,71832 53628,132472 125338,135301l5043 0c70480,0 127798,-54981 130381,-125584l0 0zm-15990 -492c-492,12546 -3075,24477 -7380,35547l-13899 -37146 17343 -32596c2829,10948 4305,22387 3813,34195l123 0zm-38499 -2952l-11685 11439 984 -18696 369 -4551 10332 11808 0 0zm-9348 -28291l1107 -21771 31119 15744 -14022 26692 -18204 -20665zm16974 37270l12546 33087 -34194 10209 1476 -23493 0 0 20295 -19803 -123 0zm22755 -52768l-39237 -19680 0 -123 -123 0 -17344 -40713c25831,12300 46126,34194 56704,60639l0 -123zm-52891 -21894l-22878 -1107 -17835 -19065 26937 -12054 13776 32226 0 0zm1845 12669l-369 12300 -12300 -13161 12669 861 0 0zm-42189 -14637l-20787 -984 10455 -9225 10332 10209 0 0zm-8733 -48093c11439,615 22509,2706 32964,6273l-34071 15252 -32595 -17589c10824,-2952 22017,-4182 33702,-3936zm-11193 29274l-17466 16851 0 123 -22879 -615 16360 -29274 23985 12915zm-29766 28782l-15007 14391 861 -14268 14146 -123zm-2337 -51045l-21403 38253 -43665 21525c12792,-27675 36285,-49446 65068,-59778l0 0zm-32104 101968l6273 -6642 -246 13653 -6027 -7011zm5535 24846l-861 28536 -30627 -15375 17589 -28905 13899 15744zm-13530 -34932l-15006 -23863 30627 -15129 -738 24723 -14760 14269 -123 0zm-35178 11316c492,-12300 2829,-23740 6888,-34564l20295 32473 -22755 37392c-3321,-11193 -4920,-23124 -4428,-35301zm7503 44772l40959 20787 11562 39115c-23985,-13038 -42804,-34195 -52521,-59902zm53997 -64083l0 -1230 32842 -31612 45264 2337 11562 12423 17712 18820 -1845 30135 -984 17343 -32226 29643 -40590 -1476 -32842 -37761 1107 -38745 0 123zm103690 64944l-123 369 0 492 -615 13407 -13530 -615 -615 0 14883 -13653 0 0zm-44403 24108l-8979 7995 -7626 -8610 16605 615zm-43419 -13284l-369 0 -15622 -615 -615 -18327 16606 18942zm-16237 11070l26815 1107 15006 16852 -32350 13899 -9471 -31735 0 -123zm48832 50923c-12792,-492 -25092,-3321 -36531,-7626l37638 -15990 35178 19065c-11562,3444 -23616,5043 -36285,4551l0 0zm9840 -32226l18204 -15745 23370 984 -12054 30751 -29520 -15990 0 0zm39237 23001l15253 -38623 40590 -12177c-12300,22756 -32103,40714 -55720,50677l-123 123z"/>
  <path class="fil5" d="M2195449 1918204c2829,-71833 -53629,-132472 -125461,-135178l-4920 0c-70480,0 -127676,55104 -130259,125461 -2706,71833 53506,132472 125216,135178l5043 0c70602,0 127798,-54981 130381,-125461zm-15990 -492c-492,12546 -3075,24477 -7257,35548l-14022 -37147 17343 -32595c2952,10947 4428,22386 3936,34194zm-38500 -2952l-11562 11439 984 -18696 246 -4551 10332 11808zm-9348 -28290l1107 -21771 31243 15744 -14146 26814 -18204 -20787zm16974 37269l12547 33088 -34195 10209 1476 -23494 0 0 20295 -19803 -123 0zm22756 -52644l-39238 -19803 0 -123 -123 0 -17343 -40714c25830,12300 46003,34194 56827,60640l-123 0zm-52891 -21895l-22755 -1230 -17835 -19065 26937 -12054 13776 32349 -123 0zm1845 12547l-369 12177 -12300 -13038 12669 861 0 0zm-42189 -14761l-20787 -861 10332 -9225 10455 10209 0 -123zm-8733 -47970c11562,615 22509,2583 32841,6150l-33948 15252 -32596 -17466c10824,-2952 22018,-4182 33703,-3936zm-11193 29274l-17590 16851 0 123 -22755 -615 16359 -29151 23986 12792zm-29890 28783l-14883 14514 861 -14268 14145 -246 -123 0zm-2214 -51046l-21402 38253 -43665 21649c12792,-27799 36408,-49570 65067,-59902zm-32103 101968l6396 -6642 -369 13653 -6027 -7011zm5535 24846l-861 28537 -30627 -15499 17712 -28782 13776 15744zm-13407 -34809l-15129 -24108 30627 -15006 -861 24723 -14637 14268 0 123zm-35301 11070c492,-12177 2829,-23616 6765,-34563l20541 32595 -22878 37392c-3321,-11316 -4920,-23124 -4428,-35424zm7503 45019l41082 20664 11439 39114c-23985,-13038 -42804,-34194 -52521,-59778zm53997 -64330l0 -1107 32841 -31611 45265 2214 11439 12546 17712 18696 -1722 30135 -984 17343 -32226 29767 -40591 -1476 -32841 -37762 1107 -38745 0 0zm103813 65068l-246 246 0 615 -615 13407 -13407 -738 -738 0 15006 -13653 0 123zm-44526 24108l-9102 7995 -7626 -8610 16728 615zm-43420 -13284l-246 0 -15744 -615 -492 -18328 16605 18943 -123 0zm-16236 11070l26814 1107 15130 16851 -32473 13776 -9348 -31734 -123 0zm48832 50922c-12793,-492 -25093,-3321 -36532,-7626l37639 -16113 35178 19188c-11439,3321 -23616,5043 -36285,4551zm9963 -32226l18081 -15744 23370 984 -11931 30873 -29520 -16113 0 0zm39114 23001l15252 -38622 40591 -12177c-12300,22755 -32104,40713 -55843,50799l0 0z"/>
  <path class="fil1" d="M2139975 2312054l246 583518 171833 171956 583641 -246 171710 -171956 0 -583518 -172079 -171956 -583395 246 -172079 171833 123 123zm678475 -60393l-429520 123 -44773 -69250 519189 0 -44896 69127zm-495818 -61870l46249 71710 -107503 110701 -74047 -47110 135301 -135301 0 0zm702214 669250l-69126 -44035 0 -422878 69003 -44281 123 511194zm-621402 74292l0 0 0 0 47110 -72570 306642 -123 47109 72693 -400861 0 0 0zm-220787 -585240l69127 44281 246 422755 -69250 44281 0 -511317 -123 0zm651168 413162l-75276 77367 -309472 0 -80196 -82410 -123 -305166 80319 -82411 309349 0 80319 82411 123 305043 -615 738 -4305 4305 -123 123zm99754 -354982l0 394711 -72693 -46494 0 -301845 72693 -46372 0 0zm-659532 394711l0 -394588 72693 46372 0 301845 -72693 46371zm82165 -368389l-75892 -48339 100861 -103690 49200 75769 -74169 76260 0 0zm-123 342190l74292 76384 -48954 75645 -100984 -103567 75523 -48462 123 0zm421156 76138l74416 -76138 75768 48216 -100984 103690 -49200 -75768zm74170 -418451l-74416 -76383 49200 -75892 101107 103936 -75891 48339 0 0zm-94465 -86101l-306519 123 -47233 -72570 400861 -123 -47109 72570zm-495572 489053l107749 110578 -46495 71587 -135055 -135178 73801 -46987 0 0zm82902 189299l44896 -69249 429520 -123 44773 69126 -519189 246zm540714 -7257l-46249 -71710 107380 -110578 73924 46987 -135055 135301 0 0zm61131 -645387l-107626 -110824 46372 -71464 135178 135055 -73924 47233z"/>
 </g>
</svg>
