<?xml version="1.0" encoding="UTF-8"?>
<!DOCTYPE svg PUBLIC "-//W3C//DTD SVG 1.1//EN" "http://www.w3.org/Graphics/SVG/1.1/DTD/svg11.dtd">
<!-- Creator: CorelDRAW X7 -->
<svg xmlns="http://www.w3.org/2000/svg" xml:space="preserve" width="50px" height="50px" version="1.1" style="shape-rendering:geometricPrecision; text-rendering:geometricPrecision; image-rendering:optimizeQuality; fill-rule:evenodd; clip-rule:evenodd"
viewBox="0 0 747146 747164"
 xmlns:xlink="http://www.w3.org/1999/xlink">
 <defs>
  <style type="text/css">
   <![CDATA[
    .fil0 {fill:none}
    .fil1 {fill:black}
   ]]>
  </style>
 </defs>
 <g id="Layer_x0020_1">
  <metadata id="CorelCorpID_0Corel-Layer"/>
  <rect class="fil0" x="-1" y="2" width="747150" height="747157"/>
  <path class="fil1" d="M373582 260927c62214,0 112655,50441 112655,112655 0,62214 -50441,112655 -112655,112655 -57537,0 -105013,-43135 -111808,-98836 -3106,6883 -10007,11596 -18038,11596l-759 0c-10925,-424 -19467,-9637 -19061,-20544 406,-10695 9107,-19061 19803,-19061l759 0c7130,282 13236,4324 16519,10131 2136,-60326 51730,-108596 112585,-108596zm-3371 200919l3406 88c47671,0 86464,-37328 88264,-84999 1800,-48676 -36304,-89799 -84946,-91635l-3406 -35c-47671,0 -86464,37311 -88264,84999 -1853,48624 36269,89782 84946,91582zm-40911 -45553l8154 27604 1553 4994 4801 -2029 26597 -11455 1006 -441 1006 565 24762 13519 4148 2277 1729 -4395 10643 -27233 423 -1129 1094 -283 28592 -8559 5277 -1624 -2082 -5524 -9866 -26245 -371 -1041 477 -830 12248 -23014 1959 -3671 -4041 -1995 -27392 -13925 -724 0 -247 -476 -547 -283 0 -918 -12089 -28450 -1712 -4148 -4007 1747 -24038 10731 -953 477 -1042 -565 -22961 -12355 -2277 -1200 -1412 2436 -15161 27092 -264 511 -759 406 -30639 15232 -2560 1288 1024 1588 14402 23086 759 1200 -759 1235 -16149 26315 -1289 2171 2524 1271 28998 14614 918 476 247 953zm30321 -84752l31910 1642 918 35 600 724 8242 8718 12408 13273 706 723 -71 1006 -1200 21391 -688 12196 -36 882 -723 653 -22874 20985 -688 600 -918 0 -28521 -1076 -953 -36 -671 -723 -23244 -26721 -600 -724 0 -829 794 -27410 0 -35 36 -724 88 -829 600 -653 23156 -22344 759 -812 970 88zm-24920 12443l635 -10166 159 -2206 2153 0 9972 -71 5665 -88 -4112 4006 -10590 10272 -4200 4095 318 -5842zm31839 -19644l7271 -6477 1677 -1482 1518 1553 7289 7254 4236 4235 -6001 -317 -14596 -759 -5524 -283 4130 -3724zm37187 9831l8930 724 2154 159 -89 2170 -159 8596 -70 5630 -3883 -4077 -8683 -9319 -4042 -4359 5842 476zm8013 69132l0 71 0 123 -565 9513 -124 2242 -2241 -36 -9478 -405 -123 0 -389 -36 -5083 -512 3760 -3441 10430 -9566 5560 -5118 -1747 7165zm-32016 18391l-6477 5559 -1748 1483 -1482 -1677 -5366 -6001 -3565 -4077 5366 230 11807 441 5912 247 -4447 3795zm-32228 -8843l-159 0 -88 0 -11066 -388 -2171 -123 -70 -2118 -406 -12972 -194 -6389 4200 4800 11631 13396 3353 3794 -5030 0zm-11278 3248l18797 671 1006 0 635 723 10590 11913 2171 2365 -2930 1289 -22838 9831 -2401 1006 -706 -2436 -6653 -22450 -865 -3036 3194 124zm2560 32881l-4607 -2454c-8630,-4677 -16555,-10995 -22997,-18355 -6442,-7271 -11631,-15831 -15161,-25044l-794 -1959 -35 88 -247 -883 -1077 -2806 318 177 -441 -1483c-1077,-4006 -2048,-8277 -2595,-12760l-53 -53c-476,-4148 -635,-8595 -476,-12990 159,-4236 723,-8560 1447,-12637l0 -35c882,-4201 2083,-8401 3442,-12372l194 -600 -283 158 1165 -2594 565 -1483 71 124 882 -1924c4554,-9954 11207,-18990 19238,-26438 8083,-7395 17596,-13361 27886,-17085l1588 -600 -106 -71 1306 -353 3089 -1129 -194 318 1270 -318c4007,-1112 8119,-1871 12161,-2365 4006,-388 8207,-547 12354,-388 4042,123 8172,635 12090,1306 3989,812 8030,1853 11719,3124l3636 1288 -88 -159 1164 547 724 247 -88 36 3653 1765c9319,4483 17667,10677 24586,18125l52 0c6954,7431 12637,16273 16467,25910l1483 3688 123 -247 406 1518 230 688 -71 -53 918 3495c1041,3989 1924,8154 2400,12196 441,3988 565,8312 441,12601 -158,4430 -723,8878 -1517,12990 -936,4448 -2207,8807 -3689,12849l-2118 5753 -124 -194 -2594 4871c-4483,8207 -10325,15726 -17120,21885 -6689,6125 -14684,11243 -23314,14967l-4130 1783 158 88 -5400 1553c-4042,1094 -8348,2083 -12796,2612 -4430,600 -9072,794 -13484,635 -4518,-158 -9072,-759 -13343,-1606 -4359,-882 -8842,-2276 -13131,-3883l-5312 -1994 159 -70zm37187 -19238l12813 -11084 706 -565 882 36 16520 653 3283 70 -1200 3001 -8596 21849 -917 2348 -2277 -1200 -20809 -11349 -2912 -1641 2507 -2118zm52683 -53530l-8243 8083 -4200 4077 370 -5842 724 -13202 194 -3159 406 -5595 3583 4236 7324 8295 1483 1553 -1641 1554zm-10484 -21762l847 -15319 247 -3513 3071 1606 22009 11031 2118 1042 -1130 2117 -10078 18850 -1482 2877 -2189 -2489 -12813 -14596 -635 -723 35 -883zm16414 25644l8824 23403 936 2312 -2365 689 -24074 7271 -3177 883 177 -3230 953 -16608 0 -918 723 -723 14279 -13908 2524 -2489 1200 3318zm-23491 -49559l-16079 -794 -918 -88 -600 -635 -12672 -13485 -2171 -2347 2930 -1288 19026 -8525 2135 -953 865 2153 9690 22803 1429 3371 -3635 -212zm-40841 -15355l-12354 11914 -671 653 -1006 0 -16078 -406 -3760 -124 1800 -3282 11525 -20668 1148 -1959 1959 1077 16925 9107 2807 1447 -2295 2241zm-48518 53037l4413 -4713 4147 -4447 -194 6124 -282 9672 -159 6036 -3883 -4624 -4112 -5048 -1324 -1553 1394 -1447zm7766 19167l-600 20155 -71 3601 -3247 -1642 -21603 -10925 -2241 -1076 1288 -2154 12513 -20402 1642 -2648 2047 2365 9672 11120 635 670 -35 936zm-13713 -23439l-10608 -16925 -1270 -2118 2188 -1130 21568 -10713 3441 -1712 -123 3830 -530 17561 0 883 -671 723 -10483 10025 -1995 1977 -1517 -2401zm6900 -135987l-776 -18c-10678,0 -19379,8366 -19785,19061 -406,10908 8136,20138 19044,20544l776 18c10696,0 19379,-8366 19785,-19061 406,-10925 -8136,-20138 -19044,-20544zm3883 9866l-2718 -2895 4095 -1835 2083 4906 -3460 -176zm3724 2100l-35 1836 -1871 -1995 1906 159zm-6406 -2241l-3124 -159 1553 -1395 1571 1554zm-1306 -7290c1747,71 3423,406 4994,936l-5171 2312 -4942 -2665c1624,-441 3354,-653 5119,-583zm-1712 4430l-2648 2560 -17 17 -3460 -88 2489 -4448 3636 1959zm-4519 4377l-2276 2207 123 -2189 2153 -18zm-353 -7765l-3247 5824 -6619 3283c1942,-4218 5507,-7519 9866,-9107zm-4871 15496l953 -1006 -53 2082 -900 -1076zm830 3777l-124 4341 -4642 -2347 2683 -4395 2083 2401zm-2048 -5295l-2276 -3636 4641 -2312 -106 3777 -2259 2171zm-5330 1677c71,-1836 424,-3583 1024,-5225l3106 4960 -3477 5665c-494,-1712 -723,-3530 -653,-5400zm1130 6848l6230 3141 1747 5930c-3635,-1976 -6495,-5189 -7977,-9071zm8207 -9760l0 -159 4977 -4819 6883 353 1765 1889 2665 2859 -247 4589 -159 2630 -4906 4518 -6142 -247 -5013 -5736 177 -5877zm15743 9883l0 35 -18 71 -106 2047 -2029 -88 -106 0 2259 -2065zm-6724 3671l-1395 1200 -1147 -1306 2542 106zm-6619 -2030l-35 0 -2383 -88 -88 -2788 2506 2876zm-2436 1695l4042 141 2295 2559 -4907 2118 -1430 -4818zm7395 7713c-1959,-89 -3812,-495 -5541,-1148l5718 -2453 5330 2912c-1747,512 -3600,759 -5507,689zm1501 -4907l2753 -2365 3547 124 -1835 4694 -4465 -2453zm5947 3495l2313 -5860 6159 -1835c-1871,3441 -4853,6159 -8472,7695zm4730 -15726l-1782 1730 176 -2842 36 -688 1570 1800zm-1429 -4324l194 -3283 4730 2383 -2153 4059 -2771 -3159zm2577 5665l1906 5048 -5189 1553 212 -3583 0 0 3071 -3018zm4694 -900c-70,1906 -459,3707 -1094,5401l-2135 -5648 2647 -4959c424,1659 635,3406 582,5206zm-7201 -10095l0 -18 -17 0 -2630 -6195c3901,1889 6989,5189 8595,9213l-5948 -3000zm-52894 22150l-759 0c-10696,0 -19397,8366 -19785,19043 -424,10925 8119,20138 19043,20544l759 18c10696,0 19379,-8366 19785,-19061 406,-10908 -8136,-20121 -19043,-20544zm3900 9866l-2718 -2895 4077 -1818 2100 4907 -3459 -194zm3724 2100l-35 1853 -1889 -2012 1924 159zm-6407 -2241l-3141 -159 1571 -1395 1570 1554zm-1306 -7272c1730,53 3407,388 4977,935l-5171 2295 -4942 -2665c1642,-441 3354,-636 5136,-565zm-1729 4412l-2648 2577 0 0 -3477 -88 2489 -4430 3636 1941zm-4518 4377l-2277 2207 141 -2171 2136 -36zm-336 -7765l-3265 5824 -6601 3283c1924,-4218 5507,-7501 9866,-9107zm-4871 15496l953 -1006 -71 2082 -882 -1076zm812 3777l-124 4341 -4641 -2347 2682 -4377 2083 2383zm-2030 -5277l-2277 -3654 4625 -2312 -106 3777 -2242 2189zm-5347 1676c70,-1835 423,-3600 1023,-5242l3106 4960 -3476 5665c-477,-1712 -724,-3512 -653,-5383zm1129 6830l6230 3142 1748 5948c-3636,-1977 -6495,-5207 -7978,-9090zm8207 -9760l0 -158 4995 -4819 6865 371 1765 1871 2683 2859 -265 4589 -159 2647 -4906 4501 -6142 -230 -4995 -5736 159 -5895zm15743 9884l0 53 0 53 -123 2047 -2030 -70 -106 -18 2259 -2065zm-6724 3671l-1395 1200 -1147 -1306 2542 106zm-6619 -2012l-35 0 -2383 -88 -88 -2789 2506 2877zm-2435 1677l4059 159 2277 2559 -4907 2100 -1429 -4818zm7395 7712c-1942,-70 -3813,-476 -5542,-1147l5718 -2453 5330 2912c-1747,512 -3583,759 -5506,688zm1500 -4906l2753 -2365 3565 141 -1853 4677 -4465 -2453zm5965 3512l2295 -5859 6159 -1854c-1870,3442 -4853,6178 -8454,7713zm4713 -15743l-1765 1730 159 -2842 35 -688 1571 1800zm-1430 -4306l194 -3301 4730 2383 -2153 4059 -2771 -3141zm2577 5665l1906 5030 -5171 1553 194 -3565 0 -18 3071 -3000zm4695 -918c-71,1906 -459,3724 -1095,5401l-2135 -5648 2647 -4942c441,1642 653,3389 583,5189zm-7184 -10095l0 -18 -35 0 -2630 -6177c3918,1871 6989,5189 8613,9213l-5948 -3018zm-39199 35387l-759 0c-10695,0 -19378,8365 -19784,19061 -424,10907 8118,20120 19043,20544l759 0c10696,0 19379,-8366 19803,-19044 388,-10925 -8154,-20138 -19062,-20561zm3901 9883l-2718 -2894 4077 -1836 2100 4907 -3459 -177zm3724 2101l-35 1835 -1889 -1994 1924 159zm-6407 -2242l-3141 -176 1570 -1395 1571 1571zm-1306 -7289c1747,71 3406,388 4977,935l-5171 2295 -4942 -2665c1642,-424 3354,-636 5136,-565zm-1712 4430l-2665 2559 0 18 -3477 -106 2489 -4430 3653 1959zm-4536 4377l-2276 2206 141 -2188 2135 -18zm-335 -7766l-3265 5807 -6601 3283c1924,-4201 5507,-7501 9866,-9090zm-4871 15496l953 -1006 -71 2065 -882 -1059zm812 3760l-124 4341 -4642 -2347 2683 -4377 2083 2383zm-2030 -5278l-2277 -3653 4642 -2294 -124 3777 -2241 2170zm-5348 1677c71,-1835 441,-3600 1024,-5242l3106 4977 -3459 5648c-494,-1694 -741,-3512 -671,-5383zm1130 6830l6230 3142 1765 5948c-3654,-1977 -6513,-5189 -7995,-9090zm8207 -9760l17 -141 4977 -4818 6866 353 1765 1888 2683 2842 -265 4606 -159 2630 -4907 4501 -6124 -230 -5012 -5736 159 -5895zm15743 9902l0 35 0 53 -124 2047 -2029 -70 -89 0 2242 -2065zm-6725 3653l-1376 1200 -1165 -1288 2541 88zm-6600 -2012l-53 0 -2383 -88 -88 -2789 2524 2877zm-2454 1677l4060 158 2294 2560 -4924 2118 -1430 -4836zm7395 7730c-1941,-88 -3812,-494 -5541,-1165l5718 -2453 5330 2912c-1747,512 -3583,777 -5507,706zm1501 -4906l2753 -2383 3565 141 -1853 4695 -4465 -2453zm5965 3494l2294 -5859 6160 -1836c-1871,3442 -4854,6160 -8454,7695zm4712 -15743l-1765 1747 159 -2841 36 -689 1570 1783zm-1429 -4307l194 -3300 4730 2400 -2153 4042 -2771 -3142zm2594 5666l1906 5048 -5189 1553 195 -3583 0 -18 3088 -3000zm4677 -900c-70,1888 -459,3706 -1094,5400l-2118 -5647 2630 -4960c441,1659 653,3389 582,5207zm-7183 -10096l0 -35 -35 0 -2630 -6177c3918,1888 6989,5189 8613,9213l-5948 -3001zm2242 63273l0 -176 0 -18 -71 -2136 -18 -176 -17 -159c-89,-865 -265,-1712 -477,-2542l-2647 4960 2135 5648c636,-1695 1024,-3513 1095,-5401zm-12708 -10590l-2718 -2912 4077 -1818 2083 4907 -3442 -177zm3724 2083l-35 1853 -1889 -2012 1924 159zm-6407 -2224l-3141 -176 1553 -1395 1588 1571zm-1306 -7289c1730,71 3407,388 4977,936l-5171 2294 -4942 -2665c1624,-424 3354,-635 5136,-565zm-1729 4430l-2648 2559 -17 18 -3460 -106 2489 -4430 3636 1959zm-4519 4377l-2276 2206 141 -2188 2135 -18zm-353 -7766l-3247 5807 -6601 3283c1924,-4218 5507,-7501 9848,-9090zm-4853 15496l953 -1006 -71 2065 -882 -1059zm812 3760l-124 4341 -4642 -2347 2683 -4377 2083 2383zm-2030 -5277l-2294 -3654 4641 -2294 -105 3777 -2242 2171zm-5348 1676c71,-1835 424,-3600 1024,-5242l3106 4960 -3477 5665c-476,-1712 -723,-3512 -653,-5383zm1130 6831l6230 3141 1747 5948c-3635,-1977 -6495,-5189 -7977,-9089zm8207 -9760l0 -142 4995 -4818 6865 353 1765 1889 2683 2841 -265 4607 -159 2629 -4906 4501 -6142 -230 -4995 -5736 159 -5894zm15743 9901l0 35 0 53 -124 2047 -2029 -70 -106 0 2259 -2065zm-6724 3653l-1395 1200 -1147 -1288 2542 88zm-6619 -2012l-35 0 -2383 -88 -88 -2789 2506 2877zm-2435 1677l4041 159 2295 2559 -4907 2118 -1429 -4836zm7395 7713c-1959,-71 -3813,-477 -5542,-1148l5718 -2453 5330 2912c-1747,512 -3583,759 -5506,689zm1500 -4889l2753 -2383 3548 141 -1836 4695 -4465 -2453zm5965 3494l2295 -5859 6159 -1853c-1871,3441 -4853,6177 -8454,7712zm4713 -15743l-1765 1747 159 -2841 35 -688 1571 1782zm-1430 -4306l194 -3301 4730 2401 -2153 4041 -2771 -3141zm2577 5665l1906 5048 -5171 1553 194 -3583 0 -17 3071 -3001zm-2506 -10995l0 -36 -18 0 -2630 -6177c3918,1889 6989,5189 8595,9213l-5947 -3000zm-2383 35263l-759 -18c-10695,0 -19397,8366 -19785,19061 -423,10925 8119,20138 19044,20544l759 18c10695,0 19379,-8366 19785,-19061 405,-10908 -8137,-20138 -19044,-20544zm3900 9866l-2718 -2895 4077 -1818 2101 4889 -3460 -176zm3724 2100l-35 1853 -1888 -2012 1923 159zm-6406 -2241l-3142 -159 1571 -1395 1571 1554zm-1306 -7272c1729,53 3406,388 4977,918l-5171 2312 -4942 -2665c1641,-441 3353,-653 5136,-565zm-1730 4412l-2647 2560 0 17 -3477 -88 2488 -4448 3636 1959zm-4518 4377l-2277 2207 141 -2189 2136 -18zm-335 -7765l-3266 5824 -6600 3283c1923,-4218 5506,-7501 9866,-9107zm-4872 15496l953 -1006 -70 2082 -883 -1076zm812 3777l-123 4341 -4642 -2347 2683 -4377 2082 2383zm-2029 -5295l-2277 -3636 4642 -2312 -124 3777 -2241 2171zm-5348 1677c70,-1836 441,-3583 1023,-5225l3107 4960 -3477 5665c-477,-1712 -724,-3512 -653,-5400zm1129 6848l6231 3141 1747 5930c-3636,-1976 -6495,-5189 -7978,-9071zm8207 -9760l0 -159 4995 -4819 6866 353 1764 1889 2683 2859 -265 4589 -158 2630 -4907 4518 -6142 -230 -4995 -5753 159 -5877zm15743 9883l0 35 0 71 -123 2047 -2030 -88 -88 0 2241 -2065zm-6724 3671l-1394 1200 -1147 -1306 2541 106zm-6601 -2030l-53 0 -2382 -88 -89 -2788 2524 2876zm-2453 1695l4059 141 2277 2559 -4906 2118 -1430 -4818zm7395 7713c-1941,-71 -3812,-495 -5542,-1148l5719 -2453 5330 2912c-1748,512 -3583,759 -5507,689zm1500 -4907l2753 -2365 3566 124 -1854 4694 -4465 -2453zm5966 3512l2294 -5859 6160 -1853c-1871,3441 -4854,6177 -8454,7712zm4712 -15743l-1765 1730 159 -2842 35 -688 1571 1800zm-1430 -4324l195 -3283 4730 2383 -2154 4059 -2771 -3159zm2595 5683l1906 5030 -5189 1553 194 -3565 0 -18 3089 -3000zm4677 -918c-71,1906 -459,3724 -1094,5401l-2118 -5648 2629 -4959c442,1659 654,3406 583,5206zm-7183 -10095l0 -18 -36 0 -2629 -6195c3918,1889 6989,5207 8612,9231l-5947 -3018zm15725 31204l-759 0c-10695,0 -19379,8366 -19785,19043 -423,10925 8119,20138 19044,20562l759 0c10695,0 19379,-8366 19802,-19061 389,-10908 -8154,-20121 -19061,-20544zm3901 9866l-2718 -2895 4094 -1818 2083 4907 -3459 -194zm3724 2100l-36 1853 -1870 -2012 1906 159zm-6407 -2241l-3142 -159 1571 -1395 1571 1554zm-1306 -7272c1747,71 3406,388 4977,936l-5171 2294 -4942 -2665c1641,-424 3353,-635 5136,-565zm-1712 4412l-2665 2577 0 0 -3477 -88 2506 -4430 3636 1941zm-4536 4395l-2277 2189 142 -2171 2135 -18zm-335 -7783l-3265 5824 -6601 3283c1924,-4218 5506,-7501 9866,-9107zm-4871 15496l953 -1006 -71 2082 -882 -1076zm811 3777l-123 4341 -4642 -2347 2683 -4377 2082 2383zm-2029 -5277l-2277 -3654 4642 -2312 -106 3795 -2259 2171zm-5348 1676c71,-1835 441,-3600 1024,-5242l3106 4960 -3459 5665c-495,-1712 -742,-3512 -671,-5383zm1130 6831l6230 3141 1765 5948c-3654,-1977 -6513,-5207 -7995,-9089zm8206 -9760l18 -159 4977 -4801 6866 353 1765 1871 2682 2859 -264 4607 -159 2629 -4907 4501 -6124 -230 -5012 -5736 158 -5894zm15744 9883l0 53 0 53 -124 2047 -2030 -70 -88 -18 2242 -2065zm-6725 3671l-1376 1200 -1165 -1288 2541 88zm-6601 -2012l-35 0 -2400 -88 -88 -2789 2523 2877zm-2453 1677l4059 159 2295 2559 -4924 2100 -1430 -4818zm7395 7713c-1941,-71 -3812,-477 -5542,-1148l5719 -2453 5330 2912c-1748,512 -3583,759 -5507,689zm1500 -4889l2754 -2383 3565 141 -1853 4677 -4466 -2435zm5966 3494l2294 -5859 6160 -1853c-1871,3441 -4854,6177 -8454,7712zm4730 -15743l-1783 1747 159 -2859 35 -670 1589 1782zm-1447 -4306l194 -3301 4730 2383 -2153 4059 -2771 -3141zm2594 5665l1906 5030 -5189 1553 194 -3565 0 -18 3089 -3000zm4677 -918c-70,1906 -459,3724 -1094,5419l-2118 -5666 2630 -4942c441,1642 653,3389 582,5189zm-7183 -10077l0 -36 -35 0 -2630 -6177c3918,1871 6989,5189 8613,9213l-5948 -3000zm31010 19343l-759 0c-10696,0 -19397,8366 -19785,19061 -424,10908 8119,20121 19043,20544l759 0c10696,0 19379,-8366 19785,-19061 406,-10907 -8136,-20120 -19043,-20544zm3900 9884l-2718 -2912 4077 -1818 2100 4906 -3459 -176zm3724 2082l-35 1854 -1889 -2012 1924 158zm-6407 -2241l-3141 -159 1571 -1394 1570 1553zm-1306 -7272c1730,71 3407,389 4977,936l-5171 2294 -4942 -2665c1642,-423 3354,-635 5136,-565zm-1729 4413l-2648 2577 0 0 -3477 -89 2489 -4430 3636 1942zm-4518 4394l-2277 2207 141 -2189 2136 -18zm-336 -7765l-3265 5806 -6601 3283c1924,-4218 5507,-7501 9866,-9089zm-4871 15478l953 -1006 -71 2083 -882 -1077zm812 3777l-124 4342 -4641 -2348 2682 -4377 2083 2383zm-2030 -5277l-2277 -3653 4625 -2312 -106 3794 -2242 2171zm-5348 1677c71,-1836 424,-3601 1024,-5242l3106 4959 -3477 5666c-476,-1712 -723,-3513 -653,-5383zm1130 6830l6230 3142 1747 5947c-3635,-1976 -6494,-5206 -7977,-9089zm8207 -9760l0 -159 4995 -4801 6865 353 1765 1871 2683 2859 -265 4607 -159 2630 -4906 4500 -6142 -229 -4995 -5736 159 -5895zm15743 9883l0 53 0 53 -123 2048 -2030 -71 -88 -18 2241 -2065zm-6724 3672l-1395 1200 -1147 -1289 2542 89zm-6619 -2012l-35 0 -2383 -89 -88 -2788 2506 2877zm-2435 1676l4059 159 2277 2559 -4907 2100 -1429 -4818zm7395 7713c-1942,-71 -3813,-477 -5542,-1147l5718 -2454 5330 2913c-1747,511 -3583,759 -5506,688zm1500 -4889l2753 -2383 3565 142 -1853 4677 -4465 -2436zm5965 3495l2295 -5860 6159 -1853c-1871,3442 -4853,6177 -8454,7713zm4713 -15744l-1765 1748 159 -2859 35 -671 1571 1782zm-1430 -4306l194 -3300 4730 2382 -2153 4060 -2771 -3142zm2577 5665l1906 5031 -5171 1553 194 -3565 0 -18 3071 -3001zm4695 -917c-71,1906 -459,3724 -1095,5418l-2118 -5648 2630 -4959c441,1659 653,3388 583,5189zm-7184 -10078l0 -35 -35 0 -2630 -6178c3918,1889 6989,5189 8613,9213l-5948 -3000zm39358 5507l-776 -18c-10678,0 -19379,8366 -19785,19061 -406,10925 8136,20138 19043,20544l777 17c10695,0 19379,-8365 19785,-19061 406,-10907 -8137,-20138 -19044,-20543zm3883 9865l-2718 -2894 4095 -1818 2082 4889 -3459 -177zm3724 2101l-35 1853 -1871 -2012 1906 159zm-6407 -2242l-3124 -159 1554 -1394 1570 1553zm-1306 -7289c1748,71 3424,406 4995,936l-5171 2312 -4942 -2665c1624,-442 3353,-653 5118,-583zm-1712 4430l-2647 2559 -18 18 -3459 -88 2489 -4448 3635 1959zm-4518 4377l-2277 2206 124 -2188 2153 -18zm-353 -7766l-3247 5825 -6619 3282c1942,-4218 5507,-7500 9866,-9107zm-4871 15497l953 -1006 -53 2082 -900 -1076zm829 3776l-123 4342 -4642 -2347 2683 -4395 2082 2400zm-2047 -5294l-2277 -3636 4642 -2312 -106 3777 -2259 2171zm-5330 1676c71,-1835 424,-3582 1024,-5224l3106 4960 -3477 5665c-494,-1712 -724,-3512 -653,-5401zm1130 6848l6230 3142 1747 5930c-3636,-1977 -6495,-5189 -7977,-9072zm8206 -9760l0 -159 4978 -4818 6883 353 1765 1889 2665 2859 -247 4589 -159 2629 -4907 4519 -6142 -230 -5012 -5754 176 -5877zm15744 9884l0 35 -18 71 -106 2047 -2030 -88 -105 0 2259 -2065zm-6725 3671l-1394 1200 -1147 -1306 2541 106zm-6618 -2030l-36 0 -2382 -88 -88 -2789 2506 2877zm-2436 1695l4042 141 2294 2559 -4906 2118 -1430 -4818zm7395 7712c-1959,-70 -3812,-494 -5542,-1147l5719 -2453 5330 2912c-1747,512 -3601,759 -5507,688zm1483 -4906l2771 -2365 3547 123 -1835 4695 -4483 -2453zm5965 3512l2312 -5860 6160 -1853c-1871,3442 -4854,6177 -8472,7713zm4730 -15743l-1782 1729 176 -2841 35 -688 1571 1800zm-1429 -4324l194 -3283 4712 2383 -2135 4059 -2771 -3159zm2576 5683l1907 5030 -5189 1553 211 -3565 0 -18 3071 -3000zm4677 -918c-70,1906 -441,3724 -1076,5401l-2136 -5648 2630 -4959c441,1659 653,3406 582,5206zm-7183 -10095l0 -18 -17 0 -2630 -6195c3900,1889 6989,5189 8595,9231l-5948 -3018zm37452 -18973l-759 -18c-10695,0 -19397,8366 -19802,19061 -406,10908 8136,20138 19061,20544l759 18c10695,0 19379,-8366 19784,-19062 406,-10924 -8136,-20137 -19043,-20543zm3883 9866l-2718 -2895 4094 -1835 2083 4906 -3459 -176zm3741 2100l-35 1835 -1888 -1994 1923 159zm-6406 -2242l-3142 -158 1553 -1395 1589 1553zm-1306 -7289c1729,71 3406,389 4977,936l-5171 2312 -4942 -2665c1623,-441 3353,-653 5136,-583zm-1730 4430l-2647 2559 -18 18 -3459 -88 2488 -4448 3636 1959zm-4518 4377l-2277 2206 141 -2188 2136 -18zm-353 -7765l-3248 5806 -6600 3301c1923,-4219 5506,-7519 9848,-9107zm-4854 15496l953 -1006 -70 2082 -883 -1076zm812 3759l-123 4342 -4642 -2330 2683 -4395 2082 2383zm-2029 -5277l-2295 -3636 4642 -2312 -106 3777 -2241 2171zm-5348 1677c70,-1836 423,-3601 1023,-5225l3107 4960 -3477 5665c-477,-1712 -724,-3530 -653,-5400zm1129 6830l6231 3159 1747 5930c-3636,-1977 -6495,-5189 -7978,-9089zm8207 -9760l0 -141 4995 -4819 6866 353 1764 1889 2683 2859 -265 4589 -158 2629 -4907 4519 -6142 -247 -4995 -5736 159 -5895zm15743 9901l0 35 0 53 -123 2048 -2030 -71 -106 0 2259 -2065zm-6724 3671l-1394 1183 -1147 -1289 2541 106zm-6618 -2030l-36 0 -2382 -88 -89 -2788 2507 2876zm-2436 1677l4042 159 2294 2559 -4906 2118 -1430 -4836zm7395 7730c-1959,-88 -3812,-494 -5542,-1147l5718 -2471 5331 2930c-1748,512 -3583,759 -5507,688zm1500 -4906l2753 -2383 3548 141 -1836 4695 -4465 -2453zm5966 3494l2294 -5859 6160 -1836c-1871,3442 -4854,6160 -8454,7695zm4712 -15725l-1765 1730 159 -2842 35 -688 1571 1800zm-1430 -4324l195 -3283 4730 2383 -2154 4041 -2771 -3141zm2577 5665l1906 5048 -5171 1553 194 -3583 0 -17 3071 -3001zm4695 -900c-71,1906 -459,3707 -1094,5401l-2136 -5648 2647 -4959c442,1659 636,3406 583,5206zm-7201 -10095l0 -35 -18 0 -2629 -6178c3918,1889 6989,5189 8595,9213l-5948 -3000zm35263 -35387l-759 -18c-10695,0 -19396,8366 -19802,19062 -406,10907 8136,20120 19061,20543l759 18c10695,0 19379,-8383 19785,-19061 406,-10925 -8137,-20138 -19044,-20544zm3883 9866l-2718 -2894 4095 -1836 2082 4906 -3459 -176zm3724 2100l-18 1836 -1888 -1995 1906 159zm-6389 -2241l-3142 -159 1554 -1394 1588 1553zm-1324 -7289c1748,70 3424,388 4995,935l-5171 2312 -4942 -2665c1624,-441 3353,-653 5118,-582zm-1712 4430l-2647 2559 -18 17 -3459 -88 2489 -4447 3635 1959zm-4518 4377l-2277 2206 142 -2189 2135 -17zm-353 -7766l-3247 5807 -6619 3300c1942,-4218 5507,-7519 9866,-9107zm-4871 15496l953 -1006 -53 2083 -900 -1077zm829 3759l-123 4342 -4642 -2330 2683 -4394 2082 2382zm-2029 -5277l-2295 -3636 4642 -2312 -106 3777 -2241 2171zm-5348 1677c71,-1836 424,-3601 1024,-5224l3106 4959 -3477 5666c-494,-1712 -724,-3530 -653,-5401zm1130 6830l6230 3142 1747 5947c-3636,-1976 -6495,-5188 -7977,-9089zm8207 -9760l0 -141 4994 -4818 6866 353 1765 1888 2682 2842 -264 4606 -159 2630 -4907 4518 -6142 -247 -4994 -5736 159 -5895zm15743 9901l0 36 -18 53 -106 2047 -2030 -71 -105 0 2259 -2065zm-6725 3654l-1394 1200 -1147 -1289 2541 89zm-6618 -2012l-35 0 -2383 -89 -88 -2788 2506 2877zm-2436 1676l4042 159 2294 2559 -4906 2118 -1430 -4836zm7395 7731c-1959,-88 -3812,-494 -5542,-1147l5719 -2471 5330 2912c-1747,512 -3601,776 -5507,706zm1500 -4907l2754 -2382 3547 141 -1835 4695 -4466 -2454zm5966 3495l2294 -5860 6160 -1835c-1871,3441 -4854,6159 -8454,7695zm4712 -15743l-1765 1747 159 -2842 35 -688 1571 1783zm-1429 -4307l194 -3283 4730 2383 -2153 4042 -2771 -3142zm2576 5666l1907 5047 -5172 1553 194 -3582 0 -18 3071 -3000zm4695 -900c-70,1888 -459,3706 -1094,5400l-2136 -5648 2648 -4959c441,1659 635,3406 582,5207zm-7201 -10096l0 -35 -17 0 -2630 -6177c3918,1888 6989,5189 8595,9213l-5948 -3001zm25239 -49630l-777 0c-10695,0 -19379,8366 -19785,19062 -406,10907 8137,20120 19044,20543l776 0c10696,0 19379,-8365 19785,-19043 406,-10925 -8136,-20138 -19043,-20562zm3883 9884l-2718 -2894 4094 -1836 2083 4907 -3459 -177zm3724 2100l-36 1836 -1871 -1995 1907 159zm-6407 -2241l-3124 -177 1553 -1394 1571 1571zm-1306 -7289c1747,70 3424,388 4995,935l-5172 2295 -4941 -2666c1623,-423 3353,-635 5118,-564zm-1712 4430l-2648 2559 -17 17 -3459 -105 2488 -4430 3636 1959zm-4518 4377l-2277 2206 123 -2189 2154 -17zm-353 -7766l-3248 5807 -6618 3282c1941,-4200 5506,-7501 9866,-9089zm-4872 15496l954 -1006 -53 2065 -901 -1059zm830 3759l-124 4342 -4641 -2330 2682 -4394 2083 2382zm-2047 -5277l-2277 -3653 4642 -2295 -106 3777 -2259 2171zm-5330 1677c70,-1836 423,-3601 1023,-5242l3106 4977 -3476 5648c-495,-1694 -724,-3512 -653,-5383zm1129 6830l6230 3142 1748 5948c-3636,-1977 -6495,-5189 -7978,-9090zm8207 -9760l0 -141 4977 -4818 6866 353 1782 1888 2665 2842 -264 4606 -142 2630 -4924 4500 -6124 -229 -5012 -5736 176 -5895zm15743 9901l0 36 -17 53 -106 2047 -2030 -71 -106 0 2259 -2065zm-6724 3654l-1394 1200 -1148 -1288 2542 88zm-6619 -2012l-35 0 -2383 -88 -88 -2789 2506 2877zm-2453 1676l4059 159 2295 2559 -4907 2118 -1447 -4836zm7413 7731c-1959,-88 -3812,-494 -5542,-1165l5718 -2453 5330 2912c-1747,512 -3600,776 -5506,706zm1482 -4907l2771 -2382 3548 141 -1836 4695 -4483 -2454zm5966 3495l2312 -5860 6159 -1835c-1870,3441 -4853,6159 -8471,7695zm4730 -15743l-1783 1747 177 -2842 35 -688 1571 1783zm-1430 -4307l194 -3282 4713 2382 -2136 4042 -2771 -3142zm2577 5666l1906 5047 -5189 1554 212 -3583 0 -18 3071 -3000zm4677 -900c-71,1888 -441,3706 -1077,5400l-2135 -5647 2630 -4960c441,1659 653,3389 582,5207zm-7183 -10096l0 -35 -18 0 -2630 -6177c3901,1888 6989,5189 8596,9213l-5948 -3001zm4359 -58966l-776 -18c-10678,0 -19379,8384 -19785,19062 -406,10924 8136,20137 19043,20543l777 18c10695,0 19379,-8366 19785,-19061 406,-10907 -8137,-20120 -19044,-20544zm3883 9866l-2718 -2894 4095 -1818 2082 4888 -3459 -176zm3724 2100l-18 1853 -1888 -2012 1906 159zm-6407 -2241l-3124 -159 1554 -1394 1570 1553zm-1306 -7272c1748,53 3424,389 4995,918l-5171 2312 -4942 -2665c1624,-441 3353,-635 5118,-565zm-1712 4413l-2647 2576 -18 0 -3459 -88 2489 -4447 3635 1959zm-4518 4377l-2277 2206 124 -2171 2153 -35zm-353 -7766l-3247 5824 -6619 3283c1942,-4218 5507,-7501 9866,-9107zm-4871 15496l953 -1006 -53 2083 -900 -1077zm829 3777l-123 4342 -4642 -2348 2683 -4377 2082 2383zm-2029 -5295l-2295 -3636 4642 -2312 -106 3777 -2241 2171zm-5348 1694c71,-1835 424,-3600 1024,-5241l3106 4959 -3477 5666c-494,-1712 -724,-3513 -653,-5384zm1130 6831l6230 3141 1747 5948c-3636,-1977 -6495,-5206 -7977,-9089zm8206 -9760l0 -159 4978 -4818 6883 353 1765 1888 2665 2859 -247 4589 -159 2630 -4907 4518 -6142 -229 -4994 -5754 158 -5877zm15744 9883l0 36 -18 70 -106 2048 -2030 -71 -106 -18 2260 -2065zm-6725 3671l-1394 1201 -1147 -1307 2541 106zm-6618 -2029l-36 0 -2382 -71 -88 -2788 2506 2859zm-2436 1694l4042 141 2294 2577 -4906 2100 -1430 -4818zm7395 7713c-1959,-71 -3812,-477 -5542,-1147l5719 -2454 5330 2912c-1748,512 -3601,759 -5507,689zm1500 -4907l2754 -2365 3547 141 -1835 4677 -4466 -2453zm5966 3512l2294 -5859 6160 -1853c-1871,3441 -4854,6177 -8454,7712zm4712 -15743l-1782 1730 176 -2842 35 -688 1571 1800zm-1429 -4306l194 -3301 4730 2383 -2153 4059 -2771 -3141zm2576 5665l1907 5030 -5189 1553 211 -3565 0 -17 3071 -3001zm4695 -917c-71,1906 -459,3724 -1094,5400l-2136 -5648 2648 -4941c441,1641 635,3388 582,5189zm-7201 -10096l0 -17 -17 0 -2630 -6178c3918,1871 6989,5189 8595,9213l-5948 -3018zm-10413 -60449l-776 -17c-10678,0 -19379,8366 -19785,19061 -406,10907 8136,20138 19043,20544l777 17c10695,0 19379,-8365 19785,-19061 406,-10925 -8137,-20138 -19044,-20544zm3883 9866l-2718 -2894 4095 -1836 2082 4907 -3459 -177zm3724 2101l-35 1835 -1871 -1994 1906 159zm-6407 -2242l-3124 -159 1553 -1394 1571 1553zm-1306 -7289c1748,71 3424,406 4995,935l-5171 2313 -4942 -2666c1624,-441 3353,-653 5118,-582zm-1712 4430l-2647 2559 -18 18 -3459 -88 2489 -4448 3635 1959zm-4518 4377l-2277 2206 124 -2188 2153 -18zm-353 -7766l-3247 5825 -6619 3282c1942,-4218 5507,-7518 9866,-9107zm-4871 15496l953 -1006 -53 2083 -900 -1077zm829 3777l-123 4342 -4642 -2347 2683 -4395 2082 2400zm-2029 -5294l-2295 -3636 4642 -2312 -106 3777 -2241 2171zm-5348 1676c71,-1835 424,-3583 1024,-5224l3106 4960 -3477 5665c-494,-1712 -724,-3530 -653,-5401zm1130 6848l6230 3142 1747 5930c-3636,-1977 -6495,-5189 -7977,-9072zm8206 -9760l0 -159 4978 -4818 6883 353 1765 1888 2665 2860 -247 4588 -159 2630 -4907 4518 -6142 -247 -5012 -5736 176 -5877zm15744 9884l0 35 -18 71 -106 2047 -2030 -88 -106 0 2260 -2065zm-6725 3671l-1394 1200 -1147 -1306 2541 106zm-6618 -2030l-36 0 -2382 -88 -88 -2789 2506 2877zm-2436 1694l4042 142 2294 2559 -4906 2118 -1430 -4819zm7395 7713c-1959,-70 -3812,-494 -5542,-1147l5719 -2453 5330 2912c-1748,512 -3601,759 -5507,688zm1500 -4906l2754 -2365 3547 123 -1835 4695 -4466 -2453zm5948 3512l2312 -5877 6160 -1836c-1871,3442 -4854,6177 -8472,7713zm4730 -15743l-1782 1729 176 -2841 35 -689 1571 1801zm-1429 -4324l194 -3283 4730 2383 -2153 4059 -2771 -3159zm2576 5683l1906 5030 -5188 1553 211 -3583 0 0 3071 -3000zm4695 -918c-71,1906 -459,3706 -1094,5401l-2136 -5648 2648 -4960c441,1659 635,3407 582,5207zm-7201 -10095l0 -18 -17 0 -2630 -6195c3900,1889 6989,5189 8595,9213l-5948 -3000zm-28892 -53019l-776 -17c-10678,0 -19379,8365 -19785,19061 -406,10907 8136,20120 19061,20543l759 0c10696,0 19379,-8365 19785,-19043 406,-10925 -8136,-20138 -19044,-20544zm3883 9866l-2718 -2894 4095 -1836 2082 4907 -3459 -177zm3724 2100l-17 1836 -1889 -1994 1906 158zm-6407 -2241l-3123 -177 1553 -1394 1570 1571zm-1306 -7289c1748,70 3424,388 4995,935l-5171 2295 -4942 -2665c1624,-424 3354,-636 5118,-565zm-1712 4430l-2647 2559 -18 18 -3459 -106 2489 -4430 3635 1959zm-4518 4377l-2276 2206 123 -2189 2153 -17zm-353 -7766l-3247 5807 -6619 3282c1942,-4200 5507,-7500 9866,-9089zm-4871 15496l953 -1006 -53 2065 -900 -1059zm830 3759l-124 4342 -4642 -2330 2683 -4394 2083 2382zm-2030 -5277l-2294 -3653 4641 -2294 -106 3776 -2241 2171zm-5348 1677c71,-1836 424,-3600 1024,-5242l3106 4977 -3477 5648c-494,-1694 -723,-3512 -653,-5383zm1130 6830l6230 3142 1747 5948c-3636,-1977 -6495,-5189 -7977,-9090zm8207 -9760l0 -141 4994 -4818 6866 353 1765 1888 2665 2842 -247 4606 -159 2630 -4906 4501 -6142 -230 -4995 -5736 159 -5895zm15743 9901l0 36 -18 53 -106 2047 -2029 -71 -106 0 2259 -2065zm-6725 3654l-1394 1200 -1147 -1288 2541 88zm-6618 -2012l-35 0 -2383 -88 -88 -2789 2506 2877zm-2436 1677l4042 158 2294 2559 -4906 2118 -1430 -4835zm7395 7730c-1959,-88 -3812,-494 -5541,-1165l5718 -2453 5330 2912c-1747,512 -3600,776 -5507,706zm1501 -4907l2753 -2382 3547 141 -1835 4695 -4465 -2454zm5965 3495l2294 -5860 6160 -1835c-1871,3441 -4854,6159 -8454,7695zm4712 -15743l-1765 1747 159 -2841 36 -689 1570 1783zm-1429 -4307l194 -3282 4730 2382 -2153 4042 -2771 -3142zm2577 5666l1906 5047 -5189 1554 212 -3583 0 -18 3071 -3000zm4694 -900c-70,1888 -459,3706 -1094,5400l-2136 -5647 2648 -4960c441,1659 635,3389 582,5207zm-7201 -10096l0 -35 -17 0 -2630 -6177c3918,1888 6989,5189 8595,9213l-5948 -3001zm-40258 -45394l-758 0c-10696,0 -19397,8366 -19803,19044 -406,10925 8136,20138 19061,20544l759 17c10696,0 19379,-8365 19785,-19061 406,-10907 -8136,-20120 -19044,-20544zm3883 9866l-2718 -2894 4095 -1818 2083 4906 -3460 -194zm3724 2101l-17 1853 -1889 -2012 1906 159zm-6389 -2242l-3141 -159 1553 -1394 1588 1553zm-1323 -7271c1747,53 3424,388 4994,917l-5171 2312 -4942 -2665c1624,-441 3354,-635 5119,-564zm-1712 4412l-2648 2577 -17 0 -3460 -88 2489 -4430 3636 1941zm-4519 4377l-2276 2206 141 -2171 2135 -35zm-353 -7766l-3247 5825 -6619 3282c1942,-4218 5507,-7501 9866,-9107zm-4871 15496l953 -1006 -53 2083 -900 -1077zm830 3777l-124 4342 -4642 -2347 2683 -4377 2083 2382zm-2030 -5277l-2294 -3653 4641 -2312 -106 3777 -2241 2188zm-5348 1677c71,-1836 424,-3601 1024,-5242l3106 4959 -3477 5666c-494,-1712 -723,-3512 -653,-5383zm1130 6830l6230 3142 1747 5947c-3635,-1976 -6495,-5206 -7977,-9089zm8207 -9760l0 -159 4994 -4818 6866 353 1765 1888 2683 2860 -265 4588 -159 2648 -4906 4500 -6142 -229 -4995 -5754 159 -5877zm15743 9884l0 35 -18 71 -106 2047 -2029 -71 -106 -17 2259 -2065zm-6724 3671l-1395 1200 -1147 -1306 2542 106zm-6619 -2012l-35 0 -2383 -89 -88 -2788 2506 2877zm-2436 1676l4042 159 2295 2559 -4907 2101 -1430 -4819zm7395 7713c-1959,-70 -3812,-476 -5541,-1147l5718 -2453 5330 2912c-1747,512 -3600,759 -5507,688zm1501 -4906l2753 -2365 3547 141 -1835 4677 -4465 -2453zm5965 3512l2295 -5860 6159 -1853c-1871,3442 -4853,6177 -8454,7713zm4712 -15743l-1764 1729 158 -2841 36 -689 1570 1801zm-1429 -4307l194 -3300 4730 2382 -2153 4060 -2771 -3142zm2577 5666l1906 5030 -5189 1553 212 -3565 0 -18 3071 -3000zm4694 -918c-70,1906 -458,3724 -1094,5401l-2135 -5648 2647 -4942c441,1641 635,3389 582,5189zm-7201 -10095l0 -18 -17 0 -2630 -6177c3918,1870 6989,5189 8595,9213l-5948 -3018zm-51182 -30710l-759 0c-10696,0 -19379,8366 -19785,19043 -424,10925 8136,20138 19043,20544l759 18c10696,0 19397,-8366 19803,-19061 406,-10908 -8154,-20121 -19061,-20544zm3900 9866l-2718 -2895 4095 -1818 2082 4907 -3459 -194zm3724 2100l-35 1853 -1871 -2012 1906 159zm-6407 -2241l-3141 -159 1571 -1395 1570 1554zm-1306 -7272c1748,53 3424,388 4977,935l-5153 2295 -4942 -2665c1624,-441 3336,-636 5118,-565zm-1712 4412l-2647 2577 -18 0 -3459 -88 2489 -4430 3635 1941zm-4535 4377l-2277 2207 141 -2171 2136 -36zm-336 -7765l-3265 5824 -6601 3283c1942,-4218 5507,-7501 9866,-9107zm-4871 15496l953 -1006 -53 2082 -900 -1076zm830 3777l-124 4341 -4659 -2347 2682 -4377 2101 2383zm-2048 -5277l-2277 -3654 4642 -2312 -106 3777 -2259 2189zm-5347 1676c70,-1835 441,-3600 1023,-5242l3106 4960 -3459 5665c-494,-1712 -741,-3512 -670,-5383zm1129 6831l6230 3141 1765 5948c-3636,-1977 -6495,-5207 -7995,-9089zm8207 -9761l18 -158 4977 -4819 6865 371 1783 1871 2665 2859 -265 4589 -141 2647 -4924 4501 -6124 -230 -5013 -5736 159 -5895zm15743 9884l0 53 0 53 -106 2047 -2047 -70 -88 -18 2241 -2065zm-6724 3671l-1377 1200 -1165 -1306 2542 106zm-6601 -2012l-35 0 -2401 -88 -70 -2789 2506 2877zm-2453 1677l4059 159 2294 2559 -4924 2100 -1429 -4818zm7412 7713c-1959,-71 -3812,-477 -5559,-1148l5736 -2453 5312 2912c-1729,512 -3583,759 -5489,689zm1483 -4907l2753 -2365 3565 141 -1835 4677 -4483 -2453zm5965 3512l2295 -5859 6159 -1854c-1853,3442 -4853,6178 -8454,7713zm4730 -15743l-1782 1730 159 -2842 53 -688 1570 1800zm-1429 -4306l176 -3301 4730 2383 -2153 4059 -2753 -3141zm2577 5665l1906 5030 -5189 1553 194 -3565 0 -18 3089 -3000zm4677 -918c-71,1906 -459,3724 -1077,5401l-2136 -5648 2630 -4942c441,1642 653,3389 583,5189zm-7184 -10095l0 -18 -17 0 -2630 -6177c3900,1871 6989,5189 8595,9213l-5948 -3018zm-52789 -16626l-759 -17c-10695,0 -19378,8365 -19784,19061 -406,10907 8136,20138 19043,20544l759 17c10713,0 19397,-8365 19803,-19061 406,-10925 -8137,-20138 -19062,-20544zm3901 9866l-2718 -2894 4095 -1836 2082 4907 -3459 -177zm3724 2101l-35 1835 -1871 -1994 1906 159zm-6407 -2242l-3141 -159 1570 -1394 1571 1553zm-1306 -7289c1747,71 3424,388 4995,935l-5171 2312 -4942 -2665c1624,-441 3353,-653 5118,-582zm-1712 4430l-2647 2559 -18 18 -3459 -89 2488 -4447 3636 1959zm-4518 4377l-2277 2206 124 -2188 2153 -18zm-353 -7766l-3247 5807 -6619 3300c1941,-4218 5507,-7518 9866,-9107zm-4871 15496l953 -1006 -53 2083 -900 -1077zm829 3760l-123 4341 -4660 -2329 2701 -4395 2082 2383zm-2047 -5278l-2277 -3635 4642 -2312 -106 3777 -2259 2170zm-5330 1677c71,-1835 424,-3600 1024,-5224l3106 4959 -3477 5666c-494,-1712 -724,-3530 -653,-5401zm1112 6830l6248 3160 1747 5930c-3636,-1977 -6495,-5189 -7995,-9090zm8224 -9760l0 -141 4977 -4818 6866 353 1783 1888 2665 2860 -265 4588 -141 2630 -4924 4518 -6125 -247 -5012 -5736 176 -5895zm15726 9902l0 35 0 53 -106 2047 -2030 -70 -106 0 2242 -2065zm-6707 3671l-1394 1182 -1147 -1288 2541 106zm-6618 -2030l-36 0 -2382 -88 -89 -2789 2507 2877zm-2454 1677l4060 158 2294 2560 -4906 2118 -1448 -4836zm7413 7730c-1959,-88 -3812,-494 -5542,-1147l5719 -2471 5330 2930c-1748,512 -3601,759 -5507,688zm1483 -4906l2771 -2383 3547 141 -1835 4695 -4483 -2453zm5965 3494l2312 -5859 6160 -1836c-1871,3442 -4854,6160 -8472,7695zm4730 -15725l-1782 1729 176 -2841 35 -689 1571 1801zm-1429 -4324l194 -3283 4712 2382 -2153 4042 -2753 -3141zm2576 5665l1906 5048 -5188 1553 211 -3583 0 -18 3071 -3000zm4677 -900c-70,1906 -459,3706 -1076,5400l-2136 -5647 2630 -4960c441,1659 653,3407 582,5207zm-7183 -10096l0 -35 -18 0 -2629 -6177c3900,1888 6989,5189 8595,9213l-5948 -3001zm305279 83781l-150565 0c-25168,-63678 -87276,-108719 -159885,-108719 -72609,0 -134717,45041 -159885,108719l-150566 0c-34804,0 -63113,28310 -63113,63114 0,34805 28309,63132 63113,63132l150549 0c25167,63678 87293,108737 159902,108737 72609,0 134734,-45059 159902,-108737l150548 0c34805,0 63114,-28327 63114,-63132 0,-34804 -28309,-63114 -63114,-63114zm-146718 10819l146718 0c28839,0 52295,23456 52295,52313 0,28821 -23456,52277 -52295,52277l-146718 0c5260,-16484 8119,-34045 8119,-52277 0,-18249 -2842,-35828 -8119,-52313zm-327464 104590l-146719 0c-28838,0 -52294,-23456 -52294,-52295 0,-28839 23456,-52295 52294,-52295l146719 0c-5277,16485 -8119,34064 -8119,52313 0,18232 2859,35793 8119,52277zm163732 -216645c68408,0 127022,41794 151801,101236l35 106 71 159 71 177 70 159 53 158 71 177 70 159 71 159 71 176 70 159 18 71 35 105 71 159 70 159 71 177 53 158 70 159 71 177 53 106 18 53 53 176 70 159 71 159 53 176 70 159 71 177 53 158 70 177 71 159 53 176 71 159 70 159 53 176 71 159 53 177 70 159 53 176 71 159 53 176 70 159 53 177 71 159 18 35 35 141 71 159 52 176 71 159 53 177 71 176 53 159 70 177 53 158 53 177 71 159 53 176 53 177 70 159 53 176 53 159 71 176 53 177 53 159 70 176 53 159 53 177 53 106 18 70 53 159 52 176c5366,16450 8507,33922 8507,52313 0,18267 -2982,35846 -8489,52277l-53 176 -53 159 -35 106 -35 71 -53 176 -53 159 -71 177 -53 176 -53 159 -70 176 -53 159 -53 177 -71 176 -53 159 -53 177 -70 158 -53 177 -71 176 -53 159 -70 177 -53 159 -53 176 -71 177 -53 158 -70 177 -53 159 -71 176 -53 159 -71 177 -70 176 -53 159 -71 176 -53 159 -70 177 -53 159 -71 176 -70 159 -53 176 -71 159 -71 177 -52 159 -71 176 -71 159 -53 176 -70 159 -71 177 -53 159 -70 159 -18 70 -53 106 -71 159 -35 141 -17 35 -71 159 -71 177 -70 159 -71 158 -35 106 -18 71 -70 159 -71 176 -71 159 -70 159 -71 176 -53 159 -70 159 -71 177 -71 158 -35 89c-24691,59460 -83287,101253 -151801,101253 -68426,0 -127057,-41793 -151819,-101253l-71 -159 -70 -177 -71 -159 -70 -176 -71 -159 -35 -106 -18 -70 -71 -159 -70 -177 -71 -159 -70 -176 -71 -159 -71 -159 -35 -106 -18 -70 -70 -159 -71 -177 -70 -158 -71 -177 -53 -176 -70 -159 -71 -177 -71 -159 -53 -176 -70 -159 -71 -176 -123 -336 -71 -159 -123 -353 -71 -158 -53 -177 -71 -159 -70 -176 -53 -177 -71 -159 -70 -176 -53 -159 -71 -176 -53 -177 -17 -35 -53 -124 -53 -176 -71 -177 -53 -159 -71 -176 -52 -177 -71 -158 -53 -177 -71 -176 -53 -159 -53 -177 -70 -176 -53 -159 -71 -177 -53 -176 -53 -159 -70 -176 -53 -177 -53 -176 -71 -159 -53 -177 -53 -176 -35 -71 -35 -106 -53 -159 -53 -176c-5365,-16379 -8489,-33957 -8489,-52277 0,-18285 2982,-35881 8507,-52313l53 -176 53 -159 17 -70 53 -106 53 -177 53 -176 71 -159 53 -177 53 -176 70 -177 53 -159 53 -176 71 -176 53 -159 52 -177 71 -176 53 -159 71 -177 53 -176 70 -159 53 -176 53 -159 71 -177 53 -176 70 -159 36 -106 17 -71 71 -176 70 -159 53 -176 71 -159 53 -177 70 -176 53 -159 71 -177 71 -158 53 -177 70 -159 71 -176 53 -159 70 -177 71 -176 53 -159 70 -176 71 -159 53 -177 71 -159 70 -176 53 -141 18 -18 35 -88 18 -88 70 -159 71 -177 70 -159 53 -176 71 -159 71 -176 70 -159 71 -159 70 -177 71 -159 124 -335 70 -176 71 -159 70 -177 71 -159c24656,-59513 83322,-101236 151819,-101236zm0 64420c55189,0 99930,44741 99930,99948 0,55189 -44741,99930 -99930,99930 -55207,0 -99948,-44741 -99948,-99930 0,-55207 44741,-99948 99948,-99948z"/>
 </g>
</svg>
