<?xml version="1.0" encoding="UTF-8"?>
<!DOCTYPE svg PUBLIC "-//W3C//DTD SVG 1.1//EN" "http://www.w3.org/Graphics/SVG/1.1/DTD/svg11.dtd">
<!-- Creator: CorelDRAW X7 -->
<svg xmlns="http://www.w3.org/2000/svg" xml:space="preserve" width="4.2332mm" height="4.2332mm" version="1.1" style="shape-rendering:geometricPrecision; text-rendering:geometricPrecision; image-rendering:optimizeQuality; fill-rule:evenodd; clip-rule:evenodd"
viewBox="0 0 42332 42332"
 xmlns:xlink="http://www.w3.org/1999/xlink">
 <defs>
  <style type="text/css">
   <![CDATA[
    .fil0 {fill:none}
    .fil1 {fill:#6E6C6B}
   ]]>
  </style>
 </defs>
 <g id="Layer_x0020_1">
  <metadata id="CorelCorpID_0Corel-Layer"/>
  <rect class="fil0" width="42332" height="42332"/>
  <g id="_2142819467568">
   <path class="fil1" d="M31720 22744l-7144 0 1578 -1578 -1977 -1977 7543 0c980,0 1778,797 1778,1778 0,980 -798,1777 -1778,1777zm-8595 930l-368 368 -1591 1592 -1591 -1592 -369 -368 -2508 -2508 2509 -2509 368 -368 1591 -1592 1591 1592 368 368 2509 2509 -2509 2508zm-12513 -930c-980,0 -1778,-797 -1778,-1777 0,-981 798,-1778 1778,-1778l7542 0 -1976 1977 1578 1578 -7144 0zm21108 -3923l-7911 0 -163 -164 -368 -368 -2112 -2112 -2112 2112 -368 368 -164 164 -7910 0c-1183,0 -2146,962 -2146,2146 0,1183 963,2146 2146,2146l7512 0 562 561 368 368 2112 2112 2112 -2112 368 -368 562 -561 7512 0c1183,0 2145,-963 2145,-2146 0,-1184 -962,-2146 -2145,-2146z"/>
   <path class="fil1" d="M21166 23497c-1285,0 -2331,-1046 -2331,-2331 0,-1286 1046,-2332 2331,-2332 1285,0 2331,1046 2331,2332 0,1285 -1046,2331 -2331,2331zm0 -5031c-1488,0 -2699,1211 -2699,2700 0,1488 1211,2699 2699,2699 1488,0 2699,-1211 2699,-2699 0,-1489 -1211,-2700 -2699,-2700z"/>
  </g>
 </g>
</svg>
