<?xml version="1.0" encoding="UTF-8"?>
<!DOCTYPE svg PUBLIC "-//W3C//DTD SVG 1.1//EN" "http://www.w3.org/Graphics/SVG/1.1/DTD/svg11.dtd">
<!-- Creator: CorelDRAW X7 -->
<svg xmlns="http://www.w3.org/2000/svg" xml:space="preserve" width="4.2332mm" height="4.2332mm" version="1.1" style="shape-rendering:geometricPrecision; text-rendering:geometricPrecision; image-rendering:optimizeQuality; fill-rule:evenodd; clip-rule:evenodd"
viewBox="0 0 423320 423320"
 xmlns:xlink="http://www.w3.org/1999/xlink">
 <defs>
  <style type="text/css">
   <![CDATA[
    .fil0 {fill:none}
    .fil1 {fill:#6E6C6B}
   ]]>
  </style>
 </defs>
 <g id="Layer_x0020_1">
  <metadata id="CorelCorpID_0Corel-Layer"/>
  <rect class="fil0" width="423320" height="423320"/>
  <g id="_2142987902000">
   <path class="fil1" d="M317190 229440l-59410 0 17780 -17780 -17780 -17770 59410 0c9810,0 17780,7970 17780,17770 0,9810 -7970,17780 -17780,17780zm-64610 0l-3690 3680 -37230 37240 -37240 -37240 -3680 -3680 -17780 -17780 17780 -17770 3680 -3680 37240 -37240 37230 37240 3690 3680 17770 17770 -17770 17780zm-146460 0c-9800,0 -17780,-7970 -17780,-17780 0,-9800 7980,-17770 17780,-17770l59420 0 -17780 17770 17780 17780 -59420 0zm211070 -39230l-63090 0 -42440 -42450 -42440 42450 -63100 0c-11830,0 -21460,9620 -21460,21450 0,11840 9630,21460 21460,21460l63100 0 42440 42450 42440 -42450 63090 0c11840,0 21470,-9620 21470,-21460 0,-11830 -9630,-21450 -21470,-21450z"/>
   <g>
    <path class="fil1" d="M232010 229440l-3680 3680 -16670 16670 -16670 -16670 -3680 -3680 -17780 -17780 17780 -17770 3680 -3680 16670 -16670 16660 16670 3690 3680 17770 17770 -17770 17780zm5200 -35550l-3680 -3680 -21870 -21880 -21870 21880 -3680 3680 -17780 17770 17780 17780 3680 3680 21870 21880 21870 -21880 3680 -3680 17780 -17780 -17780 -17770z"/>
    <path class="fil1" d="M211660 231490c-10930,0 -19830,-8900 -19830,-19830 0,-10930 8900,-19820 19830,-19820 10930,0 19820,8890 19820,19820 0,10930 -8890,19830 -19820,19830zm0 -43330c-12960,0 -23510,10540 -23510,23500 0,12960 10550,23510 23510,23510 12960,0 23500,-10550 23500,-23510 0,-12960 -10540,-23500 -23500,-23500z"/>
   </g>
  </g>
 </g>
</svg>
