<?xml version="1.0" encoding="UTF-8"?>
<!DOCTYPE svg PUBLIC "-//W3C//DTD SVG 1.1//EN" "http://www.w3.org/Graphics/SVG/1.1/DTD/svg11.dtd">
<!-- Creator: CorelDRAW X7 -->
<svg xmlns="http://www.w3.org/2000/svg" xml:space="preserve" width="4.2332mm" height="4.2332mm" version="1.1" style="shape-rendering:geometricPrecision; text-rendering:geometricPrecision; image-rendering:optimizeQuality; fill-rule:evenodd; clip-rule:evenodd"
viewBox="0 0 423320 423320"
 xmlns:xlink="http://www.w3.org/1999/xlink">
 <defs>
  <style type="text/css">
   <![CDATA[
    .fil0 {fill:none}
    .fil1 {fill:#6E6C6B}
   ]]>
  </style>
 </defs>
 <g id="Layer_x0020_1">
  <metadata id="CorelCorpID_0Corel-Layer"/>
  <rect class="fil0" width="423320" height="423320"/>
  <path class="fil1" d="M317210 229440l-64870 0c2430,-5580 3730,-11640 3730,-17780 0,-6150 -1300,-12210 -3730,-17780l64350 0c9560,0 17800,7340 18270,16880 510,10210 -7660,18680 -17750,18680zm-76600 17140c-1170,-10 -2270,-550 -3020,-1500l0 0c-390,-490 -850,-1300 -850,-2380 0,-2130 1740,-3870 3870,-3870 950,0 1860,370 2590,1020l0 0c830,760 1280,1770 1280,2850 0,2140 -1730,3880 -3870,3880zm-27230 5370l19570 -11320c-180,660 -290,1350 -290,2070 0,250 20,490 40,730 10,80 20,150 30,230 20,160 40,320 70,480 20,90 40,180 60,270 40,140 70,290 110,430 30,90 60,190 90,290 40,130 90,260 140,390 20,60 40,130 70,190 -5980,3810 -12800,5940 -19890,6240zm-22460 -11030l19070 11030c-6960,-280 -13660,-2340 -19570,-6010 470,-1010 710,-2110 710,-3240 0,-610 -80,-1210 -210,-1780zm-11600 1780c0,-1000 390,-1960 1090,-2690l0 0c740,-760 1720,-1180 2770,-1180 2140,0 3870,1740 3870,3870 0,1160 -520,2010 -950,2520l0 0c-760,870 -1800,1360 -2920,1360 -2130,-10 -3860,-1740 -3860,-3880zm-73200 -13260c-9800,0 -17780,-7980 -17780,-17780 0,-9810 7980,-17780 17780,-17780l64870 0c-2440,5570 -3730,11630 -3730,17780 0,6150 1290,12210 3720,17780l-64860 0zm77060 -53020c1180,0 2280,540 3020,1490 390,490 850,1300 850,2380 0,2130 -1730,3870 -3870,3870 -990,0 -1940,-390 -2670,-1080 -770,-750 -1190,-1730 -1190,-2790 0,-2140 1730,-3870 3860,-3870zm26640 -5050l-18970 10980c170,-650 280,-1340 280,-2060 0,-1030 -210,-2040 -600,-2990 5830,-3590 12440,-5620 19290,-5930zm23300 6320c-40,120 -90,240 -130,370 -20,80 -50,180 -70,260 -30,130 -60,260 -90,390 -20,90 -40,170 -50,260 -20,150 -40,290 -60,440 -10,70 -20,140 -20,210 -20,230 -40,450 -40,670 0,820 130,1610 360,2350l-19470 -11270c6990,330 13710,2430 19610,6170 -10,50 -30,100 -40,150zm11360 2600c0,1110 -500,2180 -1380,2930l0 0c-510,430 -1350,940 -2490,940 -2130,0 -3870,-1740 -3870,-3870 0,-800 250,-1580 730,-2250 750,-1030 1890,-1620 3140,-1620 2140,0 3870,1730 3870,3870zm2910 50070l0 -37420c3000,5740 4610,12180 4610,18720 0,6530 -1610,12960 -4610,18700zm-21480 -3970l5690 -20840 12890 0 0 25050 -11380 6580 -7200 -10790zm-47030 4210l0 -25050 14340 0 4750 21730 -5830 10990 -13260 -7670zm-1230 -40610c580,-910 1200,-1800 1850,-2670 530,280 1080,490 1650,640l-3500 2030zm32840 -500l-16640 13390 -14970 0 0 -10250 31610 -18290 0 15150zm18310 15240l-5740 21000 -22450 0 -4560 -20880 15800 -12710 16950 12590zm15690 -12100l0 10250 -13280 0 -18060 -13410 0 -14970 31340 18130zm-1510 -4780c80,-20 160,-50 240,-70 240,-90 460,-180 680,-280 20,-10 30,-10 40,-20 610,800 1170,1630 1710,2480l-3310 -1920c40,-10 80,-30 120,-40 170,-40 340,-90 520,-150zm-71650 23810c0,-6580 1620,-13030 4650,-18790l0 37570c-3030,-5750 -4650,-12210 -4650,-18780zm7990 24100c-620,-840 -1210,-1690 -1760,-2570l3310 1910c-530,170 -1060,380 -1550,660zm15130 3850l5810 -10960 23950 0 6590 9870 -19120 11070 -17230 -9980zm49670 -4020l0 0c-240,-120 -510,-230 -760,-330 -80,-30 -160,-50 -240,-80 -160,-50 -330,-110 -500,-150l3110 -1800c-510,800 -1040,1600 -1610,2360zm72520 -45390l-66110 0c-1020,-1850 -2170,-3640 -3460,-5340 950,-1330 1480,-2920 1480,-4570 0,-4380 -3560,-7940 -7940,-7940 -1870,0 -3670,670 -5090,1860 -7130,-4560 -15340,-6960 -23850,-6960 -8420,0 -16540,2350 -23610,6800 -1380,-1100 -3090,-1700 -4880,-1700 -4380,0 -7940,3560 -7940,7940 0,1540 450,3000 1260,4270 -1380,1790 -2610,3680 -3700,5640l-66680 0c-11830,0 -21450,9620 -21450,21460 0,11830 9620,21460 21450,21460l66680 0c1050,1910 2250,3750 3580,5500 -740,1220 -1140,2620 -1140,4080 0,4390 3560,7950 7940,7950 1680,0 3300,-550 4650,-1530 7120,4550 15330,6950 23840,6950 8600,0 16900,-2450 24080,-7110 1380,1080 3080,1690 4860,1690 4380,0 7940,-3560 7940,-7950 0,-1570 -480,-3110 -1360,-4400 1230,-1660 2350,-3390 3340,-5180l66680 0c11710,0 21260,-9430 21450,-21090 200,-12010 -10020,-21830 -22020,-21830z"/>
 </g>
</svg>
