<?xml version="1.0" encoding="UTF-8"?>
<!DOCTYPE svg PUBLIC "-//W3C//DTD SVG 1.1//EN" "http://www.w3.org/Graphics/SVG/1.1/DTD/svg11.dtd">
<!-- Creator: CorelDRAW X7 -->
<svg xmlns="http://www.w3.org/2000/svg" xml:space="preserve" width="4.2332mm" height="4.2332mm" version="1.1" style="shape-rendering:geometricPrecision; text-rendering:geometricPrecision; image-rendering:optimizeQuality; fill-rule:evenodd; clip-rule:evenodd"
viewBox="0 0 423320 423320"
 xmlns:xlink="http://www.w3.org/1999/xlink">
 <defs>
  <style type="text/css">
   <![CDATA[
    .fil0 {fill:none}
    .fil1 {fill:#6E6C6B}
   ]]>
  </style>
 </defs>
 <g id="Layer_x0020_1">
  <metadata id="CorelCorpID_0Corel-Layer"/>
  <rect class="fil0" width="423320" height="423320"/>
  <path class="fil1" d="M334610 213450l-670 30 690 -800 -20 770zm-38960 -16040l-830 -1480c1110,410 2020,1240 2510,2320l-1680 -840zm2080 2500c20,480 -50,940 -170,1370l-870 -1440 790 -1260c140,420 230,870 250,1330zm-1360 -430l-570 -550 -20 -950 1180 580 -590 920zm-530 660l-20 -530 250 250 -230 280zm540 80l690 1110 -1190 590 -30 -1100 530 -600zm-970 3730l450 -1510 1580 -790c-370,990 -1100,1800 -2030,2300zm-1280 -1830l-1020 30 -540 30 -1240 -1150 -20 -230 -90 -1600 620 -660 510 -540 1740 -100 1270 1230 40 1540 -1270 1450zm1230 -50l-600 30 -20 0 640 -730 -20 700zm-350 1670l-1250 -520 570 -660 10 0 1030 -40 -360 1220zm-1520 740c-480,20 -950,-40 -1400,-180l1350 -730 1460 620c-440,170 -910,260 -1410,290zm-420 -1870l350 -10 300 -10 -300 320 -350 -300zm-1560 50l900 -20 700 600 -1130 620 -470 -1200zm-150 -980l570 520 -530 20 -40 -520 0 -20zm-1910 480l1570 480 580 1480c-910,-390 -1670,-1070 -2150,-1960zm-530 -1920c-20,-450 30,-900 140,-1310l670 1250 -530 1430c-160,-420 -270,-880 -280,-1370zm1180 230l790 770 0 0 50 910 -1320 -390 480 -1290zm700 -800l10 300 40 610 -440 -450 390 -460zm-740 170l-550 -1040 1210 -600 40 840 -700 800zm1360 -3740l-680 1570 0 0 0 10 -1510 760c410,-1010 1190,-1860 2190,-2340zm260 1950l-480 510 -10 -470 490 -40zm1150 -1230l-680 730 -890 60 540 -1250 1030 460zm330 -1140c450,-30 890,20 1300,130l-1250 680 -1320 -570c400,-150 820,-220 1270,-240zm460 1800l-800 40 410 -400 390 360zm1670 430l30 550 -580 -560 550 10zm-1020 -470l0 0 -680 -640 910 -500 640 1130 -870 10zm-1130 -2220c-2680,100 -4770,2360 -4680,5030 110,2690 2370,4780 5050,4680 2680,-110 4770,-2360 4660,-5030 -90,-2680 -2350,-4770 -5030,-4680zm-166340 9770l-830 -1480c1110,400 2010,1240 2500,2310l-1670 -830zm2070 2490c0,480 -50,940 -170,1370l-890 -1430 790 -1260c160,420 240,870 270,1320zm-1370 -420l-570 -550 -20 -960 1180 580 -590 930zm-530 650l-10 -520 240 250 -230 270zm550 90l680 1110 -1180 590 -30 -1100 530 -600zm-970 3720l450 -1510 1580 -790c-380,980 -1100,1800 -2030,2300zm-1290 -1830l-690 30 -860 30 -1240 -1140 -50 -710 -60 -1120 420 -450 710 -760 1740 -90 1260 1220 50 1540 -1280 1450zm1240 -40l-610 20 630 -730 -20 710zm-360 1670l-1250 -530 590 -650 1020 -40 -360 1220zm-1510 740c-490,20 -960,-50 -1400,-180l1350 -740 1450 630c-440,160 -910,260 -1400,290zm-420 -1870l280 -20 360 0 -290 320 -350 -300zm-1570 50l900 -30 10 0 700 600 -1140 630 -470 -1200zm-140 -980l570 520 -20 0 -520 20 -30 -520 0 -20zm-1920 480l1560 480 590 1480c-920,-390 -1670,-1080 -2150,-1960zm-520 -1920c-30,-450 20,-900 150,-1320l660 1260 -540 1430c-150,-420 -260,-880 -270,-1370zm1180 230l790 770 0 0 50 900 -1320 -390 480 -1280zm690 -790l30 390 30 500 -460 -440 400 -450zm-730 160l-550 -1040 1200 -600 50 830 -700 810zm1340 -3740l-660 1570 0 0 0 10 -1510 760c410,-1020 1190,-1860 2170,-2340zm280 1950l-480 500 0 -470 480 -30zm1150 -1230l-690 730 -880 50 530 -1240 1040 460zm320 -1150c450,-20 890,30 1300,140l-1250 670 -1310 -570c400,-140 820,-220 1260,-240zm470 1810l-800 40 400 -400 400 360zm1660 430l40 550 -580 -560 540 10zm-1020 -470l0 0 -670 -640 920 -510 640 1130 -890 20zm-1130 -2220c-2670,100 -4770,2370 -4660,5030 100,2690 2360,4780 5030,4680 2680,-110 4780,-2360 4680,-5030 -110,-2690 -2370,-4780 -5050,-4680zm151680 13620l-1350 -2390c1790,650 3260,2010 4070,3750l-2720 -1360zm3360 4060c40,780 -70,1520 -270,2220l-1430 -2320 1280 -2060c240,680 400,1400 420,2160zm-2200 -690l-930 -900 -40 -1550 1920 950 -950 1500zm-870 1070l-30 -870 390 420 -360 450zm890 130l1100 1800 -1910 960 -50 -1780 860 -980zm-1580 6060l730 -2460 2570 -1290c-620,1600 -1800,2930 -3300,3750zm-2080 -2980l-1910 70 -620 20 -2030 -1860 -60 -1130 -110 -1850 910 -970 930 -980 2830 -140 2050 1980 80 2490 -2070 2370zm2000 -80l-1000 40 1040 -1180 -40 1140zm-580 2730l-2030 -880 940 -1060 1680 -60 -590 2000zm-2460 1180c-790,40 -1550,-70 -2280,-280l2210 -1200 2350 1010c-710,270 -1470,440 -2280,470zm-680 -3040l1040 -40 -470 540 -570 -500zm-2540 110l1470 -60 1140 970 -1850 1010 -760 -1920zm-240 -1610l940 840 -40 0 -840 30 -60 -840 0 -30zm-3100 790l2540 770 950 2420c-1490,-650 -2730,-1770 -3490,-3190zm-870 -3130c-20,-750 60,-1460 250,-2140l1090 2050 -890 2320c-250,-700 -420,-1440 -450,-2230zm1940 370l1260 1240 0 20 90 1470 -2140 -650 790 -2080zm1120 -1290l30 610 40 850 -730 -720 660 -740zm-1210 260l-880 -1670 1940 -990 90 1360 -1150 1300zm2210 -6050l-1080 2540 -20 0 0 20 -2450 1230c660,-1660 1940,-3020 3550,-3790zm430 3150l-400 450 -370 380 -20 -770 790 -60zm1870 -2000l-1120 1200 -1430 80 870 -2020 1680 740zm530 -1860c730,-30 1440,60 2110,230l-2030 1100 -2150 -940c660,-230 1340,-360 2070,-390zm750 2940l-1300 60 660 -640 640 580zm2700 700l60 900 -940 -910 880 10zm-1650 -750l0 -10 -1090 -1050 1490 -820 1030 1840 -1430 40zm-1830 -3620c-4350,160 -7750,3840 -7590,8190 160,4330 3840,7740 8180,7570 4360,-160 7750,-3830 7590,-8180 -160,-4340 -3830,-7750 -8180,-7580zm-23720 -12430l-1250 -2220c1670,600 3050,1860 3780,3480l-2530 -1260zm3140 3780c20,730 -70,1410 -260,2070l-1330 -2170 1190 -1910c240,630 370,1300 400,2010zm-2060 -640l-850 -840 -50 -1440 1780 880 -880 1400zm-810 990l-20 -790 370 380 -350 410zm830 120l1040 1680 -1790 900 -50 -1660 800 -920zm-1460 5650l670 -2290 2400 -1200c-570,1490 -1680,2720 -3070,3490zm-1940 -2780l-320 20 -2040 70 -1890 -1730 0 -70 -160 -2700 850 -920 860 -900 2640 -130 1910 1840 70 2310 -1920 2210zm1860 -70l-910 50 -20 0 960 -1120 -30 1070zm-540 2540l-1890 -810 880 -990 0 0 1560 -60 -550 1860zm-2300 1100c-730,40 -1440,-60 -2100,-260l2030 -1120 2200 950c-660,250 -1370,400 -2130,430zm-630 -2820l980 -40 -440 500 -540 -460zm-2360 80l1360 -50 1060 920 -1720 930 -700 -1800zm-220 -1500l860 800 -30 10 -780 20 -50 -790 0 -40zm-2890 750l2360 710 880 2250c-1380,-590 -2530,-1640 -3240,-2960zm-810 -2910c-20,-690 50,-1360 230,-2000l1000 1900 -810 2170c-240,-650 -390,-1340 -420,-2070zm1790 340l1180 1160 10 10 80 1360 -2000 -590 730 -1940zm1060 -1200l30 620 40 740 -680 -670 610 -690zm-1120 240l-830 -1560 1820 -910 70 1260 -1060 1210zm2040 -5650l-1000 2380 -20 0 0 20 -2280 1150c630,-1550 1810,-2820 3300,-3550zm420 2950l-250 260 -480 500 -10 -690 740 -70zm1740 -1860l-1050 1120 -1330 60 800 -1880 1580 700zm480 -1740c690,-30 1340,50 1970,220l-1890 1030 -1990 -890c600,-200 1240,-330 1910,-360zm710 2730l-1200 70 590 -590 610 520zm2510 660l50 840 -870 -840 820 0zm-1550 -700l0 -10 -1010 -970 1400 -760 950 1700 -1340 40zm-1690 -3370c-4050,150 -7220,3570 -7070,7630 150,4040 3570,7210 7620,7050 4050,-140 7220,-3560 7060,-7610 -150,-4050 -3570,-7220 -7610,-7070zm-61260 23910l-830 -1480c1110,400 2010,1240 2510,2310l-1680 -830zm2070 2490c20,480 -50,940 -170,1380l-880 -1440 790 -1270c150,430 250,870 260,1330zm-1350 -420l-580 -550 -30 -950 1180 580 -570 920zm-540 650l-20 -520 240 260 -220 260zm540 90l690 1100 -1190 600 -20 -1090 520 -610zm-960 3720l450 -1510 1580 -800c-380,1010 -1110,1810 -2030,2310zm-1280 -1830l-700 30 -870 40 -1240 -1150 -40 -680 -70 -1160 430 -440 700 -760 1750 -80 1270 1220 40 1530 -1270 1450zm1230 -40l-620 20 640 -730 -20 710zm-360 1670l-1240 -540 570 -650 1030 -20 -360 1210zm-1520 740c-470,10 -950,-40 -1390,-170l1360 -750 1440 630c-430,160 -910,260 -1410,290zm-420 -1880l310 -10 340 0 -300 320 -350 -310zm-1560 60l900 -20 0 0 710 590 -1140 620 -470 -1190zm-140 -980l570 520 -30 0 -510 20 -30 -520 0 -20zm-1920 490l1570 470 580 1480c-910,-390 -1670,-1080 -2150,-1950zm-530 -1940c-20,-450 40,-900 150,-1310l670 1260 -540 1430c-170,-430 -260,-890 -280,-1380zm1180 240l790 760 0 10 50 900 -1310 -400 470 -1270zm700 -800l30 390 20 510 -440 -450 390 -450zm-740 160l-540 -1030 1200 -600 50 830 -710 800zm1360 -3730l-670 1570 0 0 0 0 -1510 770c410,-1010 1190,-1860 2180,-2340zm260 1940l-460 510 -10 -460 470 -50zm1160 -1220l-690 730 -870 40 510 -1240 1050 470zm320 -1150c450,-20 880,30 1310,140l-1270 680 -1310 -580c400,-150 830,-220 1270,-240zm470 1810l-810 40 420 -400 390 360zm1660 430l30 550 -570 -550 540 0zm-1020 -470l-10 0 -660 -650 920 -490 630 1130 -880 10zm-1130 -2230c-2670,110 -4770,2370 -4670,5050 110,2670 2360,4770 5040,4660 2680,-90 4780,-2350 4670,-5030 -100,-2680 -2360,-4770 -5040,-4680zm33600 -8660l-2270 -3710 2030 -3250c390,1080 630,2230 670,3430 50,1220 -110,2410 -430,3530zm-5540 6890l1160 -3900 4080 -2050c-980,2540 -2850,4660 -5240,5950zm-3300 -4730l-4010 150 -3210 -2940 -130 -2180 -150 -2550 1440 -1540 1470 -1560 4500 -240 3250 3150 110 3960 -3270 3750zm3170 -120l-1580 60 1640 -1880 -60 1820zm-910 4320l-3220 -1390 1490 -1670 2660 -110 -930 3170zm-3920 1880c-1240,60 -2460,-100 -3590,-440l3480 -1920 3760 1620c-1140,440 -2360,700 -3650,740zm-1070 -4820l1660 -60 -760 840 -900 -780zm-4030 160l2320 -100 1810 1560 -2920 1600 -1210 -3060zm-370 -2560l1480 1360 -1400 50 -70 -1340 -10 -70zm-4950 1270l4040 1210 1520 3850c-2370,-1020 -4330,-2800 -5560,-5060zm-1350 -4970c-50,-1170 90,-2310 380,-3390l1730 3240 -1400 3710c-410,-1120 -660,-2310 -710,-3560zm3070 600l2000 1970 0 10 140 2340 -3390 -1020 1250 -3300zm1780 -2060l50 940 80 1380 -1170 -1140 1040 -1180zm-1900 420l-1410 -2650 3090 -1560 120 2150 -1800 2060zm3480 -9620l-1720 4050 0 10 0 10 -3910 1970c1050,-2640 3070,-4800 5630,-6040zm690 5010l-510 550 -720 760 -10 -1200 1240 -110zm2970 -3160l-1780 1890 -2260 120 1360 -3200 2680 1190zm830 -2960c1160,-40 2290,80 3350,370l-3220 1740 -3390 -1500c1030,-360 2120,-570 3260,-610zm1200 4660l-2050 100 1030 -1010 1020 910zm3930 -140l-2270 60 0 -10 -1740 -1680 2380 -1290 1630 2920zm440 2680l-1490 -1450 1400 20 90 1430zm2720 2620l-1470 -1420 -70 -2470 3030 1510 -1490 2380zm-1390 1700l-40 -1370 620 660 -580 710zm1420 190l1750 2870 -3030 1540 -80 -2850 1360 -1560zm2430 -5070l-4310 -2160 -2130 -3810c2840,1040 5180,3210 6440,5970zm-10790 -7790c-6900,260 -12290,6070 -12040,12970 260,6900 6090,12300 12980,12040 6900,-270 12300,-6090 12040,-12990 -260,-6900 -6080,-12290 -12980,-12020zm-33460 3810l-1200 -2130c1600,580 2900,1790 3610,3320l-2410 -1190zm2980 3590c20,680 -70,1340 -250,1970l-1250 -2080 1120 -1800c220,600 340,1240 380,1910zm-1950 -610l-820 -790 -40 -1390 1690 840 -830 1340zm-770 940l-20 -770 340 380 -320 390zm780 110l990 1590 -1700 860 -40 -1590 750 -860zm-1380 5360l630 -2170 2270 -1150c-530,1420 -1580,2600 -2900,3320zm-1850 -2630l-2240 80 -1790 -1640 -30 -480 -130 -2160 930 -990 700 -730 2510 -140 1810 1760 60 2200 -1820 2100zm1770 -80l-890 50 920 -1060 -30 1010zm-520 2420l-1790 -780 840 -930 1470 -50 -520 1760zm-2180 1060c-690,10 -1360,-70 -2000,-260l1940 -1060 2090 890c-630,250 -1310,390 -2030,430zm-600 -2700l590 -20 340 -10 -430 470 -500 -440zm-2240 90l1300 -60 1000 870 -1630 900 -670 -1710zm-210 -1430l820 760 -770 20 -50 -780zm-2740 720l2240 670 840 2130c-1320,-550 -2400,-1560 -3080,-2800zm-780 -2780c-10,-650 60,-1290 220,-1890l960 1810 -770 2050c-240,-610 -380,-1270 -410,-1970zm1720 330l1120 1100 0 10 70 1300 -1890 -560 700 -1850zm990 -1140l30 460 40 830 -650 -640 580 -650zm-1060 230l-790 -1480 1720 -870 70 1190 -1000 1160zm1940 -5360l-950 2250 0 0 0 10 -2190 1090c590,-1470 1710,-2670 3140,-3350zm390 2780l-680 730 -10 -670 690 -60zm1660 -1750l-990 1060 -1270 60 770 -1780 1490 660zm460 -1660c640,-20 1270,50 1870,210l-1800 970 -1890 -830c570,-200 1180,-310 1820,-350zm670 2600l-1150 60 580 -560 570 500zm2380 620l50 800 -830 -810 780 10zm-1460 -660l0 0 -960 -940 1320 -720 900 1620 -1260 40zm-1620 -3200c-3840,140 -6860,3390 -6710,7250 150,3840 3390,6840 7240,6700 3840,-150 6860,-3390 6710,-7240 -140,-3840 -3390,-6860 -7240,-6710zm168530 20040l-1370 -590 640 -700 1120 -50 -390 1340zm-234690 11380l580 1490c-920,-390 -1670,-1080 -2150,-1950l1570 460zm-1960 -3710l680 1250 -550 1430c-150,-420 -250,-880 -270,-1370 -20,-450 30,-900 140,-1310zm1690 -1250l-10 0 0 0 -1510 760c410,-1010 1190,-1850 2190,-2330l-670 1570zm2460 -1190l-1320 -580c400,-130 820,-220 1260,-230 450,-20 900,30 1300,130l-1240 680zm2450 920l-830 -1470c1110,400 2010,1230 2500,2310l-1670 -840zm1900 3880l-880 -1450 790 -1260c160,420 250,870 260,1330 20,490 -40,940 -170,1380zm-1700 1150l1580 -800c-370,1000 -1090,1810 -2030,2310l450 -1510zm-2420 1130l1450 620c-430,170 -900,280 -1400,300 -490,10 -950,-50 -1400,-180l1350 -740zm-1030 -930l0 0 10 0 690 600 -1140 620 -460 -1190 900 -30zm-2300 -2170l780 770 0 0 60 900 -1330 -390 490 -1280zm600 -2270l60 840 -710 800 -550 -1030 1200 -610zm1430 -650l-880 50 540 -1240 1040 460 -700 730zm2130 -100l0 -10 -670 -640 910 -500 640 1130 -880 20zm2110 2030l-570 -550 -30 -950 1180 580 -580 920zm-490 2440l-40 -1100 530 -600 690 1110 -1180 590zm-1550 640l1030 -30 -370 1210 -1240 -530 580 -650zm-960 30l330 0 -280 330 -360 -310 310 -20zm-2180 -4500l490 -40 -480 500 -10 -460zm4640 2050l-10 -520 240 250 -230 270zm-1100 -2230l540 10 40 550 -580 -560zm-1120 -430l-800 40 410 -390 390 350zm1130 4620l640 -740 -20 720 -620 20zm-3900 -1530l-450 -440 400 -460 20 400 30 500zm1720 1610l-1240 -1140 -40 -770 -60 -1070 520 -560 600 -650 1740 -80 1270 1210 40 1550 -1270 1450 -610 20 -950 40zm-1170 50l-30 -530 -10 -20 580 520 -20 0 -520 30zm217290 3190l-147980 0 -1930 0 -61170 0c-1420,0 -2810,-170 -4130,-490 10,0 20,0 20,0 2690,-100 4780,-2350 4680,-5030 -100,-2680 -2360,-4770 -5040,-4670 -2680,100 -4770,2360 -4670,5040 60,1420 730,2680 1750,3540 -6120,-2810 -10390,-9000 -10390,-16160 0,-9810 7980,-17780 17780,-17780l61170 0 1930 0 147980 0c7930,0 14650,5200 16940,12380 -610,-220 -1270,-330 -1970,-300 -2930,110 -5200,2580 -5090,5500 100,2920 2570,5210 5500,5100 640,-20 1250,-170 1820,-390 -2000,7620 -8950,13260 -17200,13260zm17310 -21810l-500 -880c110,40 220,70 310,120 80,260 130,500 190,760zm50 1880l-640 -610 600 10 40 600zm-2070 4860l-390 -330 710 -30 -320 360zm30 710l1580 680c-490,190 -990,300 -1540,320 -530,30 -1040,-50 -1530,-190l1490 -810zm-2120 -980l980 -40 770 660 -1240 680 -510 -1300zm-160 -1080l620 580 -20 0 -570 10 -30 -570 0 -20zm-390 1050l640 1630c-1000,-430 -1820,-1190 -2340,-2140l1700 510zm-1400 -2680l-580 1560c-170,-480 -290,-980 -310,-1500 -10,-490 50,-980 160,-1440l730 1380zm410 310l860 840 0 0 50 990 -1430 -440 520 -1390zm760 -860l10 250 50 720 -500 -480 440 -490zm-810 160l-590 -1120 1310 -660 50 910 -770 870zm760 -2350l-10 0 0 10 -1660 820c450,-1100 1300,-2020 2390,-2550l-720 1720zm1010 400l-210 230 -300 330 -20 -510 530 -50zm1270 -1340l-760 800 -960 50 580 -1350 1140 500zm400 -360l-1440 -640c440,-140 900,-240 1390,-250 490,-20 960,30 1420,160l-1370 730zm450 1080l-870 50 440 -440 430 390zm-30 -750l1010 -540 680 1240 -960 20 -730 -720zm1980 4230l-1390 1590 -460 20 -1240 50 -1370 -1250 -40 -710 -70 -1300 610 -660 620 -650 1910 -110 1380 1340 50 1680zm-17450 -21710l-147980 0 -1930 0 -61170 0c-11830,0 -21460,9630 -21460,21470 0,11830 9630,21450 21460,21450l61170 0 1930 0 147980 0c11840,0 21460,-9620 21460,-21450 0,-11840 -9620,-21470 -21460,-21470z"/>
 </g>
</svg>
