<?xml version="1.0" encoding="UTF-8"?>
<!DOCTYPE svg PUBLIC "-//W3C//DTD SVG 1.1//EN" "http://www.w3.org/Graphics/SVG/1.1/DTD/svg11.dtd">
<!-- Creator: CorelDRAW X7 -->
<svg xmlns="http://www.w3.org/2000/svg" xml:space="preserve" width="4.2332mm" height="4.2332mm" version="1.1" style="shape-rendering:geometricPrecision; text-rendering:geometricPrecision; image-rendering:optimizeQuality; fill-rule:evenodd; clip-rule:evenodd"
viewBox="0 0 423320 423320"
 xmlns:xlink="http://www.w3.org/1999/xlink">
 <defs>
  <style type="text/css">
   <![CDATA[
    .fil0 {fill:none}
    .fil1 {fill:#6E6C6B}
   ]]>
  </style>
 </defs>
 <g id="Layer_x0020_1">
  <metadata id="CorelCorpID_0Corel-Layer"/>
  <rect class="fil0" width="423320" height="423320"/>
  <path class="fil1" d="M320950 226330l-70690 210c6660,-1970 11540,-8150 11540,-15440 0,-6360 -3720,-11880 -9090,-14490l68240 380c8100,0 14680,6580 14680,14670 0,8090 -6580,14670 -14680,14670zm-218580 0c-8090,0 -14670,-6580 -14670,-14670 0,-8090 6580,-14670 14670,-14670l65320 -850 3930 30c-5910,2380 -10090,8170 -10090,14930 0,7590 5270,13960 12340,15650l-71500 -420zm109290 -29540c7890,0 14310,6420 14310,14310 0,7890 -6420,14310 -14310,14310 -7890,0 -14300,-6420 -14300,-14310 0,-7890 6410,-14310 14300,-14310zm-17940 14310c0,-6690 -4100,-12440 -9920,-14870l21420 120c-5680,2490 -9660,8160 -9660,14750 0,7450 5090,13740 11980,15560l-26100 80c7040,-1720 12280,-8080 12280,-15640zm-30400 0c0,-7890 6420,-14310 14300,-14310 7890,0 14310,6420 14310,14310 0,7890 -6420,14310 -14310,14310 -7880,0 -14300,-6420 -14300,-14310zm82380 -14310c7890,0 14300,6420 14300,14310 0,7890 -6410,14310 -14300,14310 -7890,0 -14310,-6420 -14310,-14310 0,-7890 6420,-14310 14310,-14310zm-16100 14310c0,7330 4920,13520 11630,15460l-25360 80c6840,-1860 11890,-8120 11890,-15540 0,-6520 -3900,-12150 -9500,-14680l20590 110c-5460,2580 -9250,8140 -9250,14570zm91350 -17150l-153670 0 -8480 0 -56430 0c-9770,0 -17710,7940 -17710,17710 0,9770 7940,17710 17710,17710l69470 -150 149110 150c9770,0 17710,-7940 17710,-17710 0,-9770 -7940,-17710 -17710,-17710z"/>
 </g>
</svg>
