<?xml version="1.0" encoding="UTF-8"?>
<!DOCTYPE svg PUBLIC "-//W3C//DTD SVG 1.1//EN" "http://www.w3.org/Graphics/SVG/1.1/DTD/svg11.dtd">
<!-- Creator: CorelDRAW X7 -->
<svg xmlns="http://www.w3.org/2000/svg" xml:space="preserve" width="4.2332mm" height="4.2332mm" version="1.1" style="shape-rendering:geometricPrecision; text-rendering:geometricPrecision; image-rendering:optimizeQuality; fill-rule:evenodd; clip-rule:evenodd"
viewBox="0 0 423320 423320"
 xmlns:xlink="http://www.w3.org/1999/xlink">
 <defs>
  <style type="text/css">
   <![CDATA[
    .fil0 {fill:none}
    .fil1 {fill:#6E6C6B}
   ]]>
  </style>
 </defs>
 <g id="Layer_x0020_1">
  <metadata id="CorelCorpID_0Corel-Layer"/>
  <rect class="fil0" width="423320" height="423320"/>
  <path class="fil1" d="M317200 229340l-68070 -80c530,-1500 810,-3120 780,-4800 -20,-1700 -350,-3320 -930,-4820 1200,-1590 1950,-3440 2180,-5400 1240,-320 2140,-1450 2130,-2780 -30,-1560 -1300,-2810 -2860,-2800 -670,-1680 -1750,-3180 -3170,-4390l-30 40c760,-1690 1170,-3570 1150,-5550 -20,-1670 -370,-3270 -960,-4740l69780 -240c9810,0 17780,7970 17780,17780 0,9800 -7970,17780 -17780,17780zm-81080 7860c-6920,100 -12630,-5450 -12730,-12370 -90,-6920 5460,-12630 12380,-12720 6920,-100 12620,5450 12720,12370 100,6920 -5450,12630 -12370,12720zm-10190 7610c670,-1660 1020,-3470 1000,-5370 -30,-1810 -400,-3530 -1050,-5100 2460,2540 5860,4160 9630,4280 -310,1140 -850,2200 -1580,3110 -490,-390 -1110,-610 -1780,-600 -1570,20 -2830,1310 -2810,2880 10,220 40,430 90,630 -1130,300 -2320,360 -3500,170zm-12800 7370c-6920,100 -12630,-5450 -12720,-12370 -100,-6920 5450,-12630 12370,-12730 6920,-100 12630,5450 12730,12380 90,6920 -5460,12620 -12380,12720zm-16230 -8090c20,-110 20,-210 20,-320 -20,-1570 -1310,-2830 -2880,-2810 -690,10 -1320,270 -1810,680 -690,-760 -1220,-1680 -1560,-2720 6230,-1480 10830,-7120 10740,-13780 -90,-5940 -3890,-10980 -9160,-12920 2540,-530 4820,-1740 6650,-3440 -210,990 -320,2020 -310,3080 110,7700 6470,13880 14170,13770 3710,-40 7060,-1550 9530,-3950 -220,1020 -340,2080 -320,3170 30,1800 400,3520 1050,5100 -2590,-2690 -6240,-4350 -10260,-4290 -7700,110 -13880,6460 -13780,14170 20,1420 260,2790 680,4080 -930,230 -1860,290 -2760,180zm-9290 -6210c-6920,100 -12620,-5450 -12720,-12370 -100,-6920 5450,-12630 12370,-12730 6920,-90 12630,5460 12730,12380 90,6920 -5460,12630 -12380,12720zm-81490 -8540c-9800,0 -17780,-7980 -17780,-17780 0,-9810 7980,-17780 17780,-17780l70140 0c-560,1550 -860,3220 -840,4960 30,2290 620,4430 1620,6320 -1130,950 -1980,2140 -2520,3470 -1500,100 -2680,1350 -2660,2870 20,1370 1000,2500 2300,2750 320,1200 870,2330 1680,3320l140 -110c-1620,2310 -2560,5130 -2510,8170 10,1320 220,2600 580,3810l-67930 0zm70640 -13000c-510,-710 -900,-1470 -1160,-2290 1140,-380 1960,-1460 1940,-2730 -10,-1110 -670,-2050 -1600,-2510 430,-950 1050,-1800 1840,-2510 1640,2440 4010,4330 6800,5360 -3110,650 -5840,2330 -7820,4680zm12460 -30340c6920,-100 12630,5450 12720,12370 100,6920 -5450,12630 -12370,12730 -6920,90 -12630,-5460 -12720,-12380 -110,-6920 5450,-12630 12370,-12720zm9660 -6600c-460,1410 -700,2930 -680,4490 30,1600 320,3130 830,4560 -2340,-2250 -5460,-3670 -8890,-3860 330,-1140 930,-2150 1700,-2980 500,390 1120,620 1800,610 1570,-20 2830,-1310 2800,-2880 0,-20 0,-30 0,-50 800,-90 1620,-70 2440,110zm13120 -8250c6920,-100 12630,5450 12720,12370 100,6920 -5450,12630 -12370,12730 -6920,100 -12630,-5460 -12730,-12380 -90,-6920 5460,-12620 12380,-12720zm13120 40340c90,6920 -5460,12630 -12380,12720 -6920,100 -12630,-5450 -12730,-12370 -90,-6920 5460,-12630 12380,-12720 6920,-100 12630,5450 12730,12370zm3290 -31220c-30,170 -50,350 -50,530 20,1570 1310,2820 2880,2800 700,-10 1330,-270 1830,-690 690,830 1190,1820 1460,2900 -7020,350 -12580,6230 -12470,13320 10,880 110,1740 290,2570 -2570,-2520 -6110,-4060 -9980,-4000 -3600,40 -6860,1450 -9310,3730 210,-990 320,-2020 300,-3080 -20,-1600 -310,-3130 -830,-4550 2560,2440 6030,3920 9840,3870 7700,-110 13880,-6460 13770,-14170 -10,-1090 -150,-2140 -410,-3150 900,-190 1800,-210 2680,-80zm18550 18510c90,6470 -5100,11810 -11580,11910 -6470,90 -11810,-5110 -11900,-11580 -90,-6470 5100,-11810 11570,-11910 6480,-80 11820,5110 11910,11580zm-20790 9720c1430,1350 3160,2390 5090,3000 -1910,670 -3620,1760 -5050,3140 220,-1020 340,-2080 330,-3170 -20,-1020 -140,-2020 -370,-2970zm22870 520c-870,500 -1450,1440 -1440,2520 20,1300 920,2390 2120,2700 -190,1380 -680,2700 -1430,3890 -1750,-3290 -4770,-5810 -8400,-6880 2830,-1080 5180,-3100 6690,-5670 1080,970 1910,2140 2460,3440zm68160 -18920l-72360 -130c-2280,-2440 -5470,-4010 -9010,-4170l160 -40c-330,-1540 -1070,-2930 -2100,-4070 100,-310 160,-630 160,-970 -30,-1570 -1320,-2820 -2880,-2800 -870,10 -1630,410 -2140,1020 -1200,-240 -2440,-240 -3670,30l80 340c-1870,-5630 -7220,-9670 -13460,-9580 -5690,80 -10550,3560 -12650,8490l40 -170c-1110,-270 -2250,-300 -3340,-140 -510,-840 -1420,-1390 -2470,-1370 -1570,20 -2820,1310 -2800,2880 0,370 80,720 220,1040 -1130,1130 -1930,2550 -2320,4130 -4240,230 -7970,2340 -10380,5510l-72160 0c-11830,0 -21450,9630 -21450,21460 0,11830 9620,21450 21450,21450l69650 0c2550,3850 6920,6360 11860,6300 550,-10 1100,-60 1630,-130 430,1430 1170,2670 2140,3670 -110,310 -170,650 -160,990 20,1570 1310,2830 2880,2810 940,-20 1760,-490 2270,-1200 510,80 1020,120 1550,120 740,-20 1480,-120 2220,-320 2200,4980 7210,8430 12990,8350 5280,-70 9840,-3080 12160,-7450 700,140 1400,210 2100,200 930,-10 1840,-160 2720,-420 530,550 1270,900 2100,880 1570,-20 2820,-1310 2800,-2880 -10,-370 -80,-720 -220,-1040 1060,-1220 1810,-2690 2170,-4300 4160,-310 7790,-2440 10150,-5580l70070 0c11840,0 21470,-9620 21470,-21450 0,-11830 -9630,-21460 -21470,-21460z"/>
 </g>
</svg>
