<?xml version="1.0" encoding="UTF-8"?>
<!DOCTYPE svg PUBLIC "-//W3C//DTD SVG 1.1//EN" "http://www.w3.org/Graphics/SVG/1.1/DTD/svg11.dtd">
<!-- Creator: CorelDRAW X7 -->
<svg xmlns="http://www.w3.org/2000/svg" xml:space="preserve" width="4.2332mm" height="4.2332mm" version="1.1" style="shape-rendering:geometricPrecision; text-rendering:geometricPrecision; image-rendering:optimizeQuality; fill-rule:evenodd; clip-rule:evenodd"
viewBox="0 0 423320 423320"
 xmlns:xlink="http://www.w3.org/1999/xlink">
 <defs>
  <style type="text/css">
   <![CDATA[
    .fil0 {fill:none}
    .fil1 {fill:#6E6C6B}
   ]]>
  </style>
 </defs>
 <g id="Layer_x0020_1">
  <metadata id="CorelCorpID_0Corel-Layer"/>
  <rect class="fil0" width="423320" height="423320"/>
  <g id="_2142987907376">
   <path class="fil1" d="M315690 229670l-28220 0 0 -16940 0 -1670 0 -16950 28220 0c10490,0 19030,7980 19030,17780 0,9810 -8540,17780 -19030,17780zm-77310 -16940l12330 0 890 0 0 16940 -13220 0 0 -16940zm-30900 23860l-4110 0 -17760 0 0 -17760 0 -4110 0 -27990 27990 0 4110 0 17760 0 0 17760 0 4110 10 27990 -28000 0zm-24780 -6920l-13750 0 0 -16940 890 0 12860 0 0 3200 0 13740zm-94140 -17780c0,-9800 8440,-17780 18810,-17780l25420 0 0 35560 -25420 0c-10370,0 -18810,-7970 -18810,-17780zm94140 -830l-12860 0 -890 0 0 -16950 13750 0 0 16950zm-30670 1670l15250 0 0 16940 -15250 0 0 -16940zm-17570 0l12510 0 3390 0 0 16940 -15900 0 0 -16940zm15900 -1670l-3390 0 -12510 0 0 -16950 15900 0 0 16950zm16920 0l-15250 0 0 -16950 15250 0 0 16950zm102910 1670l3380 0 12230 0 0 16940 -15610 0 0 -16940zm-16910 0l15240 0 0 16940 -15240 0 0 -16940zm15240 -1670l-15240 0 0 -16950 15240 0 0 16950zm17280 0l-12230 0 -3380 0 0 -16950 15610 0 0 16950zm29890 -20630l-77310 0 0 3680 13220 0 0 16950 -890 0 -12330 0 0 -3670 0 -23570 -23570 0 -4110 0 -28000 0 0 6610 -75330 0c-12520,0 -22710,9630 -22710,21460 0,11840 10190,21460 22710,21460l75330 0 0 6150 23570 0 4110 0 28000 0 0 -6150 77310 0c12670,0 22980,-9620 22980,-21460 0,-11830 -10310,-21460 -22980,-21460z"/>
   <path class="fil1" d="M223550 224670c-7170,7170 -18840,7170 -26020,0 -7170,-7170 -7170,-18840 0,-26020 7180,-7170 18850,-7170 26020,0 7170,7180 7170,18850 0,26020zm-28070 -28070c-8310,8300 -8310,21820 0,30130 8300,8300 21820,8300 30120,0 8310,-8310 8310,-21830 0,-30130 -8300,-8310 -21820,-8310 -30120,0z"/>
  </g>
 </g>
</svg>
