<?xml version="1.0" encoding="UTF-8"?>
<!DOCTYPE svg PUBLIC "-//W3C//DTD SVG 1.1//EN" "http://www.w3.org/Graphics/SVG/1.1/DTD/svg11.dtd">
<!-- Creator: CorelDRAW X7 -->
<svg xmlns="http://www.w3.org/2000/svg" xml:space="preserve" width="4.2332mm" height="4.2332mm" version="1.1" style="shape-rendering:geometricPrecision; text-rendering:geometricPrecision; image-rendering:optimizeQuality; fill-rule:evenodd; clip-rule:evenodd"
viewBox="0 0 423320 423320"
 xmlns:xlink="http://www.w3.org/1999/xlink">
 <defs>
  <style type="text/css">
   <![CDATA[
    .fil0 {fill:none}
    .fil1 {fill:#6E6C6B}
   ]]>
  </style>
 </defs>
 <g id="Layer_x0020_1">
  <metadata id="CorelCorpID_0Corel-Layer"/>
  <rect class="fil0" width="423320" height="423320"/>
  <path class="fil1" d="M317260 228560l-72590 470c1870,-2520 3940,-5590 4710,-7480 1360,-3350 2060,-7010 2030,-10580 -20,-4720 -1270,-9400 -3620,-13530 -1110,-1980 -2330,-3450 -3900,-5140l73370 810c9770,0 17730,7950 17730,17720 0,9780 -7960,17730 -17730,17730zm-82350 1210c-1250,-1270 -2610,-2410 -4050,-3430 -990,-810 -1460,-2180 -1910,-3500 -170,-500 -350,-1020 -550,-1500 -1920,-4520 -2520,-9700 -1700,-14570 520,-3110 1970,-6260 3120,-8390 2980,-2620 4620,-4200 5780,-5550 30,-40 60,-70 90,-100 560,210 1160,330 1790,330 1480,0 2810,-640 3740,-1640 2120,1980 3920,4260 5320,6720 2220,3930 3410,8360 3420,12830 30,3390 -630,6860 -1920,10040 -1020,2530 -4730,7540 -6650,9880 -940,-1110 -2340,-1820 -3910,-1820 -940,0 -1810,260 -2570,700zm-7160 13090c-3920,2230 -8350,3410 -12820,3430l-230 0c-3320,0 -6700,-670 -9800,-1930 -2640,-1060 -5110,-2550 -7340,-4430l-520 -430c-770,-640 -1610,-1340 -2430,-2080 720,-880 1160,-2010 1160,-3230 0,-1270 -470,-2430 -1230,-3320 450,-410 910,-790 1380,-1160l70 -40 50 -50c3030,-2360 6340,-3980 8520,-4900 4510,-1910 9710,-2520 14570,-1700 2860,480 5620,1440 8210,2840 2340,1270 4510,2890 6440,4810 -880,910 -1420,2150 -1420,3520 0,1510 660,2860 1700,3800 -1880,1920 -4010,3580 -6310,4870zm-34370 -13000c-790,-500 -1730,-790 -2730,-790 -1710,0 -3210,850 -4140,2130l-1360 -1060c-2360,-3030 -3980,-6330 -4890,-8510 -1920,-4520 -2520,-9700 -1700,-14570 480,-2860 1430,-5620 2840,-8210 1450,-2680 3380,-5140 5670,-7260 920,910 2190,1470 3580,1470 870,0 1690,-220 2400,-610 510,580 1020,1160 1530,1760 1070,1240 2160,2520 3460,3880 280,300 510,610 680,920 2010,3770 3090,8010 3100,12250 30,3390 -630,6860 -1920,10030 -1040,2590 -3040,5090 -4840,7240 -660,370 -1210,830 -1680,1330zm-87320 -1720c-9780,0 -17730,-7950 -17730,-17730 0,-9780 7950,-17730 17730,-17730l78270 -380c-1650,1790 -3070,3760 -4210,5860 -1470,2730 -2480,5650 -2980,8660 -870,5140 -230,10600 1790,15380 710,1670 1820,4000 3350,6390l-76220 -450zm119200 -21480l0 -4390c0,-390 -330,-700 -720,-700l-4310 0c2710,-550 5330,-1500 7770,-2820 -1080,2150 -2250,4960 -2720,7780 -10,40 -20,90 -20,130zm-720 15190c120,0 230,-30 340,-80l140 -90c160,-140 240,-340 240,-530l0 -5590c350,2190 950,4330 1810,6350 180,430 340,900 510,1390 140,430 300,870 470,1300 -10,0 -20,-10 -20,-10 -2330,-1270 -4800,-2180 -7350,-2740l3860 0zm-20680 -960l0 -18360 20430 0 0 18360 -20430 0zm-3870 -22570c-150,-280 -340,-560 -560,-830 1560,1030 3210,1890 4920,2590 1610,650 3280,1140 4990,1490l-5740 0 -60 0c-90,10 -180,40 -300,100l-130 110c-130,120 -210,300 -220,490l0 4660c-490,-2990 -1460,-5910 -2900,-8610zm3050 23240l50 70 110 100c120,80 260,120 400,120l5300 0c-1690,360 -3340,880 -4900,1540 -1370,570 -3160,1410 -5060,2530 910,-1300 1730,-2670 2300,-4090 770,-1890 1320,-3880 1650,-5900l0 5230c10,140 60,280 150,400zm-8210 -36570c3330,-2920 7260,-4850 9730,-5900 4510,-1910 9710,-2520 14570,-1700 2860,490 5620,1430 8210,2840 2220,1200 4290,2730 6140,4530 -700,870 -1120,1980 -1120,3180 0,1660 800,3130 2030,4070 -1960,2080 -4200,3850 -6640,5220 -3920,2230 -8350,3410 -12820,3420l-230 10c-3320,0 -6700,-670 -9800,-1920 -2640,-1070 -5110,-2560 -7340,-4430l-520 -440c-860,-720 -1820,-1520 -2740,-2350 910,-930 1470,-2190 1470,-3580 0,-1100 -350,-2120 -940,-2950zm122430 4450l-74900 0c150,-480 240,-980 240,-1500 0,-2830 -2300,-5120 -5120,-5120 -1100,0 -2120,350 -2960,940 -1950,-1890 -4140,-3530 -6490,-4800 -2730,-1480 -5650,-2490 -8660,-2990 -5120,-870 -10620,-220 -15370,1790 -2580,1080 -6670,3110 -10160,6180 -880,-700 -1990,-1120 -3190,-1120 -2830,0 -5120,2290 -5120,5120 0,360 50,710 120,1050l-79590 20c-11800,0 -21400,9600 -21400,21400 0,11800 9600,21390 21400,21390l78560 -10c340,400 690,810 1060,1200 -100,390 -150,790 -150,1200 0,2820 2290,5120 5120,5120 1070,0 2070,-330 2890,-900 870,780 1760,1520 2580,2200l520 430c2340,1970 4940,3540 7710,4660 3270,1330 6850,2030 10350,2030l240 0c4710,-10 9390,-1270 13530,-3610 2490,-1410 4790,-3210 6810,-5310 670,310 1410,500 2200,500 2820,0 5120,-2300 5120,-5120 0,-500 -80,-970 -210,-1430l74870 -530c11800,0 21400,-9600 21400,-21400 0,-11790 -9600,-21390 -21400,-21390z"/>
 </g>
</svg>
