<?xml version="1.0" encoding="UTF-8"?>
<!DOCTYPE svg PUBLIC "-//W3C//DTD SVG 1.1//EN" "http://www.w3.org/Graphics/SVG/1.1/DTD/svg11.dtd">
<!-- Creator: CorelDRAW X7 -->
<svg xmlns="http://www.w3.org/2000/svg" xml:space="preserve" width="4.2332mm" height="4.2332mm" version="1.1" style="shape-rendering:geometricPrecision; text-rendering:geometricPrecision; image-rendering:optimizeQuality; fill-rule:evenodd; clip-rule:evenodd"
viewBox="0 0 42332 42332"
 xmlns:xlink="http://www.w3.org/1999/xlink">
 <defs>
  <style type="text/css">
   <![CDATA[
    .fil0 {fill:none}
    .fil1 {fill:#22B9C7}
   ]]>
  </style>
 </defs>
 <g id="Layer_x0020_1">
  <metadata id="CorelCorpID_0Corel-Layer"/>
  <rect class="fil0" width="42332" height="42332"/>
  <g id="_2143102619344">
   <path class="fil1" d="M31719 22744l-7145 0 1579 -1579 -1977 -1977 7543 0c980,0 1778,798 1778,1778 0,981 -798,1778 -1778,1778zm-8595 930l-368 368 -1592 1591 -1591 -1591 -368 -368 -2509 -2509 2509 -2509 368 -368 1591 -1591 1592 1591 368 368 2509 2509 -2509 2509zm-12514 -930c-980,0 -1778,-797 -1778,-1778 0,-980 798,-1778 1778,-1778l7543 0 -1977 1977 1579 1579 -7145 0zm21109 -3924l-7911 0 -163 -164 -369 -368 -2112 -2112 -2111 2112 -369 368 -163 164 -7911 0c-1183,0 -2146,963 -2146,2146 0,1184 963,2146 2146,2146l7513 0 561 562 368 368 2112 2112 2112 -2112 369 -368 561 -562 7513 0c1183,0 2146,-962 2146,-2146 0,-1183 -963,-2146 -2146,-2146z"/>
   <path class="fil1" d="M21164 23497c-1285,0 -2331,-1046 -2331,-2332 0,-1285 1046,-2331 2331,-2331 1286,0 2332,1046 2332,2331 0,1286 -1046,2332 -2332,2332zm0 -5031c-1488,0 -2699,1211 -2699,2699 0,1489 1211,2700 2699,2700 1489,0 2700,-1211 2700,-2700 0,-1488 -1211,-2699 -2700,-2699z"/>
  </g>
 </g>
</svg>
