<?xml version="1.0" encoding="UTF-8"?>
<!DOCTYPE svg PUBLIC "-//W3C//DTD SVG 1.1//EN" "http://www.w3.org/Graphics/SVG/1.1/DTD/svg11.dtd">
<!-- Creator: CorelDRAW X7 -->
<svg xmlns="http://www.w3.org/2000/svg" xml:space="preserve" width="4.2332mm" height="4.2332mm" version="1.1" style="shape-rendering:geometricPrecision; text-rendering:geometricPrecision; image-rendering:optimizeQuality; fill-rule:evenodd; clip-rule:evenodd"
viewBox="0 0 42332 42332"
 xmlns:xlink="http://www.w3.org/1999/xlink">
 <defs>
  <style type="text/css">
   <![CDATA[
    .fil0 {fill:none}
    .fil1 {fill:#22B9C7}
   ]]>
  </style>
 </defs>
 <g id="Layer_x0020_1">
  <metadata id="CorelCorpID_0Corel-Layer"/>
  <rect class="fil0" width="42332" height="42332"/>
  <g id="_2142987901808">
   <path class="fil1" d="M24435 22838l130 -130c130,444 473,798 911,941l-1852 0 811 -811zm-1327 811l-364 365 -1576 1576 -1576 -1576 -365 -365 -287 -288 -172 -171 -1538 -1539 -172 -171 -149 -148 -166 -167 81 -81 1178 -1178 212 -212 1013 -1013 365 -365 1576 -1576 1576 1576 364 365 456 455 172 172 1533 1533 172 172 58 58 94 94 -168 168 -790 789 -277 278 -1250 1249zm-4960 0c135,-44 261,-108 375,-189l117 117 72 72 -564 0zm-7837 -166c261,-174 461,-433 560,-738 137,427 474,765 900,904l-596 0c-305,0 -597,-59 -864,-166zm-1467 -1956c185,-163 427,-261 692,-261 579,-1 1050,471 1050,1050 1,440 -272,817 -656,973 -600,-378 -1017,-1020 -1086,-1762zm715 -2197c-40,82 -73,169 -97,260 -11,-40 -24,-80 -39,-119 44,-49 89,-96 136,-141zm6866 1638l-21 20c-41,5 -83,9 -126,9 -579,0 -1050,-471 -1050,-1050 0,-580 471,-1051 1050,-1051 579,0 1050,471 1050,1051 0,42 -3,84 -7,125l-896 896zm239 1348c0,-204 59,-394 160,-554l21 20 182 182 1242 1242c-161,101 -351,160 -555,160 -579,0 -1050,-471 -1050,-1050zm-329 249c92,510 460,926 945,1084l-1891 0c485,-158 853,-574 946,-1084zm-2755 33c102,496 465,896 939,1051l-1878 0c474,-155 837,-555 939,-1051zm-1374 -1333c579,0 1050,472 1050,1051 0,579 -471,1050 -1050,1050 -579,0 -1050,-471 -1050,-1050 0,-579 471,-1050 1050,-1051zm-1387 -2369c579,0 1050,471 1050,1051 0,579 -471,1050 -1050,1050 -579,0 -1050,-471 -1050,-1050 0,-580 471,-1051 1050,-1051zm1365 727c-99,-416 -383,-761 -761,-942l1522 0c-378,181 -663,526 -761,942zm2729 0c-98,-416 -383,-761 -761,-942l1522 0c-377,181 -662,526 -761,942zm41 1290c-167,0 -328,30 -477,84 213,-189 369,-441 436,-727 63,267 203,504 395,688 -113,-29 -232,-45 -354,-45zm0 352c579,0 1050,472 1050,1051 0,579 -471,1050 -1050,1050 -579,0 -1050,-471 -1050,-1050 0,-579 471,-1050 1050,-1051zm-2456 -1318c0,-580 471,-1051 1051,-1051 579,0 1050,471 1050,1051 0,579 -471,1050 -1050,1050 -579,0 -1051,-471 -1051,-1050zm-314 323c64,270 206,511 403,696 -121,-34 -249,-53 -381,-53 -156,0 -306,26 -447,74 207,-188 358,-437 425,-717zm1396 1763c-59,-287 -207,-542 -412,-737 121,35 249,53 381,53 167,0 328,-29 477,-84 -223,198 -384,465 -446,768zm2698 -684c43,0 85,-2 127,-6l165 165c-116,164 -199,354 -235,559 -54,-297 -201,-562 -411,-763 113,29 232,45 354,45zm1365 -1725c-99,-417 -383,-762 -761,-943l1522 0c-378,181 -663,526 -761,943zm-8172 710c68,235 195,445 365,612 -97,-21 -197,-33 -300,-33 -159,0 -311,28 -454,77 185,-176 322,-402 389,-656zm-306 -357c0,291 -120,554 -312,744 42,-318 146,-616 302,-881 6,45 10,90 10,137zm1706 1909c-70,-218 -192,-412 -352,-569 97,21 197,32 300,32 156,0 306,-26 447,-73 -181,163 -319,373 -395,610zm12993 -3205c-53,25 -105,54 -154,86l-86 -86 240 0zm8003 109c-284,194 -494,489 -576,834 -98,-417 -383,-762 -761,-943l631 0c246,0 483,38 706,109zm1599 1822c-193,234 -484,385 -810,385 -579,0 -1051,-471 -1051,-1050 0,-448 282,-829 677,-980 612,335 1058,936 1184,1645zm-583 1704c0,-425 254,-791 618,-956 -12,533 -202,1022 -514,1410 -66,-138 -104,-291 -104,-454zm-304 364c35,128 88,249 155,360 -222,202 -483,362 -770,467 298,-185 522,-480 615,-827zm-2702 24c129,446 473,801 913,945l-1826 0c440,-144 784,-499 913,-945zm-2657 114c151,392 473,700 875,831l-1749 0c401,-131 723,-439 874,-831zm-1388 -2549c61,262 196,495 382,678 -97,-22 -199,-34 -303,-34 -18,0 -36,1 -53,1l-175 -174 -36 -37c84,-131 147,-277 185,-434zm-315 -322c0,180 -47,350 -128,499l-1379 -1380 -43 -42c149,-81 319,-128 500,-128 579,0 1050,471 1050,1051zm315 -324c-99,-416 -383,-761 -761,-942l1522 0c-378,181 -663,526 -761,942zm2729 0c-98,-416 -383,-761 -761,-942l1522 0c-377,181 -662,526 -761,942zm1365 1374c-579,0 -1050,-471 -1050,-1050 0,-580 471,-1051 1050,-1051 579,0 1050,471 1050,1051 0,579 -471,1050 -1050,1050zm1299 268c579,0 1050,472 1050,1051 0,579 -471,1050 -1050,1050 -579,0 -1051,-471 -1051,-1050 0,-579 472,-1050 1051,-1051zm-2696 0c579,0 1051,472 1051,1051 0,579 -472,1050 -1051,1050 -579,0 -1050,-471 -1050,-1050 0,-579 471,-1050 1050,-1051zm-1332 -268c-580,0 -1051,-471 -1051,-1050 0,-580 471,-1051 1051,-1051 579,0 1050,471 1050,1051 0,579 -471,1050 -1050,1050zm1364 -727c67,283 221,534 431,722 -145,-51 -301,-79 -463,-79 -127,0 -249,17 -366,49 193,-184 335,-424 398,-692zm-1341 1543c-73,-188 -185,-358 -327,-497 98,21 199,33 304,33 127,0 249,-17 366,-49 -149,143 -268,317 -343,513zm2657 114c-74,-256 -219,-483 -414,-657 145,51 301,79 463,79 110,0 218,-13 320,-37 -172,168 -301,379 -369,615zm2702 24c-75,-278 -233,-522 -447,-703 162,65 339,101 524,101 100,0 198,-11 293,-31 -175,172 -304,390 -370,633zm-1288 -1681c70,295 233,554 457,745 -162,-66 -339,-102 -523,-102 -110,0 -218,13 -321,37 188,-182 325,-417 387,-680zm-5349 1061l61 -61c536,47 958,498 958,1046 0,579 -471,1050 -1050,1050 -548,0 -999,-422 -1047,-957l1078 -1078zm5219 -3015l-7902 0 -2091 -2091 -2092 2091 -7901 0c-1492,0 -2706,1214 -2706,2706l0 286c0,1492 1214,2706 2706,2706l7901 0 2092 2091 2091 -2091 7902 0c1492,0 2706,-1214 2706,-2706l0 -286c0,-1492 -1214,-2706 -2706,-2706z"/>
   <path class="fil1" d="M21168 23474c-1273,0 -2309,-1036 -2309,-2309 0,-1273 1036,-2309 2309,-2309 1273,0 2308,1036 2308,2309 0,1273 -1035,2309 -2308,2309zm0 -4982c-1474,0 -2673,1199 -2673,2673 0,1474 1199,2673 2673,2673 1474,0 2673,-1199 2673,-2673 0,-1474 -1199,-2673 -2673,-2673z"/>
  </g>
 </g>
</svg>
