<?xml version="1.0" encoding="UTF-8"?>
<!DOCTYPE svg PUBLIC "-//W3C//DTD SVG 1.1//EN" "http://www.w3.org/Graphics/SVG/1.1/DTD/svg11.dtd">
<!-- Creator: CorelDRAW X7 -->
<svg xmlns="http://www.w3.org/2000/svg" xml:space="preserve" width="4.2332mm" height="4.2332mm" version="1.1" style="shape-rendering:geometricPrecision; text-rendering:geometricPrecision; image-rendering:optimizeQuality; fill-rule:evenodd; clip-rule:evenodd"
viewBox="0 0 42332 42332"
 xmlns:xlink="http://www.w3.org/1999/xlink">
 <defs>
  <style type="text/css">
   <![CDATA[
    .fil0 {fill:none}
    .fil1 {fill:#22B9C7}
   ]]>
  </style>
 </defs>
 <g id="Layer_x0020_1">
  <metadata id="CorelCorpID_0Corel-Layer"/>
  <rect class="fil0" width="42332" height="42332"/>
  <g id="_2142827277232">
   <path class="fil1" d="M33501 21308c0,180 -20,354 -59,522l0 -1326c39,167 59,340 59,519l0 285zm-423 1205l-1309 0 0 -2699 1309 0 0 2699zm-1919 1137l-7536 0 772 -772 8500 0c-428,474 -1048,772 -1736,772zm-5841 -1696l0 559 -559 0 559 -559zm-2211 1696l-364 364 -1576 1576 -1576 -1576 -365 -364 -772 -772 -364 -365 -1348 -1347 1352 -1352 364 -365 768 -768 365 -364 1576 -1576 1576 1576 364 364 768 768 365 365 1352 1352 -1348 1347 -365 365 -772 772zm-5768 -1137l0 -235 236 235 -236 0zm-6165 1137c-688,0 -1307,-298 -1736,-772l8501 0 772 772 -7537 0zm-1915 -1137l0 -2699 1549 0 0 2699 -1549 0zm-365 -670c-40,-172 -62,-351 -62,-535l0 -285c0,-183 22,-360 62,-531l0 1351zm365 -2160c26,-38 54,-75 83,-112 -29,37 -57,74 -83,112l0 0zm3544 131l0 2699 -1630 0 0 -2699 1630 0zm2086 0l0 2699 -1722 0 0 -2699 1722 0zm2086 0l0 603 -749 749 749 748 0 599 -1722 0 0 -2699 1722 0zm603 0l-239 239 0 -239 239 0zm-6404 -1133l7537 0 -768 768 -8498 0c429,-470 1044,-768 1729,-768zm14144 1133l0 563 -563 -563 563 0zm365 927l0 -927 1721 0 0 2699 -1721 0 0 -923 424 -424 -424 -425zm3807 -927l0 2699 -1721 0 0 -2699 1721 0zm1914 0l0 2699 -1549 0 0 -2699 1549 0zm-245 -1133c686,0 1301,298 1730,768l-8498 0 -768 -768 7536 0zm0 -364l-7901 0 -2091 -2092 -2092 2092 -7901 0c-1492,0 -2706,1214 -2706,2706l0 285c0,1492 1214,2706 2706,2706l7901 0 2092 2092 2091 -2092 7901 0c1493,0 2707,-1214 2707,-2706l0 -285c0,-1492 -1214,-2706 -2707,-2706z"/>
   <path class="fil1" d="M21167 23474c-1273,0 -2309,-1035 -2309,-2308 0,-506 165,-972 441,-1352 97,-133 207,-255 329,-365 409,-367 947,-592 1539,-592 591,0 1129,225 1538,592 122,110 233,232 329,365 277,380 441,846 441,1352 0,1273 -1035,2308 -2308,2308zm2047 -4025c-283,-337 -647,-603 -1062,-768 -305,-121 -638,-189 -985,-189 -348,0 -680,68 -985,189 -415,165 -780,431 -1063,768 -95,114 -181,236 -257,365 -234,397 -369,859 -369,1352 0,1126 701,2091 1688,2484 306,121 638,189 986,189 347,0 680,-68 985,-189 988,-393 1688,-1358 1688,-2484 0,-494 -135,-955 -369,-1352 -75,-129 -161,-251 -257,-365z"/>
  </g>
 </g>
</svg>
