<?xml version="1.0" encoding="UTF-8"?>
<!DOCTYPE svg PUBLIC "-//W3C//DTD SVG 1.1//EN" "http://www.w3.org/Graphics/SVG/1.1/DTD/svg11.dtd">
<!-- Creator: CorelDRAW X7 -->
<svg xmlns="http://www.w3.org/2000/svg" xml:space="preserve" width="4.2332mm" height="4.2332mm" version="1.1" style="shape-rendering:geometricPrecision; text-rendering:geometricPrecision; image-rendering:optimizeQuality; fill-rule:evenodd; clip-rule:evenodd"
viewBox="0 0 423320 423320"
 xmlns:xlink="http://www.w3.org/1999/xlink">
 <defs>
  <style type="text/css">
   <![CDATA[
    .fil0 {fill:none}
    .fil1 {fill:#6E6C6B}
   ]]>
  </style>
 </defs>
 <g id="Layer_x0020_1">
  <metadata id="CorelCorpID_0Corel-Layer"/>
  <rect class="fil0" width="423320" height="423320"/>
  <g id="_2142992450656">
   <path class="fil1" d="M244340 228390l1300 -1300c1300,4440 4730,7980 9110,9410l-18520 0 8110 -8110zm-13270 8110l-3640 3650 -15770 15760 -15760 -15760 -3640 -3650 -2880 -2880 -1720 -1710 -15380 -15390 -1720 -1720 -1480 -1480 -1670 -1660 810 -810 11780 -11780 2120 -2120 10140 -10140 3640 -3640 15760 -15770 15770 15770 3640 3640 4550 4550 1730 1730 15330 15320 1720 1720 580 590 940 940 -1680 1670 -7900 7900 -2770 2780 -12500 12490zm-49610 0c1350,-440 2610,-1080 3750,-1890l1180 1170 710 720 -5640 0zm-78370 -1660c2610,-1740 4610,-4330 5600,-7380 1370,4270 4740,7650 9000,9040l-5970 0c-3040,0 -5960,-590 -8630,-1660zm-14680 -19560c1860,-1630 4280,-2620 6930,-2620 5790,0 10500,4710 10500,10510 0,4400 -2720,8170 -6570,9730 -5990,-3780 -10160,-10200 -10860,-17620zm7160 -21980c-410,830 -730,1700 -970,2600 -120,-400 -250,-800 -390,-1180 430,-490 890,-970 1360,-1420zm68660 16380l-210 210c-410,50 -830,90 -1260,90 -5790,0 -10500,-4720 -10500,-10510 0,-5790 4710,-10500 10500,-10500 5800,0 10510,4710 10510,10500 0,430 -30,840 -80,1250l-8960 8960zm2400 13490c0,-2040 590,-3940 1600,-5550l200 210 1820 1820 12420 12420c-1610,1010 -3500,1600 -5540,1600 -5790,0 -10500,-4710 -10500,-10500zm-3300 2490c920,5100 4600,9260 9450,10840l-18900 0c4840,-1580 8520,-5740 9450,-10840zm-27550 330c1020,4950 4650,8960 9390,10510l-18780 0c4730,-1550 8370,-5560 9390,-10510zm-13740 -13330c5790,0 10500,4710 10500,10510 0,5790 -4710,10500 -10500,10500 -5790,0 -10510,-4710 -10510,-10500 0,-5800 4720,-10510 10510,-10510zm-13880 -23690c5800,0 10510,4710 10510,10500 0,5790 -4710,10510 -10510,10510 -5790,0 -10500,-4720 -10500,-10510 0,-5790 4710,-10500 10500,-10500zm13660 7270c-990,-4170 -3830,-7620 -7620,-9430l15230 0c-3790,1810 -6630,5270 -7610,9430zm27290 0c-980,-4170 -3830,-7620 -7610,-9430l15220 0c-3770,1810 -6620,5270 -7610,9430zm410 12900c-1670,0 -3280,290 -4770,840 2130,-1890 3690,-4420 4360,-7280 630,2670 2030,5050 3950,6890 -1130,-290 -2320,-450 -3540,-450zm0 3520c5800,0 10510,4710 10510,10510 0,5790 -4710,10500 -10510,10500 -5790,0 -10500,-4710 -10500,-10500 0,-5800 4710,-10510 10500,-10510zm-24560 -13190c0,-5790 4710,-10500 10510,-10500 5790,0 10500,4710 10500,10500 0,5790 -4710,10510 -10500,10510 -5800,0 -10510,-4720 -10510,-10510zm-3140 3230c640,2710 2060,5120 4030,6970 -1220,-350 -2490,-530 -3810,-530 -1570,0 -3060,260 -4470,730 2070,-1870 3580,-4360 4250,-7170zm13960 17640c-590,-2870 -2070,-5430 -4120,-7370 1210,340 2480,530 3810,530 1670,0 3280,-300 4770,-840 -2230,1980 -3840,4650 -4460,7680zm26980 -6840c430,0 860,-30 1280,-60l1640 1640c-1160,1640 -1980,3540 -2350,5600 -540,-2980 -2010,-5620 -4100,-7630 1130,290 2310,450 3530,450zm13650 -17260c-990,-4160 -3830,-7620 -7610,-9430l15220 0c-3780,1810 -6620,5270 -7610,9430zm-81720 7110c670,2350 1940,4440 3640,6110 -960,-210 -1970,-320 -2990,-320 -1590,0 -3120,280 -4540,770 1850,-1770 3210,-4020 3890,-6560zm-3060 -3580c0,2910 -1200,5540 -3120,7450 410,-3180 1460,-6160 3020,-8810 50,450 100,900 100,1360zm17060 19090c-700,-2170 -1920,-4120 -3520,-5680 970,210 1970,320 2990,320 1570,0 3070,-260 4470,-730 -1800,1630 -3180,3720 -3940,6090zm129940 -32050c-540,260 -1050,540 -1540,860l-860 -860 2400 0zm80040 1090c-2850,1940 -4950,4900 -5760,8350 -990,-4170 -3840,-7630 -7620,-9440l6310 0c2470,0 4840,390 7070,1090zm15980 18230c-1920,2340 -4830,3850 -8100,3850 -5790,0 -10500,-4720 -10500,-10510 0,-4470 2820,-8280 6770,-9790 6110,3350 10570,9350 11830,16450zm-5820 17040c0,-4250 2540,-7910 6180,-9560 -120,5330 -2020,10220 -5140,14100 -660,-1380 -1040,-2920 -1040,-4540zm-3040 3640c350,1280 870,2490 1550,3600 -2220,2020 -4840,3620 -7710,4670 2980,-1850 5220,-4800 6160,-8270zm-27030 240c1290,4460 4740,8010 9130,9450l-18250 0c4390,-1440 7840,-4990 9120,-9450zm-26570 1140c1510,3920 4730,7000 8750,8310l-17490 0c4010,-1310 7230,-4390 8740,-8310zm-13880 -25490c620,2620 1960,4950 3820,6770 -970,-210 -1990,-330 -3030,-330 -180,0 -360,0 -530,10l-1750 -1740 -360 -370c840,-1320 1470,-2780 1850,-4340zm-3150 -3230c0,1810 -470,3510 -1280,5000l-13790 -13800 -430 -430c1490,-810 3190,-1270 5000,-1270 5790,0 10500,4710 10500,10500zm3150 -3230c-990,-4170 -3830,-7620 -7610,-9430l15220 0c-3780,1810 -6630,5270 -7610,9430zm27300 0c-990,-4170 -3830,-7620 -7620,-9430l15230 0c-3780,1810 -6630,5270 -7610,9430zm13650 13740c-5790,0 -10510,-4720 -10510,-10510 0,-5790 4710,-10500 10510,-10500 5790,0 10500,4710 10500,10500 0,5790 -4710,10510 -10500,10510zm12980 2680c5790,0 10500,4710 10500,10510 0,5790 -4710,10500 -10500,10500 -5790,0 -10500,-4710 -10500,-10500 0,-5800 4710,-10510 10500,-10510zm-26960 0c5800,0 10510,4710 10510,10510 0,5790 -4710,10500 -10510,10500 -5790,0 -10500,-4710 -10500,-10500 0,-5800 4710,-10510 10500,-10510zm-13320 -2680c-5800,0 -10510,-4720 -10510,-10510 0,-5790 4710,-10500 10510,-10500 5790,0 10500,4710 10500,10500 0,5790 -4710,10510 -10500,10510zm13650 -7280c670,2840 2200,5340 4300,7230 -1450,-510 -3000,-790 -4630,-790 -1260,0 -2490,170 -3660,490 1940,-1850 3350,-4240 3990,-6930zm-13420 15440c-720,-1890 -1850,-3580 -3270,-4970 980,210 2000,330 3040,330 1270,0 2490,-170 3670,-490 -1500,1420 -2690,3170 -3440,5130zm26570 1140c-740,-2570 -2190,-4830 -4130,-6570 1450,510 3000,790 4630,790 1100,0 2170,-130 3200,-370 -1720,1670 -3010,3780 -3700,6150zm27030 240c-750,-2780 -2340,-5220 -4470,-7040 1620,660 3380,1020 5230,1020 1010,0 1990,-110 2940,-310 -1750,1720 -3050,3890 -3700,6330zm-12890 -16820c700,2960 2340,5550 4580,7460 -1620,-660 -3390,-1020 -5240,-1020 -1100,0 -2170,130 -3200,370 1880,-1830 3240,-4170 3860,-6810zm-53490 10620l610 -610c5360,470 9580,4980 9580,10460 0,5790 -4710,10500 -10500,10500 -5480,0 -9990,-4220 -10470,-9580l10780 -10770zm52190 -30150l-79020 0 -20920 -20920 -20910 20920 -79030 0c-14910,0 -27060,12140 -27060,27060l0 2850c0,14930 12150,27070 27060,27070l79030 0 20910 20910 20920 -20910 79020 0c14930,0 27060,-12140 27060,-27070l0 -2850c0,-14920 -12130,-27060 -27060,-27060z"/>
   <path class="fil1" d="M211660 234740c-12720,0 -23080,-10350 -23080,-23080 0,-12730 10360,-23090 23080,-23090 12740,0 23090,10360 23090,23090 0,12730 -10360,23080 -23090,23080zm0 -49820c-14730,0 -26730,12000 -26730,26740 0,14740 12000,26730 26730,26730 14750,0 26740,-11990 26740,-26730 0,-14740 -11990,-26740 -26740,-26740z"/>
  </g>
 </g>
</svg>
