<?xml version="1.0" encoding="UTF-8"?>
<!DOCTYPE svg PUBLIC "-//W3C//DTD SVG 1.1//EN" "http://www.w3.org/Graphics/SVG/1.1/DTD/svg11.dtd">
<!-- Creator: CorelDRAW X7 -->
<svg xmlns="http://www.w3.org/2000/svg" xml:space="preserve" width="4.2332mm" height="4.2332mm" version="1.1" style="shape-rendering:geometricPrecision; text-rendering:geometricPrecision; image-rendering:optimizeQuality; fill-rule:evenodd; clip-rule:evenodd"
viewBox="0 0 42332 42332"
 xmlns:xlink="http://www.w3.org/1999/xlink">
 <defs>
  <style type="text/css">
   <![CDATA[
    .fil0 {fill:none}
    .fil1 {fill:#22B9C7}
   ]]>
  </style>
 </defs>
 <g id="Layer_x0020_1">
  <metadata id="CorelCorpID_0Corel-Layer"/>
  <rect class="fil0" width="42332" height="42332"/>
  <path class="fil1" d="M32391 22356l-2209 0c276,-289 445,-682 445,-1113 0,-432 -169,-824 -445,-1113l2209 0c612,0 1110,499 1110,1113 0,613 -498,1113 -1110,1113zm-4587 -1113c0,-686 552,-1243 1229,-1243 678,0 1230,557 1230,1243 0,685 -552,1243 -1230,1243 -677,0 -1229,-558 -1229,-1243zm-1947 1599c-872,0 -1581,-717 -1581,-1599 0,-882 709,-1599 1581,-1599 873,0 1582,717 1582,1599 0,882 -709,1599 -1582,1599zm-4632 973c-1481,0 -2686,-1189 -2686,-2650 0,-1460 1205,-2649 2686,-2649 1481,0 2686,1189 2686,2649 0,1461 -1205,2650 -2686,2650zm-4665 -973c-872,0 -1582,-717 -1582,-1599 0,-882 710,-1599 1582,-1599 872,0 1582,717 1582,1599 0,882 -710,1599 -1582,1599zm-3176 -356c-678,0 -1229,-558 -1229,-1243 0,-686 551,-1243 1229,-1243 678,0 1229,557 1229,1243 0,685 -551,1243 -1229,1243zm-4554 -1243c0,-614 497,-1113 1110,-1113l2295 0c-275,289 -445,681 -445,1113 0,431 170,824 445,1113l-2295 0c-612,0 -1110,-500 -1110,-1113zm23561 -1478l-2730 0c-192,-83 -405,-130 -628,-130 -596,0 -1118,333 -1391,825 -300,-694 -987,-1181 -1785,-1181 -736,0 -1379,415 -1709,1025 -376,-1243 -1544,-2152 -2923,-2152 -1394,-1 -2572,929 -2935,2193 -324,-633 -978,-1066 -1730,-1066 -798,0 -1484,487 -1785,1181 -273,-492 -794,-825 -1391,-825 -223,0 -435,47 -628,130l-2816 0c-813,0 -1475,663 -1475,1478 0,814 661,1477 1475,1477l2816 0c193,84 405,131 628,131 597,-1 1118,-334 1391,-825 301,694 987,1181 1785,1181 775,0 1446,-461 1759,-1124 394,1214 1547,2096 2906,2096 1344,0 2487,-863 2892,-2058 320,643 980,1086 1740,1086 798,0 1485,-487 1785,-1181 273,491 794,825 1391,825 223,-1 436,-47 628,-131l2730 0c813,0 1475,-663 1475,-1477 0,-815 -662,-1478 -1475,-1478z"/>
 </g>
</svg>
