<?xml version="1.0" encoding="UTF-8"?>
<!DOCTYPE svg PUBLIC "-//W3C//DTD SVG 1.1//EN" "http://www.w3.org/Graphics/SVG/1.1/DTD/svg11.dtd">
<!-- Creator: CorelDRAW X7 -->
<svg xmlns="http://www.w3.org/2000/svg" xml:space="preserve" width="4.2332mm" height="4.2332mm" version="1.1" style="shape-rendering:geometricPrecision; text-rendering:geometricPrecision; image-rendering:optimizeQuality; fill-rule:evenodd; clip-rule:evenodd"
viewBox="0 0 42332 42332"
 xmlns:xlink="http://www.w3.org/1999/xlink">
 <defs>
  <style type="text/css">
   <![CDATA[
    .fil0 {fill:none}
    .fil1 {fill:#22B9C7}
   ]]>
  </style>
 </defs>
 <g id="Layer_x0020_1">
  <metadata id="CorelCorpID_0Corel-Layer"/>
  <rect class="fil0" width="42332" height="42332"/>
  <path class="fil1" d="M32435 22235l-3997 0c167,-319 263,-683 263,-1068 0,-385 -96,-748 -263,-1068l3997 0c589,0 1068,479 1068,1068 0,589 -479,1068 -1068,1068zm-6041 874c-1070,0 -1941,-871 -1941,-1942 0,-1071 871,-1942 1941,-1942 1071,0 1942,872 1942,1942 0,1071 -871,1942 -1942,1942zm-5259 946c-1593,0 -2888,-1295 -2888,-2888 0,-1592 1295,-2888 2888,-2888 1593,0 2888,1296 2888,2888 0,1593 -1295,2888 -2888,2888zm-5195 -946c-1071,0 -1942,-871 -1942,-1942 0,-1071 871,-1942 1942,-1942 1071,0 1942,872 1942,1942 0,1071 -871,1942 -1942,1942zm-6040 -874c-589,0 -1068,-479 -1068,-1068 0,-589 479,-1068 1068,-1068l3997 0c-168,320 -263,683 -263,1068 0,385 95,749 263,1068l-3997 0zm22535 -2500l-4235 0c-423,-532 -1075,-874 -1806,-874 -958,0 -1782,588 -2129,1422 -387,-1365 -1643,-2368 -3130,-2368 -1455,0 -2690,960 -3104,2280 -368,-787 -1166,-1334 -2091,-1334 -731,0 -1382,342 -1805,874l-4235 0c-790,0 -1433,642 -1433,1432 0,790 643,1433 1433,1433l4235 0c423,531 1074,873 1805,873 925,0 1723,-546 2091,-1333 414,1320 1649,2280 3104,2280 1487,0 2743,-1004 3130,-2369 347,834 1171,1422 2129,1422 731,0 1383,-342 1806,-873l4235 0c790,0 1432,-643 1432,-1433 0,-790 -642,-1432 -1432,-1432z"/>
 </g>
</svg>
