<?xml version="1.0" encoding="UTF-8"?>
<!DOCTYPE svg PUBLIC "-//W3C//DTD SVG 1.1//EN" "http://www.w3.org/Graphics/SVG/1.1/DTD/svg11.dtd">
<!-- Creator: CorelDRAW X7 -->
<svg xmlns="http://www.w3.org/2000/svg" xml:space="preserve" width="4.2332mm" height="4.2332mm" version="1.1" style="shape-rendering:geometricPrecision; text-rendering:geometricPrecision; image-rendering:optimizeQuality; fill-rule:evenodd; clip-rule:evenodd"
viewBox="0 0 42332 42332"
 xmlns:xlink="http://www.w3.org/1999/xlink">
 <defs>
  <style type="text/css">
   <![CDATA[
    .fil0 {fill:none}
    .fil1 {fill:#22B9C7}
   ]]>
  </style>
 </defs>
 <g id="Layer_x0020_1">
  <metadata id="CorelCorpID_0Corel-Layer"/>
  <rect class="fil0" width="42332" height="42332"/>
  <g id="_2142997472976">
   <path class="fil1" d="M23444 21167c0,1256 -1022,2279 -2279,2279 -1256,0 -2279,-1022 -2279,-2279 0,-1257 1023,-2279 2279,-2279 1257,0 2279,1022 2279,2279zm-4917 0c0,1455 1183,2639 2638,2639 1455,0 2639,-1184 2639,-2639 0,-1455 -1184,-2639 -2639,-2639 -1455,0 -2638,1184 -2638,2639z"/>
   <path class="fil1" d="M32531 22142l-6434 0 0 -1950 6674 0c663,0 735,682 735,975 0,538 -438,975 -975,975zm-11366 3393l-4367 -4368 4367 -4368 4368 4368 -4368 4368zm-4931 -3393l-6434 0c-538,0 -975,-437 -975,-975 0,-293 71,-975 735,-975l6674 0 0 1950zm16537 -2310l-7034 0 0 1030 -4572 -4572 -4572 4572 0 -1030 -7033 0c-676,0 -1095,511 -1095,1335 0,736 599,1335 1335,1335l6793 0 0 -1030 4572 4572 4572 -4572 0 1030 6794 0c736,0 1335,-599 1335,-1335 0,-824 -420,-1335 -1095,-1335z"/>
  </g>
 </g>
</svg>
