<?xml version="1.0" encoding="UTF-8"?>
<!DOCTYPE svg PUBLIC "-//W3C//DTD SVG 1.1//EN" "http://www.w3.org/Graphics/SVG/1.1/DTD/svg11.dtd">
<!-- Creator: CorelDRAW X7 -->
<svg xmlns="http://www.w3.org/2000/svg" xml:space="preserve" width="4.2332mm" height="4.2332mm" version="1.1" style="shape-rendering:geometricPrecision; text-rendering:geometricPrecision; image-rendering:optimizeQuality; fill-rule:evenodd; clip-rule:evenodd"
viewBox="0 0 42332 42332"
 xmlns:xlink="http://www.w3.org/1999/xlink">
 <defs>
  <style type="text/css">
   <![CDATA[
    .fil0 {fill:none}
    .fil1 {fill:#22B9C7}
   ]]>
  </style>
 </defs>
 <g id="Layer_x0020_1">
  <metadata id="CorelCorpID_0Corel-Layer"/>
  <rect class="fil0" width="42332" height="42332"/>
  <path class="fil1" d="M25571 22837c-428,0 -777,-348 -777,-776 0,-428 349,-776 777,-776 427,0 776,348 776,776 0,428 -349,776 -776,776zm-2717 2696c-428,0 -776,-348 -776,-776 0,-428 348,-776 776,-776 427,0 776,348 776,776 0,428 -349,776 -776,776zm0 -1691c-189,0 -365,58 -511,156l1100 -1101c-94,144 -148,315 -148,499 0,505 409,914 914,914 505,0 914,-409 914,-914 0,-504 -409,-914 -914,-914 -184,0 -355,54 -499,148l1189 -1188c-150,162 -243,380 -243,619 0,504 410,914 915,914 317,0 597,-162 760,-408l6185 0c745,0 1351,-607 1351,-1351 0,-745 -606,-1351 -1351,-1351l-6277 0c-100,-398 -458,-695 -887,-695 -193,0 -373,62 -521,165 106,-150 168,-331 168,-527 0,-505 -410,-915 -914,-915 -504,0 -915,410 -915,915 0,504 411,914 915,914 194,0 373,-60 521,-164 -106,149 -169,331 -169,528 0,503 411,914 915,914 456,0 833,-335 902,-771l6262 0c544,0 987,443 987,987 0,544 -443,986 -987,986l-6044 0c8,-46 13,-93 13,-141 0,-504 -411,-915 -914,-915 -240,0 -457,93 -620,243l174 -173 -2924 -2926c132,75 284,119 446,119 505,-1 915,-411 915,-915 0,-504 -410,-915 -915,-915 -503,0 -914,411 -914,915 0,163 43,315 118,447l-675 -674c474,-34 849,-429 849,-911 0,-505 -410,-915 -914,-915 -505,0 -914,410 -914,915 0,482 374,877 848,911l-557 557c17,-68 26,-139 26,-212 0,-504 -410,-914 -914,-914 -505,0 -915,410 -915,914 0,505 410,914 915,914 72,0 142,-9 210,-25l-841 841c60,-120 94,-256 94,-400 0,-505 -410,-914 -915,-914 -504,0 -914,409 -914,914 0,505 410,914 914,914 144,0 280,-33 401,-93l-997 997c82,-137 129,-295 129,-465 0,-504 -411,-915 -915,-915 -348,0 -652,197 -807,485l-6143 0c-744,0 -1351,606 -1351,1351 0,744 607,1351 1351,1351l6142 0c135,335 464,574 848,574 504,0 914,-410 914,-914 0,-505 -410,-915 -914,-915 -496,0 -899,397 -914,889l-6076 1c-544,0 -987,-442 -987,-986 0,-544 443,-987 987,-987l6038 0c0,22 -3,44 -3,66 1,504 411,915 915,915 170,0 329,-48 465,-129l-135 135 1616 1615c-148,-102 -327,-163 -520,-163 -504,0 -914,411 -914,915 0,504 410,914 914,914 504,0 915,-410 915,-914 0,-194 -61,-372 -163,-520l1128 1129c-144,-96 -317,-152 -503,-152 -504,0 -915,411 -915,914 0,505 411,915 915,915 504,0 914,-410 914,-915 0,-186 -55,-359 -152,-503l637 637c-390,104 -679,460 -679,882 0,505 411,916 915,916 504,0 914,-411 914,-916 0,-477 -369,-870 -837,-910l816 -817c-99,147 -157,324 -157,514 0,504 409,914 914,914 505,0 914,-410 914,-914 1,-504 -409,-915 -914,-915zm73 -2626c0,1001 -814,1816 -1817,1816 -1001,0 -1816,-815 -1816,-1816 0,-1002 815,-1816 1816,-1816 1003,0 1817,814 1817,1816zm-3996 0c0,1202 977,2180 2179,2180 1203,0 2181,-978 2181,-2180 0,-1203 -978,-2181 -2181,-2181 -1202,0 -2179,978 -2179,2181zm2180 3499l-3500 -3499 3500 -3500 3499 3500 -3499 3499zm93 480c428,0 776,348 776,775 0,429 -348,776 -776,776 -427,0 -776,-347 -776,-776 0,-387 286,-708 657,-765l29 -3 29 -4c20,-2 40,-3 61,-3zm-869 -8839c0,-428 348,-776 776,-776 428,0 776,348 776,776 0,427 -348,776 -776,776 -427,0 -776,-349 -776,-776zm4650 7040c0,428 -349,776 -776,776 -428,0 -776,-348 -776,-776 0,-427 348,-776 776,-776 428,0 776,349 776,776zm-5416 2334c-428,0 -776,-347 -776,-776 0,-427 348,-775 776,-775 428,0 775,348 775,775 0,429 -347,776 -775,776zm-1377 -1372c-428,0 -776,-347 -776,-775 0,-428 348,-776 776,-776 428,0 776,348 776,776 0,428 -348,775 -776,775zm-2202 -4063c0,-428 348,-776 776,-776 428,0 776,348 776,776 0,428 -348,775 -776,775 -428,0 -776,-347 -776,-775zm816 1156c428,0 775,347 775,776 0,427 -347,775 -775,775 -428,0 -776,-348 -776,-775 0,-429 348,-776 776,-776zm566 -2509c0,-428 349,-776 776,-776 428,0 777,349 777,776 0,428 -349,776 -777,776 -427,0 -776,-348 -776,-776zm1452 -1330c0,-427 348,-776 776,-776 427,0 776,349 776,776 0,428 -349,776 -776,776 -428,0 -777,-348 -776,-776zm3823 -894c429,0 776,348 776,776 0,428 -347,775 -776,775 -427,0 -775,-347 -775,-775 0,-428 348,-776 775,-776zm2705 4143c-428,0 -776,-348 -776,-775 0,-429 348,-777 776,-777 428,0 775,348 775,777 1,427 -347,775 -775,775zm-2043 -2053c0,-429 348,-776 776,-776 427,0 775,347 775,776 0,427 -348,775 -775,775 -428,0 -776,-348 -776,-775z"/>
 </g>
</svg>
