<?xml version="1.0" encoding="UTF-8"?>
<!DOCTYPE svg PUBLIC "-//W3C//DTD SVG 1.1//EN" "http://www.w3.org/Graphics/SVG/1.1/DTD/svg11.dtd">
<!-- Creator: CorelDRAW X7 -->
<svg xmlns="http://www.w3.org/2000/svg" xml:space="preserve" width="4.2332mm" height="4.2332mm" version="1.1" style="shape-rendering:geometricPrecision; text-rendering:geometricPrecision; image-rendering:optimizeQuality; fill-rule:evenodd; clip-rule:evenodd"
viewBox="0 0 42332 42332"
 xmlns:xlink="http://www.w3.org/1999/xlink">
 <defs>
  <style type="text/css">
   <![CDATA[
    .fil0 {fill:none}
    .fil1 {fill:#22B9C7}
   ]]>
  </style>
 </defs>
 <g id="Layer_x0020_1">
  <metadata id="CorelCorpID_0Corel-Layer"/>
  <rect class="fil0" width="42332" height="42332"/>
  <g id="_2142827281936">
   <path class="fil1" d="M21180 19149c-1112,0 -2016,905 -2016,2017 0,1111 904,2016 2016,2016 1112,0 2016,-905 2016,-2016 0,-1112 -904,-2016 -2016,-2017zm0 4437c-1335,0 -2420,-1086 -2420,-2420 0,-1335 1085,-2421 2420,-2421 1335,0 2420,1086 2420,2421 0,1334 -1085,2420 -2420,2420z"/>
   <path class="fil1" d="M33371 22909c-69,89 -168,145 -276,157l-600 61 0 0c-138,15 -274,30 -406,45 -1459,164 -2544,285 -4014,-1154 47,-50 92,-101 136,-153 121,-146 237,-279 350,-401 830,804 1477,1015 2165,1015 336,0 683,-50 1065,-105 37,-5 74,-11 112,-16l1090 -129c110,-14 220,18 308,87 88,70 145,169 158,285 13,110 -18,220 -88,308zm-5580 -1184c-91,99 -187,193 -290,281 -1064,910 -2673,1246 -3369,1262l-599 0 872 -872c466,-30 1487,-190 2522,-964 106,-79 211,-166 317,-258 156,-137 311,-288 464,-457 28,-31 55,-60 83,-90 97,-104 191,-202 284,-293 1470,-1439 2555,-1318 4014,-1154 133,15 268,30 406,44l0 1 597 60c111,13 210,69 279,157 70,89 101,198 87,314 -12,111 -69,210 -157,279 -88,70 -198,101 -308,88l-1092 -129c-36,-6 -73,-11 -110,-16 -1166,-168 -1995,-286 -3230,909 -92,89 -186,185 -282,289 -122,131 -248,273 -379,430 -34,41 -72,80 -109,119zm-6611 3325l-3884 -3884 3884 -3885 3884 3885 -3884 3884zm-2976 -1792c-700,-16 -2309,-352 -3374,-1262 -102,-88 -198,-182 -289,-281 -37,-40 -75,-78 -109,-119 -131,-157 -257,-299 -379,-430 -96,-104 -190,-200 -282,-289 -1235,-1196 -2063,-1077 -3230,-909 -36,5 -74,10 -110,15l-1092 130c-111,13 -220,-18 -308,-88 -89,-69 -145,-169 -158,-284 -14,-111 18,-220 87,-309 70,-88 169,-144 276,-157l601 -61 0 0c138,-14 273,-29 406,-44 1459,-165 2544,-285 4014,1154 93,91 187,189 284,293 28,30 55,59 83,90 153,169 308,320 464,457 106,92 211,179 317,258 1050,785 2085,938 2541,965l870 871 -612 0zm-7961 -116c-133,-15 -268,-30 -406,-45l0 0 -597 -60c-111,-13 -210,-69 -280,-157 -69,-89 -101,-198 -87,-314 13,-111 69,-210 158,-279 88,-70 197,-101 308,-88l1091 129c37,6 74,11 111,16 382,55 728,105 1065,105 685,0 1330,-210 2155,-1005 4,3 7,7 10,10 112,122 228,254 350,401 41,48 83,96 126,142 -1464,1430 -2549,1309 -4004,1145zm7252 -2747l-771 771 754 753c-459,-90 -1090,-294 -1737,-755 676,-496 1309,-694 1754,-769zm704 -1311l607 0 -885 885 -1 -21c-438,9 -1439,135 -2512,959 -2,-2 -4,-3 -6,-5 -161,-138 -321,-292 -477,-466 -30,-33 -59,-64 -89,-95 1065,-906 2669,-1241 3363,-1257zm8399 2085c-640,457 -1264,664 -1722,756l760 -759 -765 -765c445,80 1066,281 1727,768zm-2470 -2085c699,16 2308,352 3373,1261 -31,34 -62,67 -94,101 -157,174 -316,329 -477,466 -1070,-825 -2069,-953 -2512,-964l-864 -864 574 0zm9423 2915c-173,-136 -388,-197 -606,-172l-228 27 0 0c-317,27 -605,66 -865,103l-75 9 0 2c-14,2 -29,4 -43,6 -1115,161 -1806,260 -2893,-798 1087,-1058 1778,-959 2893,-798 14,2 29,4 43,6l0 2 74 9c261,37 549,76 866,103l0 -1 228 27c33,4 65,6 98,6 183,0 361,-61 508,-177 174,-137 283,-332 310,-555 26,-217 -36,-433 -172,-606 -137,-173 -332,-282 -553,-309l-241 -24 0 -2c-264,-22 -516,-51 -761,-78 -1518,-171 -2740,-308 -4350,1275 -1230,-1070 -3043,-1361 -3652,-1374l-982 0 -1970 -1970 -1993 1993 0 -23 -992 0c-603,13 -2411,304 -3641,1369 -2,-2 -4,-4 -6,-5 -1610,-1583 -2833,-1447 -4351,-1276 -244,28 -496,56 -760,79l0 2 -245 25c-218,25 -413,135 -549,308 -137,173 -198,389 -171,612 26,217 135,412 308,549 148,116 325,177 509,177 32,0 65,-2 98,-6l227 -27 0 1c318,-27 606,-66 867,-104l74 -8 0 -2c14,-2 29,-4 43,-6 1111,-160 1801,-259 2883,788 -1082,1047 -1771,948 -2883,788 -14,-2 -29,-4 -43,-6l0 -2 -74 -9c-261,-37 -549,-76 -867,-103l0 1 -227 -27c-218,-26 -433,35 -607,171 -173,137 -282,332 -309,555 -26,217 35,433 172,606 136,173 331,282 553,309l241 24 0 2c264,22 516,51 760,78 455,52 883,100 1302,100 979,0 1915,-266 3038,-1365 3,3 7,6 10,9 1230,1070 3044,1361 3652,1375l1022 0 1959 1959 1949 -1949 1008 0c604,-14 2418,-305 3647,-1374 1128,1108 2066,1375 3048,1375 420,0 848,-49 1302,-100 245,-27 497,-56 761,-78l0 -2 245 -25c218,-26 412,-135 549,-308 137,-174 197,-389 171,-612 -26,-218 -135,-413 -309,-549z"/>
  </g>
 </g>
</svg>
