<?xml version="1.0" encoding="UTF-8"?>
<!DOCTYPE svg PUBLIC "-//W3C//DTD SVG 1.1//EN" "http://www.w3.org/Graphics/SVG/1.1/DTD/svg11.dtd">
<!-- Creator: CorelDRAW X7 -->
<svg xmlns="http://www.w3.org/2000/svg" xml:space="preserve" width="4.2332mm" height="4.2332mm" version="1.1" style="shape-rendering:geometricPrecision; text-rendering:geometricPrecision; image-rendering:optimizeQuality; fill-rule:evenodd; clip-rule:evenodd"
viewBox="0 0 42332 42332"
 xmlns:xlink="http://www.w3.org/1999/xlink">
 <defs>
  <style type="text/css">
   <![CDATA[
    .fil0 {fill:none}
    .fil1 {fill:#22B9C7}
   ]]>
  </style>
 </defs>
 <g id="Layer_x0020_1">
  <metadata id="CorelCorpID_0Corel-Layer"/>
  <rect class="fil0" width="42332" height="42332"/>
  <g id="_2142997465328">
   <path class="fil1" d="M32434 25301l-10463 0 1286 -1285 364 -364 386 -386 7554 0c225,0 442,-36 645,-101l228 0c588,0 1067,479 1067,1068 1,589 -479,1068 -1067,1068zm-10978 0l-291 291 -291 -291 -1285 -1285 -364 -364 -2485 -2485 2485 -2484 364 -364 1576 -1576 1576 1576 365 364 2484 2484 -2484 2485 -365 364 -1285 1285zm-11555 0c-589,0 -1068,-479 -1068,-1068 0,-589 479,-1068 1068,-1068l111 0c204,65 420,101 645,101l7666 0 386 386 365 364 1285 1285 -10458 0zm-1005 -4161c0,-970 790,-1760 1761,-1760l7355 0 -1787 1787 1734 1734 -7302 0c-971,0 -1761,-790 -1761,-1761zm22665 -1760c971,0 1761,790 1761,1760 0,971 -790,1761 -1761,1761l-7190 0 1734 -1734 -1787 -1787 7243 0zm1254 3475c528,-388 871,-1012 871,-1715 0,-1171 -953,-2125 -2125,-2125l-7607 0 -333 -332 -364 -364 -2092 -2092 -2091 2092 -365 364 -332 332 -7720 0c-1172,0 -2125,954 -2125,2125 0,719 359,1355 906,1740 -563,192 -969,726 -969,1353 0,790 642,1433 1432,1433l10823 0 441 441 442 -441 10827 0c789,0 1432,-643 1432,-1433 0,-658 -446,-1211 -1051,-1378z"/>
   <path class="fil1" d="M21165 23476c-1273,0 -2309,-1036 -2309,-2309 0,-1273 1036,-2309 2309,-2309 1273,0 2309,1036 2309,2309 0,1273 -1036,2309 -2309,2309zm2673 -2309c0,-1474 -1199,-2673 -2673,-2673 -1474,0 -2673,1199 -2673,2673 0,1474 1199,2673 2673,2673 1474,0 2673,-1199 2673,-2673z"/>
  </g>
 </g>
</svg>
