<?xml version="1.0" encoding="UTF-8"?>
<!DOCTYPE svg PUBLIC "-//W3C//DTD SVG 1.1//EN" "http://www.w3.org/Graphics/SVG/1.1/DTD/svg11.dtd">
<!-- Creator: CorelDRAW X7 -->
<svg xmlns="http://www.w3.org/2000/svg" xml:space="preserve" width="4.2332mm" height="4.2332mm" version="1.1" style="shape-rendering:geometricPrecision; text-rendering:geometricPrecision; image-rendering:optimizeQuality; fill-rule:evenodd; clip-rule:evenodd"
viewBox="0 0 42332 42332"
 xmlns:xlink="http://www.w3.org/1999/xlink">
 <defs>
  <style type="text/css">
   <![CDATA[
    .fil0 {fill:none}
    .fil1 {fill:#22B9C7}
   ]]>
  </style>
 </defs>
 <g id="Layer_x0020_1">
  <metadata id="CorelCorpID_0Corel-Layer"/>
  <rect class="fil0" width="42332" height="42332"/>
  <g id="_2142992420992">
   <path class="fil1" d="M31720 22945l-5942 0 1778 -1778 -1778 -1778 5942 0c980,0 1778,797 1778,1778 0,980 -798,1778 -1778,1778zm-6462 0l-369 368 -3723 3724 -3724 -3724 -368 -368 -1778 -1778 1778 -1778 368 -368 3724 -3724 3723 3724 369 368 1777 1778 -1777 1778zm-14647 0c-980,0 -1778,-798 -1778,-1778 0,-981 798,-1778 1778,-1778l5942 0 -1778 1778 1778 1778 -5942 0zm21109 -3924l-6310 0 -4244 -4245 -4245 4245 -6310 0c-1183,0 -2146,962 -2146,2146 0,1183 963,2146 2146,2146l6310 0 4245 4244 4244 -4244 6310 0c1183,0 2146,-963 2146,-2146 0,-1184 -963,-2146 -2146,-2146z"/>
   <g>
    <path class="fil1" d="M23200 22945l-367 368 -1667 1667 -1667 -1667 -368 -368 -1778 -1778 1778 -1778 368 -368 1667 -1667 1666 1667 368 368 1778 1778 -1778 1778zm521 -3556l-368 -368 -2187 -2188 -2188 2188 -368 368 -1778 1778 1778 1778 368 368 2188 2187 2187 -2187 368 -368 1778 -1778 -1778 -1778z"/>
    <path class="fil1" d="M21166 23150c-1093,0 -1983,-890 -1983,-1983 0,-1094 890,-1983 1983,-1983 1092,0 1982,889 1982,1983 0,1093 -890,1983 -1982,1983zm0 -4334c-1296,0 -2351,1054 -2351,2351 0,1296 1055,2350 2351,2350 1295,0 2350,-1054 2350,-2350 0,-1297 -1055,-2351 -2350,-2351z"/>
   </g>
  </g>
 </g>
</svg>
