<?xml version="1.0" encoding="UTF-8"?>
<!DOCTYPE svg PUBLIC "-//W3C//DTD SVG 1.1//EN" "http://www.w3.org/Graphics/SVG/1.1/DTD/svg11.dtd">
<!-- Creator: CorelDRAW X7 -->
<svg xmlns="http://www.w3.org/2000/svg" xml:space="preserve" width="4.2332mm" height="4.2332mm" version="1.1" style="shape-rendering:geometricPrecision; text-rendering:geometricPrecision; image-rendering:optimizeQuality; fill-rule:evenodd; clip-rule:evenodd"
viewBox="0 0 42332 42332"
 xmlns:xlink="http://www.w3.org/1999/xlink">
 <defs>
  <style type="text/css">
   <![CDATA[
    .fil0 {fill:none}
    .fil1 {fill:#22B9C7}
   ]]>
  </style>
 </defs>
 <g id="Layer_x0020_1">
  <metadata id="CorelCorpID_0Corel-Layer"/>
  <rect class="fil0" width="42332" height="42332"/>
  <path class="fil1" d="M31720 22944l-6487 0c244,-558 374,-1164 374,-1778 0,-615 -130,-1221 -373,-1778l6434 0c956,0 1780,734 1827,1688 50,1021 -766,1868 -1775,1868zm-7659 1713c-118,0 -228,-54 -303,-149l0 0c-38,-49 -85,-131 -85,-238 0,-213 174,-387 388,-387 94,0 186,36 258,102l0 0c83,75 128,176 128,285 0,214 -173,387 -386,387zm-2724 538l1957 -1133c-17,67 -28,136 -28,208 0,24 1,48 4,73 0,7 2,15 3,23 2,16 4,32 7,48 1,9 4,18 6,27 3,14 6,29 10,43 3,9 6,19 9,28 4,13 9,27 15,40 2,6 4,12 6,19 -598,381 -1279,594 -1989,624zm-2245 -1104l1907 1104c-696,-28 -1367,-234 -1957,-601 46,-102 71,-212 71,-324 0,-61 -8,-121 -21,-179zm-1160 179c0,-100 39,-196 109,-269l0 0c74,-76 172,-118 277,-118 214,0 387,174 387,387 0,116 -52,201 -96,251l0 0c-75,88 -179,136 -291,136 -213,0 -387,-173 -386,-387zm-7319 -1326c-980,0 -1778,-798 -1778,-1778 0,-981 798,-1778 1778,-1778l6486 0c-244,557 -373,1163 -373,1778 0,615 129,1221 372,1778l-6485 0zm7705 -5302c118,0 228,54 302,150 39,48 85,129 85,237 0,213 -173,387 -387,387 -99,0 -194,-38 -267,-108 -77,-74 -120,-173 -120,-279 1,-213 174,-387 387,-387zm2664 -504l-1898 1098c18,-66 29,-135 29,-207 0,-103 -21,-204 -60,-298 583,-360 1243,-563 1929,-593zm2329 631c-4,12 -8,24 -12,37 -3,9 -5,18 -8,27 -3,13 -6,25 -8,38 -2,9 -4,18 -6,26 -2,15 -4,29 -5,44 -1,7 -2,14 -3,22 -2,22 -3,44 -3,66 0,82 12,161 36,236l-1948 -1127c699,32 1371,242 1962,616 -2,5 -3,10 -5,15zm1136 260c0,111 -50,219 -138,293l0 0c-51,43 -135,94 -248,94 -214,0 -388,-174 -388,-387 0,-80 26,-157 74,-224 74,-103 188,-163 314,-163 213,0 386,174 386,387zm291 5007l0 -3742c300,574 461,1218 461,1872 0,653 -161,1296 -461,1870zm-2148 -397l570 -2084 1288 0 0 2505 -1137 658 -721 -1079zm-4702 421l0 -2505 1434 0 474 2173 -582 1099 -1326 -767zm-123 -4061c58,-91 120,-180 185,-267 53,28 108,50 165,65l-350 202zm3283 -50l-1663 1339 -1497 0 0 -1025 3160 -1829 0 1515zm1832 1524l-574 2100 -2245 0 -456 -2087 1580 -1272 1695 1259zm1568 -1210l0 1025 -1328 0 -1805 -1341 0 -1497 3133 1813zm-151 -477c8,-3 17,-5 25,-8 23,-8 46,-18 68,-28 1,-1 3,-1 4,-2 60,81 117,163 171,248l-332 -192c4,-1 8,-3 12,-4 18,-4 35,-9 52,-14zm-7164 2380c0,-658 162,-1303 465,-1878l0 3756c-303,-575 -465,-1221 -465,-1878zm799 2410c-62,-84 -121,-169 -176,-257l331 191c-54,16 -106,38 -155,66zm1513 385l581 -1097 2395 0 659 988 -1912 1106 -1723 -997zm4967 -402l0 0c-25,-12 -51,-23 -77,-33 -7,-3 -16,-5 -23,-8 -17,-6 -33,-11 -50,-15l311 -180c-51,80 -104,159 -161,236zm7251 -4539l-6611 0c-102,-185 -217,-364 -346,-534 96,-133 149,-291 149,-457 0,-438 -356,-794 -794,-794 -188,0 -368,67 -510,186 -713,-455 -1534,-695 -2385,-695 -841,-1 -1653,234 -2360,679 -139,-109 -309,-170 -488,-170 -438,0 -794,356 -794,794 0,154 45,300 126,427 -138,179 -261,368 -370,564l-6667 0c-1183,0 -2146,962 -2146,2146 0,1183 963,2145 2146,2145l6667 0c105,192 225,376 358,551 -74,122 -114,262 -114,408 0,438 356,795 794,795 168,0 330,-55 464,-153 713,455 1534,694 2384,694 861,0 1690,-245 2409,-711 138,109 307,170 486,170 438,0 794,-357 794,-795 0,-157 -49,-311 -137,-441 124,-165 235,-338 334,-518l6668 0c1171,0 2125,-942 2145,-2108 20,-1201 -1002,-2183 -2202,-2183z"/>
 </g>
</svg>
