<?xml version="1.0" encoding="UTF-8"?>
<!DOCTYPE svg PUBLIC "-//W3C//DTD SVG 1.1//EN" "http://www.w3.org/Graphics/SVG/1.1/DTD/svg11.dtd">
<!-- Creator: CorelDRAW X7 -->
<svg xmlns="http://www.w3.org/2000/svg" xml:space="preserve" width="4.2332mm" height="4.2332mm" version="1.1" style="shape-rendering:geometricPrecision; text-rendering:geometricPrecision; image-rendering:optimizeQuality; fill-rule:evenodd; clip-rule:evenodd"
viewBox="0 0 42332 42332"
 xmlns:xlink="http://www.w3.org/1999/xlink">
 <defs>
  <style type="text/css">
   <![CDATA[
    .fil0 {fill:none}
    .fil1 {fill:#22B9C7}
   ]]>
  </style>
 </defs>
 <g id="Layer_x0020_1">
  <metadata id="CorelCorpID_0Corel-Layer"/>
  <rect class="fil0" width="42332" height="42332"/>
  <path class="fil1" d="M33459 21345l-67 3 70 -80 -3 77zm-3895 -1603l-83 -148c111,41 202,124 251,232l-168 -84zm208 249c1,48 -5,94 -17,138l-88 -145 79 -125c15,41 24,86 26,132zm-136 -42l-57 -56 -2 -95 118 58 -59 93zm-53 66l-2 -54 24 26 -22 28zm54 7l69 112 -119 58 -3 -109 53 -61zm-97 374l45 -151 158 -80c-37,99 -110,181 -203,231zm-128 -183l-102 3 -54 2 -124 -115 -2 -23 -9 -159 62 -67 51 -54 174 -9 127 123 4 153 -127 146zm123 -6l-60 3 -2 0 64 -73 -2 70zm-36 168l-124 -53 57 -65 1 0 103 -5 -37 123zm-152 73c-47,2 -95,-4 -139,-17l135 -73 145 62c-43,17 -90,26 -141,28zm-41 -186l35 -2 29 -1 -29 32 -35 -29zm-156 5l90 -3 70 61 -114 61 -46 -119zm-15 -99l57 52 -53 3 -4 -52 0 -3zm-191 49l156 47 59 149c-92,-39 -167,-108 -215,-196zm-53 -193c-2,-45 3,-90 14,-131l67 125 -53 144c-16,-43 -27,-89 -28,-138zm118 24l79 76 0 0 5 91 -132 -39 48 -128zm69 -81l2 31 4 60 -45 -45 39 -46zm-73 17l-55 -103 121 -60 4 84 -70 79zm135 -373l-67 157 -1 0 0 1 -150 75c41,-101 119,-186 218,-233zm27 194l-48 51 -1 -47 49 -4zm115 -123l-69 74 -88 5 54 -125 103 46zm32 -114c45,-2 89,3 131,14l-126 67 -131 -57c40,-14 82,-22 126,-24zm47 180l-80 5 41 -40 39 35zm166 44l4 55 -58 -56 54 1zm-101 -47l0 0 -68 -64 91 -51 64 113 -87 2zm-113 -222c-268,10 -477,236 -468,503 11,269 237,478 505,467 267,-11 477,-235 466,-503 -9,-268 -235,-477 -503,-467zm-16633 976l-83 -147c111,40 201,124 250,231l-167 -84zm207 250c1,47 -4,93 -17,136l-88 -143 79 -126c15,42 23,87 26,133zm-137 -43l-57 -55 -1 -96 117 59 -59 92zm-53 66l-1 -53 25 26 -24 27zm55 8l69 111 -118 59 -4 -110 53 -60zm-97 373l45 -151 158 -79c-37,97 -109,180 -203,230zm-129 -184l-69 3 -85 3 -125 -113 -4 -72 -7 -112 42 -45 72 -75 173 -9 126 122 5 153 -128 145zm124 -4l-61 2 64 -72 -3 70zm-36 167l-124 -53 58 -65 102 -4 -36 122zm-151 74c-49,2 -95,-5 -140,-18l135 -73 145 62c-44,16 -90,27 -140,29zm-42 -186l28 -2 36 -1 -28 32 -36 -29zm-156 5l90 -4 1 0 69 60 -113 63 -47 -119zm-15 -99l57 52 -1 0 -52 2 -4 -52 0 -2zm-191 49l156 47 58 149c-91,-39 -167,-108 -214,-196zm-53 -192c-3,-46 3,-91 15,-133l66 126 -54 143c-15,-42 -25,-88 -27,-136zm119 23l78 76 0 0 5 90 -132 -39 49 -127zm69 -80l2 39 3 51 -45 -45 40 -45zm-73 16l-56 -103 120 -61 5 83 -69 81zm134 -373l-67 157 0 0 0 1 -151 75c41,-102 119,-186 218,-233zm28 194l-49 51 0 -48 49 -3zm114 -123l-69 74 -88 4 53 -124 104 46zm32 -115c45,-1 90,4 130,15l-124 67 -132 -58c40,-13 82,-22 126,-24zm47 181l-80 4 40 -39 40 35zm166 43l4 56 -58 -56 54 0zm-101 -46l0 0 -67 -65 91 -51 64 113 -88 3zm-113 -223c-268,11 -477,237 -467,504 10,269 236,477 503,467 268,-11 478,-236 468,-503 -10,-269 -237,-478 -504,-468zm15166 1362l-135 -239c179,65 326,201 407,375l-272 -136zm336 406c4,78 -7,152 -27,222l-143 -232 128 -206c24,68 40,140 42,216zm-220 -69l-93 -90 -4 -155 192 95 -95 150zm-87 107l-3 -86 39 41 -36 45zm89 13l110 180 -191 97 -5 -179 86 -98zm-158 606l73 -246 257 -129c-62,160 -180,293 -330,375zm-208 -298l-191 8 -62 1 -203 -186 -6 -113 -11 -184 91 -98 93 -98 283 -14 205 199 8 248 -207 237zm200 -8l-100 5 104 -119 -4 114zm-58 273l-203 -88 94 -106 168 -6 -59 200zm-246 118c-79,4 -155,-7 -228,-28l221 -120 235 101c-71,27 -147,44 -228,47zm-68 -304l104 -4 -47 54 -57 -50zm-254 11l147 -6 114 97 -185 101 -76 -192zm-23 -161l93 84 -4 0 -84 3 -5 -84 0 -3zm-311 79l254 77 95 242c-149,-65 -273,-177 -349,-319zm-87 -313c-2,-74 6,-146 25,-214l109 205 -89 232c-25,-70 -42,-144 -45,-223zm194 38l126 123 0 2 9 147 -214 -65 79 -207zm112 -129l3 60 5 85 -73 -72 65 -73zm-121 25l-88 -167 194 -99 9 136 -115 130zm221 -605l-108 255 -1 0 0 1 -246 123c66,-166 194,-302 355,-379zm43 315l-40 45 -37 38 -2 -76 79 -7zm187 -200l-112 120 -143 8 87 -202 168 74zm53 -186c73,-3 144,7 211,24l-203 109 -215 -94c66,-22 134,-36 207,-39zm75 294l-130 6 66 -63 64 57zm270 70l6 90 -94 -91 88 1zm-165 -75l0 -1 -109 -105 149 -81 103 183 -143 4zm-183 -361c-435,15 -775,383 -759,818 17,433 384,774 818,757 436,-16 775,-383 759,-818 -16,-434 -383,-774 -818,-757zm-2372 -1243l-125 -223c168,60 305,187 378,349l-253 -126zm314 377c3,73 -7,142 -25,207l-134 -217 119 -190c24,63 38,130 40,200zm-205 -64l-86 -84 -5 -144 178 88 -87 140zm-82 100l-1 -80 36 38 -35 42zm83 12l104 168 -178 90 -5 -167 79 -91zm-146 564l67 -228 240 -121c-57,150 -167,273 -307,349zm-194 -278l-31 2 -205 8 -188 -173 0 -8 -16 -270 85 -91 85 -90 264 -14 191 184 7 232 -192 220zm186 -6l-91 4 -2 0 96 -111 -3 107zm-54 253l-189 -81 88 -98 0 0 156 -6 -55 185zm-230 111c-72,3 -144,-7 -210,-27l204 -112 220 95c-67,25 -138,40 -214,44zm-63 -283l98 -4 -44 50 -54 -46zm-235 9l136 -5 106 91 -173 94 -69 -180zm-23 -151l86 80 -3 1 -78 3 -4 -79 -1 -5zm-289 75l236 71 88 225c-138,-59 -252,-164 -324,-296zm-81 -291c-2,-69 6,-136 24,-199l100 190 -82 216c-23,-64 -39,-134 -42,-207zm180 35l118 115 1 1 7 137 -199 -60 73 -193zm105 -121l3 62 5 74 -69 -67 61 -69zm-112 24l-82 -156 181 -91 7 127 -106 120zm204 -564l-100 237 -1 0 0 2 -229 116c63,-156 181,-282 330,-355zm42 294l-25 27 -48 50 -1 -70 74 -7zm174 -186l-105 112 -133 6 80 -187 158 69zm48 -174c69,-2 135,6 197,23l-189 102 -199 -89c61,-19 124,-32 191,-36zm71 274l-120 7 60 -60 60 53zm251 66l5 83 -87 -84 82 1zm-154 -71l0 0 -101 -98 139 -75 96 169 -134 4zm-170 -336c-405,15 -721,357 -707,762 15,404 357,722 762,706 405,-15 722,-357 706,-762 -15,-404 -356,-722 -761,-706zm-6125 2390l-83 -148c111,40 201,124 250,231l-167 -83zm207 249c2,48 -5,94 -17,138l-88 -144 79 -127c15,43 24,87 26,133zm-136 -42l-57 -55 -3 -95 118 58 -58 92zm-53 65l-2 -52 24 26 -22 26zm54 9l69 110 -119 60 -2 -109 52 -61zm-96 372l44 -151 158 -79c-37,100 -110,180 -202,230zm-129 -183l-69 3 -87 4 -124 -115 -4 -68 -7 -116 43 -44 70 -75 175 -9 126 122 5 153 -128 145zm123 -4l-62 2 65 -73 -3 71zm-35 167l-124 -53 57 -66 103 -2 -36 121zm-152 74c-48,2 -95,-4 -139,-17l135 -75 145 63c-44,16 -91,26 -141,29zm-42 -188l31 -1 34 0 -30 32 -35 -31zm-156 6l90 -2 0 0 71 59 -114 62 -47 -119zm-14 -98l57 52 -3 0 -51 2 -3 -52 0 -2zm-192 49l157 47 58 148c-91,-39 -168,-108 -215,-195zm-53 -193c-2,-45 4,-90 15,-132l67 126 -55 143c-16,-43 -25,-89 -27,-137zm118 23l79 76 0 1 5 90 -131 -39 47 -128zm70 -79l2 39 3 50 -44 -44 39 -45zm-74 15l-54 -103 120 -60 4 83 -70 80zm136 -373l-67 157 0 0 0 0 -151 77c40,-101 118,-186 218,-234zm26 194l-47 51 0 -46 47 -5zm116 -122l-69 73 -88 5 52 -125 105 47zm32 -115c45,-2 88,3 130,14l-126 68 -131 -58c40,-15 83,-22 127,-24zm46 181l-80 4 41 -40 39 36zm167 43l2 55 -57 -55 55 0zm-102 -47l-1 0 -66 -65 92 -49 63 113 -88 1zm-113 -223c-267,11 -477,237 -467,505 10,267 236,477 504,466 268,-9 477,-235 466,-503 -9,-268 -236,-477 -503,-468zm3360 -865l-228 -371 203 -325c39,108 63,222 67,343 5,122 -11,241 -42,353zm-554 689l115 -391 408 -205c-97,255 -284,467 -523,596zm-330 -474l-402 15 -321 -294 -12 -217 -16 -256 145 -153 146 -156 450 -24 325 315 11 395 -326 375zm317 -12l-159 6 165 -188 -6 182zm-92 432l-321 -139 149 -167 266 -10 -94 316zm-391 189c-125,5 -246,-11 -360,-45l349 -191 375 161c-114,44 -236,70 -364,75zm-108 -482l167 -7 -77 85 -90 -78zm-402 15l232 -9 181 156 -292 159 -121 -306zm-37 -256l147 136 -140 5 -6 -134 -1 -7zm-495 127l404 121 152 386c-237,-102 -433,-281 -556,-507zm-135 -496c-5,-118 9,-231 38,-340l172 324 -140 371c-40,-112 -66,-231 -70,-355zm306 60l201 197 0 0 14 234 -339 -102 124 -329zm179 -206l5 94 7 137 -116 -113 104 -118zm-190 41l-141 -265 309 -156 11 215 -179 206zm347 -961l-171 405 -1 0 0 1 -390 197c105,-264 307,-479 562,-603zm70 500l-52 56 -71 76 -2 -121 125 -11zm297 -315l-178 189 -226 12 136 -321 268 120zm82 -296c117,-5 230,8 336,37l-323 174 -338 -150c102,-36 212,-57 325,-61zm121 465l-205 11 102 -101 103 90zm393 -14l-228 7 0 -1 -174 -168 239 -129 163 291zm44 268l-149 -144 140 2 9 142zm272 262l-147 -141 -8 -247 303 151 -148 237zm-140 170l-3 -137 62 67 -59 70zm143 20l175 286 -303 154 -9 -284 137 -156zm243 -508l-431 -215 -213 -381c284,104 517,320 644,596zm-1080 -779c-689,26 -1229,608 -1203,1298 26,689 608,1229 1297,1203 690,-26 1231,-609 1205,-1298 -27,-690 -609,-1229 -1299,-1203zm-3345 381l-120 -212c160,58 289,178 361,332l-241 -120zm298 359c2,68 -7,134 -25,197l-126 -207 112 -181c23,60 35,124 39,191zm-195 -61l-82 -79 -4 -138 169 84 -83 133zm-77 94l-2 -76 34 37 -32 39zm78 11l99 160 -170 85 -4 -158 75 -87zm-138 537l63 -218 227 -114c-53,141 -158,259 -290,332zm-185 -264l-224 8 -179 -164 -3 -47 -13 -217 93 -98 69 -74 252 -13 180 175 7 221 -182 209zm177 -7l-89 4 92 -105 -3 101zm-52 242l-179 -78 83 -94 148 -5 -52 177zm-218 105c-69,2 -136,-7 -200,-26l194 -106 209 89c-64,25 -131,40 -203,43zm-60 -270l59 -2 34 0 -43 46 -50 -44zm-224 9l130 -6 100 88 -163 89 -67 -171zm-21 -142l82 75 -77 3 -5 -78zm-274 71l224 67 84 213c-132,-55 -240,-155 -308,-280zm-78 -277c-1,-66 6,-129 22,-190l96 181 -77 206c-24,-62 -38,-128 -41,-197zm172 33l112 109 0 1 7 131 -189 -56 70 -185zm99 -115l3 47 4 82 -65 -63 58 -66zm-106 23l-79 -148 172 -87 7 120 -100 115zm194 -535l-95 225 0 0 0 0 -219 110c59,-147 171,-267 314,-335zm39 278l-68 73 -1 -67 69 -6zm166 -176l-99 106 -127 6 77 -178 149 66zm46 -165c64,-3 127,5 186,21l-179 97 -189 -83c57,-21 118,-32 182,-35zm67 260l-115 5 58 -56 57 51zm238 61l5 80 -83 -80 78 0zm-146 -66l0 0 -96 -93 132 -72 90 162 -126 3zm-162 -320c-384,15 -685,340 -671,725 15,384 339,684 724,670 384,-15 686,-339 671,-723 -14,-385 -339,-686 -724,-672zm16851 2005l-136 -60 63 -70 112 -4 -39 134zm-23467 1137l59 149c-92,-39 -168,-108 -216,-195l157 46zm-195 -371l68 125 -55 143c-16,-42 -26,-88 -28,-137 -1,-45 4,-90 15,-131zm169 -125l-1 0 0 0 -151 77c41,-102 119,-185 219,-234l-67 157zm245 -119l-132 -58c40,-13 83,-22 127,-23 45,-2 89,3 130,13l-125 68zm245 92l-82 -147c110,40 200,123 249,231l-167 -84zm190 388l-88 -144 79 -127c16,43 26,87 26,133 2,49 -4,94 -17,138zm-169 115l158 -80c-38,100 -110,181 -203,231l45 -151zm-242 113l145 62c-43,17 -91,28 -141,30 -48,1 -94,-5 -139,-18l135 -74zm-104 -93l0 0 1 0 70 60 -114 62 -47 -119 90 -3zm-230 -217l78 77 0 1 6 89 -132 -39 48 -128zm61 -227l5 84 -70 80 -55 -103 120 -61zm143 -65l-88 6 53 -125 105 46 -70 73zm212 -10l0 -1 -67 -64 92 -50 63 113 -88 2zm211 203l-56 -55 -4 -95 118 58 -58 92zm-49 244l-3 -110 52 -60 69 111 -118 59zm-154 64l102 -3 -36 121 -125 -53 59 -65zm-97 3l34 0 -29 33 -36 -31 31 -2zm-217 -450l48 -4 -47 51 -1 -47zm464 205l-2 -52 24 25 -22 27zm-110 -223l54 1 3 55 -57 -56zm-112 -43l-80 4 41 -39 39 35zm112 462l64 -74 -2 72 -62 2zm-389 -153l-45 -44 40 -45 2 39 3 50zm171 161l-124 -114 -4 -77 -6 -107 53 -56 59 -64 174 -9 128 121 4 155 -127 145 -62 2 -95 4zm-117 5l-2 -53 -1 -2 58 52 -3 0 -52 3zm21728 319l-14797 0 -193 0 -6117 0c-141,0 -280,-17 -413,-49 1,0 3,0 3,0 269,-10 478,-235 467,-503 -10,-268 -236,-477 -504,-467 -267,10 -477,236 -467,504 6,142 73,268 175,354 -612,-281 -1038,-900 -1038,-1616 0,-981 797,-1778 1777,-1778l6117 0 193 0 14797 0c792,0 1464,521 1694,1238 -62,-22 -128,-33 -197,-30 -293,12 -521,258 -510,551 11,292 258,520 550,510 65,-3 126,-17 182,-40 -199,762 -894,1326 -1719,1326zm1731 -2181l-50 -88c11,4 21,8 30,13 8,25 14,50 20,75zm4 189l-64 -61 61 0 3 61zm-207 485l-38 -33 70 -3 -32 36zm3 71l158 68c-48,19 -99,31 -153,32 -54,3 -105,-5 -153,-19l148 -81zm-212 -97l99 -5 76 67 -124 68 -51 -130zm-16 -109l62 58 -2 0 -56 1 -4 -56 0 -3zm-38 105l64 163c-101,-43 -183,-119 -235,-214l171 51zm-140 -268l-59 156c-17,-47 -28,-97 -30,-150 -2,-49 4,-97 16,-143l73 137zm41 32l85 84 0 0 5 98 -143 -43 53 -139zm75 -87l2 25 4 73 -49 -49 43 -49zm-80 16l-60 -112 132 -65 5 91 -77 86zm75 -235l-1 0 0 1 -165 82c45,-110 130,-202 238,-254l-72 171zm102 41l-21 23 -31 33 -2 -52 54 -4zm126 -134l-75 80 -96 5 58 -135 113 50zm40 -37l-143 -63c44,-15 90,-24 138,-26 49,-2 97,4 143,16l-138 73zm45 109l-86 4 44 -43 42 39zm-2 -76l101 -54 68 124 -96 2 -73 -72zm197 423l-139 159 -46 2 -123 5 -137 -124 -4 -72 -7 -130 61 -66 62 -64 190 -11 138 134 5 167zm-1744 -2170l-14797 0 -193 0 -6117 0c-1183,0 -2145,962 -2145,2146 0,1183 962,2144 2145,2144l6117 0 193 0 14797 0c1183,0 2146,-961 2146,-2144 0,-1184 -963,-2146 -2146,-2146z"/>
 </g>
</svg>
