<?xml version="1.0" encoding="UTF-8"?>
<!DOCTYPE svg PUBLIC "-//W3C//DTD SVG 1.1//EN" "http://www.w3.org/Graphics/SVG/1.1/DTD/svg11.dtd">
<!-- Creator: CorelDRAW X7 -->
<svg xmlns="http://www.w3.org/2000/svg" xml:space="preserve" width="4.2332mm" height="4.2332mm" version="1.1" style="shape-rendering:geometricPrecision; text-rendering:geometricPrecision; image-rendering:optimizeQuality; fill-rule:evenodd; clip-rule:evenodd"
viewBox="0 0 423320 423320"
 xmlns:xlink="http://www.w3.org/1999/xlink">
 <defs>
  <style type="text/css">
   <![CDATA[
    .fil0 {fill:none}
    .fil1 {fill:#6E6C6B}
   ]]>
  </style>
 </defs>
 <g id="Layer_x0020_1">
  <metadata id="CorelCorpID_0Corel-Layer"/>
  <rect class="fil0" width="423320" height="423320"/>
  <g id="_2142992444032">
   <path class="fil1" d="M335010 213080c0,1800 -210,3540 -590,5220l0 -13250c390,1660 590,3400 590,5180l0 2850zm-4230 12060l-13100 0 0 -27000 13100 0 0 27000zm-19190 11360l-75370 0 7720 -7720 85010 0c-4290,4740 -10480,7720 -17360,7720zm-58410 -16960l0 5600 -5600 0 5600 -5600zm-22120 16960l-3640 3650 -15760 15760 -15760 -15760 -3650 -3650 -7720 -7720 -3650 -3640 -13480 -13480 13520 -13520 3650 -3650 7680 -7680 3650 -3640 15760 -15770 15760 15770 3640 3640 7680 7680 3650 3650 13520 13520 -13480 13480 -3650 3640 -7720 7720zm-57690 -11360l0 -2360 2360 2360 -2360 0zm-61650 11360c-6880,0 -13070,-2980 -17360,-7720l85010 0 7720 7720 -75370 0zm-19160 -11360l0 -27000 15500 0 0 27000 -15500 0zm-3640 -6710c-410,-1720 -620,-3510 -620,-5350l0 -2850c0,-1830 220,-3600 620,-5310l0 13510zm3640 -21600c270,-380 550,-750 840,-1120 -290,370 -570,740 -840,1120l0 0zm35450 1310l0 27000 -16310 0 0 -27000 16310 0zm20860 0l0 27000 -17210 0 0 -27000 17210 0zm20860 0l0 6030 -7480 7490 7480 7480 0 6000 -17210 0 0 -27000 17210 0zm6040 0l-2400 2390 0 -2390 2400 0zm-64050 -11330l75370 0 -7680 7680 -84980 0c4280,-4700 10430,-7680 17290,-7680zm141460 11330l0 5630 -5640 -5630 5640 0zm3640 9270l0 -9270 17220 0 0 27000 -17220 0 0 -9240 4240 -4240 -4240 -4250zm38080 -9270l0 27000 -17220 0 0 -27000 17220 0zm19140 0l0 27000 -15500 0 0 -27000 15500 0zm-2450 -11330c6860,0 13010,2980 17290,7680l-84980 0 -7680 -7680 75370 0zm0 -3640l-79020 0 -20910 -20920 -20920 20920 -79020 0c-14930,0 -27060,12140 -27060,27060l0 2850c0,14930 12130,27070 27060,27070l79020 0 20920 20910 20910 -20910 79020 0c14930,0 27070,-12140 27070,-27070l0 -2850c0,-14920 -12150,-27060 -27070,-27060z"/>
   <path class="fil1" d="M211660 234740c-12740,0 -23090,-10350 -23090,-23080 0,-5060 1640,-9720 4410,-13520 960,-1330 2070,-2550 3290,-3650 4090,-3670 9470,-5920 15390,-5920 5910,0 11290,2250 15380,5920 1220,1100 2330,2320 3290,3650 2770,3800 4410,8470 4410,13520 0,12730 -10360,23080 -23080,23080zm20470 -40250c-2830,-3370 -6470,-6030 -10620,-7680 -3060,-1210 -6380,-1890 -9850,-1890 -3480,0 -6800,680 -9850,1890 -4160,1650 -7800,4310 -10630,7680 -960,1140 -1820,2360 -2570,3650 -2340,3970 -3690,8590 -3690,13520 0,11260 7010,20910 16880,24840 3060,1210 6380,1890 9860,1890 3470,0 6790,-680 9850,-1890 9880,-3930 16880,-13580 16880,-24840 0,-4930 -1350,-9550 -3690,-13520 -750,-1290 -1610,-2510 -2570,-3650z"/>
  </g>
 </g>
</svg>
