<?xml version="1.0" encoding="UTF-8"?>
<!DOCTYPE svg PUBLIC "-//W3C//DTD SVG 1.1//EN" "http://www.w3.org/Graphics/SVG/1.1/DTD/svg11.dtd">
<!-- Creator: CorelDRAW X7 -->
<svg xmlns="http://www.w3.org/2000/svg" xml:space="preserve" width="4.2332mm" height="4.2332mm" version="1.1" style="shape-rendering:geometricPrecision; text-rendering:geometricPrecision; image-rendering:optimizeQuality; fill-rule:evenodd; clip-rule:evenodd"
viewBox="0 0 42332 42332"
 xmlns:xlink="http://www.w3.org/1999/xlink">
 <defs>
  <style type="text/css">
   <![CDATA[
    .fil0 {fill:none}
    .fil1 {fill:#22B9C7}
   ]]>
  </style>
 </defs>
 <g id="Layer_x0020_1">
  <metadata id="CorelCorpID_0Corel-Layer"/>
  <rect class="fil0" width="42332" height="42332"/>
  <path class="fil1" d="M32096 22634l-7070 21c666,-197 1154,-815 1154,-1545 0,-636 -371,-1187 -909,-1449l6825 38c809,0 1467,658 1467,1467 0,810 -658,1468 -1467,1468zm-21859 0c-810,0 -1468,-658 -1468,-1468 0,-809 658,-1467 1468,-1467l6531 -84 394 2c-591,239 -1010,818 -1010,1493 0,759 528,1396 1235,1566l-7150 -42zm10929 -2954c789,0 1431,642 1431,1430 0,790 -642,1432 -1431,1432 -789,-1 -1430,-642 -1430,-1432 0,-788 641,-1430 1430,-1430zm-1794 1430c0,-669 -410,-1244 -992,-1487l2142 12c-568,249 -966,817 -966,1475 0,746 509,1374 1198,1557l-2610 8c704,-173 1228,-808 1228,-1565zm-3040 0c0,-788 641,-1430 1430,-1430 789,0 1431,642 1431,1430 0,790 -642,1432 -1431,1432 -789,-1 -1430,-642 -1430,-1432zm8238 -1430c789,0 1431,642 1431,1430 0,790 -642,1432 -1431,1432 -789,-1 -1431,-642 -1431,-1432 0,-788 642,-1430 1431,-1430zm-1610 1430c0,733 492,1353 1163,1547l-2536 8c684,-186 1189,-812 1189,-1555 0,-652 -390,-1215 -950,-1467l2059 11c-546,258 -925,814 -925,1456zm9136 -1715l-15368 0 -848 0 -5643 0c-977,0 -1772,795 -1772,1771 0,977 795,1772 1772,1772l6947 -15 14912 15c977,0 1771,-795 1771,-1772 0,-976 -794,-1771 -1771,-1771z"/>
 </g>
</svg>
