<?xml version="1.0" encoding="UTF-8"?>
<!DOCTYPE svg PUBLIC "-//W3C//DTD SVG 1.1//EN" "http://www.w3.org/Graphics/SVG/1.1/DTD/svg11.dtd">
<!-- Creator: CorelDRAW X7 -->
<svg xmlns="http://www.w3.org/2000/svg" xml:space="preserve" width="4.2332mm" height="4.2332mm" version="1.1" style="shape-rendering:geometricPrecision; text-rendering:geometricPrecision; image-rendering:optimizeQuality; fill-rule:evenodd; clip-rule:evenodd"
viewBox="0 0 42332 42332"
 xmlns:xlink="http://www.w3.org/1999/xlink">
 <defs>
  <style type="text/css">
   <![CDATA[
    .fil0 {fill:none}
    .fil1 {fill:#22B9C7}
   ]]>
  </style>
 </defs>
 <g id="Layer_x0020_1">
  <metadata id="CorelCorpID_0Corel-Layer"/>
  <rect class="fil0" width="42332" height="42332"/>
  <path class="fil1" d="M31720 22936l-6807 -8c52,-150 80,-312 77,-480 -2,-170 -34,-332 -92,-482 119,-159 194,-344 218,-540 123,-32 214,-145 212,-278 -3,-156 -130,-281 -285,-280 -68,-168 -175,-318 -317,-439l-4 4c77,-169 118,-357 115,-554 -2,-168 -37,-328 -96,-475l6979 -24c980,0 1778,797 1778,1778 0,980 -798,1778 -1778,1778zm-8109 786c-692,11 -1263,-545 -1272,-1237 -10,-692 545,-1263 1237,-1272 692,-10 1263,545 1272,1237 10,692 -545,1263 -1237,1272zm-1019 762c67,-167 102,-348 100,-538 -3,-181 -40,-353 -105,-510 246,255 586,416 963,428 -31,115 -85,220 -158,311 -49,-38 -111,-61 -178,-60 -157,2 -282,131 -280,288 0,22 3,43 8,63 -113,30 -232,36 -350,18zm-1280 736c-692,10 -1263,-545 -1272,-1237 -10,-692 545,-1263 1237,-1273 692,-10 1263,546 1273,1238 9,692 -546,1262 -1238,1272zm-1623 -809c2,-11 2,-21 2,-32 -2,-157 -131,-283 -288,-281 -70,1 -132,27 -181,69 -69,-77 -122,-169 -156,-273 623,-148 1083,-712 1074,-1378 -9,-594 -389,-1098 -916,-1292 253,-53 482,-174 665,-344 -22,99 -32,202 -31,308 11,771 647,1389 1417,1377 371,-4 706,-155 953,-395 -22,102 -33,208 -32,317 3,180 40,353 105,510 -259,-269 -624,-434 -1026,-429 -770,11 -1388,647 -1378,1417 2,142 26,279 68,408 -93,23 -186,29 -276,18zm-929 -620c-692,9 -1263,-546 -1272,-1238 -10,-692 545,-1263 1237,-1273 692,-9 1263,546 1272,1238 10,692 -545,1263 -1237,1273zm-8149 -855c-981,0 -1778,-798 -1778,-1778 0,-981 797,-1778 1778,-1778l7014 0c-56,155 -86,322 -84,496 3,229 62,443 162,632 -113,95 -198,214 -252,347 -150,10 -268,135 -266,287 2,138 100,251 230,275 32,120 87,233 167,332l15 -11c-162,231 -256,513 -251,817 1,132 22,260 58,381l-6793 0zm7064 -1300c-51,-70 -91,-147 -116,-228 114,-39 196,-147 194,-273 -1,-112 -67,-206 -160,-252 43,-95 105,-180 184,-251 164,244 401,433 680,536 -311,65 -584,233 -782,468zm1246 -3034c692,-10 1263,545 1272,1237 10,692 -545,1263 -1237,1273 -692,9 -1263,-546 -1273,-1238 -10,-692 546,-1263 1238,-1272zm966 -659c-46,141 -70,292 -68,449 3,159 32,312 83,455 -234,-224 -546,-367 -889,-385 33,-115 93,-216 170,-299 49,39 112,62 180,61 157,-2 283,-131 280,-288 0,-2 0,-3 0,-5 79,-9 162,-6 244,12zm1312 -826c692,-10 1263,545 1272,1237 10,692 -545,1264 -1237,1273 -692,10 -1263,-545 -1273,-1237 -9,-692 546,-1263 1238,-1273zm1312 4034c9,692 -546,1263 -1238,1272 -692,10 -1263,-545 -1273,-1237 -9,-692 546,-1263 1238,-1272 692,-10 1263,545 1273,1237zm329 -3121c-3,16 -5,34 -5,52 2,157 131,282 288,280 70,-1 133,-27 183,-69 69,84 119,182 147,290 -703,36 -1258,623 -1248,1332 1,88 11,174 29,257 -257,-252 -611,-406 -998,-400 -360,5 -686,146 -931,373 21,-99 32,-202 30,-308 -2,-160 -31,-313 -83,-455 256,244 603,393 984,387 771,-11 1388,-646 1378,-1417 -2,-108 -16,-214 -42,-315 90,-19 180,-21 268,-7zm1855 1850c9,648 -510,1182 -1158,1191 -647,9 -1181,-511 -1190,-1158 -9,-647 510,-1181 1157,-1190 648,-9 1182,510 1191,1157zm-2079 972c144,135 317,239 509,300 -191,68 -362,176 -505,315 23,-103 34,-209 33,-318 -2,-102 -14,-201 -37,-297zm2287 53c-87,49 -145,144 -144,251 2,130 92,239 213,270 -20,139 -69,271 -143,389 -175,-329 -478,-580 -841,-688 283,-107 519,-309 669,-567 108,97 191,215 246,345zm6817 -1893l-7237 -13c-228,-244 -547,-401 -901,-417l17 -3c-34,-155 -108,-294 -211,-408 10,-30 16,-63 16,-97 -3,-157 -132,-282 -288,-280 -87,1 -163,41 -214,102 -120,-24 -244,-23 -367,4l8 33c-187,-563 -722,-967 -1346,-958 -569,8 -1055,357 -1265,849l4 -17c-112,-26 -225,-30 -334,-14 -51,-83 -142,-138 -247,-137 -157,2 -282,131 -280,288 0,37 8,72 22,104 -113,113 -193,255 -232,414 -424,22 -797,233 -1038,550l-7216 0c-1184,0 -2146,963 -2146,2146 0,1183 962,2145 2146,2145l6965 0c254,385 692,636 1186,630 55,-1 110,-6 163,-12 43,142 117,266 214,366 -11,31 -17,65 -16,99 2,158 131,283 288,281 94,-2 176,-49 227,-120 51,8 102,12 155,12 74,-1 148,-12 222,-32 220,498 721,843 1299,835 528,-7 984,-308 1216,-745 70,14 141,21 210,20 93,-1 184,-16 272,-42 53,55 127,90 210,88 157,-2 282,-131 280,-288 -1,-37 -8,-72 -21,-104 105,-122 180,-269 217,-430 415,-31 779,-243 1014,-558l7008 0c1183,0 2146,-962 2146,-2145 0,-1183 -963,-2146 -2146,-2146z"/>
 </g>
</svg>
