<?xml version="1.0" encoding="UTF-8"?>
<!DOCTYPE svg PUBLIC "-//W3C//DTD SVG 1.1//EN" "http://www.w3.org/Graphics/SVG/1.1/DTD/svg11.dtd">
<!-- Creator: CorelDRAW X7 -->
<svg xmlns="http://www.w3.org/2000/svg" xml:space="preserve" width="4.2332mm" height="4.2332mm" version="1.1" style="shape-rendering:geometricPrecision; text-rendering:geometricPrecision; image-rendering:optimizeQuality; fill-rule:evenodd; clip-rule:evenodd"
viewBox="0 0 42332 42332"
 xmlns:xlink="http://www.w3.org/1999/xlink">
 <defs>
  <style type="text/css">
   <![CDATA[
    .fil0 {fill:none}
    .fil1 {fill:#22B9C7}
   ]]>
  </style>
 </defs>
 <g id="Layer_x0020_1">
  <metadata id="CorelCorpID_0Corel-Layer"/>
  <rect class="fil0" width="42332" height="42332"/>
  <g id="_2143152406912">
   <path class="fil1" d="M31570 22969l-2821 0 0 -1695 0 -167 0 -1694 2821 0c1050,0 1903,797 1903,1778 1,980 -853,1778 -1903,1778zm-7730 -1695l1233 0 89 0 0 1695 -1322 0 0 -1695zm-3090 2387l-411 0 -1776 0 0 -1776 0 -411 0 -2799 2800 0 410 0 1776 0 0 1775 0 411 1 2800 -2800 0zm-2477 -692l-1375 0 0 -1695 89 0 1286 0 0 320 0 1375zm-9414 -1778c0,-981 844,-1778 1881,-1778l2542 0 0 3556 -2542 0c-1037,0 -1881,-798 -1881,-1778zm9414 -84l-1286 0 -89 0 0 -1694 1375 0 0 1694zm-3067 167l1524 0 0 1695 -1524 0 0 -1695zm-1757 0l1251 0 339 0 0 1695 -1590 0 0 -1695zm1590 -167l-339 0 -1251 0 0 -1694 1590 0 0 1694zm1691 0l-1524 0 0 -1694 1524 0 0 1694zm10291 167l338 0 1223 0 0 1695 -1561 0 0 -1695zm-1691 0l1524 0 0 1695 -1524 0 0 -1695zm1524 -167l-1524 0 0 -1694 1524 0 0 1694zm1728 0l-1223 0 -338 0 0 -1694 1561 0 0 1694zm2988 -2062l-7730 0 0 368 1322 0 0 1694 -89 0 -1233 0 0 -366 0 -2357 -2357 0 -411 0 -2799 0 0 661 -7533 0c-1252,0 -2270,962 -2270,2146 0,1183 1018,2145 2270,2145l7533 0 0 615 2357 0 410 0 2800 0 0 -615 7730 0c1267,0 2298,-962 2298,-2145 0,-1184 -1031,-2146 -2298,-2146z"/>
   <path class="fil1" d="M22357 22468c-717,718 -1884,718 -2601,0 -718,-717 -718,-1884 0,-2601 717,-717 1884,-717 2601,0 717,717 717,1884 0,2601zm-2806 -2807c-831,831 -831,2182 0,3013 830,830 2181,830 3012,0 830,-831 830,-2182 0,-3013 -831,-830 -2182,-830 -3012,0z"/>
  </g>
 </g>
</svg>
