<?xml version="1.0" encoding="UTF-8"?>
<!DOCTYPE svg PUBLIC "-//W3C//DTD SVG 1.1//EN" "http://www.w3.org/Graphics/SVG/1.1/DTD/svg11.dtd">
<!-- Creator: CorelDRAW X7 -->
<svg xmlns="http://www.w3.org/2000/svg" xml:space="preserve" width="4.2332mm" height="4.2332mm" version="1.1" style="shape-rendering:geometricPrecision; text-rendering:geometricPrecision; image-rendering:optimizeQuality; fill-rule:evenodd; clip-rule:evenodd"
viewBox="0 0 42332 42332"
 xmlns:xlink="http://www.w3.org/1999/xlink">
 <defs>
  <style type="text/css">
   <![CDATA[
    .fil0 {fill:none}
    .fil1 {fill:#22B9C7}
   ]]>
  </style>
 </defs>
 <g id="Layer_x0020_1">
  <metadata id="CorelCorpID_0Corel-Layer"/>
  <rect class="fil0" width="42332" height="42332"/>
  <path class="fil1" d="M31727 22859l-7260 46c187,-251 394,-558 471,-748 136,-335 206,-700 203,-1058 -1,-472 -127,-940 -361,-1353 -112,-198 -234,-344 -391,-514l7338 81c977,0 1772,795 1772,1773 1,977 -795,1773 -1772,1773zm-8236 120c-125,-126 -261,-241 -405,-342 -99,-82 -146,-218 -191,-350 -17,-51 -35,-102 -55,-150 -192,-453 -252,-971 -170,-1458 52,-311 197,-626 312,-839 298,-262 462,-420 578,-555 3,-3 6,-7 10,-10 55,21 115,33 178,33 148,0 281,-64 374,-164 212,198 393,426 532,673 222,392 341,836 342,1282 3,340 -63,687 -192,1004 -102,253 -473,754 -665,988 -94,-111 -234,-182 -391,-182 -94,0 -181,26 -257,70zm-716 1310c-392,222 -835,341 -1282,342l-23 0c-332,0 -670,-66 -980,-192 -264,-107 -511,-256 -734,-443l-52 -43c-77,-64 -161,-135 -243,-208 72,-88 116,-201 116,-323 0,-127 -47,-243 -123,-333 45,-40 91,-79 138,-115l7 -4 5 -5c303,-237 634,-399 852,-491 451,-190 972,-252 1457,-169 286,48 562,143 821,283 234,127 451,290 644,481 -88,92 -142,216 -142,353 0,150 66,286 170,379 -188,193 -401,358 -631,488zm-3437 -1300c-80,-50 -173,-80 -273,-80 -171,0 -321,85 -414,213l-136 -105c-236,-303 -398,-634 -489,-851 -192,-453 -252,-971 -170,-1458 48,-286 143,-562 284,-821 145,-268 338,-514 567,-726 92,91 219,147 358,147 87,0 168,-22 240,-61 51,58 102,117 153,176 107,124 216,252 346,388 28,30 51,61 67,92 202,378 310,801 311,1225 3,340 -63,687 -192,1004 -104,258 -304,508 -484,724 -66,36 -121,83 -168,133zm-8733 -173c-977,0 -1773,-795 -1773,-1773 0,-978 796,-1773 1773,-1773l7828 -38c-165,179 -307,376 -421,586 -148,273 -248,565 -298,867 -87,513 -24,1059 179,1537 71,168 181,400 335,639l-7623 -45zm11921 -2148l0 -439c0,-39 -33,-70 -72,-70l-431 0c271,-55 533,-150 777,-282 -108,215 -225,496 -272,779 -1,3 -2,8 -2,12zm-72 1520c12,0 24,-3 34,-8l14 -10c16,-14 24,-34 24,-53l0 -558c35,218 95,432 181,634 18,43 34,90 51,140 14,42 30,86 47,129 -1,0 -2,-1 -2,-1 -233,-126 -480,-218 -735,-273l386 0zm-2068 -97l0 -1836 2043 0 0 1836 -2043 0zm-387 -2257c-15,-28 -34,-56 -56,-83 156,103 321,189 492,259 161,65 328,115 499,149l-574 0 -6 0c-9,1 -18,4 -30,10l-13 11c-13,12 -21,30 -22,49l0 466c-49,-299 -146,-591 -290,-861zm305 2325l5 7 11 9c12,8 26,13 40,13l530 0c-169,36 -334,87 -490,153 -137,58 -316,142 -506,253 91,-130 173,-267 230,-408 77,-190 132,-389 165,-591l0 523c1,15 6,29 15,41zm-821 -3658c333,-292 726,-485 973,-590 451,-191 972,-252 1457,-170 286,48 562,143 821,284 222,120 429,273 614,453 -70,87 -112,198 -112,318 0,166 80,314 203,407 -196,208 -420,385 -664,522 -392,223 -835,342 -1282,343l-23 0c-332,0 -670,-66 -980,-192 -264,-107 -511,-256 -734,-443l-52 -43c-86,-73 -182,-153 -274,-236 91,-93 147,-219 147,-358 0,-110 -35,-212 -94,-295zm12244 445l-7490 0c14,-48 23,-98 23,-150 0,-283 -230,-512 -512,-512 -110,0 -212,35 -296,94 -195,-189 -414,-353 -649,-480 -273,-148 -564,-249 -866,-299 -512,-87 -1062,-23 -1537,179 -258,108 -667,311 -1016,618 -88,-70 -199,-112 -319,-112 -283,0 -512,229 -512,512 0,36 5,71 12,105l-7960 2c-1179,0 -2140,960 -2140,2140 1,1180 960,2140 2140,2140l7857 -2c34,41 69,81 105,120 -9,39 -14,79 -14,121 0,282 229,511 512,511 107,0 207,-33 289,-90 87,79 176,153 258,221l52 43c234,197 494,354 771,466 327,133 685,203 1035,203l24 0c471,-2 939,-127 1353,-362 249,-140 479,-320 681,-531 67,32 141,50 220,50 282,0 512,-229 512,-511 0,-50 -8,-98 -21,-143l7488 -53c1179,0 2139,-960 2139,-2140 0,-1180 -960,-2140 -2139,-2140z"/>
 </g>
</svg>
