<?xml version="1.0" encoding="UTF-8"?>
<!DOCTYPE svg PUBLIC "-//W3C//DTD SVG 1.1//EN" "http://www.w3.org/Graphics/SVG/1.1/DTD/svg11.dtd">
<!-- Creator: CorelDRAW X7 -->
<svg xmlns="http://www.w3.org/2000/svg" xml:space="preserve" width="4.2332mm" height="4.2332mm" version="1.1" style="shape-rendering:geometricPrecision; text-rendering:geometricPrecision; image-rendering:optimizeQuality; fill-rule:evenodd; clip-rule:evenodd"
viewBox="0 0 423320 423320"
 xmlns:xlink="http://www.w3.org/1999/xlink">
 <defs>
  <style type="text/css">
   <![CDATA[
    .fil0 {fill:none}
    .fil1 {fill:#6E6C6B}
   ]]>
  </style>
 </defs>
 <g id="Layer_x0020_1">
  <metadata id="CorelCorpID_0Corel-Layer"/>
  <rect class="fil0" width="423320" height="423320"/>
  <path class="fil1" d="M323910 223560l-22090 0c2760,-2890 4450,-6810 4450,-11130 0,-4310 -1690,-8230 -4450,-11130l22090 0c6130,0 11100,5000 11100,11130 0,6140 -4980,11130 -11100,11130zm-45870 -11130c0,-6850 5520,-12430 12300,-12430 6780,0 12290,5580 12290,12430 0,6860 -5510,12430 -12290,12430 -6780,0 -12300,-5570 -12300,-12430zm-19460 15990c-8730,0 -15820,-7170 -15820,-15990 0,-8820 7090,-15990 15820,-15990 8720,0 15820,7170 15820,15990 0,8820 -7100,15990 -15820,15990zm-46330 9730c-14810,0 -26860,-11880 -26860,-26490 0,-14610 12050,-26490 26860,-26490 14810,-10 26860,11880 26860,26490 0,14610 -12050,26490 -26860,26490zm-46640 -9730c-8730,0 -15820,-7170 -15820,-15990 0,-8820 7090,-15990 15820,-15990 8720,0 15820,7170 15820,15990 0,8820 -7100,15990 -15820,15990zm-31760 -3560c-6780,0 -12290,-5570 -12290,-12430 0,-6850 5510,-12430 12290,-12430 6780,0 12290,5580 12290,12430 0,6860 -5510,12430 -12290,12430zm-45540 -12430c0,-6130 4980,-11130 11100,-11130l22950 0c-2750,2900 -4450,6820 -4450,11130 0,4320 1700,8240 4450,11130l-22950 0c-6120,0 -11100,-4990 -11100,-11130zm235600 -14770l-27290 0c-1930,-840 -4060,-1300 -6280,-1300 -5970,0 -11190,3330 -13910,8240 -3010,-6940 -9880,-11810 -17850,-11810 -7370,0 -13790,4150 -17100,10260 -3750,-12440 -15440,-21530 -29230,-21530 -13930,0 -25720,9290 -29340,21930 -3240,-6320 -9780,-10660 -17300,-10660 -7980,0 -14840,4870 -17850,11810 -2730,-4910 -7940,-8240 -13910,-8240 -2230,0 -4350,460 -6280,1300l-28160 0c-8130,0 -14750,6630 -14750,14770 0,8150 6620,14770 14750,14770l28160 0c1930,840 4050,1310 6280,1310 5970,0 11180,-3330 13910,-8250 3010,6940 9870,11810 17850,11810 7750,0 14460,-4600 17590,-11240 3930,12150 15470,20970 29050,20970 13440,0 24870,-8640 28930,-20580 3200,6430 9790,10850 17400,10850 7970,0 14840,-4870 17850,-11810 2730,4920 7940,8250 13910,8250 2220,0 4350,-470 6280,-1310l27290 0c8130,0 14750,-6620 14750,-14770 0,-8140 -6620,-14770 -14750,-14770z"/>
 </g>
</svg>
