<?xml version="1.0" encoding="UTF-8"?>
<!DOCTYPE svg PUBLIC "-//W3C//DTD SVG 1.1//EN" "http://www.w3.org/Graphics/SVG/1.1/DTD/svg11.dtd">
<!-- Creator: CorelDRAW X7 -->
<svg xmlns="http://www.w3.org/2000/svg" xml:space="preserve" width="4.2332mm" height="4.2332mm" version="1.1" style="shape-rendering:geometricPrecision; text-rendering:geometricPrecision; image-rendering:optimizeQuality; fill-rule:evenodd; clip-rule:evenodd"
viewBox="0 0 423320 423320"
 xmlns:xlink="http://www.w3.org/1999/xlink">
 <defs>
  <style type="text/css">
   <![CDATA[
    .fil0 {fill:none}
    .fil1 {fill:#6E6C6B}
   ]]>
  </style>
 </defs>
 <g id="Layer_x0020_1">
  <metadata id="CorelCorpID_0Corel-Layer"/>
  <rect class="fil0" width="423320" height="423320"/>
  <path class="fil1" d="M324330 222340l-39960 0c1670,-3200 2630,-6830 2630,-10680 0,-3850 -960,-7490 -2630,-10680l39960 0c5900,0 10690,4790 10690,10680 0,5890 -4790,10680 -10690,10680zm-60400 8740c-10700,0 -19420,-8710 -19420,-19420 10,-10710 8720,-19420 19420,-19420 10710,0 19420,8710 19420,19420 0,10710 -8710,19420 -19420,19420zm-52590 9460c-15930,0 -28880,-12960 -28880,-28880 0,-15930 12950,-28880 28880,-28880 15930,0 28880,12950 28880,28880 0,15920 -12950,28880 -28880,28880zm-51950 -9460c-10700,0 -19410,-8710 -19410,-19420 0,-10710 8710,-19420 19410,-19420 10710,0 19420,8710 19420,19420 0,10710 -8710,19420 -19420,19420zm-60400 -8740c-5890,0 -10680,-4790 -10680,-10680 0,-5890 4790,-10680 10680,-10680l39970 0c-1670,3190 -2630,6830 -2630,10680 0,3850 960,7480 2630,10680l-39970 0zm225340 -25010l-42340 0c-4230,-5310 -10750,-8730 -18060,-8730 -9580,0 -17820,5880 -21290,14220 -3870,-13650 -16430,-23690 -31300,-23690 -14550,0 -26900,9600 -31040,22800 -3680,-7870 -11660,-13330 -20910,-13330 -7300,0 -13820,3420 -18050,8730l-42350 0c-7900,0 -14320,6430 -14320,14330 0,7900 6420,14320 14320,14320l42350 0c4230,5320 10750,8740 18050,8740 9250,0 17230,-5470 20910,-13330 4150,13190 16490,22790 31040,22790 14870,0 27430,-10030 31300,-23680 3470,8340 11710,14220 21290,14220 7310,0 13830,-3420 18060,-8740l42340 0c7910,0 14330,-6420 14330,-14320 0,-7900 -6420,-14330 -14330,-14330z"/>
 </g>
</svg>
