<?xml version="1.0" encoding="UTF-8"?>
<!DOCTYPE svg PUBLIC "-//W3C//DTD SVG 1.1//EN" "http://www.w3.org/Graphics/SVG/1.1/DTD/svg11.dtd">
<!-- Creator: CorelDRAW X7 -->
<svg xmlns="http://www.w3.org/2000/svg" xml:space="preserve" width="4.2332mm" height="4.2332mm" version="1.1" style="shape-rendering:geometricPrecision; text-rendering:geometricPrecision; image-rendering:optimizeQuality; fill-rule:evenodd; clip-rule:evenodd"
viewBox="0 0 423320 423320"
 xmlns:xlink="http://www.w3.org/1999/xlink">
 <defs>
  <style type="text/css">
   <![CDATA[
    .fil0 {fill:none}
    .fil1 {fill:#6E6C6B}
   ]]>
  </style>
 </defs>
 <g id="Layer_x0020_1">
  <metadata id="CorelCorpID_0Corel-Layer"/>
  <rect class="fil0" width="423320" height="423320"/>
  <g id="_2142992445248">
   <path class="fil1" d="M234450 211660c0,12570 -10220,22790 -22790,22790 -12560,0 -22790,-10220 -22790,-22790 0,-12570 10230,-22790 22790,-22790 12570,0 22790,10230 22790,22790zm-49170 0c0,14550 11830,26390 26380,26390 14550,0 26390,-11840 26390,-26390 0,-14550 -11840,-26390 -26390,-26390 -14550,0 -26380,11840 -26380,26390z"/>
   <path class="fil1" d="M325310 221410l-64330 0 0 -19500 66730 0c6640,0 7350,6820 7350,9750 0,5380 -4370,9750 -9750,9750zm-113650 33930l-43670 -43680 43670 -43680 43680 43680 -43680 43680zm-49310 -33930l-64330 0c-5380,0 -9760,-4370 -9760,-9750 10,-2930 720,-9750 7360,-9750l66730 0 0 19500zm165360 -23100l-70330 0 0 10300 -45720 -45720 -45710 45720 0 -10300 -70330 0c-6760,0 -10960,5120 -10960,13350 10,7360 6000,13350 13360,13350l67930 0 0 -10300 45710 45720 45720 -45720 0 10300 67930 0c7360,0 13350,-5990 13350,-13350 0,-8230 -4190,-13350 -10950,-13350z"/>
  </g>
 </g>
</svg>
