<?xml version="1.0" encoding="UTF-8"?>
<!DOCTYPE svg PUBLIC "-//W3C//DTD SVG 1.1//EN" "http://www.w3.org/Graphics/SVG/1.1/DTD/svg11.dtd">
<!-- Creator: CorelDRAW X7 -->
<svg xmlns="http://www.w3.org/2000/svg" xml:space="preserve" width="4.2332mm" height="4.2332mm" version="1.1" style="shape-rendering:geometricPrecision; text-rendering:geometricPrecision; image-rendering:optimizeQuality; fill-rule:evenodd; clip-rule:evenodd"
viewBox="0 0 423320 423320"
 xmlns:xlink="http://www.w3.org/1999/xlink">
 <defs>
  <style type="text/css">
   <![CDATA[
    .fil0 {fill:none}
    .fil1 {fill:#6E6C6B}
   ]]>
  </style>
 </defs>
 <g id="Layer_x0020_1">
  <metadata id="CorelCorpID_0Corel-Layer"/>
  <rect class="fil0" width="423320" height="423320"/>
  <path class="fil1" d="M255710 228390c-4280,0 -7770,-3480 -7770,-7760 0,-4280 3490,-7760 7770,-7760 4270,0 7760,3480 7760,7760 0,4280 -3490,7760 -7760,7760zm-27170 26960c-4280,0 -7750,-3480 -7750,-7760 0,-4280 3470,-7760 7750,-7760 4280,0 7760,3480 7760,7760 0,4280 -3480,7760 -7760,7760zm0 -16910c-1890,0 -3650,580 -5110,1560l11010 -11000c-940,1430 -1490,3150 -1490,4980 0,5050 4100,9150 9140,9150 5050,0 9150,-4100 9150,-9150 0,-5040 -4100,-9140 -9150,-9140 -1840,0 -3550,550 -4980,1490l11880 -11890c-1500,1630 -2430,3800 -2430,6190 0,5040 4100,9150 9150,9150 3170,0 5970,-1630 7610,-4090l61840 0c7450,0 13500,-6060 13500,-13510 0,-7450 -6050,-13510 -13500,-13510l-62770 0c-1000,-3980 -4580,-6940 -8870,-6940 -1930,0 -3730,610 -5210,1640 1060,-1490 1680,-3300 1680,-5270 0,-5040 -4090,-9140 -9140,-9140 -5040,0 -9140,4100 -9140,9140 0,5050 4100,9140 9140,9140 1940,0 3740,-600 5210,-1630 -1050,1480 -1680,3310 -1680,5270 0,5040 4100,9140 9140,9140 4560,0 8340,-3350 9020,-7700l62620 0c5440,0 9870,4420 9870,9860 0,5440 -4430,9870 -9870,9870l-60430 0c70,-470 120,-940 120,-1420 0,-5040 -4100,-9150 -9140,-9150 -2390,0 -4570,940 -6200,2440l1740 -1740 -29240 -29250c1330,750 2850,1180 4470,1180 5040,0 9140,-4100 9140,-9150 0,-5030 -4100,-9140 -9140,-9140 -5040,0 -9140,4110 -9140,9140 0,1630 420,3150 1170,4480l-6740 -6740c4730,-350 8490,-4290 8490,-9110 0,-5050 -4110,-9150 -9150,-9150 -5040,0 -9140,4100 -9140,9150 0,4820 3750,8760 8480,9110l-5570 5560c170,-680 270,-1380 270,-2110 0,-5040 -4110,-9150 -9150,-9150 -5040,0 -9150,4110 -9150,9150 0,5040 4110,9140 9150,9140 720,0 1430,-90 2110,-250l-8410 8410c590,-1210 940,-2570 940,-4000 0,-5050 -4110,-9150 -9150,-9150 -5040,0 -9150,4100 -9150,9150 0,5040 4110,9140 9150,9140 1430,0 2790,-340 4010,-930l-9970 9960c810,-1370 1280,-2950 1280,-4650 0,-5040 -4100,-9140 -9140,-9140 -3490,0 -6520,1960 -8070,4840l-61430 0c-7440,0 -13510,6060 -13510,13510 0,7450 6070,13510 13510,13510l61410 0c1360,3360 4650,5740 8480,5740 5050,0 9150,-4100 9150,-9140 0,-5050 -4100,-9140 -9150,-9140 -4950,0 -8990,3960 -9130,8880l-60760 20c-5440,0 -9870,-4430 -9870,-9870 0,-5440 4430,-9860 9870,-9860l60380 0c-10,210 -30,430 -30,650 10,5050 4110,9150 9150,9150 1690,0 3280,-480 4650,-1280l-1350 1340 16150 16150c-1480,-1020 -3270,-1630 -5200,-1630 -5030,0 -9140,4110 -9140,9150 0,5040 4110,9140 9140,9140 5050,0 9150,-4100 9150,-9140 0,-1930 -600,-3720 -1620,-5200l11280 11290c-1440,-950 -3170,-1520 -5040,-1520 -5040,0 -9140,4110 -9140,9150 0,5040 4100,9140 9140,9140 5050,0 9140,-4100 9140,-9140 0,-1870 -550,-3600 -1510,-5040l6370 6370c-3910,1040 -6790,4600 -6790,8820 0,5050 4100,9160 9150,9160 5030,0 9140,-4110 9140,-9160 0,-4770 -3700,-8700 -8380,-9100l8170 -8170c-990,1470 -1580,3240 -1580,5140 0,5040 4100,9140 9140,9140 5050,0 9150,-4100 9150,-9140 0,-5040 -4100,-9150 -9150,-9150zm730 -26260c0,10020 -8140,18160 -18160,18160 -10010,0 -18160,-8140 -18160,-18160 0,-10020 8150,-18160 18160,-18160 10020,0 18160,8140 18160,18160zm-39960 0c0,12020 9770,21800 21800,21800 12030,0 21810,-9780 21810,-21800 0,-12020 -9780,-21800 -21810,-21800 -12030,0 -21800,9780 -21800,21800zm21800 34990l-35000 -34990 35000 -34990 35000 34990 -35000 34990zm940 4800c4270,0 7750,3480 7750,7750 0,4290 -3480,7760 -7750,7760 -4280,0 -7770,-3470 -7770,-7760 0,-3870 2860,-7080 6570,-7650l300 -30 280 -40c200,-20 410,-30 620,-30zm-8690 -88380c0,-4280 3470,-7760 7750,-7760 4290,0 7760,3480 7760,7760 0,4270 -3470,7750 -7760,7750 -4270,0 -7750,-3480 -7750,-7750zm46490 70390c0,4290 -3480,7760 -7760,7760 -4280,0 -7750,-3470 -7750,-7760 0,-4270 3470,-7750 7750,-7750 4280,0 7760,3480 7760,7750zm-54160 23340c-4270,0 -7760,-3470 -7760,-7750 0,-4280 3490,-7760 7760,-7760 4280,0 7760,3480 7760,7760 0,4280 -3480,7750 -7760,7750zm-13770 -13710c-4270,0 -7750,-3480 -7750,-7760 0,-4280 3480,-7760 7750,-7760 4290,0 7760,3480 7760,7760 0,4280 -3470,7760 -7760,7760zm-22010 -40640c0,-4270 3480,-7760 7760,-7760 4270,0 7760,3490 7760,7760 0,4280 -3490,7760 -7760,7760 -4280,0 -7760,-3480 -7760,-7760zm8150 11560c4280,0 7760,3480 7760,7760 0,4270 -3480,7760 -7760,7760 -4280,0 -7750,-3490 -7750,-7760 0,-4280 3470,-7760 7750,-7760zm5670 -25080c0,-4290 3480,-7760 7760,-7760 4280,0 7760,3480 7760,7760 0,4280 -3480,7750 -7760,7750 -4280,0 -7760,-3470 -7760,-7750zm14520 -13300c0,-4280 3470,-7760 7750,-7760 4280,0 7760,3480 7760,7760 0,4280 -3480,7750 -7760,7750 -4280,0 -7760,-3470 -7750,-7750zm38230 -8940c4280,0 7750,3480 7750,7750 0,4280 -3470,7760 -7750,7760 -4280,0 -7760,-3480 -7760,-7760 0,-4270 3480,-7750 7760,-7750zm27040 41430c-4270,0 -7760,-3490 -7760,-7760 0,-4280 3490,-7770 7760,-7770 4280,0 7760,3490 7760,7770 0,4270 -3480,7760 -7760,7760zm-20430 -20540c0,-4280 3480,-7760 7760,-7760 4270,0 7760,3480 7760,7760 0,4280 -3490,7760 -7760,7760 -4280,0 -7760,-3480 -7760,-7760z"/>
 </g>
</svg>
