<?xml version="1.0" encoding="UTF-8"?>
<!DOCTYPE svg PUBLIC "-//W3C//DTD SVG 1.1//EN" "http://www.w3.org/Graphics/SVG/1.1/DTD/svg11.dtd">
<!-- Creator: CorelDRAW X7 -->
<svg xmlns="http://www.w3.org/2000/svg" xml:space="preserve" width="4.2332mm" height="4.2332mm" version="1.1" style="shape-rendering:geometricPrecision; text-rendering:geometricPrecision; image-rendering:optimizeQuality; fill-rule:evenodd; clip-rule:evenodd"
viewBox="0 0 423320 423320"
 xmlns:xlink="http://www.w3.org/1999/xlink">
 <defs>
  <style type="text/css">
   <![CDATA[
    .fil0 {fill:none}
    .fil1 {fill:#6E6C6B}
   ]]>
  </style>
 </defs>
 <g id="Layer_x0020_1">
  <metadata id="CorelCorpID_0Corel-Layer"/>
  <rect class="fil0" width="423320" height="423320"/>
  <g id="_2142989393728">
   <path class="fil1" d="M211810 191500c-11120,0 -20160,9040 -20160,20160 0,11120 9040,20160 20160,20160 11110,0 20150,-9040 20150,-20160 10,-11120 -9040,-20160 -20150,-20160zm0 44360c-13350,0 -24210,-10860 -24210,-24200 0,-13350 10860,-24200 24210,-24200 13340,0 24200,10850 24200,24200 0,13340 -10860,24200 -24200,24200z"/>
   <path class="fil1" d="M333710 229100c-690,880 -1680,1440 -2760,1570l-6000 600 0 10c-1380,140 -2730,290 -4060,440 -14590,1640 -25440,2860 -40140,-11540 470,-500 920,-1000 1360,-1530 1220,-1460 2380,-2780 3500,-4000 8300,8030 14770,10140 21650,10140 3360,0 6830,-500 10650,-1050 370,-50 750,-100 1120,-160l10900 -1290c1100,-140 2200,180 3080,880 880,690 1450,1690 1580,2840 130,1110 -180,2200 -880,3090zm-55800 -11850c-910,990 -1860,1940 -2890,2810 -10650,9100 -26740,12460 -33700,12620l-5980 0 8720 -8720c4650,-300 14860,-1900 25210,-9640 1060,-790 2120,-1650 3170,-2580 1560,-1370 3120,-2880 4640,-4570 280,-310 560,-600 830,-900 970,-1040 1910,-2010 2840,-2930 14700,-14390 25550,-13180 40140,-11530 1330,140 2680,290 4060,440l0 0 5970 600c1110,130 2100,690 2790,1580 700,880 1010,1980 870,3130 -120,1110 -690,2100 -1570,2800 -880,690 -1980,1010 -3080,870l-10920 -1290c-360,-50 -730,-110 -1100,-160 -11660,-1680 -19950,-2860 -32300,9090 -920,890 -1860,1850 -2820,2890 -1220,1310 -2480,2730 -3780,4300 -350,420 -730,800 -1100,1190zm-66100 33250l-38850 -38840 38850 -38840 38840 38840 -38840 38840zm-29760 -17920c-7000,-160 -23090,-3520 -33740,-12620 -1030,-880 -1990,-1820 -2890,-2810 -370,-390 -750,-770 -1100,-1190 -1310,-1570 -2560,-2990 -3780,-4300 -960,-1040 -1900,-2000 -2820,-2890 -12350,-11950 -20640,-10770 -32300,-9090 -360,50 -740,100 -1100,160l-10920 1290c-1110,130 -2200,-180 -3080,-870 -890,-700 -1450,-1690 -1580,-2850 -140,-1100 180,-2200 870,-3080 700,-890 1690,-1450 2760,-1570l6010 -610 0 0c1380,-150 2730,-300 4060,-450 14590,-1640 25440,-2850 40140,11540 930,910 1870,1890 2840,2930 270,300 550,590 830,900 1520,1690 3080,3200 4640,4570 1050,920 2110,1790 3170,2580 10500,7850 20850,9380 25400,9650l8710 8710 -6120 0zm-79610 -1160c-1320,-150 -2680,-300 -4060,-440l0 -10 -5970 -600c-1110,-130 -2100,-690 -2800,-1570 -690,-890 -1010,-1980 -870,-3140 130,-1100 690,-2100 1580,-2790 880,-700 1970,-1010 3080,-880l10910 1300c370,50 740,100 1110,150 3820,550 7280,1050 10650,1050 6850,0 13300,-2090 21550,-10050 40,40 70,70 100,110 1120,1210 2280,2540 3500,4000 400,490 830,960 1260,1420 -14650,14300 -25490,13090 -40040,11450zm72520 -27470l-7710 7710 7540 7540c-4590,-900 -10900,-2950 -17380,-7560 6770,-4960 13090,-6940 17550,-7690zm7040 -13110l6070 0 -8850 8860 -10 -220c-4390,100 -14390,1350 -25120,9590 -20,-10 -50,-30 -70,-50 -1600,-1370 -3200,-2920 -4770,-4650 -290,-330 -590,-640 -880,-960 10650,-9060 26690,-12410 33630,-12570zm83990 20860c-6400,4560 -12640,6630 -17230,7550l7600 -7590 -7640 -7650c4440,800 10650,2810 17270,7690zm-24710 -20860c7000,160 23080,3520 33730,12620 -310,330 -620,660 -930,1010 -1570,1740 -3170,3280 -4780,4650 -10700,-8250 -20690,-9530 -25120,-9640l-8630 -8640 5730 0zm94230 29150c-1730,-1360 -3880,-1970 -6060,-1710l-2280 270 0 -10c-3170,270 -6050,660 -8650,1030l-750 90 10 20c-150,20 -300,40 -440,60 -11150,1610 -18060,2600 -28930,-7980 10880,-10580 17780,-9590 28930,-7980 140,20 290,40 430,60l0 20 740 90c2610,370 5490,760 8660,1030l0 0 2280 270c330,40 660,50 980,50 1840,0 3610,-610 5080,-1770 1740,-1360 2830,-3310 3100,-5540 260,-2180 -350,-4330 -1720,-6060 -1370,-1740 -3310,-2830 -5530,-3090l-2410 -250 0 -20c-2640,-220 -5160,-500 -7600,-780 -15180,-1710 -27410,-3080 -43510,12750 -12300,-10690 -30430,-13600 -36520,-13740l-9820 0 -19690 -19700 -19930 19930 0 -230 -9920 0c-6030,140 -24120,3040 -36420,13690 -10,-10 -30,-30 -50,-50 -16100,-15830 -28330,-14460 -43510,-12750 -2440,270 -4960,560 -7600,780l0 20 -2450 250c-2180,260 -4130,1350 -5490,3090 -1360,1730 -1980,3880 -1710,6110 260,2170 1350,4130 3080,5490 1480,1160 3250,1770 5090,1770 330,0 650,-20 980,-50l2270 -280 0 10c3180,-270 6060,-660 8670,-1030l740 -90 0 -20c140,-20 290,-40 430,-60 11110,-1600 18010,-2590 28830,7880 -10820,10470 -17710,9490 -28830,7880 -140,-20 -290,-40 -440,-60l10 -20 -740 -80c-2610,-380 -5490,-770 -8670,-1040l0 10 -2270 -270c-2180,-260 -4330,350 -6070,1710 -1730,1370 -2820,3320 -3090,5550 -250,2180 350,4330 1720,6060 1360,1730 3310,2830 5530,3090l2410 240 0 20c2640,230 5160,510 7600,790 4550,510 8830,990 13020,990 9790,0 19150,-2660 30380,-13650 30,30 70,60 100,100 12300,10690 30440,13610 36520,13740l10210 0 19600 19590 19490 -19490 10070 0c6050,-130 24180,-3040 36470,-13740 11280,11080 20660,13750 30490,13750 4190,0 8470,-480 13020,-1000 2440,-270 4960,-550 7600,-780l0 -20 2450 -250c2180,-260 4120,-1350 5490,-3080 1370,-1730 1980,-3890 1710,-6120 -260,-2170 -1350,-4120 -3090,-5490z"/>
  </g>
 </g>
</svg>
