<?xml version="1.0" encoding="UTF-8"?>
<!DOCTYPE svg PUBLIC "-//W3C//DTD SVG 1.1//EN" "http://www.w3.org/Graphics/SVG/1.1/DTD/svg11.dtd">
<!-- Creator: CorelDRAW X7 -->
<svg xmlns="http://www.w3.org/2000/svg" xml:space="preserve" width="4.2332mm" height="4.2332mm" version="1.1" style="shape-rendering:geometricPrecision; text-rendering:geometricPrecision; image-rendering:optimizeQuality; fill-rule:evenodd; clip-rule:evenodd"
viewBox="0 0 423320 423320"
 xmlns:xlink="http://www.w3.org/1999/xlink">
 <defs>
  <style type="text/css">
   <![CDATA[
    .fil0 {fill:none}
    .fil1 {fill:#6E6C6B}
   ]]>
  </style>
 </defs>
 <g id="Layer_x0020_1">
  <metadata id="CorelCorpID_0Corel-Layer"/>
  <rect class="fil0" width="423320" height="423320"/>
  <g id="_2142987894832">
   <path class="fil1" d="M324340 253010l-104640 0 12860 -12850 3640 -3640 3860 -3860 75550 0c2250,0 4410,-360 6450,-1010l2280 0c5880,0 10670,4790 10670,10680 0,5890 -4790,10680 -10670,10680zm-109790 0l-2910 2910 -2910 -2910 -12850 -12850 -3650 -3640 -24840 -24850 24840 -24850 3650 -3640 15760 -15760 15760 15760 3650 3640 24840 24850 -24840 24850 -3650 3640 -12850 12850zm-115560 0c-5890,0 -10680,-4790 -10680,-10680 0,-5890 4790,-10680 10680,-10680l1110 0c2040,650 4200,1010 6450,1010l76670 0 3860 3860 3640 3640 12860 12850 -104590 0zm-10050 -41610c0,-9710 7900,-17600 17610,-17600l73560 0 -17880 17870 17350 17340 -73030 0c-9710,0 -17610,-7900 -17610,-17610zm226670 -17600c9710,0 17610,7890 17610,17600 0,9710 -7900,17610 -17610,17610l-71910 0 17350 -17340 -17880 -17870 72440 0zm12540 34750c5280,-3880 8710,-10120 8710,-17150 0,-11720 -9530,-21250 -21250,-21250l-76080 0 -3330 -3330 -3640 -3640 -20920 -20920 -20920 20920 -3640 3640 -3330 3330 -77200 0c-11720,0 -21250,9530 -21250,21250 0,7190 3580,13550 9060,17400 -5630,1920 -9690,7260 -9690,13530 0,7900 6420,14330 14320,14330l108230 0 4420 4410 4420 -4410 108280 0c7890,0 14320,-6430 14320,-14330 0,-6580 -4460,-12110 -10510,-13780z"/>
   <path class="fil1" d="M211640 234760c-12730,0 -23090,-10360 -23090,-23090 0,-12730 10360,-23090 23090,-23090 12730,0 23090,10360 23090,23090 0,12730 -10360,23090 -23090,23090zm26730 -23090c0,-14740 -11990,-26730 -26730,-26730 -14740,0 -26730,11990 -26730,26730 0,14740 11990,26730 26730,26730 14740,0 26730,-11990 26730,-26730z"/>
  </g>
 </g>
</svg>
