<?xml version="1.0" encoding="UTF-8" standalone="no"?>
<svg width="100px" height="100px" viewBox="0 0 100 100" version="1.1" xmlns="http://www.w3.org/2000/svg" xmlns:xlink="http://www.w3.org/1999/xlink">
    <!-- Generator: Sketch 39.1 (31720) - http://www.bohemiancoding.com/sketch -->
    <title>cel-rings-love</title>
    <desc>Created with Sketch.</desc>
    <defs></defs>
    <g id="Page-1" stroke="none" stroke-width="1" fill="none" fill-rule="evenodd">
        <g id="cel-rings-love" stroke-linecap="round" stroke="#000000" stroke-linejoin="round">
            <g id="Group-8" transform="translate(50.000000, 31.000000) rotate(-360.000000) translate(-50.000000, -31.000000) translate(31.000000, 12.000000)">
                <path d="M25.0620076,6.65152936 C26.5751705,5.15455966 26.5751705,2.72738163 25.0620076,1.23041193 C23.5488447,-0.266557765 21.094678,-0.266557765 19.5815152,1.23041193 L19.0003598,1.75039299 L18.4183049,1.23041193 C16.905142,-0.266557765 14.4509754,-0.266557765 12.9378125,1.23041193 C11.4246496,2.72738163 11.4246496,5.15455966 12.9378125,6.65152936 L19.0003598,12.7023816 L25.0620076,6.65152936 L25.0620076,6.65152936 Z" id="Stroke-451"></path>
                <path d="M21.429517,19.7412879 C22.6494034,21.5909091 23.3601042,23.8102746 23.3601042,26.1969697 C23.3601042,32.65625 18.1548958,37.8920455 11.7342992,37.8920455 C5.31280303,37.8920455 0.107594697,32.65625 0.107594697,26.1969697 C0.107594697,19.7376894 5.31280303,14.5018939 11.7342992,14.5018939 C13.1260133,14.5018939 14.4610511,14.7483902 15.6980303,15.1991004" id="Stroke-452"></path>
                <path d="M16.570483,32.6526515 C15.3505966,30.8030303 14.6398958,28.5836648 14.6398958,26.1969697 C14.6398958,19.7376894 19.8451042,14.5018939 26.2657008,14.5018939 C32.687197,14.5018939 37.8924053,19.7376894 37.8924053,26.1969697 C37.8924053,32.65625 32.687197,37.8920455 26.2657008,37.8920455 C24.8739867,37.8920455 23.5389489,37.6455492 22.3010701,37.1939394" id="Stroke-453"></path>
            </g>
        </g>
        <text id="Image-Not" font-family="Sansation-Light, Sansation Light" font-size="10" font-weight="normal" letter-spacing="-0.0909090936" fill="#000000">
            <tspan x="26" y="73">Image Not </tspan>
        </text>
        <text id="Available" font-family="Sansation-Light, Sansation Light" font-size="14" font-weight="normal" letter-spacing="-0.127272725" fill="#000000">
            <tspan x="20" y="87">Available</tspan>
        </text>
    </g>
</svg>