<?xml version="1.0" encoding="UTF-8"?>
<!DOCTYPE svg PUBLIC "-//W3C//DTD SVG 1.0//EN" "http://www.w3.org/TR/2001/REC-SVG-20010904/DTD/svg10.dtd">
<!-- Creator: CorelDRAW X7 -->
<svg xmlns="http://www.w3.org/2000/svg" xml:space="preserve" width="20px" height="20px" version="1.0" shape-rendering="geometricPrecision" text-rendering="geometricPrecision" image-rendering="optimizeQuality" fill-rule="evenodd" clip-rule="evenodd"
viewBox="0 0 199988 201956"
 xmlns:xlink="http://www.w3.org/1999/xlink"
 enable-background="new 0 0 100 100">
 <g id="Layer_x0020_1">
  <metadata id="CorelCorpID_0Corel-Layer"/>
  <rect fill="none" width="199988" height="201956"/>
  <g id="_822484608">
   <g>
    <g>
     <path fill="#FEFEFE" d="M2632 109438c-35,-47 -71,-107 -107,-166 -509,-783 -936,-1613 -1304,-2478 -12,-59 -35,-130 -71,-202 -344,-853 -616,-1731 -782,-2656 -12,-59 -12,-106 -24,-154 -166,-913 -273,-1849 -285,-2810 0,0 0,-12 0,-23 0,-949 107,-1898 285,-2787 12,-59 12,-107 24,-166 166,-925 438,-1790 782,-2644 24,-83 48,-142 71,-201 368,-878 795,-1708 1304,-2478 48,-72 72,-119 107,-166 569,-854 1210,-1649 1921,-2360 0,0 0,0 0,0l76595 -76429c5987,-5976 15698,-5976 21686,0 5999,5976 5999,15663 0,21639l-50415 50296 132179 12c8478,0 15343,6865 15343,15307 0,8454 -6865,15307 -15343,15307l-132167 -12 50415 50309c5999,5976 5999,15674 0,21638 -2988,2988 -6913,4482 -10837,4482 -3925,0 -7850,-1494 -10849,-4482l-76595 -76428c0,0 0,0 0,0 -723,-712 -1364,-1506 -1933,-2348z"/>
    </g>
   </g>
  </g>
 </g>
</svg>
