<?xml version="1.0" encoding="utf-8"?>
<!-- Generator: Adobe Illustrator 18.0.0, SVG Export Plug-In . SVG Version: 6.00 Build 0)  -->
<!DOCTYPE svg PUBLIC "-//W3C//DTD SVG 1.1//EN" "http://www.w3.org/Graphics/SVG/1.1/DTD/svg11.dtd">
<svg version="1.1" id="Layer_1" xmlns="http://www.w3.org/2000/svg" xmlns:xlink="http://www.w3.org/1999/xlink" x="0px" y="0px"
	 viewBox="0 0 300 300" enable-background="new 0 0 300 300" xml:space="preserve">
<path fill="#FFFFFF" d="M181.9,50.2c-43.8-14.4-91.8,3-118.2,39.6c-26.4,37.2-24.6,89.4,3.6,124.8c28.2,36,77.4,49.8,120,33.6
	c40.8-15.6,67.8-55.2,67.8-98.4C254.5,104.8,225.1,64.6,181.9,50.2z M165.1,239.2c-42.6,7.8-85.8-18-100.8-58.2
	c-15-41.4,3-87.6,40.8-109.8c38.4-22.2,87-10.8,115.2,22.8c13.2,15.6,19.8,36,19.8,56.4C240.1,194.2,208.3,231.4,165.1,239.2z
	 M202.9,125.2c-3,3-6.6,6.6-9.6,9.6c-14.4,14.4-29.4,29.4-43.8,43.8c-3.6,3.6-7.2,7.2-10.8,10.8c-0.6,0.6-1.8,1.2-3,1.8
	c-6.6,3-12.6-4.8-16.8-9c-7.2-7.2-14.4-14.4-21-21c-3-3-6.6-6.6-4.8-10.8c2.4-6.6,9.6-7.8,15-3c6.6,6.6,13.2,13.2,19.8,19.8
	c1.8,1.8,3,3,4.8,4.8c12-12,23.4-23.4,35.4-35.4c6.6-6.6,13.2-13.2,19.8-19.8c4.2-4.2,10.2-12,16.8-6.6c0.6,0,0.6,0.6,1.2,0.6
	c0.6,0,0.6,0.6,0.6,1.2C209.5,117.4,206.5,121.6,202.9,125.2z"/>
</svg>
