<?xml version="1.0" encoding="UTF-8" standalone="no"?>
<svg width="50px" height="50px" viewBox="0 0 50 50" version="1.1" xmlns="http://www.w3.org/2000/svg" xmlns:xlink="http://www.w3.org/1999/xlink">
    <!-- Generator: Sketch 3.7.1 (28215) - http://www.bohemiancoding.com/sketch -->
    <title>Group 2</title>
    <desc>Created with Sketch.</desc>
    <defs></defs>
    <g id="Page-1" stroke="none" stroke-width="1" fill="none" fill-rule="evenodd">
        <g id="Artboard-4" transform="translate(-125.000000, -25.000000)">
            <g id="Group-7" transform="translate(125.000000, 25.000000)">
                <rect id="Rectangle-6" x="0" y="0" width="50" height="50"></rect>
                <path d="M28.3184051,13.6015659 C23.0984239,11.8854077 17.3778953,13.9590989 14.2316065,18.321001 C11.0853165,22.7544097 11.2998362,28.9754831 14.660646,33.1943732 C18.0214559,37.4847687 23.8849964,39.129418 28.9619644,37.1987424 C33.8244126,35.339571 37.0422092,30.6201347 37.0422092,25.4716601 C36.9707026,20.1086658 33.4668797,15.3177241 28.3184051,13.6015659 L28.3184051,13.6015659 Z M26.3162205,36.1261423 C21.2392525,37.055728 16.0907779,33.9809445 14.3031131,29.1900029 C12.5154483,24.2560481 14.660646,18.7500405 19.1655613,16.1042966 C23.7419832,13.4585527 29.5340171,14.817178 32.8948269,18.8215471 C34.4679719,20.6807185 35.2545444,23.1119426 35.2545444,25.5431667 C35.2545444,30.7631479 31.4646951,35.1965554 26.3162205,36.1261423 L26.3162205,36.1261423 Z M30.8211358,22.5398899 C30.4636028,22.8974228 30.0345633,23.3264624 29.6770303,23.6839953 C27.9608721,25.4001535 26.1732073,27.1878183 24.4570491,28.9039765 C24.0280096,29.3330161 23.59897,29.7620556 23.1699305,30.1910952 C23.0984239,30.2626018 22.9554107,30.3341084 22.8123975,30.405615 C22.025825,30.7631479 21.3107591,29.8335622 20.8102129,29.3330161 C19.9521338,28.474937 19.0940547,27.6168579 18.3074798,26.8302854 C17.9499469,26.4727524 17.5209073,26.0437129 17.7354271,25.5431667 C18.0214535,24.7565942 18.879535,24.613581 19.5230943,25.1856338 C20.3096668,25.9722063 21.0962393,26.7587788 21.8828118,27.5453513 C22.0973316,27.7598711 22.2403448,27.9028843 22.4548645,28.117404 C23.8849964,26.6872722 25.2436216,25.328647 26.6737534,23.8985151 C27.460326,23.1119426 28.2468985,22.3253701 29.033471,21.5387976 C29.5340171,21.0382515 30.249083,20.1086658 31.0356555,20.7522251 C31.1071621,20.7522251 31.1071621,20.8237317 31.1786687,20.8237317 C31.2501753,20.8237317 31.2501753,20.8952383 31.2501753,20.9667449 C31.6077083,21.6103042 31.2501753,22.1108503 30.8211358,22.5398899 L30.8211358,22.5398899 Z" id="Page-1" fill="#5CAD00"></path>
            </g>
        </g>
    </g>
</svg>