<svg xmlns="http://www.w3.org/2000/svg" xmlns:xlink="http://www.w3.org/1999/xlink" version="1.1" x="0px" y="0px" viewBox="0 0 100 125"><path d="M215,625 c99,-108,235,-172,385,-172 c151,0,284,63,385,172 c-69,42,-85,113,-85,181 c0,53,0,88,0,127 c0,138,-125,267,-300,267 c-175,0,-300,-129,-300,-267 c0,-39,0,-74,0,-127 c0,-68,-16,-139,-85,-181 Z M596,550 c-116,0,-196,140,-196,285 c0,232,207,41,300,220 c26,-90,100,-85,100,-207 c0,-123,-74,-298,-204,-298 Z M100,0 l100,0 c0,177,1,194,77,233 l129,66 c68,35,144,71,144,161 l0,80 l-100,0 c0,-60,9,-113,-70,-150 l-133,-62 c-135,-63,-147,-110,-147,-328 Z M1030,220 l-220,140 c-116,-120,-298,-120,-420,0 l-190,-115 l-61,-245 l188,0 l725,0 Z M1100,0 c0,218,-12,265,-147,328 l-133,62 c-79,37,-70,90,-70,150 l-100,0 l0,-80 c0,-90,76,-126,144,-161 l129,-66 c76,-39,77,-57,77,-233 Z M601,691 c36,0,65,0,65,0 c0,0,-29,0,-65,0 c-36,0,-65,0,-65,0 c0,0,29,0,65,0 Z M601,691 " fill="#000000" stroke="none" stroke-dasharray="none" stroke-linecap="inherit" stroke-linejoin="inherit" stroke-width="1" transform="matrix(0.0416666666667,0.0,0.0,-0.0416666666667,25.0,75.0)"/></svg>