<?xml version="1.0" encoding="UTF-8"?>
<!DOCTYPE svg PUBLIC "-//W3C//DTD SVG 1.1//EN" "http://www.w3.org/Graphics/SVG/1.1/DTD/svg11.dtd">
<!-- Creator: CorelDRAW X7 -->
<svg xmlns="http://www.w3.org/2000/svg" xml:space="preserve" width="40px" height="40px" version="1.1" style="shape-rendering:geometricPrecision; text-rendering:geometricPrecision; image-rendering:optimizeQuality; fill-rule:evenodd; clip-rule:evenodd"
viewBox="0 0 771 771"
 xmlns:xlink="http://www.w3.org/1999/xlink">
 <defs>
  <style type="text/css">
   <![CDATA[
    .fil0 {fill:none}
    .fil1 {fill:#4D4D4D}
   ]]>
  </style>
 </defs>
 <g id="Layer_x0020_1">
  <metadata id="CorelCorpID_0Corel-Layer"/>
  <rect class="fil0" width="771" height="771"/>
  <path class="fil1" d="M386 770c212,0 384,-172 384,-384 0,-212 -172,-385 -384,-385 -16,0 -29,13 -29,29 0,16 13,28 29,28 180,0 327,147 327,328 0,180 -147,327 -327,327 -181,0 -328,-147 -328,-327 0,-83 30,-161 86,-221l0 78c0,16 13,29 28,29 16,0 29,-13 29,-29l0 -142c0,0 0,0 0,-1 0,0 0,-2 0,-2 0,-1 0,-3 0,-4 0,0 0,-2 0,-2 0,-1 -2,-2 -2,-4 0,0 0,-1 0,-1 0,-2 -1,-3 -3,-4 0,0 0,0 0,0 0,0 0,0 -1,-2 -1,-1 -1,-1 -3,-3 0,0 -1,-1 -1,-1 -2,0 -2,-2 -3,-2 0,0 -2,-1 -2,-1 -1,0 -1,-1 -2,-1 -2,0 -2,0 -3,0 -2,0 -2,0 -3,-2 -2,0 -2,0 -3,0 0,0 -1,0 -1,0l-144 0c-16,0 -29,13 -29,29 0,15 13,28 29,28l70 0c-63,71 -99,161 -99,258 0,212 173,384 385,384zm224 -483c13,0 23,12 23,26 0,15 -10,26 -23,26 -13,0 -23,-11 -23,-26 0,-14 10,-26 23,-26zm0 14c6,0 11,6 11,12 0,7 -5,12 -11,12 -6,0 -10,-5 -10,-12 0,-6 4,-12 10,-12zm-12 113c0,32 -6,56 -16,71 -11,16 -27,24 -49,24 -21,0 -37,-8 -48,-24 -11,-16 -17,-40 -17,-71 0,-33 6,-57 16,-72 11,-16 27,-23 49,-23 21,0 37,8 48,24 11,16 17,40 17,71zm-91 0c0,22 2,39 6,48 4,10 11,15 20,15 9,0 16,-5 20,-15 4,-10 6,-26 6,-48 0,-23 -2,-39 -6,-49 -5,-10 -11,-15 -20,-15 -9,0 -16,5 -20,15 -4,10 -6,26 -6,49zm-186 14c0,-37 7,-64 23,-82 15,-18 38,-27 69,-27 11,0 19,1 25,2l0 31c-8,-1 -15,-2 -22,-2 -14,0 -25,2 -33,6 -9,4 -15,10 -19,18 -4,8 -7,19 -8,33l2 0c8,-14 22,-21 40,-21 17,0 30,5 39,16 9,10 14,24 14,43 0,19 -6,35 -17,46 -11,12 -26,18 -46,18 -14,0 -25,-4 -36,-10 -10,-6 -18,-15 -23,-28 -6,-12 -8,-26 -8,-43zm66 49c9,0 15,-2 19,-8 5,-6 7,-14 7,-24 0,-9 -2,-16 -6,-21 -4,-5 -11,-8 -19,-8 -8,0 -15,3 -20,8 -6,5 -9,11 -9,18 0,10 3,18 8,25 6,7 12,10 20,10zm-91 -114c0,11 -3,21 -10,29 -7,8 -17,14 -30,17l0 1c15,1 26,6 34,13 8,7 12,17 12,29 0,18 -7,32 -20,42 -13,10 -31,15 -55,15 -20,0 -38,-4 -53,-10l0 -34c7,4 15,7 23,9 9,2 17,4 26,4 13,0 22,-3 28,-7 7,-4 10,-11 10,-21 0,-9 -4,-15 -11,-18 -7,-4 -18,-6 -34,-6l-14 0 0 -30 14 0c15,0 25,-2 32,-5 6,-4 10,-11 10,-20 0,-14 -9,-21 -27,-21 -6,0 -12,1 -18,3 -6,2 -13,6 -21,11l-18 -27c17,-12 37,-18 60,-18 19,0 34,4 46,11 11,8 16,19 16,33z"/>
 </g>
</svg>
