<?xml version="1.0" encoding="UTF-8"?>
<!DOCTYPE svg PUBLIC "-//W3C//DTD SVG 1.0//EN" "http://www.w3.org/TR/2001/REC-SVG-20010904/DTD/svg10.dtd">
<!-- Creator: CorelDRAW X7 -->
<svg xmlns="http://www.w3.org/2000/svg" xml:space="preserve" width="184px" height="40px" version="1.0" shape-rendering="geometricPrecision" text-rendering="geometricPrecision" image-rendering="optimizeQuality" fill-rule="evenodd" clip-rule="evenodd"
viewBox="0 0 299292 65739"
 xmlns:xlink="http://www.w3.org/1999/xlink">
 <g id="Layer_x0020_1">
  <metadata id="CorelCorpID_0Corel-Layer"/>
  <g id="_1321920016">
   <polygon fill="none" stroke="#673B6D" stroke-width="1629.61" points="63998,815 268480,815 298183,33055 268480,64925 63998,64925 "/>
   <path fill="#673B6D" fill-rule="nonzero" d="M100096 42276l-1142 -3747 -5737 0 -1138 3747 -3594 0 5553 -15800 4076 0 5575 15800 -3593 0zm-1938 -6544c-1053,-3394 -1649,-5314 -1782,-5759 -132,-443 -227,-796 -283,-1054 -239,919 -917,3188 -2034,6813l4099 0z"/>
   <path id="1" fill="#673B6D" fill-rule="nonzero" d="M118711 34258c0,2589 -733,4573 -2205,5951 -1478,1377 -3604,2067 -6388,2067l-4449 0 0 -15732 4935 0c2567,0 4561,678 5983,2034 1417,1354 2124,3250 2124,5680zm-3461 85c0,-3378 -1491,-5068 -4473,-5068l-1774 0 0 10246 1431 0c3211,0 4816,-1726 4816,-5178z"/>
   <path id="2" fill="#673B6D" fill-rule="nonzero" d="M135021 34258c0,2589 -734,4573 -2206,5951 -1477,1377 -3604,2067 -6387,2067l-4450 0 0 -15732 4935 0c2568,0 4562,678 5983,2034 1418,1354 2125,3250 2125,5680zm-3461 85c0,-3378 -1491,-5068 -4473,-5068l-1774 0 0 10246 1431 0c3211,0 4816,-1726 4816,-5178z"/>
   <polygon id="3" fill="#673B6D" fill-rule="nonzero" points="150079,42276 146744,42276 146744,29320 142474,29320 142474,26544 154349,26544 154349,29320 150079,29320 "/>
   <path id="4" fill="#673B6D" fill-rule="nonzero" d="M170611 34391c0,2607 -644,4608 -1936,6008 -1293,1399 -3144,2096 -5552,2096 -2410,0 -4261,-697 -5553,-2096 -1293,-1400 -1936,-3407 -1936,-6027 0,-2618 647,-4619 1944,-6000 1292,-1381 3151,-2071 5566,-2071 2418,0 4269,694 5546,2086 1281,1391 1921,3392 1921,6004zm-11481 0c0,1759 335,3080 1000,3974 668,888 1666,1333 2993,1333 2662,0 3991,-1770 3991,-5307 0,-3544 -1321,-5314 -3970,-5314 -1329,0 -2328,449 -3003,1341 -672,891 -1011,2217 -1011,3973z"/>
   <path id="5" fill="#673B6D" fill-rule="nonzero" d="M186275 29098c-1256,0 -2227,472 -2916,1414 -688,944 -1033,2259 -1033,3945 0,3508 1316,5262 3949,5262 1100,0 2440,-275 4008,-830l0 2799c-1288,539 -2731,807 -4322,807 -2287,0 -4036,-693 -5247,-2082 -1212,-1387 -1819,-3381 -1819,-5977 0,-1636 299,-3067 894,-4298 595,-1231 1451,-2175 2562,-2831 1117,-657 2425,-985 3924,-985 1527,0 3059,372 4600,1110l-1075 2710c-588,-279 -1179,-522 -1774,-730 -595,-210 -1179,-314 -1751,-314z"/>
   <path id="6" fill="#673B6D" fill-rule="nonzero" d="M203266 42276l-1142 -3747 -5736 0 -1139 3747 -3594 0 5553 -15800 4076 0 5575 15800 -3593 0zm-1937 -6544c-1054,-3394 -1649,-5314 -1782,-5759 -133,-443 -227,-796 -283,-1054 -239,919 -917,3188 -2034,6813l4099 0z"/>
   <path id="7" fill="#673B6D" fill-rule="nonzero" d="M212173 33528l1075 0c1054,0 1834,-177 2333,-529 503,-349 753,-904 753,-1657 0,-745 -258,-1277 -768,-1593 -515,-316 -1306,-474 -2383,-474l-1010 0 0 4253zm0 2711l0 6037 -3334 0 0 -15732 4583 0c2136,0 3715,389 4740,1167 1029,778 1539,1961 1539,3544 0,925 -254,1748 -764,2472 -507,718 -1226,1285 -2160,1693 2366,3537 3909,5823 4625,6856l-3702 0 -3752 -6037 -1775 0z"/>
   <polygon id="8" fill="#673B6D" fill-rule="nonzero" points="229452,42276 226118,42276 226118,29320 221847,29320 221847,26544 233722,26544 233722,29320 229452,29320 "/>
   <rect fill="#673B6D" stroke="#673B6D" stroke-width="1629.61" x="815" y="815" width="61823" height="64110"/>
   <g sketch:type="MSPage">
    <g sketch:type="MSArtboardGroup">
     <path fill="white" d="M39471 38866c584,0 1057,-474 1057,-1057 0,-584 -473,-1058 -1057,-1058l-14287 0 -5754 -13551c-227,-538 -847,-788 -1385,-559 -535,228 -788,848 -560,1383l5886 13869c89,206 233,370 409,482 188,295 518,491 893,491l14798 0zm-13212 1056c1021,0 1849,828 1849,1851 0,1021 -828,1849 -1849,1849 -1021,0 -1849,-828 -1849,-1849 0,-1023 828,-1851 1849,-1851zm11099 0c1021,0 1849,828 1849,1851 0,1021 -828,1849 -1849,1849 -1023,0 -1851,-828 -1851,-1849 0,-1023 828,-1851 1851,-1851zm6871 -14270l0 747 -746 1632 -20514 0 -490 -1133 -481 -1246 22231 0zm-1349 3700l-19339 0 1028 2379 17227 0 1084 -2379zm-1689 3699l-16049 0 1028 2379 13937 0 1084 -2379zm0 0z" sketch:type="MSShapeGroup"/>
    </g>
   </g>
  </g>
 </g>
</svg>
