<?xml version="1.0" encoding="UTF-8"?>
<!DOCTYPE svg PUBLIC "-//W3C//DTD SVG 1.0//EN" "http://www.w3.org/TR/2001/REC-SVG-20010904/DTD/svg10.dtd">
<!-- Creator: CorelDRAW X7 -->
<svg xmlns="http://www.w3.org/2000/svg" xml:space="preserve" width="50px" height="50px" version="1.0" shape-rendering="geometricPrecision" text-rendering="geometricPrecision" image-rendering="optimizeQuality" fill-rule="evenodd" clip-rule="evenodd"
viewBox="0 0 1966 1966"
 xmlns:xlink="http://www.w3.org/1999/xlink">
 <g id="Layer_x0020_1">
  <metadata id="CorelCorpID_0Corel-Layer"/>
  <rect fill="none" width="1966" height="1966"/>
  <g id="_1744993792">
   <path fill="#666666" d="M491 717l-147 -81 0 0 147 81 0 0 0 0zm5 -10l0 0 211 -211 -84 -149 -276 276 -5 -2 -5 0 -3 2 3 -2 284 -287 2 0 -2 3 0 5 86 154 -211 211 0 0 0 0zm51 -36l165 -167 -165 167z"/>
   <path fill="#666666" d="M1262 496l0 0 81 -149 0 0 -81 149 0 0zm-10 -5l-535 0 -86 -154 -5 -3 -3 0 3 0 714 0 3 0 -3 0 -5 3 -2 7 -697 0 81 147 535 0 0 0 0 0z"/>
   <polygon fill="#666666" points="707,496 621,342 621,337 623,334 626,334 631,337 717,491 712,491 712,491 709,491 "/>
   <path fill="#666666" d="M334 1343l0 -3 0 -714 0 -3 0 3 3 5 7 5 0 697 -7 2 -3 5 0 3 0 0 0 0zm13 0l0 0 149 -84 0 0 -149 84zm149 -636l-149 -84 0 0 149 84 0 0z"/>
   <polygon fill="#666666" points="491,717 491,717 491,717 344,636 344,636 337,631 334,626 334,623 337,621 342,621 347,623 347,623 496,707 496,707 496,707 494,709 491,712 491,712 "/>
   <path fill="#666666" d="M1475 717l0 0 147 -81 -147 81 0 0zm-13 -5l-208 -208 0 0 208 208zm10 -5l-210 -211 0 0 210 211 0 0 0 0 0 0zm147 -84l-276 -276 2 -5 0 -5 -2 -3 2 0 287 287 0 2 -3 -2 -5 0 -5 2 0 0 0 0zm-367 -132l0 0 81 -147 0 0 -81 147 0 0 0 0z"/>
   <polygon fill="#666666" points="1262,496 1257,491 1254,491 1254,491 1252,491 1252,491 1333,344 1335,337 1340,334 1343,334 1345,337 1345,342 1343,347 1343,347 "/>
   <path fill="#666666" d="M1340 1632l5 -3 0 -5 -2 -5 276 -276 5 2 3 0 2 0 3 -2 0 2 -287 287 -5 0 0 0 0 0zm-7 -10l0 0 -81 -147 0 0 81 147 0 0 0 0zm-71 -150l0 0 210 -213 -210 213 0 0zm-8 -10l0 0 3 -3 -3 3zm368 -129l-147 -81 0 0 147 81 0 0 0 0z"/>
   <path fill="#666666" d="M1632 1343l0 -3 -3 -5 -7 -2 0 -697 7 -5 3 -5 0 -3 0 3 0 714 0 3 0 0 0 0zm-160 -636l0 0 147 -84 0 0 -147 84z"/>
   <polygon fill="#666666" points="1475,717 1475,712 1475,712 1475,709 1472,707 1472,707 1472,707 1619,623 1619,623 1624,621 1629,621 1632,623 1632,626 1629,631 1622,636 1622,636 "/>
   <polygon fill="#666666" points="1619,1343 1472,1262 1472,1262 "/>
   <polygon fill="#666666" points="1627,1345 1624,1345 1619,1343 1619,1343 1472,1262 1472,1262 1475,1257 1475,1254 1475,1252 1622,1333 1622,1333 1629,1335 1632,1340 1632,1343 1629,1345 "/>
   <path fill="#666666" d="M626 1632l-5 0 -284 -287 -3 -2 3 2 2 0 3 0 5 -2 276 276 -2 5 0 5 5 3 0 0zm81 -160l-211 -210 211 210 0 0 0 0zm-363 -139l0 0 147 -81 0 0 -147 81 0 0 0 0z"/>
   <polygon fill="#666666" points="339,1345 337,1345 334,1343 334,1340 337,1335 344,1333 344,1333 491,1252 491,1252 491,1254 491,1254 491,1254 494,1257 496,1262 496,1262 347,1343 347,1343 342,1345 "/>
   <polygon fill="#666666" points="636,1622 636,1622 717,1475 717,1475 "/>
   <path fill="#666666" d="M1340 1632l-714 0 0 0 5 -3 5 -7 697 0 2 7 5 3 0 0 0 0 0 0zm3 -13l-81 -147 0 0 81 147 0 0 0 0 0 0z"/>
   <polygon fill="#666666" points="1340,1632 1340,1632 1335,1629 1333,1622 1333,1622 1252,1475 1254,1475 1257,1475 1262,1472 1262,1472 1262,1472 1343,1619 1343,1619 1345,1624 1345,1629 "/>
   <polygon fill="#666666" points="623,1619 623,1619 707,1472 707,1472 "/>
   <polygon fill="#666666" points="626,1632 626,1632 621,1629 621,1624 623,1619 623,1619 707,1472 707,1472 707,1472 709,1475 712,1475 717,1475 636,1622 636,1622 631,1629 "/>
   <path fill="#666666" d="M722 1464l0 0 56 -98 0 0 -56 98 0 0 0 0zm-10 -2l-208 -208 0 0 208 208 0 0 0 0zm55 -102l-162 -162 0 0 162 162 0 0 0 0zm6 -7l-38 -38 38 38z"/>
   <polygon fill="#666666" points="707,1472 496,1262 499,1259 504,1254 712,1462 709,1467 "/>
   <polygon fill="#666666" points="496,1262 494,1257 491,1254 491,1254 494,1259 496,1259 499,1259 "/>
   <polygon fill="#666666" points="712,1475 709,1475 707,1472 709,1467 709,1472 "/>
   <polygon fill="#666666" points="501,1244 501,1244 600,1191 600,1191 "/>
   <path fill="#666666" d="M504 1254l0 0 101 -56 0 0 -101 56 0 0zm101 -486l-101 -56 0 0 101 56 0 0 0 0z"/>
   <polygon fill="#666666" points="491,1252 491,717 494,717 501,722 501,1244 494,1249 "/>
   <polygon fill="#666666" points="494,717 491,717 491,712 491,712 491,714 "/>
   <polygon fill="#666666" points="491,1254 491,1254 491,1252 494,1249 "/>
   <polygon fill="#666666" points="504,1254 501,1252 501,1244 501,1244 600,1191 600,1191 600,1193 600,1193 603,1196 605,1198 605,1198 605,1198 "/>
   <polygon fill="#666666" points="501,1252 501,1252 499,1249 494,1249 501,1244 "/>
   <polygon fill="#666666" points="499,1259 499,1259 501,1254 501,1252 504,1254 "/>
   <polygon fill="#666666" points="496,1259 494,1259 491,1254 494,1249 499,1249 501,1252 501,1252 501,1254 499,1259 "/>
   <path fill="#666666" d="M600 778l-99 -56 0 0 99 56 0 0 0 0zm5 -10l0 0 162 -163 0 0 -162 163 0 0 0 0zm-101 -56l0 0 41 -41 -41 41zm253 -81l16 -16 -16 16z"/>
   <polygon fill="#666666" points="504,712 499,709 496,707 707,496 709,499 709,499 712,504 547,671 "/>
   <polygon fill="#666666" points="709,499 707,496 709,491 712,491 709,494 "/>
   <polygon fill="#666666" points="491,712 494,709 496,707 499,709 494,709 "/>
   <polygon fill="#666666" points="600,778 600,778 600,778 501,722 501,722 501,714 504,712 504,712 605,768 605,768 605,768 603,770 600,773 600,773 "/>
   <polygon fill="#666666" points="501,714 501,712 499,709 504,712 "/>
   <polygon fill="#666666" points="501,722 494,717 496,717 501,717 501,714 "/>
   <polygon fill="#666666" points="496,717 494,717 491,714 491,712 494,709 499,709 501,712 501,714 501,717 "/>
   <polygon fill="#666666" points="778,600 778,600 722,501 722,501 "/>
   <polygon fill="#666666" points="1198,605 1198,605 1254,504 1254,504 "/>
   <line fill="none" x1="1254" y1="504" x2="1254" y2= "504" />
   <polygon fill="#666666" points="767,605 712,504 712,504 "/>
   <line fill="none" x1="712" y1="504" x2="712" y2= "504" />
   <polygon fill="#666666" points="1244,501 722,501 717,494 717,494 717,491 1252,491 1249,494 "/>
   <polygon fill="#666666" points="717,494 714,491 712,491 712,491 717,491 "/>
   <polygon fill="#666666" points="1249,494 1249,494 1252,491 1254,491 1254,491 1254,491 "/>
   <polygon fill="#666666" points="767,605 767,605 767,605 712,504 714,501 722,501 722,501 778,600 778,600 773,600 773,600 770,603 "/>
   <polygon fill="#666666" points="712,504 709,499 709,499 709,499 712,501 714,501 "/>
   <polygon fill="#666666" points="722,501 714,501 717,499 717,494 717,494 717,494 "/>
   <polygon fill="#666666" points="714,501 712,501 709,499 709,499 709,494 712,491 714,491 717,494 717,494 717,499 "/>
   <path fill="#666666" d="M1366 778l0 0 98 -56 0 0 -98 56 0 0zm-6 -10l-162 -163 0 0 162 163 0 0 0 0z"/>
   <polygon fill="#666666" points="1462,712 1254,504 1259,499 1262,496 1472,707 1467,709 "/>
   <polygon fill="#666666" points="1259,499 1259,494 1254,491 1257,491 1262,496 "/>
   <polygon fill="#666666" points="1475,712 1472,709 1467,709 1472,707 1475,709 "/>
   <polygon fill="#666666" points="1191,600 1191,600 1244,501 1244,501 "/>
   <polygon fill="#666666" points="1198,605 1196,603 1193,600 1193,600 1191,600 1191,600 1244,501 1244,501 1252,501 1254,504 "/>
   <polygon fill="#666666" points="1252,501 1244,501 1249,494 1249,499 "/>
   <polygon fill="#666666" points="1254,504 1254,504 1252,501 1254,501 1259,499 "/>
   <polygon fill="#666666" points="1254,501 1252,501 1249,499 1249,494 1254,491 1254,491 1259,494 1259,499 "/>
   <polygon fill="#666666" points="1462,1254 1360,1198 1360,1198 "/>
   <polygon fill="#666666" points="1475,1252 1472,1249 1464,1244 1464,722 1472,717 1475,717 "/>
   <polygon fill="#666666" points="1472,717 1475,714 1475,712 1475,712 1475,717 1475,717 "/>
   <polygon fill="#666666" points="1475,1254 1472,1249 1475,1252 1475,1252 "/>
   <polygon fill="#666666" points="1360,768 1360,768 1462,712 1462,712 "/>
   <line fill="none" x1="1462" y1="712" x2="1462" y2= "712" />
   <polygon fill="#666666" points="1366,778 1366,773 1366,773 1366,770 1360,768 1360,768 1360,768 1462,712 1464,714 1464,722 "/>
   <polygon fill="#666666" points="1464,714 1462,712 1462,712 1467,709 1464,712 "/>
   <polygon fill="#666666" points="1464,722 1464,722 1464,714 1467,717 1469,717 1472,717 "/>
   <polygon fill="#666666" points="1469,717 1467,717 1464,714 1464,712 1467,709 1472,709 1475,712 1475,714 1472,717 "/>
   <polygon fill="#666666" points="712,1462 712,1462 767,1360 767,1360 "/>
   <polygon fill="#666666" points="1252,1475 717,1475 717,1472 722,1464 1244,1464 1249,1472 "/>
   <polygon fill="#666666" points="1254,1475 1252,1475 1252,1475 1249,1472 "/>
   <polygon fill="#666666" points="717,1475 717,1475 712,1475 714,1475 717,1472 "/>
   <polygon fill="#666666" points="722,1464 714,1464 712,1462 712,1462 767,1360 767,1360 767,1360 770,1363 773,1366 778,1366 "/>
   <polygon fill="#666666" points="709,1467 712,1462 714,1464 712,1464 "/>
   <polygon fill="#666666" points="717,1472 717,1472 717,1467 714,1464 722,1464 722,1464 "/>
   <polygon fill="#666666" points="712,1475 712,1475 709,1472 709,1467 712,1464 714,1464 717,1467 717,1472 714,1475 "/>
   <polygon fill="#666666" points="1254,1462 1198,1360 1198,1360 "/>
   <line fill="none" x1="1254" y1="1462" x2="1254" y2= "1462" />
   <path fill="#666666" d="M1257 1459l205 -205 0 0 -205 205 0 0 0 0zm-59 -99l0 0 162 -162 0 0 -162 162 0 0 0 0zm266 -116l-98 -53 0 0 98 53 0 0 0 0 0 0z"/>
   <polygon fill="#666666" points="1262,1472 1259,1467 1254,1462 1257,1459 1462,1254 1467,1259 1472,1262 "/>
   <polygon fill="#666666" points="1472,1262 1467,1259 1469,1259 1472,1259 1475,1254 1475,1257 "/>
   <polygon fill="#666666" points="1254,1475 1254,1475 1259,1472 1259,1467 1262,1472 1257,1475 "/>
   <polygon fill="#666666" points="1462,1254 1462,1254 1462,1254 1360,1198 1360,1198 1360,1198 1366,1196 1366,1193 1366,1193 1366,1191 1464,1244 1464,1252 "/>
   <polygon fill="#666666" points="1467,1259 1467,1259 1462,1254 1464,1252 1464,1254 "/>
   <polygon fill="#666666" points="1464,1252 1464,1244 1464,1244 1472,1249 1467,1249 1467,1252 "/>
   <polygon fill="#666666" points="1469,1259 1467,1259 1464,1254 1464,1252 1467,1252 1467,1249 1472,1249 1475,1254 1472,1259 "/>
   <polygon fill="#666666" points="1244,1464 1244,1464 1191,1366 1191,1366 "/>
   <polygon fill="#666666" points="1252,1464 1244,1464 1191,1366 1193,1366 1196,1363 1198,1360 1198,1360 1198,1360 1254,1462 "/>
   <polygon fill="#666666" points="1259,1467 1254,1464 1252,1464 1254,1462 1254,1462 "/>
   <polygon fill="#666666" points="1249,1472 1249,1472 1244,1464 1244,1464 1252,1464 1249,1467 "/>
   <polygon fill="#666666" points="1254,1475 1254,1475 1254,1475 1249,1472 1249,1467 1252,1464 1254,1464 1259,1467 1259,1472 "/>
   <polygon fill="#666666" points="600,1191 600,778 603,778 610,783 610,1183 603,1188 "/>
   <polygon fill="#666666" points="600,1193 600,1193 600,1191 603,1188 "/>
   <polygon fill="#666666" points="603,778 600,778 600,773 600,773 600,775 "/>
   <path fill="#666666" d="M615 1193l0 0 59 -33 0 0 -59 33 0 0 0 0zm64 -40l0 -3 -8 0 -2 3 0 -337 2 0 3 2 5 -2 0 -3 0 340 0 0 0 0zm-31 -363l-33 -17 0 0 33 17 0 0z"/>
   <path fill="#666666" d="M669 816l-59 -33 0 0 59 33 0 0 0 0 0 0zm10 -3l0 -2 -3 -3 -28 -18 26 16 132 -132 -11 -18 13 20 3 3 2 0 -134 134 0 0 0 0zm-64 -40l0 0 142 -142 -142 142z"/>
   <polygon fill="#666666" points="615,773 608,770 605,768 767,605 770,608 773,615 757,631 "/>
   <polygon fill="#666666" points="600,773 603,770 605,768 608,770 603,770 "/>
   <polygon fill="#666666" points="770,608 770,608 767,605 770,603 773,600 770,603 "/>
   <polygon fill="#666666" points="816,669 816,669 783,610 783,610 "/>
   <polygon fill="#666666" points="674,818 671,816 669,816 669,816 610,783 610,783 610,775 615,773 615,773 615,773 648,790 676,808 679,811 679,813 679,816 "/>
   <polygon fill="#666666" points="610,783 603,778 605,780 610,778 610,775 "/>
   <polygon fill="#666666" points="610,775 610,773 608,770 615,773 "/>
   <polygon fill="#666666" points="605,780 603,778 600,775 600,773 603,770 608,770 610,773 610,775 610,778 "/>
   <polygon fill="#666666" points="1193,1353 1170,1310 "/>
   <polygon fill="#666666" points="1191,1366 778,1366 778,1363 783,1355 1183,1355 1188,1363 "/>
   <polygon fill="#666666" points="778,1366 778,1366 773,1366 775,1366 778,1363 "/>
   <polygon fill="#666666" points="1193,1366 1191,1366 1191,1366 1188,1363 "/>
   <polygon fill="#666666" points="773,1353 773,1353 798,1305 "/>
   <line fill="none" x1="773" y1="1353" x2="773" y2= "1353" />
   <polygon fill="#666666" points="1153,1297 816,1297 816,1295 816,1287 813,1287 1153,1287 1150,1287 1150,1295 "/>
   <polygon fill="#666666" points="735,1315 615,1193 615,1193 "/>
   <polygon fill="#666666" points="767,1360 605,1198 608,1198 615,1193 735,1315 773,1353 770,1358 "/>
   <polygon fill="#666666" points="605,1198 603,1196 600,1193 603,1198 605,1198 608,1198 "/>
   <path fill="#666666" d="M798 1305l8 -13 -132 -132 2 0 3 -5 0 -2 134 134 -2 0 -3 3 -10 15 0 0 0 0zm-188 -122l0 0 59 -30 0 0 -59 30 0 0z"/>
   <polygon fill="#666666" points="773,1366 770,1363 767,1360 770,1358 770,1363 "/>
   <polygon fill="#666666" points="615,1193 610,1191 610,1183 610,1183 669,1153 669,1153 671,1150 679,1150 679,1153 679,1155 676,1160 674,1160 674,1160 "/>
   <polygon fill="#666666" points="608,1198 608,1198 610,1193 610,1191 615,1193 "/>
   <polygon fill="#666666" points="610,1191 610,1188 603,1188 610,1183 "/>
   <polygon fill="#666666" points="605,1198 603,1198 600,1193 600,1193 603,1188 610,1188 610,1191 610,1193 608,1198 "/>
   <polygon fill="#666666" points="783,1355 783,1355 816,1297 816,1297 "/>
   <polygon fill="#666666" points="783,1355 775,1355 773,1353 798,1305 808,1290 811,1287 813,1287 816,1287 816,1295 816,1297 816,1297 "/>
   <polygon fill="#666666" points="770,1358 773,1353 773,1353 775,1355 773,1355 "/>
   <polygon fill="#666666" points="778,1363 778,1363 778,1358 775,1355 783,1355 783,1355 "/>
   <polygon fill="#666666" points="773,1366 773,1366 770,1363 770,1358 773,1355 775,1355 778,1358 778,1363 775,1366 "/>
   <path fill="#666666" d="M1297 816l0 0 58 -33 0 0 -58 33 0 0zm-10 -3l-134 -134 2 0 5 -3 10 -20 -10 18 132 132 25 -13 -27 15 -3 3 0 2 0 0 0 0zm66 -40l-160 -158 0 0 160 158z"/>
   <polygon fill="#666666" points="1353,773 1193,615 1198,608 1198,605 1360,768 1358,770 "/>
   <polygon fill="#666666" points="1198,608 1198,603 1193,600 1196,603 1198,605 "/>
   <polygon fill="#666666" points="1366,773 1363,770 1358,770 1360,768 1366,770 "/>
   <polygon fill="#666666" points="1153,669 1153,669 1183,610 1183,610 "/>
   <path fill="#666666" d="M1193 1353l0 0 160 -160 0 0 -160 160zm162 -170l-58 -30 0 0 58 30 0 0 0 0z"/>
   <polygon fill="#666666" points="1198,1360 1198,1358 1193,1353 1353,1193 1358,1198 1360,1198 "/>
   <polygon fill="#666666" points="1360,1198 1358,1198 1360,1198 1363,1198 1366,1193 1366,1196 "/>
   <polygon fill="#666666" points="1193,1366 1193,1366 1198,1363 1198,1358 1198,1360 1196,1363 "/>
   <path fill="#666666" d="M1183 1355l0 0 -30 -58 0 0 30 58 0 0zm-13 -45l-10 -20 -5 -3 -2 0 134 -134 0 2 3 5 2 0 -132 132 10 18 0 0 0 0z"/>
   <polygon fill="#666666" points="1191,1355 1183,1355 1153,1297 1153,1297 1150,1295 1150,1287 1153,1287 1155,1287 1160,1290 1170,1310 1193,1353 1193,1353 1193,1353 "/>
   <polygon fill="#666666" points="1188,1363 1188,1363 1183,1355 1183,1355 1191,1355 1188,1358 "/>
   <polygon fill="#666666" points="1198,1358 1193,1355 1191,1355 1193,1353 "/>
   <polygon fill="#666666" points="1193,1366 1193,1366 1193,1366 1188,1363 1188,1358 1191,1355 1193,1355 1198,1358 1198,1363 "/>
   <path fill="#666666" d="M1153 679l-340 0 3 0 0 -8 0 -2 337 0 -3 2 0 8 3 0 0 0 0 0zm-358 -23l-22 -41 0 0 22 41z"/>
   <line fill="none" x1="773" y1="615" x2="773" y2= "615" />
   <polygon fill="#666666" points="1183,610 783,610 778,603 778,600 1191,600 1188,603 "/>
   <polygon fill="#666666" points="778,603 775,600 773,600 773,600 778,600 "/>
   <polygon fill="#666666" points="1188,603 1188,603 1191,600 1193,600 1193,600 1193,600 "/>
   <polygon fill="#666666" points="813,679 811,679 808,676 795,656 773,615 775,610 783,610 783,610 816,669 816,669 816,671 816,679 "/>
   <polygon fill="#666666" points="773,615 770,608 773,610 775,610 "/>
   <polygon fill="#666666" points="783,610 775,610 778,610 778,603 "/>
   <polygon fill="#666666" points="775,610 773,610 770,608 770,603 773,600 775,600 778,603 778,610 "/>
   <polygon fill="#666666" points="1170,656 1193,615 1193,615 "/>
   <polygon fill="#666666" points="1155,679 1153,679 1150,679 1150,671 1153,669 1153,669 1183,610 1183,610 1191,610 1193,615 1193,615 1193,615 1170,656 1160,676 "/>
   <polygon fill="#666666" points="1191,610 1183,610 1188,603 1188,610 "/>
   <polygon fill="#666666" points="1193,615 1191,610 1193,610 1198,608 "/>
   <polygon fill="#666666" points="1193,610 1191,610 1188,610 1188,603 1193,600 1193,600 1198,603 1198,608 "/>
   <polygon fill="#666666" points="1353,1193 1292,1160 1292,1160 "/>
   <polygon fill="#666666" points="1366,1191 1363,1188 1355,1183 1355,783 1363,778 1366,778 "/>
   <polygon fill="#666666" points="1363,778 1366,775 1366,773 1366,773 1366,778 1366,778 "/>
   <polygon fill="#666666" points="1366,1193 1366,1193 1363,1188 1366,1191 1366,1191 "/>
   <path fill="#666666" d="M1287 1153l0 -340 3 3 2 2 3 -2 2 0 0 337 -2 -3 -5 0 -3 3 0 0 0 0zm30 -360l36 -20 0 0 -36 20 0 0z"/>
   <polygon fill="#666666" points="1292,818 1290,816 1287,813 1287,811 1290,808 1317,793 1353,773 1353,773 1355,775 1355,783 1297,816 1297,816 1295,816 "/>
   <polygon fill="#666666" points="1355,775 1353,773 1358,770 1355,773 "/>
   <polygon fill="#666666" points="1355,783 1355,783 1355,775 1358,778 1360,780 1363,778 "/>
   <polygon fill="#666666" points="1360,780 1358,778 1355,775 1355,773 1358,770 1363,770 1366,773 1366,775 1363,778 "/>
   <polygon fill="#666666" points="1353,1193 1353,1193 1353,1193 1292,1160 1292,1160 1290,1160 1287,1155 1287,1153 1290,1150 1295,1150 1297,1153 1297,1153 1355,1183 1355,1191 "/>
   <polygon fill="#666666" points="1355,1191 1355,1183 1355,1183 1363,1188 1358,1188 "/>
   <polygon fill="#666666" points="1358,1198 1358,1198 1353,1193 1355,1191 1355,1193 "/>
   <polygon fill="#666666" points="1360,1198 1358,1198 1355,1193 1355,1191 1358,1188 1363,1188 1366,1193 1366,1193 1363,1198 "/>
  </g>
 </g>
</svg>
