<?xml version="1.0" encoding="UTF-8"?>
<!DOCTYPE svg PUBLIC "-//W3C//DTD SVG 1.1//EN" "http://www.w3.org/Graphics/SVG/1.1/DTD/svg11.dtd">
<!-- Creator: CorelDRAW X7 -->
<svg xmlns="http://www.w3.org/2000/svg" xml:space="preserve" width="50px" height="50px" version="1.1" style="shape-rendering:geometricPrecision; text-rendering:geometricPrecision; image-rendering:optimizeQuality; fill-rule:evenodd; clip-rule:evenodd"
viewBox="0 0 5124939 5124939"
 xmlns:xlink="http://www.w3.org/1999/xlink">
 <defs>
  <style type="text/css">
   <![CDATA[
    .str0 {stroke:white;stroke-width:20460}
    .fil0 {fill:none}
   ]]>
  </style>
 </defs>
 <g id="Layer_x0020_1">
  <metadata id="CorelCorpID_0Corel-Layer"/>
  <rect class="fil0" x="-61" y="-61" width="5125060" height="5125060"/>
  <g id="_1117868304">
   <path class="fil0 str0" d="M2855327 1656053c-263923,8354 -1072276,101332 -1166949,1061017 -1211,212107 49394,397337 135714,552543 -190799,-117071 -347821,-294189 -433898,-522640 242,-683898 483535,-1364406 1483172,-1352542 58958,-2542 101937,26271 123971,65496l130992 0 0 -23850c0,-19975 16223,-36077 36078,-36077l0 0c19855,0 36077,16102 36077,36077l0 23850 31719 0c32688,0 59443,26756 59443,59443l0 0c0,32688 -26755,59444 -59443,59444l-31719 0 0 17433c0,19855 -16222,36077 -36077,36077l0 0c-19855,0 -36078,-16222 -36078,-36077l0 -17433 -126634 0c-20702,42130 -67797,75181 -146368,77239zm-503753 2077724c573002,236078 1330024,-7627 1466828,-909685 0,0 19734,-117433 157385,-109080 137772,8233 135714,141526 135714,141526 -19612,206295 -226755,1222033 -1348668,1263075 -551695,-13923 -940678,-270945 -1160533,-621913 199516,134867 449879,221670 749274,236077z"/>
   <path class="fil0 str0" d="M2478814 1267070c-264044,8354 -1072276,101332 -1166950,1061017 -7869,1292131 1904480,1594552 2130025,107022 0,0 19733,-117312 157385,-109080 137772,8233 135593,141525 135593,141525 -19492,206417 -226635,1222034 -1348547,1263076 -1824213,-46005 -1873245,-2748669 110411,-2725182 59080,-2421 101937,26271 124092,65617l130872 0 0 -23971c0,-19854 16223,-36077 36077,-36077l0 0c19976,0 36199,16223 36199,36077l0 23971 31719 0c32688,0 59443,26635 59443,59443l0 0c0,32688 -26755,59444 -59443,59444l-31719 0 0 17433c0,19855 -16223,36077 -36199,36077l0 0c-19854,0 -36077,-16222 -36077,-36077l0 -17433 -126513 0c-20703,42009 -67797,75060 -146368,77118z"/>
  </g>
 </g>
</svg>
