<?xml version="1.0" encoding="utf-8"?>
<!-- Generator: Adobe Illustrator 19.1.1, SVG Export Plug-In . SVG Version: 6.00 Build 0)  -->
<svg version="1.1" id="Layer_1" xmlns:sketch="http://www.bohemiancoding.com/sketch/ns"
	 xmlns="http://www.w3.org/2000/svg" xmlns:xlink="http://www.w3.org/1999/xlink" x="0px" y="0px" viewBox="-2 101.5 50 50"
	 style="enable-background:new -2 101.5 50 50;" xml:space="preserve">
<style type="text/css">
	.st0{fill:#FFFFFF;}
</style>
<g sketch:type="MSPage">
	<g transform="translate(-3436.000000, -548.000000)" sketch:type="MSArtboardGroup">
		<path sketch:type="MSShapeGroup" class="st0" d="M3459,649.5c-6.4,0-12.8,2.4-17.7,7.3c-9.8,9.8-9.8,25.6,0,35.4
			c4.9,4.9,11.3,7.3,17.7,7.3c6.4,0,12.8-2.4,17.7-7.3c9.8-9.8,9.8-25.6,0-35.4C3471.8,651.9,3465.4,649.5,3459,649.5L3459,649.5z
			 M3481.1,674.5c0,2.9-0.5,5.7-1.6,8.3c-1.1,2.7-2.7,5.2-4.9,7.3c-2.1,2.1-4.6,3.8-7.3,4.9c-2.7,1.1-5.5,1.6-8.3,1.6
			s-5.7-0.5-8.3-1.6c-2.7-1.1-5.2-2.7-7.3-4.9s-3.8-4.6-4.9-7.3c-1.1-2.7-1.6-5.5-1.6-8.3s0.5-5.7,1.6-8.3c1.1-2.7,2.7-5.2,4.9-7.3
			s4.6-3.8,7.3-4.9c2.7-1.1,5.5-1.6,8.3-1.6s5.7,0.5,8.3,1.6c2.7,1.1,5.2,2.7,7.3,4.9s3.8,4.6,4.9,7.3
			C3480.6,668.8,3481.1,671.6,3481.1,674.5z M3470.4,663.3c-0.6-0.6-1.5-0.6-2,0l-9.2,9.2l-9.2-9.2c-0.6-0.6-1.5-0.6-2,0
			s-0.6,1.5,0,2l9.2,9.2l-9.2,9.2c-0.6,0.6-0.6,1.5,0,2c0.3,0.3,0.6,0.4,1,0.4c0.4,0,0.7-0.1,1-0.4l9.2-9.2l9.2,9.2
			c0.3,0.3,0.6,0.4,1,0.4s0.7-0.1,1-0.4c0.6-0.6,0.6-1.5,0-2l-9.2-9.2l9.2-9.2C3471,664.8,3471,663.9,3470.4,663.3z"/>
	</g>
</g>
</svg>
