<?xml version="1.0" encoding="UTF-8"?>
<!DOCTYPE svg PUBLIC "-//W3C//DTD SVG 1.0//EN" "http://www.w3.org/TR/2001/REC-SVG-20010904/DTD/svg10.dtd">
<!-- Creator: CorelDRAW X7 -->
<svg xmlns="http://www.w3.org/2000/svg" xml:space="preserve" width="50px" height="50px" version="1.0" shape-rendering="geometricPrecision" text-rendering="geometricPrecision" image-rendering="optimizeQuality" fill-rule="evenodd" clip-rule="evenodd"
viewBox="0 0 61532 61532"
 xmlns:xlink="http://www.w3.org/1999/xlink"
 enable-background="new 0 0 40 40">
 <g id="Layer_x0020_1">
  <metadata id="CorelCorpID_0Corel-Layer"/>
  <rect fill="none" width="61532" height="61532"/>
  <g id="_1251169024">
   <g>
    <path fill="white" d="M42587 38811c757,0 1515,-756 1515,-1513 0,-756 -758,-1324 -1515,-1324l-20049 0 -7944 -19009c-188,-757 -1040,-1041 -1797,-757 -756,285 -1229,1041 -756,1798l8228 19481c567,946 945,1230 1796,1324l20522 0zm-18442 1513c1513,0 2554,1041 2554,2554 0,1324 -1041,2554 -2554,2554 -1324,0 -2552,-1324 -2552,-2554 -94,-1513 1228,-2554 2552,-2554l0 0zm15605 0c1324,0 2554,1041 2554,2554 0,1324 -1324,2554 -2554,2554 -1513,0 -2552,-1324 -2552,-2554 0,-1513 1039,-2554 2552,-2554l0 0zm9930 -20049l-472 1040 -1041 2365 -28655 0 -473 -1513 -851 -1892 31492 0zm-2269 5202l-27142 0 1513 3309 24116 0 1513 -3309zm-2553 5107l-22320 0 1513 3310 19482 0 1325 -3310zm0 0z"/>
   </g>
  </g>
 </g>
</svg>
