<?xml version="1.0" encoding="UTF-8"?>
<!DOCTYPE svg PUBLIC "-//W3C//DTD SVG 1.1//EN" "http://www.w3.org/Graphics/SVG/1.1/DTD/svg11.dtd">
<!-- Creator: CorelDRAW X7 -->
<svg xmlns="http://www.w3.org/2000/svg" xml:space="preserve" width="50px" height="50px" version="1.1" style="shape-rendering:geometricPrecision; text-rendering:geometricPrecision; image-rendering:optimizeQuality; fill-rule:evenodd; clip-rule:evenodd"
viewBox="0 0 1838 1838"
 xmlns:xlink="http://www.w3.org/1999/xlink"
 enable-background="new 0 0 100 100">
 <defs>
  <style type="text/css">
   <![CDATA[
    .fil0 {fill:none}
    .fil1 {fill:#333333}
   ]]>
  </style>
 </defs>
 <g id="Layer_x0020_1">
  <metadata id="CorelCorpID_0Corel-Layer"/>
  <rect class="fil0" width="1838" height="1838"/>
  <g id="_899172624">
   <g>
    <g>
     <path class="fil1" d="M1368 1407c-10,0 -20,-4 -28,-11l-898 -898c-15,-16 -15,-41 0,-56 15,-15 40,-15 56,0l898 898c15,15 15,40 0,56 -8,7 -18,11 -28,11z"/>
    </g>
    <g>
     <path class="fil1" d="M470 1407c-10,0 -20,-4 -28,-11 -15,-16 -15,-41 0,-56l898 -898c15,-15 40,-15 56,0 15,15 15,40 0,56l-898 898c-8,7 -18,11 -28,11z"/>
    </g>
   </g>
  </g>
 </g>
</svg>
