<?xml version="1.0" encoding="UTF-8"?>
<!DOCTYPE svg PUBLIC "-//W3C//DTD SVG 1.0//EN" "http://www.w3.org/TR/2001/REC-SVG-20010904/DTD/svg10.dtd">
<!-- Creator: CorelDRAW X7 -->
<svg xmlns="http://www.w3.org/2000/svg" xml:space="preserve" width="50px" height="50px" version="1.0" shape-rendering="geometricPrecision" text-rendering="geometricPrecision" image-rendering="optimizeQuality" fill-rule="evenodd" clip-rule="evenodd"
viewBox="0 0 26383 26383"
 xmlns:xlink="http://www.w3.org/1999/xlink">
 <g id="Layer_x0020_1">
  <metadata id="CorelCorpID_0Corel-Layer"/>
  <rect fill="none" width="26383" height="26383"/>
  <g id="_1133645152">
   <path fill="#30B8C8" d="M8137 20285l-1264 0c-443,0 -790,-347 -790,-790l0 -7709c0,-443 347,-790 790,-790l1264 0c442,0 789,347 789,790l0 7709c0,443 -363,790 -789,790z"/>
   <path fill="#30B8C8" d="M11928 20285l-1264 0c-442,0 -790,-347 -790,-790l0 -4550c0,-442 348,-790 790,-790l1264 0c442,0 790,348 790,790l0 4550c0,443 -363,790 -790,790z"/>
   <path fill="#30B8C8" d="M15720 20285l-1264 0c-443,0 -791,-347 -791,-790l0 -12607c0,-442 348,-789 791,-789l1264 0c441,0 789,347 789,789l0 12607c0,443 -363,790 -789,790z"/>
   <path fill="#30B8C8" d="M19511 20285l-1264 0c-442,0 -790,-347 -790,-790l0 -9289c0,-443 348,-790 790,-790l1264 0c442,0 790,347 790,790l0 9289c0,443 -348,790 -790,790z"/>
  </g>
 </g>
</svg>
