<?xml version="1.0" encoding="UTF-8"?>
<!DOCTYPE svg PUBLIC "-//W3C//DTD SVG 1.0//EN" "http://www.w3.org/TR/2001/REC-SVG-20010904/DTD/svg10.dtd">
<!-- Creator: CorelDRAW X7 -->
<svg xmlns="http://www.w3.org/2000/svg" xml:space="preserve" width="40px" height="40px" version="1.0" shape-rendering="geometricPrecision" text-rendering="geometricPrecision" image-rendering="optimizeQuality" fill-rule="evenodd" clip-rule="evenodd"
viewBox="0 0 8252 8253"
 xmlns:xlink="http://www.w3.org/1999/xlink"
 enable-background="new 0 0 100 100">
 <g id="Layer_x0020_1">
  <metadata id="CorelCorpID_0Corel-Layer"/>
  <rect fill="none" width="8252" height="8252"/>
  <g id="_1188410736">
   <g>
    <path fill="black" d="M2792 2331l-555 0c-96,0 -174,78 -174,174 0,96 78,174 174,174l555 0c106,0 192,86 192,192l14 0c-109,0 -181,88 -162,197l190 1076c-193,82 -329,274 -329,497 0,298 243,540 541,540l1671 0c96,0 174,-78 174,-174 0,-97 -78,-175 -174,-175l-1671 0c-106,0 -192,-86 -192,-191 0,-106 86,-192 192,-192l38 0c0,0 0,0 0,0l63 0 1121 0 760 0c109,0 245,-88 303,-197l640 -1184c58,-109 18,-197 -91,-197l-1881 0c-2,0 -3,0 -4,0 -2,0 -4,0 -5,0l-850 0c0,-298 -242,-540 -540,-540l0 0z"/>
    <path fill="black" d="M4766 5288c-174,0 -316,142 -316,317 0,175 142,317 316,317 175,0 317,-142 317,-317 0,-175 -142,-317 -317,-317l0 0z"/>
    <path fill="black" d="M3407 5288c-175,0 -317,142 -317,317 0,175 142,317 317,317 175,0 316,-142 316,-317 0,-175 -141,-317 -316,-317l0 0z"/>
   </g>
  </g>
 </g>
</svg>
