<?xml version="1.0" encoding="UTF-8"?>
<!DOCTYPE svg PUBLIC "-//W3C//DTD SVG 1.0//EN" "http://www.w3.org/TR/2001/REC-SVG-20010904/DTD/svg10.dtd">
<!-- Creator: CorelDRAW X7 -->
<svg xmlns="http://www.w3.org/2000/svg" xml:space="preserve" width="899px" height="450px" version="1.0" shape-rendering="geometricPrecision" text-rendering="geometricPrecision" image-rendering="optimizeQuality" fill-rule="evenodd" clip-rule="evenodd"
viewBox="0 0 264445 132223"
 xmlns:xlink="http://www.w3.org/1999/xlink">
 <g id="Layer_x0020_1">
  <metadata id="CorelCorpID_0Corel-Layer"/>
  <path fill="#FEFEFE" d="M0 0l264445 0 0 132223 -264445 0 0 -132223zm43094 11377c158,287 1534,771 1932,916 908,333 997,557 1535,1149 934,1026 1601,1637 2299,2805l2801 4645c254,431 473,1305 637,1836 678,-58 2711,-418 3220,-303l146 2706c571,232 1324,507 1976,679 738,193 1029,-228 1644,-570 625,-346 1657,-919 1933,-1582 104,-251 340,-776 328,-1006 -24,-449 -733,-1117 -535,-1640 123,-327 801,-1075 1011,-1494 261,-520 533,-1401 753,-1943l790 -1847c104,377 -597,1744 -791,2217 -380,925 -399,1458 -969,2318 -697,1050 -658,914 -57,1960 282,492 216,450 -40,1118 -479,1247 -342,1128 -2210,2325 -1034,663 -885,483 -1261,1882 -208,776 -798,2055 -487,2691 274,561 790,1421 921,1967 -1447,2269 -1878,1419 -887,3866 350,862 508,1068 330,2219 -581,3750 -944,2469 1603,4280 450,320 339,544 319,1216 -17,551 27,878 22,1426 -9,992 453,1260 1034,1926l423 -572 -70 -1855 1070 -930 -673 1294 -100 1147 780 1289 3966 311 3448 2873 1081 -491c-457,-596 -839,-729 -1201,-1804 -195,-578 -813,-2119 -879,-2691 177,-217 1163,-932 1449,-1159 286,-227 509,-360 752,-561 396,-329 541,-251 554,-833l1 -22 -447 -312 -1645 -1199 1902 891 199 169c60,-2964 3,-1949 1341,-4802 237,-507 117,-484 -91,-895 -660,-1303 -708,-1405 -955,-2807 -291,-1652 -145,-1345 -1800,-2318 121,-55 -53,-61 186,-21 199,34 107,19 257,99 348,181 1106,564 1278,861 96,167 345,1730 402,2058 163,915 1172,2369 1149,2673 -55,715 -1281,2299 -1383,3227 -133,1204 -70,1843 -19,2237l82 70 1430 -503 1415 -339 774 -164 645 -968 291 -1459 185 -1371 164 1533 -306 1623 -871 915 -790 1120 -390 1451 395 1916 337 1064 -109 -1325 -109 -1791 640 -2057 -182 1338 56 1258 335 2604 143 23 157 -285c357,-641 1812,-1618 2360,-2099 840,-738 2082,-552 3118,-903 214,-1057 174,-2092 451,-3140 218,-823 633,-2494 1022,-3089 748,-1144 1449,-2172 2339,-3208 33,-37 62,-74 90,-109l-1751 -679 1547 431 327 79c209,-311 304,-593 500,-986 647,-1297 568,-1281 623,-2807 93,-2589 46,-1845 1370,-3973 177,-284 571,-966 768,-1199 223,-263 1996,-1029 2361,-1065 -424,396 -1852,773 -2204,1205 -416,509 -1078,1830 -1421,2430 -634,1105 -471,1422 -427,2821 47,1453 41,1570 -563,2897 -153,337 -280,596 -404,822l363 87 1484 -367 3072 -3067 -628 771 -1259 1574 -968 1269 910 2818 1100 261 1194 -821 1338 -214 1504 164 -1330 116 -1276 252 -1283 714 6109 728 968 -37 -57 -702 -109 -1792 640 -2057 -182 1338 56 1259 249 1931 1349 -51 1066 -501 -791 756c0,0 -785,55 -1584,105l46 363 3614 578 1869 2802 1412 849 759 759 904 -153 1094 -433 348 464 74 -550 81 756 956 18 371 -860 -195 -1172 -975 -1702 1285 1168 1106 1713 213 1735c0,0 653,453 751,461 70,7 450,56 667,84l1528 -891 1048 -702 177 -240 -70 -1855 1070 -930 -673 1294 -100 1147 135 222 375 -251 905 -549 1551 3 -1492 464 -1137 667 443 733 3917 307 128 -310 -128 -1562 -549 -1665 -440 -632 -1103 -227 -2746 -1064 1547 431 1294 310 1483 -366 3072 -3067 -628 771 -1259 1573 -969 1270 912 2818 1099 260 1194 -820 1338 -214 1504 163 -1330 116 -1276 252 -1283 714 6109 728 332 -12 69 -260 -418 -1653 -152 -904 301 -1195 -627 -385 -735 102 -962 444 -379 -198 -591 -414 -1645 -1199 1903 891 645 551 1430 -503 1415 -339 773 -164 646 -968 291 -1460 185 -1370 164 1533 -305 1623 -872 915 -790 1119 -390 1452 395 1916 141 447 2090 -79 1067 -502 -792 757c0,0 -1306,91 -2263,146l197 622 -86 2138 974 184 893 -781 1937 -1780 699 -830 3153 -3249c-136,-232 -276,-458 -417,-658 -361,79 -809,290 -1184,430 -1497,556 -1017,522 -2612,187 -436,-92 -776,-218 -933,-690 324,148 281,276 522,405 325,176 1674,384 2002,265 550,-200 1859,-893 2398,-901 56,172 226,459 418,761l169 -173 3481 -1711 755 -331 794 -789 460 -1116 -128 -1562 -549 -1664 -440 -633 -1103 -227 -2746 -1064 1547 431 1294 311 1483 -366 3072 -3068 -628 771 -1259 1574 -968 1269 911 2819 1099 260 1194 -821 1338 -213 1504 162 -1330 116 -1276 253 -1283 713 6109 728 2914 -110 1067 -501 -792 756c0,0 -3155,222 -3250,180 -96,-41 -2550,-287 -2550,-287l-3892 -403 -664 800 -847 1016 -1075 1359 -1716 379 -2395 1603c125,189 240,363 320,494 380,617 724,1140 1075,1721 297,491 404,756 533,920l1277 -1771 -752 2051c834,230 1711,445 2564,566l131 -31 -49 42 62 8c766,100 1775,130 2462,340 586,180 1587,587 2102,675 408,69 3015,-1549 3683,-1774 397,287 816,846 1210,1249 150,154 319,348 500,536l-175 -986 -1781 -1541 -2133 -1670 -1080 -1249 671 256 1332 1007 1306 1301 2599 2008 2343 5 586 -675 952 -314 1041 -206 970 -147 331 -400 644 -572 -256 671 -510 550 -1169 163 -1276 252 -923 745 -1403 1331 -606 426c225,109 411,201 580,289l30 11 1258 -55 1482 -334 3050 -924 2252 -464 1786 -803 1330 -875 2364 -1379 1962 -1315 906 -549 1551 3 -1493 465 -2503 1466 51 928 -416 987 -559 744 -565 809c0,0 1183,-327 1287,-383 104,-57 1406,154 1406,154l118 100 120 -603 185 -1370 164 1532 -136 721 379 320 426 -723 798 -62 420 -657 1767 -210 699 -71c0,0 956,17 1412,89 456,72 810,169 1072,192 262,23 741,-167 741,-167 0,0 909,-259 1206,-368 -174,155 -509,643 -1035,680 -631,45 -454,291 -577,181 -122,-109 -855,-41 -1302,-212 -447,-170 -1327,83 -1720,49 -48,-4 -92,-1 -134,8 -92,585 -508,1507 -338,1944 15,36 38,82 67,133 98,-3 216,-16 360,-42 737,-134 456,831 1000,1406 353,374 672,494 1205,617l100 -103 3482 -1712 755 -330 794 -790 460 -1115 -128 -1562 -250 -757c-165,-66 -320,-125 -460,-170 25,-264 64,-537 109,-813l-388 -557 -1103 -228 -2746 -1063 1547 431 1293 310 1484 -366 175 -175c20,-183 34,-361 37,-532 10,-471 -84,-2789 -192,-3128 -248,-775 -552,-1676 -890,-2359 -470,-948 -622,-1233 -873,-2290 -304,-1281 -290,-1386 4,-2665 283,-1232 481,-1484 112,-2574 -200,-590 -557,-1876 -837,-2400 -237,-443 -1437,-1025 -1744,-1450 318,95 1755,1082 1907,1354 134,240 365,913 472,1196 804,2115 892,1447 525,3757 -217,1363 -284,1335 64,2595 135,492 155,791 412,1245 610,1071 1052,2104 1516,3248 241,595 319,2147 368,2914 5,67 8,134 10,200l2005 -2003 -627 770 -1259 1574 -125 163c-32,721 -154,1421 -149,2157 809,463 1865,535 2499,1215l10 -7 1339 -214 1504 163 -1330 116 -1268 251c223,265 541,614 837,969l3980 474 1323 -50 6 -4 731 -1013 -12 -13c-1424,-1744 -561,-559 -304,-3639 70,-840 -741,-2456 -665,-3099 32,-273 1179,-1387 1482,-2169 108,-281 599,-1622 714,-1753 203,-234 942,-441 1281,-542 148,-44 63,-47 245,-42 219,6 64,-19 161,50 -1635,575 -1452,328 -1997,1742 -462,1199 -522,1281 -1334,2321 -255,328 -358,286 -235,777 724,2898 827,1751 281,4908 -90,519 52,475 346,835 90,109 178,203 270,300l2262 -3136 -821 2239 -782 1630c108,121 224,251 331,375l698 -329 -539 515c111,135 198,248 233,312 -159,495 -974,1753 -1247,2231 -610,1068 -1008,929 -1703,1718 -331,377 -1481,1450 -1387,1856 20,89 45,178 72,270l649 646 2598 2008 2344 5 586 -675 951 -314 1041 -206 970 -148 332 -400 644 -571 -257 671 -509 550 -1170 162 -1276 253 -923 745 -1402 1330 -668 471 671 256 1259 -56 1482 -333 3050 -924 1042 -215c354,-1104 661,-2201 673,-2489 -524,-461 -932,-867 -1450,-1339 -340,-309 -1260,-1076 -1434,-1365 123,-209 185,-242 403,-410l1228 -992c699,-578 1207,-693 1383,-1635 92,-486 187,-767 268,-1258 99,-599 39,-817 494,-1023 2571,-1162 2027,-90 2164,-3514 41,-1050 217,-1205 676,-1908 1304,-1996 774,-1318 -114,-3579 210,-461 818,-1134 1158,-1583 386,-510 85,-1746 35,-2469 -90,-1305 11,-1120 -790,-1887 -1448,-1385 -1346,-1256 -1554,-2443 -111,-637 -177,-611 158,-998 714,-823 726,-695 290,-1747 -356,-860 -280,-1336 -456,-2222 -90,-452 -474,-1786 -316,-2101l380 1773c100,519 188,1347 329,1853 114,407 585,1188 637,1500 84,496 -660,965 -759,1359 -51,202 67,708 116,949 130,635 944,1322 1438,1737 485,409 670,833 1357,790 608,-38 1323,-152 1869,-257l599 -2374c471,-12 2210,659 2800,828 239,-442 583,-1178 884,-1516l3289 -3630c820,-913 1518,-1338 2523,-2085 580,-431 697,-614 1560,-751 377,-61 1681,-250 1870,-477 2,-604 49,-1034 63,-1587 36,-1428 8,-1158 1029,-2211 1350,-1393 842,-1188 1602,-3252 138,-377 1150,-1646 1507,-1815 -137,498 -1045,1267 -1283,1804 -998,2247 327,1398 -1978,3903 -370,403 -479,394 -494,1008l-54 2548 -1909 503c-1300,293 -1695,822 -2957,1820 -1111,880 -2468,2753 -3382,3787 -1377,1559 -1005,1652 -1897,2929l-2457 -734c-127,154 -536,1924 -593,2210l-2379 305c-7,595 81,1188 137,1705 59,546 247,1136 -38,1545 -986,1413 -1194,998 -597,2204 90,183 570,1108 582,1241 20,225 -437,925 -595,1207 -1135,2031 -926,1577 -933,3813 582,63 2332,580 2797,433 321,-102 1661,-911 2110,-1163 1025,-574 1562,-412 2766,-526 311,-29 2168,-751 2381,-596 -507,269 -1896,745 -2480,827 -2402,339 -1686,78 -3696,1339 -187,118 -828,551 -1037,633 -426,166 -2178,-314 -2884,-327l-31 1321c-461,217 -827,367 -1265,565 -296,134 -1025,356 -1149,597 -254,392 -272,2199 -599,2575 -336,387 -1502,1063 -1651,1538 350,423 864,780 1306,1166 318,278 1116,687 979,1198l-593 2129 959 -431 1330 -875 2364 -1379 1963 -1315 905 -549 1551 2 -1492 465 -2503 1466 50 929 -415 987 -559 744 -566 808c0,0 1184,-326 1288,-383 103,-57 1406,155 1406,155l830 699 426 -722 797 -63 420 -657 1768 -209 699 -72c0,0 956,18 1412,90 455,72 810,169 1072,192 262,23 741,-167 741,-167 0,0 909,-259 1205,-368 -173,154 -508,643 -1034,680 -632,44 -455,291 -577,181 -123,-110 -855,-41 -1302,-212 -448,-171 -1327,83 -1721,49 -393,-34 -563,413 -1110,629 -547,217 -222,1037 28,1191 251,154 300,356 1037,222 738,-134 456,832 1001,1407 544,575 1008,550 2301,860 1294,310 3552,-616 4350,-679 511,-41 1362,709 2050,1194 337,120 671,241 977,354 676,-359 3437,-2860 3877,-3524 456,-686 2409,-1903 2409,-1903l3227 -4473 -821 2239 -927 1933 -1606 1016 -2107 1830 -3342 3145c315,117 551,206 655,243l2545 793c427,141 375,114 718,-153 1440,-1122 1192,-1046 3097,-1443 1193,-249 1804,-1288 2851,-1624 -232,326 -966,771 -1305,1035 -545,422 -745,660 -1449,841 -1872,482 -1599,466 -2959,1588 -281,231 -367,404 -792,320 -1334,-263 -2661,-639 -3966,-1031l-293 275 -1347 -447 -509 -479 -71 -22c-839,-249 -988,-466 -1683,-206 -557,209 -1028,374 -1637,600 -713,265 -866,423 -1481,831 -995,659 -1252,875 -2026,1278l593 444 1315 444 1633 967 3122 1294 -3487 -897 -1108 -921 -1294 -310 -1421 -698 -166 80c-1788,855 -1096,524 -2476,2060 -195,217 -876,958 -986,1228 317,517 506,647 789,1412 621,1683 384,1291 737,2523 59,207 310,462 613,705l3983 110 2281 -33c0,0 1992,-521 2126,-542 134,-21 2048,-779 2048,-779l829 -1579 -221 1796 -4159 1521 -1948 392 -2221 500 0 19 2330 992c1098,436 778,116 1072,1072 94,306 -78,45 240,319 118,101 145,111 238,232 -585,-261 -648,-534 -725,-1177 -382,-52 -1808,-541 -3148,-1074l39 2130 3522 1626 -112 1673 1040 1708 978 805 -14908 -1293c32,242 82,464 161,648 164,386 694,1623 896,1892l1790 1703c385,328 1202,296 1711,330 484,34 857,86 1354,121 592,42 596,35 964,379 269,252 1238,1162 1490,1286 488,241 1647,574 1975,810 186,134 1223,1197 1396,1392 388,441 224,403 1015,415 1942,31 1241,296 2821,1320 185,120 2023,521 2275,519 773,-7 720,-859 2012,-691 461,61 864,-31 1219,163 287,157 507,355 807,520 -129,76 -343,-77 -510,-189 -173,-117 -261,-198 -545,-273 -319,-83 -1168,-132 -1553,-43 -265,62 -769,487 -990,631 -418,272 -621,108 -1202,6 -1396,-244 -1295,-88 -2356,-842 -262,-186 -719,-590 -949,-641 -207,-45 -1354,-44 -1585,-13 -202,379 -368,1393 -488,1896 -238,990 -396,973 -78,1861 430,1198 818,2144 1471,3228 444,738 378,777 1102,1275 1551,1067 2735,1819 4552,2519l445 2900c323,230 -106,21 242,94 1221,253 2225,-266 3360,535 1144,808 1361,808 2230,1981 632,854 1092,1604 1601,2610 121,239 264,446 342,712 246,838 354,1738 502,2575 811,149 1951,256 2816,271 -423,256 -2569,13 -2983,-57 -395,-1062 -299,-2273 -905,-3261 -289,-472 -540,-932 -789,-1370 -277,-486 -570,-768 -876,-1188 -774,-1057 -1263,-1208 -2300,-1909 -818,-553 -2734,-173 -3782,-360l-539 -3005 -218 -130c-802,-424 -1744,-642 -2508,-1155 -731,-489 -1737,-964 -2381,-1519 -299,-257 -1299,-2048 -1517,-2450 -148,-273 -1091,-2621 -1111,-2797 -73,-632 727,-2888 560,-3264 -40,-89 -861,-860 -995,-995 -374,-375 -779,-452 -1274,-627 -1443,-510 -1387,-743 -2422,-1562 -382,-302 -2937,-439 -3523,-358 -108,341 -170,799 -265,1170 -171,668 -488,1101 -720,2106 -133,576 -159,475 132,985 684,1199 638,638 1574,1287 206,142 905,1379 995,1752 -217,192 -678,499 -956,575 163,-271 480,-433 711,-600 -32,-258 -306,-647 -456,-909 -260,-454 -148,-499 -693,-736 -308,-135 -742,-261 -959,-478 -114,-114 -394,-605 -537,-814 -400,-587 -97,-1712 163,-2355 327,-807 385,-1325 587,-2161 -308,-372 -949,-860 -1327,-1193 -1497,-1325 -1209,-1166 -2067,-2866 -382,-757 -410,-911 -527,-1796l-195 -17 0 7324 -443 -91 -2102 -637c-27,173 -36,358 60,574 30,68 561,905 615,963 -349,410 -971,979 -981,1577 -5,252 87,302 282,486 561,533 399,463 314,1265 -8,76 -12,150 -13,224l589 116 1169 163 510 550 256 671 -644 -571 -331 -401 -971 -147 -569 -113c24,312 81,623 84,981l1246 41c-298,147 -891,81 -1292,112l-102 -287c-83,-296 -134,-590 -163,-892l-244 -49 -952 -313 -586 -675 -2343 5 -2599 2007 -1306 1301 -1332 1008 -671 255 1080 -1248 2133 -1670 1781 -1541 -712 -4201 195 -3846 80 -964 -1157 -32 -620 87 -2052 -1208 -1185 -16c-205,1016 -404,2048 -504,2467 -681,2854 -976,2910 -2288,5287 -608,1100 -644,953 -470,2262 100,750 735,1289 1198,1823 591,682 731,1120 962,2031l365 1194c381,4 301,8 577,276 224,218 1469,1179 1557,1418l-28 1618c354,195 596,426 911,656 1875,1369 761,776 1346,1754 197,327 502,464 609,923 -84,-64 -740,-808 -792,-899 -273,-473 -58,-695 -562,-1033 -2152,-1444 -1804,-664 -1913,-2386 -32,-507 -40,-451 -394,-716 -235,-176 -1026,-861 -1275,-967 -240,205 -1155,1704 -1238,1953 -87,262 -4,1881 55,2697l47 53 2663 1782 1716 380 1075 1359 847 1016 664 800 3893 -403c0,0 2454,-246 2549,-288 95,-41 3250,180 3250,180l792 757 -1067 -502 -2914 -110 -6109 728 1284 714 1275 252 1331 116 -1504 163 -1339 -214 -1193 -820 -1100 260 -911 2818 969 1269 1258 1575 628 770 -3071 -3067 -1484 -366 -1294 310 -1546 431 2746 -1063 1102 -227 441 -633 548 -1665 129 -1562 -460 -1116 -795 -789 -754 -330 -3482 -1712 -405 -419c-698,182 -1488,465 -2143,688 -418,142 -382,447 -532,954 -129,437 -221,792 -339,1185 -221,735 -1985,2361 -2593,3463l-876 1504c-377,645 333,2034 391,3045 21,376 -559,1816 -679,2319 -155,654 542,1781 529,2428 -372,263 -1046,665 -1515,957 -1520,945 -1707,989 -3352,1592 -234,85 -1453,696 -1648,569 2626,-1455 2324,-688 5337,-2854l652 -487c-95,-591 -653,-1540 -611,-2060 48,-571 454,-1546 562,-2094 100,-501 -289,-1644 -410,-2170 -268,-1158 -392,-826 131,-1856 312,-612 605,-1141 904,-1724 350,-681 631,-990 1086,-1537 385,-463 918,-979 1077,-1560 146,-533 436,-1591 474,-2113l-866 -299c-1178,-323 -1363,-591 -2768,-471 -720,62 -764,497 -1168,1033 -507,673 -512,546 -1271,884 -798,355 -2438,1486 -2817,1414 -1230,-234 -2084,-668 -3166,-1129l203 -36c371,51 1148,542 1638,648 1223,265 1261,517 1988,44 755,-491 1630,-1010 2489,-1410 1099,-512 717,-1626 2109,-1802 1180,-149 1011,-205 2093,153 1958,646 2070,551 3899,-265 10,-61 13,-140 13,-232l-10811 -11182 -699 -831 -1937 -1779 -892 -781 -975 184 86 2138 -440 1391 -395 1916 390 1451 790 1120 872 914 306 1624 -165 1533 -184 -1370 -292 -1460 -645 -968 -773 -164 -1416 -339 -1430 -503 -645 551 -1903 891 1645 -1199 591 -414 379 -198 963 445 735 101 627 -384 -302 -1195 152 -905 418 -1654 -293 -1096 -251 -605 -4329 -1969 -563 470c-89,144 -180,334 -306,604 -390,837 -893,1978 -1419,2751 -1912,136 -931,-1093 -3510,915 -275,213 -606,559 -942,666 297,-504 1732,-1499 2299,-1937 434,-336 1340,-2 1915,42l445 -855c125,-269 251,-549 375,-829 62,-138 186,-392 314,-665l-2055 1712 -3967 311 -779 1289 99 1146 674 1295 -1071 -930 70 -1855 -710 -961 -371 -1222 -797 -63 -725 393c0,0 -718,95 -816,104 -98,8 -752,461 -752,461l-213 1735 -1106 1713 -1284 1167 974 -1702 195 -1172 -371 -858 -956 16 -503 671 -1094 -433 -904 -153 -759 759 -1412 849 -761 1141 258 537 821 2239 -1522 -2111 -665 996 -3613 577 -336 2604 -56 1259 183 1337 -641 -2056 109 -1792 128 -1562 735 -658c0,0 -971,-543 -1105,-564 -134,-22 -1542,-659 -1542,-659l-1274 540 1237 -966 2956 1361 2689 -200 696 -909 -1205 -1670c0,0 -1954,-1217 -2410,-1904 -78,-117 -230,-294 -430,-506l-911 771 595 1533 -1111 -1389 547 -939 550 -313c-1047,-1045 -2772,-2549 -3178,-2710 -547,-216 -2169,1641 -2966,1578 -797,-63 -3056,-989 -4350,-679 -1293,310 -1757,284 -2301,860 -544,575 -262,1540 -1000,1407 -738,-135 -786,68 -1038,221 -250,154 -575,975 -28,1191 547,217 718,664 1111,630 393,-34 1273,219 1720,49 447,-171 1180,-103 1302,-212 123,-110 -54,136 577,181 175,12 330,75 463,158 299,-34 518,-63 545,-74 95,-42 3250,180 3250,180l792 756 -1067 -501 -2914 -111 -266 32c96,98 173,188 231,240 -129,-47 -375,-124 -611,-195l-5462 651 1283 714 1276 252 1330 116 -1504 164 -1339 -214 -1193 -821 -1100 260 -799 2473 48 29 1492 464 -1537 3 854 1119 1258 1574 628 771 -3071 -3068 -1484 -366 -1294 310 -1546 431 2746 -1063 1055 -217 -65 -40 -1962 -1315 -2364 -1379 -1331 -875 -1785 -802 -2252 -465 -1193 -361 216 1145 -119 1110 73 10 509 550 257 671 -644 -571 -236 -285 -4 48 -9 -64 -83 -100 -969 -147 -1042 -206 -951 -314 -586 -675 -2344 5 -2597 2008 -1307 1301 -842 636 460 15c1089,42 2220,-289 3328,-193 237,865 1317,1886 1636,2946 179,596 348,1837 826,2227l1872 1442c347,306 516,527 855,821 -149,56 -368,-176 -558,-353 -580,-537 -1250,-972 -1912,-1423 -702,-478 -697,-348 -957,-1154 -379,-1176 -585,-1780 -1254,-2758 -134,-196 -787,-1134 -894,-1185 -142,-68 -2825,296 -3384,314 -1218,39 -2295,105 -3468,215 -1765,165 -1363,26 -2802,-1196 -520,-441 -621,-732 -1405,-887 -2054,-404 -1712,-344 -3370,409 -229,104 -470,206 -700,309l349 479 2663 1782 1716 379 1075 1359 847 1016 664 800 3892 -403c0,0 2454,-246 2550,-287 95,-41 3250,180 3250,180l791 756 -1066 -501 -2914 -110 -6109 728 1283 713 1276 253 1330 116 -1504 163 -1338 -214 -1194 -821 -1099 260 -911 2819 968 1269 1259 1574 628 771 -3072 -3068 -1484 -366 -1293 311 -1547 431 2746 -1064 1103 -227 440 -633 549 -1664 128 -1562 -459 -1116 -795 -789 -755 -331 -3482 -1711 -1008 -1039c-70,37 -138,76 -200,114 -52,391 299,1590 389,1986 76,330 153,661 232,979l302 1026c633,74 1689,-97 2089,362 523,597 1871,1983 2087,2595 -343,-188 -628,-634 -882,-925 -2376,-2732 -1572,-1188 -3621,-1742 -406,-952 -710,-2299 -955,-3293 -352,-1419 -306,-990 -2216,-2421 -2407,-1803 -2628,-1427 -3505,-3486 -213,-498 -388,-810 -559,-1018l-171 32 86 2138 -440 1391 -395 1916 390 1452 790 1119 871 915 306 1623 -164 1533 -184 -1370 -292 -1460 -645 -968 -774 -164 -1415 -339 -1430 -503 -646 551 -1902 891 1645 -1199 591 -414 379 -198 963 444 734 102 627 -384 -301 -1196 152 -904 418 -1653 -293 -1097 -251 -605 -1426 -649 -200 1555 -57 1259 183 1338 -641 -2057 109 -1792 46 -557 -2343 -1065 -3448 2873 -3966 311 -780 1289 100 1147 673 1294 -1070 -930 70 -1855 -711 -961 -370 -1222 -798 -63 -607 329c235,886 474,1736 737,2641 230,790 370,917 -24,1874 -845,2047 -276,1636 -1943,2905 -429,326 -1004,673 -1338,1019 -506,523 -1303,1665 -1097,2407 263,944 833,1541 565,2578 -143,556 -541,1659 -556,2089 1814,1277 1915,1403 4181,1118 1252,-157 1056,-133 2307,280 1477,488 823,1617 1909,2408 848,618 1688,1368 2405,2063 689,669 784,403 2170,375 555,-11 1505,-379 1919,-355l212 82c-1274,271 -2294,560 -3681,553 -428,-3 -1970,-1581 -2761,-2137 -753,-530 -785,-392 -1193,-1231 -325,-669 -280,-1152 -1049,-1372 -1502,-430 -1760,-179 -3110,-78l-1004 141c-70,575 20,1787 65,2397 49,666 518,1339 838,1925 378,692 617,1088 852,1902 202,698 408,1334 616,2067 350,1230 286,843 -252,2045 -244,546 -910,1705 -909,2271 2,619 236,1765 165,2396 -65,574 -874,1486 -1103,2109l605 667c2814,2997 2649,2098 5193,4240 -239,96 -1434,-828 -1669,-971 -1660,-1004 -1854,-1092 -3305,-2444 -447,-416 -1095,-997 -1442,-1362 122,-707 1121,-1783 1091,-2526 -23,-572 -346,-2261 -244,-2664 278,-1088 1347,-2447 1073,-3228l-631 -1821c-426,-1328 -1997,-3470 -2080,-4316 -45,-453 -70,-858 -117,-1360 -54,-583 50,-907 -375,-1151 -745,-428 -1660,-975 -2443,-1325 152,-500 797,-2965 750,-3332 -37,-288 -712,-2113 -930,-2386 -292,62 -1298,638 -1591,780 -441,213 -438,149 -581,693 -486,1849 60,1075 -2587,2186 -620,261 -434,548 -830,1004 -77,88 -948,756 -1054,807 214,-475 575,-558 859,-873 844,-938 -493,-531 1837,-1619 390,-183 703,-383 1130,-519l314 -1764c146,-242 1704,-1021 1994,-1210 357,-233 271,-255 685,-177l651 -1220c445,-941 692,-1387 1480,-2003 616,-482 1421,-932 1689,-1726 469,-1386 397,-1234 -28,-2559 -65,-201 -126,-388 -185,-564l-78 635 -1106 1713 -1285 1168 975 -1702 195 -1172 -371 -860 -956 18 -503 670 -1094 -433 -904 -153 -759 759 -1412 849 -1869 2802 -3613 578 -336 2603 -56 1259 182 1338 -640 -2057 108 -1792 129 -1562 735 -658c0,0 -971,-543 -1105,-565 -134,-21 -1542,-658 -1542,-658l-1274 540 963 -752c-426,-101 -1000,-164 -1268,-368l1362 220c123,-589 354,-1032 402,-1583 78,-890 -112,-849 611,-1308l71 -45 -35 -43 386 -663c-48,-579 -492,-1194 -742,-1641 70,-51 826,-848 873,-915 390,-554 -32,-1044 453,-1438 180,-146 314,-225 502,-384 179,-150 386,-354 529,-438 390,-226 1034,-22 1594,-75 742,-1179 565,-640 703,-2159 173,-346 1188,-694 1295,-1093 -19,-361 -150,-579 -105,-921 32,-249 132,-527 257,-813l-1152 -57 1333 -334c243,-505 501,-1004 545,-1375 70,-607 -276,-1777 -383,-2437 -41,-259 -76,-605 -220,-806 -192,155 -1380,932 -1612,1027 -307,126 -1832,-10 -2344,-28 -676,-23 -938,328 -1729,896 -765,549 -704,1046 -1019,1980 -349,1036 -394,1180 -992,1949 -1295,1665 -948,1554 -2857,2675 -481,282 -1282,674 -1697,1014 43,951 -5,1528 178,2474 146,754 235,2041 -324,2593 -200,197 -609,671 -757,771 -282,190 -781,235 -1144,316 -644,141 -531,214 -910,652 -218,253 -599,618 -690,890 216,232 526,475 645,804 -285,-141 -721,-573 -916,-828 177,-386 1200,-1582 1455,-1693 1155,-506 985,94 1984,-1063 425,-492 376,-388 354,-1042 -38,-1143 -290,-1680 -334,-2442 -25,-425 6,-935 -39,-1329 -620,-213 -3426,-609 -3905,-362 -1300,671 -1288,935 -2966,1182 -574,85 -1031,82 -1518,411 -174,117 -1231,781 -1293,869 -262,373 128,2995 -87,3668 -60,187 -1584,2537 -1803,2802 -323,391 -1791,2124 -2170,2340 -818,466 -2014,768 -2912,1144 -941,394 -2010,430 -2972,721l-265 95 -1225 3151c-1180,-20 -3181,-840 -4188,-414 -1276,541 -1840,601 -2906,1585 -423,391 -802,635 -1205,1104 -365,424 -736,870 -1150,1321 -870,946 -1023,2282 -1679,3352 -465,-11 -2848,-205 -3254,-573 943,167 2206,294 3119,305 339,-878 649,-1833 1094,-2692 141,-272 340,-467 523,-701 768,-985 1427,-1703 2296,-2495 1194,-1091 1431,-1044 2846,-1678 1404,-630 2385,149 3765,133 395,-4 -116,131 284,-50l1101 -3057c2124,-374 3571,-939 5484,-1768 893,-388 830,-445 1471,-1152 940,-1040 1563,-1984 2285,-3195 535,-897 359,-912 312,-2039 -24,-573 12,-1710 -127,-2165 -244,-82 -1491,-328 -1725,-323 -261,5 -844,348 -1168,494 -1314,593 -1171,446 -2741,413 -653,-13 -909,122 -1305,-262 -210,-204 -666,-772 -941,-897 -399,-179 -1332,-306 -1698,-283 -323,20 -436,90 -650,180 -205,86 -470,207 -594,96 361,-115 642,-283 988,-392 426,-135 845,49 1359,82 1441,92 1201,1007 2040,1179 273,56 2357,12 2584,-79 1934,-776 1230,-1214 3346,-834 863,155 675,163 1192,-235 229,-176 1583,-1110 1814,-1215 407,-186 1738,-302 2318,-460 301,-82 1549,-864 1895,-1080 472,-296 475,-288 1128,-207 548,68 964,90 1498,158 560,70 1442,280 1929,5l2309 -1470c276,-250 1116,-1481 1377,-1865 622,-914 634,-2985 1465,-3627l1731 -1333c436,-342 414,-487 1034,-488 170,-1 679,39 1200,51l886 -508 573 -611 -1154 -1517 1106 689c-13,-136 -24,-264 -31,-376 -53,-871 243,-1320 605,-2097 285,-612 639,-1354 922,-2121l-1825 -159 22 -124 1468 193 351 -993 -529 -376 -410 -596 368 -826 -55 -173c-530,-320 -1109,-616 -1450,-740 -985,-356 -1834,-621 -2820,-854l-533 322 -1040 1329 -1915 395 -1814 1130 1154 -1517 -538 -573c-516,360 -983,876 -1609,1805 -1698,2521 -231,1960 -2806,3072 -1172,506 -5784,1256 -6538,1212 -222,682 -349,965 -1039,1124 126,-111 158,-116 307,-201 404,-231 162,16 329,-296 523,-976 108,-696 1393,-937l4533 -960c494,-111 2022,-695 2282,-1205 646,-1264 304,-889 1338,-2585 470,-771 703,-873 1158,-1367 -4,-19 -9,-40 -16,-63l-657 -376 -1477 -854 1669 302c-136,-236 -264,-446 -329,-555 -1172,-1962 -491,-1455 -2252,-2765 -1478,-1101 -1520,-1240 -2728,-2433 -581,-574 -713,-778 -1432,-1218 -614,-375 -1090,-655 -1652,-1001 -700,-430 -908,-226 -1873,-133 -2311,222 -4719,530 -7087,533 -479,1 -537,-205 -792,-516 -1240,-1510 -946,-1434 -2878,-2356 -727,-347 -894,-649 -1395,-1224 -313,-359 -1016,-998 -1198,-1402 1065,588 1509,1848 2752,2372 1986,837 1733,702 3058,2228 316,364 255,383 749,319l2935 -320c619,-92 5305,-917 5704,-694 579,324 1201,660 1735,951 1382,754 1835,1166 2984,2269 878,843 1989,1512 3019,2173 1011,649 1333,2021 2087,2886 995,63 1863,-1195 3487,-1003 924,109 1838,256 2730,467 53,-27 93,-43 115,-44 200,-16 1988,-851 1988,-851l1661 -879 115 -948 -897 -308 -1068 -621 -1867 -558 -1213 291 -2304 691 -1809 -454 1690 -84 2258 -530 970 -907 377 -924 826 -390 -583 1005c0,0 -199,775 30,795 230,20 1217,435 1539,529 322,94 1279,474 1279,474l446 -192 -524 -805 -1512 -1979 -1217 -1954 -1202 -1358 -1252 -1165 -3060 -1255 -2949 -256 -1163 -662 -546 -939 1110 -1389 -594 1533 1260 1067 2954 190 1304 575 1983 733 603 646 157 -1801 -949 -1238 258 -307 101 -784 -1543 -860 -1868 -2439 -2689 -201 -2956 1361 -1237 -964 1274 539c0,0 1408,-637 1542,-659 134,-21 1105,-564 1105,-564l-735 -658 -129 -1562 -108 -1792 640 -2057 -182 1338 56 1259 336 2603 3613 578 1869 2803 1412 848 759 759 904 -153 1094 -433 503 670 956 17 371 -859 -195 -1172 -975 -1702 1285 1168 1106 1713 212 1735c0,0 654,453 752,461 99,9 817,104 817,104l724 393 120 -9c48,-35 93,-71 138,-107 -60,-549 -1184,-1531 -1467,-2024 -275,-478 90,-2446 -102,-2927 -84,-288 -829,-684 -1122,-893 -434,-309 -800,-549 -1255,-883l248 -1443c-770,-136 -2776,12 -3204,-260 -209,-132 -814,-739 -992,-907 -1916,-1799 -1194,-1363 -3732,-2243 -617,-214 -2026,-1027 -2520,-1428 266,-122 2129,1058 2461,1156 1285,380 1903,318 2894,1160 436,370 1719,1536 2046,1714 474,259 2487,70 3132,125 469,-2431 599,-1893 -201,-4344 -111,-339 -459,-1198 -390,-1438 41,-141 759,-1045 896,-1224 906,-1184 593,-778 -178,-2523 -223,-505 107,-1106 287,-1687 171,-550 393,-1176 513,-1824l-2522 -839c0,-323 -67,-2334 -174,-2528l-2826 275c-698,-1578 -273,-1600 -1438,-3587 -773,-1319 -1849,-3645 -2869,-4837 -1158,-1354 -1476,-2014 -2827,-2609l-1967 -953 484 -2781c114,-671 -6,-683 -323,-1200 -1971,-3214 -711,-2009 -1317,-4664 -146,-635 -968,-1664 -1010,-2235 351,261 1180,1856 1251,2294 386,2405 -123,2075 1048,3875 886,1363 913,1065 647,2623 -102,604 -143,1082 -270,1739zm159587 79887c-8,-143 -11,-290 -11,-439 0,-791 -529,-787 -832,-1268 68,-296 80,-762 224,-1071 148,-315 361,-373 474,-759 -120,-259 -415,-689 -602,-827l13 -887 -253 -77 -1481 -333 -1259 -56 -671 256 668 470 2358 4157 923 746 449 88zm-13813 7914c-34,-326 -71,-648 -84,-872 -57,-966 552,-1395 948,-2187 311,-622 -196,-1772 -554,-2322 -236,-365 -685,-772 -1008,-1136 -1257,-1414 -825,-951 -1217,-2911 -184,-917 -37,-1006 304,-1666 494,-957 939,-1844 1403,-2814 673,-1407 599,-1768 938,-3213 171,-734 -15,-711 -358,-1361 -95,-180 -184,-344 -270,-501l-4118 1063 637 2783 49 953 -20 1289 536 844 857 751 -1112 -266 -667 -834 115 -1726 -1175 -228 -1054 25 -863 -57 -1620 735 85 1741 -1523 1090 9771 10820zm-39203 -12257c-91,36 -201,79 -340,139 -665,284 -1334,553 -1941,928 -200,124 -433,292 -556,216 352,-201 540,-368 900,-578l1909 -953 5 -4 -117 -1357 -604 646 -1983 733 -1303 575 -2874 185 176 165 2106 1831 1606 1016 299 623 600 -784 1543 -860 -101 -783 -258 -308 949 -1238 -16 -192zm568 -2936l-2165 -1263 -1330 -875 -1786 -802 -2251 -465 -3051 -924 -1481 -334 -1259 -55 -671 256 668 470 1402 1331 923 745 1276 252 1169 163 510 550 257 671 -644 -571 -332 -401 -970 -147 -1041 -206 -951 -314 -586 -676 -2344 6 -2598 2007 -1306 1302 -193 145 676 -160 1350 345 2227 565 1617 -1526 1347 -447 3754 3532 164 -93 2949 -256 3059 -1255 1252 -1165 359 -405zm1310 -3115l75 35 -25 -43c258,-37 466,-71 466,-71l831 -699 68 115 -665 871 -1216 1954 -178 200 7 -129 -415 -987 -560 -744 -565 -809c0,0 1184,326 1287,383 60,33 514,-23 890,-76zm-21127 4234l333 -385 2132 -1670 1781 -1541 244 -1375 26 -516 -1449 601 -1632 966 -1315 445 -1550 1157 -513 936 1017 308 658 -24 260 1099 8 -1zm4530 -5753l64 -1282 -11727 -1017 163 709 49 953 -18 1172 476 871 57 90 857 751 -523 -125 361 661 1346 -843 108 1245 3007 -723 1550 -761 1294 -310 1108 -922 1828 -469zm-11779 -33l36 -546 -374 -72 338 618zm2166 10083l419 504 664 800 3893 -403c0,0 581,-59 1189,-123 -163,-53 -401,-117 -559,-103 -263,23 -618,120 -1073,192 -456,72 -1412,89 -1412,89l-699 -71 -1767 -210 -421 -657 -234 -18zm-1151 4269l220 -315 549 -1664 128 -1563 -339 -823 -245 -416 -208 -206 -773 651c0,0 -1302,212 -1406,154 -104,-56 -1287,-383 -1287,-383l565 809 559 744 416 987 -51 928 1872 1097zm-11228 -2669l-125 -933 -287 -1434 -1437 -436 -1481 -334 -1260 -55 -671 256 668 470 1403 1331 923 745 1276 252 991 138zm-6547 -3243l-682 319 691 -504 139 -2743 82 -964 -1159 -32 -619 87 -2052 -1208 -1983 -26 -1365 -509 -955 247 -637 1053 99 1146 674 1295 -1071 -930 70 -1855 -301 -408 -3076 794 222 968c313,90 620,241 889,288 399,68 502,-81 947,-65l-141 70c-9,5 -181,78 -196,84 -29,10 -308,81 -317,82 -300,24 -700,-58 -1116,-173l350 1529 49 953 -20 1289 536 845 857 750 -1112 -266 -667 -834 114 -1726 -1174 -228 -1054 26 -863 -58 -1620 735 85 1742 -1523 1089 1231 1690c478,4 1085,-358 2576,-967 600,-244 1072,-105 1688,114 2030,720 823,-343 2786,1497 324,304 655,735 1015,967 223,143 1175,38 1566,8 700,-53 1517,-67 2305,-58l528 -610 2133 -1670 1780 -1541 244 -1374 47 -918zm-42858 -6909c-8,-151 -16,-282 -26,-387l-229 -98c0,0 -957,380 -1279,474 -322,94 -1309,509 -1539,529 -229,20 -30,795 -30,795l583 1005 -826 -390 -377 -924 -970 -906 -1247 -293c-95,182 -185,370 -256,556 -177,467 128,1077 126,1580 -658,478 -1621,697 -1761,1629 -139,932 -1410,2087 -1448,2097 -439,-50 -410,-139 -600,-178 -833,-171 -1174,149 -1793,357l-233 1290c-232,111 -643,515 -829,771 40,443 260,552 352,926 10,39 18,79 24,121l834 -475 2948 -255 3060 -1256 1252 -1165 1202 -1358 1217 -1954 1512 -1979 333 -512zm-1144 -724l-4324 -346c-68,138 -148,285 -233,438l1173 352 1213 291 1867 -558 304 -177zm-11209 10351c-8,152 -17,296 -13,417 -75,80 -154,142 -235,195l477 1229 -826 -1033c-262,144 -493,315 -590,810 -121,612 -282,1165 -552,1699l-44 75 33 -25 2956 1361 2689 -201 1868 -2439 1543 -860 -101 -784 -258 -307 949 -1238 -157 -1801 -603 646 -1983 733 -1304 575 -2954 190 -895 758zm2300 -16040c297,-20 533,-66 617,-157 96,-135 6,168 93,-213 17,-71 28,-149 35,-232 -266,161 -567,361 -621,405 -28,23 -74,100 -124,197zm18615 -31056c11,351 -170,471 -1132,1269 -362,301 -1254,950 -1484,1261 151,610 465,1340 658,1894 394,1127 806,1468 1361,2175l889 -404 -143 -112 201 85 1803 -820 251 -605 293 -1097 -418 -1653 -152 -904 301 -1196 -627 -384 -734 102 -963 444 -104 -55zm3381 5772l98 -51c99,-195 199,-389 300,-582l-366 -327 6 19 -38 941zm10828 -13826c-231,381 -480,699 -888,1233 -513,670 -1036,1585 -1470,2374 -191,345 -786,2845 -876,3358 -91,524 -109,1128 -122,1742l498 -514 3482 -1711 755 -331 795 -789 459 -1115 -128 -1563 -549 -1664 -440 -633 -1103 -227 -413 -160zm-3377 9533c-10,263 -25,523 -50,773 -175,21 -372,55 -584,96l-1381 1895 1523 1089 -85 1742 1620 735 863 -57 1054 25 1174 -228 -32 -483 -675 -1179 635 578 -42 -642 667 -834 1112 -266 -857 750 -536 845 7 465 299 272 1106 1713 135 1100 395 -465c196,-231 574,-594 685,-769 303,-478 -29,-1733 62,-2351 131,455 383,2143 67,2537 -599,746 -945,1098 -1167,1393l36 290c0,0 653,453 751,461 99,9 817,104 817,104l725 393 797 -63 370 -1222 711 -962 -70 -1854 1070 -931 -673 1295 -100 1147 780 1289 3967 311 641 534 297 -8 -82 -964 -195 -3845 -244 -1375 -1780 -1541 -2133 -1670 -1080 -1249 671 257 1332 1006 1307 1301 2597 2008 2344 5 132 -152 -696 -506 808 378 327 -377 -954 -392 -2948 -255 -1164 -662 -546 -938 1111 -1389 -595 1532 1261 1067 2953 190 1304 575 172 63 372 -123 1042 -206 969 -147 101 -122 -862 -1125 258 -307 100 -784 -1542 -860 -1868 -2439 -2689 -200 -2956 1361 -1237 -966 1274 540c0,0 1408,-637 1542,-658 134,-22 1105,-565 1105,-565l-735 -658 -44 -537c-562,33 -1021,53 -1056,38 -96,-41 -2550,-287 -2550,-287l-3893 -403 -663 800 -847 1016 -1075 1359 -1716 379 -2663 1783 -383 526zm-1902 1155c-352,87 -697,176 -1004,254 -376,95 -333,88 -603,350 -923,895 -1345,1202 -1663,1567l1061 169 416 -382 699 -830 1094 -1128zm6036 6985l92 1 371 -859 -176 -1056 -44 855 -243 1059zm18400 -3546l-494 -459 -174 24 -963 445 -379 -198 -591 -414 -672 -490 -20 16 -1403 1331 -668 470 671 256 1260 -55 1481 -334 1952 -592zm-3074 -1253l731 343 645 551 952 -335 -260 -242 -1632 -669 -436 352zm938 -614l1428 528 445 475 178 -42 115 -1324 -1124 157 -1042 206zm11400 -1703l80 -264 4 -5 -95 56 11 213zm-64390 17271c-204,-44 -414,-88 -635,-131 -433,-86 -741,88 -1072,215 -1046,403 -1725,610 -2312,964 277,180 658,413 744,420 131,12 1322,-17 1322,-17l946 -644 1007 -807zm3113 -1335l262 79 -62 -170 -200 91zm85605 -14039l-1183 749 28 219 2513 401 668 -129 -114 -1726 619 -774c-393,-91 -854,-213 -1420,-384 -108,-33 -203,-53 -289,-70l-822 1714zm-1769 1158l-17 15 25 11 -6 -5 -2 -21zm-60668 1407l679 -593 625 -574 -746 -56c-148,304 -324,693 -558,1223zm46549 -2201c63,10 122,18 178,23 261,23 740,-167 740,-167 0,0 909,-259 1205,-368 -173,155 -508,644 -1034,680 -632,45 -454,291 -577,181 -26,-23 -80,-39 -153,-50l413 344 4329 -1968 251 -605 133 -500c-173,6 -286,7 -302,0 -96,-41 -2550,-287 -2550,-287l-3892 -404 -664 801 -353 423 2276 1897zm13507 539c209,-148 405,-279 560,-381l-75 -906 -109 -1791 641 -2057 -183 1338 57 1258 213 1658 1492 -2067c-16,-23 -31,-47 -46,-73l-1519 -2626c-112,-190 -232,-404 -357,-625l-18 12 -2398 3291 1523 1089 -85 1742 304 138zm6286 4718l600 -394 60 -35 -768 -428 -1619 -2115 -547 2385 2274 587zm1252 -775l1712 -999 1962 -1314 331 -201 -5 -8 7 7 573 -347 1551 2 -1493 465 -303 178 950 863 1025 1589 761 -448 619 87 1158 -32 -81 -964 -153 -3024c-262,-201 -476,-472 -1203,-1218 -240,-246 -489,-589 -776,-834 -680,171 -2238,1033 -2917,1383 -518,265 -563,146 -1046,-32 -2698,-996 -3233,-864 -4661,-1127l-335 293 -535 844 20 1289 -11 223 151 24 1870 2803 829 498zm4214 -2147l-2079 1218 51 929 -416 987 -43 57 519 -87 1094 -433 366 488 1185 -15 279 -645 -196 -1172 -760 -1327zm22218 4609c388,10 478,91 966,769l1111 -1020 698 -830 6 -7 -842 -202 -108 1245 -1346 -843 -485 888zm3403 -6595c-163,-381 212,-1529 433,-2048 -272,96 -467,428 -916,606 -547,217 -222,1037 29,1191 157,96 235,212 454,251zm18608 -2357l481 -18c-48,-62 -100,-125 -153,-189l-328 207zm-510 323l-678 429 -2106 1830 -1404 1320c106,385 188,827 310,1255l721 544c69,-248 378,-425 1097,-1238 1130,-1281 1655,-1219 2413,-2515 268,-457 672,-1049 913,-1563 -20,-41 -48,-89 -83,-142 -215,15 -678,47 -1183,80zm-5395 4715l-1630 1533 -1347 -447 -1617 -1526 -2227 566 -1350 344 -1747 -415 -260 1099 -582 -21 -499 685c42,240 93,481 139,720l1330 994 1315 444 1632 966 547 227 -18 -276 666 -833 1113 -267 -858 751 -501 791 2173 901 -2203 -566 16 1008 -49 952 -638 2784 2268 585c104,-25 175,-42 197,-45 134,-22 2048,-780 2048,-780l830 -1578 -222 1796 -2155 788 2231 575 1365 -508 1982 -26 616 -363c-436,-639 -870,-1309 -1242,-1905 -405,-651 -421,-441 -366,-1275 32,-475 72,-1118 141,-1588 50,-339 368,-970 503,-1328 169,-443 529,-814 233,-1247 -1602,-2350 -1363,-1320 -1834,-3515zm-6269 5581l-939 -241 -1108 -922 -1293 -310 -1369 -672c50,368 96,682 141,959l11 8 -3 42c142,842 284,1339 543,1983l994 451 863 -57 1054 25 1175 -228 -69 -1038zm-5256 -2322l-667 -161 -157 216 897 642 -73 -697zm-5369 2096l-426 781 461 87 566 -495c-68,-113 -129,-228 -183,-344 -149,-7 -286,-17 -418,-29zm7752 -5873c102,22 210,47 324,74 1293,310 3552,-616 4349,-679 798,-63 2419,1794 2966,1578 206,-82 751,-509 1375,-1047 -53,-243 -113,-517 -182,-824 -627,-2780 -527,-2363 -1564,-3782l-1113 -116 -663 801 -847 1015 -1076 1359 -1715 380 -1854 1241zm10198 -1139c645,-605 1201,-1173 1379,-1441 302,-454 1257,-1139 1870,-1552 -464,26 -819,40 -850,27 -95,-41 -2549,-287 -2549,-287l-1050 -109c198,264 356,515 421,715 281,861 524,1766 779,2647zm30178 10886l-1683 -401 -260 1100 -658 -24 -1017 308 424 773c585,-246 1160,-519 1678,-852 629,-405 1058,-676 1516,-904zm-4834 2432l-1098 -264 -109 1245 -1345 -843 -684 1252c395,320 736,623 1152,677 742,-577 1242,-1587 2084,-2067zm-4016 2820l-1479 2707c0,0 846,140 977,151 131,11 1594,270 1594,270l1583 1919 1106 515c-535,-481 -96,-571 -879,-2425 -835,-1982 -1363,-2187 -2902,-3137zm-26425 -21255l202 627 1100 260 231 -159c-49,-33 -118,-66 -234,-121 -390,-184 -852,-406 -1299,-607zm1721 947l-272 151 411 49 -87 -125 -52 -75zm6781 15904l160 22 1158 -32 -81 -964 -195 -3845 -244 -1374 -1780 -1541 -302 -236c31,98 62,197 89,297 187,674 377,649 572,1136 29,415 -1394,3109 -1025,4243 60,184 992,1465 1648,2294zm-2088 -8600l-375 -294c112,152 244,287 403,399l-28 -105z"/>
 </g>
</svg>
