<?xml version="1.0" encoding="UTF-8"?>
<!DOCTYPE svg PUBLIC "-//W3C//DTD SVG 1.0//EN" "http://www.w3.org/TR/2001/REC-SVG-20010904/DTD/svg10.dtd">
<!-- Creator: CorelDRAW X7 -->
<svg xmlns="http://www.w3.org/2000/svg" xml:space="preserve" width="50px" height="50px" version="1.0" shape-rendering="geometricPrecision" text-rendering="geometricPrecision" image-rendering="optimizeQuality" fill-rule="evenodd" clip-rule="evenodd"
viewBox="0 0 1387 1387"
 xmlns:xlink="http://www.w3.org/1999/xlink">
 <g id="Layer_x0020_1">
  <metadata id="CorelCorpID_0Corel-Layer"/>
  <rect fill="none" width="1387" height="1387"/>
  <g id="_1881357040">
   <path fill="#666666" d="M312 693l0 0 18 -304 0 -1 1 3 104 81 0 0 -98 -75 -16 280 -8 15 0 1 -1 0 0 0 0 0zm34 -46l93 -168 0 0 -93 168 0 0z"/>
   <path fill="#666666" d="M843 693l-36 -168 0 0 36 168 0 0 0 0zm8 0l0 0 93 -214 -93 214zm17 -189l69 -27 0 0 -69 27 0 0 0 0z"/>
   <path fill="#666666" d="M523 377l0 0 171 -134 0 0 -171 134zm-4 -5l-45 -126 -3 -1 -2 0 2 0 221 -9 2 0 -2 0 -1 0 -138 109 130 -102 -207 9 43 120 0 0 0 0z"/>
   <path fill="#666666" d="M442 468l0 0 -59 -148 0 0 59 148 0 0 0 0zm-11 -7l-96 -75 -4 0 -1 2 0 0 44 -77 0 0 0 0 -2 2 2 0 0 1 2 6 -38 68 93 73 0 0 0 0 0 0z"/>
   <polygon fill="#666666" points="435,472 331,391 330,388 331,386 335,386 431,461 435,470 "/>
   <path fill="#666666" d="M807 525l-88 -21 88 21zm-106 -32l0 0 161 -105 -161 105zm-7 -3l-2 0 97 -63 -95 63 0 0z"/>
   <line fill="none" x1="807" y1="525" x2="807" y2= "525" />
   <polygon fill="#666666" points="512,372 512,372 469,254 383,311 496,363 378,309 378,309 378,309 376,309 376,309 374,309 374,309 469,245 469,245 467,246 467,248 "/>
   <polygon fill="#666666" points="517,373 512,372 467,248 467,246 469,245 471,245 474,246 519,372 "/>
   <path fill="#666666" d="M374 313l-2 0 2 -2 0 2 0 0 0 0zm2 -4l0 0 2 0 0 0 -2 0 0 0 0 0z"/>
   <path fill="#666666" d="M864 377l-170 -134 170 134zm5 -5l0 0 43 -120 -207 -9 7 7 -16 -14 -2 0 0 0 0 0 222 9 2 0 -2 0 -4 1 -43 126 0 0z"/>
   <path fill="#666666" d="M694 243l0 0 0 0zm0 -7l-2 0 2 0 0 0 0 0z"/>
   <path fill="#666666" d="M943 919l-127 -49 127 49zm-129 -58l0 0 20 -91 -20 91 0 0zm-7 0l36 -168 -36 168 0 0zm107 -5l-66 -150 66 150zm5 -9l-68 -154 0 0 68 154 0 0z"/>
   <path fill="#666666" d="M843 693l0 0 0 0 0 0 0 0zm8 0l0 0 0 0 0 0z"/>
   <path fill="#666666" d="M859 997l-167 -100 167 100zm-2 -9l0 0 -50 -120 0 0 50 120 0 0zm-134 -105l84 -22 -84 22z"/>
   <line fill="none" x1="807" y1="861" x2="807" y2= "861" />
   <path fill="#666666" d="M580 525l0 0 84 -21 -84 21zm53 -19l52 -13 0 0 -52 13 0 0zm59 -16l-169 -113 0 0 169 113 0 0zm-107 -63l-61 -39 2 1 -2 -1 61 39z"/>
   <line fill="none" x1="523" y1="377" x2="523" y2= "377" />
   <polygon fill="#666666" points="692,490 692,490 694,490 "/>
   <path fill="#666666" d="M953 461l47 -113 -47 113 0 0 0 0 0 0zm31 -16l66 -48 -66 48zm30 -31l34 -26 -37 -68 3 -6 0 -1 0 0 -2 -2 0 0 2 0 43 77 0 0 -2 -2 -3 0 -38 28 0 0 0 0z"/>
   <path fill="#666666" d="M535 693l-91 -205 91 205 0 0zm9 0l0 0 36 -168 0 0 -36 168 0 0 0 0zm-5 -10l0 0 34 -158 -34 158zm32 -167l-129 -48 129 48 0 0 0 0 0 0z"/>
   <line fill="none" x1="442" y1="468" x2="442" y2= "468" />
   <line fill="none" x1="580" y1="525" x2="580" y2= "525" />
   <path fill="#666666" d="M524 988l0 0 31 -18 -31 18zm8 -30l39 -88 0 0 -39 88 0 0zm151 -63l-69 -18 69 18zm-21 -14l-82 -20 82 20z"/>
   <path fill="#666666" d="M444 919l0 0 55 -22 -55 22zm12 -45l79 -181 -79 181zm117 -13l-34 -155 0 -2 34 157 0 0z"/>
   <line fill="none" x1="535" y1="693" x2="535" y2= "693" />
   <polygon fill="#666666" points="580,861 580,861 544,693 544,693 "/>
   <line fill="#666666" x1="544" y1="693" x2="544" y2= "693" />
   <line fill="none" x1="580" y1="861" x2="580" y2= "861" />
   <path fill="#666666" d="M876 372l43 -124 0 -2 -1 -1 0 0 94 64 0 0 0 0 -1 0 -2 0 0 0 -133 63 0 0 0 0zm42 -118l-42 118 127 -61 -85 -57 0 0 0 0zm48 84l37 -18 0 0 -37 18 0 0 0 0z"/>
   <polygon fill="#666666" points="871,373 869,372 912,246 916,245 918,245 919,246 919,248 876,372 "/>
   <path fill="#666666" d="M1014 313l-2 -2 2 2 0 0zm-2 -4l-3 0 2 0 1 0 0 0z"/>
   <path fill="#666666" d="M694 1151l-2 0 -221 -7 0 0 0 0 0 0 3 -4 2 -3 207 7 8 7 3 0 0 0 0 0zm0 -7l-111 -95 111 95zm-21 -9l-154 -132 -7 21 7 -21 154 132zm-204 -2l0 0 43 -129 0 0 -43 129 0 0z"/>
   <path fill="#666666" d="M694 1151l0 0 2 0 166 -147 38 140 2 3 1 0 0 0 0 0 -209 4 0 0 0 0zm168 -147l-159 140 195 -4 -36 -136 0 0zm-27 13l24 -20 -24 20z"/>
   <path fill="#666666" d="M1012 1078l0 -2 2 -2 0 0 0 0 -61 -148 0 0 58 141 37 -68 -91 -70 95 72 1 2 2 -2 2 -2 0 2 -43 75 -2 2 0 0 0 0zm38 -86l-100 -79 100 79 0 0 0 0z"/>
   <polygon fill="#666666" points="903,1147 907,1145 907,1142 869,1004 982,1063 869,1004 905,1138 1003,1076 1009,1078 1011,1078 1011,1078 1011,1078 1012,1078 1012,1078 905,1145 "/>
   <polygon fill="#666666" points="903,1147 902,1147 900,1144 862,1004 864,1001 869,1004 907,1142 907,1145 "/>
   <path fill="#666666" d="M1011 1078l0 0 0 0 0 0 0 0zm1 -2l2 -2 0 0 -2 2 0 0 0 0z"/>
   <path fill="#666666" d="M1068 693l-124 -214 124 214zm7 0l0 0 0 -1 -9 -13 -16 -284 5 -4 2 -3 0 1 18 304 0 0 0 0 0 0zm-125 -221l0 0 34 -27 -34 27zm3 -11l0 0 61 -47 -61 47z"/>
   <polygon fill="#666666" points="950,472 948,470 953,461 953,461 1014,414 1052,386 1055,386 1057,388 1055,391 1050,397 984,445 "/>
   <path fill="#666666" d="M1057 999l-2 -4 -5 -3 16 -283 -116 204 0 0 125 -218 0 -2 0 0 0 0 -18 306 0 0 0 0 0 0zm-100 -70l-4 -3 4 3z"/>
   <polygon fill="#666666" points="1053,1003 1052,1001 957,929 953,926 953,926 948,915 950,913 950,913 1050,992 1050,992 1055,995 1057,999 1055,1001 "/>
   <line fill="none" x1="1075" y1="693" x2="1075" y2= "693" />
   <path fill="#666666" d="M471 1144l-2 -2 -95 -64 0 0 2 0 2 0 5 -2 86 57 -2 5 0 4 4 2 0 0 0 0zm5 -7l0 0 36 -113 -36 113zm-93 -70l0 0 31 -16 -31 16zm120 -57l9 -6 -9 6z"/>
   <polygon fill="#666666" points="471,1144 471,1144 467,1142 467,1138 469,1133 512,1004 512,1004 517,1001 519,1003 512,1024 476,1137 474,1140 "/>
   <path fill="#666666" d="M330 999l0 0 -18 -306 0 0 1 0 0 2 8 14 16 283 -6 3 -1 4 0 0 0 0zm107 -86l-54 -95 54 95zm3 -5l-119 -215 0 0 121 215 -2 0 0 0z"/>
   <polygon fill="#666666" points="313,693 312,693 "/>
   <polygon fill="#666666" points="338,999 338,999 433,926 433,926 "/>
   <polygon fill="#666666" points="374,1078 374,1076 330,1001 330,999 331,1001 333,1003 335,1001 338,999 376,1067 433,926 433,926 374,1074 374,1074 372,1074 374,1076 "/>
   <polygon fill="#666666" points="374,1076 372,1074 374,1074 "/>
   <polygon fill="#666666" points="337,992 337,992 437,913 "/>
   <polygon fill="#666666" points="333,1003 331,1001 330,999 331,995 337,992 437,913 439,915 433,926 433,926 433,926 338,999 338,999 335,1001 "/>
   <path fill="#666666" d="M703 895l0 0 104 -27 0 0 -104 27 0 0 0 0zm-11 -5l-30 -9 30 9 31 -7 -31 7zm142 -120l14 -64 -14 64zm14 -87l-34 -158 34 158zm-41 -165l-106 -25 0 0 106 25 0 0 0 0 0 0zm-227 0l0 0 53 -12 -53 12zm84 -14l28 -7 27 7 -27 -7 -28 7z"/>
   <polygon fill="#666666" points="843,693 807,525 809,525 809,525 810,525 814,525 848,683 844,692 844,693 844,693 "/>
   <polygon fill="#666666" points="807,525 719,504 692,497 694,497 694,497 696,497 701,493 701,493 807,518 807,522 807,522 807,524 "/>
   <polygon fill="#666666" points="809,525 809,525 807,525 807,525 807,524 807,522 807,525 "/>
   <polygon fill="#666666" points="814,863 810,861 809,861 809,861 807,861 843,693 844,695 844,695 844,695 848,706 834,770 "/>
   <polygon fill="#666666" points="844,695 844,695 843,693 843,693 843,693 844,693 844,693 "/>
   <polygon fill="#666666" points="703,895 696,890 694,890 694,890 692,890 723,883 807,861 807,863 807,865 807,865 807,868 807,868 807,868 "/>
   <polygon fill="#666666" points="807,865 807,863 807,861 807,861 809,861 809,861 807,861 "/>
   <polygon fill="#666666" points="580,525 580,524 580,522 580,522 580,518 633,506 685,493 691,497 692,497 692,497 692,497 664,504 "/>
   <polygon fill="#666666" points="692,497 692,497 692,497 692,497 694,497 694,497 "/>
   <polygon fill="#666666" points="544,693 542,693 542,693 542,692 539,683 573,525 576,525 576,525 578,525 580,525 "/>
   <polygon fill="#666666" points="576,525 580,525 580,522 580,524 580,525 580,525 578,525 "/>
   <polygon fill="#666666" points="614,877 580,868 580,868 "/>
   <polygon fill="#666666" points="683,895 614,877 580,868 580,867 580,865 580,863 580,861 662,881 692,890 692,890 692,890 691,890 "/>
   <polygon fill="#666666" points="694,890 692,890 692,890 692,890 "/>
   <polygon fill="#666666" points="573,863 539,706 542,695 542,695 542,695 544,693 580,861 578,861 576,861 576,861 "/>
   <polygon fill="#666666" points="542,695 542,693 542,693 544,693 544,693 544,693 "/>
   <polygon fill="#666666" points="580,865 580,861 576,861 578,861 580,861 580,861 580,863 "/>
   <path fill="#666666" d="M683 1144l0 0 -10 -9 10 9zm11 0l0 0 141 -127 -141 127 0 0zm-111 -95l-60 -52 169 -100 0 0 -169 100 60 52 0 0zm274 -61l-154 -93 0 0 154 93 0 0 0 0z"/>
   <polygon fill="#666666" points="859,997 692,897 692,897 694,897 703,895 857,988 857,988 857,988 860,995 "/>
   <polygon fill="#666666" points="555,970 683,895 683,895 "/>
   <polygon fill="#666666" points="523,997 521,995 524,988 555,970 683,895 683,895 692,897 692,897 "/>
   <polygon fill="#666666" points="692,897 692,897 692,897 692,897 694,897 694,897 "/>
   <polygon fill="#666666" points="694,1151 694,1151 691,1151 683,1144 673,1135 519,1003 521,999 523,997 583,1049 694,1144 694,1144 691,1145 691,1149 "/>
   <polygon fill="#666666" points="521,999 521,999 521,995 523,997 "/>
   <polygon fill="#666666" points="694,1151 694,1151 696,1149 696,1145 694,1144 835,1017 859,997 860,999 862,1004 696,1151 "/>
   <polygon fill="#666666" points="860,999 859,997 860,995 "/>
   <polygon fill="#666666" points="694,1151 694,1151 691,1149 691,1145 694,1144 696,1145 696,1149 "/>
   <polygon fill="#666666" points="862,1004 860,999 862,1001 862,1001 864,1001 "/>
   <polygon fill="#666666" points="862,1001 862,1001 860,999 860,999 860,999 "/>
   <polygon fill="#666666" points="519,1003 517,1001 519,1001 519,1001 521,999 "/>
   <polygon fill="#666666" points="519,1001 521,999 521,999 521,999 "/>
   <line fill="none" x1="703" y1="895" x2="703" y2= "895" />
   <polygon fill="#666666" points="694,897 696,897 696,893 694,890 696,890 703,895 "/>
   <polygon fill="#666666" points="692,897 683,895 691,890 692,890 689,893 691,897 "/>
   <polygon fill="#666666" points="692,897 692,897 692,897 691,897 689,893 692,890 694,890 696,893 696,897 694,897 694,897 "/>
   <path fill="#666666" d="M685 493l-100 -66 100 66zm104 -66l75 -50 0 0 -75 50zm80 -55l-157 -122 157 122zm-350 0l0 0 34 -27 -34 27z"/>
   <polygon fill="#666666" points="523,377 521,375 519,372 553,345 691,236 692,236 691,238 691,241 694,243 "/>
   <polygon fill="#666666" points="701,493 694,491 694,490 789,427 864,377 866,379 862,388 "/>
   <polygon fill="#666666" points="521,375 519,375 519,375 519,375 517,373 519,372 "/>
   <polygon fill="#666666" points="864,377 864,377 694,243 696,241 696,238 694,236 696,236 712,250 869,372 869,372 868,375 "/>
   <polygon fill="#666666" points="694,243 694,243 691,241 691,238 692,236 694,236 696,238 696,241 "/>
   <polygon fill="#666666" points="866,379 864,377 868,375 868,377 "/>
   <polygon fill="#666666" points="685,493 685,493 585,427 524,388 521,379 523,377 692,490 692,491 "/>
   <polygon fill="#666666" points="521,379 521,377 521,375 523,377 523,377 "/>
   <polygon fill="#666666" points="692,491 692,490 694,490 694,491 694,490 692,490 "/>
   <polygon fill="#666666" points="521,377 519,375 519,375 521,375 "/>
   <polygon fill="#666666" points="868,375 869,372 871,373 869,375 869,375 869,375 "/>
   <polygon fill="#666666" points="868,377 868,375 869,375 869,375 "/>
   <polygon fill="#666666" points="694,497 696,495 696,491 694,491 701,493 696,497 "/>
   <polygon fill="#666666" points="692,497 691,497 685,493 692,491 691,491 691,495 "/>
   <polygon fill="#666666" points="692,497 692,497 691,495 691,491 692,491 692,490 694,490 694,491 696,491 696,495 694,497 "/>
   <path fill="#666666" d="M1012 1078l0 0 0 0 0 0 0 0 0 0zm-9 -2l-21 -13 21 13zm0 -9l-135 -72 -52 -125 0 0 52 125 135 72 -60 -148 0 0 60 148 0 0 0 0zm-66 -159l-123 -45 0 0 123 45 0 0 0 0z"/>
   <polygon fill="#666666" points="943,919 943,919 816,870 816,870 814,865 814,863 814,863 814,863 937,908 941,917 941,917 "/>
   <polygon fill="#666666" points="868,995 866,994 866,994 857,988 807,868 809,868 816,870 "/>
   <polygon fill="#666666" points="816,870 809,868 810,868 812,865 814,865 "/>
   <path fill="#666666" d="M1012 1078l0 -2 0 2 0 0 0 0 0 0zm2 -4l-2 -2 -9 -5 -60 -148 0 0 10 7 61 148 0 0 0 0 0 0z"/>
   <polygon fill="#666666" points="943,919 943,919 941,917 943,917 "/>
   <path fill="#666666" d="M1011 1078l0 0 1 0 0 0 -1 0 0 0zm0 0l-2 0 -6 -2 -21 -13 -113 -59 -1 -9 0 0 0 0 0 0 135 72 4 9 4 2 0 0 0 0z"/>
   <polygon fill="#666666" points="868,995 868,995 866,994 "/>
   <polygon fill="#666666" points="869,1004 864,1001 866,999 866,999 866,999 868,997 868,995 868,995 868,995 "/>
   <path fill="#666666" d="M866 999l0 0 0 0zm2 -4l0 0 0 0 0 0 0 0 0 0z"/>
   <polygon fill="#666666" points="1011,1078 1011,1078 1011,1078 1007,1076 1003,1067 1012,1072 1014,1074 1012,1076 1012,1078 "/>
   <polygon fill="#666666" points="953,926 943,919 943,919 944,919 948,917 948,917 948,917 948,915 "/>
   <path fill="#666666" d="M944 919l-1 0 0 0 0 0 0 -2 1 2 0 0 0 0zm0 0l4 -2 0 0 -4 2z"/>
   <polygon fill="#666666" points="814,865 812,863 809,861 810,861 814,863 "/>
   <polygon fill="#666666" points="807,868 807,865 807,865 809,868 809,868 "/>
   <polygon fill="#666666" points="809,868 809,868 807,865 807,861 809,861 812,863 814,865 812,865 810,868 "/>
   <polygon fill="#666666" points="860,995 857,988 866,994 866,994 866,994 866,994 866,994 862,994 862,994 862,994 862,994 "/>
   <path fill="#666666" d="M860 999l0 -4 2 -1 0 0 -2 3 0 2 0 0zm2 -5l4 0 0 0 -4 0 0 0z"/>
   <path fill="#666666" d="M868 995l-2 -1 0 0 0 0 2 1 0 0zm-6 -1l0 0 0 0 0 0 0 0z"/>
   <path fill="#666666" d="M864 1001l-2 0 2 0 2 -2 -2 2 0 0zm2 -2l2 -4 0 2 -2 2 0 0 0 0 0 0z"/>
   <polygon fill="#666666" points="864,1001 862,1001 860,999 860,999 860,997 862,994 862,994 866,994 868,995 868,995 866,999 866,999 "/>
   <path fill="#666666" d="M814 525l0 0 54 -21 -54 21 0 0 0 0zm-7 -7l0 0 55 -130 -55 130zm9 -2l57 -135 93 -43 -93 43 -57 135 127 -48 60 -148 0 0 -60 148 -127 48 0 0 0 0zm184 -168l11 -28 -11 28zm12 -37l0 0 0 -2 0 0 0 2 0 0z"/>
   <polygon fill="#666666" points="814,525 814,524 816,516 943,468 941,470 941,470 937,477 868,504 "/>
   <polygon fill="#666666" points="809,518 807,518 862,388 873,381 873,381 816,516 "/>
   <polygon fill="#666666" points="814,524 812,522 810,520 809,518 816,516 "/>
   <path fill="#666666" d="M943 468l60 -148 9 -4 2 -3 0 1 -3 6 -11 28 -47 113 -10 7 0 0 0 0 0 0zm69 -157l0 0 0 0 0 0 0 0z"/>
   <polygon fill="#666666" points="941,470 943,468 943,468 943,468 943,468 "/>
   <path fill="#666666" d="M873 381l0 -2 0 0 0 0 3 -7 133 -63 0 0 -2 2 -4 9 0 0 0 0 -37 18 -93 43 0 0 0 0zm139 -70l0 -2 0 0 0 2 0 0z"/>
   <polygon fill="#666666" points="873,381 873,381 873,381 873,379 873,379 "/>
   <polygon fill="#666666" points="873,379 873,379 875,379 873,375 873,375 873,375 873,375 871,373 876,372 "/>
   <path fill="#666666" d="M873 381l0 -2 0 0 0 2zm0 -6l0 0 0 0 0 0z"/>
   <polygon fill="#666666" points="1003,320 1007,311 1009,309 1012,309 1012,311 1012,311 1014,313 1012,316 "/>
   <polygon fill="#666666" points="948,470 948,470 948,468 948,468 946,468 944,468 944,468 943,468 943,468 953,461 "/>
   <path fill="#666666" d="M948 468l-2 0 2 0 0 0 0 0 0 0zm-5 0l0 0 0 0 0 0 1 0 -1 0 0 0 0 0z"/>
   <path fill="#666666" d="M814 525l0 0 0 0zm-7 -7l0 0 0 0 0 0z"/>
   <polygon fill="#666666" points="809,525 809,525 812,524 814,524 814,525 814,525 810,525 "/>
   <polygon fill="#666666" points="807,522 807,522 807,518 807,518 809,518 809,520 "/>
   <polygon fill="#666666" points="809,525 809,525 807,525 807,522 809,520 809,518 810,520 812,522 814,524 812,524 "/>
   <polygon fill="#666666" points="862,388 866,379 868,381 871,381 871,381 871,381 871,381 873,381 "/>
   <path fill="#666666" d="M871 381l-3 0 -2 -2 2 -2 0 0 0 4 3 0 0 0 0 0zm0 0l0 0 0 0 0 0 0 0z"/>
   <polygon fill="#666666" points="871,381 873,381 873,381 873,381 "/>
   <path fill="#666666" d="M873 379l0 -4 2 4 -2 0 0 0 0 0zm0 -4l-4 0 0 0 2 -2 2 2 0 0 0 0 0 0z"/>
   <polygon fill="#666666" points="871,381 871,381 868,381 868,377 868,377 869,375 873,375 873,375 873,379 873,381 "/>
   <path fill="#666666" d="M573 525l-127 -48 127 48 0 0 0 0zm7 -7l-54 -129 54 129zm-9 -2l0 0 -57 -135 -131 -61 0 0 131 61 57 135 0 0 0 0zm-140 -55l0 0 -55 -139 0 -2 55 141 0 0 0 0zm81 -89l-16 -9 16 9zm-138 -61l0 -2 0 0 0 2 0 0 0 0z"/>
   <path fill="#666666" d="M442 468l-2 0 -9 -7 0 0 0 0 -55 -141 0 0 -2 -6 0 -1 2 3 7 4 0 0 0 0 59 148 0 0 0 0zm-68 -157l0 0 0 0 0 0 0 0z"/>
   <polygon fill="#666666" points="435,470 431,461 440,468 440,468 440,468 439,468 439,468 437,468 437,468 437,470 "/>
   <path fill="#666666" d="M514 381l-131 -61 -3 -9 -2 -2 0 0 118 54 16 9 0 0 2 7 0 0 0 0 1 2 -1 0 0 0zm-140 -70l0 -2 2 0 -2 2 0 0 0 0z"/>
   <polygon fill="#666666" points="514,379 514,379 512,372 517,373 515,375 515,375 515,375 515,375 "/>
   <polygon fill="#666666" points="383,320 376,316 374,313 374,311 374,311 376,309 378,309 380,311 "/>
   <polygon fill="#666666" points="578,518 571,516 514,381 515,381 524,388 526,389 580,518 "/>
   <polygon fill="#666666" points="515,381 514,381 514,379 514,379 "/>
   <path fill="#666666" d="M515 381l-1 -2 0 0 1 2 0 0zm0 -6l0 0 0 0 0 0z"/>
   <polygon fill="#666666" points="573,525 573,525 573,525 446,477 442,470 442,468 571,516 571,516 571,516 573,524 "/>
   <polygon fill="#666666" points="442,470 442,470 442,468 442,468 440,468 442,468 442,468 442,468 "/>
   <path fill="#666666" d="M437 468l0 0 2 0 -2 0 0 0zm5 0l-2 0 0 0 0 0 2 0 0 0 0 0 0 0z"/>
   <polygon fill="#666666" points="573,524 571,516 578,518 576,520 574,522 "/>
   <line fill="none" x1="580" y1="518" x2="580" y2= "518" />
   <polygon fill="#666666" points="580,522 578,520 578,518 580,518 580,518 580,518 "/>
   <polygon fill="#666666" points="576,525 576,525 573,525 573,524 574,524 "/>
   <polygon fill="#666666" points="576,525 574,524 573,524 574,522 576,520 578,518 578,520 580,522 580,525 "/>
   <path fill="#666666" d="M514 379l0 0 1 -4 -1 4 0 0zm1 -4l0 0 2 -2 2 2 0 0 -4 0 0 0 0 0z"/>
   <polygon fill="#666666" points="524,388 515,381 515,381 515,381 515,381 517,381 519,381 519,381 519,381 521,379 "/>
   <path fill="#666666" d="M517 381l-2 0 0 0 2 0 0 0 0 0zm0 0l2 0 0 0 -2 0 0 0 0 0zm2 0l2 -4 0 0 0 2 -2 2 0 0 0 0z"/>
   <path fill="#666666" d="M515 381l0 0 0 0 0 0 0 -2 0 2 0 0 0 0zm4 0l0 0 0 0z"/>
   <polygon fill="#666666" points="517,381 517,381 515,381 515,381 514,379 515,375 515,375 519,375 521,377 521,377 519,381 519,381 "/>
   <path fill="#666666" d="M374 1078l0 0 0 0 0 0 0 0zm9 -2l0 0 120 -66 -120 66zm0 -9l61 -148 -61 148 0 0 0 0zm31 -16l100 -56 18 -37 -18 37 -100 56zm110 -63l56 -120 -56 120zm-76 -80l0 0 125 -47 0 2 -125 45zm51 -11l72 -27 -72 27z"/>
   <polygon fill="#666666" points="514,995 532,958 571,870 571,870 578,868 580,868 524,988 515,994 515,994 "/>
   <polygon fill="#666666" points="444,919 446,917 446,917 448,908 573,863 573,863 573,865 571,870 499,897 "/>
   <polygon fill="#666666" points="571,870 573,865 574,865 576,868 578,868 "/>
   <polygon fill="#666666" points="376,1078 374,1078 374,1078 376,1078 380,1076 383,1067 383,1067 414,1051 514,995 514,995 514,995 514,995 512,1004 503,1010 383,1076 378,1078 "/>
   <polygon fill="#666666" points="514,995 514,995 514,995 515,994 515,994 515,994 515,995 "/>
   <polygon fill="#666666" points="512,1004 514,995 514,995 514,995 514,997 515,999 515,999 515,999 515,999 517,1001 "/>
   <path fill="#666666" d="M515 999l0 0 0 0 0 0zm-1 -4l0 0 1 0 -1 0z"/>
   <path fill="#666666" d="M374 1078l0 0 0 -2 0 2 0 0 0 0zm0 -4l0 0 59 -148 11 -7 0 0 -61 148 -9 5 0 2 0 0 0 0z"/>
   <polygon fill="#666666" points="444,919 444,919 444,917 446,917 "/>
   <polygon fill="#666666" points="376,1078 374,1078 374,1076 374,1074 374,1072 383,1067 380,1076 "/>
   <polygon fill="#666666" points="433,926 439,915 439,917 439,917 439,917 442,919 442,919 444,919 "/>
   <path fill="#666666" d="M442 919l-3 -2 0 0 3 2 0 0 0 0zm0 0l2 -2 0 2 0 0 -2 0 0 0 0 0 0 0z"/>
   <line fill="none" x1="580" y1="868" x2="580" y2= "868" />
   <polygon fill="#666666" points="580,868 578,868 578,868 580,865 580,867 "/>
   <polygon fill="#666666" points="573,865 573,863 576,861 576,861 574,863 "/>
   <polygon fill="#666666" points="578,868 576,868 574,865 573,865 574,863 576,861 580,861 580,865 "/>
   <polygon fill="#666666" points="521,995 519,994 515,994 515,994 515,994 524,988 "/>
   <polygon fill="#666666" points="521,999 521,999 519,994 515,994 515,994 519,994 521,995 "/>
   <polygon fill="#666666" points="515,995 515,994 515,994 515,994 "/>
   <path fill="#666666" d="M517 1001l-2 -2 0 0 2 2 2 0 0 0 -2 0 0 0 0 0zm-2 -2l-1 -2 0 -2 1 4 0 0 0 0z"/>
   <polygon fill="#666666" points="517,1001 515,999 515,999 514,995 515,995 515,994 519,994 521,999 521,999 521,999 519,1001 "/>
   <path fill="#666666" d="M937 908l0 0 -23 -52 23 52zm7 0l-26 -61 26 61 124 -215 -124 215 0 0 0 0zm-96 -225l0 0 89 -206 0 0 -89 206 0 0 0 0zm218 -4l-116 -207 116 207 0 0 0 0z"/>
   <polygon fill="#666666" points="851,693 850,692 848,683 937,477 937,477 937,477 943,475 944,479 "/>
   <polygon fill="#666666" points="943,911 937,908 914,856 848,706 850,695 851,693 919,847 944,908 "/>
   <polygon fill="#666666" points="850,695 850,695 850,693 850,692 851,693 851,693 "/>
   <polygon fill="#666666" points="1068,693 1068,693 944,479 948,473 950,472 1066,679 1066,679 1075,692 1075,693 1071,690 1068,692 "/>
   <polygon fill="#666666" points="944,479 943,475 946,473 946,473 946,473 948,473 "/>
   <polygon fill="#666666" points="948,473 948,472 948,472 948,470 950,472 "/>
   <polygon fill="#666666" points="946,473 948,472 948,472 948,473 "/>
   <polygon fill="#666666" points="950,913 948,913 944,908 1068,693 1068,695 1071,697 1071,697 1075,693 1075,695 "/>
   <polygon fill="#666666" points="948,913 946,911 946,911 946,911 943,911 944,908 "/>
   <polygon fill="#666666" points="948,915 948,913 948,913 948,913 950,913 "/>
   <polygon fill="#666666" points="948,913 946,911 946,911 "/>
   <polygon fill="#666666" points="1071,697 1068,695 1068,693 1068,692 1071,690 1075,693 1075,693 "/>
   <polygon fill="#666666" points="844,693 844,692 848,683 850,692 850,692 846,690 "/>
   <polygon fill="#666666" points="848,706 844,695 844,695 846,697 846,697 850,695 850,695 "/>
   <polygon fill="#666666" points="846,697 846,697 844,695 844,693 846,690 850,692 850,692 850,693 850,695 850,695 850,695 "/>
   <line fill="none" x1="937" y1="908" x2="937" y2= "908" />
   <polygon fill="#666666" points="941,917 941,917 937,908 937,908 943,911 941,913 943,915 "/>
   <polygon fill="#666666" points="943,917 941,917 941,917 943,915 "/>
   <polygon fill="#666666" points="943,915 941,913 943,911 946,911 946,911 943,911 "/>
   <polygon fill="#666666" points="948,917 948,913 948,915 "/>
   <polygon fill="#666666" points="944,919 944,919 943,917 943,915 943,911 946,911 948,913 948,917 "/>
   <polygon fill="#666666" points="937,477 941,470 941,470 941,470 943,472 941,473 943,475 "/>
   <polygon fill="#666666" points="943,472 941,470 941,470 943,468 "/>
   <polygon fill="#666666" points="943,475 941,473 943,472 943,473 944,475 946,473 946,473 "/>
   <path fill="#666666" d="M948 472l0 -4 0 2 0 0 0 2 0 0zm-2 -4l-2 0 0 0 2 0 0 0 0 0z"/>
   <polygon fill="#666666" points="944,475 943,473 943,472 943,468 944,468 946,468 948,468 948,472 946,473 "/>
   <path fill="#666666" d="M448 908l91 -202 0 0 -91 202 0 0 0 0zm-8 0l0 0 16 -34 -16 34zm-57 -90l-62 -109 0 -1 62 110 0 0 0 0zm-62 -125l0 0 25 -46 -25 46zm218 -10l-93 -206 93 206 0 0 0 0zm-218 -4l0 0 114 -207 0 0 -114 207 0 0 0 0zm121 -191l-3 -9 3 9z"/>
   <polygon fill="#666666" points="321,693 319,692 315,690 313,693 313,692 321,679 321,679 435,472 435,472 435,472 437,473 439,479 439,479 346,647 "/>
   <polygon fill="#666666" points="437,473 435,472 435,470 435,472 437,472 437,472 "/>
   <polygon fill="#666666" points="535,693 444,488 439,479 440,475 446,477 539,683 539,683 537,692 "/>
   <polygon fill="#666666" points="439,479 437,473 437,473 437,473 439,473 440,475 "/>
   <polygon fill="#666666" points="437,473 437,473 437,473 437,472 437,472 "/>
   <polygon fill="#666666" points="444,911 440,908 456,874 535,693 537,695 539,706 539,706 539,706 448,908 "/>
   <polygon fill="#666666" points="537,695 535,693 535,693 537,692 537,693 "/>
   <polygon fill="#666666" points="437,913 383,818 321,709 321,709 313,695 313,693 315,697 315,697 319,695 321,693 321,693 440,908 440,908 439,913 "/>
   <polygon fill="#666666" points="315,697 315,697 313,693 313,693 315,690 319,692 321,693 319,695 "/>
   <polygon fill="#666666" points="439,913 440,908 444,911 440,911 440,911 440,911 "/>
   <polygon fill="#666666" points="439,915 437,913 439,913 439,913 439,913 439,913 "/>
   <polygon fill="#666666" points="439,913 439,913 439,913 440,911 440,911 "/>
   <polygon fill="#666666" points="542,693 540,690 537,692 537,692 539,683 542,692 "/>
   <polygon fill="#666666" points="539,706 537,695 537,695 540,697 540,697 542,695 542,695 "/>
   <polygon fill="#666666" points="540,697 540,697 537,695 537,695 537,695 537,693 537,692 537,692 540,690 542,693 542,695 "/>
   <line fill="none" x1="446" y1="477" x2="446" y2= "477" />
   <path fill="#666666" d="M437 472l-2 0 0 -2 2 0 0 -2 0 4 0 0 0 0zm2 -4l0 0 1 0 -1 0 0 0z"/>
   <polygon fill="#666666" points="446,477 446,477 446,477 440,475 442,473 442,472 442,470 "/>
   <polygon fill="#666666" points="440,475 439,473 437,473 439,475 442,473 442,472 442,473 "/>
   <polygon fill="#666666" points="442,472 442,468 442,470 442,470 "/>
   <polygon fill="#666666" points="439,475 437,473 437,472 437,468 439,468 440,468 442,468 442,472 442,473 "/>
   <line fill="none" x1="448" y1="908" x2="448" y2= "908" />
   <polygon fill="#666666" points="446,917 446,917 444,915 444,913 444,911 448,908 448,908 "/>
   <polygon fill="#666666" points="444,915 444,911 440,911 440,911 444,911 444,913 "/>
   <polygon fill="#666666" points="444,917 444,915 446,917 446,917 "/>
   <polygon fill="#666666" points="439,917 439,917 439,915 439,913 439,913 "/>
   <polygon fill="#666666" points="442,919 442,919 439,917 439,913 440,911 444,911 444,915 444,917 "/>
  </g>
 </g>
</svg>
