<?xml version="1.0" encoding="UTF-8"?>
<!DOCTYPE svg PUBLIC "-//W3C//DTD SVG 1.0//EN" "http://www.w3.org/TR/2001/REC-SVG-20010904/DTD/svg10.dtd">
<!-- Creator: CorelDRAW X7 -->
<svg xmlns="http://www.w3.org/2000/svg" xml:space="preserve" width="40px" height="40px" version="1.0" shape-rendering="geometricPrecision" text-rendering="geometricPrecision" image-rendering="optimizeQuality" fill-rule="evenodd" clip-rule="evenodd"
viewBox="0 0 3586 3586"
 xmlns:xlink="http://www.w3.org/1999/xlink"
 enable-background="new 0 0 100 100">
 <g id="Layer_x0020_1">
  <metadata id="CorelCorpID_0Corel-Layer"/>
  <rect fill="none" width="3586" height="3586"/>
  <g id="_1190312624">
   <path fill="black" d="M2357 1614c0,-311 -253,-564 -564,-564 -311,0 -564,253 -564,564 0,247 159,458 381,534l146 351c21,49 54,49 74,0l147 -351c221,-77 380,-287 380,-534zm-564 367c-202,0 -366,-165 -366,-367 0,-202 164,-366 366,-366 202,0 366,164 366,366 0,202 -164,367 -366,367z"/>
  </g>
 </g>
</svg>
