<?xml version="1.0" encoding="UTF-8"?>
<!DOCTYPE svg PUBLIC "-//W3C//DTD SVG 1.0//EN" "http://www.w3.org/TR/2001/REC-SVG-20010904/DTD/svg10.dtd">
<!-- Creator: CorelDRAW X7 -->
<svg xmlns="http://www.w3.org/2000/svg" xml:space="preserve" width="40px" height="40px" version="1.0" shape-rendering="geometricPrecision" text-rendering="geometricPrecision" image-rendering="optimizeQuality" fill-rule="evenodd" clip-rule="evenodd"
viewBox="0 0 4619 4619"
 xmlns:xlink="http://www.w3.org/1999/xlink"
 enable-background="new 0 0 100 100">
 <g id="Layer_x0020_1">
  <metadata id="CorelCorpID_0Corel-Layer"/>
  <rect fill="none" width="4619" height="4619"/>
  <g id="_1212081776">
   <g>
    <path fill="black" d="M2750 3044l-35 0 0 -91c0,-21 -17,-38 -38,-38l-41 0 0 -304c0,-98 -49,-187 -132,-240l-95 -61 5 -5 90 -57c83,-52 132,-142 132,-240l0 -304 41 0c21,0 38,-17 38,-38l0 -91 35 0c21,0 38,-17 38,-38 0,-21 -17,-38 -38,-38l-881 0c-21,0 -38,17 -38,38 0,21 17,38 38,38l35 0 0 91c0,21 17,38 38,38l41 0 0 304c0,98 49,188 132,240l79 50 15 13 -94 60c-83,53 -132,142 -132,240l0 304 -41 0c-21,0 -38,17 -38,38l0 91 -35 0c-21,0 -38,17 -38,38 0,21 17,38 38,38l881 0c21,0 38,-17 38,-38 0,-21 -17,-38 -38,-38l0 0zm-190 -433l0 11 -212 -84 0 -177c2,2 4,3 7,5l108 69c61,39 97,105 97,176l0 0zm0 -907l0 304c0,32 -7,62 -20,90l-461 0c-13,-28 -20,-58 -20,-90l0 -304 501 0zm-404 731l109 -69c2,-2 4,-3 7,-5l0 177 -213 84 0 -11c0,-71 36,-137 97,-176l0 0zm0 0z"/>
   </g>
  </g>
 </g>
</svg>
