<?xml version="1.0" encoding="UTF-8"?>
<!DOCTYPE svg PUBLIC "-//W3C//DTD SVG 1.0//EN" "http://www.w3.org/TR/2001/REC-SVG-20010904/DTD/svg10.dtd">
<!-- Creator: CorelDRAW X7 -->
<svg xmlns="http://www.w3.org/2000/svg" xml:space="preserve" width="50px" height="50px" version="1.0" style="shape-rendering:geometricPrecision; text-rendering:geometricPrecision; image-rendering:optimizeQuality; fill-rule:evenodd; clip-rule:evenodd"
viewBox="0 0 3567263 3567263"
 xmlns:xlink="http://www.w3.org/1999/xlink">
 <defs>
  <style type="text/css">
   <![CDATA[
    .fil0 {fill:none}
    .fil1 {fill:#333333}
   ]]>
  </style>
 </defs>
 <g id="Layer_x0020_1">
  <metadata id="CorelCorpID_0Corel-Layer"/>
  <g id="_967785936">
   <rect class="fil0" x="10" y="10" width="3567242" height="3567242"/>
   <path class="fil1" d="M1594448 2053881c0,-44746 -36319,-81066 -81066,-81066 -44831,0 -81067,36320 -81067,81066 0,44747 36236,81067 81067,81067 44747,0 81066,-36320 81066,-81067zm540500 0c0,-44746 -36320,-81066 -81067,-81066 -44746,0 -81066,36320 -81066,81066 0,44747 36320,81067 81066,81067 44747,0 81067,-36320 81067,-81067zm-540500 -810749c0,-44831 -36319,-81066 -81066,-81066 -44831,0 -81067,36235 -81067,81066 0,44747 36236,81067 81067,81067 44747,0 81066,-36320 81066,-81067zm1081084 270250c0,-44831 -36320,-81067 -81067,-81067 -44831,0 -81066,36236 -81066,81067 0,44747 36235,81066 81066,81066 44747,0 81067,-36319 81067,-81066zm-270334 0c0,-44831 -36236,-81067 -81067,-81067 -44746,0 -81066,36236 -81066,81067 0,44747 36320,81066 81066,81066 44831,0 81067,-36319 81067,-81066zm-270250 0c0,-44831 -36320,-81067 -81067,-81067 -44746,0 -81066,36236 -81066,81067 0,44747 36320,81066 81066,81066 44747,0 81067,-36319 81067,-81066zm-1081083 0c0,-44831 -36236,-81067 -81067,-81067 -44747,0 -81066,36236 -81066,81067 0,44747 36319,81066 81066,81066 44831,0 81067,-36319 81067,-81066zm810833 0c0,-44831 -36320,-81067 -81066,-81067 -44747,0 -81067,36236 -81067,81067 0,44747 36320,81066 81067,81066 44746,0 81066,-36319 81066,-81066zm-270250 0c0,-44831 -36319,-81067 -81066,-81067 -44831,0 -81067,36236 -81067,81067 0,44747 36236,81066 81067,81066 44747,0 81066,-36319 81066,-81066zm-270249 0c0,-44831 -36404,-81067 -81067,-81067 -44831,0 -81066,36236 -81066,81067 0,44747 36235,81066 81066,81066 44663,0 81067,-36319 81067,-81066zm1080999 -270250c0,-44831 -36236,-81066 -81067,-81066 -44746,0 -81066,36235 -81066,81066 0,44747 36320,81067 81066,81067 44831,0 81067,-36320 81067,-81067zm0 540500c0,-44747 -36236,-81067 -81067,-81067 -44746,0 -81066,36320 -81066,81067 0,44746 36320,80982 81066,80982 44831,0 81067,-36236 81067,-80982zm-1080999 -540500c0,-44831 -36404,-81066 -81067,-81066 -44831,0 -81066,36235 -81066,81066 0,44747 36235,81067 81066,81067 44663,0 81067,-36320 81067,-81067zm0 540500c0,-44747 -36404,-81067 -81067,-81067 -44831,0 -81066,36320 -81066,81067 0,44746 36235,80982 81066,80982 44663,0 81067,-36236 81067,-80982zm810749 -540500c0,-44831 -36320,-81066 -81067,-81066 -44746,0 -81066,36235 -81066,81066 0,44747 36320,81067 81066,81067 44747,0 81067,-36320 81067,-81067zm0 540500c0,-44747 -36320,-81067 -81067,-81067 -44746,0 -81066,36320 -81066,81067 0,44746 36320,80982 81066,80982 44747,0 81067,-36236 81067,-80982zm-270250 0c0,-44747 -36320,-81067 -81066,-81067 -44747,0 -81067,36320 -81067,81067 0,44746 36320,80982 81067,80982 44746,0 81066,-36236 81066,-80982zm0 270249c0,-44746 -36320,-81066 -81066,-81066 -44747,0 -81067,36320 -81067,81066 0,44747 36320,81067 81067,81067 44746,0 81066,-36320 81066,-81067zm0 270250c0,-44746 -36320,-81066 -81066,-81066 -44747,0 -81067,36320 -81067,81066 0,44747 36320,81067 81067,81067 44746,0 81066,-36320 81066,-81067zm0 -1080999c0,-44831 -36320,-81066 -81066,-81066 -44747,0 -81067,36235 -81067,81066 0,44747 36320,81067 81067,81067 44746,0 81066,-36320 81066,-81067zm-270250 540500c0,-44747 -36319,-81067 -81066,-81067 -44831,0 -81067,36320 -81067,81067 0,44746 36236,80982 81067,80982 44747,0 81066,-36236 81066,-80982z"/>
  </g>
 </g>
</svg>
