<?xml version="1.0" encoding="UTF-8"?>
<!DOCTYPE svg PUBLIC "-//W3C//DTD SVG 1.0//EN" "http://www.w3.org/TR/2001/REC-SVG-20010904/DTD/svg10.dtd">
<!-- Creator: CorelDRAW X7 -->
<svg xmlns="http://www.w3.org/2000/svg" xml:space="preserve" width="50px" height="50px" version="1.0" style="shape-rendering:geometricPrecision; text-rendering:geometricPrecision; image-rendering:optimizeQuality; fill-rule:evenodd; clip-rule:evenodd"
viewBox="0 0 844957 844957"
 xmlns:xlink="http://www.w3.org/1999/xlink">
 <defs>
  <style type="text/css">
   <![CDATA[
    .fil0 {fill:none}
    .fil1 {fill:#E6E6E6}
   ]]>
  </style>
 </defs>
 <g id="Layer_x0020_1">
  <metadata id="CorelCorpID_0Corel-Layer"/>
  <rect class="fil0" x="2" y="2" width="844952" height="844952"/>
  <path class="fil1" d="M377668 294453c0,-10618 -8603,-19201 -19202,-19201 -10619,0 -19202,8583 -19202,19201 0,10599 8583,19202 19202,19202 10599,0 19202,-8603 19202,-19202zm256070 64013c0,-10619 -8603,-19202 -19202,-19202 -10619,0 -19202,8583 -19202,19202 0,10599 8583,19202 19202,19202 10599,0 19202,-8603 19202,-19202zm-64033 0c0,-10619 -8583,-19202 -19202,-19202 -10598,0 -19201,8583 -19201,19202 0,10599 8603,19202 19201,19202 10619,0 19202,-8603 19202,-19202zm-64012 0c0,-10619 -8603,-19202 -19202,-19202 -10599,0 -19202,8583 -19202,19202 0,10599 8603,19202 19202,19202 10599,0 19202,-8603 19202,-19202zm-256070 0c0,-10619 -8583,-19202 -19202,-19202 -10599,0 -19202,8583 -19202,19202 0,10599 8603,19202 19202,19202 10619,0 19202,-8603 19202,-19202zm192057 0c0,-10619 -8603,-19202 -19202,-19202 -10598,0 -19201,8583 -19201,19202 0,10599 8603,19202 19201,19202 10599,0 19202,-8603 19202,-19202zm-64012 0c0,-10619 -8603,-19202 -19202,-19202 -10619,0 -19202,8583 -19202,19202 0,10599 8583,19202 19202,19202 10599,0 19202,-8603 19202,-19202zm-64013 0c0,-10619 -8623,-19202 -19202,-19202 -10618,0 -19201,8583 -19201,19202 0,10599 8583,19202 19201,19202 10579,0 19202,-8603 19202,-19202zm256050 -64013c0,-10618 -8583,-19201 -19202,-19201 -10598,0 -19201,8583 -19201,19201 0,10599 8603,19202 19201,19202 10619,0 19202,-8603 19202,-19202zm0 128025c0,-10598 -8583,-19201 -19202,-19201 -10598,0 -19201,8603 -19201,19201 0,10599 8603,19182 19201,19182 10619,0 19202,-8583 19202,-19182zm-256050 -128025c0,-10618 -8623,-19201 -19202,-19201 -10618,0 -19201,8583 -19201,19201 0,10599 8583,19202 19201,19202 10579,0 19202,-8603 19202,-19202zm0 128025c0,-10598 -8623,-19201 -19202,-19201 -10618,0 -19201,8603 -19201,19201 0,10599 8583,19182 19201,19182 10579,0 19202,-8583 19202,-19182zm192038 -128025c0,-10618 -8603,-19201 -19202,-19201 -10599,0 -19202,8583 -19202,19201 0,10599 8603,19202 19202,19202 10599,0 19202,-8603 19202,-19202zm0 128025c0,-10598 -8603,-19201 -19202,-19201 -10599,0 -19202,8603 -19202,19201 0,10599 8603,19182 19202,19182 10599,0 19202,-8583 19202,-19182zm-64013 0c0,-10598 -8603,-19201 -19202,-19201 -10598,0 -19201,8603 -19201,19201 0,10599 8603,19182 19201,19182 10599,0 19202,-8583 19202,-19182zm0 64013c0,-10599 -8603,-19202 -19202,-19202 -10598,0 -19201,8603 -19201,19202 0,10599 8603,19202 19201,19202 10599,0 19202,-8603 19202,-19202zm0 64012c0,-10598 -8603,-19201 -19202,-19201 -10598,0 -19201,8603 -19201,19201 0,10599 8603,19202 19201,19202 10599,0 19202,-8603 19202,-19202zm0 -256050c0,-10618 -8603,-19201 -19202,-19201 -10598,0 -19201,8583 -19201,19201 0,10599 8603,19202 19201,19202 10599,0 19202,-8603 19202,-19202zm-64012 128025c0,-10598 -8603,-19201 -19202,-19201 -10619,0 -19202,8603 -19202,19201 0,10599 8583,19182 19202,19182 10599,0 19202,-8583 19202,-19182zm0 64013c0,-10599 -8603,-19202 -19202,-19202 -10619,0 -19202,8603 -19202,19202 0,10599 8583,19202 19202,19202 10599,0 19202,-8603 19202,-19202zm128025 0c0,-10599 -8603,-19202 -19202,-19202 -10599,0 -19202,8603 -19202,19202 0,10599 8603,19202 19202,19202 10599,0 19202,-8603 19202,-19202z"/>
 </g>
</svg>
