<?xml version="1.0" encoding="UTF-8"?>
<!DOCTYPE svg PUBLIC "-//W3C//DTD SVG 1.0//EN" "http://www.w3.org/TR/2001/REC-SVG-20010904/DTD/svg10.dtd">
<!-- Creator: CorelDRAW X7 -->
<svg xmlns="http://www.w3.org/2000/svg" xml:space="preserve" width="50px" height="50px" version="1.0" style="shape-rendering:geometricPrecision; text-rendering:geometricPrecision; image-rendering:optimizeQuality; fill-rule:evenodd; clip-rule:evenodd"
viewBox="0 0 1396045 1396045"
 xmlns:xlink="http://www.w3.org/1999/xlink">
 <defs>
  <style type="text/css">
   <![CDATA[
    .fil0 {fill:none}
    .fil1 {fill:#22B9C7}
   ]]>
  </style>
 </defs>
 <g id="Layer_x0020_1">
  <metadata id="CorelCorpID_0Corel-Layer"/>
  <rect class="fil0" x="4" y="4" width="1396037" height="1396037"/>
  <path class="fil1" d="M623986 486499c0,-17545 -14214,-31726 -31725,-31726 -17545,0 -31726,14181 -31726,31726 0,17511 14181,31725 31726,31725 17511,0 31725,-14214 31725,-31725zm423081 105762c0,-17545 -14214,-31726 -31725,-31726 -17545,0 -31726,14181 -31726,31726 0,17511 14181,31725 31726,31725 17511,0 31725,-14214 31725,-31725zm-105795 0c0,-17545 -14181,-31726 -31725,-31726 -17512,0 -31726,14181 -31726,31726 0,17511 14214,31725 31726,31725 17544,0 31725,-14214 31725,-31725zm-105762 0c0,-17545 -14214,-31726 -31725,-31726 -17512,0 -31726,14181 -31726,31726 0,17511 14214,31725 31726,31725 17511,0 31725,-14214 31725,-31725zm-423081 0c0,-17545 -14181,-31726 -31725,-31726 -17512,0 -31726,14181 -31726,31726 0,17511 14214,31725 31726,31725 17544,0 31725,-14214 31725,-31725zm317319 0c0,-17545 -14214,-31726 -31725,-31726 -17512,0 -31726,14181 -31726,31726 0,17511 14214,31725 31726,31725 17511,0 31725,-14214 31725,-31725zm-105762 0c0,-17545 -14214,-31726 -31725,-31726 -17545,0 -31726,14181 -31726,31726 0,17511 14181,31725 31726,31725 17511,0 31725,-14214 31725,-31725zm-105762 0c0,-17545 -14247,-31726 -31725,-31726 -17545,0 -31726,14181 -31726,31726 0,17511 14181,31725 31726,31725 17478,0 31725,-14214 31725,-31725zm423048 -105762c0,-17545 -14181,-31726 -31725,-31726 -17512,0 -31726,14181 -31726,31726 0,17511 14214,31725 31726,31725 17544,0 31725,-14214 31725,-31725zm0 211524c0,-17512 -14181,-31726 -31725,-31726 -17512,0 -31726,14214 -31726,31726 0,17511 14214,31692 31726,31692 17544,0 31725,-14181 31725,-31692zm-423048 -211524c0,-17545 -14247,-31726 -31725,-31726 -17545,0 -31726,14181 -31726,31726 0,17511 14181,31725 31726,31725 17478,0 31725,-14214 31725,-31725zm0 211524c0,-17512 -14247,-31726 -31725,-31726 -17545,0 -31726,14214 -31726,31726 0,17511 14181,31692 31726,31692 17478,0 31725,-14181 31725,-31692zm317286 -211524c0,-17545 -14214,-31726 -31725,-31726 -17512,0 -31726,14181 -31726,31726 0,17511 14214,31725 31726,31725 17511,0 31725,-14214 31725,-31725zm0 211524c0,-17512 -14214,-31726 -31725,-31726 -17512,0 -31726,14214 -31726,31726 0,17511 14214,31692 31726,31692 17511,0 31725,-14181 31725,-31692zm-105762 0c0,-17512 -14214,-31726 -31725,-31726 -17512,0 -31726,14214 -31726,31726 0,17511 14214,31692 31726,31692 17511,0 31725,-14181 31725,-31692zm0 105762c0,-17512 -14214,-31726 -31725,-31726 -17512,0 -31726,14214 -31726,31726 0,17511 14214,31725 31726,31725 17511,0 31725,-14214 31725,-31725zm0 105762c0,-17512 -14214,-31726 -31725,-31726 -17512,0 -31726,14214 -31726,31726 0,17511 14214,31725 31726,31725 17511,0 31725,-14214 31725,-31725zm0 -423048c0,-17545 -14214,-31726 -31725,-31726 -17512,0 -31726,14181 -31726,31726 0,17511 14214,31725 31726,31725 17511,0 31725,-14214 31725,-31725zm-105762 211524c0,-17512 -14214,-31726 -31725,-31726 -17545,0 -31726,14214 -31726,31726 0,17511 14181,31692 31726,31692 17511,0 31725,-14181 31725,-31692zm0 105762c0,-17512 -14214,-31726 -31725,-31726 -17545,0 -31726,14214 -31726,31726 0,17511 14181,31725 31726,31725 17511,0 31725,-14214 31725,-31725zm211524 0c0,-17512 -14214,-31726 -31725,-31726 -17512,0 -31726,14214 -31726,31726 0,17511 14214,31725 31726,31725 17511,0 31725,-14214 31725,-31725z"/>
 </g>
</svg>
