<?xml version="1.0" encoding="UTF-8"?>
<!DOCTYPE svg PUBLIC "-//W3C//DTD SVG 1.0//EN" "http://www.w3.org/TR/2001/REC-SVG-20010904/DTD/svg10.dtd">
<!-- Creator: CorelDRAW X7 -->
<svg xmlns="http://www.w3.org/2000/svg" xml:space="preserve" width="50px" height="50px" version="1.0" shape-rendering="geometricPrecision" text-rendering="geometricPrecision" image-rendering="optimizeQuality" fill-rule="evenodd" clip-rule="evenodd"
viewBox="0 0 15403 15403"
 xmlns:xlink="http://www.w3.org/1999/xlink"
 enable-background="new 0 0 100 81.166">
 <g id="Layer_x0020_1">
  <metadata id="CorelCorpID_0Corel-Layer"/>
  <rect fill="none" width="15403" height="15403"/>
  <g id="_1318602624">
   <g id="_1317350016">
    <path fill="white" d="M11346 3709l-3644 0 -3644 0 -1275 2318 4919 5667 4919 -5667 -1275 -2318 0 0zm-335 624l747 1358 -1342 0 595 -1358zm-636 -29l-545 1243 -1361 -1243 1906 0zm-1269 1387l-1404 0 -1404 0 1404 -1282 1404 1282zm-2171 -1387l-1361 1243 -544 -1243 1905 0 0 0zm-2542 29l595 1358 -1341 0 746 -1358zm-598 1953l1454 0 1483 3384 -2937 -3384 0 0zm2103 0l1804 0 1804 0 -1804 4115 -1804 -4115zm2774 3384l1483 -3384 1454 0 -2937 3384z"/>
   </g>
  </g>
 </g>
</svg>
