<?xml version="1.0" encoding="UTF-8"?>
<!DOCTYPE svg PUBLIC "-//W3C//DTD SVG 1.1//EN" "http://www.w3.org/Graphics/SVG/1.1/DTD/svg11.dtd">
<!-- Creator: CorelDRAW X7 -->
<svg xmlns="http://www.w3.org/2000/svg" xml:space="preserve" width="50px" height="50px" version="1.1" style="shape-rendering:geometricPrecision; text-rendering:geometricPrecision; image-rendering:optimizeQuality; fill-rule:evenodd; clip-rule:evenodd"
viewBox="0 0 187354 187354"
 xmlns:xlink="http://www.w3.org/1999/xlink"
 enable-background="new 0 0 100 100">
 <defs>
  <style type="text/css">
   <![CDATA[
    .fil0 {fill:none}
    .fil1 {fill:white}
   ]]>
  </style>
 </defs>
 <g id="Layer_x0020_1">
  <metadata id="CorelCorpID_0Corel-Layer"/>
  <rect class="fil0" x="-2" y="-2" width="187358" height="187358"/>
  <g id="_1310769152">
   <g>
    <path class="fil1" d="M133416 56053l-17522 -4753 -6258 3629 -10639 -21780c-877,-1752 -3006,-2376 -4630,-1376l-128 0c-1624,1000 -2253,3129 -1124,4758l13392 20150 -6258 3630 -4758 17521 17022 29786 17522 4758 15769 -9011 4758 -17522 -17146 -29790zm6758 15897l7259 12764 -7135 -2128 -4253 -1248 -3005 -5258 -3005 -5258 1128 -4753 1625 -6763 7386 12644zm-5005 9759l-753 2882 -1500 5629 -3881 2129 -3882 2129 -8511 -2129 -3000 -5258 -3006 -5253 2377 -8511 7635 -4382 8510 2377 3006 5258 3005 5129zm-15398 -26909l12269 3382 -1753 7010 -1252 5006 -8135 -2253 -3882 -13893 2753 748zm-3753 -624l3882 14017 -7263 4129 -10135 -10511 13516 -7635zm-14016 8635l10011 10388 -2253 8139 -11892 -3630 4134 -14897zm3629 28790l-7263 -12768 11392 3381 3005 5253 3001 5258 -2877 11640 -7258 -12764zm8135 13893l3005 -12016 8134 2252 3877 13893 -15016 -4129zm22779 124l-6758 3877 -3881 -14017 3629 -2129 3629 -2124 8387 8759 1628 1752 -6634 3882zm8635 -9640l-1376 4882 -2629 -2753 -7259 -7635 1377 -5129 752 -2881 4506 1376 7382 2253 -2753 9887z"/>
    <path class="fil1" d="M78722 83714l11388 -21403c876,-1753 123,-3877 -1629,-4629l-124 0c-1753,-753 -3882,124 -4506,1876l-8510 22656 -6635 -3005 -17021 6382 -13893 31414 6386 17022 16518 7510 17021 -6382 14145 -31290 -6510 -17146 -6630 -3005zm-9763 -1500l14140 6382 -9011 11388 -7634 -3506 2505 -14264zm8010 27033l-2505 5505 -2500 5511 -2758 1000 -5505 2129 -4006 -1753 -4005 -1753 -3129 -8263 2505 -5505 2501 -5506 8263 -3129 8010 3629 3129 8135zm-9139 -27033l-2501 14140 -7886 3005 -4130 -11639 14517 -5506zm-21151 20022l6010 -13392 3877 11268 -2500 5506 -2505 5505 -11016 4506 6134 -13393zm-6382 14645l11516 -4629 3001 7882 -9011 11264 -5506 -14517zm20399 21651l-7135 -3129 -7130 -3253 9011 -11387 3877 1752 3882 1753 -1753 10011 -752 4253zm5758 -1752l-4630 1752 876 -5129 1629 -9139 5006 -1877 2877 -1124 1752 4882 2377 6758 -9887 3877zm16521 -18270l-6006 13392 -2381 -6634 -1624 -4634 2501 -5505 2505 -5506 11015 -4506 -6010 13393zm6382 -14645l-11511 4629 -3006 -7882 9011 -11264 2129 5506 3377 9011z"/>
   </g>
  </g>
 </g>
</svg>
