<?xml version="1.0" encoding="utf-8"?>
<!-- Generator: Adobe Illustrator 19.1.1, SVG Export Plug-In . SVG Version: 6.00 Build 0)  -->
<svg version="1.1" id="Layer_1" xmlns="http://www.w3.org/2000/svg" xmlns:xlink="http://www.w3.org/1999/xlink" x="0px" y="0px"
	 viewBox="-124 126 50 50" style="enable-background:new -124 126 50 50;" xml:space="preserve">
<style type="text/css">
	.st0{fill:none;}
	.st1{fill:#FFFFFF;}
</style>
<g id="Layer_x0020_1">
	<rect x="-124" y="126" class="st0" width="50" height="50"/>
</g>
<path class="st1" d="M-98.9,167.6l-0.6-0.4c-1-0.7-9.9-6.6-9.9-12.3c0-5.3,4.8-7.3,8.2-5.8c-0.1-0.3-0.2-0.6-0.2-0.8
	c0-1,0.6-1.9,1.5-2.3c-0.6-0.3-1.1-1-1.1-1.8c0-0.9,0.6-1.7,1.5-2v-0.1c0-0.2,0-0.5,0-0.8v-0.1c0-0.6,0-1.1-0.3-1.4l-1.6-1.6
	c-0.4-0.4-0.6-1-0.6-1.6s0.2-1.1,0.6-1.6c0.8-0.8,2.3-0.8,3.1,0l2.1,2.1c0.2,0.2,0.4,0.2,0.8,0.3l-0.1,1.2c-0.4,0-1.1-0.1-1.6-0.6
	l-2.1-2.1c-0.4-0.4-1-0.4-1.3,0c-0.2,0.2-0.3,0.5-0.3,0.7c0,0.3,0.1,0.5,0.3,0.7l1.6,1.6c0.6,0.7,0.6,1.5,0.6,2.2v0.1
	c0,0.3,0,0.6,0,0.8h-0.2c0.9,0.2,1.6,1,1.6,2c0,0.8-0.4,1.5-1.1,1.8c0.9,0.4,1.5,1.3,1.5,2.3c0,0.3-0.1,0.6-0.2,0.8
	c3.4-1.4,8.2,0.5,8.2,5.8c0,5.6-8.9,11.6-9.9,12.3L-98.9,167.6z M-103.6,149.9c-2.3,0-4.6,1.7-4.6,5c0,4,6,9,9.2,11.2
	c3.2-2.1,9.2-7.2,9.2-11.2c0-3.3-2.3-5-4.6-5c-1.5,0-2.9,0.7-3.9,1.9l-0.8,1l-0.8-1C-100.8,150.6-102.1,149.9-103.6,149.9z
	 M-98.9,147.1c-0.7,0-1.2,0.5-1.2,1.2s0.5,1.2,1.2,1.2s1.2-0.5,1.2-1.2S-98.3,147.1-98.9,147.1z M-98.9,143.4
	c-0.4,0-0.8,0.4-0.8,0.8c0,0.4,0.4,0.8,0.8,0.8c0.4,0,0.8-0.4,0.8-0.8S-98.6,143.4-98.9,143.4z"/>
</svg>
