<?xml version="1.0" encoding="UTF-8"?>
<!DOCTYPE svg PUBLIC "-//W3C//DTD SVG 1.1//EN" "http://www.w3.org/Graphics/SVG/1.1/DTD/svg11.dtd">
<!-- Creator: CorelDRAW X7 -->
<svg xmlns="http://www.w3.org/2000/svg" xml:space="preserve" width="50px" height="50px" version="1.1" style="shape-rendering:geometricPrecision; text-rendering:geometricPrecision; image-rendering:optimizeQuality; fill-rule:evenodd; clip-rule:evenodd"
viewBox="0 0 1599631 1599631"
 xmlns:xlink="http://www.w3.org/1999/xlink">
 <defs>
  <style type="text/css">
   <![CDATA[
    .str0 {stroke:white;stroke-width:6386.13}
    .fil0 {fill:none}
    .fil1 {fill:white}
   ]]>
  </style>
 </defs>
 <g id="Layer_x0020_1">
  <metadata id="CorelCorpID_0Corel-Layer"/>
  <rect class="fil0" x="-19" y="-19" width="1599669" height="1599669"/>
  <g id="_1117895472">
   <g>
    <g>
     <path class="fil1" d="M1234526 1135635l0 0c-69718,28341 -134298,35937 -186520,24298l2040 680 0 0 0 0 0 0 1323 -642 86987 -58269 0 0 -82188 54301c28794,4572 60347,4421 94053,-1700l-75 3363 4043 1398 0 0 2041 -2645 37 -3363c21577,-3666 44552,-11337 68888,-19612l-80073 -31629 0 0 88084 34463 1360 -643 0 0 0 0 0 0z"/>
     <path class="fil1" d="M960754 1116741l0 0c-24487,-19876 -44817,-48443 -63068,-79656l1965 680 91106 16362 -29928 59251 -75 3363 0 0 0 0zm-54377 -78863c15606,29173 34009,53697 55888,71533l28492 -55284 -84380 -16249 0 0zm80677 36352l7633 -15342 0 0 -7633 15342zm5819 -26111l-89066 -15644 0 0 89066 15644 0 0 0 0 0 0zm-95187 -11034c0,0 -680,-1360 -680,-1360l0 0 680 1360 0 0z"/>
     <path class="fil1" d="M1048006 1159933l0 0c-31440,-6613 -62086,-21917 -87252,-43192l0 0 2040 718 1323 -642 1360 -642 21577 -41945 -19499 39300c22484,19196 47122,32384 75236,38921l-48104 -93563 0 0 51354 100327 1965 680 0 0 0 0 0 0 0 0 0 38z"/>
     <path class="fil1" d="M1050046 1160613l0 0 0 0 0 0 0 0 0 0 0 0zm0 0l-2040 -680 0 0 2040 680 0 0 0 0z"/>
     <polygon class="fil1" points="964117,1116817 962794,1117459 960754,1116741 960829,1113378 990757,1054127 992760,1054845 994687,1058888 994687,1058888 994687,1058888 987054,1074230 965477,1116175 "/>
     <path class="fil1" d="M897006 1035725l0 0c-22106,-42701 -38657,-94734 -49011,-154704l0 0 1285 2721 5366 756c9787,55246 25091,101196 44551,141855l-1473 7369 -718 2003 0 0 0 0 0 0zm6801 -3250l0 0 25696 -127194 0 0 -25696 127194 0 0zm17799 -136716l-68207 -17307c0,0 0,0 0,0l68207 17307 0 0 0 0 0 0z"/>
     <path class="fil1" d="M897006 1035725l0 0 0 0 0 0 0 0zm6801 -3250l0 0 0 0 0 0 0 0z"/>
     <path class="fil1" d="M924855 902523l-70209 -18025c0,0 0,0 0,0l70209 18025 0 0 0 0zm-3249 -6764l0 0 -78939 -172010c-945,53734 2834,106864 10732,154703l-2003 -718 -2683 1323 -718 1964c-9863,-51882 -13528,-111738 -11185,-169440l0 0 0 0 0 0 84796 184178 0 0 0 0 0 0z"/>
     <path class="fil1" d="M924855 902523l-70209 -18025 -5366 -756 -1285 -2721 718 -1964 2683 -1323 2003 718c0,0 0,0 0,0l68207 17307 0 0 0 0 2607 5403 -718 2003 0 0 1360 -642 0 0z"/>
     <path class="fil1" d="M836810 711581c1474,-45685 6310,-91257 13074,-132786l0 0 1928 4043 4005 1436c-7331,36806 -11412,77049 -13452,117974l78976 -99382 -9371 -2192 9371 2192 -83813 106712 0 0 -718 2003 0 0 0 0 0 0zm85287 -114081l-56795 -17760 56795 17760 0 0 0 0z"/>
     <polygon class="fil1" points="836810,711581 836810,711581 837528,709578 "/>
     <path class="fil1" d="M922097 597500l0 0 -20330 -143442c-16022,32648 -31515,73346 -44476,122848l8011 2834 -11374 -2910 -1361 680 -2683 1285 0 0c14398,-56833 31969,-100213 51392,-136149l642 1360 -1360 642 21539 152852 0 0 0 0 0 0zm-10127 3174l-56153 -16400c0,0 0,0 0,0l56153 16400zm642 -113476l-4157 -32989 0 0 4157 32989zm-11336 -44552c0,0 0,0 0,0l1360 -643 -1360 643 0 0 0 0z"/>
     <path class="fil1" d="M921341 602866l-9371 -2192 -56153 -16400c0,0 0,0 0,0l-4005 -1398 -1928 -4081 2721 -1285 1323 -642 11374 2872 56795 17760 0 0 0 0 1965 4081 -2721 1285 0 0 0 0 0 0z"/>
     <path class="fil1" d="M1145196 1095089l0 0 43947 -54301 0 0 -43947 54301zm-9409 1209l-59516 -54792 0 0 59516 54792 0 0 0 0 0 0zm43229 -52336c-14851,3779 -37788,8087 -62577,4950 24789,3137 47726,-1171 62577,-4950l0 0 0 0zm7519 -8578c-16248,7785 -64088,15682 -108148,114l0 0c0,0 0,0 0,0l0 0c44060,15568 91900,7671 108148,-114l0 0 0 0 0 0zm-70096 13528c0,0 0,0 0,0 0,0 0,0 0,0z"/>
     <path class="fil1" d="M1078387 1035498l0 0c-30684,-11941 -55775,-36541 -77956,-75916 0,0 0,0 0,0 22181,39375 47272,63975 77956,75916l0 0zm-10770 1851l0 0c-2002,-718 -2002,-718 -2002,-718 0,0 0,0 2002,718zm-2002 -718c0,0 0,0 0,0 0,0 0,0 0,0zm-7407 1890l-60649 9031 3363 -76558c0,0 0,0 0,0l-3363 76558 60649 -9031 0 0 0 0z"/>
     <path class="fil1" d="M991211 950702l0 0c-17987,-48028 -27888,-96548 -28417,-142913 529,46365 10430,94885 28417,142913l0 0 0 0zm-64844 -58911l0 0 38468 -124926 0 0 -38468 124926z"/>
     <path class="fil1" d="M970201 767620c4799,-45572 18931,-85664 25431,-110415l680 -1965 -38 3325c-7142,23391 -21274,63483 -26073,109055l0 0 0 0 0 0zm-5366 -755l-21388 -82982 21388 82982 0 0zm3816 -26830c0,0 0,0 0,0 0,0 0,0 0,0zm0 0c2230,-12696 3779,-23428 6651,-34802 -2872,11374 -4421,22106 -6651,34802zm-15379 -42549l-22635 -89065 64579 34009 0 0 -64579 -34009 22635 89065 0 0z"/>
     <line class="fil0" x1="964835" y1="766865" x2="964835" y2= "766865" />
     <path class="fil1" d="M931619 899273l0 0 30760 -106259c0,0 0,0 0,0l-30760 106259 0 0 0 0zm-5252 -7482l-82831 -180096 81055 -102065 18856 74253 -18856 -74253 -81055 102065 82831 180096 0 0 0 0 0 0z"/>
     <polygon class="fil1" points="925611,897157 921606,895759 836810,711581 836810,711581 838095,714264 841458,714340 842176,712337 843536,711695 926367,891791 "/>
     <polygon class="fil1" points="924213,901162 921606,895759 925611,897157 924931,899160 924931,899160 924931,899160 "/>
     <polygon class="fil1" points="843536,711695 842894,710334 838888,708936 837528,709578 837528,709578 921341,602866 923986,604944 924591,609630 "/>
     <polygon class="fil1" points="841458,714340 838095,714264 836810,711581 837528,709578 838888,708936 842894,710334 843536,711695 842176,712337 "/>
     <polygon class="fil1" points="923986,604944 921341,602866 924062,601581 922701,602223 923344,603584 923344,603584 "/>
     <path class="fil1" d="M931619 899273l-2002 -680 -3250 -6802 0 0 0 0 38468 -124926 0 0c-832,8729 -1663,17420 -2456,26149l-30760 106259 0 0 0 0z"/>
     <polygon class="fil1" points="929617,898593 929617,898593 928974,897232 928974,897232 925611,897157 926367,891791 "/>
     <polygon class="fil1" points="928974,897232 926971,896514 924931,899160 924931,899160 925611,897157 "/>
     <path class="fil1" d="M966460 749407l-13188 -51921 13188 51921c0,0 0,0 0,0l0 0z"/>
     <path class="fil1" d="M964835 766865l-21388 -82982 -18856 -74253 3401 -3288 2645 2079 22635 89065 13188 51921c-756,5366 -1512,10731 -2268,16097l643 1361 0 0 0 0 0 0z"/>
     <polygon class="fil1" points="924591,609630 923986,604944 925347,604302 927992,606342 "/>
     <polygon class="fil1" points="925347,604302 923986,604944 923344,603584 923344,603584 "/>
     <path class="fil1" d="M964835 766865l0 0 0 0 0 0 -643 -1361c0,0 0,0 0,0 643,1361 643,1361 643,1361l0 0 0 0z"/>
     <path class="fil1" d="M992873 1048119l0 0 2154 -85929 -65524 -56909 0 0 65524 56909 -2154 85929 0 0 0 0zm-95187 -11034l0 0 0 0c0,0 0,0 0,0l0 0 0 0zm1511 -10732c0,0 0,0 0,0l25658 -123830 0 0 -25658 123830 0 0 0 0z"/>
     <path class="fil1" d="M990757 1054127l-91106 -16362 -1965 -680c0,0 0,0 0,0l-680 -1360 4005 1398 0 0 2721 -1285 75 -3363 89066 15644 0 0 0 0 -718 2003 -1398 4005 0 0 0 0 0 0z"/>
     <polygon class="fil1" points="992760,1054845 990757,1054127 992155,1050122 991475,1052124 991475,1052124 992117,1053485 "/>
     <path class="fil1" d="M897006 1035725l718 -2003 1473 -7369c0,0 0,0 0,0l25658 -123830 2003 718 2645 2040 0 0 0 0 -25696 127194 -2002 -718 -4081 1965 -681 2003 0 0 0 0 -37 0z"/>
     <polygon class="fil1" points="901011,1037123 901011,1037123 897006,1035725 897006,1035725 897724,1033722 901805,1031757 903807,1032475 903807,1032475 903807,1032475 903732,1035838 "/>
     <line class="fil0" x1="924855" y1="902523" x2="924855" y2= "902523" />
     <polygon class="fil1" points="926858,903241 924855,902523 924855,902523 924855,902523 924213,901162 924213,901162 926216,901880 924855,902523 "/>
     <path class="fil1" d="M991211 950702l-59592 -51429 0 0 59592 51429c0,0 0,0 0,0z"/>
     <path class="fil1" d="M997559 1047552l-2683 1285 -2003 -718 2154 -85929 643 1360c1284,2683 3967,4761 5252,7444l-3363 76558 0 0 0 0 0 0z"/>
     <polygon class="fil1" points="992155,1050122 992873,1048119 994876,1048837 994876,1048837 "/>
     <polygon class="fil1" points="991475,1052124 991475,1052124 992155,1050122 992155,1050122 "/>
     <path class="fil1" d="M995027 962190l-65524 -56909 1436 -4005 680 -2003 59592 51429c0,0 0,0 0,0l0 0c1284,2683 1889,7406 3816,11488l0 0 0 0 0 0 0 0z"/>
     <polygon class="fil1" points="929503,905281 926858,903241 926858,903241 926858,903241 928218,902598 928218,902598 929579,901918 929579,901918 930939,901276 930939,901276 "/>
     <path class="fil1" d="M928218 902598l1361 -680 0 0 -1361 680 0 0zm-1360 643l0 0 0 0 -2003 -718 1361 -643 642 1361 0 0z"/>
     <path class="fil1" d="M995670 963550l-643 -1360 0 0c0,0 0,0 0,0 0,0 0,0 643,1360l0 0z"/>
     <line class="fil0" x1="931619" y1="899273" x2="931619" y2= "899273" />
     <polygon class="fil1" points="926216,901880 924213,901162 924213,901162 924931,899160 924931,899160 "/>
     <polygon class="fil1" points="930939,901276 930939,901276 930259,899915 929617,898593 929617,898593 931619,899273 931619,899273 931619,899273 "/>
     <path class="fil1" d="M928218 902598l0 0 -1360 643 1360 -643 0 0 0 0zm1361 -680l680 -2003 680 1361 0 0 0 0 -1360 642 0 0 0 0z"/>
     <polygon class="fil1" points="930259,899915 928974,897232 929617,898593 929617,898593 929617,898593 "/>
     <polygon class="fil1" points="928218,902598 926858,903241 926216,901880 924931,899160 926971,896514 928974,897232 930259,899915 929579,901918 "/>
     <path class="fil1" d="M1049479 1152564l-50673 -98966 77465 -12092 0 0 -77465 12092 50673 98966 86308 -56266 0 0 -86308 56266 0 0 0 0zm91069 -60233l-50900 -47235c0,0 0,0 0,0l50900 47235 0 0 0 0z"/>
     <polygon class="fil1" points="1050046,1160613 1051444,1156608 1050802,1155247 1049479,1152564 1135787,1096298 1138432,1098339 1138356,1101702 1051369,1159971 "/>
     <polygon class="fil1" points="1048006,1159933 1048006,1159933 1046041,1159215 994687,1058888 997446,1054241 998806,1053598 1049479,1152564 1047439,1155209 1045360,1157855 "/>
     <polygon class="fil1" points="1050046,1160613 1050046,1160613 1048006,1159933 1045360,1157855 1047439,1155209 1049479,1152564 1050802,1155247 1051444,1156608 "/>
     <polygon class="fil1" points="994687,1058888 992760,1054845 994120,1054203 995481,1053560 996123,1054883 997446,1054241 "/>
     <path class="fil1" d="M1135787 1096298l0 0 0 0 -59516 -54792 0 0 0 0 1360 -642c4006,1436 8011,2834 12017,4232l50900 47235 -2721 1322 -2040 2645 0 0 0 0 0 0z"/>
     <polygon class="fil1" points="1138432,1098339 1135787,1096298 1137827,1093653 1138469,1094976 1137789,1097016 1137789,1097016 "/>
     <path class="fil1" d="M1067617 1037349l-9409 1172 9409 -1172c0,0 0,0 0,0z"/>
     <path class="fil1" d="M1076271 1041506l-77465 12092 -1285 -2721 38 -3325 60649 -9031 9409 -1172c0,0 0,0 0,0l0 0c2003,681 4648,2759 8654,4157l0 0 0 0z"/>
     <polygon class="fil1" points="998806,1053598 997446,1054241 996803,1052918 998164,1052238 998164,1052238 997521,1050877 "/>
     <polygon class="fil1" points="997446,1054241 996123,1054883 995481,1053560 996123,1054883 997446,1054241 998164,1052238 996803,1052918 "/>
     <path class="fil1" d="M1077631 1040864l-1360 642 0 0c0,0 0,0 0,0 0,0 1360,-642 1360,-642l0 0 0 0z"/>
     <polygon class="fil1" points="995481,1053560 994120,1054203 992760,1054845 992117,1053485 991475,1052124 992760,1054845 "/>
     <polygon class="fil1" points="997521,1050877 997521,1050877 997521,1050877 994876,1048837 994876,1048837 997559,1047552 "/>
     <polygon class="fil1" points="997521,1050877 994876,1048837 992155,1050122 994876,1048837 994876,1048837 994876,1048837 "/>
     <polygon class="fil1" points="998164,1052238 997521,1050877 997521,1050877 997521,1050877 997521,1050877 "/>
     <polygon class="fil1" points="996123,1054883 995481,1053560 992760,1054845 991475,1052124 992155,1050122 994876,1048837 997521,1050877 997521,1050877 998164,1052238 997446,1054241 "/>
     <path class="fil1" d="M1234526 1135635l0 0 0 0 0 0 0 0 2683 -1322 28454 -90200 0 0 -26980 82831c21728,-13717 42133,-26791 59855,-41944l1285 2720 3363 76 0 0 1398 -4005 -1284 -2721c25922,-22408 45836,-46895 58986,-71532l-93864 29928 0 0 101308 -31818 0 0 718 -2003c-22332,47311 -68811,92845 -135922,129990l0 0 0 0 0 0z"/>
     <line class="fil0" x1="1234526" y1="1135635" x2="1234526" y2= "1135635" />
     <path class="fil1" d="M1391572 910609l-1285 -2683 -64919 -13906 30570 -57890 -30570 57890 60876 12508c-1512,-27585 -9069,-57286 -20595,-88385l2759 -4648 718 -2003c14170,33178 22332,67565 22446,99117l0 0 0 0 0 0 0 0zm-48255 -6877l-18063 -2985 0 0 18063 2985zm-23958 -11828l0 0 42323 -78523 0 0 -42323 78523 0 0zm49767 -80412l-680 -1360 0 0c0,0 680,1360 680,1360l0 0z"/>
     <path class="fil1" d="M1370448 1005645l0 0 0 0 0 0 718 -2002 -45912 -102896 0 0 42663 96132c12507,-25998 19083,-54075 18213,-83662l-42813 -9485 44854 10203 1322 -643 1361 -642 718 -2041c793,32951 -5177,65751 -21124,95036l0 0 0 0 0 0 0 0z"/>
     <polygon class="fil1" points="1369730,1007648 1370448,1005645 1370448,1005645 "/>
     <polygon class="fil1" points="1389493,913292 1388171,913935 1343317,903732 1325217,900747 1325217,900747 1325217,900747 1323289,896703 1325368,894020 1390287,907926 1391572,910609 1390854,912650 "/>
     <path class="fil1" d="M1368446 810132l0 0 0 0 -643 -1323 -8011 -2872c-18100,-41264 -45610,-81395 -81130,-124321l1436 -4006 38 -3363c40168,45723 68925,91900 88310,135885l0 0 0 0 0 0zm-6764 3249l-113817 -60422 0 0 113817 60422 0 0 0 0zm-117634 -71910l0 0 29324 -63974c0,0 0,0 0,0l-29324 63974 0 0 0 0z"/>
     <path class="fil1" d="M1368446 810132l0 0 0 0 0 0 0 0zm-6764 3249l0 0 0 0 0 0 0 0z"/>
     <path class="fil1" d="M1248621 747593l0 0 30041 -65977 -30041 65977 0 0 0 0zm-4573 -6122l-88234 -180852 -2003 -718 0 0c46441,34387 90729,74782 126325,114346l-3363 -38 -2683 1285 -718 2003c-30948,-36806 -69945,-73082 -112343,-106071l83019 170045 0 0 0 0 0 0z"/>
     <path class="fil1" d="M1248621 747593l-1965 -680 -2608 -5442 0 0 0 0 29324 -63974c0,0 0,0 0,0l718 -2003 2683 -1285 3363 38 -38 3363 -1436 4006c0,0 0,0 0,0l-30041 65977 0 0 0 0 0 0z"/>
     <path class="fil1" d="M1153811 559901l-642 -1360 -1360 642 -134298 -2343 4232 -12016 -4232 12016 125606 1512c-33177,-24071 -67073,-46177 -100326,-63521l1398 -4006 -1965 -4081 0 0c37939,20141 76482,45005 111587,73157l0 0 0 0zm-142308 -5177l0 0 21010 -49993 -21010 49993z"/>
     <polygon class="fil1" points="1153811,559901 1153169,558541 "/>
     <path class="fil1" d="M1011503 554724l-34916 -38203 34916 38203 0 0zm10240 -9900l21048 -49993c0,0 0,0 0,0l-21048 49993 0 0 0 0zm10807 -40093l4913 -14019c-52639,-23089 -97417,-36654 -124889,-41831l-5932 -5479 -643 -1323 -2003 -718 0 0 0 0 0 0c26792,3817 76936,18100 138266,45383l0 0 -1398 642 -2683 1285 -5631 16060 0 0 0 0 0 0z"/>
     <polygon class="fil1" points="905999,442079 903996,441361 903996,441361 "/>
     <path class="fil1" d="M1017511 556840l-2683 1323 -3325 -3439 0 0 0 0 21047 -49993 5631 -16022 2683 -1323 1398 -642 1927 4081 -1398 4006c0,0 0,0 0,0l-21048 49993 -4232 12016 0 0 0 0 0 0z"/>
     <path class="fil1" d="M901276 442646l0 0c0,0 0,0 0,0zm1360 -643l0 0 0 0 0 0z"/>
     <path class="fil1" d="M901918 444006l-642 -1360c0,0 0,0 0,0l1360 -643 0 0 -718 2003 0 0z"/>
     <polygon class="fil1" points="995329,635741 928747,600976 912612,487198 928747,600976 995329,635741 1010029,562093 908455,454209 908455,454209 1010029,562093 "/>
     <polygon class="fil1" points="928747,600976 928105,599654 928105,599654 927463,598294 922097,597500 900558,444648 901918,444006 901238,446009 908455,454209 908455,454209 908455,454209 912612,487198 "/>
     <polygon class="fil1" points="928105,599654 928105,599654 926102,598936 924742,599578 924742,599578 924742,599578 923382,600221 924062,601581 922097,597500 927463,598294 "/>
     <polygon class="fil1" points="995216,642430 930637,608421 929390,602337 929390,602337 928747,600976 995329,635741 995896,640465 "/>
     <polygon class="fil1" points="929390,602337 928747,600976 928747,600976 928747,600976 928105,599654 928105,599654 928747,600976 "/>
     <polygon class="fil1" points="928747,600976 928105,599654 928105,599654 "/>
     <line class="fil0" x1="924742" y1="599578" x2="924742" y2= "599578" />
     <polygon class="fil1" points="923344,603584 922701,602223 924062,601581 923382,600221 924742,599578 "/>
     <polygon class="fil1" points="928105,599654 924742,599578 926102,598936 "/>
     <polygon class="fil1" points="930637,608421 927992,606342 928710,604340 929390,602337 929390,602337 "/>
     <polygon class="fil1" points="927992,606342 925347,604302 925347,604302 927349,604982 928710,604340 929390,602337 928710,604340 "/>
     <polygon class="fil1" points="929390,602337 928747,600976 928747,600976 "/>
     <polygon class="fil1" points="927349,604982 925347,604302 925347,604302 925347,604302 923344,603584 924742,599578 924742,599578 928105,599654 928747,600976 929390,602337 928710,604340 "/>
     <path class="fil1" d="M976587 516521l-64013 -67640c0,0 0,0 0,0l64013 67640 0 0zm-73951 -74518l1360 -642 0 0 -1360 642 0 0z"/>
     <path class="fil1" d="M1010029 562093l-101574 -107884 -1813 -10807 -643 -1323 643 1323 5932 5479c0,0 0,0 0,0l64013 67640 34916 38203 -1399 4006 643 1360 0 0 -718 2003 0 0 0 0 0 0zm-106033 -120732l-1360 642 0 0 1360 -642 0 0 0 0z"/>
     <polygon class="fil1" points="908455,454209 901238,446009 901918,444006 902636,442003 903996,441361 905999,442079 906642,443402 "/>
     <polygon class="fil1" points="1010747,560090 1010104,558730 1011503,554724 1014828,558163 1012787,557445 1012787,557445 1012787,557445 1011465,558087 1010104,558730 "/>
     <polygon class="fil1" points="1259012,1040637 1189143,1040788 1189143,1040788 "/>
     <line class="fil0" x1="1189143" y1="1040788" x2="1189143" y2= "1040788" />
     <path class="fil1" d="M1267175 1033419l-1361 643 -5328 -80715 0 0 6689 80072 0 0 0 0 0 0zm-67867 832l0 0c16324,-11148 42284,-36881 55623,-68207l0 0c-13339,31326 -39299,57059 -55623,68207z"/>
     <path class="fil1" d="M1264038 943333c114,-6688 2230,-12696 3023,-18062 -793,5366 -2909,11374 -3023,18062l0 0zm6840 -6575l43682 -40886 -60309 -46063c5782,15531 9560,30381 11299,44552 -1739,-14171 -5517,-29021 -11299,-44552l60309 46063 -43682 40886zm-3817 -11487c0,0 0,0 0,0 0,0 0,0 0,0l0 0zm-1511 -30910c0,0 0,0 0,0 0,0 0,0 0,0l0 0zm0 0c0,0 0,0 0,0 0,0 0,0 0,0z"/>
     <path class="fil1" d="M1244313 842894c-31893,-59667 -78032,-110832 -128516,-143292 50484,32460 96623,83625 128516,143292 0,0 0,0 0,0l0 0 0 0zm227 -13415c-24184,-40055 -53735,-77503 -86837,-104974 33102,27471 62653,64919 86837,104974l0 0 0 0 0 0zm-6575 -86761l-120052 -49086 0 0 120052 49086 0 0 0 0 0 0zm-50107 -14321l-49389 -19650c0,0 0,0 0,0l49389 19650 0 0 0 0z"/>
     <path class="fil1" d="M1113794 698922c-17269,-11714 -35218,-21463 -51920,-28454 16702,6991 34651,16740 51920,28454zm4119 -5290l0 0 -52563 -68094 52563 68094 0 0 0 0 0 0zm-34992 -34878l-68282 -90540 -12659 70966 0 0 12659 -70966 68282 90540 0 0z"/>
     <polygon class="fil1" points="1001980,639180 999977,638500 995329,635741 1010029,562093 1010671,563453 1010671,563453 1014639,568214 "/>
     <polygon class="fil1" points="999977,638500 999977,638500 995896,640465 995896,640465 995329,635741 "/>
     <polygon class="fil1" points="1010671,563453 1010671,563453 1010029,562093 1010747,560090 1010747,560090 1010029,562093 1010029,562093 1010029,562093 "/>
     <path class="fil1" d="M1010029 562093l0 0 718 -2003 0 0 -718 2003 0 0 0 0zm1436 -4006l1322 -642 0 0 -1322 642 0 0 0 0z"/>
     <line class="fil0" x1="1117913" y1="693632" x2="1117913" y2= "693632" />
     <path class="fil1" d="M1241857 750843l-53999 -22446 53999 22446 0 0 0 0 0 0zm-3892 -8125l0 0 -86912 -178169 -131653 -264 45950 61253 -45950 -61253 131653 264 86912 178169 0 0z"/>
     <polygon class="fil1" points="1242612,745477 1237965,742718 1151053,564549 1152413,563907 1154416,564587 1155096,562584 1153811,559901 1155172,559221 1244048,741471 "/>
     <polygon class="fil1" points="1246656,746913 1245976,745552 1245976,745552 1245976,745552 1242612,745477 1244048,741471 "/>
     <polygon class="fil1" points="1151053,564549 1019400,564285 1016113,560846 1017511,556840 1151809,559183 1153169,558541 1150448,559826 1150410,563189 "/>
     <polygon class="fil1" points="1154416,564587 1152413,563907 1151053,564549 1150410,563189 1150448,559826 1153169,558541 1153811,559901 1155096,562584 "/>
     <polygon class="fil1" points="1016113,560846 1015470,559485 1015470,559485 1014828,558163 1014828,558163 1017511,556840 "/>
     <polygon class="fil1" points="1015470,559485 1012787,557445 1012787,557445 1014828,558163 1014828,558163 "/>
     <path class="fil1" d="M1103289 683958c0,0 0,0 0,0l-20368 -25204 20368 25204 0 0z"/>
     <polygon class="fil1" points="1010747,560090 1010104,558730 1011465,558087 "/>
     <path class="fil1" d="M1241857 750843l-53999 -22446 -49389 -19650c-5932,-5479 -13263,-10316 -20556,-15115l0 0 120052 49086 0 0 0 0 3249 6764 643 1361 0 0 0 0z"/>
     <polygon class="fil1" points="1241214,749482 1237965,742718 1242612,745477 1241932,747480 1241932,747480 "/>
     <polygon class="fil1" points="1241932,747480 1241932,747480 1242612,745477 1245976,745552 1245976,745552 1242612,745477 "/>
     <path class="fil1" d="M1117913 693632l-2003 -718c-4648,-2758 -7935,-6197 -12621,-8956l-20368 -25204 -68282 -90540 1398 -4005 3363 76 45950 61253 52563 68094 0 0 0 0 0 0z"/>
     <polygon class="fil1" points="1019400,564285 1016037,564209 1016113,560846 1016113,560846 "/>
     <polygon class="fil1" points="1016113,560846 1016113,560846 1015470,559485 1015470,559485 "/>
     <polygon class="fil1" points="1014639,568214 1010671,563453 1012032,562811 1012674,564171 1016037,564209 "/>
     <polygon class="fil1" points="1016037,564209 1012674,564171 1012032,562811 1014034,563491 1014034,563491 1016113,560846 1016113,560846 "/>
     <polygon class="fil1" points="1012032,562811 1010671,563453 1010029,562093 1010029,562093 "/>
     <polygon class="fil1" points="1014034,563491 1014034,563491 1012032,562811 1010029,562093 1010747,560090 1011465,558087 1012787,557445 1015470,559485 1016113,560846 1016113,560846 1016113,560846 "/>
     <path class="fil1" d="M1117913 693632c0,0 0,0 -2003,-718 0,0 0,0 0,0l2003 718 0 0 0 0 0 0 0 0 0 0z"/>
     <path class="fil1" d="M1319359 891904l-69642 -51580 -1852 -87365 0 0 1852 87365 69642 51580 0 0 0 0zm36579 -55774l9711 -17987c0,0 0,0 0,0l-9711 17987zm13188 -24638c0,0 0,0 0,0l0 0 0 0 0 0 0 0zm-9334 -5555l-111171 -58344 0 0 111171 58344c0,0 0,0 0,0l0 0 0 0z"/>
     <path class="fil1" d="M1325368 894020l-4006 -1398 -2003 -718 0 0 0 0 42323 -78523 2645 2041 2721 -1285 1360 -642 718 -2003 0 0c0,0 0,0 0,0l-718 2003 -2759 4648c0,0 0,0 0,0l-9711 17987 -30570 57890 0 0 0 0z"/>
     <polygon class="fil1" points="1323289,896703 1322647,895343 1322005,893983 1322005,893983 1321362,892622 1325368,894020 "/>
     <path class="fil1" d="M1368446 810132l-2003 -681 -2683 1285 -2078 2645 -113817 -60422 0 0 0 0 76 -3363 680 -2003 111171 58344c0,0 0,0 0,0l8011 2872 643 1323 0 0 0 0z"/>
     <polygon class="fil1" points="1367048,814137 1364327,815422 1361682,813381 1361682,813381 1361682,813381 1363760,810736 1366443,809451 1368446,810132 1368446,810132 1368408,813495 "/>
     <line class="fil0" x1="1248621" y1="747593" x2="1248621" y2= "747593" />
     <polygon class="fil1" points="1247941,749596 1247298,748235 1247298,748235 1246656,746913 1246656,746913 1248621,747593 1248621,747593 1248621,747593 "/>
     <path class="fil1" d="M1314560 895872l-60309 -46063c-1285,-2721 -2569,-5442 -3892,-8125l-642 -1360 69642 51580 -2078 2645 -2721 1323 0 0 0 0 0 0z"/>
     <polygon class="fil1" points="1321362,892622 1320002,893265 1318641,893907 1317281,894549 1319359,891904 "/>
     <polygon class="fil1" points="1322005,893983 1320002,893265 1321362,892622 "/>
     <path class="fil1" d="M1244540 829479c0,0 0,0 0,0l-2683 -78636 0 0 2683 78636 0 0z"/>
     <path class="fil1" d="M1249717 840324l0 0c-1928,-4081 -3893,-8124 -5177,-10845l0 0c0,0 0,0 0,0l-2683 -78636 2002 718 4006 1398 1852 87365 0 0 0 0 0 0z"/>
     <polygon class="fil1" points="1247865,752959 1243859,751561 1243859,751561 1243859,751561 1243859,751561 1245220,750918 1246580,750238 1246580,750238 1246580,750238 1247941,749596 "/>
     <path class="fil1" d="M1245220 750918l-1361 643 0 0 1361 -643 0 0zm1360 -680l718 -2003 0 0 643 1361 -1361 642 0 0 0 0z"/>
     <path class="fil1" d="M1250359 841684c-642,-1360 -642,-1360 -642,-1360 0,0 0,0 0,0l0 0 642 1360z"/>
     <line class="fil0" x1="1241857" y1="750843" x2="1241857" y2= "750843" />
     <polygon class="fil1" points="1247298,748235 1245976,745552 1245976,745552 1246656,746913 1246656,746913 "/>
     <polygon class="fil1" points="1243859,751561 1241857,750843 1241857,750843 1241857,750843 1241214,749482 1241214,749482 1243217,750200 1242499,752203 "/>
     <path class="fil1" d="M1245220 750918l0 0 1360 -680 0 0 -1360 680 0 0zm-1361 643l0 0 0 0 -1360 642 718 -2003 642 1361 0 0z"/>
     <polygon class="fil1" points="1243217,750200 1241214,749482 1241214,749482 1241214,749482 1241932,747480 "/>
     <polygon class="fil1" points="1245220,750918 1245220,750918 1243859,751561 1243217,750200 1241932,747480 1242612,745477 1245976,745552 1247298,748235 1246580,750238 "/>
     <polygon class="fil1" points="1363798,1002169 1267175,1033419 1267175,1033419 1363798,1002169 1318528,900633 1260486,953347 1260486,953347 1318528,900633 "/>
     <polygon class="fil1" points="1369730,1007648 1369730,1007648 1268422,1039466 1267137,1036783 1267175,1033419 1363798,1002169 1365725,1006250 1368370,1008291 "/>
     <polygon class="fil1" points="1370448,1005645 1370486,1002282 1367161,1002245 1363798,1002169 1318528,900633 1321249,899349 1325217,900747 1371129,1003643 "/>
     <polygon class="fil1" points="1369730,1007648 1368370,1008291 1365725,1006250 1363798,1002169 1367161,1002245 1370486,1002282 1370448,1005645 "/>
     <polygon class="fil1" points="1325217,900747 1321249,899349 1322609,898668 1321967,897346 1321967,897346 1323289,896703 "/>
     <path class="fil1" d="M1261128 1034666l0 0 -6197 -68660c0,0 0,0 0,0l6197 68660 0 0 0 0zm2910 -91333c0,0 0,0 0,0l6840 -6575 -6840 6575z"/>
     <path class="fil1" d="M1267175 1033419l-4686 605 -1361 642 -6197 -68660c0,0 0,0 0,0l0 0c2759,-4610 4157,-8615 5555,-12659l0 0 0 0 0 0 6689 80072 0 0 0 0 0 0 0 0 0 0z"/>
     <polygon class="fil1" points="1267137,1036783 1266457,1035422 1266457,1035422 1264492,1034704 1262489,1034024 1267175,1033419 "/>
     <path class="fil1" d="M1260486 953347l0 0c1436,-4005 1512,-7368 3552,-10014l0 0c0,0 0,0 0,0l6840 -6575 43682 -40886 2683 2041 1285 2720 -58042 52714 0 0 0 0z"/>
     <polygon class="fil1" points="1318528,900633 1317243,897913 1317886,899273 1319246,898631 1319246,898631 1321249,899349 "/>
     <polygon class="fil1" points="1321249,899349 1319246,898631 1319246,898631 1321249,899349 1321249,899349 1321967,897346 1322609,898668 "/>
     <path class="fil1" d="M1260486 953347c0,0 0,0 0,0 0,0 0,0 0,0l0 0 0 0 0 0z"/>
     <polygon class="fil1" points="1321967,897346 1323289,896703 1322005,893983 1322647,895343 1323289,896703 "/>
     <polygon class="fil1" points="1317243,897913 1314560,895872 1317281,894549 1317281,894549 1316601,896590 "/>
     <polygon class="fil1" points="1316601,896590 1317281,894549 1317281,894549 1318641,893907 1320002,893265 1317281,894549 "/>
     <polygon class="fil1" points="1319246,898631 1317886,899273 1317243,897913 1317243,897913 1316601,896590 1317243,897913 "/>
     <polygon class="fil1" points="1321249,899349 1321249,899349 1319246,898631 1317243,897913 1316601,896590 1317281,894549 1320002,893265 1322005,893983 1323289,896703 1321967,897346 "/>
     <path class="fil1" d="M1231276 1128834l-86080 -33745 0 0 86080 33745 27736 -88159 -27736 88159 0 0zm-90728 -36503l0 0 38468 -48369c0,0 0,0 0,0l-38468 48369 0 0z"/>
     <polygon class="fil1" points="1234526,1135635 1234526,1135635 1233166,1136278 1145082,1101815 1143155,1097772 1145196,1095089 1231276,1128834 1231201,1132197 1231163,1135560 "/>
     <path class="fil1" d="M1145196 1095089l-4006 -1398 -642 -1360 38468 -48369c0,0 0,0 0,0l0 0c3325,76 7406,-1889 10127,-3174l0 0 -43947 54301 0 0 0 0 0 0 0 0 0 0z"/>
     <polygon class="fil1" points="1143155,1097772 1143835,1095769 1142513,1096412 1143193,1094409 1141190,1093691 1145196,1095089 "/>
     <line class="fil0" x1="1140548" y1="1092331" x2="1140548" y2= "1092331" />
     <polygon class="fil1" points="1141190,1093691 1141190,1093691 1139830,1094333 1139187,1093011 1139830,1094333 1137827,1093653 1137827,1093653 1140548,1092331 1140548,1092331 "/>
     <path class="fil1" d="M1142513 1096412l-2683 -2079 1360 -642 0 0 2003 718 -680 2003 0 0 0 0 0 0zm-4724 604l680 -2040 -642 -1323 0 0 2003 680 -2041 2683 0 0 0 0 0 0z"/>
     <polygon class="fil1" points="1234526,1135635 1235924,1131630 1233921,1130912 1231276,1128834 1259012,1040637 1262338,1040713 1265663,1044113 1237209,1134313 "/>
     <polygon class="fil1" points="1234526,1135635 1234526,1135635 1231163,1135560 1231201,1132197 1231276,1128834 1233921,1130912 1235924,1131630 "/>
     <path class="fil1" d="M1261128 1034666l-61820 -415c0,0 0,0 0,0l61820 415 0 0 0 0 0 0z"/>
     <path class="fil1" d="M1259012 1040637l0 0 0 0 -69869 151 1322 -642c2759,-1323 5442,-2608 8843,-5895l0 0c0,0 0,0 0,0l61820 415 -717 2003 -1399 3968 0 0 0 0 0 0z"/>
     <path class="fil1" d="M1189143 1040788l0 0 0 0 0 0c0,0 0,0 0,0 0,0 1322,-642 1322,-642l-1322 642z"/>
     <polygon class="fil1" points="1262338,1040713 1259012,1040637 1260411,1036669 1261053,1038030 1261695,1039352 1261695,1039352 "/>
     <line class="fil0" x1="1261128" y1="1034666" x2="1261128" y2= "1034666" />
     <polygon class="fil1" points="1260411,1036669 1261128,1034666 1261128,1034666 1262489,1034024 1262489,1034024 1261771,1035989 1261128,1034666 1261771,1035989 "/>
     <path class="fil1" d="M1261695 1039352l-642 -1322 -642 -1361 0 0 1360 -680 -76 3363 0 0 0 0 0 0zm4762 -3930l-4686 567 718 -1965 0 0 2003 680 2002 718 0 0 0 0 -37 0z"/>
     <path class="fil1" d="M1116439 1048912c0,0 0,0 0,0 0,0 0,0 0,0zm0 0c-8691,-793 -17420,-1624 -26791,-3816l0 0c9371,2192 18100,3023 26791,3816l0 0zm-50824 -12281c0,0 0,0 0,0 0,0 0,0 0,0zm0 0c-25998,-12545 -45761,-33026 -64693,-65637l0 0c18932,32611 38695,53092 64693,65637l0 0zm-102821 -228842c-604,-4724 151,-10052 -415,-14775l0 0c566,4723 -189,10051 415,14775l0 0 0 0zm3666 -58382l0 0c75,-3363 793,-5328 2191,-9372 -1398,4044 -2116,6009 -2191,9372l0 0zm2191 -9372c0,0 0,0 0,0 0,0 0,0 0,0zm93223 -69567c-19310,-9069 -37335,-15417 -49994,-21010l-12016 -4232 -3552 10014 3552 -10014 12016 4232c12659,5593 30684,11941 49994,21010l0 0 0 0zm-86572 34765c5706,-19385 10732,-36730 14964,-48784l4950 -14019 0 0 -4950 14019c-4232,12054 -9258,29399 -14964,48784l0 0 0 0z"/>
     <path class="fil1" d="M1179016 1043962c-14851,3779 -37788,8087 -62577,4950 0,0 0,0 0,0 0,0 0,0 0,0 -8691,-793 -17420,-1624 -26791,-3816l-9258 -8880 -2003 -718 0 0c44060,15568 91900,7633 108148,-114l0 0 -1360 643 -6159 7935 0 0 0 0 0 0z"/>
     <path class="fil1" d="M1078387 1035498l0 0 -1360 680 -9410 1171c-2002,-718 -2002,-718 -2002,-718 0,0 0,0 0,0 0,0 0,0 0,0 -25998,-12545 -45761,-33026 -64693,-65637l0 0c0,0 0,0 0,0l189 -10051 -680 -1361 0 0c0,0 0,0 0,0l0 0c0,0 0,0 0,0 22181,39375 47272,63975 77956,75916l0 0 0 0z"/>
     <path class="fil1" d="M1078387 1035498l0 0 0 0c0,0 0,0 0,0l0 0 0 0 0 0 0 0z"/>
     <path class="fil1" d="M1000431 959582c0,0 0,0 0,0l0 0 -643 -1360 -8577 -7520c-17987,-48028 -27888,-96548 -28417,-142913 -604,-4724 151,-10052 -415,-14775l7822 -25394 0 0 0 0c-6424,59667 4496,127723 30230,191962l0 0z"/>
     <path class="fil1" d="M1000431 959582l0 0 0 0c0,0 0,0 0,0 0,0 0,0 0,0l0 0 0 0z"/>
     <path class="fil1" d="M970201 767620l0 0 -643 -1360 1323 -642 -4421 -16211c75,-3363 793,-5328 2191,-9372 0,0 0,0 0,0 0,0 0,0 0,0 2230,-12696 3779,-23428 6651,-34802 5706,-19385 10732,-36730 14964,-48784l4950 -14019 0 0 0 0 642 1360 1361 -642 0 0 2645 2078 -3552 10014 -680 1965c-6500,24751 -20632,64843 -25431,110415l0 0 0 0 0 0z"/>
     <polygon class="fil1" points="970201,767620 969558,766260 "/>
     <path class="fil1" d="M962379 793014c0,0 0,0 0,0l0 0c0,0 0,0 0,0l0 0 0 0z"/>
     <path class="fil1" d="M962379 793014c0,0 0,0 0,0l0 0c793,-8729 1624,-17420 2456,-26149l0 0 2645 2040 2003 718 718 -2003 0 0 -7822 25394 0 0 0 0 0 0z"/>
     <path class="fil1" d="M966460 749407l0 0c0,0 0,0 0,0l0 0c0,0 0,0 0,0z"/>
     <path class="fil1" d="M969558 766260l-1322 -2721 -4044 1965 0 0c756,-5366 1512,-10731 2268,-16097l0 0c0,0 0,0 0,0l4421 16211 -1323 642 0 0 0 0 0 0z"/>
     <path class="fil1" d="M969483 769623l-2003 -718 -2645 -2040 0 0c0,0 0,0 -643,-1361 0,0 0,0 0,0l0 0 4044 -1965 1322 2721 643 1360 -718 2003 0 0 0 0z"/>
     <path class="fil1" d="M1000922 970994c-1285,-2683 -3968,-4761 -5252,-7444l0 0 3363 38 1360 -643 38 -3363 680 1361 -189 10051 0 0 0 0 0 0z"/>
     <path class="fil1" d="M1000431 959582l-2645 -2040 -3401 3287 642 1361c-1927,-4082 -2532,-8767 -3816,-11488l8577 7558 643 1322 0 0 0 0z"/>
     <path class="fil1" d="M999033 963588l-3363 -38 0 0c-643,-1360 -643,-1360 -643,-1360 0,0 0,0 0,0l-642 -1361 3401 -3325 2645 2078 0 0 -38 3363 -1360 643 0 0 0 0 0 0z"/>
     <path class="fil1" d="M1089648 1045096c0,0 0,0 0,0l0 0c0,0 0,0 0,0l0 0z"/>
     <path class="fil1" d="M1089648 1045096c0,0 0,0 0,0l0 0c-4006,-1398 -8011,-2796 -12017,-4232l0 0 1361 -643 2720 -1322 -3325 -3401 2003 718 9258 8880 0 0 0 0 0 0z"/>
     <path class="fil1" d="M1076271 1041506c-4006,-1398 -6651,-3476 -8654,-4157l9410 -1171 1360 -680 -2683 1322 -76 3326 643 1360 0 0 0 0z"/>
     <path class="fil1" d="M1078954 1040221l-1323 643 0 0c0,0 -1360,642 -1360,642 0,0 0,0 0,0l-643 -1360 76 -3326 2683 -1322 0 0 2645 2078 -2078 2645 0 0 0 0 0 0z"/>
     <path class="fil1" d="M1254516 951231c10580,-30041 8464,-62312 -6953,-101536 15417,39224 17533,71495 6953,101536l0 0zm12545 -25960c0,0 0,0 0,0 0,0 0,0 0,0l0 0zm0 0c151,-10089 340,-20141 -1511,-30910 1851,10769 1662,20821 1511,30910zm-1511 -30910c0,0 0,0 0,0 0,0 0,0 0,0zm0 0c0,0 0,0 0,0 0,0 0,0 0,0zm-107847 -169856c-5970,-5442 -11941,-10921 -19234,-15758l0 0c7293,4837 13264,10316 19234,15758l0 0zm-54414 -40547c-33896,-18742 -68623,-32081 -88650,-39148l-12659 -5630 0 0 12659 5630c21388,6424 54754,20406 88650,39148l0 0 0 0z"/>
     <polygon class="fil1" points="997219,643148 995858,643790 995216,642430 995896,640465 995896,640465 "/>
     <path class="fil1" d="M1199308 1034251l-11412 491 -1361 642 0 0c16249,-7784 53772,-40735 67981,-84153l0 0 0 0c0,0 0,0 0,0l0 0 642 1360 -227 13453c-13339,31326 -39299,57059 -55623,68207l0 0 0 0 0 0z"/>
     <line class="fil0" x1="1186535" y1="1035384" x2="1186535" y2= "1035384" />
     <path class="fil1" d="M1254516 951231c10580,-30041 8464,-62312 -6953,-101536 -1323,-2720 -1965,-4081 -3250,-6801 0,0 0,0 0,0l0 0 642 1360 9296 5555c5782,15531 9560,30381 11299,44552 0,0 0,0 0,0 0,0 0,0 0,0 0,0 0,0 0,0 0,0 0,0 0,0 1851,10769 1662,20821 1511,30910 0,0 0,0 0,0 0,0 0,0 0,0 -793,5366 -2909,11374 -3023,18062l-8200 7256 -1322 642 0 0 0 0 0 0 0 0z"/>
     <path class="fil1" d="M1254516 951231l0 0c0,0 0,0 0,0l1360 -642 -1360 642 0 0 0 0z"/>
     <path class="fil1" d="M1244313 842894c-31893,-59667 -78032,-110832 -128516,-143292 -2003,-680 -2003,-680 -2003,-680l0 0 0 0 24675 9825c0,0 0,0 0,0l0 0c7293,4837 13264,10316 19234,15758 33102,27471 62653,64919 86837,104974l-869 12092 642 1323 0 0 0 0 0 0z"/>
     <path class="fil1" d="M1244313 842894l0 0c0,0 0,0 0,0 0,0 0,0 0,0l0 0 0 0 0 0 0 0 0 0z"/>
     <path class="fil1" d="M1113794 698922l0 0c-17269,-11714 -35218,-21463 -51920,-28454 -19310,-9069 -37335,-15417 -49994,-21010l-12016 -4232 1398 -4006 0 0 0 0 718 -2040 0 0 0 0 12659 5630c20027,7067 54754,20406 88650,39148l9863 13604 0 0 642 1360 0 0 0 0 0 0z"/>
     <polygon class="fil1" points="999864,645226 997219,643148 997219,643148 999222,643866 1001262,641220 1001262,641220 "/>
     <polygon class="fil1" points="1001262,641220 999977,638500 999977,638500 1001980,639180 "/>
     <polygon class="fil1" points="999222,643866 997219,643148 995896,640465 995896,640465 995896,640465 999977,638500 999977,638500 999977,638500 1001262,641220 "/>
     <polygon class="fil1" points="1113794,698922 1113794,698922 1113152,697562 "/>
     <path class="fil1" d="M1103289 683958c0,0 0,0 0,0l0 0c0,0 0,0 0,0l0 0 0 0z"/>
     <path class="fil1" d="M1138469 708747l-24675 -9825 0 0 3363 38 0 0 0 0 1398 -4005 -642 -1323c7293,4799 14624,9636 20556,15115l0 0 0 0z"/>
     <path class="fil1" d="M1113152 697562l0 0 -9863 -13604c0,0 0,0 0,0l0 0c4686,2759 7973,6198 12621,8956l0 0 -4081 1927 1323 2721 0 0 0 0 0 0z"/>
     <path class="fil1" d="M1117157 698960l0 0 0 0 -3363 -38 -642 -1360 -1323 -2721 4081 -1927 0 0c0,0 0,0 0,0 2003,718 2003,718 2003,718l642 1323 -1398 4005 0 0 0 0 0 0z"/>
     <path class="fil1" d="M1254251 849809l-9296 -5555 -642 -1360 4005 1436 0 0 2041 -2646 0 0c1285,2683 2607,5404 3892,8125l0 0 0 0 0 0z"/>
     <path class="fil1" d="M1244313 842894l-642 -1323 869 -12092c1284,2721 3249,6764 5177,10845l-643 -1360 -3363 -76 -1398 4006 0 0 0 0 0 0z"/>
     <path class="fil1" d="M1248318 844330l0 0 -4005 -1436 0 0 1398 -4006 3363 76 643 1360c0,0 0,0 0,0 0,0 0,0 642,1360l0 0 -2041 2646 0 0 0 0 0 0z"/>
     <path class="fil1" d="M1254931 966006l227 -13415 -642 -1360 1927 4043 2721 -1284 0 0 1322 -643c-1398,4044 -2796,8011 -5555,12659l0 0 0 0z"/>
     <path class="fil1" d="M1260486 953347l-642 -1322 -1285 -2721 -4043 1927 1322 -642 8200 -7256c-2040,2646 -2116,6009 -3552,10014l0 0z"/>
     <path class="fil1" d="M1259164 953990l-2721 1322 -1927 -4081 0 0 4043 -1927 1285 2721 642 1322c0,0 0,0 0,0 0,0 0,0 0,0l-1322 643 0 0 0 0 0 0z"/>
     <path class="fil1" d="M1189143 1040788c-2721,1285 -6802,3250 -10127,3174l6159 -7935 1360 -643 -2040 2608 3287 3438 1361 -642 0 0 0 0 0 0z"/>
     <path class="fil1" d="M1190465 1040146l0 0 -566 -4724 -3364 -38 1361 -642 11412 -491c-3401,3287 -6084,4572 -8843,5895l0 0 0 0 0 0z"/>
     <path class="fil1" d="M1189143 1040788c0,0 0,0 0,0l-1361 642 -3287 -3400 2040 -2646 0 0 3364 38 566 4724 0 0c0,0 -1322,642 -1322,642l0 0 0 0 0 0z"/>
     <path class="fil1" d="M1156267 1153056c-2682,1322 -4685,604 -6046,1247l-11865 -52601 2721 -1285 4005 1398 11185 51241 0 0z"/>
     <path class="fil1" d="M1154189 1159064l0 0 -4043 -1398 75 -3363c1361,-643 3364,75 6046,-1247l-37 3363 -2041 2645 0 0 0 0 0 0zm-9107 -57249l-4005 -1398 -2721 1285 0 0 2721 -1285 4005 1398 0 0 0 0z"/>
     <polygon class="fil1" points="1138356,1101702 1138432,1098339 1138432,1098339 1138432,1098339 1139074,1099699 1141077,1100417 "/>
     <polygon class="fil1" points="1138432,1098339 1138432,1098339 1138432,1098339 1137789,1097016 1137789,1097016 1137789,1097016 "/>
     <polygon class="fil1" points="1145082,1101815 1141077,1100417 1141795,1098414 1141795,1098414 1143155,1097772 1143155,1097772 "/>
     <polygon class="fil1" points="1141795,1098414 1142513,1096412 1142513,1096412 1143835,1095769 1143155,1097772 1143155,1097772 "/>
     <polygon class="fil1" points="1141077,1100417 1139074,1099699 1138432,1098339 1140434,1099057 1141795,1098414 1141795,1098414 1141795,1098414 "/>
     <polygon class="fil1" points="1139830,1094333 1139830,1094333 1139187,1093011 "/>
     <polygon class="fil1" points="1141795,1098414 1140434,1099057 1138432,1098339 1137789,1097016 1137789,1097016 1139830,1094333 1139830,1094333 1142513,1096412 1142513,1096412 "/>
     <path class="fil1" d="M1298538 1085000l-32875 -40887 38 -3325 2721 -1322 33517 42246c-1360,643 -2040,2645 -3401,3288l0 0 0 0z"/>
     <path class="fil1" d="M1303186 1087796l-3363 -76 -1285 -2720c1361,-643 2041,-2645 3401,-3288l2645 2079 -1398 3967 0 0 0 0 0 0 0 38zm-37523 -43683l0 0 38 -3325 2721 -1322 0 0 -2721 1322 -38 3325 0 0 0 0z"/>
     <polygon class="fil1" points="1268422,1039466 1265701,1040788 1266419,1038785 1265776,1037425 1267137,1036783 1267137,1036783 "/>
     <polygon class="fil1" points="1265776,1037425 1266457,1035422 1266457,1035422 1266457,1035422 1267137,1036783 1267137,1036783 "/>
     <polygon class="fil1" points="1265663,1044113 1262338,1040713 1263698,1040070 1263698,1040070 1263698,1040070 1265701,1040788 "/>
     <polygon class="fil1" points="1263698,1040070 1263698,1040070 1262338,1040713 1261695,1039352 1261695,1039352 1261695,1039352 "/>
     <polygon class="fil1" points="1265701,1040788 1263698,1040070 1263698,1040070 1265058,1039428 1265058,1039428 1265776,1037425 1266419,1038785 "/>
     <polygon class="fil1" points="1261771,1035989 1261128,1034666 "/>
     <polygon class="fil1" points="1265058,1039428 1263698,1040070 1261695,1039352 1261695,1039352 1261771,1035989 1261771,1035989 1266457,1035422 1266457,1035422 1265776,1037425 "/>
    </g>
    <path class="fil0 str0" d="M857895 379691c0,0 5782,23202 21350,14586 15607,-8615 13151,-28945 -6952,-45987 -20066,-17043 -66091,-50863 -37977,-75425 0,0 35294,-27396 54150,45497 0,0 4723,16778 16777,14321"/>
    <circle class="fil0 str0" transform="matrix(0.716861 -0.343001 0.343001 0.716861 892037 420801)" r="36238"/>
   </g>
   <g>
    <g>
     <path class="fil1" d="M363178 1300692l0 0c-65486,-37070 -111549,-83019 -134789,-131161l680 2003 0 0 0 0 0 0 1361 680 99684 32006 0 0 -93638 -30721c14321,25393 34009,50068 59742,72703l-2683 2003 1398 4043 0 0 3364 -37 2645 -2041c16248,14624 36540,27887 58117,41831l-24864 -82415 0 0 27623 90426 1360 680 0 0 0 0 0 0z"/>
     <path class="fil1" d="M208059 1074344l0 0c416,-31591 10203,-65260 23353,-98929l680 1965 43683 81584 -65033 13339 -2683 2041 0 0 0 0zm28114 -91598c-13187,30344 -21010,59969 -21425,88159l61027 -11941 -39602 -76218 0 0zm21577 85778l16740 -3514 0 0 -16740 3514zm24071 -11638l-43002 -79544 0 0 43002 79544 0 0 0 0 0 0zm-50409 -81471c0,0 643,-1360 643,-1360l0 0 -643 1360 0 0z"/>
     <path class="fil1" d="M228389 1169531l0 0c-14359,-28757 -21388,-62274 -20330,-95187l0 0 718 2002 1323 643 1360 680 46290 -9145 -42927 9107c-1095,29550 3855,57060 16174,83133l43493 -95754 0 0 -46781 102518 680 2003 0 0 0 0 0 0 0 0 0 0z"/>
     <path class="fil1" d="M229069 1171534l0 0 0 0 0 0 0 0 0 0 0 0zm0 0l-680 -2003 0 0 680 2003 0 0 0 0z"/>
     <polygon class="fil1" points="210100,1076989 208777,1076346 208059,1074344 210742,1072303 275775,1058964 276493,1060967 274490,1065010 274490,1065010 274490,1065010 257750,1068524 211460,1077669 "/>
     <path class="fil1" d="M232055 974055l0 0c19763,-43834 50257,-89104 90841,-134449l0 0 -1322 2683 2758 4686c-37258,41944 -63785,82490 -83586,122961l-6689 3439 -2002 680 0 0 0 0 0 0zm6764 3287l0 0 115668 -58759 0 0 -115668 58759 0 0zm118237 -70852l-28756 -64239c0,0 0,0 0,0l28756 64239 0 0 0 0 0 0z"/>
     <path class="fil1" d="M232055 974055l0 0 0 0 0 0 0 0zm6764 3287l0 0 0 0 0 0 0 0z"/>
     <path class="fil1" d="M353769 913217l-29437 -66242c0,0 0,0 0,0l29437 66242 0 0 0 0zm3287 -6727l0 0 85854 -168684c-42700,32611 -81999,68547 -114610,104445l-680 -2003 -2721 -1322 -2003 680c34576,-39942 79241,-79959 125947,-113930l0 0 0 0 0 0 -91787 180777 0 0 0 0 0 37z"/>
     <path class="fil1" d="M353769 913217l-29437 -66242 -2758 -4686 1322 -2683 2003 -680 2721 1322 680 2003c0,0 0,0 0,0l28756 64239 0 0 0 0 -2645 5366 -2002 680 0 0 1360 681 0 0z"/>
     <path class="fil1" d="M448843 725676c36730,-27207 75462,-51694 112230,-72175l0 0 -1965 4044 1360 4005c-33442,17080 -67489,38884 -100856,62690l126930 227 -4119 -8691 4119 8691 -135659 529 0 0 -2040 680 0 0 0 0 0 0zm142384 -3930l-21312 -55548 21312 55548 0 0 0 0z"/>
     <polygon class="fil1" points="448843,725676 448843,725676 450883,724996 "/>
     <path class="fil1" d="M591227 721746l0 0 99835 -104974c-35558,7671 -77049,20821 -123906,41377l2759 8049 -4799 -10732 -1361 -642 -2682 -1323 0 0c53507,-23957 98399,-37145 138643,-44211l-680 1360 -1323 -642 -106486 111738 0 0 0 0 0 0zm-8804 -5970l-21955 -54226c0,0 0,0 0,0l21955 54226zm89405 -69946l23316 -23730 0 0 -23316 23730zm27888 -36540c0,0 0,0 0,0l1360 680 -1360 -680 0 0 0 0z"/>
     <path class="fil1" d="M586542 724467l-4119 -8691 -21955 -54226c0,0 0,0 0,0l-1360 -4005 1965 -4044 2682 1323 1361 642 4799 10732 21312 55548 0 0 0 0 -2003 4043 -2682 -1322 0 0 0 0 0 0z"/>
     <path class="fil1" d="M339523 1205505l0 0 69870 718 0 0 -69870 -718zm-6802 -6651l6046 -80677 0 0 -6046 80677 0 0 0 0 0 0zm67867 1436c-12168,-9333 -29777,-24600 -42700,-45987 12923,21387 30532,36654 42700,45987l0 0 0 0zm11412 567c-16173,-7935 -52072,-40546 -67225,-84720l0 0c0,0 0,0 0,0l0 0c15153,44174 51052,76785 67225,84720l0 0 0 0 0 0zm-54112 -46554c0,0 0,0 0,0 0,0 0,0 0,0z"/>
     <path class="fil1" d="M344775 1116137l0 0c-9673,-31477 -5932,-66431 11148,-108262 0,0 0,0 0,0 -17080,41831 -20821,76785 -11148,108262l0 0zm-8124 -7331l0 0c-680,-2003 -680,-2003 -680,-2003 0,0 0,0 680,2003zm-680 -2003c0,0 0,0 0,0 0,0 0,0 0,0zm-6084 -4648l-44703 -41944 62085 -44854c0,0 0,0 0,0l-62085 44854 44703 41944 0 0 0 0z"/>
     <path class="fil1" d="M357170 995140l0 0c26489,-43909 58420,-81810 94394,-110982 -35974,29172 -67905,67073 -94394,110982l0 0 0 0zm5933 -87403l0 0 121865 -47385 0 0 -121865 47385z"/>
     <path class="fil1" d="M487689 865037c38732,-24524 78901,-38317 102329,-48595l2003 -680 -2645 2041c-22786,8917 -62955,22710 -101687,47234l0 0 0 0 0 0zm-2721 -4685l51769 -68283 -51769 68283 0 0zm23353 -13642c0,0 0,0 0,0 0,0 0,0 0,0zm0 0c11374,-6121 20745,-11601 31439,-16400 -10694,4799 -20065,10279 -31439,16400zm23882 -38468l55774 -73043 13377 71758 0 0 -13377 -71758 -55774 73043 0 0z"/>
     <line class="fil0" x1="484968" y1="860352" x2="484968" y2= "860352" />
     <path class="fil1" d="M360533 916504l0 0 102367 -41869c0,0 0,0 0,0l-102367 41869 0 0 0 0zm2570 -8767l89859 -176733 130292 227 -46517 60838 46517 -60838 -130292 -227 -89859 176733 0 0 0 0 0 0z"/>
     <polygon class="fil1" points="358455,910496 357056,906490 448843,725676 448843,725676 447520,728359 449561,731042 451601,730324 452962,731004 363103,907737 "/>
     <polygon class="fil1" points="354411,911856 357056,906490 358455,910496 356452,911176 356452,911176 356452,911176 "/>
     <polygon class="fil1" points="452962,731004 453604,729682 452206,725638 450883,724996 450883,724996 586542,724467 586579,727830 583254,731231 "/>
     <polygon class="fil1" points="449561,731042 447520,728359 448843,725676 450883,724996 452206,725638 453604,729682 452962,731004 451601,730324 "/>
     <polygon class="fil1" points="586579,727830 586542,724467 589224,725789 587864,725147 587222,726470 587222,726470 "/>
     <path class="fil1" d="M360533 916504l-718 -2003 3288 -6764 0 0 0 0 121865 -47385 0 0c-7369,4761 -14699,9522 -22068,14283l-102367 41869 0 0 0 0z"/>
     <polygon class="fil1" points="359815,914501 359815,914501 360495,913141 360495,913141 358455,910496 363103,907737 "/>
     <polygon class="fil1" points="360495,913141 359815,911138 356452,911176 356452,911176 358455,910496 "/>
     <path class="fil1" d="M499630 850829l32573 -42587 -32573 42587c0,0 0,0 0,0l0 0z"/>
     <path class="fil1" d="M484968 860352l51769 -68283 46517 -60838 4686 604 37 3364 -55774 73043 -32573 42587c-4648,2721 -9334,5441 -14020,8162l-642 1361 0 0 0 0 0 0z"/>
     <polygon class="fil1" points="583254,731231 586579,727830 587902,728510 587940,731835 "/>
     <polygon class="fil1" points="587902,728510 586579,727830 587222,726470 587222,726470 "/>
     <path class="fil1" d="M484968 860352l0 0 0 0 0 0 642 -1361c0,0 0,0 0,0 -642,1361 -642,1361 -642,1361l0 0 0 0z"/>
     <path class="fil1" d="M281821 1056886l0 0 68736 -51618 3930 -86685 0 0 -3930 86685 -68736 51618 0 0 0 0zm-50409 -81471l0 0 0 0c0,0 0,0 0,0l0 0 0 0zm9334 -5479c0,0 0,0 0,0l113023 -56719 0 0 -113023 56719 0 0 0 0z"/>
     <path class="fil1" d="M275775 1058964l-43683 -81584 -680 -1965c0,0 0,0 0,0l643 -1360 1398 4005 0 0 2683 1323 2683 -2041 43002 79544 0 0 0 0 -2040 680 -4006 1398 0 0 0 0 0 0z"/>
     <polygon class="fil1" points="276493,1060967 275775,1058964 279781,1057604 277778,1058284 277778,1058284 277135,1059644 "/>
     <path class="fil1" d="M232055 974055l2002 -680 6689 -3439c0,0 0,0 0,0l113023 -56719 680 2002 38 3364 0 0 0 0 -115668 58759 -718 -2002 -4044 -1965 -2002 680 0 0 0 0 0 0z"/>
     <polygon class="fil1" points="233453,978060 233453,978060 232055,974055 232055,974055 234057,973375 238101,975340 238819,977342 238819,977342 238819,977342 236136,979383 "/>
     <line class="fil0" x1="353769" y1="913217" x2="353769" y2= "913217" />
     <polygon class="fil1" points="354449,915219 353769,913217 353769,913217 353769,913217 354411,911856 354411,911856 355129,913859 353769,913217 "/>
     <path class="fil1" d="M357170 995140l3363 -78636 0 0 -3363 78636c0,0 0,0 0,0z"/>
     <path class="fil1" d="M285184 1060211l-2683 -1323 -680 -2002 68736 -51618 -680 1322c-1323,2721 -1285,6084 -2608,8767l-62085 44854 0 0 0 0 0 0z"/>
     <polygon class="fil1" points="279781,1057604 281821,1056886 282501,1058888 282501,1058888 "/>
     <polygon class="fil1" points="277778,1058284 277778,1058284 279781,1057604 279781,1057604 "/>
     <path class="fil1" d="M350557 1005268l3930 -86685 4005 -1399 2041 -680 -3363 78636c0,0 0,0 0,0l0 0c-1323,2683 -4648,6084 -6613,10128l0 0 0 0 0 0 0 0z"/>
     <polygon class="fil1" points="354487,918583 354449,915219 354449,915219 354449,915219 355809,915862 355809,915862 357170,916542 357170,916542 358492,917184 358492,917184 "/>
     <path class="fil1" d="M355809 915862l1361 680 0 0 -1361 -680 0 0zm-1360 -643l0 0 0 0 -680 -2002 1360 642 -680 1360 0 0z"/>
     <path class="fil1" d="M349877 1006590l680 -1322 0 0c0,0 0,0 0,0 0,0 0,0 -680,1322l0 0z"/>
     <line class="fil0" x1="360533" y1="916504" x2="360533" y2= "916504" />
     <polygon class="fil1" points="355129,913859 354411,911856 354411,911856 356452,911176 356452,911176 "/>
     <polygon class="fil1" points="358492,917184 358492,917184 359173,915824 359815,914501 359815,914501 360533,916504 360533,916504 360533,916504 "/>
     <path class="fil1" d="M355809 915862l0 0 -1360 -643 1360 643 0 0 0 0zm1361 680l2003 -718 -681 1360 0 0 0 0 -1322 -642 0 0 0 0z"/>
     <polygon class="fil1" points="359173,915824 360495,913141 359815,914501 359815,914501 359815,914501 "/>
     <polygon class="fil1" points="355809,915862 354449,915219 355129,913859 356452,911176 359815,911138 360495,913141 359173,915824 357170,916542 "/>
     <path class="fil1" d="M235078 1166130l46138 -101158 57551 53205 0 0 -57551 -53205 -46138 101158 97643 32724 0 0 -97643 -32724 0 0 0 0zm103727 34009l5441 -69227c0,0 0,0 0,0l-5441 69227 0 0 0 0z"/>
     <polygon class="fil1" points="229069,1171534 233075,1170173 233755,1168813 235078,1166130 332721,1198854 332759,1202217 330114,1204220 230430,1172214 "/>
     <polygon class="fil1" points="228389,1169531 228389,1169531 227709,1167528 274490,1065010 279856,1064292 281216,1064972 235078,1166130 231715,1166168 228351,1166168 "/>
     <polygon class="fil1" points="229069,1171534 229069,1171534 228389,1169531 228351,1166168 231715,1166168 235078,1166130 233755,1168813 233075,1170173 "/>
     <polygon class="fil1" points="274490,1065010 276493,1060967 277816,1061647 279176,1062289 278496,1063650 279856,1064292 "/>
     <path class="fil1" d="M332721 1198854l0 0 0 0 6046 -80677 0 0 0 0 1361 681c1360,4005 2720,8048 4118,12054l-5441 69227 -2721 -1323 -3363 38 0 0 0 0 0 0z"/>
     <polygon class="fil1" points="332759,1202217 332721,1198854 336084,1198816 335442,1200177 333439,1200857 333439,1200857 "/>
     <path class="fil1" d="M336651 1108806l-6764 -6651 6764 6651c0,0 0,0 0,0z"/>
     <path class="fil1" d="M338767 1118177l-57551 -53205 1323 -2720 2645 -2041 44703 41944 6764 6651c0,0 0,0 0,0l0 0c718,2003 718,5366 2116,9371l0 0 0 0z"/>
     <polygon class="fil1" points="281216,1064972 279856,1064292 280498,1062970 281859,1063612 281859,1063612 282539,1062252 "/>
     <polygon class="fil1" points="279856,1064292 278496,1063650 279176,1062289 278496,1063650 279856,1064292 281859,1063612 280498,1062970 "/>
     <path class="fil1" d="M340128 1118858l-1361 -681 0 0c0,0 0,0 0,0 0,0 1361,681 1361,681l0 0 0 0z"/>
     <polygon class="fil1" points="279176,1062289 277816,1061647 276493,1060967 277135,1059644 277778,1058284 276493,1060967 "/>
     <polygon class="fil1" points="282539,1062252 282539,1062252 282539,1062252 282501,1058888 282501,1058888 285184,1060211 "/>
     <polygon class="fil1" points="282539,1062252 282501,1058888 279781,1057604 282501,1058888 282501,1058888 282501,1058888 "/>
     <polygon class="fil1" points="281859,1063612 282539,1062252 282539,1062252 282539,1062252 282539,1062252 "/>
     <polygon class="fil1" points="278496,1063650 279176,1062289 276493,1060967 277778,1058284 279781,1057604 282501,1058888 282539,1062252 282539,1062252 281859,1063612 279856,1064292 "/>
     <path class="fil1" d="M363178 1300692l0 0 0 0 0 0 0 0 2683 1285 88386 -33669 0 0 -81698 30268c24260,8502 47160,16362 70059,20897l-1323 2683 2041 2683 0 0 4005 -1399 1323 -2682c33631,6423 65222,6801 92693,1851l-81735 -55019 0 0 87819 59705 0 0 2041 -718c-50976,11865 -115517,3703 -186294,-25885l0 0 0 0 0 0z"/>
     <line class="fil0" x1="363178" y1="1300692" x2="363178" y2= "1300692" />
     <path class="fil1" d="M637064 1284179l1322 -2683 -29399 -59516 64391 -11978 -64391 11978 28001 55511c20670,-18327 39299,-42663 56493,-71041l5366 -718 2002 -681c-17193,31704 -39110,59441 -63785,79128l0 0 0 0 0 0 0 0zm-24525 -42096l-8880 -16059 0 0 8880 16059zm-5592 -26149l0 0 87819 -15530 0 0 -87819 15530 0 0zm93902 -10883l681 -1360 0 0c0,0 -681,1360 -681,1360l0 0z"/>
     <path class="fil1" d="M549472 1326577l0 0 0 0 0 0 2002 -680 52185 -99873 0 0 -48897 93146c28152,-6310 54225,-18629 76898,-37636l-19121 -39451 19839 41491 1323 643 1360 680 2003 -718c-25318,21048 -54755,36768 -87592,42398l0 0 0 0 0 0 0 0z"/>
     <polygon class="fil1" points="547431,1327295 549472,1326577 549472,1326577 "/>
     <polygon class="fil1" points="633701,1284217 632378,1283574 612539,1242083 603659,1226024 603659,1226024 603659,1226024 605624,1222018 608987,1221980 638386,1281496 637064,1284179 635061,1284897 "/>
     <path class="fil1" d="M701530 1203691l0 0 0 0 642 -1322 -2758 -8049c21161,-39829 35520,-86307 47121,-140797l4043 -1361 2683 -2040c-10921,59855 -29285,111058 -51731,153569l0 0 0 0 0 0zm-6764 -3287l-23240 -126741 0 0 23240 126741 0 0 0 0zm-16627 -136868l0 0 68358 -16740c0,0 0,0 0,0l-68358 16740 0 0 0 0z"/>
     <path class="fil1" d="M701530 1203691l0 0 0 0 0 0 0 0zm-6764 -3287l0 0 0 0 0 0 0 0z"/>
     <path class="fil1" d="M676174 1070943l0 0 70399 -17420 -70399 17420 0 0 0 0zm1965 -7407l87063 -181419 -680 -2040 0 0c1851,57777 -2305,117557 -11261,170045l-2040 -2683 -2721 -1285 -2003 642c9674,-47083 13906,-100175 13453,-153909l-81811 170649 0 0 0 0 0 0z"/>
     <path class="fil1" d="M676174 1070943l-680 -2003 2645 -5404 0 0 0 0 68358 -16740c0,0 0,0 0,0l2003 -680 2721 1323 2040 2683 -2683 2040 -4043 1361c0,0 0,0 0,0l-70361 17420 0 0 0 0 0 0z"/>
     <path class="fil1" d="M764522 880077l642 -1323 -1322 -680 -81509 -106750 12055 -4119 -12055 4119 76747 99419c-1700,-40962 -5403,-81243 -12432,-118124l4006 -1361 1965 -4043 0 0c7746,42247 12205,87857 11903,132862l0 0 0 0zm-84267 -114762l0 0 52261 -14586 -52261 14586z"/>
     <polygon class="fil1" points="764522,880077 765164,878754 "/>
     <path class="fil1" d="M680255 765315l8276 -51126 -8276 51126 0 0zm14133 1890l52260 -14586c0,0 0,0 0,0l-52260 14586 0 0 0 0zm38128 -16476l14057 -4799c-14586,-55623 -31742,-99155 -44741,-123868l605 -8087 680 -1322 -718 -2041 0 0 0 0 0 0c13641,23429 33555,71570 50220,136603l0 0 -1323 -680 -2721 -1323 -16059 5517 0 0 0 0 0 0z"/>
     <polygon class="fil1" points="703117,612653 702399,610612 702399,610612 "/>
     <path class="fil1" d="M682333 771324l-2720 -1323 642 -4686 0 0 0 0 52261 -14548 16059 -5555 2683 1323 1361 680 -1965 4043 -4006 1361c0,0 0,0 0,0l-52260 14586 -12055 4119 0 0 0 0 0 0z"/>
     <path class="fil1" d="M699716 609290l0 0c0,0 0,0 0,0zm1360 680l0 0 0 0 0 0z"/>
     <path class="fil1" d="M699036 610650l680 -1360c0,0 0,0 0,0l1360 680 0 0 -2040 680 0 0z"/>
     <polygon class="fil1" points="606682,802876 592625,729115 671828,645830 592625,729115 606682,802876 673567,768716 695144,622100 695144,622100 673567,768716 "/>
     <polygon class="fil1" points="592625,729115 593268,727792 593268,727792 593948,726432 591227,721746 697713,610008 699036,610650 697071,611330 695144,622100 695144,622100 695144,622100 671828,645830 "/>
     <polygon class="fil1" points="593268,727792 593268,727792 592588,725752 591227,725109 591227,725109 591227,725109 589905,724429 589224,725789 591227,721746 593948,726432 "/>
     <polygon class="fil1" points="601354,806957 587977,735199 591945,730475 591945,730475 592625,729115 606682,802876 603357,806277 "/>
     <polygon class="fil1" points="591945,730475 592625,729115 592625,729115 592625,729115 593268,727792 593268,727792 592625,729115 "/>
     <polygon class="fil1" points="592625,729115 593268,727792 593268,727792 "/>
     <line class="fil0" x1="591227" y1="725109" x2="591227" y2= "725109" />
     <polygon class="fil1" points="587222,726470 587864,725147 589224,725789 589905,724429 591227,725109 "/>
     <polygon class="fil1" points="593268,727792 591227,725109 592588,725752 "/>
     <polygon class="fil1" points="587977,735199 587940,731835 589942,731155 591945,730475 591945,730475 "/>
     <polygon class="fil1" points="587940,731835 587902,728510 587902,728510 588582,730513 589942,731155 591945,730475 589942,731155 "/>
     <polygon class="fil1" points="591945,730475 592625,729115 592625,729115 "/>
     <polygon class="fil1" points="588582,730513 587902,728510 587902,728510 587902,728510 587222,726470 591227,725109 591227,725109 593268,727792 592625,729115 591945,730475 589942,731155 "/>
     <path class="fil1" d="M688531 714189l13301 -92127c0,0 0,0 0,0l-13301 92127 0 0zm12545 -104219l1323 642 0 0 -1323 -642 0 0z"/>
     <path class="fil1" d="M673567 768716l21577 -146616 7293 -8125 680 -1322 -680 1322 -605 8087c0,0 0,0 0,0l-13301 92127 -8276 51126 -4005 1361 -681 1360 0 0 -2002 680 0 0 0 0 0 0zm28832 -158104l-1323 -642 0 0 1323 642 0 0 0 0z"/>
     <polygon class="fil1" points="695144,622100 697071,611330 699036,610650 701076,609970 702399,610612 703117,612653 702437,613975 "/>
     <polygon class="fil1" points="675569,768036 676250,766676 680255,765315 679613,770001 678933,767998 678933,767998 678933,767998 677572,767356 676250,766676 "/>
     <polygon class="fil1" points="452848,1260940 409393,1206223 409393,1206223 "/>
     <line class="fil0" x1="409393" y1="1206223" x2="409393" y2= "1206223" />
     <path class="fil1" d="M463618 1262867l-1360 -680 59969 -54264 0 0 -58647 54944 0 0 0 0 38 0zm-42814 -52676l0 0c18894,5857 55171,10240 88008,1247l0 0c-32837,8993 -69114,4610 -88008,-1247z"/>
     <path class="fil1" d="M532278 1204522c5328,-4081 11374,-6159 16022,-8880 -4648,2721 -10694,4799 -16022,8880l0 0zm9409 1247l59176 8881 -1322 -75878c-8616,14170 -17912,26338 -27926,36503 10014,-10165 19310,-22333 27926,-36503l1322 75878 -59176 -8881zm6613 -10127c0,0 0,0 0,0 0,0 0,0 0,0l0 0zm23353 -20367c0,0 0,0 0,0 0,0 0,0 0,0l0 0zm0 0c0,0 0,0 0,0 0,0 0,0 0,0z"/>
     <path class="fil1" d="M598785 1126680c26980,-62048 38468,-129952 32611,-189695 5857,59743 -5631,127647 -32611,189695 0,0 0,0 0,0l0 0 0 0zm10656 -8162c16400,-43796 27396,-90238 28416,-133240 -1020,43002 -12016,89444 -28416,133240l0 0 0 0 0 0zm63975 -58987l-36012 -124586 0 0 36012 124586 0 0 0 0 0 0zm-19915 -48180l-15190 -50900c0,0 0,0 0,0l15190 50900 0 0 0 0z"/>
     <path class="fil1" d="M630678 934982c-1512,-20821 -5064,-40924 -9901,-58344 4837,17420 8389,37523 9901,58344zm6726 -37l0 0 20745 -83474 -20745 83474 0 0 0 0 0 0zm5592 -49087l28606 -109735 -63484 34122 0 0 63484 -34122 -28606 109735 0 0z"/>
     <polygon class="fil1" points="608118,810245 607400,808242 606682,802876 673567,768716 672887,770077 672887,770077 671602,776123 "/>
     <polygon class="fil1" points="607400,808242 607400,808242 603357,806277 603357,806277 606682,802876 "/>
     <polygon class="fil1" points="672887,770077 672887,770077 673567,768716 675569,768036 675569,768036 673567,768716 673567,768716 673567,768716 "/>
     <path class="fil1" d="M673567 768716l0 0 2002 -680 0 0 -2002 680 0 0 0 0zm4005 -1360l1361 642 0 0 -1361 -642 0 0 0 0z"/>
     <line class="fil0" x1="637404" y1="934945" x2="637404" y2= "934945" />
     <path class="fil1" d="M669448 1067617l-15947 -56266 15947 56266 0 0 0 0 0 0zm3968 -8086l0 0 85740 -178736 -81508 -103388 -19499 74064 19499 -74064 81508 103388 -85740 178736 0 0z"/>
     <polygon class="fil1" points="674096,1064897 673416,1059531 759156,880795 760516,881475 761197,883478 763199,882798 764522,880077 765882,880757 678139,1063536 "/>
     <polygon class="fil1" points="675494,1068940 676174,1067580 676174,1067580 676174,1067580 674096,1064897 678139,1063536 "/>
     <polygon class="fil1" points="759156,880795 677686,777407 678290,772722 682333,771324 763842,878074 765164,878754 762481,877432 759836,879472 "/>
     <polygon class="fil1" points="761197,883478 760516,881475 759156,880795 759836,879472 762481,877432 765164,878754 764522,880077 763199,882798 "/>
     <polygon class="fil1" points="678290,772722 678970,771361 678970,771361 679613,770001 679613,770001 682333,771324 "/>
     <polygon class="fil1" points="678970,771361 678933,767998 678933,767998 679613,770001 679613,770001 "/>
     <path class="fil1" d="M635892 917487c0,0 0,0 0,0l7104 -31629 -7104 31629 0 0z"/>
     <polygon class="fil1" points="675569,768036 676250,766676 677572,767356 "/>
     <path class="fil1" d="M669448 1067617l-15947 -56266 -15228 -50900c642,-8086 -151,-16777 -869,-25506l0 0 36012 124586 0 0 0 0 -3326 6764 -642 1322 0 0 0 0z"/>
     <polygon class="fil1" points="670090,1066295 673416,1059531 674096,1064897 672131,1065577 672131,1065577 "/>
     <polygon class="fil1" points="672131,1065577 672131,1065577 674096,1064897 676174,1067580 676174,1067580 674096,1064897 "/>
     <path class="fil1" d="M637404 934945l-680 -2041c-718,-5328 -114,-10051 -832,-15417l7104 -31629 28606 -109735 4005 -1361 2041 2645 -19499 74064 -20783 83474 0 0 0 0 38 0z"/>
     <polygon class="fil1" points="677686,777407 675645,774762 678290,772722 678290,772722 "/>
     <polygon class="fil1" points="678290,772722 678290,772722 678970,771361 678970,771361 "/>
     <polygon class="fil1" points="671602,776123 672887,770077 674247,770719 673604,772079 675645,774762 "/>
     <polygon class="fil1" points="675645,774762 673604,772079 674247,770719 674965,772722 674965,772722 678290,772722 678290,772722 "/>
     <polygon class="fil1" points="674247,770719 672887,770077 673567,768716 673567,768716 "/>
     <polygon class="fil1" points="674965,772722 674965,772722 674247,770719 673567,768716 675569,768036 677572,767356 678933,767998 678970,771361 678290,772722 678290,772722 678290,772722 "/>
     <path class="fil1" d="M637404 934945c0,0 0,0 -680,-2041 0,0 0,0 0,0l680 2041 0 0 0 0 0 0 0 0 0 0z"/>
     <path class="fil1" d="M606947 1215934l-2796 -86609 67375 -55662 0 0 -67375 55662 2796 86609 0 0 0 0zm66431 -5932l20103 -3552c0,0 0,0 0,0l-20103 3552zm27471 -4951c0,0 0,0 0,0l0 0 0 0 0 0 0 0zm-1435 -10731l-23240 -123377 0 0 23240 123377c0,0 0,0 0,0l0 0 0 0z"/>
     <path class="fil1" d="M608987 1221980l-1360 -4043 -680 -2003 0 0 0 0 87819 -15530 37 3363 2721 1322 1323 643 2002 -681 0 0c0,0 0,0 0,0l-2002 681 -5366 718c0,0 0,0 0,0l-20103 3552 -64391 11978 0 0 0 0z"/>
     <polygon class="fil1" points="605624,1222018 606305,1220658 606947,1219297 606947,1219297 607627,1217937 608987,1221980 "/>
     <path class="fil1" d="M701530 1203691l-718 -2003 -2683 -1322 -3363 38 -23240 -126741 0 0 0 0 2645 -2040 2003 -680 23277 123377c0,0 0,0 0,0l2721 8049 -642 1322 0 0 0 0z"/>
     <polygon class="fil1" points="697524,1205089 694803,1203767 694766,1200404 694766,1200404 694766,1200404 698129,1200366 700812,1201688 701530,1203691 701530,1203691 698847,1205732 "/>
     <line class="fil0" x1="676174" y1="1070943" x2="676174" y2= "1070943" />
     <polygon class="fil1" points="674171,1071623 674851,1070263 674851,1070263 675494,1068940 675494,1068940 676174,1070943 676174,1070943 676174,1070943 "/>
     <path class="fil1" d="M600863 1214650l-1322 -75878c1322,-2683 2645,-5404 3967,-8087l643 -1360 2796 86609 -3363 38 -2721 -1322 0 0 0 0 0 0z"/>
     <polygon class="fil1" points="607627,1217937 606267,1217295 604906,1216615 603584,1215972 606947,1215934 "/>
     <polygon class="fil1" points="606947,1219297 606267,1217295 607627,1217937 "/>
     <path class="fil1" d="M609441 1118518c0,0 0,0 0,0l60007 -50901 0 0 -60007 50901 0 0z"/>
     <path class="fil1" d="M604151 1129325l0 0c2002,-4043 3967,-8087 5290,-10807l0 0c0,0 0,0 0,0l60007 -50901 680 2041 1398 4005 -67375 55662 0 0 0 0 0 0z"/>
     <polygon class="fil1" points="671526,1073663 670128,1069658 670128,1069658 670128,1069658 670128,1069658 671488,1070300 672849,1070981 672849,1070981 672849,1070981 674171,1071623 "/>
     <path class="fil1" d="M671488 1070300l-1360 -642 0 0 1360 642 0 0zm1361 681l2002 -718 0 0 -680 1360 -1322 -642 0 0 0 0z"/>
     <path class="fil1" d="M603508 1130685c643,-1360 643,-1360 643,-1360 0,0 0,0 0,0l0 0 -643 1360z"/>
     <line class="fil0" x1="669448" y1="1067617" x2="669448" y2= "1067617" />
     <polygon class="fil1" points="674851,1070263 676174,1067580 676174,1067580 675494,1068940 675494,1068940 "/>
     <polygon class="fil1" points="670128,1069658 669448,1067617 669448,1067617 669448,1067617 670090,1066295 670090,1066295 670808,1068298 668768,1068978 "/>
     <path class="fil1" d="M671488 1070300l0 0 1361 681 0 0 -1361 -681 0 0zm-1360 -642l0 0 0 0 -1360 -680 2040 -680 -680 1360 0 0z"/>
     <polygon class="fil1" points="670808,1068298 670090,1066295 670090,1066295 670090,1066295 672131,1065577 "/>
     <polygon class="fil1" points="671488,1070300 671488,1070300 670128,1069658 670808,1068298 672131,1065577 674096,1064897 676174,1067580 674851,1070263 672849,1070981 "/>
     <polygon class="fil1" points="548036,1319208 463618,1262867 463618,1262867 548036,1319208 599578,1220696 522227,1207923 522227,1207923 599578,1220696 "/>
     <polygon class="fil1" points="547431,1327295 547431,1327295 459612,1267590 460935,1264907 463618,1262867 548036,1319208 546071,1323252 546071,1326615 "/>
     <polygon class="fil1" points="549472,1326577 552117,1324536 550076,1321891 548036,1319208 599578,1220696 602261,1222018 603659,1226024 551474,1325897 "/>
     <polygon class="fil1" points="547431,1327295 546071,1326615 546071,1323252 548036,1319208 550076,1321891 552117,1324536 549472,1326577 "/>
     <polygon class="fil1" points="603659,1226024 602261,1222018 603622,1222698 604302,1221338 604302,1221338 605624,1222018 "/>
     <path class="fil1" d="M458857 1258899l0 0 49955 -47461c0,0 0,0 0,0l-49955 47461 0 0 0 0zm73421 -54377c0,0 0,0 0,0l9409 1247 -9409 -1247z"/>
     <path class="fil1" d="M463618 1262867l-3401 -3326 -1360 -642 49955 -47461c0,0 0,0 0,0l0 0c5366,-718 9371,-2117 13415,-3515l0 0 0 0 0 0 -58609 54944 0 0 0 0 0 0 0 0 0 0z"/>
     <polygon class="fil1" points="460935,1264907 461577,1263547 461577,1263547 460897,1261544 460217,1259541 463618,1262867 "/>
     <path class="fil1" d="M522227 1207923l0 0c4005,-1360 6688,-3401 10051,-3401l0 0c0,0 0,0 0,0l9409 1247 59176 8881 38 3363 -1323 2683 -77351 -12773 0 0 0 0z"/>
     <polygon class="fil1" points="599578,1220696 600901,1218013 600221,1219373 601581,1220015 601581,1220015 602261,1222018 "/>
     <polygon class="fil1" points="602261,1222018 601581,1220015 601581,1220015 602261,1222018 602261,1222018 604302,1221338 603622,1222698 "/>
     <path class="fil1" d="M522227 1207923c0,0 0,0 0,0 0,0 0,0 0,0l0 0 0 0 0 0z"/>
     <polygon class="fil1" points="604302,1221338 605624,1222018 606947,1219297 606305,1220658 605624,1222018 "/>
     <polygon class="fil1" points="600901,1218013 600863,1214650 603584,1215972 603584,1215972 601543,1216652 "/>
     <polygon class="fil1" points="601543,1216652 603584,1215972 603584,1215972 604906,1216615 606267,1217295 603584,1215972 "/>
     <polygon class="fil1" points="601581,1220015 600221,1219373 600901,1218013 600901,1218013 601543,1216652 600901,1218013 "/>
     <polygon class="fil1" points="602261,1222018 602261,1222018 601581,1220015 600901,1218013 601543,1216652 603584,1215972 606267,1217295 606947,1219297 605624,1222018 604302,1221338 "/>
     <path class="fil1" d="M366466 1293928l-26943 -88423 0 0 26943 88423 86382 -32988 -86382 32988 0 0zm-27661 -93789l0 0 61783 151c0,0 0,0 0,0l-61783 -151 0 0z"/>
     <polygon class="fil1" points="363178,1300692 363178,1300692 361818,1300012 334195,1209586 336160,1205543 339523,1205505 366466,1293928 363820,1295969 361138,1298009 "/>
     <path class="fil1" d="M339523 1205505l-1360 -4006 642 -1360 61783 151c0,0 0,0 0,0l0 0c2041,2645 6084,4648 8805,5933l0 0 -69870 -718 0 0 0 0 0 0 0 0 0 0z"/>
     <polygon class="fil1" points="336160,1205543 338163,1204825 336840,1204182 338805,1203502 338163,1201499 339523,1205505 "/>
     <line class="fil0" x1="338805" y1="1200139" x2="338805" y2= "1200139" />
     <polygon class="fil1" points="338163,1201499 338163,1201499 336802,1200819 337445,1199497 336802,1200819 336084,1198816 336084,1198816 338805,1200139 338805,1200139 "/>
     <path class="fil1" d="M336840 1204182l-38 -3363 1361 680 0 0 642 2003 -1965 680 0 0 0 0 0 0zm-3401 -3325l2003 -680 642 -1361 0 0 718 2003 -3363 38 0 0 0 0 0 0z"/>
     <polygon class="fil1" points="363178,1300692 367184,1299294 366503,1297291 366466,1293928 452848,1260940 454851,1263622 454247,1268308 365861,1301977 "/>
     <polygon class="fil1" points="363178,1300692 363178,1300692 361138,1298009 363820,1295969 366466,1293928 366503,1297291 367184,1299294 "/>
     <path class="fil1" d="M458857 1258899l-38053 -48708c0,0 0,0 0,0l38053 48708 0 0 0 0 0 0z"/>
     <path class="fil1" d="M452848 1260940l0 0 0 0 -43455 -54717 1322 680c2721,1323 5404,2645 10089,3288l0 0c0,0 0,0 0,0l38053 48708 -2003 642 -4006 1399 0 0 0 0 0 0z"/>
     <path class="fil1" d="M409393 1206223l0 0 0 0 0 0c0,0 0,0 0,0 0,0 1322,680 1322,680l-1322 -680z"/>
     <polygon class="fil1" points="454851,1263622 452848,1260940 456854,1259541 456174,1260902 455531,1262262 455531,1262262 "/>
     <line class="fil0" x1="458857" y1="1258899" x2="458857" y2= "1258899" />
     <polygon class="fil1" points="456854,1259541 458857,1258899 458857,1258899 460217,1259541 460217,1259541 458214,1260222 458857,1258899 458214,1260222 "/>
     <path class="fil1" d="M455531 1262262l643 -1360 680 -1361 0 0 1360 681 -2683 2040 0 0 0 0 0 0zm6046 1285l-3363 -3325 2003 -681 0 0 680 2003 680 2003 0 0 0 0 0 0z"/>
     <path class="fil1" d="M357888 1154303c0,0 0,0 0,0 0,0 0,0 0,0zm0 0c-4761,-7331 -9523,-14700 -13642,-23391l0 0c4119,8691 8881,16060 13642,23391l0 0zm-21917 -47500c0,0 0,0 0,0 0,0 0,0 0,0zm0 0c-6273,-28152 -2494,-56379 11298,-91446l0 0c-13792,35067 -17571,63294 -11298,91446l0 0zm115593 -222645c3325,-3401 8011,-6122 11336,-9523l0 0c-3325,3401 -8011,6122 -11336,9523l0 0 0 0zm48066 -33329l0 0c2683,-2040 4685,-2721 8691,-4119 -4006,1398 -6008,2079 -8691,4119l0 0zm8691 -4119c0,0 0,0 0,0 0,0 0,0 0,0zm112456 29928c-4912,-20783 -11109,-38846 -14586,-52260l-4119 -12055 -10051 3439 10051 -3439 4119 12055c3477,13414 9674,31477 14586,52260l0 0 0 0zm-81017 -46328c18743,-7557 35483,-14397 47537,-18516l14057 -4837 0 0 -14057 4837c-12054,4119 -28794,10959 -47537,18516l0 0 0 0z"/>
     <path class="fil1" d="M400588 1200290c-12168,-9333 -29777,-24600 -42700,-45987 0,0 0,0 0,0 0,0 0,0 0,0 -4761,-7331 -9523,-14700 -13642,-23391l1247 -12772 -718 -2003 0 0c15153,44174 51052,76785 67225,84720l0 0 -1323 -680 -10089 113 0 0 0 0 0 0z"/>
     <path class="fil1" d="M344775 1116137l0 0 -1360 -680 -6764 -6651c-680,-2003 -680,-2003 -680,-2003 0,0 0,0 0,0 0,0 0,0 0,0 -6273,-28152 -2494,-56379 11298,-91446l0 0c0,0 0,0 0,0l8011 -6122 643 -1360 0 0c0,0 0,0 0,0l0 0c0,0 0,0 0,0 -17080,41831 -20821,76785 -11148,108262l0 0 0 0z"/>
     <path class="fil1" d="M344775 1116137l0 0 0 0c0,0 0,0 0,0l0 0 0 0 0 0 0 0z"/>
     <path class="fil1" d="M355923 1007875c0,0 0,0 0,0l0 0 680 -1323 567 -11412c26489,-43909 58420,-81810 94394,-110982 3325,-3401 8011,-6122 11336,-9523l24789 -9598 0 0 0 0c-50787,32006 -97342,82793 -131766,142838l0 0z"/>
     <path class="fil1" d="M355923 1007875l0 0 0 0c0,0 0,0 0,0 0,0 0,0 0,0l0 0 0 0z"/>
     <path class="fil1" d="M487689 865037l0 0 642 -1360 1361 642 9938 -13490c2683,-2040 4685,-2721 8691,-4119 0,0 0,0 0,0 0,0 0,0 0,0 11374,-6121 20745,-11601 31439,-16400 18743,-7557 35483,-14397 47537,-18553l14057 -4800 0 0 0 0 -642 1361 1322 642 0 0 38 3363 -10051 3439 -2003 680c-23428,10278 -63597,24071 -102329,48595l0 0 0 0 0 0z"/>
     <polygon class="fil1" points="487689,865037 488331,863677 "/>
     <path class="fil1" d="M462900 874635c0,0 0,0 0,0l0 0c0,0 0,0 0,0l0 0 0 0z"/>
     <path class="fil1" d="M462900 874635c0,0 0,0 0,0l0 0c7369,-4761 14699,-9522 22068,-14283l0 0 38 3363 680 2002 2003 -680 0 0 -24789 9598 0 0 0 0 0 0z"/>
     <path class="fil1" d="M499630 850829l0 0c0,0 0,0 0,0l0 0c0,0 0,0 0,0z"/>
     <path class="fil1" d="M488331 863677l1323 -2683 -4044 -2003 0 0c4686,-2721 9372,-5441 14020,-8162l0 0c0,0 0,0 0,0l-9938 13528 -1361 -680 0 0 0 0 0 0z"/>
     <path class="fil1" d="M485686 865717l-680 -2002 -38 -3363 0 0c0,0 0,0 642,-1361 0,0 0,0 0,0l0 0 4044 2003 -1323 2683 -642 1360 -2003 680 0 0 0 0z"/>
     <path class="fil1" d="M347269 1015357c1323,-2683 1285,-6046 2608,-8767l0 0 2040 2683 1361 643 2645 -2041 -643 1360 -8011 6122 0 0 0 0 0 0z"/>
     <path class="fil1" d="M355923 1007875l0 -3325 -4724 -643 -642 1361c1965,-4044 5290,-7445 6613,-10128l-567 11412 -680 1323 0 0 0 0z"/>
     <path class="fil1" d="M351917 1009273l-2040 -2683 0 0c680,-1322 680,-1322 680,-1322 0,0 0,0 0,0l642 -1361 4724 643 0 3325 0 0 -2645 2041 -1361 -643 0 0 0 0 0 0z"/>
     <path class="fil1" d="M344246 1130912c0,0 0,0 0,0l0 0c0,0 0,0 0,0l0 0z"/>
     <path class="fil1" d="M344246 1130912c0,0 0,0 0,0l0 0c-1398,-4006 -2758,-8049 -4118,-12054l0 0 1322 642 2721 1323 604 -4686 718 2003 -1247 12772 0 0 0 0 0 0z"/>
     <path class="fil1" d="M338767 1118177c-1398,-4005 -1398,-7368 -2116,-9371l6764 6651 1360 680 -2682 -1323 -2683 2041 -643 1322 0 0 0 0z"/>
     <path class="fil1" d="M341450 1119500l-1322 -642 0 0c0,0 -1361,-681 -1361,-681 0,0 0,0 0,0l643 -1322 2683 -2041 2682 1323 0 0 38 3363 -3363 0 0 0 0 0 0 0z"/>
     <path class="fil1" d="M520148 1201915c30155,-10316 54112,-32044 75311,-68471 -21199,36427 -45156,58155 -75311,68471l0 0zm28152 -6273c0,0 0,0 0,0 0,0 0,0 0,0l0 0zm0 0c8011,-6121 16022,-12243 23353,-20367 -7331,8124 -15342,14246 -23353,20367zm23353 -20367c0,0 0,0 0,0 0,0 0,0 0,0zm0 0c0,0 0,0 0,0 0,0 0,0 0,0zm66204 -189997c567,-8049 1172,-16098 454,-24827l0 0c718,8729 113,16778 -454,24827l0 0zm-1965 -67791c-6386,-38242 -17420,-73724 -24297,-93827l-3477 -13415 0 0 3477 13415c8238,20745 17911,55585 24297,93827l0 0 0 0z"/>
     <polygon class="fil1" points="602034,808960 600712,808318 601354,806957 603357,806277 603357,806277 "/>
     <path class="fil1" d="M420804 1210191l-7444 -8692 -1360 -642 0 0c16211,7898 65297,16891 108148,1058l0 0 0 0c0,0 0,0 0,0l0 0 -642 1360 -10694 8163c-32837,8993 -69151,4610 -88008,-1247l0 0 0 0 0 0z"/>
     <line class="fil0" x1="412000" y1="1200857" x2="412000" y2= "1200857" />
     <path class="fil1" d="M520148 1201915c30155,-10316 54112,-32044 75311,-68471 1323,-2721 2003,-4044 3326,-6764 0,0 0,0 0,0l0 0 -680 1360 1436 10732c-8616,14170 -17912,26338 -27888,36503 0,0 0,0 0,0 0,0 0,0 0,0 0,0 0,0 0,0 0,0 0,0 0,0 -7331,8124 -15342,14246 -23353,20367 0,0 0,0 0,0 0,0 0,0 0,0 -4648,2721 -10694,4799 -16022,8880l-10769 -1927 -1361 -680 0 0 0 0 0 0 0 0z"/>
     <path class="fil1" d="M520148 1201915l0 0c0,0 0,0 0,0l1361 680 -1361 -680 0 0 0 0z"/>
     <path class="fil1" d="M598785 1126680c26980,-62048 38468,-129952 32611,-189695 -718,-2003 -718,-2003 -718,-2003l0 0 0 0 7633 25469c0,0 0,0 0,0l0 0c718,8729 113,16778 -454,24827 -982,43002 -12016,89444 -28416,133240l-10014 6839 -642 1323 0 0 0 0 0 0z"/>
     <path class="fil1" d="M598785 1126680l0 0c0,0 0,0 0,0 0,0 0,0 0,0l0 0 0 0 0 0 0 0 0 0z"/>
     <path class="fil1" d="M630678 934982l0 0c-1512,-20821 -5064,-40924 -9901,-58344 -4912,-20783 -11109,-38846 -14586,-52260l-4119 -12055 4006 -1360 0 0 0 0 2040 -718 0 0 0 0 3477 13415c6877,20103 17911,55585 24297,93827l-4572 16135 0 0 -642 1360 0 0 0 0 0 0z"/>
     <polygon class="fil1" points="602072,812323 602034,808960 602034,808960 602752,810963 606078,810963 606078,810963 "/>
     <polygon class="fil1" points="606078,810963 607400,808242 607400,808242 608118,810245 "/>
     <polygon class="fil1" points="602752,810963 602034,808960 603357,806277 603357,806277 603357,806277 607400,808242 607400,808242 607400,808242 606078,810963 "/>
     <polygon class="fil1" points="630678,934982 630678,934982 631358,933622 "/>
     <path class="fil1" d="M635892 917487c0,0 0,0 0,0l0 0c0,0 0,0 0,0l0 0 0 0z"/>
     <path class="fil1" d="M638311 960451l-7633 -25469 0 0 2040 2683 0 0 0 0 4006 -1398 680 -1322c718,8729 1511,17420 869,25506l0 0 38 0z"/>
     <path class="fil1" d="M631358 933622l0 0 4534 -16135c0,0 0,0 0,0l0 0c718,5366 114,10089 832,15417l0 0 -4081 -1965 -1285 2683 0 0 0 0 0 0z"/>
     <path class="fil1" d="M632718 937665l0 0 0 0 -2040 -2683 680 -1360 1285 -2683 4081 1965 0 0c0,0 0,0 0,0 680,2041 680,2041 680,2041l-680 1322 -4006 1398 0 0 0 0 0 0z"/>
     <path class="fil1" d="M599541 1138772l-1436 -10732 680 -1360 1360 4005 0 0 3363 0 0 0c-1322,2683 -2645,5366 -3967,8087l0 0 0 0 0 0z"/>
     <path class="fil1" d="M598785 1126680l642 -1323 10014 -6839c-1323,2720 -3288,6764 -5290,10807l680 -1361 -2041 -2645 -4005 1361 0 0 0 0 0 0z"/>
     <path class="fil1" d="M600145 1130685l0 0 -1360 -4005 0 0 4005 -1361 2041 2645 -680 1361c0,0 0,0 0,0 0,0 0,0 -643,1360l0 0 -3363 0 0 0 0 0 0 0z"/>
     <path class="fil1" d="M508812 1211438l10694 -8163 642 -1360 -1965 4043 2683 1323 0 0 1361 642c-4044,1398 -8049,2797 -13415,3515l0 0 0 0z"/>
     <path class="fil1" d="M522227 1207923l642 -1322 1323 -2683 -4044 -2003 1361 680 10769 1927c-3363,0 -6046,2041 -10051,3401l0 0z"/>
     <path class="fil1" d="M520866 1207281l-2683 -1323 1965 -4043 0 0 4044 2003 -1323 2683 -642 1322c0,0 0,0 0,0 0,0 0,0 0,0l-1361 -642 0 0 0 0 0 0z"/>
     <path class="fil1" d="M409393 1206223c-2721,-1285 -6764,-3288 -8805,-5933l10089 -113 1323 680 -3325 0 -643 4723 1361 643 0 0 0 0 0 0z"/>
     <path class="fil1" d="M410715 1206903l0 0 3325 -3401 -2040 -2645 1360 642 7444 8692c-4685,-643 -7368,-1965 -10089,-3288l0 0 0 0 0 0z"/>
     <path class="fil1" d="M409393 1206223c0,0 0,0 0,0l-1361 -643 643 -4723 3325 0 0 0 2040 2645 -3325 3401 0 0c0,0 -1322,-680 -1322,-680l0 0 0 0 0 0z"/>
     <path class="fil1" d="M300942 1250170c-2683,-1323 -3363,-3325 -4724,-3968l33896 -41982 2683 1323 1398 4043 -33253 40584 0 0z"/>
     <path class="fil1" d="M294933 1252248l0 0 -1398 -4043 2683 -2003c1361,643 2041,2645 4724,3968l-2645 2041 -3364 37 0 0 0 0 0 0zm39262 -42662l-1398 -4043 -2683 -1323 0 0 2683 1323 1398 4043 0 0 0 0z"/>
     <polygon class="fil1" points="330114,1204220 332759,1202217 332759,1202217 332759,1202217 332117,1203540 332797,1205543 "/>
     <polygon class="fil1" points="332759,1202217 332759,1202217 332759,1202217 333439,1200857 333439,1200857 333439,1200857 "/>
     <polygon class="fil1" points="334195,1209586 332797,1205543 334799,1204863 334799,1204863 336160,1205543 336160,1205543 "/>
     <polygon class="fil1" points="334799,1204863 336840,1204182 336840,1204182 338163,1204825 336160,1205543 336160,1205543 "/>
     <polygon class="fil1" points="332797,1205543 332117,1203540 332759,1202217 333439,1204220 334799,1204863 334799,1204863 334799,1204863 "/>
     <polygon class="fil1" points="336802,1200819 336802,1200819 337445,1199497 "/>
     <polygon class="fil1" points="334799,1204863 333439,1204220 332759,1202217 333439,1200857 333439,1200857 336802,1200819 336802,1200819 336840,1204182 336840,1204182 "/>
     <path class="fil1" d="M442608 1319473l11639 -51165 2645 -2040 2720 1322 -12318 52525c-1361,-680 -3326,0 -4686,-642l0 0 0 0z"/>
     <path class="fil1" d="M443326 1324839l-2041 -2683 1323 -2683c1360,642 3325,-38 4686,642l37 3325 -4005 1399 0 0 0 0 0 0 0 0zm10921 -56531l0 0 2645 -2040 2720 1322 0 0 -2720 -1322 -2645 2040 0 0 0 0z"/>
     <polygon class="fil1" points="459612,1267590 456892,1266268 458932,1265587 459575,1264227 460935,1264907 460935,1264907 "/>
     <polygon class="fil1" points="459575,1264227 461577,1263547 461577,1263547 461577,1263547 460935,1264907 460935,1264907 "/>
     <polygon class="fil1" points="454247,1268308 454851,1263622 456212,1264265 456212,1264265 456212,1264265 456892,1266268 "/>
     <polygon class="fil1" points="456212,1264265 456212,1264265 454851,1263622 455531,1262262 455531,1262262 455531,1262262 "/>
     <polygon class="fil1" points="456892,1266268 456212,1264265 456212,1264265 457572,1264945 457572,1264945 459575,1264227 458932,1265587 "/>
     <polygon class="fil1" points="458214,1260222 458857,1258899 "/>
     <polygon class="fil1" points="457572,1264945 456212,1264265 455531,1262262 455531,1262262 458214,1260222 458214,1260222 461577,1263547 461577,1263547 459575,1264227 "/>
    </g>
    <path class="fil0 str0" d="M722162 536208c0,0 -14586,18932 1814,25809 16437,6878 30872,-7671 31779,-34009 907,-26300 -1171,-83397 35558,-76558 0,0 43381,10656 -2116,70663 0,0 -10202,14133 -793,22031"/>
    <circle class="fil0 str0" transform="matrix(0.713856 0.349213 -0.349213 0.713856 711117 588501)" r="36238"/>
   </g>
  </g>
 </g>
</svg>
