<?xml version="1.0" encoding="UTF-8"?>
<!DOCTYPE svg PUBLIC "-//W3C//DTD SVG 1.0//EN" "http://www.w3.org/TR/2001/REC-SVG-20010904/DTD/svg10.dtd">
<!-- Creator: CorelDRAW X7 -->
<svg xmlns="http://www.w3.org/2000/svg" xml:space="preserve" width="50px" height="50px" version="1.0" shape-rendering="geometricPrecision" text-rendering="geometricPrecision" image-rendering="optimizeQuality" fill-rule="evenodd" clip-rule="evenodd"
viewBox="0 0 89856 89856"
 xmlns:xlink="http://www.w3.org/1999/xlink">
 <g id="Layer_x0020_1">
  <metadata id="CorelCorpID_0Corel-Layer"/>
  <rect fill="none" width="89856" height="89856"/>
  <path fill="white" d="M65281 29325l-4761 -4778c-802,-802 -1919,-1237 -3033,-1237 -1180,0 -2235,435 -3035,1237l-2365 2354c0,0 0,0 0,0l-24952 24966c-66,59 -130,123 -130,182 0,0 0,64 -59,64 -58,59 -58,117 -123,182 0,0 0,0 0,60 0,70 0,70 -58,127l-3404 12455c-136,427 0,926 299,1238 246,246 563,369 934,369 123,0 240,0 310,-64l12512 -3464c60,0 60,0 123,-70 0,0 0,0 60,0 57,0 123,-57 193,-116 0,0 57,0 57,-60 60,-64 125,-64 183,-123l24902 -24906 2347 -2354c1683,-1613 1683,-4402 0,-6062l0 0zm-35922 33252l-2101 -2101 1426 -5264 5939 5945 -5264 1420 0 0zm499 -9847l23104 -23106 617 622 2112 2108 -23110 23104 -2719 -2728 -4 0zm7246 7240l-2723 -2721 23106 -23106 2723 2734 -23106 23093zm26322 -26319l-1420 1426 -7255 -7242 1492 -1492c306,-310 745,-486 1244,-486 493,0 921,176 1233,486l4765 4767c622,745 622,1860 -59,2541l0 0z"/>
 </g>
</svg>
