<?xml version="1.0" encoding="UTF-8"?>
<!DOCTYPE svg PUBLIC "-//W3C//DTD SVG 1.1//EN" "http://www.w3.org/Graphics/SVG/1.1/DTD/svg11.dtd">
<!-- Creator: CorelDRAW X7 -->
<svg xmlns="http://www.w3.org/2000/svg" xml:space="preserve" width="50px" height="50px" version="1.1" style="shape-rendering:geometricPrecision; text-rendering:geometricPrecision; image-rendering:optimizeQuality; fill-rule:evenodd; clip-rule:evenodd"
viewBox="0 0 1427021 1427021"
 xmlns:xlink="http://www.w3.org/1999/xlink"
 enable-background="new 0 0 100 100">
 <defs>
  <style type="text/css">
   <![CDATA[
    .fil0 {fill:none}
    .fil2 {fill:#673B6D}
    .fil1 {fill:#673B6D;fill-rule:nonzero}
   ]]>
  </style>
 </defs>
 <g id="Layer_x0020_1">
  <metadata id="CorelCorpID_0Corel-Layer"/>
  <rect class="fil0" width="1427021" height="1427021"/>
  <path class="fil1" d="M710611 241489c-260567,0 -472021,211454 -472021,472021 0,260568 211454,472022 472021,472022 260568,0 472022,-211454 472022,-472022 0,-260567 -211454,-472021 -472022,-472021zm0 20629c249411,0 451359,201949 451359,451392 0,249444 -201948,451393 -451359,451393 -249410,0 -451358,-201949 -451358,-451393 0,-249443 201948,-451392 451358,-451392z"/>
  <path class="fil2" d="M919571 372345l-47259 81643 -17866 -10315 47226 -81642 17899 10314zm-200364 -51709l0 94283 -20663 0 0 -94283 20663 0zm-199656 41395l47226 81642 -17866 10315 -47259 -81643 17899 -10314z"/>
  <g id="_1550588688">
   <g>
    <path class="fil2" d="M799097 711454c-2326,0 -4484,-1213 -5697,-3168l-77024 -123475c-1281,-2056 -1349,-4652 -169,-6809 1180,-2124 3438,-3439 5865,-3439l153071 -33c2427,0 4686,1314 5866,3438 1179,2124 1146,4719 -135,6809l-76047 123475c-1247,1989 -3371,3202 -5697,3202 -33,0 -33,0 -33,0zm-64923 -123474l64889 103991 64080 -103991 -128969 0z"/>
    <path class="fil2" d="M645554 711454c-2326,0 -4483,-1213 -5697,-3168l-77429 -123441c-1281,-2090 -1348,-4686 -168,-6843 1180,-2124 3404,-3439 5865,-3439l153947 -33c2461,0 4686,1314 5866,3438 1213,2124 1146,4753 -135,6809l-76552 123475c-1248,1989 -3371,3202 -5697,3202 0,0 0,0 0,0zm-65294 -123474l65226 104058 64519 -104058 -129745 0z"/>
    <path class="fil2" d="M645655 711454c-34,0 -67,0 -135,0l-152835 0c-2427,0 -4652,-1314 -5865,-3438 -1180,-2124 -1146,-4719 135,-6776l75440 -123508c1213,-1989 3371,-3202 5696,-3202 0,0 34,0 34,0 2326,0 4450,1180 5697,3135l76856 122598c1045,1180 1685,2764 1685,4449 0,3742 -3000,6742 -6708,6742zm-141003 -13450l128767 0 -65226 -103991 -63541 103991z"/>
    <path class="fil2" d="M799198 711454c-34,0 -68,0 -101,0l-153543 0c-2461,0 -4686,-1348 -5865,-3472 -1214,-2123 -1147,-4719 134,-6809l76553 -123475c1213,-1955 3371,-3168 5696,-3168 0,0 0,0 0,0 2326,0 4484,1180 5697,3168l76485 122599c1045,1179 1652,2730 1652,4415 0,3742 -3000,6742 -6708,6742zm-141610 -13450l129407 0 -64889 -104024 -64518 104024z"/>
    <path class="fil2" d="M950684 711454c0,0 -67,0 -101,0l-151486 0c-2427,0 -4686,-1314 -5866,-3438 -1179,-2157 -1112,-4753 135,-6809l76047 -123475c1247,-1989 3404,-3202 5730,-3202 0,0 0,0 0,0 2360,0 4517,1213 5731,3202l74900 122598c1012,1180 1618,2697 1618,4382 34,3742 -3000,6742 -6708,6742zm-139553 -13450l127486 0 -63474 -103923 -64012 103923z"/>
    <path class="fil2" d="M722949 949639c-1820,0 -3573,-741 -4821,-2022l-230398 -238219c-1888,-1921 -2427,-4820 -1348,-7281 1045,-2495 3472,-4113 6168,-4113l458033 0c2697,0 5124,1618 6169,4079 1079,2495 539,5326 -1315,7281l-227634 238219c-1281,1315 -3034,2056 -4854,2056 0,0 0,0 0,0zm-214556 -238185l214522 221803 211960 -221803 -426482 0z"/>
    <path class="fil2" d="M722949 949639c-2832,0 -5495,-1786 -6405,-4618l-77395 -238219c-1146,-3539 775,-7314 4315,-8460 3539,-1147 7315,775 8461,4314l77395 238219c1146,3506 -776,7315 -4315,8461 -674,202 -1382,303 -2056,303z"/>
    <path class="fil2" d="M723151 949639c-674,0 -1348,-101 -2022,-303 -3540,-1146 -5495,-4922 -4383,-8427l75946 -238219c1146,-3539 4854,-5495 8427,-4348 3540,1112 5495,4887 4382,8427l-75945 238219c-910,2831 -3540,4651 -6405,4651z"/>
   </g>
  </g>
 </g>
</svg>
