<?xml version="1.0" encoding="UTF-8"?>
<!DOCTYPE svg PUBLIC "-//W3C//DTD SVG 1.0//EN" "http://www.w3.org/TR/2001/REC-SVG-20010904/DTD/svg10.dtd">
<!-- Creator: CorelDRAW X7 -->
<svg xmlns="http://www.w3.org/2000/svg" xml:space="preserve" width="50px" height="50px" version="1.0" shape-rendering="geometricPrecision" text-rendering="geometricPrecision" image-rendering="optimizeQuality" fill-rule="evenodd" clip-rule="evenodd"
viewBox="0 0 1572 1572"
 xmlns:xlink="http://www.w3.org/1999/xlink">
 <g id="Layer_x0020_1">
  <metadata id="CorelCorpID_0Corel-Layer"/>
  <rect fill="none" width="1572" height="1572"/>
  <path fill="#9538A3" d="M494 267l-2 3 -94 115 -2 2 0 2 0 807 0 3 0 3 2 2 92 99 2 2 3 0 597 0 3 0 2 -3 78 -116 1 -2 0 -2 0 -793 0 -3 -2 -2 -96 -114 -2 -3 -3 0 -576 0 -3 0zm14 13l557 0 -30 53 -498 0 -29 -53zm-12 5l30 54 -74 90 -40 -42 84 -102zm579 2l85 100 -39 42 -75 -89 29 -53zm-530 59l483 0 -28 48 -428 0 -27 -48zm-13 5l29 50 -64 77 -36 -39 71 -88zm507 1l73 87 -37 39 -64 -76 28 -50zm-630 51l36 38 0 702 -36 39 0 -779zm754 0l0 768 -36 -39 0 -1 0 -689 36 -39zm-584 4l414 0 -25 45 -364 0 -25 -45zm-11 6l25 45 -54 65 -33 -35 62 -75zm436 1l63 74 -34 35 -54 -64 25 -45zm-546 41l33 36 0 601 -33 37 0 -674zm656 1l0 662 -33 -36 0 -590 33 -36zm-510 9l363 0 58 69 0 503 -47 71 -375 0 -2 -2 -54 -58 0 -514 57 -69zm-100 40l30 32 0 509 -30 32 0 -573zm564 0l0 562 -30 -32 0 -498 30 -32zm-35 544l33 35 -47 71 -26 -45 40 -61zm-494 10l52 56 -26 45 -59 -64 33 -37zm536 36l36 39 -56 84 -29 -50 49 -73zm-578 10l62 66 -29 50 -70 -75 37 -41zm106 16l379 0 2 0 25 44 -431 0 25 -44zm517 23l39 42 -66 99 -31 -54 58 -87zm-669 12l73 77 -31 53 -82 -87 40 -43zm119 22l446 0 0 0 28 48 -501 0 27 -48zm-35 61l517 0 30 53 -577 0 30 -53z" display="inline"/>
 </g>
</svg>
