<?xml version="1.0" encoding="UTF-8"?>
<!DOCTYPE svg PUBLIC "-//W3C//DTD SVG 1.1//EN" "http://www.w3.org/Graphics/SVG/1.1/DTD/svg11.dtd">
<!-- Creator: CorelDRAW X7 -->
<svg xmlns="http://www.w3.org/2000/svg" xml:space="preserve" width="50px" height="50px" version="1.1" style="shape-rendering:geometricPrecision; text-rendering:geometricPrecision; image-rendering:optimizeQuality; fill-rule:evenodd; clip-rule:evenodd"
viewBox="0 0 213760 213760"
 xmlns:xlink="http://www.w3.org/1999/xlink">
 <defs>
  <style type="text/css">
   <![CDATA[
    .fil0 {fill:none}
    .fil1 {fill:#666666}
   ]]>
  </style>
 </defs>
 <g id="Layer_x0020_1">
  <metadata id="CorelCorpID_0Corel-Layer"/>
  <rect class="fil0" width="213760" height="213760"/>
  <path class="fil1" d="M139549 90227c2626,-13926 243,-28559 -8599,-37527 -4842,-5812 -13466,-9684 -23303,-9684 -8589,0 -16259,2948 -21283,7563 -11856,9776 -11159,28353 -10068,40330 1535,16870 -4752,23176 -4752,23176 10392,-343 20627,-5115 20627,-5115 15613,13810 30508,339 30508,339 6474,4261 19764,4776 19764,4776 0,0 -6130,-6645 -2894,-23858zm-4923 80260l40 257 -69403 0c-5908,0 -10740,-4701 -10740,-10442 0,-333 30,-7316 30,-7316 0,-19203 15613,-34912 34816,-34912l3974 0 13411 13406 13663 -13663 3974 0c19203,0 34815,15713 34815,34911 0,0 31,6983 31,7322 0,5736 -4833,10437 -10740,10437l-13871 0zm-10210 -72252c-10023,15441 -26908,10695 -33896,1152 -449,-616 -874,-1248 -1262,-1894 -642,-1086 -2313,-4181 -2949,-6599 -2338,-7650 -1187,-15017 3004,-15573 5797,-772 10397,-5201 10397,-5201 -4772,6474 -2217,14310 -2217,14310 0,0 -510,-4428 9887,-8518 10391,-4090 12436,-9710 12436,-9710 3409,9200 10054,9710 10054,9710 0,0 681,12871 -5454,22323z"/>
 </g>
</svg>
