<?xml version="1.0" encoding="UTF-8"?>
<!DOCTYPE svg PUBLIC "-//W3C//DTD SVG 1.1//EN" "http://www.w3.org/Graphics/SVG/1.1/DTD/svg11.dtd">
<!-- Creator: CorelDRAW X7 -->
<svg xmlns="http://www.w3.org/2000/svg" xml:space="preserve" width="50px" height="50px" version="1.1" style="shape-rendering:geometricPrecision; text-rendering:geometricPrecision; image-rendering:optimizeQuality; fill-rule:evenodd; clip-rule:evenodd"
viewBox="0 0 881694 881694"
 xmlns:xlink="http://www.w3.org/1999/xlink"
 enable-background="new 0 0 100 100">
 <defs>
  <style type="text/css">
   <![CDATA[
    .fil0 {fill:none}
    .fil2 {fill:#673B6D}
    .fil1 {fill:#673B6D;fill-rule:nonzero}
   ]]>
  </style>
 </defs>
 <g id="Layer_x0020_1">
  <metadata id="CorelCorpID_0Corel-Layer"/>
  <rect class="fil0" width="881694" height="881694"/>
  <path class="fil1" d="M439056 149205c-160994,0 -291642,130649 -291642,291642 0,160993 130648,291642 291642,291642 160993,0 291641,-130649 291641,-291642 0,-160993 -130648,-291642 -291641,-291642zm0 12746c154099,0 278874,124775 278874,278896 0,154120 -124775,278895 -278874,278895 -154100,0 -278875,-124775 -278875,-278895 0,-154121 124775,-278896 278875,-278896z"/>
  <path class="fil2" d="M568163 230056l-29200 50443 -11038 -6373 29179 -50443 11059 6373zm-123796 -31949l0 58254 -12767 0 0 -58254 12767 0zm-123359 25576l29179 50443 -11039 6373 -29199 -50443 11059 -6373zm-47673 127857l-50506 -29116 6373 -11017 50527 29095 -6394 11038zm381948 -29116l-50506 29116 -6394 -11038 50526 -29095 6374 11017z"/>
  <g id="_1550173024">
   <g>
    <path class="fil2" d="M493727 439576c-1437,0 -2770,-749 -3520,-1957l-47590 -76290c-791,-1270 -833,-2874 -104,-4207 729,-1312 2124,-2124 3624,-2124l94576 -21c1499,0 2895,812 3624,2124 729,1312 708,2916 -84,4207l-46986 76290c-770,1229 -2082,1978 -3519,1978 -21,0 -21,0 -21,0zm-40113 -76289l40092 64251 39592 -64251 -79684 0z"/>
    <path class="fil2" d="M398860 439576c-1438,0 -2770,-749 -3520,-1957l-47840 -76269c-792,-1291 -833,-2895 -104,-4228 729,-1312 2103,-2124 3624,-2124l95117 -21c1520,0 2895,812 3624,2124 750,1312 708,2937 -83,4207l-47299 76290c-770,1229 -2082,1978 -3519,1978 0,0 0,0 0,0zm-40343 -76289l40301 64293 39863 -64293 -80164 0z"/>
    <path class="fil2" d="M398922 439576c-21,0 -42,0 -83,0l-94430 0c-1500,0 -2874,-812 -3624,-2124 -729,-1312 -708,-2916 83,-4186l46611 -76311c750,-1228 2083,-1978 3520,-1978 0,0 21,0 21,0 1437,0 2749,729 3519,1937l47486 75748c646,729 1042,1708 1042,2749 0,2312 -1854,4165 -4145,4165zm-87120 -8310l79560 0 -40301 -64251 -39259 64251z"/>
    <path class="fil2" d="M493789 439576c-20,0 -41,0 -62,0l-94867 0c-1521,0 -2895,-833 -3624,-2145 -750,-1312 -709,-2916 83,-4207l47298 -76289c750,-1208 2083,-1958 3520,-1958 0,0 0,0 0,0 1437,0 2770,729 3520,1958l47256 75748c646,729 1021,1687 1021,2728 0,2312 -1854,4165 -4145,4165zm-87494 -8310l79955 0 -40092 -64272 -39863 64272z"/>
    <path class="fil2" d="M587386 439576c0,0 -41,0 -62,0l-93597 0c-1500,0 -2895,-812 -3624,-2124 -729,-1333 -687,-2937 83,-4207l46986 -76290c771,-1228 2104,-1978 3541,-1978 0,0 0,0 0,0 1458,0 2791,750 3540,1978l46278 75749c625,728 1000,1666 1000,2707 21,2312 -1854,4165 -4145,4165zm-86224 -8310l78768 0 -39217 -64209 -39551 64209z"/>
    <path class="fil2" d="M446678 586741c-1124,0 -2207,-459 -2978,-1250l-142353 -147185c-1166,-1187 -1499,-2978 -833,-4499 646,-1541 2145,-2541 3811,-2541l282999 0c1666,0 3166,1000 3811,2521 667,1541 333,3290 -812,4498l-140645 147185c-792,812 -1875,1271 -3000,1271 0,0 0,0 0,0zm-132564 -147165l132544 137043 130960 -137043 -263504 0z"/>
    <path class="fil2" d="M446678 586741c-1749,0 -3394,-1104 -3957,-2854l-47819 -147185c-708,-2187 479,-4519 2666,-5227 2187,-708 4520,479 5228,2666l47819 147185c708,2166 -479,4519 -2666,5227 -417,125 -854,188 -1271,188z"/>
    <path class="fil2" d="M446803 586741c-416,0 -833,-63 -1249,-188 -2187,-708 -3395,-3041 -2708,-5207l46924 -147185c708,-2186 2999,-3394 5207,-2686 2186,687 3394,3020 2707,5206l-46923 147186c-563,1749 -2187,2874 -3958,2874z"/>
   </g>
  </g>
 </g>
</svg>
