<?xml version="1.0" encoding="UTF-8"?>
<!DOCTYPE svg PUBLIC "-//W3C//DTD SVG 1.1//EN" "http://www.w3.org/Graphics/SVG/1.1/DTD/svg11.dtd">
<!-- Creator: CorelDRAW X7 -->
<svg xmlns="http://www.w3.org/2000/svg" xml:space="preserve" width="50px" height="50px" version="1.1" style="shape-rendering:geometricPrecision; text-rendering:geometricPrecision; image-rendering:optimizeQuality; fill-rule:evenodd; clip-rule:evenodd"
viewBox="0 0 498582 498582"
 xmlns:xlink="http://www.w3.org/1999/xlink"
 enable-background="new 0 0 100 100">
 <defs>
  <style type="text/css">
   <![CDATA[
    .fil0 {fill:none}
    .fil2 {fill:#673B6D}
    .fil1 {fill:#673B6D;fill-rule:nonzero}
   ]]>
  </style>
 </defs>
 <g id="Layer_x0020_1">
  <metadata id="CorelCorpID_0Corel-Layer"/>
  <rect class="fil0" width="498582" height="498582"/>
  <path class="fil1" d="M246300 90768c-90498,0 -163929,73443 -163929,163929 0,90485 73431,163929 163929,163929 90497,0 163928,-73444 163928,-163929 0,-90486 -73431,-163929 -163928,-163929zm0 7161c86610,0 156756,70145 156756,156768 0,86622 -70146,156768 -156756,156768 -86611,0 -156757,-70146 -156757,-156768 0,-86623 70146,-156768 156757,-156768z"/>
  <polygon class="fil2" points="179946,132636 196352,160984 190133,164565 173739,136217 "/>
  <polygon class="fil2" points="249279,118245 249279,150986 242107,150986 242107,118245 "/>
  <polygon class="fil2" points="318860,136217 302466,164565 296247,160984 312653,132636 "/>
  <polygon class="fil2" points="153153,204502 124757,188131 128338,181936 156745,198307 "/>
  <polygon class="fil2" points="367842,188131 339447,204502 335854,198307 364261,181936 "/>
  <polygon class="fil2" points="384259,257547 351459,257547 351459,250386 384259,250386 "/>
  <polygon class="fil2" points="141140,256452 108340,256452 108340,249291 141140,249291 "/>
  <g id="_1545290384">
   <g>
    <path class="fil2" d="M277027 253978c-801,0 -1555,-412 -1979,-1095l-26746 -42881c-448,-719 -471,-1625 -59,-2367 412,-742 1189,-1202 2037,-1202l53163 0c848,0 1625,448 2038,1190 412,742 388,1637 -47,2367l-26417 42881c-424,683 -1178,1107 -1979,1107 0,0 -11,0 -11,0zm-22542 -42881l22530 36121 22247 -36121 -44777 0z"/>
    <path class="fil2" d="M223699 253978c-801,0 -1543,-412 -1979,-1095l-26876 -42869c-459,-719 -483,-1626 -70,-2379 412,-731 1189,-1202 2037,-1202l53469 0c848,0 1626,460 2038,1190 412,742 400,1649 -47,2367l-26594 42881c-424,683 -1166,1107 -1978,1107 0,0 0,0 0,0zm-22672 -42881l22660 36145 22412 -36145 -45072 0z"/>
    <path class="fil2" d="M223734 253978c-12,0 -23,0 -35,0l-53081 0c-848,0 -1625,-459 -2037,-1189 -412,-742 -389,-1637 47,-2356l26193 -42881c424,-695 1166,-1119 1978,-1119 12,0 12,0 12,0 813,0 1555,412 1979,1084l26699 42587c365,412 577,942 577,1542 0,1296 -1036,2332 -2332,2332zm-48958 -4663l44707 0 -22648 -36122 -22059 36122z"/>
    <path class="fil2" d="M277062 253978c0,0 -24,0 -35,0l-53328 0c-848,0 -1625,-459 -2038,-1201 -412,-730 -388,-1637 59,-2355l26582 -42893c424,-684 1177,-1096 1978,-1096 0,0 0,0 0,0 813,0 1555,412 1979,1096l26558 42575c365,412 577,954 577,1542 0,1296 -1037,2332 -2332,2332zm-49170 -4663l44930 0 -22530 -36133 -22400 36133z"/>
    <path class="fil2" d="M329683 253978c-12,0 -23,0 -47,0l-52609 0c-837,0 -1626,-459 -2038,-1189 -412,-742 -388,-1649 59,-2367l26405 -42882c424,-695 1178,-1107 1990,-1107 0,0 0,0 0,0 813,0 1567,424 1991,1119l26004 42563c353,413 565,943 565,1531 12,1296 -1036,2332 -2320,2332zm-48475 -4663l44271 0 -22048 -36086 -22223 36086z"/>
    <path class="fil2" d="M250587 336702c-636,0 -1237,-259 -1685,-706l-80015 -82724c-648,-672 -836,-1673 -471,-2532 365,-860 1213,-1425 2155,-1425l159077 0c930,0 1766,553 2143,1413 365,860 177,1861 -459,2532l-79061 82724c-448,459 -1049,718 -1684,718 0,0 0,0 0,0zm-74516 -82724l74504 77024 73608 -77024 -148112 0z"/>
    <path class="fil2" d="M250587 336702c-990,0 -1908,-624 -2226,-1601l-26876 -82736c-401,-1225 271,-2532 1495,-2933 1225,-400 2544,271 2933,1496l26888 82724c400,1225 -271,2544 -1496,2944 -247,71 -483,106 -718,106z"/>
    <path class="fil2" d="M250657 336702c-235,0 -471,-35 -706,-106 -1225,-388 -1908,-1707 -1520,-2932l26370 -82724c400,-1225 1696,-1908 2932,-1519 1225,388 1908,1707 1520,2932l-26370 82724c-318,1001 -1237,1625 -2226,1625z"/>
   </g>
  </g>
  <polygon class="fil2" points="153153,307212 124757,323582 128338,329789 156745,313419 "/>
  <polygon class="fil2" points="367842,323582 339447,307212 335854,313419 364261,329789 "/>
 </g>
</svg>
