<?xml version="1.0" encoding="UTF-8"?>
<!DOCTYPE svg PUBLIC "-//W3C//DTD SVG 1.0//EN" "http://www.w3.org/TR/2001/REC-SVG-20010904/DTD/svg10.dtd">
<!-- Creator: CorelDRAW X7 -->
<svg xmlns="http://www.w3.org/2000/svg" xml:space="preserve" width="50px" height="50px" version="1.0" shape-rendering="geometricPrecision" text-rendering="geometricPrecision" image-rendering="optimizeQuality" fill-rule="evenodd" clip-rule="evenodd"
viewBox="0 0 2360 2360"
 xmlns:xlink="http://www.w3.org/1999/xlink">
 <g id="Layer_x0020_1">
  <metadata id="CorelCorpID_0Corel-Layer"/>
  <rect fill="none" width="2360" height="2360"/>
  <g id="_1738231376">
   <path fill="#666666" d="M712 741l0 0 469 -24 0 0 -469 24 0 0 0 0zm16 -14l104 -83 299 63 -403 20 0 0zm104 -83l-104 83 403 -20 -299 -63 0 0zm-17 -3l3 0 -3 0z"/>
   <path fill="#666666" d="M559 784l0 -7 0 7 146 -57 110 -86 -110 86 -146 57 0 0 0 0zm-14 0l0 0 -66 -263c0,0 0,0 0,0l66 263 0 0zm273 -156l-136 -54 136 54 0 0zm-339 -127l0 0 0 0c0,0 0,0 0,0l0 0 0 0z"/>
   <polygon fill="#666666" points="705,727 815,641 818,641 828,644 828,644 828,644 828,644 828,644 828,644 832,644 728,727 708,727 "/>
   <path fill="#666666" d="M655 1017l0 0 47 -226 -47 229 0 0 0 -3zm-10 -20l-83 -200 136 -53 0 0 -136 53 83 200 7 -27 -7 27 0 0 0 0zm-76 -156l-17 -37 0 0 17 37 0 0z"/>
   <polygon fill="#666666" points="562,797 562,791 562,791 559,784 705,727 705,727 702,731 702,731 698,744 "/>
   <polygon fill="#666666" points="702,731 705,727 705,727 705,727 705,727 "/>
   <path fill="#666666" d="M602 1243l0 0 47 -203 0 0 -47 203 0 0 0 0zm-10 -6l0 0 50 -217 -73 -179 73 179 -50 217 0 0zm-157 -306l117 -127 0 0 -117 127 0 0z"/>
   <polygon fill="#666666" points="642,1020 569,841 552,804 552,804 552,804 559,797 562,797 645,997 642,1017 642,1017 "/>
   <polygon fill="#666666" points="559,797 559,797 562,791 562,797 "/>
   <path fill="#666666" d="M569 1230l-213 -183 0 0 213 183 0 0zm-200 -186l-17 -17 17 17zm-27 -7l0 0 0 0 0 0 0 0 0 0 0 0zm123 -156l80 -87 0 0 -80 87 0 0z"/>
   <path fill="#666666" d="M1108 1763l-396 -200c0,0 0,0 0,0l396 200 0 0 0 0 0 0zm-17 -20l0 0 -299 -340 299 340 0 0 0 0zm-409 -210l0 0 -77 -270 0 0 77 270zm100 -153l-180 -137 0 0 180 137 0 0 0 0z"/>
   <polygon fill="#666666" points="602,1247 602,1243 602,1243 602,1243 "/>
   <path fill="#666666" d="M1128 1763l0 0 53 -114 0 0 -53 114 0 0zm-10 -14l-290 -323 303 187 -303 -187 290 323 23 -46 -23 46 0 0 0 0zm63 -120l-193 -119 193 119 0 0 0 0 0 0z"/>
   <polygon fill="#666666" points="1118,1753 1091,1743 792,1403 792,1403 792,1403 792,1403 828,1426 1118,1749 "/>
   <path fill="#666666" d="M1035 1856l0 0 0 0 0 0zm0 0l-14 -10 -20 -13 -3 -4 0 0 -10 -6c-17,-14 -37,-30 -60,-47 -20,-17 -40,-37 -60,-53l-3 0c-10,-10 -23,-20 -33,-30l-4 -4c-76,-70 -143,-133 -156,-146l0 0 0 0 0 0 40 20c26,27 73,70 123,116l3 4c14,10 24,20 37,30l0 0c20,20 40,36 60,53 23,17 43,33 60,47l3 0 7 6 3 0 0 4 23 13 7 7 -3 3 -4 6 4 4 0 0 0 0 0 0zm50 -47l33 -36 0 0 -33 36zm6 -66l-409 -210 0 0 409 210 0 0 0 0 0 0z"/>
   <path fill="#666666" d="M1108 1763l-396 -200c0,0 0,0 0,0l-40 -20 0 0 3 3 3 -3 4 -7 0 -3 0 0 0 0 409 210 0 0 4 0 16 20 -3 0 0 0 0 0z"/>
   <polygon fill="#666666" points="1111,1763 1091,1743 1118,1753 1114,1759 "/>
   <path fill="#666666" d="M672 1543l0 0c-27,-30 -77,-83 -140,-163 -27,-30 -43,-57 -47,-60l4 3 3 0 7 -3c6,7 23,27 43,50 53,66 93,113 120,143l-70 -256 0 0 76 283 4 3 0 0 0 0 0 0z"/>
   <polygon fill="#666666" points="672,1543 668,1540 592,1257 595,1257 605,1263 682,1533 678,1533 668,1536 "/>
   <line fill="none" x1="672" y1="1543" x2="672" y2= "1543" />
   <polygon fill="#666666" points="675,1546 672,1543 672,1543 668,1536 678,1533 682,1533 682,1536 678,1543 "/>
   <polygon fill="#666666" points="489,1310 489,1310 535,1280 "/>
   <path fill="#666666" d="M485 1320l0 0 -6 -7 -20 -23 -4 -3 0 0 0 0 -3 -4 -10 -16 -13 -24 0 0 -3 -3 -7 -10 0 0 -3 -7 0 -3 -10 -17 -4 -3 0 -3 -3 -4 -3 -10 0 0 -7 -10 -3 -13 -4 0 -3 -10 0 -3 -7 -13 -3 -7 0 -3 -3 -10 -4 -4 0 -3 -3 -10 -3 -3 6 -7 -6 3 0 -6 -7 -17 0 0 0 0 -7 -17 -3 -6 0 -4 0 0 3 -3 14 10 0 0 3 17 0 0 7 16 0 0 3 7 -7 3 7 -3 0 3 3 10 4 7 0 3 3 7 3 3 4 10 3 14 3 0 4 10 -7 3 7 -3 6 13 4 10 0 3 6 7 0 6 4 4 0 3 13 23 3 0 7 14 0 3 13 20 10 13 3 4 0 3 0 0 24 30 -4 0 -3 7 3 3c0,0 0,0 0,0l0 0 0 0zm50 -40l50 -33 -16 -17 16 17 -50 33zm57 -43l-223 -193 223 193 0 0zm-253 -200l0 -3 -3 -4 0 0 0 -3 0 0c0,0 0,0 0,0l0 3 3 0 3 7 -3 0 0 0 0 0z"/>
   <polygon fill="#666666" points="585,1247 569,1230 356,1047 356,1047 342,1037 342,1037 342,1037 342,1037 339,1030 336,1030 342,1034 342,1034 346,1030 352,1027 369,1044 592,1237 592,1237 592,1237 589,1243 "/>
   <path fill="#666666" d="M499 1320c0,0 0,0 0,0l93 -63 0 0 -93 63 0 0 0 0z"/>
   <path fill="#666666" d="M489 1323l-4 -3c0,0 0,0 0,0l-3 -3 3 -7 4 0 0 0 46 -30 50 -33 4 3 3 7 0 0 0 0 -93 60c0,0 0,0 0,0l-7 6 -3 0 0 0 0 0z"/>
   <polygon fill="#666666" points="589,1250 585,1247 589,1243 589,1247 589,1247 "/>
   <polygon fill="#666666" points="592,1257 589,1250 592,1253 592,1253 592,1253 595,1257 "/>
   <polygon fill="#666666" points="592,1253 592,1253 589,1250 589,1250 589,1247 "/>
   <path fill="#666666" d="M336 1027c-24,-90 10,-300 13,-306l0 -4 3 10 7 0c-3,40 -30,204 -13,287l119 -133 -126 143 -3 3 0 0 0 0 0 0 0 0zm16 0l0 0 83 -96 -83 96 0 0 0 0zm193 -233l-149 -53 149 53 0 0 0 0 0 0z"/>
   <line fill="none" x1="562" y1="791" x2="562" y2= "791" />
   <polygon fill="#666666" points="336,1027 336,1027 339,1024 465,881 545,794 545,794 545,794 549,797 552,804 435,931 352,1027 352,1027 346,1024 339,1020 "/>
   <polygon fill="#666666" points="552,804 549,797 552,797 555,801 555,797 559,797 "/>
   <polygon fill="#666666" points="555,801 559,797 562,791 562,791 559,797 559,797 555,797 "/>
   <path fill="#666666" d="M336 1030l0 -3c0,0 0,0 0,0l0 0 0 3 0 0 0 0z"/>
   <polygon fill="#666666" points="342,1034 342,1034 336,1030 336,1027 339,1020 346,1024 352,1027 346,1030 "/>
   <path fill="#666666" d="M545 784l-189 -70 -4 0 -3 3 0 0c17,-59 123,-209 130,-216l0 0 -4 7 0 0 0 0 4 13c-24,33 -100,143 -117,196l183 67 0 0 0 0 0 0zm14 -7l-67 -259 0 0 67 259 0 0 0 0z"/>
   <path fill="#666666" d="M555 787l-10 -3 0 0 0 0 -66 -263c0,0 0,0 0,0l-4 -13 0 0 7 3 10 7 67 259 0 7 -4 3 0 0 0 0z"/>
   <polygon fill="#666666" points="562,791 562,791 562,791 559,791 555,787 555,787 559,784 "/>
   <polygon fill="#666666" points="562,791 559,791 "/>
   <path fill="#666666" d="M396 741l-37 -14c0,0 0,0 0,0l37 14z"/>
   <path fill="#666666" d="M545 794l-149 -53 -37 -14c0,0 0,0 0,0l-7 0 -3 -10 3 -3 4 0 189 70 4 7 -7 3 0 0 3 0z"/>
   <polygon fill="#666666" points="549,791 545,784 555,787 552,787 552,787 549,787 "/>
   <path fill="#666666" d="M562 791l0 0 0 0 0 0zm-3 0l-4 -4 -3 0 0 0 3 0 0 0 4 0 0 0 0 4z"/>
   <polygon fill="#666666" points="549,797 545,794 549,791 549,794 549,794 549,794 "/>
   <polygon fill="#666666" points="549,794 549,794 549,791 549,787 552,787 549,791 "/>
   <polygon fill="#666666" points="555,801 552,797 549,797 549,794 549,794 552,797 "/>
   <polygon fill="#666666" points="555,801 552,797 549,794 549,791 552,787 555,787 559,791 562,791 562,791 559,797 "/>
   <path fill="#666666" d="M818 641l-326 -123 326 123 0 0zm0 -13l0 0 -70 -173 70 173 0 0zm-136 -54l-197 -73 0 0 0 0 -3 0 -3 0c6,-3 110,-100 249,-100l7 0 0 0 -3 4 -4 6 4 4 -4 0c-116,0 -206,66 -233,89l187 70 0 0 0 0zm-203 -73l0 0c0,0 0,0 0,0l0 0 0 0 0 0 0 0z"/>
   <line fill="none" x1="818" y1="641" x2="818" y2= "641" />
   <path fill="#666666" d="M818 641l-326 -123 -3 -14 -4 -3 0 0 197 73 136 54 0 0 0 0 4 10 -4 3 0 0 0 0zm-339 -140l0 0c0,0 0,0 0,0l3 0 -3 0 0 0 0 0z"/>
   <polygon fill="#666666" points="828,644 828,644 818,641 818,641 822,638 825,641 825,641 825,641 828,641 "/>
   <path fill="#666666" d="M492 518l0 0 0 0zm-17 -10l0 0 4 -7 0 0 -4 7 0 0 0 0zm7 -7l3 0 0 0 -3 0 0 0z"/>
   <polygon fill="#666666" points="492,518 492,518 482,511 475,508 479,501 482,501 485,501 489,504 "/>
   <polygon fill="#666666" points="805,564 745,415 745,415 "/>
   <line fill="none" x1="828" y1="644" x2="828" y2= "644" />
   <path fill="#666666" d="M842 631l0 0 133 -183c0,0 0,0 0,0l-133 183zm-10 -7l-27 -60 27 60 0 0 0 0 0 0zm-84 -169l-16 -40 0 0 16 40zm213 -10c-93,-27 -176,-30 -209,-30l-7 0 -3 -10 -7 -4 0 0 17 0c33,0 123,4 223,34l0 0 -4 0 -3 3 -7 7 0 0 0 0z"/>
   <polygon fill="#666666" points="828,644 828,641 "/>
   <polygon fill="#666666" points="828,631 818,628 748,455 732,415 732,415 728,411 732,405 735,401 735,401 735,401 742,405 745,415 745,415 805,564 832,624 "/>
   <polygon fill="#666666" points="822,638 818,628 828,631 825,634 "/>
   <polygon fill="#666666" points="825,641 825,641 822,638 825,634 825,634 825,638 825,638 825,638 "/>
   <polygon fill="#666666" points="828,641 825,641 825,641 "/>
   <polygon fill="#666666" points="828,644 828,641 825,641 825,638 "/>
   <path fill="#666666" d="M1178 634l-336 -3 0 0 326 3c-37,-56 -167,-163 -193,-186l3 -3 0 -7 -3 -3 3 0c7,6 160,129 203,196 -3,0 -3,3 -3,3l0 0 0 0zm-346 -10l0 0 129 -179c0,0 0,0 0,0l-129 179 0 0 0 0z"/>
   <path fill="#666666" d="M842 631l-7 0 -3 -7 0 0 0 0 129 -179c0,0 0,0 0,0l7 -7 3 -3 4 0 3 3 0 7 -3 3c0,0 0,0 0,0l-133 183 0 0 0 0 0 0 0 0z"/>
   <polygon fill="#666666" points="835,631 832,631 828,631 832,624 "/>
   <polygon fill="#666666" points="825,634 828,631 832,631 832,631 828,631 828,634 "/>
   <polygon fill="#666666" points="825,638 825,634 825,634 828,634 828,631 "/>
   <polygon fill="#666666" points="1181,1932 1128,1763 1128,1763 "/>
   <line fill="#666666" x1="1128" y1="1763" x2="1128" y2= "1763" />
   <path fill="#666666" d="M1178 1959l-143 -103 3 0 7 0 40 -47 -37 40 120 87 -34 -110 40 130 4 0 0 3 0 0 0 0zm-143 -103l0 0 0 0 3 -7 -3 7 0 0 0 0zm3 -13l0 0 70 -80 0 0 -70 80 0 0 0 0z"/>
   <line fill="#666666" x1="1108" y1="1763" x2="1108" y2= "1763" />
   <polygon fill="#666666" points="1038,1856 1035,1856 1035,1856 1038,1849 1035,1856 1031,1852 1035,1846 1038,1843 1038,1843 1108,1763 1114,1766 1118,1773 1085,1809 1045,1856 "/>
   <polygon fill="#666666" points="1114,1766 1108,1763 1108,1763 1108,1763 1111,1763 "/>
   <polygon fill="#666666" points="1114,1766 1111,1763 1114,1759 1114,1759 1114,1763 "/>
   <path fill="#666666" d="M792 1403l-187 -140 0 0 187 140 0 0 0 0zm-87 -223l-56 -140 0 0 56 140 0 0 0 0z"/>
   <polygon fill="#666666" points="602,1243 599,1243 592,1237 642,1020 642,1020 642,1020 649,1040 649,1040 649,1040 "/>
   <polygon fill="#666666" points="642,1020 642,1020 642,1017 642,1017 642,1017 "/>
   <path fill="#666666" d="M792 1403l0 0 0 0 0 0zm0 0l-187 -140 0 0 0 0 -3 -16 0 0 180 133 6 23 4 0 0 0 0 0 0 0z"/>
   <polygon fill="#666666" points="602,1247 602,1247 599,1243 599,1243 599,1243 602,1243 602,1243 "/>
   <polygon fill="#666666" points="792,1403 792,1403 "/>
   <polygon fill="#666666" points="605,1263 595,1257 599,1253 599,1250 602,1250 602,1247 "/>
   <polygon fill="#666666" points="599,1250 602,1247 599,1243 602,1247 602,1247 602,1250 "/>
   <polygon fill="#666666" points="589,1243 592,1237 599,1243 599,1243 599,1243 599,1240 592,1243 592,1243 592,1243 592,1243 "/>
   <path fill="#666666" d="M599 1243l0 0 0 0 0 0 0 0 0 0 0 0zm-7 0l0 0 0 0 0 0z"/>
   <path fill="#666666" d="M589 1247l0 0 0 -4 3 0 -3 4 0 0zm10 -4l-7 0 0 0 7 -3 0 3 0 0z"/>
   <polygon fill="#666666" points="595,1257 592,1253 592,1253 595,1253 599,1253 599,1250 599,1253 "/>
   <polygon fill="#666666" points="595,1253 592,1253 589,1247 592,1243 592,1243 599,1243 599,1243 602,1247 599,1250 599,1253 "/>
   <polygon fill="#666666" points="758,1283 655,1020 655,1017 "/>
   <polygon fill="#666666" points="655,1020 655,1020 655,1017 655,1017 "/>
   <path fill="#666666" d="M1171 1639l-40 -26 40 26zm17 0l0 0 33 -20 -33 20zm-200 -129l-186 -114 -44 -113 44 113 186 114 0 0 0 0z"/>
   <polygon fill="#666666" points="1171,1639 1131,1613 828,1426 802,1396 802,1396 988,1510 1181,1629 1178,1629 1178,1633 1174,1633 "/>
   <polygon fill="#666666" points="828,1426 792,1403 792,1403 795,1406 798,1403 802,1396 802,1396 "/>
   <path fill="#666666" d="M1288 1563l273 -167 56 -146 -56 146 -273 167 0 0 0 0zm292 -183l74 -187 -74 187 0 0zm-798 0l0 0 -77 -200 77 200 0 0 0 0z"/>
   <line fill="#666666" x1="782" y1="1380" x2="782" y2= "1380" />
   <path fill="#666666" d="M652 970l46 -226 0 0 -46 226 0 0zm50 -179l10 -50 0 0 -10 50z"/>
   <polygon fill="#666666" points="712,741 712,737 728,727 1131,707 1178,717 1181,717 1181,717 "/>
   <polygon fill="#666666" points="712,737 715,734 712,727 705,727 708,727 728,727 "/>
   <polygon fill="#666666" points="655,1017 655,1017 655,1017 655,1017 645,997 652,970 698,744 698,744 698,744 708,741 712,741 702,791 "/>
   <polygon fill="#666666" points="708,741 708,741 712,737 712,737 712,741 "/>
   <polygon fill="#666666" points="698,744 702,731 702,731 702,737 708,741 708,741 708,741 "/>
   <polygon fill="#666666" points="708,741 708,741 702,737 702,731 705,727 712,727 715,734 712,737 712,737 "/>
   <polygon fill="#666666" points="642,1017 645,997 655,1017 655,1017 649,1014 649,1014 "/>
   <path fill="#666666" d="M1687 931l-40 -190 0 0 40 190zm13 -4l-40 -183 0 0 40 183z"/>
   <polygon fill="#666666" points="802,1396 798,1393 782,1380 705,1180 649,1040 655,1020 655,1020 655,1020 655,1020 758,1283 "/>
   <polygon fill="#666666" points="655,1020 655,1017 655,1017 655,1017 "/>
   <polygon fill="#666666" points="649,1040 642,1020 642,1020 642,1020 649,1027 649,1027 655,1020 655,1020 "/>
   <polygon fill="#666666" points="649,1027 649,1027 642,1020 642,1020 642,1017 642,1017 649,1014 649,1014 655,1017 655,1020 "/>
   <polygon fill="#666666" points="792,1403 788,1400 782,1380 782,1380 782,1380 798,1393 798,1393 792,1396 "/>
   <polygon fill="#666666" points="802,1396 798,1393 798,1393 "/>
   <polygon fill="#666666" points="795,1406 792,1403 792,1403 792,1396 798,1393 798,1393 798,1393 802,1396 802,1396 798,1403 "/>
   <polygon fill="#666666" points="1647,741 1181,717 "/>
   <path fill="#666666" d="M1634 727l-403 -20 300 -63 103 83zm-103 -83l-300 63 403 20 -103 -83 0 0z"/>
   <polygon fill="#666666" points="1647,741 1647,741 1181,717 1181,717 1181,717 1181,717 1231,707 1634,727 1647,737 "/>
   <polygon fill="#666666" points="1181,717 1181,717 1181,717 "/>
   <polygon fill="#666666" points="1181,704 895,644 1181,648 895,644 1181,704 1467,644 1181,648 1467,644 "/>
   <polygon fill="#666666" points="1131,707 832,644 832,644 895,644 1181,704 1181,704 "/>
   <path fill="#666666" d="M832 644l-4 0 4 0 0 0 0 0 0 0 0 0zm-4 0l0 0 0 0 0 0 0 0 0 0z"/>
   <line fill="none" x1="828" y1="644" x2="828" y2= "644" />
   <polygon fill="#666666" points="832,644 828,644 828,644 828,644 "/>
   <path fill="#666666" d="M832 644l-4 0 0 0 0 0 4 0 0 0zm-7 -6l0 0 0 0 0 0 0 0z"/>
   <path fill="#666666" d="M1181 648l-286 -4 -53 -10 0 -3 336 3c0,4 -4,4 -4,4l0 6 7 4 0 0 0 0z"/>
   <polygon fill="#666666" points="895,644 832,644 835,644 835,644 835,641 835,641 835,641 842,634 "/>
   <polygon fill="#666666" points="832,644 832,644 835,644 835,644 "/>
   <polygon fill="#666666" points="835,644 835,641 835,641 835,641 "/>
   <polygon fill="#666666" points="832,644 835,641 835,644 "/>
   <polygon fill="#666666" points="842,634 835,631 835,631 842,631 "/>
   <polygon fill="#666666" points="835,641 835,641 838,638 835,638 835,634 835,631 842,634 "/>
   <polygon fill="#666666" points="835,641 835,638 838,638 "/>
   <polygon fill="#666666" points="835,631 832,631 832,631 "/>
   <path fill="#666666" d="M835 641l0 0 0 0 0 0zm0 -3l-3 -7 0 0 3 0 0 3 0 4 0 0z"/>
   <polygon fill="#666666" points="828,631 832,631 832,631 832,631 832,631 "/>
   <polygon fill="#666666" points="832,644 832,644 828,644 825,638 825,638 828,631 832,631 832,631 832,631 835,638 835,641 835,641 "/>
   <polygon fill="#666666" points="1181,717 1178,717 1131,707 1181,704 1178,704 1174,711 "/>
   <polygon fill="#666666" points="1231,707 1181,704 1181,704 1467,644 1527,644 1531,644 "/>
   <line fill="#666666" x1="1181" y1="704" x2="1181" y2= "704" />
   <polygon fill="#666666" points="1181,717 1188,711 1181,704 1181,704 1231,707 "/>
   <polygon fill="#666666" points="1181,717 1181,717 1174,711 1178,704 1181,704 1181,704 1181,704 1181,704 1188,711 "/>
   <path fill="#666666" d="M1803 784l-146 -57 -113 -86 0 0 113 86 146 57 0 0 0 0 0 0zm14 0l63 -263c0,0 0,0 0,0l-63 263 0 0 0 0 0 0zm-276 -156l0 0 326 -124c0,0 0,0 0,0l-326 124zm306 -104l23 -6 0 0 -23 6zm36 -23c0,0 0,0 0,0l0 0 0 0z"/>
   <polygon fill="#666666" points="1657,727 1657,727 1654,727 1654,727 1634,727 1531,644 1531,644 1531,644 1531,644 1531,644 1531,644 1534,644 1544,641 "/>
   <polygon fill="#666666" points="1647,737 1634,727 1654,727 1654,727 1650,727 1647,734 "/>
   <path fill="#666666" d="M1531 644l-4 0 4 0 0 0 0 0 0 0 0 0zm0 0l0 0 0 0 0 0 0 0 0 0 0 0z"/>
   <path fill="#666666" d="M1707 1017l-20 -86 20 86 0 0 0 0zm7 -20l-14 -70 14 70 83 -200 -137 -53 0 0 137 53 -83 200 0 0 0 0zm86 -170l7 -23 -7 23z"/>
   <polygon fill="#666666" points="1707,1017 1687,931 1647,741 1654,741 1660,744 1660,744 1660,744 1700,927 1714,997 "/>
   <polygon fill="#666666" points="1654,741 1647,741 1647,737 1650,737 1650,741 "/>
   <polygon fill="#666666" points="1797,797 1660,744 1660,731 1657,731 1657,727 1657,727 1803,784 1800,791 1800,791 "/>
   <polygon fill="#666666" points="1660,744 1654,741 1654,741 1654,741 1660,737 1657,731 1660,731 "/>
   <polygon fill="#666666" points="1657,731 1654,727 1657,727 1657,727 1657,727 "/>
   <polygon fill="#666666" points="1654,741 1654,741 1654,741 1650,741 1650,737 1647,737 1647,734 1650,727 1654,727 1657,731 1660,737 "/>
   <path fill="#666666" d="M1760 1247l-50 -207 0 0 50 203 -3 4 3 0 0 0zm10 -10l-50 -217 80 -193 -80 193 50 217 0 0 0 0 0 0zm190 -167l50 -43 -50 43zm-50 -153l-103 -113 0 0 103 113zm-3 -23l-90 -100 0 0 90 100 0 0z"/>
   <polygon fill="#666666" points="1720,1020 1720,1017 1720,1017 1714,997 1797,797 1803,797 1807,804 1807,804 1800,827 "/>
   <polygon fill="#666666" points="1720,1017 1714,1014 1714,1014 1707,1017 1707,1017 1714,997 "/>
   <polygon fill="#666666" points="1803,797 1797,797 1800,791 1800,797 "/>
   <polygon fill="#666666" points="1830,1200 2007,1047 2007,1047 "/>
   <path fill="#666666" d="M1251 1763l0 0 290 -144 -290 144 0 0zm-7 -14l0 0 290 -323 0 0 -290 323 0 0 0 0zm24 -6l113 -127 -113 127 0 0 0 0 0 0zm439 -310l47 -170 -47 170zm30 -170l23 -16 0 0 -23 16z"/>
   <polygon fill="#666666" points="1760,1247 1760,1247 1760,1243 1760,1243 "/>
   <path fill="#666666" d="M1244 1749l-20 -36 20 36 0 0zm-63 -120l0 0 107 -66 -107 66z"/>
   <line fill="none" x1="1181" y1="1629" x2="1181" y2= "1629" />
   <polygon fill="#666666" points="1221,1619 1534,1426 1534,1426 "/>
   <polygon fill="#666666" points="1188,1639 1188,1633 1184,1633 1184,1629 1181,1629 1288,1563 1561,1396 1561,1396 1534,1426 1221,1619 "/>
   <polygon fill="#666666" points="1184,1633 1178,1633 1178,1629 1181,1629 1181,1629 1181,1629 1184,1629 "/>
   <polygon fill="#666666" points="1381,1616 1570,1403 1570,1403 "/>
   <polygon fill="#666666" points="1244,1753 1244,1749 1244,1749 1534,1426 1534,1426 1534,1426 1570,1403 1570,1403 1570,1403 1381,1616 1268,1743 "/>
   <polygon fill="#666666" points="1534,1426 1561,1396 1561,1396 1561,1403 1567,1406 1570,1403 1570,1403 "/>
   <path fill="#666666" d="M1204 1899l40 -126 0 0 -40 126zm30 -136l-53 -114 53 114zm-93 -60l30 -64 0 0 -30 64z"/>
   <polygon fill="#666666" points="1128,1763 1124,1759 1124,1759 1124,1759 1124,1756 1118,1749 1141,1703 1171,1639 1174,1639 1181,1649 1181,1649 "/>
   <polygon fill="#666666" points="1124,1759 1121,1756 1118,1753 1118,1749 1124,1756 "/>
   <line fill="none" x1="1124" y1="1759" x2="1124" y2= "1759" />
   <polygon fill="#666666" points="1124,1759 1121,1756 1114,1756 1114,1759 1118,1753 1121,1756 "/>
   <polygon fill="#666666" points="1134,1826 1118,1773 "/>
   <line fill="none" x1="1118" y1="1773" x2="1118" y2= "1773" />
   <polygon fill="#666666" points="1178,1956 1174,1956 1134,1826 1118,1773 1124,1766 1124,1766 1124,1766 1124,1766 1124,1766 1128,1763 1181,1932 1174,1952 "/>
   <line fill="#666666" x1="1124" y1="1766" x2="1124" y2= "1766" />
   <polygon fill="#666666" points="1124,1766 1124,1766 1124,1759 1124,1759 1124,1759 1128,1763 1128,1763 1128,1763 "/>
   <line fill="none" x1="1124" y1="1766" x2="1124" y2= "1766" />
   <polygon fill="#666666" points="1118,1773 1118,1773 1114,1766 1118,1766 1121,1769 1121,1769 1121,1766 1124,1766 1124,1766 "/>
   <path fill="#666666" d="M1121 1769l-3 -3 -4 0 0 0 0 0 7 3 0 0 0 0zm0 -3l3 0 0 0 -3 0z"/>
   <path fill="#666666" d="M1121 1769l0 0 0 -3 0 3 0 0 0 0 0 0zm3 -3l0 -7 0 0 0 0 0 7 0 0z"/>
   <polygon fill="#666666" points="1121,1769 1121,1769 1114,1766 1114,1766 1114,1763 1114,1759 1114,1759 1114,1756 1121,1756 1124,1759 1124,1766 1124,1766 1121,1766 "/>
   <line fill="none" x1="1171" y1="1639" x2="1171" y2= "1639" />
   <polygon fill="#666666" points="1174,1639 1171,1639 1171,1639 1174,1633 1178,1633 "/>
   <polygon fill="#666666" points="1224,1713 1188,1639 1188,1639 "/>
   <line fill="none" x1="1188" y1="1639" x2="1188" y2= "1639" />
   <polygon fill="#666666" points="1234,1763 1181,1649 1184,1639 1188,1639 1224,1713 1244,1749 1238,1756 1238,1759 1238,1759 1234,1759 "/>
   <polygon fill="#666666" points="1181,1649 1174,1639 1178,1643 1181,1643 1184,1643 1184,1639 "/>
   <polygon fill="#666666" points="1184,1639 1188,1639 1184,1633 1188,1633 1188,1639 1188,1639 "/>
   <polygon fill="#666666" points="1181,1643 1178,1643 1174,1639 1174,1639 1178,1633 1184,1633 1188,1639 1184,1639 1184,1643 "/>
   <polygon fill="#666666" points="1238,1759 1238,1756 1244,1749 1244,1753 1238,1756 "/>
   <path fill="#666666" d="M1328 1856l0 -4 0 -6 -4 -3 7 -7 3 0 3 -3 14 -10 3 -4 10 -6 3 0c17,-17 37,-30 57,-47 20,-17 40,-33 60,-53l7 6 -4 -6c14,-10 27,-24 37,-34 50,-43 96,-86 126,-116l-109 56 149 -76 0 0 0 0 0 0c-23,23 -86,83 -156,146 -13,10 -27,20 -40,34l0 0c-20,16 -40,36 -60,53 -23,17 -43,30 -60,47l-13 6 0 4 -17 10 -3 3 -4 3 -9 7 0 0 0 0 0 0zm-50 -47l-34 -36 0 0 34 36 0 0 0 0zm-10 -66l0 0 412 -210 0 0 -412 210 0 0 0 0z"/>
   <polygon fill="#666666" points="1251,1763 1251,1763 1268,1743 1268,1743 1268,1743 1680,1533 1680,1536 1684,1543 1687,1546 1690,1543 1690,1543 1541,1619 "/>
   <polygon fill="#666666" points="1251,1763 1248,1759 1244,1753 1268,1743 "/>
   <line fill="#666666" x1="1244" y1="1773" x2="1244" y2= "1773" />
   <line fill="none" x1="1238" y1="1759" x2="1238" y2= "1759" />
   <polygon fill="#666666" points="1238,1759 1238,1759 1238,1756 1244,1753 1248,1759 1248,1756 1241,1756 "/>
   <path fill="#666666" d="M1690 1543l0 0 4 -3 76 -283 4 3 -4 -3 -70 256c34,-37 84,-97 120,-143 20,-23 37,-43 43,-50l4 3 3 0 7 -3c-4,3 -24,27 -47,60 -46,53 -106,126 -140,163l0 0 0 0 0 0zm-10 -10l30 -100 -30 100 0 0z"/>
   <polygon fill="#666666" points="1690,1543 1690,1536 1684,1533 1680,1533 1707,1433 1754,1263 1767,1257 1770,1257 1694,1540 "/>
   <path fill="#666666" d="M1690 1543l0 0 0 0 0 0 0 0 0 0zm-10 -10l0 0 0 0 0 0z"/>
   <polygon fill="#666666" points="1687,1546 1684,1543 1680,1536 1680,1533 1680,1533 1680,1533 1684,1533 1690,1536 1690,1543 1690,1543 "/>
   <polygon fill="#666666" points="1870,1310 1840,1287 "/>
   <path fill="#666666" d="M1877 1320c0,0 0,0 0,0l0 -3 0 -7 -7 0 3 -7 20 -23 0 0 4 0 0 -3 0 0 3 -4 7 -10 6 0 -3 -3 13 -23 0 0 7 -10 0 -4 7 -10 0 0 0 -3 6 -7 0 0 0 0 17 -40 3 -3 4 -3 6 0 -6 -3 6 -17 4 -7 0 0 0 -3 3 -7 7 -13 0 -3 0 -4 3 -3 0 -7 3 -3 0 0 4 -13 3 -10 0 0 3 -7 0 -3 0 -4 4 0 6 0 -6 -3 0 0 16 -17 0 0 0 -3c0,0 0,0 0,0l0 0 0 3 0 0 0 0 0 10 -3 0 0 4 0 0 0 3 0 0 -3 3 0 4 0 3 -4 10 0 0 -3 7 -3 10 0 3 -4 3 -6 0 6 4 0 3 -3 3 0 4 0 3 -3 7 -7 13 0 7 -3 3 -4 7 -6 16 0 0 -4 7 0 3 -20 40 0 0 0 0 -3 7 -3 3 0 0 -4 10 -3 3 -7 10 0 0 -13 24 -3 3 -7 10 -3 3 0 0 0 4 0 0 -4 0 0 0 -26 33 0 0 0 0 0 0zm-37 -33l-63 -40 53 -47 -53 47 63 40 0 0 0 0zm-70 -50l0 0 190 -167 -190 167z"/>
   <polygon fill="#666666" points="1777,1247 1770,1243 1770,1237 1770,1237 1770,1237 1960,1070 2010,1027 2013,1030 2020,1034 2020,1034 2023,1030 2023,1030 2007,1047 2007,1047 1830,1200 "/>
   <path fill="#666666" d="M1863 1320l-89 -60 89 57c0,3 0,3 0,3l0 0z"/>
   <path fill="#666666" d="M1870 1323l-3 0 -4 -6c0,0 0,0 0,0l-89 -57 -4 -3 0 -7 7 -3 63 40 30 23 7 0 0 7 0 3c0,0 0,0 0,0l-7 3 0 0 0 0z"/>
   <polygon fill="#666666" points="1770,1250 1770,1250 1770,1247 1770,1247 1770,1243 1777,1247 "/>
   <polygon fill="#666666" points="1770,1257 1767,1257 1770,1253 1770,1253 1770,1253 1770,1250 "/>
   <polygon fill="#666666" points="1770,1253 1770,1247 1770,1250 1770,1250 "/>
   <path fill="#666666" d="M2023 1027l0 0 0 0 0 -3 -116 -130 110 120c16,-83 -10,-247 -17,-287l7 0 6 -10 0 4c0,6 37,219 10,306l0 0 0 0zm-13 0l-100 -110 100 110 0 0 0 0 0 0zm-193 -233l0 0 123 -43 -123 43z"/>
   <line fill="none" x1="1800" y1="791" x2="1800" y2= "791" />
   <polygon fill="#666666" points="2023,1027 2023,1020 2013,1024 2010,1027 2010,1027 1910,917 1807,804 1810,797 1817,794 1817,794 1817,794 1907,894 2023,1024 "/>
   <polygon fill="#666666" points="1807,804 1803,797 1803,797 1807,801 1807,797 1810,797 1810,797 "/>
   <path fill="#666666" d="M1807 801l-4 -4 0 0 -3 0 0 -6 0 0 3 6 4 4 0 0 0 0zm3 -4l0 0z"/>
   <path fill="#666666" d="M2023 1030l0 -3 0 0c0,0 0,0 0,0l0 3 0 0z"/>
   <polygon fill="#666666" points="2020,1034 2013,1030 2010,1027 2013,1024 2023,1020 2023,1027 2023,1030 "/>
   <path fill="#666666" d="M1803 784l0 0 67 -266 0 0 -67 266 0 0 0 0zm14 0l0 0 183 -67c-20,-53 -93,-159 -120,-196l3 -13 0 0 0 0 0 -7 0 0c4,7 114,157 130,216l0 0 -3 -3 -7 0 -186 70 0 0z"/>
   <path fill="#666666" d="M1807 787l-4 -3 0 0 67 -266 0 0 0 0 10 -7 3 -3 0 0 -3 13c0,0 0,0 0,0l-63 263 0 0 0 0 -10 3 0 0 0 0z"/>
   <polygon fill="#666666" points="1800,791 1803,784 1807,787 1803,787 1803,787 "/>
   <polygon fill="#666666" points="1800,791 1800,791 1803,787 "/>
   <path fill="#666666" d="M1940 751l60 -24c0,0 0,0 0,0l-60 24z"/>
   <path fill="#666666" d="M1817 794l-4 -3 4 -7 186 -70 7 0 3 3 -6 10 -7 0c0,0 0,0 0,0l-60 24 -123 43 0 0 0 0z"/>
   <polygon fill="#666666" points="1813,791 1810,787 1810,787 1807,787 1807,787 1817,784 "/>
   <path fill="#666666" d="M1800 791l0 0 0 0 0 0zm3 -4l0 0 4 0 0 0 3 0 -7 0 0 0 0 0 0 0z"/>
   <polygon fill="#666666" points="1810,797 1813,794 1813,794 1813,794 1813,791 1817,794 "/>
   <polygon fill="#666666" points="1813,794 1813,791 1810,787 1810,787 1813,791 "/>
   <path fill="#666666" d="M1807 801l0 0 3 -4 -3 0 0 4 0 0 0 0zm3 -4l3 -3 0 0 -3 3 0 0 0 0 0 0z"/>
   <polygon fill="#666666" points="1807,801 1807,801 1803,797 1800,791 1800,791 1803,787 1803,787 1810,787 1813,791 1813,794 1810,797 "/>
   <path fill="#666666" d="M1544 641l0 0 303 -117 -303 117zm-3 -13l66 -160 -66 160 0 0zm326 -124c-27,-23 -117,-89 -233,-89l-4 0 0 -4 0 -6 -3 -4 0 0 7 0c140,0 243,97 249,100l-3 0 -3 0 0 0 0 0 -10 3 0 0 0 0zm16 -3l0 0 0 0c0,0 0,0 0,0l0 0 0 0z"/>
   <path fill="#666666" d="M1544 641l-7 -3 4 -10 0 0 0 0 326 -124c0,0 0,0 0,0l10 -3 0 0 -4 3 -3 14 -23 6 -303 117 0 0 0 0 0 0 0 0zm339 -140l-3 0 3 0c0,0 0,0 0,0l0 0 0 0 0 0z"/>
   <polygon fill="#666666" points="1531,644 1534,644 1534,641 1537,641 1537,641 1537,641 1537,638 1544,641 1534,644 "/>
   <polygon fill="#666666" points="1531,644 1534,644 "/>
   <path fill="#666666" d="M1883 508l0 -7 0 0 0 7 0 0 0 0 0 0zm-3 -7l-3 0 0 0 3 0 0 0 0 0z"/>
   <polygon fill="#666666" points="1870,518 1873,504 1877,501 1880,501 1883,501 1883,508 1880,511 "/>
   <polygon fill="#666666" points="1531,624 1531,624 1617,415 1617,415 "/>
   <line fill="none" x1="1531" y1="644" x2="1531" y2= "644" />
   <line fill="#666666" x1="1531" y1="644" x2="1531" y2= "644" />
   <path fill="#666666" d="M1517 631l-130 -183c0,0 0,0 0,0l130 183 0 0 0 0zm90 -163l23 -53 0 0 -23 53zm-210 -23l-3 -7 -7 -3 -3 0 3 0c100,-30 190,-34 223,-34l14 0 0 0 -4 4 -3 10 -7 0c-33,0 -116,3 -213,30l0 0 0 0z"/>
   <polygon fill="#666666" points="1534,644 1534,644 1534,641 "/>
   <polygon fill="#666666" points="1531,644 1534,644 1534,644 "/>
   <polygon fill="#666666" points="1534,631 1531,624 1617,415 1617,415 1620,405 1624,401 1624,401 1627,401 1630,405 1630,411 1630,415 1630,415 1607,468 1541,628 "/>
   <polygon fill="#666666" points="1537,638 1534,634 1534,631 1541,628 "/>
   <polygon fill="#666666" points="1537,641 1537,638 1537,638 1537,638 1537,634 1534,634 1537,638 "/>
   <line fill="none" x1="1537" y1="638" x2="1537" y2= "638" />
   <path fill="#666666" d="M1184 634c0,0 -3,-3 -3,-6 43,-64 196,-187 203,-193l0 0 -3 3 3 7 3 3c-26,23 -156,130 -196,186l326 -3 0 0 -333 3 0 0 0 0z"/>
   <path fill="#666666" d="M1181 634l-3 0c0,0 0,-3 3,-6 0,3 3,6 3,6l-3 0 0 0z"/>
   <path fill="#666666" d="M1181 648l0 0 3 -4 0 -6c0,0 0,0 0,-4l333 -3 4 3 -54 10 -286 4 0 0 0 0z"/>
   <path fill="#666666" d="M1181 648l0 0 -7 -4 0 -6c0,0 4,0 4,-4l3 0 3 0c0,4 0,4 0,4l0 6 -3 4 0 0 0 0z"/>
   <polygon fill="#666666" points="1467,644 1521,634 1524,641 1527,641 1527,641 1527,644 1527,644 1527,644 "/>
   <polygon fill="#666666" points="1527,644 1527,644 1527,644 1531,644 "/>
   <path fill="#666666" d="M1531 624l-134 -179c0,0 0,0 0,0l134 179 0 0z"/>
   <polygon fill="#666666" points="1527,644 1527,641 1527,641 1527,641 "/>
   <polygon fill="#666666" points="1531,644 1527,644 1527,641 "/>
   <polygon fill="#666666" points="1534,641 1537,641 1537,641 "/>
   <line fill="none" x1="1531" y1="624" x2="1531" y2= "624" />
   <path fill="#666666" d="M1517 631l0 0 0 0 -130 -183c0,0 0,0 0,0l-3 -3 -3 -7 3 -3 3 0 7 3 3 7c0,0 0,0 0,0l134 179 -4 7 -10 0 0 0 0 0z"/>
   <polygon fill="#666666" points="1521,634 1517,631 1527,631 1527,631 "/>
   <polygon fill="#666666" points="1527,641 1524,641 1521,634 1527,631 1524,634 1524,638 1524,638 "/>
   <polygon fill="#666666" points="1527,641 1524,638 1524,638 "/>
   <polygon fill="#666666" points="1527,631 1531,624 1531,624 1531,624 1534,631 1531,631 "/>
   <polygon fill="#666666" points="1527,631 1527,631 1531,631 "/>
   <path fill="#666666" d="M1527 641l0 0 0 0 0 0zm-3 -3l0 -4 3 0 0 -3 0 0 -3 7 0 0z"/>
   <polygon fill="#666666" points="1534,634 1534,634 1531,631 1531,631 1531,631 1534,631 "/>
   <path fill="#666666" d="M1534 644l3 -6 0 3 -3 0 0 3 0 0 0 0zm3 -6l-6 -7 3 3 0 0 3 0 0 4 0 0 0 0z"/>
   <polygon fill="#666666" points="1531,631 1531,631 1527,631 "/>
   <polygon fill="#666666" points="1531,644 1531,644 1527,641 1527,641 1524,638 1527,631 1527,631 1531,631 1531,631 1537,638 1537,638 1534,644 "/>
   <path fill="#666666" d="M1181 1959l-3 0 3 0 3 0 0 -3 4 0 16 -57 -13 37 123 -87 -36 -40 40 47 3 0 7 0 0 0 -144 103 -3 0 0 0 0 0zm0 -27l0 0 53 -169 0 0 -53 169zm143 -89l-73 -80 0 0 73 80 0 0 0 0 0 0z"/>
   <path fill="#666666" d="M1181 1959l-3 0 0 -3 3 3 0 0zm0 0l3 -3 0 3 -3 0 0 0 0 0zm0 -27l0 0 0 0 0 0 0 0 0 0z"/>
   <line fill="#666666" x1="1251" y1="1763" x2="1251" y2= "1763" />
   <polygon fill="#666666" points="1184,1956 1188,1952 1181,1932 1234,1763 1234,1763 1234,1766 1238,1766 1238,1766 1238,1766 1238,1766 1244,1773 1204,1899 1188,1956 "/>
   <polygon fill="#666666" points="1181,1959 1181,1959 1178,1956 1174,1952 1181,1932 1181,1932 1181,1932 1188,1952 1184,1956 "/>
   <line fill="#666666" x1="1238" y1="1766" x2="1238" y2= "1766" />
   <polygon fill="#666666" points="1238,1766 1234,1766 1234,1763 1234,1759 1238,1759 1234,1759 "/>
   <line fill="none" x1="1238" y1="1766" x2="1238" y2= "1766" />
   <polygon fill="#666666" points="1321,1856 1318,1856 1278,1809 1244,1773 1248,1766 1251,1763 1324,1843 1324,1843 1328,1846 1328,1852 1328,1856 "/>
   <polygon fill="#666666" points="1248,1766 1248,1766 1251,1763 1251,1763 1251,1763 1251,1763 "/>
   <polygon fill="#666666" points="1248,1766 1248,1763 1248,1759 1248,1759 1251,1763 "/>
   <polygon fill="#666666" points="1244,1773 1238,1766 1238,1766 1238,1766 1241,1769 1241,1769 1244,1766 1248,1766 "/>
   <path fill="#666666" d="M1241 1769l7 -3 0 0 0 0 -4 0 -3 3 0 0 0 0zm-3 -3l0 0 0 0 0 0 0 0 0 0z"/>
   <path fill="#666666" d="M1241 1769l0 0 -3 -3 3 3 0 0zm-3 -3l-4 -7 4 0 0 0 0 7 0 0 0 0z"/>
   <polygon fill="#666666" points="1241,1769 1238,1766 1238,1766 1238,1766 1238,1759 1241,1756 1248,1756 1248,1759 1248,1759 1248,1763 1248,1766 1248,1766 "/>
   <path fill="#666666" d="M1570 1403l0 0 184 -140 -184 140zm10 -23l0 0 157 -117 -157 117 0 0 0 0zm37 -130l90 -233 0 3 -90 230 0 0 0 0zm37 -57l56 -153 0 0 -56 153z"/>
   <polygon fill="#666666" points="1561,1396 1617,1250 1707,1020 1707,1020 1707,1020 1707,1020 1710,1040 1654,1193 1580,1380 1580,1380 1580,1380 1564,1393 1564,1393 "/>
   <polygon fill="#666666" points="1707,1020 1707,1017 1707,1017 "/>
   <polygon fill="#666666" points="1707,1020 1707,1020 1707,1020 1707,1020 1707,1017 1707,1017 1707,1017 "/>
   <polygon fill="#666666" points="1760,1243 1710,1040 1710,1040 1710,1040 1720,1020 1720,1020 1720,1020 1770,1237 "/>
   <polygon fill="#666666" points="1710,1040 1707,1020 1707,1020 1714,1027 1714,1027 1720,1020 1720,1020 1720,1020 "/>
   <polygon fill="#666666" points="1720,1020 1720,1017 1720,1017 1720,1017 "/>
   <polygon fill="#666666" points="1714,1027 1714,1027 1707,1020 1707,1017 1714,1014 1714,1014 1720,1017 1720,1017 1720,1020 1720,1020 "/>
   <polygon fill="#666666" points="1570,1403 1570,1403 1570,1403 1570,1400 1580,1380 1737,1263 1760,1247 1760,1247 1754,1263 1754,1263 1754,1263 "/>
   <polygon fill="#666666" points="1570,1403 1570,1396 1564,1393 1580,1380 1570,1400 "/>
   <polygon fill="#666666" points="1760,1247 1760,1247 1760,1243 1760,1243 1760,1243 1760,1243 1760,1243 "/>
   <polygon fill="#666666" points="1561,1396 1561,1396 1564,1393 1564,1393 "/>
   <polygon fill="#666666" points="1570,1403 1570,1403 "/>
   <polygon fill="#666666" points="1567,1406 1561,1403 1561,1396 1561,1396 1561,1396 1564,1393 1570,1396 1570,1403 1570,1403 "/>
   <polygon fill="#666666" points="1754,1263 1760,1247 1760,1250 1760,1250 1764,1253 1767,1257 "/>
   <polygon fill="#666666" points="1760,1250 1760,1250 1760,1247 1760,1247 1760,1243 1760,1247 "/>
   <polygon fill="#666666" points="1770,1243 1770,1243 1770,1243 1770,1243 1764,1240 1764,1243 1760,1243 1760,1243 1770,1237 "/>
   <path fill="#666666" d="M1760 1243l0 0 0 0 0 0 4 0 -4 0 0 0 0 0zm10 0l0 0 0 0z"/>
   <path fill="#666666" d="M1770 1247l0 -4 0 0 0 4 0 0zm-6 -4l0 -3 6 3 0 0 -6 0 0 0 0 0z"/>
   <polygon fill="#666666" points="1767,1257 1764,1253 1760,1250 1764,1253 1767,1253 1770,1253 1770,1253 "/>
   <polygon fill="#666666" points="1767,1253 1764,1253 1760,1250 1760,1247 1760,1243 1764,1243 1770,1243 1770,1243 1770,1247 1770,1253 "/>
  </g>
 </g>
</svg>
