<?xml version="1.0" encoding="UTF-8"?>
<!DOCTYPE svg PUBLIC "-//W3C//DTD SVG 1.1//EN" "http://www.w3.org/Graphics/SVG/1.1/DTD/svg11.dtd">
<!-- Creator: CorelDRAW X7 -->
<svg xmlns="http://www.w3.org/2000/svg" xml:space="preserve" width="149px" height="30px" version="1.1" style="shape-rendering:geometricPrecision; text-rendering:geometricPrecision; image-rendering:optimizeQuality; fill-rule:evenodd; clip-rule:evenodd"
viewBox="0 0 3478692 700271"
 xmlns:xlink="http://www.w3.org/1999/xlink">
 <defs>
  <style type="text/css">
   <![CDATA[
    .str0 {stroke:#666666;stroke-width:4659.28}
    .fil0 {fill:none}
    .fil1 {fill:#666666}
   ]]>
  </style>
 </defs>
 <g id="Layer_x0020_1">
  <metadata id="CorelCorpID_0Corel-Layer"/>
  <rect class="fil0" x="11" width="3478692" height="700271"/>
  <path class="fil0 str0" d="M3406735 291632c0,0 -7223,15881 5569,18059 12793,2150 20650,-10560 16956,-29417 -3695,-18858 -14612,-59082 12599,-60295 0,0 32615,413 10201,50563 0,0 -4935,11717 3060,15797"/>
  <path class="fil0 str0" d="M71929 586243c0,0 7224,-15881 -5569,-18059 -12792,-2150 -20649,10560 -16955,29417 3694,18858 14612,59082 -12599,60295 0,0 -32615,-413 -10201,-50563 0,0 4935,-11717 -3060,-15797"/>
  <circle class="fil1 str0" transform="matrix(0.774391 0.178492 -0.178492 0.774391 3.39865E+006 323195)" r="26439"/>
  <circle class="fil1 str0" transform="matrix(-0.774391 -0.178492 0.178492 -0.774391 80012.6 554680)" r="26439"/>
  <ellipse class="fil0 str0" cx="1776202" cy="363463" rx="40314" ry="40047"/>
  <ellipse class="fil0 str0" cx="1736121" cy="408864" rx="40314" ry="40047"/>
  <ellipse class="fil0 str0" cx="1695717" cy="453145" rx="40314" ry="40047"/>
  <ellipse class="fil0 str0" cx="1652934" cy="490483" rx="40314" ry="40047"/>
  <ellipse class="fil0 str0" cx="1599339" cy="522453" rx="40314" ry="40047"/>
  <ellipse class="fil0 str0" cx="1544909" cy="546736" rx="40314" ry="40047"/>
  <ellipse class="fil0 str0" cx="1486493" cy="563438" rx="40314" ry="40047"/>
  <ellipse class="fil0 str0" cx="1428103" cy="567424" rx="40314" ry="40047"/>
  <ellipse class="fil0 str0" cx="1366742" cy="557132" rx="40314" ry="40047"/>
  <ellipse class="fil0 str0" cx="1311374" cy="537903" rx="40314" ry="40047"/>
  <ellipse class="fil0 str0" cx="1256398" cy="515496" rx="40314" ry="40047"/>
  <ellipse class="fil0 str0" cx="1201395" cy="485402" rx="40314" ry="40047"/>
  <ellipse class="fil0 str0" cx="1157309" cy="454135" rx="40314" ry="40047"/>
  <ellipse class="fil0 str0" cx="1109133" cy="416433" rx="40314" ry="40047"/>
  <ellipse class="fil0 str0" cx="1062520" cy="378288" rx="40314" ry="40047"/>
  <ellipse class="fil0 str0" cx="1018773" cy="342019" rx="40314" ry="40047"/>
  <ellipse class="fil0 str0" cx="973775" cy="301763" rx="40314" ry="40047"/>
  <ellipse class="fil0 str0" cx="928230" cy="264687" rx="40314" ry="40047"/>
  <ellipse class="fil0 str0" cx="880966" cy="226958" rx="40314" ry="40047"/>
  <ellipse class="fil0 str0" cx="835212" cy="189882" rx="40314" ry="40047"/>
  <ellipse class="fil0 str0" cx="790111" cy="152987" rx="40314" ry="40047"/>
  <ellipse class="fil0 str0" cx="739589" cy="115702" rx="40314" ry="40047"/>
  <ellipse class="fil0 str0" cx="679280" cy="96479" rx="40314" ry="40047"/>
  <ellipse class="fil0 str0" cx="621809" cy="86006" rx="40314" ry="40047"/>
  <ellipse class="fil0 str0" cx="560406" cy="94731" rx="40314" ry="40047"/>
  <ellipse class="fil0 str0" cx="503502" cy="108532" rx="40314" ry="40047"/>
  <ellipse class="fil0 str0" cx="445122" cy="135276" rx="40314" ry="40047"/>
  <ellipse class="fil0 str0" cx="396644" cy="167904" rx="40314" ry="40047"/>
  <ellipse class="fil0 str0" cx="347651" cy="203472" rx="40314" ry="40047"/>
  <ellipse class="fil0 str0" cx="305366" cy="245498" rx="40314" ry="40047"/>
  <ellipse class="fil0 str0" cx="262222" cy="286797" rx="40314" ry="40047"/>
  <ellipse class="fil0 str0" cx="220374" cy="331957" rx="40314" ry="40047"/>
  <ellipse class="fil0 str0" cx="182577" cy="377708" rx="40314" ry="40047"/>
  <ellipse class="fil0 str0" cx="152087" cy="424494" rx="40314" ry="40047"/>
  <ellipse class="fil0 str0" cx="121736" cy="470036" rx="40314" ry="40047"/>
  <ellipse class="fil0 str0" cx="93768" cy="516409" rx="40314" ry="40047"/>
  <ellipse class="fil0 str0" cx="3373702" cy="359879" rx="40314" ry="40047"/>
  <ellipse class="fil0 str0" cx="3333621" cy="405279" rx="40314" ry="40047"/>
  <ellipse class="fil0 str0" cx="3293217" cy="449561" rx="40314" ry="40047"/>
  <ellipse class="fil0 str0" cx="3250434" cy="486898" rx="40314" ry="40047"/>
  <ellipse class="fil0 str0" cx="3196838" cy="518868" rx="40314" ry="40047"/>
  <ellipse class="fil0 str0" cx="3142409" cy="543152" rx="40314" ry="40047"/>
  <ellipse class="fil0 str0" cx="3083993" cy="559854" rx="40314" ry="40047"/>
  <ellipse class="fil0 str0" cx="3025602" cy="563840" rx="40314" ry="40047"/>
  <ellipse class="fil0 str0" cx="2964242" cy="553548" rx="40314" ry="40047"/>
  <ellipse class="fil0 str0" cx="2908874" cy="534319" rx="40314" ry="40047"/>
  <ellipse class="fil0 str0" cx="2853897" cy="511912" rx="40314" ry="40047"/>
  <ellipse class="fil0 str0" cx="2798895" cy="481818" rx="40314" ry="40047"/>
  <ellipse class="fil0 str0" cx="2754809" cy="450551" rx="40314" ry="40047"/>
  <ellipse class="fil0 str0" cx="2706632" cy="412849" rx="40314" ry="40047"/>
  <ellipse class="fil0 str0" cx="2660019" cy="374704" rx="40314" ry="40047"/>
  <ellipse class="fil0 str0" cx="2616272" cy="338435" rx="40314" ry="40047"/>
  <ellipse class="fil0 str0" cx="2571275" cy="298179" rx="40314" ry="40047"/>
  <ellipse class="fil0 str0" cx="2525730" cy="261103" rx="40314" ry="40047"/>
  <ellipse class="fil0 str0" cx="2478465" cy="223374" rx="40314" ry="40047"/>
  <ellipse class="fil0 str0" cx="2432712" cy="186298" rx="40314" ry="40047"/>
  <ellipse class="fil0 str0" cx="2387610" cy="149403" rx="40314" ry="40047"/>
  <ellipse class="fil0 str0" cx="2337089" cy="112118" rx="40314" ry="40047"/>
  <ellipse class="fil0 str0" cx="2276780" cy="92895" rx="40314" ry="40047"/>
  <ellipse class="fil0 str0" cx="2219308" cy="82422" rx="40314" ry="40047"/>
  <ellipse class="fil0 str0" cx="2157906" cy="91147" rx="40314" ry="40047"/>
  <ellipse class="fil0 str0" cx="2101002" cy="104948" rx="40314" ry="40047"/>
  <ellipse class="fil0 str0" cx="2042622" cy="131692" rx="40314" ry="40047"/>
  <ellipse class="fil0 str0" cx="1994144" cy="164320" rx="40314" ry="40047"/>
  <ellipse class="fil0 str0" cx="1945151" cy="199888" rx="40314" ry="40047"/>
  <ellipse class="fil0 str0" cx="1902866" cy="241914" rx="40314" ry="40047"/>
  <ellipse class="fil0 str0" cx="1859722" cy="283213" rx="40314" ry="40047"/>
  <ellipse class="fil0 str0" cx="1817874" cy="328373" rx="40314" ry="40047"/>
 </g>
</svg>
