<?xml version="1.0" encoding="UTF-8" standalone="no"?>
<svg width="44px" height="44px" viewBox="0 0 44 44" version="1.1" xmlns="http://www.w3.org/2000/svg" xmlns:xlink="http://www.w3.org/1999/xlink">
    <!-- Generator: Sketch 3.7.2 (28276) - http://www.bohemiancoding.com/sketch -->
    <title>ios-contact</title>
    <desc>Created with Sketch.</desc>
    <defs></defs>
    <g id="44px-Line" stroke="none" stroke-width="1" fill="none" fill-rule="evenodd">
        <g id="ios-contact"></g>
        <path d="M22,0 C9.869,0 0,9.869 0,22 C0,28.094 2.492,33.616 6.508,37.604 L6.458,37.628 L7.599,38.618 C7.636,38.65 7.677,38.677 7.714,38.709 C8.15,39.083 8.601,39.44 9.066,39.779 C9.133,39.828 9.201,39.875 9.269,39.923 C9.752,40.267 10.248,40.594 10.759,40.9 C10.793,40.92 10.827,40.939 10.861,40.959 C12.498,41.925 14.27,42.683 16.142,43.201 C16.161,43.206 16.179,43.212 16.198,43.217 C16.791,43.379 17.395,43.517 18.007,43.629 C18.061,43.639 18.114,43.648 18.168,43.658 C18.758,43.762 19.355,43.845 19.96,43.901 C20.026,43.907 20.093,43.911 20.159,43.916 C20.766,43.968 21.379,44 22,44 C22.621,44 23.234,43.968 23.841,43.917 C23.906,43.912 23.972,43.908 24.038,43.902 C24.644,43.846 25.241,43.763 25.832,43.659 C25.883,43.65 25.934,43.641 25.986,43.631 C26.601,43.518 27.206,43.381 27.802,43.217 C27.815,43.213 27.829,43.209 27.842,43.206 C29.718,42.689 31.493,41.93 33.134,40.963 C33.165,40.945 33.196,40.928 33.226,40.91 C33.74,40.604 34.238,40.276 34.724,39.93 C34.789,39.884 34.854,39.838 34.919,39.791 C35.386,39.451 35.838,39.093 36.276,38.718 C36.311,38.688 36.35,38.662 36.385,38.632 L37.511,37.658 L37.461,37.633 C41.495,33.643 44,28.109 44,22 C44,9.869 34.131,0 22,0 L22,0 Z M35.542,36.675 L34.888,36.348 L34.881,36.356 C34.45,36.158 33.589,35.782 32.484,35.398 C31.389,35.052 30.382,34.784 29.406,34.579 L28.443,34.377 C28.069,34.309 27.79,34.266 27.661,34.246 C27.573,33.959 27.232,32.791 27.105,31.468 C26.983,30.17 27.133,29.347 27.177,29.143 C27.384,29.026 28.138,28.575 28.439,28.041 L28.494,27.929 C28.768,27.261 28.966,24.431 28.998,23.938 L30.189,23.361 L30.982,19.958 L31.008,18.379 L30.215,17.478 C30.292,17.106 30.643,15.299 30.643,13.358 C30.643,11.632 30.325,10.028 30.188,9.419 L30.126,9.139 L29.924,8.935 C29.327,8.331 27.77,6.848 26.195,6.135 C24.261,5.26 22.334,5.249 22.314,5.249 C22.303,5.249 22.187,5.25 22.002,5.261 C21.815,5.25 21.7,5.249 21.685,5.249 C21.665,5.249 19.742,5.259 17.807,6.135 C16.233,6.848 14.675,8.33 14.078,8.935 L13.876,9.139 L13.814,9.419 C13.677,10.028 13.359,11.632 13.359,13.358 C13.359,15.283 13.704,17.076 13.787,17.478 L12.994,18.379 L12.994,19.731 L13.813,23.361 L15.004,23.938 C15.036,24.441 15.232,27.263 15.525,27.961 L15.578,28.068 C15.863,28.57 16.625,29.027 16.824,29.142 C16.871,29.357 17.018,30.178 16.898,31.464 C16.771,32.782 16.433,33.945 16.34,34.246 C16.201,34.267 15.919,34.312 15.531,34.382 L14.594,34.578 C13.616,34.784 12.602,35.054 11.467,35.414 C10.28,35.827 9.36,36.242 8.989,36.415 L8.978,36.406 L8.447,36.663 C4.494,33.009 2,27.797 2,22 C2,10.972 10.972,2 22,2 C33.028,2 42,10.972 42,22 C42,27.802 39.501,33.019 35.542,36.675 L35.542,36.675 Z" id="Shape" fill="#000000"></path>
    </g>
</svg>