<?xml version="1.0" encoding="UTF-8"?>
<!DOCTYPE svg PUBLIC "-//W3C//DTD SVG 1.0//EN" "http://www.w3.org/TR/2001/REC-SVG-20010904/DTD/svg10.dtd">
<!-- Creator: CorelDRAW X7 -->
<svg xmlns="http://www.w3.org/2000/svg" xml:space="preserve" width="300px" height="56px" version="1.0" shape-rendering="geometricPrecision" text-rendering="geometricPrecision" image-rendering="optimizeQuality" fill-rule="evenodd" clip-rule="evenodd"
viewBox="0 0 300000 55998"
 xmlns:xlink="http://www.w3.org/1999/xlink">
 <g id="Layer_x0020_1">
  <metadata id="CorelCorpID_0Corel-Layer"/>
  <g id="_1385342352">
   <path fill="#e6e6e6" d="M257504 13659c0,-537 -436,-973 -973,-973 -539,0 -975,436 -975,973 0,538 436,975 975,975 537,0 973,-437 973,-975zm12984 3246c0,-537 -435,-973 -973,-973 -538,0 -974,436 -974,973 0,539 436,975 974,975 538,0 973,-436 973,-975zm-3246 0c0,-537 -436,-973 -973,-973 -538,0 -975,436 -975,973 0,539 437,975 975,975 537,0 973,-436 973,-975zm-3246 0c0,-537 -435,-973 -974,-973 -537,0 -973,436 -973,973 0,539 436,975 973,975 539,0 974,-436 974,-975zm-12985 0c0,-537 -435,-973 -973,-973 -538,0 -974,436 -974,973 0,539 436,975 974,975 538,0 973,-436 973,-975zm9739 0c0,-537 -436,-973 -974,-973 -537,0 -973,436 -973,973 0,539 436,975 973,975 538,0 974,-436 974,-975zm-3246 0c0,-537 -436,-973 -973,-973 -539,0 -975,436 -975,973 0,539 436,975 975,975 537,0 973,-436 973,-975zm-3246 0c0,-537 -437,-973 -974,-973 -538,0 -973,436 -973,973 0,539 435,975 973,975 537,0 974,-436 974,-975zm12984 -3246c0,-537 -436,-973 -973,-973 -538,0 -975,436 -975,973 0,538 437,975 975,975 537,0 973,-437 973,-975zm0 6492c0,-538 -436,-973 -973,-973 -538,0 -975,435 -975,973 0,538 437,974 975,974 537,0 973,-436 973,-974zm-12984 -6492c0,-537 -437,-973 -974,-973 -538,0 -973,436 -973,973 0,538 435,975 973,975 537,0 974,-437 974,-975zm0 6492c0,-538 -437,-973 -974,-973 -538,0 -973,435 -973,973 0,538 435,974 973,974 537,0 974,-436 974,-974zm9738 -6492c0,-537 -435,-973 -974,-973 -537,0 -973,436 -973,973 0,538 436,975 973,975 539,0 974,-437 974,-975zm0 6492c0,-538 -435,-973 -974,-973 -537,0 -973,435 -973,973 0,538 436,974 973,974 539,0 974,-436 974,-974zm-3246 0c0,-538 -436,-973 -974,-973 -537,0 -973,435 -973,973 0,538 436,974 973,974 538,0 974,-436 974,-974zm0 3247c0,-538 -436,-974 -974,-974 -537,0 -973,436 -973,974 0,537 436,973 973,973 538,0 974,-436 974,-973zm0 3246c0,-538 -436,-974 -974,-974 -537,0 -973,436 -973,974 0,538 436,974 973,974 538,0 974,-436 974,-974zm0 -12985c0,-537 -436,-973 -974,-973 -537,0 -973,436 -973,973 0,538 436,975 973,975 538,0 974,-437 974,-975zm-3246 6492c0,-538 -436,-973 -973,-973 -539,0 -975,435 -975,973 0,538 436,974 975,974 537,0 973,-436 973,-974zm0 3247c0,-538 -436,-974 -973,-974 -539,0 -975,436 -975,974 0,537 436,973 975,973 537,0 973,-436 973,-973zm6492 0c0,-538 -435,-974 -974,-974 -537,0 -973,436 -973,974 0,537 436,973 973,973 539,0 974,-436 974,-973z"/>
   <path fill="#e6e6e6" fill-rule="nonzero" d="M18774 208l0 39572c0,10678 -6276,16011 -18851,16011l0 -5837c7773,0 11660,-3383 11660,-10174l0 -39572 7191 0zm73252 0l0 5837 -33297 43909 32528 0 0 5837 -41203 0 0 -5837 34357 -43909 -33575 0 0 -5837 41190 0zm67230 0l0 5837c-12112,0 -24223,0 -36335,0l0 -5837 36335 0zm0 24488l0 5837c-11661,0 -24674,0 -36335,0l0 -5837c11661,0 24674,0 36335,0zm584 25258l0 5837 -36919 0 0 -5837c12306,0 24612,0 36919,0zm79951 -49746l-23587 55583 -7972 0 -23705 -55583 7588 0 20363 48114 19858 -48114 7455 0zm12490 55583l-7468 0 9901 -23321 7116 0 -9549 23321zm13123 -48499l3007 -7084 7960 0 23706 55583 -7960 0 -7190 -17484 -18385 0 1976 -5837 3621 0 10374 0 -10374 -25178 -6735 0z"/>
  </g>
 </g>
</svg>
