<?xml version="1.0" encoding="UTF-8"?>
<!DOCTYPE svg PUBLIC "-//W3C//DTD SVG 1.1//EN" "http://www.w3.org/Graphics/SVG/1.1/DTD/svg11.dtd">
<!-- Creator: CorelDRAW X7 -->
<svg xmlns="http://www.w3.org/2000/svg" xml:space="preserve" width="192px" height="30px" version="1.1" style="shape-rendering:geometricPrecision; text-rendering:geometricPrecision; image-rendering:optimizeQuality; fill-rule:evenodd; clip-rule:evenodd"
viewBox="0 0 257784 40179"
 xmlns:xlink="http://www.w3.org/1999/xlink">
 <defs>
  <style type="text/css">
   <![CDATA[
    .fil0 {fill:white}
    .fil1 {fill:white;fill-rule:nonzero}
   ]]>
  </style>
 </defs>
 <g id="Layer_x0020_1">
  <metadata id="CorelCorpID_0Corel-Layer"/>
  <g id="_1385342352">
   <path class="fil0" d="M186206 9724c0,-390 -317,-704 -706,-704 -389,0 -704,314 -704,704 0,387 315,705 704,705 389,0 706,-318 706,-705zm-172578 -9724l0 28606c0,7719 -4537,11573 -13628,11573l0 -4219c5620,0 8430,-2447 8430,-7354l0 -28606 5198 0 0 0zm218578 37760c0,729 -279,1318 -836,1761 -558,436 -1243,658 -2058,658l-4478 0 0 -9376 4831 0c419,0 799,119 1133,359 337,241 585,538 756,897 166,358 250,737 250,1137 0,472 -119,902 -361,1304 -240,400 -568,690 -985,875 541,163 966,449 1279,870 310,422 469,927 469,1515zm-1522 -277c0,-391 -122,-731 -367,-1020 -247,-286 -549,-430 -918,-430l-3087 0 0 2861 3000 0c385,0 709,-136 975,-414 264,-277 397,-609 397,-997zm-1574 -5394l-2798 0 0 2759 2720 0c367,0 674,-131 923,-391 248,-259 374,-588 374,-984 0,-405 -117,-734 -344,-996 -233,-260 -522,-388 -875,-388zm6446 6780l4951 0 0 1310 -6425 0 0 -9376 6310 0 0 1311 -4836 0 0 2663 4184 0 0 1230 -4184 0 0 2862zm13736 -8066l0 1311 -3111 0 0 8065 -1481 0 0 -8065 -3128 0 0 -1311 7720 0zm1326 9376l-1588 0 3780 -9376 1212 0 3762 9376 -1571 0 -998 -2547 -3618 0 -979 2547zm4307 -3645l-1513 -4079 -1551 4079 3064 0zm-188344 -36534l0 4219 -24069 31741 23514 0 0 4219 -29786 0 0 -4219 24838 -31741 -24273 0 0 -4219 29776 0 0 0zm48600 0l0 4219c-8757,0 -17511,0 -26266,0l0 -4219 26266 0zm0 17702l0 4219c-8429,0 -17835,0 -26266,0l0 -4219c8431,0 17837,0 26266,0zm423 18258l0 4219 -26689 0 0 -4219c8896,0 17792,0 26689,0zm57797 -35960l-17052 40179 -5763 0 -17136 -40179 5486 0 14720 34780 14354 -34780 5391 0 0 0zm9027 40179l-5397 0 7158 -16858 5144 0 -6905 16858zm9487 -35059l2173 -5120 5755 0 17137 40179 -5754 0 -5197 -12639 -13290 0 1428 -4219 2616 0 7502 0 -7502 -18201 -4868 0 0 0zm3676 6951c0,-389 -313,-704 -703,-704 -389,0 -705,315 -705,704 0,389 316,702 705,702 390,0 703,-313 703,-702zm-2348 0c0,-389 -314,-704 -702,-704 -389,0 -704,315 -704,704 0,389 315,702 704,702 388,0 702,-313 702,-702zm-2346 0c0,-389 -313,-704 -702,-704 -389,0 -705,315 -705,704 0,389 316,702 705,702 389,0 702,-313 702,-702zm-9385 0c0,-389 -316,-704 -705,-704 -386,0 -702,315 -702,704 0,389 316,702 702,702 389,0 705,-313 705,-702zm7038 0c0,-389 -313,-704 -702,-704 -389,0 -706,315 -706,704 0,389 317,702 706,702 389,0 702,-313 702,-702zm-2344 0c0,-389 -317,-704 -706,-704 -389,0 -704,315 -704,704 0,389 315,702 704,702 389,0 706,-313 706,-702zm-2348 0c0,-389 -314,-704 -704,-704 -389,0 -702,315 -702,704 0,389 313,702 702,702 390,0 704,-313 704,-702zm9385 -2347c0,-390 -314,-704 -702,-704 -389,0 -704,314 -704,704 0,387 315,705 704,705 388,0 702,-318 702,-705zm0 4691c0,-389 -314,-702 -702,-702 -389,0 -704,313 -704,702 0,389 315,706 704,706 388,0 702,-317 702,-706zm-9385 -4691c0,-390 -314,-704 -704,-704 -389,0 -702,314 -702,704 0,387 313,705 702,705 390,0 704,-318 704,-705zm0 4691c0,-389 -314,-702 -704,-702 -389,0 -702,313 -702,702 0,389 313,706 702,706 390,0 704,-317 704,-706zm7039 -4691c0,-390 -313,-704 -702,-704 -389,0 -705,314 -705,704 0,387 316,705 705,705 389,0 702,-318 702,-705zm0 4691c0,-389 -313,-702 -702,-702 -389,0 -705,313 -705,702 0,389 316,706 705,706 389,0 702,-317 702,-706zm-2347 0c0,-389 -313,-702 -702,-702 -389,0 -706,313 -706,702 0,389 317,706 706,706 389,0 702,-317 702,-706zm0 2348c0,-389 -313,-703 -702,-703 -389,0 -706,314 -706,703 0,389 317,702 706,702 389,0 702,-313 702,-702zm0 2346c0,-390 -313,-704 -702,-704 -389,0 -706,314 -706,704 0,389 317,705 706,705 389,0 702,-316 702,-705zm0 -9385c0,-390 -313,-704 -702,-704 -389,0 -706,314 -706,704 0,387 317,705 706,705 389,0 702,-318 702,-705zm-2344 4691c0,-389 -317,-702 -706,-702 -389,0 -704,313 -704,702 0,389 315,706 704,706 389,0 706,-317 706,-706zm0 2348c0,-389 -317,-703 -706,-703 -389,0 -704,314 -704,703 0,389 315,702 704,702 389,0 706,-313 706,-702zm4691 0c0,-389 -313,-703 -702,-703 -389,0 -705,314 -705,703 0,389 316,702 705,702 389,0 702,-313 702,-702z"/>
   <path class="fil1" d="M13628 0l0 28606c0,7719 -4537,11573 -13628,11573l0 -4219c5620,0 8430,-2447 8430,-7354l0 -28606 5198 0 0 0zm218578 37760c0,729 -279,1318 -836,1761 -558,436 -1243,658 -2058,658l-4478 0 0 -9376 4831 0c419,0 799,119 1133,359 337,241 585,538 756,897 166,358 250,737 250,1137 0,472 -119,902 -361,1304 -240,400 -568,690 -985,875 541,163 966,449 1279,870 310,422 469,927 469,1515zm-1522 -277c0,-391 -122,-731 -367,-1020 -247,-286 -549,-430 -918,-430l-3087 0 0 2861 3000 0c385,0 709,-136 975,-414 264,-277 397,-609 397,-997zm-1574 -5394l-2798 0 0 2759 2720 0c367,0 674,-131 923,-391 248,-259 374,-588 374,-984 0,-405 -117,-734 -344,-996 -233,-260 -522,-388 -875,-388zm6446 6780l4951 0 0 1310 -6425 0 0 -9376 6310 0 0 1311 -4836 0 0 2663 4184 0 0 1230 -4184 0 0 2862zm13736 -8066l0 1311 -3111 0 0 8065 -1481 0 0 -8065 -3128 0 0 -1311 7720 0zm1326 9376l-1588 0 3780 -9376 1212 0 3762 9376 -1571 0 -998 -2547 -3618 0 -979 2547zm4307 -3645l-1513 -4079 -1551 4079 3064 0zm-188344 -36534l0 4219 -24069 31741 23514 0 0 4219 -29786 0 0 -4219 24838 -31741 -24273 0 0 -4219 29776 0 0 0zm48600 0l0 4219c-8757,0 -17511,0 -26266,0l0 -4219 26266 0zm0 17702l0 4219c-8429,0 -17835,0 -26266,0l0 -4219c8431,0 17837,0 26266,0zm423 18258l0 4219 -26689 0 0 -4219c8896,0 17792,0 26689,0zm57797 -35960l-17052 40179 -5763 0 -17136 -40179 5486 0 14720 34780 14354 -34780 5391 0 0 0zm9027 40179l-5397 0 7158 -16858 5144 0 -6905 16858zm9487 -35059l2173 -5120 5755 0 17137 40179 -5754 0 -5197 -12639 -13290 0 1428 -4219 2616 0 7502 0 -7502 -18201 -4868 0 0 0z"/>
  </g>
 </g>
</svg>
