<?xml version="1.0" encoding="UTF-8"?>
<!DOCTYPE svg PUBLIC "-//W3C//DTD SVG 1.1//EN" "http://www.w3.org/Graphics/SVG/1.1/DTD/svg11.dtd">
<!-- Creator: CorelDRAW X7 -->
<svg xmlns="http://www.w3.org/2000/svg" xml:space="preserve" width="78px" height="100px" version="1.1" style="shape-rendering:geometricPrecision; text-rendering:geometricPrecision; image-rendering:optimizeQuality; fill-rule:evenodd; clip-rule:evenodd"
viewBox="0 0 1362118 1740346"
 xmlns:xlink="http://www.w3.org/1999/xlink">
 <defs>
  <style type="text/css">
   <![CDATA[
    .fil0 {fill:#666666;fill-rule:nonzero}
   ]]>
  </style>
 </defs>
 <g id="Layer_x0020_1">
  <metadata id="CorelCorpID_0Corel-Layer"/>
  <g>
   <path class="fil0" d="M50654 0l1260810 0c13919,0 26581,5705 35758,14870l26 26c9164,9177 14870,21839 14870,35758l0 1639038c0,13919 -5706,26581 -14870,35758l-26 26c-9177,9164 -21839,14870 -35758,14870l-1260810 0c-13919,0 -26581,-5706 -35758,-14870l-26 -26c-9165,-9177 -14870,-21839 -14870,-35758l0 -1639038c0,-13919 5705,-26581 14870,-35758l26 -26c9177,-9165 21839,-14870 35758,-14870zm260295 1208325l0 -111736 10875 0 0 111736 -10875 0zm157131 0l-10722 0 0 -45861c0,-9560 -1493,-16599 -4487,-21118 -2999,-4518 -7543,-6777 -13632,-6777 -3152,0 -6120,580 -8909,1735 -2782,1156 -5354,2783 -7722,4883 -2361,2106 -4435,4601 -6222,7486 -1787,2891 -3153,6069 -4098,9534l0 50118 -10715 0 0 -45861c0,-9771 -1474,-16861 -4416,-21277 -2942,-4410 -7461,-6618 -13549,-6618 -6203,0 -11717,2157 -16549,6464 -4837,4308 -8303,9982 -10402,17021l0 50271 -10716 0 0 -82110 9771 0 0 18597c3357,-6299 7773,-11214 13236,-14736 5463,-3517 11507,-5278 18125,-5278 6931,0 12503,1946 16702,5833 4206,3886 6726,8979 7569,15285 7665,-14079 18278,-21118 31833,-21118 4519,0 8380,842 11583,2521 3204,1684 5776,4071 7723,7173 1940,3102 3363,6829 4256,11188 894,4358 1341,9222 1341,14576l0 48069zm42389 1576c-4200,0 -8035,-657 -11501,-1972 -3465,-1314 -6439,-3120 -8902,-5437 -2470,-2310 -4391,-4991 -5757,-8035 -1366,-3044 -2049,-6254 -2049,-9611 0,-3785 843,-7225 2521,-10326 1685,-3102 4046,-5750 7097,-7959 3044,-2208 6695,-3912 10952,-5118 4256,-1213 8953,-1812 14104,-1812 4097,0 8296,363 12604,1097 4308,741 8143,1787 11507,3153l0 -7403c0,-7250 -2074,-13007 -6223,-17257 -4154,-4257 -9745,-6382 -16784,-6382 -4417,0 -8801,836 -13160,2521 -4359,1678 -8801,4097 -13319,7250l-3785 -7097c5361,-3567 10563,-6248 15604,-8035 5042,-1787 10301,-2680 15764,-2680 9981,0 17908,2891 23792,8666 5884,5783 8826,13766 8826,23958l0 37035c0,2942 1264,4410 3785,4410l0 9458c-843,102 -1628,185 -2362,236 -740,51 -1372,77 -1895,77 -2100,0 -4021,-626 -5750,-1889 -1736,-1258 -2706,-3153 -2917,-5674l-313 -6458c-3573,4831 -8277,8583 -14104,11264 -5833,2680 -11743,4020 -17735,4020zm2680 -8194c4729,0 9433,-1028 14104,-3076 4678,-2049 8380,-4857 11111,-8431 741,-944 1366,-1965 1896,-3070 523,-1104 785,-2131 785,-3076l0 -13395c-3574,-1366 -7301,-2419 -11188,-3153 -3886,-734 -7671,-1104 -11347,-1104 -7671,0 -13894,1551 -18674,4652 -4780,3102 -7173,7378 -7173,12841 0,2208 421,4365 1264,6465 836,2099 2125,3989 3861,5673 1729,1679 3861,3045 6382,4098 2521,1053 5514,1576 8979,1576zm93611 7722c-5674,0 -10849,-1181 -15521,-3548 -4678,-2362 -8724,-5489 -12138,-9375 -3415,-3887 -6063,-8354 -7959,-13396 -1889,-5042 -2833,-10243 -2833,-15604 0,-5674 919,-11111 2757,-16312 1838,-5195 4435,-9739 7798,-13632 3364,-3887 7384,-6982 12056,-9299 4678,-2310 9854,-3465 15527,-3465 7040,0 13134,1761 18278,5278 5151,3522 9560,7958 13243,13319l0 -17180 9611 0 0 82423c0,5673 -1078,10690 -3229,15055 -2157,4359 -5048,8009 -8673,10951 -3625,2942 -7901,5151 -12841,6618 -4939,1475 -10141,2209 -15604,2209 -9349,0 -16912,-1685 -22694,-5042 -5776,-3363 -10454,-7882 -14028,-13555l6625 -5202c3255,5253 7562,9114 12923,11583 5355,2470 11079,3702 17174,3702 3995,0 7805,-549 11424,-1653 3625,-1104 6778,-2731 9458,-4888 2681,-2151 4806,-4883 6382,-8195 1576,-3306 2368,-7167 2368,-11583l0 -16230c-3261,5253 -7595,9401 -13007,12452 -5405,3044 -11111,4569 -17097,4569zm2993 -8986c3153,0 6254,-574 9299,-1729 3050,-1155 5807,-2706 8277,-4653 2470,-1940 4544,-4122 6223,-6541 1678,-2413 2782,-4882 3312,-7403l0 -25375c-1155,-2942 -2757,-5674 -4812,-8194 -2049,-2521 -4334,-4678 -6854,-6465 -2521,-1781 -5227,-3204 -8112,-4251 -2891,-1053 -5808,-1576 -8750,-1576 -4620,0 -8717,970 -12291,2916 -3574,1941 -6618,4487 -9139,7640 -2521,3152 -4442,6726 -5757,10721 -1308,3989 -1966,8035 -1966,12132 0,4410 785,8616 2362,12605 1576,3995 3727,7486 6465,10485 2731,2994 5961,5355 9688,7091 3733,1729 7747,2597 12055,2597zm95187 9458c-5986,0 -11506,-1129 -16548,-3388 -5042,-2260 -9401,-5361 -13083,-9299 -3676,-3938 -6535,-8482 -8584,-13632 -2049,-5150 -3076,-10664 -3076,-16548 0,-5776 1027,-11213 3076,-16313 2049,-5092 4908,-9560 8584,-13395 3682,-3836 8016,-6880 13006,-9139 4991,-2260 10479,-3389 16466,-3389 5992,0 11481,1129 16472,3389 4990,2259 9273,5335 12840,9222 3574,3886 6357,8347 8354,13395 1998,5042 2993,10397 2993,16070 0,843 -25,1685 -76,2527 -51,836 -134,1417 -236,1730l-70132 0c313,4416 1340,8488 3076,12215 1730,3727 3938,6963 6618,9694 2681,2732 5776,4857 9299,6382 3516,1519 7275,2285 11264,2285 2732,0 5412,-370 8041,-1104 2623,-734 5042,-1736 7250,-2993 2202,-1264 4174,-2815 5910,-4653 1729,-1838 3070,-3861 4014,-6063l9299 2521c-1258,3044 -3044,5801 -5355,8271 -2316,2470 -4990,4627 -8041,6465 -3044,1838 -6408,3255 -10084,4251 -3676,1002 -7460,1499 -11347,1499zm30257 -46965c-312,-4410 -1340,-8430 -3069,-12055 -1736,-3625 -3945,-6752 -6625,-9375 -2674,-2630 -5801,-4678 -9375,-6146 -3574,-1474 -7352,-2208 -11347,-2208 -3989,0 -7773,734 -11347,2208 -3568,1468 -6695,3516 -9376,6146 -2680,2623 -4831,5775 -6464,9451 -1628,3683 -2598,7672 -2911,11979l60514 0zm78639 -46020l0 91409 -10875 0 0 -111895 8514 0 74069 93138 0 -92979 10875 0 0 111736 -9458 0 -73125 -91409zm142152 92985c-5993,0 -11481,-1129 -16472,-3388 -4990,-2260 -9298,-5329 -12923,-9222 -3625,-3887 -6433,-8405 -8431,-13549 -1997,-5151 -2993,-10562 -2993,-16236 0,-5776 1027,-11239 3076,-16389 2049,-5150 4882,-9662 8507,-13555 3625,-3887 7933,-6982 12924,-9299 4990,-2310 10428,-3465 16312,-3465 5884,0 11322,1155 16312,3465 4991,2317 9299,5412 12924,9299 3625,3893 6458,8405 8507,13555 2049,5150 3076,10613 3076,16389 0,5674 -1027,11085 -3076,16236 -2049,5144 -4882,9662 -8507,13549 -3625,3893 -7933,6962 -12924,9222 -4990,2259 -10428,3388 -16312,3388zm-29785 -42236c0,4621 760,8903 2285,12847 1519,3938 3625,7403 6299,10397 2681,2993 5833,5335 9458,7013 3625,1685 7486,2521 11584,2521 4097,0 7958,-868 11583,-2597 3625,-1736 6803,-4097 9535,-7091 2731,-2999 4888,-6490 6464,-10485 1577,-3989 2362,-8297 2362,-12917 0,-4519 -785,-8801 -2362,-12847 -1576,-4046 -3733,-7563 -6464,-10556 -2732,-2999 -5885,-5361 -9459,-7097 -3567,-1729 -7403,-2597 -11500,-2597 -4097,0 -7958,868 -11583,2597 -3625,1736 -6778,4123 -9458,7174 -2681,3044 -4806,6592 -6382,10638 -1577,4047 -2362,8380 -2362,13000zm124972 36722c-632,313 -1551,734 -2763,1258 -1206,529 -2598,1053 -4174,1576 -1576,523 -3363,1002 -5361,1417 -1991,421 -4097,632 -6299,632 -2316,0 -4518,-313 -6618,-945 -2106,-632 -3944,-1602 -5520,-2917 -1577,-1314 -2834,-2967 -3778,-4965 -951,-1991 -1424,-4308 -1424,-6931l0 -58784 -11347 0 0 -8513 11347 0 0 -27737 10722 0 0 27737 18910 0 0 8513 -18910 0 0 55791c204,3045 1257,5278 3146,6695 1896,1417 4155,2125 6778,2125 3051,0 5725,-498 8041,-1493 2311,-1002 3778,-1711 4410,-2132l2840 8673zm-853666 271987l70209 -167846 13472 0 70214 167846 -17729 0 -21750 -52479 -75409 0 -21514 52479 -17493 0zm77063 -148457l-34514 82972 68083 0 -33569 -82972zm124116 148457l-50117 -123165 16784 0 42313 108270 42555 -108270 15604 0 -50118 123165 -17021 0zm115597 2362c-6305,0 -12055,-983 -17257,-2955 -5201,-1966 -9656,-4684 -13357,-8156 -3702,-3466 -6580,-7486 -8629,-12056 -2048,-4569 -3076,-9375 -3076,-14417 0,-5673 1264,-10836 3785,-15489 2521,-4646 6069,-8628 10639,-11934 4569,-3312 10045,-5871 16427,-7684 6382,-1812 13440,-2719 21162,-2719 6146,0 12445,549 18910,1653 6459,1104 12215,2681 17257,4729l0 -11111c0,-10875 -3114,-19503 -9337,-25885 -6229,-6382 -14621,-9573 -25177,-9573 -6618,0 -13198,1257 -19739,3785 -6542,2520 -13198,6145 -19976,10868l-5673 -10632c8035,-5361 15840,-9382 23402,-12062 7563,-2674 15445,-4015 23639,-4015 14972,0 26875,4334 35701,13001 8820,8666 13236,20645 13236,35930l0 55555c0,4417 1889,6618 5674,6618l0 14187c-1264,160 -2444,275 -3549,358 -1104,76 -2048,115 -2833,115 -3153,0 -6031,-945 -8629,-2834 -2603,-1895 -4059,-4729 -4378,-8513l-472 -9695c-5354,7250 -12406,12886 -21156,16906 -8743,4021 -17614,6025 -26594,6025zm4021 -12292c7090,0 14142,-1538 21156,-4608 7014,-3076 12566,-7288 16663,-12649 1104,-1417 2049,-2955 2840,-4608 785,-1653 1181,-3191 1181,-4607l0 -20097c-5361,-2049 -10951,-3625 -16785,-4729 -5833,-1104 -11506,-1653 -17020,-1653 -11507,0 -20844,2323 -28011,6975 -7173,4646 -10760,11067 -10760,19261 0,3312 632,6542 1889,9694 1264,3153 3198,5993 5795,8514 2598,2521 5795,4569 9573,6146 3785,1576 8277,2361 13479,2361zm90541 9930l0 -123165 16076 0 0 123165 -16076 0zm0 -148929l0 -23646 16076 0 0 23646 -16076 0zm48931 -23646l16069 0 0 144680c0,4569 1264,8156 3785,10753 2521,2604 6063,3906 10639,3906 1729,0 3778,-236 6145,-708 2362,-479 4570,-1104 6619,-1896l2833 13000c-2993,1264 -6656,2292 -10990,3077 -4333,791 -8079,1180 -11232,1180 -7403,0 -13236,-2087 -17493,-6261 -4250,-4180 -6375,-10051 -6375,-17614l0 -150117zm91957 174937c-6305,0 -12055,-983 -17256,-2955 -5202,-1966 -9656,-4684 -13358,-8156 -3701,-3466 -6580,-7486 -8628,-12056 -2049,-4569 -3076,-9375 -3076,-14417 0,-5673 1263,-10836 3784,-15489 2521,-4646 6069,-8628 10639,-11934 4569,-3312 10045,-5871 16427,-7684 6382,-1812 13440,-2719 21163,-2719 6145,0 12444,549 18909,1653 6459,1104 12216,2681 17257,4729l0 -11111c0,-10875 -3114,-19503 -9337,-25885 -6228,-6382 -14621,-9573 -25176,-9573 -6619,0 -13198,1257 -19740,3785 -6541,2520 -13198,6145 -19975,10868l-5674 -10632c8035,-5361 15840,-9382 23403,-12062 7562,-2674 15444,-4015 23638,-4015 14973,0 26875,4334 35701,13001 8820,8666 13236,20645 13236,35930l0 55555c0,4417 1890,6618 5674,6618l0 14187c-1264,160 -2444,275 -3548,358 -1104,76 -2049,115 -2834,115 -3153,0 -6031,-945 -8628,-2834 -2604,-1895 -4059,-4729 -4378,-8513l-473 -9695c-5354,7250 -12406,12886 -21156,16906 -8743,4021 -17614,6025 -26594,6025zm4021 -12292c7090,0 14142,-1538 21156,-4608 7014,-3076 12566,-7288 16664,-12649 1104,-1417 2048,-2955 2840,-4608 785,-1653 1180,-3191 1180,-4607l0 -20097c-5361,-2049 -10951,-3625 -16784,-4729 -5833,-1104 -11507,-1653 -17021,-1653 -11507,0 -20844,2323 -28011,6975 -7173,4646 -10760,11067 -10760,19261 0,3312 632,6542 1890,9694 1263,3153 3197,5993 5794,8514 2598,2521 5795,4569 9573,6146 3785,1576 8278,2361 13479,2361zm153187 12292c-9618,0 -18521,-2438 -26715,-7327 -8195,-4882 -14577,-11187 -19146,-18910l0 23875 -14424 0 0 -172575 16077 0 0 75180c5514,-8354 12132,-15093 19854,-20212 7722,-5124 16785,-7684 27187,-7684 8514,0 16236,1813 23167,5438 6937,3625 12808,8469 17614,14538 4806,6069 8514,12924 11111,20563 2598,7645 3899,15489 3899,23524 0,8666 -1493,16861 -4492,24583 -2994,7729 -7129,14462 -12407,20218 -5284,5750 -11507,10320 -18680,13709 -7167,3389 -14851,5080 -23045,5080zm-3785 -14181c6778,0 12962,-1379 18559,-4136 5597,-2757 10403,-6464 14417,-11111 4020,-4652 7173,-9930 9458,-15840 2285,-5909 3427,-12017 3427,-18322 0,-6459 -1059,-12688 -3191,-18674 -2125,-5993 -5118,-11309 -8979,-15961 -3862,-4646 -8476,-8348 -13830,-11111 -5361,-2757 -11271,-4136 -17736,-4136 -4882,0 -9451,830 -13708,2483 -4257,1653 -8195,3899 -11820,6739 -3625,2834 -6892,6108 -9809,9809 -2916,3702 -5322,7608 -7211,11705l0 38298c631,4250 2323,8233 5080,11934 2757,3702 6107,6899 10051,9573 3938,2681 8112,4812 12528,6382 4410,1577 8667,2368 12764,2368zm87465 -160756l16076 0 0 144680c0,4569 1264,8156 3785,10753 2521,2604 6063,3906 10639,3906 1729,0 3778,-236 6145,-708 2362,-479 4570,-1104 6618,-1896l2834 13000c-2993,1264 -6656,2292 -10990,3077 -4333,791 -8079,1180 -11232,1180 -7403,0 -13236,-2087 -17493,-6261 -4250,-4180 -6382,-10051 -6382,-17614l0 -150117zm113242 174937c-8986,0 -17257,-1691 -24826,-5080 -7563,-3389 -14104,-8035 -19618,-13945 -5521,-5916 -9809,-12732 -12885,-20454 -3077,-7722 -4608,-15993 -4608,-24820 0,-8666 1531,-16823 4608,-24468 3076,-7646 7364,-14340 12885,-20091 5514,-5756 12017,-10326 19503,-13714 7486,-3389 15719,-5081 24705,-5081 8979,0 17212,1692 24698,5081 7486,3388 13913,7996 19267,13829 5361,5833 9535,12528 12534,20097 2994,7563 4487,15598 4487,24111 0,1264 -38,2521 -115,3785 -77,1257 -198,2125 -357,2597l-105194 0c472,6618 2010,12726 4607,18323 2598,5597 5910,10441 9931,14538 4014,4097 8666,7288 13944,9573 5278,2285 10913,3427 16906,3427 4097,0 8118,-549 12056,-1653 3937,-1104 7562,-2604 10875,-4493 3305,-1889 6260,-4212 8864,-6975 2598,-2757 4608,-5789 6025,-9101l13951 3785c-1889,4569 -4570,8705 -8042,12412 -3465,3702 -7486,6931 -12055,9688 -4570,2764 -9611,4889 -15125,6389 -5521,1493 -11194,2240 -17021,2240zm45388 -70445c-472,-6618 -2010,-12649 -4614,-18086 -2597,-5437 -5909,-10122 -9924,-14066 -4020,-3938 -8711,-7014 -14066,-9215 -5360,-2209 -11034,-3313 -17020,-3313 -5993,0 -11667,1104 -17021,3313 -5361,2201 -10052,5277 -14066,9215 -4021,3944 -7250,8667 -9694,14187 -2444,5514 -3899,11501 -4372,17965l90777 0zm-371801 -1042157l504 -504 403 -377c10517,-10843 15782,-24883 15782,-38917 0,-14194 -5418,-28406 -16223,-39332l-153 -160 -281 -281 0 7c-11130,-11003 -25732,-16523 -40334,-16523 -14627,0 -29236,5501 -40334,16485l-542 491 -9599 8590c-3255,2910 -8162,2827 -11309,-76l-9739 -8705 -300 -288 -25 26c-11130,-11003 -25732,-16523 -40334,-16523 -14602,0 -29204,5520 -40334,16523l-160 153 -306 306 -402 377c-10518,10849 -15783,24890 -15783,38924 0,14212 5386,28425 16172,39319l13 -13 498 498 402 434 95997 95819 96400 -96240 -13 -13zm-130390 440388c2547,3880 1474,9101 -2406,11647 -3880,2547 -9101,1475 -11647,-2406 -10939,-16586 -19554,-34839 -25356,-54253 -5622,-18814 -8653,-38764 -8653,-59371 0,-56825 22924,-108309 59971,-145573 37060,-37284 88256,-60348 144775,-60348 56525,0 107728,23064 144788,60348 37054,37264 59978,88748 59978,145573 0,56825 -22924,108302 -59978,145566 -37060,37284 -88263,60348 -144788,60348 -12068,0 -23939,-1066 -35496,-3095 -11762,-2074 -23250,-5182 -34323,-9222 -4365,-1583 -6624,-6420 -5042,-10786 1583,-4365 6421,-6624 10786,-5041 10064,3669 20595,6516 31476,8430 10556,1857 21456,2827 32599,2827 51898,0 98876,-21150 132854,-55331 33990,-34189 55025,-81466 55025,-133696 0,-52237 -21035,-99515 -55025,-133703 -33978,-34188 -80962,-55332 -132854,-55332 -51885,0 -98863,21144 -132841,55332 -33984,34188 -55019,81466 -55019,133703 0,18999 2776,37328 7927,54559 5348,17895 13249,34654 23249,49824zm67994 -208773c-2547,-3881 -1475,-9101 2406,-11647 3880,-2547 9100,-1475 11647,2406 10932,16580 19554,34839 25362,54253 5622,18814 8654,38764 8654,59378 0,56825 -22924,108302 -59972,145566 -37060,37284 -88256,60348 -144775,60348 -56525,0 -107728,-23064 -144788,-60348 -37053,-37264 -59977,-88741 -59977,-145566 0,-56825 22924,-108309 59977,-145573 37060,-37284 88263,-60348 144788,-60348 12069,0 23933,1066 35490,3095 11762,2068 23250,5176 34316,9209 4366,1583 6625,6420 5042,10786 -1583,4365 -6420,6624 -10785,5042 -10052,-3664 -20589,-6510 -31470,-8418 -10556,-1857 -21450,-2828 -32593,-2828 -51892,0 -98876,21144 -132853,55332 -33991,34188 -55026,81466 -55026,133703 0,52230 21035,99507 55026,133696 33977,34181 80955,55331 132853,55331 51892,0 98863,-21150 132841,-55331 33990,-34189 55019,-81466 55019,-133696 0,-19006 -2776,-37335 -7926,-54566 -5355,-17902 -13256,-34661 -23256,-49824zm74835 -220185l-504 504 -20 -13 -12 13 -102354 102176c-3274,3261 -8591,3261 -11871,0l-101958 -101767 -441 -409 -498 -498 13 -12 -13 -19c-14091,-14232 -21137,-32740 -21137,-51209 0,-18259 6893,-36569 20678,-50737l459 -498 300 -300 230 -236c14411,-14257 33320,-21399 52205,-21399 18884,0 37794,7142 52204,21399l-12 13 3899 3491 3989 -3568c14417,-14212 33275,-21335 52102,-21335 18884,0 37794,7142 52205,21399l0 6 32 32 306 313 236 223c14053,14213 21099,32721 21099,51203 0,18265 -6905,36562 -20678,50730l-459 498zm-93400 -90732l-217 191 217 -191zm-21035 8781l-90 -76 90 76zm636008 -284355l-1260810 0c-10830,0 -20691,4435 -27832,11564 -7129,7141 -11564,17002 -11564,27832l0 1639038c0,10830 4435,20690 11564,27832 7141,7128 17002,11564 27832,11564l1260810 0c10830,0 20691,-4436 27832,-11564 7129,-7142 11564,-17002 11564,-27832l0 -1639038c0,-10830 -4435,-20691 -11564,-27832 -7141,-7129 -17002,-11564 -27832,-11564z"/>
  </g>
 </g>
</svg>
