<?xml version="1.0" encoding="UTF-8"?>
<!DOCTYPE svg PUBLIC "-//W3C//DTD SVG 1.0//EN" "http://www.w3.org/TR/2001/REC-SVG-20010904/DTD/svg10.dtd">
<!-- Creator: CorelDRAW X7 -->
<svg xmlns="http://www.w3.org/2000/svg" xml:space="preserve" width="50px" height="50px" version="1.0" shape-rendering="geometricPrecision" text-rendering="geometricPrecision" image-rendering="optimizeQuality" fill-rule="evenodd" clip-rule="evenodd"
viewBox="0 0 25705 25705"
 xmlns:xlink="http://www.w3.org/1999/xlink"
 enable-background="new 0 0 32 32">
 <g id="Layer_x0020_1">
  <metadata id="CorelCorpID_0Corel-Layer"/>
  <rect fill="none" width="25705" height="25705"/>
  <g id="_1146834416">
   <path fill="#30B8C8" d="M18550 13816l-3024 3089 0 0 -1815 1851c-501,512 -1314,512 -1815,0l-1814 -1851 0 0 -3025 -3089c-1503,-1533 -1503,-4021 0,-5555 1504,-1534 3942,-1534 5445,0l302 309 303 -309c1504,-1534 3940,-1534 5443,0 1504,1534 1504,4022 0,5555l0 0zm-620 -4948c-1167,-1197 -3060,-1197 -4227,0l-906 929 -905 -929c-1168,-1197 -3060,-1197 -4227,0 -1168,1196 -1168,3136 0,4333l3019 3095 0 0 1812 1857c166,170 436,170 604,0l2415 -2477 0 0 2415 -2475c1167,-1197 1167,-3137 0,-4333l0 0z"/>
  </g>
 </g>
</svg>
