<?xml version="1.0" encoding="UTF-8"?>
<!DOCTYPE svg PUBLIC "-//W3C//DTD SVG 1.0//EN" "http://www.w3.org/TR/2001/REC-SVG-20010904/DTD/svg10.dtd">
<!-- Creator: CorelDRAW X7 -->
<svg xmlns="http://www.w3.org/2000/svg" xml:space="preserve" width="50px" height="50px" version="1.0" shape-rendering="geometricPrecision" text-rendering="geometricPrecision" image-rendering="optimizeQuality" fill-rule="evenodd" clip-rule="evenodd"
viewBox="0 0 31464 31464"
 xmlns:xlink="http://www.w3.org/1999/xlink"
 enable-background="new 0 0 100 100">
 <g id="Layer_x0020_1">
  <metadata id="CorelCorpID_0Corel-Layer"/>
  <rect fill="none" width="31464" height="31464"/>
  <g id="_981445008">
   <path fill="white" d="M12640 18156c602,602 1578,602 2179,0l2999 -2998c1383,542 3015,255 4131,-862 1504,-1504 1505,-3944 0,-5448 -1504,-1505 -3944,-1505 -5448,0 -284,284 -514,602 -691,941l-6744 0c-181,0 -353,71 -481,199 -128,127 -199,300 -199,480l1 7368c0,4 0,8 0,12 0,10 1,20 1,30 2,17 3,33 5,49 16,149 78,294 192,408l5210 5211c128,127 300,199 481,199 180,0 353,-72 480,-199l5210 -5211c265,-265 265,-695 0,-961 -265,-265 -696,-265 -961,0l-4729 4730 -4531 -4530 0 -6426 5653 0c-67,617 11,1246 240,1831l-2998 2998c-602,602 -602,1578 0,2179zm6722 -8028c360,-361 946,-361 1307,0 361,361 361,946 0,1307 -361,362 -947,362 -1307,0 -361,-360 -361,-946 0,-1307z"/>
  </g>
 </g>
</svg>
