<?xml version="1.0" encoding="UTF-8"?>
<!DOCTYPE svg PUBLIC "-//W3C//DTD SVG 1.1//EN" "http://www.w3.org/Graphics/SVG/1.1/DTD/svg11.dtd">
<!-- Creator: CorelDRAW X7 -->
<svg xmlns="http://www.w3.org/2000/svg" xml:space="preserve" width="120px" height="120px" version="1.1" style="shape-rendering:geometricPrecision; text-rendering:geometricPrecision; image-rendering:optimizeQuality; fill-rule:evenodd; clip-rule:evenodd"
viewBox="0 0 13921386 13920571"
 xmlns:xlink="http://www.w3.org/1999/xlink">
 <defs>
  <style type="text/css">
   <![CDATA[
    .str1 {stroke:black;stroke-width:114998}
    .str0 {stroke:#30B8C8;stroke-width:28681.5}
    .fil3 {fill:none}
    .fil1 {fill:#F0F3F3}
    .fil0 {fill:#E9E9E9}
    .fil2 {fill:#30B8C8}
   ]]>
  </style>
 </defs>
 <g id="Layer_x0020_1">
  <metadata id="CorelCorpID_0Corel-Layer"/>
  <g id="_1647284208">
   <path class="fil0" d="M12186090 2350929c2541232,2890168 2258224,7293249 -632080,9834345 -2890168,2541233 -7293249,2258224 -9834481,-631944l907476 -797915c2100544,2389125 5740100,2623063 8129225,522519 2389126,-2100544 2623063,-5740236 522519,-8129225l907341 -797780z"/>
   <path class="fil1" d="M1735297 11569642c-2541097,-2890168 -2258224,-7293249 632080,-9834481 2890167,-2541097 7293248,-2258088 9834481,632080l-907476 797779c-2100408,-2388989 -5740100,-2622927 -8129226,-522383 -2389125,2100544 -2623063,5740236 -522519,8129225l-907340 797780z"/>
  </g>
  <g id="_1647277392">
   <path class="fil2 str0" d="M7013910 6765972l232307 -535025 327186 0 -559493 535025zm-236248 -535025l405075 0 -219665 533937 -185410 -533937zm-430222 0l367558 0 189760 534073 -557318 -534073zm190032 -337653l150204 276212 -340236 0 190032 -276212zm361984 -29633l-159583 274173 -148844 -274173 308427 0zm258133 305845l-365518 0 170050 -291436 195468 291436zm176575 -305845l-119619 281513 -187993 -281513 307612 0zm239783 305845l-303263 0 115678 -271862 187585 271862z"/>
   <path class="fil3 str1" d="M4429860 8198414l0 28682c0,0 0,5709 0,5709l0 5709 0 0c5709,172360 149388,310331 321749,310331l1643135 0c-5709,74626 39148,387539 -449252,450747l-67830 14545c-80471,0 -143679,63208 -143679,143679 0,80471 63208,143679 143679,143679l2160353 0c80336,0 143544,-63208 143544,-143679 0,-80471 -64839,-115677 -143272,-137019 -83733,-26778 -511644,-28681 -511644,-471952l1643135 0c172361,0 315904,-137971 321613,-310331l0 0 0 -603127 0 0 0 -2648618c0,-201042 -166516,-367693 -367558,-367693l-4326280 0c-206887,0 -367693,160806 -367693,367693l0 2711826c0,0 0,5709 0,5709l0 494110c0,0 0,0 0,0zm2527911 172361c-97599,0 -178070,-80471 -178070,-178206 0,-97598 80471,-178070 178070,-178070 97734,0 178205,80472 178205,178070 0,97735 -80471,178206 -178205,178206zm-2223426 -3384006c0,-34526 28682,-63208 63208,-63208l4320571 0c34391,0 63072,28682 63072,63208l0 2711826c0,34391 -28681,63072 -63072,63072l-4320571 0c-34526,0 -63208,-28681 -63208,-63072l0 -2711826z"/>
  </g>
 </g>
</svg>
