<?xml version="1.0" encoding="UTF-8"?>
<!DOCTYPE svg PUBLIC "-//W3C//DTD SVG 1.1//EN" "http://www.w3.org/Graphics/SVG/1.1/DTD/svg11.dtd">
<!-- Creator: CorelDRAW X7 -->
<svg xmlns="http://www.w3.org/2000/svg" xml:space="preserve" width="50px" height="50px" version="1.1" style="shape-rendering:geometricPrecision; text-rendering:geometricPrecision; image-rendering:optimizeQuality; fill-rule:evenodd; clip-rule:evenodd"
viewBox="0 0 194600 194600"
 xmlns:xlink="http://www.w3.org/1999/xlink">
 <defs>
  <style type="text/css">
   <![CDATA[
    .fil0 {fill:none}
    .fil1 {fill:#666666}
   ]]>
  </style>
 </defs>
 <g id="Layer_x0020_1">
  <metadata id="CorelCorpID_0Corel-Layer"/>
  <rect class="fil0" width="194600" height="194600"/>
  <g id="_1739985136">
   <path class="fil1" d="M118160 102196c-138,6265 -9423,11326 -20860,11326 -11441,0 -20727,-5061 -20865,-11326 -17500,1599 -31207,16309 -31207,34227 0,18980 15390,18934 34374,18934l35396 0c18984,0 34370,46 34370,-18934 0,-17918 -13708,-32628 -31208,-34227z"/>
   <path class="fil1" d="M70345 71131c23,248 41,491 64,740 1659,18768 12636,33267 25935,33267 13473,0 24565,-14880 26004,-33998 198,-1375 299,-2781 299,-4211 0,-1434 -101,-2841 -299,-4211 -1931,-13293 -12834,-23475 -26004,-23475 -13165,0 -24073,10191 -25999,23485 -198,1369 -299,2772 -299,4201 0,579 23,1154 55,1729 50,832 129,1659 244,2473zm9781 -14926c0,0 18172,8835 30394,0 0,0 7254,11473 5218,15987l3691 -4242c-14,1126 -101,2234 -257,3318 -1260,16788 -11001,29847 -22823,29847 -11640,0 -21251,-12641 -22759,-29033 1020,258 2280,754 3645,1710 0,0 -2597,-15427 2891,-17587z"/>
  </g>
 </g>
</svg>
