<?xml version="1.0" encoding="UTF-8"?>
<!DOCTYPE svg PUBLIC "-//W3C//DTD SVG 1.0//EN" "http://www.w3.org/TR/2001/REC-SVG-20010904/DTD/svg10.dtd">
<!-- Creator: CorelDRAW X7 -->
<svg xmlns="http://www.w3.org/2000/svg" xml:space="preserve" width="50px" height="50px" version="1.0" shape-rendering="geometricPrecision" text-rendering="geometricPrecision" image-rendering="optimizeQuality" fill-rule="evenodd" clip-rule="evenodd"
viewBox="0 0 1814 1814"
 xmlns:xlink="http://www.w3.org/1999/xlink">
 <g id="Layer_x0020_1">
  <metadata id="CorelCorpID_0Corel-Layer"/>
  <rect fill="none" width="1814" height="1814"/>
  <g id="_1738227760">
   <path fill="#666666" d="M599 907l0 0 28 -35 -28 35zm-9 0c-5,-54 4,-114 25,-180l0 0 0 5 7 4c-18,57 -25,110 -25,159l-7 10 0 2 0 0c0,0 0,0 0,0l0 0 0 0zm100 -131l-65 -49c0,0 0,0 0,0l65 49z"/>
   <path fill="#666666" d="M688 786l-66 -50c0,0 0,0 0,0l66 50 0 0 0 0 0 0zm2 -10l0 0 2 -208c-28,54 -51,108 -67,159l-3 -2 -4 0 -3 2c17,-58 45,-119 77,-178l0 0 0 0 0 3 -2 224 0 0 0 0z"/>
   <path fill="#666666" d="M688 786l-66 -50c0,0 0,0 0,0l-7 -4 0 -5 3 -2 4 0 3 2c0,0 0,0 0,0l65 49 0 7 -2 3 0 0 0 0z"/>
   <path fill="#666666" d="M692 549c26,-44 54,-89 85,-126l0 0 0 5 21 18 -17 -14c-25,33 -51,71 -75,110l134 -60 0 0 -145 65 -3 2 0 0 0 0z"/>
   <line fill="none" x1="692" y1="549" x2="692" y2= "549" />
   <polygon fill="#666666" points="699,554 699,554 842,491 842,491 "/>
   <path fill="#666666" d="M840 482l-42 -36 42 36 0 0zm7 -7l-63 -54 -3 0 -4 2c42,-54 88,-96 128,-114l0 0 0 0 0 0 -2 2 0 0 -56 164 0 0 0 0zm51 -152c-33,18 -75,56 -112,102l61 50 51 -152 0 0 0 0z"/>
   <polygon fill="#666666" points="840,482 840,482 840,482 798,446 777,428 777,423 781,421 784,421 847,475 844,479 "/>
   <path fill="#666666" d="M901 556l-50 -63 0 0 50 63 0 0 0 0zm2 -11l-49 -63 49 -143 0 206 0 0zm0 -206l-49 143 49 63 0 -206 0 0zm5 -30l0 0 0 0 0 0 0 0 0 0 0 0z"/>
   <polygon fill="#666666" points="854,482 851,479 851,479 851,479 851,479 851,479 851,479 847,475 903,311 903,311 903,313 903,339 "/>
   <path fill="#666666" d="M851 479l0 0 0 0 0 0 0 0 0 0 0 0zm-7 0l3 -4 4 4 -2 0 -2 0 0 0 0 0 -3 0 0 0 0 0z"/>
   <path fill="#666666" d="M737 863l-38 -77 85 -87c0,0 0,0 0,0l-85 87 38 77c2,-24 5,-45 12,-68 -7,23 -10,44 -12,68l0 0 0 0zm-40 -61l-5 -9 5 9zm0 -28l0 0 63 -63 -63 63z"/>
   <path fill="#666666" d="M816 648l35 -155 0 0 -35 155c21,-28 45,-52 63,-68l0 0c-18,16 -42,40 -63,68l0 0 0 0z"/>
   <polygon fill="#666666" points="901,556 851,493 851,493 851,493 854,484 854,482 903,545 903,554 "/>
   <polygon fill="#666666" points="854,484 854,484 854,484 854,484 851,479 851,479 854,482 "/>
   <polygon fill="#666666" points="854,484 851,479 851,479 "/>
   <polygon fill="#666666" points="849,479 847,479 847,479 "/>
   <polygon fill="#666666" points="697,774 699,554 699,554 "/>
   <polygon fill="#666666" points="692,779 690,776 692,552 692,549 692,554 697,556 697,556 699,554 697,774 "/>
   <polygon fill="#666666" points="690,783 690,776 692,779 690,781 690,781 "/>
   <polygon fill="#666666" points="760,711 802,666 842,491 842,491 802,666 "/>
   <polygon fill="#666666" points="699,554 699,552 697,547 692,549 695,547 840,482 844,484 842,491 842,491 842,491 "/>
   <polygon fill="#666666" points="697,556 692,554 692,549 692,549 697,547 699,552 699,554 "/>
   <polygon fill="#666666" points="844,484 840,482 844,479 844,482 844,482 844,482 "/>
   <polygon fill="#666666" points="844,482 844,482 844,479 847,479 847,479 "/>
   <path fill="#666666" d="M699 786l-2 -3 0 -9 63 -63 42 -45 0 0c-4,12 -11,21 -18,33l-85 87 0 0 0 0z"/>
   <polygon fill="#666666" points="697,783 697,783 697,783 697,781 692,779 697,774 "/>
   <polygon fill="#666666" points="697,783 695,781 690,781 690,781 692,779 697,781 "/>
   <line fill="none" x1="851" y1="479" x2="851" y2= "479" />
   <polygon fill="#666666" points="851,479 849,479 "/>
   <path fill="#666666" d="M802 666l40 -175 5 -2 4 4 -35 155c-4,7 -9,11 -11,18l-3 0 0 0z"/>
   <polygon fill="#666666" points="842,491 844,484 844,486 847,489 "/>
   <polygon fill="#666666" points="844,486 844,484 844,482 844,482 "/>
   <polygon fill="#666666" points="851,493 847,489 851,486 851,486 854,484 854,484 "/>
   <polygon fill="#666666" points="847,489 844,486 847,486 849,489 849,486 851,486 851,486 "/>
   <polygon fill="#666666" points="851,486 854,484 854,484 854,484 854,484 "/>
   <polygon fill="#666666" points="849,489 847,486 844,486 844,486 844,482 847,479 849,479 851,479 854,484 851,486 849,486 "/>
   <path fill="#666666" d="M802 666l0 0 3 0c0,0 0,0 0,0 0,0 -3,0 -3,0l0 0 0 0z"/>
   <path fill="#666666" d="M1216 907l-26 -30 26 30zm10 0c0,0 0,0 0,0l0 0 0 -2 -59 -70 52 60c0,-49 -10,-102 -26,-159l5 -4 2 -5c19,66 28,126 26,180l0 0 0 0zm-101 -131l0 0 65 -49c0,0 0,0 0,0l-65 49 0 0z"/>
   <path fill="#666666" d="M1127 786l0 0 66 -50c0,0 0,0 0,0l-66 50 0 0 0 0zm-2 -10l-2 -224 0 -3 0 0c32,59 58,120 77,178l-2 -2 -5 0 -3 2c-16,-51 -39,-105 -67,-159l2 208 0 0 0 0z"/>
   <path fill="#666666" d="M1127 786l-2 -3 0 -7 65 -49c0,0 0,0 0,0l3 -2 5 0 2 2 -2 5 -5 4c0,0 0,0 0,0l-66 50 0 0 0 0z"/>
   <path fill="#666666" d="M1113 554l-140 -63 -2 0 142 63 0 0 0 0 0 0zm10 -5l-3 0 0 -2 -147 -65 0 0 136 60c-24,-39 -49,-77 -75,-110l-12 7 14 -11 3 -5c28,37 58,82 84,126l0 0 0 0z"/>
   <polygon fill="#666666" points="1123,549 1120,549 "/>
   <polygon fill="#666666" points="968,475 968,475 1010,439 "/>
   <path fill="#666666" d="M973 482l0 0 49 -43 -49 43zm-5 -7l-56 -164 -2 0 0 -2 -2 0 0 0 2 0c37,18 86,60 129,114l-5 -2 -3 0 -21 18 17 -14c-35,-46 -77,-84 -112,-102l53 152 0 0 0 0z"/>
   <polygon fill="#666666" points="910,311 910,311 908,309 910,309 "/>
   <line fill="#666666" x1="908" y1="309" x2="908" y2= "309" />
   <polygon fill="#666666" points="910,311 908,309 908,309 "/>
   <polygon fill="#666666" points="903,311 905,309 905,309 905,311 "/>
   <polygon fill="#666666" points="903,313 903,313 903,311 905,311 "/>
   <polygon fill="#666666" points="973,482 968,479 968,475 968,475 1010,439 1031,421 1034,421 1039,423 1036,428 1022,439 "/>
   <path fill="#666666" d="M912 556l0 0 52 -63 0 0 -52 63zm0 -11l0 0 49 -63 -49 -143 0 0 49 143 -49 63 0 0zm-4 -236l0 0 0 0 0 0z"/>
   <line fill="#666666" x1="908" y1="309" x2="908" y2= "309" />
   <polygon fill="#666666" points="961,482 912,339 912,313 910,311 912,311 968,475 964,479 964,479 964,479 964,479 964,479 961,479 "/>
   <polygon fill="#666666" points="912,313 912,313 910,311 910,311 "/>
   <line fill="#666666" x1="908" y1="309" x2="908" y2= "309" />
   <polygon fill="#666666" points="912,313 908,309 908,309 910,311 "/>
   <path fill="#666666" d="M964 479l0 0 0 0 0 0 0 0 0 0zm4 0l0 0 -2 0 0 0 0 0 -2 0 4 -4 0 4 0 0 0 0z"/>
   <polygon fill="#666666" points="908,309 905,309 "/>
   <polygon fill="#666666" points="905,309 905,309 908,309 908,309 "/>
   <polygon fill="#666666" points="905,311 905,309 908,309 905,309 "/>
   <polygon fill="#666666" points="903,313 903,313 905,311 905,309 "/>
   <line fill="#666666" x1="908" y1="309" x2="908" y2= "309" />
   <polygon fill="#666666" points="912,545 912,339 912,339 "/>
   <polygon fill="#666666" points="908,549 903,545 903,339 908,327 912,339 912,545 "/>
   <polygon fill="#666666" points="903,339 903,313 903,316 908,327 "/>
   <polygon fill="#666666" points="903,554 903,545 908,549 "/>
   <polygon fill="#666666" points="908,309 908,309 908,309 "/>
   <line fill="#666666" x1="908" y1="309" x2="908" y2= "309" />
   <line fill="#666666" x1="908" y1="309" x2="908" y2= "309" />
   <line fill="none" x1="908" y1="309" x2="908" y2= "309" />
   <polygon fill="#666666" points="912,339 912,339 912,313 912,313 912,313 "/>
   <path fill="#666666" d="M912 313l0 0 0 0 0 0 0 0 0 0zm-7 -4l3 0 0 0 -3 0 0 0z"/>
   <path fill="#666666" d="M912 339l-4 -12 4 -11 0 -3 0 0 0 26 0 0 0 0zm-4 -30l0 0 0 0 0 0 0 0z"/>
   <polygon fill="#666666" points="908,327 903,316 903,313 905,309 908,309 908,309 908,309 912,313 912,313 912,316 "/>
   <path fill="#666666" d="M1071 881c-4,-77 -28,-149 -65,-208 37,59 61,131 65,206 0,0 0,0 0,2zm7 -18c0,0 0,0 0,0l38 -77 -87 -87c0,0 0,0 0,0l87 87 -38 77 0 0 0 0zm-2 -21c0,0 0,0 0,0 0,0 0,0 0,0zm0 0c-2,-21 -7,-42 -14,-61 7,19 12,40 14,61zm42 -40l5 -9 -5 9zm-56 -23c0,0 0,0 0,0 0,0 0,0 0,0zm54 -5l-59 -61 59 61z"/>
   <path fill="#666666" d="M1003 671l0 0c-11,-14 -21,-30 -32,-42 11,12 21,28 32,42 0,0 0,0 0,0l0 0 0 0zm-4 -23c0,0 0,0 0,0l-35 -155 0 0 35 155z"/>
   <polygon fill="#666666" points="912,556 912,554 912,545 961,482 961,484 964,493 964,493 964,493 "/>
   <polygon fill="#666666" points="961,484 961,482 961,479 964,479 "/>
   <polygon fill="#666666" points="961,484 961,484 964,479 964,479 "/>
   <polygon fill="#666666" points="912,554 910,554 908,549 912,545 "/>
   <polygon fill="#666666" points="903,554 908,549 910,554 908,552 "/>
   <line fill="none" x1="966" y1="479" x2="966" y2= "479" />
   <path fill="#666666" d="M1116 774l0 0 -3 -220 0 0 3 220zm-59 -61l-47 -47 -37 -175 37 175 47 47z"/>
   <polygon fill="#666666" points="1120,779 1116,774 1113,554 1116,556 1118,556 1123,554 1123,549 1123,552 1125,776 "/>
   <polygon fill="#666666" points="1125,783 1125,783 1125,781 1125,781 1120,779 1125,776 "/>
   <polygon fill="#666666" points="1113,554 1113,554 1113,554 971,491 973,491 971,484 973,482 1120,547 1120,549 1118,547 1113,552 "/>
   <polygon fill="#666666" points="1118,556 1116,556 1113,554 1113,552 1118,547 1120,549 1123,549 1123,554 "/>
   <polygon fill="#666666" points="971,484 971,482 971,482 971,482 968,479 973,482 "/>
   <polygon fill="#666666" points="971,482 966,479 968,479 968,479 "/>
   <line fill="none" x1="964" y1="479" x2="964" y2= "479" />
   <polygon fill="#666666" points="964,479 964,479 964,479 966,479 "/>
   <path fill="#666666" d="M1116 786l-87 -87c-5,-12 -12,-21 -19,-33l0 0 47 47 59 61 0 0 0 9 0 3 0 0 0 0z"/>
   <polygon fill="#666666" points="1116,783 1116,774 1120,779 1118,781 1118,783 1118,783 "/>
   <polygon fill="#666666" points="1118,783 1118,781 1120,779 1125,781 1125,781 1120,781 "/>
   <path fill="#666666" d="M1010 666l0 0c0,0 0,0 0,0 -4,-7 -9,-11 -11,-18l-35 -155 2 -4 7 2 37 175 0 0 0 0z"/>
   <polygon fill="#666666" points="973,491 966,489 968,486 971,484 "/>
   <polygon fill="#666666" points="968,486 968,486 971,482 971,482 971,484 "/>
   <polygon fill="#666666" points="964,493 961,484 961,484 964,486 964,486 966,489 "/>
   <polygon fill="#666666" points="966,489 964,486 964,486 964,486 966,489 968,486 968,486 "/>
   <polygon fill="#666666" points="964,486 961,484 961,484 961,484 961,484 "/>
   <polygon fill="#666666" points="966,489 964,486 964,486 961,484 964,479 966,479 966,479 971,482 968,486 968,486 968,486 "/>
   <path fill="#666666" d="M1010 666c0,0 0,0 0,0l0 0 0 0z"/>
   <path fill="#666666" d="M1190 1087l-65 -47 0 0 65 47c0,0 0,0 0,0l0 0zm10 0l-2 -5 -5 -2c16,-58 26,-112 23,-161l-49 61 59 -71 0 0 0 -2c0,0 0,0 0,0 2,54 -7,115 -26,180l0 0 0 0 0 0zm2 -161l14 -19 -14 19z"/>
   <path fill="#666666" d="M1226 909l0 -2 0 0c0,0 0,0 0,0 0,0 0,0 0,0l0 2 0 0zm-10 -2l0 0z"/>
   <path fill="#666666" d="M1123 1267l0 -2 0 0 2 -225 0 0 -2 206c28,-51 51,-107 67,-159l3 3 2 2 3 0 2 -5c-19,59 -45,119 -77,180l0 0 0 0 0 0zm70 -187l-66 -51 66 51c0,0 0,0 0,0z"/>
   <path fill="#666666" d="M1195 1092l-2 -2 -3 -3c0,0 0,0 0,0l-65 -47 0 0 0 0 0 -9 2 -2 66 51c0,0 0,0 0,0l5 2 2 5 -2 5 -3 0 0 0 0 0z"/>
   <path fill="#666666" d="M1039 1393l-3 -6 -12 -10 10 7c26,-33 51,-72 75,-110l11 -7 0 0 3 0c-26,45 -56,89 -84,126l0 0 0 0 0 0zm-33 -21l-38 -32 38 32zm-33 -39l0 0 19 -7 -19 7zm0 -10l0 0 140 -63 -140 63z"/>
   <polygon fill="#666666" points="1120,1267 1123,1265 1123,1267 "/>
   <path fill="#666666" d="M908 1506l0 0 2 0 0 -3 2 0 56 -163 -53 154c35,-21 77,-58 112,-103l-21 -19 25 21 3 0 5 0c-43,52 -92,94 -129,113l-2 0 0 0 0 0zm116 -129l-51 -44 51 44z"/>
   <polygon fill="#666666" points="1034,1393 1031,1393 1006,1372 968,1340 968,1335 973,1333 1024,1377 1036,1387 1039,1393 "/>
   <path fill="#666666" d="M908 1506l0 0 -3 0 3 0 0 0zm4 -31l0 0 49 -142 -49 -61 0 0 49 61 -49 142 0 0zm52 -154l-31 -35 31 35z"/>
   <polygon fill="#666666" points="910,1503 910,1503 912,1503 912,1475 961,1333 961,1335 964,1335 964,1335 964,1335 968,1340 912,1503 "/>
   <path fill="#666666" d="M968 1340l-4 -5 2 2 0 0 0 0 2 -2 0 0 0 5 0 0 0 0zm-4 -5l0 0 0 0 0 0 0 0z"/>
   <path fill="#666666" d="M1003 1143l0 0c40,-58 64,-131 68,-208l0 0c-4,77 -28,150 -68,208l0 0c0,0 0,0 0,0zm26 -25c0,0 0,0 0,0l87 -89 -38 -77c-4,49 -16,98 -35,140 19,-42 31,-91 35,-140l38 77 -87 89 0 0 0 0zm12 -26c0,0 0,0 0,0zm82 -70l-7 -12 7 12z"/>
   <line fill="none" x1="966" y1="1337" x2="966" y2= "1337" />
   <path fill="#666666" d="M964 1321l0 0 35 -154c0,0 0,0 0,0l-35 154zm-31 -35l-21 -28 21 28zm3 -49c11,-12 23,-24 37,-40 -14,16 -26,28 -37,40z"/>
   <polygon fill="#666666" points="961,1333 912,1272 912,1260 912,1258 933,1286 964,1321 961,1330 "/>
   <polygon fill="#666666" points="964,1335 961,1335 961,1333 961,1330 961,1330 961,1330 961,1330 "/>
   <polygon fill="#666666" points="964,1335 964,1335 961,1330 961,1330 "/>
   <polygon fill="#666666" points="973,1323 978,1295 "/>
   <polygon fill="#666666" points="971,1323 973,1323 "/>
   <polygon fill="#666666" points="966,1337 964,1335 964,1335 "/>
   <path fill="#666666" d="M992 1326l117 -52c0,0 -3,0 -3,0l-114 52 0 0zm-14 -31l32 -147 106 -108 -3 220 0 0 3 -220 -106 108 -32 147 0 0 0 0z"/>
   <polygon fill="#666666" points="1123,1265 1120,1260 1116,1260 1113,1260 1116,1040 1120,1036 1125,1040 "/>
   <polygon fill="#666666" points="1125,1040 1120,1036 1125,1033 1125,1033 1125,1033 1125,1031 "/>
   <path fill="#666666" d="M973 1333l-2 -3 2 -4 140 -66 0 0 0 5 5 2 0 3 2 -3 0 0 -11 7c0,0 0,0 0,0l-117 52 -19 7 0 0 0 0z"/>
   <polygon fill="#666666" points="1118,1270 1118,1267 1113,1265 1113,1260 1116,1260 1120,1260 1123,1265 1120,1267 "/>
   <polygon fill="#666666" points="968,1335 971,1333 971,1333 971,1333 971,1330 973,1333 "/>
   <polygon fill="#666666" points="966,1337 971,1333 971,1333 968,1335 968,1337 "/>
   <path fill="#666666" d="M1010 1148l0 0c7,-9 14,-21 19,-30l87 -89 0 2 0 9 -106 108 0 0 0 0z"/>
   <polygon fill="#666666" points="1116,1040 1116,1031 1118,1033 1118,1033 1118,1033 1120,1036 "/>
   <polygon fill="#666666" points="1120,1036 1118,1033 1118,1033 1120,1036 1120,1036 1125,1033 1125,1033 "/>
   <path fill="#666666" d="M966 1326l-2 -5 35 -154c2,-5 7,-12 11,-19l0 0 -32 147 -5 28 -7 3 0 0 0 0z"/>
   <polygon fill="#666666" points="971,1330 968,1328 966,1326 973,1323 971,1323 "/>
   <polygon fill="#666666" points="971,1333 968,1330 968,1328 971,1330 "/>
   <polygon fill="#666666" points="961,1330 964,1321 966,1326 964,1328 964,1330 "/>
   <polygon fill="#666666" points="964,1330 964,1328 966,1326 968,1328 968,1328 964,1328 "/>
   <polygon fill="#666666" points="961,1330 961,1330 961,1330 961,1330 964,1330 "/>
   <polygon fill="#666666" points="966,1337 964,1335 961,1330 964,1330 964,1328 968,1328 968,1328 968,1330 971,1333 "/>
   <path fill="#666666" d="M1010 1148c0,0 0,0 0,0 0,0 0,0 0,0l0 0 0 0 0 0z"/>
   <path fill="#666666" d="M1127 1029l0 0 40 -49 -40 49zm-4 -7l0 0 79 -96 -79 96zm-7 -12l-35 -77c0,-2 -3,-5 -3,-7 0,2 3,5 3,7l35 77zm-45 -75c0,-9 -2,-19 -2,-26 0,7 2,17 2,26 0,0 0,0 0,0l0 0zm7 -42c0,-5 0,-7 3,-12l37 -79 -37 79c0,5 -3,7 -3,12zm112 -16l-67 -84 0 0 67 84 0 0zm-23 -42l-40 -49 40 49z"/>
   <polygon fill="#666666" points="1216,907 1190,877 1123,793 1125,788 1127,786 1167,835 1226,905 1226,907 1223,902 1219,905 "/>
   <line fill="none" x1="1127" y1="786" x2="1127" y2= "786" />
   <polygon fill="#666666" points="1125,788 1125,788 1125,786 1125,786 1125,783 1127,786 1127,786 "/>
   <path fill="#666666" d="M1081 881c0,0 0,0 0,-2 -3,-5 -3,-9 -3,-16l38 -77 2 2 5 5 0 0 -5 9 -37 79 0 0 0 0z"/>
   <polygon fill="#666666" points="1123,793 1118,788 1118,788 1118,788 1118,788 1120,790 1123,788 1123,788 1123,788 1125,788 "/>
   <path fill="#666666" d="M1120 790l-2 -2 0 0 2 2 0 0 0 0zm3 -2l2 -2 0 2 0 0 -2 0 0 0 0 0 0 0z"/>
   <polygon fill="#666666" points="1125,786 1125,781 1125,783 1125,783 "/>
   <polygon fill="#666666" points="1118,788 1116,786 1116,783 1116,786 1118,786 "/>
   <path fill="#666666" d="M1120 790l0 0 3 -2 0 0 -3 2 0 0zm-2 -2l0 0 0 0 0 -2 0 2 0 0 0 0z"/>
   <polygon fill="#666666" points="1118,786 1116,786 1116,783 1118,783 1118,783 1116,783 "/>
   <polygon fill="#666666" points="1120,790 1120,790 1118,788 1118,786 1116,783 1118,783 1120,781 1125,781 1125,786 1123,788 "/>
   <polygon fill="#666666" points="1127,1029 1125,1026 1123,1022 1202,926 1216,907 1219,909 1221,912 1223,912 1226,909 1226,909 1167,980 "/>
   <polygon fill="#666666" points="1221,912 1219,909 1216,907 1219,905 1223,902 1226,907 1226,909 1223,912 "/>
   <polygon fill="#666666" points="1125,1031 1125,1031 1125,1029 1125,1029 1125,1026 1127,1029 "/>
   <path fill="#666666" d="M1116 1029l-38 -77c0,-5 0,-12 3,-17 0,0 0,0 0,-2l35 77 7 12 -5 7 -2 0 0 0 0 0z"/>
   <polygon fill="#666666" points="1118,1029 1118,1029 1123,1022 1125,1026 1123,1026 1123,1026 1123,1026 1120,1026 1118,1026 1118,1026 1118,1026 "/>
   <path fill="#666666" d="M1125 1029l-2 -3 0 0 2 0 0 3 0 0 0 0 0 0zm-7 -3l0 0 2 0 -2 0 0 0z"/>
   <polygon fill="#666666" points="1125,1033 1125,1029 1125,1031 1125,1031 "/>
   <polygon fill="#666666" points="1116,1031 1116,1029 1118,1029 1118,1029 "/>
   <path fill="#666666" d="M1118 1029l0 0 0 -3 0 0 0 3 0 0 0 0zm5 -3l-3 0 3 0 0 0 0 0z"/>
   <polygon fill="#666666" points="1118,1033 1118,1033 1116,1031 1116,1031 1118,1029 1116,1031 "/>
   <polygon fill="#666666" points="1120,1036 1120,1036 1118,1033 1116,1031 1118,1029 1118,1026 1120,1026 1123,1026 1125,1029 1125,1033 "/>
   <polygon fill="#666666" points="618,931 599,907 "/>
   <path fill="#666666" d="M625 1087l0 0 65 -47 0 0 -65 50 0 -3zm-10 0l0 0c-21,-65 -30,-126 -25,-180 0,0 0,0 0,0l0 2 0 0 7 10c0,49 7,103 25,161l-7 2 0 5 0 0 0 0z"/>
   <path fill="#666666" d="M590 909l0 -2c0,0 0,0 0,0 0,0 0,0 0,0l0 0 0 2 0 0z"/>
   <path fill="#666666" d="M692 1267l0 0c-32,-61 -60,-121 -77,-180l0 0 3 5 2 0 2 -2 3 -3c16,52 39,108 67,159l-2 -206 0 -2 2 227 0 0 0 2 0 0zm-70 -187c0,0 0,0 0,0l66 -51 -66 51z"/>
   <path fill="#666666" d="M620 1092l-2 0 -3 -5 0 -5 7 -2c0,0 0,0 0,0l66 -51 0 2 2 9 0 0 0 0 -65 47 -3 3 -2 2 0 0 0 0z"/>
   <path fill="#666666" d="M777 1393l0 0c-31,-37 -59,-81 -85,-126l0 0 0 0 3 0 145 66 -134 -59c24,40 50,77 75,110l14 -12 -18 15 0 6 0 0 0 0zm65 -70l-143 -63 143 63z"/>
   <polygon fill="#666666" points="692,1267 692,1267 692,1265 "/>
   <path fill="#666666" d="M905 1506l0 0c-40,-19 -86,-61 -128,-113l0 0 4 0 3 0 63 -53 56 163 0 0 2 3 0 0 0 0 0 0 0 0zm-58 -166l-61 51c37,45 77,82 112,103l-51 -154 0 0z"/>
   <polygon fill="#666666" points="905,1506 905,1506 903,1503 "/>
   <polygon fill="#666666" points="908,1506 905,1506 905,1506 "/>
   <polygon fill="#666666" points="908,1506 905,1506 905,1506 "/>
   <polygon fill="#666666" points="908,1506 910,1506 910,1503 910,1506 "/>
   <polygon fill="#666666" points="910,1506 910,1503 910,1503 "/>
   <polygon fill="#666666" points="795,1372 840,1333 "/>
   <polygon fill="#666666" points="781,1393 777,1393 777,1387 795,1372 840,1333 844,1335 847,1340 784,1393 "/>
   <path fill="#666666" d="M908 1506l0 0 0 0 0 0 0 0 0 0zm-57 -185l0 0 28 -35 -28 35 0 0z"/>
   <line fill="#666666" x1="908" y1="1506" x2="908" y2= "1506" />
   <polygon fill="#666666" points="910,1503 910,1503 912,1503 "/>
   <polygon fill="#666666" points="908,1506 908,1506 910,1506 "/>
   <polygon fill="#666666" points="908,1506 910,1503 910,1503 910,1506 "/>
   <polygon fill="#666666" points="903,1475 854,1333 903,1272 903,1272 854,1333 "/>
   <polygon fill="#666666" points="903,1475 903,1475 903,1475 903,1272 903,1272 "/>
   <polygon fill="#666666" points="903,1503 903,1503 847,1340 851,1335 851,1335 851,1335 851,1335 854,1333 903,1475 "/>
   <polygon fill="#666666" points="905,1506 903,1503 903,1503 "/>
   <line fill="none" x1="903" y1="1503" x2="903" y2= "1503" />
   <polygon fill="#666666" points="908,1506 905,1506 903,1503 903,1503 "/>
   <path fill="#666666" d="M847 1340l-3 -5 3 2 0 0 0 0 2 0 2 -2 -4 5 0 0 0 0zm4 -5l0 0 0 0 0 0 0 0 0 0z"/>
   <polygon fill="#666666" points="908,1489 903,1475 903,1272 908,1265 912,1272 912,1272 912,1475 912,1475 "/>
   <polygon fill="#666666" points="910,1503 912,1501 908,1489 912,1475 912,1503 "/>
   <polygon fill="#666666" points="912,1272 908,1265 910,1260 910,1260 912,1260 "/>
   <polygon fill="#666666" points="903,1503 903,1503 903,1475 908,1489 903,1501 "/>
   <polygon fill="#666666" points="908,1506 908,1506 903,1503 903,1501 908,1489 912,1501 910,1503 "/>
   <path fill="#666666" d="M812 1143c-40,-58 -63,-131 -68,-208 0,0 0,0 0,0 5,77 28,150 68,208l0 0 0 0zm-28 -25l-85 -89 38 -77c5,58 21,116 47,166l0 0zm-47 -166l-38 77 85 89c-26,-50 -42,-108 -47,-166l0 0 0 0zm21 149l-61 -61 0 0 61 61zm-66 -79l0 0 7 -14 -7 14z"/>
   <polygon fill="#666666" points="849,1337 847,1337 847,1337 "/>
   <path fill="#666666" d="M851 1321l-35 -154c0,2 3,2 3,2 0,0 -3,0 -3,-2l35 154 0 0 0 0 0 0zm28 -35l22 -28 0 0 -22 28 0 0zm10 -40c0,0 0,0 -2,-2 2,2 2,2 2,2z"/>
   <polygon fill="#666666" points="854,1333 854,1330 851,1321 851,1321 851,1321 879,1286 901,1258 903,1260 903,1272 "/>
   <polygon fill="#666666" points="851,1335 854,1330 854,1330 854,1330 854,1330 854,1333 "/>
   <polygon fill="#666666" points="851,1335 854,1330 854,1330 "/>
   <polygon fill="#666666" points="903,1272 903,1260 903,1260 903,1260 908,1265 "/>
   <polygon fill="#666666" points="908,1265 903,1260 903,1260 903,1260 908,1263 910,1260 910,1260 910,1260 "/>
   <polygon fill="#666666" points="849,1337 849,1337 851,1335 851,1335 "/>
   <path fill="#666666" d="M842 1323l0 0 -40 -175 -44 -47 44 47 40 175zm-143 -63l0 0 -2 -220 0 0 2 220 0 0 0 0z"/>
   <polygon fill="#666666" points="692,1265 692,1265 690,1040 692,1036 697,1040 699,1260 697,1260 692,1260 "/>
   <polygon fill="#666666" points="690,1040 690,1031 690,1033 690,1033 690,1033 692,1036 "/>
   <polygon fill="#666666" points="840,1333 695,1267 692,1267 697,1270 697,1267 699,1265 699,1260 699,1260 842,1323 844,1330 "/>
   <polygon fill="#666666" points="697,1270 692,1267 692,1265 692,1260 697,1260 699,1260 699,1265 697,1267 "/>
   <polygon fill="#666666" points="844,1335 840,1333 844,1330 844,1333 844,1333 844,1333 "/>
   <polygon fill="#666666" points="847,1337 847,1337 844,1335 844,1333 844,1333 "/>
   <path fill="#666666" d="M802 1148l-44 -47 -61 -61 0 0 0 0 0 -9 2 -2 85 89c7,9 14,21 18,30l0 0 0 0 0 0z"/>
   <polygon fill="#666666" points="697,1040 692,1036 697,1033 697,1033 697,1033 697,1031 "/>
   <polygon fill="#666666" points="692,1036 690,1033 690,1033 692,1036 695,1036 697,1033 697,1033 "/>
   <path fill="#666666" d="M847 1326l-5 -3 -40 -175 3 0c2,7 7,14 11,19l35 154 -4 5 0 0z"/>
   <polygon fill="#666666" points="844,1330 842,1323 847,1326 844,1328 "/>
   <polygon fill="#666666" points="844,1333 844,1333 844,1330 844,1328 844,1330 "/>
   <polygon fill="#666666" points="854,1330 854,1330 851,1330 851,1328 847,1326 851,1321 "/>
   <polygon fill="#666666" points="851,1330 849,1328 847,1328 844,1328 847,1326 851,1328 "/>
   <polygon fill="#666666" points="854,1330 851,1330 "/>
   <polygon fill="#666666" points="849,1337 849,1337 847,1337 844,1333 844,1330 844,1328 847,1328 849,1328 851,1330 854,1330 851,1335 "/>
   <path fill="#666666" d="M805 1148l-3 0 0 0c0,0 3,0 3,0 0,0 0,0 0,0l0 0z"/>
   <path fill="#666666" d="M688 1029l-91 -110c0,0 0,0 0,0l91 110zm4 -7l-74 -91 74 91zm7 -14l36 -75c0,-7 2,-17 2,-26l0 0c0,9 -2,19 -2,26l-36 75 0 0zm38 -101c0,-9 -2,-19 -2,-26l-38 -79 38 79c0,7 2,17 2,26l0 0 0 0zm9 0c-2,-9 -2,-19 -2,-26 0,0 0,0 0,0 0,7 0,17 2,26l0 0zm-149 -12c0,0 0,0 0,0l91 -109 -91 109zm30 -23l65 -79 0 0 -65 79 0 0z"/>
   <path fill="#666666" d="M599 907l-2 -2 -5 -3 -2 5 0 -2 7 -10c0,0 0,0 0,0l91 -109 2 2 2 5 -65 79 -28 35 0 0z"/>
   <line fill="none" x1="688" y1="786" x2="688" y2= "786" />
   <polygon fill="#666666" points="690,788 688,786 688,786 690,783 690,786 690,786 "/>
   <path fill="#666666" d="M735 881l-38 -79 -5 -9 0 0 5 -5 2 -2 38 77c-2,7 -2,11 -2,18 0,0 0,0 0,0l0 0 0 0z"/>
   <polygon fill="#666666" points="692,793 690,788 690,788 692,788 692,788 692,790 695,788 695,788 697,788 697,788 "/>
   <path fill="#666666" d="M692 790l3 -2 0 0 -3 2 0 0 0 0zm0 -2l-2 0 0 0 0 0 0 -2 2 2 0 0 0 0z"/>
   <polygon fill="#666666" points="690,786 690,786 690,783 690,783 690,781 "/>
   <polygon fill="#666666" points="697,788 697,786 697,786 697,783 699,786 "/>
   <path fill="#666666" d="M692 790l0 -2 0 0 0 2 0 0 0 0zm3 -2l2 -2 0 2 0 0 -2 0 0 0z"/>
   <polygon fill="#666666" points="697,786 697,783 697,783 697,783 697,783 "/>
   <polygon fill="#666666" points="692,790 692,788 690,786 690,781 695,781 697,783 697,783 697,786 695,788 "/>
   <path fill="#666666" d="M688 1029l-91 -110c0,0 0,0 0,0l-7 -10 0 0 2 3 0 0 5 -3 2 -2 19 24 74 91 -2 4 -2 3 0 0 0 0z"/>
   <polygon fill="#666666" points="592,912 592,912 590,909 590,907 592,902 597,905 599,907 597,909 "/>
   <polygon fill="#666666" points="690,1031 688,1029 690,1026 690,1029 690,1029 "/>
   <path fill="#666666" d="M699 1029l-2 0 -5 -7 7 -14 36 -75c0,2 0,2 0,2 0,5 0,12 2,17l-38 77 0 0 0 0z"/>
   <polygon fill="#666666" points="697,1029 697,1026 695,1026 695,1026 692,1026 692,1026 692,1026 690,1026 690,1026 692,1022 "/>
   <path fill="#666666" d="M690 1029l0 0 0 -3 0 0 2 0 -2 3 0 0 0 0zm5 -3l-3 0 3 0 0 0 0 0z"/>
   <polygon fill="#666666" points="690,1033 690,1033 690,1031 690,1031 690,1029 "/>
   <polygon fill="#666666" points="697,1031 697,1031 697,1029 697,1029 699,1029 "/>
   <path fill="#666666" d="M697 1029l-2 -3 2 0 0 3 0 0 0 0zm-5 -3l0 0 0 0 0 0 0 0 0 0z"/>
   <polygon fill="#666666" points="697,1033 697,1031 697,1029 697,1031 697,1031 "/>
   <polygon fill="#666666" points="695,1036 692,1036 690,1033 690,1029 692,1026 692,1026 695,1026 697,1029 697,1031 697,1033 "/>
   <path fill="#666666" d="M912 1258l0 0 12 -9 12 -12 -12 12 -12 9 0 0 0 0zm-11 0l-7 -7 -5 -5 5 5 7 7 0 0zm7 -5l-10 -9 10 7 9 -9 -9 11 0 0 0 0zm-21 -9c-17,-17 -43,-42 -68,-75 25,33 51,58 68,75zm7 -7c-24,-21 -54,-52 -82,-94l0 0c28,42 58,73 82,94l0 0zm79 -40c7,-9 16,-19 26,-30l0 0c-10,11 -19,21 -26,30zm56 -79c5,-10 10,-17 12,-26 -2,9 -7,16 -12,26l0 0zm12 -26c0,0 0,0 2,0 -2,0 -2,0 -2,0zm37 -166c0,-7 0,-12 -2,-19 2,7 2,12 2,19zm-2 -19l0 0c2,-5 2,-9 2,-14 0,5 0,9 -2,14zm-332 -26l0 0c5,-77 28,-152 68,-210l0 0c23,-35 51,-66 72,-87l12 -11 12 -10 9 10 0 0c14,14 33,32 54,56 -21,-24 -40,-42 -54,-56l0 0 -9 -10 -12 10 -12 11c-21,21 -49,52 -72,87 -40,58 -63,133 -68,210l0 0zm334 -18c0,-7 -2,-14 -2,-21 0,7 2,14 2,21l0 0zm-2 -21c0,0 0,0 0,0 0,0 0,0 0,0zm-327 -47c7,-35 21,-66 35,-96l0 0c-14,30 -28,61 -35,96l0 0zm313 -14c0,0 0,-2 0,-2 0,0 0,2 0,2zm0 -2c-7,-29 -19,-54 -33,-80l0 0c14,26 26,51 33,80l0 0zm-63 -131c-28,-36 -56,-64 -75,-80 19,16 47,44 75,80l0 0 0 0zm-120 -68l12 -12 10 -12 -10 12 -12 12zm45 -14l-12 -10 0 0 12 10 0 0z"/>
   <line fill="#666666" x1="901" y1="556" x2="901" y2= "556" />
   <path fill="#666666" d="M744 881c0,0 0,-2 0,-2l0 0 -7 -16c2,-24 5,-45 12,-68 7,-35 21,-68 35,-96l0 0c0,0 0,0 0,0l25 -28 3 0 0 0c-40,58 -63,133 -68,210l0 0 0 0z"/>
   <path fill="#666666" d="M812 671c0,0 0,0 0,0l0 0 0 0 4 -23c21,-28 45,-52 63,-68l0 0 12 -12 10 -12 2 3 0 0 0 2 5 2 -12 10 -12 11c-21,21 -49,52 -72,87l0 0 0 0 0 0z"/>
   <polygon fill="#666666" points="903,559 903,559 901,556 901,556 901,556 903,554 903,556 "/>
   <path fill="#666666" d="M812 671l0 0 0 0c0,0 0,0 0,0l0 0 0 0z"/>
   <path fill="#666666" d="M784 699c7,-12 14,-21 18,-33l0 3 3 4 2 0 5 -2 -3 2 -25 26 0 0 0 0z"/>
   <path fill="#666666" d="M812 671l-3 -5 -4 0 0 0c2,-7 7,-11 11,-18l-4 23 0 0 0 0 0 0z"/>
   <path fill="#666666" d="M807 673l-2 0 -3 -4 0 -3c0,0 3,0 3,0 0,0 0,0 0,0l0 0 4 0 3 5 0 0 -5 2 0 0 0 0z"/>
   <polygon fill="#666666" points="903,559 903,556 "/>
   <line fill="none" x1="912" y1="556" x2="912" y2= "556" />
   <polygon fill="#666666" points="903,559 903,556 903,554 903,554 903,554 "/>
   <path fill="#666666" d="M1071 879c-4,-75 -28,-147 -65,-206 -3,0 -3,0 -3,-2l0 0 0 2 26 26c0,0 0,0 0,0l0 0c14,26 26,51 33,80 0,0 0,0 0,0 0,0 0,2 0,2 7,19 12,40 14,61 0,0 0,0 0,0 0,0 0,0 0,0 0,7 2,14 2,21l0 0c0,0 0,0 0,0l-7 16 0 0 0 0 0 0z"/>
   <path fill="#666666" d="M1003 671l0 0c0,0 0,0 0,0 -11,-14 -21,-30 -32,-42 -21,-24 -40,-42 -54,-56l0 0 -9 -10 2 -2 0 -2 0 0 2 -3 12 10 0 2c19,16 47,44 75,80l0 0c0,0 0,0 0,0l4 23 0 0 0 0c0,0 0,0 0,0l0 0 0 0z"/>
   <polygon fill="#666666" points="908,563 903,561 903,559 905,561 905,561 908,561 908,561 910,561 910,559 910,561 "/>
   <path fill="#666666" d="M908 561l0 0 2 0 -2 0 0 0 0 0zm-3 0l-2 -2 0 0 2 2 0 0 0 0z"/>
   <polygon fill="#666666" points="908,561 905,561 905,561 "/>
   <polygon fill="#666666" points="908,561 905,561 903,559 903,559 "/>
   <polygon fill="#666666" points="910,559 910,559 912,556 912,554 912,556 912,556 912,556 "/>
   <polygon fill="#666666" points="910,559 910,559 912,556 "/>
   <polygon fill="#666666" points="910,561 910,559 910,559 "/>
   <polygon fill="#666666" points="908,561 910,559 910,559 910,561 "/>
   <polygon fill="#666666" points="910,559 910,554 910,554 912,554 912,556 "/>
   <polygon fill="#666666" points="908,561 908,561 903,559 903,554 903,554 903,554 908,552 910,554 910,554 910,559 "/>
   <path fill="#666666" d="M1003 671l0 0c0,0 0,0 0,0l0 0 0 0 0 0z"/>
   <path fill="#666666" d="M1029 699l-26 -26 0 -2 3 2 2 0 2 -4 0 -3c7,12 14,21 19,33l0 0z"/>
   <path fill="#666666" d="M1003 671l0 0 -4 -23c2,7 7,11 11,18 0,0 0,0 0,0l0 0 -7 0 0 5 0 0 0 0z"/>
   <path fill="#666666" d="M1006 673l-3 -2 0 0 0 -5 7 0 0 0c0,0 0,0 0,0l0 3 -2 4 0 0 -2 0 0 0z"/>
   <path fill="#666666" d="M1003 1143c40,-58 64,-131 68,-208 0,0 0,0 0,0l0 3 7 14c-4,49 -16,98 -35,140 -2,0 -2,0 -2,0 -2,9 -7,16 -12,26l0 0c0,0 0,0 0,0l-26 25 0 0 0 0 0 0 0 0z"/>
   <path fill="#666666" d="M912 1258l-2 -2 0 0 0 0 -2 -5 9 -9 12 -12c21,-19 49,-49 74,-87l0 0 0 3 -4 21c0,0 0,0 0,0l0 0c-10,11 -19,21 -26,30 -14,16 -26,28 -37,40l0 0 -12 12 -12 9 0 0 0 0 0 0z"/>
   <polygon fill="#666666" points="912,1260 912,1258 910,1256 910,1256 912,1258 "/>
   <path fill="#666666" d="M1003 1143l0 0c0,0 0,0 0,0l0 0 0 0 0 0 0 0z"/>
   <path fill="#666666" d="M1010 1148l0 0 -2 -7 -5 2 0 0 26 -25c-5,9 -12,21 -19,30l0 0 0 0z"/>
   <path fill="#666666" d="M999 1167l4 -21 0 -3 0 7 5 0 2 0 0 -2c-4,7 -9,14 -11,19l0 0 0 0z"/>
   <path fill="#666666" d="M1008 1150l-5 0 0 -7 0 0 5 -2 2 7 0 0c0,0 0,0 0,0 0,0 0,0 0,0l0 2 -4 0 0 0 2 0z"/>
   <path fill="#666666" d="M1071 935c0,-9 -2,-19 -2,-26l0 0 0 -2c0,-9 2,-19 2,-28 0,2 0,2 0,2l3 3 2 0 2 -3 3 0c-3,5 -3,7 -3,12 0,5 0,9 -2,14l0 0c2,7 2,12 2,19 0,2 3,5 3,7l-3 0 -4 -2 -3 4 0 0 0 0z"/>
   <path fill="#666666" d="M1076 884l-2 0 -3 -3c0,0 0,0 0,0 0,-2 0,-2 0,-2l0 0 0 0 7 -16c0,7 3,11 3,16 0,2 0,2 0,2l-3 0 -2 3 0 0 0 0z"/>
   <path fill="#666666" d="M1078 952l-7 -14 0 -3c0,0 0,0 0,0 0,0 0,0 0,0l0 0 3 -4 4 2 3 0c0,2 0,2 0,2 -3,5 -3,12 -3,17l0 0 0 0z"/>
   <polygon fill="#666666" points="912,1260 912,1258 912,1258 "/>
   <polygon fill="#666666" points="910,1260 912,1258 912,1260 "/>
   <path fill="#666666" d="M812 1143c0,0 0,0 0,0l0 0 0 0 -28 -25c-26,-50 -42,-108 -47,-166l7 -14 0 -3c0,0 0,0 0,0l0 0c0,0 0,0 0,0 5,77 28,150 68,208l0 0 0 0 0 0z"/>
   <path fill="#666666" d="M901 1258l0 0 0 0 -7 -7 -5 -5c0,0 0,0 -2,-2 -17,-17 -43,-42 -68,-75 0,0 -3,0 -3,-2l-4 -21 0 -3 0 0c28,42 58,73 82,94 0,2 0,2 2,5l2 2 10 9 -5 3 0 0 0 0 -2 2 0 0 0 0z"/>
   <polygon fill="#666666" points="903,1256 903,1256 908,1253 910,1256 910,1256 910,1256 908,1253 908,1256 908,1253 908,1256 905,1253 905,1256 "/>
   <path fill="#666666" d="M912 1258l0 0 -2 -2 0 0 2 2 0 0zm-7 -2l0 -3 3 3 -3 0 0 0 0 0 0 0z"/>
   <polygon fill="#666666" points="903,1260 901,1258 903,1256 903,1256 903,1258 "/>
   <polygon fill="#666666" points="903,1258 903,1256 905,1256 "/>
   <polygon fill="#666666" points="903,1258 903,1258 905,1256 905,1256 "/>
   <polygon fill="#666666" points="910,1256 908,1256 908,1256 908,1253 "/>
   <polygon fill="#666666" points="912,1258 908,1256 910,1256 "/>
   <line fill="none" x1="912" y1="1258" x2="912" y2= "1258" />
   <polygon fill="#666666" points="908,1256 908,1256 908,1253 "/>
   <polygon fill="#666666" points="905,1256 908,1256 908,1256 "/>
   <polygon fill="#666666" points="903,1260 903,1260 903,1258 "/>
   <line fill="none" x1="908" y1="1256" x2="908" y2= "1256" />
   <polygon fill="#666666" points="908,1263 903,1260 903,1260 903,1258 905,1256 908,1256 908,1256 912,1258 912,1258 910,1260 910,1260 "/>
   <path fill="#666666" d="M812 1143l0 0 0 0c0,0 0,0 0,0l0 0 0 0z"/>
   <path fill="#666666" d="M802 1148c-4,-9 -11,-21 -18,-30l28 25 0 0 -7 -2 -3 7 0 0 0 0 0 0z"/>
   <path fill="#666666" d="M816 1167c-4,-5 -9,-12 -11,-19l0 2 2 0 2 0 3 -7 0 3 4 21 0 0 0 0z"/>
   <path fill="#666666" d="M807 1150l-2 0 0 -2c0,0 0,0 0,0 0,0 -3,0 -3,0l0 0 3 -7 7 2 0 0 -3 7 -2 0 0 0 0 0z"/>
   <path fill="#666666" d="M744 935c0,0 0,0 0,0l-5 -4 -4 2 0 0c0,-7 2,-17 2,-26l0 0c0,-9 -2,-19 -2,-26l0 0 4 3 0 0 5 -3c0,0 0,0 0,0l0 0c0,0 0,0 0,0 0,7 0,17 2,26l0 2c-2,10 -2,19 -2,26l0 0 0 0z"/>
   <path fill="#666666" d="M739 884l-4 -3 0 0c0,0 0,0 0,0 0,-7 0,-11 2,-18l7 16 0 0c0,0 0,2 0,2 0,0 0,0 0,0l-5 3 0 0 0 0z"/>
   <path fill="#666666" d="M737 952c-2,-5 -2,-12 -2,-17 0,0 0,0 0,-2l0 0 4 -2 5 4c0,0 0,0 0,0 0,0 0,0 0,0l0 3 -7 14 0 0 0 0z"/>
  </g>
 </g>
</svg>
