<?xml version="1.0" encoding="UTF-8"?>
<!DOCTYPE svg PUBLIC "-//W3C//DTD SVG 1.1//EN" "http://www.w3.org/Graphics/SVG/1.1/DTD/svg11.dtd">
<!-- Creator: CorelDRAW X7 -->
<svg xmlns="http://www.w3.org/2000/svg" xml:space="preserve" width="117px" height="30px" version="1.1" style="shape-rendering:geometricPrecision; text-rendering:geometricPrecision; image-rendering:optimizeQuality; fill-rule:evenodd; clip-rule:evenodd"
viewBox="0 0 1505778 386862"
 xmlns:xlink="http://www.w3.org/1999/xlink">
 <defs>
  <style type="text/css">
   <![CDATA[
    .str0 {stroke:#666666;stroke-width:2574.01}
    .fil0 {fill:none}
    .fil1 {fill:#666666}
   ]]>
  </style>
 </defs>
 <g id="Layer_x0020_1">
  <metadata id="CorelCorpID_0Corel-Layer"/>
  <rect class="fil0" x="5" width="1505778" height="386862"/>
  <g id="_1022778576">
   <path class="fil0 str0" d="M1466985 219841c0,0 -3990,-8773 3077,-9976 7067,-1188 11408,5834 9367,16252 -2041,10417 -8072,32639 6961,33309 0,0 18018,-228 5635,-27933 0,0 -2726,-6473 1691,-8727"/>
   <path class="fil0 str0" d="M38793 321233c0,0 3990,-8773 -3077,-9976 -7067,-1188 -11408,5833 -9367,16251 2041,10418 8073,32640 -6960,33310 0,0 -18018,-229 -5636,-27934 0,0 2727,-6473 -1690,-8727"/>
   <circle class="fil1 str0" transform="matrix(0.774391 -0.178492 -0.178492 -0.774391 1.46252E+006 202405)" r="14606"/>
   <circle class="fil1 str0" transform="matrix(-0.774391 -0.178492 0.178492 -0.774391 43258.4 303797)" r="14606"/>
   <ellipse class="fil0 str0" cx="983877" cy="203429" rx="22272" ry="22124"/>
   <ellipse class="fil0 str0" cx="961734" cy="228510" rx="22272" ry="22124"/>
   <ellipse class="fil0 str0" cx="939413" cy="252974" rx="22272" ry="22124"/>
   <ellipse class="fil0 str0" cx="915778" cy="273600" rx="22272" ry="22124"/>
   <ellipse class="fil0 str0" cx="886169" cy="291262" rx="22272" ry="22124"/>
   <ellipse class="fil0 str0" cx="856100" cy="304678" rx="22272" ry="22124"/>
   <ellipse class="fil0 str0" cx="823828" cy="313904" rx="22272" ry="22124"/>
   <ellipse class="fil0 str0" cx="791570" cy="316107" rx="22272" ry="22124"/>
   <ellipse class="fil0 str0" cx="757672" cy="310421" rx="22272" ry="22124"/>
   <ellipse class="fil0 str0" cx="727084" cy="299798" rx="22272" ry="22124"/>
   <ellipse class="fil0 str0" cx="696713" cy="287419" rx="22272" ry="22124"/>
   <ellipse class="fil0 str0" cx="666326" cy="270794" rx="22272" ry="22124"/>
   <ellipse class="fil0 str0" cx="641971" cy="253521" rx="22272" ry="22124"/>
   <ellipse class="fil0 str0" cx="615357" cy="232692" rx="22272" ry="22124"/>
   <ellipse class="fil0 str0" cx="589605" cy="211619" rx="22272" ry="22124"/>
   <ellipse class="fil0 str0" cx="565437" cy="191582" rx="22272" ry="22124"/>
   <ellipse class="fil0 str0" cx="540579" cy="169343" rx="22272" ry="22124"/>
   <ellipse class="fil0 str0" cx="515418" cy="148860" rx="22272" ry="22124"/>
   <ellipse class="fil0 str0" cx="489306" cy="128017" rx="22272" ry="22124"/>
   <ellipse class="fil0 str0" cx="464030" cy="107534" rx="22272" ry="22124"/>
   <ellipse class="fil0 str0" cx="439114" cy="87152" rx="22272" ry="22124"/>
   <ellipse class="fil0 str0" cx="411203" cy="66554" rx="22272" ry="22124"/>
   <ellipse class="fil0 str0" cx="377886" cy="55935" rx="22272" ry="22124"/>
   <ellipse class="fil0 str0" cx="346136" cy="50149" rx="22272" ry="22124"/>
   <ellipse class="fil0 str0" cx="312214" cy="54969" rx="22272" ry="22124"/>
   <ellipse class="fil0 str0" cx="280778" cy="62593" rx="22272" ry="22124"/>
   <ellipse class="fil0 str0" cx="248526" cy="77368" rx="22272" ry="22124"/>
   <ellipse class="fil0 str0" cx="221745" cy="95393" rx="22272" ry="22124"/>
   <ellipse class="fil0 str0" cx="194678" cy="115042" rx="22272" ry="22124"/>
   <ellipse class="fil0 str0" cx="171318" cy="138260" rx="22272" ry="22124"/>
   <ellipse class="fil0 str0" cx="147483" cy="161075" rx="22272" ry="22124"/>
   <ellipse class="fil0 str0" cx="124365" cy="186023" rx="22272" ry="22124"/>
   <ellipse class="fil0 str0" cx="103484" cy="211299" rx="22272" ry="22124"/>
   <ellipse class="fil0 str0" cx="86640" cy="237145" rx="22272" ry="22124"/>
   <ellipse class="fil0 str0" cx="69873" cy="262305" rx="22272" ry="22124"/>
   <ellipse class="fil0 str0" cx="54422" cy="287923" rx="22272" ry="22124"/>
   <ellipse class="fil0 str0" cx="1447971" cy="189602" rx="22272" ry="22124"/>
   <ellipse class="fil0 str0" cx="1423112" cy="167363" rx="22272" ry="22124"/>
   <ellipse class="fil0 str0" cx="1397951" cy="146880" rx="22272" ry="22124"/>
   <ellipse class="fil0 str0" cx="1371840" cy="126037" rx="22272" ry="22124"/>
   <ellipse class="fil0 str0" cx="1346564" cy="105554" rx="22272" ry="22124"/>
   <ellipse class="fil0 str0" cx="1321648" cy="85172" rx="22272" ry="22124"/>
   <ellipse class="fil0 str0" cx="1293737" cy="64574" rx="22272" ry="22124"/>
   <ellipse class="fil0 str0" cx="1260419" cy="53955" rx="22272" ry="22124"/>
   <ellipse class="fil0 str0" cx="1228670" cy="48169" rx="22272" ry="22124"/>
   <ellipse class="fil0 str0" cx="1194748" cy="52989" rx="22272" ry="22124"/>
   <ellipse class="fil0 str0" cx="1163311" cy="60613" rx="22272" ry="22124"/>
   <ellipse class="fil0 str0" cx="1131060" cy="75388" rx="22272" ry="22124"/>
   <ellipse class="fil0 str0" cx="1104278" cy="93413" rx="22272" ry="22124"/>
   <ellipse class="fil0 str0" cx="1077212" cy="113062" rx="22272" ry="22124"/>
   <ellipse class="fil0 str0" cx="1053852" cy="136280" rx="22272" ry="22124"/>
   <ellipse class="fil0 str0" cx="1030017" cy="159095" rx="22272" ry="22124"/>
   <ellipse class="fil0 str0" cx="1006899" cy="184043" rx="22272" ry="22124"/>
  </g>
 </g>
</svg>
