<?xml version="1.0" encoding="UTF-8"?>
<!DOCTYPE svg PUBLIC "-//W3C//DTD SVG 1.1//EN" "http://www.w3.org/Graphics/SVG/1.1/DTD/svg11.dtd">
<!-- Creator: CorelDRAW X6 -->
<svg xmlns="http://www.w3.org/2000/svg" xml:space="preserve" width="50px" height="50px" version="1.1" style="shape-rendering:geometricPrecision; text-rendering:geometricPrecision; image-rendering:optimizeQuality; fill-rule:evenodd; clip-rule:evenodd"
viewBox="0 0 44666 44666"
 xmlns:xlink="http://www.w3.org/1999/xlink">
 <defs>
  <style type="text/css">
   <![CDATA[
    .fil0 {fill:none}
    .fil1 {fill:white}
   ]]>
  </style>
 </defs>
 <g id="Layer_x0020_1">
  <metadata id="CorelCorpID_0Corel-Layer"/>
  <g id="_757721248">
   <rect class="fil0" width="44666" height="44666"/>
   <path class="fil1" d="M31266 20047l-17866 0c-435,0 -788,352 -788,788 0,436 353,788 788,788l17866 0c436,0 788,-352 788,-788 0,-436 -352,-788 -788,-788zm-8735 9898l3343 -2935 5393 0c436,0 788,-352 788,-788 0,-436 -352,-788 -788,-788l-17866 0c-435,0 -788,352 -788,788 0,436 353,788 788,788l5393 0 3323 2923c107,94 319,98 416,13zm-9131 -13708l17867 0c435,0 788,-353 788,-788 0,-436 -353,-788 -788,-788l-17867 0c-435,0 -788,352 -788,788 0,435 353,788 788,788z"/>
  </g>
 </g>
</svg>
