<?xml version="1.0" encoding="UTF-8"?>
<!DOCTYPE svg PUBLIC "-//W3C//DTD SVG 1.0//EN" "http://www.w3.org/TR/2001/REC-SVG-20010904/DTD/svg10.dtd">
<!-- Creator: CorelDRAW X7 -->
<svg xmlns="http://www.w3.org/2000/svg" xml:space="preserve" width="50px" height="50px" version="1.0" shape-rendering="geometricPrecision" text-rendering="geometricPrecision" image-rendering="optimizeQuality" fill-rule="evenodd" clip-rule="evenodd"
viewBox="0 0 266923 266923"
 xmlns:xlink="http://www.w3.org/1999/xlink">
 <g id="Layer_x0020_1">
  <metadata id="CorelCorpID_0Corel-Layer"/>
  <rect fill="none" width="266923" height="266923"/>
  <g id="_1310621584">
   <g id="_1318594272">
    <path fill="#CACACA" d="M71892 87106c-1261,0 -2447,240 -3468,712l64798 53683 65832 -53525c-1185,-555 -2522,-870 -3941,-870l-123221 0 0 0 0 0z"/>
    <path fill="#CACACA" d="M204256 94199l-68506 55662c-712,631 -1576,946 -2528,946 -946,0 -1810,-397 -2598,-946l-67799 -56135c-240,946 -473,1892 -473,2920l0 73631c0,1104 239,2207 555,3235l37761 -36898c1652,-1576 4181,-1576 5757,82 1576,1576 1494,4098 -82,5675l-37680 36891c1022,316 2049,555 3229,555l123221 0c1262,0 2447,-239 3544,-706l-37837 -36980c-1659,-1576 -1659,-4174 -82,-5750 1576,-1576 4104,-1658 5756,-82l37686 36816c234,-864 391,-1810 391,-2838l0 -73631c0,-864 -75,-1652 -315,-2447l0 0z"/>
   </g>
  </g>
 </g>
</svg>
