<?xml version="1.0" encoding="UTF-8"?>
<!DOCTYPE svg PUBLIC "-//W3C//DTD SVG 1.0//EN" "http://www.w3.org/TR/2001/REC-SVG-20010904/DTD/svg10.dtd">
<!-- Creator: CorelDRAW X7 -->
<svg xmlns="http://www.w3.org/2000/svg" xml:space="preserve" width="50px" height="50px" version="1.0" shape-rendering="geometricPrecision" text-rendering="geometricPrecision" image-rendering="optimizeQuality" fill-rule="evenodd" clip-rule="evenodd"
viewBox="0 0 7335 7335"
 xmlns:xlink="http://www.w3.org/1999/xlink">
 <g id="Layer_x0020_1">
  <metadata id="CorelCorpID_0Corel-Layer"/>
  <rect fill="none" width="7335" height="7335"/>
  <g id="_1317379104">
   <g id="_1318580768">
    <path fill="white" d="M4097 2946c-63,-171 -238,-293 -423,-293 -188,0 -359,117 -427,293 -9,22 -13,45 -22,67 -9,36 -9,68 -9,95l0 54c0,395 207,715 458,715 252,0 455,-320 455,-715l0 -54c0,-27 -5,-63 -9,-95 -9,-22 -14,-45 -23,-67zm-220 220c0,279 -140,463 -207,463 -72,0 -212,-180 -212,-463l0 -54c0,-9 0,-27 5,-40 4,-9 4,-18 9,-27 32,-81 112,-135 198,-135 81,0 162,54 193,135 5,9 9,22 9,31 5,14 5,32 5,41l0 49z"/>
    <path fill="white" d="M3670 1695c-1089,0 -1975,887 -1975,1975 0,1084 882,1970 1975,1970 1088,0 1970,-886 1970,-1970 0,-1089 -886,-1975 -1970,-1975zm0 3675c-239,0 -459,-50 -661,-130l0 -797c58,-36 288,-180 688,-184l0 -9 0 9c337,4 535,103 630,167l9 814c-207,80 -432,130 -666,130l0 0zm913 -265l0 -716c0,-53 -23,-89 -41,-107 -18,-18 -274,-261 -827,-270l-41 0c-553,9 -863,251 -877,265 0,0 -49,45 -49,121l4 711c-472,-306 -787,-836 -787,-1439 0,-940 765,-1705 1705,-1705 940,0 1700,765 1700,1705 0,603 -315,1129 -787,1435l0 0z"/>
   </g>
  </g>
 </g>
</svg>
