<?xml version="1.0" encoding="UTF-8"?>
<!DOCTYPE svg PUBLIC "-//W3C//DTD SVG 1.0//EN" "http://www.w3.org/TR/2001/REC-SVG-20010904/DTD/svg10.dtd">
<!-- Creator: CorelDRAW X7 -->
<svg xmlns="http://www.w3.org/2000/svg" xml:space="preserve" width="50px" height="50px" version="1.0" shape-rendering="geometricPrecision" text-rendering="geometricPrecision" image-rendering="optimizeQuality" fill-rule="evenodd" clip-rule="evenodd"
viewBox="0 0 28827 28825"
 xmlns:xlink="http://www.w3.org/1999/xlink"
 enable-background="new 0 0 100 100">
 <g id="Layer_x0020_1">
  <metadata id="CorelCorpID_0Corel-Layer"/>
  <rect fill="none" stroke="white" stroke-width="1300.43" x="651" y="650" width="27526" height="27526"/>
  <g id="_1197880368">
   <path fill="white" d="M22771 13484c0,-570 -417,-1041 -961,-1133 -207,-1298 -745,-2514 -1570,-3526 -2597,-3187 -7303,-3667 -10491,-1071 -1417,1156 -2344,2779 -2636,4588 -591,49 -1058,539 -1058,1142 0,596 458,1083 1040,1141 118,796 358,1557 719,2269 -331,294 -543,717 -543,1193 0,884 719,1603 1602,1603 358,0 685,-122 952,-321 753,599 1603,1039 2536,1311 0,3 -1,7 -1,10 0,1132 921,2053 2053,2053 1126,0 2043,-911 2052,-2036 969,-268 1853,-717 2632,-1335 266,197 592,318 948,318 884,0 1603,-720 1603,-1603 0,-475 -212,-898 -541,-1192 361,-714 602,-1480 719,-2279 536,-99 945,-567 945,-1132zm-502 0c0,358 -292,650 -650,650 -358,0 -650,-292 -650,-650 0,-358 292,-649 650,-649 358,0 650,291 650,649zm-15710 0c0,-358 291,-649 649,-649 359,0 650,291 650,649 0,358 -291,650 -650,650 -358,0 -649,-292 -649,-650zm2314 5703c-606,0 -1100,-493 -1100,-1100 0,-606 494,-1099 1100,-1099 607,0 1101,493 1101,1099 0,607 -494,1100 -1101,1100zm5540 3054c-855,0 -1550,-696 -1550,-1551 0,-855 695,-1551 1550,-1551 855,0 1551,696 1551,1551 0,855 -696,1551 -1551,1551zm5632 -3054c-607,0 -1100,-494 -1100,-1100 0,-607 494,-1100 1100,-1100 607,0 1100,493 1100,1100 0,606 -494,1100 -1100,1100zm0 -2703c-884,0 -1602,719 -1602,1603 0,345 112,663 298,925 -695,543 -1478,943 -2335,1191 -220,-897 -1028,-1566 -1992,-1566 -955,0 -1757,656 -1986,1540 -823,-251 -1577,-641 -2248,-1167 186,-261 297,-578 297,-922 0,-884 -719,-1603 -1603,-1603 -226,0 -440,48 -636,133 -320,-646 -536,-1334 -643,-2053 446,-159 766,-581 766,-1081 0,-493 -313,-911 -749,-1075 275,-1682 1137,-3190 2455,-4265 2973,-2421 7362,-1973 9784,999 758,930 1256,2045 1455,3237 -482,138 -839,577 -839,1104 0,531 363,975 854,1108 -108,710 -322,1389 -637,2026 -196,-85 -412,-134 -639,-134z"/>
  </g>
 </g>
</svg>
