<?xml version="1.0" encoding="UTF-8"?>
<!DOCTYPE svg PUBLIC "-//W3C//DTD SVG 1.1//EN" "http://www.w3.org/Graphics/SVG/1.1/DTD/svg11.dtd">
<!-- Creator: CorelDRAW X7 -->
<svg xmlns="http://www.w3.org/2000/svg" xml:space="preserve" width="50px" height="50px" version="1.1" style="shape-rendering:geometricPrecision; text-rendering:geometricPrecision; image-rendering:optimizeQuality; fill-rule:evenodd; clip-rule:evenodd"
viewBox="0 0 224123 224123"
 xmlns:xlink="http://www.w3.org/1999/xlink">
 <defs>
  <style type="text/css">
   <![CDATA[
    .fil0 {fill:none}
    .fil1 {fill:white}
    .fil2 {fill:white;fill-rule:nonzero}
   ]]>
  </style>
 </defs>
 <g id="Layer_x0020_1">
  <metadata id="CorelCorpID_0Corel-Layer"/>
  <rect class="fil0" x="-3" y="-3" width="224128" height="224128"/>
  <g id="_1310736544">
   <path class="fil1" d="M95734 165720l-9027 -9027c8444,-14067 16883,-28139 25328,-42212l25329 42212 -9033 9027c-10864,0 -21728,0 -32597,0l0 0zm1143 -2753l5914 0 0 -5109 -11028 0 5114 5109zm8667 0l12977 0 0 -5109 -12977 0 0 5109zm15730 0l5919 0 5114 -5109 -11033 0 0 5109zm-30401 -7862l12167 0 6088 -30427 -18255 30427zm14978 0l12368 0 -6184 -30930 -6184 30930zm15174 0l12172 0 -18255 -30427 6083 30427z"/>
   <path class="fil2" d="M55046 58403c-5411,0 -9832,4420 -9832,9831 0,5094 3918,9308 8890,9784 -821,1435 -1298,3098 -1298,4866 0,5411 4421,9832 9832,9832 556,0 1096,-53 1626,-138 -191,768 -297,1567 -297,2393 0,5411 4421,9832 9832,9832 1615,0 3145,-397 4489,-1096 339,5109 4617,9186 9811,9186 2382,0 4580,-863 6284,-2287 1155,4140 4967,7200 9467,7200 3420,0 6443,-1768 8206,-4431 1747,2758 4823,4600 8312,4600 4538,0 8376,-3113 9499,-7306 1694,1387 3859,2224 6210,2224 5204,0 9488,-4088 9811,-9213 1360,715 2906,1123 4542,1123 5411,0 9832,-4421 9832,-9832 0,-826 -106,-1625 -297,-2393 530,85 1070,138 1626,138 5411,0 9826,-4421 9826,-9832 0,-1774 -471,-3436 -1302,-4876 4929,-519 8799,-4712 8799,-9774 0,-5411 -4421,-9831 -9832,-9831 -5411,0 -9831,4420 -9831,9831 0,1774 476,3436 1302,4871 -4929,524 -8794,4718 -8794,9779 0,826 101,1625 297,2393 -530,-90 -1070,-138 -1626,-138 -5204,0 -9487,4088 -9810,9213 -1361,-715 -2902,-1123 -4543,-1123 -4537,0 -8376,3108 -9498,7307 -1694,-1388 -3860,-2224 -6211,-2224 -3420,0 -6443,1768 -8206,4431 -1742,-2758 -4818,-4600 -8312,-4600 -2383,0 -4574,862 -6285,2287 -1154,-4141 -4966,-7201 -9466,-7201 -1620,0 -3145,397 -4495,1096 -333,-5114 -4611,-9186 -9805,-9186 -556,0 -1096,53 -1626,138 191,-768 297,-1567 297,-2393 0,-5093 -3918,-9308 -8895,-9784 826,-1440 1297,-3097 1297,-4866 0,-5411 -4415,-9831 -9826,-9831l0 0zm0 3145c3706,0 6682,2975 6682,6686 0,2478 -1329,4622 -3320,5777 -180,90 -355,180 -529,275 -863,402 -1816,635 -2838,635 -3706,0 -6682,-2975 -6682,-6687 0,-3711 2976,-6686 6682,-6686l5 0zm114036 0c3712,0 6682,2975 6682,6686 0,3712 -2970,6687 -6682,6687 -863,0 -1689,-169 -2440,-460 -392,-239 -800,-450 -1223,-630 -1822,-1192 -3024,-3241 -3024,-5597 0,-3711 2976,-6686 6687,-6686zm-106444 14649c3712,0 6687,2976 6687,6687 0,1710 -641,3261 -1689,4442 -339,275 -662,572 -958,884 -1123,853 -2515,1356 -4040,1356 -3711,0 -6687,-2971 -6687,-6682 0,-2478 1335,-4622 3320,-5781 180,-85 355,-175 529,-276 863,-397 1822,-630 2838,-630l0 0zm98947 0c869,0 1689,170 2441,461 392,238 800,445 1223,630 1827,1186 3023,3240 3023,5596 0,3711 -2975,6682 -6687,6682 -1519,0 -2911,-503 -4034,-1351 -302,-317 -625,-619 -969,-894 -1043,-1181 -1678,-2727 -1678,-4437 0,-3711 2975,-6687 6681,-6687zm-87786 12087c3711,0 6681,2976 6681,6687 0,911 -180,1774 -503,2563 -307,444 -571,916 -799,1413 -1218,1642 -3166,2711 -5379,2711 -3712,0 -6687,-2975 -6687,-6687 0,-1710 641,-3261 1689,-4442 339,-275 656,-572 958,-889 1123,-847 2515,-1356 4040,-1356l0 0zm76631 0c1520,0 2912,509 4034,1356 302,317 625,619 969,894 1043,1176 1679,2727 1679,4437 0,3712 -2970,6687 -6682,6687 -2303,0 -4315,-1144 -5517,-2896 -164,-334 -344,-651 -540,-958 -402,-858 -630,-1816 -630,-2833 0,-3711 2976,-6681 6687,-6681l0 -6zm-62331 8090c3711,0 6682,2976 6682,6687 0,619 -90,1212 -244,1779 -48,148 -95,296 -138,445 -910,2605 -3372,4458 -6300,4458 -3711,0 -6687,-2971 -6687,-6682 0,-911 180,-1779 508,-2562 302,-451 567,-922 800,-1414 1212,-1647 3161,-2711 5379,-2711l0 0zm47978 0c2303,0 4315,1144 5517,2896 164,334 344,651 540,959 397,857 630,1815 630,2832 0,3711 -2976,6682 -6687,6682 -2944,0 -5422,-1875 -6322,-4506 -21,-85 -53,-164 -79,-244 -185,-614 -281,-1260 -281,-1932 0,-3711 2971,-6687 6682,-6687l0 0zm-32227 4919c3711,0 6687,2970 6687,6681 0,3712 -2976,6687 -6687,6687 -3711,0 -6682,-2975 -6682,-6687 0,-619 90,-1212 244,-1779 48,-148 95,-296 138,-450 910,-2599 3372,-4458 6300,-4458l0 6zm16518 164c2944,0 5422,1879 6322,4511 21,79 53,158 79,243 186,609 281,1260 281,1933 0,3711 -2970,6681 -6682,6681 -3711,0 -6686,-2970 -6686,-6681 0,-3712 2975,-6687 6686,-6687l0 0z"/>
  </g>
 </g>
</svg>
