<?xml version="1.0" encoding="utf-8"?>
<!-- Generator: Adobe Illustrator 19.1.1, SVG Export Plug-In . SVG Version: 6.00 Build 0)  -->
<svg version="1.1" id="Layer_1" xmlns="http://www.w3.org/2000/svg" xmlns:xlink="http://www.w3.org/1999/xlink" x="0px" y="0px"
	 viewBox="-124 126 50 50" style="enable-background:new -124 126 50 50;" xml:space="preserve">
<style type="text/css">
	.st0{fill:none;}
	.st1{fill:#FFFFFF;}
</style>
<g id="Layer_x0020_1">
	<rect x="-124" y="126" class="st0" width="50" height="50"/>
</g>
<g>
	<path class="st1" d="M-85.6,147.6c0.7,0,1.2,0.5,1.2,1.2s-0.5,1.2-1.2,1.2s-1.2-0.5-1.2-1.2C-86.8,148.1-86.2,147.6-85.6,147.6
		 M-112.4,147.6c0.7,0,1.2,0.5,1.2,1.2s-0.5,1.2-1.2,1.2l0,0c-0.7,0-1.2-0.5-1.2-1.2S-113.1,147.6-112.4,147.6 M-88.6,155.3
		c1.1,0,2.1,0.9,2.1,2.1s-0.9,2.1-2.1,2.1c-1.1,0-2.1-0.9-2.1-2.1S-89.7,155.3-88.6,155.3 M-109.4,155.3c1.1,0,2.1,0.9,2.1,2.1
		s-0.9,2.1-2.1,2.1c-1.1,0-2.1-0.9-2.1-2.1S-110.5,155.3-109.4,155.3 M-97.2,160.9c0.9,0,1.7,0.8,1.7,1.7c0,2-2.8,3.2-3.5,3.5
		c-0.7-0.3-3.5-1.5-3.5-3.5c0-0.9,0.8-1.7,1.7-1.7c0.6,0,1.1,0.3,1.4,0.8l0.4,0.6l0.4-0.6C-98.3,161.3-97.8,160.9-97.2,160.9
		 M-85.6,146.2c-1.4,0-2.5,1.1-2.5,2.5s1.1,2.5,2.5,2.5s2.5-1.1,2.5-2.5C-83,147.4-84.2,146.2-85.6,146.2L-85.6,146.2z
		 M-112.4,146.2c-1.4,0-2.5,1.1-2.5,2.5s1.1,2.5,2.5,2.5s2.5-1.1,2.5-2.5C-109.9,147.4-111,146.2-112.4,146.2L-112.4,146.2z
		 M-88.6,153.9c-1.9,0-3.4,1.5-3.4,3.4s1.5,3.4,3.4,3.4s3.4-1.5,3.4-3.4S-86.7,153.9-88.6,153.9L-88.6,153.9z M-109.4,153.9
		c-1.9,0-3.4,1.5-3.4,3.4s1.5,3.4,3.4,3.4s3.4-1.5,3.4-3.4S-107.6,153.9-109.4,153.9L-109.4,153.9z M-97.2,159.6
		c-0.7,0-1.3,0.2-1.8,0.6c-0.5-0.4-1.1-0.6-1.8-0.6c-1.7,0-3,1.4-3,3c0,2.8,3.3,4.3,4.3,4.7l0.5,0.2l0.5-0.2c1.3-0.5,4.3-2,4.3-4.7
		C-94.2,160.9-95.5,159.6-97.2,159.6L-97.2,159.6z"/>
	<g>
		<path class="st1" d="M-111.7,150.4l-1.3-0.1c0.2,1.8,0.8,3.5,1.6,5.1l1.2-0.6C-111,153.6-111.5,152.1-111.7,150.4z"/>
		<path class="st1" d="M-99,135.9c6.5,0,11.8,4.8,12.7,11h1.3c-0.9-7-6.9-12.3-14-12.3c-7.2,0-13.1,5.4-14,12.3h1.3
			C-110.8,140.7-105.5,135.9-99,135.9z"/>
		<path class="st1" d="M-107.2,158.7l-0.9,1c1.5,1.2,3.2,2.2,5.1,2.8l0.2-1.3C-104.4,160.6-105.9,159.7-107.2,158.7z"/>
		<path class="st1" d="M-95.2,161.1l0.2,1.3c1.9-0.6,3.6-1.5,5.1-2.7l-1-0.9C-92.2,159.8-93.6,160.6-95.2,161.1z"/>
		<path class="st1" d="M-86.3,150.4c-0.2,1.7-0.7,3.2-1.5,4.7l1.2,0.5c0.8-1.5,1.4-3.3,1.6-5.1L-86.3,150.4z"/>
	</g>
</g>
</svg>
