<?xml version="1.0" encoding="UTF-8"?>
<!DOCTYPE svg PUBLIC "-//W3C//DTD SVG 1.1//EN" "http://www.w3.org/Graphics/SVG/1.1/DTD/svg11.dtd">
<!-- Creator: CorelDRAW X7 -->
<svg xmlns="http://www.w3.org/2000/svg" xml:space="preserve" width="50px" height="50px" version="1.1" style="shape-rendering:geometricPrecision; text-rendering:geometricPrecision; image-rendering:optimizeQuality; fill-rule:evenodd; clip-rule:evenodd"
viewBox="0 0 651814 651814"
 xmlns:xlink="http://www.w3.org/1999/xlink">
 <defs>
  <style type="text/css">
   <![CDATA[
    .str0 {stroke:#673B6D;stroke-width:11732.5}
    .fil0 {fill:none}
    .fil1 {fill:#673B6D}
   ]]>
  </style>
 </defs>
 <g id="Layer_x0020_1">
  <metadata id="CorelCorpID_0Corel-Layer"/>
  <rect class="fil0" width="651814" height="651814"/>
  <path class="fil1 str0" d="M511425 312881l-117618 129611c0,0 -6405,4943 -13118,-1154 -6728,-6097 -585,-12025 -585,-12025l104668 -115339 -109887 -99710c0,0 -5759,-6313 -201,-12441 5574,-6143 14027,-693 14027,-693l122714 111751z"/>
  <path class="fil1" d="M186642 299455l278546 0c13918,0 25189,6482 25189,14488l0 3634c0,8007 -11271,14519 -25189,14519l-278546 0c-21110,0 -21802,-32641 0,-32641z"/>
 </g>
</svg>
