<?xml version="1.0" encoding="UTF-8"?>
<!DOCTYPE svg PUBLIC "-//W3C//DTD SVG 1.1//EN" "http://www.w3.org/Graphics/SVG/1.1/DTD/svg11.dtd">
<!-- Creator: CorelDRAW X7 -->
<svg xmlns="http://www.w3.org/2000/svg" xml:space="preserve" width="120px" height="120px" version="1.1" style="shape-rendering:geometricPrecision; text-rendering:geometricPrecision; image-rendering:optimizeQuality; fill-rule:evenodd; clip-rule:evenodd"
viewBox="0 0 3404235 3404235"
 xmlns:xlink="http://www.w3.org/1999/xlink">
 <defs>
  <style type="text/css">
   <![CDATA[
    .str1 {stroke:black;stroke-width:28109.7}
    .str0 {stroke:#30B8C8;stroke-width:7010.82}
    .fil3 {fill:none}
    .fil1 {fill:#F0F3F3}
    .fil0 {fill:#E9E9E9}
    .fil2 {fill:#30B8C8}
   ]]>
  </style>
 </defs>
 <g id="Layer_x0020_1">
  <metadata id="CorelCorpID_0Corel-Layer"/>
  <g id="_1728549744">
   <path class="fil0" d="M876785 212086c824186,-454242 1860725,-154737 2315232,668952 454507,823721 154836,1859728 -669351,2313969l-142675 -258603c681246,-375461 928984,-1231844 553290,-1912724 -375694,-680914 -1232542,-928486 -1913788,-552991l-142708 -258603z"/>
   <path class="fil1" d="M2527418 3192150c-824154,454241 -1860725,154736 -2315199,-668985 -454508,-823722 -154837,-1859729 669317,-2313970l142708 258603c-681245,375494 -928983,1231877 -553290,1912758 375694,680880 1232543,928452 1913788,552991l142676 258603z"/>
  </g>
  <g id="_1728561808">
   <path class="fil2 str0" d="M1413295 1642958l72800 -167562 102471 0 -175271 167562zm-73962 -167562l126859 0 -68812 167229 -58047 -167229zm-134734 0l115130 0 59409 167263 -174539 -167263zm59542 -105727l46982 86488 -106524 0 59542 -86488zm113369 -9271l-50006 85858 -46617 -85858 96623 0zm80774 95759l-114433 0 53263 -91273 61170 91273zm55322 -95759l-37446 88151 -58878 -88151 96324 0zm75093 95759l-94962 0 36217 -85126 58745 85126z"/>
   <path class="fil3 str1" d="M911440 1194996c0,-13291 10832,-24156 24156,-24156l953770 0c13291,0 24156,10865 24156,24156l0 652571c0,13324 -10865,24156 -24156,24156l-953770 0c-13324,0 -24156,-10832 -24156,-24156l0 -652571zm399318 814319c0,13290 10865,24155 24155,24155l554453 0c13291,0 24156,-10865 24156,-24155l0 -57416c0,-13258 -10865,-24123 -24156,-24123l-554453 0c-13257,0 -24155,10865 -24155,24123l0 57416zm829303 -66055c-80109,0 -145001,65025 -145034,145001 0,80109 64925,145068 145034,145068 80110,0 145001,-64959 145001,-145068 -33,-79976 -64891,-145001 -145001,-145001l0 0zm-1024178 0c-80076,0 -145001,65025 -145001,145001 0,80109 64925,145068 145001,145068 80110,0 145035,-64959 145035,-145068 0,-79976 -64925,-145001 -145035,-145001l0 0zm1376912 -206570l0 320238c0,13357 -10898,24189 -24189,24189l-75059 0c-13257,0 -28807,-8472 -33492,-22295 -8506,-25152 -25651,-188029 -205906,-188029l-155101 0c-13291,0 -24223,-10865 -24223,-24189l0 -475374c0,-13290 10932,-24156 24189,-24156l254251 0 0 0c13290,0 29704,9370 36449,20833l190754 323827c6812,11430 12327,31665 12327,44956zm-145134 -125829l-103202 -175836c-9037,-15284 -14387,-21298 -26082,-21298l-145068 0c-11696,0 -21165,9470 -21165,21165l0 185471c0,11730 9469,21199 21165,21199l258802 0c16547,0 26482,-12128 15550,-30701z"/>
  </g>
 </g>
</svg>
