<?xml version="1.0" encoding="UTF-8"?>
<!DOCTYPE svg PUBLIC "-//W3C//DTD SVG 1.0//EN" "http://www.w3.org/TR/2001/REC-SVG-20010904/DTD/svg10.dtd">
<!-- Creator: CorelDRAW X7 -->
<svg xmlns="http://www.w3.org/2000/svg" xml:space="preserve" width="50px" height="50px" version="1.0" shape-rendering="geometricPrecision" text-rendering="geometricPrecision" image-rendering="optimizeQuality" fill-rule="evenodd" clip-rule="evenodd"
viewBox="0 0 1684 1684"
 xmlns:xlink="http://www.w3.org/1999/xlink">
 <g id="Layer_x0020_1">
  <metadata id="CorelCorpID_0Corel-Layer"/>
  <rect fill="none" width="1684" height="1684"/>
  <g id="_1738244464">
   <path fill="#9538A3" d="M587 1235c-35,-52 -61,-113 -78,-180l2 2 0 0 2 0 11 -6 -9 4c18,61 42,117 70,165l0 -208 0 221 2 0 0 2 0 0 0 0zm-56 -197l54 -35 0 0 -54 35 0 0z"/>
   <polygon fill="#9538A3" points="733,1229 594,1229 594,1012 691,1075 707,1137 691,1075 594,1012 594,1229 "/>
   <polygon fill="#9538A3" points="587,1233 585,1233 585,1012 589,1009 594,1012 594,1229 589,1229 587,1231 "/>
   <polygon fill="#9538A3" points="726,1172 700,1081 700,1081 "/>
   <path fill="#9538A3" d="M850 1392l95 -150 0 0 -95 150c0,0 0,0 0,0zm-15 0l0 0 -96 -150 0 0 96 150 0 0 0 0zm6 -5l-6 -11 6 11zm100 -152l-100 -65 -98 65 0 0 98 -65 100 65 0 0z"/>
   <path fill="#9538A3" d="M733 1229l0 0 -26 -92 26 92 0 0zm6 -2l-13 -55 13 55 96 -61 -135 -85 0 0 135 85 -96 61 0 0 0 0z"/>
   <polygon fill="#9538A3" points="737,1229 733,1229 733,1229 707,1137 691,1075 691,1075 700,1081 700,1081 700,1081 726,1172 739,1227 "/>
   <polygon fill="#9538A3" points="743,1235 741,1231 739,1227 835,1166 839,1170 841,1170 "/>
   <polygon fill="#9538A3" points="741,1231 741,1231 741,1231 741,1231 737,1229 737,1229 739,1227 "/>
   <path fill="#9538A3" d="M841 1398l0 0 4 0 5 -6c41,-3 82,-16 121,-37l3 -5 2 5 2 2 0 0 2 0 -6 4c-42,24 -87,37 -133,37l0 0 0 0zm0 -11l0 0 100 -152 0 0 -100 152zm130 -78l-19 -72 0 0 19 72 0 0z"/>
   <polygon fill="#9538A3" points="841,1398 845,1396 845,1394 841,1387 941,1235 941,1235 941,1235 943,1235 945,1242 850,1392 845,1398 "/>
   <path fill="#9538A3" d="M841 1398c-48,0 -93,-13 -137,-41l0 0 3 0 2 -2 2 -5c39,26 80,39 124,42l4 6 2 0 0 0 0 0zm-6 -22l-92 -141 0 0 92 141z"/>
   <path fill="#9538A3" d="M841 1398l-2 0 -4 -6c0,0 0,0 0,0l-96 -150 2 -7 2 0 0 0 0 0 92 141 6 11 -2 7 0 2 2 2 0 0 0 0z"/>
   <polygon fill="#9538A3" points="741,1235 741,1235 741,1233 741,1233 741,1231 743,1235 "/>
   <polygon fill="#9538A3" points="741,1233 741,1231 741,1231 741,1231 "/>
   <polygon fill="#9538A3" points="841,1398 841,1398 839,1396 839,1394 841,1387 845,1394 845,1396 "/>
   <path fill="#9538A3" d="M702 1346c0,0 0,0 0,0l31 -109 0 0 -31 109 0 0z"/>
   <path fill="#9538A3" d="M704 1357l0 0c-45,-28 -84,-70 -117,-122l0 0 2 2 144 0 -137 0c32,46 67,83 106,109l0 6 2 5 0 0 0 0z"/>
   <polygon fill="#9538A3" points="589,1237 587,1235 587,1233 "/>
   <polygon fill="#9538A3" points="733,1237 589,1237 591,1237 594,1233 594,1229 733,1229 733,1233 "/>
   <polygon fill="#9538A3" points="589,1237 589,1237 587,1233 587,1231 589,1229 594,1229 594,1233 591,1237 "/>
   <polygon fill="#9538A3" points="733,1233 733,1229 737,1229 735,1231 735,1233 735,1233 "/>
   <polygon fill="#9538A3" points="735,1233 735,1231 737,1229 737,1229 741,1231 741,1231 737,1229 "/>
   <path fill="#9538A3" d="M711 1352c0,0 0,0 0,0l28 -110 0 0 -28 108 0 2 0 0z"/>
   <line fill="#9538A3" x1="739" y1="1242" x2="739" y2= "1242" />
   <path fill="#9538A3" d="M704 1357l0 0 -2 -5 0 -6c0,0 0,0 0,0l31 -109 0 0 2 0 4 5 -28 110c0,0 0,0 0,0l-2 3 -2 2 -3 0 0 0 0 0z"/>
   <polygon fill="#9538A3" points="735,1237 733,1237 733,1233 735,1235 735,1235 735,1235 "/>
   <polygon fill="#9538A3" points="739,1242 739,1242 739,1242 735,1237 737,1237 739,1237 741,1235 "/>
   <polygon fill="#9538A3" points="737,1237 735,1237 735,1235 735,1235 "/>
   <polygon fill="#9538A3" points="735,1235 735,1235 733,1233 735,1233 735,1233 733,1233 "/>
   <polygon fill="#9538A3" points="737,1237 737,1237 741,1235 741,1233 741,1235 741,1235 739,1237 "/>
   <polygon fill="#9538A3" points="737,1237 737,1237 737,1237 735,1235 733,1233 735,1233 737,1229 741,1231 741,1233 741,1235 "/>
   <path fill="#9538A3" d="M1204 842c0,0 0,0 0,0l-2 0 0 -2 -7 -11c0,-67 -9,-130 -26,-191l4 -4 2 -5c18,68 29,139 29,213l0 0 0 0 0 0zm-9 0l-100 -152 0 0 100 152zm-98 -169l0 0 70 -44c0,0 0,0 0,0l-70 44z"/>
   <path fill="#9538A3" d="M1099 1003l0 0 96 -148 -96 148zm-8 0l-39 -146 0 0 39 146 0 0zm104 -174l-96 -147 0 0 96 147c0,0 0,0 0,0zm-143 -2l0 0 39 -145 0 0 -39 145z"/>
   <path fill="#9538A3" d="M1195 842l-100 -152 2 -6 2 -2 96 147c0,0 0,0 0,0l7 11 0 2 -3 -4 -4 2 0 2 0 0 0 0z"/>
   <path fill="#9538A3" d="M1091 1229l-139 0 41 -154 98 -63 0 217 0 0zm0 -217l-98 63 -41 154 139 0 0 -217 0 0zm-115 99l8 -30 0 0 -8 30z"/>
   <path fill="#9538A3" d="M995 1064l0 0 96 -61 0 0 -96 61 0 0zm100 -70l-39 -152 0 0 39 152 0 0zm-50 -111l7 -26 -7 26zm0 -34l2 -7 -2 7z"/>
   <polygon fill="#9538A3" points="1091,1003 1091,1003 1091,1003 1052,857 1052,857 1054,844 1054,844 1056,842 1095,994 1091,1001 "/>
   <polygon fill="#9538A3" points="993,1075 993,1072 995,1064 1091,1003 1091,1005 1091,1012 "/>
   <polygon fill="#9538A3" points="1091,1005 1091,1003 1091,1001 1091,1003 1091,1003 "/>
   <path fill="#9538A3" d="M980 1357l0 0 2 -5 -11 -43 9 37 2 0c39,-26 74,-63 104,-109l-134 0 143 0 2 -2c-32,50 -69,89 -110,117l-7 5 0 0 0 0 0 0zm-6 -7l-29 -108 0 0 29 108 0 0 0 0z"/>
   <line fill="#9538A3" x1="945" y1="1242" x2="945" y2= "1242" />
   <polygon fill="#9538A3" points="978,1357 978,1357 976,1355 974,1350 974,1350 945,1242 950,1237 952,1237 952,1237 971,1309 982,1352 980,1357 980,1357 "/>
   <polygon fill="#9538A3" points="945,1242 943,1235 943,1235 945,1237 948,1237 950,1237 "/>
   <polygon fill="#9538A3" points="1095,1237 952,1237 950,1233 952,1229 1091,1229 1091,1233 1093,1237 "/>
   <polygon fill="#9538A3" points="952,1237 950,1237 950,1235 950,1235 950,1233 950,1233 "/>
   <polygon fill="#9538A3" points="950,1237 948,1237 945,1237 948,1237 950,1235 950,1235 "/>
   <polygon fill="#9538A3" points="943,1227 850,1166 984,1081 984,1081 850,1166 943,1227 976,1111 "/>
   <polygon fill="#9538A3" points="941,1235 841,1170 843,1170 850,1166 943,1227 943,1231 "/>
   <polygon fill="#9538A3" points="841,1170 839,1170 841,1170 843,1170 "/>
   <polygon fill="#9538A3" points="943,1235 941,1235 943,1231 943,1233 943,1233 "/>
   <polygon fill="#9538A3" points="952,1229 948,1229 943,1227 976,1111 984,1081 984,1081 984,1081 993,1075 993,1075 "/>
   <polygon fill="#9538A3" points="943,1231 943,1227 948,1229 948,1229 948,1229 "/>
   <polygon fill="#9538A3" points="943,1233 943,1233 943,1231 943,1231 943,1231 "/>
   <polygon fill="#9538A3" points="993,1075 993,1072 "/>
   <polygon fill="#9538A3" points="945,1237 943,1235 943,1235 943,1235 943,1233 943,1235 "/>
   <polygon fill="#9538A3" points="950,1233 950,1233 950,1233 950,1231 948,1229 952,1229 "/>
   <path fill="#9538A3" d="M950 1233l-2 -4 0 0 2 2 0 2 0 0 0 0zm-7 -2l0 0 5 -2 0 0 -5 2 0 0 0 0z"/>
   <polygon fill="#9538A3" points="950,1235 950,1233 950,1233 950,1233 950,1233 950,1233 "/>
   <polygon fill="#9538A3" points="948,1237 945,1237 943,1235 943,1233 943,1231 948,1229 950,1233 950,1233 950,1235 "/>
   <path fill="#9538A3" d="M1097 1235l0 0 0 -2 0 0 0 -221 72 45 2 0 2 0 2 -2c-17,67 -43,128 -78,180l0 0 0 0 0 0zm0 -223l0 208c31,-48 55,-104 70,-165l-70 -43 0 0z"/>
   <polygon fill="#9538A3" points="1097,1233 1097,1231 1095,1229 1091,1229 1091,1012 1095,1009 1099,1012 1099,1233 "/>
   <polygon fill="#9538A3" points="1091,1012 1091,1005 1091,1005 1091,1005 1093,1007 1095,1009 "/>
   <polygon fill="#9538A3" points="1091,1005 1091,1005 1091,1005 1091,1005 1091,1003 "/>
   <polygon fill="#9538A3" points="1095,1237 1095,1237 1097,1233 1097,1235 "/>
   <polygon fill="#9538A3" points="1095,1237 1095,1237 1093,1237 1091,1233 1091,1229 1095,1229 1097,1231 1097,1233 "/>
   <path fill="#9538A3" d="M1175 1055c0,0 0,0 0,0l-2 -4 -74 -48 0 0 70 45c17,-60 26,-125 26,-193l7 -11 0 0 2 -2c0,74 -11,146 -29,213l0 0 0 0 0 0zm-80 -61l0 0 100 -152 0 0 -100 152 0 0z"/>
   <path fill="#9538A3" d="M1202 844l0 -2 2 0c0,0 0,0 0,0l-2 2zm-7 -2l0 0 0 0 0 0z"/>
   <path fill="#9538A3" d="M1099 1003l-2 0 -2 -9 100 -152 0 2 4 3 0 0 3 -3 0 0 -7 11c0,0 0,0 0,0l-96 148 0 0 0 0z"/>
   <polygon fill="#9538A3" points="1199,847 1199,847 1195,844 1195,842 1195,842 1195,842 1195,840 1199,838 1202,842 1202,844 "/>
   <line fill="none" x1="1095" y1="994" x2="1095" y2= "994" />
   <polygon fill="#9538A3" points="1097,1003 1097,1001 1097,1001 1097,1001 1095,1001 1093,1001 1093,1001 1093,1001 1091,1001 1095,994 1095,994 1095,994 "/>
   <path fill="#9538A3" d="M1091 1003l0 0 0 -2 2 0 0 0 -2 2 0 0 0 0zm6 -2l-2 0 2 0 0 0 0 0 0 0z"/>
   <path fill="#9538A3" d="M1171 1057l-2 0 -70 -45 0 -7 0 -2 74 48 2 4c0,0 0,0 0,0l-2 2 -2 0 0 0 0 0z"/>
   <polygon fill="#9538A3" points="1099,1005 1099,1005 1097,1003 1097,1003 1097,1003 1099,1003 "/>
   <polygon fill="#9538A3" points="1099,1012 1095,1009 1097,1007 1097,1007 1097,1007 1099,1005 "/>
   <polygon fill="#9538A3" points="1097,1007 1097,1003 1099,1005 1099,1005 "/>
   <path fill="#9538A3" d="M1097 1003l0 -2 0 0 0 2 0 0 0 0 0 0 0 0zm-4 -2l0 0 2 0 -2 0 0 0 0 0z"/>
   <polygon fill="#9538A3" points="1095,1009 1093,1007 1091,1005 1093,1007 1095,1007 1097,1007 1097,1007 "/>
   <polygon fill="#9538A3" points="1095,1007 1093,1007 1091,1005 1091,1005 1091,1003 1093,1001 1095,1001 1097,1001 1097,1003 1097,1007 "/>
   <path fill="#9538A3" d="M509 1055l0 0c-20,-67 -28,-139 -28,-213l0 2 0 0 8 11c0,68 9,133 26,193l16 -10 -22 13 0 4c0,0 0,0 0,0l0 0 0 0zm15 -4l61 -39 0 0 -61 39 0 0 0 0z"/>
   <path fill="#9538A3" d="M511 1057l0 0 -2 -2c0,0 0,0 0,0l0 -4 22 -13 54 -35 0 2 0 7 0 0 -61 39 -11 6 -2 0 0 0 0 0z"/>
   <polygon fill="#9538A3" points="585,1012 585,1005 587,1007 587,1007 587,1007 589,1009 "/>
   <polygon fill="#9538A3" points="587,994 489,842 489,842 "/>
   <path fill="#9538A3" d="M585 1003l-96 -148c0,0 0,0 0,0l96 148 0 0 0 0zm9 0l0 0 37 -137 -37 137 0 0zm26 -128l8 -33 -15 -58 15 58 -8 33 0 0zm-131 -46c0,0 0,0 0,0l96 -147 0 0 -96 147 0 0zm131 -48l-26 -99 0 0 26 99 0 0 0 0z"/>
   <line fill="#9538A3" x1="585" y1="1003" x2="585" y2= "1003" />
   <path fill="#9538A3" d="M585 1003l-96 -148c0,0 0,0 0,0l-8 -11 0 0 2 3 2 0 2 -3 2 -2 98 152 0 9 -2 0 0 0 0 0z"/>
   <polygon fill="#9538A3" points="585,1005 585,1003 585,1003 585,1003 587,1003 585,1003 585,1003 "/>
   <polygon fill="#9538A3" points="587,1007 587,1007 585,1005 585,1005 585,1003 585,1005 "/>
   <path fill="#9538A3" d="M594 673l0 0 97 -61 42 -156 0 0 -42 156 -97 61 0 0zm106 -67l26 -94 -26 94 0 0 0 0 0 0z"/>
   <path fill="#9538A3" d="M687 1064l-93 -61 0 0 93 61 0 0 0 0 0 0zm-100 -70l0 0 33 -119 -33 119 0 0zm44 -128l2 -9 -2 9z"/>
   <polygon fill="#9538A3" points="691,1075 594,1012 594,1005 594,1003 687,1064 691,1072 "/>
   <polygon fill="#9538A3" points="594,1012 589,1009 591,1007 594,1005 594,1005 594,1005 594,1005 "/>
   <polygon fill="#9538A3" points="691,1075 691,1075 691,1072 "/>
   <path fill="#9538A3" d="M589 1009l-2 -2 0 0 2 0 0 0 5 -2 -3 2 -2 2 0 0zm5 -4l0 0z"/>
   <line fill="none" x1="587" y1="994" x2="587" y2= "994" />
   <line fill="none" x1="594" y1="1005" x2="594" y2= "1005" />
   <polygon fill="#9538A3" points="594,1003 591,1001 587,994 620,875 628,842 628,844 628,844 633,857 631,866 "/>
   <polygon fill="#9538A3" points="594,1005 594,1005 594,1003 594,1003 591,1001 594,1003 "/>
   <polygon fill="#9538A3" points="594,1005 594,1003 "/>
   <polygon fill="#9538A3" points="587,1003 587,994 587,994 587,994 591,1001 591,1001 591,1001 591,1001 589,1001 587,1001 587,1001 587,1001 "/>
   <path fill="#9538A3" d="M585 1003l0 0 2 0 0 -2 0 0 -2 2 0 0zm6 -2l-2 0 2 0 0 0 0 0 0 0z"/>
   <path fill="#9538A3" d="M594 1003l-3 -2 0 0 0 0 3 2 0 0 0 0 0 0zm-7 -2l0 0 2 0 -2 0 0 0 0 0z"/>
   <polygon fill="#9538A3" points="589,1007 587,1007 587,1007 585,1005 585,1003 587,1001 589,1001 591,1001 594,1003 594,1005 594,1005 "/>
   <path fill="#9538A3" d="M633 827l-13 -46 13 46 19 -74 -19 74 0 0zm-20 -43l-26 -94 0 0 26 94 0 0zm-19 -102l0 0 93 -59 0 0 -93 59 0 0z"/>
   <polygon fill="#9538A3" points="628,842 613,784 587,690 591,684 594,682 594,682 594,682 620,781 633,827 "/>
   <polygon fill="#9538A3" points="594,682 594,679 594,673 691,612 691,612 687,623 "/>
   <polygon fill="#9538A3" points="591,684 594,684 594,682 594,682 594,679 594,682 "/>
   <polygon fill="#9538A3" points="628,844 628,844 628,842 628,842 "/>
   <path fill="#9538A3" d="M587 449l0 0c30,-50 70,-89 111,-117l6 -2 -2 4 0 4 0 0c-39,27 -76,63 -106,109l-7 0 0 2 -2 0 0 0 0 0zm152 -6l-28 -109 0 0 28 109 0 0 0 0z"/>
   <polygon fill="#9538A3" points="733,456 733,456 594,456 594,451 591,449 589,449 589,447 596,447 733,447 733,451 "/>
   <path fill="#9538A3" d="M585 673l-72 -46 -2 0 -2 2 0 0c17,-67 43,-128 78,-180l0 2 -2 0 0 13c-28,48 -52,105 -70,165l70 44 0 0 0 0 0 0z"/>
   <polygon fill="#9538A3" points="589,677 585,673 585,673 585,464 585,451 587,451 587,454 589,456 594,456 594,673 594,673 "/>
   <polygon fill="#9538A3" points="594,679 594,679 594,679 594,679 594,679 591,677 589,677 594,673 "/>
   <path fill="#9538A3" d="M594 682l0 -3 0 0 0 3 0 0 0 0 0 0zm0 -3l0 0 0 0 0 0 0 0 0 0z"/>
   <polygon fill="#9538A3" points="587,451 587,449 589,449 "/>
   <polygon fill="#9538A3" points="594,456 589,456 587,454 587,451 589,449 591,449 594,451 "/>
   <path fill="#9538A3" d="M481 842c0,-74 8,-145 28,-213l0 0 0 5 76 48 0 0 -70 -44c-17,61 -26,124 -26,191l-8 11 0 2 0 0 0 0 0 0zm8 0l0 0 98 -152 0 0 -98 152z"/>
   <path fill="#9538A3" d="M481 844l0 -2 0 0 0 2 0 0 0 0zm8 -2l0 0 0 0 0 0z"/>
   <path fill="#9538A3" d="M489 842l-2 -2 -4 -2 -2 4 0 -2 8 -11c0,0 0,0 0,0l96 -147 0 0 0 0 2 2 0 6 -98 152 0 0 0 0z"/>
   <polygon fill="#9538A3" points="485,847 483,847 481,844 481,842 483,838 487,840 489,842 489,842 487,844 "/>
   <line fill="none" x1="587" y1="690" x2="587" y2= "690" />
   <polygon fill="#9538A3" points="587,690 587,684 587,684 587,684 587,684 589,684 591,684 591,684 591,684 591,684 "/>
   <path fill="#9538A3" d="M589 684l-2 0 0 0 2 0 0 0 0 0zm2 0l3 -2 0 2 -3 0 0 0 0 0 0 0 0 0z"/>
   <polygon fill="#9538A3" points="585,682 509,634 509,629 511,627 513,627 585,673 585,679 "/>
   <polygon fill="#9538A3" points="587,684 585,682 585,679 585,682 585,682 585,682 "/>
   <polygon fill="#9538A3" points="585,679 585,673 589,677 587,677 587,677 587,679 "/>
   <polygon fill="#9538A3" points="585,682 585,682 585,679 587,679 587,677 "/>
   <path fill="#9538A3" d="M589 684l0 0 2 0 0 0 -2 0 0 0 0 0zm-2 0l0 0 0 0 -2 -2 0 0 2 2 0 0 0 0z"/>
   <path fill="#9538A3" d="M594 679l0 0 0 0zm0 0l-5 -2 -2 0 0 0 2 0 2 0 3 2 0 0 0 0z"/>
   <polygon fill="#9538A3" points="589,684 589,684 587,684 585,682 587,677 589,677 594,679 594,679 594,679 594,682 591,684 "/>
   <path fill="#9538A3" d="M1099 682l0 0 70 -44c0,0 0,0 0,0l-70 44 0 0zm76 -53c0,0 0,0 0,0l-2 -2 -4 0 -2 2c-15,-60 -39,-115 -70,-165l0 -13 0 0 0 -2c35,52 61,113 78,180l0 0 0 0 0 0z"/>
   <path fill="#9538A3" d="M1099 682l-2 -3 0 -6 70 -44c0,0 0,0 0,0l2 -2 4 0 2 2c0,0 0,0 0,0l-2 5 -4 4c0,0 0,0 0,0l-70 44 0 0 0 0z"/>
   <line fill="none" x1="1099" y1="682" x2="1099" y2= "682" />
   <polygon fill="#9538A3" points="1097,684 1097,682 1099,682 1099,682 1099,682 1099,679 1099,682 1099,682 "/>
   <path fill="#9538A3" d="M1054 649l-61 -37 -24 -87 24 87 61 37 0 0zm-70 -43l0 0 -17 -61 17 61 0 0z"/>
   <line fill="none" x1="1099" y1="682" x2="1099" y2= "682" />
   <polygon fill="#9538A3" points="1095,677 1091,673 1091,456 1095,456 1097,454 1097,451 1099,451 1099,464 1099,673 "/>
   <polygon fill="#9538A3" points="1099,679 1097,679 1097,677 1097,677 1095,677 1099,673 1099,673 "/>
   <polygon fill="#9538A3" points="1099,682 1097,677 1097,679 1099,679 "/>
   <path fill="#9538A3" d="M841 514l-98 -63 98 63 100 -63 0 0 -100 63 0 0zm-65 -32l-37 -24 0 0 37 24 0 0zm-37 -39l0 0 96 -148c0,0 0,0 0,0l-96 148 0 0z"/>
   <line fill="#9538A3" x1="739" y1="443" x2="739" y2= "443" />
   <polygon fill="#9538A3" points="945,443 850,293 "/>
   <path fill="#9538A3" d="M1056 842l0 0 39 -152 0 0 -39 152 0 0 0 0zm-4 -15l-20 -72 20 72 0 0 0 0zm39 -145l-96 -59 0 0 96 59 0 0z"/>
   <line fill="none" x1="1095" y1="690" x2="1095" y2= "690" />
   <polygon fill="#9538A3" points="1056,842 1054,842 1052,827 1052,827 1052,827 1091,682 1091,682 1091,682 1091,684 1095,690 "/>
   <polygon fill="#9538A3" points="1095,690 1095,690 1095,690 1091,684 1093,684 1093,684 1093,684 1095,684 1097,684 1097,684 1097,684 1097,684 "/>
   <line fill="none" x1="1056" y1="842" x2="1056" y2= "842" />
   <polygon fill="#9538A3" points="1054,844 1054,844 1054,842 1056,842 1056,842 "/>
   <polygon fill="#9538A3" points="1047,842 1045,836 "/>
   <polygon fill="#9538A3" points="1091,673 1054,649 "/>
   <path fill="#9538A3" d="M1095 684l-2 0 0 0 2 0 0 0zm2 0l2 -2 -2 0 0 2 0 0 0 0 0 0 0 0z"/>
   <polygon fill="#9538A3" points="1095,684 1095,684 1097,684 1097,684 "/>
   <polygon fill="#9538A3" points="1091,682 995,623 993,612 993,612 1054,649 1091,673 1091,679 "/>
   <polygon fill="#9538A3" points="1091,684 1091,682 1091,679 1091,682 1091,682 "/>
   <polygon fill="#9538A3" points="1093,684 1093,684 1091,684 1091,684 1091,682 "/>
   <polygon fill="#9538A3" points="1091,679 1091,673 1091,673 1095,677 1093,677 "/>
   <polygon fill="#9538A3" points="1091,679 1093,677 1095,677 1097,677 1097,677 1093,677 "/>
   <polygon fill="#9538A3" points="1091,682 1091,682 1091,679 1091,679 1091,679 1091,679 "/>
   <polygon fill="#9538A3" points="1095,684 1095,684 1093,684 1091,682 1091,679 1091,679 1093,677 1097,677 1099,682 1099,682 1097,684 "/>
   <path fill="#9538A3" d="M984 606l-134 -87 95 -61 22 87 -22 -87 -95 61 134 87 0 0 0 0 0 0zm-15 -81l-17 -69 0 0 17 69z"/>
   <polygon fill="#9538A3" points="993,612 993,610 984,606 984,606 984,606 967,545 943,458 948,456 952,456 969,525 "/>
   <polygon fill="#9538A3" points="850,519 843,517 841,514 941,451 943,454 943,458 "/>
   <polygon fill="#9538A3" points="943,458 943,454 943,454 943,454 943,454 948,456 948,456 "/>
   <polygon fill="#9538A3" points="993,612 993,610 "/>
   <path fill="#9538A3" d="M733 447l0 0 -31 -109 0 0 31 109 0 0zm-22 -113l-2 -2 -2 -4 -3 2 -2 0 0 0 7 -5c43,-26 87,-39 132,-39l0 0 -2 3 0 0 -4 6c-42,0 -83,13 -122,37l-2 2 0 0 0 0z"/>
   <polygon fill="#9538A3" points="735,447 733,447 702,338 702,338 702,334 702,330 704,330 707,328 709,332 711,334 711,334 739,443 "/>
   <polygon fill="#9538A3" points="733,451 733,447 733,447 735,447 735,449 735,451 735,451 "/>
   <polygon fill="#9538A3" points="743,451 743,451 841,297 841,297 "/>
   <path fill="#9538A3" d="M743 451l-2 -2 -2 -6 96 -148c0,0 0,0 0,0l4 -6 0 0 0 0 0 4 2 4 -98 154 0 0 0 0 0 0z"/>
   <polygon fill="#9538A3" points="741,449 739,449 739,449 737,447 735,447 739,443 739,443 739,443 "/>
   <polygon fill="#9538A3" points="735,451 735,449 735,447 737,447 739,449 735,449 "/>
   <path fill="#9538A3" d="M700 606l0 0 135 -87 -59 -37 59 37 -135 87 0 0 0 0zm26 -94l13 -54 0 0 -13 54 0 0z"/>
   <polygon fill="#9538A3" points="691,612 733,456 737,456 739,458 726,512 700,606 700,606 700,606 691,610 "/>
   <polygon fill="#9538A3" points="691,612 691,612 691,612 691,610 "/>
   <polygon fill="#9538A3" points="737,456 733,456 733,451 733,454 733,454 735,454 735,454 735,454 735,456 "/>
   <polygon fill="#9538A3" points="835,519 776,482 739,458 739,458 739,458 741,454 743,451 841,514 839,517 "/>
   <polygon fill="#9538A3" points="739,458 737,456 737,456 737,456 737,456 737,456 741,454 741,454 "/>
   <path fill="#9538A3" d="M737 456l0 0 0 0 0 0 0 0 0 0zm0 0l0 0 -2 0 0 -2 2 2 0 0 0 0 0 0zm-2 -2l-2 0 0 0 2 0 0 0 0 0z"/>
   <polygon fill="#9538A3" points="843,517 843,517 839,517 841,514 "/>
   <path fill="#9538A3" d="M735 454l0 0 0 0 0 0 0 0zm-2 0l0 -3 2 0 0 0 -2 3 0 0 0 0z"/>
   <polygon fill="#9538A3" points="741,454 741,454 741,451 741,451 741,449 741,449 743,451 "/>
   <polygon fill="#9538A3" points="737,456 741,451 741,454 741,454 741,454 "/>
   <polygon fill="#9538A3" points="741,451 741,449 739,449 739,449 741,449 741,449 "/>
   <polygon fill="#9538A3" points="737,456 737,456 737,456 735,454 735,454 733,454 735,451 735,449 739,449 741,449 741,451 "/>
   <path fill="#9538A3" d="M841 1161l-143 -93 -61 -226 61 -226 143 -93 146 93 58 220 -58 -220 -146 -93 -143 93 -61 226 61 226 143 93 146 -93 58 -219 -58 219 -146 93 0 0 0 0zm154 -97l50 -181 -50 181 0 0z"/>
   <polygon fill="#9538A3" points="835,1166 700,1081 698,1072 698,1072 698,1070 698,1068 841,1161 839,1164 "/>
   <polygon fill="#9538A3" points="700,1081 691,1075 693,1075 693,1075 693,1075 698,1072 "/>
   <polygon fill="#9538A3" points="839,1170 839,1170 835,1166 839,1164 839,1166 "/>
   <polygon fill="#9538A3" points="987,1068 1045,849 1047,842 1047,844 1052,857 1045,883 995,1064 995,1064 995,1064 989,1068 "/>
   <polygon fill="#9538A3" points="1052,857 1047,844 1052,847 1054,844 "/>
   <polygon fill="#9538A3" points="993,1072 993,1072 993,1068 989,1068 995,1064 "/>
   <polygon fill="#9538A3" points="850,1166 843,1164 841,1161 987,1068 987,1070 984,1081 "/>
   <polygon fill="#9538A3" points="843,1170 843,1170 845,1166 843,1164 850,1166 "/>
   <polygon fill="#9538A3" points="843,1164 839,1164 841,1161 "/>
   <polygon fill="#9538A3" points="841,1170 839,1170 839,1166 839,1164 843,1164 845,1166 843,1170 "/>
   <polygon fill="#9538A3" points="984,1081 987,1070 989,1075 991,1075 993,1075 "/>
   <polygon fill="#9538A3" points="987,1070 987,1068 989,1068 "/>
   <polygon fill="#9538A3" points="991,1075 989,1075 987,1070 989,1068 993,1068 993,1072 993,1075 "/>
   <path fill="#9538A3" d="M687 1064l0 0 -54 -207 0 0 54 207 0 0zm-35 -311l35 -130 0 0 -35 130 0 0z"/>
   <polygon fill="#9538A3" points="698,1068 696,1068 687,1064 687,1064 687,1064 633,857 633,857 637,844 637,842 "/>
   <polygon fill="#9538A3" points="691,1072 691,1072 687,1064 696,1068 691,1068 "/>
   <polygon fill="#9538A3" points="698,1072 698,1070 696,1068 698,1068 698,1070 "/>
   <polygon fill="#9538A3" points="693,1075 693,1075 693,1075 691,1075 691,1072 691,1068 696,1068 698,1070 698,1072 "/>
   <polygon fill="#9538A3" points="633,857 628,844 628,844 633,847 637,844 "/>
   <polygon fill="#9538A3" points="637,842 637,842 633,827 652,753 687,623 687,623 687,623 696,616 698,616 "/>
   <polygon fill="#9538A3" points="637,842 628,842 633,827 "/>
   <polygon fill="#9538A3" points="687,623 691,612 691,616 693,619 696,616 "/>
   <polygon fill="#9538A3" points="637,844 637,844 637,842 637,842 "/>
   <polygon fill="#9538A3" points="633,847 628,844 628,842 637,842 637,844 "/>
   <polygon fill="#9538A3" points="1032,755 995,623 995,623 "/>
   <polygon fill="#9538A3" points="1047,842 1045,836 987,616 989,616 995,623 995,623 995,623 1032,755 1052,827 "/>
   <polygon fill="#9538A3" points="1054,842 1047,842 1047,842 1052,827 "/>
   <polygon fill="#9538A3" points="1047,844 1047,844 1047,842 1047,842 "/>
   <polygon fill="#9538A3" points="1052,847 1047,844 1047,842 1054,842 1054,844 1054,844 "/>
   <polygon fill="#9538A3" points="995,623 989,616 991,619 993,616 993,612 "/>
   <polygon fill="#9538A3" points="987,616 841,523 843,523 850,519 984,606 987,614 "/>
   <polygon fill="#9538A3" points="987,614 987,614 984,606 993,610 989,610 "/>
   <polygon fill="#9538A3" points="843,523 845,519 843,517 850,519 "/>
   <polygon fill="#9538A3" points="989,616 989,616 987,616 987,614 "/>
   <polygon fill="#9538A3" points="991,619 989,616 987,614 989,610 993,610 993,612 993,616 "/>
   <polygon fill="#9538A3" points="698,616 698,614 698,614 700,606 835,519 839,523 841,523 "/>
   <polygon fill="#9538A3" points="698,614 698,614 696,610 691,610 700,606 "/>
   <polygon fill="#9538A3" points="696,616 696,616 698,614 698,616 "/>
   <polygon fill="#9538A3" points="693,619 691,616 691,612 691,610 696,610 698,614 698,614 696,616 "/>
   <polygon fill="#9538A3" points="839,523 835,519 839,517 839,519 "/>
   <polygon fill="#9538A3" points="841,523 839,523 841,523 843,523 "/>
   <polygon fill="#9538A3" points="841,523 839,523 839,519 839,517 843,517 845,519 843,523 "/>
   <path fill="#9538A3" d="M941 451l-100 -154 100 154 0 0zm33 -117c-40,-26 -81,-39 -124,-39l-5 -6 0 0 -4 -3c48,0 96,13 139,44l0 0 -2 -2 -2 4 -2 2 0 0z"/>
   <path fill="#9538A3" d="M941 451l0 0 0 0 -100 -154 4 -4 0 -4 0 0 0 0 5 4c0,0 0,0 0,0l95 150 -2 6 -2 2 0 0 0 0z"/>
   <polygon fill="#9538A3" points="943,454 941,451 943,449 943,451 943,451 "/>
   <polygon fill="#9538A3" points="943,454 943,454 943,454 943,454 943,451 "/>
   <path fill="#9538A3" d="M841 297l0 0 0 0zm4 -8l-6 0 2 -3 4 3z"/>
   <polygon fill="#9538A3" points="841,297 841,297 839,293 839,289 839,289 845,289 845,289 845,293 "/>
   <path fill="#9538A3" d="M952 447l0 0 28 -109c0,0 0,0 0,0l-28 109z"/>
   <path fill="#9538A3" d="M1097 449l-2 0 0 -2 -9 0c-30,-46 -65,-82 -106,-109l2 -6 -2 -4c46,28 85,69 117,121l0 0 0 0z"/>
   <polygon fill="#9538A3" points="1097,451 1095,449 1097,449 "/>
   <polygon fill="#9538A3" points="1091,456 952,456 950,451 952,447 1086,447 1095,447 1095,449 1093,449 1091,451 "/>
   <polygon fill="#9538A3" points="1095,456 1091,456 1091,451 1093,449 1095,449 1097,451 1097,454 "/>
   <polygon fill="#9538A3" points="952,456 952,456 948,456 950,456 950,454 950,454 950,454 950,451 "/>
   <path fill="#9538A3" d="M948 456l0 0 -5 -2 0 0 5 2 0 0 2 -2 0 2 -2 0 0 0 0 0zm2 -2l0 0z"/>
   <path fill="#9538A3" d="M945 443l0 0 29 -109c0,0 0,0 0,0l-29 109z"/>
   <line fill="none" x1="945" y1="443" x2="945" y2= "443" />
   <path fill="#9538A3" d="M952 447l-2 0 -5 -4 29 -109c0,0 0,0 0,0l2 -2 2 -4 2 2 2 2 -2 6c0,0 0,0 0,0l-28 109 0 0 0 0z"/>
   <polygon fill="#9538A3" points="950,451 950,451 950,451 950,449 950,447 952,447 952,447 "/>
   <polygon fill="#9538A3" points="943,449 945,443 945,443 950,447 948,447 945,449 945,449 "/>
   <polygon fill="#9538A3" points="950,451 948,449 945,449 948,447 950,447 950,449 "/>
   <path fill="#9538A3" d="M950 454l0 0 0 0 0 0 0 0 0 0zm0 0l0 -3 0 0 0 0 0 3 0 0 0 0z"/>
   <polygon fill="#9538A3" points="943,451 943,451 943,449 945,449 945,449 943,449 "/>
   <polygon fill="#9538A3" points="948,456 943,454 943,451 943,449 945,449 948,449 950,451 950,454 950,454 "/>
  </g>
 </g>
</svg>
