<?xml version="1.0" encoding="UTF-8"?>
<!DOCTYPE svg PUBLIC "-//W3C//DTD SVG 1.0//EN" "http://www.w3.org/TR/2001/REC-SVG-20010904/DTD/svg10.dtd">
<!-- Creator: CorelDRAW X7 -->
<svg xmlns="http://www.w3.org/2000/svg" xml:space="preserve" width="50px" height="50px" version="1.0" shape-rendering="geometricPrecision" text-rendering="geometricPrecision" image-rendering="optimizeQuality" fill-rule="evenodd" clip-rule="evenodd"
viewBox="0 0 16521 16521"
 xmlns:xlink="http://www.w3.org/1999/xlink"
 enable-background="new 0 0 100 100">
 <g id="Layer_x0020_1">
  <metadata id="CorelCorpID_0Corel-Layer"/>
  <rect fill="none" width="16521" height="16521"/>
  <g id="_1010274272">
   <path fill="#CCCCCC" d="M11004 8069l-243 0c0,-394 0,-631 0,-1506 0,-1381 -1120,-2501 -2501,-2501 -1381,0 -2500,1120 -2500,2501 0,868 0,1116 0,1506l-243 0c-252,0 -457,206 -457,457l0 3475c0,252 205,457 457,457l5487 0c251,0 457,-205 457,-457l0 -3475c0,-251 -206,-457 -457,-457zm-3994 -1506c0,-691 560,-1250 1250,-1250 691,0 1251,559 1251,1250 0,417 0,970 0,1506l-2501 0c0,-786 0,-986 0,-1506z"/>
  </g>
 </g>
</svg>
