<?xml version="1.0" encoding="UTF-8"?>
<!DOCTYPE svg PUBLIC "-//W3C//DTD SVG 1.0//EN" "http://www.w3.org/TR/2001/REC-SVG-20010904/DTD/svg10.dtd">
<!-- Creator: CorelDRAW X7 -->
<svg xmlns="http://www.w3.org/2000/svg" xml:space="preserve" width="50px" height="50px" version="1.0" style="shape-rendering:geometricPrecision; text-rendering:geometricPrecision; image-rendering:optimizeQuality; fill-rule:evenodd; clip-rule:evenodd"
viewBox="0 0 601143 601143"
 xmlns:xlink="http://www.w3.org/1999/xlink">
 <defs>
  <style type="text/css">
   <![CDATA[
    .fil0 {fill:none}
    .fil1 {fill:#4D4D4D}
    .fil2 {fill:#4D4D4D}
   ]]>
  </style>
 </defs>
 <g id="Layer_x0020_1">
  <metadata id="CorelCorpID_0Corel-Layer"/>
  <rect class="fil0" x="2" y="2" width="601139" height="601139"/>
  <g id="_960664080">
   <rect class="fil0" x="150283" y="150286" width="300586" height="300586"/>
   <path class="fil1" d="M300770 450474c82648,0 149704,-67056 149704,-149704 0,-82648 -67056,-150101 -149704,-150101 -6234,0 -11303,5070 -11303,11304 0,6248 5069,10920 11303,10920 70180,0 127494,57314 127494,127877 0,70180 -57314,127494 -127494,127494 -70563,0 -127877,-57314 -127877,-127494 0,-32363 11702,-62767 33528,-86155l0 30403c0,6234 5070,11304 10920,11304 6234,0 11304,-5055 11304,-11304l0 -55354c0,0 0,0 0,-397 0,0 0,-781 0,-781 0,-384 0,-1165 0,-1563 0,0 0,-781 0,-781 0,-383 -781,-781 -781,-1547 0,0 0,-398 0,-398 0,-781 -383,-1165 -1164,-1562 0,0 0,0 0,0 0,0 0,0 -398,-781 -384,-384 -384,-384 -1165,-1165 0,0 -397,-383 -397,-383 -781,0 -781,-781 -1165,-781 0,0 -781,-398 -781,-398 -383,0 -383,-383 -781,-383 -781,0 -781,0 -1164,0 -781,0 -781,0 -1179,-781 -781,0 -781,0 -1164,0 0,0 -398,0 -398,0l-56135 0c-6234,0 -11304,5069 -11304,11304 0,5850 5056,10920 11304,10920l27294 0c-24568,27677 -38598,62767 -38598,100583 0,82648 67439,149704 150101,149704l0 0z"/>
  </g>
  <g id="_960647792">
   <rect class="fil2" x="268719" y="258126" width="23466" height="92759" rx="5172" ry="3621"/>
   <rect class="fil2" x="308958" y="258126" width="23466" height="92759" rx="5172" ry="3621"/>
  </g>
 </g>
</svg>
