<?xml version="1.0" encoding="UTF-8"?>
<!DOCTYPE svg PUBLIC "-//W3C//DTD SVG 1.0//EN" "http://www.w3.org/TR/2001/REC-SVG-20010904/DTD/svg10.dtd">
<!-- Creator: CorelDRAW X7 -->
<svg xmlns="http://www.w3.org/2000/svg" xml:space="preserve" width="40px" height="40px" version="1.0" shape-rendering="geometricPrecision" text-rendering="geometricPrecision" image-rendering="optimizeQuality" fill-rule="evenodd" clip-rule="evenodd"
viewBox="0 0 11062 11062"
 xmlns:xlink="http://www.w3.org/1999/xlink"
 enable-background="new 0 0 100 100">
 <g id="Layer_x0020_1">
  <metadata id="CorelCorpID_0Corel-Layer"/>
  <rect fill="none" width="11062" height="11062"/>
  <g id="_1212108304">
   <g>
    <path fill="black" d="M8092 3480l-5122 0c-215,0 -390,175 -390,390l0 3322c0,215 175,389 390,389l5122 0c214,0 389,-174 389,-389l0 -3322c0,-215 -175,-390 -389,-390zm-112 501l0 450 -4899 0 0 -450 4899 0zm-4899 3099l0 -1878 4899 0 0 1878 -4899 0z"/>
    <rect fill="black" x="7136" y="5480" width="575" height="575"/>
    <rect fill="black" x="6421" y="5480" width="575" height="575"/>
    <rect fill="black" x="5707" y="5480" width="575" height="575"/>
   </g>
  </g>
 </g>
</svg>
