<?xml version="1.0" encoding="UTF-8"?>
<!DOCTYPE svg PUBLIC "-//W3C//DTD SVG 1.0//EN" "http://www.w3.org/TR/2001/REC-SVG-20010904/DTD/svg10.dtd">
<!-- Creator: CorelDRAW X7 -->
<svg xmlns="http://www.w3.org/2000/svg" xml:space="preserve" width="50px" height="50px" version="1.0" shape-rendering="geometricPrecision" text-rendering="geometricPrecision" image-rendering="optimizeQuality" fill-rule="evenodd" clip-rule="evenodd"
viewBox="0 0 2623 2623"
 xmlns:xlink="http://www.w3.org/1999/xlink">
 <g id="Layer_x0020_1">
  <metadata id="CorelCorpID_0Corel-Layer"/>
  <rect fill="none" width="2623" height="2623"/>
  <g id="_1738203088">
   <path fill="#9538A3" d="M1312 2177l0 0c-169,-10 -308,-57 -403,-132l4 4 0 0 0 0 0 0 3 0 233 -34 0 0 -219 30c54,38 118,68 192,88l-3 7 7 7 0 0 6 -3 4 -7c47,13 101,20 159,27l-132 -142 0 0 145 155 4 0 0 0 0 0z"/>
   <path fill="#9538A3" d="M774 1873l0 0c-30,-64 -44,-142 -51,-223l4 3 169 122 -119 91 -3 7 0 0 0 0zm-34 -213c4,74 17,142 44,199l112 -84 -156 -115 0 0zm129 152l30 -24 0 0 -30 24zm37 -47l-166 -119 0 0 166 119 0 0 0 0 0 0zm-183 -115c0,0 0,-4 0,-4l0 0 0 4 0 0z"/>
   <path fill="#9538A3" d="M909 2045l0 0c-57,-43 -105,-104 -135,-172l0 0 3 3 4 0 3 0 85 -64 -78 61c27,61 64,112 115,152l-7 -237 0 0 7 254 3 3 0 0 0 0 0 0 0 0z"/>
   <path fill="#9538A3" d="M913 2049l0 0 0 0 0 0 0 0 0 0 0 0zm0 0l-4 -4 0 0 4 4 0 0 0 0z"/>
   <polygon fill="#9538A3" points="781,1876 777,1876 774,1873 777,1866 896,1775 899,1778 899,1788 899,1788 899,1788 869,1812 784,1876 "/>
   <path fill="#9538A3" d="M723 1646l0 0c-3,-108 14,-229 51,-361l0 0 0 6 10 7c-34,122 -47,230 -47,332l-10 13 -4 3 0 0 0 0 0 0zm17 0l0 0 176 -233 0 0 -176 233 0 0zm169 -260l-122 -101c0,0 0,0 0,0l122 101 0 0 0 0 0 0z"/>
   <path fill="#9538A3" d="M723 1646l0 0 0 0 0 0 0 0zm17 0l0 0 0 0 0 0 0 0z"/>
   <path fill="#9538A3" d="M909 1403l-125 -105c0,0 0,0 0,0l125 105 0 0 0 0zm0 -17l0 0 7 -426c-54,108 -98,220 -129,325l-3 -4 -7 0 -3 4c30,-115 81,-240 142,-355l0 0 0 0 0 0 -7 456 0 0 0 0z"/>
   <path fill="#9538A3" d="M909 1403l-125 -105 -10 -7 0 -6 3 -4 7 0 3 4c0,0 0,0 0,0l122 101 0 0 0 0 0 14 -3 3 0 0 3 0z"/>
   <path fill="#9538A3" d="M916 930c47,-92 101,-180 156,-257l0 0 0 10 6 7c-50,67 -98,145 -142,226l257 -125 -17 -14 17 14 -274 135 0 0 -3 4 0 0 0 0zm284 -149l-98 -91 98 91 0 0 0 0z"/>
   <polygon fill="#9538A3" points="916,930 916,930 919,926 "/>
   <path fill="#9538A3" d="M1200 781l0 0 98 -311c-64,50 -135,118 -210,206l14 14 -20 -17 -4 0 -6 0 0 0c84,-102 162,-173 236,-227l0 3 -3 0 -105 332 0 0 0 0zm-24 -4l-98 -87c0,0 0,0 0,0l98 87zm112 -230l24 -71 0 0 -24 71zm20 -101c0,0 0,0 0,0l4 0 -4 0 0 0 0 0z"/>
   <path fill="#9538A3" d="M1193 791l-17 -14 -98 -87c0,0 0,0 0,0l-6 -7 0 -10 6 0 4 0 20 17 98 91 0 0 0 0 0 10 -7 0 0 0 0 0z"/>
   <path fill="#9538A3" d="M1170 2008l0 0 142 -67 0 0 -142 67zm-21 -6l-67 -170 0 0 67 170 0 0 0 0 0 0zm139 -65c-34,-7 -85,-20 -132,-50 47,30 98,43 132,50l0 0 0 0zm24 -10c-41,0 -146,-30 -220,-105l0 0c0,0 0,0 0,0l0 0c74,75 179,105 220,105l0 0 0 0 0 0zm-156 -40c0,0 0,0 0,0 0,0 0,0 0,0z"/>
   <path fill="#9538A3" d="M1092 1822l0 0c-51,-54 -78,-128 -85,-230 0,0 0,0 0,0 7,102 34,176 85,230l0 0zm-24 -6l0 0c-3,-4 -3,-4 -3,-4 0,0 0,0 3,4zm-3 -4c0,0 0,0 0,0 0,0 0,0 0,0zm-17 -3l-132 -41 81 -152c0,0 0,0 0,0l-81 152 132 41 0 0 0 0z"/>
   <path fill="#9538A3" d="M997 1565l0 0c10,-115 37,-223 81,-318 -44,95 -71,203 -81,318l0 0 0 0zm-74 -182l0 0 199 -217 0 0 -199 217z"/>
   <path fill="#9538A3" d="M1132 1173c55,-88 122,-155 159,-199l4 -4 -4 7c-37,41 -104,108 -159,196l0 0 0 0zm-10 -7l37 -189 -37 189 0 0zm34 -50c0,0 0,0 0,0 0,0 0,0 0,0zm0 0c17,-24 31,-44 47,-65 -16,21 -30,41 -47,65zm10 -102l41 -203 98 132 0 0 -98 -132 -41 203 0 0z"/>
   <line fill="#9538A3" x1="1122" y1="1166" x2="1122" y2= "1166" />
   <path fill="#9538A3" d="M926 1403l0 0 166 -186c0,0 0,0 0,0l-166 186 0 0 0 0zm-3 -20l7 -447 263 -128 -34 169 34 -169 -263 128 -7 447 0 0 0 0 0 0z"/>
   <polygon fill="#9538A3" points="916,1393 909,1386 916,930 916,930 916,936 923,940 926,936 930,936 923,1383 "/>
   <polygon fill="#9538A3" points="909,1400 909,1386 916,1393 913,1396 913,1396 913,1396 "/>
   <polygon fill="#9538A3" points="930,936 930,933 923,926 919,926 919,926 1193,791 1197,798 1193,808 "/>
   <polygon fill="#9538A3" points="923,940 916,936 916,930 919,926 923,926 930,933 930,936 926,936 "/>
   <polygon fill="#9538A3" points="1197,798 1193,791 1200,791 1197,791 1197,794 1197,794 "/>
   <path fill="#9538A3" d="M926 1403l-3 -3 0 -17 0 0 0 0 199 -217 0 0c-10,17 -20,34 -30,51l-166 186 0 0z"/>
   <polygon fill="#9538A3" points="923,1400 923,1400 923,1396 923,1396 916,1393 923,1383 "/>
   <polygon fill="#9538A3" points="923,1396 919,1393 913,1396 913,1396 916,1393 "/>
   <path fill="#9538A3" d="M1143 1132l23 -118 -23 118c0,0 0,0 0,0l0 0z"/>
   <path fill="#9538A3" d="M1122 1166l37 -189 34 -169 10 -4 4 7 -41 203 -23 118c-7,11 -14,21 -21,31l0 3 0 0 0 0z"/>
   <polygon fill="#9538A3" points="1193,808 1197,798 1200,798 1203,804 "/>
   <polygon fill="#9538A3" points="1200,798 1197,798 1197,794 1197,794 "/>
   <path fill="#9538A3" d="M1122 1166l0 0 0 0 0 0 0 -3c0,0 0,0 0,0 0,3 0,3 0,3l0 0 0 0z"/>
   <path fill="#9538A3" d="M906 1765l0 0 88 -173 -78 -179 0 0 78 179 -88 173 0 0 0 0zm-183 -115l0 0 0 0c0,0 0,0 0,0l0 0 0 0zm14 -20c0,0 0,0 0,0l172 -227 0 0 -172 227 0 0 0 0z"/>
   <path fill="#9538A3" d="M896 1775l-169 -122 -4 -3c0,0 0,0 0,0l0 -4 7 7 0 0 7 0 3 -7 166 119 0 0 0 0 -3 3 -7 7 0 0 0 0z"/>
   <polygon fill="#9538A3" points="899,1778 896,1775 903,1768 899,1772 899,1772 899,1775 "/>
   <path fill="#9538A3" d="M723 1646l4 -3 10 -13c0,0 0,0 0,0l172 -227 4 3 3 7 0 0 0 0 -176 233 -3 -3 -10 0 -4 3 0 0 0 0z"/>
   <polygon fill="#9538A3" points="730,1653 730,1653 723,1646 723,1646 727,1643 737,1643 740,1646 740,1646 740,1646 737,1653 "/>
   <line fill="none" x1="909" y1="1403" x2="909" y2= "1403" />
   <polygon fill="#9538A3" points="913,1406 909,1403 909,1403 909,1403 909,1400 909,1400 913,1403 909,1403 "/>
   <path fill="#9538A3" d="M997 1565l-71 -162 0 0 71 162c0,0 0,0 0,0z"/>
   <path fill="#9538A3" d="M916 1768l-7 0 -3 -3 88 -173 0 4c0,7 3,13 3,20l-81 152 0 0 0 0z"/>
   <polygon fill="#9538A3" points="903,1768 906,1765 909,1768 909,1768 "/>
   <polygon fill="#9538A3" points="899,1772 899,1772 903,1768 903,1768 "/>
   <path fill="#9538A3" d="M994 1592l-78 -179 7 -7 3 -3 71 162c0,0 0,0 0,0l0 0c0,7 -3,17 -3,27l0 0 0 0 0 0z"/>
   <polygon fill="#9538A3" points="916,1413 913,1406 913,1406 913,1406 916,1406 916,1406 919,1406 919,1406 923,1406 923,1406 "/>
   <path fill="#9538A3" d="M916 1406l3 0 0 0 -3 0 0 0zm-3 0l0 0 0 0 -4 -3 4 0 0 3 0 0z"/>
   <path fill="#9538A3" d="M994 1596l0 -4 0 0c0,0 0,0 0,0 0,0 0,0 0,4l0 0z"/>
   <line fill="#9538A3" x1="926" y1="1403" x2="926" y2= "1403" />
   <polygon fill="#9538A3" points="913,1403 909,1400 909,1400 913,1396 913,1396 "/>
   <polygon fill="#9538A3" points="923,1406 923,1406 923,1403 923,1400 923,1400 926,1403 926,1403 926,1403 "/>
   <path fill="#9538A3" d="M916 1406l0 0 -3 0 3 0 0 0 0 0zm3 0l4 -3 0 3 0 0 0 0 -4 0 0 0 0 0z"/>
   <polygon fill="#9538A3" points="923,1403 923,1396 923,1400 923,1400 923,1400 "/>
   <polygon fill="#9538A3" points="916,1406 913,1406 913,1403 913,1396 919,1393 923,1396 923,1403 919,1406 "/>
   <path fill="#9538A3" d="M919 2032l-6 -250 169 50 0 0 -169 -50 6 250 230 -30 0 0 -230 30 0 0 0 0zm244 -34l-58 -145c0,0 0,0 0,0l58 145 0 0 0 0z"/>
   <polygon fill="#9538A3" points="913,2049 919,2042 919,2039 919,2032 1149,2002 1153,2008 1149,2015 916,2049 "/>
   <polygon fill="#9538A3" points="909,2045 909,2045 906,2042 899,1788 909,1782 913,1782 919,2032 913,2035 906,2039 "/>
   <polygon fill="#9538A3" points="913,2049 913,2049 909,2045 906,2039 913,2035 919,2032 919,2039 919,2042 "/>
   <polygon fill="#9538A3" points="899,1788 899,1778 903,1778 906,1778 906,1782 909,1782 "/>
   <path fill="#9538A3" d="M1149 2002l0 0 0 0 -67 -170 0 0 0 0 3 0c7,7 14,14 20,21l58 145 -7 0 -7 4 0 0 0 0z"/>
   <polygon fill="#9538A3" points="1153,2008 1149,2002 1156,1998 1156,2002 1153,2005 1153,2005 "/>
   <path fill="#9538A3" d="M1068 1816l-20 -7 20 7c0,0 0,0 0,0z"/>
   <path fill="#9538A3" d="M1082 1832l-169 -50 0 -7 3 -7 132 41 20 7c0,0 0,0 0,0l0 0c4,3 7,10 14,16l0 0 0 0z"/>
   <polygon fill="#9538A3" points="913,1782 909,1782 909,1778 913,1778 913,1778 913,1775 "/>
   <polygon fill="#9538A3" points="909,1782 906,1782 906,1778 906,1782 909,1782 913,1778 909,1778 "/>
   <path fill="#9538A3" d="M1085 1832l-3 0 0 0c0,0 0,0 0,0 0,0 3,0 3,0l0 0 0 0z"/>
   <polygon fill="#9538A3" points="906,1778 903,1778 899,1778 899,1775 899,1772 899,1778 "/>
   <polygon fill="#9538A3" points="913,1775 913,1775 913,1775 909,1768 909,1768 916,1768 "/>
   <polygon fill="#9538A3" points="913,1775 909,1768 903,1768 909,1768 909,1768 909,1768 "/>
   <polygon fill="#9538A3" points="913,1778 913,1775 913,1775 913,1775 913,1775 "/>
   <polygon fill="#9538A3" points="906,1782 906,1778 899,1778 899,1772 903,1768 909,1768 913,1775 913,1775 913,1778 909,1782 "/>
   <path fill="#9538A3" d="M1312 2177l0 0 0 0 0 0 0 0 6 0 146 -155 0 0 -135 142c57,-7 111,-14 162,-27l0 7 7 3 0 0 6 -7 0 -7c75,-20 139,-50 190,-88l-220 -30 0 0 237 34 0 0 3 -4c-91,75 -230,122 -402,132l0 0 0 0z"/>
   <line fill="#9538A3" x1="1312" y1="2177" x2="1312" y2= "2177" />
   <path fill="#9538A3" d="M1849 1873l0 -7 -118 -91 118 -88 -118 88 112 84c23,-57 37,-125 44,-199l10 -7 3 -3c-3,81 -20,159 -51,223l0 0 0 0 0 0zm-91 -61l-34 -24 0 0 34 24zm-37 -47l0 0 162 -119 0 0 -162 119 0 0zm179 -115l0 -4 0 0c0,0 0,4 0,4l0 0z"/>
   <path fill="#9538A3" d="M1714 2045l0 0 0 0 0 0 3 -3 7 -254 0 0 -7 237c51,-40 92,-91 119,-152l-78 -61 81 64 4 0 3 0 3 -3c-30,68 -74,129 -135,172l0 0 0 0 0 0z"/>
   <polygon fill="#9538A3" points="1711,2049 1714,2045 1714,2045 "/>
   <polygon fill="#9538A3" points="1843,1876 1839,1876 1758,1812 1724,1788 1724,1788 1724,1788 1724,1778 1731,1775 1849,1866 1849,1873 1846,1876 "/>
   <path fill="#9538A3" d="M1900 1646l0 0 0 0 0 -3 -13 -13c3,-102 -14,-210 -44,-332l6 -7 4 -6c37,132 50,253 47,361l0 0 0 0 0 0zm-17 0l-172 -233 0 0 172 233 0 0 0 0zm-169 -260l0 0 122 -101c0,0 0,0 0,0l-122 101 0 0 0 0z"/>
   <path fill="#9538A3" d="M1900 1646l0 0 0 0 0 0 0 0zm-17 0l0 0 0 0 0 0 0 0z"/>
   <path fill="#9538A3" d="M1717 1403l0 0 126 -105 -126 105 0 0 0 0zm-3 -17l-3 -453 -4 -3 0 0c61,115 112,240 146,355l-7 -4 -7 0 -3 4c-27,-105 -71,-217 -125,-325l3 426 0 0 0 0 0 0z"/>
   <path fill="#9538A3" d="M1717 1403l-3 -3 0 -14 0 0 0 0 122 -101c0,0 0,0 0,0l3 -4 7 0 7 4 -4 6 -6 7c0,0 0,0 0,0l-126 105 0 0 0 0z"/>
   <path fill="#9538A3" d="M1707 930l0 -4 -3 0 -271 -135 21 -20 -21 20 254 125c-44,-81 -91,-159 -142,-226l7 -7 0 -10 0 0c57,77 111,165 155,257l0 0zm-284 -149l0 0 92 -81 -92 81z"/>
   <polygon fill="#9538A3" points="1707,930 1707,926 "/>
   <path fill="#9538A3" d="M1423 781l-34 -112 34 112 0 0zm31 -10l91 -81c0,0 0,0 0,0l-91 81 0 0 0 0zm61 -71l23 -24c-84,-98 -162,-169 -213,-206l-7 -17 0 -4 -3 -3 0 0 0 0 0 0c51,34 139,112 237,227l0 0 -4 0 -6 0 -27 27 0 0 0 0z"/>
   <polygon fill="#9538A3" points="1318,449 1315,446 1315,446 "/>
   <path fill="#9538A3" d="M1433 791l-6 0 -4 -10 0 0 0 0 92 -81 27 -27 6 0 4 0 0 10 -7 7c0,0 0,0 0,0l-91 81 -21 20 0 0 0 0z"/>
   <path fill="#9538A3" d="M1308 446l0 0c0,0 0,0 0,0zm4 0l0 0 0 0 0 0z"/>
   <path fill="#9538A3" d="M1308 449l0 -3c0,0 0,0 0,0l4 0 0 0 -4 3 0 0z"/>
   <polygon fill="#9538A3" points="1312,930 1210,794 1288,547 1210,794 1312,930 1413,794 1312,476 1312,476 1413,794 "/>
   <polygon fill="#9538A3" points="1210,794 1210,791 1210,791 1210,788 1200,781 1305,449 1308,449 1305,453 1312,476 1312,476 1312,476 1288,547 "/>
   <polygon fill="#9538A3" points="1210,791 1210,791 1207,788 1203,788 1203,788 1203,788 1200,788 1200,791 1200,781 1210,788 "/>
   <polygon fill="#9538A3" points="1305,943 1207,811 1210,798 1210,798 1210,794 1312,930 1308,940 "/>
   <polygon fill="#9538A3" points="1210,798 1210,794 1210,794 1210,794 1210,791 1210,791 1210,794 "/>
   <polygon fill="#9538A3" points="1210,794 1210,791 1210,791 "/>
   <line fill="none" x1="1203" y1="788" x2="1203" y2= "788" />
   <polygon fill="#9538A3" points="1197,794 1197,791 1200,791 1200,788 1203,788 "/>
   <polygon fill="#9538A3" points="1210,791 1203,788 1207,788 "/>
   <polygon fill="#9538A3" points="1207,811 1203,804 1207,801 1210,798 1210,798 "/>
   <polygon fill="#9538A3" points="1203,804 1200,798 1200,798 1203,801 1207,801 1210,798 1207,801 "/>
   <polygon fill="#9538A3" points="1210,798 1210,794 1210,794 "/>
   <polygon fill="#9538A3" points="1203,801 1200,798 1200,798 1200,798 1197,794 1203,788 1203,788 1210,791 1210,794 1210,798 1207,801 "/>
   <path fill="#9538A3" d="M1389 669l-64 -199c0,0 0,0 0,0l64 199 0 0zm-77 -223l3 0 0 0 -3 0 0 0z"/>
   <path fill="#9538A3" d="M1413 794l-101 -318 6 -23 0 -4 0 4 7 17c0,0 0,0 0,0l64 199 34 112 -7 7 0 3 0 0 -3 3 0 0 0 0zm-98 -348l-3 0 0 0 3 0 0 0 0 0z"/>
   <polygon fill="#9538A3" points="1312,476 1305,453 1308,449 1312,446 1315,446 1318,449 1318,453 "/>
   <polygon fill="#9538A3" points="1416,791 1416,788 1423,781 1427,791 1423,788 1423,788 1423,788 1420,788 1416,788 "/>
   <polygon fill="#9538A3" points="1454,2008 1312,1941 1312,1941 "/>
   <line fill="none" x1="1312" y1="1941" x2="1312" y2= "1941" />
   <path fill="#9538A3" d="M1477 2002l-3 0 68 -170 0 0 -65 170 0 0 0 0zm-138 -65l0 0c44,-7 121,-34 179,-84l0 0c-58,50 -135,77 -179,84z"/>
   <path fill="#9538A3" d="M1559 1816c6,-14 16,-24 23,-34 -7,10 -17,20 -23,34l0 0zm20 -7l128 -41 -77 -152c-4,37 -11,71 -21,101 10,-30 17,-64 21,-101l77 152 -128 41zm3 -27c0,0 0,0 0,0 0,0 0,0 0,0l0 0zm27 -65c0,0 0,0 0,0 0,0 0,0 0,0l0 0zm0 0c0,0 0,0 0,0 0,0 0,0 0,0z"/>
   <path fill="#9538A3" d="M1616 1592c-7,-152 -51,-301 -122,-416 71,115 115,264 122,416 0,0 0,0 0,0l0 0 0 0zm14 -27c-11,-105 -34,-209 -75,-297 41,88 64,192 75,297l0 0 0 0 0 0zm71 -182l-197 -217 0 0 197 217 0 0 0 0 0 0zm-88 -78l-82 -88c0,0 0,0 0,0l82 88 0 0 0 0z"/>
   <path fill="#9538A3" d="M1491 1173c-24,-41 -51,-78 -78,-108 27,30 54,67 78,108zm13 -7l0 0 -40 -189 40 189 0 0 0 0 0 0zm-37 -105l-51 -250 -94 132 0 0 94 -132 51 250 0 0z"/>
   <polygon fill="#9538A3" points="1322,943 1318,940 1312,930 1413,794 1413,798 1413,798 1416,811 "/>
   <polygon fill="#9538A3" points="1318,940 1318,940 1308,940 1308,940 1312,930 "/>
   <polygon fill="#9538A3" points="1413,798 1413,798 1413,794 1416,791 1416,791 1413,794 1413,794 1413,794 "/>
   <path fill="#9538A3" d="M1413 794l0 0 3 -3 0 0 -3 3 0 0 0 0zm7 -6l3 0 0 0 -3 0 0 0 0 0z"/>
   <line fill="#9538A3" x1="1504" y1="1166" x2="1504" y2= "1166" />
   <path fill="#9538A3" d="M1701 1403l-88 -98 88 98 0 0 0 0 0 0zm0 -20l0 0 -4 -447 -267 -128 34 169 -34 -169 267 128 4 447 0 0z"/>
   <polygon fill="#9538A3" points="1707,1393 1701,1383 1697,936 1701,936 1704,940 1707,936 1707,930 1711,930 1714,1386 "/>
   <polygon fill="#9538A3" points="1714,1400 1714,1396 1714,1396 1714,1396 1707,1393 1714,1386 "/>
   <polygon fill="#9538A3" points="1697,936 1430,808 1427,798 1433,791 1704,926 1707,926 1701,926 1697,933 "/>
   <polygon fill="#9538A3" points="1704,940 1701,936 1697,936 1697,933 1701,926 1707,926 1707,930 1707,936 "/>
   <polygon fill="#9538A3" points="1427,798 1427,794 1427,794 1427,791 1427,791 1433,791 "/>
   <polygon fill="#9538A3" points="1427,794 1423,788 1423,788 1427,791 1427,791 "/>
   <path fill="#9538A3" d="M1484 1132c0,0 0,0 0,0l-17 -71 17 71 0 0z"/>
   <polygon fill="#9538A3" points="1416,791 1416,788 1420,788 "/>
   <path fill="#9538A3" d="M1701 1403l-88 -98 -82 -88c-6,-17 -16,-34 -27,-51l0 0 197 217 0 0 0 0 0 17 0 3 0 0 0 0z"/>
   <polygon fill="#9538A3" points="1701,1400 1701,1383 1707,1393 1704,1396 1704,1396 "/>
   <polygon fill="#9538A3" points="1704,1396 1704,1396 1707,1393 1714,1396 1714,1396 1707,1393 "/>
   <path fill="#9538A3" d="M1504 1166l-3 -3c-7,-10 -10,-20 -17,-31l-17 -71 -51 -250 7 -7 7 4 34 169 40 189 0 0 0 0z"/>
   <polygon fill="#9538A3" points="1430,808 1423,804 1427,798 1427,798 "/>
   <polygon fill="#9538A3" points="1427,798 1427,798 1427,794 1427,794 "/>
   <polygon fill="#9538A3" points="1416,811 1413,798 1416,798 1416,801 1423,804 "/>
   <polygon fill="#9538A3" points="1423,804 1416,801 1416,798 1420,801 1420,801 1427,798 1427,798 "/>
   <polygon fill="#9538A3" points="1416,798 1413,798 1413,794 1413,794 "/>
   <polygon fill="#9538A3" points="1420,801 1420,801 1416,798 1413,794 1416,791 1420,788 1423,788 1427,794 1427,798 1427,798 1427,798 "/>
   <path fill="#9538A3" d="M1504 1166c0,0 0,0 -3,-3 0,0 0,0 0,0l3 3 0 0 0 0 0 0 0 0 0 0z"/>
   <path fill="#9538A3" d="M1721 1765l-91 -173 81 -179 0 0 -81 179 91 173 0 0 0 0zm128 -78l38 -27c0,0 0,0 0,0l-38 27zm51 -37c0,0 0,0 0,0l0 0 0 0 0 0 0 0zm-13 -20l-170 -227 0 0 170 227c0,0 0,0 0,0l0 0 0 0z"/>
   <path fill="#9538A3" d="M1731 1775l-7 -7 -3 -3 0 0 0 0 162 -119 4 7 6 0 4 0 3 -3 0 0c0,0 0,0 0,0l-3 3 -10 7c0,0 0,0 0,0l-38 27 -118 88 0 0 0 0z"/>
   <polygon fill="#9538A3" points="1724,1778 1724,1775 1724,1772 1724,1772 1724,1768 1731,1775 "/>
   <path fill="#9538A3" d="M1900 1646l-3 -3 -7 0 -7 3 -172 -233 0 0 0 0 3 -7 3 -3 170 227c0,0 0,0 0,0l13 13 0 3 0 0z"/>
   <polygon fill="#9538A3" points="1893,1653 1887,1653 1883,1646 1883,1646 1883,1646 1890,1643 1897,1643 1900,1646 1900,1646 1897,1653 "/>
   <line fill="#9538A3" x1="1717" y1="1403" x2="1717" y2= "1403" />
   <polygon fill="#9538A3" points="1714,1406 1714,1403 1714,1403 1714,1400 1714,1400 1717,1403 1717,1403 1717,1403 "/>
   <path fill="#9538A3" d="M1707 1768l-77 -152c0,-7 0,-13 0,-20l0 -4 91 173 -7 3 -7 0 0 0 0 0z"/>
   <polygon fill="#9538A3" points="1724,1768 1721,1768 1717,1768 1714,1768 1721,1765 "/>
   <polygon fill="#9538A3" points="1724,1772 1721,1768 1724,1768 "/>
   <path fill="#9538A3" d="M1630 1565c0,0 0,0 0,0l71 -162 0 0 -71 162 0 0z"/>
   <path fill="#9538A3" d="M1630 1592l0 0c0,-10 0,-20 0,-27l0 0c0,0 0,0 0,0l71 -162 3 3 7 7 -81 179 0 0 0 0z"/>
   <polygon fill="#9538A3" points="1711,1413 1704,1406 1704,1406 1704,1406 1704,1406 1707,1406 1711,1406 1711,1406 1711,1406 1714,1406 "/>
   <path fill="#9538A3" d="M1707 1406l-3 0 0 0 3 0 0 0zm4 0l3 -3 0 0 0 3 -3 0 0 0 0 0z"/>
   <path fill="#9538A3" d="M1630 1596c0,-4 0,-4 0,-4 0,0 0,0 0,0l0 0 0 4z"/>
   <line fill="none" x1="1701" y1="1403" x2="1701" y2= "1403" />
   <polygon fill="#9538A3" points="1714,1403 1714,1396 1714,1396 1714,1400 1714,1400 "/>
   <polygon fill="#9538A3" points="1704,1406 1701,1403 1701,1403 1701,1403 1701,1400 1701,1400 1704,1403 1701,1406 "/>
   <path fill="#9538A3" d="M1707 1406l0 0 4 0 0 0 -4 0 0 0zm-3 0l0 0 0 0 -3 0 3 -3 0 3 0 0z"/>
   <polygon fill="#9538A3" points="1704,1403 1701,1400 1701,1400 1701,1400 1704,1396 "/>
   <polygon fill="#9538A3" points="1707,1406 1707,1406 1704,1406 1704,1403 1704,1396 1707,1393 1714,1396 1714,1403 1711,1406 "/>
   <polygon fill="#9538A3" points="1704,2032 1477,2002 1477,2002 1704,2032 1711,1782 1542,1832 1542,1832 1711,1782 "/>
   <polygon fill="#9538A3" points="1711,2049 1711,2049 1474,2015 1474,2008 1477,2002 1704,2032 1704,2042 1707,2049 "/>
   <polygon fill="#9538A3" points="1714,2045 1717,2039 1711,2035 1704,2032 1711,1782 1717,1782 1724,1788 1717,2042 "/>
   <polygon fill="#9538A3" points="1711,2049 1707,2049 1704,2042 1704,2032 1711,2035 1717,2039 1714,2045 "/>
   <polygon fill="#9538A3" points="1724,1788 1717,1782 1721,1782 1721,1778 1721,1778 1724,1778 "/>
   <path fill="#9538A3" d="M1464 1998l0 0 54 -145c0,0 0,0 0,0l-54 145 0 0 0 0zm95 -182c0,0 0,0 0,0l20 -7 -20 7z"/>
   <path fill="#9538A3" d="M1477 2002l-10 -4 -3 0 54 -145c0,0 0,0 0,0l0 0c10,-7 17,-14 24,-21l0 0 0 0 0 0 -65 170 0 0 0 0 0 0 0 0z"/>
   <polygon fill="#9538A3" points="1474,2008 1474,2005 1474,2005 1471,2002 1467,1998 1477,2002 "/>
   <path fill="#9538A3" d="M1542 1832l0 0c6,-6 10,-13 17,-16l0 0c0,0 0,0 0,0l20 -7 128 -41 4 7 0 7 -169 50 0 0 0 0z"/>
   <polygon fill="#9538A3" points="1711,1782 1711,1775 1711,1778 1714,1778 1714,1778 1717,1782 "/>
   <polygon fill="#9538A3" points="1717,1782 1714,1778 1714,1778 1717,1782 1717,1782 1721,1778 1721,1782 "/>
   <path fill="#9538A3" d="M1542 1832c0,0 0,0 0,0 0,0 0,0 0,0l0 0 0 0 0 0z"/>
   <polygon fill="#9538A3" points="1721,1778 1724,1778 1724,1772 1724,1775 1724,1778 "/>
   <polygon fill="#9538A3" points="1711,1775 1707,1768 1714,1768 1714,1768 1711,1772 "/>
   <polygon fill="#9538A3" points="1711,1772 1714,1768 1714,1768 1717,1768 1721,1768 1714,1768 "/>
   <polygon fill="#9538A3" points="1714,1778 1711,1778 1711,1775 1711,1775 1711,1772 1711,1775 "/>
   <polygon fill="#9538A3" points="1717,1782 1717,1782 1714,1778 1711,1775 1711,1772 1714,1768 1721,1768 1724,1772 1724,1778 1721,1778 "/>
   <path fill="#9538A3" d="M1312 2160l-142 -152 0 0 142 152 142 -152 -142 152 0 0zm-149 -162l0 0 125 -61c0,0 0,0 0,0l-125 61 0 0z"/>
   <polygon fill="#9538A3" points="1312,2177 1312,2177 1308,2177 1163,2022 1163,2012 1170,2008 1312,2160 1308,2167 1305,2174 "/>
   <path fill="#9538A3" d="M1170 2008l-7 -6 0 -4 125 -61c0,0 0,0 0,0l0 0c7,4 17,4 24,4l0 0 -142 67 0 0 0 0 0 0 0 0z"/>
   <polygon fill="#9538A3" points="1163,2012 1166,2008 1163,2008 1166,2005 1163,2002 1170,2008 "/>
   <line fill="none" x1="1163" y1="1998" x2="1163" y2= "1998" />
   <polygon fill="#9538A3" points="1163,2002 1163,2002 1159,2002 1159,1998 1159,2002 1156,1998 1156,1998 1163,1998 1163,1998 "/>
   <path fill="#9538A3" d="M1163 2008l-4 -6 4 0 0 0 3 3 -3 3 0 0 0 0zm-10 -3l3 -3 0 -4 0 0 3 4 -6 3 0 0 0 0z"/>
   <polygon fill="#9538A3" points="1312,2177 1318,2171 1315,2167 1312,2160 1454,2008 1460,2012 1464,2022 1318,2177 "/>
   <polygon fill="#9538A3" points="1312,2177 1312,2177 1305,2174 1308,2167 1312,2160 1315,2167 1318,2171 "/>
   <path fill="#9538A3" d="M1464 1998l-125 -61c0,0 0,0 0,0l125 61 0 0 0 0 0 0z"/>
   <path fill="#9538A3" d="M1454 2008l0 0 0 0 -142 -67 3 0c7,0 14,0 24,-4l0 0c0,0 0,0 0,0l125 61 -4 4 -6 6 0 0 0 0z"/>
   <path fill="#9538A3" d="M1312 1941l0 0 0 0 0 0c0,0 0,0 0,0 0,0 3,0 3,0l-3 0z"/>
   <polygon fill="#9538A3" points="1460,2012 1454,2008 1460,2002 1460,2005 1460,2008 1460,2008 "/>
   <line fill="none" x1="1464" y1="1998" x2="1464" y2= "1998" />
   <polygon fill="#9538A3" points="1460,2002 1464,1998 1464,1998 1467,1998 1467,1998 1464,2002 1464,1998 1464,2002 "/>
   <path fill="#9538A3" d="M1460 2008l0 -3 0 -3 0 0 4 0 -4 6 0 0 0 0zm14 -3l-10 -3 3 -4 0 0 4 4 3 3 0 0 0 0z"/>
   <path fill="#9538A3" d="M1156 1887c0,0 0,0 0,0 0,0 0,0 0,0zm0 0c-17,-11 -34,-21 -51,-34l0 0c17,13 34,23 51,34l0 0zm-91 -75c0,0 0,0 0,0 0,0 0,0 0,0zm0 0c-41,-51 -61,-111 -68,-196l0 0c7,85 27,145 68,196l0 0zm13 -565c4,-10 10,-20 14,-30l0 0c-4,10 -10,20 -14,30l0 0 0 0zm65 -115l0 0c3,-6 6,-10 13,-16 -7,6 -10,10 -13,16l0 0zm13 -16c0,0 0,0 0,0 0,0 0,0 0,0zm257 -51c-30,-37 -61,-68 -81,-91l-20 -21 -17 17 17 -17 20 21c20,23 51,54 81,91l0 0 0 0zm-210 -14c31,-33 58,-64 78,-84l24 -24 0 0 -24 24c-20,20 -47,51 -78,84l0 0 0 0z"/>
   <path fill="#9538A3" d="M1288 1937c-34,-7 -85,-20 -132,-50 0,0 0,0 0,0 0,0 0,0 0,0 -17,-11 -34,-21 -51,-34l-10 -27 -3 -4 0 0c74,75 179,105 220,105l0 0 -4 0 -20 10 0 0 0 0z"/>
   <path fill="#9538A3" d="M1092 1822l0 0 -4 0 -20 -6c-3,-4 -3,-4 -3,-4 0,0 0,0 0,0 0,0 0,0 0,0 -41,-51 -61,-111 -68,-196l0 0c0,0 0,0 0,0l10 -20 0 -4 0 0c0,0 0,0 0,0l0 0c0,0 0,0 0,0 7,102 34,176 85,230l0 0 0 0z"/>
   <path fill="#9538A3" d="M1092 1822l0 0 0 0c0,0 0,0 0,0l0 0 0 0 0 0 0 0z"/>
   <path fill="#9538A3" d="M1007 1592c0,0 0,0 0,0l0 0 0 -3 -10 -24c10,-115 37,-223 81,-318 4,-10 10,-20 14,-30l40 -44 0 0 0 0c-71,115 -115,264 -125,419l0 0z"/>
   <path fill="#9538A3" d="M1007 1592l0 0 0 0c0,0 0,0 0,0 0,0 0,0 0,0l0 0 0 0z"/>
   <path fill="#9538A3" d="M1132 1173l0 0 0 -3 4 0 7 -38c3,-6 6,-10 13,-16 0,0 0,0 0,0 0,0 0,0 0,0 17,-24 31,-44 47,-65 31,-33 58,-64 78,-84l24 -24 0 0 0 0 0 4 3 0 0 0 4 6 -17 17 -4 4c-37,44 -104,111 -159,199l0 0 0 0 0 0z"/>
   <polygon fill="#9538A3" points="1132,1173 1132,1170 "/>
   <path fill="#9538A3" d="M1092 1217c0,0 0,0 0,0l0 0c0,0 0,0 0,0l0 0 0 0z"/>
   <path fill="#9538A3" d="M1092 1217c0,0 0,0 0,0l0 0c10,-17 20,-34 30,-51l0 0 4 7 3 3 3 -3 0 0 -40 44 0 0 0 0z"/>
   <path fill="#9538A3" d="M1143 1132l0 0c0,0 0,0 0,0l0 0c0,0 0,0 0,0z"/>
   <path fill="#9538A3" d="M1132 1170l0 -7 -10 0 0 0c7,-10 14,-20 21,-31l0 0c0,0 0,0 0,0l-7 38 -4 0 0 0 0 0z"/>
   <path fill="#9538A3" d="M1129 1176l-3 -3 -4 -7 0 0c0,0 0,0 0,-3 0,0 0,0 0,0l0 0 10 0 0 7 0 3 -3 3 0 0z"/>
   <path fill="#9538A3" d="M997 1616c0,-7 -3,-13 -3,-20l0 0 7 3 3 0 3 -7 0 4 -10 20 0 0 0 0z"/>
   <path fill="#9538A3" d="M1007 1592l-3 -6 -10 3 0 3c0,-10 3,-20 3,-27l10 24 0 3 0 0z"/>
   <path fill="#9538A3" d="M1001 1599l-7 -3 0 0c0,-4 0,-4 0,-4 0,0 0,0 0,0l0 -3 10 -3 3 6 0 0 -3 7 -3 0 0 0 0 0z"/>
   <path fill="#9538A3" d="M1105 1853c0,0 0,0 0,0l0 0c0,0 0,0 0,0l0 0z"/>
   <path fill="#9538A3" d="M1105 1853c0,0 0,0 0,0l0 0c-6,-7 -13,-14 -20,-21l0 0 3 0 7 0 -3 -10 3 4 10 27 0 0 0 0z"/>
   <path fill="#9538A3" d="M1082 1832c-7,-6 -10,-13 -14,-16l20 6 4 0 -7 0 -3 7 0 3 0 0 0 0z"/>
   <path fill="#9538A3" d="M1088 1832l-3 0 0 0c0,0 -3,0 -3,0 0,0 0,0 0,0l0 -3 3 -7 7 0 0 0 3 7 -7 3 0 0 0 0z"/>
   <path fill="#9538A3" d="M1531 1822c51,-50 78,-118 85,-213 -7,95 -34,163 -85,213l0 0zm51 -40c0,0 0,0 0,0 0,0 0,0 0,0l0 0zm0 0c10,-21 20,-41 27,-65 -7,24 -17,44 -27,65zm27 -65c0,0 0,0 0,0 0,0 0,0 0,0zm0 0c0,0 0,0 0,0 0,0 0,0 0,0zm-54 -449c-7,-17 -13,-34 -24,-51l0 0c11,17 17,34 24,51l0 0zm-71 -136c-51,-71 -108,-131 -142,-165l-20 -24 0 0 20 24c37,34 91,94 142,165l0 0 0 0z"/>
   <polygon fill="#9538A3" points="1308,947 1305,947 1305,943 1308,940 1308,940 "/>
   <path fill="#9538A3" d="M1339 1937l-24 -10 -3 0 0 0c40,0 148,-30 219,-105l0 0 0 0c0,0 0,0 0,0l0 0 0 4 -13 27c-58,50 -135,77 -179,84l0 0 0 0z"/>
   <line fill="none" x1="1312" y1="1927" x2="1312" y2= "1927" />
   <path fill="#9538A3" d="M1531 1822c51,-50 78,-118 85,-213 0,-6 0,-10 0,-17 0,0 0,0 0,0l0 0 0 4 14 20c-4,37 -11,71 -21,101 0,0 0,0 0,0 0,0 0,0 0,0 0,0 0,0 0,0 0,0 0,0 0,0 -7,24 -17,44 -27,65 0,0 0,0 0,0 0,0 0,0 0,0 -7,10 -17,20 -23,34l-24 6 -4 0 0 0 0 0 0 0z"/>
   <path fill="#9538A3" d="M1531 1822l0 0c0,0 0,0 0,0l4 0 -4 0 0 0 0 0z"/>
   <path fill="#9538A3" d="M1616 1592c-7,-152 -51,-301 -122,-416 -3,-3 -3,-3 -3,-3l0 0 0 0 40 44c0,0 0,0 0,0l0 0c11,17 17,34 24,51 41,88 64,192 75,297l-14 24 0 3 0 0 0 0 0 0z"/>
   <path fill="#9538A3" d="M1616 1592l0 0c0,0 0,0 0,0 0,0 0,0 0,0l0 0 0 0 0 0 0 0 0 0z"/>
   <path fill="#9538A3" d="M1491 1173l0 0c-24,-41 -51,-78 -78,-108 -30,-37 -61,-68 -81,-91l-20 -21 6 -6 0 0 0 0 4 -4 0 0 0 0 20 24c34,34 91,94 142,165l7 38 0 0 0 3 0 0 0 0z"/>
   <polygon fill="#9538A3" points="1312,953 1308,947 1308,947 1312,950 1318,947 1318,947 "/>
   <polygon fill="#9538A3" points="1318,947 1318,940 1318,940 1322,943 "/>
   <polygon fill="#9538A3" points="1312,950 1308,947 1308,940 1308,940 1308,940 1318,940 1318,940 1318,940 1318,947 "/>
   <polygon fill="#9538A3" points="1491,1173 1491,1173 1491,1170 "/>
   <path fill="#9538A3" d="M1484 1132c0,0 0,0 0,0l0 0c0,0 0,0 0,0l0 0 0 0z"/>
   <path fill="#9538A3" d="M1531 1217l-40 -44 0 0 7 3 0 0 0 0 6 -6 0 -4c11,17 21,34 27,51l0 0z"/>
   <path fill="#9538A3" d="M1491 1170l0 0 -7 -38c0,0 0,0 0,0l0 0c7,11 10,21 17,31l0 0 -10 0 0 7 0 0 0 0z"/>
   <path fill="#9538A3" d="M1498 1176l0 0 0 0 -7 -3 0 -3 0 -7 10 0 0 0c0,0 0,0 0,0 3,3 3,3 3,3l0 4 -6 6 0 0 0 0z"/>
   <path fill="#9538A3" d="M1630 1616l-14 -20 0 -4 7 7 0 0 7 -3 0 0c0,7 0,13 0,20l0 0 0 0z"/>
   <path fill="#9538A3" d="M1616 1592l0 -3 14 -24c0,7 0,17 0,27l0 -3 -7 -3 -7 6 0 0 0 0z"/>
   <path fill="#9538A3" d="M1623 1599l0 0 -7 -7 0 0 7 -6 7 3 0 3c0,0 0,0 0,0 0,0 0,0 0,4l0 0 -7 3 0 0 0 0z"/>
   <path fill="#9538A3" d="M1518 1853l13 -27 0 -4 0 10 7 0 0 0 4 0c-7,7 -14,14 -24,21l0 0 0 0z"/>
   <path fill="#9538A3" d="M1542 1832l0 -3 0 -7 -11 0 4 0 24 -6c-7,3 -11,10 -17,16l0 0z"/>
   <path fill="#9538A3" d="M1538 1832l-7 0 0 -10 0 0 11 0 0 7 0 3c0,0 0,0 0,0 0,0 0,0 0,0l-4 0 0 0 0 0 0 0z"/>
   <path fill="#9538A3" d="M1312 1941c-7,0 -17,0 -24,-4l20 -10 4 0 -7 3 3 11 4 0 0 0 0 0z"/>
   <path fill="#9538A3" d="M1315 1941l0 0 3 -11 -6 -3 3 0 24 10c-10,4 -17,4 -24,4l0 0 0 0z"/>
   <path fill="#9538A3" d="M1312 1941c0,0 0,0 0,0l-4 0 -3 -11 7 -3 0 0 6 3 -3 11 0 0c0,0 -3,0 -3,0l0 0 0 0z"/>
   <path fill="#9538A3" d="M1136 2137c-7,0 -10,-4 -14,-4l27 -118 7 0 7 7 -27 115 0 0z"/>
   <path fill="#9538A3" d="M1126 2147l0 0 -7 -7 3 -7c4,0 7,4 14,4l-4 7 -6 3 0 0 0 0zm37 -125l-7 -7 -7 0 0 0 7 0 7 7 0 0 0 0z"/>
   <polygon fill="#9538A3" points="1149,2015 1153,2008 1153,2008 1153,2008 1153,2012 1156,2015 "/>
   <polygon fill="#9538A3" points="1153,2008 1153,2008 1153,2008 1153,2005 1153,2005 1153,2005 "/>
   <polygon fill="#9538A3" points="1163,2022 1156,2015 1159,2012 1159,2012 1163,2012 1163,2012 "/>
   <polygon fill="#9538A3" points="1159,2012 1163,2008 1163,2008 1166,2008 1163,2012 1163,2012 "/>
   <polygon fill="#9538A3" points="1156,2015 1153,2012 1153,2008 1156,2012 1159,2012 1159,2012 1159,2012 "/>
   <polygon fill="#9538A3" points="1159,2002 1159,2002 1159,1998 "/>
   <polygon fill="#9538A3" points="1159,2012 1156,2012 1153,2008 1153,2005 1153,2005 1159,2002 1159,2002 1163,2008 1163,2008 "/>
   <path fill="#9538A3" d="M1491 2137l-27 -115 3 -7 7 0 27 118c-3,0 -7,4 -10,4l0 0 0 0z"/>
   <path fill="#9538A3" d="M1498 2147l-7 -3 0 -7c3,0 7,-4 10,-4l3 7 -6 7 0 0 0 0 0 0zm-34 -125l0 0 3 -7 7 0 0 0 -7 0 -3 7 0 0 0 0z"/>
   <polygon fill="#9538A3" points="1474,2015 1467,2015 1471,2012 1471,2008 1474,2008 1474,2008 "/>
   <polygon fill="#9538A3" points="1471,2008 1474,2005 1474,2005 1474,2005 1474,2008 1474,2008 "/>
   <polygon fill="#9538A3" points="1464,2022 1460,2012 1464,2012 1464,2012 1464,2012 1467,2015 "/>
   <polygon fill="#9538A3" points="1464,2012 1464,2012 1460,2012 1460,2008 1460,2008 1460,2008 "/>
   <polygon fill="#9538A3" points="1467,2015 1464,2012 1464,2012 1467,2012 1467,2012 1471,2008 1471,2012 "/>
   <polygon fill="#9538A3" points="1464,2002 1464,1998 "/>
   <polygon fill="#9538A3" points="1467,2012 1464,2012 1460,2008 1460,2008 1464,2002 1464,2002 1474,2005 1474,2005 1471,2008 "/>
  </g>
 </g>
</svg>
