<?xml version="1.0" encoding="utf-8"?>
<!-- Generator: Adobe Illustrator 19.1.1, SVG Export Plug-In . SVG Version: 6.00 Build 0)  -->
<svg version="1.1" id="Layer_1" xmlns="http://www.w3.org/2000/svg" xmlns:xlink="http://www.w3.org/1999/xlink" x="0px" y="0px"
	 viewBox="-124 126 50 50" style="enable-background:new -124 126 50 50;" xml:space="preserve">
<style type="text/css">
	.st0{fill:none;}
	.st1{fill:#FFFFFF;}
</style>
<g id="Layer_x0020_1">
	<rect x="-124" y="126" class="st0" width="50" height="50"/>
</g>
<g>
	<g>
		<path class="st1" d="M-97.9,150.8l-0.6,2.3h-0.9l-0.6-2.3H-97.9 M-95.6,152l1.4,1.4l-0.8,0.9l-0.3,0.4l-0.7-0.7l0.4-1.7V152
			 M-102.4,152.1l0.5,2l-0.7,0.7l-1.2-1.3L-102.4,152.1 M-98.1,155.7l1.4,1.4v1.5v1.5l-0.3,0.4l-1,1h-1h-1l-1.4-1.3v-1.5v-1.5
			l1.4-1.4L-98.1,155.7 M-93.6,156.6v1.9v1.9l-0.4-0.4v-1.5V157L-93.6,156.6 M-104.4,156.6l0.4,0.4v1.5v1.5l-0.4,0.4v-1.9V156.6
			 M-95.4,162.5l0.2,0.2l1,1l-1.3,1.3l-0.5-2L-95.4,162.5 M-102.6,162.5l0.7,0.7l-0.5,2l-1.4-1.4L-102.6,162.5 M-98.4,164l0.6,2.3
			h-1.1h-1.1l0.6-2.3h0.5H-98.4 M-96.6,149.6h-5.1l1.2,4.6h2.7L-96.6,149.6L-96.6,149.6z M-96.4,149.7l-0.5,2.3l-0.6,2.3l2,1.9
			l1.2-1.2l1.6-1.7l-2.9-2.9L-96.4,149.7L-96.4,149.7z M-101.9,149.8l-3.5,3.6l2.8,2.9l1.9-2L-101.9,149.8L-101.9,149.8z
			 M-92.6,153.7l-1.5,1.7l-1.1,1.2v2v2l1,1l1.7,1.7v-4.8L-92.6,153.7L-92.6,153.7z M-105.4,153.8v4.8v4.8l2.7-2.8v-2v-2
			L-105.4,153.8L-105.4,153.8z M-97.6,154.5h-2.9l-2,2v2v2l2.1,2h1.4h1.4l1.3-1.4l0.7-0.7v-1.9v-2L-97.6,154.5L-97.6,154.5z
			 M-95.4,160.8l-0.7,0.7l-1.2,1.2l0.8,3.3l0.3,1.2l1.2-1.2l2.4-2.4l-1.7-1.8L-95.4,160.8L-95.4,160.8z M-102.6,160.9l-2.8,2.9
			l3.6,3.6l1.1-4.6L-102.6,160.9L-102.6,160.9z M-97.6,162.9h-1.4h-1.4l-1.1,4.6h2.5h2.5l-0.2-0.8L-97.6,162.9L-97.6,162.9z"/>
	</g>
	<g>
		<path class="st1" d="M-88.9,140.6c1.3-1.7,2.4-3.8,3.1-6.1h-1.2c-0.7,2.1-1.6,3.9-2.7,5.4C-89.4,140.1-89.1,140.3-88.9,140.6z"/>
		<path class="st1" d="M-108.1,140c-1.1-1.6-2.1-3.4-2.8-5.5h-1.2c0.8,2.3,1.9,4.4,3.2,6.2C-108.9,140.4-108.4,140.2-108.1,140z"/>
		<path class="st1" d="M-88.9,140.6c-0.2-0.3-0.5-0.5-0.8-0.7c-0.4-0.2-0.8-0.3-1.2-0.3c-1.8,0-3.1,1.9-2.2,3.8
			c0.1,0.2,0.2,0.3,0.3,0.5c0.1,0.1,0.2,0.2,0.3,0.3l0.1,0.1c2,1.3,4.1-0.1,4.1-2C-88.4,141.6-88.6,141-88.9,140.6z M-90.9,143.4
			c-0.2,0-0.3,0-0.4-0.1c-0.3-0.1-0.6-0.4-0.7-0.8c0-0.1-0.1-0.2-0.1-0.4c0-0.7,0.5-1.2,1.2-1.2c0.1,0,0.2,0,0.3,0.1
			c0.4,0.1,0.6,0.4,0.8,0.7c0.1,0.1,0.1,0.3,0.1,0.4C-89.9,142.8-90.4,143.4-90.9,143.4z"/>
		<path class="st1" d="M-106.9,139.6c-0.5,0-0.9,0.1-1.3,0.4c-0.3,0.2-0.6,0.4-0.8,0.7c-0.3,0.4-0.4,0.9-0.4,1.4
			c0,1.4,1.1,2.5,2.5,2.5c0.5,0,1-0.2,1.4-0.5c0.3-0.2,0.5-0.5,0.7-0.8c0.2-0.4,0.4-0.8,0.4-1.3
			C-104.4,140.7-105.4,139.6-106.9,139.6z M-106.6,143.3c-0.1,0-0.2,0-0.3,0l0,0c-0.7,0-1.2-0.5-1.2-1.2c0-0.1,0-0.2,0-0.3
			c0.1-0.4,0.3-0.7,0.7-0.8c0.2-0.1,0.3-0.1,0.5-0.1c0.7,0,1.2,0.5,1.2,1.2c0,0.2,0,0.3-0.1,0.5C-105.9,143-106.1,143.2-106.6,143.3
			z"/>
	</g>
	<g>
		<path class="st1" d="M-99.6,148.3v1.6h1.1v-1.6c-0.2,0-0.4,0.1-0.6,0.1C-99.1,148.4-99.4,148.4-99.6,148.3z"/>
		<path class="st1" d="M-101.4,145c-1.2-0.3-2.3-0.8-3.3-1.5c-0.2,0.3-0.4,0.6-0.7,0.8c1.2,0.9,2.5,1.5,3.9,1.9c0-0.1,0-0.2,0-0.2
			C-101.6,145.6-101.4,145.3-101.4,145z"/>
		<path class="st1" d="M-96.4,146.1c1.4-0.4,2.7-1,3.9-1.9c0,0-0.1,0-0.1-0.1c-0.1-0.1-0.2-0.2-0.3-0.3c-0.1-0.2-0.2-0.3-0.3-0.5
			c-1.1,0.8-2.2,1.3-3.4,1.6c0.1,0.3,0.2,0.6,0.2,0.9C-96.4,145.9-96.4,146-96.4,146.1z"/>
		<path class="st1" d="M-96.6,145c-0.4-1-1.3-1.6-2.4-1.6c-0.5,0-0.9,0.1-1.3,0.4c-0.3,0.2-0.6,0.4-0.8,0.7
			c-0.1,0.2-0.2,0.3-0.3,0.5c-0.1,0.3-0.2,0.6-0.2,0.9c0,0.1,0,0.2,0,0.2c0.1,1.1,0.9,2,1.9,2.2c0.2,0,0.4,0.1,0.6,0.1
			s0.4,0,0.6-0.1c0.3-0.1,0.6-0.2,0.9-0.4s0.5-0.5,0.7-0.8s0.3-0.7,0.4-1.1c0-0.1,0-0.2,0-0.2C-96.4,145.6-96.4,145.3-96.6,145z
			 M-98.4,146.9c-0.1,0-0.2,0.1-0.3,0.1s-0.2,0-0.3,0l0,0c-0.2,0-0.4-0.1-0.6-0.1c-0.2-0.1-0.4-0.3-0.5-0.6
			c-0.1-0.2-0.1-0.3-0.1-0.5c0-0.1,0-0.2,0-0.3s0.1-0.2,0.2-0.3c0.1-0.2,0.3-0.4,0.5-0.5s0.3-0.1,0.5-0.1c0.4,0,0.8,0.2,1,0.6
			c0.1,0.2,0.2,0.4,0.2,0.6c0,0.2,0,0.3-0.1,0.5l0,0C-97.9,146.6-98.1,146.8-98.4,146.9z"/>
	</g>
</g>
</svg>
