<?xml version="1.0" encoding="UTF-8"?>
<!DOCTYPE svg PUBLIC "-//W3C//DTD SVG 1.1//EN" "http://www.w3.org/Graphics/SVG/1.1/DTD/svg11.dtd">
<!-- Creator: CorelDRAW X7 -->
<svg xmlns="http://www.w3.org/2000/svg" xml:space="preserve" width="50px" height="50px" version="1.1" style="shape-rendering:geometricPrecision; text-rendering:geometricPrecision; image-rendering:optimizeQuality; fill-rule:evenodd; clip-rule:evenodd"
viewBox="0 0 4110382 4110382"
 xmlns:xlink="http://www.w3.org/1999/xlink">
 <defs>
  <style type="text/css">
   <![CDATA[
    .str1 {stroke:white;stroke-width:16409.7}
    .str0 {stroke:white;stroke-width:16409.7}
    .fil0 {fill:none}
    .fil1 {fill:white}
   ]]>
  </style>
 </defs>
 <g id="Layer_x0020_1">
  <metadata id="CorelCorpID_0Corel-Layer"/>
  <rect class="fil0" x="-49" y="-49" width="4110479" height="4110479"/>
  <g id="_1063451472">
   <path class="fil0 str0" d="M2111799 1358411l53696 -459860c3884,-37771 -45831,-68746 -107974,-67678l-3495 -1262c-62046,1068 -114285,30586 -109042,68649l48938 460151 117877 0z"/>
   <g>
    <g>
     <path class="fil1" d="M1497747 2866353c-72532,-72435 -126908,-157105 -166136,-250708l6021 3010 0 0 6020 -3010c36315,87583 87680,163125 154095,232648l0 -293044 0 308094 0 0 0 3010 0 0 0 0 0 0zm-157105 -259836c0,0 0,0 0,0l151085 -63405 0 0 -151085 63405 0 0z"/>
     <path class="fil1" d="M1823999 2854313l-84573 -205461 0 0 84573 205461 0 0 0 0 0 0zm-108751 -226628l-87583 -39228 87583 39228 0 0 0 0z"/>
     <polygon class="fil1" points="1497747,2863343 1497747,2863343 1497747,2555249 1503767,2552142 1509788,2555249 1509788,2857323 1503767,2857323 1497747,2860333 "/>
     <path class="fil1" d="M2044510 3077834l-211481 -211481 0 -3010 211481 214491 214491 -211481 0 0 -214491 211481 0 0 0 0zm223521 -223521l-205364 -84670 0 0 205364 84670 0 0 0 0zm-444032 0l0 0 205461 -84670 0 0 -205461 84670z"/>
     <line class="fil0" x1="1823999" y1="2854313" x2="1823999" y2= "2854313" />
     <path class="fil1" d="M1833029 2863343l0 0 211481 -87583 0 0 -211481 87583 0 0zm-21167 -6020l0 0 -87583 -214491 0 0 87583 214491 0 0 0 0zm232648 -93700l-311104 -129918 0 0 311104 129918 0 0z"/>
     <polygon class="fil1" points="1820989,2857323 1811862,2857323 1811862,2857323 1724279,2642832 1724279,2642832 1739426,2648852 1823999,2854313 "/>
     <polygon class="fil1" points="1833029,2866353 1827009,2860333 1823999,2854313 2029460,2769643 2044510,2775760 2044510,2775760 1833029,2863343 "/>
     <polygon class="fil1" points="1827009,2860333 1823999,2857323 1823999,2857323 1820989,2857323 1820989,2857323 1823999,2854313 1823999,2854313 "/>
     <path class="fil1" d="M2044510 3092885l0 0 6020 0 217501 -220512 0 0 -205364 208471c87584,-3010 178177,-18157 262750,-51365l6117 -3010 3010 6020 3010 3010 3010 0 0 0 -12040 6020c-90690,33305 -184294,51366 -284014,51366l0 0 0 0 0 0zm299064 -72436l-63405 -151086 0 0 63405 151086 0 0 0 0 0 0z"/>
     <polygon class="fil1" points="2044510,3092885 2050530,3089875 2050530,3083854 2044510,3077834 2259001,2866353 2265021,2866353 2268031,2872373 2050530,3092885 "/>
     <path class="fil1" d="M2044510 3092885c-99623,0 -199344,-18061 -296054,-57386l3010 0 6117 -3010 3010 -6020c84573,33208 178177,51365 268867,54375l-205461 -208471 0 0 217501 220512 3010 0 0 0 0 0 0 0zm-296054 -72436c0,0 0,0 0,0l63406 -151086 0 0 -63406 151086z"/>
     <polygon class="fil1" points="2044510,3092885 2041500,3092885 1823999,2872373 1827009,2866353 1833029,2866353 2044510,3077834 2041500,3083854 2041500,3089875 "/>
     <polygon class="fil1" points="1827009,2866353 1827009,2866353 1827009,2863343 1827009,2860333 1827009,2860333 1833029,2866353 "/>
     <polygon class="fil1" points="1827009,2863343 1827009,2860333 1823999,2857323 1823999,2857323 1827009,2860333 1827009,2860333 "/>
     <polygon class="fil1" points="2044510,3092885 2044510,3092885 2041500,3089875 2041500,3083854 2044510,3077834 2050530,3083854 2050530,3089875 "/>
     <path class="fil1" d="M1748456 3035499l0 0c-93603,-39228 -178176,-96613 -250709,-169146l0 0 6020 3010 308095 0 -292947 0c66415,63503 144968,114771 229541,151086l-3010 6020 0 6020 3010 3010 0 0 0 0 0 0zm12137 -9030c0,0 0,0 0,0l63406 -154096 0 0 -63406 154096z"/>
     <polygon class="fil1" points="1503767,2869363 1497747,2866353 1497747,2863343 "/>
     <polygon class="fil1" points="1811862,2869363 1503767,2869363 1506777,2869363 1509788,2863343 1509788,2857323 1811862,2857323 1814969,2863343 "/>
     <polygon class="fil1" points="1503767,2869363 1503767,2869363 1497747,2863343 1497747,2860333 1503767,2857323 1509788,2857323 1509788,2863343 1506777,2869363 "/>
     <polygon class="fil1" points="1814969,2863343 1811862,2857323 1820989,2857323 1817979,2857323 1817979,2857323 1814969,2860333 "/>
     <polygon class="fil1" points="1817979,2857323 1817979,2857323 1820989,2857323 1820989,2857323 1823999,2857323 1820989,2857323 "/>
     <path class="fil1" d="M1751466 3035499l-3010 0 -3010 -3010 0 -6020 3010 -6020c0,0 0,0 0,0l63406 -151086 0 0 6117 0 6020 3010 0 0 0 0 -63406 154096c0,0 0,0 0,0l-3010 6020 -6117 3010 0 0 0 0 0 0z"/>
     <polygon class="fil1" points="1817979,2869363 1811862,2869363 1814969,2863343 1814969,2866353 1814969,2866353 1817979,2866353 "/>
     <polygon class="fil1" points="1823999,2872373 1817979,2869363 1820989,2869363 1823999,2869363 1827009,2866353 "/>
     <polygon class="fil1" points="1820989,2869363 1817979,2869363 1817979,2866353 1814969,2866353 "/>
     <polygon class="fil1" points="1814969,2866353 1814969,2866353 1814969,2863343 1814969,2860333 1817979,2857323 1814969,2860333 "/>
     <polygon class="fil1" points="1820989,2869363 1820989,2869363 1827009,2866353 1827009,2863343 1827009,2866353 1827009,2866353 1823999,2869363 "/>
     <polygon class="fil1" points="1820989,2869363 1820989,2869363 1814969,2866353 1814969,2860333 1817979,2857323 1820989,2857323 1823999,2857323 1827009,2860333 1827009,2863343 1827009,2866353 "/>
     <path class="fil1" d="M2820911 2319591c0,0 0,0 0,0l0 0 -3010 -3010 -217598 -220512 0 0 205461 208374c0,-93603 -18061,-184196 -54375,-268866l6020 -2913 3107 -9127c0,0 0,0 0,0l0 0c39228,93603 60395,193323 60395,293044l0 3010 0 0 0 0 0 0 0 0zm-226628 -232649l0 0 154095 -63405c0,0 0,0 0,0l-154095 63405 0 0 0 0z"/>
     <path class="fil1" d="M2591273 2534082l0 0 214491 -214491 -214491 -214491 0 0 214491 214491 -214491 214491 0 0 0 0zm-51365 -90593l-45248 -108751 0 0 45248 108751zm-45248 -139046l0 0 84573 -205363 0 0 -84573 205363 0 0z"/>
     <polygon class="fil1" points="2820911,2319591 2814891,2313571 2808774,2316581 2805764,2319591 2591273,2105100 2594283,2099080 2600303,2096069 2817901,2316581 "/>
     <path class="fil1" d="M2268031 2854313l0 0 84573 -205461 0 0 -84573 205461 0 0zm108848 -226628l0 0 202354 -87583 0 0 -202354 87583z"/>
     <line class="fil0" x1="2268031" y1="2854313" x2="2268031" y2= "2854313" />
     <path class="fil1" d="M2367752 2642832l0 0 214491 -87583 0 0 -214491 87583 0 0zm-9031 -9127l129821 -314114 0 0 -129821 314114 0 0 0 0 0 0zm220512 -93603l-39325 -96613 39325 96613 0 0zm12040 -6020l-87583 -214491 0 0 87583 214491 0 0z"/>
     <polygon class="fil1" points="2579233,2540102 2539908,2443489 2494660,2334738 2500680,2322601 2503690,2319591 2591273,2534082 2591273,2534082 2591273,2534082 2585253,2540102 "/>
     <polygon class="fil1" points="2367752,2642832 2370762,2639822 2376879,2627685 2579233,2540102 2579233,2540102 2579233,2540102 2582243,2546122 2582243,2555249 2582243,2555249 "/>
     <polygon class="fil1" points="2582243,2546122 2579233,2540102 2585253,2540102 2585253,2540102 2582243,2543112 "/>
     <path class="fil1" d="M2340564 3035499l0 0 6020 -3010 0 -6020 -3010 -6020 6020 -3107c84573,-36218 157106,-84476 223521,-147979l-292946 0 308094 0 6020 -3010c-69426,69523 -150989,123801 -238572,163126l-15147 6020 0 0 0 0 0 0zm-9030 -9030l-63503 -154096 0 0 63503 154096 0 0z"/>
     <polygon class="fil1" points="2340564,3035499 2337554,3035499 2334544,3032489 2331534,3026469 2331534,3026469 2268031,2872373 2268031,2872373 2268031,2872373 2274148,2869363 2280169,2869363 2280169,2869363 2343574,3020449 2343574,3020449 2346584,3026469 2346584,3032489 "/>
     <polygon class="fil1" points="2268031,2872373 2265021,2866353 2268031,2869363 2271041,2869363 2271041,2869363 2274148,2869363 "/>
     <polygon class="fil1" points="2588263,2869363 2280169,2869363 2277159,2863343 2280169,2857323 2582243,2857323 2582243,2863343 2585253,2869363 "/>
     <polygon class="fil1" points="2280169,2869363 2274148,2869363 2274148,2866353 2274148,2866353 2277159,2866353 2277159,2863343 "/>
     <polygon class="fil1" points="2274148,2869363 2271041,2869363 2271041,2869363 2271041,2869363 2271041,2869363 2274148,2866353 2274148,2866353 "/>
     <path class="fil1" d="M2259001 2866353l-214491 -90593 0 0 214491 90593 0 0 0 0zm-214491 -102730l0 0 314211 -129918 0 0 -314211 129918 0 0 0 0z"/>
     <polygon class="fil1" points="2259001,2866353 2259001,2866353 2259001,2863343 2044510,2775760 2047520,2775760 2062667,2769643 2268031,2854313 2265021,2860333 "/>
     <path class="fil1" d="M2044510 2775760l0 0 0 0 0 0 0 0zm0 -12137l0 0 0 0 0 0z"/>
     <polygon class="fil1" points="2044510,2775760 2044510,2775760 2044510,2775760 2044510,2775760 2044510,2775760 2047520,2775760 "/>
     <polygon class="fil1" points="2265021,2866353 2259001,2866353 2265021,2860333 2265021,2860333 2265021,2863343 "/>
     <polygon class="fil1" points="2280169,2857323 2280169,2857323 2367752,2642832 2367752,2642832 "/>
     <polygon class="fil1" points="2280169,2857323 2271041,2857323 2268031,2854313 2352604,2648852 2364742,2642832 2367752,2642832 "/>
     <polygon class="fil1" points="2265021,2860333 2268031,2854313 2268031,2854313 2268031,2854313 2271041,2857323 2271041,2857323 2268031,2857323 2265021,2857323 "/>
     <polygon class="fil1" points="2265021,2863343 2265021,2860333 2265021,2860333 2265021,2857323 2268031,2857323 2265021,2860333 "/>
     <path class="fil1" d="M2367752 2642832l0 0 0 0 0 0 0 0 0 0zm-9031 -9127l0 0 0 0 0 0 0 0 0 0 0 0z"/>
     <polygon class="fil1" points="2364742,2642832 2370762,2639822 2367752,2642832 2367752,2642832 2367752,2642832 "/>
     <polygon class="fil1" points="2271041,2869363 2268031,2869363 2265021,2866353 2265021,2866353 2265021,2863343 2265021,2866353 "/>
     <polygon class="fil1" points="2277159,2863343 2277159,2860333 2274148,2857323 2274148,2857323 2271041,2857323 2280169,2857323 "/>
     <polygon class="fil1" points="2274148,2857323 2271041,2857323 2268031,2857323 2271041,2857323 2271041,2857323 "/>
     <polygon class="fil1" points="2274148,2866353 2277159,2860333 2274148,2857323 2277159,2860333 2277159,2863343 2277159,2866353 "/>
     <polygon class="fil1" points="2271041,2869363 2271041,2869363 2271041,2869363 2265021,2866353 2265021,2863343 2265021,2860333 2268031,2857323 2271041,2857323 2274148,2857323 2277159,2860333 2274148,2866353 "/>
     <path class="fil1" d="M2594283 2866353l0 0 0 -3010 0 0 0 -308094 0 293044c66512,-69523 117878,-145065 154095,-232648l3011 3010 3010 0 6117 -3010c-39325,93603 -93700,178273 -166233,250708l0 0 0 0 0 0zm157106 -259836l-151086 -63405 151086 63405c0,0 0,0 0,0z"/>
     <polygon class="fil1" points="2594283,2863343 2594283,2860333 2588263,2857323 2582243,2857323 2582243,2555249 2588263,2552142 2594283,2555249 "/>
     <polygon class="fil1" points="2582243,2555249 2582243,2546122 2582243,2546122 2585253,2549132 2585253,2549132 2588263,2552142 "/>
     <polygon class="fil1" points="2585253,2549132 2582243,2546122 2582243,2546122 2582243,2546122 2582243,2543112 2582243,2546122 "/>
     <polygon class="fil1" points="2588263,2869363 2588263,2869363 2594283,2863343 2594283,2866353 "/>
     <polygon class="fil1" points="2588263,2869363 2588263,2869363 2585253,2869363 2582243,2863343 2582243,2857323 2588263,2857323 2594283,2860333 2594283,2863343 "/>
     <path class="fil1" d="M2748378 2615645l-154095 -60396 0 0 154095 60396c0,0 0,0 0,0zm12138 0l0 0 0 -3011 -3107 -6117 -6020 0c36314,-87583 54375,-178176 54375,-271779l-205461 208374 0 0 217598 -217501 3010 -6020 0 0c0,102730 -21167,202353 -60395,296054l0 0 0 0 0 0 0 0z"/>
     <path class="fil1" d="M2820911 2319591l0 0c0,0 0,0 0,0l0 0 0 0z"/>
     <polygon class="fil1" points="2600303,2543112 2594283,2540102 2591273,2534082 2805764,2319591 2808774,2325611 2814891,2325611 2814891,2325611 2814891,2325611 2820911,2319591 2817901,2325611 "/>
     <polygon class="fil1" points="2814891,2325611 2814891,2325611 2814891,2325611 2808774,2325611 2805764,2319591 2808774,2316581 2814891,2313571 2820911,2319591 2820911,2319591 "/>
     <polygon class="fil1" points="2594283,2540102 2591273,2540102 2588263,2540102 2585253,2540102 2585253,2540102 2591273,2534082 "/>
     <polygon class="fil1" points="2582243,2543112 2585253,2540102 2585253,2540102 2585253,2540102 2588263,2540102 2585253,2540102 "/>
     <path class="fil1" d="M2754399 2618655l0 0 -6021 -3010c0,0 0,0 0,0l-154095 -60396 0 0 0 -9127 6020 -3010 0 0 0 0 151086 63405c0,0 0,0 0,0l6020 0 3107 6117 0 3011 -6117 3010 0 0 0 0 0 0z"/>
     <polygon class="fil1" points="2594283,2546122 2594283,2546122 2594283,2543112 2594283,2543112 2594283,2540102 2600303,2543112 "/>
     <polygon class="fil1" points="2594283,2555249 2588263,2552142 2591273,2549132 2591273,2549132 2594283,2549132 2594283,2546122 "/>
     <polygon class="fil1" points="2591273,2549132 2594283,2543112 2594283,2546122 2594283,2546122 2594283,2549132 "/>
     <polygon class="fil1" points="2594283,2543112 2591273,2540102 2588263,2540102 2591273,2540102 2594283,2540102 "/>
     <polygon class="fil1" points="2588263,2552142 2585253,2549132 2585253,2549132 2588263,2552142 2588263,2552142 2591273,2549132 2591273,2549132 "/>
     <polygon class="fil1" points="2588263,2552142 2588263,2552142 2585253,2549132 2582243,2546122 2582243,2543112 2585253,2540102 2588263,2540102 2591273,2540102 2594283,2543112 2591273,2549132 "/>
     <path class="fil1" d="M1343652 2615645c0,0 0,0 0,0l154095 -60396 0 0 -154095 60396 0 0 0 0zm-12041 0l0 0c-39227,-93701 -60395,-193324 -60395,-296054l3010 3010 0 3010 217501 217501 0 0 -208471 -208374c3010,93603 21168,184196 57386,271779l-6020 0 -3011 9128 0 0 0 0 0 0z"/>
     <path class="fil1" d="M1337632 2618655l-6021 -3010 3011 -9128 6020 0c0,0 0,0 0,0l151085 -63405 0 0 0 0 6020 3010 0 9127 0 0 -154095 60396c0,0 0,0 0,0l-6020 3010 0 0 0 0 0 0z"/>
     <polygon class="fil1" points="1497747,2555249 1497747,2546122 1497747,2549132 1500757,2552142 1503767,2552142 "/>
     <path class="fil1" d="M1509788 2540102l0 0 87680 -202354 -87680 202354 0 0zm-9031 -6020l-214491 -214491 214491 -214491 0 0 -214491 214491 214491 214491 69523 -169146 -69523 169146 0 0 0 0zm96711 -229639l-81563 -196333 81563 196333z"/>
     <polygon class="fil1" points="1491727,2543112 1274226,2325611 1274226,2322601 1277236,2325611 1277236,2325611 1283256,2325611 1286266,2319591 1500757,2534082 1497747,2540102 "/>
     <polygon class="fil1" points="1497747,2546122 1491727,2543112 1497747,2540102 1497747,2543112 1497747,2543112 "/>
     <polygon class="fil1" points="1497747,2549132 1497747,2546122 1497747,2546122 1497747,2546122 1497747,2546122 "/>
     <path class="fil1" d="M1509788 2099080l0 0 205460 -84573 0 0 -205460 84573 0 0 0 0zm229638 -108751l84573 -205461 0 0 -84573 205461 0 0z"/>
     <path class="fil1" d="M1724279 2642832l-214491 -87583 0 0 214491 87583 0 0 0 0 0 0zm9127 -9127l0 0 -129918 -314114 0 0 129918 314114 0 0 0 0zm-105741 -45248l-117877 -48355 0 0 117877 48355 0 0 0 0z"/>
     <polygon class="fil1" points="1724279,2642832 1509788,2555249 1509788,2555249 1509788,2546122 1509788,2540102 1627665,2588457 1715248,2627685 1721268,2639822 "/>
     <polygon class="fil1" points="1509788,2555249 1503767,2552142 1506777,2549132 1506777,2549132 1509788,2546122 1509788,2546122 "/>
     <path class="fil1" d="M1724279 2642832l0 0 0 0 0 0 0 0 0 0 0 0zm9127 -9127l0 0 0 0 0 0 0 0 0 0 0 0z"/>
     <polygon class="fil1" points="1724279,2642832 1724279,2642832 1724279,2642832 1724279,2642832 1721268,2639822 "/>
     <polygon class="fil1" points="1570280,2364936 1588437,2319591 1588437,2319591 "/>
     <polygon class="fil1" points="1503767,2552142 1500757,2552142 1497747,2549132 1503767,2552142 1503767,2552142 1506777,2549132 1506777,2549132 "/>
     <polygon class="fil1" points="1509788,2540102 1506777,2540102 1500757,2534082 1570280,2364936 1588437,2319591 1591350,2322601 1597468,2337748 "/>
     <polygon class="fil1" points="1509788,2546122 1509788,2546122 1506777,2543112 1506777,2540102 1506777,2540102 1509788,2540102 "/>
     <polygon class="fil1" points="1506777,2549132 1509788,2546122 1506777,2543112 1509788,2546122 1509788,2546122 1509788,2546122 "/>
     <polygon class="fil1" points="1497747,2540102 1500757,2534082 1506777,2540102 1506777,2540102 1503767,2540102 1500757,2540102 "/>
     <polygon class="fil1" points="1497747,2546122 1497747,2543112 1497747,2543112 1497747,2540102 1500757,2540102 1503767,2540102 1500757,2540102 "/>
     <polygon class="fil1" points="1506777,2543112 1506777,2540102 1503767,2540102 1506777,2540102 1506777,2540102 1506777,2540102 "/>
     <polygon class="fil1" points="1503767,2552142 1497747,2549132 1497747,2546122 1497747,2546122 1500757,2540102 1503767,2540102 1506777,2540102 1506777,2543112 1509788,2546122 1506777,2549132 "/>
     <path class="fil1" d="M1588437 2319591l-87680 -214491 0 0 87680 214491 0 0 0 0zm15051 0l0 0 129918 -314115 0 0 -129918 314115 0 0zm-87583 -211481l-6117 -9030 6117 9030zm-6117 -21168l0 0 214491 -90593 0 0 -214491 90593 0 0 0 0z"/>
     <polygon class="fil1" points="1588437,2319591 1500757,2105100 1500757,2105100 1500757,2105100 1506777,2099080 1509788,2099080 1515905,2108110 1597468,2304443 1591350,2316581 "/>
     <polygon class="fil1" points="1509788,2099080 1509788,2093059 1509788,2086942 1724279,1996349 1721268,1999359 1715248,2014507 "/>
     <polygon class="fil1" points="1506777,2099080 1506777,2099080 1506777,2096069 1509788,2096069 1509788,2093059 1509788,2099080 "/>
     <path class="fil1" d="M1603488 2319591l0 0 0 0 0 0 0 0zm-15051 0l0 0 0 0 0 0 0 0z"/>
     <polygon class="fil1" points="1591350,2322601 1591350,2322601 1588437,2319591 1588437,2319591 1588437,2319591 1591350,2316581 "/>
     <path class="fil1" d="M1497747 1772828l0 0c69523,-69523 151086,-123898 238669,-163126l12040 -6020 0 0 0 0 -3010 9030 3010 6020 -6020 3010c-84573,36315 -160116,87583 -223521,148076l-15148 0 -3010 3010 -3010 0 0 0 0 0 0 0zm326252 -6020l-63406 -154096 0 0 63406 154096 0 0 0 0z"/>
     <polygon class="fil1" points="1811862,1781858 1509788,1781858 1509788,1775838 1506777,1769818 1500757,1772828 1503767,1769818 1518915,1769818 1811862,1769818 1814969,1775838 "/>
     <path class="fil1" d="M1491727 2096069l-151085 -60395c0,0 0,0 0,0l151085 60395 0 0 0 0zm-160116 -72532l0 0c39228,-93603 93604,-178273 166136,-250709l0 3010 0 0 0 15050c-66415,69523 -117780,145066 -154095,232649l-6020 -3010 -6021 3010 0 0 0 0 0 0z"/>
     <polygon class="fil1" points="1503767,2086942 1497747,2086942 1497747,1790888 1497747,1775838 1497747,1775838 1497747,1778848 1503767,1781858 1509788,1781858 1509788,2086942 "/>
     <polygon class="fil1" points="1509788,2093059 1509788,2093059 1506777,2089952 1506777,2089952 1503767,2086942 1509788,2086942 1509788,2086942 "/>
     <polygon class="fil1" points="1506777,2096069 1509788,2093059 1506777,2089952 1509788,2093059 1509788,2093059 1509788,2096069 "/>
     <polygon class="fil1" points="1497747,1775838 1497747,1772828 1500757,1772828 "/>
     <polygon class="fil1" points="1509788,1781858 1503767,1781858 1497747,1778848 1497747,1775838 1500757,1772828 1506777,1769818 1509788,1775838 "/>
     <path class="fil1" d="M1271216 2319591c0,-102731 21168,-202354 60395,-296054l0 6020 3011 3107 6020 2913c-36218,84670 -54376,175263 -57386,268866l208471 -208374 0 0 -217501 220512 0 0 -3010 3010 0 0 0 0 0 0zm226531 -232649l-154095 -63405c0,0 0,0 0,0l154095 63405 0 0 0 0z"/>
     <polygon class="fil1" points="1274226,2322601 1271216,2319591 1274226,2316581 "/>
     <polygon class="fil1" points="1286266,2319591 1283256,2316581 1277236,2313571 1274226,2316581 1274226,2316581 1491727,2096069 1497747,2099080 1500757,2105100 "/>
     <polygon class="fil1" points="1277236,2325611 1277236,2325611 1274226,2322601 1274226,2316581 1277236,2313571 1283256,2316581 1286266,2319591 1283256,2325611 "/>
     <polygon class="fil1" points="1500757,2105100 1497747,2099080 1500757,2102090 1503767,2102090 1506777,2102090 1506777,2099080 "/>
     <polygon class="fil1" points="1503767,2102090 1506777,2099080 1506777,2096069 1506777,2099080 1506777,2099080 1506777,2102090 "/>
     <path class="fil1" d="M1491727 2096069l0 0 0 0 -151085 -60395c0,0 0,0 0,0l-6020 -3010 -3011 -3107 0 -6020 6021 -3010 6020 3010c0,0 0,0 0,0l154095 63405 0 6117 -6020 3010 0 0 0 0 0 0z"/>
     <polygon class="fil1" points="1497747,2099080 1491727,2096069 1497747,2093059 1497747,2096069 1497747,2096069 1497747,2096069 "/>
     <polygon class="fil1" points="1497747,2093059 1497747,2086942 1497747,2086942 1503767,2086942 1500757,2089952 1500757,2089952 1497747,2089952 "/>
     <polygon class="fil1" points="1497747,2096069 1497747,2096069 1497747,2093059 1497747,2089952 1500757,2089952 "/>
     <polygon class="fil1" points="1503767,2102090 1500757,2102090 1497747,2099080 1497747,2096069 1497747,2096069 1500757,2099080 "/>
     <polygon class="fil1" points="1506777,2089952 1503767,2089952 1500757,2089952 1500757,2089952 1503767,2086942 "/>
     <polygon class="fil1" points="1503767,2102090 1500757,2099080 1497747,2096069 1500757,2089952 1503767,2089952 1506777,2089952 1509788,2093059 1506777,2096069 1506777,2099080 "/>
     <path class="fil1" d="M2600303 2096069l0 0 151086 -60395c0,0 0,0 0,0l-151086 60395 0 0 0 0zm160213 -72532l-9127 -3010 -3011 3010c-36217,-87583 -87583,-163126 -154095,-232649l0 -15050 0 0 0 -3010c72533,72436 126908,157106 166233,250709l0 0 0 0z"/>
     <path class="fil1" d="M2600303 2096069l-6020 -3010 0 -6117 154095 -63405c0,0 0,0 0,0l3011 -3010 9127 3010c0,0 0,0 0,0l-3107 9127 -6020 2913c0,0 0,0 0,-2913l-151086 63405 0 0 0 0 0 0 0 0 0 0z"/>
     <polygon class="fil1" points="2594283,2099080 2594283,2099080 2594283,2096069 2594283,2096069 2594283,2093059 2600303,2096069 "/>
     <path class="fil1" d="M2579233 2099080l-202354 -84573 0 0 202354 84573 0 0zm-226629 -108751l0 0 -84573 -205461 0 0 84573 205461 0 0 0 0z"/>
     <line class="fil0" x1="2579233" y1="2099080" x2="2579233" y2= "2099080" />
     <polygon class="fil1" points="2588263,2086942 2582243,2086942 2582243,1781858 2588263,1781858 2594283,1778848 2594283,1775838 2594283,1775838 2594283,1790888 2594283,2086942 "/>
     <polygon class="fil1" points="2594283,2093059 2594283,2089952 2591273,2089952 2591273,2089952 2588263,2086942 2594283,2086942 2594283,2086942 "/>
     <polygon class="fil1" points="2594283,2096069 2594283,2093059 2594283,2089952 2591273,2089952 2594283,2089952 2594283,2093059 "/>
     <path class="fil1" d="M2062667 1869538l0 0 190314 -78650 -190314 78650 0 0 0 0zm-33207 0l-205461 -84670 0 0 205461 84670 0 0 0 0zm-196431 -93700l0 0 211481 -214491 214491 214491 0 0 -214491 -214491 -211481 214491 0 0 0 0z"/>
     <line class="fil0" x1="1823999" y1="1784868" x2="1823999" y2= "1784868" />
     <path class="fil1" d="M2488542 2319591l-129821 -314115 0 0 129821 314115 0 0 0 0 0 0zm15148 0l0 0 87583 -214491 0 0 -87583 214491z"/>
     <polygon class="fil1" points="2503690,2319591 2500680,2316581 2494660,2304443 2579233,2099080 2585253,2099080 2591273,2105100 2591273,2105100 2591273,2105100 "/>
     <polygon class="fil1" points="2591273,2105100 2585253,2099080 2585253,2102090 2588263,2102090 2591273,2102090 2594283,2099080 "/>
     <path class="fil1" d="M2488542 2319591l0 0 0 0 0 0 0 0zm15148 0l0 0 0 0 0 0 0 0z"/>
     <polygon class="fil1" points="2500680,2322601 2500680,2316581 2503690,2319591 2503690,2319591 2503690,2319591 "/>
     <polygon class="fil1" points="2582243,2086942 2367752,1996349 2367752,1996349 "/>
     <polygon class="fil1" points="2588263,2102090 2591273,2099080 2594283,2096069 2594283,2099080 2594283,2099080 2591273,2102090 "/>
     <polygon class="fil1" points="2579233,2099080 2376879,2014507 2370762,1999359 2367752,1996349 2582243,2086942 2582243,2093059 "/>
     <polygon class="fil1" points="2585253,2099080 2579233,2099080 2579233,2099080 2579233,2099080 2582243,2093059 2582243,2096069 2582243,2096069 "/>
     <polygon class="fil1" points="2588263,2102090 2585253,2102090 2585253,2099080 2585253,2099080 2582243,2096069 2585253,2099080 "/>
     <polygon class="fil1" points="2582243,2093059 2582243,2086942 2582243,2086942 2588263,2086942 2585253,2089952 2585253,2089952 "/>
     <polygon class="fil1" points="2585253,2089952 2585253,2089952 2588263,2086942 2591273,2089952 2591273,2089952 2588263,2089952 "/>
     <polygon class="fil1" points="2582243,2096069 2582243,2096069 2582243,2093059 2582243,2093059 2585253,2089952 2582243,2093059 "/>
     <polygon class="fil1" points="2588263,2102090 2585253,2099080 2582243,2096069 2582243,2093059 2585253,2089952 2588263,2089952 2591273,2089952 2594283,2089952 2594283,2093059 2594283,2096069 2591273,2099080 "/>
     <path class="fil1" d="M2358721 2005476l-314211 -129918 314211 129918 0 0 0 0 0 0zm9031 -9127l0 0 -87583 -214491 0 0 87583 214491 0 0 0 0zm-323242 -132928l0 0 214491 -87583 0 0 -214491 87583 0 0 0 0zm208471 -72533l15050 -6020 -15050 6020z"/>
     <polygon class="fil1" points="2367752,1996349 2364742,1996349 2352604,1990329 2268031,1784868 2268031,1784868 2271041,1781858 2280169,1781858 "/>
     <polygon class="fil1" points="2062667,1869538 2047520,1863421 2044510,1863421 2259001,1775838 2259001,1775838 2259001,1775838 2265021,1781858 2268031,1784868 2252981,1790888 "/>
     <polygon class="fil1" points="2268031,1784868 2265021,1781858 2265021,1781858 2271041,1781858 2271041,1781858 "/>
     <path class="fil1" d="M2358721 2005476l0 0 0 0 0 0 0 0 0 0 0 0zm9031 -9127l0 0 0 0 0 0 0 0 0 0z"/>
     <polygon class="fil1" points="2370762,1999359 2364742,1996349 2367752,1996349 2367752,1996349 2367752,1996349 "/>
     <path class="fil1" d="M1811862 1769818l0 0 -63406 -151086 0 0 63406 151086 0 0zm12137 -3010l0 0 205461 -208471c-90690,3010 -178273,18157 -262846,51365l-6021 3010 -3010 -3010 -9127 -6020 15148 -3010c90593,-36315 184293,-54375 280906,-54375l0 0 0 0 -3010 0 -217501 220511 0 0z"/>
     <polygon class="fil1" points="1817979,1769818 1811862,1769818 1748456,1618732 1748456,1618732 1745446,1612712 1748456,1603682 1748456,1603682 1757583,1609702 1760593,1612712 1760593,1612712 1823999,1766808 1823999,1766808 1823999,1766808 "/>
     <polygon class="fil1" points="1814969,1775838 1811862,1769818 1811862,1769818 1817979,1769818 1817979,1772828 1814969,1772828 1814969,1772828 "/>
     <polygon class="fil1" points="1833029,1775838 1827009,1772828 1823999,1766808 2041500,1546297 2041500,1546297 2038490,1549307 2041500,1555327 2044510,1561347 "/>
     <polygon class="fil1" points="1827009,1772828 1823999,1772828 1823999,1772828 1820989,1769818 1817979,1769818 1823999,1766808 "/>
     <polygon class="fil1" points="1814969,1772828 1817979,1772828 1817979,1769818 1820989,1769818 1823999,1772828 "/>
     <path class="fil1" d="M1733406 2005476l0 0 311104 -129918 0 0 -311104 129918 0 0 0 0zm-9127 -9127l87583 -214491 0 0 -87583 214491 0 0 0 0z"/>
     <polygon class="fil1" points="1724279,1996349 1811862,1781858 1817979,1781858 1823999,1784868 1739426,1990329 "/>
     <path class="fil1" d="M1733406 2005476l0 0 0 0 0 0 0 0 0 0 0 0zm-9127 -9127l0 0 0 0 0 0 0 0 0 0z"/>
     <polygon class="fil1" points="1721268,1999359 1721268,1999359 1724279,1996349 1724279,1996349 1724279,1996349 1724279,1996349 "/>
     <polygon class="fil1" points="1817979,1781858 1811862,1781858 1811862,1781858 1814969,1775838 1814969,1778848 "/>
     <polygon class="fil1" points="2044510,1863421 1833029,1775838 "/>
     <polygon class="fil1" points="2029460,1869538 1823999,1784868 1827009,1778848 1833029,1775838 1833029,1775838 2044510,1863421 2044510,1863421 "/>
     <polygon class="fil1" points="1823999,1784868 1817979,1781858 1820989,1781858 1820989,1781858 1820989,1781858 1820989,1781858 1820989,1781858 1823999,1781858 1827009,1778848 "/>
     <path class="fil1" d="M1820989 1781858l0 0 0 0 0 0 0 0 0 0 0 0 0 0zm0 0l-3010 0 0 0 0 0 3010 0 0 0 0 0 0 0z"/>
     <path class="fil1" d="M2044510 1875558l0 0 0 0 0 0zm0 -12137l0 0 0 0 0 0 0 0z"/>
     <polygon class="fil1" points="2047520,1863421 2047520,1863421 2044510,1863421 2044510,1863421 2044510,1863421 2044510,1863421 "/>
     <polygon class="fil1" points="1817979,1781858 1814969,1778848 1814969,1775838 1814969,1775838 1814969,1772828 1814969,1772828 1814969,1778848 "/>
     <polygon class="fil1" points="1827009,1778848 1827009,1778848 1827009,1778848 1827009,1775838 1827009,1772828 1827009,1772828 1833029,1775838 "/>
     <polygon class="fil1" points="1820989,1781858 1827009,1778848 1827009,1778848 1827009,1778848 1823999,1781858 "/>
     <polygon class="fil1" points="1827009,1778848 1827009,1772828 1823999,1772828 1823999,1772828 1827009,1772828 1827009,1772828 1827009,1775838 "/>
     <polygon class="fil1" points="1820989,1781858 1820989,1781858 1820989,1781858 1817979,1781858 1814969,1778848 1814969,1772828 1823999,1772828 1827009,1772828 1827009,1778848 "/>
     <path class="fil1" d="M2062667 2769643l0 0 289937 -120791 0 0 -289937 120791 0 0 0 0zm-33207 0l-290034 -120791 0 0 290034 120791 0 0 0 0zm347419 -141958l117781 -292947 0 0 -117781 292947 0 0 0 0zm-661631 -3010l0 0 -117780 -289937 117780 289937zm-117780 -320232l0 0 117780 -289936 0 0 -117780 289936zm897192 0l-117781 -289936 0 0 117781 289936 0 0 0 0 0 0zm-142056 -314114l-289937 -120888 0 0 289937 120888 0 0 0 0 0 0zm-613178 0l0 0 290034 -120888 0 0 -290034 120888 0 0z"/>
     <path class="fil1" d="M1739426 2648852l0 0 0 0 0 0 0 0 0 0 0 0zm-24178 -21167l0 0 0 0 0 0 0 0z"/>
     <path class="fil1" d="M2062667 2769643l0 0 0 0 0 0 0 0zm-33207 0l0 0 0 0 0 0 0 0z"/>
     <polygon class="fil1" points="2029460,2769643 1739426,2648852 1733406,2636812 1733406,2636812 1733406,2633705 1733406,2633705 2044510,2763623 2044510,2763623 "/>
     <polygon class="fil1" points="1739426,2648852 1724279,2642832 1727289,2642832 1727289,2642832 1727289,2642832 1733406,2636812 1733406,2636812 1733406,2636812 "/>
     <polygon class="fil1" points="2044510,2775760 2044510,2775760 2029460,2769643 2029460,2769643 2029460,2769643 2044510,2763623 2038490,2769643 "/>
     <path class="fil1" d="M2494660 2334738l0 0 0 0 0 0 0 0zm0 -30295l0 0 0 0 0 0 0 0z"/>
     <path class="fil1" d="M2352604 2648852l0 0 0 0 0 0 0 0zm24275 -21167l0 0 0 0 0 0 0 0z"/>
     <polygon class="fil1" points="2358721,2633705 2488542,2319591 2488542,2322601 2494660,2334738 2376879,2627685 2361731,2630695 "/>
     <polygon class="fil1" points="2494660,2334738 2488542,2322601 2494660,2325611 2500680,2322601 "/>
     <polygon class="fil1" points="2370762,2639822 2370762,2639822 2367752,2633705 2361731,2630695 2376879,2627685 2376879,2627685 2376879,2627685 "/>
     <polygon class="fil1" points="2062667,2769643 2047520,2763623 2044510,2763623 2358721,2633705 2358721,2636812 2352604,2648852 "/>
     <polygon class="fil1" points="2047520,2775760 2047520,2775760 2053637,2769643 2047520,2763623 2062667,2769643 2062667,2769643 2062667,2769643 "/>
     <polygon class="fil1" points="2047520,2763623 2044510,2763623 2044510,2763623 2044510,2763623 2044510,2763623 "/>
     <polygon class="fil1" points="2044510,2775760 2044510,2775760 2038490,2769643 2044510,2763623 2047520,2763623 2053637,2769643 2047520,2775760 "/>
     <polygon class="fil1" points="2352604,2648852 2352604,2648852 2352604,2648852 2358721,2636812 2358721,2642832 2364742,2642832 2364742,2642832 "/>
     <polygon class="fil1" points="2358721,2636812 2358721,2633705 2358721,2633705 2358721,2633705 2361731,2630695 "/>
     <polygon class="fil1" points="2364742,2642832 2358721,2642832 2358721,2636812 2361731,2630695 2367752,2633705 2370762,2639822 "/>
     <path class="fil1" d="M1597468 2337748l0 0 0 0 0 0zm0 -33305l0 0 0 0z"/>
     <path class="fil1" d="M1715248 2014507l0 0 0 0 0 0 0 0zm24178 -24178l0 0 0 0 0 0 0 0z"/>
     <polygon class="fil1" points="1733406,2633705 1730396,2630695 1715248,2627685 1597468,2337748 1600478,2322601 1603488,2319591 "/>
     <polygon class="fil1" points="1721268,2639822 1721268,2639822 1715248,2627685 1715248,2627685 1715248,2627685 1730396,2630695 1724279,2633705 "/>
     <polygon class="fil1" points="1733406,2636812 1730396,2630695 1733406,2633705 1733406,2633705 1733406,2633705 1733406,2633705 "/>
     <polygon class="fil1" points="1727289,2642832 1727289,2642832 1727289,2642832 1724279,2642832 1721268,2639822 1724279,2633705 1730396,2630695 1733406,2636812 1733406,2636812 "/>
     <polygon class="fil1" points="1597468,2337748 1591350,2322601 1597468,2325611 1600478,2322601 "/>
     <polygon class="fil1" points="1603488,2319591 1600478,2316581 1597468,2304443 1715248,2014507 1730396,2008389 1733406,2005476 "/>
     <polygon class="fil1" points="1600478,2316581 1591350,2316581 1597468,2304443 1597468,2304443 "/>
     <polygon class="fil1" points="1715248,2014507 1715248,2014507 1715248,2014507 1721268,1999359 1724279,2005476 1727289,2008389 1730396,2008389 "/>
     <polygon class="fil1" points="1600478,2322601 1600478,2322601 1600478,2316581 1603488,2319591 1603488,2319591 1603488,2319591 "/>
     <polygon class="fil1" points="1597468,2325611 1591350,2322601 1591350,2316581 1600478,2316581 1600478,2322601 "/>
     <path class="fil1" d="M2376879 2014507l0 0 0 0 0 0 0 0zm-24275 -24178l0 0 0 0 0 0 0 0z"/>
     <path class="fil1" d="M2062667 1869538l0 0 0 0 0 0 0 0zm-33207 0l0 0 0 0 0 0 0 0z"/>
     <polygon class="fil1" points="2488542,2319591 2358721,2005476 2361731,2008389 2376879,2014507 2494660,2304443 2488542,2316581 "/>
     <polygon class="fil1" points="2500680,2316581 2488542,2316581 2494660,2304443 2494660,2304443 2494660,2304443 "/>
     <polygon class="fil1" points="2488542,2322601 2488542,2322601 2488542,2319591 2488542,2319591 2488542,2319591 2488542,2316581 "/>
     <polygon class="fil1" points="2494660,2325611 2488542,2322601 2488542,2316581 2500680,2316581 2500680,2322601 "/>
     <polygon class="fil1" points="2376879,2014507 2361731,2008389 2364742,2008389 2367752,2005476 2370762,1999359 "/>
     <polygon class="fil1" points="2358721,2005476 2044510,1875558 2047520,1875558 2062667,1869538 2352604,1990329 "/>
     <polygon class="fil1" points="2358721,2005476 2358721,2005476 2352604,1990329 2352604,1990329 2352604,1990329 2364742,1996349 2358721,1996349 "/>
     <polygon class="fil1" points="2047520,1875558 2050530,1869538 2047520,1863421 2062667,1869538 2062667,1869538 2062667,1869538 "/>
     <polygon class="fil1" points="2361731,2008389 2361731,2008389 2358721,2005476 2358721,2005476 2358721,2005476 2358721,2005476 "/>
     <polygon class="fil1" points="2364742,2008389 2361731,2008389 2358721,2005476 2358721,1996349 2364742,1996349 2370762,1999359 2367752,2005476 "/>
     <polygon class="fil1" points="1733406,2005476 1733406,2005476 1739426,1990329 2029460,1869538 2044510,1875558 2044510,1875558 "/>
     <polygon class="fil1" points="1733406,2005476 1733406,1996349 1724279,1996349 1739426,1990329 1739426,1990329 1739426,1990329 "/>
     <polygon class="fil1" points="1730396,2008389 1730396,2008389 1733406,2005476 1733406,2005476 1733406,2005476 1733406,2005476 "/>
     <polygon class="fil1" points="1727289,2008389 1724279,2005476 1721268,1999359 1724279,1996349 1733406,1996349 1733406,2005476 1730396,2008389 "/>
     <polygon class="fil1" points="2044510,1875558 2029460,1869538 2029460,1869538 2029460,1869538 2044510,1863421 2038490,1869538 "/>
     <polygon class="fil1" points="2044510,1875558 2044510,1875558 2044510,1875558 2044510,1875558 2047520,1875558 "/>
     <polygon class="fil1" points="2044510,1875558 2044510,1875558 2038490,1869538 2044510,1863421 2047520,1863421 2050530,1869538 2047520,1875558 "/>
     <path class="fil1" d="M2268031 1766808l-217501 -220511 -3010 0 -3010 0c102730,0 202451,18060 296054,57385l0 0 -6020 3010 -3010 6020c-87680,-33208 -178273,-51365 -271877,-54375l208374 208471 0 0 0 0 0 0z"/>
     <polygon class="fil1" points="2259001,1775838 2044510,1561347 2050530,1555327 2050530,1549307 2047520,1546297 2050530,1546297 2268031,1766808 2265021,1772828 "/>
     <polygon class="fil1" points="2265021,1781858 2259001,1775838 2265021,1772828 2265021,1775838 2265021,1775838 2265021,1778848 "/>
     <polygon class="fil1" points="2271041,1781858 2265021,1781858 2265021,1781858 2265021,1778848 2265021,1775838 2265021,1781858 "/>
     <polygon class="fil1" points="2047520,1546297 2041500,1546297 2044510,1546297 "/>
     <polygon class="fil1" points="2044510,1561347 2041500,1555327 2038490,1549307 2041500,1546297 2047520,1546297 2050530,1549307 2050530,1555327 "/>
     <path class="fil1" d="M2280169 1769818l0 0 63405 -151086c0,0 0,0 0,0l-63405 151086 0 0z"/>
     <path class="fil1" d="M2594283 1772828l-3010 0 -3010 -3010 -15148 0c-66415,-63503 -144968,-114771 -229541,-151086l3010 -6020 0 -6020 -6020 -3010c96710,39228 181283,96613 253719,169146l0 0 0 0 0 0z"/>
     <polygon class="fil1" points="2594283,1775838 2591273,1772828 2594283,1772828 "/>
     <polygon class="fil1" points="2582243,1781858 2280169,1781858 2277159,1775838 2280169,1769818 2573115,1769818 2588263,1769818 2591273,1772828 2585253,1769818 2582243,1775838 "/>
     <polygon class="fil1" points="2588263,1781858 2582243,1781858 2582243,1775838 2585253,1769818 2591273,1772828 2594283,1775838 2594283,1778848 "/>
     <polygon class="fil1" points="2280169,1781858 2280169,1781858 2271041,1781858 2274148,1781858 2274148,1781858 2277159,1778848 2277159,1775838 "/>
     <polygon class="fil1" points="2271041,1781858 2271041,1781858 2271041,1781858 2274148,1781858 2274148,1781858 "/>
     <path class="fil1" d="M2268031 1766808l0 0 63503 -154096c0,0 0,0 0,0l-63503 154096z"/>
     <path class="fil1" d="M2280169 1769818l-6021 0 -6117 -3010 0 0 0 0 63503 -154096c0,0 0,0 0,0l3010 -6020 9030 -3010 3010 3010 0 6020 -3010 6020c0,0 0,0 0,0l-63405 151086 0 0 0 0 0 0z"/>
     <polygon class="fil1" points="2277159,1775838 2277159,1775838 2277159,1772828 2274148,1772828 2274148,1769818 2280169,1769818 2280169,1769818 "/>
     <polygon class="fil1" points="2265021,1772828 2268031,1766808 2274148,1769818 2271041,1769818 2268031,1772828 2268031,1769818 "/>
     <polygon class="fil1" points="2277159,1772828 2268031,1772828 2271041,1769818 2274148,1769818 2274148,1772828 "/>
     <polygon class="fil1" points="2274148,1781858 2277159,1778848 2277159,1772828 2277159,1775838 2277159,1775838 2277159,1778848 "/>
     <polygon class="fil1" points="2265021,1775838 2265021,1775838 2265021,1772828 2268031,1769818 2268031,1772828 2265021,1772828 "/>
     <polygon class="fil1" points="2271041,1781858 2271041,1781858 2265021,1781858 2265021,1775838 2265021,1772828 2268031,1772828 2277159,1772828 2277159,1778848 2274148,1781858 "/>
    </g>
    <path class="fil1" d="M1497747 2866353c-72532,-72435 -126908,-157105 -166136,-250708l6021 3010 0 0 6020 -3010c36315,87583 87680,163125 154095,232648l0 -293044 0 308094 0 0 0 3010 0 0 0 0 0 0zm-157105 -259836c0,0 0,0 0,0l151085 -63405 0 0 -151085 63405 0 0z"/>
    <path class="fil1" d="M1823999 2854313l-84573 -205461 0 0 84573 205461 0 0 0 0 0 0zm-108751 -226628l-87583 -39228 87583 39228 0 0 0 0z"/>
    <polygon class="fil1" points="1497747,2863343 1497747,2863343 1497747,2555249 1503767,2552142 1509788,2555249 1509788,2857323 1503767,2857323 1497747,2860333 "/>
    <path class="fil1" d="M2044510 3077834l-211481 -211481 0 -3010 211481 214491 214491 -211481 0 0 -214491 211481 0 0 0 0zm223521 -223521l-205364 -84670 0 0 205364 84670 0 0 0 0zm-444032 0l0 0 205461 -84670 0 0 -205461 84670z"/>
    <line class="fil0" x1="1823999" y1="2854313" x2="1823999" y2= "2854313" />
    <path class="fil1" d="M1833029 2863343l0 0 211481 -87583 0 0 -211481 87583 0 0zm-21167 -6020l0 0 -87583 -214491 0 0 87583 214491 0 0 0 0zm232648 -93700l-311104 -129918 0 0 311104 129918 0 0z"/>
    <polygon class="fil1" points="1820989,2857323 1811862,2857323 1811862,2857323 1724279,2642832 1724279,2642832 1739426,2648852 1823999,2854313 "/>
    <polygon class="fil1" points="1833029,2866353 1827009,2860333 1823999,2854313 2029460,2769643 2044510,2775760 2044510,2775760 1833029,2863343 "/>
    <polygon class="fil1" points="1827009,2860333 1823999,2857323 1823999,2857323 1820989,2857323 1820989,2857323 1823999,2854313 1823999,2854313 "/>
    <path class="fil1" d="M2044510 3092885l0 0 6020 0 217501 -220512 0 0 -205364 208471c87584,-3010 178177,-18157 262750,-51365l6117 -3010 3010 6020 3010 3010 3010 0 0 0 -12040 6020c-90690,33305 -184294,51366 -284014,51366l0 0 0 0 0 0zm299064 -72436l-63405 -151086 0 0 63405 151086 0 0 0 0 0 0z"/>
    <polygon class="fil1" points="2044510,3092885 2050530,3089875 2050530,3083854 2044510,3077834 2259001,2866353 2265021,2866353 2268031,2872373 2050530,3092885 "/>
    <path class="fil1" d="M2044510 3092885c-99623,0 -199344,-18061 -296054,-57386l3010 0 6117 -3010 3010 -6020c84573,33208 178177,51365 268867,54375l-205461 -208471 0 0 217501 220512 3010 0 0 0 0 0 0 0zm-296054 -72436c0,0 0,0 0,0l63406 -151086 0 0 -63406 151086z"/>
    <polygon class="fil1" points="2044510,3092885 2041500,3092885 1823999,2872373 1827009,2866353 1833029,2866353 2044510,3077834 2041500,3083854 2041500,3089875 "/>
    <polygon class="fil1" points="1827009,2866353 1827009,2866353 1827009,2863343 1827009,2860333 1827009,2860333 1833029,2866353 "/>
    <polygon class="fil1" points="1827009,2863343 1827009,2860333 1823999,2857323 1823999,2857323 1827009,2860333 1827009,2860333 "/>
    <polygon class="fil1" points="2044510,3092885 2044510,3092885 2041500,3089875 2041500,3083854 2044510,3077834 2050530,3083854 2050530,3089875 "/>
    <path class="fil1" d="M1748456 3035499l0 0c-93603,-39228 -178176,-96613 -250709,-169146l0 0 6020 3010 308095 0 -292947 0c66415,63503 144968,114771 229541,151086l-3010 6020 0 6020 3010 3010 0 0 0 0 0 0zm12137 -9030c0,0 0,0 0,0l63406 -154096 0 0 -63406 154096z"/>
    <polygon class="fil1" points="1503767,2869363 1497747,2866353 1497747,2863343 "/>
    <polygon class="fil1" points="1811862,2869363 1503767,2869363 1506777,2869363 1509788,2863343 1509788,2857323 1811862,2857323 1814969,2863343 "/>
    <polygon class="fil1" points="1503767,2869363 1503767,2869363 1497747,2863343 1497747,2860333 1503767,2857323 1509788,2857323 1509788,2863343 1506777,2869363 "/>
    <polygon class="fil1" points="1814969,2863343 1811862,2857323 1820989,2857323 1817979,2857323 1817979,2857323 1814969,2860333 "/>
    <polygon class="fil1" points="1817979,2857323 1817979,2857323 1820989,2857323 1820989,2857323 1823999,2857323 1820989,2857323 "/>
    <path class="fil1" d="M1751466 3035499l-3010 0 -3010 -3010 0 -6020 3010 -6020c0,0 0,0 0,0l63406 -151086 0 0 6117 0 6020 3010 0 0 0 0 -63406 154096c0,0 0,0 0,0l-3010 6020 -6117 3010 0 0 0 0 0 0z"/>
    <polygon class="fil1" points="1817979,2869363 1811862,2869363 1814969,2863343 1814969,2866353 1814969,2866353 1817979,2866353 "/>
    <polygon class="fil1" points="1823999,2872373 1817979,2869363 1820989,2869363 1823999,2869363 1827009,2866353 "/>
    <polygon class="fil1" points="1820989,2869363 1817979,2869363 1817979,2866353 1814969,2866353 "/>
    <polygon class="fil1" points="1814969,2866353 1814969,2866353 1814969,2863343 1814969,2860333 1817979,2857323 1814969,2860333 "/>
    <polygon class="fil1" points="1820989,2869363 1820989,2869363 1827009,2866353 1827009,2863343 1827009,2866353 1827009,2866353 1823999,2869363 "/>
    <polygon class="fil1" points="1820989,2869363 1820989,2869363 1814969,2866353 1814969,2860333 1817979,2857323 1820989,2857323 1823999,2857323 1827009,2860333 1827009,2863343 1827009,2866353 "/>
    <path class="fil1" d="M2820911 2319591c0,0 0,0 0,0l0 0 -3010 -3010 -217598 -220512 0 0 205461 208374c0,-93603 -18061,-184196 -54375,-268866l6020 -2913 3107 -9127c0,0 0,0 0,0l0 0c39228,93603 60395,193323 60395,293044l0 3010 0 0 0 0 0 0 0 0zm-226628 -232649l0 0 154095 -63405c0,0 0,0 0,0l-154095 63405 0 0 0 0z"/>
    <path class="fil1" d="M2591273 2534082l0 0 214491 -214491 -214491 -214491 0 0 214491 214491 -214491 214491 0 0 0 0zm-51365 -90593l-45248 -108751 0 0 45248 108751zm-45248 -139046l0 0 84573 -205363 0 0 -84573 205363 0 0z"/>
    <polygon class="fil1" points="2820911,2319591 2814891,2313571 2808774,2316581 2805764,2319591 2591273,2105100 2594283,2099080 2600303,2096069 2817901,2316581 "/>
    <path class="fil1" d="M2268031 2854313l0 0 84573 -205461 0 0 -84573 205461 0 0zm108848 -226628l0 0 202354 -87583 0 0 -202354 87583z"/>
    <line class="fil0" x1="2268031" y1="2854313" x2="2268031" y2= "2854313" />
    <path class="fil1" d="M2367752 2642832l0 0 214491 -87583 0 0 -214491 87583 0 0zm-9031 -9127l129821 -314114 0 0 -129821 314114 0 0 0 0 0 0zm220512 -93603l-39325 -96613 39325 96613 0 0zm12040 -6020l-87583 -214491 0 0 87583 214491 0 0z"/>
    <polygon class="fil1" points="2579233,2540102 2539908,2443489 2494660,2334738 2500680,2322601 2503690,2319591 2591273,2534082 2591273,2534082 2591273,2534082 2585253,2540102 "/>
    <polygon class="fil1" points="2367752,2642832 2370762,2639822 2376879,2627685 2579233,2540102 2579233,2540102 2579233,2540102 2582243,2546122 2582243,2555249 2582243,2555249 "/>
    <polygon class="fil1" points="2582243,2546122 2579233,2540102 2585253,2540102 2585253,2540102 2582243,2543112 "/>
    <path class="fil1" d="M2340564 3035499l0 0 6020 -3010 0 -6020 -3010 -6020 6020 -3107c84573,-36218 157106,-84476 223521,-147979l-292946 0 308094 0 6020 -3010c-69426,69523 -150989,123801 -238572,163126l-15147 6020 0 0 0 0 0 0zm-9030 -9030l-63503 -154096 0 0 63503 154096 0 0z"/>
    <polygon class="fil1" points="2340564,3035499 2337554,3035499 2334544,3032489 2331534,3026469 2331534,3026469 2268031,2872373 2268031,2872373 2268031,2872373 2274148,2869363 2280169,2869363 2280169,2869363 2343574,3020449 2343574,3020449 2346584,3026469 2346584,3032489 "/>
    <polygon class="fil1" points="2268031,2872373 2265021,2866353 2268031,2869363 2271041,2869363 2271041,2869363 2274148,2869363 "/>
    <polygon class="fil1" points="2588263,2869363 2280169,2869363 2277159,2863343 2280169,2857323 2582243,2857323 2582243,2863343 2585253,2869363 "/>
    <polygon class="fil1" points="2280169,2869363 2274148,2869363 2274148,2866353 2274148,2866353 2277159,2866353 2277159,2863343 "/>
    <polygon class="fil1" points="2274148,2869363 2271041,2869363 2271041,2869363 2271041,2869363 2271041,2869363 2274148,2866353 2274148,2866353 "/>
    <path class="fil1" d="M2259001 2866353l-214491 -90593 0 0 214491 90593 0 0 0 0zm-214491 -102730l0 0 314211 -129918 0 0 -314211 129918 0 0 0 0z"/>
    <polygon class="fil1" points="2259001,2866353 2259001,2866353 2259001,2863343 2044510,2775760 2047520,2775760 2062667,2769643 2268031,2854313 2265021,2860333 "/>
    <path class="fil1" d="M2044510 2775760l0 0 0 0 0 0 0 0zm0 -12137l0 0 0 0 0 0z"/>
    <polygon class="fil1" points="2044510,2775760 2044510,2775760 2044510,2775760 2044510,2775760 2044510,2775760 2047520,2775760 "/>
    <polygon class="fil1" points="2265021,2866353 2259001,2866353 2265021,2860333 2265021,2860333 2265021,2863343 "/>
    <polygon class="fil1" points="2280169,2857323 2280169,2857323 2367752,2642832 2367752,2642832 "/>
    <polygon class="fil1" points="2280169,2857323 2271041,2857323 2268031,2854313 2352604,2648852 2364742,2642832 2367752,2642832 "/>
    <polygon class="fil1" points="2265021,2860333 2268031,2854313 2268031,2854313 2268031,2854313 2271041,2857323 2271041,2857323 2268031,2857323 2265021,2857323 "/>
    <polygon class="fil1" points="2265021,2863343 2265021,2860333 2265021,2860333 2265021,2857323 2268031,2857323 2265021,2860333 "/>
    <path class="fil1" d="M2367752 2642832l0 0 0 0 0 0 0 0 0 0zm-9031 -9127l0 0 0 0 0 0 0 0 0 0 0 0z"/>
    <polygon class="fil1" points="2364742,2642832 2370762,2639822 2367752,2642832 2367752,2642832 2367752,2642832 "/>
    <polygon class="fil1" points="2271041,2869363 2268031,2869363 2265021,2866353 2265021,2866353 2265021,2863343 2265021,2866353 "/>
    <polygon class="fil1" points="2277159,2863343 2277159,2860333 2274148,2857323 2274148,2857323 2271041,2857323 2280169,2857323 "/>
    <polygon class="fil1" points="2274148,2857323 2271041,2857323 2268031,2857323 2271041,2857323 2271041,2857323 "/>
    <polygon class="fil1" points="2274148,2866353 2277159,2860333 2274148,2857323 2277159,2860333 2277159,2863343 2277159,2866353 "/>
    <polygon class="fil1" points="2271041,2869363 2271041,2869363 2271041,2869363 2265021,2866353 2265021,2863343 2265021,2860333 2268031,2857323 2271041,2857323 2274148,2857323 2277159,2860333 2274148,2866353 "/>
    <path class="fil1" d="M2594283 2866353l0 0 0 -3010 0 0 0 -308094 0 293044c66512,-69523 117878,-145065 154095,-232648l3011 3010 3010 0 6117 -3010c-39325,93603 -93700,178273 -166233,250708l0 0 0 0 0 0zm157106 -259836l-151086 -63405 151086 63405c0,0 0,0 0,0z"/>
    <polygon class="fil1" points="2594283,2863343 2594283,2860333 2588263,2857323 2582243,2857323 2582243,2555249 2588263,2552142 2594283,2555249 "/>
    <polygon class="fil1" points="2582243,2555249 2582243,2546122 2582243,2546122 2585253,2549132 2585253,2549132 2588263,2552142 "/>
    <polygon class="fil1" points="2585253,2549132 2582243,2546122 2582243,2546122 2582243,2546122 2582243,2543112 2582243,2546122 "/>
    <polygon class="fil1" points="2588263,2869363 2588263,2869363 2594283,2863343 2594283,2866353 "/>
    <polygon class="fil1" points="2588263,2869363 2588263,2869363 2585253,2869363 2582243,2863343 2582243,2857323 2588263,2857323 2594283,2860333 2594283,2863343 "/>
    <path class="fil1" d="M2748378 2615645l-154095 -60396 0 0 154095 60396c0,0 0,0 0,0zm12138 0l0 0 0 -3011 -3107 -6117 -6020 0c36314,-87583 54375,-178176 54375,-271779l-205461 208374 0 0 217598 -217501 3010 -6020 0 0c0,102730 -21167,202353 -60395,296054l0 0 0 0 0 0 0 0z"/>
    <path class="fil1" d="M2820911 2319591l0 0c0,0 0,0 0,0l0 0 0 0z"/>
    <polygon class="fil1" points="2600303,2543112 2594283,2540102 2591273,2534082 2805764,2319591 2808774,2325611 2814891,2325611 2814891,2325611 2814891,2325611 2820911,2319591 2817901,2325611 "/>
    <polygon class="fil1" points="2814891,2325611 2814891,2325611 2814891,2325611 2808774,2325611 2805764,2319591 2808774,2316581 2814891,2313571 2820911,2319591 2820911,2319591 "/>
    <polygon class="fil1" points="2594283,2540102 2591273,2540102 2588263,2540102 2585253,2540102 2585253,2540102 2591273,2534082 "/>
    <polygon class="fil1" points="2582243,2543112 2585253,2540102 2585253,2540102 2585253,2540102 2588263,2540102 2585253,2540102 "/>
    <path class="fil1" d="M2754399 2618655l0 0 -6021 -3010c0,0 0,0 0,0l-154095 -60396 0 0 0 -9127 6020 -3010 0 0 0 0 151086 63405c0,0 0,0 0,0l6020 0 3107 6117 0 3011 -6117 3010 0 0 0 0 0 0z"/>
    <polygon class="fil1" points="2594283,2546122 2594283,2546122 2594283,2543112 2594283,2543112 2594283,2540102 2600303,2543112 "/>
    <polygon class="fil1" points="2594283,2555249 2588263,2552142 2591273,2549132 2591273,2549132 2594283,2549132 2594283,2546122 "/>
    <polygon class="fil1" points="2591273,2549132 2594283,2543112 2594283,2546122 2594283,2546122 2594283,2549132 "/>
    <polygon class="fil1" points="2594283,2543112 2591273,2540102 2588263,2540102 2591273,2540102 2594283,2540102 "/>
    <polygon class="fil1" points="2588263,2552142 2585253,2549132 2585253,2549132 2588263,2552142 2588263,2552142 2591273,2549132 2591273,2549132 "/>
    <polygon class="fil1" points="2588263,2552142 2588263,2552142 2585253,2549132 2582243,2546122 2582243,2543112 2585253,2540102 2588263,2540102 2591273,2540102 2594283,2543112 2591273,2549132 "/>
    <path class="fil1" d="M1343652 2615645c0,0 0,0 0,0l154095 -60396 0 0 -154095 60396 0 0 0 0zm-12041 0l0 0c-39227,-93701 -60395,-193324 -60395,-296054l3010 3010 0 3010 217501 217501 0 0 -208471 -208374c3010,93603 21168,184196 57386,271779l-6020 0 -3011 9128 0 0 0 0 0 0z"/>
    <path class="fil1" d="M1337632 2618655l-6021 -3010 3011 -9128 6020 0c0,0 0,0 0,0l151085 -63405 0 0 0 0 6020 3010 0 9127 0 0 -154095 60396c0,0 0,0 0,0l-6020 3010 0 0 0 0 0 0z"/>
    <polygon class="fil1" points="1497747,2555249 1497747,2546122 1497747,2549132 1500757,2552142 1503767,2552142 "/>
    <path class="fil1" d="M1509788 2540102l0 0 87680 -202354 -87680 202354 0 0zm-9031 -6020l-214491 -214491 214491 -214491 0 0 -214491 214491 214491 214491 69523 -169146 -69523 169146 0 0 0 0zm96711 -229639l-81563 -196333 81563 196333z"/>
    <polygon class="fil1" points="1491727,2543112 1274226,2325611 1274226,2322601 1277236,2325611 1277236,2325611 1283256,2325611 1286266,2319591 1500757,2534082 1497747,2540102 "/>
    <polygon class="fil1" points="1497747,2546122 1491727,2543112 1497747,2540102 1497747,2543112 1497747,2543112 "/>
    <polygon class="fil1" points="1497747,2549132 1497747,2546122 1497747,2546122 1497747,2546122 1497747,2546122 "/>
    <path class="fil1" d="M1509788 2099080l0 0 205460 -84573 0 0 -205460 84573 0 0 0 0zm229638 -108751l84573 -205461 0 0 -84573 205461 0 0z"/>
    <path class="fil1" d="M1724279 2642832l-214491 -87583 0 0 214491 87583 0 0 0 0 0 0zm9127 -9127l0 0 -129918 -314114 0 0 129918 314114 0 0 0 0zm-105741 -45248l-117877 -48355 0 0 117877 48355 0 0 0 0z"/>
    <polygon class="fil1" points="1724279,2642832 1509788,2555249 1509788,2555249 1509788,2546122 1509788,2540102 1627665,2588457 1715248,2627685 1721268,2639822 "/>
    <polygon class="fil1" points="1509788,2555249 1503767,2552142 1506777,2549132 1506777,2549132 1509788,2546122 1509788,2546122 "/>
    <path class="fil1" d="M1724279 2642832l0 0 0 0 0 0 0 0 0 0 0 0zm9127 -9127l0 0 0 0 0 0 0 0 0 0 0 0z"/>
    <polygon class="fil1" points="1724279,2642832 1724279,2642832 1724279,2642832 1724279,2642832 1721268,2639822 "/>
    <polygon class="fil1" points="1570280,2364936 1588437,2319591 1588437,2319591 "/>
    <polygon class="fil1" points="1503767,2552142 1500757,2552142 1497747,2549132 1503767,2552142 1503767,2552142 1506777,2549132 1506777,2549132 "/>
    <polygon class="fil1" points="1509788,2540102 1506777,2540102 1500757,2534082 1570280,2364936 1588437,2319591 1591350,2322601 1597468,2337748 "/>
    <polygon class="fil1" points="1509788,2546122 1509788,2546122 1506777,2543112 1506777,2540102 1506777,2540102 1509788,2540102 "/>
    <polygon class="fil1" points="1506777,2549132 1509788,2546122 1506777,2543112 1509788,2546122 1509788,2546122 1509788,2546122 "/>
    <polygon class="fil1" points="1497747,2540102 1500757,2534082 1506777,2540102 1506777,2540102 1503767,2540102 1500757,2540102 "/>
    <polygon class="fil1" points="1497747,2546122 1497747,2543112 1497747,2543112 1497747,2540102 1500757,2540102 1503767,2540102 1500757,2540102 "/>
    <polygon class="fil1" points="1506777,2543112 1506777,2540102 1503767,2540102 1506777,2540102 1506777,2540102 1506777,2540102 "/>
    <polygon class="fil1" points="1503767,2552142 1497747,2549132 1497747,2546122 1497747,2546122 1500757,2540102 1503767,2540102 1506777,2540102 1506777,2543112 1509788,2546122 1506777,2549132 "/>
    <path class="fil1" d="M1588437 2319591l-87680 -214491 0 0 87680 214491 0 0 0 0zm15051 0l0 0 129918 -314115 0 0 -129918 314115 0 0zm-87583 -211481l-6117 -9030 6117 9030zm-6117 -21168l0 0 214491 -90593 0 0 -214491 90593 0 0 0 0z"/>
    <polygon class="fil1" points="1588437,2319591 1500757,2105100 1500757,2105100 1500757,2105100 1506777,2099080 1509788,2099080 1515905,2108110 1597468,2304443 1591350,2316581 "/>
    <polygon class="fil1" points="1509788,2099080 1509788,2093059 1509788,2086942 1724279,1996349 1721268,1999359 1715248,2014507 "/>
    <polygon class="fil1" points="1506777,2099080 1506777,2099080 1506777,2096069 1509788,2096069 1509788,2093059 1509788,2099080 "/>
    <path class="fil1" d="M1603488 2319591l0 0 0 0 0 0 0 0zm-15051 0l0 0 0 0 0 0 0 0z"/>
    <polygon class="fil1" points="1591350,2322601 1591350,2322601 1588437,2319591 1588437,2319591 1588437,2319591 1591350,2316581 "/>
    <path class="fil1" d="M1497747 1772828l0 0c69523,-69523 151086,-123898 238669,-163126l12040 -6020 0 0 0 0 -3010 9030 3010 6020 -6020 3010c-84573,36315 -160116,87583 -223521,148076l-15148 0 -3010 3010 -3010 0 0 0 0 0 0 0zm326252 -6020l-63406 -154096 0 0 63406 154096 0 0 0 0z"/>
    <polygon class="fil1" points="1811862,1781858 1509788,1781858 1509788,1775838 1506777,1769818 1500757,1772828 1503767,1769818 1518915,1769818 1811862,1769818 1814969,1775838 "/>
    <path class="fil1" d="M1491727 2096069l-151085 -60395c0,0 0,0 0,0l151085 60395 0 0 0 0zm-160116 -72532l0 0c39228,-93603 93604,-178273 166136,-250709l0 3010 0 0 0 15050c-66415,69523 -117780,145066 -154095,232649l-6020 -3010 -6021 3010 0 0 0 0 0 0z"/>
    <polygon class="fil1" points="1503767,2086942 1497747,2086942 1497747,1790888 1497747,1775838 1497747,1775838 1497747,1778848 1503767,1781858 1509788,1781858 1509788,2086942 "/>
    <polygon class="fil1" points="1509788,2093059 1509788,2093059 1506777,2089952 1506777,2089952 1503767,2086942 1509788,2086942 1509788,2086942 "/>
    <polygon class="fil1" points="1506777,2096069 1509788,2093059 1506777,2089952 1509788,2093059 1509788,2093059 1509788,2096069 "/>
    <polygon class="fil1" points="1497747,1775838 1497747,1772828 1500757,1772828 "/>
    <polygon class="fil1" points="1509788,1781858 1503767,1781858 1497747,1778848 1497747,1775838 1500757,1772828 1506777,1769818 1509788,1775838 "/>
    <path class="fil1" d="M1271216 2319591c0,-102731 21168,-202354 60395,-296054l0 6020 3011 3107 6020 2913c-36218,84670 -54376,175263 -57386,268866l208471 -208374 0 0 -217501 220512 0 0 -3010 3010 0 0 0 0 0 0zm226531 -232649l-154095 -63405c0,0 0,0 0,0l154095 63405 0 0 0 0z"/>
    <polygon class="fil1" points="1274226,2322601 1271216,2319591 1274226,2316581 "/>
    <polygon class="fil1" points="1286266,2319591 1283256,2316581 1277236,2313571 1274226,2316581 1274226,2316581 1491727,2096069 1497747,2099080 1500757,2105100 "/>
    <polygon class="fil1" points="1277236,2325611 1277236,2325611 1274226,2322601 1274226,2316581 1277236,2313571 1283256,2316581 1286266,2319591 1283256,2325611 "/>
    <polygon class="fil1" points="1500757,2105100 1497747,2099080 1500757,2102090 1503767,2102090 1506777,2102090 1506777,2099080 "/>
    <polygon class="fil1" points="1503767,2102090 1506777,2099080 1506777,2096069 1506777,2099080 1506777,2099080 1506777,2102090 "/>
    <path class="fil1" d="M1491727 2096069l0 0 0 0 -151085 -60395c0,0 0,0 0,0l-6020 -3010 -3011 -3107 0 -6020 6021 -3010 6020 3010c0,0 0,0 0,0l154095 63405 0 6117 -6020 3010 0 0 0 0 0 0z"/>
    <polygon class="fil1" points="1497747,2099080 1491727,2096069 1497747,2093059 1497747,2096069 1497747,2096069 1497747,2096069 "/>
    <polygon class="fil1" points="1497747,2093059 1497747,2086942 1497747,2086942 1503767,2086942 1500757,2089952 1500757,2089952 1497747,2089952 "/>
    <polygon class="fil1" points="1497747,2096069 1497747,2096069 1497747,2093059 1497747,2089952 1500757,2089952 "/>
    <polygon class="fil1" points="1503767,2102090 1500757,2102090 1497747,2099080 1497747,2096069 1497747,2096069 1500757,2099080 "/>
    <polygon class="fil1" points="1506777,2089952 1503767,2089952 1500757,2089952 1500757,2089952 1503767,2086942 "/>
    <polygon class="fil1" points="1503767,2102090 1500757,2099080 1497747,2096069 1500757,2089952 1503767,2089952 1506777,2089952 1509788,2093059 1506777,2096069 1506777,2099080 "/>
    <path class="fil1" d="M2600303 2096069l0 0 151086 -60395c0,0 0,0 0,0l-151086 60395 0 0 0 0zm160213 -72532l-9127 -3010 -3011 3010c-36217,-87583 -87583,-163126 -154095,-232649l0 -15050 0 0 0 -3010c72533,72436 126908,157106 166233,250709l0 0 0 0z"/>
    <path class="fil1" d="M2600303 2096069l-6020 -3010 0 -6117 154095 -63405c0,0 0,0 0,0l3011 -3010 9127 3010c0,0 0,0 0,0l-3107 9127 -6020 2913c0,0 0,0 0,-2913l-151086 63405 0 0 0 0 0 0 0 0 0 0z"/>
    <polygon class="fil1" points="2594283,2099080 2594283,2099080 2594283,2096069 2594283,2096069 2594283,2093059 2600303,2096069 "/>
    <path class="fil1" d="M2579233 2099080l-202354 -84573 0 0 202354 84573 0 0zm-226629 -108751l0 0 -84573 -205461 0 0 84573 205461 0 0 0 0z"/>
    <line class="fil0" x1="2579233" y1="2099080" x2="2579233" y2= "2099080" />
    <polygon class="fil1" points="2588263,2086942 2582243,2086942 2582243,1781858 2588263,1781858 2594283,1778848 2594283,1775838 2594283,1775838 2594283,1790888 2594283,2086942 "/>
    <polygon class="fil1" points="2594283,2093059 2594283,2089952 2591273,2089952 2591273,2089952 2588263,2086942 2594283,2086942 2594283,2086942 "/>
    <polygon class="fil1" points="2594283,2096069 2594283,2093059 2594283,2089952 2591273,2089952 2594283,2089952 2594283,2093059 "/>
    <path class="fil1" d="M2062667 1869538l0 0 190314 -78650 -190314 78650 0 0 0 0zm-33207 0l-205461 -84670 0 0 205461 84670 0 0 0 0zm-196431 -93700l0 0 211481 -214491 214491 214491 0 0 -214491 -214491 -211481 214491 0 0 0 0z"/>
    <line class="fil0" x1="1823999" y1="1784868" x2="1823999" y2= "1784868" />
    <path class="fil1" d="M2488542 2319591l-129821 -314115 0 0 129821 314115 0 0 0 0 0 0zm15148 0l0 0 87583 -214491 0 0 -87583 214491z"/>
    <polygon class="fil1" points="2503690,2319591 2500680,2316581 2494660,2304443 2579233,2099080 2585253,2099080 2591273,2105100 2591273,2105100 2591273,2105100 "/>
    <polygon class="fil1" points="2591273,2105100 2585253,2099080 2585253,2102090 2588263,2102090 2591273,2102090 2594283,2099080 "/>
    <path class="fil1" d="M2488542 2319591l0 0 0 0 0 0 0 0zm15148 0l0 0 0 0 0 0 0 0z"/>
    <polygon class="fil1" points="2500680,2322601 2500680,2316581 2503690,2319591 2503690,2319591 2503690,2319591 "/>
    <polygon class="fil1" points="2582243,2086942 2367752,1996349 2367752,1996349 "/>
    <polygon class="fil1" points="2588263,2102090 2591273,2099080 2594283,2096069 2594283,2099080 2594283,2099080 2591273,2102090 "/>
    <polygon class="fil1" points="2579233,2099080 2376879,2014507 2370762,1999359 2367752,1996349 2582243,2086942 2582243,2093059 "/>
    <polygon class="fil1" points="2585253,2099080 2579233,2099080 2579233,2099080 2579233,2099080 2582243,2093059 2582243,2096069 2582243,2096069 "/>
    <polygon class="fil1" points="2588263,2102090 2585253,2102090 2585253,2099080 2585253,2099080 2582243,2096069 2585253,2099080 "/>
    <polygon class="fil1" points="2582243,2093059 2582243,2086942 2582243,2086942 2588263,2086942 2585253,2089952 2585253,2089952 "/>
    <polygon class="fil1" points="2585253,2089952 2585253,2089952 2588263,2086942 2591273,2089952 2591273,2089952 2588263,2089952 "/>
    <polygon class="fil1" points="2582243,2096069 2582243,2096069 2582243,2093059 2582243,2093059 2585253,2089952 2582243,2093059 "/>
    <polygon class="fil1" points="2588263,2102090 2585253,2099080 2582243,2096069 2582243,2093059 2585253,2089952 2588263,2089952 2591273,2089952 2594283,2089952 2594283,2093059 2594283,2096069 2591273,2099080 "/>
    <path class="fil1" d="M2358721 2005476l-314211 -129918 314211 129918 0 0 0 0 0 0zm9031 -9127l0 0 -87583 -214491 0 0 87583 214491 0 0 0 0zm-323242 -132928l0 0 214491 -87583 0 0 -214491 87583 0 0 0 0zm208471 -72533l15050 -6020 -15050 6020z"/>
    <polygon class="fil1" points="2367752,1996349 2364742,1996349 2352604,1990329 2268031,1784868 2268031,1784868 2271041,1781858 2280169,1781858 "/>
    <polygon class="fil1" points="2062667,1869538 2047520,1863421 2044510,1863421 2259001,1775838 2259001,1775838 2259001,1775838 2265021,1781858 2268031,1784868 2252981,1790888 "/>
    <polygon class="fil1" points="2268031,1784868 2265021,1781858 2265021,1781858 2271041,1781858 2271041,1781858 "/>
    <path class="fil1" d="M2358721 2005476l0 0 0 0 0 0 0 0 0 0 0 0zm9031 -9127l0 0 0 0 0 0 0 0 0 0z"/>
    <polygon class="fil1" points="2370762,1999359 2364742,1996349 2367752,1996349 2367752,1996349 2367752,1996349 "/>
    <path class="fil1" d="M1811862 1769818l0 0 -63406 -151086 0 0 63406 151086 0 0zm12137 -3010l0 0 205461 -208471c-90690,3010 -178273,18157 -262846,51365l-6021 3010 -3010 -3010 -9127 -6020 15148 -3010c90593,-36315 184293,-54375 280906,-54375l0 0 0 0 -3010 0 -217501 220511 0 0z"/>
    <polygon class="fil1" points="1817979,1769818 1811862,1769818 1748456,1618732 1748456,1618732 1745446,1612712 1748456,1603682 1748456,1603682 1757583,1609702 1760593,1612712 1760593,1612712 1823999,1766808 1823999,1766808 1823999,1766808 "/>
    <polygon class="fil1" points="1814969,1775838 1811862,1769818 1811862,1769818 1817979,1769818 1817979,1772828 1814969,1772828 1814969,1772828 "/>
    <polygon class="fil1" points="1833029,1775838 1827009,1772828 1823999,1766808 2041500,1546297 2041500,1546297 2038490,1549307 2041500,1555327 2044510,1561347 "/>
    <polygon class="fil1" points="1827009,1772828 1823999,1772828 1823999,1772828 1820989,1769818 1817979,1769818 1823999,1766808 "/>
    <polygon class="fil1" points="1814969,1772828 1817979,1772828 1817979,1769818 1820989,1769818 1823999,1772828 "/>
    <path class="fil1" d="M1733406 2005476l0 0 311104 -129918 0 0 -311104 129918 0 0 0 0zm-9127 -9127l87583 -214491 0 0 -87583 214491 0 0 0 0z"/>
    <polygon class="fil1" points="1724279,1996349 1811862,1781858 1817979,1781858 1823999,1784868 1739426,1990329 "/>
    <path class="fil1" d="M1733406 2005476l0 0 0 0 0 0 0 0 0 0 0 0zm-9127 -9127l0 0 0 0 0 0 0 0 0 0z"/>
    <polygon class="fil1" points="1721268,1999359 1721268,1999359 1724279,1996349 1724279,1996349 1724279,1996349 1724279,1996349 "/>
    <polygon class="fil1" points="1817979,1781858 1811862,1781858 1811862,1781858 1814969,1775838 1814969,1778848 "/>
    <polygon class="fil1" points="2044510,1863421 1833029,1775838 "/>
    <polygon class="fil1" points="2029460,1869538 1823999,1784868 1827009,1778848 1833029,1775838 1833029,1775838 2044510,1863421 2044510,1863421 "/>
    <polygon class="fil1" points="1823999,1784868 1817979,1781858 1820989,1781858 1820989,1781858 1820989,1781858 1820989,1781858 1820989,1781858 1823999,1781858 1827009,1778848 "/>
    <path class="fil1" d="M1820989 1781858l0 0 0 0 0 0 0 0 0 0 0 0 0 0zm0 0l-3010 0 0 0 0 0 3010 0 0 0 0 0 0 0z"/>
    <path class="fil1" d="M2044510 1875558l0 0 0 0 0 0zm0 -12137l0 0 0 0 0 0 0 0z"/>
    <polygon class="fil1" points="2047520,1863421 2047520,1863421 2044510,1863421 2044510,1863421 2044510,1863421 2044510,1863421 "/>
    <polygon class="fil1" points="1817979,1781858 1814969,1778848 1814969,1775838 1814969,1775838 1814969,1772828 1814969,1772828 1814969,1778848 "/>
    <polygon class="fil1" points="1827009,1778848 1827009,1778848 1827009,1778848 1827009,1775838 1827009,1772828 1827009,1772828 1833029,1775838 "/>
    <polygon class="fil1" points="1820989,1781858 1827009,1778848 1827009,1778848 1827009,1778848 1823999,1781858 "/>
    <polygon class="fil1" points="1827009,1778848 1827009,1772828 1823999,1772828 1823999,1772828 1827009,1772828 1827009,1772828 1827009,1775838 "/>
    <polygon class="fil1" points="1820989,1781858 1820989,1781858 1820989,1781858 1817979,1781858 1814969,1778848 1814969,1772828 1823999,1772828 1827009,1772828 1827009,1778848 "/>
    <path class="fil1" d="M2062667 2769643l0 0 289937 -120791 0 0 -289937 120791 0 0 0 0zm-33207 0l-290034 -120791 0 0 290034 120791 0 0 0 0zm347419 -141958l117781 -292947 0 0 -117781 292947 0 0 0 0zm-661631 -3010l0 0 -117780 -289937 117780 289937zm-117780 -320232l0 0 117780 -289936 0 0 -117780 289936zm897192 0l-117781 -289936 0 0 117781 289936 0 0 0 0 0 0zm-142056 -314114l-289937 -120888 0 0 289937 120888 0 0 0 0 0 0zm-613178 0l0 0 290034 -120888 0 0 -290034 120888 0 0z"/>
    <path class="fil1" d="M1739426 2648852l0 0 0 0 0 0 0 0 0 0 0 0zm-24178 -21167l0 0 0 0 0 0 0 0z"/>
    <path class="fil1" d="M2062667 2769643l0 0 0 0 0 0 0 0zm-33207 0l0 0 0 0 0 0 0 0z"/>
    <polygon class="fil1" points="2029460,2769643 1739426,2648852 1733406,2636812 1733406,2636812 1733406,2633705 1733406,2633705 2044510,2763623 2044510,2763623 "/>
    <polygon class="fil1" points="1739426,2648852 1724279,2642832 1727289,2642832 1727289,2642832 1727289,2642832 1733406,2636812 1733406,2636812 1733406,2636812 "/>
    <polygon class="fil1" points="2044510,2775760 2044510,2775760 2029460,2769643 2029460,2769643 2029460,2769643 2044510,2763623 2038490,2769643 "/>
    <path class="fil1" d="M2494660 2334738l0 0 0 0 0 0 0 0zm0 -30295l0 0 0 0 0 0 0 0z"/>
    <path class="fil1" d="M2352604 2648852l0 0 0 0 0 0 0 0zm24275 -21167l0 0 0 0 0 0 0 0z"/>
    <polygon class="fil1" points="2358721,2633705 2488542,2319591 2488542,2322601 2494660,2334738 2376879,2627685 2361731,2630695 "/>
    <polygon class="fil1" points="2494660,2334738 2488542,2322601 2494660,2325611 2500680,2322601 "/>
    <polygon class="fil1" points="2370762,2639822 2370762,2639822 2367752,2633705 2361731,2630695 2376879,2627685 2376879,2627685 2376879,2627685 "/>
    <polygon class="fil1" points="2062667,2769643 2047520,2763623 2044510,2763623 2358721,2633705 2358721,2636812 2352604,2648852 "/>
    <polygon class="fil1" points="2047520,2775760 2047520,2775760 2053637,2769643 2047520,2763623 2062667,2769643 2062667,2769643 2062667,2769643 "/>
    <polygon class="fil1" points="2047520,2763623 2044510,2763623 2044510,2763623 2044510,2763623 2044510,2763623 "/>
    <polygon class="fil1" points="2044510,2775760 2044510,2775760 2038490,2769643 2044510,2763623 2047520,2763623 2053637,2769643 2047520,2775760 "/>
    <polygon class="fil1" points="2352604,2648852 2352604,2648852 2352604,2648852 2358721,2636812 2358721,2642832 2364742,2642832 2364742,2642832 "/>
    <polygon class="fil1" points="2358721,2636812 2358721,2633705 2358721,2633705 2358721,2633705 2361731,2630695 "/>
    <polygon class="fil1" points="2364742,2642832 2358721,2642832 2358721,2636812 2361731,2630695 2367752,2633705 2370762,2639822 "/>
    <path class="fil1" d="M1597468 2337748l0 0 0 0 0 0zm0 -33305l0 0 0 0z"/>
    <path class="fil1" d="M1715248 2014507l0 0 0 0 0 0 0 0zm24178 -24178l0 0 0 0 0 0 0 0z"/>
    <polygon class="fil1" points="1733406,2633705 1730396,2630695 1715248,2627685 1597468,2337748 1600478,2322601 1603488,2319591 "/>
    <polygon class="fil1" points="1721268,2639822 1721268,2639822 1715248,2627685 1715248,2627685 1715248,2627685 1730396,2630695 1724279,2633705 "/>
    <polygon class="fil1" points="1733406,2636812 1730396,2630695 1733406,2633705 1733406,2633705 1733406,2633705 1733406,2633705 "/>
    <polygon class="fil1" points="1727289,2642832 1727289,2642832 1727289,2642832 1724279,2642832 1721268,2639822 1724279,2633705 1730396,2630695 1733406,2636812 1733406,2636812 "/>
    <polygon class="fil1" points="1597468,2337748 1591350,2322601 1597468,2325611 1600478,2322601 "/>
    <polygon class="fil1" points="1603488,2319591 1600478,2316581 1597468,2304443 1715248,2014507 1730396,2008389 1733406,2005476 "/>
    <polygon class="fil1" points="1600478,2316581 1591350,2316581 1597468,2304443 1597468,2304443 "/>
    <polygon class="fil1" points="1715248,2014507 1715248,2014507 1715248,2014507 1721268,1999359 1724279,2005476 1727289,2008389 1730396,2008389 "/>
    <polygon class="fil1" points="1600478,2322601 1600478,2322601 1600478,2316581 1603488,2319591 1603488,2319591 1603488,2319591 "/>
    <polygon class="fil1" points="1597468,2325611 1591350,2322601 1591350,2316581 1600478,2316581 1600478,2322601 "/>
    <path class="fil1" d="M2376879 2014507l0 0 0 0 0 0 0 0zm-24275 -24178l0 0 0 0 0 0 0 0z"/>
    <path class="fil1" d="M2062667 1869538l0 0 0 0 0 0 0 0zm-33207 0l0 0 0 0 0 0 0 0z"/>
    <polygon class="fil1" points="2488542,2319591 2358721,2005476 2361731,2008389 2376879,2014507 2494660,2304443 2488542,2316581 "/>
    <polygon class="fil1" points="2500680,2316581 2488542,2316581 2494660,2304443 2494660,2304443 2494660,2304443 "/>
    <polygon class="fil1" points="2488542,2322601 2488542,2322601 2488542,2319591 2488542,2319591 2488542,2319591 2488542,2316581 "/>
    <polygon class="fil1" points="2494660,2325611 2488542,2322601 2488542,2316581 2500680,2316581 2500680,2322601 "/>
    <polygon class="fil1" points="2376879,2014507 2361731,2008389 2364742,2008389 2367752,2005476 2370762,1999359 "/>
    <polygon class="fil1" points="2358721,2005476 2044510,1875558 2047520,1875558 2062667,1869538 2352604,1990329 "/>
    <polygon class="fil1" points="2358721,2005476 2358721,2005476 2352604,1990329 2352604,1990329 2352604,1990329 2364742,1996349 2358721,1996349 "/>
    <polygon class="fil1" points="2047520,1875558 2050530,1869538 2047520,1863421 2062667,1869538 2062667,1869538 2062667,1869538 "/>
    <polygon class="fil1" points="2361731,2008389 2361731,2008389 2358721,2005476 2358721,2005476 2358721,2005476 2358721,2005476 "/>
    <polygon class="fil1" points="2364742,2008389 2361731,2008389 2358721,2005476 2358721,1996349 2364742,1996349 2370762,1999359 2367752,2005476 "/>
    <polygon class="fil1" points="1733406,2005476 1733406,2005476 1739426,1990329 2029460,1869538 2044510,1875558 2044510,1875558 "/>
    <polygon class="fil1" points="1733406,2005476 1733406,1996349 1724279,1996349 1739426,1990329 1739426,1990329 1739426,1990329 "/>
    <polygon class="fil1" points="1730396,2008389 1730396,2008389 1733406,2005476 1733406,2005476 1733406,2005476 1733406,2005476 "/>
    <polygon class="fil1" points="1727289,2008389 1724279,2005476 1721268,1999359 1724279,1996349 1733406,1996349 1733406,2005476 1730396,2008389 "/>
    <polygon class="fil1" points="2044510,1875558 2029460,1869538 2029460,1869538 2029460,1869538 2044510,1863421 2038490,1869538 "/>
    <polygon class="fil1" points="2044510,1875558 2044510,1875558 2044510,1875558 2044510,1875558 2047520,1875558 "/>
    <polygon class="fil1" points="2044510,1875558 2044510,1875558 2038490,1869538 2044510,1863421 2047520,1863421 2050530,1869538 2047520,1875558 "/>
    <path class="fil1" d="M2268031 1766808l-217501 -220511 -3010 0 -3010 0c102730,0 202451,18060 296054,57385l0 0 -6020 3010 -3010 6020c-87680,-33208 -178273,-51365 -271877,-54375l208374 208471 0 0 0 0 0 0z"/>
    <polygon class="fil1" points="2259001,1775838 2044510,1561347 2050530,1555327 2050530,1549307 2047520,1546297 2050530,1546297 2268031,1766808 2265021,1772828 "/>
    <polygon class="fil1" points="2265021,1781858 2259001,1775838 2265021,1772828 2265021,1775838 2265021,1775838 2265021,1778848 "/>
    <polygon class="fil1" points="2271041,1781858 2265021,1781858 2265021,1781858 2265021,1778848 2265021,1775838 2265021,1781858 "/>
    <polygon class="fil1" points="2047520,1546297 2041500,1546297 2044510,1546297 "/>
    <polygon class="fil1" points="2044510,1561347 2041500,1555327 2038490,1549307 2041500,1546297 2047520,1546297 2050530,1549307 2050530,1555327 "/>
    <path class="fil1" d="M2280169 1769818l0 0 63405 -151086c0,0 0,0 0,0l-63405 151086 0 0z"/>
    <path class="fil1" d="M2594283 1772828l-3010 0 -3010 -3010 -15148 0c-66415,-63503 -144968,-114771 -229541,-151086l3010 -6020 0 -6020 -6020 -3010c96710,39228 181283,96613 253719,169146l0 0 0 0 0 0z"/>
    <polygon class="fil1" points="2594283,1775838 2591273,1772828 2594283,1772828 "/>
    <polygon class="fil1" points="2582243,1781858 2280169,1781858 2277159,1775838 2280169,1769818 2573115,1769818 2588263,1769818 2591273,1772828 2585253,1769818 2582243,1775838 "/>
    <polygon class="fil1" points="2588263,1781858 2582243,1781858 2582243,1775838 2585253,1769818 2591273,1772828 2594283,1775838 2594283,1778848 "/>
    <polygon class="fil1" points="2280169,1781858 2280169,1781858 2271041,1781858 2274148,1781858 2274148,1781858 2277159,1778848 2277159,1775838 "/>
    <polygon class="fil1" points="2271041,1781858 2271041,1781858 2271041,1781858 2274148,1781858 2274148,1781858 "/>
    <path class="fil1" d="M2268031 1766808l0 0 63503 -154096c0,0 0,0 0,0l-63503 154096z"/>
    <path class="fil1" d="M2280169 1769818l-6021 0 -6117 -3010 0 0 0 0 63503 -154096c0,0 0,0 0,0l3010 -6020 9030 -3010 3010 3010 0 6020 -3010 6020c0,0 0,0 0,0l-63405 151086 0 0 0 0 0 0z"/>
    <polygon class="fil1" points="2277159,1775838 2277159,1775838 2277159,1772828 2274148,1772828 2274148,1769818 2280169,1769818 2280169,1769818 "/>
    <polygon class="fil1" points="2265021,1772828 2268031,1766808 2274148,1769818 2271041,1769818 2268031,1772828 2268031,1769818 "/>
    <polygon class="fil1" points="2277159,1772828 2268031,1772828 2271041,1769818 2274148,1769818 2274148,1772828 "/>
    <polygon class="fil1" points="2274148,1781858 2277159,1778848 2277159,1772828 2277159,1775838 2277159,1775838 2277159,1778848 "/>
    <polygon class="fil1" points="2265021,1775838 2265021,1775838 2265021,1772828 2268031,1769818 2268031,1772828 2265021,1772828 "/>
    <polygon class="fil1" points="2271041,1781858 2271041,1781858 2265021,1781858 2265021,1775838 2265021,1772828 2268031,1772828 2277159,1772828 2277159,1778848 2274148,1781858 "/>
   </g>
   <path class="fil0 str1" d="M2055191 1358411c530838,0 961083,430341 961083,961180 0,530741 -430245,961082 -961083,961082 -530742,0 -961083,-430341 -961083,-961082 0,-530839 430341,-961180 961083,-961180z"/>
  </g>
 </g>
</svg>
