<?xml version="1.0" encoding="UTF-8"?>
<!DOCTYPE svg PUBLIC "-//W3C//DTD SVG 1.0//EN" "http://www.w3.org/TR/2001/REC-SVG-20010904/DTD/svg10.dtd">
<!-- Creator: CorelDRAW X7 -->
<svg xmlns="http://www.w3.org/2000/svg" xml:space="preserve" width="50px" height="50px" version="1.0" shape-rendering="geometricPrecision" text-rendering="geometricPrecision" image-rendering="optimizeQuality" fill-rule="evenodd" clip-rule="evenodd"
viewBox="0 0 2145 2145"
 xmlns:xlink="http://www.w3.org/1999/xlink">
 <g id="Layer_x0020_1">
  <metadata id="CorelCorpID_0Corel-Layer"/>
  <rect fill="none" width="2145" height="2145"/>
  <g id="_1738205008">
   <path fill="#666666" d="M579 1073l0 0 50 -435 0 0 -50 435 0 0zm-22 0l-42 -343 0 0 42 343 0 0 0 0 0 0zm11 -14l-6 -36 6 36 39 -321 -39 321 0 0 0 0z"/>
   <path fill="#666666" d="M629 638l0 0 442 -55 3 0 -442 55 0 0 -3 0zm3 -13l0 0 387 -47 -387 47 0 0zm439 -58l-351 -42 0 0 354 42 -3 0 0 0 0 0zm-218 -14l-221 -28 0 0 221 28 0 0z"/>
   <line fill="#666666" x1="629" y1="638" x2="629" y2= "638" />
   <polygon fill="#666666" points="515,627 515,627 385,387 385,387 "/>
   <polygon fill="#666666" points="618,638 518,638 515,633 515,633 515,630 515,627 515,627 618,627 618,633 618,633 "/>
   <polygon fill="#666666" points="626,627 626,627 618,627 618,522 623,522 623,525 623,525 623,525 632,525 632,525 632,625 632,625 "/>
   <polygon fill="#666666" points="618,633 618,627 626,627 626,627 623,627 "/>
   <polygon fill="#666666" points="366,368 366,365 366,365 "/>
   <path fill="#666666" d="M618 522l-233 -135 0 0 233 135 0 0 0 0 0 0zm909 0l0 0 233 -135 0 0 -233 135 0 0zm-8 -11l-893 0 -254 -146 0 0 -3 0 0 0 1407 0 0 0 -3 0 0 0 -19 11 -1363 0 235 135 893 0 0 0 0 0zm263 -141l-3 -2 0 0 3 0 0 2 0 0 0 0zm-1419 0l0 -2 3 0 0 0 -3 2 0 0 0 0z"/>
   <path fill="#666666" d="M618 522l-233 -135 0 0 0 0 -11 -19 -2 -3 0 0 254 146 0 0 0 0 -3 3 -3 0 0 3 -2 3 0 0 0 2 0 0 0 0zm-252 -154l0 0 0 0 0 0 0 0 0 0z"/>
   <path fill="#666666" d="M623 525l0 -3 -5 0 0 0 0 -2 5 5 0 0 0 0zm-3 -8l0 -3 3 0 -3 3 0 0 0 0z"/>
   <path fill="#666666" d="M1566 1073l-52 -435 2 0 50 435 0 0 0 0zm11 -14l0 0 44 -357 -44 357 0 0 0 0z"/>
   <path fill="#666666" d="M1514 638l-443 -55 443 55 0 0 0 0zm0 -13l0 0 0 -100 -75 8 75 -8 0 100zm-11 0l-399 -50 0 0 399 50 0 0z"/>
   <line fill="none" x1="1071" y1="583" x2="1071" y2= "583" />
   <polygon fill="#666666" points="1074,567 1071,567 1356,533 "/>
   <polygon fill="#666666" points="1071,567 1071,567 1071,567 1074,567 "/>
   <polygon fill="#666666" points="1516,638 1514,638 1514,638 "/>
   <path fill="#666666" d="M1638 616l122 -229 0 0 -122 229 0 0 0 0zm-119 -105l0 0 235 -135 -235 135 0 0z"/>
   <polygon fill="#666666" points="1527,522 1527,520 1525,517 1527,517 1525,517 1525,514 1522,514 1519,511 1519,511 1519,511 1519,511 1754,376 1773,365 1773,365 1771,368 1760,387 1760,387 1760,387 "/>
   <polygon fill="#666666" points="1779,368 1779,368 1779,365 1779,365 "/>
   <line fill="none" x1="1779" y1="368" x2="1779" y2= "368" />
   <polygon fill="#666666" points="1627,638 1527,638 1527,633 1527,627 1630,627 1630,630 1630,633 1630,633 "/>
   <polygon fill="#666666" points="1527,627 1522,627 1514,625 1514,525 1522,525 1522,525 1522,522 1527,522 "/>
   <path fill="#666666" d="M1522 525l3 -8 2 3 0 2 -5 0 0 3 0 0zm3 -8l-3 -3 3 0 0 3 0 0 0 0z"/>
   <polygon fill="#666666" points="1527,633 1522,627 1527,627 "/>
   <path fill="#666666" d="M1041 575l-188 -22 188 22 0 0 0 0zm315 -42l69 -8 -705 0 705 0 -69 8z"/>
   <polygon fill="#666666" points="1041,575 853,553 632,525 632,525 720,525 720,525 1071,567 1071,567 1068,572 "/>
   <polygon fill="#666666" points="632,525 623,525 623,525 623,525 626,525 "/>
   <polygon fill="#666666" points="1425,525 720,525 626,514 626,511 1519,511 1519,514 "/>
   <polygon fill="#666666" points="720,525 632,525 632,520 632,520 626,514 626,514 "/>
   <path fill="#666666" d="M618 520l0 0 2 -3 -2 3 0 0zm5 -6l3 -3 0 0 -3 3 0 0zm3 0l0 -3 0 0 0 3 0 0z"/>
   <polygon fill="#666666" points="632,525 626,525 623,525 618,520 618,520 620,517 623,514 626,511 626,514 626,514 632,520 632,520 "/>
   <polygon fill="#666666" points="1104,575 1104,575 1439,533 "/>
   <polygon fill="#666666" points="1104,575 1077,572 1074,567 1074,567 1356,533 1425,525 1514,525 1514,525 1439,533 "/>
   <polygon fill="#666666" points="1077,572 1071,572 1068,572 1071,567 1071,567 1071,567 1074,567 1074,567 "/>
   <polygon fill="#666666" points="1514,525 1425,525 1519,514 1516,514 1514,520 "/>
   <path fill="#666666" d="M1525 517l0 0 2 0 -2 0 0 0zm-3 -3l-3 -3 0 0 3 3 0 0zm-3 0l0 -3 0 0 0 3 0 0z"/>
   <polygon fill="#666666" points="1514,525 1514,525 1519,525 1522,525 1522,525 "/>
   <polygon fill="#666666" points="1519,525 1514,525 1514,520 1516,514 1519,514 1519,511 1522,514 1525,517 1525,517 1522,525 "/>
   <path fill="#666666" d="M1776 1780l0 0 0 0 0 0 0 0 0 0 0 0zm6 -2l-3 -3 3 -3 -141 -260 0 0 130 241 0 -1361 -130 241 0 0 141 -260 -3 -3 3 0 0 0 0 1405 0 3zm-141 -241l-11 -17 11 17z"/>
   <polygon fill="#666666" points="1779,370 1779,368 1782,370 "/>
   <path fill="#666666" d="M1630 627l0 0 8 -11 -8 11zm149 -262l-3 0 0 0 0 0 3 0 0 0 0 0z"/>
   <polygon fill="#666666" points="1776,365 1773,365 "/>
   <path fill="#666666" d="M1641 633l0 0 0 0 -3 -6 -3 0 0 0 0 0 -5 0 8 -11 122 -229 19 -11 0 -6 3 3 -141 260 0 0 0 0zm138 -265l-3 -3 3 0 0 3 0 0 0 0z"/>
   <polygon fill="#666666" points="1760,387 1771,368 1773,365 1776,365 1779,368 1779,368 1779,370 1779,376 "/>
   <path fill="#666666" d="M1641 633l-6 -6 3 0 3 6 0 0 0 0zm-11 0l0 -3 0 -3 5 0 -5 6 0 0z"/>
   <path fill="#666666" d="M1514 1509l52 -436 -50 436 -2 0 0 0 0 0zm116 -94l-42 -342 0 0 42 342 0 0 0 0zm-92 -2l39 -327 19 150 -19 -150 -39 327 0 0z"/>
   <line fill="none" x1="1566" y1="1073" x2="1566" y2= "1073" />
   <path fill="#666666" d="M1425 1623l0 0 -351 -44 351 44zm89 -3l-410 -50 0 0 410 50 0 -100 0 100 0 0 0 0zm-440 -58l-3 0 443 -53 0 0 -440 53 0 0z"/>
   <polygon fill="#666666" points="1514,1509 1514,1509 1516,1509 1516,1509 "/>
   <path fill="#666666" d="M1776 1780l3 0 0 -2 0 2 -3 0 0 0 0 0zm-22 -11l0 0 -235 -135 0 0 235 135 0 0zm6 -8l0 0 -119 -224 119 224z"/>
   <path fill="#666666" d="M1776 1780l3 0 -3 0 0 0 0 0 0 0zm3 -5l0 -6 -19 -8 -119 -224 -11 -17 5 0 0 0 0 -2 3 0 3 -3 0 -3 0 0 138 260 0 3 0 0 0 0z"/>
   <polygon fill="#666666" points="1630,1520 1527,1520 1527,1515 1527,1507 1627,1507 1630,1515 1630,1515 1630,1515 "/>
   <path fill="#666666" d="M1635 1520l-5 0 0 -5 0 0 5 5 0 0 0 0zm0 -2l6 -3 -3 3 -3 0z"/>
   <polygon fill="#666666" points="1527,1623 1522,1623 1522,1623 1522,1623 1514,1620 1514,1520 1522,1520 1522,1520 1527,1520 "/>
   <polygon fill="#666666" points="1527,1520 1522,1520 1527,1515 "/>
   <path fill="#666666" d="M1627 1507l0 0 -31 -271 31 271 0 0 0 0zm-39 -434l0 0 42 -343 0 0 -42 343 0 0 0 0zm33 -371l6 -64 0 0 -6 64z"/>
   <polygon fill="#666666" points="1588,1073 1588,1073 1583,1067 1577,1067 1577,1059 1621,702 1627,638 1630,638 1630,730 "/>
   <polygon fill="#666666" points="1630,638 1627,638 1627,638 1630,633 1630,633 1630,633 "/>
   <polygon fill="#666666" points="1641,1512 1641,1512 1630,1415 1630,730 1630,730 1641,633 1641,633 1641,633 "/>
   <polygon fill="#666666" points="1630,730 1630,638 1635,638 1641,636 1641,633 "/>
   <path fill="#666666" d="M1641 633l0 0 0 0 0 0 0 0 0 0 0 0zm-6 -6l0 0 0 0 0 0 0 0 0 0z"/>
   <polygon fill="#666666" points="1635,638 1630,638 1630,633 1630,633 1635,627 1635,627 1641,633 1641,633 1641,633 1641,636 "/>
   <polygon fill="#666666" points="1630,1507 1627,1507 1627,1507 1596,1236 1577,1086 1577,1078 1583,1078 1588,1073 1588,1073 1588,1073 1630,1415 "/>
   <polygon fill="#666666" points="1583,1078 1577,1078 1580,1073 1577,1067 1583,1067 1588,1073 1588,1073 1588,1073 "/>
   <polygon fill="#666666" points="1641,1512 1641,1509 1635,1507 1630,1507 1630,1415 1630,1415 "/>
   <path fill="#666666" d="M1635 1520l0 0 0 -2 0 2 0 0zm6 -5l0 -3 0 0 0 0 0 0 0 3 0 0 0 0z"/>
   <polygon fill="#666666" points="1630,1515 1630,1515 1627,1507 1630,1507 1630,1512 "/>
   <polygon fill="#666666" points="1635,1520 1635,1520 1630,1515 1630,1512 1630,1507 1635,1507 1641,1509 1641,1512 1641,1512 1641,1515 1635,1518 "/>
   <path fill="#666666" d="M369 1780l0 0 0 0 0 0 0 0zm-6 -2l0 -3 0 -1405 0 0 3 0 -3 3 141 260 0 879 -141 260 3 3 -3 3 0 0 0 0zm11 -1386l0 1361 130 -241 0 -879 -130 -241 0 0zm-8 -27l3 0 0 0 0 0 -3 0 0 0 0 0z"/>
   <polygon fill="#666666" points="504,633 363,373 366,370 366,376 385,387 515,627 510,627 510,627 510,627 510,627 507,627 "/>
   <path fill="#666666" d="M504 633l3 -6 3 0 -6 6 0 0 0 0zm11 0l-5 -6 0 0 5 0 0 3 0 3 0 0 0 0z"/>
   <polygon fill="#666666" points="366,368 366,365 369,365 "/>
   <path fill="#666666" d="M366 370l-3 0 3 -2 0 2 0 0 0 0zm3 -5l0 0 3 0 -3 0 0 0z"/>
   <polygon fill="#666666" points="385,387 366,376 366,370 366,368 366,368 369,365 372,365 374,368 "/>
   <path fill="#666666" d="M1776 1780l-1407 0 3 0 27 -16 -8 5 1363 0 19 11 3 0 0 0zm3 -2l0 0 3 0 0 0 -3 0 0 0 0 0zm-19 -17l-233 -135 0 -3 233 138 0 0 0 0z"/>
   <polygon fill="#666666" points="1779,1778 1779,1775 1782,1778 "/>
   <path fill="#666666" d="M1776 1780l-3 0 -19 -11 0 0 -235 -135 0 0 0 0 6 -3 0 -3 0 -5 0 0 235 138 0 0 0 0 11 17 5 2 0 0 0 0zm3 0l0 -2 0 0 0 2 0 0z"/>
   <polygon fill="#666666" points="1776,1780 1771,1778 1760,1761 1779,1769 1779,1775 1779,1778 1779,1780 "/>
   <path fill="#666666" d="M1519 1634l8 -6 -2 3 -6 3 0 0 0 0zm8 -6l-5 -5 0 0 5 0 0 5 0 0 0 0z"/>
   <path fill="#666666" d="M366 1778l-3 0 0 0 3 0 0 0 0 0 0 0zm19 -17l0 0 233 -138 0 0 -233 138 0 0 0 0z"/>
   <polygon fill="#666666" points="366,1778 363,1778 366,1775 "/>
   <polygon fill="#666666" points="629,1509 629,1509 579,1073 579,1073 "/>
   <polygon fill="#666666" points="526,1421 568,1086 568,1086 "/>
   <polygon fill="#666666" points="1071,1562 629,1509 629,1509 "/>
   <polygon fill="#666666" points="1071,1562 1071,1562 1071,1562 1074,1562 "/>
   <line fill="none" x1="629" y1="1509" x2="629" y2= "1509" />
   <polygon fill="#666666" points="720,1623 720,1623 1071,1579 1071,1579 "/>
   <path fill="#666666" d="M369 1780l-3 0 0 -2 0 2 3 0 0 0zm30 -16l227 -130 0 0 -227 130 0 0zm-14 -3l130 -241 103 0 -103 0 -130 241 0 0z"/>
   <path fill="#666666" d="M369 1780l0 0 0 0 -3 0 3 0 0 0zm-3 -5l-3 -3 141 -260 0 0 0 0 0 3 3 3 3 0 0 2 0 0 5 0 -130 241 -19 8 0 6 0 0 0 0z"/>
   <path fill="#666666" d="M369 1780l0 0 5 -2 11 -17 0 0 0 0 233 -135 0 2 2 0 0 3 0 0 0 0 3 3 3 0 0 0 -227 130 -27 16 -3 0 0 0 0 0zm-3 0l0 -2 0 0 0 2 0 0 0 0z"/>
   <polygon fill="#666666" points="369,1780 369,1780 366,1780 366,1778 366,1775 366,1769 385,1761 374,1778 "/>
   <polygon fill="#666666" points="618,1520 515,1520 515,1515 515,1515 515,1515 518,1507 618,1507 618,1512 618,1515 "/>
   <path fill="#666666" d="M515 1520l-5 0 5 -5 0 0 0 5 0 0 0 0zm-5 -2l-3 0 -3 -3 6 3z"/>
   <polygon fill="#666666" points="623,1634 620,1631 620,1631 "/>
   <polygon fill="#666666" points="618,1623 618,1520 623,1520 623,1520 632,1520 632,1620 623,1623 623,1623 623,1623 "/>
   <polygon fill="#666666" points="620,1628 618,1628 618,1623 618,1623 623,1623 623,1623 620,1623 "/>
   <polygon fill="#666666" points="623,1520 618,1520 618,1515 620,1518 "/>
   <path fill="#666666" d="M518 1507l0 0 8 -86 -8 86 0 0zm-3 -92l0 -685 0 685 42 -342 -42 342 0 0zm47 -392l-44 -385 0 0 44 385 0 0 0 0z"/>
   <path fill="#666666" d="M557 1073l0 0 0 0 0 0zm0 0l-42 -343 0 0 0 -92 3 0 44 385 6 36 0 8 -6 0 -5 6 0 0 0 0z"/>
   <polygon fill="#666666" points="518,638 518,638 515,638 515,633 515,633 515,633 "/>
   <polygon fill="#666666" points="504,1512 504,633 504,633 515,730 515,1415 "/>
   <polygon fill="#666666" points="515,730 504,633 504,636 510,638 515,638 "/>
   <path fill="#666666" d="M504 633l0 0 0 0 0 0 0 0zm0 0l0 0 0 0 0 0 0 0zm6 -6l0 0 0 0 0 0 0 0 0 0z"/>
   <polygon fill="#666666" points="515,638 510,638 504,636 504,633 504,633 504,633 510,627 510,627 515,633 515,633 "/>
   <polygon fill="#666666" points="518,1507 515,1507 515,1415 557,1073 557,1073 562,1078 568,1078 568,1086 526,1421 "/>
   <polygon fill="#666666" points="568,1078 562,1078 557,1073 557,1073 557,1073 562,1067 568,1067 565,1073 "/>
   <polygon fill="#666666" points="504,1512 515,1415 515,1507 510,1507 504,1509 "/>
   <path fill="#666666" d="M510 1520l0 0 0 -2 0 2 0 0 0 0zm-6 -5l0 -3 0 0 0 3 0 0zm0 -3l0 0 0 0 0 0 0 0z"/>
   <polygon fill="#666666" points="515,1515 515,1512 515,1507 518,1507 "/>
   <polygon fill="#666666" points="510,1520 510,1520 510,1518 504,1515 504,1512 504,1512 504,1509 510,1507 515,1507 515,1512 515,1515 "/>
   <polygon fill="#666666" points="1514,1623 1425,1623 1071,1579 1074,1579 1077,1573 1104,1570 1514,1620 "/>
   <polygon fill="#666666" points="1522,1623 1519,1623 1514,1623 1514,1620 "/>
   <polygon fill="#666666" points="1519,1634 626,1634 626,1634 720,1623 1425,1623 "/>
   <polygon fill="#666666" points="1519,1634 1425,1623 1425,1623 1514,1623 1514,1628 1516,1634 "/>
   <polygon fill="#666666" points="1519,1634 1519,1634 1519,1634 1519,1634 "/>
   <polygon fill="#666666" points="1519,1634 1519,1634 1519,1634 1516,1634 1514,1628 1514,1623 1519,1623 1522,1623 1527,1628 "/>
   <polygon fill="#666666" points="632,1620 632,1620 1041,1570 1041,1570 "/>
   <polygon fill="#666666" points="720,1623 632,1623 632,1620 1041,1570 1068,1573 1071,1579 "/>
   <polygon fill="#666666" points="1071,1579 1071,1579 1068,1573 1071,1573 1071,1573 1074,1573 1077,1573 1074,1579 "/>
   <polygon fill="#666666" points="626,1634 629,1634 632,1628 632,1628 632,1623 720,1623 720,1623 "/>
   <path fill="#666666" d="M626 1634l0 0 0 0 -3 0 3 0 0 0 0 0 0 0 0 0 0 0zm-6 -3l0 0 0 -3 0 3 0 0 0 0z"/>
   <polygon fill="#666666" points="623,1623 623,1623 632,1620 632,1623 626,1623 "/>
   <polygon fill="#666666" points="626,1634 626,1634 623,1634 620,1631 620,1628 620,1623 623,1623 626,1623 632,1623 632,1628 632,1628 629,1634 "/>
   <path fill="#666666" d="M1104 1570l0 0 410 -50 -410 50 0 0 0 0zm423 -63l0 0 11 -94 -11 94 0 0zm50 -448l-50 -421 0 0 50 421 0 0 0 0zm-970 -321l11 -100 0 0 -11 100 0 0zm907 -113l-11 0 11 0zm-495 -47l22 -3 0 0 -22 3z"/>
   <polygon fill="#666666" points="579,1073 579,1073 571,1067 568,1067 568,1059 607,738 618,638 626,638 626,638 629,638 "/>
   <polygon fill="#666666" points="629,638 632,633 632,633 632,633 632,625 1019,578 1041,575 1068,578 1071,583 "/>
   <polygon fill="#666666" points="626,638 626,638 632,633 632,633 629,638 629,638 629,638 "/>
   <polygon fill="#666666" points="626,638 618,638 618,638 618,633 618,633 618,633 620,636 "/>
   <polygon fill="#666666" points="632,633 629,627 626,627 632,625 "/>
   <polygon fill="#666666" points="626,638 626,638 620,636 618,633 618,633 623,627 626,627 626,627 629,627 632,633 "/>
   <polygon fill="#666666" points="1566,1073 1516,638 1519,638 1519,638 1527,638 1577,1059 1577,1059 1577,1059 1577,1067 1574,1067 "/>
   <polygon fill="#666666" points="1514,638 1071,583 1074,583 1077,578 1104,575 1503,625 1514,625 1514,633 1514,633 1514,633 "/>
   <polygon fill="#666666" points="1071,583 1071,583 1068,578 1071,580 1071,580 1074,580 1077,578 1074,583 "/>
   <polygon fill="#666666" points="1519,638 1519,638 1516,638 1516,638 1514,638 1514,633 1514,633 "/>
   <polygon fill="#666666" points="1527,638 1527,638 1519,638 1525,636 1527,633 1527,633 "/>
   <polygon fill="#666666" points="1514,633 1514,633 1514,625 1522,627 1519,627 1516,627 "/>
   <polygon fill="#666666" points="1519,638 1519,638 1514,633 1516,627 1519,627 1522,627 1527,633 1527,633 1525,636 "/>
   <line fill="#666666" x1="1041" y1="575" x2="1041" y2= "575" />
   <polygon fill="#666666" points="1068,578 1041,575 1041,575 1041,575 1068,572 1066,572 1066,578 "/>
   <polygon fill="#666666" points="1077,578 1079,578 1079,572 1077,572 1104,575 "/>
   <polygon fill="#666666" points="1074,580 1071,580 1071,580 1068,578 1066,578 1066,572 1068,572 1071,572 1077,572 1079,572 1079,578 1077,578 "/>
   <polygon fill="#666666" points="1516,1509 1566,1073 1566,1073 1574,1078 1577,1078 1577,1086 1538,1413 1527,1507 1527,1507 1519,1507 1519,1507 1519,1507 "/>
   <polygon fill="#666666" points="1577,1078 1574,1078 1566,1073 1566,1073 1566,1073 1574,1067 1577,1067 1574,1073 "/>
   <polygon fill="#666666" points="1104,1570 1077,1567 1074,1562 1074,1562 1514,1509 1514,1512 1514,1512 1514,1512 1514,1520 "/>
   <polygon fill="#666666" points="1514,1512 1514,1512 1514,1509 1516,1509 1516,1509 1519,1507 1519,1507 "/>
   <polygon fill="#666666" points="1527,1515 1527,1512 1525,1509 1519,1507 1519,1507 1527,1507 "/>
   <polygon fill="#666666" points="1514,1520 1514,1512 1514,1512 1516,1518 1519,1520 1522,1520 1522,1520 "/>
   <polygon fill="#666666" points="1522,1520 1519,1520 1516,1518 1514,1512 1519,1507 1525,1509 1527,1512 1527,1515 "/>
   <polygon fill="#666666" points="618,1507 618,1507 568,1086 568,1086 "/>
   <polygon fill="#666666" points="1577,1067 1577,1067 1577,1059 "/>
   <polygon fill="#666666" points="1577,1086 1577,1078 1577,1078 "/>
   <polygon fill="#666666" points="1577,1078 1577,1078 1574,1073 1577,1067 1577,1067 1580,1073 "/>
   <polygon fill="#666666" points="629,1509 626,1507 626,1507 626,1507 618,1507 618,1507 568,1086 568,1086 568,1086 568,1078 571,1078 579,1073 "/>
   <polygon fill="#666666" points="571,1078 568,1078 571,1073 568,1067 571,1067 579,1073 579,1073 579,1073 "/>
   <polygon fill="#666666" points="1041,1570 632,1520 "/>
   <polygon fill="#666666" points="1041,1570 632,1520 632,1515 632,1512 632,1512 629,1509 1071,1562 1071,1562 1068,1567 "/>
   <polygon fill="#666666" points="1077,1567 1071,1567 1068,1567 1071,1562 1071,1562 1071,1562 1074,1562 1074,1562 "/>
   <polygon fill="#666666" points="632,1515 632,1512 629,1509 626,1507 626,1507 629,1509 629,1509 629,1509 632,1512 632,1512 "/>
   <polygon fill="#666666" points="618,1515 618,1512 618,1507 626,1507 626,1507 620,1509 618,1512 "/>
   <polygon fill="#666666" points="632,1520 623,1520 623,1520 626,1520 626,1520 626,1520 632,1515 "/>
   <polygon fill="#666666" points="626,1520 626,1520 626,1520 623,1520 620,1518 618,1515 618,1512 620,1509 626,1507 629,1509 632,1512 632,1515 "/>
   <polygon fill="#666666" points="568,1067 568,1067 568,1059 "/>
   <polygon fill="#666666" points="568,1086 568,1078 568,1078 "/>
   <polygon fill="#666666" points="568,1078 568,1078 565,1073 568,1067 568,1067 571,1073 "/>
   <polygon fill="#666666" points="1077,1573 1079,1573 1079,1567 1077,1567 1104,1570 "/>
   <line fill="#666666" x1="1041" y1="1570" x2="1041" y2= "1570" />
   <polygon fill="#666666" points="1068,1573 1041,1570 1041,1570 1041,1570 1068,1567 1066,1567 1066,1573 "/>
   <polygon fill="#666666" points="1074,1573 1071,1573 1071,1573 1068,1573 1066,1573 1066,1567 1068,1567 1071,1567 1077,1567 1079,1567 1079,1573 1077,1573 "/>
  </g>
 </g>
</svg>
