<?xml version="1.0" encoding="UTF-8"?>
<!DOCTYPE svg PUBLIC "-//W3C//DTD SVG 1.0//EN" "http://www.w3.org/TR/2001/REC-SVG-20010904/DTD/svg10.dtd">
<!-- Creator: CorelDRAW X7 -->
<svg xmlns="http://www.w3.org/2000/svg" xml:space="preserve" width="50px" height="50px" version="1.0" shape-rendering="geometricPrecision" text-rendering="geometricPrecision" image-rendering="optimizeQuality" fill-rule="evenodd" clip-rule="evenodd"
viewBox="0 0 1473 1473"
 xmlns:xlink="http://www.w3.org/1999/xlink">
 <g id="Layer_x0020_1">
  <metadata id="CorelCorpID_0Corel-Layer"/>
  <rect fill="none" width="1473" height="1473"/>
  <g id="_1881409872">
   <path fill="#666666" d="M411 1223l-4 -2 -156 -155 0 0 0 0 4 1 0 0 8 -1 146 146 -2 5 0 4 4 2 0 0 0 0zm9 -23l25 -81 0 0 -25 81 0 0 0 0zm21 -93l-30 -28 30 28 0 0 0 0zm-178 -51l91 -28 0 0 -91 28 0 0 0 0z"/>
   <path fill="#666666" d="M439 1117l-81 -82 81 82 0 0zm-28 -38l-46 -46 0 0 46 46zm47 -13l13 -57 0 0 -13 57 0 0 0 0zm-47 -52l53 -13 0 0 -53 13 0 0 0 0z"/>
   <polygon fill="#666666" points="439,1117 358,1035 359,1033 359,1033 365,1033 411,1079 441,1107 439,1115 "/>
   <path fill="#666666" d="M365 1033l0 0 99 -22 0 0 -99 22 0 0zm-2 -7l0 0 48 -12 -48 12 0 0 0 0zm108 -25l0 0 -39 -263 39 263 0 0z"/>
   <polygon fill="#666666" points="365,1033 361,1030 363,1026 411,1014 464,1001 464,1005 464,1011 "/>
   <polygon fill="#666666" points="359,1033 359,1033 359,1031 361,1031 361,1030 365,1033 "/>
   <path fill="#666666" d="M475 1111l0 0 23 -6 -23 6zm-26 -2l9 -43 -9 43 0 0zm-8 -2l0 0 23 -96 0 0 -23 96zm296 -66l-266 -40 0 0 266 40 0 0zm-173 -17l-93 -15 0 0 93 15 0 0 0 0z"/>
   <line fill="none" x1="441" y1="1107" x2="441" y2= "1107" />
   <polygon fill="#666666" points="445,1111 441,1107 464,1011 468,1009 471,1009 471,1009 471,1009 458,1066 449,1109 "/>
   <polygon fill="#666666" points="439,1115 439,1115 441,1107 441,1107 445,1111 441,1111 441,1113 439,1113 "/>
   <path fill="#666666" d="M464 1011l0 0 0 0 0 0 0 0zm7 -10l0 0 0 0 0 0 0 0z"/>
   <polygon fill="#666666" points="464,1011 464,1011 464,1011 464,1005 464,1005 468,1009 468,1009 "/>
   <path fill="#666666" d="M996 1111l-521 0 521 0 -259 -62 -239 56 239 -56 259 62zm29 -2l-267 -64 0 0 267 64 0 0 0 0 0 0zm-576 0l0 0 267 -64 0 0 -267 64 0 0 0 0z"/>
   <polygon fill="#666666" points="475,1111 449,1111 449,1109 449,1109 449,1109 716,1045 737,1049 737,1049 498,1105 "/>
   <polygon fill="#666666" points="449,1111 445,1111 445,1111 449,1109 "/>
   <polygon fill="#666666" points="441,1113 441,1111 445,1111 445,1111 443,1111 "/>
   <path fill="#666666" d="M1063 1223l0 0 0 0 0 0 0 0 0 0 0 0zm0 0l-652 0 0 0 3 -4 6 -19 -6 15 643 0 2 4 4 4 0 0 0 0 0 0zm2 -11l-31 -95 0 0 31 95 0 0 0 0 0 0zm-656 0l0 0 30 -95 0 0 -30 95 0 0 0 0z"/>
   <polygon fill="#666666" points="411,1223 411,1223 407,1221 407,1217 409,1212 409,1212 439,1117 439,1119 443,1119 445,1119 445,1119 420,1200 414,1219 "/>
   <line fill="none" x1="439" y1="1117" x2="439" y2= "1117" />
   <polygon fill="#666666" points="439,1119 439,1117 439,1117 439,1115 439,1115 439,1115 439,1117 "/>
   <path fill="#666666" d="M443 1119l-4 0 0 -2 4 2 0 0 0 0zm-4 -4l0 0 0 -2 2 0 -2 2 0 0 0 0z"/>
   <polygon fill="#666666" points="1027,1119 445,1119 447,1119 475,1111 996,1111 "/>
   <polygon fill="#666666" points="445,1119 443,1119 443,1119 447,1119 "/>
   <polygon fill="#666666" points="439,1117 439,1115 439,1115 "/>
   <polygon fill="#666666" points="447,1119 447,1117 447,1117 447,1117 449,1111 475,1111 "/>
   <polygon fill="#666666" points="443,1119 443,1119 443,1119 447,1117 447,1117 447,1119 "/>
   <polygon fill="#666666" points="447,1117 445,1113 445,1111 449,1111 "/>
   <polygon fill="#666666" points="443,1119 443,1119 439,1117 439,1115 441,1113 443,1111 445,1111 445,1113 447,1117 "/>
   <path fill="#666666" d="M1025 1109l0 0 -8 -34 8 34 0 0zm-288 -68l0 0 263 -40 0 0 -263 40zm168 -17l97 -15 0 0 -97 15 0 0 0 0z"/>
   <line fill="#666666" x1="737" y1="1041" x2="737" y2= "1041" />
   <polygon fill="#666666" points="1025,1111 996,1111 737,1049 737,1049 758,1045 1025,1109 1025,1109 1025,1109 "/>
   <polygon fill="#666666" points="737,1049 737,1049 737,1049 "/>
   <polygon fill="#666666" points="1027,1119 996,1111 1025,1111 1027,1117 1027,1117 1027,1117 "/>
   <polygon fill="#666666" points="1023,1066 1010,1011 1010,1011 "/>
   <path fill="#666666" d="M1032 1107l-9 -41 9 41 0 0 0 0 0 0zm29 -28l45 -46 0 0 -45 46zm-44 -4l-15 -66 0 0 15 66 0 0zm46 -61l-53 -13 0 0 53 13z"/>
   <polygon fill="#666666" points="1029,1111 1025,1109 1017,1075 1002,1009 1002,1009 1002,1009 1004,1009 1010,1011 1023,1066 1032,1107 "/>
   <polygon fill="#666666" points="1029,1111 1025,1111 1025,1109 "/>
   <polygon fill="#666666" points="1027,1117 1027,1117 1025,1111 1029,1111 1027,1113 "/>
   <path fill="#666666" d="M1063 1223l4 -4 0 -4 -2 -3 146 -146 5 1 2 0 2 -1 2 0 -2 0 -153 155 -4 2 0 0 0 0zm-6 -8l0 0 -30 -96 0 0 30 96 0 0zm-25 -108l0 0 29 -28 -29 28z"/>
   <polygon fill="#666666" points="1063,1223 1063,1223 1063,1223 1059,1219 1057,1215 1057,1215 1027,1119 1027,1119 1031,1119 1031,1119 1031,1119 1031,1119 1032,1119 1034,1117 1034,1117 1065,1212 1065,1212 1067,1215 1067,1219 "/>
   <polygon fill="#666666" points="1031,1119 1027,1119 1027,1119 1029,1119 "/>
   <line fill="#666666" x1="1031" y1="1119" x2="1031" y2= "1119" />
   <polygon fill="#666666" points="1031,1119 1029,1119 1027,1119 1027,1117 1027,1117 1029,1119 "/>
   <polygon fill="#666666" points="1034,1117 1034,1115 1034,1113 1032,1107 1032,1107 1061,1079 1106,1033 1114,1033 1116,1035 "/>
   <polygon fill="#666666" points="1031,1119 1034,1115 1034,1115 1034,1117 1032,1119 "/>
   <polygon fill="#666666" points="1034,1115 1034,1113 1032,1113 1031,1111 1029,1111 1032,1107 1034,1113 "/>
   <polygon fill="#666666" points="1032,1113 1031,1111 1029,1111 1029,1111 1031,1111 "/>
   <polygon fill="#666666" points="1034,1115 1032,1113 1034,1113 "/>
   <polygon fill="#666666" points="1031,1119 1031,1119 1029,1119 1027,1117 1027,1113 1029,1111 1031,1111 1032,1113 1034,1115 "/>
   <polygon fill="#666666" points="1213,1056 1120,1028 1120,1028 "/>
   <polygon fill="#666666" points="1000,1001 1040,738 1040,738 "/>
   <line fill="#666666" x1="1000" y1="1001" x2="1000" y2= "1001" />
   <path fill="#666666" d="M1106 1033l-96 -22 0 0 96 22 0 0zm4 -7l-47 -12 47 12z"/>
   <line fill="#666666" x1="1010" y1="1011" x2="1010" y2= "1011" />
   <polygon fill="#666666" points="1106,1033 1106,1033 1106,1033 1010,1011 1008,1005 1010,1001 1063,1014 1110,1026 1110,1030 "/>
   <polygon fill="#666666" points="1010,1011 1004,1009 1006,1009 1008,1005 1008,1005 "/>
   <polygon fill="#666666" points="1114,1033 1114,1033 1106,1033 1110,1030 1110,1031 1112,1031 "/>
   <path fill="#666666" d="M1110 1026l0 0 -64 -269 0 0 64 269 0 0zm0 -29l-62 -259 62 -262 0 521 0 0 0 0zm0 -521l-62 262 62 259 0 -521 0 0 0 0zm-64 241l0 0 64 -269 -64 269 0 0z"/>
   <polygon fill="#666666" points="1110,1026 1110,1026 1046,757 1048,738 1048,738 1110,997 "/>
   <polygon fill="#666666" points="1110,1030 1110,1026 1110,1026 "/>
   <polygon fill="#666666" points="1112,1031 1110,1031 1110,1030 1110,1030 1110,1030 "/>
   <path fill="#666666" d="M1211 1066l-95 -31 95 31 0 0 0 0zm11 0l0 -4 -2 -2 -7 -4 1 2 0 -643 -7 2 13 -3 2 -2 0 -4 0 2 0 654 0 2 0 0 0 0zm-106 -628l0 0 95 -30 0 0 -95 30z"/>
   <polygon fill="#666666" points="1218,1067 1216,1067 1211,1066 1211,1066 1116,1035 1118,1033 1118,1031 1120,1030 1120,1030 1120,1028 1120,1028 1213,1056 1220,1060 1222,1062 1222,1066 1220,1066 "/>
   <polygon fill="#666666" points="1116,1035 1114,1033 1114,1033 1116,1033 1118,1031 1118,1031 1118,1033 "/>
   <polygon fill="#666666" points="1114,1033 1114,1033 1114,1033 1112,1031 "/>
   <polygon fill="#666666" points="1118,1031 1118,1031 1120,1030 1120,1030 1120,1030 "/>
   <line fill="none" x1="1118" y1="1031" x2="1118" y2= "1031" />
   <polygon fill="#666666" points="1120,1028 1118,1028 1110,997 1110,476 1118,446 1120,446 "/>
   <polygon fill="#666666" points="1116,1033 1114,1033 1114,1033 1118,1031 "/>
   <polygon fill="#666666" points="1120,1030 1118,1028 1118,1028 1120,1028 "/>
   <polygon fill="#666666" points="1118,1028 1116,1026 1116,1026 1116,1026 1110,1026 1110,997 "/>
   <polygon fill="#666666" points="1110,1030 1110,1026 1116,1026 1116,1026 1112,1028 "/>
   <polygon fill="#666666" points="1118,1031 1118,1030 1116,1026 1116,1026 1118,1028 1118,1028 1120,1030 1120,1030 "/>
   <polygon fill="#666666" points="1114,1033 1114,1033 1112,1031 1110,1030 1110,1030 1112,1028 1116,1026 1118,1030 1118,1031 1118,1031 "/>
   <path fill="#666666" d="M1040 738l-40 -266 0 0 40 266 0 0 0 0zm40 -283l30 -7 -30 7z"/>
   <polygon fill="#666666" points="1040,738 1040,738 1040,736 "/>
   <polygon fill="#666666" points="1048,738 1048,736 1046,717 1110,448 1110,448 1110,476 "/>
   <polygon fill="#666666" points="1048,738 1048,738 1048,736 "/>
   <polygon fill="#666666" points="1110,476 1110,448 1116,448 1116,448 1116,448 1118,446 "/>
   <polygon fill="#666666" points="1010,463 1010,463 1106,440 "/>
   <path fill="#666666" d="M1010 472l0 0 70 -17 -70 17zm-8 -7l0 0 15 -69 -15 69 0 0z"/>
   <polygon fill="#666666" points="1010,472 1008,468 1010,463 1106,440 1110,444 1110,448 1080,455 "/>
   <polygon fill="#666666" points="1110,448 1110,444 1110,444 "/>
   <polygon fill="#666666" points="1110,448 1110,444 1112,446 1114,448 1116,448 1116,448 "/>
   <path fill="#666666" d="M1120 446l0 0 87 -29 -87 29zm-4 -8l-82 -81 82 81zm106 -30l-2 0 -4 -2 -5 2 -146 -146 2 -6 0 -4 -2 0 2 0 153 156 2 0 0 0 0 0zm-195 -53l0 0 30 -97 0 0 -30 97 0 0z"/>
   <polygon fill="#666666" points="1120,446 1120,444 1118,442 1118,440 1116,438 1211,408 1211,408 1216,406 1220,408 1222,408 1222,412 1220,414 1207,417 "/>
   <polygon fill="#666666" points="1118,446 1118,444 1118,442 1120,444 1120,446 "/>
   <polygon fill="#666666" points="1118,442 1118,442 1118,440 "/>
   <polygon fill="#666666" points="1116,448 1118,444 1118,442 1118,442 1118,444 1118,446 "/>
   <polygon fill="#666666" points="1106,440 1032,366 1034,359 1034,357 1116,438 1114,440 "/>
   <polygon fill="#666666" points="1118,440 1116,440 1116,438 1114,440 1114,440 1116,438 "/>
   <polygon fill="#666666" points="1116,440 1114,440 1116,438 "/>
   <polygon fill="#666666" points="1110,444 1106,440 1114,440 1114,440 1112,442 1110,442 "/>
   <polygon fill="#666666" points="1110,444 1110,444 1110,442 1112,442 "/>
   <path fill="#666666" d="M1118 442l-2 -2 2 0 0 2 0 0zm-6 0l2 -2 0 0 0 0 -2 2 0 0 0 0z"/>
   <polygon fill="#666666" points="1114,448 1112,446 1110,444 1110,444 1112,442 1114,440 1116,440 1118,442 1118,444 1116,448 "/>
   <path fill="#666666" d="M1000 472l-263 -40 0 0 263 40 0 0zm10 -9l22 -97 0 0 -22 97 0 0 0 0 0 0zm7 -67l8 -32 0 0 -8 32zm-148 -3l127 -31 0 0 -127 31 0 0z"/>
   <path fill="#666666" d="M1000 472l0 0 0 0 0 0 0 0zm10 -9l0 0 0 0 0 0 0 0z"/>
   <polygon fill="#666666" points="1004,465 1002,465 1017,396 1025,364 1029,362 1032,366 1010,463 "/>
   <polygon fill="#666666" points="1008,468 1008,468 1006,465 1004,465 1010,463 1010,463 1010,463 "/>
   <polygon fill="#666666" points="1032,366 1032,366 1029,362 1031,362 1032,360 1034,359 1034,359 "/>
   <path fill="#666666" d="M716 429l-267 -65 0 0 267 63 0 0 0 2 0 0zm42 0l0 0 267 -65 0 0 -267 65 0 0 0 0zm-21 -4l-262 -63 262 63 132 -32 -132 32z"/>
   <polygon fill="#666666" points="758,429 737,425 737,425 737,425 869,393 996,362 1025,362 1025,364 1025,364 1025,364 "/>
   <polygon fill="#666666" points="1025,364 1025,362 1029,362 1029,362 "/>
   <polygon fill="#666666" points="1029,362 1029,362 1031,362 1032,360 1031,362 "/>
   <path fill="#666666" d="M1034 357l0 0 31 -95 0 0 -31 95 0 0zm-595 0l-30 -95 0 0 30 95 0 0 0 0zm-21 -88l-4 -15 -3 -4 -2 2 2 -2 652 0 2 2 -2 -2 -4 4 -2 4 -643 0 4 11 0 0z"/>
   <polygon fill="#666666" points="1034,357 1032,355 1031,355 1031,355 1027,355 1057,258 1057,258 1059,254 1063,250 1065,252 1067,252 1067,256 1065,262 1065,262 "/>
   <polygon fill="#666666" points="1034,359 1034,359 1034,359 1034,359 1032,357 1032,355 1034,357 "/>
   <polygon fill="#666666" points="1032,355 1031,355 1031,355 "/>
   <path fill="#666666" d="M1032 360l2 -1 0 0 0 0 0 0 -2 1 0 0 0 0zm0 -3l-1 -2 1 0 0 2 0 0z"/>
   <polygon fill="#666666" points="996,362 475,362 447,355 445,355 1027,355 1027,355 "/>
   <polygon fill="#666666" points="1027,355 1027,355 1027,355 1031,355 1031,355 1029,355 "/>
   <polygon fill="#666666" points="1034,359 1032,357 "/>
   <polygon fill="#666666" points="1025,362 996,362 996,362 1027,355 1027,357 1027,357 1027,357 "/>
   <polygon fill="#666666" points="1029,362 1025,362 1027,357 1027,357 1027,360 "/>
   <polygon fill="#666666" points="1027,357 1027,357 1027,355 1029,355 1031,355 1031,355 1029,355 "/>
   <polygon fill="#666666" points="1031,362 1029,362 1027,360 1027,357 1029,355 1031,355 1032,357 1034,359 1032,360 "/>
   <polygon fill="#666666" points="464,472 394,455 "/>
   <path fill="#666666" d="M471 472l0 0 266 -40 0 0 -266 40 0 0 0 0zm0 -7l-22 -101 0 0 22 101 0 0z"/>
   <line fill="#666666" x1="737" y1="432" x2="737" y2= "432" />
   <polygon fill="#666666" points="716,429 449,364 449,364 449,364 449,362 475,362 737,425 737,425 737,425 "/>
   <line fill="none" x1="737" y1="425" x2="737" y2= "425" />
   <polygon fill="#666666" points="475,362 449,362 447,357 447,357 447,357 447,355 "/>
   <polygon fill="#666666" points="464,463 464,463 441,366 441,366 "/>
   <polygon fill="#666666" points="468,465 464,463 441,366 445,362 449,364 471,465 "/>
   <polygon fill="#666666" points="449,364 445,362 445,362 449,362 "/>
   <polygon fill="#666666" points="449,362 445,362 445,360 447,357 447,357 "/>
   <path fill="#666666" d="M354 446l-86 -27 86 27zm-103 -38l0 0 156 -156 2 0 -2 0 0 4 2 6 -146 146 -8 -2 -4 2 0 0 0 0 0 0zm194 -53l0 0 -27 -86 27 86 0 0z"/>
   <polygon fill="#666666" points="439,357 409,262 409,262 407,256 407,252 409,252 411,250 414,254 418,269 445,355 443,355 443,355 439,355 "/>
   <polygon fill="#666666" points="447,355 443,355 443,355 443,355 445,355 445,355 "/>
   <polygon fill="#666666" points="365,440 359,440 359,440 358,438 439,357 439,359 439,359 441,366 "/>
   <polygon fill="#666666" points="439,359 439,357 439,357 439,355 439,357 "/>
   <polygon fill="#666666" points="439,359 439,359 439,357 "/>
   <polygon fill="#666666" points="439,355 443,355 443,355 "/>
   <polygon fill="#666666" points="447,357 443,355 443,355 443,355 443,355 447,355 "/>
   <polygon fill="#666666" points="441,366 439,359 439,359 439,359 441,360 441,362 445,362 "/>
   <polygon fill="#666666" points="445,362 441,362 441,360 443,362 "/>
   <path fill="#666666" d="M441 360l-2 -1 0 0 0 0 2 1zm-2 -3l0 -2 4 0 -4 2 0 0 0 0z"/>
   <polygon fill="#666666" points="445,362 443,362 441,360 439,359 439,357 443,355 443,355 447,357 445,360 "/>
   <path fill="#666666" d="M432 738l0 -2 39 -264 0 0 -39 266 0 0 0 0zm-65 -239l-6 -23 0 0 6 23 0 0 0 0z"/>
   <polygon fill="#666666" points="432,738 432,738 432,736 "/>
   <line fill="#666666" x1="471" y1="472" x2="471" y2= "472" />
   <path fill="#666666" d="M464 463l-99 -23 0 0 99 23 0 0 0 0 0 0zm-70 -8l-31 -7 0 0 31 7z"/>
   <polygon fill="#666666" points="464,472 394,455 363,448 361,444 365,440 464,463 464,468 "/>
   <line fill="#666666" x1="464" y1="463" x2="464" y2= "463" />
   <polygon fill="#666666" points="464,468 464,463 464,463 464,463 468,465 468,465 "/>
   <polygon fill="#666666" points="361,444 361,442 361,442 359,440 359,440 359,440 365,440 365,440 "/>
   <path fill="#666666" d="M758 1045l0 0 147 -21 -147 21zm-42 0l-152 -21 152 21 0 0 0 0zm-252 -44l-36 -244 0 0 36 244 0 0 0 0z"/>
   <line fill="none" x1="464" y1="1001" x2="464" y2= "1001" />
   <polygon fill="#666666" points="464,1001 428,757 432,738 432,738 432,738 432,738 471,1001 469,1001 468,1001 468,1001 468,1001 "/>
   <polygon fill="#666666" points="464,1005 464,1001 464,1001 468,1001 468,1001 464,1003 "/>
   <polygon fill="#666666" points="716,1045 564,1024 471,1009 471,1005 471,1005 471,1005 471,1001 737,1041 737,1041 735,1041 735,1041 "/>
   <polygon fill="#666666" points="471,1009 468,1009 469,1009 471,1005 471,1005 "/>
   <polygon fill="#666666" points="471,1005 471,1001 468,1001 468,1001 469,1001 471,1001 471,1001 471,1001 "/>
   <polygon fill="#666666" points="468,1009 468,1009 464,1005 464,1005 464,1003 468,1001 471,1001 471,1005 469,1009 "/>
   <path fill="#666666" d="M716 1045l0 0 0 0 0 0 0 0 0 0zm42 0l0 0 0 0 0 0 0 0z"/>
   <polygon fill="#666666" points="737,1049 716,1045 716,1045 716,1045 735,1041 735,1041 733,1045 735,1049 "/>
   <polygon fill="#666666" points="758,1045 737,1041 737,1041 737,1041 737,1041 1000,1001 1000,1005 1000,1005 1000,1005 1002,1009 905,1024 "/>
   <polygon fill="#666666" points="737,1041 735,1041 737,1041 737,1041 "/>
   <polygon fill="#666666" points="737,1049 737,1049 741,1045 737,1041 737,1041 758,1045 758,1045 758,1045 "/>
   <polygon fill="#666666" points="737,1049 737,1049 737,1049 737,1049 735,1049 733,1045 735,1041 737,1041 741,1045 "/>
   <polygon fill="#666666" points="1002,1009 1000,1005 1000,1005 1004,1009 1004,1009 "/>
   <polygon fill="#666666" points="1010,1001 1010,1001 1046,757 1046,757 "/>
   <line fill="#666666" x1="1010" y1="1001" x2="1010" y2= "1001" />
   <path fill="#666666" d="M1046 717l-36 -245 0 0 36 245 0 0zm-44 -252l-244 -36 0 0 244 36 0 0z"/>
   <polygon fill="#666666" points="1010,1001 1006,1001 1004,1001 1004,1001 1004,1001 1000,1001 1040,738 1040,738 1040,738 1040,738 1046,757 "/>
   <polygon fill="#666666" points="1000,1005 1000,1005 1000,1001 1000,1001 1000,1001 1004,1001 1004,1001 1004,1001 1002,1001 "/>
   <polygon fill="#666666" points="1008,1005 1008,1003 1004,1001 1006,1001 1010,1001 1010,1001 "/>
   <polygon fill="#666666" points="1004,1009 1004,1009 1000,1005 1002,1001 1004,1001 1008,1003 1008,1005 1008,1005 1006,1009 "/>
   <path fill="#666666" d="M1046 757l0 0 0 0 0 0 0 0 0 0zm0 -40l0 0 0 0 0 0z"/>
   <polygon fill="#666666" points="1046,757 1040,738 1040,738 1044,741 1044,741 1048,738 1048,738 "/>
   <polygon fill="#666666" points="1040,736 1000,472 1004,472 1004,472 1006,472 1010,472 1046,717 "/>
   <polygon fill="#666666" points="1040,738 1040,738 1040,738 1040,738 1040,736 1040,736 1040,736 "/>
   <polygon fill="#666666" points="1048,736 1048,736 1044,732 1040,736 1040,736 1046,717 1046,717 "/>
   <polygon fill="#666666" points="1044,741 1044,741 1040,738 1040,736 1044,732 1048,736 1048,736 1048,738 1048,738 "/>
   <path fill="#666666" d="M1010 472l0 0 0 0 0 0zm-8 -7l0 0 0 0z"/>
   <polygon fill="#666666" points="1004,472 1008,470 1008,468 1010,472 1006,472 "/>
   <polygon fill="#666666" points="1000,472 737,432 737,432 737,432 737,432 758,429 1002,465 1000,468 1000,468 1000,468 "/>
   <polygon fill="#666666" points="1004,472 1004,472 1000,472 1000,472 1000,472 1000,468 1000,468 1002,470 "/>
   <polygon fill="#666666" points="1000,468 1000,468 1002,465 1002,465 1004,465 1004,465 "/>
   <polygon fill="#666666" points="1004,472 1002,470 1000,468 1004,465 1004,465 1006,465 1008,468 1008,468 1008,470 "/>
   <polygon fill="#666666" points="471,465 471,465 716,429 716,429 "/>
   <line fill="#666666" x1="758" y1="429" x2="758" y2= "429" />
   <polygon fill="#666666" points="737,432 741,429 737,425 737,425 737,425 758,429 758,429 758,429 "/>
   <line fill="#666666" x1="716" y1="429" x2="716" y2= "429" />
   <polygon fill="#666666" points="471,472 471,468 471,468 473,468 471,467 471,465 471,465 716,429 735,432 737,432 737,432 737,432 "/>
   <polygon fill="#666666" points="737,432 737,432 737,432 737,432 737,432 "/>
   <polygon fill="#666666" points="737,432 735,432 716,429 716,429 716,429 737,425 737,425 735,425 733,429 "/>
   <polygon fill="#666666" points="737,432 737,432 733,429 735,425 737,425 737,425 737,425 741,429 "/>
   <polygon fill="#666666" points="471,468 469,465 468,465 471,465 471,467 473,468 "/>
   <polygon fill="#666666" points="428,717 428,717 464,472 464,472 "/>
   <line fill="none" x1="464" y1="472" x2="464" y2= "472" />
   <polygon fill="#666666" points="432,736 432,736 432,736 432,736 428,717 464,472 468,472 468,472 469,472 471,472 "/>
   <polygon fill="#666666" points="432,738 432,736 432,736 432,736 "/>
   <polygon fill="#666666" points="468,472 468,472 464,472 464,468 464,470 "/>
   <polygon fill="#666666" points="469,472 468,472 468,472 469,472 471,468 471,468 471,472 471,472 471,472 "/>
   <polygon fill="#666666" points="469,472 468,472 468,472 464,470 464,468 464,468 468,465 468,465 469,465 471,468 "/>
   <path fill="#666666" d="M363 1026l65 -269 0 0 -65 269 0 0 0 0zm-2 -29l0 0 63 -259 -57 -239 57 239 -63 259 0 0z"/>
   <polygon fill="#666666" points="361,1026 361,997 424,738 424,738 424,738 428,757 363,1026 363,1026 363,1026 "/>
   <polygon fill="#666666" points="361,1030 361,1030 361,1026 363,1026 "/>
   <polygon fill="#666666" points="359,1031 361,1030 361,1030 361,1030 361,1031 "/>
   <polygon fill="#666666" points="428,717 363,448 363,448 "/>
   <polygon fill="#666666" points="424,738 367,499 361,476 361,448 363,448 363,448 363,448 428,717 424,736 "/>
   <polygon fill="#666666" points="424,738 424,738 424,736 "/>
   <polygon fill="#666666" points="363,448 361,448 361,444 361,444 "/>
   <polygon fill="#666666" points="361,444 361,444 361,442 361,442 "/>
   <line fill="#666666" x1="428" y1="757" x2="428" y2= "757" />
   <polygon fill="#666666" points="428,757 428,757 428,757 424,738 424,738 424,738 428,741 432,738 432,738 "/>
   <line fill="#666666" x1="428" y1="717" x2="428" y2= "717" />
   <polygon fill="#666666" points="424,736 424,736 428,717 428,717 428,717 432,736 432,736 428,732 "/>
   <polygon fill="#666666" points="428,741 424,738 424,738 424,736 424,736 428,732 432,736 432,738 "/>
   <path fill="#666666" d="M263 1066l0 0 95 -31 0 0 -95 31 0 0 0 0zm-12 0l0 -2 0 -654 0 -2 0 4 2 2 15 5 -9 -4 0 643 4 -2 -10 4 -2 2 0 4 0 0 0 0zm107 -628l-95 -30 0 0 95 30 0 0 0 0z"/>
   <polygon fill="#666666" points="255,1067 251,1066 251,1066 251,1062 253,1060 263,1056 354,1028 354,1030 354,1031 356,1033 358,1035 263,1066 263,1066 "/>
   <polygon fill="#666666" points="358,1035 358,1035 356,1033 358,1033 358,1033 358,1033 359,1033 "/>
   <polygon fill="#666666" points="356,1033 356,1033 354,1031 354,1031 "/>
   <path fill="#666666" d="M358 1033l1 -2 0 2 0 0 -1 0 0 0zm0 0l-2 0 -2 -2 4 2 0 0 0 0z"/>
   <polygon fill="#666666" points="354,446 268,419 253,414 251,412 251,408 251,408 255,406 263,408 263,408 358,438 356,440 354,442 354,444 "/>
   <polygon fill="#666666" points="356,440 356,440 358,438 358,438 359,440 358,440 358,438 358,440 "/>
   <polygon fill="#666666" points="361,442 358,440 359,440 359,440 "/>
   <polygon fill="#666666" points="354,442 356,440 "/>
   <polygon fill="#666666" points="354,442 356,440 358,440 "/>
   <polygon fill="#666666" points="354,1028 354,446 354,446 361,476 361,997 "/>
   <polygon fill="#666666" points="354,1031 354,1030 354,1028 354,1028 354,1028 354,1030 "/>
   <line fill="none" x1="358" y1="1033" x2="358" y2= "1033" />
   <polygon fill="#666666" points="354,1028 361,997 361,1026 358,1026 358,1026 358,1026 "/>
   <polygon fill="#666666" points="354,1031 354,1031 354,1030 354,1028 358,1026 358,1026 354,1030 "/>
   <polygon fill="#666666" points="361,1030 361,1028 358,1026 358,1026 361,1026 "/>
   <polygon fill="#666666" points="358,1033 358,1033 354,1031 354,1030 358,1026 361,1028 361,1030 361,1030 359,1031 "/>
   <polygon fill="#666666" points="354,446 354,446 354,444 354,442 354,444 "/>
   <polygon fill="#666666" points="358,440 358,438 "/>
   <polygon fill="#666666" points="361,476 354,446 358,448 358,448 358,448 361,448 "/>
   <polygon fill="#666666" points="361,448 358,448 358,448 358,448 361,446 361,444 "/>
   <polygon fill="#666666" points="358,448 358,448 354,446 354,444 354,442 354,442 354,444 "/>
   <polygon fill="#666666" points="358,448 358,448 354,444 354,442 358,440 358,440 361,442 361,444 361,444 361,446 "/>
  </g>
 </g>
</svg>
