<?xml version="1.0" encoding="UTF-8"?>
<!DOCTYPE svg PUBLIC "-//W3C//DTD SVG 1.0//EN" "http://www.w3.org/TR/2001/REC-SVG-20010904/DTD/svg10.dtd">
<!-- Creator: CorelDRAW X7 -->
<svg xmlns="http://www.w3.org/2000/svg" xml:space="preserve" width="40px" height="40px" version="1.0" shape-rendering="geometricPrecision" text-rendering="geometricPrecision" image-rendering="optimizeQuality" fill-rule="evenodd" clip-rule="evenodd"
viewBox="0 0 2900 2900"
 xmlns:xlink="http://www.w3.org/1999/xlink">
 <g id="Layer_x0020_1">
  <metadata id="CorelCorpID_0Corel-Layer"/>
  <rect fill="none" width="2900" height="2900"/>
  <g id="_1212062544">
   <path fill="black" d="M1559 1702l-23 161 161 -23 491 -503c0,0 -10,-57 -54,-94 -44,-36 -94,-44 -94,-44l-481 503z"/>
   <path fill="black" d="M1791 2055l-1014 0 0 -1210 736 0 0 224c0,27 26,54 52,54l226 0 0 289 65 -64 0 -272 -298 -296 -793 0c-27,0 -53,21 -53,48l0 1244c0,27 26,48 53,48l1041 0c27,0 50,-21 50,-48l0 -335 -65 71 0 247zm-213 -1177l89 90 89 90 -178 0 0 -180z"/>
   <path fill="black" d="M1570 1524c0,-14 -11,-25 -24,-25l-617 0c-13,0 -24,11 -24,25 0,13 11,24 24,24l617 0c13,0 24,-11 24,-24z"/>
   <path fill="black" d="M1459 1614l-530 0c-13,0 -24,4 -24,24 0,20 11,25 24,25l530 0c14,0 24,-5 24,-25 0,-20 -10,-24 -24,-24z"/>
   <path fill="black" d="M929 1761l443 0c14,0 25,-12 25,-25 0,-13 -11,-24 -25,-24l-443 0c-13,0 -24,11 -24,24 0,13 11,25 24,25z"/>
   <path fill="black" d="M929 1859l530 0c14,0 24,-5 24,-25 0,-20 -10,-24 -24,-24l-530 0c-13,0 -24,4 -24,24 0,20 11,25 24,25z"/>
   <rect fill="black" x="908" y="1090" width="343" height="343"/>
  </g>
 </g>
</svg>
