<?xml version="1.0" encoding="UTF-8"?>
<!DOCTYPE svg PUBLIC "-//W3C//DTD SVG 1.0//EN" "http://www.w3.org/TR/2001/REC-SVG-20010904/DTD/svg10.dtd">
<!-- Creator: CorelDRAW X7 -->
<svg xmlns="http://www.w3.org/2000/svg" xml:space="preserve" width="50px" height="50px" version="1.0" shape-rendering="geometricPrecision" text-rendering="geometricPrecision" image-rendering="optimizeQuality" fill-rule="evenodd" clip-rule="evenodd"
viewBox="0 0 23619 23619"
 xmlns:xlink="http://www.w3.org/1999/xlink">
 <g id="Layer_x0020_1">
  <metadata id="CorelCorpID_0Corel-Layer"/>
  <rect fill="none" width="23619" height="23619"/>
  <g id="_981446704">
   <path fill="white" d="M12683 13831l-182 1283 1282 -183 3934 -4028c0,0 -83,-456 -433,-748 -350,-292 -756,-350 -756,-350l-3845 4026z"/>
   <path fill="white" d="M14539 16652l-8114 0 0 -9684 5889 0 0 1793c0,212 206,432 418,432l1807 0 0 2312 523 -513 0 -2173 -2388 -2374 -6348 0c-213,0 -425,173 -425,386l0 9957c0,212 212,388 425,388l8336 0c213,0 400,-176 400,-388l0 -2680 -523 570 0 1974zm-1702 -9417l711 717 710 718 -1421 0 0 -1435z"/>
   <path fill="white" d="M12771 12399c0,-106 -86,-196 -193,-196l-4940 0c-107,0 -193,90 -193,196 0,106 86,196 193,196l4940 0c107,0 193,-90 193,-196z"/>
   <path fill="white" d="M11883 13119l-4245 0c-107,0 -193,36 -193,196 0,160 86,196 193,196l4245 0c107,0 193,-36 193,-196 0,-160 -86,-196 -193,-196z"/>
   <path fill="white" d="M7638 14297l3551 0c106,0 193,-90 193,-197 0,-106 -87,-196 -193,-196l-3551 0c-107,0 -193,90 -193,196 0,107 86,197 193,197z"/>
   <path fill="white" d="M7638 15082l4245 0c107,0 193,-36 193,-197 0,-159 -86,-196 -193,-196l-4245 0c-107,0 -193,37 -193,196 0,161 86,197 193,197z"/>
   <rect fill="white" x="7472" y="8931" width="2748" height="2748"/>
  </g>
 </g>
</svg>
