<?xml version="1.0" encoding="UTF-8"?>
<!DOCTYPE svg PUBLIC "-//W3C//DTD SVG 1.0//EN" "http://www.w3.org/TR/2001/REC-SVG-20010904/DTD/svg10.dtd">
<!-- Creator: CorelDRAW X7 -->
<svg xmlns="http://www.w3.org/2000/svg" xml:space="preserve" width="50px" height="50px" version="1.0" shape-rendering="geometricPrecision" text-rendering="geometricPrecision" image-rendering="optimizeQuality" fill-rule="evenodd" clip-rule="evenodd"
viewBox="0 0 284916 284916"
 xmlns:xlink="http://www.w3.org/1999/xlink"
 enable-background="new 0 0 100 100">
 <g id="Layer_x0020_1">
  <metadata id="CorelCorpID_0Corel-Layer"/>
  <rect fill="none" width="284916" height="284916"/>
  <g id="_908019040">
   <g>
    <g>
     <path fill="#30B8C8" d="M204201 82613l-20897 0 -8709 0 -5909 -14174 0 0c-1380,-3250 -3709,-5693 -6394,-7511 -2712,-1783 -5862,-2988 -9389,-3015l-22802 0c-3553,21 -6723,1272 -9395,3130 -2658,1878 -4920,4428 -6151,7767l-5008 13756 135 47 -8076 0 -20897 0c-4200,0 -7599,3399 -7599,7599 0,4199 3399,7598 7599,7598l7598 0 0 115894c0,3661 1508,7013 3903,9395 2383,2396 5735,3904 9396,3904l81698 0c3661,0 7006,-1508 9395,-3904 2389,-2382 3904,-5734 3904,-9395l0 -115894 7598 0c4193,0 7598,-3399 7598,-7598 0,-4200 -3405,-7599 -7598,-7599zm-78939 -9907c189,-592 943,-1615 1979,-2328 1023,-734 2241,-1091 2860,-1064l22802 0c647,-27 1959,344 3063,1104 1124,727 1972,1797 2194,2403l0 0 4085 9792 -40583 0 3600 -9907zm59940 140998c0,518 -202,969 -566,1339 -370,364 -814,559 -1332,559l-81698 0c-518,0 -969,-195 -1339,-559 -364,-370 -559,-821 -559,-1339l0 -115894 85494 0 0 115894z"/>
     <path fill="#30B8C8" d="M116803 202303c3149,0 5700,-2551 5700,-5700l0 -81692c0,-3149 -2551,-5700 -5700,-5700 -3143,0 -5701,2551 -5701,5700l0 81692c0,3149 2558,5700 5701,5700z"/>
     <path fill="#30B8C8" d="M166202 202303c3150,0 5701,-2551 5701,-5700l0 -81692c0,-3149 -2551,-5700 -5701,-5700 -3149,0 -5700,2551 -5700,5700l0 81692c0,3149 2551,5700 5700,5700z"/>
     <path fill="#30B8C8" d="M141502 202303c3150,0 5701,-2551 5701,-5700l0 -81692c0,-3149 -2551,-5700 -5701,-5700 -3149,0 -5700,2551 -5700,5700l0 81692c0,3149 2551,5700 5700,5700z"/>
    </g>
   </g>
  </g>
 </g>
</svg>
