<?xml version="1.0" encoding="UTF-8"?>
<!DOCTYPE svg PUBLIC "-//W3C//DTD SVG 1.0//EN" "http://www.w3.org/TR/2001/REC-SVG-20010904/DTD/svg10.dtd">
<!-- Creator: CorelDRAW X7 -->
<svg xmlns="http://www.w3.org/2000/svg" xml:space="preserve" width="50px" height="50px" version="1.0" shape-rendering="geometricPrecision" text-rendering="geometricPrecision" image-rendering="optimizeQuality" fill-rule="evenodd" clip-rule="evenodd"
viewBox="0 0 30239 30239"
 xmlns:xlink="http://www.w3.org/1999/xlink">
 <g id="Layer_x0020_1">
  <metadata id="CorelCorpID_0Corel-Layer"/>
  <rect fill="none" width="30239" height="30239"/>
  <g id="_1317389664">
   <g id="_1318626176">
    <path fill="#BD245E" d="M11714 22502c-1953,-853 -3419,-2441 -4150,-4394 -1711,-4153 363,-8917 4517,-10624 4153,-1710 8915,364 10624,4517 1589,4030 -245,8671 -4151,10501 -611,247 -1098,-732 -490,-976 3422,-1587 5009,-5618 3665,-9037 -1465,-3545 -5618,-5375 -9159,-3909 -3664,1466 -5373,5619 -3906,9160 610,1586 1952,3051 3663,3784l124 -855c0,-122 121,-122 242,0l1345 2321 -2687 366c-122,0 -122,-122 -122,-122l485 -732 0 0z"/>
    <path fill="#BD245E" d="M15868 12368l1219 0 368 -611 -4274 0 -367 611 1220 0c123,0 979,121 1345,731l-2077 0 -366 611 2564 0c0,0 0,0 0,0 0,0 0,1343 -2321,1099l0 244 0 366 2566 2932 976 2 0 -124 -2442 -2930 0 0c0,0 1955,0 2200,-1710 0,0 0,0 0,0l853 0 366 -611 -1219 0c-368,-122 -368,-366 -611,-611l0 1z"/>
   </g>
  </g>
 </g>
</svg>
