<?xml version="1.0" encoding="UTF-8"?>
<!DOCTYPE svg PUBLIC "-//W3C//DTD SVG 1.0//EN" "http://www.w3.org/TR/2001/REC-SVG-20010904/DTD/svg10.dtd">
<!-- Creator: CorelDRAW X7 -->
<svg xmlns="http://www.w3.org/2000/svg" xml:space="preserve" width="50px" height="50px" version="1.0" shape-rendering="geometricPrecision" text-rendering="geometricPrecision" image-rendering="optimizeQuality" fill-rule="evenodd" clip-rule="evenodd"
viewBox="0 0 4274 4274"
 xmlns:xlink="http://www.w3.org/1999/xlink"
 enable-background="new -489 491 100 100">
 <g id="Layer_x0020_1">
  <metadata id="CorelCorpID_0Corel-Layer"/>
  <rect fill="none" width="4274" height="4274"/>
  <g id="_1251195104">
   <g id="_1341002384">
    <path fill="white" d="M1850 989l-97 190 766 0 -97 -190 -572 0zm-97 190l191 287c119,-23 264,-23 384,0l191 -287 -766 0 0 0zm384 1819c-310,0 -574,-264 -574,-574 0,-310 264,-574 574,-574 310,0 574,264 574,574 0,310 -264,574 -574,574zm0 -1435c-477,0 -861,384 -861,861 0,478 384,862 861,862 478,0 861,-384 861,-862 0,-477 -383,-861 -861,-861z"/>
   </g>
  </g>
 </g>
</svg>
