<?xml version="1.0" encoding="utf-8"?>
<!-- Generator: Adobe Illustrator 19.1.1, SVG Export Plug-In . SVG Version: 6.00 Build 0)  -->
<svg version="1.1" id="Layer_1" xmlns="http://www.w3.org/2000/svg" xmlns:xlink="http://www.w3.org/1999/xlink" x="0px" y="0px"
	 viewBox="-124 126 50 50" style="enable-background:new -124 126 50 50;" xml:space="preserve">
<style type="text/css">
	.st0{fill:none;}
	.st1{fill:none;stroke:#FFFFFF;stroke-width:0.5;stroke-miterlimit:10;}
	.st2{fill:#FFFFFF;}
</style>
<g id="Layer_x0020_1">
	<rect x="-124" y="126" class="st0" width="50" height="50"/>
</g>
<g>
	<g>
		<g>
			<polygon class="st0" points="-101.6,143.3 -104.8,138.2 -106.8,138.2 -102.2,143.3 			"/>
			<polygon class="st0" points="-101.8,137.5 -99.7,135.3 -99.5,135 -104,135 -102.9,136.3 			"/>
			<polygon class="st0" points="-104.5,137.6 -102.4,137.6 -103.5,136.4 -104.6,135.2 -106.8,137.6 -105.1,137.6 			"/>
			<polygon class="st0" points="-96,137.5 -94.9,136.3 -93.8,135 -98.3,135 -97.2,136.3 			"/>
			<polygon class="st0" points="-102.4,138.2 -104.1,138.2 -101.4,142.7 -101,143.3 -100.4,143.3 -102,138.2 			"/>
			<polygon class="st0" points="-98.6,138.2 -98.6,139.1 -98.6,143.3 -98,143.3 -96.4,138.2 -96.7,138.2 			"/>
			<polygon class="st0" points="-96.2,143.3 -95.6,143.3 -91,138.2 -93,138.2 			"/>
			<polygon class="st0" points="-96,141.9 -93.7,138.2 -95.4,138.2 -95.8,138.2 -97.4,143.3 -96.8,143.3 			"/>
			<polygon class="st0" points="-99.2,143.3 -99.2,139.1 -99.2,138.2 -101.1,138.2 -101.4,138.2 -99.8,143.3 			"/>
			<polygon class="st0" points="-99.2,137.6 -98.6,137.6 -96.7,137.6 -97.8,136.4 -98.9,135.2 -101.1,137.6 			"/>
			<polygon class="st0" points="-95.4,137.6 -93.3,137.6 -92.7,137.6 -91,137.6 -93.2,135.2 -94.3,136.4 			"/>
		</g>
		<polygon class="st1" points="-95.6,143.3 -96.2,143.3 -93,138.2 -91,138.2 		"/>
		<polygon class="st1" points="-95.8,138.2 -95.4,138.2 -93.7,138.2 -96,141.9 -96.8,143.3 -97.4,143.3 		"/>
		<polygon class="st1" points="-98,143.3 -98.6,143.3 -98.6,139.1 -98.6,138.2 -96.7,138.2 -96.4,138.2 		"/>
		<polygon class="st1" points="-91,137.6 -92.7,137.6 -93.3,137.6 -95.4,137.6 -94.3,136.4 -93.2,135.2 		"/>
		<polygon class="st1" points="-93.8,135 -94.9,136.3 -96,137.5 -97.2,136.3 -98.3,135 		"/>
		<polygon class="st1" points="-97.8,136.4 -96.7,137.6 -98.6,137.6 -99.2,137.6 -101.1,137.6 -98.9,135.2 		"/>
		<polygon class="st1" points="-101.4,138.2 -101.1,138.2 -99.2,138.2 -99.2,139.1 -99.2,143.3 -99.8,143.3 		"/>
		<polygon class="st1" points="-100.4,143.3 -101,143.3 -101.4,142.7 -104.1,138.2 -102.4,138.2 -102,138.2 		"/>
		<polygon class="st1" points="-99.5,135 -99.7,135.3 -101.8,137.5 -102.9,136.3 -104,135 		"/>
		<polygon class="st1" points="-104.6,135.2 -103.5,136.4 -102.4,137.6 -104.5,137.6 -105.1,137.6 -106.8,137.6 		"/>
		<polygon class="st1" points="-106.8,138.2 -104.8,138.2 -101.6,143.3 -102.2,143.3 		"/>
	</g>
	<g>
		<polygon class="st0" points="-96,137.5 -94.9,136.3 -93.8,135 -98.3,135 -97.2,136.3 		"/>
		<polygon class="st0" points="-99.2,137.6 -98.6,137.6 -96.7,137.6 -97.8,136.4 -98.9,135.2 -101.1,137.6 		"/>
		<polygon class="st0" points="-95.4,137.6 -93.3,137.6 -92.7,137.6 -91,137.6 -93.2,135.2 -94.3,136.4 		"/>
		<polygon class="st0" points="-98.6,138.2 -98.6,139.1 -98.6,143.3 -98,143.3 -96.4,138.2 -96.7,138.2 		"/>
		<polygon class="st0" points="-99.2,143.3 -99.2,139.1 -99.2,138.2 -101.1,138.2 -101.4,138.2 -99.8,143.3 		"/>
		<polygon class="st0" points="-96.2,143.3 -95.6,143.3 -91,138.2 -93,138.2 		"/>
		<polygon class="st0" points="-96,141.9 -93.7,138.2 -95.4,138.2 -95.8,138.2 -97.4,143.3 -96.8,143.3 		"/>
		<polygon class="st0" points="-102.4,138.2 -104.1,138.2 -101.4,142.7 -101,143.3 -100.4,143.3 -102,138.2 		"/>
		<polygon class="st0" points="-101.8,137.5 -99.7,135.3 -99.5,135 -104,135 -102.9,136.3 		"/>
		<path class="st0" d="M-88.7,155.4c0-0.3,0-0.6,0-1c0-0.1,0-0.2,0-0.3c0-0.2-0.1-0.4-0.1-0.6c0-0.1-0.1-0.3-0.1-0.4
			c0-0.2-0.1-0.3-0.1-0.5c0-0.1-0.1-0.3-0.1-0.4c0-0.1-0.1-0.3-0.2-0.4c-0.1-0.1-0.1-0.3-0.2-0.4c-0.1-0.1-0.1-0.2-0.2-0.3
			c-0.2-0.3-0.4-0.7-0.6-1l-0.1-0.1c-0.1-0.2-0.2-0.3-0.4-0.5c-0.1-0.1-0.1-0.1-0.2-0.2c-0.1-0.2-0.3-0.3-0.4-0.5
			c-0.1-0.1-0.1-0.1-0.2-0.2c-0.1-0.2-0.3-0.3-0.4-0.5l-0.1-0.1c-0.7-0.7-1.6-1.2-2.5-1.7c-0.1,0-0.1-0.1-0.2-0.1
			c-0.2-0.1-0.4-0.2-0.6-0.2c-0.1,0-0.2-0.1-0.3-0.1c-0.2-0.1-0.4-0.1-0.5-0.2h-0.1l0,0c-0.9-0.2-1.7-0.4-2.7-0.4
			c-0.9,0-1.7,0.1-2.6,0.3l0,0c-0.1,0-0.1,0-0.2,0.1c-0.2,0-0.3,0.1-0.5,0.1c-0.1,0-0.3,0.1-0.4,0.1c-0.2,0.1-0.3,0.1-0.5,0.2
			c-0.1,0-0.2,0.1-0.3,0.1c-0.6,0.3-1.2,0.6-1.7,1.1c-0.1,0-0.1,0.1-0.2,0.1c-0.2,0.1-0.3,0.3-0.5,0.4c-0.1,0.1-0.1,0.1-0.2,0.2
			c-0.1,0.1-0.3,0.3-0.4,0.4c-0.1,0.1-0.1,0.1-0.2,0.2c-0.1,0.1-0.3,0.3-0.4,0.5c-0.1,0.1-0.1,0.1-0.2,0.2c-0.4,0.5-0.7,1.1-1,1.7
			c-0.1,0.1-0.1,0.2-0.2,0.3s-0.1,0.3-0.2,0.5c-0.1,0.1-0.1,0.3-0.2,0.4c0,0.1-0.1,0.3-0.1,0.4c0,0.2-0.1,0.3-0.1,0.5
			c0,0.1-0.1,0.3-0.1,0.4c0,0.2-0.1,0.4-0.1,0.6c0,0.1,0,0.2,0,0.4c0,0.3,0,0.6,0,0.8v0.1c0,5.6,4.6,10.2,10.2,10.2
			s10.1-4.5,10.2-10C-88.7,155.5-88.7,155.5-88.7,155.4L-88.7,155.4L-88.7,155.4L-88.7,155.4z"/>
		<polygon class="st0" points="-104.5,137.6 -102.4,137.6 -103.5,136.4 -104.6,135.2 -106.8,137.6 -105.1,137.6 		"/>
		<polygon class="st0" points="-101.6,143.3 -104.8,138.2 -106.8,138.2 -102.2,143.3 		"/>
	</g>
	<g>
		<polygon class="st0" points="-99.2,143.3 -99.2,139.1 -99.2,138.2 -101.1,138.2 -101.4,138.2 -99.8,143.3 		"/>
		<polygon class="st0" points="-96,137.5 -94.9,136.3 -93.8,135 -98.3,135 -97.2,136.3 		"/>
		<polygon class="st0" points="-95.4,137.6 -93.3,137.6 -92.7,137.6 -91,137.6 -93.2,135.2 -94.3,136.4 		"/>
		<polygon class="st0" points="-96.2,143.3 -95.6,143.3 -91,138.2 -93,138.2 		"/>
		<polygon class="st0" points="-96,141.9 -93.7,138.2 -95.4,138.2 -95.8,138.2 -97.4,143.3 -96.8,143.3 		"/>
		<polygon class="st0" points="-98.6,138.2 -98.6,139.1 -98.6,143.3 -98,143.3 -96.4,138.2 -96.7,138.2 		"/>
		<polygon class="st0" points="-99.2,137.6 -98.6,137.6 -96.7,137.6 -97.8,136.4 -98.9,135.2 -101.1,137.6 		"/>
		<path class="st0" d="M-88.7,155.4c0-0.3,0-0.6,0-1c0-0.1,0-0.2,0-0.3c0-0.2-0.1-0.4-0.1-0.6c0-0.1-0.1-0.3-0.1-0.4
			c0-0.2-0.1-0.3-0.1-0.5c0-0.1-0.1-0.3-0.1-0.4c0-0.1-0.1-0.3-0.2-0.4c-0.1-0.1-0.1-0.3-0.2-0.4c-0.1-0.1-0.1-0.2-0.2-0.3
			c-0.2-0.3-0.4-0.7-0.6-1l-0.1-0.1c-0.1-0.2-0.2-0.3-0.4-0.5c-0.1-0.1-0.1-0.1-0.2-0.2c-0.1-0.2-0.3-0.3-0.4-0.5
			c-0.1-0.1-0.1-0.1-0.2-0.2c-0.1-0.2-0.3-0.3-0.4-0.5l-0.1-0.1c-0.7-0.7-1.6-1.2-2.5-1.7c-0.1,0-0.1-0.1-0.2-0.1
			c-0.2-0.1-0.4-0.2-0.6-0.2c-0.1,0-0.2-0.1-0.3-0.1c-0.2-0.1-0.4-0.1-0.5-0.2h-0.1l0,0c-0.9-0.2-1.7-0.4-2.7-0.4
			c-0.9,0-1.7,0.1-2.6,0.3l0,0c-0.1,0-0.1,0-0.2,0.1c-0.2,0-0.3,0.1-0.5,0.1c-0.1,0-0.3,0.1-0.4,0.1c-0.2,0.1-0.3,0.1-0.5,0.2
			c-0.1,0-0.2,0.1-0.3,0.1c-0.6,0.3-1.2,0.6-1.7,1.1c-0.1,0-0.1,0.1-0.2,0.1c-0.2,0.1-0.3,0.3-0.5,0.4c-0.1,0.1-0.1,0.1-0.2,0.2
			c-0.1,0.1-0.3,0.3-0.4,0.4c-0.1,0.1-0.1,0.1-0.2,0.2c-0.1,0.1-0.3,0.3-0.4,0.5c-0.1,0.1-0.1,0.1-0.2,0.2c-0.4,0.5-0.7,1.1-1,1.7
			c-0.1,0.1-0.1,0.2-0.2,0.3s-0.1,0.3-0.2,0.5c-0.1,0.1-0.1,0.3-0.2,0.4c0,0.1-0.1,0.3-0.1,0.4c0,0.2-0.1,0.3-0.1,0.5
			c0,0.1-0.1,0.3-0.1,0.4c0,0.2-0.1,0.4-0.1,0.6c0,0.1,0,0.2,0,0.4c0,0.3,0,0.6,0,0.8v0.1c0,5.6,4.6,10.2,10.2,10.2
			s10.1-4.5,10.2-10C-88.7,155.5-88.7,155.5-88.7,155.4L-88.7,155.4L-88.7,155.4L-88.7,155.4z"/>
		<polygon class="st0" points="-101.6,143.3 -104.8,138.2 -106.8,138.2 -102.2,143.3 		"/>
		<polygon class="st0" points="-102.4,138.2 -104.1,138.2 -101.4,142.7 -101,143.3 -100.4,143.3 -102,138.2 		"/>
		<polygon class="st0" points="-101.8,137.5 -99.7,135.3 -99.5,135 -104,135 -102.9,136.3 		"/>
		<polygon class="st0" points="-104.5,137.6 -102.4,137.6 -103.5,136.4 -104.6,135.2 -106.8,137.6 -105.1,137.6 		"/>
		<path class="st2" d="M-95.1,144l-0.4-0.1l0.6-0.7l0,0l4.8-5.3l-3.1-3.4h-11.7l-3.1,3.4l4.8,5.2l0.7,0.8l-0.3,0.1
			c-4.8,1.6-8.3,6.1-8.3,11.5c0,6.6,5.4,12,12.1,12c6.6,0,12.1-5.4,12.1-12.1C-86.8,150.1-90.3,145.6-95.1,144z M-95.6,143.3h-0.5
			l3.1-5.1h2.1L-95.6,143.3z M-95.8,138.2h0.4h1.7L-96,142l-0.8,1.4h-0.6L-95.8,138.2z M-98,143.3h-0.6v-4.2v-0.9h2h0.3L-98,143.3z
			 M-91,137.6h-1.7h-0.6h-2.1l1.1-1.2l1.1-1.2L-91,137.6z M-93.8,135l-1.1,1.2l-1.1,1.2l-1.1-1.2l-1.1-1.2H-93.8z M-97.8,136.4
			l1.1,1.2h-2h-0.5h-2l2.2-2.4L-97.8,136.4z M-101.4,138.2h0.3h2v0.9v4.2h-0.6L-101.4,138.2z M-100.4,143.3h-0.6l-0.4-0.6l-2.8-4.5
			h1.7h0.4L-100.4,143.3z M-99.5,135l-0.2,0.2l-2,2.2l-1.1-1.2l-1.1-1.2H-99.5z M-104.6,135.2l1.1,1.2l1.1,1.2h-2.1h-0.6h-1.7
			L-104.6,135.2z M-106.8,138.2h2.1l3.1,5.1h-0.5L-106.8,138.2z M-88.7,155.4c0,0.1,0,0.1,0,0.2c-0.1,5.6-4.6,10-10.2,10
			s-10.2-4.6-10.2-10.2v-0.1c0-0.3,0-0.6,0-0.8c0-0.1,0-0.2,0-0.4s0.1-0.4,0.1-0.6c0-0.1,0.1-0.3,0.1-0.4c0-0.2,0.1-0.3,0.1-0.5
			c0-0.1,0.1-0.3,0.1-0.4c0-0.1,0.1-0.3,0.2-0.4c0.1-0.2,0.1-0.3,0.2-0.5c0-0.1,0.1-0.2,0.2-0.3c0.3-0.6,0.6-1.2,1-1.7
			c0.1-0.1,0.1-0.1,0.2-0.2c0.1-0.2,0.3-0.3,0.4-0.5c0.1-0.1,0.1-0.1,0.2-0.2c0.1-0.1,0.3-0.3,0.4-0.4c0.1-0.1,0.1-0.1,0.2-0.2
			c0.2-0.1,0.3-0.3,0.5-0.4c0.1,0,0.1-0.1,0.2-0.1c0.5-0.4,1.1-0.8,1.7-1.1c0.1,0,0.2-0.1,0.3-0.1c0.2-0.1,0.3-0.1,0.5-0.2
			c0.1,0,0.3-0.1,0.4-0.1c0.2-0.1,0.3-0.1,0.5-0.1c0.1,0,0.1,0,0.2-0.1l0,0c0.8-0.2,1.7-0.3,2.6-0.3s1.8,0.1,2.7,0.4l0,0h0.1
			c0.2,0.1,0.4,0.1,0.5,0.2c0.1,0,0.2,0.1,0.3,0.1c0.2,0.1,0.4,0.1,0.6,0.2c0.1,0,0.1,0.1,0.2,0.1c0.9,0.4,1.7,1,2.5,1.7l0.1,0.1
			c0.2,0.1,0.3,0.3,0.4,0.5c0.1,0.1,0.1,0.1,0.2,0.2c0.1,0.2,0.3,0.3,0.4,0.5c0.1,0.1,0.1,0.1,0.2,0.2c0.1,0.2,0.2,0.3,0.4,0.5
			l0.1,0.1c0.2,0.3,0.4,0.7,0.6,1c0.1,0.1,0.1,0.2,0.2,0.3s0.1,0.3,0.2,0.4c0.1,0.1,0.1,0.3,0.2,0.4c0,0.1,0.1,0.3,0.1,0.4
			c0,0.2,0.1,0.3,0.1,0.5c0,0.1,0.1,0.3,0.1,0.4c0,0.2,0.1,0.4,0.1,0.6c0,0.1,0,0.2,0,0.3C-88.7,154.8-88.7,155.1-88.7,155.4
			L-88.7,155.4L-88.7,155.4L-88.7,155.4z"/>
	</g>
</g>
</svg>
