<?xml version="1.0" encoding="UTF-8"?>
<!DOCTYPE svg PUBLIC "-//W3C//DTD SVG 1.1//EN" "http://www.w3.org/Graphics/SVG/1.1/DTD/svg11.dtd">
<!-- Creator: CorelDRAW X7 -->
<svg xmlns="http://www.w3.org/2000/svg" xml:space="preserve" width="50px" height="50px" version="1.1" style="shape-rendering:geometricPrecision; text-rendering:geometricPrecision; image-rendering:optimizeQuality; fill-rule:evenodd; clip-rule:evenodd"
viewBox="0 0 1466927 1466927"
 xmlns:xlink="http://www.w3.org/1999/xlink"
 enable-background="new 0 0 80 80">
 <defs>
  <style type="text/css">
   <![CDATA[
    .str0 {stroke:white;stroke-width:5856.34}
    .str1 {stroke:white;stroke-width:5856.34}
    .fil0 {fill:none}
    .fil1 {fill:white}
   ]]>
  </style>
 </defs>
 <g id="Layer_x0020_1">
  <metadata id="CorelCorpID_0Corel-Layer"/>
  <rect class="fil0" x="-17" y="-17" width="1466962" height="1466962"/>
  <g id="_1105607280">
   <path class="fil0 str0" d="M733464 495987c188096,0 340568,152508 340568,340604 0,188096 -152472,340569 -340568,340569 -188096,0 -340569,-152473 -340569,-340569 0,-188096 152473,-340604 340569,-340604z"/>
   <path class="fil0 str1" d="M733464 582065c140587,0 254525,113939 254525,254526 0,140552 -113938,254491 -254525,254491 -140587,0 -254526,-113939 -254526,-254491 0,-140587 113939,-254526 254526,-254526z"/>
  </g>
  <g id="_1105588240">
   <path class="fil1" d="M880080 350480c0,0 0,-382 0,-382 0,0 0,-381 0,-381 0,-381 0,-381 0,-762 0,0 0,0 0,-381 0,-381 0,-797 -381,-797 0,0 0,0 0,0 0,0 0,0 0,0 0,-382 -381,-382 -381,-763l-39678 -50801c0,-381 -381,-797 -762,-1559 -381,-381 -381,-381 -763,-381 -381,-382 -1143,-763 -1940,-763l-213289 0c0,0 0,0 0,0 -381,0 -381,0 -762,0 0,0 0,0 0,0 0,0 -381,0 -381,0 0,0 0,0 -382,0 0,0 -415,0 -415,381 0,0 0,0 -382,0 0,0 0,0 0,0 0,0 0,0 0,0 0,0 0,0 0,0l-41202 53123c0,381 -381,381 -381,763 0,0 0,0 0,0 0,0 0,0 0,0 0,416 0,416 -381,797 0,0 0,381 0,381 0,0 0,381 0,381 0,0 0,381 0,381 0,0 0,381 0,381 0,0 0,0 0,0 0,0 0,382 381,382 0,0 0,381 381,381 0,0 0,0 0,0l149008 145923c0,0 381,381 381,381 0,0 0,0 0,0 416,0 416,416 797,416 0,0 0,0 0,0 381,0 381,0 762,0 0,0 0,0 0,0 0,0 381,0 381,0 0,0 0,0 0,0 0,0 382,0 382,0 0,0 0,0 0,0 0,0 381,0 381,0 0,0 0,0 381,0 0,0 0,0 381,0 0,0 416,0 416,-416 0,0 0,0 0,0l146305 -145923c0,0 0,0 0,0 762,0 762,-381 1143,-762 0,381 0,0 0,0 0,0 0,0 0,0zm-142077 -50802l91622 0 -45430 45430 -46192 -45430zm38118 46193l-90478 0 45048 -45049 45430 45049zm-98934 -381l-46608 -45812 92038 0 -45430 45812zm102781 6930l-49277 133587 -49657 -133587 98934 0zm56207 -50454l34653 43905 -78524 0 43871 -43905zm-212908 -763l45430 44668 -80464 0 35034 -44668zm51217 51217l48514 130884 -133621 -130884 85107 0zm63900 130884l48514 -130884 82786 0 -131300 130884z"/>
  </g>
 </g>
</svg>
