<?xml version="1.0" encoding="UTF-8"?>
<!DOCTYPE svg PUBLIC "-//W3C//DTD SVG 1.1//EN" "http://www.w3.org/Graphics/SVG/1.1/DTD/svg11.dtd">
<!-- Creator: CorelDRAW X7 -->
<svg xmlns="http://www.w3.org/2000/svg" xml:space="preserve" width="50px" height="50px" version="1.1" style="shape-rendering:geometricPrecision; text-rendering:geometricPrecision; image-rendering:optimizeQuality; fill-rule:evenodd; clip-rule:evenodd"
viewBox="0 0 204095 204095"
 xmlns:xlink="http://www.w3.org/1999/xlink"
 enable-background="new 0 0 100 100">
 <defs>
  <style type="text/css">
   <![CDATA[
    .str0 {stroke:white;stroke-width:1017.29}
    .fil0 {fill:none}
    .fil1 {fill:white}
   ]]>
  </style>
 </defs>
 <g id="Layer_x0020_1">
  <metadata id="CorelCorpID_0Corel-Layer"/>
  <rect class="fil0" x="-2" y="-2" width="204100" height="204100"/>
  <g id="_1117889424">
   <g>
    <g>
     <path class="fil1" d="M102038 71693c25982,0 47123,21136 47123,47123 0,25982 -21141,47124 -47123,47124 -25982,0 -47119,-21142 -47119,-47124 0,-25987 21137,-47123 47119,-47123l0 0zm0 -4065c-28267,0 -51183,22921 -51183,51188 0,28267 22916,51188 51183,51188 28272,0 51188,-22921 51188,-51188 0,-28272 -22916,-51188 -51188,-51188l0 0z"/>
    </g>
   </g>
   <g id="_1117893328">
    <g>
     <path class="fil1" d="M102038 83780c19319,0 35036,15717 35036,35036 0,19319 -15717,35032 -35036,35032 -19314,0 -35032,-15713 -35032,-35032 0,-19319 15718,-35036 35032,-35036l0 0zm0 -4065c-21595,0 -39096,17507 -39096,39101 0,21595 17501,39096 39096,39096 21599,0 39101,-17501 39101,-39096 0,-21594 -17502,-39101 -39101,-39101l0 0z"/>
    </g>
   </g>
  </g>
  <g>
   <g>
    <path class="fil1 str0" d="M109419 47133c-221,0 -424,-111 -540,-299l-7338 -11759c-120,-198 -130,-448 -14,-651 111,-202 328,-328 559,-328l14580 -5c231,0 443,126 554,328 116,203 111,453 -9,651l-7247 11759c-115,188 -323,304 -545,304 0,0 0,0 0,0zm-6180 -11759l6176 9908 6103 -9908 -12279 0z"/>
    <path class="fil1 str0" d="M94796 47133c-221,0 -429,-111 -544,-299l-7372 -11759c-125,-198 -130,-444 -19,-651 110,-202 327,-328 559,-328l14666 -5c232,0 444,131 560,333 110,203 106,448 -15,646l-7295 11759c-115,188 -318,304 -540,304 0,0 0,0 0,0zm-6219 -11759l6215 9913 6142 -9913 -12357 0z"/>
    <path class="fil1 str0" d="M94806 47133c-5,0 -10,0 -14,0l-14556 0c-231,0 -443,-125 -559,-328 -111,-202 -106,-448 14,-646l7184 -11759c116,-188 318,-304 540,-309 5,0 5,0 5,0 222,0 424,116 545,304l7318 11673c102,115 160,265 160,424 0,357 -285,641 -637,641zm-13432 -1278l12265 0 -6209 -9907 -6056 9907z"/>
    <path class="fil1 str0" d="M109429 47133c0,0 -5,0 -10,0l-14623 0c-236,0 -448,-125 -559,-328 -116,-202 -111,-453 15,-646l7289 -11764c116,-188 323,-299 545,-304 0,0 0,0 0,0 222,0 425,116 540,304l7285 11677c97,111 159,261 159,420 0,357 -289,641 -641,641zm-13485 -1278l12323 0 -6181 -9912 -6142 9912z"/>
    <path class="fil1 str0" d="M123859 47133c-5,0 -5,0 -9,0l-14431 0c-231,0 -443,-125 -559,-328 -111,-202 -106,-448 15,-646l7241 -11759c121,-193 323,-309 545,-309 5,0 5,0 5,0 222,5 429,121 545,309l7130 11677c97,111 155,256 155,415 5,357 -285,641 -637,641zm-13292 -1278l12140 0 -6046 -9898 -6094 9898z"/>
    <path class="fil1 str0" d="M102168 69822c-173,0 -342,-72 -463,-193l-21941 -22689c-179,-183 -232,-458 -131,-694 102,-236 333,-391 589,-391l43628 0c255,0 487,155 588,386 101,236 48,511 -126,694l-21686 22689c-115,126 -284,198 -458,198 0,0 0,0 0,0zm-20437 -22689l20432 21127 20192 -21127 -40624 0z"/>
    <path class="fil1 str0" d="M102168 69822c-270,0 -520,-173 -607,-443l-7377 -22685c-106,-337 77,-699 415,-810 337,-106 694,77 805,415l7372 22684c106,338 -77,699 -410,805 -68,24 -135,34 -198,34z"/>
    <path class="fil1 str0" d="M102188 69822c-63,0 -131,-10 -193,-29 -338,-111 -526,-467 -415,-805l7232 -22689c106,-333 463,-521 800,-415 338,106 526,468 420,806l-7237 22689c-87,270 -337,443 -607,443z"/>
   </g>
  </g>
 </g>
</svg>
