<?xml version="1.0" encoding="UTF-8"?>
<!DOCTYPE svg PUBLIC "-//W3C//DTD SVG 1.0//EN" "http://www.w3.org/TR/2001/REC-SVG-20010904/DTD/svg10.dtd">
<!-- Creator: CorelDRAW X7 -->
<svg xmlns="http://www.w3.org/2000/svg" xml:space="preserve" width="50px" height="50px" version="1.0" shape-rendering="geometricPrecision" text-rendering="geometricPrecision" image-rendering="optimizeQuality" fill-rule="evenodd" clip-rule="evenodd"
viewBox="0 0 2953 2953"
 xmlns:xlink="http://www.w3.org/1999/xlink">
 <g id="Layer_x0020_1">
  <metadata id="CorelCorpID_0Corel-Layer"/>
  <rect fill="none" width="2953" height="2953"/>
  <g id="_1738196560">
   <path fill="#9538A3" d="M780 2171c-92,-92 -161,-200 -211,-319l8 4 0 0 7 -4c46,112 111,208 196,296l0 -372 0 391 0 0 0 4 0 0 0 0zm-200 -330c0,0 0,0 0,0l192 -81 0 0 -192 81 0 0z"/>
   <path fill="#9538A3" d="M1194 2155l-107 -260 0 0 107 260 0 0 0 0 0 0zm-138 -287l-111 -50 111 50 0 0 0 0z"/>
   <polygon fill="#9538A3" points="780,2167 780,2167 780,1776 788,1772 795,1776 795,2159 788,2159 780,2163 "/>
   <path fill="#9538A3" d="M1474 2439l-268 -268 0 -4 268 272 273 -268 0 0 -273 268 0 0 0 0zm284 -284l-261 -107 0 0 261 107 0 0 0 0zm-564 0l0 0 261 -107 0 0 -261 107z"/>
   <line fill="none" x1="1194" y1="2155" x2="1194" y2= "2155" />
   <path fill="#9538A3" d="M1206 2167l0 0 268 -111 0 0 -268 111 0 0zm-27 -8l0 0 -111 -272 0 0 111 272 0 0 0 0zm295 -119l-395 -165 0 0 395 165 0 0z"/>
   <polygon fill="#9538A3" points="1190,2159 1179,2159 1179,2159 1068,1887 1068,1887 1087,1895 1194,2155 "/>
   <polygon fill="#9538A3" points="1206,2171 1198,2163 1194,2155 1455,2048 1474,2056 1474,2056 1206,2167 "/>
   <polygon fill="#9538A3" points="1198,2163 1194,2159 1194,2159 1190,2159 1190,2159 1194,2155 1194,2155 "/>
   <path fill="#9538A3" d="M1474 2459l0 0 8 0 276 -281 0 0 -261 265c112,-4 227,-23 334,-65l8 -4 4 8 3 4 4 0 0 0 -15 7c-115,43 -234,66 -361,66l0 0 0 0zm380 -93l-80 -191 0 0 80 191 0 0 0 0 0 0z"/>
   <polygon fill="#9538A3" points="1474,2459 1482,2455 1482,2447 1474,2439 1747,2171 1754,2171 1758,2178 1482,2459 "/>
   <path fill="#9538A3" d="M1474 2459c-126,0 -253,-23 -376,-73l4 0 8 -4 4 -8c107,42 226,65 341,69l-261 -265 0 0 276 281 4 0 0 0 0 0zm-376 -93c0,0 0,0 0,0l81 -191 0 0 -81 191z"/>
   <polygon fill="#9538A3" points="1474,2459 1470,2459 1194,2178 1198,2171 1206,2171 1474,2439 1470,2447 1470,2455 "/>
   <polygon fill="#9538A3" points="1198,2171 1198,2171 1198,2167 1198,2163 1198,2163 1206,2171 "/>
   <polygon fill="#9538A3" points="1198,2167 1198,2163 1194,2159 1194,2159 1198,2163 1198,2163 "/>
   <polygon fill="#9538A3" points="1474,2459 1474,2459 1470,2455 1470,2447 1474,2439 1482,2447 1482,2455 "/>
   <path fill="#9538A3" d="M1098 2386l0 0c-119,-50 -226,-123 -318,-215l0 0 8 4 391 0 -372 0c84,80 184,145 291,191l-4 8 0 8 4 4 0 0 0 0zm16 -12c0,0 0,0 0,0l80 -196 0 0 -80 196z"/>
   <polygon fill="#9538A3" points="788,2175 780,2171 780,2167 "/>
   <polygon fill="#9538A3" points="1179,2175 788,2175 791,2175 795,2167 795,2159 1179,2159 1183,2167 "/>
   <polygon fill="#9538A3" points="788,2175 788,2175 780,2167 780,2163 788,2159 795,2159 795,2167 791,2175 "/>
   <polygon fill="#9538A3" points="1183,2167 1179,2159 1190,2159 1187,2159 1187,2159 1183,2163 "/>
   <polygon fill="#9538A3" points="1187,2159 1187,2159 1190,2159 1190,2159 1194,2159 1190,2159 "/>
   <path fill="#9538A3" d="M1102 2386l-4 0 -4 -4 0 -8 4 -8c0,0 0,0 0,0l81 -191 0 0 8 0 7 3 0 0 0 0 -80 196c0,0 0,0 0,0l-4 8 -8 4 0 0 0 0z"/>
   <polygon fill="#9538A3" points="1187,2175 1179,2175 1183,2167 1183,2171 1183,2171 1187,2171 "/>
   <polygon fill="#9538A3" points="1194,2178 1187,2175 1190,2175 1194,2175 1198,2171 "/>
   <polygon fill="#9538A3" points="1190,2175 1187,2175 1187,2171 1183,2171 "/>
   <polygon fill="#9538A3" points="1183,2171 1183,2171 1183,2167 1183,2163 1187,2159 1183,2163 "/>
   <polygon fill="#9538A3" points="1190,2175 1190,2175 1198,2171 1198,2167 1198,2171 1198,2171 1194,2175 "/>
   <polygon fill="#9538A3" points="1190,2175 1190,2175 1183,2171 1183,2163 1187,2159 1190,2159 1194,2159 1198,2163 1198,2167 1198,2171 "/>
   <path fill="#9538A3" d="M2460 1476c0,0 0,0 0,0l0 0 -3 -3 -277 -281 0 0 261 265c0,-119 -23,-234 -69,-341l8 -4 4 -12c0,0 0,0 0,0l0 0c50,119 76,246 76,373l0 3 0 0 0 0 0 0zm-287 -295l0 0 195 -81c0,0 0,0 0,0l-195 81 0 0 0 0z"/>
   <path fill="#9538A3" d="M2169 1749l0 0 272 -273 -272 -272 0 0 272 272 -272 273 0 0 0 0zm-65 -115l-58 -138 0 0 58 138zm-58 -177l0 0 107 -261 0 0 -107 261 0 0z"/>
   <polygon fill="#9538A3" points="2460,1476 2453,1469 2445,1473 2441,1476 2169,1204 2173,1196 2180,1192 2457,1473 "/>
   <path fill="#9538A3" d="M1758 2155l0 0 108 -260 0 0 -108 260 0 0zm138 -287l0 0 257 -112 0 0 -257 112z"/>
   <line fill="#9538A3" x1="1758" y1="2155" x2="1758" y2= "2155" />
   <path fill="#9538A3" d="M1885 1887l0 0 272 -111 0 0 -272 111 0 0zm-12 -12l165 -399 0 0 -165 399 0 0 0 0 0 0zm280 -119l-49 -122 49 122 0 0zm16 -7l-111 -273 0 0 111 273 0 0z"/>
   <polygon fill="#9538A3" points="2153,1756 2104,1634 2046,1496 2054,1480 2058,1476 2169,1749 2169,1749 2169,1749 2161,1756 "/>
   <polygon fill="#9538A3" points="1885,1887 1889,1883 1896,1868 2153,1756 2153,1756 2153,1756 2157,1764 2157,1776 2157,1776 "/>
   <polygon fill="#9538A3" points="2157,1764 2153,1756 2161,1756 2161,1756 2157,1760 "/>
   <path fill="#9538A3" d="M1850 2386l0 0 8 -4 0 -8 -4 -8 8 -3c107,-46 199,-108 284,-188l-372 0 391 0 8 -4c-89,88 -192,157 -304,207l-19 8 0 0 0 0zm-11 -12l-81 -196 0 0 81 196 0 0z"/>
   <polygon fill="#9538A3" points="1850,2386 1846,2386 1843,2382 1839,2374 1839,2374 1758,2178 1758,2178 1758,2178 1766,2175 1774,2175 1774,2175 1854,2366 1854,2366 1858,2374 1858,2382 "/>
   <polygon fill="#9538A3" points="1758,2178 1754,2171 1758,2175 1762,2175 1762,2175 1766,2175 "/>
   <polygon fill="#9538A3" points="2165,2175 1774,2175 1770,2167 1774,2159 2157,2159 2157,2167 2161,2175 "/>
   <polygon fill="#9538A3" points="1774,2175 1766,2175 1766,2171 1766,2171 1770,2171 1770,2167 "/>
   <polygon fill="#9538A3" points="1766,2175 1762,2175 1762,2175 1762,2175 1762,2175 1766,2171 1766,2171 "/>
   <path fill="#9538A3" d="M1747 2171l-273 -115 0 0 273 115 0 0 0 0zm-273 -131l0 0 399 -165 0 0 -399 165 0 0 0 0z"/>
   <polygon fill="#9538A3" points="1747,2171 1747,2171 1747,2167 1474,2056 1478,2056 1497,2048 1758,2155 1754,2163 "/>
   <path fill="#9538A3" d="M1474 2056l0 0 0 0 0 0 0 0zm0 -16l0 0 0 0 0 0z"/>
   <polygon fill="#9538A3" points="1474,2056 1474,2056 1474,2056 1474,2056 1474,2056 1478,2056 "/>
   <polygon fill="#9538A3" points="1754,2171 1747,2171 1754,2163 1754,2163 1754,2167 "/>
   <polygon fill="#9538A3" points="1774,2159 1774,2159 1885,1887 1885,1887 "/>
   <polygon fill="#9538A3" points="1774,2159 1762,2159 1758,2155 1866,1895 1881,1887 1885,1887 "/>
   <polygon fill="#9538A3" points="1754,2163 1758,2155 1758,2155 1758,2155 1762,2159 1762,2159 1758,2159 1754,2159 "/>
   <polygon fill="#9538A3" points="1754,2167 1754,2163 1754,2163 1754,2159 1758,2159 1754,2163 "/>
   <path fill="#9538A3" d="M1885 1887l0 0 0 0 0 0 0 0 0 0zm-12 -12l0 0 0 0 0 0 0 0 0 0 0 0z"/>
   <polygon fill="#9538A3" points="1881,1887 1889,1883 1885,1887 1885,1887 1885,1887 "/>
   <polygon fill="#9538A3" points="1762,2175 1758,2175 1754,2171 1754,2171 1754,2167 1754,2171 "/>
   <polygon fill="#9538A3" points="1770,2167 1770,2163 1766,2159 1766,2159 1762,2159 1774,2159 "/>
   <polygon fill="#9538A3" points="1766,2159 1762,2159 1758,2159 1762,2159 1762,2159 "/>
   <polygon fill="#9538A3" points="1766,2171 1770,2163 1766,2159 1770,2163 1770,2167 1770,2171 "/>
   <polygon fill="#9538A3" points="1762,2175 1762,2175 1762,2175 1754,2171 1754,2167 1754,2163 1758,2159 1762,2159 1766,2159 1770,2163 1766,2171 "/>
   <path fill="#9538A3" d="M2173 2171l0 0 0 -4 0 0 0 -391 0 372c84,-88 149,-184 195,-296l4 4 4 0 8 -4c-50,119 -119,227 -211,319l0 0 0 0 0 0zm199 -330l-192 -81 192 81c0,0 0,0 0,0z"/>
   <polygon fill="#9538A3" points="2173,2167 2173,2163 2165,2159 2157,2159 2157,1776 2165,1772 2173,1776 "/>
   <polygon fill="#9538A3" points="2157,1776 2157,1764 2157,1764 2161,1768 2161,1768 2165,1772 "/>
   <polygon fill="#9538A3" points="2161,1768 2157,1764 2157,1764 2157,1764 2157,1760 2157,1764 "/>
   <polygon fill="#9538A3" points="2165,2175 2165,2175 2173,2167 2173,2171 "/>
   <polygon fill="#9538A3" points="2165,2175 2165,2175 2161,2175 2157,2167 2157,2159 2165,2159 2173,2163 2173,2167 "/>
   <path fill="#9538A3" d="M2368 1852l-195 -76 0 0 195 76c0,0 0,0 0,0zm16 0l0 0 0 -3 -4 -8 -8 0c46,-111 69,-227 69,-345l-261 264 0 0 277 -276 3 -8 0 0c0,131 -26,257 -76,376l0 0 0 0 0 0z"/>
   <path fill="#9538A3" d="M2460 1476l0 0c0,0 0,0 0,0l0 0 0 0z"/>
   <polygon fill="#9538A3" points="2180,1760 2173,1756 2169,1749 2441,1476 2445,1484 2453,1484 2453,1484 2453,1484 2460,1476 2457,1484 "/>
   <polygon fill="#9538A3" points="2453,1484 2453,1484 2453,1484 2445,1484 2441,1476 2445,1473 2453,1469 2460,1476 2460,1476 "/>
   <polygon fill="#9538A3" points="2173,1756 2169,1756 2165,1756 2161,1756 2161,1756 2169,1749 "/>
   <polygon fill="#9538A3" points="2157,1760 2161,1756 2161,1756 2161,1756 2165,1756 2161,1756 "/>
   <path fill="#9538A3" d="M2376 1856l0 0 -8 -4c0,0 0,0 0,0l-195 -76 0 0 0 -12 7 -4 0 0 0 0 192 81c0,0 0,0 0,0l8 0 4 8 0 3 -8 4 0 0 0 0z"/>
   <polygon fill="#9538A3" points="2173,1764 2173,1764 2173,1760 2173,1760 2173,1756 2180,1760 "/>
   <polygon fill="#9538A3" points="2173,1776 2165,1772 2169,1768 2169,1768 2173,1768 2173,1764 "/>
   <polygon fill="#9538A3" points="2169,1768 2173,1760 2173,1764 2173,1764 2173,1768 "/>
   <polygon fill="#9538A3" points="2173,1760 2169,1756 2165,1756 2169,1756 2173,1756 "/>
   <polygon fill="#9538A3" points="2165,1772 2161,1768 2161,1768 2165,1772 2165,1772 2169,1768 2169,1768 "/>
   <polygon fill="#9538A3" points="2165,1772 2165,1772 2161,1768 2157,1764 2157,1760 2161,1756 2165,1756 2169,1756 2173,1760 2169,1768 "/>
   <path fill="#9538A3" d="M584 1852c0,0 0,0 0,0l196 -76 0 0 -196 76 0 0 0 0zm-15 0l0 0c-50,-119 -77,-245 -77,-376l4 4 0 4 276 276 0 0 -265 -264c4,118 27,234 73,345l-7 0 -4 11 0 0 0 0z"/>
   <path fill="#9538A3" d="M577 1856l-8 -4 4 -11 7 0c0,0 0,0 0,0l192 -81 0 0 0 0 8 4 0 12 0 0 -196 76c0,0 0,0 0,0l-7 4 0 0 0 0 0 0z"/>
   <polygon fill="#9538A3" points="780,1776 780,1764 780,1768 784,1772 788,1772 "/>
   <path fill="#9538A3" d="M795 1756l0 0 111 -257 -111 257 0 0zm-11 -7l-273 -273 273 -272 0 0 -273 272 273 273 88 -215 -88 215 0 0 0 0zm122 -292l-103 -249 103 249z"/>
   <polygon fill="#9538A3" points="772,1760 496,1484 496,1480 500,1484 500,1484 507,1484 511,1476 784,1749 780,1756 "/>
   <polygon fill="#9538A3" points="780,1764 772,1760 780,1756 780,1760 780,1760 "/>
   <polygon fill="#9538A3" points="780,1768 780,1764 780,1764 780,1764 780,1764 "/>
   <path fill="#9538A3" d="M795 1196l0 0 261 -107 0 0 -261 107 0 0 0 0zm292 -138l107 -261 0 0 -107 261 0 0z"/>
   <path fill="#9538A3" d="M1068 1887l-273 -111 0 0 273 111 0 0 0 0 0 0zm11 -12l0 0 -165 -399 0 0 165 399 0 0 0 0zm-134 -57l-150 -62 0 0 150 62 0 0 0 0z"/>
   <polygon fill="#9538A3" points="1068,1887 795,1776 795,1776 795,1764 795,1756 945,1818 1056,1868 1064,1883 "/>
   <polygon fill="#9538A3" points="795,1776 788,1772 791,1768 791,1768 795,1764 795,1764 "/>
   <path fill="#9538A3" d="M1068 1887l0 0 0 0 0 0 0 0 0 0 0 0zm11 -12l0 0 0 0 0 0 0 0 0 0 0 0z"/>
   <polygon fill="#9538A3" points="1068,1887 1068,1887 1068,1887 1068,1887 1064,1883 "/>
   <polygon fill="#9538A3" points="872,1534 895,1476 895,1476 "/>
   <polygon fill="#9538A3" points="788,1772 784,1772 780,1768 788,1772 788,1772 791,1768 791,1768 "/>
   <polygon fill="#9538A3" points="795,1756 791,1756 784,1749 872,1534 895,1476 899,1480 906,1499 "/>
   <polygon fill="#9538A3" points="795,1764 795,1764 791,1760 791,1756 791,1756 795,1756 "/>
   <polygon fill="#9538A3" points="791,1768 795,1764 791,1760 795,1764 795,1764 795,1764 "/>
   <polygon fill="#9538A3" points="780,1756 784,1749 791,1756 791,1756 788,1756 784,1756 "/>
   <polygon fill="#9538A3" points="780,1764 780,1760 780,1760 780,1756 784,1756 788,1756 784,1756 "/>
   <polygon fill="#9538A3" points="791,1760 791,1756 788,1756 791,1756 791,1756 791,1756 "/>
   <polygon fill="#9538A3" points="788,1772 780,1768 780,1764 780,1764 784,1756 788,1756 791,1756 791,1760 795,1764 791,1768 "/>
   <path fill="#9538A3" d="M895 1476l-111 -272 0 0 111 272 0 0 0 0zm19 0l0 0 165 -399 0 0 -165 399 0 0zm-111 -268l-8 -12 8 12zm-8 -27l0 0 273 -115 0 0 -273 115 0 0 0 0z"/>
   <polygon fill="#9538A3" points="895,1476 784,1204 784,1204 784,1204 791,1196 795,1196 803,1208 906,1457 899,1473 "/>
   <polygon fill="#9538A3" points="795,1196 795,1189 795,1181 1068,1066 1064,1070 1056,1089 "/>
   <polygon fill="#9538A3" points="791,1196 791,1196 791,1192 795,1192 795,1189 795,1196 "/>
   <path fill="#9538A3" d="M914 1476l0 0 0 0 0 0 0 0zm-19 0l0 0 0 0 0 0 0 0z"/>
   <polygon fill="#9538A3" points="899,1480 899,1480 895,1476 895,1476 895,1476 899,1473 "/>
   <path fill="#9538A3" d="M780 782l0 0c88,-88 192,-157 303,-207l15 -8 0 0 0 0 -4 12 4 7 -7 4c-108,46 -204,111 -284,188l-19 0 -4 4 -4 0 0 0 0 0zm414 -8l-80 -195 0 0 80 195 0 0 0 0z"/>
   <polygon fill="#9538A3" points="1179,793 795,793 795,786 791,778 784,782 788,778 807,778 1179,778 1183,786 "/>
   <path fill="#9538A3" d="M772 1192l-192 -76c0,0 0,0 0,0l192 76 0 0 0 0zm-203 -92l0 0c50,-119 119,-226 211,-318l0 4 0 0 0 19c-85,88 -150,184 -196,295l-7 -3 -8 3 0 0 0 0z"/>
   <polygon fill="#9538A3" points="788,1181 780,1181 780,805 780,786 780,786 780,790 788,793 795,793 795,1181 "/>
   <polygon fill="#9538A3" points="795,1189 795,1189 791,1185 791,1185 788,1181 795,1181 795,1181 "/>
   <polygon fill="#9538A3" points="791,1192 795,1189 791,1185 795,1189 795,1189 795,1192 "/>
   <polygon fill="#9538A3" points="780,786 780,782 784,782 "/>
   <polygon fill="#9538A3" points="795,793 788,793 780,790 780,786 784,782 791,778 795,786 "/>
   <path fill="#9538A3" d="M492 1476c0,-130 27,-257 77,-376l0 8 4 4 7 4c-46,107 -69,222 -73,341l265 -265 0 0 -276 281 0 0 -4 3 0 0 0 0zm288 -295l-196 -81c0,0 0,0 0,0l196 81 0 0 0 0z"/>
   <polygon fill="#9538A3" points="496,1480 492,1476 496,1473 "/>
   <polygon fill="#9538A3" points="511,1476 507,1473 500,1469 496,1473 496,1473 772,1192 780,1196 784,1204 "/>
   <polygon fill="#9538A3" points="500,1484 500,1484 496,1480 496,1473 500,1469 507,1473 511,1476 507,1484 "/>
   <polygon fill="#9538A3" points="784,1204 780,1196 784,1200 788,1200 791,1200 791,1196 "/>
   <polygon fill="#9538A3" points="788,1200 791,1196 791,1192 791,1196 791,1196 791,1200 "/>
   <path fill="#9538A3" d="M772 1192l0 0 0 0 -192 -76c0,0 0,0 0,0l-7 -4 -4 -4 0 -8 8 -3 7 3c0,0 0,0 0,0l196 81 0 8 -8 3 0 0 0 0z"/>
   <polygon fill="#9538A3" points="780,1196 772,1192 780,1189 780,1192 780,1192 780,1192 "/>
   <polygon fill="#9538A3" points="780,1189 780,1181 780,1181 788,1181 784,1185 784,1185 780,1185 "/>
   <polygon fill="#9538A3" points="780,1192 780,1192 780,1189 780,1185 784,1185 "/>
   <polygon fill="#9538A3" points="788,1200 784,1200 780,1196 780,1192 780,1192 784,1196 "/>
   <polygon fill="#9538A3" points="791,1185 788,1185 784,1185 784,1185 788,1181 "/>
   <polygon fill="#9538A3" points="788,1200 784,1196 780,1192 784,1185 788,1185 791,1185 795,1189 791,1192 791,1196 "/>
   <path fill="#9538A3" d="M2180 1192l0 0 192 -76c0,0 0,0 0,0l-192 76 0 0 0 0zm204 -92l-12 -3 -4 3c-46,-111 -111,-207 -195,-295l0 -19 0 0 0 -4c92,92 161,199 211,318l0 0 0 0z"/>
   <path fill="#9538A3" d="M2180 1192l-7 -3 0 -8 195 -81c0,0 0,0 0,0l4 -3 12 3c0,0 0,0 0,0l-4 12 -8 4c0,0 0,0 0,-4l-192 80 0 0 0 0 0 0 0 0z"/>
   <polygon fill="#9538A3" points="2173,1196 2173,1196 2173,1192 2173,1192 2173,1189 2180,1192 "/>
   <path fill="#9538A3" d="M2153 1196l-257 -107 0 0 257 107 0 0zm-287 -138l0 0 -108 -261 0 0 108 261 0 0 0 0z"/>
   <line fill="#9538A3" x1="2153" y1="1196" x2="2153" y2= "1196" />
   <polygon fill="#9538A3" points="2165,1181 2157,1181 2157,793 2165,793 2173,790 2173,786 2173,786 2173,805 2173,1181 "/>
   <polygon fill="#9538A3" points="2173,1189 2173,1185 2169,1185 2169,1185 2165,1181 2173,1181 2173,1181 "/>
   <polygon fill="#9538A3" points="2173,1192 2173,1189 2173,1185 2169,1185 2173,1185 2173,1189 "/>
   <path fill="#9538A3" d="M1497 905l0 0 242 -100 -242 100 0 0 0 0zm-42 0l-261 -108 0 0 261 108 0 0 0 0zm-249 -119l0 0 268 -273 273 273 0 0 -273 -273 -268 273 0 0 0 0z"/>
   <line fill="none" x1="1194" y1="797" x2="1194" y2= "797" />
   <path fill="#9538A3" d="M2038 1476l-165 -399 0 0 165 399 0 0 0 0 0 0zm20 0l0 0 111 -272 0 0 -111 272z"/>
   <polygon fill="#9538A3" points="2058,1476 2054,1473 2046,1457 2153,1196 2161,1196 2169,1204 2169,1204 2169,1204 "/>
   <polygon fill="#9538A3" points="2169,1204 2161,1196 2161,1200 2165,1200 2169,1200 2173,1196 "/>
   <path fill="#9538A3" d="M2038 1476l0 0 0 0 0 0 0 0zm20 0l0 0 0 0 0 0 0 0z"/>
   <polygon fill="#9538A3" points="2054,1480 2054,1473 2058,1476 2058,1476 2058,1476 "/>
   <polygon fill="#9538A3" points="2157,1181 1885,1066 1885,1066 "/>
   <polygon fill="#9538A3" points="2165,1200 2169,1196 2173,1192 2173,1196 2173,1196 2169,1200 "/>
   <polygon fill="#9538A3" points="2153,1196 1896,1089 1889,1070 1885,1066 2157,1181 2157,1189 "/>
   <polygon fill="#9538A3" points="2161,1196 2153,1196 2153,1196 2153,1196 2157,1189 2157,1192 2157,1192 "/>
   <polygon fill="#9538A3" points="2165,1200 2161,1200 2161,1196 2161,1196 2157,1192 2161,1196 "/>
   <polygon fill="#9538A3" points="2157,1189 2157,1181 2157,1181 2165,1181 2161,1185 2161,1185 "/>
   <polygon fill="#9538A3" points="2161,1185 2161,1185 2165,1181 2169,1185 2169,1185 2165,1185 "/>
   <polygon fill="#9538A3" points="2157,1192 2157,1192 2157,1189 2157,1189 2161,1185 2157,1189 "/>
   <polygon fill="#9538A3" points="2165,1200 2161,1196 2157,1192 2157,1189 2161,1185 2165,1185 2169,1185 2173,1185 2173,1189 2173,1192 2169,1196 "/>
   <path fill="#9538A3" d="M1873 1077l-399 -165 399 165 0 0 0 0 0 0zm12 -11l0 0 -111 -273 0 0 111 273 0 0 0 0zm-411 -169l0 0 273 -111 0 0 -273 111 0 0 0 0zm265 -92l19 -8 -19 8z"/>
   <polygon fill="#9538A3" points="1885,1066 1881,1066 1866,1058 1758,797 1758,797 1762,793 1774,793 "/>
   <polygon fill="#9538A3" points="1497,905 1478,897 1474,897 1747,786 1747,786 1747,786 1754,793 1758,797 1739,805 "/>
   <polygon fill="#9538A3" points="1758,797 1754,793 1754,793 1762,793 1762,793 "/>
   <path fill="#9538A3" d="M1873 1077l0 0 0 0 0 0 0 0 0 0 0 0zm12 -11l0 0 0 0 0 0 0 0 0 0z"/>
   <polygon fill="#9538A3" points="1889,1070 1881,1066 1885,1066 1885,1066 1885,1066 "/>
   <path fill="#9538A3" d="M1179 778l0 0 -81 -192 0 0 81 192 0 0zm15 -4l0 0 261 -265c-115,4 -226,23 -334,66l-7 4 -4 -4 -12 -8 20 -4c115,-46 234,-69 356,-69l0 0 0 0 -4 0 -276 280 0 0z"/>
   <polygon fill="#9538A3" points="1187,778 1179,778 1098,586 1098,586 1094,579 1098,567 1098,567 1110,575 1114,579 1114,579 1194,774 1194,774 1194,774 "/>
   <polygon fill="#9538A3" points="1183,786 1179,778 1179,778 1187,778 1187,782 1183,782 1183,782 "/>
   <polygon fill="#9538A3" points="1206,786 1198,782 1194,774 1470,494 1470,494 1467,498 1470,506 1474,513 "/>
   <polygon fill="#9538A3" points="1198,782 1194,782 1194,782 1190,778 1187,778 1194,774 "/>
   <polygon fill="#9538A3" points="1183,782 1187,782 1187,778 1190,778 1194,782 "/>
   <path fill="#9538A3" d="M1079 1077l0 0 395 -165 0 0 -395 165 0 0 0 0zm-11 -11l111 -273 0 0 -111 273 0 0 0 0z"/>
   <polygon fill="#9538A3" points="1068,1066 1179,793 1187,793 1194,797 1087,1058 "/>
   <path fill="#9538A3" d="M1079 1077l0 0 0 0 0 0 0 0 0 0 0 0zm-11 -11l0 0 0 0 0 0 0 0 0 0z"/>
   <polygon fill="#9538A3" points="1064,1070 1064,1070 1068,1066 1068,1066 1068,1066 1068,1066 "/>
   <polygon fill="#9538A3" points="1187,793 1179,793 1179,793 1183,786 1183,790 "/>
   <polygon fill="#9538A3" points="1474,897 1206,786 "/>
   <polygon fill="#9538A3" points="1455,905 1194,797 1198,790 1206,786 1206,786 1474,897 1474,897 "/>
   <polygon fill="#9538A3" points="1194,797 1187,793 1190,793 1190,793 1190,793 1190,793 1190,793 1194,793 1198,790 "/>
   <path fill="#9538A3" d="M1190 793l0 0 0 0 0 0 0 0 0 0 0 0 0 0zm0 0l-3 0 0 0 0 0 3 0 0 0 0 0 0 0z"/>
   <path fill="#9538A3" d="M1474 912l0 0 0 0 0 0zm0 -15l0 0 0 0 0 0 0 0z"/>
   <polygon fill="#9538A3" points="1478,897 1478,897 1474,897 1474,897 1474,897 1474,897 "/>
   <polygon fill="#9538A3" points="1187,793 1183,790 1183,786 1183,786 1183,782 1183,782 1183,790 "/>
   <polygon fill="#9538A3" points="1198,790 1198,790 1198,790 1198,786 1198,782 1198,782 1206,786 "/>
   <polygon fill="#9538A3" points="1190,793 1198,790 1198,790 1198,790 1194,793 "/>
   <polygon fill="#9538A3" points="1198,790 1198,782 1194,782 1194,782 1198,782 1198,782 1198,786 "/>
   <polygon fill="#9538A3" points="1190,793 1190,793 1190,793 1187,793 1183,790 1183,782 1194,782 1198,782 1198,790 "/>
   <path fill="#9538A3" d="M1497 2048l0 0 369 -153 0 0 -369 153 0 0 0 0zm-42 0l-368 -153 0 0 368 153 0 0 0 0zm441 -180l150 -372 0 0 -150 372 0 0 0 0zm-840 -4l0 0 -150 -368 150 368zm-150 -407l0 0 150 -368 0 0 -150 368zm1140 0l-150 -368 0 0 150 368 0 0 0 0 0 0zm-180 -399l-369 -153 0 0 369 153 0 0 0 0 0 0zm-779 0l0 0 368 -153 0 0 -368 153 0 0z"/>
   <path fill="#9538A3" d="M1087 1895l0 0 0 0 0 0 0 0 0 0 0 0zm-31 -27l0 0 0 0 0 0 0 0z"/>
   <path fill="#9538A3" d="M1497 2048l0 0 0 0 0 0 0 0zm-42 0l0 0 0 0 0 0 0 0z"/>
   <polygon fill="#9538A3" points="1455,2048 1087,1895 1079,1879 1079,1879 1079,1875 1079,1875 1474,2040 1474,2040 "/>
   <polygon fill="#9538A3" points="1087,1895 1068,1887 1071,1887 1071,1887 1071,1887 1079,1879 1079,1879 1079,1879 "/>
   <polygon fill="#9538A3" points="1474,2056 1474,2056 1455,2048 1455,2048 1455,2048 1474,2040 1467,2048 "/>
   <path fill="#9538A3" d="M2046 1496l0 0 0 0 0 0 0 0zm0 -39l0 0 0 0 0 0 0 0z"/>
   <path fill="#9538A3" d="M1866 1895l0 0 0 0 0 0 0 0zm30 -27l0 0 0 0 0 0 0 0z"/>
   <polygon fill="#9538A3" points="1873,1875 2038,1476 2038,1480 2046,1496 1896,1868 1877,1872 "/>
   <polygon fill="#9538A3" points="2046,1496 2038,1480 2046,1484 2054,1480 "/>
   <polygon fill="#9538A3" points="1889,1883 1889,1883 1885,1875 1877,1872 1896,1868 1896,1868 1896,1868 "/>
   <polygon fill="#9538A3" points="1497,2048 1478,2040 1474,2040 1873,1875 1873,1879 1866,1895 "/>
   <polygon fill="#9538A3" points="1478,2056 1478,2056 1486,2048 1478,2040 1497,2048 1497,2048 1497,2048 "/>
   <polygon fill="#9538A3" points="1478,2040 1474,2040 1474,2040 1474,2040 1474,2040 "/>
   <polygon fill="#9538A3" points="1474,2056 1474,2056 1467,2048 1474,2040 1478,2040 1486,2048 1478,2056 "/>
   <polygon fill="#9538A3" points="1866,1895 1866,1895 1866,1895 1873,1879 1873,1887 1881,1887 1881,1887 "/>
   <polygon fill="#9538A3" points="1873,1879 1873,1875 1873,1875 1873,1875 1877,1872 "/>
   <polygon fill="#9538A3" points="1881,1887 1873,1887 1873,1879 1877,1872 1885,1875 1889,1883 "/>
   <path fill="#9538A3" d="M906 1499l0 0 0 0 0 0zm0 -42l0 0 0 0z"/>
   <path fill="#9538A3" d="M1056 1089l0 0 0 0 0 0 0 0zm31 -31l0 0 0 0 0 0 0 0z"/>
   <polygon fill="#9538A3" points="1079,1875 1075,1872 1056,1868 906,1499 910,1480 914,1476 "/>
   <polygon fill="#9538A3" points="1064,1883 1064,1883 1056,1868 1056,1868 1056,1868 1075,1872 1068,1875 "/>
   <polygon fill="#9538A3" points="1079,1879 1075,1872 1079,1875 1079,1875 1079,1875 1079,1875 "/>
   <polygon fill="#9538A3" points="1071,1887 1071,1887 1071,1887 1068,1887 1064,1883 1068,1875 1075,1872 1079,1879 1079,1879 "/>
   <polygon fill="#9538A3" points="906,1499 899,1480 906,1484 910,1480 "/>
   <polygon fill="#9538A3" points="914,1476 910,1473 906,1457 1056,1089 1075,1081 1079,1077 "/>
   <polygon fill="#9538A3" points="910,1473 899,1473 906,1457 906,1457 "/>
   <polygon fill="#9538A3" points="1056,1089 1056,1089 1056,1089 1064,1070 1068,1077 1071,1081 1075,1081 "/>
   <polygon fill="#9538A3" points="910,1480 910,1480 910,1473 914,1476 914,1476 914,1476 "/>
   <polygon fill="#9538A3" points="906,1484 899,1480 899,1473 910,1473 910,1480 "/>
   <path fill="#9538A3" d="M1896 1089l0 0 0 0 0 0 0 0zm-30 -31l0 0 0 0 0 0 0 0z"/>
   <path fill="#9538A3" d="M1497 905l0 0 0 0 0 0 0 0zm-42 0l0 0 0 0 0 0 0 0z"/>
   <polygon fill="#9538A3" points="2038,1476 1873,1077 1877,1081 1896,1089 2046,1457 2038,1473 "/>
   <polygon fill="#9538A3" points="2054,1473 2038,1473 2046,1457 2046,1457 2046,1457 "/>
   <polygon fill="#9538A3" points="2038,1480 2038,1480 2038,1476 2038,1476 2038,1476 2038,1473 "/>
   <polygon fill="#9538A3" points="2046,1484 2038,1480 2038,1473 2054,1473 2054,1480 "/>
   <polygon fill="#9538A3" points="1896,1089 1877,1081 1881,1081 1885,1077 1889,1070 "/>
   <polygon fill="#9538A3" points="1873,1077 1474,912 1478,912 1497,905 1866,1058 "/>
   <polygon fill="#9538A3" points="1873,1077 1873,1077 1866,1058 1866,1058 1866,1058 1881,1066 1873,1066 "/>
   <polygon fill="#9538A3" points="1478,912 1482,905 1478,897 1497,905 1497,905 1497,905 "/>
   <polygon fill="#9538A3" points="1877,1081 1877,1081 1873,1077 1873,1077 1873,1077 1873,1077 "/>
   <polygon fill="#9538A3" points="1881,1081 1877,1081 1873,1077 1873,1066 1881,1066 1889,1070 1885,1077 "/>
   <polygon fill="#9538A3" points="1079,1077 1079,1077 1087,1058 1455,905 1474,912 1474,912 "/>
   <polygon fill="#9538A3" points="1079,1077 1079,1066 1068,1066 1087,1058 1087,1058 1087,1058 "/>
   <polygon fill="#9538A3" points="1075,1081 1075,1081 1079,1077 1079,1077 1079,1077 1079,1077 "/>
   <polygon fill="#9538A3" points="1071,1081 1068,1077 1064,1070 1068,1066 1079,1066 1079,1077 1075,1081 "/>
   <polygon fill="#9538A3" points="1474,912 1455,905 1455,905 1455,905 1474,897 1467,905 "/>
   <polygon fill="#9538A3" points="1474,912 1474,912 1474,912 1474,912 1478,912 "/>
   <polygon fill="#9538A3" points="1474,912 1474,912 1467,905 1474,897 1478,897 1482,905 1478,912 "/>
   <path fill="#9538A3" d="M1758 774l-276 -280 -4 0 -4 0c131,0 257,23 376,73l0 0 -7 4 -4 8c-111,-43 -227,-66 -345,-70l264 265 0 0 0 0 0 0z"/>
   <polygon fill="#9538A3" points="1747,786 1474,513 1482,506 1482,498 1478,494 1482,494 1758,774 1754,782 "/>
   <polygon fill="#9538A3" points="1754,793 1747,786 1754,782 1754,786 1754,786 1754,790 "/>
   <polygon fill="#9538A3" points="1762,793 1754,793 1754,793 1754,790 1754,786 1754,793 "/>
   <polygon fill="#9538A3" points="1478,494 1470,494 1474,494 "/>
   <polygon fill="#9538A3" points="1474,513 1470,506 1467,498 1470,494 1478,494 1482,498 1482,506 "/>
   <path fill="#9538A3" d="M1774 778l0 0 80 -192c0,0 0,0 0,0l-80 192 0 0z"/>
   <path fill="#9538A3" d="M2173 782l-4 0 -4 -4 -19 0c-85,-81 -184,-146 -292,-192l4 -7 0 -8 -8 -4c123,50 231,123 323,215l0 0 0 0z"/>
   <polygon fill="#9538A3" points="2173,786 2169,782 2173,782 "/>
   <polygon fill="#9538A3" points="2157,793 1774,793 1770,786 1774,778 2146,778 2165,778 2169,782 2161,778 2157,786 "/>
   <polygon fill="#9538A3" points="2165,793 2157,793 2157,786 2161,778 2169,782 2173,786 2173,790 "/>
   <polygon fill="#9538A3" points="1774,793 1774,793 1762,793 1766,793 1766,793 1770,790 1770,786 "/>
   <polygon fill="#9538A3" points="1762,793 1762,793 1762,793 1766,793 1766,793 "/>
   <path fill="#9538A3" d="M1758 774l0 0 81 -195c0,0 0,0 0,0l-81 195z"/>
   <path fill="#9538A3" d="M1774 778l-8 0 -8 -4 0 0 0 0 81 -195c0,0 0,0 0,0l4 -8 11 -4 4 4 0 8 -4 7c0,0 0,0 0,0l-80 192 0 0 0 0z"/>
   <polygon fill="#9538A3" points="1770,786 1770,786 1770,782 1766,782 1766,778 1774,778 1774,778 "/>
   <polygon fill="#9538A3" points="1754,782 1758,774 1766,778 1762,778 1758,782 1758,778 "/>
   <polygon fill="#9538A3" points="1770,782 1758,782 1762,778 1766,778 1766,782 "/>
   <polygon fill="#9538A3" points="1766,793 1770,790 1770,782 1770,786 1770,786 1770,790 "/>
   <polygon fill="#9538A3" points="1754,786 1754,786 1754,782 1758,778 1758,782 1754,782 "/>
   <polygon fill="#9538A3" points="1762,793 1762,793 1754,793 1754,786 1754,782 1758,782 1770,782 1770,790 1766,793 "/>
  </g>
 </g>
</svg>
