<?xml version="1.0" encoding="UTF-8"?>
<!DOCTYPE svg PUBLIC "-//W3C//DTD SVG 1.1//EN" "http://www.w3.org/Graphics/SVG/1.1/DTD/svg11.dtd">
<!-- Creator: CorelDRAW X7 -->
<svg xmlns="http://www.w3.org/2000/svg" xml:space="preserve" width="90px" height="30px" version="1.1" style="shape-rendering:geometricPrecision; text-rendering:geometricPrecision; image-rendering:optimizeQuality; fill-rule:evenodd; clip-rule:evenodd"
viewBox="0 0 723593 241198"
 xmlns:xlink="http://www.w3.org/1999/xlink">
 <defs>
  <style type="text/css">
   <![CDATA[
    .str0 {stroke:#666666;stroke-width:1604.82}
    .fil0 {fill:none}
    .fil1 {fill:#666666}
   ]]>
  </style>
 </defs>
 <g id="Layer_x0020_1">
  <metadata id="CorelCorpID_0Corel-Layer"/>
  <rect class="fil0" x="2" width="723593" height="241198"/>
  <g id="_1022752272">
   <path class="fil0 str0" d="M696834 35847c0,0 -2488,5470 1918,6220 4406,741 7112,-3637 5840,-10132 -1273,-6495 -5033,-20350 4339,-20768 0,0 11234,143 3514,17416 0,0 -1700,4036 1054,5441"/>
   <path class="fil0 str0" d="M26760 205360c0,0 2488,-5470 -1919,-6220 -4406,-741 -7112,3637 -5840,10132 1273,6496 5033,20350 -4339,20768 0,0 -11234,-142 -3514,-17416 0,0 1700,-4035 -1054,-5441"/>
   <circle class="fil1 str0" transform="matrix(0.774391 0.178492 -0.178492 0.774391 694049 46718.4)" r="9107"/>
   <circle class="fil1 str0" transform="matrix(-0.774391 -0.178492 0.178492 -0.774391 29543.8 194489)" r="9107"/>
   <ellipse class="fil0 str0" cx="616069" cy="130270" rx="13886" ry="13794"/>
   <ellipse class="fil0 str0" cx="602263" cy="145907" rx="13886" ry="13794"/>
   <ellipse class="fil0 str0" cx="588347" cy="161159" rx="13886" ry="13794"/>
   <ellipse class="fil0 str0" cx="573611" cy="174020" rx="13886" ry="13794"/>
   <ellipse class="fil0 str0" cx="555151" cy="185031" rx="13886" ry="13794"/>
   <ellipse class="fil0 str0" cx="536403" cy="193395" rx="13886" ry="13794"/>
   <ellipse class="fil0 str0" cx="516283" cy="199148" rx="13886" ry="13794"/>
   <ellipse class="fil0 str0" cx="496171" cy="200521" rx="13886" ry="13794"/>
   <ellipse class="fil0 str0" cx="475036" cy="196976" rx="13886" ry="13794"/>
   <ellipse class="fil0 str0" cx="455966" cy="190353" rx="13886" ry="13794"/>
   <ellipse class="fil0 str0" cx="437030" cy="182635" rx="13886" ry="13794"/>
   <ellipse class="fil0 str0" cx="418085" cy="172270" rx="13886" ry="13794"/>
   <ellipse class="fil0 str0" cx="402900" cy="161500" rx="13886" ry="13794"/>
   <ellipse class="fil0 str0" cx="386307" cy="148514" rx="13886" ry="13794"/>
   <ellipse class="fil0 str0" cx="370252" cy="135376" rx="13886" ry="13794"/>
   <ellipse class="fil0 str0" cx="355184" cy="122884" rx="13886" ry="13794"/>
   <ellipse class="fil0 str0" cx="339685" cy="109018" rx="13886" ry="13794"/>
   <ellipse class="fil0 str0" cx="323998" cy="96248" rx="13886" ry="13794"/>
   <ellipse class="fil0 str0" cx="307718" cy="83253" rx="13886" ry="13794"/>
   <ellipse class="fil0 str0" cx="291959" cy="70482" rx="13886" ry="13794"/>
   <ellipse class="fil0 str0" cx="276424" cy="57774" rx="13886" ry="13794"/>
   <ellipse class="fil0 str0" cx="259023" cy="44932" rx="13886" ry="13794"/>
   <ellipse class="fil0 str0" cx="238250" cy="38311" rx="13886" ry="13794"/>
   <ellipse class="fil0 str0" cx="218455" cy="34704" rx="13886" ry="13794"/>
   <ellipse class="fil0 str0" cx="197306" cy="37709" rx="13886" ry="13794"/>
   <ellipse class="fil0 str0" cx="177706" cy="42463" rx="13886" ry="13794"/>
   <ellipse class="fil0 str0" cx="157598" cy="51674" rx="13886" ry="13794"/>
   <ellipse class="fil0 str0" cx="140901" cy="62912" rx="13886" ry="13794"/>
   <ellipse class="fil0 str0" cx="124026" cy="75163" rx="13886" ry="13794"/>
   <ellipse class="fil0 str0" cx="109461" cy="89638" rx="13886" ry="13794"/>
   <ellipse class="fil0 str0" cx="94601" cy="103863" rx="13886" ry="13794"/>
   <ellipse class="fil0 str0" cx="80187" cy="119418" rx="13886" ry="13794"/>
   <ellipse class="fil0 str0" cx="67169" cy="135176" rx="13886" ry="13794"/>
   <ellipse class="fil0 str0" cx="56667" cy="151291" rx="13886" ry="13794"/>
   <ellipse class="fil0 str0" cx="46213" cy="166977" rx="13886" ry="13794"/>
   <ellipse class="fil0 str0" cx="36580" cy="182950" rx="13886" ry="13794"/>
   <ellipse class="fil0 str0" cx="685324" cy="57443" rx="13886" ry="13794"/>
   <ellipse class="fil0 str0" cx="671117" cy="72514" rx="13886" ry="13794"/>
   <ellipse class="fil0 str0" cx="656553" cy="87777" rx="13886" ry="13794"/>
   <ellipse class="fil0 str0" cx="644836" cy="102629" rx="13886" ry="13794"/>
   <ellipse class="fil0 str0" cx="630422" cy="118183" rx="13886" ry="13794"/>
  </g>
 </g>
</svg>
