<?xml version="1.0" encoding="UTF-8"?>
<!DOCTYPE svg PUBLIC "-//W3C//DTD SVG 1.0//EN" "http://www.w3.org/TR/2001/REC-SVG-20010904/DTD/svg10.dtd">
<!-- Creator: CorelDRAW X7 -->
<svg xmlns="http://www.w3.org/2000/svg" xml:space="preserve" width="50px" height="50px" version="1.0" shape-rendering="geometricPrecision" text-rendering="geometricPrecision" image-rendering="optimizeQuality" fill-rule="evenodd" clip-rule="evenodd"
viewBox="0 0 3533 3533"
 xmlns:xlink="http://www.w3.org/1999/xlink">
 <g id="Layer_x0020_1">
  <metadata id="CorelCorpID_0Corel-Layer"/>
  <rect fill="none" width="3533" height="3533"/>
  <g id="_1251189536">
   <g id="_1318627936">
    <path fill="white" d="M2666 2490l-477 -477c88,-122 140,-272 140,-433 0,-415 -337,-749 -749,-749 -415,0 -750,334 -750,749 0,412 335,749 750,749 161,0 311,-51 433,-139l477 476c23,24 56,37 88,37 32,0 64,-13 88,-37 49,-49 49,-129 0,-176zm-1086 -412c-277,0 -501,-223 -501,-498 0,-277 224,-500 501,-500 274,0 498,223 498,500 0,275 -224,498 -498,498z"/>
   </g>
  </g>
 </g>
</svg>
