<?xml version="1.0" encoding="UTF-8"?>
<!DOCTYPE svg PUBLIC "-//W3C//DTD SVG 1.0//EN" "http://www.w3.org/TR/2001/REC-SVG-20010904/DTD/svg10.dtd">
<!-- Creator: CorelDRAW X7 -->
<svg xmlns="http://www.w3.org/2000/svg" xml:space="preserve" width="50px" height="50px" version="1.0" shape-rendering="geometricPrecision" text-rendering="geometricPrecision" image-rendering="optimizeQuality" fill-rule="evenodd" clip-rule="evenodd"
viewBox="0 0 2928 2928"
 xmlns:xlink="http://www.w3.org/1999/xlink"
 enable-background="new 0 0 100 100">
 <g id="Layer_x0020_1">
  <metadata id="CorelCorpID_0Corel-Layer"/>
  <rect fill="none" width="2928" height="2928"/>
  <g id="_956468496">
   <path fill="#379496" d="M1539 2184l-149 0c-40,0 -72,-28 -79,-67l-25 -152c-17,-6 -34,-13 -50,-21l-125 90c-31,22 -76,18 -103,-8l-105 -106c-28,-28 -31,-71 -9,-102l90 -126c-8,-16 -15,-33 -21,-50l-152 -25c-38,-6 -66,-39 -66,-78l0 -149c0,-40 28,-72 66,-79l152 -25c6,-17 13,-34 21,-50l-90 -125c-22,-32 -19,-75 9,-103l105 -105c27,-27 72,-31 103,-9l125 90c16,-8 33,-15 50,-21l25 -152c7,-38 39,-66 78,-66l150 0c39,0 72,28 78,66l25 152c17,6 34,13 50,21l126 -90c31,-22 75,-18 102,9l106 105c27,28 31,71 8,103l-90 125c8,17 15,33 21,50l152 25c39,7 67,39 67,78l0 150c0,39 -28,72 -67,78l-152 25c-6,17 -13,34 -21,50l90 126c23,32 19,75 -8,102l-106 106c-15,15 -35,23 -56,23l0 0c-17,0 -33,-5 -46,-15l-126 -90c-16,8 -33,15 -50,21l-25 152c-6,39 -39,67 -78,67zm-306 -320c5,0 11,2 17,5 26,13 52,24 80,33 13,4 23,15 25,29l29 174c1,3 3,5 6,5l149 0c3,0 5,-2 5,-5l29 -174c2,-14 12,-25 26,-29 27,-9 54,-20 80,-33 12,-7 27,-6 38,2l144 103c4,1 6,1 7,-1l106 -105c1,-2 2,-5 0,-7l-103 -144c-8,-11 -9,-26 -2,-38 13,-26 24,-53 33,-80 4,-14 15,-24 29,-26l174 -29c3,0 5,-2 5,-5l0 -150c0,-2 -2,-4 -5,-5l-174 -29c-14,-2 -25,-12 -29,-25 -9,-27 -20,-54 -33,-80 -7,-12 -6,-28 2,-39l103 -143c2,-3 1,-6 0,-7l-106 -106c-1,-1 -3,-2 -4,-2l-147 104c-11,8 -26,9 -39,3 -25,-14 -52,-25 -79,-33 -14,-4 -24,-16 -26,-30l-29 -174c0,-2 -2,-4 -5,-4l-149 0c-3,0 -5,2 -6,4l-29 174c-2,14 -12,26 -25,30 -28,8 -54,19 -80,33 -12,6 -27,5 -39,-3l-143 -103c-5,-1 -6,0 -7,1l-106 106c-2,1 -2,4 -1,7l103 143c8,12 9,27 3,39 -14,26 -25,52 -33,80 -4,13 -16,23 -30,25l-174 29c-3,1 -4,3 -4,6l0 149c0,3 2,5 4,5l174 29c14,2 26,12 30,26 8,27 19,54 33,80 6,12 5,27 -3,38l-103 144c-1,2 -1,5 1,7l106 106c1,1 3,1 3,1l147 -104c6,-4 14,-7 22,-7zm231 -140c-143,0 -260,-116 -260,-260 0,-143 117,-260 260,-260 144,0 260,117 260,260 0,144 -116,260 -260,260zm0 -446c-103,0 -186,83 -186,186 0,103 83,186 186,186 103,0 187,-83 187,-186 0,-103 -84,-186 -187,-186z"/>
  </g>
 </g>
</svg>
