<?xml version="1.0" encoding="UTF-8"?>
<!DOCTYPE svg PUBLIC "-//W3C//DTD SVG 1.0//EN" "http://www.w3.org/TR/2001/REC-SVG-20010904/DTD/svg10.dtd">
<!-- Creator: CorelDRAW X7 -->
<svg xmlns="http://www.w3.org/2000/svg" xml:space="preserve" width="50px" height="50px" version="1.0" shape-rendering="geometricPrecision" text-rendering="geometricPrecision" image-rendering="optimizeQuality" fill-rule="evenodd" clip-rule="evenodd"
viewBox="0 0 5421 5421"
 xmlns:xlink="http://www.w3.org/1999/xlink">
 <g id="Layer_x0020_1">
  <metadata id="CorelCorpID_0Corel-Layer"/>
  <rect fill="none" width="5421" height="5421"/>
  <path fill="#BD245E" d="M1238 1766c0,-25 20,-45 44,-45l1777 0c27,0 47,20 47,45l0 1216c0,24 -20,44 -47,44l-1777 0c-24,0 -44,-20 -44,-44l0 -1216zm743 1517c0,25 20,45 47,45l1031 0c27,0 47,-20 47,-45l0 -107c0,-25 -20,-45 -47,-45l-1031 0c-25,0 -47,20 -47,45l0 107zm1546 -123c-149,0 -270,121 -270,270 0,150 121,270 270,270 150,0 270,-120 270,-270 0,-149 -120,-270 -270,-270l0 0zm-1908 0c-149,0 -270,121 -270,270 0,150 121,270 270,270 150,0 270,-120 270,-270 0,-149 -120,-270 -270,-270l0 0zm2564 -386l0 598c0,25 -20,45 -44,45l-141 0c-24,0 -53,-16 -62,-42 -16,-47 -47,-351 -384,-351l-288 0c-25,0 -45,-20 -45,-45l0 -885c0,-25 20,-45 45,-45l473 0 0 0c25,0 56,18 69,40l355 603c14,20 22,58 22,82l0 0zm-270 -234l-191 -326c-18,-29 -27,-40 -50,-40l-270 0c-22,0 -40,18 -40,38l0 346c0,22 18,40 40,40l482 0c32,0 50,-22 29,-58z"/>
 </g>
</svg>
