<?xml version="1.0" encoding="UTF-8"?>
<!DOCTYPE svg PUBLIC "-//W3C//DTD SVG 1.1//EN" "http://www.w3.org/Graphics/SVG/1.1/DTD/svg11.dtd">
<!-- Creator: CorelDRAW X7 -->
<svg xmlns="http://www.w3.org/2000/svg" xml:space="preserve" width="50px" height="50px" version="1.1" style="shape-rendering:geometricPrecision; text-rendering:geometricPrecision; image-rendering:optimizeQuality; fill-rule:evenodd; clip-rule:evenodd"
viewBox="0 0 635390 635390"
 xmlns:xlink="http://www.w3.org/1999/xlink"
 enable-background="new 0 0 100 100">
 <defs>
  <style type="text/css">
   <![CDATA[
    .fil0 {fill:none}
    .fil2 {fill:#673B6D}
    .fil1 {fill:#673B6D;fill-rule:nonzero}
   ]]>
  </style>
 </defs>
 <g id="Layer_x0020_1">
  <metadata id="CorelCorpID_0Corel-Layer"/>
  <rect class="fil0" width="635390" height="635390"/>
  <path class="fil1" d="M316404 107524c-116019,0 -210170,94152 -210170,210171 0,116019 94151,210171 210170,210171 116020,0 210171,-94152 210171,-210171 0,-116019 -94151,-210171 -210171,-210171zm0 9186c111052,0 200970,89919 200970,200985 0,111066 -89918,200985 -200970,200985 -111051,0 -200970,-89919 -200970,-200985 0,-111066 89919,-200985 200970,-200985z"/>
  <path class="fil2" d="M493270 321342l-42040 0 0 -9170 42040 0 0 9170zm-83825 -155553l-21043 36352 -7954 -4593 21027 -36352 7970 4593zm-89214 -23024l0 41980 -9200 0 0 -41980 9200 0zm-88898 18431l21028 36352 -7955 4593 -21042 -36352 7969 -4593zm-34355 92140l-36397 -20982 4593 -7940 36412 20968 -4608 7954zm-15399 66610l-42041 0 0 -9185 42041 0 0 9185zm290648 -87592l-36396 20982 -4608 -7954 36412 -20968 4592 7940z"/>
  <g id="_1550605520">
   <g>
    <path class="fil2" d="M355803 316779c-1036,0 -1996,-540 -2537,-1410l-34295 -54978c-571,-916 -601,-2072 -75,-3032 525,-946 1531,-1531 2611,-1531l68156 -15c1081,0 2086,585 2612,1531 525,945 510,2101 -60,3032l-33861 54978c-555,885 -1501,1425 -2536,1425 -15,0 -15,0 -15,0zm-28908 -54977l28893 46302 28532 -46302 -57425 0z"/>
    <path class="fil2" d="M287437 316779c-1036,0 -1996,-540 -2537,-1410l-34475 -54963c-571,-931 -601,-2087 -75,-3047 525,-946 1516,-1531 2611,-1531l68546 -15c1096,0 2087,585 2612,1531 540,945 510,2116 -60,3032l-34086 54978c-555,885 -1500,1425 -2536,1425 0,0 0,0 0,0zm-29072 -54977l29042 46332 28727 -46332 -57769 0z"/>
    <path class="fil2" d="M287482 316779c-15,0 -30,0 -60,0l-68051 0c-1080,0 -2071,-585 -2611,-1530 -526,-946 -511,-2102 60,-3017l33590 -54993c540,-886 1501,-1426 2536,-1426 0,0 15,0 15,0 1036,0 1981,525 2537,1396l34220 54587c466,526 751,1231 751,1982 0,1666 -1336,3001 -2987,3001zm-62783 -5988l57335 0 -29043 -46303 -28292 46303z"/>
    <path class="fil2" d="M355848 316779c-15,0 -30,0 -45,0l-68366 0c-1096,0 -2086,-600 -2612,-1545 -540,-946 -510,-2102 60,-3032l34086 -54978c540,-871 1501,-1411 2536,-1411 0,0 0,0 0,0 1036,0 1996,525 2537,1411l34055 54587c465,526 736,1216 736,1967 0,1666 -1336,3001 -2987,3001zm-63053 -5988l57620 0 -28893 -46318 -28727 46318z"/>
    <path class="fil2" d="M423298 316779c0,0 -30,0 -45,0l-67450 0c-1081,0 -2086,-585 -2612,-1530 -525,-961 -495,-2117 60,-3032l33860 -54978c556,-886 1516,-1426 2552,-1426 0,0 0,0 0,0 1051,0 2011,540 2552,1426l33349 54587c451,526 721,1201 721,1952 15,1666 -1336,3001 -2987,3001zm-62137 -5988l56764 0 -28262 -46273 -28502 46273z"/>
    <path class="fil2" d="M321897 422833c-810,0 -1590,-330 -2146,-901l-102586 -106068c-841,-856 -1081,-2146 -600,-3242 465,-1111 1545,-1831 2746,-1831l203942 0c1201,0 2281,720 2747,1816 480,1111 240,2371 -586,3242l-101355 106068c-571,586 -1351,916 -2162,916 0,0 0,0 0,0zm-95532 -106054l95517 98759 94377 -98759 -189894 0z"/>
    <path class="fil2" d="M321897 422833c-1260,0 -2446,-796 -2851,-2056l-34461 -106069c-510,-1576 345,-3257 1921,-3767 1576,-510 3257,345 3768,1921l34460 106069c510,1560 -345,3256 -1921,3767 -300,90 -615,135 -916,135z"/>
    <path class="fil2" d="M321988 422833c-301,0 -601,-45 -901,-135 -1576,-511 -2446,-2192 -1951,-3752l33815 -106069c510,-1576 2161,-2446 3752,-1936 1576,495 2447,2176 1951,3752l-33815 106069c-405,1260 -1576,2071 -2851,2071z"/>
   </g>
  </g>
 </g>
</svg>
