<?xml version="1.0" encoding="utf-8"?>
<!-- Generator: Adobe Illustrator 19.1.1, SVG Export Plug-In . SVG Version: 6.00 Build 0)  -->
<svg version="1.1" id="Layer_1" xmlns="http://www.w3.org/2000/svg" xmlns:xlink="http://www.w3.org/1999/xlink" x="0px" y="0px"
	 viewBox="61.7 101.3 50 50" style="enable-background:new 61.7 101.3 50 50;" xml:space="preserve">
<style type="text/css">
	.st0{fill:#FFFFFF;}
</style>
<g>
	<path class="st0" d="M86.7,101.3c-13.8,0-25,11.2-25,25c0,13.8,11.2,25,25,25s25-11.2,25-25S100.5,101.3,86.7,101.3z M86.7,148.5
		c-12.2,0-22.2-10-22.2-22.2c0-12.2,10-22.2,22.2-22.2c12.2,0,22.2,10,22.2,22.2C108.9,138.5,99,148.5,86.7,148.5z"/>
</g>
<g>
	<path class="st0" d="M97.6,116.8c0.3,0,0.7,0.1,0.9,0.3c0.6,0.5,0.7,1.4,0.2,2l-13.4,16c-0.3,0.3-0.7,0.5-1.1,0.5
		c-0.4,0-0.8-0.2-1.1-0.5l-8.4-9.2c-0.3-0.3-0.4-0.7-0.4-1c0-0.4,0.2-0.7,0.5-1c0.3-0.2,0.6-0.4,1-0.4c0.4,0,0.8,0.2,1.1,0.5
		l6.9,7.6l0.3,0.3l0.3-0.4l12-14.4C96.8,117,97.2,116.8,97.6,116.8"/>
</g>
</svg>
