<?xml version="1.0" encoding="UTF-8"?>
<!DOCTYPE svg PUBLIC "-//W3C//DTD SVG 1.0//EN" "http://www.w3.org/TR/2001/REC-SVG-20010904/DTD/svg10.dtd">
<!-- Creator: CorelDRAW X7 -->
<svg xmlns="http://www.w3.org/2000/svg" xml:space="preserve" width="50px" height="50px" version="1.0" shape-rendering="geometricPrecision" text-rendering="geometricPrecision" image-rendering="optimizeQuality" fill-rule="evenodd" clip-rule="evenodd"
viewBox="0 0 12451 12451"
 xmlns:xlink="http://www.w3.org/1999/xlink">
 <g id="Layer_x0020_1">
  <metadata id="CorelCorpID_0Corel-Layer"/>
  <rect fill="none" width="12451" height="12451"/>
  <path fill="#BD245E" d="M8885 6965l0 -1485c0,0 0,-43 0,-43 -92,-1443 -1339,-2593 -2825,-2593 -1534,0 -2830,1248 -2830,2782 0,385 97,814 287,1199 -49,48 -49,140 -49,238 0,287 238,526 526,526 287,0 532,-239 532,-526 0,-287 -196,-477 -483,-526 -141,-287 -190,-574 -190,-911 0,-1247 1009,-2207 2256,-2207 1241,0 2250,1009 2250,2207l0 477c-98,-49 -140,-49 -238,-49 -336,0 -575,245 -575,575l0 1156c0,336 239,574 575,574 0,0 49,0 49,0 -49,49 -147,98 -196,98 -336,141 -715,239 -1198,336 -92,-146 -239,-244 -428,-244l-434 0c-288,0 -526,244 -526,532 0,287 238,526 526,526l434 0c189,0 336,-98 428,-239 531,-49 1009,-196 1394,-385 666,-287 1051,-722 1051,-1247 -49,-288 -140,-526 -336,-771l0 0z"/>
 </g>
</svg>
