<?xml version="1.0" encoding="UTF-8"?>
<!DOCTYPE svg PUBLIC "-//W3C//DTD SVG 1.0//EN" "http://www.w3.org/TR/2001/REC-SVG-20010904/DTD/svg10.dtd">
<!-- Creator: CorelDRAW X7 -->
<svg xmlns="http://www.w3.org/2000/svg" xml:space="preserve" width="64px" height="64px" version="1.0" shape-rendering="geometricPrecision" text-rendering="geometricPrecision" image-rendering="optimizeQuality" fill-rule="evenodd" clip-rule="evenodd"
viewBox="0 0 4253 4253"
 xmlns:xlink="http://www.w3.org/1999/xlink">
 <g id="Layer_x0020_1">
  <metadata id="CorelCorpID_0Corel-Layer"/>
  <circle fill="#379496" stroke="#379496" stroke-width="59.402" transform="matrix(2.64845E-014 -1 1 2.64845E-014 2126.62 2126.62)" r="2097"/>
  <path fill="white" d="M2645 1711c-18,-1 -34,6 -46,17l-721 660 -220 -240c-11,-12 -26,-20 -44,-21 -35,-1 -65,26 -67,62 -1,17 6,34 17,46l263 287c11,12 27,20 44,20 18,1 34,-5 47,-16l767 -704c12,-11 20,-27 21,-44 2,-36 -26,-65 -61,-67z"/>
 </g>
</svg>
