<?xml version="1.0" encoding="UTF-8"?>
<!DOCTYPE svg PUBLIC "-//W3C//DTD SVG 1.0//EN" "http://www.w3.org/TR/2001/REC-SVG-20010904/DTD/svg10.dtd">
<!-- Creator: CorelDRAW X7 -->
<svg xmlns="http://www.w3.org/2000/svg" xml:space="preserve" width="50px" height="50px" version="1.0" shape-rendering="geometricPrecision" text-rendering="geometricPrecision" image-rendering="optimizeQuality" fill-rule="evenodd" clip-rule="evenodd"
viewBox="0 0 7514 7514"
 xmlns:xlink="http://www.w3.org/1999/xlink">
 <g id="Layer_x0020_1">
  <metadata id="CorelCorpID_0Corel-Layer"/>
  <rect fill="none" width="7514" height="7514"/>
  <path fill="#379496" d="M4614 4304c-104,-45 -392,-122 -427,-254 -54,-207 152,-365 244,-528 97,-172 177,-404 193,-599 57,-698 -371,-1107 -985,-1036 -447,51 -713,384 -742,812 -29,437 133,759 305,996 75,103 154,170 142,294 -14,148 -172,189 -284,234 -134,54 -278,135 -346,173 -234,129 -491,285 -548,498 -128,471 304,614 660,680 306,57 651,61 935,61 513,0 1436,-20 1584,-406 43,-110 25,-284 0,-356 -93,-278 -465,-452 -731,-569z"/>
 </g>
</svg>
