<?xml version="1.0" encoding="UTF-8"?>
<!DOCTYPE svg PUBLIC "-//W3C//DTD SVG 1.1//EN" "http://www.w3.org/Graphics/SVG/1.1/DTD/svg11.dtd">
<!-- Creator: CorelDRAW X7 -->
<svg xmlns="http://www.w3.org/2000/svg" xml:space="preserve" width="120px" height="120px" version="1.1" style="shape-rendering:geometricPrecision; text-rendering:geometricPrecision; image-rendering:optimizeQuality; fill-rule:evenodd; clip-rule:evenodd"
viewBox="0 0 1938881 1938862"
 xmlns:xlink="http://www.w3.org/1999/xlink">
 <defs>
  <style type="text/css">
   <![CDATA[
    .str0 {stroke:#2B2A29;stroke-width:16009.9}
    .str1 {stroke:#30B8C8;stroke-width:3993.01}
    .fil0 {fill:none}
    .fil4 {fill:#F0F3F3}
    .fil3 {fill:#E9E9E9}
    .fil1 {fill:#30B8C8}
    .fil2 {fill:#C67814}
   ]]>
  </style>
 </defs>
 <g id="Layer_x0020_1">
  <metadata id="CorelCorpID_0Corel-Layer"/>
  <g id="_1728548400">
   <path class="fil0 str0" d="M845780 1064412c-8970,-105030 -34650,-328714 -34650,-331458 -114,-16578 -5412,-62658 27270,-65497 32682,-2838 38775,36884 46856,76700 8081,39817 42599,218045 40593,177207l-12755 -258203c0,0 -8043,-49070 31508,-48540 39571,530 38360,23750 43034,51663 4693,27894 26418,243044 26418,243044 9633,-28368 3426,-93240 12169,-186234 3141,-33458 4144,-58532 34782,-55561 21328,2082 29371,25358 29295,76927 -95,66840 5980,226428 5980,226428 908,-32152 11355,-90193 19719,-154232 2990,-22898 12642,-32096 33950,-27800 21252,4277 22009,18224 20817,61807 -1741,64739 -11071,221792 -11071,221792 0,0 17335,248058 -183186,251786 -190605,-7532 -281839,-255893 -138696,-343380"/>
   <path class="fil1 str1" d="M1053474 867297l18451 -42466 25983 0 -44434 42466zm-18754 -42466l32152 0 -17429 42390 -14723 -42390zm-34159 0l29182 0 15063 42390 -44245 -42390zm15102 -26816l11903 21934 -27005 0 15102 -21934zm28727 -2346l-12679 21763 -11809 -21763 24488 0zm20495 24280l-29030 0 13512 -23145 15518 23145zm14023 -24280l-9500 22349 -14931 -22349 24431 0zm19019 24280l-24072 0 9197 -21574 14875 21574z"/>
   <path class="fil2" d="M1016817 889476c5961,-3576 12623,-5696 25188,-5393 17695,378 34764,5090 48428,20760 -455,-11847 -265,-9652 -455,-19984 -13625,-10011 -30600,-15215 -47916,-15215 -12603,0 -16010,700 -25604,3747 246,10048 208,7778 359,16085z"/>
  </g>
  <g id="_1728542864">
   <path class="fil3" d="M1886631 1284103c-174424,506847 -726273,776177 -1232572,601544 -506299,-174614 -775325,-727068 -600901,-1233916l158945 54824c-144184,418963 78213,875642 496723,1019977 418509,144335 874677,-78289 1018861,-497252l158944 54823z"/>
   <path class="fil4" d="M52250 654759c174443,-506847 726274,-776177 1232572,-601544 506299,174614 775344,727068 600901,1233916l-158945 -54824c144184,-418963 -78194,-875623 -496704,-1019977 -418509,-144335 -874677,78289 -1018861,497253l-158963 -54824z"/>
  </g>
 </g>
</svg>
