<?xml version="1.0" encoding="UTF-8"?>
<!DOCTYPE svg PUBLIC "-//W3C//DTD SVG 1.1//EN" "http://www.w3.org/Graphics/SVG/1.1/DTD/svg11.dtd">
<!-- Creator: CorelDRAW X6 -->
<svg xmlns="http://www.w3.org/2000/svg" xml:space="preserve" width="841px" height="156px" version="1.1" style="shape-rendering:geometricPrecision; text-rendering:geometricPrecision; image-rendering:optimizeQuality; fill-rule:evenodd; clip-rule:evenodd"
viewBox="0 0 841000 155736"
 xmlns:xlink="http://www.w3.org/1999/xlink">
 <defs>
  <style type="text/css">
   <![CDATA[
    .fil0 {fill:white}
    .fil1 {fill:white;fill-rule:nonzero}
   ]]>
  </style>
 </defs>
 <g id="Layer_x0020_1">
  <metadata id="CorelCorpID_0Corel-Layer"/>
  <g id="_1749168112">
   <path class="fil0" d="M721716 37689c0,-1506 -1221,-2728 -2728,-2728 -1508,0 -2729,1221 -2729,2728 0,1506 1220,2730 2729,2730 1506,0 2728,-1224 2728,-2730zm36380 9096c0,-1507 -1220,-2729 -2728,-2729 -1507,0 -2729,1221 -2729,2729 0,1507 1221,2729 2729,2729 1507,0 2728,-1221 2728,-2729zm-9094 0c0,-1507 -1221,-2729 -2729,-2729 -1506,0 -2729,1221 -2729,2729 0,1507 1223,2729 2729,2729 1507,0 2729,-1221 2729,-2729zm-9096 0c0,-1507 -1221,-2729 -2729,-2729 -1506,0 -2729,1221 -2729,2729 0,1507 1223,2729 2729,2729 1507,0 2729,-1221 2729,-2729zm-36381 0c0,-1507 -1221,-2729 -2728,-2729 -1508,0 -2729,1221 -2729,2729 0,1507 1220,2729 2729,2729 1506,0 2728,-1221 2728,-2729zm27286 0c0,-1507 -1221,-2729 -2728,-2729 -1507,0 -2729,1221 -2729,2729 0,1507 1221,2729 2729,2729 1506,0 2728,-1221 2728,-2729zm-9094 0c0,-1507 -1221,-2729 -2728,-2729 -1508,0 -2729,1221 -2729,2729 0,1507 1220,2729 2729,2729 1506,0 2728,-1221 2728,-2729zm-9094 0c0,-1507 -1224,-2729 -2730,-2729 -1506,0 -2728,1221 -2728,2729 0,1507 1221,2729 2728,2729 1506,0 2730,-1221 2730,-2729zm36380 -9096c0,-1506 -1221,-2728 -2729,-2728 -1506,0 -2729,1221 -2729,2728 0,1506 1223,2730 2729,2730 1507,0 2729,-1224 2729,-2730zm0 18190c0,-1506 -1221,-2728 -2729,-2728 -1506,0 -2729,1221 -2729,2728 0,1507 1223,2728 2729,2728 1507,0 2729,-1220 2729,-2728zm-36380 -18190c0,-1506 -1224,-2728 -2730,-2728 -1506,0 -2728,1221 -2728,2728 0,1506 1221,2730 2728,2730 1506,0 2730,-1224 2730,-2730zm0 18190c0,-1506 -1224,-2728 -2730,-2728 -1506,0 -2728,1221 -2728,2728 0,1507 1221,2728 2728,2728 1506,0 2730,-1220 2730,-2728zm27285 -18190c0,-1506 -1221,-2728 -2729,-2728 -1506,0 -2729,1221 -2729,2728 0,1506 1223,2730 2729,2730 1507,0 2729,-1224 2729,-2730zm0 18190c0,-1506 -1221,-2728 -2729,-2728 -1506,0 -2729,1221 -2729,2728 0,1507 1223,2728 2729,2728 1507,0 2729,-1220 2729,-2728zm-9096 0c0,-1506 -1221,-2728 -2728,-2728 -1507,0 -2729,1221 -2729,2728 0,1507 1221,2728 2729,2728 1506,0 2728,-1220 2728,-2728zm0 9096c0,-1506 -1221,-2729 -2728,-2729 -1507,0 -2729,1223 -2729,2729 0,1507 1221,2729 2729,2729 1506,0 2728,-1221 2728,-2729zm0 9096c0,-1505 -1221,-2729 -2728,-2729 -1507,0 -2729,1224 -2729,2729 0,1507 1221,2729 2729,2729 1506,0 2728,-1221 2728,-2729zm0 -36381c0,-1506 -1221,-2728 -2728,-2728 -1507,0 -2729,1221 -2729,2728 0,1506 1221,2730 2729,2730 1506,0 2728,-1224 2728,-2730zm-9094 18190c0,-1506 -1221,-2728 -2728,-2728 -1508,0 -2729,1221 -2729,2728 0,1507 1220,2728 2729,2728 1506,0 2728,-1220 2728,-2728zm0 9096c0,-1506 -1221,-2729 -2728,-2729 -1508,0 -2729,1223 -2729,2729 0,1507 1220,2729 2729,2729 1506,0 2728,-1221 2728,-2729zm18190 0c0,-1506 -1221,-2729 -2729,-2729 -1506,0 -2729,1223 -2729,2729 0,1507 1223,2729 2729,2729 1507,0 2729,-1221 2729,-2729z"/>
   <path class="fil1" d="M52817 0l0 110874c0,29922 -17582,44863 -52817,44863l0 -16353c21781,0 32671,-9478 32671,-28510l0 -110874 20146 0zm205245 0l0 16353 -93294 123030 91138 0 0 16353 -115445 0 0 -16353 96266 -123030 -94074 0 0 -16353 115408 0zm188372 0l0 16353c-33935,0 -67870,0 -101806,0l0 -16353 101806 0zm0 68613l0 16354c-32672,0 -69134,0 -101806,0l0 -16354c32672,0 69134,0 101806,0zm1635 70770l0 16353 -103441 0 0 -16353c34481,0 68962,0 103441,0zm224018 -139383l-66088 155736 -22337 0 -66421 -155736 21260 0 57055 134810 55641 -134810 20890 0zm34995 155736l-20926 0 27743 -65342 19938 0 -26755 65342zm36769 -135889l8427 -19847 22302 0 66421 155736 -22302 0 -20145 -48988 -51516 0 5538 -16354 10147 0 29067 0 -29067 -70547 -18872 0z"/>
  </g>
 </g>
</svg>
