<?xml version="1.0" encoding="utf-8"?>
<!-- Generator: Adobe Illustrator 18.0.0, SVG Export Plug-In . SVG Version: 6.00 Build 0)  -->
<!DOCTYPE svg PUBLIC "-//W3C//DTD SVG 1.1//EN" "http://www.w3.org/Graphics/SVG/1.1/DTD/svg11.dtd">
<svg version="1.1" id="Layer_1" xmlns="http://www.w3.org/2000/svg" xmlns:xlink="http://www.w3.org/1999/xlink" x="0px" y="0px"
	 width="50px" height="50px" viewBox="0 0 50 50" enable-background="new 0 0 50 50" xml:space="preserve">
<g>
	<path fill="#679D97" d="M25.0010509,0.0000008c1.5088634,0,2.9877415,0.1331171,4.4236507,0.3907273h0.0022106
		c10.5086842,1.8780837,18.7443714,10.3219042,20.3047886,20.9400978C49.9097672,22.5284195,50,23.7518997,50,24.99897
		C50,38.8066406,38.8065338,50,25.0010509,50C11.1933584,50,0,38.8066406,0,24.99897
		C0,11.1912756,11.1933584,0.0000008,25.0010509,0.0000008z"/>
	<path opacity="0.4" fill="#736357" d="M22.6094894,49.8998184l-0.002203,0.0001793
		C11.9803658,48.8860092,3.0828922,41.1426468,0.660915,30.6872692l12.1207933-11.9538746
		c0.0067711-0.0012608-0.5326376,0.8674679-0.7035885,1.630703c-0.0625143,0.2791042-1.1424294,1.4586296-0.9440107,1.7148438
		c0.1308832,0.1690063-0.4041138,3.1806679-0.3684893,3.3945313c0.1975899,1.1862011,1.2240343,2.1727219,1.234375,2.171875
		l2.265625,0.34375l1.3781433-0.6964016c0.4968557-1.0848484,2.9968557-0.9910984,3.2423449-0.318882l2.3482609,1.4059086
		c0.7358704-0.0602703,1.548954,0.7308254,3.421875,0.84375l2.0468903-0.0625l3.8124847-0.953125l0.349472-0.1393719
		c2.1505299-2.4856281,3.4161549-0.4387531,4.0552425,0.7760086l1.2671623,1.1602383
		c0.2413254,0.1746426,0.8706932,0.2100277,1.1534271,0.1162224l1.2311401-0.4084721l0.369194-0.1994152l0.8214951-0.4437218"/>
	<g>
		<path fill="#FFD980" d="M29.2136993,19.7547226c0.2285156,0.0927734,0.46875,0.1396484,0.7128906,0.1396484
			c0.7773438,0,1.4677734-0.4648438,1.7597656-1.1845703c0.1904297-0.4697266,0.1865234-0.9853516-0.0117188-1.453125
			c-0.1972656-0.4677734-0.5644531-0.8300781-1.0332031-1.0205078c-0.2275391-0.0917969-0.4667969-0.1386719-0.7138672-0.1386719
			c-0.7773438,0-1.4677734,0.4648438-1.7597656,1.1845703c-0.1904297,0.46875-0.1865234,0.984375,0.0107422,1.453125
			C28.3758087,19.2019882,28.7439728,19.5642929,29.2136993,19.7547226z M28.5779572,18.566246
			c-0.1513672-0.3613281-0.1542969-0.7597656-0.0068359-1.1220703c0.2246094-0.5546875,0.7578125-0.9140625,1.3564453-0.9140625
			c0.1884766,0,0.3740234,0.0371094,0.5507813,0.109375c0.3613281,0.1464844,0.6445313,0.4257813,0.796875,0.7871094
			c0.1523438,0.3603516,0.1552734,0.7578125,0.0087891,1.1191406c-0.2255859,0.5556641-0.7587891,0.9150391-1.3574219,0.9150391
			c-0.1904297,0-0.375-0.0371094-0.5498047-0.1083984C29.0144806,19.2049179,28.7303009,18.925621,28.5779572,18.566246z"/>
		<path fill="#FFD980" d="M13.5999298,27.416832c0.0830078,0,0.1669922-0.0048828,0.2509766-0.0136719
			c1.2338867-0.1367188,2.1269531-1.2529297,1.9902344-2.4863281c-0.1362305-1.2265625-1.2304688-2.1337891-2.4873047-1.9902344
			c-0.597168,0.0664063-1.1328125,0.3613281-1.5092773,0.8320313c-0.3759766,0.4697266-0.546875,1.0576172-0.4804688,1.6542969
			C11.4905548,26.5555038,12.4514923,27.416832,13.5999298,27.416832z M12.1834259,24.0291367
			c0.3037109-0.3798828,0.7363281-0.6181641,1.2177734-0.6708984c0.0683594-0.0078125,0.1367188-0.0117188,0.2036133-0.0117188
			c0.9257813,0,1.7016602,0.6953125,1.8046875,1.6171875c0.1103516,0.9970703-0.6103516,1.8974609-1.605957,2.0078125
			c-0.0678711,0.0078125-0.1352539,0.0107422-0.2021484,0.0107422c-0.9267578,0-1.703125-0.6943359-1.8056641-1.6162109
			C11.7420197,24.8836288,11.879715,24.4090195,12.1834259,24.0291367z"/>
		<path fill="#FFD980" d="M37.2771759,29.5867538c1.2421875,0,2.2519531-1.0097656,2.2519531-2.2519531
			c0-0.4873047-0.1601563-0.9550781-0.4550781-1.3398438c-0.0029297-0.0117188-0.0097656-0.0273438-0.0214844-0.0429688
			c-0.0068359-0.0068359-0.0175781-0.015625-0.0283203-0.0224609c-0.4335938-0.5380859-1.0693359-0.8457031-1.7470703-0.8457031
			c-0.7851563,0-1.4990234,0.4042969-1.9140625,1.0820313c-0.0351563,0.03125-0.0576172,0.0732422-0.0673828,0.1201172
			c-0.1787109,0.3359375-0.2695313,0.6884766-0.2695313,1.0488281
			C35.0261993,28.5769882,36.035965,29.5867538,37.2771759,29.5867538z M38.1043243,26.2351913
			c-0.6533203,0.1757813-1.28125,0.0039063-1.7441406-0.4677734c0.2773438-0.1640625,0.5917969-0.25,0.9169922-0.25
			c0.4736328,0,0.9316406,0.1923828,1.2734375,0.53125C38.4080353,26.1316757,38.2586212,26.1941757,38.1043243,26.2351913z
			 M37.6101837,26.7351913c0.2021484,0,0.4052734-0.0273438,0.6054688-0.0810547
			c0.2148438-0.0556641,0.4208984-0.1445313,0.6123047-0.2636719c0.0751953,0.125,0.1357422,0.2636719,0.1806641,0.4150391
			c-0.2080078,0.1220703-0.4228516,0.2128906-0.6386719,0.2705078c-0.2832031,0.0742188-0.5751953,0.1015625-0.8603516,0.0800781
			c-0.6552734-0.0498047-1.2802734-0.3564453-1.7255859-0.8457031c0.0664063-0.0966797,0.1445313-0.1875,0.2324219-0.2724609
			C36.4441681,26.488121,37.0056915,26.7351913,37.6101837,26.7351913z M38.4812775,27.494957
			c0.1992188-0.0527344,0.4003906-0.1318359,0.609375-0.2431641c0.0029297,0.0273438,0.0048828,0.0546875,0.0048828,0.0830078
			c0,1.0019531-0.8164063,1.8183594-1.8183594,1.8183594s-1.8183594-0.8164063-1.8183594-1.8183594
			c0-0.2080078,0.0380859-0.4160156,0.1132813-0.6181641c0.515625,0.5097656,1.1855469,0.8183594,1.9052734,0.8720703
			C37.8211212,27.6111679,38.1580353,27.581871,38.4812775,27.494957z"/>
		<path fill="#FFD980" d="M40.6355743,23.7859726c-0.1796875-0.6777344-0.5839844-1.2558594-1.1699219-1.6748047
			c-0.0185547-0.5283203-0.1875-1.0361328-0.4892578-1.4707031c-0.2841797-0.4082031-0.6777344-0.7324219-1.1416016-0.9384766
			c-0.0664063-0.0898438-0.1376953-0.1748047-0.2109375-0.2509766c-0.4863281-0.5039063-1.1396484-0.78125-1.8417969-0.78125
			c-0.6660156,0-1.296875,0.2539063-1.7753906,0.7148438c-0.0800781,0.078125-0.1591797,0.1679688-0.2490234,0.2841797
			l-0.0683594,0.0947266c-0.0498047,0.0722656-0.0947266,0.1455078-0.1357422,0.2197266l-0.0166016,0.0283203
			c-0.015625,0.0273438-0.0302734,0.0546875-0.0458984,0.0839844c-0.0449219,0.0908203-0.0849609,0.1884766-0.1191406,0.2890625
			c-0.0205078,0.0605469-0.0371094,0.1210938-0.0585938,0.2050781c-0.0097656,0.0361328-0.0175781,0.0722656-0.0253906,0.109375
			c-0.0517578,0.2441406-0.0673828,0.4941406-0.046875,0.7451172c-0.0019531,0.0019531-0.0039063,0.0029297-0.0058594,0.0048828
			l-1.2226563,0.9775391c-0.1064453,0.0771484-0.1699219,0.1494141-0.234375,0.2216797l-0.0009766,0.0009766
			c-0.7919922-0.640625-1.8779297-1.1435547-3.1552734-1.4609375l0.7246094-0.7255859
			c0.2148438,0.0527344,0.4003906,0.0771484,0.5800781,0.0771484c1.0410156,0,1.9658203-0.6230469,2.3574219-1.5878906
			c0.2558594-0.6289063,0.2509766-1.3203125-0.0136719-1.9462891c-0.2636719-0.6259766-0.7568359-1.1123047-1.3876953-1.3671875
			c-0.3056641-0.1240234-0.6269531-0.1865234-0.9541016-0.1865234c-1.0410156,0-1.9667969,0.6230469-2.3583984,1.5878906
			c-0.2871094,0.7080078-0.2363281,1.4970703,0.1376953,2.1767578c-0.0019531,0.0029297-0.0039063,0.0058594-0.0058594,0.0097656
			l-0.7158203,1.3818359c-0.0625,0.1083984-0.0917969,0.1962891-0.1181641,0.28125
			c-0.4326172-0.0419922-0.8613281-0.0625-1.2734375-0.0625c-1.5087891,0-2.9648438,0.2529297-4.2202148,0.7324219
			l-0.4404297-1.765625c1.019043-1.0273438,1.1357422-2.6582031,0.2646484-3.8193359
			c-0.5581055-0.7441406-1.4130859-1.1699219-2.3461914-1.1699219c-0.6376953,0-1.2446289,0.2021484-1.7553711,0.5849609
			c-0.0249023,0.0185547-0.0449219,0.0419922-0.0595703,0.0693359c-0.6416016,0.0986328-1.2211914,0.3925781-1.6791992,0.8505859
			c-0.0913086,0.0927734-0.1748047,0.1884766-0.2617188,0.3027344l-0.0522461,0.0908203
			c-0.5859375,0.2255859-1.078125,0.6201172-1.4257813,1.1425781c-0.0683594,0.1015625-0.1313477,0.2099609-0.1894531,0.3251953
			c-0.0014648,0.0029297-0.0024414,0.0058594-0.003418,0.0087891c-0.5063477,0.3242188-0.8999023,0.7841797-1.1401367,1.3320313
			c-0.0454102,0.1054688-0.0869141,0.2197266-0.1230469,0.3378906c-0.4716797,0.4130859-0.7983398,0.9511719-0.9462891,1.5605469
			c-0.0483398,0.1982422-0.074707,0.4638672-0.0834961,0.6464844c0,0.0087891,0.0004883,0.015625,0.0014648,0.0224609
			c-0.2382813,0.4042969-0.3793945,0.8671875-0.409668,1.3398438c-0.0151367,0.2314453-0.0029297,0.4658203,0.0356445,0.6972656
			c-0.1665039,0.4482422-0.2241211,0.9130859-0.171875,1.3828125c0.1831055,1.6503906,1.6591797,2.8544922,3.3491211,2.6806641
			c0.9233398-0.1025391,1.730957-0.6123047,2.2275391-1.4013672c0.0092773,0.0009766,0.0185547,0.0009766,0.0288086,0.0009766
			l1.8867188-0.0351563h0.0419922c0.1323242,0,0.2314453-0.0175781,0.3276367-0.0371094l0.046875-0.0087891
			c0.019043-0.0039063,0.0371094-0.0087891,0.0551758-0.0146484c1.1123047,1.6396484,3.9262695,2.7363281,7.0424805,2.7363281
			c2.9257813,0,5.5908203-0.953125,6.8222656-2.4345703l1.8613281,0.7861328
			c0.2158203,1.484375,1.4941406,2.5966797,2.9990234,2.5966797c1.6728516,0,3.0332031-1.3603516,3.0332031-3.0332031
			c0-0.3261719-0.0546875-0.6542969-0.1630859-0.9736328C40.6941681,25.6160507,40.872879,24.6805038,40.6355743,23.7859726z
			 M27.8054962,19.253746l0.0026855,0.0015869c-0.0002441,0.0001831-0.0004883,0.0004272-0.0007324,0.0006104L27.8054962,19.253746z
			 M27.9724884,17.2019882c0.3242188-0.7988281,1.0917969-1.3164063,1.9560547-1.3164063
			c0.2714844,0,0.5380859,0.0527344,0.7919922,0.1552734c0.5214844,0.2109375,0.9296875,0.6142578,1.1503906,1.1337891
			c0.21875,0.5185547,0.2226563,1.0917969,0.0107422,1.6142578c-0.3242188,0.7998047-1.0917969,1.3173828-1.9550781,1.3173828
			c-0.2714844,0-0.5380859-0.0527344-0.7929688-0.15625c-0.5205078-0.2109375-0.9287109-0.6142578-1.1484375-1.1337891
			S27.7605743,17.7234726,27.9724884,17.2019882z M34.692215,27.581871c0,0,0,0,0,0.0009766
			c-0.0087891-0.0810547-0.0136719-0.1640625-0.0136719-0.2480469c0-1.4326172,1.1660156-2.5986328,2.5986328-2.5986328
			c0.1054688,0,0.2177734,0.0087891,0.3388672,0.0253906c0.0175781,0.0068359,0.0478516,0.0273438,0.0898438,0.0136719
			c1.2587891,0.2099609,2.1708984,1.2832031,2.1708984,2.5595703c0,1.4335938-1.1660156,2.5996094-2.5996094,2.5996094
			c-1.3242188,0-2.4316406-0.9902344-2.5800781-2.2949219c0.0009766-0.0078125,0.0019531-0.0146484,0.0019531-0.0214844
			C34.6990509,27.597496,34.6941681,27.581871,34.692215,27.581871z M20.2493439,16.6873398
			c0.3232422,0.4296875,0.4194336,0.9902344,0.2807617,1.5029297c-0.0600586-0.7148438-0.3676758-1.3779297-0.8818359-1.8896484
			c-0.0786133-0.078125-0.1625977-0.1523438-0.2514648-0.2226563C19.7346954,16.1873398,20.032547,16.3973007,20.2493439,16.6873398
			z M18.1756134,21.7703476c0.1811523-0.1630859,0.3364258-0.3378906,0.4633789-0.5205078l0.8066406,1.21875
			c-0.1669922-0.0341797-0.3457031,0.0058594-0.4873047,0.1064453L18.1756134,21.7703476z M17.4695587,22.5896835
			c0.1303711-0.1669922,0.2446289-0.3505859,0.3408203-0.546875c0.0039063-0.0039063,0.0083008-0.0078125,0.012207-0.0126953
			l0.9951172,1.0214844c-0.1723633,0-0.3378906,0.0722656-0.4589844,0.1972656L17.4695587,22.5896835z M19.654129,21.9978867
			l-0.6171875-0.9326172c0.2167969-0.1259766,0.4130859-0.2744141,0.5844727-0.4404297l0.5537109,1.3515625
			C20.0120392,21.9109726,19.8167267,21.9178085,19.654129,21.9978867z M16.9300079,23.4490585
			c0.0761719-0.1972656,0.1303711-0.4042969,0.1757813-0.5878906l1.2158203,0.8994141
			c-0.1401367,0.0234375-0.2700195,0.09375-0.3691406,0.1992188L16.9300079,23.4490585z M18.7903595,17.1619492
			c0.5478516,0.5449219,0.6821289,1.3603516,0.3676758,2.0390625c-0.0097656-0.0908203-0.0239258-0.1806641-0.0415039-0.2705078
			c-0.159668-0.7939453-0.6186523-1.4785156-1.2929688-1.9277344c-0.2070313-0.1376953-0.4301758-0.2490234-0.6650391-0.3320313
			C17.7459259,16.5535507,18.3645782,16.7371445,18.7903595,17.1619492z M17.9431915,19.7898788
			c-0.015625-0.0478516-0.0327148-0.0957031-0.0507813-0.1425781c-0.2973633-0.7695313-0.8696289-1.3720703-1.6113281-1.6962891
			c-0.184082-0.0800781-0.3759766-0.1425781-0.574707-0.1845703c0.4941406-0.1259766,1.0229492-0.0341797,1.4438477,0.2470703
			C17.7483673,18.4119492,18.0462189,19.1062851,17.9431915,19.7898788z M15.7932892,19.0633163
			c0.7207031,0.3164063,1.1450195,1.015625,1.0976563,1.7441406c-0.0429688-0.0927734-0.0878906-0.1787109-0.137207-0.2587891
			c-0.4213867-0.6914063-1.0869141-1.1777344-1.8745117-1.3701172c-0.1987305-0.0478516-0.4042969-0.0751953-0.6113281-0.0820313
			C14.7415314,18.8680038,15.3108673,18.8523788,15.7932892,19.0633163z M18.0774689,24.5066757
			c-0.1328125,0.0449219-0.2456055,0.1328125-0.3242188,0.2558594l-1.0688477-0.3164063
			c0.0629883-0.2070313,0.1010742-0.4003906,0.1137695-0.5771484L18.0774689,24.5066757z M20.6048126,21.3719101
			c-0.0664063,0-0.1323242,0.0107422-0.1958008,0.0302734l-0.402832-0.9833984
			c0.2080078-0.0869141,0.3920898-0.1884766,0.559082-0.3085938l0.3334961,1.3349609
			C20.810379,21.3973007,20.7097931,21.3719101,20.6048126,21.3719101z M13.2556915,20.581871
			c0.4135742-0.2558594,0.9145508-0.3417969,1.3857422-0.2216797c0.6005859,0.1455078,1.0688477,0.5712891,1.2729492,1.1308594
			c-0.5209961-0.5322266-1.2192383-0.8574219-1.9702148-0.9052734c-0.0620117-0.0039063-0.1235352-0.0058594-0.1845703-0.0058594
			c-0.1669922,0-0.3364258,0.0136719-0.5058594,0.0419922C13.2542267,20.6082382,13.254715,20.5955429,13.2556915,20.581871z
			 M20.3533478,19.7273788c-0.0498047,0.0371094-0.1025391,0.0732422-0.1591797,0.1083984
			c0.0981445-0.1894531,0.175293-0.3876953,0.2314453-0.5947266c0.7319336-0.7607422,0.8066406-1.9677734,0.171875-2.8164063
			c-0.4160156-0.5527344-1.0493164-0.8701172-1.737793-0.8701172c-0.1269531,0-0.2548828,0.0117188-0.3637695,0.0322266
			c-0.1972656-0.0683594-0.3984375-0.1162109-0.6020508-0.1425781c0.3071289-0.1289063,0.6386719-0.1972656,0.9741211-0.1972656
			c0.7895508,0,1.512207,0.3603516,1.9829102,0.9873047C21.6761017,17.3348007,21.4529572,18.9021835,20.3533478,19.7273788z
			 M19.3494415,20.2830429c-0.1123047,0.1123047-0.2353516,0.2148438-0.3681641,0.3056641
			c0.0712891-0.1904297,0.1235352-0.3876953,0.1552734-0.5878906l0.0302734-0.0283203
			c0.8208008-0.8925781,0.7900391-2.2626953-0.0698242-3.1191406c-0.4262695-0.4238281-0.9912109-0.6572266-1.590332-0.6572266
			c-0.3447266,0-0.6894531,0.0810547-0.9907227,0.2314453l-0.1298828,0.0546875
			c-0.0131836,0.0048828-0.0239258,0.0117188-0.0327148,0.0185547c-0.1933594-0.0126953-0.3896484-0.0078125-0.5820313,0.015625
			c0.4770508-0.4296875,1.0883789-0.6640625,1.7373047-0.6640625c0.6928711,0,1.34375,0.2685547,1.8330078,0.7558594
			c0.4921875,0.4892578,0.7636719,1.1416016,0.7646484,1.8359375C20.1077423,19.1385117,19.8391876,19.791832,19.3494415,20.2830429
			z M17.5833282,17.3640976c0.5771484,0.3847656,0.9707031,0.9716797,1.1074219,1.6523438
			c0.1362305,0.6816406-0.0009766,1.375-0.3852539,1.9511719c-0.0717773,0.1074219-0.1547852,0.2109375-0.2480469,0.3115234
			c0.0371094-0.2138672,0.0507813-0.4287109,0.0415039-0.6425781c0.5825195-1.0244141,0.2753906-2.3300781-0.7075195-2.9833984
			c-0.3710938-0.2470703-0.8017578-0.3779297-1.2460938-0.3779297c-0.4780273,0-0.9350586,0.1484375-1.3227539,0.4296875
			c-0.2197266,0.0175781-0.4365234,0.0595703-0.6474609,0.1240234c0.3759766-0.4375,0.8833008-0.7353516,1.456543-0.8505859
			C16.3084259,16.8426132,17.0105743,16.9812851,17.5833282,17.3640976z M16.1067657,18.3484726
			c0.6347656,0.2783203,1.1254883,0.7949219,1.3808594,1.4560547c0.2480469,0.640625,0.2397461,1.3398438-0.0224609,1.9667969
			c-0.0708008,0.1591797-0.1655273,0.3212891-0.2744141,0.4716797c0.0078125-0.2138672-0.0087891-0.4326172-0.0483398-0.6542969
			c0.003418-0.0058594,0.0068359-0.0117188,0.0097656-0.0185547c0.4916992-1.1210938-0.0288086-2.3974609-1.1845703-2.9042969
			c-0.284668-0.125-0.5874023-0.1884766-0.9003906-0.1884766c-0.6079102,0-1.1977539,0.2480469-1.6191406,0.6806641
			c-0.0083008,0.0087891-0.0146484,0.0175781-0.0195313,0.0263672c-0.2104492,0.0527344-0.4116211,0.1259766-0.6005859,0.21875
			c0.2939453-0.4980469,0.7431641-0.8808594,1.2905273-1.0957031
			C14.7615509,18.0564804,15.4724884,18.0711288,16.1067657,18.3484726z M14.7766876,19.6004257
			c0.6748047,0.1650391,1.2451172,0.5820313,1.605957,1.1738281c0.3608398,0.5927734,0.4697266,1.2900391,0.3056641,1.9658203
			c-0.0053711,0.0205078-0.0107422,0.0419922-0.0161133,0.0634766c-0.0527344-0.1875-0.1245117-0.3710938-0.2143555-0.5488281
			c0.0634766-1.0878906-0.6533203-2.0585938-1.7143555-2.3164063c-0.6157227-0.1513672-1.2822266-0.0234375-1.8051758,0.3378906
			c-0.0126953,0.0068359-0.0263672,0.015625-0.0283203,0.0195313c-0.2563477,0.1816406-0.4648438,0.4042969-0.621582,0.6611328
			c-0.1982422,0.1103516-0.3803711,0.2373047-0.5405273,0.3789063c-0.027832,0.0244141-0.0556641,0.0498047-0.0834961,0.0761719
			c0.1791992-0.6298828,0.5839844-1.1621094,1.1474609-1.5058594C13.3982697,19.5496445,14.107254,19.4392929,14.7766876,19.6004257
			z M13.9168243,21.0183945c1.4296875,0.0927734,2.5185547,1.3300781,2.4277344,2.7597656
			c-0.0019531,0.0292969-0.0048828,0.0595703-0.0078125,0.0898438c-0.0957031-0.2011719-0.215332-0.3935547-0.3564453-0.5732422
			c-0.0307617-0.2197266-0.1000977-0.4404297-0.1982422-0.6376953c-0.0004883-0.0029297-0.0009766-0.0068359-0.0019531-0.0107422
			c-0.0029297-0.0117188-0.0097656-0.0244141-0.0175781-0.0361328c-0.359375-0.7167969-1.074707-1.1933594-1.8681641-1.2451172
			c-0.7216797-0.0419922-1.4057617,0.2548828-1.8583984,0.7958984c-0.003418,0.0039063-0.0205078,0.0224609-0.0234375,0.0263672
			c-0.1699219,0.2070313-0.2988281,0.4345703-0.3837891,0.6767578c-0.1733398,0.1494141-0.3286133,0.3173828-0.465332,0.5039063
			C11.2932892,21.988121,12.5091095,20.9334335,13.9168243,21.0183945z M12.1221466,22.6358871
			c-0.0092773,0.0053711-0.0179443,0.0114136-0.0269775,0.0168457c0.0070801-0.012146,0.0151367-0.0234985,0.0223389-0.0355225
			C12.1190948,22.623436,12.1204376,22.6297226,12.1221466,22.6358871z M13.8670197,21.7976913
			c0.53125,0.0341797,1.0224609,0.3085938,1.3417969,0.7421875c-0.03125,0.0029297-0.0620117,0.0048828-0.0922852,0.0058594
			c-0.3662109-0.2138672-0.7626953-0.3447266-1.1791992-0.390625c-0.1166992-0.0927734-0.2255859-0.2099609-0.3256836-0.3496094
			C13.7034454,21.7957382,13.7864532,21.7937851,13.8670197,21.7976913z M13.1526642,21.9021835
			c0.0517578,0.0830078,0.1103516,0.1640625,0.1762695,0.2431641c-0.0205078,0.0009766-0.0405273,0.0029297-0.0610352,0.0048828
			c-0.1035156,0.0117188-0.2109375,0.0302734-0.3330078,0.0585938c-0.0341797-0.0488281-0.0673828-0.1025391-0.1010742-0.1601563
			C12.9348907,21.9900742,13.0418243,21.9402695,13.1526642,21.9021835z M13.3152618,22.581871
			c0.097168-0.0107422,0.1943359-0.0166016,0.2905273-0.0166016c1.3242188,0,2.4331055,0.9941406,2.5795898,2.3125
			c0.1577148,1.4238281-0.8725586,2.7119141-2.2958984,2.8701172c-1.4462891,0.1611328-2.7133789-0.8857422-2.8696289-2.2958984
			C10.8616486,24.0271835,11.8914337,22.7400742,13.3152618,22.581871z M16.6468048,24.8875351l1.375,0.4082031
			c-0.0756836,0.0390625-0.1425781,0.09375-0.1962891,0.1611328c-0.1074219,0.1347656-0.1557617,0.3027344-0.1362305,0.4716797
			c0.0166016,0.1513672,0.0854492,0.2851563,0.1875,0.3847656l-1.4594727,0.0273438
			C16.5652618,25.9900742,16.6975861,25.3933945,16.6468048,24.8875351z M19.1863556,25.6775742
			c-0.0151367-0.0820313-0.0463867-0.1640625-0.0947266-0.25c0.0483398-0.1152344,0.0712891-0.2294922,0.0693359-0.3398438
			c-0.0009766-0.0703125-0.0112305-0.1416016-0.0302734-0.2119141c0.081543-0.1132813,0.1333008-0.234375,0.1533203-0.359375
			c0.0058594-0.0361328,0.0063477-0.0722656,0.0048828-0.1074219c0.1665039-0.1054688,0.2915039-0.2617188,0.3554688-0.4453125
			c0.0087891-0.0253906,0.0136719-0.0517578,0.0175781-0.0771484c0.184082-0.0751953,0.3349609-0.2080078,0.4282227-0.3779297
			c0.0185547-0.0322266,0.03125-0.0654297,0.0439453-0.1035156c0.1855469-0.0410156,0.3515625-0.1396484,0.4726563-0.2822266
			c0.0737305-0.0859375,0.128418-0.1923828,0.1635742-0.3144531c0.1567383-0.0283203,0.2910156-0.0908203,0.3994141-0.1875
			c0.1279297-0.1123047,0.2172852-0.2587891,0.2592773-0.4228516c0.0161133-0.0625,0.0239258-0.1289063,0.0229492-0.2041016
			c1.5498047-0.6103516,3.4326172-0.8642578,5.3828125-0.671875c0.0556641,0.265625,0.25,0.4833984,0.5126953,0.5664063
			c0.1455078,0.0449219,0.296875,0.046875,0.4443359,0.0029297c0.1054688-0.0302734,0.203125-0.0849609,0.2958984-0.1669922
			l0.1738281-0.1748047c1.3554688,0.3037109,2.5302734,0.8339844,3.3212891,1.5
			c-0.0136719,0.0839844-0.0126953,0.1699219,0.0039063,0.2597656c0.0087891,0.0537109,0.0214844,0.1005859,0.0371094,0.1425781
			c0.0117188,0.0302734,0.0224609,0.0585938,0.0380859,0.0869141c0.0449219,0.0869141,0.0976563,0.1552734,0.1601563,0.2109375
			c0.015625,0.0136719,0.0332031,0.0253906,0.0517578,0.0371094c0.0146484,0.1621094,0.0751953,0.3125,0.1787109,0.4375
			c0.0195313,0.0234375,0.0400391,0.0429688,0.0615234,0.0605469c-0.0751953,0.1933594-0.078125,0.4033203-0.0078125,0.5996094
			c0.0576172,0.1650391,0.1630859,0.3066406,0.3037109,0.4121094c0.0019531,0.0019531,0.0048828,0.0029297,0.0068359,0.0048828
			c-0.1660156,0.0458984-0.3144531,0.140625-0.4277344,0.2744141c-0.1513672,0.1767578-0.2236328,0.4023438-0.2050781,0.6337891
			c0.0136719,0.1738281,0.0791016,0.3378906,0.1884766,0.4765625c0.0195313,0.0244141,0.0410156,0.046875,0.0625,0.0683594
			c-1.1845703,1.3583984-3.6962891,2.2314453-6.4404297,2.2314453c-2.9614258,0-5.6210938-1.0087891-6.6635742-2.5166016
			C19.1458282,26.2654648,19.2429962,25.9695663,19.1863556,25.6775742z M27.779129,20.6297226
			c-0.0644531-0.0263672-0.1318359-0.0390625-0.2021484-0.0390625c-0.0332031,0-0.0654297,0.0029297-0.0966797,0.0087891
			l0.4921875-0.953125c0.1933594,0.2255859,0.5332031,0.5214844,0.8935547,0.6845703l-0.7402344,0.7402344
			C28.0965118,20.8748398,27.966629,20.7058945,27.779129,20.6297226z M34.7332306,25.2889023l-1.4169922-0.1992188
			c0.2011719-0.1523438,0.3017578-0.4169922,0.2333984-0.6767578c-0.0390625-0.1464844-0.1298828-0.2695313-0.2490234-0.3525391
			l1.4453125-0.2431641C34.6502228,24.1883163,34.607254,24.7986679,34.7332306,25.2889023z M34.3894806,20.7400742
			c0.0029297-0.0087891,0.0058594-0.0166016,0.0087891-0.0253906c0.0019531-0.0029297,0.0039063-0.0068359,0.0048828-0.0107422
			c0.0292969-0.078125,0.0703125-0.1591797,0.1308594-0.2558594c0.0097656-0.0166016,0.0214844-0.0341797,0.0371094-0.0566406
			c0.0683594-0.0976563,0.1259766-0.1679688,0.1875-0.2265625c0.0654297-0.0634766,0.1416016-0.1220703,0.2421875-0.1845703
			l0.0527344-0.0332031c0.0976563-0.0546875,0.1855469-0.0947266,0.2695313-0.1220703
			c0.0019531,0,0.0048828-0.0009766,0.0068359-0.0009766c0.0097656-0.0039063,0.0205078-0.0068359,0.0302734-0.0097656
			c-0.0761719,0.0419922-0.1494141,0.0878906-0.2197266,0.1367188
			C34.8377228,20.1609726,34.5847931,20.4285507,34.3894806,20.7400742z M33.263504,23.6277695
			c-0.0097656-0.1005859-0.0439453-0.1933594-0.1005859-0.2753906c-0.0693359-0.0996094-0.1679688-0.1748047-0.28125-0.2158203
			l1.0771484-0.6103516c0.03125,0.2626953,0.1259766,0.6210938,0.2773438,0.9365234L33.263504,23.6277695z M35.3806915,22.644371
			c-0.0361328-0.0097656-0.0722656-0.0214844-0.1083984-0.0341797c-0.0449219-0.0166016-0.0888672-0.0380859-0.1308594-0.0595703
			c-0.0498047-0.2138672-0.0566406-0.4238281-0.0205078-0.6230469c0.0761719-0.4248047,0.3134766-0.7949219,0.6679688-1.0429688
			c0.3535156-0.2451172,0.7919922-0.3427734,1.2099609-0.2636719c0.0458984,0.0078125,0.0898438,0.0224609,0.1328125,0.0361328
			l0.0078125,0.0029297c0.1191406,0.2871094,0.1445313,0.6074219,0.0712891,0.9121094
			c-0.0976563,0.015625-0.1923828,0.0361328-0.2841797,0.0605469C36.3250275,21.791832,35.7928009,22.1404648,35.3806915,22.644371z
			 M37.6560822,20.909996c0.0830078,0.0625,0.1621094,0.1357422,0.2412109,0.2216797
			c0.0097656,0.1347656,0.0039063,0.2646484-0.0185547,0.4082031c-0.0576172-0.0029297-0.1142578-0.0048828-0.171875-0.0048828
			c-0.0166016,0-0.0332031,0-0.0498047,0.0009766c0.03125-0.1904297,0.0332031-0.3837891,0.0068359-0.5742188
			C37.6619415,20.9451523,37.6590118,20.9285507,37.6560822,20.909996z M36.4705353,23.238121
			c0.2041016-0.1943359,0.4443359-0.3349609,0.7109375-0.4150391c-0.1630859,0.1425781-0.3447266,0.2587891-0.5410156,0.3457031
			C36.5808868,23.1951523,36.5252228,23.2176132,36.4705353,23.238121z M37.6375275,23.541832
			c-0.4052734,0.2802734-0.9345703,0.3603516-1.4130859,0.2089844c0.1923828-0.03125,0.3789063-0.0908203,0.5908203-0.1845703
			c0.2724609-0.1201172,0.5214844-0.2880859,0.7421875-0.4990234c0.1044922-0.1005859,0.1943359-0.2138672,0.2646484-0.3095703
			c0.1279297,0.0087891,0.2568359,0.0302734,0.3828125,0.0664063C38.0867462,23.1180038,37.8914337,23.3650742,37.6375275,23.541832
			z M35.9500275,24.1140976c0.6464844,0.2617188,1.3789063,0.1699219,1.9355469-0.2158203
			c0.3232422-0.2255859,0.5712891-0.5390625,0.7216797-0.9121094c0.0029297,0.0019531,0.0068359,0.0039063,0.0107422,0.0058594
			c0.0732422,0.0419922,0.1455078,0.0927734,0.21875,0.1513672c-0.171875,0.3955078-0.4462891,0.7324219-0.7978516,0.9765625
			c-0.1103516,0.0771484-0.234375,0.1464844-0.3779297,0.2099609c-0.1455078-0.0185547-0.2685547-0.0273438-0.3837891-0.0273438
			c-0.3496094,0-0.6972656,0.0615234-1.0341797,0.1845703c-0.1123047-0.0234375-0.2275391-0.0576172-0.34375-0.1025391
			C35.9090118,24.2937851,35.9256134,24.2039413,35.9500275,24.1140976z M38.2869415,24.4764023
			c0.3632813-0.2519531,0.6601563-0.5947266,0.8671875-0.9970703c0.1455078,0.1904297,0.2480469,0.3974609,0.3076172,0.6181641
			c0.0947266,0.3574219,0.0751953,0.7285156-0.0566406,1.0830078c-0.3193359-0.3154297-0.7011719-0.5546875-1.1201172-0.7021484
			C38.285965,24.4773788,38.2869415,24.4773788,38.2869415,24.4764023z M37.7327423,22.4206161l0.0004883-0.0018311
			l0.0002441,0.0018921C37.7332306,22.4206161,37.7329865,22.4206772,37.7327423,22.4206161z M39.8806915,23.9861679
			c-0.1542969-0.5820313-0.5263672-1.0683594-1.0449219-1.3691406c-0.078125-0.0458984-0.1640625-0.0878906-0.2636719-0.1289063
			c-0.0107422-0.0068359-0.0234375-0.0117188-0.0371094-0.0146484c-0.2490234-0.0966797-0.5136719-0.1474609-0.7861328-0.1533203
			c-0.0195313-0.0039063-0.0302734-0.0068359-0.0625,0c-0.2138672,0.0009766-0.3925781,0.0224609-0.5595703,0.0673828
			c-0.5712891,0.1513672-1.0527344,0.5185547-1.3574219,1.0361328c-0.0136719,0.0185547-0.0195313,0.0351563-0.0214844,0.0429688
			c-0.0341797,0.0605469-0.0625,0.125-0.0888672,0.1904297l-0.0048828,0.0107422
			c-0.0146484,0.0126953-0.0292969,0.0283203-0.0341797,0.0390625c-0.015625,0.0292969-0.0185547,0.0576172-0.0185547,0.0810547
			c-0.1347656,0.3583984-0.1767578,0.7402344-0.1220703,1.109375c-0.1132813,0.0839844-0.2216797,0.1767578-0.3232422,0.2773438
			c-0.1113281-0.4287109-0.0644531-1,0.0224609-1.2880859c0.0126953-0.015625,0.0273438-0.0380859,0.0302734-0.0517578
			c0.0146484-0.0478516,0.0302734-0.0966797,0.0478516-0.1455078c0.2880859-0.8056641,0.9541016-1.4179688,1.78125-1.6376953
			c0.6650391-0.1738281,1.3779297-0.0800781,1.9716797,0.265625c0.6005859,0.3486328,1.0283203,0.9101563,1.2060547,1.5800781
			c0.1796875,0.6738281,0.0771484,1.3886719-0.2783203,1.9873047c-0.0634766-0.1162109-0.1357422-0.2285156-0.2138672-0.3359375
			C39.9627228,25.0584335,40.0193634,24.5056992,39.8806915,23.9861679z M38.6941681,21.698082
			c-0.0625-0.2421875-0.1611328-0.4628906-0.2958984-0.6572266c-0.2480469-0.3554688-0.6005859-0.6191406-1.0029297-0.7548828
			c-0.0234375-0.0126953-0.0449219-0.0175781-0.0488281-0.0175781c0,0,0,0,0,0.0009766l-0.0283203-0.0097656
			c-0.0771484-0.0253906-0.15625-0.0507813-0.2421875-0.0664063c-0.5351563-0.0947266-1.0859375,0.0234375-1.5332031,0.3359375
			c-0.4501953,0.3125-0.7519531,0.78125-0.8496094,1.3212891c-0.0507813,0.2851563-0.0361328,0.5791016,0.0390625,0.8476563
			c0,0.0458984,0.015625,0.0800781,0.0195313,0.0800781c0.0556641,0.1904297,0.1259766,0.3554688,0.2148438,0.5009766
			c-0.0117188,0.0234375-0.0234375,0.0458984-0.0341797,0.0693359c-0.0087891,0.0009766-0.0253906,0.0019531-0.0292969,0.0029297
			l-0.1933594,0.0322266c-0.6113281-1.0419922-0.3203125-2.3818359,0.6777344-3.0761719
			c0.3925781-0.2734375,0.8496094-0.4179688,1.3212891-0.4179688c0.1376953,0,0.2773438,0.0126953,0.4150391,0.0380859
			c0.609375,0.1103516,1.1416016,0.4511719,1.4960938,0.9589844c0.1914063,0.2763672,0.3203125,0.5976563,0.3769531,0.9365234
			C38.89534,21.7742538,38.7937775,21.7322617,38.6941681,21.698082z M36.5369415,19.472496
			c-0.0019531-0.0009766-0.0029297-0.0019531-0.0048828-0.0019531c-0.2392578-0.1025391-0.4912109-0.1542969-0.75-0.1542969
			c-0.4951172,0-0.9658203,0.1904297-1.3261719,0.5361328c-0.0732422,0.0722656-0.1347656,0.1416016-0.1884766,0.2109375
			c-0.0195313,0.0263672-0.0371094,0.0537109-0.0537109,0.0810547l-0.046875,0.0703125
			c-0.0185547,0.0273438-0.0371094,0.0537109-0.0507813,0.0810547c-0.0341797,0.0605469-0.0625,0.125-0.0986328,0.2080078
			c-0.0068359,0.0136719-0.0136719,0.0283203-0.0175781,0.0400391c-0.0273438,0.0693359-0.0507813,0.1474609-0.0712891,0.2353516
			c-0.0009766,0.0029297-0.0078125,0.0234375-0.0087891,0.0263672c-0.0800781,0.3544922-0.0566406,0.7226563,0.0673828,1.0673828
			v0.0019531c-0.0068359,0.0488281-0.0136719,0.0986328-0.0185547,0.1474609
			c-0.0039063,0.0019531-0.0087891,0.0039063-0.0136719,0.0068359l-0.1074219,0.0615234
			c-0.1708984-0.3808594-0.2246094-0.7978516-0.15625-1.2138672l-0.0986328-0.0166016l0.1064453-0.0175781
			c0.0195313-0.1083984,0.0429688-0.2011719,0.0703125-0.2861328c0.0048828-0.0146484,0.0117188-0.0292969,0.0175781-0.0439453
			c0.0068359-0.0146484,0.0136719-0.0292969,0.0195313-0.0449219c0.0273438-0.0742188,0.0556641-0.1484375,0.0917969-0.2177734
			c0.0166016-0.0332031,0.0371094-0.0634766,0.0566406-0.09375L34.02034,20.050621
			c0.0185547-0.03125,0.0371094-0.0615234,0.0576172-0.0908203c0.0722656-0.0966797,0.1494141-0.1845703,0.2304688-0.2626953
			c0.3974609-0.3837891,0.9199219-0.5947266,1.4726563-0.5947266h0.0400391
			c0.1318359,0.0029297,0.2685547,0.0195313,0.4052734,0.0478516c0.1015625,0.0214844,0.2109375,0.0566406,0.3339844,0.1054688
			c0.0097656,0.0039063,0.0205078,0.0068359,0.0419922,0.0136719c0.1289063,0.0556641,0.2529297,0.1230469,0.3681641,0.2021484
			C36.83284,19.4607773,36.6844025,19.463707,36.5369415,19.472496z M32.7000275,22.7410507
			c-0.0664063-0.0595703-0.1445313-0.1015625-0.2294922-0.125l0.8417969-0.6728516
			c0.0126953,0.0410156,0.0283203,0.0878906,0.046875,0.1386719c0.0263672,0.0742188,0.0595703,0.1513672,0.0966797,0.2304688
			L32.7000275,22.7410507z M33.2996368,26.1248398c0-0.1533203-0.0537109-0.2939453-0.1455078-0.4033203l1.4550781,0.1347656
			c-0.1875,0.3330078-0.3857422,0.9121094-0.3886719,1.4179688l-1.3193359-0.5546875
			C33.1345978,26.6228867,33.2996368,26.3933945,33.2996368,26.1248398z M33.3167267,21.5182724
			c-0.0002441,0.000061-0.0004883,0.0001221-0.0004883,0.0001831l-0.0009766-0.0020142L33.3167267,21.5182724z"/>
	</g>
</g>
</svg>
