<?xml version="1.0" encoding="utf-8"?>
<!-- Generator: Adobe Illustrator 18.0.0, SVG Export Plug-In . SVG Version: 6.00 Build 0)  -->
<!DOCTYPE svg PUBLIC "-//W3C//DTD SVG 1.1//EN" "http://www.w3.org/Graphics/SVG/1.1/DTD/svg11.dtd">
<svg version="1.1" id="Layer_1" xmlns="http://www.w3.org/2000/svg" xmlns:xlink="http://www.w3.org/1999/xlink" x="0px" y="0px"
	 width="50px" height="50px" viewBox="0 0 50 50" enable-background="new 0 0 50 50" xml:space="preserve">
<g>
	<path fill="#679D97" d="M25.0010605,0.0000008c1.5088634,0,2.9877415,0.1331171,4.4236488,0.3907273h0.0022106
		c10.5086842,1.8780837,18.7443714,10.3219042,20.3047924,20.9400978c0.1780624,1.1975937,0.2682953,2.4210739,0.2682953,3.6681442
		C50.0000076,38.8066406,38.8065414,50,25.0010605,50C11.1933661,50,0.0000082,38.8066406,0.0000082,24.99897
		C0.0000082,11.1912756,11.1933661,0.0000008,25.0010605,0.0000008z"/>
	<path opacity="0.4" fill="#736357" d="M41.0737724,28.5389652c-0.2662888,0.3435898-9.5334949,10.5920353-10.0409107,11.1837292
		l-8.4903889,10.005249l-0.0022049,0.0001793c-10.6269207-1.0139885-19.524395-8.7573471-21.9463711-19.2127266l8.2331047-9.0543613
		"/>
	<g>
		<rect x="8.9003944" y="21.4610348" fill="#221F1E" width="32.1992264" height="7.0779314"/>
		<rect x="10.2906685" y="21.4610348" fill="#EED9AE" width="3.6655226" height="7.0779314"/>
		<circle fill="#221F1E" cx="12.1234293" cy="25" r="0.6320133"/>
		<rect x="17.5269661" y="22.4613457" fill="#EED9AE" width="0.1895215" height="5.0558033"/>
		<rect x="21.4453068" y="22.4613457" fill="#EED9AE" width="0.1895215" height="5.0558033"/>
		<rect x="25.3633118" y="22.4613457" fill="#EED9AE" width="0.1895215" height="5.0558033"/>
		<rect x="29.2816505" y="22.4613457" fill="#EED9AE" width="0.1895215" height="5.0558033"/>
		<rect x="33.1996574" y="22.4613457" fill="#EED9AE" width="0.1895215" height="5.0558033"/>
		<polygon fill="#EED9AE" points="37.307518,27.6543007 37.1179962,27.517149 37.1179962,22.4613457 37.307518,22.4613457 		"/>
		<g>
			<polygon fill="#EED9AE" points="14.0254402,22.2509289 14.0254402,22.4404507 14.4992447,22.4404507 14.4992447,23.609724 
				14.6887655,23.609724 14.6887655,22.4404507 15.2576647,22.4404507 15.2576647,23.609724 15.4471865,23.609724 
				15.4471865,22.4404507 16.0160866,22.4404507 16.0160866,23.609724 16.2056065,23.609724 16.2056065,22.4404507 
				16.7745075,22.4404507 16.7745075,23.609724 16.9640274,23.609724 16.9640274,22.4404507 18.2910137,22.4404507 
				18.2910137,23.609724 18.4805355,23.609724 18.4805355,22.4404507 19.0494347,22.4404507 19.0494347,23.609724 
				19.2389545,23.609724 19.2389545,22.4404507 19.8078556,22.4404507 19.8078556,23.609724 19.9973755,23.609724 
				19.9973755,22.4404507 20.5662746,22.4404507 20.5662746,23.609724 20.7557964,23.609724 20.7557964,22.4404507 
				22.0831165,22.4404507 22.0831165,23.609724 22.2726383,23.609724 22.2726383,22.4404507 22.8415375,22.4404507 
				22.8415375,23.609724 23.0310593,23.609724 23.0310593,22.4404507 23.5996227,22.4404507 23.5996227,23.609724 
				23.7891445,23.609724 23.7891445,22.4404507 24.3580437,22.4404507 24.3580437,23.609724 24.5475655,23.609724 
				24.5475655,22.4404507 26.0962181,22.4404507 26.0962181,23.609724 26.285738,23.609724 26.285738,22.4404507 
				26.8543034,22.4404507 26.8543034,23.609724 27.0438251,23.609724 27.0438251,22.4404507 27.6127243,22.4404507 
				27.6127243,23.609724 27.8022461,23.609724 27.8022461,22.4404507 28.3711452,22.4404507 28.3711452,23.609724 
				28.560667,23.609724 28.560667,22.4404507 29.9194622,22.4404507 29.9194622,23.609724 30.1089821,23.609724 
				30.1089821,22.4404507 30.6778831,22.4404507 30.6778831,23.609724 30.867403,23.609724 30.867403,22.4404507 
				31.4363022,22.4404507 31.4363022,23.609724 31.625824,23.609724 31.625824,22.4404507 32.1943893,22.4404507 
				32.1943893,23.609724 32.3839111,23.609724 32.3839111,22.4404507 33.806324,22.4404507 33.806324,23.609724 
				33.9958458,23.609724 33.9958458,22.4404507 34.5647469,22.4404507 34.5647469,23.609724 34.7542686,23.609724 
				34.7542686,22.4404507 35.322834,22.4404507 35.322834,23.609724 35.5123558,23.609724 35.5123558,22.4404507 
				36.0812531,22.4404507 36.0812531,23.609724 36.2707748,23.609724 36.2707748,22.4404507 37.5662842,22.4404507 
				37.5662842,23.609724 37.755806,23.609724 37.755806,22.4404507 38.324707,22.4404507 38.324707,23.609724 38.514225,23.609724 
				38.514225,22.4404507 39.0831261,22.4404507 39.0831261,23.609724 39.2726479,23.609724 39.2726479,22.4404507 
				39.8412132,22.4404507 39.8412132,23.609724 40.030735,23.609724 40.030735,22.4404507 41.0737724,22.4404507 
				41.0737724,22.2509289 			"/>
			<polygon fill="#EED9AE" points="40.030735,26.3273163 39.8412132,26.3273163 39.8412132,27.433136 39.2726479,27.433136 
				39.2726479,26.3273163 39.0831261,26.3273163 39.0831261,27.433136 38.514225,27.433136 38.514225,26.3273163 
				38.324707,26.3273163 38.324707,27.433136 37.755806,27.433136 37.755806,26.3273163 37.5662842,26.3273163 
				37.5662842,27.433136 36.2707748,27.433136 36.2707748,26.3273163 36.0812531,26.3273163 36.0812531,27.433136 
				35.5123558,27.433136 35.5123558,26.3273163 35.322834,26.3273163 35.322834,27.433136 34.7542686,27.433136 
				34.7542686,26.3273163 34.5647469,26.3273163 34.5647469,27.433136 33.9958458,27.433136 33.9958458,26.3273163 
				33.806324,26.3273163 33.806324,27.433136 32.3839111,27.433136 32.3839111,26.3273163 32.1943893,26.3273163 
				32.1943893,27.433136 31.625824,27.433136 31.625824,26.3273163 31.4363022,26.3273163 31.4363022,27.433136 
				30.867403,27.433136 30.867403,26.3273163 30.6778831,26.3273163 30.6778831,27.433136 30.1089821,27.433136 
				30.1089821,26.3273163 29.9194622,26.3273163 29.9194622,27.433136 28.560667,27.433136 28.560667,26.3273163 
				28.3711452,26.3273163 28.3711452,27.433136 27.8022461,27.433136 27.8022461,26.3273163 27.6127243,26.3273163 
				27.6127243,27.433136 27.0438251,27.433136 27.0438251,26.3273163 26.8543034,26.3273163 26.8543034,27.433136 
				26.285738,27.433136 26.285738,26.3273163 26.0962181,26.3273163 26.0962181,27.433136 24.5475655,27.433136 
				24.5475655,26.3273163 24.3580437,26.3273163 24.3580437,27.433136 23.7891445,27.433136 23.7891445,26.3273163 
				23.5996227,26.3273163 23.5996227,27.433136 23.0310593,27.433136 23.0310593,26.3273163 22.8415375,26.3273163 
				22.8415375,27.433136 22.2726383,27.433136 22.2726383,26.3273163 22.0831165,26.3273163 22.0831165,27.433136 
				20.7557964,27.433136 20.7557964,26.3273163 20.5662746,26.3273163 20.5662746,27.433136 19.9973755,27.433136 
				19.9973755,26.3273163 19.8078556,26.3273163 19.8078556,27.433136 19.2389545,27.433136 19.2389545,26.3273163 
				19.0494347,26.3273163 19.0494347,27.433136 18.4805355,27.433136 18.4805355,26.3273163 18.2910137,26.3273163 
				18.2910137,27.433136 16.9640274,27.433136 16.9640274,26.3273163 16.7745075,26.3273163 16.7745075,27.433136 
				16.2056065,27.433136 16.2056065,26.3273163 16.0160866,26.3273163 16.0160866,27.433136 15.4471865,27.433136 
				15.4471865,26.3273163 15.2576647,26.3273163 15.2576647,27.433136 14.6887655,27.433136 14.6887655,26.3273163 
				14.4992447,26.3273163 14.4992447,27.433136 14.0254402,27.433136 14.0254402,27.6226578 41.0737724,27.6226578 
				41.0737724,27.433136 40.030735,27.433136 			"/>
		</g>
		<g>
			<g>
				<path fill="#EED9AE" d="M14.9059792,24.9077454v0.0053577l0.1677561,0.3063831l-0.1821547,0.0472126l-0.2082729-0.384903
					l-0.001339-0.2037525l1.766634-0.010046l0.0013409,0.2310429L14.9059792,24.9077454z"/>
			</g>
		</g>
		<g>
			<g>
				<path fill="#EED9AE" d="M20.24506,25.417881l-0.1469955,0.0008354l-0.1831608-0.1863403
					c-0.4319477-0.4488564-0.6613159-0.6511021-0.9278507-0.6522751c-0.1794758,0.0010052-0.3445549,0.0887337-0.3432159,0.3524227
					c0.0010052,0.1603909,0.0833778,0.2929897,0.1516857,0.3741894l-0.1680927,0.077013
					c-0.1038017-0.1217155-0.1811504-0.2951641-0.1821537-0.4989166c-0.0023441-0.3803825,0.2578297-0.5422802,0.5106354-0.543787
					c0.3261375-0.0018406,0.5909996,0.2330513,0.9519615,0.6032219l0.131258,0.1406345h0.0053577l-0.0043526-0.7935791
					l0.1982269-0.001173L20.24506,25.417881z"/>
			</g>
		</g>
		<g>
			<g>
				<path fill="#EED9AE" d="M23.7615871,25.362463c0.0431957-0.06814,0.1104984-0.2261868,0.1094933-0.3919334
					c-0.0016727-0.3072186-0.1982269-0.40131-0.3448887-0.3977947c-0.2471142,0.0043526-0.3519192,0.2276936-0.3505802,0.4587364
					l0.0006695,0.1331005l-0.179142,0.0010033l-0.0010033-0.1331005c-0.0010052-0.1739502-0.0917473-0.3936081-0.3010254-0.3922691
					c-0.141304,0.0006695-0.2658653,0.0910778-0.2645264,0.3112373c0.0006695,0.1414719,0.0639553,0.2769165,0.1188698,0.3527584
					l-0.1737843,0.0634518c-0.0683079-0.0920811-0.1372852-0.2710552-0.1382904-0.4614143
					c-0.0020084-0.3477345,0.2035847-0.5064507,0.4182205-0.5076218c0.1821537-0.0010052,0.3375225,0.1066475,0.4178848,0.3236256
					h0.0053577c0.0421886-0.2176476,0.2042542-0.3952827,0.4513683-0.3966217
					c0.282608-0.0016747,0.5313969,0.2171459,0.533741,0.641058c0.001339,0.1983948-0.0602722,0.3726807-0.1168613,0.4599075
					L23.7615871,25.362463z"/>
			</g>
		</g>
		<g>
			<g>
				<path fill="#EED9AE" d="M27.8242455,24.6787968l-0.4808369,0.0026779l0.0046883,0.8207016l-0.157711,0.0008373
					l-1.1324406-0.7815247l-0.0016747-0.2581635l1.0979519-0.0063629l-0.001339-0.247282l0.1878471-0.0010052l0.001339,0.247282
					l0.480835-0.0026779L27.8242455,24.6787968z M27.1555614,24.6824799l-0.5896587,0.0035152
					c-0.0924168,0.0005035-0.1848335-0.0018406-0.2772503-0.0066967v0.0082035
					c0.103466,0.0537434,0.1798115,0.0967712,0.2618465,0.145155l0.603054,0.428936l0.0053577-0.0001678L27.1555614,24.6824799z"/>
			</g>
		</g>
		<g>
			<g>
				<path fill="#EED9AE" d="M30.0489464,24.3726654l0.0036831,0.6738739l0.4543819,0.0652943
					c-0.0056915-0.0408516-0.011385-0.0786877-0.0117188-0.1439838c-0.0006695-0.1359463,0.0284615-0.2718925,0.0927505-0.381218
					c0.0783539-0.1387939,0.2297039-0.2538128,0.4527092-0.2551517c0.3452244-0.0020084,0.6047268,0.2708893,0.6070709,0.6541176
					c0.0010052,0.193037-0.0525703,0.3564415-0.1064796,0.4409885l-0.1821556-0.0587654
					c0.0431957-0.0734978,0.0967693-0.2179832,0.0957661-0.3783722c-0.001339-0.2255173-0.1493416-0.4177189-0.3857403-0.416378
					c-0.228363,0.0041847-0.3904285,0.1572075-0.3884182,0.5104675c0.0006695,0.1006222,0.0117188,0.1794777,0.0204258,0.2446041
					l-0.8484936-0.1093273l-0.005024-0.8449764L30.0489464,24.3726654z"/>
			</g>
		</g>
		<g>
			<g>
				<path fill="#EED9AE" d="M33.8082352,24.4190426c-0.002346,0.0488873,0.0006676,0.1111679,0.0117188,0.1789722
					c0.0649605,0.374691,0.3405342,0.571579,0.6315155,0.6107559v-0.0082035
					c-0.1118393-0.0835438-0.2052612-0.2298698-0.2062645-0.4255867c-0.0016747-0.3124084,0.2223358-0.5339088,0.5675621-0.5359173
					c0.3234558-0.0018406,0.6238136,0.2166443,0.6258202,0.5834656c0.002346,0.3778706-0.2899742,0.6268272-0.7490425,0.6295052
					c-0.3479042,0.0020084-0.6234818-0.1215477-0.7982674-0.2944946c-0.144989-0.1458244-0.235733-0.3410378-0.2641945-0.5638771
					c-0.0110474-0.070652-0.0143967-0.1302528-0.0147324-0.1736164L33.8082352,24.4190426z M34.8278351,24.4809875
					c-0.2528076,0.001339-0.4041595,0.1463261-0.4028206,0.3664875c0.0006714,0.1439819,0.0910797,0.2767467,0.219326,0.3410378
					c0.0271225,0.0162392,0.0626144,0.0269547,0.106144,0.0267868c0.2906456-0.0071983,0.5049438-0.1416378,0.5032692-0.3917675
					C35.2527504,24.6169338,35.0806389,24.4794807,34.8278351,24.4809875z"/>
			</g>
		</g>
		<g>
			<g>
				<path fill="#EED9AE" d="M37.9452286,24.2813377l0.1573753-0.0008373l1.6136093,0.7597599l0.0013428,0.247282l-1.56707-0.7575836
					h-0.0053558l0.0046844,0.864399l-0.1982269,0.0011711L37.9452286,24.2813377z"/>
			</g>
		</g>
	</g>
	<path fill="#4C1C1C" d="M34.2316055,21.5286102c0-4.0644798-2.859911-7.46099-6.6771774-8.2869759l1.7965584-2.2614899
		L28.0453663,9.642149l-4.407156,0.0027552l-1.3318272,1.3362551l1.7723236,2.233922
		c-3.8808918,0.7772102-6.8046532,4.2039309-6.8046532,8.313529 M23.2819099,11.0311575l0.6639519-0.6587381l3.7860928,0.002656
		l0.6452904,0.6521587l-1.5028,1.8917093l-0.1411266,0.1869736c-0.3216934-0.0370436-0.6488705-0.0560808-0.9804878-0.0560808
		c-0.2788544,0-0.5545616,0.0134611-0.8265133,0.0397692l-0.1463127-0.1701765L23.2819099,11.0311575z M18.0448513,21.5286102
		c0-4.2569981,3.4509773-7.7079773,7.7079792-7.7079773c4.2569962,0,7.7079773,3.4509792,7.7079773,7.7079773"/>
</g>
</svg>
