<?xml version="1.0" encoding="utf-8"?>
<!-- Generator: Adobe Illustrator 18.0.0, SVG Export Plug-In . SVG Version: 6.00 Build 0)  -->
<!DOCTYPE svg PUBLIC "-//W3C//DTD SVG 1.1//EN" "http://www.w3.org/Graphics/SVG/1.1/DTD/svg11.dtd">
<svg version="1.1" id="Layer_1" xmlns="http://www.w3.org/2000/svg" xmlns:xlink="http://www.w3.org/1999/xlink" x="0px" y="0px"
	 width="50px" height="50px" viewBox="0 0 50 50" enable-background="new 0 0 50 50" xml:space="preserve">
<path fill="#679D97" d="M25.0010567,0.0000008c1.5088634,0,2.9877415,0.1331171,4.4236488,0.3907273h0.0022106
	c10.5086842,1.8780837,18.7443714,10.3219042,20.3047924,20.9400978c0.1780624,1.1975937,0.2682953,2.4210739,0.2682953,3.6681442
	C50.0000038,38.8066406,38.8065414,50,25.0010567,50C11.1933632,50,0.0000049,38.8066406,0.0000049,24.99897
	C0.0000049,11.1912756,11.1933632,0.0000008,25.0010567,0.0000008z"/>
<path opacity="0.4" fill="#736357" d="M31.2407703,39.0610962c0.0238247,0.2908897-0.028286,0.5751877-0.1408844,0.8298492
	l-8.4903908,10.005249l-0.002203,0.0001831c-10.6269217-1.0139923-19.524395-8.7573509-21.946373-19.2127304L20.8156128,6.9998198
	c0.0212326-0.0039573,0.3125668-0.1238785,0.3339806-0.1256323L21.3694,6.8345485
	c0.7358704-0.0602703,1.6375427,0.458209,1.697813,1.1940789l0.17066,6.9842215
	c0.0462494,0.5646887-0.1212959,2.4325647-0.1212959,2.8260679l0.0139771,0.4471626
	c0.0940895,1.1487827-0.2695637,3.8550472,0.6796875,4.5074024l0.5008221,3.9708061"/>
<g>
	<path fill="#FFDB81" d="M23.1165771,8.4164543v9.7913208c0-0.9294033,0.7963066-1.6720295,1.7449856-1.5819035
		c0.8241673,0.0794373,1.4316158,0.8199825,1.4316158,1.6506538v0.7082615c0-0.9293842,0.7984962-1.6720314,1.7449856-1.5819035
		c0.8263798,0.0794353,1.4338264,0.8199806,1.4338264,1.6505661v0.9787502h0.1223011
		c0.0665379-0.4678459,0.3370457-0.8714314,0.7212486-1.1139507c0.2853832-0.1867561,0.6353283-0.278986,1.0066528-0.24473
		c0.8262711,0.0794582,1.4337196,0.8200035,1.4337196,1.650568v7.289196c0,0-0.2489166,1.6784496-1.6698437,3.6810226
		c-0.5065231,0.7147655-0.7748222,1.5733204-0.7748222,2.4489574v1.1225586h-9.3776264v-1.2534676
		c0-1.152626-0.5194035-2.2450924-1.4122334-2.9727592l-0.07304-0.0600338
		c-0.5129223-0.4185867-0.882143-0.9830647-1.0581017-1.6226864c-0.440073-1.6012001-1.2384624-4.6683788-1.135458-5.4410973
		c0.1373043-1.0281162,1.0752945-2.7860031,2.6829758-2.6915627V8.485096c0-0.2918653,0.0751457-0.5709591,0.2081566-0.8155823
		c0.1523724-0.2854691,0.3864136-0.5215936,0.669693-0.6696939C20.9829884,6.911798,21.1697445,6.8538241,21.3694,6.8345485
		C22.318079,6.7444234,23.1165771,7.4870486,23.1165771,8.4164543z"/>
</g>
<path d="M30.6113262,35.1660156h-9.9775391v-1.5537109c0-1.0673828-0.4746094-2.0654297-1.3017578-2.7402344l-0.074707-0.0615234
	c-0.5629883-0.4589844-0.9633789-1.0722656-1.15625-1.7734375c-0.5791016-2.1074219-1.2470703-4.7832031-1.1435547-5.5610352
	c0.1533203-1.1499023,1.105957-2.8310547,2.6806641-2.9487305V8.4848633c0-0.3334961,0.0844727-0.6655273,0.2441406-0.9589844
	c0.1801758-0.3364258,0.4624023-0.6186523,0.7944336-0.7919922c0.2050781-0.1079102,0.4287109-0.1748047,0.6635742-0.1977539
	c1.1547852-0.1118164,2.0761719,0.777832,2.0761719,1.8803711v8.4111328
	c0.3793945-0.3540039,0.9091797-0.5541992,1.4731445-0.5004883c0.762207,0.0732422,1.3925781,0.6333008,1.6162109,1.3652344
	c0.3828125-0.4086914,0.9453125-0.6499023,1.5605469-0.5883789c0.9355469,0.090332,1.671875,0.9106445,1.7041016,1.8823242
	c0.1123047-0.1225586,0.2412109-0.230957,0.3847656-0.3217773c0.3427734-0.2250977,0.7548828-0.3295898,1.1943359-0.2900391
	c0.9570332,0.0922852,1.7060566,0.9487305,1.7060566,1.949707v7.2890625
	c-0.0136719,0.1152344-0.2792969,1.8173828-1.7246113,3.8544922c-0.4707031,0.6630859-0.7197266,1.4501953-0.7197266,2.2753906
	V35.1660156z M21.2333965,34.5664063h8.7783203v-0.8232422c0-0.9501953,0.2871094-1.8574219,0.8291016-2.6230469
	c1.3574238-1.9121094,1.6162128-3.5351563,1.618166-3.5517578l-0.0029297-7.2441406
	c0-0.6953125-0.5107441-1.2895508-1.1621113-1.3520508c-0.2910156-0.0292969-0.578125,0.0424805-0.8144531,0.1972656
	c-0.3222656,0.2036133-0.5351563,0.5322266-0.5878906,0.9047852l-0.0361328,0.2578125h-0.6835938v-1.2788086
	c0-0.6953125-0.5107422-1.2890625-1.1621094-1.3515625c-0.7695313-0.0830078-1.4169922,0.5302734-1.4169922,1.2832031h-0.5996094
	v-0.7084961c0-0.6958008-0.5097656-1.2895508-1.1606445-1.3515625c-0.7578125-0.0849609-1.4165039,0.5297852-1.4160156,1.2832031
	h-0.5996094V8.4165039c0-0.7524414-0.6430664-1.3652344-1.4189453-1.2832031
	c-0.15625,0.0151367-0.3051758,0.0595703-0.4423828,0.1318359c-0.2270508,0.1186523-0.4204102,0.3125-0.5449219,0.5458984
	c-0.1132813,0.2075195-0.1728516,0.4399414-0.1728516,0.6738281v12.6572266l-0.4233398-0.0214844
	c-1.3691406,0-2.1489258,1.5859375-2.262207,2.4345703c-0.0683594,0.5141602,0.3530273,2.503418,1.1269531,5.3227539
	c0.1601563,0.5800781,0.4916992,1.0878906,0.9584961,1.46875l0.074707,0.0615234
	c0.9663086,0.7880859,1.5209961,1.9560547,1.5209961,3.2041016V34.5664063z"/>
<path fill="#CAAA5D" d="M31.2939434,18.972168c0.826273,0.0794582,1.1608944,0.697813,1.1608944,1.5283756l0.0041466,7.0678158
	c0,0-0.3505592,1.8248997-1.7714844,3.8274746c-0.506525,0.7147655-0.6757832,1.471693-0.6757832,2.3473301V34.375
	C30.5117378,34.5660477,30,35.4125862,30,35.9791679L30.020834,37.125l-2.1178703-0.119194l-1.1805096-2.1399841
	c0,0,0.0343857-0.066452,0.0987339-0.1909637c0.6954708-1.3651619,4.8848209-9.4863434,3.5605049-15.4318638
	C30.6670761,19.0562382,30.9226208,18.937912,31.2939434,18.972168z"/>
<path opacity="0.6" fill="#FAF2F0" d="M20.7731571,20.3853874c0-3.107317,0-6.214654,0-9.3219709
	c0-2.2726974-0.4237175-2.2731266-0.4237175,0c0,3.107317,0,6.214654,0,9.3219709
	C20.3494396,20.6580849,20.7731571,20.658514,20.7731571,20.3853874L20.7731571,20.3853874z"/>
<path opacity="0.6" fill="#FAF2F0" d="M21.675518,33.4115601c0.2230301-1.1705475-0.2144241-2.0672646-0.8900833-3.0117359
	c-0.5758095-0.8048077-1.1958141-1.4720745-1.5264854-2.4227505c-0.3583164-1.03022-0.4741135-2.1289959-0.4776764-3.2133904
	c-0.0009441-0.2726116-0.4246845-0.2731266-0.4237385,0c0.0042057,1.2676964,0.1501808,2.5842438,0.6573296,3.7595158
	c0.7012424,1.624876,2.6296387,2.7944813,2.2520256,4.7756977C21.2161713,33.5654144,21.6244774,33.6795387,21.675518,33.4115601
	L21.675518,33.4115601z"/>
<path fill="#105B63" d="M21.4144535,34.6748581h8.4159622c0.1695633,0,0.3326454,0.0321732,0.4808311,0.0901489
	c0.500021,0.1910477,0.8542595,0.6782761,0.8542595,1.2448578v3.824913c0,0.0213814,0,0.0428658-0.0022106,0.0643501
	c-0.0321732,0.6868858-0.5816479,1.2405663-1.2706356,1.2706375c-0.0214844,0.0022087-0.04076,0.0022087-0.0622444,0.0022087
	h-8.4159622c-0.7383347,0-1.3350925-0.5988617-1.3350925-1.3371964v-3.824913c0-0.5665817,0.3542385-1.0517082,0.8542595-1.2448578
	C21.0818062,34.7070313,21.2448883,34.6748581,21.4144535,34.6748581z"/>
<path d="M29.8300762,41.4716797h-8.4155273c-0.9013672,0-1.6347656-0.734375-1.6347656-1.6367188v-3.8251953
	c0-0.6699219,0.4199219-1.2832031,1.0454102-1.5253906c0.1879883-0.0722656,0.3867188-0.109375,0.5893555-0.109375h8.4155273
	c0.203125,0,0.4013672,0.0371094,0.5898438,0.1103516c0.625,0.2382813,1.0449219,0.8515625,1.0449219,1.5244141
	l-0.0029297,3.9169922c-0.0390625,0.8369141-0.7080078,1.5058594-1.5566406,1.5429688L29.8300762,41.4716797z
	 M21.4145489,34.9746094c-0.128418,0-0.253418,0.0234375-0.3725586,0.0693359
	c-0.3964844,0.1533203-0.6625977,0.5419922-0.6625977,0.9658203v3.8251953c0,0.5712891,0.4643555,1.0371094,1.0351563,1.0371094
	h8.4155273v0.2998047l0.0351563-0.3007813c0.5498047-0.0244141,0.9726563-0.4482422,0.9980469-0.9853516l0.0019531-3.8759766
	c0-0.4257813-0.265625-0.8134766-0.6611328-0.9648438c-0.1201172-0.046875-0.2451172-0.0703125-0.3740234-0.0703125H21.4145489z"/>
<path fill="#4C1C1C" d="M28.5682392,15.3565588c-0.2177734,0-0.4179688,0.0664063-0.75,0.1772461
	c-0.2080078,0.0698242-0.4824219,0.1611328-0.8652344,0.2719727c-0.3300781,0.0957031-0.5556641,0.0351563-0.9492188-0.0854492
	c-0.5068359-0.1547852-1.2001953-0.3666992-2.5996094-0.3666992c-0.0947266,0-0.1923828,0.0009766-0.2998047,0.0029297
	l-0.1474609,0.0019531c-0.0725098,0-0.1279297-0.0114746-0.1970215-0.0136719
	c0.4024658-0.2971191,0.5246582-0.4528809,0.6350098-0.6931152c0.0697021-0.1516113,0.0697021-0.1516113,0.0483398-0.3205566
	c-0.0152588-0.1206055,0.0483398-0.6494141-0.0078125-0.9560547l-0.0644531-0.0087891
	c-0.1708984,0-0.203125,0.1704102-0.21875,0.2509766c-0.0263672,0.1005859-0.2714844,0.9916992-0.8955078,1.362793
	c-0.2681885,0.159668-0.5811768,0.1879883-0.9230957,0.1079102c-1.0314941-0.3891602-1.3266602-1.0639648-1.3308105-1.074707
	c-0.0302734-0.0761719-0.1484375-0.2739258-0.3242188-0.2739258c-0.1367188,0.0556641-0.0439453,0.2734375-0.0478516,0.3886719
	c-0.0019531,0.0561523-0.0029297,0.2333984-0.015625,0.328125c-0.0175781,0.1303711-0.0019531,0.2216797,0.1054688,0.3447266
	c0.2336426,0.2670898,0.677002,0.6455078,1.4372559,0.8959961l-0.3347168,0.2324219
	c-0.1699219,0.118165-0.2119141,0.3520517-0.09375,0.5219736c0.0722656,0.1049805,0.1894531,0.1611328,0.3076172,0.1611328
	c0.0742188,0,0.1484375-0.0214844,0.2138672-0.0668945l0.9157715-0.6359873
	c0.2442627,0.0285645,0.5026855,0.048584,0.7902832,0.048584c0.0546875,0,0.1103516-0.0004883,0.1660156-0.0019531
	c1.4804688-0.0332031,2.1513672,0.168458,2.7050781,0.3378916c0.2822266,0.0864258,0.5253906,0.1611328,0.8056641,0.1611328
	c0.1582031,0,0.3183594-0.0239258,0.4873047-0.0732422c0.3916016-0.1142578,0.6728516-0.2075195,0.8964844-0.2822266
	c0.2880859-0.0957031,0.4316406-0.1435556,0.5507813-0.1435556c0.1660156,0,0.3007813-0.1342773,0.3007813-0.2998047
	S28.7342548,15.3565588,28.5682392,15.3565588z"/>
</svg>
