<?xml version="1.0" encoding="utf-8"?>
<!-- Generator: Adobe Illustrator 18.0.0, SVG Export Plug-In . SVG Version: 6.00 Build 0)  -->
<!DOCTYPE svg PUBLIC "-//W3C//DTD SVG 1.1//EN" "http://www.w3.org/Graphics/SVG/1.1/DTD/svg11.dtd">
<svg version="1.1" id="Layer_1" xmlns="http://www.w3.org/2000/svg" xmlns:xlink="http://www.w3.org/1999/xlink" x="0px" y="0px"
	 width="50px" height="50px" viewBox="0 0 50 50" enable-background="new 0 0 50 50" xml:space="preserve">
<path fill="#679D97" d="M25.0010471,0.0000007c1.5088615,0,2.9877415,0.1331171,4.4236488,0.3907273h0.0022106
	c10.5086823,1.8780837,18.7443695,10.3219042,20.3047905,20.9400978c0.1780624,1.1975937,0.2682991,2.4210739,0.2682991,3.6681442
	C49.9999962,38.8066406,38.80653,50,25.0010471,50C11.1933527,50-0.0000055,38.8066406-0.0000055,24.99897
	C-0.0000055,11.1912756,11.1933527,0.0000007,25.0010471,0.0000007z"/>
<path opacity="0.4" fill="#736357" d="M31.2407608,39.0610962c0.0238247,0.2908897-0.0282879,0.5751877-0.1408863,0.8298492
	l-8.4903889,10.005249l-0.0022049,0.0001793C11.98036,48.8823853,3.0828867,41.1390266,0.6609095,30.6836472L20.8156013,6.9998198
	c0.0212345-0.0039573,0.3125687-0.1238785,0.3339825-0.1256328l0.2198067-0.0396385
	c0.7358704-0.0602703,1.6375427,0.458209,1.697813,1.1940789l0.1706581,6.9842215
	c0.0462513,0.5646887-0.1212959,2.4325647-0.1212959,2.8260679l0.0139771,0.4471626
	c0.0940895,1.1487827-0.2695618,3.8550472,0.6796875,4.5074024l0.5008221,3.9708061"/>
<path fill="#FFDB81" d="M23.1165657,8.4164543v9.7913208c0-0.9294033,0.7963085-1.6720295,1.7449875-1.5819035
	c0.8241673,0.0794373,1.4316139,0.8199825,1.4316139,1.6506538v0.7082615c0-0.9293842,0.7984982-1.6720314,1.7449875-1.5819035
	c0.8263779,0.0794353,1.4338264,0.8199806,1.4338264,1.6505661v0.9787502h0.1222992
	c0.0665379-0.4678459,0.3370476-0.8714314,0.7212486-1.1139507c0.2853832-0.1867561,0.6353302-0.278986,1.0066547-0.24473
	c0.8262691,0.0794582,1.4337177,0.8200035,1.4337177,1.650568v7.289196c0,0-0.2489166,1.6784496-1.6698418,3.6810226
	c-0.506525,0.7147655-0.7748222,1.5733204-0.7748222,2.4489574v1.1225586h-9.3776264v-1.2534676
	c0-1.152626-0.5194035-2.2450924-1.4122334-2.9727592l-0.0730419-0.0600338
	c-0.5129204-0.4185867-0.8821411-0.9830647-1.0581017-1.6226864c-0.440073-1.6012001-1.2384624-4.6683788-1.135458-5.4410973
	c0.1373043-1.0281162,1.0752945-2.7860031,2.6829777-2.6915627V8.485096c0-0.2918653,0.0751457-0.5709591,0.2081566-0.8155823
	c0.1523705-0.2854691,0.3864117-0.5215936,0.6696911-0.6696939c0.1673756-0.0880218,0.3541317-0.1459956,0.5537891-0.1652713
	C22.3180695,6.7444234,23.1165657,7.4870481,23.1165657,8.4164543z"/>
<path d="M30.6109982,35.1657333h-9.9770508v-1.5532227c0-1.0668945-0.4746094-2.065918-1.3022461-2.7407227l-0.0732422-0.0600586
	c-0.5644531-0.4604492-0.9648438-1.074707-1.1572266-1.7753906c-0.5791016-2.1069336-1.2475586-4.78125-1.144043-5.5600586
	c0.1538086-1.1499023,1.1069336-2.831543,2.6806641-2.9492188V8.4850683c0-0.3325195,0.0844727-0.664062,0.2441406-0.9584956
	c0.1826172-0.3413086,0.4575195-0.6162109,0.7944336-0.7924805c0.2080078-0.109375,0.4316406-0.1757813,0.6645508-0.1982422
	c1.1191406-0.1132813,2.0751953,0.777832,2.0751953,1.8803706v8.411622c0.3789063-0.3540039,0.902832-0.5512695,1.4736328-0.5009766
	c0.762207,0.0737305,1.3920898,0.6337891,1.6162109,1.3652344c0.3833008-0.4082031,0.9414063-0.6479492,1.5605469-0.5878906
	c0.9350586,0.0898438,1.6713867,0.909668,1.7041016,1.8818359c0.1123047-0.1225586,0.2412109-0.230957,0.3847656-0.3212891
	c0.3442383-0.2260742,0.7607422-0.3305664,1.1943359-0.2900391c0.9575214,0.0922852,1.7060566,0.9482422,1.7060566,1.9492188
	v7.2895508c-0.0136719,0.1152344-0.2792969,1.8168945-1.7250996,3.8544922
	c-0.4707031,0.6640625-0.7197266,1.4511719-0.7197266,2.2753906V35.1657333z M21.2335567,34.566124h8.777832v-0.8227539
	c0-0.9492188,0.2866211-1.855957,0.8300781-2.6225586c1.3637714-1.921875,1.6152363-3.5351563,1.6176777-3.5512695
	l-0.0029297-7.2456055c0-0.6953125-0.5107441-1.2890625-1.1625996-1.3515625
	c-0.2851563-0.0258789-0.5771484,0.0429688-0.8139648,0.1967773c-0.3222656,0.2036133-0.5356445,0.5327148-0.5883789,0.9052734
	l-0.0366211,0.2578125h-0.6826172v-1.2788086c0-0.6958008-0.5107422-1.2895508-1.1625977-1.3515625
	c-0.7675781-0.081543-1.4165039,0.5297852-1.4165039,1.2827148h-0.5996094v-0.7080078
	c0-0.6953125-0.5097656-1.2895508-1.1606445-1.3520508c-0.7573242-0.0742188-1.4165039,0.5302734-1.4165039,1.2832031h-0.5996094
	V8.4162207c0-0.7524409-0.6464844-1.3623042-1.4189453-1.2827144c-0.1547852,0.0146484-0.3037109,0.059082-0.4428711,0.1318359
	c-0.2265625,0.1186523-0.4199219,0.3125-0.5444336,0.5458984c-0.1132813,0.2084956-0.1728516,0.4409175-0.1728516,0.6738276
	v12.6577158l-0.4238281-0.0219727c-1.3681641,0-2.1479492,1.5859375-2.2617188,2.4350586
	c-0.0683594,0.5136719,0.3535156,2.503418,1.1274414,5.3212891c0.159668,0.5800781,0.4912109,1.0883789,0.9589844,1.4702148
	l0.0727539,0.0600586c0.9672852,0.7885742,1.5224609,1.9570313,1.5224609,3.2050781V34.566124z"/>
<path fill="#CAAA5D" d="M31.2936153,18.972374c0.826273,0.0794582,1.1625996,0.520998,1.1625996,1.3515625l0.0029297,7.2456055
	c0,0-0.1967506,1.5486946-1.6176777,3.5512695c-0.506525,0.7147655-0.8300781,1.7469215-0.8300781,2.6225586l0.0087833,0.6755066
	c0.500021,0.1910477,0.1835995,0.0596695,0.1835995,0.6262512L30.0625,36.3125l-1.84375-0.890625l-1.4963055-0.5560532
	c0,0,0.0343838-0.066452,0.0987339-0.1909637c0.6954689-1.3651619,4.98279-9.5601864,3.6584721-15.5057068
	C30.7650337,18.9823952,30.9222908,18.938118,31.2936153,18.972374z"/>
<path opacity="0.6" fill="#FAF2F0" d="M20.7731476,20.3853874c0-3.107317,0-6.214654,0-9.3219709
	c0-2.2726974-0.4237175-2.2731266-0.4237175,0c0,3.107317,0,6.214654,0,9.3219709
	C20.3494301,20.6580849,20.7731476,20.658514,20.7731476,20.3853874L20.7731476,20.3853874z"/>
<path opacity="0.6" fill="#FAF2F0" d="M21.6755066,33.4115601c0.2230301-1.1705475-0.2144222-2.0672646-0.8900833-3.0117359
	c-0.5758095-0.8048077-1.1958122-1.4720745-1.5264835-2.4227505c-0.3583183-1.03022-0.4741154-2.1289959-0.4776783-3.2133904
	c-0.0009441-0.2726116-0.4246826-0.2731266-0.4237385,0c0.0042076,1.2676964,0.1501827,2.5842438,0.6573296,3.7595158
	c0.7012444,1.624876,2.6296387,2.7944813,2.2520256,4.7756977C21.2161598,33.5654144,21.6244659,33.6795387,21.6755066,33.4115601
	L21.6755066,33.4115601z"/>
<g>
	<path fill="#105B63" d="M21.4144421,34.6748581h8.4159622c0.1695652,0,0.3326473,0.0321732,0.4808331,0.0901489
		c0.500021,0.1910477,0.8542595,0.6782761,0.8542595,1.2448578v3.824913c0,0.0213814,0,0.0428658-0.0022106,0.0643501
		c-0.0321751,0.6868858-0.5816479,1.2405663-1.2706356,1.2706375c-0.0214863,0.0022087-0.04076,0.0022087-0.0622463,0.0022087
		h-8.4159622c-0.7383327,0-1.3350906-0.5988617-1.3350906-1.3371964v-3.824913c0-0.5665817,0.3542385-1.0517082,0.8542595-1.2448578
		C21.0817966,34.7070313,21.2448788,34.6748581,21.4144421,34.6748581z"/>
	<path d="M29.8302364,41.4718857h-8.4160156c-0.9013672,0-1.6347656-0.734375-1.6347656-1.637207v-3.824707
		c0-0.6699219,0.4204102-1.2827148,1.0458984-1.5249023c0.1875-0.0727539,0.3857422-0.1098633,0.5888672-0.1098633h8.4160156
		c0.2036133,0,0.4018555,0.0371094,0.5898438,0.1098633c0.6245117,0.2392578,1.0454102,0.8525391,1.0454102,1.5249023
		l-0.0043945,3.9228516c-0.0380859,0.8310547-0.7075195,1.5-1.5551758,1.5366211L29.8302364,41.4718857z M21.4142208,34.9748154
		c-0.128418,0-0.253418,0.0234375-0.371582,0.0698242c-0.3969727,0.1533203-0.6635742,0.5410156-0.6635742,0.965332v3.824707
		c0,0.5722656,0.4643555,1.0375977,1.0351563,1.0375977h8.4160156v0.2998047l0.0283203-0.300293
		c0.5566406-0.0249023,0.9799805-0.4482422,1.0048828-0.9868164l0.0024414-3.875
		c0-0.4257813-0.2661133-0.8134766-0.6621094-0.9648438c-0.1196289-0.046875-0.2446289-0.0703125-0.3735352-0.0703125H21.4142208z"
		/>
</g>
<path fill="#4C1C1C" d="M28.5682278,15.156559c-0.2177734,0-0.4179688,0.0664063-0.75,0.1772461
	c-0.2080078,0.0698242-0.4824219,0.1611328-0.8652344,0.2719727c-0.3300781,0.0957031-0.5556641,0.0351563-0.9492188-0.0854492
	c-0.5068359-0.1547852-1.2001953-0.3666992-2.5996094-0.3666992c-0.0947266,0-0.1923828,0.0009766-0.2998047,0.0029297
	l-0.1474609,0.0019531c-0.0725098,0-0.1279297-0.0114746-0.1970215-0.0136719
	c0.4024658-0.2971191,0.5246582-0.4528809,0.6350098-0.6931152c0.0697021-0.1516113,0.0697021-0.1516113,0.0483398-0.3205566
	c-0.0152588-0.1206055,0.0483398-0.6494141-0.0078125-0.9560547l-0.0644531-0.0087891
	c-0.1708984,0-0.203125,0.1704102-0.21875,0.2509766c-0.0263672,0.1005859-0.2714844,0.9916992-0.8955078,1.362793
	c-0.2681885,0.159668-0.5811768,0.1879883-0.9230957,0.1079102c-1.0314941-0.3891602-1.3266602-1.0639648-1.3308105-1.074707
	c-0.0302734-0.0761719-0.1484375-0.2739258-0.3242188-0.2739258c-0.1367188,0.0556641-0.0439453,0.2734375-0.0478516,0.3886719
	c-0.0019531,0.0561523-0.0029297,0.2333984-0.015625,0.328125c-0.0175781,0.1303711-0.0019531,0.2216797,0.1054688,0.3447266
	c0.2336426,0.2670898,0.677002,0.6455078,1.4372559,0.8959961l-0.3347168,0.2324219
	c-0.1699219,0.1181641-0.2119141,0.3520508-0.09375,0.5219727c0.0722656,0.1049805,0.1894531,0.1611328,0.3076172,0.1611328
	c0.0742188,0,0.1484375-0.0214844,0.2138672-0.0668945l0.9157715-0.6359863
	c0.2442627,0.0285645,0.5026855,0.048584,0.7902832,0.048584c0.0546875,0,0.1103516-0.0004883,0.1660156-0.0019531
	c1.4804688-0.0332031,2.1513672,0.168457,2.7050781,0.3378906c0.2822266,0.0864258,0.5253906,0.1611328,0.8056641,0.1611328
	c0.1582031,0,0.3183594-0.0239258,0.4873047-0.0732422c0.3916016-0.1142578,0.6728516-0.2075195,0.8964844-0.2822266
	c0.2880859-0.0957031,0.4316406-0.1435547,0.5507813-0.1435547c0.1660156,0,0.3007813-0.1342773,0.3007813-0.2998047
	S28.7342434,15.156559,28.5682278,15.156559z"/>
<g>
	<path d="M6.7979717,3.7751539l10.6859665,10.6829567c0.0353203,0.0353203,0.0794125,0.0605907,0.1277504,0.0731993
		l3.2244759,0.8414965c0.2077389,0.0542173,0.3970814-0.1351252,0.342865-0.3428612l-0.8414993-3.2244797
		c-0.0126076-0.048337-0.037878-0.0924301-0.0731964-0.1277494L9.5798712,0.9932541
		c-0.4403887-0.440389-1.1548147-0.4420702-1.5933313-0.0035536l-1.192122,1.1921217
		C6.3537431,2.6224971,6.3538737,3.3310556,6.7979717,3.7751539z"/>
	<path fill="#FFFFFF" d="M7.1953869,3.3777406l0.7912135,0.7912138l1.9870715-1.9870713l-0.791214-0.791214
		C8.961134,1.1693455,8.6025629,1.1685058,8.383955,1.3871155L7.191833,2.5792372
		C6.9706774,2.8003931,6.9707398,3.1530938,7.1953869,3.3777406z"/>
	
		<rect x="14.4616289" y="0.8849392" transform="matrix(0.7071068 -0.7071068 0.7071068 0.7071068 -0.8779901 12.5768805)" fill="#FFFFFF" width="0.5620272" height="12.9266577"/>
	
		<rect x="13.6668005" y="1.6797671" transform="matrix(0.7071068 -0.7071068 0.7071068 0.7071068 -1.6728182 12.2476521)" fill="#FFFFFF" width="0.5620272" height="12.9266577"/>
	
		<rect x="12.8719721" y="2.4745955" transform="matrix(-0.7071068 0.7071068 -0.7071068 -0.7071068 28.7736187 5.9574261)" fill="#FFFFFF" width="0.5620272" height="12.9266577"/>
	<polygon fill="#FFFFFF" points="20.5156422,14.7083054 19.8465786,12.1796865 17.985981,14.0402851 	"/>
</g>
<rect x="21.4842091" y="14.8732948" fill="#FFFFFF" width="0.5" height="1.0178007"/>
</svg>
