<?xml version="1.0" encoding="utf-8"?>
<!-- Generator: Adobe Illustrator 18.0.0, SVG Export Plug-In . SVG Version: 6.00 Build 0)  -->
<!DOCTYPE svg PUBLIC "-//W3C//DTD SVG 1.1//EN" "http://www.w3.org/Graphics/SVG/1.1/DTD/svg11.dtd">
<svg version="1.1" id="Layer_1" xmlns="http://www.w3.org/2000/svg" xmlns:xlink="http://www.w3.org/1999/xlink" x="0px" y="0px"
	 width="50px" height="50px" viewBox="0 0 50 50" enable-background="new 0 0 50 50" xml:space="preserve">
<path fill="#679D97" d="M25.0010586,0.0000008c1.5088634,0,2.9877415,0.1331171,4.4236488,0.3907273h0.0022106
	c10.5086823,1.8780837,18.7443695,10.3219042,20.3047905,20.9400978c0.1780624,1.1975937,0.2682991,2.4210739,0.2682991,3.6681442
	C50.0000076,38.8066406,38.8065414,50,25.0010586,50C11.1933641,50,0.0000062,38.8066406,0.0000062,24.99897
	C0.0000062,11.1912756,11.1933641,0.0000008,25.0010586,0.0000008z"/>
<path opacity="0.4" fill="#736357" d="M41.0737686,28.5389652c-0.2662849,0.3435898-9.533493,10.5920353-10.0409088,11.1837292
	l-8.4903908,10.005249l-0.002203,0.0001793C11.9133453,48.7141342,3.015872,40.9707756,0.5938947,30.5153961l8.2331038-9.0543613"/>
<g>
	<rect x="8.9003925" y="21.4610348" fill="#221F1E" width="32.1992264" height="7.0779314"/>
	<rect x="10.2906666" y="21.4610348" fill="#EED9AE" width="3.6655226" height="7.0779314"/>
	<circle fill="#221F1E" cx="12.1234274" cy="25" r="0.6320133"/>
	<rect x="17.5269642" y="22.4613457" fill="#EED9AE" width="0.1895215" height="5.0558033"/>
	<rect x="21.4453049" y="22.4613457" fill="#EED9AE" width="0.1895215" height="5.0558033"/>
	<rect x="25.3633099" y="22.4613457" fill="#EED9AE" width="0.1895215" height="5.0558033"/>
	<rect x="29.2816486" y="22.4613457" fill="#EED9AE" width="0.1895215" height="5.0558033"/>
	<rect x="33.1996536" y="22.4613457" fill="#EED9AE" width="0.1895215" height="5.0558033"/>
	<polygon fill="#EED9AE" points="37.3075142,27.6543007 37.1179924,27.517149 37.1179924,22.4613457 37.3075142,22.4613457 	"/>
	<g>
		<polygon fill="#EED9AE" points="14.0254383,22.2509289 14.0254383,22.4404507 14.4992428,22.4404507 14.4992428,23.609724 
			14.6887636,23.609724 14.6887636,22.4404507 15.2576628,22.4404507 15.2576628,23.609724 15.4471846,23.609724 
			15.4471846,22.4404507 16.0160847,22.4404507 16.0160847,23.609724 16.2056046,23.609724 16.2056046,22.4404507 
			16.7745037,22.4404507 16.7745037,23.609724 16.9640255,23.609724 16.9640255,22.4404507 18.2910118,22.4404507 
			18.2910118,23.609724 18.4805336,23.609724 18.4805336,22.4404507 19.0494328,22.4404507 19.0494328,23.609724 
			19.2389526,23.609724 19.2389526,22.4404507 19.8078518,22.4404507 19.8078518,23.609724 19.9973736,23.609724 
			19.9973736,22.4404507 20.5662727,22.4404507 20.5662727,23.609724 20.7557945,23.609724 20.7557945,22.4404507 
			22.0831146,22.4404507 22.0831146,23.609724 22.2726364,23.609724 22.2726364,22.4404507 22.8415356,22.4404507 
			22.8415356,23.609724 23.0310574,23.609724 23.0310574,22.4404507 23.5996208,22.4404507 23.5996208,23.609724 
			23.7891426,23.609724 23.7891426,22.4404507 24.3580418,22.4404507 24.3580418,23.609724 24.5475636,23.609724 
			24.5475636,22.4404507 26.0962162,22.4404507 26.0962162,23.609724 26.2857361,23.609724 26.2857361,22.4404507 
			26.8543015,22.4404507 26.8543015,23.609724 27.0438232,23.609724 27.0438232,22.4404507 27.6127224,22.4404507 
			27.6127224,23.609724 27.8022442,23.609724 27.8022442,22.4404507 28.3711433,22.4404507 28.3711433,23.609724 
			28.5606632,23.609724 28.5606632,22.4404507 29.9194603,22.4404507 29.9194603,23.609724 30.1089802,23.609724 
			30.1089802,22.4404507 30.6778793,22.4404507 30.6778793,23.609724 30.8674011,23.609724 30.8674011,22.4404507 
			31.4363003,22.4404507 31.4363003,23.609724 31.6258221,23.609724 31.6258221,22.4404507 32.1943855,22.4404507 
			32.1943855,23.609724 32.3839073,23.609724 32.3839073,22.4404507 33.806324,22.4404507 33.806324,23.609724 
			33.9958458,23.609724 33.9958458,22.4404507 34.564743,22.4404507 34.564743,23.609724 34.7542648,23.609724 
			34.7542648,22.4404507 35.3228302,22.4404507 35.3228302,23.609724 35.512352,23.609724 35.512352,22.4404507 
			36.0812531,22.4404507 36.0812531,23.609724 36.270771,23.609724 36.270771,22.4404507 37.5662842,22.4404507 
			37.5662842,23.609724 37.7558022,23.609724 37.7558022,22.4404507 38.3247032,22.4404507 38.3247032,23.609724 
			38.514225,23.609724 38.514225,22.4404507 39.0831223,22.4404507 39.0831223,23.609724 39.272644,23.609724 39.272644,22.4404507 
			39.8412094,22.4404507 39.8412094,23.609724 40.0307312,23.609724 40.0307312,22.4404507 41.0737686,22.4404507 
			41.0737686,22.2509289 		"/>
		<polygon fill="#EED9AE" points="40.0307312,26.3273163 39.8412094,26.3273163 39.8412094,27.433136 39.272644,27.433136 
			39.272644,26.3273163 39.0831223,26.3273163 39.0831223,27.433136 38.514225,27.433136 38.514225,26.3273163 
			38.3247032,26.3273163 38.3247032,27.433136 37.7558022,27.433136 37.7558022,26.3273163 37.5662842,26.3273163 
			37.5662842,27.433136 36.270771,27.433136 36.270771,26.3273163 36.0812531,26.3273163 36.0812531,27.433136 35.512352,27.433136 
			35.512352,26.3273163 35.3228302,26.3273163 35.3228302,27.433136 34.7542648,27.433136 34.7542648,26.3273163 
			34.564743,26.3273163 34.564743,27.433136 33.9958458,27.433136 33.9958458,26.3273163 33.806324,26.3273163 33.806324,27.433136 
			32.3839073,27.433136 32.3839073,26.3273163 32.1943855,26.3273163 32.1943855,27.433136 31.6258221,27.433136 
			31.6258221,26.3273163 31.4363003,26.3273163 31.4363003,27.433136 30.8674011,27.433136 30.8674011,26.3273163 
			30.6778793,26.3273163 30.6778793,27.433136 30.1089802,27.433136 30.1089802,26.3273163 29.9194603,26.3273163 
			29.9194603,27.433136 28.5606632,27.433136 28.5606632,26.3273163 28.3711433,26.3273163 28.3711433,27.433136 
			27.8022442,27.433136 27.8022442,26.3273163 27.6127224,26.3273163 27.6127224,27.433136 27.0438232,27.433136 
			27.0438232,26.3273163 26.8543015,26.3273163 26.8543015,27.433136 26.2857361,27.433136 26.2857361,26.3273163 
			26.0962162,26.3273163 26.0962162,27.433136 24.5475636,27.433136 24.5475636,26.3273163 24.3580418,26.3273163 
			24.3580418,27.433136 23.7891426,27.433136 23.7891426,26.3273163 23.5996208,26.3273163 23.5996208,27.433136 
			23.0310574,27.433136 23.0310574,26.3273163 22.8415356,26.3273163 22.8415356,27.433136 22.2726364,27.433136 
			22.2726364,26.3273163 22.0831146,26.3273163 22.0831146,27.433136 20.7557945,27.433136 20.7557945,26.3273163 
			20.5662727,26.3273163 20.5662727,27.433136 19.9973736,27.433136 19.9973736,26.3273163 19.8078518,26.3273163 
			19.8078518,27.433136 19.2389526,27.433136 19.2389526,26.3273163 19.0494328,26.3273163 19.0494328,27.433136 
			18.4805336,27.433136 18.4805336,26.3273163 18.2910118,26.3273163 18.2910118,27.433136 16.9640255,27.433136 
			16.9640255,26.3273163 16.7745037,26.3273163 16.7745037,27.433136 16.2056046,27.433136 16.2056046,26.3273163 
			16.0160847,26.3273163 16.0160847,27.433136 15.4471846,27.433136 15.4471846,26.3273163 15.2576628,26.3273163 
			15.2576628,27.433136 14.6887636,27.433136 14.6887636,26.3273163 14.4992428,26.3273163 14.4992428,27.433136 
			14.0254383,27.433136 14.0254383,27.6226578 41.0737686,27.6226578 41.0737686,27.433136 40.0307312,27.433136 		"/>
	</g>
	<g>
		<g>
			<path fill="#EED9AE" d="M14.9059772,24.9077454v0.0053577l0.1677561,0.3063831l-0.1821547,0.0472126l-0.2082729-0.384903
				l-0.001339-0.2037525l1.766634-0.010046l0.001339,0.2310429L14.9059772,24.9077454z"/>
		</g>
	</g>
	<g>
		<g>
			<path fill="#EED9AE" d="M20.2450581,25.417881l-0.1469955,0.0008354l-0.1831608-0.1863403
				c-0.4319477-0.4488564-0.6613159-0.6511021-0.9278507-0.6522751c-0.1794758,0.0010052-0.3445549,0.0887337-0.3432159,0.3524227
				c0.0010052,0.1603909,0.0833759,0.2929897,0.1516857,0.3741894l-0.1680927,0.077013
				c-0.1038017-0.1217155-0.1811504-0.2951641-0.1821537-0.4989166c-0.0023441-0.3803825,0.2578297-0.5422802,0.5106354-0.543787
				c0.3261375-0.0018406,0.5909996,0.2330513,0.9519615,0.6032219l0.131258,0.1406345h0.0053577l-0.0043526-0.7935791
				l0.1982269-0.001173L20.2450581,25.417881z"/>
		</g>
	</g>
	<g>
		<g>
			<path fill="#EED9AE" d="M23.7615852,25.362463c0.0431957-0.06814,0.1104984-0.2261868,0.1094933-0.3919334
				c-0.0016727-0.3072186-0.1982269-0.40131-0.3448887-0.3977947c-0.2471142,0.0043526-0.3519211,0.2276936-0.3505802,0.4587364
				l0.0006695,0.1331005l-0.179142,0.0010033l-0.0010033-0.1331005c-0.0010052-0.1739502-0.0917473-0.3936081-0.3010254-0.3922691
				c-0.141304,0.0006695-0.2658653,0.0910778-0.2645264,0.3112373c0.0006695,0.1414719,0.0639553,0.2769165,0.1188698,0.3527584
				l-0.1737843,0.0634518c-0.0683079-0.0920811-0.1372852-0.2710552-0.1382904-0.4614143
				c-0.0020084-0.3477345,0.2035847-0.5064507,0.4182205-0.5076218c0.1821537-0.0010052,0.3375225,0.1066475,0.4178848,0.3236256
				h0.0053558c0.0421906-0.2176476,0.2042561-0.3952827,0.4513702-0.3966217
				c0.282608-0.0016747,0.5313969,0.2171459,0.533741,0.641058c0.001339,0.1983948-0.0602722,0.3726807-0.1168613,0.4599075
				L23.7615852,25.362463z"/>
		</g>
	</g>
	<g>
		<g>
			<path fill="#EED9AE" d="M27.8242435,24.6787968l-0.4808369,0.0026779l0.0046883,0.8207016l-0.157711,0.0008373
				l-1.1324406-0.7815247l-0.0016747-0.2581635l1.0979519-0.0063629l-0.001339-0.247282l0.1878471-0.0010052l0.001339,0.247282
				l0.480835-0.0026779L27.8242435,24.6787968z M27.1555595,24.6824799l-0.5896587,0.0035152
				c-0.0924168,0.0005035-0.1848335-0.0018406-0.2772503-0.0066967v0.0082035
				c0.103466,0.0537434,0.1798096,0.0967712,0.2618465,0.145155l0.603054,0.428936l0.0053577-0.0001678L27.1555595,24.6824799z"/>
		</g>
	</g>
	<g>
		<g>
			<path fill="#EED9AE" d="M30.0489426,24.3726654l0.003685,0.6738739l0.4543819,0.0652943
				c-0.0056915-0.0408516-0.011385-0.0786877-0.0117188-0.1439838c-0.0006714-0.1359463,0.0284615-0.2718925,0.0927505-0.381218
				c0.0783539-0.1387939,0.2297039-0.2538128,0.4527092-0.2551517c0.3452225-0.0020084,0.6047268,0.2708893,0.6070709,0.6541176
				c0.0010052,0.193037-0.0525703,0.3564415-0.1064796,0.4409885l-0.1821556-0.0587654
				c0.0431957-0.0734978,0.0967693-0.2179832,0.0957661-0.3783722c-0.0013409-0.2255173-0.1493416-0.4177189-0.3857403-0.416378
				c-0.228363,0.0041847-0.3904285,0.1572075-0.3884182,0.5104675c0.0006695,0.1006222,0.0117188,0.1794777,0.0204258,0.2446041
				l-0.8484936-0.1093273l-0.005024-0.8449764L30.0489426,24.3726654z"/>
		</g>
	</g>
	<g>
		<g>
			<path fill="#EED9AE" d="M33.8082314,24.4190426c-0.0023422,0.0488873,0.0006714,0.1111679,0.0117188,0.1789722
				c0.0649605,0.374691,0.340538,0.571579,0.6315155,0.6107559v-0.0082035
				c-0.1118355-0.0835438-0.2052574-0.2298698-0.2062607-0.4255867c-0.0016747-0.3124084,0.2223358-0.5339088,0.5675583-0.5359173
				c0.3234596-0.0018406,0.6238136,0.2166443,0.625824,0.5834656c0.0023422,0.3778706-0.2899742,0.6268272-0.7490463,0.6295052
				c-0.3479042,0.0020084-0.6234779-0.1215477-0.7982674-0.2944946c-0.1449852-0.1458244-0.2357292-0.3410378-0.2641907-0.5638771
				c-0.0110512-0.070652-0.0144005-0.1302528-0.0147324-0.1736164L33.8082314,24.4190426z M34.8278313,24.4809875
				c-0.2528076,0.001339-0.4041557,0.1463261-0.4028168,0.3664875c0.0006714,0.1439819,0.0910759,0.2767467,0.2193222,0.3410378
				c0.0271225,0.0162392,0.0626144,0.0269547,0.106144,0.0267868c0.2906456-0.0071983,0.5049477-0.1416378,0.503273-0.3917675
				C35.2527466,24.6169338,35.0806389,24.4794807,34.8278313,24.4809875z"/>
		</g>
	</g>
	<g>
		<g>
			<path fill="#EED9AE" d="M37.9452248,24.2813377l0.1573753-0.0008373l1.6136131,0.7597599l0.001339,0.247282l-1.5670662-0.7575836
				h-0.0053596l0.0046883,0.864399l-0.1982269,0.0011711L37.9452248,24.2813377z"/>
		</g>
	</g>
</g>
<path fill="#4C1C1C" d="M38.829277,19.761528l-24.875,0.125c-0.2070313,0.0009766-0.3740234,0.1699219-0.3730469,0.3769531
	c0.0009766,0.206543,0.1689453,0.3730469,0.375,0.3730469c0.0009766,0,0.0009766,0,0.0019531,0l24.875-0.125
	c0.2070313-0.0009766,0.3740234-0.1699219,0.3730469-0.3769531C39.2052536,19.9270554,39.054863,19.7551804,38.829277,19.761528z"/>
<polygon fill="#FFFFFF" points="30.7726212,20.5365276 29.8478489,20.5364437 29.8477745,20.5364437 29.847702,19.7864437 
	30.7724762,19.7865276 "/>
</svg>
