<?xml version="1.0" encoding="utf-8"?>
<!-- Generator: Adobe Illustrator 18.0.0, SVG Export Plug-In . SVG Version: 6.00 Build 0)  -->
<!DOCTYPE svg PUBLIC "-//W3C//DTD SVG 1.1//EN" "http://www.w3.org/Graphics/SVG/1.1/DTD/svg11.dtd">
<svg version="1.1" id="Layer_1" xmlns="http://www.w3.org/2000/svg" xmlns:xlink="http://www.w3.org/1999/xlink" x="0px" y="0px"
	 width="50px" height="50px" viewBox="0 0 50 50" enable-background="new 0 0 50 50" xml:space="preserve">
<g>
	<path fill="#F3F3F3" d="M25.0010509,0.0000008c1.5088634,0,2.9877415,0.1331171,4.4236507,0.3907273h0.0022106
		c10.5086842,1.8780837,18.7443714,10.3219042,20.3047886,20.9400978C49.9097672,22.5284195,50,23.7518997,50,24.99897
		C50,38.8066406,38.8065338,50,25.0010509,50C11.1933584,50,0,38.8066406,0,24.99897
		C0,11.1912756,11.1933584,0.0000008,25.0010509,0.0000008z"/>
	<path opacity="0.4" fill="#C4C4C4" d="M22.6063175,49.8998184l-0.002203,0.0001793
		c-10.6269217-1.0139885-19.524395-8.7573471-21.946373-19.2127285L22.7973537,8.1391115
		c0.0212326-0.0039568-1.5993557,8.2517424-1.5779419,8.2499876l0.5586758,11.3916664
		c0.7358704-0.0602703,0.4649563-0.1922321,1.703125,0.4270821l3.21875,0.953125l2.265625,1.421875l-7.3612728,6.249855
		l8.9077492,5.8545914"/>
	<g>
		<path d="M21.7008667,18.4359474c-0.8447266,0-1.1621094-0.6855469-1.2109375-1.0507813
			c-0.0224609-0.1640625,0.0917969-0.3154297,0.2568359-0.3369141c0.171875-0.0244141,0.3134766,0.0917969,0.3369141,0.2539063
			c0.0126953,0.0839844,0.0947266,0.4697266,0.5097656,0.5273438c0.4833984-0.4775391,0.9902344-0.9833984,1.0458984-1.046875
			l0.2255859,0.1962891l0.0078125-0.0087891l0.2998047-0.0068359c0.0039063,0.1474609,0.0039063,0.1474609-1.2519531,1.3867188
			C21.8619995,18.4066505,21.7623901,18.436924,21.7008667,18.4359474z"/>
		<path fill="#53C9C7" d="M20.7924671,36.5329742h8.4159603c0.1695652,0,0.3326473,0.0321732,0.4808331,0.0901451
			c0.500021,0.1910515,0.8542595,0.6782799,0.8542595,1.2448616v3.824913c0,0.0213776,0,0.0428658-0.0022106,0.0643501
			c-0.0321732,0.6868858-0.5816479,1.2405663-1.2706356,1.2706375c-0.0214863,0.0022087-0.04076,0.0022087-0.0622463,0.0022087
			h-8.4159603c-0.7383347,0-1.3350925-0.5988617-1.3350925-1.3371964v-3.824913
			c0-0.5665817,0.3542385-1.0517082,0.8542595-1.2448616C20.4598198,36.5651474,20.6229019,36.5329742,20.7924671,36.5329742z"/>
		<path d="M31.6126003,13.7610474c-0.3007813-0.7246094-0.7109375-1.3955078-1.6640625-1.3955078
			c-0.0662231,0-0.1293335,0.0114746-0.1934204,0.0195313L29.637991,9.9885864c0-0.8642578-0.7021484-1.5664063-1.5664063-1.5664063
			c-0.5286255,0-0.994751,0.2648926-1.2783203,0.6711426V8.2366333c0-0.8642578-0.7021484-1.5664063-1.5664063-1.5664063
			c-0.7941895,0-1.444397,0.5949707-1.5457153,1.3618164c-0.0897827-0.0161133-0.1812134-0.027832-0.2755737-0.027832
			c-0.9716797,0-1.3515625,0.8417969-1.5615234,1.5126953l-1.1494141,6.3271484
			c-0.0302734,0.1660156-0.0703125,0.4658203-0.1064453,0.7353516l-0.0420532,0.3031006
			c-0.6676025,0.5584717-1.5390015,1.4587402-2.6942749,2.7828369l-0.0683594,0.0791016
			c-1.2958984,1.4824219-1.359375,3.8164063-1.4150391,5.8759766l-0.0039063,0.1318359
			c-0.0761719,2.8330078,1.3164063,5.4912109,3.7275391,7.125c0.1627197,0.2905273,1.0620117,1.0957031,0.1383057,3.4602051
			c-0.008728,0.0031738-0.0185547,0.001709-0.0272217,0.0050049c-0.6254883,0.2421875-1.0454102,0.8554688-1.0454102,1.5253906
			v3.8251953c0,0.9023438,0.7333984,1.6367188,1.6347656,1.6367188h8.4155273l0.0751953-0.0019531
			c0.8486328-0.0371094,1.5175781-0.7060547,1.5566406-1.5429688l0.0029297-3.9169922
			c0-0.6728516-0.4199219-1.2861328-1.0449219-1.5244141c-0.0442505-0.0172119-0.0932007-0.0126953-0.1384277-0.0258789
			c-0.4498291-3.2963867,1.0839844-4.1395264,1.0849609-4.1414795c1.8222675-1.6367188,2.8671894-3.9755859,2.8671894-6.4003906
			C33.9085007,20.2102661,31.6409206,13.8381958,31.6126003,13.7610474z M29.2080593,42.7301636H20.792532
			c-0.5708008,0-1.0351563-0.4658203-1.0351563-1.0371094v-3.8251953c0-0.4238281,0.2661133-0.8125,0.6625977-0.9658203
			c0.1191406-0.0458984,0.2441406-0.0693359,0.3725586-0.0693359h8.4155273c0.1289063,0,0.2539063,0.0234375,0.3740234,0.0703125
			c0.3955078,0.1513672,0.6611328,0.5390625,0.6611328,0.9648438l-0.0019531,3.8759766
			c-0.0253906,0.5371094-0.4482422,0.9609375-0.9980469,0.9853516 M30.4680691,21.5637817
			c-0.0058594,0.0117188-0.0107422,0.0244141-0.015625,0.0371094c-0.0253906,0.0507813-0.0810547,0.0751953-0.1748047,0.0625
			c-0.0247192-0.0102539-0.0504761-0.0168457-0.0751953-0.0270996V20.597229"/>
		<path fill="#E0B9A0" d="M33.0120163,25.7600708c0,2.2705078-0.9726563,4.4462891-2.680666,5.9814453
			c-0.0689087,0.0698242-1.7011108,1.0222168-1.2839966,4.4915771h-8.1403809
			c0.913269-2.6488037-0.2926636-3.6580811-0.3392944-3.730835c-0.0224609-0.0332031-0.0517578-0.0625-0.0859375-0.0859375
			c-2.2734375-1.515625-3.5888672-4.0009766-3.5175781-6.6484375l0.0039063-0.1308594
			c0.0556641-2.0546875,0.1132813-4.1787109,1.2666016-5.4980469l0.0693359-0.0791016
			c1.3309937-1.5256348,2.1716919-2.347168,2.7038574-2.7880859c0.0004272-0.0003662,0.0007324-0.0007324,0.0012207-0.0009766
			c0.4996948-0.4139404,0.7272339-0.4921875,0.8242188-0.4921875c0.6279297,0,1.6689453,0.7578125,1.7841797,1.3867188
			l-3.8779297,3.9658203c-0.0546875,0.0566406-0.0849609,0.1318359-0.0849609,0.2099609
			c0,0.09375,0.0185547,0.1865234,0.0546875,0.2744141c0.0048828,0.0117188,0.0361328,0.0693359,0.0419922,0.0800781
			c0.0224609,0.0390625,0.0527344,0.0927734,0.0947266,0.1357422c0.0087891,0.0097656,0.0634766,0.0595703,0.0732422,0.0683594
			c0.0410156,0.0351563,0.0859375,0.0664063,0.1445313,0.0976563c0.0332031,0.0166016,0.0664063,0.0292969,0.0703125,0.0302734
			c0.0107422,0.0068359,0.0273438,0.0175781,0.0478516,0.0283203c1.8740234,1.4648438,2.5087891,3.5527344,1.7412109,5.7304688
			c-0.0546875,0.15625,0.0273438,0.3271484,0.1835938,0.3828125c0.1582031,0.0556641,0.3271484-0.0273438,0.3828125-0.1835938
			c0.859375-2.4404297,0.1494141-4.7773438-1.9492188-6.4111328c-0.0341797-0.0273438-0.0332031-0.0371094-0.0751953-0.046875
			c-0.0341797-0.0224609-0.0634766-0.0419922-0.1015625-0.0566406c-0.0048828-0.0009766-0.0664063-0.0380859-0.0712891-0.0400391
			c0,0-0.0009766-0.0009766-0.0019531-0.0039063l1.354126-1.3850098c0.0044556-0.0003662,0.0076294,0.0036621,0.012085,0.0031738
			c0.9140625-0.1298828,0.9697266-0.1289063,1.6650391-0.1289063l0.1279297-0.0078125
			c0.0322266,0.0078125,0.0625,0.0117188,0.0976563,0.0078125c2.2480469,0.0029297,4.4345703,0.4404297,6.4970703,1.2998047
			c0.3642578,0.1572266,0.8242188-0.0458984,0.9404297-0.3447266c0.0136719-0.0214844,0.0263672-0.0458984,0.0351563-0.0722656
			c0.0390625-0.09375,0.0585938-0.1904297,0.0585938-0.3007813c0-0.0273438-0.0039063-0.0537109-0.0107422-0.0800781
			l-2.0849609-7.5244141c0.0205078-0.515625,0.4453125-0.9287109,0.9658203-0.9287109
			c0.5048828,0,0.7958984,0.2685547,1.1044922,1.0126953C31.075491,14.0403442,33.3020554,20.302063,33.0120163,25.7600708z"/>
		<path fill="#E0B9A0" d="M28.0715847,9.0217896c0.5332031,0,0.9667969,0.4335938,0.9667969,0.9814453l0.1210938,2.4921875
			c0.0014038,0.0290527,0.024353,0.046875,0.0327759,0.0731201c-0.4807129,0.2677002-0.8101196,0.7747803-0.8101196,1.3634033
			c0,0.0273438,0.0039063,0.0537109,0.0107422,0.0800781l1.2099609,4.4030762v2.8762207
			c-0.6367188-0.2226563-1.2890625-0.4111328-1.9453125-0.5615234L27.1057644,9.9885864
			C27.1057644,9.4553833,27.5393581,9.0217896,28.0715847,9.0217896z"/>
		<path fill="#E0B9A0" d="M26.7932644,15.6008911l0.2603149,5.0742188
			c-0.0859375-0.0175781-0.1741333-0.0235596-0.2603149-0.0397949V15.6008911z"/>
		<path fill="#E0B9A0" d="M24.2600613,8.2366333c0-0.5332031,0.4335938-0.9667969,0.9667969-0.9667969
			s0.9667969,0.4335938,0.9667969,0.9667969v12.1767578c-0.6425781-0.09375-1.2939453-0.1533203-1.9453125-0.1777344
			l-0.0732422-1.8261719c0-0.0004883-0.0005493-0.0006104-0.0005493-0.0010986
			c0.0223999-0.0428467,0.0532837-0.0826416,0.0532837-0.1317139c0-0.3322754-0.1604614-0.6691895-0.3987427-0.9761963
			c0.0093994-0.0227051,0.0308228-0.0374756,0.0344849-0.0628662l1.1083984-7.6669922
			c0-0.548584-0.2841187-1.0301514-0.7119141-1.3100586V8.2366333z"/>
		<path fill="#E0B9A0" d="M21.2844753,15.9514771l1.140625-6.2900391c0.2382813-0.7509766,0.5224609-1.0576172,0.9804688-1.0576172
			c0.5332031,0,0.9667969,0.4335938,0.9697266,0.9238281l-1.0531006,7.2629395
			c-0.4616699-0.3637695-1.0203857-0.6115723-1.4888916-0.6115723c-0.1676636,0-0.3707275,0.0693359-0.6138916,0.210083
			C21.2427883,16.2183228,21.2659206,16.0557251,21.2844753,15.9514771z"/>
		<path fill="#E0B9A0" d="M23.6517849,20.3230591c-0.0419922-0.0002441-0.0830688-0.0063477-0.1251221-0.0063477
			c-0.0019531,0-0.0058594,0-0.0078125,0h-0.1962891c-0.0820923,0-0.1484985,0.0002441-0.2164307,0.0003662l0.0903931-0.8625488
			l0.4035645-0.4127197L23.6517849,20.3230591z"/>
		<path fill="#FFDB81" d="M30.2024441,20.597229l0.265625,0.9665527"/>
		<path d="M21.7008667,18.4359474c-0.8447266,0-1.1621094-0.6855469-1.2109375-1.0507813
			c-0.0224609-0.1640625,0.0917969-0.3154297,0.2568359-0.3369141c0.171875-0.0244141,0.3134766,0.0917969,0.3369141,0.2539063
			c0.0126953,0.0839844,0.0947266,0.4697266,0.5097656,0.5273438c0.4833984-0.4775391,0.9902344-0.9833984,1.0458984-1.046875
			l0.2255859,0.1962891l0.0078125-0.0087891l0.2998047-0.0068359c0.0039063,0.1474609,0.0039063,0.1474609-1.2519531,1.3867188
			C21.8619995,18.4066505,21.7623901,18.436924,21.7008667,18.4359474z"/>
	</g>
	<path fill="#9CAFAC" d="M40.3465004,27.0197906c-2.3808594-0.65625-23.9619122-0.7646484-24.0048809-0.7607422l0.0369835-1.0035877
		C16.559267,25.2408123,35.2918129,25,40.6121254,26.0549469L40.3465004,27.0197906z"/>
	<path fill="#9CAFAC" d="M13.7908382,26.3820953c-1.4365234,0-3.2900391-0.1132813-5.1142578-0.5458984l0.2304688-0.9726563
		c3.5585938,0.84375,7.5466232,0.3912621,7.4715538,0.3919201l-0.0369835,1.0035877
		C16.2586117,26.2697906,15.2937679,26.3820953,13.7908382,26.3820953z"/>
	<rect x="15.666667" y="24.5" fill="#809B96" width="18" height="1"/>
	<g>
		<path d="M9.9329681,13.8911142l10.6859665,10.6829576c0.0353184,0.0353203,0.0794125,0.0605907,0.1277485,0.0731983
			l3.2244778,0.8414974c0.2077389,0.0542164,0.3970814-0.1351261,0.3428631-0.3428612l-0.8414974-3.2244797
			c-0.0126076-0.0483379-0.037878-0.0924301-0.0731983-0.1277504L12.7148676,11.1092148
			c-0.4403896-0.4403887-1.1548147-0.44207-1.5933313-0.0035534l-1.1921225,1.1921215
			C9.488739,12.7384577,9.4888697,13.4470167,9.9329681,13.8911142z"/>
		<path fill="#FFFFFF" d="M10.3303823,13.493701l0.791214,0.791214l1.987072-1.987071l-0.791214-0.791214
			c-0.221324-0.221324-0.579896-0.2221632-0.7985039-0.0035534l-1.1921215,1.1921215
			C10.1056738,12.9163532,10.1057358,13.2690544,10.3303823,13.493701z"/>
		
			<rect x="17.5966206" y="11.0009003" transform="matrix(0.7071068 -0.7071068 0.7071068 0.7071068 -7.1128373 17.7565517)" fill="#FFFFFF" width="0.5620272" height="12.9266577"/>
		
			<rect x="16.8017902" y="11.7957268" transform="matrix(0.7071068 -0.7071068 0.7071068 0.7071068 -7.9076648 17.4273205)" fill="#FFFFFF" width="0.5620272" height="12.9266577"/>
		
			<rect x="16.0069599" y="12.5905552" transform="matrix(-0.7071068 0.7071068 -0.7071068 -0.7071068 41.2784424 21.0096779)" fill="#FFFFFF" width="0.5620272" height="12.9266577"/>
		<polygon fill="#FFFFFF" points="23.6506386,24.8242664 22.981575,22.2956467 21.1209755,24.1562462 		"/>
	</g>
	<line fill="none" stroke="#736357" stroke-miterlimit="10" x1="24.166666" y1="24.5" x2="24.166666" y2="26.5"/>
</g>
</svg>
