<?xml version="1.0" encoding="utf-8"?>
<!-- Generator: Adobe Illustrator 18.0.0, SVG Export Plug-In . SVG Version: 6.00 Build 0)  -->
<!DOCTYPE svg PUBLIC "-//W3C//DTD SVG 1.1//EN" "http://www.w3.org/Graphics/SVG/1.1/DTD/svg11.dtd">
<svg version="1.1" id="Layer_1" xmlns="http://www.w3.org/2000/svg" xmlns:xlink="http://www.w3.org/1999/xlink" x="0px" y="0px"
	 width="50px" height="50px" viewBox="0 0 50 50" enable-background="new 0 0 50 50" xml:space="preserve">
<g>
	<path fill="#F3F3F3" d="M25.0010509,0.0000008c1.5088634,0,2.9877415,0.1331171,4.4236507,0.3907273h0.0022106
		c10.5086842,1.8780837,18.7443714,10.3219042,20.3047886,20.9400978C49.9097672,22.5284195,50,23.7518997,50,24.99897
		C50,38.8066406,38.8065338,50,25.0010509,50C11.1933584,50,0,38.8066406,0,24.99897
		C0,11.1912756,11.1933584,0.0000008,25.0010509,0.0000008z"/>
	<path opacity="0.4" fill="#C4C4C4" d="M41.0737648,28.5389652c-0.2662888,0.3435898-9.5334949,10.5920353-10.0409107,11.1837292
		l-8.5990944,10.1470184l-0.1115646-0.011631c-10.9017315-1.146637-19.3392315-9.084137-21.7283058-19.3426857l8.2331047-9.0543613"
		/>
	<path fill="#9CAFAC" d="M38.8292732,19.761528l-24.8750019,0.125c-0.2070313,0.0009766-0.3740234,0.1699219-0.3730469,0.3769531
		c0.0009766,0.206543,0.1689453,0.3730469,0.375,0.3730469c0.0009766,0,0.0009766,0,0.0019531,0l24.8750019-0.125
		c0.2070313-0.0009766,0.3740234-0.1699219,0.3730469-0.3769531C39.2052498,19.9270554,39.0548592,19.7551804,38.8292732,19.761528z
		"/>
	<polygon fill="#736357" points="30.7726154,20.5544033 29.8478413,20.5543175 29.8477688,20.5543175 29.8476963,19.7864437 
		30.7724705,19.7865295 	"/>
	<polygon fill="#736357" points="14.9503517,20.636528 14.0255775,20.6364422 14.0255051,20.6364422 14.0254326,19.8864422 
		14.9502058,19.886528 	"/>
	<g>
		<rect x="9.0362005" y="21.4610348" fill="#221F1E" width="32.1992264" height="7.0779314"/>
		<circle fill="#221F1E" cx="12.2796736" cy="25.0337868" r="0.6320133"/>
		<g>
			<rect x="13.26756" y="21.936409" fill="#53C9C7" width="0.2244212" height="2.2649784"/>
			<rect x="17.907423" y="21.936409" fill="#53C9C7" width="0.2244212" height="2.2649784"/>
			<rect x="22.5469189" y="21.936409" fill="#53C9C7" width="0.2244212" height="2.2649784"/>
			<rect x="27.1868114" y="21.936409" fill="#53C9C7" width="0.2244212" height="2.2649784"/>
			<rect x="31.8263073" y="21.936409" fill="#53C9C7" width="0.2244212" height="2.2649784"/>
			<polygon fill="#53C9C7" points="36.6906204,24.2628307 36.466198,24.2013874 36.466198,21.936409 36.6906204,21.936409 			"/>
			<g>
				<polygon fill="#FFFFFF" points="9.1212273,21.6872463 9.1212273,21.9116688 9.6822805,21.9116688 9.6822805,23.2962589 
					9.9067011,23.2962589 9.9067011,21.9116688 10.5803614,21.9116688 10.5803614,23.2962589 10.8047829,23.2962589 
					10.8047829,21.9116688 11.4784431,21.9116688 11.4784431,23.2962589 11.7028637,23.2962589 11.7028637,21.9116688 
					12.376524,21.9116688 12.376524,23.2962589 12.6009455,23.2962589 12.6009455,21.9116688 14.1722908,21.9116688 
					14.1722908,23.2962589 14.3967113,23.2962589 14.3967113,21.9116688 15.0703716,21.9116688 15.0703716,23.2962589 
					15.2947931,23.2962589 15.2947931,21.9116688 15.9684534,21.9116688 15.9684534,23.2962589 16.1928749,23.2962589 
					16.1928749,21.9116688 16.8665352,21.9116688 16.8665352,23.2962589 17.0909557,23.2962589 17.0909557,21.9116688 
					18.6626968,21.9116688 18.6626968,23.2962589 18.8871193,23.2962589 18.8871193,21.9116688 19.5607796,21.9116688 
					19.5607796,23.2962589 19.7852001,23.2962589 19.7852001,21.9116688 20.4584637,21.9116688 20.4584637,23.2962589 
					20.6828842,23.2962589 20.6828842,21.9116688 21.3565445,21.9116688 21.3565445,23.2962589 21.5809669,23.2962589 
					21.5809669,21.9116688 23.4147968,21.9116688 23.4147968,23.2962589 23.6392174,23.2962589 23.6392174,21.9116688 
					24.3124809,21.9116688 24.3124809,23.2962589 24.5369034,23.2962589 24.5369034,21.9116688 25.2105637,21.9116688 
					25.2105637,23.2962589 25.4349842,23.2962589 25.4349842,21.9116688 26.1086445,21.9116688 26.1086445,23.2962589 
					26.333065,23.2962589 26.333065,21.9116688 27.9420776,21.9116688 27.9420776,23.2962589 28.1665001,23.2962589 
					28.1665001,21.9116688 28.8401604,21.9116688 28.8401604,23.2962589 29.0645809,23.2962589 29.0645809,21.9116688 
					29.7382412,21.9116688 29.7382412,23.2962589 29.9626617,23.2962589 29.9626617,21.9116688 30.6359253,21.9116688 
					30.6359253,23.2962589 30.8603477,23.2962589 30.8603477,21.9116688 32.5446968,21.9116688 32.5446968,23.2962589 
					32.7691154,23.2962589 32.7691154,21.9116688 33.4427757,21.9116688 33.4427757,23.2962589 33.6671982,23.2962589 
					33.6671982,21.9116688 34.3404617,21.9116688 34.3404617,23.2962589 34.5648842,23.2962589 34.5648842,21.9116688 
					35.2385445,21.9116688 35.2385445,23.2962589 35.4629631,23.2962589 35.4629631,21.9116688 36.9970398,21.9116688 
					36.9970398,23.2962589 37.2214584,23.2962589 37.2214584,21.9116688 37.8951187,21.9116688 37.8951187,23.2962589 
					38.1195412,23.2962589 38.1195412,21.9116688 38.7932014,21.9116688 38.7932014,23.2962589 39.0176239,23.2962589 
					39.0176239,21.9116688 39.6908875,21.9116688 39.6908875,23.2962589 39.9153061,23.2962589 39.9153061,21.9116688 
					41.1504173,21.9116688 41.1504173,21.6872463 				"/>
			</g>
			<g>
				<g>
					<path fill="#FFFFFF" d="M10.1639137,24.8333073v0.0063438l0.1986485,0.3628006l-0.2156982,0.0559082L9.900238,24.802578
						l-0.001586-0.241272l2.0919552-0.0118961l0.001586,0.2735882L10.1639137,24.8333073z"/>
				</g>
			</g>
			<g>
				<g>
					<path fill="#FFFFFF" d="M16.4861679,25.4373798l-0.1740646,0.0009918l-0.2168884-0.2206535
						c-0.5114899-0.5315132-0.7830944-0.7710018-1.098712-0.7723904c-0.2125263,0.0011902-0.4080019,0.1050739-0.4064159,0.4173203
						c0.0011892,0.1899261,0.0987291,0.346941,0.179616,0.4430943l-0.1990452,0.0911942
						c-0.1229162-0.1441288-0.2145081-0.3495178-0.2156982-0.5907898c-0.0027752-0.450428,0.3053083-0.6421375,0.6046686-0.6439228
						c0.3861952-0.0021801,0.6998291,0.2759666,1.1272612,0.7143021l0.1554298,0.1665325h0.0063438l-0.0051556-0.9397144
						l0.2347317-0.0013885L16.4861679,25.4373798z"/>
				</g>
			</g>
			<g>
				<g>
					<path fill="#FFFFFF" d="M20.6502533,25.3717594c0.0511475-0.0806885,0.130846-0.2678394,0.1296558-0.4641075
						c-0.0019817-0.3637924-0.2347298-0.4752102-0.4083996-0.4710464c-0.2926197,0.0051537-0.4167252,0.2696228-0.4151382,0.5432091
						l0.0007915,0.1576118l-0.2121296,0.0011883l-0.0011883-0.1576099
						c-0.0011902-0.2059841-0.1086426-0.4660912-0.3564568-0.4645042c-0.167326,0.0007935-0.3148251,0.1078491-0.3132381,0.3685493
						c0.0007915,0.1675243,0.0757313,0.3279095,0.1407585,0.417717l-0.2057858,0.0751381
						c-0.0808868-0.1090393-0.1625671-0.3209705-0.1637554-0.5463829c-0.0023804-0.411768,0.2410736-0.5997124,0.4952335-0.601099
						c0.2156963-0.0011902,0.3996754,0.1262856,0.4948368,0.3832207h0.0063438
						c0.0499592-0.2577267,0.2418671-0.4680729,0.5344868-0.4696579c0.33465-0.0019836,0.6292515,0.2571316,0.6320267,0.7591057
						c0.0015869,0.2349281-0.0713711,0.441309-0.1383801,0.5445976L20.6502533,25.3717594z"/>
				</g>
			</g>
			<g>
				<g>
					<path fill="#FFFFFF" d="M25.4610348,24.5621967l-0.5693798,0.0031719l0.0055504,0.9718323l-0.1867523,0.0009899
						l-1.3409767-0.9254398l-0.0019817-0.3057041l1.3001347-0.007534l-0.001585-0.2928181l0.2224388-0.0011883l0.001585,0.2928181
						l0.5693798-0.0031719L25.4610348,24.5621967z M24.6692162,24.5665588l-0.6982441,0.0041637
						c-0.1094341,0.0005951-0.2188702-0.002182-0.3283043-0.0079308v0.0097141
						c0.1225185,0.0636387,0.212923,0.1145897,0.3100662,0.1718845l0.7141037,0.5079212l0.0063438-0.0001984L24.6692162,24.5665588z
						"/>
				</g>
			</g>
			<g>
				<g>
					<path fill="#FFFFFF" d="M28.0954056,24.1996937l0.0043621,0.7979641l0.5380554,0.0773182
						c-0.0067406-0.0483742-0.0134811-0.0931778-0.013876-0.170496c-0.0007935-0.1609802,0.0337029-0.3219624,0.1098309-0.4514198
						c0.0927811-0.1643505,0.2720013-0.3005505,0.5360737-0.3021374c0.4087944-0.0023785,0.7160854,0.3207722,0.7188606,0.7745705
						c0.0011902,0.2285862-0.0622501,0.4220791-0.1260872,0.5221958l-0.2156982-0.0695858
						c0.0511494-0.0870323,0.1145897-0.2581234,0.1133995-0.4480495c-0.001585-0.267046-0.1768398-0.4946384-0.4567719-0.4930515
						c-0.2704163,0.0049553-0.4623241,0.1861572-0.4599457,0.6044693c0.0007935,0.1191502,0.0138779,0.2125263,0.0241871,0.2896461
						l-1.0047417-0.1294594l-0.0059471-1.000576L28.0954056,24.1996937z"/>
				</g>
			</g>
			<g>
				<g>
					<path fill="#FFFFFF" d="M32.5469551,24.2546101c-0.0027733,0.0578899,0.0007935,0.1316395,0.0138779,0.2119312
						c0.0769234,0.4436874,0.403244,0.6768322,0.7478065,0.7232227v-0.0097141
						c-0.132431-0.0989285-0.2430573-0.2721996-0.2442474-0.5039558c-0.0019798-0.3699398,0.263279-0.6322269,0.6720772-0.6346054
						c0.3830223-0.0021801,0.7386856,0.2565384,0.741066,0.6909084c0.0027733,0.4474545-0.3433723,0.7422543-0.886982,0.7454262
						c-0.4119682,0.0023804-0.7382889-0.1439304-0.9452629-0.3487244c-0.1716881-0.172678-0.2791405-0.4038391-0.3128433-0.6677132
						c-0.0130844-0.083662-0.0170479-0.1542397-0.0174446-0.2055874L32.5469551,24.2546101z M33.7543106,24.3279629
						c-0.2993622,0.001585-0.4785805,0.1732712-0.4769936,0.4339733c0.0007935,0.170496,0.1078491,0.3277111,0.2597084,0.4038391
						c0.0321159,0.0192299,0.0741463,0.0319195,0.1256943,0.0317211c0.344162-0.0085258,0.5979271-0.1677227,0.5959435-0.4639111
						C34.257473,24.4889431,34.053669,24.3261776,33.7543106,24.3279629z"/>
				</g>
			</g>
			<g>
				<g>
					<path fill="#FFFFFF" d="M37.4457626,24.091547l0.1863556-0.0009918l1.9107513,0.8996677l0.0015869,0.2928181
						l-1.8556366-0.897089H37.682476l0.0055504,1.0235748l-0.2347298,0.0013866L37.4457626,24.091547z"/>
				</g>
			</g>
		</g>
	</g>
</g>
</svg>
