<?xml version="1.0" encoding="utf-8"?>
<!-- Generator: Adobe Illustrator 18.0.0, SVG Export Plug-In . SVG Version: 6.00 Build 0)  -->
<!DOCTYPE svg PUBLIC "-//W3C//DTD SVG 1.1//EN" "http://www.w3.org/Graphics/SVG/1.1/DTD/svg11.dtd">
<svg version="1.1" id="Layer_1" xmlns="http://www.w3.org/2000/svg" xmlns:xlink="http://www.w3.org/1999/xlink" x="0px" y="0px"
	 width="50px" height="50px" viewBox="0 0 50 50" enable-background="new 0 0 50 50" xml:space="preserve">
<g>
	<path fill="#F3F3F3" d="M25.0010509,0.0000008c1.5088634,0,2.9877415,0.1331171,4.4236507,0.3907273h0.0022106
		c10.5086842,1.8780837,18.7443714,10.3219042,20.3047886,20.9400978C49.9097672,22.5284195,50,23.7518997,50,24.99897
		C50,38.8066406,38.8065338,50,25.0010509,50C11.1933584,50,0,38.8066406,0,24.99897
		C0,11.1912756,11.1933584,0.0000008,25.0010509,0.0000008z"/>
	<path opacity="0.4" fill="#C4C4C4" d="M22.6094894,49.8998184l-0.002203,0.0001793
		C11.9803658,48.8860092,3.0828922,41.1426468,0.660915,30.6872692l15.0818701-15.1639748
		c0.0212326-0.0039568,0.4125013,7.5665188,0.4339151,7.5647659l5.6045589,4.6927032
		c0.7358704-0.0602703,0.4649563-0.1922302,1.703125,0.427084l3.21875,0.953125l2.265625,1.421875l4.4916592,1.890625
		l5.1689339,4.7304001"/>
	<path fill="#53C9C7" d="M33.699707,32.7734985l4.8136406-6.9034252c0.0969849-0.1390896,0.2166519-0.2544594,0.3489647-0.3428535
		c0.4427071-0.3008823,1.0449829-0.3127785,1.5097351,0.0112858l3.1374931,2.1877193
		c0.0175362,0.0122261,0.0351601,0.0245152,0.0515213,0.0386181c0.5450325,0.4192657,0.6849251,1.1866741,0.3155136,1.7690353
		c-0.0104752,0.0188885-0.0214996,0.0346985-0.0337868,0.0523224l-4.8136406,6.9034271
		c-0.4223022,0.6056366-1.2548599,0.7526169-1.8605003,0.3303146l-3.1374931-2.1877174
		c-0.4647522-0.3240662-0.6600761-0.8921165-0.5325203-1.4127464C33.5358353,33.0647621,33.6027222,32.91259,33.699707,32.7734985z"
		/>
	<path d="M43.754528,27.5356674l-3.2113647-2.2427979c-0.5518799-0.3848267-1.295166-0.3911743-1.8480835-0.0147705
		c-0.1679077,0.1127319-0.3117065,0.2540894-0.4279175,0.4207153l-0.0176392,0.0252686
		c-0.5124512-0.1812134-0.9533691-0.4585571-1.2927856-0.699585c-0.6030273-0.4287109-1.0728149-0.8695679-1.4360352-1.3486328
		c-0.3580322-0.4715576-0.6882324-0.9453735-0.793396-1.5518799c-0.1085815-0.6256714-0.3504639-1.1921997-0.7191772-1.684021
		l-0.1462402-0.1969604c-0.1949463-0.2636108-0.3965454-0.536438-0.6212769-0.7866821
		c-0.3313599-0.3695679-0.6665039-0.6997681-0.9955444-0.9824829c-0.3687153-0.3162842-0.7600117-0.614624-1.1386127-0.9036865
		l-0.2548828-0.1946411c-0.4063721-0.3116455-0.7979736-0.5074463-1.1965332-0.5983887
		c-0.7414551-0.1691895-1.4273682-0.2398682-2.1091919-0.2224731l-0.1033936,0.0011597
		c-0.5393066,0-1.0282593-0.1210938-1.4522705-0.3603516c-0.5807495-0.3267212-1.0685425-0.7628784-1.6008911-1.2576294
		l-0.059082-0.0549927c-0.6716919-0.6245117-1.3665771-1.2709961-2.2601318-1.644043
		c-0.3739014-0.1558228-0.8721313-0.3366089-1.4067993-0.3522339c-0.2372437-0.0075073-0.4741211-0.0011597-0.7116699,0.0057983
		c-0.1508789,0.0040283-0.3015137,0.0081177-0.4523926,0.008667c-0.9152832,0.0029297-1.7127075,0.512146-2.031311,1.2970581
		c-0.0136108,0.0341797-0.0426025,0.071228-0.067749,0.0869141c-0.1167603,0.074707-0.2363892,0.1453857-0.3560181,0.2154541
		c-0.1870728,0.1106567-0.3742065,0.2213135-0.5512085,0.3458862c-0.4897461,0.3440552-0.9627676,0.7542114-1.1136465,1.4569092
		c-0.0498047,0.2334595-0.1013794,0.4744263-0.1161499,0.7200317c-0.0419922,0.6905518-0.1964111,1.3787231-0.3455811,2.0443115
		c-0.048645,0.2172852-0.09729,0.4345093-0.1424561,0.6522827c-0.204834,0.9900513-0.0298462,1.7836914,0.5355225,2.4272461
		c0.3342285,0.3800049,0.6832886,0.7484741,1.0322866,1.116333l0.4005737,0.4234619
		c0.3701782,0.3950806,0.7423706,0.7883911,1.1143188,1.1811523c0.0680542,0.0718384,0.1340942,0.1453857,0.2003784,0.2189941
		c0.1590576,0.1760864,0.3235474,0.3579712,0.5098267,0.5178833c0.2528687,0.2154541,0.5164185,0.4182129,0.7799683,0.6209717
		c0.1677246,0.1292114,0.3354492,0.2578125,0.4996948,0.3898926c0.0494995,0.039978,0.0914917,0.0891724,0.1340942,0.1378784
		c0.0535889,0.0614014,0.1077271,0.1221924,0.1694336,0.1731567c0.0883179,0.0736084,0.1827393,0.1396484,0.2774658,0.2056885
		c0.0692139,0.048645,0.1387329,0.0967407,0.2053833,0.1488647c0.4671631,0.3649292,1.0392456,0.7496338,1.737854,0.8370972
		c0.6728516,0.0839844,1.3098145,0.3428955,1.8720093,0.571167c0.4063721,0.1651001,0.8066406,0.2658691,1.2234497,0.3087769
		c0.6919556,0.069519,1.2141724,0.2386475,1.6434326,0.5323486c0.4038086,0.2757568,0.7797241,0.5202026,1.149353,0.7461548
		c0.2241821,0.1366577,0.4515381,0.2687378,0.678894,0.4002686c0.3116455,0.1801758,0.6230469,0.3602905,0.925415,0.5543823
		c0.579895,0.3718872,1.2026367,0.6586304,1.8505859,0.8521118c0.3776875,0.1129761,0.7591572,0.2138062,1.1406269,0.3145752
		c0.2080078,0.0552368,0.4159546,0.1108398,0.6231689,0.1677246l-0.0250244,0.0358887
		c-0.1159058,0.1661987-0.1991577,0.3504639-0.2473755,0.5460205c-0.1591187,0.6515503,0.1037598,1.3468018,0.6533203,1.7299805
		l3.1376953,2.1878662c0.7401733,0.5161133,1.7620239,0.3345947,2.2775879-0.4047852l4.8134155-6.9030762l0.0413818-0.0628052
		C44.5847893,28.9777451,44.4187126,28.0464096,43.754528,27.5356674z M43.5965691,29.4149399l-4.8133545,6.9030762
		c-0.3264771,0.4682007-0.9741821,0.5826416-1.4428101,0.2559204l-3.1376953-2.1878662
		c-0.3476563-0.2424316-0.5142822-0.6830444-0.413269-1.0959473c0.0304565-0.1239624,0.0827637-0.2399292,0.156189-0.3452759
		l4.5967407-6.5923462c0.0532837-0.0094604,0.1008301-0.032959,0.1374512-0.0733032
		c0.0651855-0.0718384,0.0706177-0.15802,0.0689087-0.2225952l0.0103149-0.0148315
		c0.0737305-0.1057129,0.1644287-0.1948853,0.2716064-0.2666016c0.3503418-0.237793,0.8203125-0.2339478,1.1695557,0.0095825
		l3.1782837,2.2185059c0.4260254,0.328064,0.5318604,0.9172974,0.2374268,1.3822632l0.2266235,0.2008667L43.5965691,29.4149399z"/>
	<path fill="#E0B9A0" d="M33.1928215,31.9441147c-0.4857788-0.1343994-0.9882813-0.2734375-1.4717426-0.4327393
		c-0.3999634-0.1314697-0.7843628-0.3076172-1.2382202-0.531189c-0.2077026-0.1031494-0.4023438-0.2276611-0.6085205-0.3597412
		c-0.0842896-0.0544434-0.1688843-0.1083374-0.2540283-0.1610718l-0.1222534-0.074707
		c-0.7304688-0.4501343-1.4609375-0.9002075-2.1906128-1.3520508c-0.4706421-0.2913818-0.9401855-0.4622803-1.4354858-0.522522
		l-0.1288452-0.015686c-0.284729-0.0335693-0.5790405-0.0683594-0.848999-0.1447754
		c-0.1954956-0.0550537-0.3840332-0.1326904-0.5836182-0.2149658c-0.1593018-0.06604-0.3189087-0.1314697-0.4822388-0.1859131
		l-0.1987305-0.0671997c-0.3240967-0.1106567-0.6589355-0.2253418-1.0062256-0.2653198
		c-0.8442993-0.0979004-1.4789429-0.583374-1.9371338-0.9952393c-0.2047729-0.1842041-0.3866577-0.4118652-0.5628052-0.6314087
		l-0.0917969-0.1146851c-0.0628662-0.0776367-0.1280518-0.1547241-0.1931763-0.2317505
		c-0.1992798-0.2351685-0.3872681-0.4570313-0.5150146-0.7073364c-0.2316895-0.4535522-0.4408569-0.9314575-0.6427002-1.3937378
		c-0.1213989-0.2774658-0.2424316-0.5543823-0.3690186-0.8289795c-0.2329102-0.5039673-0.4252319-0.8862915-0.6235962-1.2390747
		c-0.3522339-0.6256714-0.5002441-1.1817627-0.4654541-1.7506714l0.0373535-0.6546021
		c0.0254517-0.4616699,0.0506592-0.9233398,0.0891724-1.3839111c0.0223389-0.2635498,0.0570679-0.538147,0.1581421-0.7606201
		c0.1205444-0.2641602,0.2745972-0.5103149,0.4376831-0.7709961c0.06427-0.1025391,0.1289063-0.2056885,0.1908569-0.3093872
		c0.0301514-0.050354,0.062561-0.0996094,0.0950317-0.1482544c0.3116455,0.1378174,0.6047974,0.0805054,0.8651733-0.1691895
		c0.1080322-0.1025391,0.2021484-0.2079468,0.2827148-0.3156738c-0.0078735,0.1511841-0.0185547,0.2982788-0.0394287,0.4448853
		c-0.0515747,0.3609009-0.1097412,0.7211914-0.1679688,1.081543c-0.0484009,0.3000488-0.0967407,1.0070992-0.1413574,1.307148
		C19.0247288,18.0807915,19.0195408,18.5,19.0021458,18.5c0,0-0.0014038,0-0.0020142,0
		c-0.0975952,0-0.1928711-0.3598213-0.2885132-0.3302803c-0.0697632,0.0214844-0.1395874-0.1610508-0.2105713-0.1442661
		c-0.043396,0.0098267-0.1754761-0.0619717-0.2293701,0.0625401c-0.0550537,0.1263428,0.0167847,0.1993313,0.0402832,0.2398586
		l0.0683594,0.0926781l0.6004028-0.1737556c-0.0379639,0.9007568,0.0723877,1.7332535,0.3356934,2.5459976l-0.0767212,0.0373096
		c-0.1575928,0.0839844-0.310791,0.1641026-0.4675293,0.2388706c-0.0393677,0.019104-0.1595459,0.0762234-0.1885376,0.2059841
		c-0.029541,0.1315308,0.0582275,0.2399845,0.0869141,0.2753239l0.0877686,0.10812l0.7327881-0.3418427l0.0115967,0.0311642
		c0.0579224,0.1564331,0.1135254,0.3070564,0.1795654,0.4536018c0.0924072,0.2039185,0.1891479,0.4055119,0.2858887,0.6076603
		c0.1508789,0.3157349,0.302063,0.6308575,0.4480591,0.9813213c0.3293457,0.7918701,0.6699829,1.6104107,1.3051758,2.2621441
		l0.1216431,0.1291485c0.0912476,0.0979004,0.1827393,0.1964111,0.2832642,0.2844849
		c0.3330688,0.2902222,0.6705322,0.5758057,1.0082397,0.8613892l0.2572021,0.2172241
		c0.0422974,0.0353394,0.0869141,0.0440063,0.1187744,0.0509644l0.1381836,0.0405884l0.2476196-0.4559326l-0.1387329-0.0891724
		c-0.0701294-0.0452271-0.1416626-0.0875244-0.2128906-0.1297607c-0.1488647-0.0880737-0.2896729-0.1715088-0.4060669-0.2745972
		c-0.3834839-0.3400879-0.7183228-0.6656494-1.024231-0.9963989c-0.382019-0.4141846-0.640686-0.7947998-0.8135986-1.1985474
		c-0.3452759-0.8063965-0.6427002-1.4794922-0.9705811-2.1456909c-0.3522339-0.7160034-0.593811-1.4534302-0.7180786-2.190918
		c-0.1528931-0.9088745-0.1520386-1.708313,0.0026245-2.4440308c0.0811157-0.3851929,0.1413574-0.7785645,0.1992798-1.1591187
		c0.0200195-0.1303711,0.039978-0.2612915,0.0608521-0.3910522c0.5546265-0.1488647,0.7698364-0.473877,0.8095093-1.1898804
		c0.0078735-0.1401978-0.0106812-0.2763062-0.036438-0.4165039c0.015625,0.0115967,0.0307007,0.0231934,0.045166,0.0353394
		c0.2374878,0.1958008,0.3660889,0.4785156,0.4978638,0.8005981c0.2207642,0.5393066,0.289978,1.1046753,0.3632202,1.7025146
		c0.0153809,0.1268921,0.0310059,0.2543335,0.0689697,0.3435669c-0.1179199,0.0509644-0.2401123,0.0926514-0.3693237,0.1361084
		l-0.269043,0.0938721l-0.0512695,0.543335l0.7692871-0.2027588l0.0599365,0.3377686
		c0.0570679,0.3284302,0.1144409,0.656311,0.1851196,0.9813232c0.074707,0.3428955,0.0349274,0.6307983-0.279892,0.9923096
		c-0.0620117,0.0700684-0.0013275,0.1552124-0.0013275,0.2305298v0.1934814l0.1332245,0.005249
		c0.0231934,0.003479,0.0170517,0.0057983,0.0379257,0.0057983l0.0748711-0.008728l0.0372524-0.029541
		c0.0643311-0.0422974,0.1215019-0.1030884,0.1777153-0.1801147c0.0112915-0.0150757,0.0204067-0.031311,0.0314541-0.046936
		c0.0917969,0.1720581,0.1865025,0.3486938,0.3075962,0.5091553c0.1815796,0.2392578,0.3853359,0.4628906,0.5826015,0.6795654
		l0.2007236,0.2218628c0.0422974,0.0474854,0.0900173,0.0921021,0.138113,0.1367188
		c0.0700684,0.06427,0.1363468,0.1251221,0.1672916,0.1870728c0.1118164,0.2236328,0.2041912,0.4536133,0.3020916,0.6974487
		l0.1685314,0.4113159l0.1231155-0.0040283c0.0909424-0.003479,0.2042274-0.006958,0.2719765-0.1043091
		c0.067749-0.0979004,0.0324097-0.2050781,0.0063477-0.2832642c-0.0367432-0.1112061-0.0767193-0.2212524-0.1173077-0.3313599
		c0.0602417,0.0167847,0.1210938,0.03302,0.1821899,0.0480957l0.9349976,0.2288208
		c0.4138794,0.100769,0.8278198,0.2015991,1.2733154,0.3209229c0.039917,0.2120361,0.0735474,0.4246216,0.1074219,0.6378174
		l0.0419922,0.2618408l0.1028442,0.1865234l0.4729614-0.0109863l-0.1416016-0.9564209l0.0054932,0.0011597
		c0.3293457,0.0753174,0.6551514,0.1500244,0.9807129,0.2282104c0.1315308,0.031311,0.2592773,0.0631714,0.3736572,0.1124268
		c0.4014893,0.1726074,0.8014526,0.3481445,1.2017822,0.5230713l0.6395264,0.2803955
		c0.1375732,0.0596313,0.2757568,0.1175537,0.4170532,0.1772461l0.3328247,0.1401978l0.2178345-0.4570923l-0.5769653-0.2786255
		c0.1743164-0.1268311,0.34552-0.2930908,0.4578857-0.5410767c0.1239624-0.2038574-0.0133057,0.0690498-0.0596313,0.0383492
		L31.1991673,23.5h-0.0530396c-0.0775757,0-0.21521-0.350605-0.2771606-0.2520943
		c-0.1320801,0.2102661-0.289917,0.2249355-0.5488892,0.3211269l-0.053894-0.0676479
		c-0.1888428-0.0805054-0.3762207-0.2128391-0.5639038-0.2962742c-0.1856689-0.0828247-0.3713379-0.1892433-0.5792847-0.2784157
		c-0.2073975-0.0880737-0.4214478-0.1910896-0.6473999-0.2484627c-0.3449707-0.0874634-0.6919556-0.1717148-1.0389404-0.2499619
		c-0.2039185-0.0463257-0.4078369-0.0950756-0.611145-0.1431103c-0.1989746-0.046936-0.3973999-0.0994473-0.5958252-0.1504726
		c-0.4014282-0.1025391-0.8164673-0.2098484-1.2341919-0.2822361c-0.6843872-0.1176147-1.2043457-0.4395199-1.5843506-0.9811459
		l0.1277466-0.1073952c0.1917725-0.1621704,0.3869629-0.326767,0.5859375-0.486618
		c0.1164551-0.0938721,0.2485352-0.1738529,0.3765259-0.2514896l0.2966309-0.1830559
		c0.2722778-0.1697388,0.5540771-0.3452816,0.8411255-0.488348c0.1642456-0.0817261,0.3493042-0.1309223,0.545105-0.182497
		c0.0892334-0.0231934,0.1781616-0.0469379,0.2676392-0.0741596c0.0880737-0.0272217,0.1712036-0.0527363,0.21521-0.144228
		c0.0443115-0.0927124,0.0112915-0.1749878-0.0269165-0.2705688l-0.0550537-0.1378784l-0.1453857,0.029541
		c-0.5656738,0.1147461-1.1574097,0.2734375-1.6901245,0.6407471l-0.0494995-0.0892334
		c0.0474854-0.0620117,0.0944214-0.1245728,0.1416626-0.1876831c0.1555176-0.2079468,0.3162842-0.4229126,0.4990234-0.5995483
		c0.1790161-0.1738281,0.3916016-0.3232422,0.616394-0.480835c0.1048584-0.0735474,0.2119751-0.1488647,0.3200684-0.2294312
		l0.2774658-0.2061768l-0.3296509-0.1060181c-0.0196533-0.0057983-0.038208-0.0145264-0.055603-0.0220337
		c-0.0466309-0.0202637-0.0947266-0.041687-0.1528931-0.041687l-0.0611572,0.0040283l-0.0390625,0.020874
		c-0.4121704,0.2183838-0.87677,0.506897-1.1997681,0.9871216c-0.0981445,0.1459351-0.1992798,0.2896118-0.2913818,0.4205322
		l-0.1856689-0.1586914c-0.2406616-0.2062378-0.4729614-0.4055176-0.7081299-0.600769
		c-0.2407227-0.1998291-0.484314-0.3962402-0.7316895-0.5949097l-0.1236572-0.1002197
		c0.27948-0.1749268,0.508606-0.4020386,0.6838379-0.6771851l0.1068726-0.1685791l-0.4483643-0.2062378l-0.1413574,0.1511841
		c-0.2403564,0.2757568-0.4477539,0.4941406-0.7449341,0.5856934c-0.0040894,0.0011597-0.0078125,0.0023193-0.0112915,0.003479
		c-0.0006104-0.0040894-0.0011597-0.0081177-0.0020142-0.012146l-0.06604-0.4403076
		c-0.0452271-0.3023682-0.0903931-0.6047363-0.1381836-0.9065552c-0.0796509-0.5040283-0.2731323-0.9784546-0.5914917-1.4500122
		c-0.2650146-0.3921509-0.611145-0.5770073-1.0476074-0.630291C20.3397312,13.4681206,20.4069309,13.5,20.4779148,13.5h0.0637207
		c0.5633545,0,1.1206665,0.1277275,1.8076782,0.5054741c0.4399414,0.2421265,0.8095703,0.5510464,1.2008667,0.9003506
		c0.1184692,0.1054077,0.2372437,0.201335,0.3577271,0.303874l0.342041,0.2904558
		c0.3629761,0.3145142,0.7380371,0.6375389,1.1293335,0.9330101c0.4961548,0.3742065,1.0551758,0.5827141,1.6611328,0.6220818
		l0.4926758,0.0300674c0.5037231,0.031311,1.0071411,0.062212,1.5090942,0.1068287
		c0.4411011,0.0394287,0.8674927,0.1921787,1.2671509,0.4540195c0.1491699,0.0979004,0.291687,0.2061672,0.4345093,0.3145046
		c0.0758667,0.057312,0.1514893,0.1146183,0.2282104,0.1708317c0.7852783,0.5740356,1.4323139,1.1545677,1.9782734,1.7743797
		c0.5564575,0.6314087,0.9141235,1.209549,1.1261597,1.8195343c0.0782471,0.2247314,0.1260376,0.4587765,0.177002,0.7067013
		c0.0254517,0.1245117,0.0512695,0.2491341,0.0805054,0.3725471c0.1216431,0.5068359,0.2374878,1.0473576,0.2044678,1.5889835
		c-0.0023193,0.0370483-0.0089722,0.1494122,0.0709839,0.2346172c0.0484009,0.052124,0.1572876,0.1100445,0.3432617,0.0526714
		l0.1311646-0.0399799l-0.027771-0.7229004c0.0321045,0.039917,0.0639648,0.079895,0.0958252,0.1204834
		c0.2039185,0.2565918,0.4147949,0.522522,0.6661987,0.7455444c0.3945313,0.3504639,0.84375,0.6806641,1.37323,1.0085449
		c0.2403564,0.1489258,0.5007324,0.2590942,0.7564697,0.3641968l-4.1530762,5.9560547
		C33.5941277,32.0554428,33.3931999,31.9994736,33.1928215,31.9441147z"/>
	<path fill="#E0B9A0" d="M19.7851658,14.2570419c0.0181885-0.2210083,0.1609497-0.3531494,0.3922729-0.4205322
		c0.1601563,0.4445801,0.2398071,0.8773193,0.0103149,1.3140259c-0.0889893,0.1694336-0.2247314,0.2451782-0.4645996,0.2592163
		C19.7431736,15.0167465,19.7540379,14.6360703,19.7851658,14.2570419z"/>
	<path fill="#E0B9A0" d="M19.363657,14.2912216c-0.0439453,0.4104004-0.2216187,0.7525024-0.5567627,1.0028687
		c-0.2169189,0.1620483-0.3441772,0.1574097-0.5028687-0.0048828c0.1847534-0.3329468,0.3531494-0.6564941,0.5415039-0.9679565
		c0.1105957-0.1829224,0.2424316-0.3585205,0.5083618-0.4487915C19.3586521,14.0309067,19.3774509,14.1628036,19.363657,14.2912216z
		"/>
	<path fill="#FFDB81" d="M19.2981663,13.4311142c-0.06427,0.0532837-0.1381226,0.1019287-0.2169189,0.1528931
		c-0.0822754,0.0533447-0.1657104,0.1077881-0.2444458,0.1726685c-0.0460815-0.0492554-0.1031494-0.0903931-0.1755371-0.1077881
		C18.8607883,13.5365219,19.0829563,13.4583359,19.2981663,13.4311142z"/>
	<path fill="#E0B9A0" d="M18.5799656,13.9900742c0.0772705,0.2529907-0.0755005,0.5236206-0.3834229,0.7280884
		c-0.3341675,0.2218628-0.8043823,0.2835693-1.0009155,0.1143188
		C17.6666355,14.5458603,18.1198826,14.2700424,18.5799656,13.9900742z"/>
	<path fill="#E0B9A0" d="M18.2545872,24.4909286c-0.2861938-0.3458252-0.609436-0.6644287-0.9222412-0.9732056
		c-0.1543579-0.1517334-0.3084717-0.3035278-0.4584961-0.4593506l-0.2039185-0.2097168
		c-0.2824097-0.2908325-0.574646-0.5914307-0.8457632-0.8984985c-0.499939-0.5671387-0.6835938-1.2211304-0.5454102-1.9452515
		c0.0361938-0.1894531,0.0779419-0.3771362,0.1193237-0.5653687c0.0562134-0.2548828,0.1124268-0.5092163,0.1558228-0.7664185
		c0.1225586-0.7258301,0.2085571-1.3161621,0.2699585-1.8566284c0.0675049-0.5891724,0.2647696-0.9778442,0.6401358-1.2599487
		c0.1523438-0.1147461,0.300354-0.2352295,0.4472046-0.3551025l0.0767822-0.0620117
		c0.2896118,0.1882935,0.6166382,0.2027588,0.9146729,0.1025391l-0.1561279,0.2456055
		c-0.1873779,0.2948608-0.3745117,0.5891724-0.5601807,0.8851929c-0.239502,0.3823242-0.368103,0.8364868-0.4042969,1.4285278
		c-0.0142212,0.2328491-0.0234985,0.4657593-0.0327759,0.6986084c-0.013855,0.3469849-0.027771,0.6939697-0.0576172,1.039856
		c-0.0628662,0.7281494,0.0912476,1.4041748,0.4712524,2.0662842c0.473877,0.8255005,0.855896,1.7164917,1.2254639,2.5784302
		c0.0990601,0.2311401,0.1981201,0.4628906,0.2992554,0.6934204c0.0266113,0.0602417,0.0561523,0.1199341,0.0877686,0.1778564
		C18.5952244,24.8813705,18.4220066,24.6936874,18.2545872,24.4909286z"/>
	<path fill="#F3F3F3" d="M22.2534275,17.6176376c0.333374,0.1778564,0.6296997,0.4095459,0.9144287,0.7131348
		c0.1604614,0.1714478,0.3547974,0.3006592,0.572937,0.4460449c0.2346191,0.1569824,0.3753662,0.3939209,0.4926758,0.6273804
		l0.0480957,0.0967407l-1.2359619,0.9639282c-0.2510986-0.2664795-0.4515381-0.52948-0.499939-0.8770752
		c-0.0272217-0.1951904-0.052124-0.3904419-0.0767212-0.5856323c-0.0338745-0.2664795-0.0675049-0.5335083-0.1074829-0.7994385
		C22.3322239,18.0086899,22.2940159,17.8163681,22.2534275,17.6176376z"/>
</g>
</svg>
