<?xml version="1.0" encoding="utf-8"?>
<!-- Generator: Adobe Illustrator 18.0.0, SVG Export Plug-In . SVG Version: 6.00 Build 0)  -->
<!DOCTYPE svg PUBLIC "-//W3C//DTD SVG 1.1//EN" "http://www.w3.org/Graphics/SVG/1.1/DTD/svg11.dtd">
<svg version="1.1" id="Layer_1" xmlns="http://www.w3.org/2000/svg" xmlns:xlink="http://www.w3.org/1999/xlink" x="0px" y="0px"
	 width="50px" height="50px" viewBox="0 0 50 50" enable-background="new 0 0 50 50" xml:space="preserve">
<g>
	<path fill="#F3F3F3" d="M25.0010509,0.0000008c1.5088634,0,2.9877415,0.1331171,4.4236507,0.3907273h0.0022106
		c10.5086842,1.8780837,18.7443714,10.3219042,20.3047886,20.9400978C49.9097672,22.5284195,50,23.7518997,50,24.99897
		C50,38.8066406,38.8065338,50,25.0010509,50C11.1933584,50,0,38.8066406,0,24.99897
		C0,11.1912756,11.1933584,0.0000008,25.0010509,0.0000008z"/>
	<path opacity="0.4" fill="#C4C4C4" d="M41.0737648,28.5389652c-0.2662888,0.3435898-9.5334949,10.5920353-10.0409107,11.1837292
		l-8.4903908,10.005249l-0.002203,0.0001793c-10.6269217-1.0139885-19.524395-8.7573471-21.9463711-19.2127266l8.2331047-9.0543613"
		/>
	<g>
		<rect x="8.8799505" y="21.4272499" fill="#221F1E" width="32.1992264" height="7.0779314"/>
		<circle fill="#221F1E" cx="12.1234236" cy="25" r="0.6320133"/>
		<g>
			<rect x="13.11131" y="21.9026222" fill="#53C9C7" width="0.2244212" height="2.2649784"/>
			<rect x="17.7512035" y="21.9026222" fill="#53C9C7" width="0.2244212" height="2.2649784"/>
			<rect x="22.3906689" y="21.9026222" fill="#53C9C7" width="0.2244212" height="2.2649784"/>
			<rect x="27.0305614" y="21.9026222" fill="#53C9C7" width="0.2244212" height="2.2649784"/>
			<rect x="31.6700573" y="21.9026222" fill="#53C9C7" width="0.2244212" height="2.2649784"/>
			<polygon fill="#53C9C7" points="36.5343742,24.2290459 36.3099518,24.1676025 36.3099518,21.9026241 36.5343742,21.9026241 			
				"/>
			<g>
				<polygon fill="#FFFFFF" points="8.9649792,21.6534615 8.9649792,21.877882 9.5260324,21.877882 9.5260324,23.2624741 
					9.7504539,23.2624741 9.7504539,21.877882 10.4241142,21.877882 10.4241142,23.2624741 10.6485348,23.2624741 
					10.6485348,21.877882 11.3221951,21.877882 11.3221951,23.2624741 11.5466166,23.2624741 11.5466166,21.877882 
					12.2202768,21.877882 12.2202768,23.2624741 12.4446983,23.2624741 12.4446983,21.877882 14.0160427,21.877882 
					14.0160427,23.2624741 14.2404642,23.2624741 14.2404642,21.877882 14.9141245,21.877882 14.9141245,23.2624741 
					15.138546,23.2624741 15.138546,21.877882 15.8122053,21.877882 15.8122053,23.2624741 16.0366268,23.2624741 
					16.0366268,21.877882 16.7102871,21.877882 16.7102871,23.2624741 16.9347076,23.2624741 16.9347076,21.877882 
					18.5064507,21.877882 18.5064507,23.2624741 18.7308712,23.2624741 18.7308712,21.877882 19.4045315,21.877882 
					19.4045315,23.2624741 19.628952,23.2624741 19.628952,21.877882 20.3022156,21.877882 20.3022156,23.2624741 
					20.526638,23.2624741 20.526638,21.877882 21.2002983,21.877882 21.2002983,23.2624741 21.4247189,23.2624741 
					21.4247189,21.877882 23.2585487,21.877882 23.2585487,23.2624741 23.4829712,23.2624741 23.4829712,21.877882 
					24.1562347,21.877882 24.1562347,23.2624741 24.3806553,23.2624741 24.3806553,21.877882 25.0543156,21.877882 
					25.0543156,23.2624741 25.2787361,23.2624741 25.2787361,21.877882 25.9523964,21.877882 25.9523964,23.2624741 
					26.1768188,23.2624741 26.1768188,21.877882 27.7858315,21.877882 27.7858315,23.2624741 28.010252,23.2624741 
					28.010252,21.877882 28.6839123,21.877882 28.6839123,23.2624741 28.9083328,23.2624741 28.9083328,21.877882 
					29.5819931,21.877882 29.5819931,23.2624741 29.8064156,23.2624741 29.8064156,21.877882 30.4796791,21.877882 
					30.4796791,23.2624741 30.7040997,23.2624741 30.7040997,21.877882 32.3884468,21.877882 32.3884468,23.2624741 
					32.6128693,23.2624741 32.6128693,21.877882 33.2865295,21.877882 33.2865295,23.2624741 33.510952,23.2624741 
					33.510952,21.877882 34.1842155,21.877882 34.1842155,23.2624741 34.4086342,23.2624741 34.4086342,21.877882 
					35.0822945,21.877882 35.0822945,23.2624741 35.3067169,23.2624741 35.3067169,21.877882 36.8407898,21.877882 
					36.8407898,23.2624741 37.0652122,23.2624741 37.0652122,21.877882 37.7388725,21.877882 37.7388725,23.2624741 
					37.963295,23.2624741 37.963295,21.877882 38.6369553,21.877882 38.6369553,23.2624741 38.8613739,23.2624741 
					38.8613739,21.877882 39.5346375,21.877882 39.5346375,23.2624741 39.7590599,23.2624741 39.7590599,21.877882 
					40.9941711,21.877882 40.9941711,21.6534615 				"/>
			</g>
			<g>
				<g>
					<path fill="#FFFFFF" d="M10.0076656,24.7995205v0.0063438l0.1986485,0.3628025l-0.2156982,0.0559063l-0.2466249-0.4557819
						l-0.001586-0.241272l2.0919542-0.0118942l0.001586,0.2735863L10.0076656,24.7995205z"/>
				</g>
			</g>
			<g>
				<g>
					<path fill="#FFFFFF" d="M16.3299217,25.403595l-0.1740665,0.0009918l-0.2168875-0.2206554
						c-0.5114899-0.5315132-0.7830954-0.7710018-1.098712-0.7723885c-0.2125263,0.0011883-0.4080029,0.105072-0.4064169,0.4173203
						c0.0011902,0.1899242,0.0987301,0.346941,0.1796169,0.4430923l-0.1990452,0.0911961
						c-0.1229162-0.1441288-0.214509-0.3495178-0.2156982-0.5907917c-0.0027752-0.450428,0.3053083-0.6421375,0.6046686-0.6439209
						c0.3861942-0.002182,0.6998291,0.2759666,1.1272602,0.7143002l0.1554298,0.1665325h0.0063438l-0.0051537-0.9397144
						l0.2347298-0.0013866L16.3299217,25.403595z"/>
				</g>
			</g>
			<g>
				<g>
					<path fill="#FFFFFF" d="M20.4940052,25.3379726c0.0511494-0.0806885,0.130846-0.2678375,0.1296558-0.4641075
						c-0.0019817-0.3637924-0.2347298-0.4752102-0.4083977-0.4710464c-0.2926197,0.0051556-0.4167271,0.2696228-0.4151402,0.543211
						l0.0007935,0.1576099l-0.2121296,0.0011902l-0.0011902-0.1576118
						c-0.0011902-0.2059822-0.1086426-0.4660892-0.3564568-0.4645042c-0.1673241,0.0007935-0.3148251,0.1078491-0.3132381,0.3685513
						c0.0007935,0.1675224,0.0757313,0.3279095,0.1407585,0.417717L18.8528748,25.34412
						c-0.0808868-0.1090393-0.1625652-0.3209705-0.1637554-0.5463829c-0.0023785-0.4117699,0.2410736-0.5997124,0.4952335-0.6011009
						c0.2156982-0.0011883,0.3996754,0.1262875,0.4948368,0.3832226h0.0063438
						c0.0499592-0.2577286,0.2418671-0.4680729,0.5344868-0.4696598c0.33465-0.0019817,0.6292515,0.2571335,0.6320286,0.7591076
						c0.001585,0.2349281-0.0713711,0.441309-0.1383801,0.5445976L20.4940052,25.3379726z"/>
				</g>
			</g>
			<g>
				<g>
					<path fill="#FFFFFF" d="M25.3047867,24.5284119l-0.5693798,0.0031719l0.0055523,0.9718304l-0.1867542,0.0009918
						l-1.3409767-0.9254398l-0.0019817-0.3057041l1.3001366-0.007534l-0.0015869-0.2928181l0.2224388-0.0011902l0.0015869,0.2928181
						l0.5693798-0.0031719L25.3047867,24.5284119z M24.5129681,24.532774l-0.6982422,0.0041618
						c-0.109436,0.0005951-0.2188702-0.0021801-0.3283062-0.0079288v0.0097141
						c0.1225204,0.0636387,0.212923,0.1145897,0.3100662,0.1718845l0.7141037,0.5079212l0.0063438-0.0001984L24.5129681,24.532774z"
						/>
				</g>
			</g>
			<g>
				<g>
					<path fill="#FFFFFF" d="M27.9391594,24.1659088l0.0043621,0.7979641l0.5380554,0.0773182
						c-0.0067406-0.0483742-0.0134811-0.0931797-0.0138779-0.1704979c-0.0007935-0.1609802,0.0337029-0.3219604,0.1098309-0.4514198
						c0.092783-0.1643505,0.2720013-0.3005486,0.5360737-0.3021355c0.4087963-0.0023785,0.7160854,0.3207722,0.7188625,0.7745705
						c0.0011883,0.2285843-0.062252,0.4220791-0.1260891,0.5221958l-0.2156982-0.0695858
						c0.0511494-0.0870342,0.1145897-0.2581253,0.1133995-0.4480495c-0.001585-0.267046-0.1768398-0.4946404-0.4567719-0.4930534
						c-0.2704163,0.0049572-0.4623241,0.1861591-0.4599438,0.6044712c0.0007915,0.1191483,0.013876,0.2125244,0.0241852,0.2896442
						l-1.0047398-0.1294575l-0.0059471-1.0005779L27.9391594,24.1659088z"/>
				</g>
			</g>
			<g>
				<g>
					<path fill="#FFFFFF" d="M32.3907089,24.2208233c-0.0027771,0.0578899,0.0007935,0.1316395,0.0138779,0.2119312
						c0.0769196,0.4436874,0.403244,0.6768322,0.7478065,0.7232227v-0.0097141
						c-0.1324348-0.0989265-0.2430573-0.2721996-0.2442474-0.5039558c-0.0019836-0.3699379,0.263279-0.632225,0.6720734-0.6346054
						c0.3830223-0.0021801,0.7386894,0.2565384,0.741066,0.6909084c0.0027771,0.4474545-0.3433723,0.7422562-0.8869781,0.7454281
						c-0.4119682,0.0023785-0.7382889-0.1439304-0.9452667-0.3487263c-0.1716843-0.1726761-0.2791367-0.4038391-0.3128395-0.6677113
						c-0.0130844-0.083662-0.0170517-0.1542397-0.0174484-0.2055874L32.3907089,24.2208233z M33.5980644,24.2941761
						c-0.2993622,0.0015869-0.4785805,0.1732731-0.4769974,0.4339752c0.0007935,0.170496,0.1078491,0.3277092,0.2597122,0.4038391
						c0.0321159,0.0192299,0.0741463,0.0319176,0.1256905,0.0317192c0.3441658-0.0085239,0.5979271-0.1677208,0.5959473-0.4639091
						C34.1012268,24.4551582,33.8974228,24.2923927,33.5980644,24.2941761z"/>
				</g>
			</g>
			<g>
				<g>
					<path fill="#FFFFFF" d="M37.2895126,24.0577621l0.1863594-0.0009918l1.9107513,0.8996677l0.0015869,0.2928181
						l-1.8556404-0.8970909H37.526226l0.0055504,1.0235748l-0.2347298,0.0013885L37.2895126,24.0577621z"/>
				</g>
			</g>
		</g>
	</g>
	<path fill="#191919" d="M38.8292732,19.761528l-24.8750019,0.125c-0.2070313,0.0009766-0.3740234,0.1699219-0.3730469,0.3769531
		c0.0009766,0.206543,0.1689453,0.3730469,0.375,0.3730469c0.0009766,0,0.0009766,0,0.0019531,0l24.8750019-0.125
		c0.2070313-0.0009766,0.3740234-0.1699219,0.3730469-0.3769531C39.2052498,19.9270554,39.0548592,19.7551804,38.8292732,19.761528z
		"/>
	<polygon fill="#FFFFFF" points="30.7726154,20.5365276 29.8478413,20.5364437 29.8477688,20.5364437 29.8476963,19.7864437 
		30.7724705,19.7865276 	"/>
	<polygon fill="#FFFFFF" points="14.9503517,20.636528 14.0255775,20.6364422 14.0255051,20.6364422 14.0254326,19.8864422 
		14.9502058,19.886528 	"/>
</g>
</svg>
