<?xml version="1.0" encoding="utf-8"?>
<!-- Generator: Adobe Illustrator 18.0.0, SVG Export Plug-In . SVG Version: 6.00 Build 0)  -->
<!DOCTYPE svg PUBLIC "-//W3C//DTD SVG 1.1//EN" "http://www.w3.org/Graphics/SVG/1.1/DTD/svg11.dtd">
<svg version="1.1" id="Layer_1" xmlns="http://www.w3.org/2000/svg" xmlns:xlink="http://www.w3.org/1999/xlink" x="0px" y="0px"
	 width="50px" height="50px" viewBox="0 0 50 50" enable-background="new 0 0 50 50" xml:space="preserve">
<g>
	<path fill="#F3F3F3" d="M25.0010509,0.0000008c1.5088634,0,2.9877415,0.1331171,4.4236507,0.3907273h0.0022106
		c10.5086842,1.8780837,18.7443714,10.3219042,20.3047886,20.9400978C49.9097672,22.5284195,50,23.7518997,50,24.99897
		C50,38.8066406,38.8065338,50,25.0010509,50C11.1933584,50,0,38.8066406,0,24.99897
		C0,11.1912756,11.1933584,0.0000008,25.0010509,0.0000008z"/>
	<path opacity="0.4" fill="#C4C4C4" d="M41.0737648,28.5389652c-0.2662888,0.3435898-9.5334949,10.5920353-10.0409107,11.1837292
		l-8.4903908,10.005249l-0.002203,0.0001793c-10.6269217-1.0139885-19.524395-8.7573471-21.9463711-19.2127266l8.2331047-9.0543613"
		/>
	<path fill="#221F1E" d="M34.2315979,21.5286102c0-4.0644798-2.8599129-7.46099-6.6771774-8.2869759l1.7965584-2.2614899
		L28.0453587,9.642149l-4.4071579,0.0027552l-1.3318253,1.3362551l1.7723236,2.233922
		c-3.8808937,0.7772102-6.8046532,4.2039309-6.8046532,8.313529 M23.2819023,11.0311575l0.6639519-0.6587381l3.7860928,0.002656
		l0.6452885,0.6521587l-1.5027981,1.8917093l-0.1411266,0.1869736c-0.3216953-0.0370436-0.6488705-0.0560808-0.9804897-0.0560808
		c-0.2788525,0-0.5545616,0.0134611-0.8265114,0.0397692l-0.1463127-0.1701765L23.2819023,11.0311575z M18.0448437,21.5286102
		c0-4.2569981,3.4509773-7.7079773,7.7079773-7.7079773s7.7079792,3.4509792,7.7079792,7.7079773"/>
	<g>
		<rect x="8.9003973" y="21.4610271" fill="#221F1E" width="32.1992264" height="7.0779314"/>
		<circle fill="#221F1E" cx="12.1438398" cy="25.0337772" r="0.6320133"/>
		<g>
			<rect x="13.1317263" y="21.9364014" fill="#53C9C7" width="0.2244212" height="2.2649784"/>
			<rect x="17.7716198" y="21.9364014" fill="#53C9C7" width="0.2244212" height="2.2649784"/>
			<rect x="22.4111156" y="21.9364014" fill="#53C9C7" width="0.2244212" height="2.2649784"/>
			<rect x="27.0510082" y="21.9364014" fill="#53C9C7" width="0.2244212" height="2.2649784"/>
			<rect x="31.6904736" y="21.9364014" fill="#53C9C7" width="0.2244212" height="2.2649784"/>
			<polygon fill="#53C9C7" points="36.5547981,24.2628231 36.3303757,24.2013798 36.3303757,21.9364014 36.5547981,21.9364014 			
				"/>
			<g>
				<polygon fill="#FFFFFF" points="8.985405,21.6872387 8.985405,21.9116592 9.5464582,21.9116592 9.5464582,23.2962513 
					9.7708797,23.2962513 9.7708797,21.9116592 10.4445391,21.9116592 10.4445391,23.2962513 10.6689606,23.2962513 
					10.6689606,21.9116592 11.3426208,21.9116592 11.3426208,23.2962513 11.5670424,23.2962513 11.5670424,21.9116592 
					12.2407026,21.9116592 12.2407026,23.2962513 12.4651232,23.2962513 12.4651232,21.9116592 14.0364685,21.9116592 
					14.0364685,23.2962513 14.26089,23.2962513 14.26089,21.9116592 14.9345503,21.9116592 14.9345503,23.2962513 
					15.1589708,23.2962513 15.1589708,21.9116592 15.8326311,21.9116592 15.8326311,23.2962513 16.0570526,23.2962513 
					16.0570526,21.9116592 16.7307129,21.9116592 16.7307129,23.2962513 16.9551334,23.2962513 16.9551334,21.9116592 
					18.5268745,21.9116592 18.5268745,23.2962513 18.751297,23.2962513 18.751297,21.9116592 19.4249573,21.9116592 
					19.4249573,23.2962513 19.6493778,23.2962513 19.6493778,21.9116592 20.3226414,21.9116592 20.3226414,23.2962513 
					20.5470619,23.2962513 20.5470619,21.9116592 21.2207222,21.9116592 21.2207222,23.2962513 21.4451447,23.2962513 
					21.4451447,21.9116592 23.2789745,21.9116592 23.2789745,23.2962513 23.5033951,23.2962513 23.5033951,21.9116592 
					24.1766605,21.9116592 24.1766605,23.2962513 24.4010811,23.2962513 24.4010811,21.9116592 25.0747414,21.9116592 
					25.0747414,23.2962513 25.2991619,23.2962513 25.2991619,21.9116592 25.9728222,21.9116592 25.9728222,23.2962513 
					26.1972427,23.2962513 26.1972427,21.9116592 27.8062572,21.9116592 27.8062572,23.2962513 28.0306778,23.2962513 
					28.0306778,21.9116592 28.7043381,21.9116592 28.7043381,23.2962513 28.9287586,23.2962513 28.9287586,21.9116592 
					29.6024189,21.9116592 29.6024189,23.2962513 29.8268414,23.2962513 29.8268414,21.9116592 30.5001049,21.9116592 
					30.5001049,23.2962513 30.7245255,23.2962513 30.7245255,21.9116592 32.4088745,21.9116592 32.4088745,23.2962513 
					32.633297,23.2962513 32.633297,21.9116592 33.3069534,21.9116592 33.3069534,23.2962513 33.5313759,23.2962513 
					33.5313759,21.9116592 34.2046394,21.9116592 34.2046394,23.2962513 34.4290619,23.2962513 34.4290619,21.9116592 
					35.1027222,21.9116592 35.1027222,23.2962513 35.3271446,23.2962513 35.3271446,21.9116592 36.8612175,21.9116592 
					36.8612175,23.2962513 37.0856361,23.2962513 37.0856361,21.9116592 37.7592964,21.9116592 37.7592964,23.2962513 
					37.9837189,23.2962513 37.9837189,21.9116592 38.6573792,21.9116592 38.6573792,23.2962513 38.8818016,23.2962513 
					38.8818016,21.9116592 39.5550652,21.9116592 39.5550652,23.2962513 39.7794838,23.2962513 39.7794838,21.9116592 
					41.014595,21.9116592 41.014595,21.6872387 				"/>
			</g>
			<g>
				<g>
					<path fill="#FFFFFF" d="M10.0280914,24.8332977v0.0063438l0.1986485,0.3628025l-0.2156982,0.0559063l-0.2466249-0.4557819
						l-0.001586-0.241272l2.0919542-0.0118942l0.001586,0.2735863L10.0280914,24.8332977z"/>
				</g>
			</g>
			<g>
				<g>
					<path fill="#FFFFFF" d="M16.3503456,25.4373722L16.176281,25.438364l-0.2168875-0.2206554
						c-0.5114899-0.5315132-0.7830954-0.7710018-1.098712-0.7723904c-0.2125263,0.0011902-0.4080029,0.1050739-0.4064169,0.4173222
						c0.0011892,0.1899242,0.0987291,0.346941,0.179616,0.4430923l-0.1990442,0.0911961
						c-0.1229162-0.1441288-0.214509-0.3495178-0.2156982-0.5907917c-0.0027761-0.450428,0.3053074-0.6421375,0.6046677-0.6439209
						c0.3861952-0.002182,0.6998301,0.2759666,1.1272612,0.7143002l0.1554298,0.1665325h0.0063438l-0.0051556-0.9397144
						l0.2347317-0.0013885L16.3503456,25.4373722z"/>
				</g>
			</g>
			<g>
				<g>
					<path fill="#FFFFFF" d="M20.514431,25.3717499c0.0511494-0.0806885,0.130846-0.2678375,0.1296558-0.4641075
						c-0.0019817-0.3637924-0.2347298-0.4752102-0.4083977-0.4710464c-0.2926216,0.0051556-0.4167271,0.2696228-0.4151402,0.543211
						l0.0007935,0.1576099l-0.2121296,0.0011902l-0.0011902-0.1576118
						c-0.0011902-0.2059822-0.1086426-0.4660892-0.3564568-0.4645042c-0.167326,0.0007935-0.3148251,0.1078491-0.3132381,0.3685513
						c0.0007935,0.1675224,0.0757313,0.3279095,0.1407585,0.417717l-0.2057858,0.0751381
						c-0.0808868-0.1090393-0.1625671-0.3209705-0.1637554-0.5463829c-0.0023804-0.4117699,0.2410736-0.5997124,0.4952335-0.6011009
						c0.2156982-0.0011883,0.3996754,0.1262875,0.4948368,0.3832226h0.0063438
						c0.0499592-0.2577286,0.2418671-0.4680729,0.5344868-0.4696598c0.33465-0.0019817,0.6292515,0.2571335,0.6320267,0.7591076
						c0.0015869,0.2349281-0.0713692,0.4413071-0.1383801,0.5445976L20.514431,25.3717499z"/>
				</g>
			</g>
			<g>
				<g>
					<path fill="#FFFFFF" d="M25.3252125,24.5621891l-0.5693798,0.0031719l0.0055504,0.9718304l-0.1867523,0.0009918
						l-1.3409767-0.9254398l-0.0019817-0.3057041l1.3001366-0.007534l-0.0015869-0.2928181l0.2224388-0.0011902l0.0015869,0.2928181
						l0.5693779-0.0031719L25.3252125,24.5621891z M24.5333939,24.5665493l-0.6982422,0.0041637
						c-0.109436,0.0005951-0.2188702-0.0021801-0.3283062-0.0079288v0.0097141
						c0.1225204,0.0636387,0.212923,0.1145897,0.3100662,0.1718845l0.7141037,0.5079212l0.0063438-0.0001984L24.5333939,24.5665493z
						"/>
				</g>
			</g>
			<g>
				<g>
					<path fill="#FFFFFF" d="M27.9595852,24.1996841l0.0043602,0.7979641l0.5380573,0.0773182
						c-0.0067406-0.0483723-0.0134811-0.0931778-0.0138779-0.170496c-0.0007935-0.1609802,0.0337029-0.3219604,0.1098309-0.4514198
						c0.092783-0.1643505,0.2720013-0.3005505,0.5360737-0.3021355c0.4087944-0.0023785,0.7160854,0.3207722,0.7188606,0.7745705
						c0.0011902,0.2285843-0.0622501,0.4220791-0.1260872,0.5221958l-0.2156982-0.0695877
						c0.0511494-0.0870323,0.1145897-0.2581234,0.1133995-0.4480476c-0.001585-0.267046-0.1768398-0.4946404-0.4567719-0.4930534
						c-0.2704163,0.0049553-0.4623241,0.1861591-0.4599457,0.6044693c0.0007935,0.1191502,0.0138779,0.2125263,0.0241871,0.2896461
						l-1.0047398-0.1294575l-0.005949-1.0005779L27.9595852,24.1996841z"/>
				</g>
			</g>
			<g>
				<g>
					<path fill="#FFFFFF" d="M32.4111328,24.2546005c-0.0027733,0.0578899,0.0007935,0.1316395,0.0138779,0.2119312
						c0.0769234,0.4436874,0.403244,0.6768322,0.7478065,0.7232227v-0.0097141
						c-0.132431-0.0989265-0.2430573-0.2721996-0.2442474-0.5039558c-0.0019798-0.3699379,0.263279-0.632225,0.6720772-0.6346054
						c0.3830223-0.0021801,0.7386856,0.2565384,0.741066,0.6909084c0.0027733,0.4474545-0.3433723,0.7422562-0.886982,0.7454281
						c-0.4119644,0.0023785-0.7382889-0.1439304-0.9452629-0.3487263c-0.1716881-0.1726761-0.2791405-0.4038391-0.3128433-0.6677113
						c-0.0130844-0.083662-0.0170479-0.1542397-0.0174446-0.2055874L32.4111328,24.2546005z M33.6184883,24.3279533
						c-0.2993622,0.0015869-0.4785805,0.1732731-0.4769936,0.4339733c0.0007935,0.1704979,0.1078491,0.3277111,0.2597084,0.403841
						c0.0321198,0.0192299,0.0741463,0.0319176,0.1256943,0.0317192c0.3441658-0.0085239,0.5979271-0.1677208,0.5959435-0.4639091
						C34.1216507,24.4889355,33.9178505,24.32617,33.6184883,24.3279533z"/>
				</g>
			</g>
			<g>
				<g>
					<path fill="#FFFFFF" d="M37.3099403,24.0915394l0.1863556-0.0009918l1.9107513,0.8996677l0.0015869,0.2928181
						l-1.8556366-0.8970909h-0.0063438l0.0055504,1.0235748l-0.2347298,0.0013885L37.3099403,24.0915394z"/>
				</g>
			</g>
		</g>
	</g>
</g>
</svg>
