<?xml version="1.0" encoding="UTF-8"?>
<!DOCTYPE svg PUBLIC "-//W3C//DTD SVG 1.1//EN" "http://www.w3.org/Graphics/SVG/1.1/DTD/svg11.dtd">
<!-- Creator: CorelDRAW X7 -->
<svg xmlns="http://www.w3.org/2000/svg" xml:space="preserve" width="40px" height="40px" version="1.1" style="shape-rendering:geometricPrecision; text-rendering:geometricPrecision; image-rendering:optimizeQuality; fill-rule:evenodd; clip-rule:evenodd"
viewBox="0 0 98935 98935"
 xmlns:xlink="http://www.w3.org/1999/xlink"
 enable-background="new 0 0 32 32">
 <defs>
  <style type="text/css">
   <![CDATA[
    .str0 {stroke:#4D4D4D;stroke-width:1479.2}
    .fil0 {fill:none}
    .fil1 {fill:#4D4D4D}
   ]]>
  </style>
 </defs>
 <g id="Layer_x0020_1">
  <metadata id="CorelCorpID_0Corel-Layer"/>
  <rect class="fil0" y="1" width="98935" height="98935"/>
  <g id="_1112546800">
   <g>
    <g>
     <path class="fil1 str0" d="M49367 80624l-814 -612c-1018,-610 -24233,-16494 -24233,-36653 -203,-13848 11201,-25047 25047,-25047 13846,0 25250,11201 25250,25047 0,20159 -23214,36043 -24232,36653l-1018 612zm0 -59258c-12218,0 -22195,9775 -22195,21993 0,16494 17919,30546 21993,33599 4275,-3055 22397,-17105 22397,-33599 0,-12218 -9976,-21993 -22195,-21993z"/>
    </g>
    <g>
     <path class="fil1 str0" d="M49367 59039c-8757,0 -15680,-7127 -15680,-15680 0,-8756 7127,-15680 15680,-15680 8757,0 15680,7127 15680,15680 0,8757 -6923,15680 -15680,15680zm0 -28306c-6923,0 -12625,5701 -12625,12624 0,6923 5702,12624 12625,12624 6923,0 12624,-5701 12624,-12624 0,-6921 -5701,-12624 -12624,-12624z"/>
    </g>
   </g>
  </g>
 </g>
</svg>
