<?xml version="1.0" encoding="UTF-8"?>
<!DOCTYPE svg PUBLIC "-//W3C//DTD SVG 1.1//EN" "http://www.w3.org/Graphics/SVG/1.1/DTD/svg11.dtd">
<!-- Creator: CorelDRAW X7 -->
<svg xmlns="http://www.w3.org/2000/svg" xml:space="preserve" width="50px" height="50px" version="1.1" style="shape-rendering:geometricPrecision; text-rendering:geometricPrecision; image-rendering:optimizeQuality; fill-rule:evenodd; clip-rule:evenodd"
viewBox="0 0 272936 272936"
 xmlns:xlink="http://www.w3.org/1999/xlink">
 <defs>
  <style type="text/css">
   <![CDATA[
    .fil0 {fill:none}
    .fil1 {fill:#4d4d4d}
   ]]>
  </style>
 </defs>
 <g id="Layer_x0020_1">
  <metadata id="CorelCorpID_0Corel-Layer"/>
  <rect class="fil0" x="-3" y="-3" width="272942" height="272942"/>
  <path class="fil1" d="M137557 201974c-2179,2180 -6002,2180 -8188,0l-20200 -20200c-2179,-2185 -2179,-6002 0,-8188 2186,-2186 6009,-2186 8195,0l10367 10374 0 -54591c0,-3275 2728,-6002 5462,-6002 3275,0 6002,2727 6002,6002l0 55133 10922 -10916c1090,-1090 2179,-1638 3817,-1638 1638,0 2727,548 3824,1638 2727,2179 2727,6003 0,8188l-20201 20200 0 0zm49130 -92257c-4365,-22927 -24558,-40393 -48581,-40393 -16925,0 -31664,8188 -40942,21289 -24017,1638 -42579,19104 -42579,40942 0,22379 18014,40941 40393,40941 3276,0 6003,-2179 6003,-5461 0,-3275 -2727,-6002 -6003,-6002 -15828,0 -28930,-13101 -28930,-29478 0,-16918 14739,-29478 33843,-29478 2186,0 3824,-548 4913,-2727 7099,-11464 19652,-18015 33302,-18015 19652,0 36028,14739 38207,34391 0,3276 2734,5455 5461,5455 15829,0 25113,7099 25113,19652 0,10922 -9284,20200 -20200,20200l-16924 0c-3276,0 -5455,2734 -5455,6002 0,3282 2179,5461 5455,5461l16924 0c17473,0 31664,-14190 31664,-31663 0,-17466 -12012,-29478 -31664,-31109l0 -7z"/> </g>
</svg>
