<?xml version="1.0" encoding="UTF-8"?>
<!DOCTYPE svg PUBLIC "-//W3C//DTD SVG 1.1//EN" "http://www.w3.org/Graphics/SVG/1.1/DTD/svg11.dtd">
<!-- Creator: CorelDRAW X7 -->
<svg xmlns="http://www.w3.org/2000/svg" xml:space="preserve" width="40px" height="40px" version="1.1" style="shape-rendering:geometricPrecision; text-rendering:geometricPrecision; image-rendering:optimizeQuality; fill-rule:evenodd; clip-rule:evenodd"
viewBox="0 0 73759 73759"
 xmlns:xlink="http://www.w3.org/1999/xlink">
 <defs>
  <style type="text/css">
   <![CDATA[
    .str0 {stroke:#4D4D4D;stroke-width:1179.6}
    .fil0 {fill:none}
    .fil1 {fill:#4D4D4D}
   ]]>
  </style>
 </defs>
 <g id="Layer_x0020_1">
  <metadata id="CorelCorpID_0Corel-Layer"/>
  <rect class="fil0" x="-1" y="-1" width="73760" height="73760"/>
  <g id="_1005812880">
   <path class="fil1 str0" d="M41160 52850c-6819,0 -12369,-5441 -12369,-12129 0,-6689 5550,-12134 12369,-12134 6818,0 12366,5445 12366,12134 0,6688 -5548,12129 -12366,12129zm0 -22226c-5694,0 -10327,4530 -10327,10092 0,5564 4633,10089 10327,10089 5693,0 10324,-4529 10324,-10089 -3,-5565 -4631,-10092 -10324,-10092z"/>
   <path class="fil1 str0" d="M49179 33879c-265,0 -528,-101 -728,-301 -392,-403 -386,-1051 15,-1445l10416 -10203c403,-391 1051,-385 1445,17 392,403 386,1053 -16,1443l-10416 10203c-197,188 -457,286 -716,286l0 0z"/>
   <path class="fil1 str0" d="M60428 34184c-563,0 -1021,-460 -1021,-1021l0 -10212 -10211 0c-564,0 -1021,-460 -1021,-1021 0,-561 457,-1021 1021,-1021l11232 0c562,0 1022,460 1022,1021l0 11233c0,561 -458,1021 -1022,1021z"/>
   <path class="fil1 str0" d="M31941 45208c-6819,0 -12365,-5445 -12365,-12134 0,-6687 5546,-12132 12365,-12132 6818,0 12368,5445 12368,12132 0,6689 -5550,12134 -12368,12134zm0 -22226c-5694,0 -10323,4532 -10323,10090 0,5571 4631,10092 10323,10092 5691,0 10326,-4530 10326,-10092 -2,-5563 -4635,-10090 -10326,-10090z"/>
   <path class="fil1 str0" d="M13503 52155c-266,0 -529,-101 -730,-302 -393,-402 -386,-1054 16,-1444l10414 -10203c405,-392 1051,-387 1445,17 394,402 388,1049 -14,1444l-10416 10202c-199,192 -455,288 -715,288l0 -2z"/>
   <path class="fil1 str0" d="M20137 52401c-258,0 -514,-98 -715,-291l-6805 -6669c-405,-393 -410,-1042 -16,-1444 395,-401 1040,-404 1443,-17l6805 6664c405,394 410,1046 16,1445 -197,209 -463,312 -728,312l0 0z"/>
  </g>
 </g>
</svg>
