<?xml version="1.0" encoding="UTF-8"?>
<!DOCTYPE svg PUBLIC "-//W3C//DTD SVG 1.1//EN" "http://www.w3.org/Graphics/SVG/1.1/DTD/svg11.dtd">
<!-- Creator: CorelDRAW X7 -->
<svg xmlns="http://www.w3.org/2000/svg" xml:space="preserve" width="40px" height="40px" version="1.1" style="shape-rendering:geometricPrecision; text-rendering:geometricPrecision; image-rendering:optimizeQuality; fill-rule:evenodd; clip-rule:evenodd"
viewBox="0 0 93612 93612"
 xmlns:xlink="http://www.w3.org/1999/xlink">
 <defs>
  <style type="text/css">
   <![CDATA[
    .fil0 {fill:none}
    .fil1 {fill:#4D4D4D}
   ]]>
  </style>
 </defs>
 <g id="Layer_x0020_1">
  <metadata id="CorelCorpID_0Corel-Layer"/>
  <rect class="fil0" y="1" width="93612" height="93612"/>
  <g id="_1177753024">
   <g id="_9_14_">
    <g>
     <path class="fil1" d="M60520 17553l-27428 0c-4037,0 -7313,3274 -7313,7313l0 43880c0,4040 3276,7314 7313,7314l27428 0c4037,0 7311,-3275 7311,-7314l3 -43880c0,-4040 -3276,-7313 -7313,-7313l-1 0zm3655 51194c0,2020 -1636,3658 -3656,3658l-27428 -3c-2018,0 -3656,-1635 -3656,-3656l0 -5487 34740 3 0 5485zm0 -9141l-34740 0 0 -29254 34740 0 0 29254zm0 -32912l-34740 0 0 -1827c0,-2019 1635,-3658 3656,-3658l27428 3c2018,0 3656,1638 3656,3656l0 1827 0 -1zm-17370 43881c1512,0 2744,-1229 2744,-2740 0,-1514 -1232,-2743 -2744,-2743 -1511,0 -2743,1229 -2743,2743 0,1511 1232,2740 2743,2740z"/>
    </g>
   </g>
   <g>
   </g>
   <g>
   </g>
   <g>
   </g>
   <g>
   </g>
   <g>
   </g>
   <g>
   </g>
   <g>
   </g>
   <g>
   </g>
   <g>
   </g>
   <g>
   </g>
   <g>
   </g>
   <g>
   </g>
   <g>
   </g>
   <g>
   </g>
   <g>
   </g>
  </g>
 </g>
</svg>
