<?xml version="1.0" encoding="UTF-8"?>
<!DOCTYPE svg PUBLIC "-//W3C//DTD SVG 1.1//EN" "http://www.w3.org/Graphics/SVG/1.1/DTD/svg11.dtd">
<!-- Creator: CorelDRAW X7 -->
<svg xmlns="http://www.w3.org/2000/svg" xml:space="preserve" width="40px" height="40px" version="1.1" style="shape-rendering:geometricPrecision; text-rendering:geometricPrecision; image-rendering:optimizeQuality; fill-rule:evenodd; clip-rule:evenodd"
viewBox="0 0 111639 111639"
 xmlns:xlink="http://www.w3.org/1999/xlink">
 <defs>
  <style type="text/css">
   <![CDATA[
    .fil0 {fill:none}
    .fil1 {fill:#4D4D4D}
   ]]>
  </style>
 </defs>
 <g id="Layer_x0020_1">
  <metadata id="CorelCorpID_0Corel-Layer"/>
  <rect class="fil0" width="111639" height="111639"/>
  <path class="fil1" d="M42278 57104c-5567,0 -10124,4555 -10124,10124l20246 0c0,-5572 -4555,-10124 -10122,-10124zm0 -2534c2788,0 5063,-2276 5063,-5061 0,-2785 -2275,-5063 -5063,-5063 -2785,0 -5063,2278 -5063,5063 0,2785 2278,5061 5063,5061zm37122 -21934l-16029 0c-7552,13 -3018,-89 -15191,0l-16026 0c-6749,0 -10969,5061 -10969,10969l0 25311c0,5908 4808,10125 10713,10125l47842 -3c5905,0 10713,-4219 10713,-10124l0 -25312c-85,-5905 -4301,-10966 -11053,-10966zm6752 35434c0,3123 -3630,5905 -6749,5905l-47249 0c-3120,0 -6749,-2782 -6749,-5905l-3 -24468c0,-3123 3630,-5908 6749,-5908 10120,3 20265,161 30373,3l16876 0c3120,0 6748,2785 6748,5908l4 24465zm-26999 -14344l20247 0 0 -3376 -20247 0 0 3376zm0 7595l20247 0 0 -3375 -20247 0 0 3375z"/>
 </g>
</svg>
