<?xml version="1.0" encoding="UTF-8"?>
<!DOCTYPE svg PUBLIC "-//W3C//DTD SVG 1.1//EN" "http://www.w3.org/Graphics/SVG/1.1/DTD/svg11.dtd">
<!-- Creator: CorelDRAW X7 -->
<svg xmlns="http://www.w3.org/2000/svg" xml:space="preserve" width="50px" height="50px" version="1.1" style="shape-rendering:geometricPrecision; text-rendering:geometricPrecision; image-rendering:optimizeQuality; fill-rule:evenodd; clip-rule:evenodd"
viewBox="0 0 98962 98962"
 xmlns:xlink="http://www.w3.org/1999/xlink"
 enable-background="new 0 0 100 100">
 <defs>
  <style type="text/css">
   <![CDATA[
    .fil0 {fill:none}
    .fil1 {fill:#4D4D4D}
   ]]>
  </style>
 </defs>
 <g id="Layer_x0020_1">
  <metadata id="CorelCorpID_0Corel-Layer"/>
  <rect class="fil0" y="1" width="98962" height="98962"/>
  <g id="_835120000">
   <path class="fil1" d="M78756 51227l-18332 18412c-477,477 -1111,715 -1746,715 -636,0 -1267,-238 -1747,-715 -951,-952 -951,-2539 0,-3490l14206 -14206 -49200 0c-1349,0 -2460,-1111 -2460,-2459 0,-1352 1111,-2462 2460,-2462l49200 0 -14206 -14204c-951,-951 -951,-2541 0,-3492 952,-952 2541,-952 3493,0l18411 18411c874,952 874,2539 -79,3490z"/>
  </g>
 </g>
</svg>
