<?xml version="1.0" encoding="UTF-8"?>
<!DOCTYPE svg PUBLIC "-//W3C//DTD SVG 1.1//EN" "http://www.w3.org/Graphics/SVG/1.1/DTD/svg11.dtd">
<!-- Creator: CorelDRAW X7 -->
<svg xmlns="http://www.w3.org/2000/svg" xml:space="preserve" width="40px" height="40px" version="1.1" style="shape-rendering:geometricPrecision; text-rendering:geometricPrecision; image-rendering:optimizeQuality; fill-rule:evenodd; clip-rule:evenodd"
viewBox="0 0 4000000 3999887"
 xmlns:xlink="http://www.w3.org/1999/xlink"
 xmlns:dc="http://purl.org/dc/elements/1.1/"
 xmlns:cc="http://creativecommons.org/ns#"
 xmlns:rdf="http://www.w3.org/1999/02/22-rdf-syntax-ns#"
 xmlns:svg="http://www.w3.org/2000/svg"
 xmlns:sodipodi="http://sodipodi.sourceforge.net/DTD/sodipodi-0.dtd"
 xmlns:inkscape="http://www.inkscape.org/namespaces/inkscape">
 <defs>
  <style type="text/css">
   <![CDATA[
    .fil0 {fill:none}
    .fil1 {fill:#333333}
   ]]>
  </style>
 </defs>
 <g id="Layer_x0020_1">
  <metadata id="CorelCorpID_0Corel-Layer"/>
  <rect class="fil0" x="-12" y="-9" width="4000024" height="3999905"/>
  <g id="_979670704">
   <g>
    <path class="fil1" d="M1251120 801179l-163275 225410 457963 0c47451,2012 377912,23584 495974,247746l-793525 0 -163757 225382 997591 0c-255,4365 -595,8078 -907,12359 0,0 -4621,493707 -904133,408129l0 106837 907 115795 970066 1055984 369267 0 0 -46942 -930693 -1047423 0 -14683c0,0 732496,10658 853846,-586088 0,0 -85,-1191 482,-3798l307557 0 163247 -225382 -484070 0c-18198,-82657 -55417,-173762 -128550,-247746l453229 0 163246 -225410 -1664380 0 -85 -170z"/>
   </g>
  </g>
 </g>
</svg>
