<?xml version="1.0" encoding="utf-8"?>
<!-- Generator: Adobe Illustrator 18.0.0, SVG Export Plug-In . SVG Version: 6.00 Build 0)  -->
<!DOCTYPE svg PUBLIC "-//W3C//DTD SVG 1.1//EN" "http://www.w3.org/Graphics/SVG/1.1/DTD/svg11.dtd">
<svg version="1.1" id="Layer_1" xmlns="http://www.w3.org/2000/svg" xmlns:xlink="http://www.w3.org/1999/xlink" x="0px" y="0px"
	 viewBox="0 0 100 100" enable-background="new 0 0 100 100" xml:space="preserve">
<path fill="#FFFFFF" d="M60.9,16.1c-14.8-4.9-31.1,1-40,13.6c-9.1,12.4-8.4,30.2,1,42.3S48,88.8,62.4,83.4c13.8-5.2,23-18.5,23-33.4
	C85.6,34.7,75.5,21.1,60.9,16.1z M55.2,80.2C40.9,82.9,26,74,21.1,60.4c-5.2-14.1,1-29.9,13.8-37.1C48,15.9,64.6,19.6,74,31
	c4.4,5.4,6.7,12.4,6.7,19C80.4,64.8,69.8,77.4,55.2,80.2z"/>
<g>
	<path fill="#FFFFFF" d="M36.5,63.9L36.5,63.9c-1.1-1.1-1.1-2.9,0-4l22.7-23c1.1-1.1,2.9-1.1,4,0l0,0c1.1,1.1,1.1,2.9,0,4l-22.7,23
		C39.4,65,37.6,65,36.5,63.9z"/>
	<path fill="#FFFFFF" d="M62.7,64L62.7,64c1.2-1.1,1.2-2.8,0.2-4L41,36.2C40,35,38.2,34.9,37,36l0,0c-1.2,1.1-1.2,2.8-0.2,4
		l21.8,23.8C59.7,65,61.5,65.1,62.7,64z"/>
</g>
</svg>
