<?xml version="1.0" encoding="utf-8"?>
<!-- Generator: Adobe Illustrator 18.0.0, SVG Export Plug-In . SVG Version: 6.00 Build 0)  -->
<!DOCTYPE svg PUBLIC "-//W3C//DTD SVG 1.1//EN" "http://www.w3.org/Graphics/SVG/1.1/DTD/svg11.dtd">
<svg version="1.1" id="Layer_1" xmlns="http://www.w3.org/2000/svg" xmlns:xlink="http://www.w3.org/1999/xlink" x="0px" y="0px"
	 viewBox="0 0 40 40" enable-background="new 0 0 40 40" xml:space="preserve">
<g>
	<path fill="#FFFFFF" d="M24.5,6.3c-6-2-12.6,0.4-16.2,5.5c-3.7,5-3.4,12.2,0.4,17.1s10.6,6.8,16.4,4.6c5.6-2.1,9.3-7.5,9.3-13.5
		C34.5,13.8,30.4,8.3,24.5,6.3z M22.2,32.2c-5.8,1.1-11.8-2.5-13.8-8c-2.1-5.7,0.4-12.1,5.6-15c5.3-3,12-1.5,15.8,3.1
		c1.8,2.2,2.7,5,2.7,7.7C32.4,26,28.1,31.1,22.2,32.2z"/>
	<g>
		<path fill="#FFFFFF" d="M19.8,26.6L19.8,26.6c-0.6,0-1.1-0.5-1.1-1.1V14.6c0-0.6,0.5-1.1,1.1-1.1h0c0.6,0,1.1,0.5,1.1,1.1v10.8
			C21,26,20.5,26.6,19.8,26.6z"/>
		<path fill="#FFFFFF" d="M13,20.2L13,20.2c0-0.6,0.5-1.1,1.1-1.1h11.7c0.6,0,1.1,0.5,1.1,1.1v0c0,0.6-0.5,1.1-1.1,1.1H14.2
			C13.5,21.3,13,20.8,13,20.2z"/>
	</g>
</g>
</svg>
