<?xml version="1.0" encoding="UTF-8" standalone="no"?>
<svg width="50px" height="50px" viewBox="0 0 50 50" version="1.1" xmlns="http://www.w3.org/2000/svg" xmlns:xlink="http://www.w3.org/1999/xlink">
    <!-- Generator: Sketch 3.7.1 (28215) - http://www.bohemiancoding.com/sketch -->
    <title>Group 2</title>
    <desc>Created with Sketch.</desc>
    <defs></defs>
    <g id="Page-1" stroke="none" stroke-width="1" fill="none" fill-rule="evenodd">
        <g id="Artboard-4" transform="translate(-25.000000, -25.000000)">
            <g id="Group-2" transform="translate(25.000000, 25.000000)">
                <rect id="Rectangle-6" x="0" y="0" width="50" height="50"></rect>
                <path d="M29.30162,13.6031193 C24.1078007,11.8835441 18.3875809,13.9540531 15.2642707,18.3758181 C12.0707738,22.7273963 12.3164274,28.9740167 15.6152045,33.2203149 C18.9139815,37.466613 24.7745748,39.1160015 29.8280205,37.2209594 C34.670906,35.396104 37.8994963,30.7286854 37.8994963,25.4997728 C37.9696831,20.1304867 34.4252524,15.357788 29.30162,13.6031193 L29.30162,13.6031193 Z M27.3012977,36.0979715 C22.2829453,37.0454925 17.0540328,33.9221823 15.3344575,29.1494836 C13.5096021,24.201318 15.6853912,18.6565651 20.177343,16.1298422 C24.7745748,13.5329326 30.6000748,14.8313874 33.8988518,18.8320319 C35.4429602,20.7270741 36.2501078,23.1836102 36.2501078,25.4997728 C36.1448277,30.693592 32.4249302,35.115357 27.3012977,36.0979715 L27.3012977,36.0979715 Z M26.8624184,25.5955283 L30.0034874,29.0091101 C30.3544211,29.4302306 30.3544211,30.0268179 29.9333007,30.412845 C29.5121802,30.7988721 28.8804995,30.7637788 28.4944724,30.3426583 L25.4536754,27.0228891 L22.1425719,30.3777517 C21.7565447,30.7637788 21.124864,30.7637788 20.7388369,30.3777517 C20.3528098,29.9917246 20.3528098,29.3600438 20.7388369,28.9740167 L24.1111212,25.5571648 L20.844117,21.9904355 C20.4931833,21.569315 20.4931833,20.9727277 20.9143038,20.5867006 C21.3354243,20.2006735 21.967105,20.2357668 22.3180387,20.6568873 L25.5166772,24.1330332 L28.7050326,20.9025409 C29.0910597,20.5165138 29.7227404,20.5165138 30.1087675,20.9025409 C30.4947946,21.288568 30.4947946,21.9202488 30.1087675,22.3062759 L26.8624184,25.5955283 Z" id="Shape" fill="#2D2D2D"></path>
            </g>
        </g>
    </g>
</svg>