<?xml version="1.0" encoding="UTF-8" standalone="no"?>
<svg width="50px" height="50px" viewBox="0 0 50 50" version="1.1" xmlns="http://www.w3.org/2000/svg" xmlns:xlink="http://www.w3.org/1999/xlink">
    <!-- Generator: Sketch 3.7.1 (28215) - http://www.bohemiancoding.com/sketch -->
    <title>Group 2</title>
    <desc>Created with Sketch.</desc>
    <defs></defs>
    <g id="Page-1" stroke="none" stroke-width="1" fill="none" fill-rule="evenodd">
        <g id="Artboard-4" transform="translate(-225.000000, -25.000000)">
            <g id="Group-10" transform="translate(225.000000, 25.000000)">
                <rect id="Rectangle-6" x="0" y="0" width="50" height="50"></rect>
                <path d="M37.9558406,13.6877352 C37.9466247,13.6558636 37.9393288,13.623608 37.9266569,13.5928884 C37.9124491,13.5594808 37.8936334,13.5287612 37.8759696,13.4972736 C37.8632977,13.4742339 37.8529299,13.4500422 37.8379541,13.4277705 C37.767683,13.3221719 37.6770601,13.231549 37.5718455,13.1612779 C37.5499578,13.1466861 37.5265341,13.1370862 37.5034944,13.1244144 C37.4716228,13.1067506 37.4405192,13.0871669 37.4063436,13.0733431 C37.376008,13.0606712 37.3441364,13.0533753 37.3126488,13.0441594 C37.2842332,13.0357115 37.2569695,13.0245757 37.2274019,13.0188158 C37.1655787,13.0065279 37.1026035,13 37.0396283,13 L32.2396897,13 C31.7093925,13 31.279702,13.4296905 31.279702,13.9599877 C31.279702,14.4902849 31.7093925,14.9199754 32.2396897,14.9199754 L34.722218,14.9199754 L28.1474541,21.4947393 C27.3687121,20.9778819 26.4555718,20.6998694 25.499808,20.6998694 C24.5440442,20.6998694 23.6309039,20.9778819 22.8525459,21.4951233 L16.277398,14.9199754 L18.7599263,14.9199754 C19.2902235,14.9199754 19.719914,14.4902849 19.719914,13.9599877 C19.719914,13.4296905 19.2902235,13 18.7599263,13 L13.9599877,13 C13.8970125,13 13.8340373,13.0065279 13.7718301,13.0188158 C13.7430305,13.0245757 13.7165348,13.0353275 13.6888872,13.0433914 C13.6570156,13.0526073 13.624376,13.0599032 13.5928884,13.0729591 C13.5602488,13.0867829 13.5302972,13.1052147 13.4991936,13.1221104 C13.4753859,13.1351663 13.4504262,13.1459181 13.4273865,13.1608939 C13.3221719,13.231549 13.231549,13.3217879 13.1612779,13.4273865 C13.1463021,13.4500422 13.1359343,13.4742339 13.1228784,13.4976576 C13.1055986,13.5291452 13.0867829,13.5590968 13.0729591,13.5925044 C13.0602872,13.623608 13.0526073,13.6562476 13.0433914,13.6881192 C13.0353275,13.7157668 13.0245757,13.7426465 13.0188158,13.7714461 C13.0065279,13.8332693 13,13.8962445 13,13.9592197 L13,18.7591583 C13,19.2894555 13.4296905,19.719146 13.9599877,19.719146 C14.4902849,19.719146 14.9199754,19.2894555 14.9199754,18.7591583 L14.9199754,16.2766301 L21.4955073,22.8521619 C20.4383688,24.4507334 20.4379848,26.5473466 21.4955073,28.1463021 L14.9199754,34.722218 L14.9199754,32.2396897 C14.9199754,31.7093925 14.4902849,31.279702 13.9599877,31.279702 C13.4296905,31.279702 13,31.7093925 13,32.2396897 L13,37.0396283 C13,37.1026035 13.0065279,37.1655787 13.0188158,37.2274019 C13.0245757,37.2562015 13.0353275,37.2830812 13.0433914,37.3107288 C13.0526073,37.3426004 13.0602872,37.37524 13.0729591,37.4067276 C13.0867829,37.4397512 13.1055986,37.4700868 13.1228784,37.5011904 C13.1359343,37.5249981 13.1459181,37.5491898 13.1612779,37.5718455 C13.231549,37.6770601 13.3221719,37.767683 13.4273865,37.8383381 C13.4504262,37.8536979 13.4753859,37.8640657 13.4991936,37.8771216 C13.5302972,37.8940174 13.5598648,37.9128331 13.5928884,37.9262729 C13.624376,37.9389448 13.6566316,37.9466247 13.6888872,37.9558406 C13.7165348,37.9639045 13.7434145,37.9750403 13.7722141,37.9804163 C13.8344213,37.9927041 13.8970125,37.999232 13.9599877,37.999232 L18.7599263,37.999232 C19.2902235,37.999232 19.719914,37.5695415 19.719914,37.0392443 C19.719914,36.5089471 19.2902235,36.0792566 18.7599263,36.0792566 L16.277398,36.0792566 L22.8521619,29.5048767 C23.6309039,30.0217341 24.5436602,30.2997466 25.499808,30.2997466 C26.4559558,30.2997466 27.3687121,30.0217341 28.1474541,29.5048767 L34.722218,36.0800246 L32.2396897,36.0800246 C31.7093925,36.0800246 31.279702,36.5097151 31.279702,37.0400123 C31.279702,37.5703095 31.7093925,38 32.2396897,38 L37.0396283,38 C37.1026035,38 37.1655787,37.9934721 37.2274019,37.9811842 C37.2565855,37.9754243 37.2834652,37.9646725 37.3118808,37.9562246 C37.3437524,37.9470087 37.375624,37.9397128 37.4063436,37.9270409 C37.4405192,37.9128331 37.4712388,37.8940174 37.5031104,37.8763536 C37.5261501,37.8636817 37.5495738,37.8536979 37.5718455,37.8391061 C37.6770601,37.768835 37.768067,37.6782121 37.8379541,37.5726135 C37.8529299,37.5503418 37.8632977,37.5257661 37.8763536,37.5027264 C37.8936334,37.4712388 37.9128331,37.4409032 37.9262729,37.4074956 C37.9393288,37.376392 37.9466247,37.3441364 37.9558406,37.3122648 C37.9639045,37.2842332 37.9750403,37.2573535 37.9804163,37.2281699 C37.9927041,37.1659627 37.999616,37.1033715 37.999616,37.0403963 L37.999616,32.2404577 C37.999616,31.7101605 37.5699255,31.28047 37.0396283,31.28047 C36.5093311,31.28047 36.0796406,31.7101605 36.0796406,32.2404577 L36.0796406,34.7229859 L29.5044927,28.1466861 C30.5616312,26.5481146 30.5616312,24.4511174 29.5044927,22.8529299 L36.0796406,16.277398 L36.0796406,18.7599263 C36.0796406,19.2902235 36.5093311,19.719914 37.0396283,19.719914 C37.5699255,19.719914 37.999616,19.2902235 37.999616,18.7599263 L37.999616,13.9599877 C37.999616,13.8970125 37.9927041,13.8340373 37.9804163,13.7722141 C37.9746563,13.7426465 37.9639045,13.7161508 37.9558406,13.6877352 L37.9558406,13.6877352 Z M26.6026899,28.1620459 C26.9476615,28.0191998 27.2644574,27.8083865 27.5365179,27.5365179 C28.6593196,26.4133323 28.6593196,24.5862837 27.5365179,23.4630981 C27.1853522,23.1121801 26.759654,22.8629845 26.2950354,22.7303752 C26.0397164,22.6575068 25.7726834,22.6198449 25.499808,22.6198449 C24.7306658,22.6198449 24.0072191,22.919361 23.4630981,23.4634821 C22.3402964,24.5862837 22.3402964,26.4133323 23.4630981,27.5365179 C24.0072191,28.080255 24.7306658,28.3797711 25.499808,28.3797711 C25.8845711,28.3797711 26.2577183,28.3048921 26.6026899,28.1620459 Z" id="Shape" fill="#2D2D2D"></path>
            </g>
        </g>
    </g>
</svg>