<?xml version="1.0" encoding="UTF-8" standalone="no"?>
<svg width="50px" height="50px" viewBox="0 0 50 50" version="1.1" xmlns="http://www.w3.org/2000/svg" xmlns:xlink="http://www.w3.org/1999/xlink">
    <!-- Generator: Sketch 3.7.1 (28215) - http://www.bohemiancoding.com/sketch -->
    <title>Group 2</title>
    <desc>Created with Sketch.</desc>
    <defs></defs>
    <g id="Page-1" stroke="none" stroke-width="1" fill="none" fill-rule="evenodd">
        <g id="Artboard-4" transform="translate(-325.000000, -25.000000)">
            <g id="Group-11" transform="translate(325.000000, 25.000000)">
                <rect id="Rectangle-6" x="0" y="0" width="50" height="50"></rect>
                <path d="M25.3949254,21.6556383 C23.3320972,21.6556383 21.7068386,23.2808969 21.7068386,25.3437251 C21.7068386,27.4065533 23.3320972,29.0318119 25.3949254,29.0318119 C27.4577536,29.0318119 29.0830122,27.4690633 29.0830122,25.3437251 C29.0830122,23.2808969 27.4577536,21.6556383 25.3949254,21.6556383 L25.3949254,21.6556383 Z M25.3949254,27.7191031 C24.1447265,27.7191031 23.0820575,26.7189439 23.0820575,25.4062351 C23.0820575,24.0935262 24.0822166,23.0308571 25.3949254,23.0308571 C26.6451243,23.0308571 27.7077934,24.0310163 27.7077934,25.3437251 C27.7077934,26.656434 26.6451243,27.7191031 25.3949254,27.7191031 Z M18.956401,20.4054394 L19.5815005,21.0305389 L17.1436126,21.0305389 C16.6435331,21.0305389 16.2059634,21.4681085 16.2059634,21.9681881 C16.2059634,22.4682676 16.6435331,22.9058373 17.1436126,22.9058373 L21.8318585,22.9058373 L21.9568784,22.9058373 C22.3319381,22.9058373 22.7069978,22.5932875 22.7069978,22.1557179 L22.7069978,21.4055986 L22.7069978,17.1549223 C22.7695077,16.6548427 22.3319381,16.2172731 21.8318585,16.2172731 C21.331779,16.2172731 20.8942094,16.6548427 20.8942094,17.1549223 L20.8942094,19.5928101 L20.2691099,18.9677107 L14.455685,13.1542857 C14.0806253,12.904246 13.6430557,12.9667559 13.3305059,13.2793056 L13.267996,13.3418156 C12.9554463,13.6543653 12.8929363,14.2169548 13.205486,14.5920145 L18.956401,20.4054394 Z M31.8334498,30.6570705 L31.2083504,30.0319711 L33.6462383,30.0319711 C34.1463178,30.0319711 34.5838874,29.5944014 34.5838874,29.0943219 C34.5838874,28.5942423 34.1463178,28.1566727 33.6462383,28.1566727 L28.9579923,28.1566727 L28.8329724,28.1566727 C28.4579128,28.1566727 28.0828531,28.4692224 28.0828531,28.906792 L28.0828531,29.8444412 L28.0828531,33.6575479 C28.0828531,34.1576275 28.5204227,34.5951971 29.0205023,34.5951971 C29.5205818,34.5951971 29.9581515,34.1576275 29.9581515,33.6575479 L29.9581515,31.21966 L30.5832509,31.8447595 L36.3341659,37.5956745 C36.7092256,37.7832043 37.1467952,37.7206944 37.4593449,37.4081446 L37.5218549,37.3456347 C37.7093847,37.1581049 37.7093847,36.7205352 37.5218549,36.3454756 L31.8334498,30.6570705 Z M22.2694282,28.2816926 L22.1444083,28.2816926 L22.0818983,28.2816926 L21.8943685,28.2816926 L17.2061226,28.2816926 C16.706043,28.2816926 16.2684734,28.7192622 16.2684734,29.2193418 C16.2684734,29.7194213 16.706043,30.1569909 17.2061226,30.1569909 L19.6440104,30.1569909 L19.018911,30.7820904 L13.267996,36.5330054 C13.0804662,36.9080651 13.1429761,37.3456347 13.4555258,37.6581844 L13.5180358,37.7206944 C13.8305855,38.0332441 14.3306651,38.095754 14.7057247,37.8457143 L20.3941298,32.1573092 L21.0192292,31.5322097 L21.0192292,33.9700976 C21.0192292,34.4701772 21.4567989,34.9077468 21.9568784,34.9077468 C22.456958,34.9077468 22.8945276,34.4701772 22.8945276,33.9700976 L22.8945276,30.2820108 L22.8945276,29.0318119 C22.9570376,28.6567523 22.6444878,28.2816926 22.2694282,28.2816926 Z M28.0203432,22.030698 C28.0203432,22.4057577 28.3328929,22.7808174 28.7704625,22.7808174 L29.9581515,22.7808174 L33.6462383,22.7808174 C34.1463178,22.7808174 34.5838874,22.3432477 34.5838874,21.8431682 C34.5838874,21.3430886 34.1463178,20.905519 33.6462383,20.905519 L31.1458404,20.905519 L31.8334498,20.2179096 L37.5218549,14.7795443 C37.7718947,14.4044847 37.7718947,13.9044051 37.396835,13.5918554 L37.334325,13.5293454 C37.0217753,13.2167957 36.5216958,13.1542857 36.209146,13.4043255 L30.5832509,19.0302206 L29.8956415,19.71783 L29.8956415,17.2799422 C29.8956415,16.7798626 29.4580719,16.342293 28.9579923,16.342293 C28.4579128,16.342293 28.0203432,16.7798626 28.0203432,17.2799422 L28.0203432,21.9681881 C28.0203432,21.9681881 28.0203432,21.9681881 28.0203432,22.030698 Z" id="Shape" fill="#2D2D2D"></path>
            </g>
        </g>
    </g>
</svg>