<?xml version="1.0" encoding="utf-8"?>
<!-- Generator: Adobe Illustrator 18.0.0, SVG Export Plug-In . SVG Version: 6.00 Build 0)  -->
<!DOCTYPE svg PUBLIC "-//W3C//DTD SVG 1.1//EN" "http://www.w3.org/Graphics/SVG/1.1/DTD/svg11.dtd">
<svg version="1.1" id="Layer_1" xmlns="http://www.w3.org/2000/svg" xmlns:xlink="http://www.w3.org/1999/xlink" x="0px" y="0px"
	 width="50px" height="50px" viewBox="0 0 50 50" enable-background="new 0 0 50 50" xml:space="preserve">
<g>
	<path d="M32.0734978,10.3936138c-3.6148777,0-6.9246368,1.3228273-9.4778461,3.5060387
		c-0.0827541,0.0203896-0.1497746,0.0767431-0.1793823,0.1554375c-1.0343552,0.9137173-1.9377213,1.9711361-2.6803932,3.1410751
		c-0.0008488,0.0005665-0.0012264,0.0015087-0.0020447,0.0021076c-0.0273132,0.0192871-0.049778,0.0418797-0.0672092,0.0688133
		c-0.0067348,0.0103207-0.0120831,0.0200748-0.0173073,0.0312767c-0.0095654,0.0205154-0.0157948,0.0411892-0.0197277,0.0634651
		c-1.367918,2.2203732-2.1596127,4.8316669-2.1621304,7.6249561c0,0.0005989-0.0003452,0.0010395-0.0003452,0.0016365
		c0,0.000473,0.0002518,0.0008183,0.0002518,0.0012913c0,0.0034599-0.0002518,0.0068264-0.0002518,0.0102882
		c0,8.0540771,6.5523071,14.6063881,14.6063862,14.6063881S46.6801338,33.0540771,46.6801338,25
		S40.1275749,10.3936138,32.0734978,10.3936138z M22.8014965,14.4030323h1.667717l-3.680481,2.1676674
		C21.3817253,15.7788467,22.0584469,15.0539837,22.8014965,14.4030323z M35.8389969,18.1645679l4.6235237,6.5670967
		c-0.9780617,0.0062618-2.9715385,0.0097237-5.9653244,0.010416c0.0003471-0.0022659,0.0018272-0.0040913,0.00214-0.0063877
		l0.966011-6.8539658L35.8389969,18.1645679z M28.8936272,38.7245445l12.1401787-13.4509869
		c0.0352402-0.0065136,0.0712967-0.0104465,0.1026688-0.0324078c0.1150703-0.081213,0.1428528-0.2396088,0.0639076-0.3555565
		c-0.0066414-0.014946-0.0178108-0.0266209-0.027092-0.0399303l-3.9842796-5.6591053l4.4753227,3.3878555
		c0.015358,0.0080547,1.5302162,0.8034935,1.6309052,2.0464935c0.066452,0.8185997-0.4941292,1.6744518-1.6872902,2.5610142
		L29.0396557,38.7583351C28.9907913,38.7475777,28.9423027,38.7358398,28.8936272,38.7245445z M27.246582,38.2388153
		L33.8213234,25.2577c3.2618713-0.0004101,5.4499283-0.0037136,6.5414543-0.009943L28.3282928,38.5816269
		C27.9620056,38.4804993,27.6003456,38.3682327,27.246582,38.2388153z M23.485487,36.1599426l9.1434956-9.6887245
		l-5.8641014,11.5780525C25.5833015,37.5668144,24.4820824,36.9286385,23.485487,36.1599426z M20.4079723,17.3929787
		l5.0366936-2.9662848l9.5412464,3.1636343l-0.9834747,6.9762077L20.4079723,17.3929787z M19.8739777,17.9622154l3.4610119,6.774704
		c-1.5080318-0.0013218-3.1106167-0.0029259-4.8073769-0.0047512l-0.5381489-0.0006599
		C18.0358753,22.2699547,18.7158375,19.9619541,19.8739777,17.9622154z M23.9142303,24.7374229l-3.434864-6.7235737
		l12.7509804,6.7283573C30.7159328,24.7422066,27.6085262,24.7405701,23.9142303,24.7374229z M27.0111904,14.4030323h3.8588276
		l3.0070305,2.2763481L27.0111904,14.4030323z M17.9888973,25.2470322l0.5379601,0.0006618
		c6.0508804,0.0064812,10.900198,0.010006,14.5387058,0.0100689L23.080246,35.8384933
		C20.0272751,33.3009224,18.0626831,29.5005589,17.9888973,25.2470322z M32.0734978,39.0908623
		c-0.8204231,0-1.6233521-0.0744781-2.4057655-0.2097168l12.2684631-11.3025112
		c1.3245583-0.9827213,1.9546165-1.9916191,1.8730583-2.9995117c-0.123848-1.524929-1.8355522-2.4250851-1.8710442-2.4391804
		l-6.5059319-4.9278564c-0.0004692-0.0003777-0.0009727-0.0006924-0.0014458-0.00107l-4.3186588-3.2711506
		c-0.0448055-0.034234-0.0994301-0.0523586-0.1555634-0.0523586h-7.5315056
		c2.3894043-1.8637762,5.3903008-2.9783678,8.6483936-2.9783678c7.769886,0,14.091114,6.321229,14.091114,14.0908613
		S39.8433838,39.0908623,32.0734978,39.0908623z"/>
	<path d="M32.0734978,8.0737495c-7.084919,0-13.1634254,4.3774347-15.6825581,10.5682716H8.7890158
		c-0.0561342,0-0.1105061,0.0181236-0.1553125,0.0518532l-6.4146166,4.8411064
		c-0.2016289,0.0800476-1.0720816,0.466692-1.2037319,1.2490425c-0.0088418,0.0524216-0.0089675,0.1056595-0.010761,0.158741
		C1.0038702,24.9505692,1,24.9573021,1,24.9652634c0,0.0040264,0.0021082,0.0073929,0.0022969,0.0113888
		c-0.0030206,0.5684509,0.3913639,1.1743431,1.1820524,1.8045292c2.4137566,1.9241581,14.8115387,13.2964287,14.9499855,13.422287
		c0.017622,0.0140991,1.1747837,0.9182816,2.5587482,0.9182816c0.7035618,0,1.4657745-0.2341003,2.1663151-0.9374123
		l0.978693-0.9786911c0.0065765-0.0065765,0.0090923-0.0152283,0.0148201-0.0223083
		c2.6549683,1.7319374,5.8210888,2.7429123,9.2205868,2.7429123C41.4068222,41.9262505,49,34.3333282,49,25
		S41.4068222,8.0737495,32.0734978,8.0737495z M15.1541376,24.7282677l-0.7154865-0.001133
		c-2.2303152-0.0027695-4.3313389-0.0056648-6.1741915-0.0083084l7.281105-3.3584023
		C15.3062086,22.4480171,15.1724815,23.5741234,15.1541376,24.7282677z M6.8784499,21.1612492l4.0001054-1.7982979
		l4.1695127,1.6593475l-7.724071,3.5623608L6.8784499,21.1612492z M12.8213406,25.2406139l3.2463875,9.2121868l-8.363348-9.2192669
		C9.2371111,25.2357693,10.9703074,25.2382221,12.8213406,25.2406139z M15.6953068,20.7247009l-3.9379921-1.5671539h4.4299812
		C15.9986944,19.6688232,15.8345089,20.1917439,15.6953068,20.7247009z M8.8753557,19.157547h1.2027254l-2.9745922,1.3372688
		L8.8753557,19.157547z M2.431288,24.0057011c0.0246687-0.0085583,0.0480788-0.0211449,0.0689716-0.0367527l3.8459885-2.9026299
		l0.4750609,3.6504002c-2.6149449-0.0039005-4.5238428-0.0069847-5.2444897-0.0081806
		C1.777473,24.2487373,2.424051,24.0084057,2.431288,24.0057011z M1.5554547,25.2240314
		c0.7186017,0.0011959,2.6981072,0.004406,5.4140868,0.0084324l6.0382299,10.504837
		c-3.85291-3.5069809-9.0247784-8.1815109-10.5022259-9.3588753C1.9819652,25.9607582,1.6617126,25.5687962,1.5554547,25.2240314z
		 M14.2562475,36.8748016L8.5267849,26.907135l7.9829674,8.7999306l1.583107,4.4923439
		c-0.3639889-0.1856422-0.5986881-0.3676376-0.6234837-0.3871155
		C17.4290066,39.7752609,16.1065254,38.5622139,14.2562475,36.8748016z M21.4944019,39.8203506
		c-0.9238186,0.9272766-1.9683361,0.8891716-2.7632713,0.6390572l-1.7519817-4.9715614
		c-0.0000935-0.0002518-0.0001888-0.000473-0.0002823-0.0007553l-3.61063-10.2457848
		c0.3531971,0.0004406,0.7091942,0.0009117,1.0696592,0.0013523l0.715518,0.001133
		c0.0804567,5.647213,2.9384384,10.6319561,7.2683296,13.6492176L21.4944019,39.8203506z M32.0734978,41.4107246
		c-9.0488815,0-16.4107246-7.3618431-16.4107246-16.4107246S23.0246162,8.5892744,32.0734978,8.5892744
		c9.0491333,0,16.4109764,7.3618441,16.4109764,16.4107246S41.1226311,41.4107246,32.0734978,41.4107246z"/>
</g>
</svg>
