<?xml version="1.0" encoding="UTF-8"?>
<!DOCTYPE svg PUBLIC "-//W3C//DTD SVG 1.1//EN" "http://www.w3.org/Graphics/SVG/1.1/DTD/svg11.dtd">
<!-- Creator: CorelDRAW X7 -->
<svg xmlns="http://www.w3.org/2000/svg" xml:space="preserve" width="50px" height="50px" version="1.1" style="shape-rendering:geometricPrecision; text-rendering:geometricPrecision; image-rendering:optimizeQuality; fill-rule:evenodd; clip-rule:evenodd"
viewBox="0 0 94184 94184"
 xmlns:xlink="http://www.w3.org/1999/xlink">
 <defs>
  <style type="text/css">
   <![CDATA[
    .fil0 {fill:white}
    .fil1 {fill:#333333;fill-rule:nonzero}
   ]]>
  </style>
 </defs>
 <g id="Layer_x0020_1">
  <metadata id="CorelCorpID_0Corel-Layer"/>
  <rect class="fil0" x="1" y="1" width="94182" height="94182"/>
  <g id="_803290064">
   <path class="fil1" d="M20635 36947l52912 0c621,0 1190,258 1602,665l2 0c407,407 665,979 665,1604l0 15750c0,620 -258,1190 -665,1602l-2 2c-412,407 -981,665 -1602,665l-52912 0c-625,0 -1197,-258 -1604,-665l0 -2c-407,-412 -665,-982 -665,-1602l0 -15750c0,-625 258,-1197 665,-1604 407,-407 979,-665 1604,-665zm52912 943l-52912 0c-365,0 -699,152 -937,390 -238,238 -389,572 -389,936l0 15750c0,365 151,698 387,936l2 0c238,238 572,390 937,390l52912 0c363,0 697,-152 937,-387l2 -3c236,-240 387,-574 387,-936l0 -15750c0,-364 -151,-698 -389,-936l0 -2c-238,-236 -572,-388 -937,-388z"/>
   <path class="fil1" d="M26615 47804l0 3498 -979 0 0 -8406 2305 0c1032,0 1793,198 2285,592 492,394 739,988 739,1782 0,1112 -563,1864 -1689,2254l2280 3778 -1154 0 -2036 -3498 -1751 0zm0 -834l1337 0c692,0 1195,-138 1518,-414 322,-271 482,-683 482,-1233 0,-553 -162,-954 -489,-1199 -329,-247 -854,-369 -1580,-369l-1268 0 0 3215zm10526 4332l-4686 0 0 -8406 4686 0 0 870 -3707 0 0 2708 3482 0 0 861 -3482 0 0 3094 3707 0 0 873zm5126 0l-2855 -7454 -44 0c53,592 80,1293 80,2107l0 5347 -903 0 0 -8406 1472 0 2663 6933 45 0 2687 -6933 1460 0 0 8406 -977 0 0 -5416c0,-623 27,-1297 80,-2026l-46 0 -2877 7442 -785 0zm13749 -4214c0,1346 -343,2405 -1021,3175 -681,772 -1627,1156 -2839,1156 -1239,0 -2194,-378 -2866,-1136 -672,-757 -1010,-1825 -1010,-3204 0,-1371 338,-2430 1013,-3184 674,-752 1633,-1130 2874,-1130 1208,0 2151,383 2830,1150 678,768 1019,1825 1019,3173zm-6699 -2c0,1139 240,2002 725,2591 488,588 1191,884 2114,884 932,0 1635,-294 2111,-881 474,-585 712,-1451 712,-2594 0,-1131 -236,-1987 -710,-2572 -474,-585 -1174,-877 -2102,-877 -932,0 -1637,294 -2125,883 -485,588 -725,1444 -725,2566zm12795 -4190l1052 0 -3028 8406 -965 0 -3013 -8406 1035 0 1931 5438c220,625 398,1232 529,1824 138,-623 319,-1241 539,-1858l1920 -5404zm6436 8406l-4685 0 0 -8406 4685 0 0 870 -3706 0 0 2708 3481 0 0 861 -3481 0 0 3094 3706 0 0 873z"/>
  </g>
 </g>
</svg>
