<?xml version="1.0" encoding="UTF-8" standalone="no"?>
<svg width="50px" height="50px" viewBox="0 0 50 50" version="1.1" xmlns="http://www.w3.org/2000/svg" xmlns:xlink="http://www.w3.org/1999/xlink">
    <!-- Generator: Sketch 3.7.1 (28215) - http://www.bohemiancoding.com/sketch -->
    <title>Group 2</title>
    <desc>Created with Sketch.</desc>
    <defs></defs>
    <g id="Page-1" stroke="none" stroke-width="1" fill="none" fill-rule="evenodd">
        <g id="Artboard-4" transform="translate(-125.000000, -125.000000)">
            <g id="Group-20" transform="translate(125.000000, 125.000000)">
                <rect id="Rectangle-6" x="0" y="0" width="50" height="50"></rect>
                <path d="M32.3818202,37.4056391 C33.1458036,38.1942552 33.6425031,38.201976 34.420825,37.4056391 L35.9487918,35.840907 C36.6969661,35.0747177 36.7480699,34.5721357 35.9487918,33.753372 L27.8861567,25.5002926 L35.9491594,17.2468455 C36.7046868,16.4714648 36.7190253,15.9479266 35.9491594,15.1585752 L34.4211926,13.5945784 C33.6285323,12.7831677 33.1388182,12.8206684 32.3821879,13.5945784 L24.7658838,21.3914002 L17.150315,13.5945784 C16.3933171,12.8206684 15.903603,12.7831677 15.1109426,13.5945784 L13.5837112,15.1585752 C12.81311,15.947559 12.8267132,16.4710972 13.5837112,17.2468455 L21.6459786,25.5002926 L13.5837112,33.753372 C12.7844331,34.5721357 12.8267132,35.0747177 13.5837112,35.840907 L15.1109426,37.4056391 C15.8822791,38.201976 16.3789786,38.1942552 17.150315,37.4056391 L24.7658838,29.6091849 L32.3818202,37.4056391 Z" id="Shape" fill="#2D2D2D"></path>
            </g>
        </g>
    </g>
</svg>