<?xml version="1.0" encoding="UTF-8"?>
<!DOCTYPE svg PUBLIC "-//W3C//DTD SVG 1.1//EN" "http://www.w3.org/Graphics/SVG/1.1/DTD/svg11.dtd">
<!-- Creator: CorelDRAW X7 -->
<svg xmlns="http://www.w3.org/2000/svg" xml:space="preserve" width="100px" height="100px" version="1.1" style="shape-rendering:geometricPrecision; text-rendering:geometricPrecision; image-rendering:optimizeQuality; fill-rule:evenodd; clip-rule:evenodd"
viewBox="0 0 6142038 6142038"
 xmlns:xlink="http://www.w3.org/1999/xlink">
 <defs>
  <style type="text/css">
   <![CDATA[
    .fil0 {fill:none}
    .fil1 {fill:none;fill-rule:nonzero}
    .fil2 {fill:#B3B3B3;fill-rule:nonzero}
   ]]>
  </style>
 </defs>
 <g id="Layer_x0020_1">
  <metadata id="CorelCorpID_0Corel-Layer"/>
  <rect class="fil0" x="36" y="59" width="6141966" height="6141966"/>
  <line class="fil1" x1="4901124" y1="1825172" x2="3542038" y2= "648966" />
  <g>
   <path class="fil2" d="M3627566 1827856l218 436 -218 -436zm-2214726 3577222l73 73 -73 -73zm3284875 14291l72 0 -72 0zm75082 -56076l0 -72 0 72zm-291 363l291 -363 -291 363zm-3402901 -4585564l-73 145 73 -145zm217 -290l-217 290 217 -290zm-10011 16902l-145 218 145 -218zm-5658 13421l-218 653 218 -653zm218 -508l-218 508 218 -508zm-6964 26478l-73 363 73 -363zm2325353 1043526l145 72 -145 -72zm-290 -218l290 218 -290 -218zm-184984 -1161190l-2002176 0 -1886 0 -4715 145 -8270 653 -6456 798 -6094 1088 -7617 1814 -6166 1741 -6601 2249 -6747 2684 -5441 2466 -5803 2902 -6601 3845 0 -73 -5151 3410 73 72 -6457 4498 -4860 3845 -4498 3917 -5368 5078 -4933 5150 -4425 5078 -3264 4135 -4425 6384 -3482 5368 -3845 6602 -73 0 -2539 4860 -2756 6529 -2757 6674 -2321 6964 -1669 5513 -1668 7254 -1161 6602 -798 6674 -653 8052 -145 4788 0 1886 0 4429887 0 1886 145 4716 653 8270 798 6456 1161 6529 1668 7327 1669 5658 72 0 2539 7689 2249 5441 3119 7109 2467 4861 72 0 3700 6528 3264 4861 4643 6529 3627 4715 4425 5078 4426 4715 5585 5368 4788 4208 4715 3627 6239 4425 5151 3410 6601 3772 4933 2539 6384 2756 6674 2684 7036 2394 5586 1669 7617 1741 5803 1088 6892 870 8270 653 3482 73 3119 0 3171491 0 7182 0 6674 -580 0 -73 7979 -943 0 73 6529 -1161 6166 -1451 6456 -1886 6457 -2176 7036 -2830 0 73 5586 -2466 -72 -73 6746 -3410 5006 -2974 -73 -72 6674 -4280 5150 -3555 5006 -4062 4860 -4063 5513 -5295 4643 -4933 3990 -4788 4280 -5296 4208 -5876 3627 -5513 3264 -5876 3119 -6021 2539 -5731 2684 -6456 2177 -6892 1741 -5875 1741 -7617 1088 -5804 870 -6891 653 -8270 73 -3482 0 -3120 0 -3260718 -1024302 0 0 508 -19296 -508 -2177 0 -21472 0 0 -943 -4643 -363 -1161 -145 -12042 -1523 -1160 -218 -11825 -2176 -870 -145 -11825 -2684 -1233 -363 -11534 -3337 -1016 -217 -11171 -3845 -871 -363 -10954 -4280 -1088 -508 -10664 -4860 -870 -435 -10374 -5368 -725 -291 -10229 -5731 -1160 -797 -9794 -6384 -653 -363 -9503 -6674 -1015 -798 -9141 -7254 -725 -653 -8705 -7617 -726 -580 -8269 -7907 -653 -653 -8125 -8488 -653 -725 -7544 -8560 -653 -871 -7327 -9285 -726 -943 -6673 -9431 -653 -870 -6166 -9721 -436 -725 -5876 -10156 -580 -1016 -5368 -10519 -290 -653 -4933 -10591 -508 -1378 -4280 -11099 -290 -726 -3845 -11099 -363 -1160 -3264 -11535 -290 -943 -2757 -11679 -145 -1016 -2176 -11824 -290 -1233 -1524 -12187 -72 -1089 -363 -4642 -871 0 0 -20893 0 -580 -652 -21472 652 0 0 -1024230zm-1594414 2149075l2355967 0c34022,0 61734,27712 61734,61734l0 73c0,34095 -27712,61733 -61734,61733l-2355967 0c-34022,0 -61806,-27638 -61806,-61733l0 -73c0,-34022 27784,-61734 61806,-61734zm0 638520l2355967 0c34022,0 61734,27712 61734,61734l0 73c0,34095 -27712,61734 -61734,61734l-2355967 0c-34022,0 -61806,-27639 -61806,-61734l0 -73c0,-34022 27784,-61734 61806,-61734zm0 638521l2355967 0c34022,0 61734,27711 61734,61733l0 73c0,34095 -27712,61734 -61734,61734l-2355967 0c-34022,0 -61806,-27639 -61806,-61734l0 -73c0,-34022 27784,-61733 61806,-61733zm-670003 1164889l-871 0 0 -20892 0 -581 -653 -21472 653 0 0 -4386943 -725 0 725 -20094 0 -1378 0 -21473 1016 0 290 -4497 145 -1379 1596 -12114 145 -943 2104 -11825 217 -1161 2757 -11824 363 -1161 3409 -11534 218 -943 3845 -11172 362 -870 4280 -10954 435 -943 4788 -10591 508 -1088 5441 -10447 290 -652 5731 -10229 798 -1161 6311 -9720 435 -726 6747 -9503 725 -943 7254 -9140 581 -653 7617 -8778 653 -798 7907 -8342 870 -798 8488 -7980 508 -508 8560 -7544 870 -653 9286 -7327 870 -725 9431 -6747 798 -580 9720 -6239 871 -507 10156 -5876 1088 -581 10519 -5295 580 -291 10591 -4932 1378 -508 11099 -4280 798 -363 11027 -3772 943 -218 11534 -3337 1088 -362 11752 -2757 1161 -218 11824 -2103 943 -146 12188 -1595 1378 -146 4353 -290 0 -798 16829 0 4135 -145 73 145 435 0 2012187 0 -72 -72 51795 0 30831 0 0 72 3119 -145 1451 0 3192 145 0 -72 1741 0 21472 0 0 6166c4716,2321 9213,5295 13276,8850l1088 1016 1273413 1273848c5586,4788 10011,10591 13348,16612l1233 2394 6529 21473 0 18788 0 12623 0 8850 0 8778 0 43017 0 3249112 653 0 -653 19949 0 1523 0 21473 -1016 0 -362 4570 -145 1233 -1596 12188 -145 943 -2104 11824 -218 1088 -2684 11752 -363 1233 -3409 11535 -218 798 -3772 11171 -363 871 -4280 11026 -507 1233 -4861 10664 -435 871 -5368 10373 -436 871 -5875 10228 -653 1016 -6312 9721 -290 580 -6601 9503 -943 1088 -7254 9068 -508 653 -7690 8850 -725 871 -7980 8269 -508 508 -8342 8125 -943 798 -8705 7544 -653 508 -9068 7254 -943 798 -9721 6892 -1088 725 -9648 6021 -580 363 -10084 5876 -943 435 -10446 5368 -870 436 -10737 4933 -1088 507 -10881 4280 -871 363 -11171 3845 -1016 218 -11534 3337 -1233 362 -11825 2684 -870 145 -11825 2177 -1161 217 -12042 1524 -1160 145 -4571 362 0 871 -20964 0 -508 0 -3150018 0 0 508 -19297 -508 -2176 0 -21472 0 0 -943 -4571 -363 -1233 -145 -12187 -1596 -943 -145 -11825 -2104 -1088 -217 -11752 -2684 -1160 -363 -11535 -3337 -1015 -218 -11172 -3844 -725 -363 -11027 -4280 -1305 -508 -10519 -4860 -726 -290 -10663 -5441 -1016 -580 -10083 -5876 -726 -508 -9575 -6094 -798 -508 -9648 -6746 -1089 -798 -9285 -7399 -726 -653 -8560 -7472 -725 -580 -8487 -8053 -726 -725 -7907 -8343 -580 -725 -7690 -8778 -725 -870 -7255 -9286 -725 -870 -6529 -9286 -363 -652 -6311 -9721 -653 -1016 -5876 -10228 -435 -871 -5368 -10373 -508 -1016 -4860 -10736 -435 -943 -4280 -10954 -363 -871 -3845 -11171 -218 -1016 -3336 -11534 -363 -1161 -2684 -11752 -218 -1088 -2104 -11824 -145 -943 -1596 -12188 -145 -1233 -362 -4570zm2532172 -3405586l989046 0 -1133261 -1133551 0 993834 0 6674 653 8342 798 6384 1088 6094 1814 7617 -73 0 1814 5948 2104 6529 2829 6892 -73 0 2467 5513 72 -73 3265 6457 3554 6166 -72 0 3264 5005 73 -72 4497 6383 3628 4716 4207 4787 5006 5296 5223 4933 5223 4498 4135 3264 6238 4353 5368 3482 6602 3844 0 73 5948 3047 5441 2394 0 -73 6311 2539 7182 2394 0 73 6384 1886 6166 1451 6746 1160 6892 871 8125 653 6964 145 4352 72z"/>
  </g>
 </g>
</svg>
