<?xml version="1.0" encoding="UTF-8"?>
<!DOCTYPE svg PUBLIC "-//W3C//DTD SVG 1.1//EN" "http://www.w3.org/Graphics/SVG/1.1/DTD/svg11.dtd">
<!-- Creator: CorelDRAW X7 -->
<svg xmlns="http://www.w3.org/2000/svg" xml:space="preserve" width="100px" height="100px" version="1.1" style="shape-rendering:geometricPrecision; text-rendering:geometricPrecision; image-rendering:optimizeQuality; fill-rule:evenodd; clip-rule:evenodd"
viewBox="0 0 2714089 2714089"
 xmlns:xlink="http://www.w3.org/1999/xlink">
 <defs>
  <style type="text/css">
   <![CDATA[
    .fil0 {fill:none}
    .fil1 {fill:#B3B3B3;fill-rule:nonzero}
   ]]>
  </style>
 </defs>
 <g id="Layer_x0020_1">
  <metadata id="CorelCorpID_0Corel-Layer"/>
  <rect class="fil0" x="5" y="15" width="2714080" height="2714080"/>
  <path class="fil1" d="M1343100 2364289l-21734 -14521 -1058 -674c-57477,-37057 -1076070,-694342 -1076070,-1327071 0,-147684 31800,-278282 90848,-384709 59881,-107902 147748,-190640 258855,-241065 117102,-52732 250008,-63664 385062,-35422 126976,26543 256067,87771 375637,181471 105113,-93989 224267,-156499 346370,-184452 128995,-29492 261324,-20420 384036,30710 120756,50136 217182,134925 283314,244719 65716,109120 101491,242699 101491,391184 0,608655 -941241,1239109 -1065010,1321943l32 32 -11861 8014 -3078 1699 -19682 9841 -14105 7020 -13047 -8719zm8078 -59689l8976 5995 3430 -1699 10963 -7405 96 0c120693,-80815 1040904,-697035 1040904,-1277032 0,-138580 -32986,-262606 -93604,-363231 -60202,-99920 -147909,-177112 -257670,-222664 -112101,-46706 -233114,-54977 -351210,-27953 -119570,27344 -236512,90848 -338708,187081l-17375 16317 -18368 -15035c-117904,-96458 -245648,-158968 -370636,-185126 -123963,-25901 -245392,-16124 -351788,31768 -100272,45520 -179644,120340 -233851,217984 -54464,98189 -83796,219811 -83796,358423 0,603334 994871,1245263 1051002,1281487l128 96 1187 770 320 224z"/>
 </g>
</svg>
