<?xml version="1.0" encoding="UTF-8"?>
<!DOCTYPE svg PUBLIC "-//W3C//DTD SVG 1.1//EN" "http://www.w3.org/Graphics/SVG/1.1/DTD/svg11.dtd">
<!-- Creator: CorelDRAW X7 -->
<svg xmlns="http://www.w3.org/2000/svg" xml:space="preserve" width="100px" height="100px" version="1.1" style="shape-rendering:geometricPrecision; text-rendering:geometricPrecision; image-rendering:optimizeQuality; fill-rule:evenodd; clip-rule:evenodd"
viewBox="0 0 1704254 1704254"
 xmlns:xlink="http://www.w3.org/1999/xlink">
 <defs>
  <style type="text/css">
   <![CDATA[
    .fil0 {fill:none}
    .fil1 {fill:#B3B3B3;fill-rule:nonzero}
   ]]>
  </style>
 </defs>
 <g id="Layer_x0020_1">
  <metadata id="CorelCorpID_0Corel-Layer"/>
  <rect class="fil0" x="3" y="9" width="1704249" height="1704249"/>
  <path class="fil1" d="M776401 286559l0 147184 349221 342 7146 0 4972 5053 146500 148794 11735 11917 -11735 11916 -146581 148674 -4992 5032 -7126 20 -349140 41 0 768289 -32367 0 0 -768289 -318705 40 -17049 0 0 -16969 0 -298233 0 -16989 17049 20 318705 302 0 -147144c-24820,-7046 -42996,-29852 -42996,-56926 0,-32689 26490,-59199 59180,-59199 32689,0 59179,26510 59179,59199 0,27074 -18176,49880 -42996,56926zm-334023 180800l0 264275 676018 -80 129873 -131705 -129793 -131826 -676098 -664z"/>
 </g>
</svg>
