<?xml version="1.0" encoding="UTF-8"?>
<!DOCTYPE svg PUBLIC "-//W3C//DTD SVG 1.1//EN" "http://www.w3.org/Graphics/SVG/1.1/DTD/svg11.dtd">
<!-- Creator: CorelDRAW X7 -->
<svg xmlns="http://www.w3.org/2000/svg" xml:space="preserve" width="100px" height="100px" version="1.1" style="shape-rendering:geometricPrecision; text-rendering:geometricPrecision; image-rendering:optimizeQuality; fill-rule:evenodd; clip-rule:evenodd"
viewBox="0 0 1251634 1251634"
 xmlns:xlink="http://www.w3.org/1999/xlink">
 <defs>
  <style type="text/css">
   <![CDATA[
    .fil0 {fill:none}
    .fil1 {fill:#B3B3B3}
   ]]>
  </style>
 </defs>
 <g id="Layer_x0020_1">
  <metadata id="CorelCorpID_0Corel-Layer"/>
  <rect class="fil0" x="2" y="7" width="1251629" height="1251629"/>
  <path class="fil1" d="M178817 1126479l894014 0c5056,0 9890,-2158 13275,-5928 3371,-3770 5026,-8796 4494,-13822l-71521 -679450c-946,-9122 -8618,-16025 -17769,-16025l-168469 0 280 -71655c0,-118324 -88994,-214445 -207289,-214445 -118310,0 -207556,96343 -207556,214652l-15 71433 -167922 0c-9166,0 -16809,6918 -17785,16040l-71506 679435c-547,5056 1109,10067 4494,13837 3371,3770 8220,5913 13275,5913l0 0 0 0 0 15zm260539 -640082c16631,4819 28783,20164 28783,38332 0,22042 -17873,39915 -39900,39915 -22027,0 -39899,-17873 -39899,-39915 0,-18626 12787,-34297 30054,-38687l-45 -53796 -165970 44 -66022 673315 879437 -1848 -66554 -671526 -166266 207 0 54032c16512,4894 28561,20194 28561,38259 0,22042 -17873,39915 -39915,39915 -22027,0 -39900,-17873 -39900,-39915 0,-18715 12906,-34430 30291,-38732l-44 -53722 -372625 15 14 54107zm-133 -146665c0,-98574 81101,-192388 186106,-193511 106971,1951 186549,95351 186549,193940l695 71226 -373350 -133 0 -71522zm382397 162497c12418,0 22515,10082 22515,22500 0,12418 -10097,22500 -22515,22500 -12418,0 -22500,-10082 -22500,-22500 0,-12418 10097,-22500 22500,-22500zm-393381 0c12418,0 22500,10082 22500,22500 0,12418 -10082,22500 -22500,22500 -12417,0 -22500,-10082 -22500,-22500 0,-12418 10083,-22500 22500,-22500z"/>
 </g>
</svg>
