<?xml version="1.0" encoding="UTF-8" standalone="no"?>
<svg width="50px" height="50px" viewBox="0 0 50 50" version="1.1" xmlns="http://www.w3.org/2000/svg" xmlns:xlink="http://www.w3.org/1999/xlink">
    <!-- Generator: Sketch 3.7.1 (28215) - http://www.bohemiancoding.com/sketch -->
    <title>Group 2</title>
    <desc>Created with Sketch.</desc>
    <defs></defs>
    <g id="Page-1" stroke="none" stroke-width="1" fill="none" fill-rule="evenodd">
        <g id="Artboard-4" transform="translate(-325.000000, -125.000000)">
            <g id="Group-22" transform="translate(325.000000, 125.000000)">
                <rect id="Rectangle-6" x="0" y="0" width="50" height="50"></rect>
                <path d="M37.9319947,25.8754787 C37.9319947,25.8754787 37.9319947,25.943484 37.865779,25.943484 C37.7995633,26.0096997 37.7995633,26.077705 37.731558,26.1439207 L28.4828376,35.3935359 C28.2143956,35.6610831 27.9459537,35.7281936 27.611296,35.7281936 C27.2766384,35.7281936 27.0090912,35.5939726 26.7406493,35.3935359 C26.2717706,34.9246573 26.2717706,34.1202262 26.7406493,33.6504528 L33.8445184,26.544794 L14.207094,26.544794 C13.5368839,26.544794 13,26.0088049 13,25.3385948 C13,24.6683847 13.5368839,24.1315008 14.207094,24.1315008 L33.8445184,24.1315008 L26.806865,17.0947421 C26.3379863,16.6258635 26.3379863,15.8214324 26.806865,15.351659 C27.2757436,14.8827803 28.0801747,14.8827803 28.5499481,15.351659 L37.6653424,24.4661584 C37.731558,24.5341637 37.7995633,24.6003794 37.7995633,24.6683847 L37.865779,24.7346004 C37.865779,24.8026057 37.9319947,24.8026057 37.9319947,24.8688214 C37.9319947,24.935037 37.9319947,24.935037 38,25.0030423 L38,25.1372633 L38,25.606142 L38,25.7394681 C38,25.8074734 38,25.8074734 37.9319947,25.8736891 C37.9319947,25.8074734 37.9319947,25.8736891 37.9319947,25.8736891 L37.9319947,25.8754787 Z" id="Shape" fill="#2D2D2D"></path>
            </g>
        </g>
    </g>
</svg>