<?xml version="1.0" encoding="utf-8"?>
<!-- Generator: Adobe Illustrator 18.0.0, SVG Export Plug-In . SVG Version: 6.00 Build 0)  -->
<!DOCTYPE svg PUBLIC "-//W3C//DTD SVG 1.1//EN" "http://www.w3.org/Graphics/SVG/1.1/DTD/svg11.dtd">
<svg version="1.1" id="Layer_1" xmlns="http://www.w3.org/2000/svg" xmlns:xlink="http://www.w3.org/1999/xlink" x="0px" y="0px"
	 width="50px" height="50px" viewBox="0 0 50 50" enable-background="new 0 0 50 50" xml:space="preserve">
<g>
	<path d="M32.0734978,10.3936138c-3.6149082,0-6.9247627,1.3228273-9.4780045,3.5060701
		c-0.0826588,0.0203896-0.1495838,0.0766802-0.1791935,0.1552486c-1.0343857,0.9137173-1.9377823,1.9711046-2.6804867,3.1410437
		c-0.0009117,0.0006294-0.0013218,0.001667-0.0022335,0.0022964c-0.0273132,0.0192871-0.049778,0.0418797-0.0672092,0.0688133
		c-0.0067348,0.0103207-0.0120831,0.0200748-0.0173073,0.0312767c-0.0095959,0.0205479-0.0157948,0.0412521-0.0197277,0.063591
		c-1.3681068,2.2207184-2.1599274,4.8325176-2.1621609,7.6262474c0,0.0000935-0.0000629,0.0001259-0.0000629,0.0002193
		c0,0.0000629,0.0000305,0.0001259,0.0000305,0.0001888c0,0.0038071-0.0002823,0.0075836-0.0002823,0.0113907
		c0,8.0540771,6.5525589,14.6063881,14.606638,14.6063881S46.6801338,33.0540771,46.6801338,25
		S40.1275749,10.3936138,32.0734978,10.3936138z M22.8012772,14.4030323h1.6678734l-3.6807022,2.1677303
		C21.3814735,15.7789097,22.0581951,15.0540152,22.8012772,14.4030323z M35.8389664,18.1645679l4.6232414,6.5669708
		c-0.9780006,0.0061054-2.9714127,0.0095978-5.9649467,0.0103531c0.0003433-0.002203,0.0017624-0.0039654,0.0020752-0.0061989
		l0.9657936-6.8541222L35.8389664,18.1645679z M28.8934059,38.7245102l12.1405258-13.4510784
		c0.0350494-0.0065765,0.0709839-0.0104141,0.1020393-0.0322819c0.1165466-0.0820618,0.1444893-0.2431641,0.0624275-0.3594589
		l-4.0094833-5.6951962l4.4754181,3.3879185c0.015358,0.0080547,1.5302162,0.8034935,1.6309052,2.0464935
		c0.066452,0.8185997-0.4941292,1.6744518-1.6872902,2.5610142L29.0396252,38.7583351
		C28.990696,38.7475433,28.9421463,38.735775,28.8934059,38.7245102z M27.2461109,38.2386894L33.8212929,25.2577
		c3.2619972-0.0004101,5.4501457-0.0037136,6.5414848-0.009943L28.3280716,38.5815964
		C27.9617233,38.4804688,27.5999355,38.3681068,27.2461109,38.2386894z M23.4852352,36.1599426l9.1436558-9.6886616
		l-5.8644505,11.5778637C25.5829544,37.5666885,24.4817677,36.9286041,23.4852352,36.1599426z M19.8737259,17.9621849
		l3.4612312,6.774704c-1.5080624-0.0013218-3.1106148-0.0028954-4.8073444-0.0047207l-0.5384007-0.0006599
		C18.0356236,22.2699547,18.7155552,19.9619217,19.8737259,17.9621849z M23.9141998,24.7373924l-3.4350529-6.7235432
		l12.7508526,6.728199C30.7156181,24.7420807,27.608242,24.7405071,23.9141998,24.7373924z M20.4077206,17.3929787
		l5.0369453-2.9662848l9.5409946,3.1636343l-0.983223,6.9767113L20.4077206,17.3929787z M27.0111599,14.4030323h3.8588581
		l3.0071907,2.276474L27.0111599,14.4030323z M17.9886456,25.2470322l0.5382118,0.0006618
		c6.0508804,0.0064812,10.900198,0.010006,14.5387058,0.0100689l-9.9855366,10.5807304
		C20.0270233,33.3009224,18.0624313,29.5005264,17.9886456,25.2470322z M32.0734978,39.0908623
		c-0.8204556,0-1.6233521-0.0744476-2.4057655-0.2096863l12.2684631-11.3025417
		c1.3245583-0.9827213,1.9546165-1.9916191,1.8730583-2.9995117c-0.123848-1.524929-1.8355522-2.4250851-1.8710442-2.4391804
		l-6.5067177-4.9284534c0,0,0,0-0.0000305,0l-4.3192883-3.2716236c-0.0448055-0.034234-0.0994301-0.0523586-0.1555634-0.0523586
		h-7.5316944c2.3894348-1.8637762,5.3903942-2.9783678,8.6485825-2.9783678c7.769886,0,14.091114,6.321229,14.091114,14.0908613
		S39.8433838,39.0908623,32.0734978,39.0908623z"/>
	<path d="M32.0734978,8.0737495c-7.0851078,0-13.1636772,4.3774347-15.6828098,10.5682716H8.7890158
		c-0.0561342,0-0.1105061,0.0181236-0.1553125,0.0518532l-6.4146166,4.8411064
		c-0.2016289,0.0800476-1.0720816,0.466692-1.2037319,1.2490425c-0.0088418,0.0524216-0.0089675,0.1056595-0.010761,0.158741
		C1.0038702,24.9505692,1,24.9573021,1,24.9652634c0,0.0040264,0.0021082,0.0073929,0.0022969,0.0113888
		c-0.0030206,0.5684509,0.3913639,1.1743431,1.1820524,1.8045292c2.4137566,1.9241581,14.8115387,13.2964287,14.9499855,13.422287
		c0.017622,0.0140991,1.1747837,0.9182816,2.5584965,0.9182816c0.7035618,0,1.4660263-0.2341003,2.1665668-0.9374123
		l0.9784412-0.9786911c0.0066071-0.0066071,0.0091248-0.0152283,0.0148506-0.0223427
		c2.6550007,1.7319412,5.8211842,2.7429466,9.220808,2.7429466C41.4068222,41.9262505,49,34.3333282,49,25
		S41.4068222,8.0737495,32.0734978,8.0737495z M15.1538858,24.7282677l-0.7152348-0.001133
		c-2.2303467-0.0027695-4.3313704-0.0056648-6.1742229-0.0083084l7.2808847-3.3584023
		C15.3059568,22.4480171,15.1722298,23.5741234,15.1538858,24.7282677z M6.8784499,21.1612492l4.0001054-1.7982979
		l4.169261,1.6593475L7.323997,24.5846596L6.8784499,21.1612492z M12.8213406,25.2406139l3.2463875,9.2121868l-8.363348-9.2192669
		C9.2371111,25.2357693,10.9703074,25.2382221,12.8213406,25.2406139z M15.695055,20.7247009l-3.9377718-1.5671539h4.4297609
		C15.9984112,19.6688232,15.8342571,20.1917439,15.695055,20.7247009z M8.8753557,19.157547h1.2027254l-2.9745922,1.3372688
		L8.8753557,19.157547z M2.431288,24.0057011c0.0246687-0.0085583,0.0480788-0.0211449,0.0689716-0.0367527l3.8459885-2.9026299
		l0.4750609,3.6504002c-2.6149449-0.0039005-4.5238428-0.0069847-5.2444897-0.0081806
		C1.777473,24.2487373,2.424051,24.0084057,2.431288,24.0057011z M1.5554547,25.2240314
		c0.7186017,0.0011959,2.6981072,0.004406,5.4140868,0.0084324l6.0377588,10.5043983
		c-3.8528481-3.5069199-9.0243702-8.1811028-10.5017548-9.3584366C1.9819652,25.9607582,1.6617126,25.5687962,1.5554547,25.2240314z
		 M14.2557125,36.8743286L8.526659,26.9070091l7.9830933,8.8000565l1.5830116,4.4921265
		c-0.3639259-0.1856155-0.5985928-0.3675766-0.6233883-0.386898C17.4290066,39.7752609,16.1062412,38.5619926,14.2557125,36.8743286
		z M21.4944019,39.8203506c-0.9235344,0.9276543-1.9682407,0.889267-2.7633038,0.6389313l-1.7519493-4.9714355
		c-0.0000935-0.0002518-0.0001888-0.000473-0.0002823-0.0007553l-3.61063-10.2457848
		c0.3531971,0.0004406,0.7091942,0.0009117,1.0696592,0.0013523l0.7152662,0.001133
		c0.0804567,5.647213,2.9384384,10.6319561,7.268362,13.6492176L21.4944019,39.8203506z M32.0734978,41.4107246
		c-9.0491333,0-16.4109764-7.3618431-16.4109764-16.4107246S23.0243645,8.5892744,32.0734978,8.5892744
		S48.4844742,15.9511185,48.4844742,25S41.1226311,41.4107246,32.0734978,41.4107246z"/>
	<path d="M31.8026142,18.9881687c-0.4633255-0.1147213-0.8425751-0.3663807-1.1380024-0.7402172
		c-0.2060642-0.2607212-0.5682926,0.1067295-0.3645554,0.3645229c0.3457394,0.4374599,0.8250484,0.7389908,1.3655262,0.8727818
		C31.9883213,19.5651779,32.1251945,19.0680275,31.8026142,18.9881687z"/>
</g>
</svg>
