<?xml version="1.0" encoding="UTF-8" standalone="no"?>
<svg width="50px" height="50px" viewBox="0 0 50 50" version="1.1" xmlns="http://www.w3.org/2000/svg" xmlns:xlink="http://www.w3.org/1999/xlink">
    <!-- Generator: Sketch 3.7.1 (28215) - http://www.bohemiancoding.com/sketch -->
    <title>Group 2</title>
    <desc>Created with Sketch.</desc>
    <defs></defs>
    <g id="Page-1" stroke="none" stroke-width="1" fill="none" fill-rule="evenodd">
        <g id="Artboard-4" transform="translate(-125.000000, -225.000000)">
            <g id="Group-30" transform="translate(125.000000, 225.000000)">
                <rect id="Rectangle-6" x="0" y="0" width="50" height="50"></rect>
                <path d="M37.4846971,35.1736415 L31.2386009,28.7401624 C32.3004372,27.1786384 32.9875078,25.1174266 32.9875078,22.9937539 C32.9250468,17.4971893 28.4278576,13 23.0562149,13 C17.4971893,13 13,17.4971893 13,23.0562149 C13,28.4278576 17.4971893,32.9250468 23.0562149,32.9250468 C25.1174266,32.9250468 27.2410993,32.2379763 28.8026234,31.1761399 L35.2361024,37.4222361 C35.6108682,37.7970019 35.923173,37.9219238 36.2979388,37.9219238 C36.7976265,37.9219238 37.1723923,37.7345409 37.4846971,37.4222361 C38.1717676,36.7351655 38.1717676,35.7357901 37.4846971,35.1736415 L37.4846971,35.1736415 L37.4846971,35.1736415 Z M23.0562149,29.6770768 C19.2460962,29.6770768 16.310431,26.7414116 16.310431,23.0562149 C16.310431,19.2460962 19.2460962,16.310431 23.0562149,16.310431 C26.6789507,16.310431 29.6770768,19.2460962 29.6770768,23.0562149 C29.6770768,26.6789507 26.6789507,29.6770768 23.0562149,29.6770768 L23.0562149,29.6770768 L23.0562149,29.6770768 Z" id="Fill-1" fill="#2D2D2D"></path>
            </g>
        </g>
    </g>
</svg>