<?xml version="1.0" encoding="UTF-8" standalone="no"?>
<svg width="44px" height="44px" viewBox="0 0 44 44" version="1.1" xmlns="http://www.w3.org/2000/svg" xmlns:xlink="http://www.w3.org/1999/xlink">
    <!-- Generator: Sketch 40.1 (33804) - http://www.bohemiancoding.com/sketch -->
    <title>ui-cross-2</title>
    <desc>Created with Sketch.</desc>
    <defs></defs>
    <g id="44px-Line" stroke="none" stroke-width="1" fill="none" fill-rule="evenodd">
        <path d="M35.8771518,15.8166538 C35.8771518,14.8121725 35.0631027,14 34.0605123,14 C33.0560416,14 32.2401123,14.8121725 32.2401123,15.8166538 C32.2401123,16.8211351 33.0560416,17.6351771 34.0605123,17.6351771 C35.0631027,17.6351773 35.8771518,16.8211351 35.8771518,15.8166538 L35.8771518,15.8166538 Z M11.6351878,15.8166538 C11.6351878,14.8121725 10.8192867,14 9.816668,14 C8.81219731,14 8,14.8121725 8,15.8166538 C8,16.8211351 8.81219731,17.6351771 9.816668,17.6351771 C10.8192867,17.6351773 11.6351878,16.8211351 11.6351878,15.8166538 L11.6351878,15.8166538 Z M29.8166536,15.8166538 C29.8166536,14.8121725 29.0044847,14 27.9981339,14 C26.9955435,14 26.1814944,14.8121725 26.1814944,15.8166538 C26.1814944,16.8211351 26.9955435,17.6351771 27.9981339,17.6351771 C29.0044847,17.6351773 29.8166536,16.8211351 29.8166536,15.8166538 L29.8166536,15.8166538 Z M23.7561555,15.8166538 C23.7561555,14.8121725 22.9421634,14 21.9376357,14 C20.9350454,14 20.1209963,14.8121725 20.1209963,15.8166538 C20.1209963,16.8211351 20.9350454,17.6351771 21.9376357,17.6351771 C22.9421634,17.6351773 23.7561555,16.8211351 23.7561555,15.8166538 L23.7561555,15.8166538 Z M23.7561555,21.8790145 C23.7561555,20.8745332 22.9421634,20.0604948 21.9376357,20.0604948 C20.9350454,20.0604948 20.1209963,20.8745332 20.1209963,21.8790145 C20.1209963,22.8816299 20.9350454,23.6956684 21.9376357,23.6956684 C22.9421634,23.6956682 23.7561555,22.8816297 23.7561555,21.8790145 L23.7561555,21.8790145 Z M23.7561555,27.9395091 C23.7561555,26.9350278 22.9421634,26.1209894 21.9376357,26.1209894 C20.9350454,26.1209894 20.1209963,26.9350278 20.1209963,27.9395091 C20.1209963,28.9439905 20.9350454,29.7580324 21.9376357,29.7580324 C22.9421634,29.7580324 23.7561555,28.9439905 23.7561555,27.9395091 L23.7561555,27.9395091 Z M17.6956573,15.8166538 C17.6956573,14.8121725 16.8816652,14 15.8790179,14 C14.8726955,14 14.0586464,14.8121725 14.0586464,15.8166538 C14.0586464,16.8211351 14.8726955,17.6351771 15.8790179,17.6351771 C16.8816652,17.6351773 17.6956573,16.8211351 17.6956573,15.8166538 L17.6956573,15.8166538 Z M17.6956573,21.8790145 C17.6956573,20.8745332 16.8816652,20.0604948 15.8790179,20.0604948 C14.8726955,20.0604948 14.0586464,20.8745332 14.0586464,21.8790145 C14.0586464,22.8816299 14.8726955,23.6956684 15.8790179,23.6956684 C16.8816652,23.6956682 17.6956573,22.8816297 17.6956573,21.8790145 L17.6956573,21.8790145 Z M29.8166536,21.8790145 C29.8166536,20.8745332 29.0044847,20.0604948 27.9981339,20.0604948 C26.9955435,20.0604948 26.1814944,20.8745332 26.1814944,21.8790145 C26.1814944,22.8816299 26.9955435,23.6956684 27.9981339,23.6956684 C29.0044847,23.6956682 29.8166536,22.8816297 29.8166536,21.8790145 L29.8166536,21.8790145 Z" id="Shape" fill="#15181b" transform="translate(21.938576, 21.879016) scale(-1, 1) rotate(90.000000) translate(-21.938576, -21.879016) "></path>
    </g>
</svg>