<?xml version="1.0" encoding="UTF-8" standalone="no"?>
<svg width="44px" height="44px" viewBox="0 0 44 44" version="1.1" xmlns="http://www.w3.org/2000/svg" xmlns:xlink="http://www.w3.org/1999/xlink">
    <!-- Generator: Sketch 40.1 (33804) - http://www.bohemiancoding.com/sketch -->
    <title>ui-cross-2</title>
    <desc>Created with Sketch.</desc>
    <defs></defs>
    <g id="44px-Line" stroke="none" stroke-width="1" fill="none" fill-rule="evenodd">
        <path d="M17.7580074,9.81665381 C17.7580074,8.81404029 16.9440153,8 15.941368,8 C14.9350455,8 14.1209965,8.81404029 14.1209965,9.81665381 C14.1209965,10.8211351 14.9350455,11.6370432 15.941368,11.6370432 C16.9440153,11.6370432 17.7580074,10.8211353 17.7580074,9.81665381 L17.7580074,9.81665381 Z M42,15.8771484 C42,14.874533 41.1878311,14.0604946 40.1833606,14.0604946 C39.1788901,14.0604946 38.3648408,14.874533 38.3648408,15.8771484 C38.3648408,16.8834959 39.1788899,17.6975378 40.1833606,17.6975378 C41.1878313,17.6975378 42,16.8834959 42,15.8771484 L42,15.8771484 Z M35.9395019,15.8771484 C35.9395019,14.874533 35.1254528,14.0604946 34.1228624,14.0604946 C33.1183917,14.0604946 32.3024623,14.874533 32.3024623,15.8771484 C32.3024623,16.8834959 33.1183917,17.6975378 34.1228624,17.6975378 C35.1254528,17.6975378 35.9395019,16.8834959 35.9395019,15.8771484 L35.9395019,15.8771484 Z M29.8790037,15.8771484 C29.8790037,14.874533 29.0668348,14.0604946 28.060484,14.0604946 C27.0578936,14.0604946 26.2438445,14.874533 26.2438445,15.8771484 C26.2438445,16.8834959 27.0578936,17.6975378 28.060484,17.6975378 C29.0668348,17.6975378 29.8790037,16.8834959 29.8790037,15.8771484 L29.8790037,15.8771484 Z M5.63518776,15.8771484 C5.63518776,14.874533 4.82301882,14.0604946 3.81851976,14.0604946 C2.81404907,14.0604946 2,14.874533 2,15.8771484 C2,16.8834959 2.81404907,17.6975378 3.81851976,17.6975378 C4.82301901,17.6975378 5.63518776,16.8834959 5.63518776,15.8771484 L5.63518776,15.8771484 Z M23.8185056,15.8771484 C23.8185056,14.874533 23.0045134,14.0604946 21.9999858,14.0604946 C20.9973954,14.0604946 20.1833464,14.874533 20.1833464,15.8771484 C20.1833464,16.8834959 20.9973954,17.6975378 21.9999858,17.6975378 C23.0045134,17.6975378 23.8185056,16.8834959 23.8185056,15.8771484 L23.8185056,15.8771484 Z M17.7580074,15.8771484 C17.7580074,14.874533 16.9440153,14.0604946 15.941368,14.0604946 C14.9350455,14.0604946 14.1209965,14.874533 14.1209965,15.8771484 C14.1209965,16.8834959 14.9350455,17.6975378 15.941368,17.6975378 C16.9440153,17.6975378 17.7580074,16.8834959 17.7580074,15.8771484 L17.7580074,15.8771484 Z M11.6975378,15.8771484 C11.6975378,14.874533 10.8816368,14.0604946 9.87901809,14.0604946 C8.8745474,14.0604946 8.06235009,14.874533 8.06235009,15.8771484 C8.06235009,16.8834959 8.8745474,17.6975378 9.87901809,17.6975378 C10.8816368,17.6975378 11.6975378,16.8834959 11.6975378,15.8771484 L11.6975378,15.8771484 Z M35.9395019,9.81665381 C35.9395019,8.81404029 35.1254528,8 34.1228624,8 C33.1183917,8 32.3024623,8.81404029 32.3024623,9.81665381 C32.3024623,10.8211351 33.1183917,11.6370432 34.1228624,11.6370432 C35.1254528,11.6370432 35.9395019,10.8211353 35.9395019,9.81665381 L35.9395019,9.81665381 Z M35.9395019,21.937643 C35.9395019,20.9331617 35.1254528,20.1209892 34.1228624,20.1209892 C33.1183917,20.1209892 32.3024623,20.9331617 32.3024623,21.937643 C32.3024623,22.9421243 33.1183917,23.7561663 34.1228624,23.7561663 C35.1254528,23.7561665 35.9395019,22.9421243 35.9395019,21.937643 L35.9395019,21.937643 Z M11.6975378,9.81665381 C11.6975378,8.81404029 10.8816368,8 9.87901809,8 C8.8745474,8 8.06235009,8.81404029 8.06235009,9.81665381 C8.06235009,10.8211351 8.8745474,11.6370432 9.87901809,11.6370432 C10.8816368,11.6370432 11.6975378,10.8211353 11.6975378,9.81665381 L11.6975378,9.81665381 Z M11.6975378,21.937643 C11.6975378,20.9331617 10.8816368,20.1209892 9.87901809,20.1209892 C8.8745474,20.1209892 8.06235009,20.9331617 8.06235009,21.937643 C8.06235009,22.9421243 8.8745474,23.7561663 9.87901809,23.7561663 C10.8816368,23.7561665 11.6975378,22.9421243 11.6975378,21.937643 L11.6975378,21.937643 Z M29.8790037,9.81665381 C29.8790037,8.81404029 29.0668348,8 28.060484,8 C27.0578936,8 26.2438445,8.81404029 26.2438445,9.81665381 C26.2438445,10.8211351 27.0578936,11.6370432 28.060484,11.6370432 C29.0668348,11.6370432 29.8790037,10.8211353 29.8790037,9.81665381 L29.8790037,9.81665381 Z M29.8790037,21.937643 C29.8790037,20.9331617 29.0668348,20.1209892 28.060484,20.1209892 C27.0578936,20.1209892 26.2438445,20.9331617 26.2438445,21.937643 C26.2438445,22.9421243 27.0578936,23.7561663 28.060484,23.7561663 C29.0668348,23.7561665 29.8790037,22.9421243 29.8790037,21.937643 L29.8790037,21.937643 Z M23.8185056,21.937643 C23.8185056,20.9331617 23.0045134,20.1209892 21.9999858,20.1209892 C20.9973954,20.1209892 20.1833464,20.9331617 20.1833464,21.937643 C20.1833464,22.9421243 20.9973954,23.7561663 21.9999858,23.7561663 C23.0045134,23.7561665 23.8185056,22.9421243 23.8185056,21.937643 L23.8185056,21.937643 Z M23.8185056,28.0000037 C23.8185056,26.9955224 23.0045134,26.181484 21.9999858,26.181484 C20.9973954,26.181484 20.1833464,26.9955224 20.1833464,28.0000037 C20.1833464,29.0026191 20.9973954,29.8166575 21.9999858,29.8166575 C23.0045134,29.8166574 23.8185056,29.0026189 23.8185056,28.0000037 L23.8185056,28.0000037 Z M23.8185056,34.0604983 C23.8185056,33.056017 23.0045134,32.2419786 21.9999858,32.2419786 C20.9973954,32.2419786 20.1833464,33.056017 20.1833464,34.0604983 C20.1833464,35.0649797 20.9973954,35.8790216 21.9999858,35.8790216 C23.0045134,35.8790216 23.8185056,35.0649797 23.8185056,34.0604983 L23.8185056,34.0604983 Z M23.8185056,9.81665381 C23.8185056,8.81404029 23.0045134,8 21.9999858,8 C20.9973954,8 20.1833464,8.81404029 20.1833464,9.81665381 C20.1833464,10.8211351 20.9973954,11.6370432 21.9999858,11.6370432 C23.0045134,11.6370432 23.8185056,10.8211353 23.8185056,9.81665381 L23.8185056,9.81665381 Z M17.7580074,21.937643 C17.7580074,20.9331617 16.9440153,20.1209892 15.941368,20.1209892 C14.9350455,20.1209892 14.1209965,20.9331617 14.1209965,21.937643 C14.1209965,22.9421243 14.9350455,23.7561663 15.941368,23.7561663 C16.9440153,23.7561665 17.7580074,22.9421243 17.7580074,21.937643 L17.7580074,21.937643 Z M17.7580074,28.0000037 C17.7580074,26.9955224 16.9440153,26.181484 15.941368,26.181484 C14.9350455,26.181484 14.1209965,26.9955224 14.1209965,28.0000037 C14.1209965,29.0026191 14.9350455,29.8166575 15.941368,29.8166575 C16.9440153,29.8166574 17.7580074,29.0026189 17.7580074,28.0000037 L17.7580074,28.0000037 Z M29.8790037,28.0000037 C29.8790037,26.9955224 29.0668348,26.181484 28.060484,26.181484 C27.0578936,26.181484 26.2438445,26.9955224 26.2438445,28.0000037 C26.2438445,29.0026191 27.0578936,29.8166575 28.060484,29.8166575 C29.0668348,29.8166574 29.8790037,29.0026189 29.8790037,28.0000037 L29.8790037,28.0000037 Z" id="Shape" fill="#15181b"></path>
    </g>
</svg>