<?xml version="1.0" encoding="UTF-8" standalone="no"?>
<svg width="44px" height="44px" viewBox="0 0 44 44" version="1.1" xmlns="http://www.w3.org/2000/svg" xmlns:xlink="http://www.w3.org/1999/xlink">
    <!-- Generator: Sketch 40.1 (33804) - http://www.bohemiancoding.com/sketch -->
    <title>ui-cross-2</title>
    <desc>Created with Sketch.</desc>
    <defs></defs>
    <g id="44px-Line" stroke="none" stroke-width="1" fill="none" fill-rule="evenodd">
        <path d="M42.4385759,12.9628665 C42.4385759,11.4855372 41.2413226,10.2910438 39.7667744,10.2910438 C38.2894607,10.2910438 37.0894419,11.4855372 37.0894419,12.9628665 C37.0894419,14.4401959 38.2894607,15.6374387 39.7667744,15.6374387 C41.2413226,15.637439 42.4385759,14.4401959 42.4385759,12.9628665 L42.4385759,12.9628665 Z M6.78498643,12.9628665 C6.78498643,11.4855372 5.58500941,10.2910438 4.11041943,10.2910438 C2.63310573,10.2910438 1.43857588,11.4855372 1.43857588,12.9628665 C1.43857588,14.4401959 2.63310573,15.6374387 4.11041943,15.6374387 C5.58500941,15.637439 6.78498643,14.4401959 6.78498643,12.9628665 L6.78498643,12.9628665 Z M33.525168,12.9628665 C33.525168,11.4855372 32.3306799,10.2910438 30.850601,10.2910438 C29.3760528,10.2910438 28.1787995,11.4855372 28.1787995,12.9628665 C28.1787995,14.4401959 29.3760528,15.6374387 30.850601,15.6374387 C32.3306799,15.637439 33.525168,14.4401959 33.525168,12.9628665 L33.525168,12.9628665 Z M24.6117601,12.9628665 C24.6117601,11.4855372 23.4145906,10.2910438 21.9371932,10.2910438 C20.4626449,10.2910438 19.2653916,11.4855372 19.2653916,12.9628665 C19.2653916,14.4401959 20.4626449,15.6374387 21.9371932,15.6374387 C23.4145906,15.637439 24.6117601,14.4401959 24.6117601,12.9628665 L24.6117601,12.9628665 Z M24.6117601,21.8790137 C24.6117601,20.4016844 23.4145906,19.2044468 21.9371932,19.2044468 C20.4626449,19.2044468 19.2653916,20.4016844 19.2653916,21.8790137 C19.2653916,23.3535988 20.4626449,24.5508364 21.9371932,24.5508364 C23.4145906,24.5508362 24.6117601,23.3535985 24.6117601,21.8790137 L24.6117601,21.8790137 Z M24.6117601,30.7924164 C24.6117601,29.315087 23.4145906,28.1178494 21.9371932,28.1178494 C20.4626449,28.1178494 19.2653916,29.315087 19.2653916,30.7924164 C19.2653916,32.2697458 20.4626449,33.4669886 21.9371932,33.4669886 C23.4145906,33.4669886 24.6117601,32.2697458 24.6117601,30.7924164 L24.6117601,30.7924164 Z M15.6983523,12.9628665 C15.6983523,11.4855372 14.5011827,10.2910438 13.0265507,10.2910438 C11.5465136,10.2910438 10.3492603,11.4855372 10.3492603,12.9628665 C10.3492603,14.4401959 11.5465136,15.6374387 13.0265507,15.6374387 C14.5011827,15.637439 15.6983523,14.4401959 15.6983523,12.9628665 L15.6983523,12.9628665 Z M15.6983523,21.8790137 C15.6983523,20.4016844 14.5011827,19.2044468 13.0265507,19.2044468 C11.5465136,19.2044468 10.3492603,20.4016844 10.3492603,21.8790137 C10.3492603,23.3535988 11.5465136,24.5508364 13.0265507,24.5508364 C14.5011827,24.5508362 15.6983523,23.3535985 15.6983523,21.8790137 L15.6983523,21.8790137 Z M33.525168,21.8790137 C33.525168,20.4016844 32.3306799,19.2044468 30.850601,19.2044468 C29.3760528,19.2044468 28.1787995,20.4016844 28.1787995,21.8790137 C28.1787995,23.3535988 29.3760528,24.5508364 30.850601,24.5508364 C32.3306799,24.5508362 33.525168,23.3535985 33.525168,21.8790137 L33.525168,21.8790137 Z" id="Shape" fill="#000000" transform="translate(21.938576, 21.879016) scale(-1, 1) translate(-21.938576, -21.879016) "></path>
    </g>
</svg>