<?xml version="1.0" encoding="utf-8"?>
<!-- Generator: Adobe Illustrator 18.0.0, SVG Export Plug-In . SVG Version: 6.00 Build 0)  -->
<!DOCTYPE svg PUBLIC "-//W3C//DTD SVG 1.1//EN" "http://www.w3.org/Graphics/SVG/1.1/DTD/svg11.dtd">
<svg version="1.1" id="Layer_1" xmlns="http://www.w3.org/2000/svg" xmlns:xlink="http://www.w3.org/1999/xlink" x="0px" y="0px"
	 width="50px" height="50px" viewBox="0 0 50 50" enable-background="new 0 0 50 50" xml:space="preserve">
<g>
	<path d="M32.0736618,10.3935366c-3.6148663,0-6.924736,1.322835-9.4779911,3.5060263
		c-0.08288,0.0203581-0.1499634,0.0767756-0.1795731,0.1555958c-1.0342655,0.9136591-1.937542,1.9709568-2.6801853,3.1407757
		c-0.0009136,0.0006294-0.0013218,0.0016689-0.0022354,0.0022964c-0.0273113,0.019289-0.049778,0.0418816-0.0672092,0.0688152
		c-0.0067329,0.0103207-0.0120831,0.0200748-0.0173054,0.0312767c-0.0095978,0.0205479-0.0157967,0.0412521-0.0197296,0.063591
		c-1.3681126,2.2207298-2.1599388,4.8325424-2.1621723,7.6262875c0,0.0000935-0.0000629,0.0001259-0.0000629,0.0002193
		c0,0.0000629,0.0000305,0.0001259,0.0000305,0.0001888c0,0.0038071-0.0002823,0.0075836-0.0002823,0.0113907
		c0,8.0541191,6.5525951,14.6064644,14.6067162,14.6064644S46.6801224,33.0541191,46.6801224,25
		S40.1277809,10.3935366,32.0736618,10.3935366z M22.8013916,14.402977h1.6676941l-3.6805019,2.1676788
		C21.3815804,15.7787991,22.0583363,15.0539312,22.8013916,14.402977z M25.4445419,14.4266386l9.5412979,3.1636515
		l-0.9834785,6.976244l-13.5945396-7.1735954L25.4445419,14.4266386z M27.011076,14.402977h3.8588467l3.0070496,2.2763596
		L27.011076,14.402977z M35.4652786,17.881691l0.3741837,0.2832508l4.6229515,6.5665951
		c-0.9780693,0.0061054-2.9715843,0.0095978-5.965229,0.0103531c0.0003433-0.002203,0.0017624-0.0039654,0.0020752-0.0061989
		L35.4652786,17.881691z M33.2301674,24.7420464c-2.5144253,0.0000324-5.6218796-0.0015411-9.3160992-0.0046558
		l-3.4348507-6.7235775L33.2301674,24.7420464z M19.8738232,17.9621792l3.4610004,6.7747078
		c-1.5080719-0.0013218-3.1106014-0.0028954-4.8073692-0.0047207l-0.5381527-0.0006599
		C18.0357132,22.2699413,18.7156487,19.9619274,19.8738232,17.9621792z M17.9887352,25.2470341l0.5379639,0.0006618
		c6.0511627,0.0064812,10.9002533,0.010006,14.5387802,0.0100689L23.080143,35.8385506
		C20.0271225,33.3009644,18.062521,29.5005512,17.9887352,25.2470341z M23.4853535,36.1599998l9.1435452-9.6887741
		L26.7647648,38.049305C25.5831795,37.5668182,24.4819241,36.9286995,23.4853535,36.1599998z M27.2464676,38.2388535
		l6.5747795-12.9811516c3.2618828-0.0004101,5.450016-0.0037136,6.5414848-0.009943l-12.0345173,13.33391
		C27.9619274,38.4805374,27.6002331,38.3682404,27.2464676,38.2388535z M28.8935528,38.7245827l12.1402416-13.4510536
		c0.0351791-0.006546,0.0712051-0.0104465,0.1023865-0.0323792c0.1165504-0.0820618,0.1444893-0.2431641,0.0624275-0.3594589
		l-4.0092201-5.6948185l4.4749069,3.3875275c0.015358,0.0080547,1.5302238,0.8034992,1.6309128,2.046505
		c0.0664558,0.8186035-0.494133,1.6744595-1.6872978,2.5610275L29.039772,38.7584076
		C28.9908428,38.7476158,28.9422932,38.7358475,28.8935528,38.7245827z M32.0736618,39.0909348
		c-0.8204594,0-1.6233921-0.0744476-2.4058094-0.2096863l12.2683048-11.3026009
		c1.3245659-0.9827251,1.954628-1.9916306,1.8730698-2.9995289c-0.123848-1.5249348-1.8355637-2.4250965-1.8710556-2.4391918
		l-6.5059624-4.9278812c-0.000473-0.0003777-0.0009766-0.0006924-0.0014496-0.00107l-4.3186798-3.2711687
		c-0.0448074-0.034234-0.0994301-0.0523586-0.1555653-0.0523586h-7.5314808
		c2.3894463-1.8637867,5.3904228-2.9783831,8.6486282-2.9783831c7.7696724,0,14.0909348,6.3212605,14.0909348,14.0909348
		S39.8433342,39.0909348,32.0736618,39.0909348z"/>
	<path d="M32.0736618,8.0736599c-7.085146,0-13.1637478,4.3774586-15.6828938,10.568327H8.788805
		c-0.0561342,0-0.110507,0.0181236-0.1553135,0.0518551l-6.41465,4.8411312
		c-0.2016301,0.0800476-1.0720872,0.4666939-1.2037382,1.2490482c-0.0089362,0.0530205-0.0091563,0.1068878-0.010887,0.1605988
		C1.0036185,24.9517956,1,24.9579315,1,24.9652615c0,0.0037136,0.0019509,0.0067654,0.0021082,0.0104465
		c-0.0034927,0.568737,0.3908939,1.1749477,1.1819955,1.8054829c2.413769,1.9241676,14.8116159,13.2964954,14.9500647,13.4223576
		c0.0176201,0.0140991,1.1747894,0.9182854,2.5587616,0.9182854c0.7035637,0,1.4657803-0.2341003,2.1663246-0.9374161
		l0.9786987-0.9786987c0.0066071-0.0066071,0.0091248-0.0152283,0.0148506-0.0223389
		c2.655014,1.731945,5.8212147,2.7429581,9.2208576,2.7429581C41.4067841,41.9263382,49,34.333374,49,25
		S41.4067841,8.0736599,32.0736618,8.0736599z M16.1871243,19.1575146c-0.1886349,0.511282-0.3527889,1.0342045-0.491992,1.5671635
		l-3.9377928-1.5671635H16.1871243z M8.264246,24.7188263l7.2811432-3.3584213
		c-0.239357,1.0875988-0.373085,2.2137108-0.3914289,3.3678608l-0.7154903-0.001133
		C12.2081432,24.7243633,10.1071081,24.721468,8.264246,24.7188263z M12.8211508,25.2406158l3.2466574,9.2124863
		l-8.3636456-9.2195663C9.2369022,25.2357693,10.9701395,25.238224,12.8211508,25.2406158z M8.8751459,19.1575146h1.2029514
		l-2.9748912,1.3373089L8.8751459,19.1575146z M10.8786068,19.3629208l4.1692839,1.6593571l-7.7241125,3.5623798
		l-0.445549-3.4234295L10.8786068,19.3629208z M2.4310436,24.0056953c0.0246689-0.0085583,0.048079-0.0211449,0.0689721-0.0367508
		l3.8460088-2.902647l0.4750633,3.6504192c-2.6151156-0.0039005-4.5240865-0.0069847-5.2445168-0.0081806
		C1.7772254,24.2487335,2.4238067,24.0084019,2.4310436,24.0056953z M2.505302,26.3784332
		c-0.5235833-0.4176712-0.8438375-0.8096352-0.950096-1.1543999c0.7183536,0.0011959,2.6979327,0.0044041,5.4141154,0.0084324
		l6.0382624,10.5048923C9.1546526,32.2303581,3.9827571,27.5558033,2.505302,26.3784332z M17.4692116,39.8123703
		c-0.0403709-0.0370331-1.3628578-1.2500839-3.2131462-2.9375076l-5.7294931-9.9677162l7.9832926,8.8002892l1.5831146,4.4922104
		C17.7287998,40.0139694,17.4939117,39.8318481,17.4692116,39.8123703z M21.494257,39.8204269
		c-0.9234753,0.9272194-1.9679985,0.8891792-2.7630024,0.6391258l-5.363205-15.2182446
		c0.353199,0.0004406,0.709198,0.0009117,1.069665,0.0013523l0.7155218,0.001133
		c0.0804567,5.6472111,2.9384212,10.6320457,7.2683678,13.6492882L21.494257,39.8204269z M32.0736618,41.4108124
		c-9.049181,0-16.4110641-7.3618851-16.4110641-16.4108124S23.0244808,8.5891886,32.0736618,8.5891886
		c9.0489273,0,16.4108086,7.3618832,16.4108086,16.4108124S41.1225891,41.4108124,32.0736618,41.4108124z"/>
	<path d="M31.802681,18.9881382c-0.4633274-0.1147232-0.8425789-0.3663826-1.1380062-0.7402229
		c-0.206068-0.2607212-0.5682964,0.1067314-0.3645592,0.3645267c0.3457413,0.4374619,0.8250542,0.7389946,1.3655338,0.8727856
		C31.98839,19.5651493,32.1252632,19.067997,31.802681,18.9881382z"/>
	<path d="M27.7669983,28.0090618c-0.3436947,0.3436966-0.6873589,0.6873913-1.0310555,1.0310574
		c-0.2352657,0.2352657,0.1292591,0.599823,0.3645267,0.3645573c0.3436947-0.3436966,0.6873913-0.6873932,1.0310555-1.0310574
		C28.3667908,28.1383533,28.0022659,27.7737961,27.7669983,28.0090618z"/>
	<path d="M26.2308292,15.912117c-0.3325558-0.0133095-0.3312664,0.5022812,0,0.5155277
		c0.2708225,0.0108242,0.5116901,0.1367798,0.6671295,0.3608761c0.1880054,0.2711067,0.6351261,0.0137501,0.4451389-0.2601871
		C27.0801735,16.1492405,26.6934013,15.9305878,26.2308292,15.912117z"/>
	<path d="M32.4145241,21.8604832c-0.3391342,0.1803894-0.6782665,0.3607807-1.0174007,0.541172
		c-0.293602,0.1561947-0.0331326,0.6011772,0.2601871,0.4451714c0.3391342-0.1804218,0.6782684-0.3608131,1.0174026-0.5412045
		C32.9683151,22.1494598,32.7078438,21.7044468,32.4145241,21.8604832z"/>
</g>
</svg>
