<?xml version="1.0" encoding="utf-8"?>
<!-- Generator: Adobe Illustrator 18.0.0, SVG Export Plug-In . SVG Version: 6.00 Build 0)  -->
<!DOCTYPE svg PUBLIC "-//W3C//DTD SVG 1.1//EN" "http://www.w3.org/Graphics/SVG/1.1/DTD/svg11.dtd">
<svg version="1.1" id="Layer_1" xmlns="http://www.w3.org/2000/svg" xmlns:xlink="http://www.w3.org/1999/xlink" x="0px" y="0px"
	 width="50px" height="50px" viewBox="0 0 50 50" enable-background="new 0 0 50 50" xml:space="preserve">
<circle fill="none" stroke="#000000" stroke-miterlimit="10" cx="25" cy="25" r="23.875"/>
<g>
	<path d="M16.5454922,21.1822147c0-1.1138439,0.218235-2.162796,0.6551495-3.1455231
		c0.4369164-0.9831696,1.0325069-1.8405552,1.7858849-2.5725985c0.7547131-0.7315998,1.6436558-1.3054123,2.6712723-1.7205477
		c1.0258389-0.4146919,2.1299057-0.6227045,3.3086433-0.6227045c1.2680759,0,2.4254799,0.2351255,3.474432,0.7044868
		c1.0489521,0.4702501,1.9450054,1.1471806,2.6881618,2.0321226c0.7413769,0.8844967,1.3156357,1.9658966,1.7192154,3.244194
		c0.4053574,1.2778549,0.6062584,2.7254982,0.6062584,4.3420391c0,2.2276897-0.2115707,4.17803-0.6382637,5.8492413
		c-0.4266891,1.6712112-1.0222816,3.0686283-1.7867718,4.1940289s-1.6978798,1.9716759-2.8019466,2.5405998
		c-1.1022892,0.5671425-2.3201389,0.8516045-3.6539974,0.8516045c-1.4845333,0-2.8446159-0.3395767-4.080246-1.0169487
		c-1.2338524-0.6773758-2.2330227-1.6374321-2.9975128-2.8828392l2.1299057-2.2285805
		c0.5031414,0.9173889,1.196516,1.6436539,2.0801239,2.1796875c0.8853874,0.5351448,1.863224,0.8018265,2.9335098,0.8018265
		c1.6396542,0,2.944622-0.6933746,3.9171257-2.0801258c0.9707241-1.3867493,1.4792004-3.3370895,1.5236473-5.8492413
		c-0.4586945,0.9831715-1.1751823,1.7583294-2.1459064,2.3263626c-0.9725037,0.5680351-2.0819035,0.8524952-3.3268681,0.8524952
		c-1.1360683,0-2.1956863-0.2017899-3.1788578-0.6062584c-0.9831696-0.4044685-1.8347759-0.9556122-2.5565987-1.6552105
		c-0.720932-0.6987076-1.2889652-1.5236473-1.7036572-2.4739265C16.752615,23.2961197,16.5454922,22.2751694,16.5454922,21.1822147z
		 M24.9344406,16.2014713c-0.6773739,0-1.3156357,0.1311188-1.9165592,0.3929119
		c-0.6009254,0.2622375-1.1254025,0.6227036-1.5734291,1.0818424c-0.4480267,0.4586945-0.8036041,0.9885044-1.0649529,1.5889854
		c-0.2613487,0.6013699-0.3929119,1.2400742-0.3929119,1.9170036c0,0.6773739,0.1315632,1.3111897,0.3929119,1.9010029
		s0.6169262,1.1089554,1.0649529,1.5565376c0.4480267,0.4475842,0.9725037,0.8022709,1.5734291,1.0645084
		c0.6009235,0.2622395,1.2391853,0.3938026,1.9165592,0.3938026c0.6778183,0,1.3160782-0.1315632,1.9170036-0.3938026
		c0.6009254-0.2622375,1.1254005-0.6169243,1.5734291-1.0645084c0.4480267-0.4475822,0.8036041-0.9667244,1.0649529-1.5565376
		c0.2631264-0.5898132,0.3929119-1.223629,0.3929119-1.9010029c0-0.6769295-0.1297855-1.3156338-0.3929119-1.9170036
		c-0.2613487-0.600481-0.6169262-1.130291-1.0649529-1.5889854c-0.4480286-0.4591389-0.9725037-0.8196049-1.5734291-1.0818424
		C26.2505188,16.3325901,25.6122589,16.2014713,24.9344406,16.2014713z"/>
</g>
</svg>
