<?xml version="1.0" encoding="utf-8"?>
<!-- Generator: Adobe Illustrator 18.0.0, SVG Export Plug-In . SVG Version: 6.00 Build 0)  -->
<!DOCTYPE svg PUBLIC "-//W3C//DTD SVG 1.1//EN" "http://www.w3.org/Graphics/SVG/1.1/DTD/svg11.dtd">
<svg version="1.1" id="Layer_1" xmlns="http://www.w3.org/2000/svg" xmlns:xlink="http://www.w3.org/1999/xlink" x="0px" y="0px"
	 width="50px" height="50px" viewBox="0 0 50 50" enable-background="new 0 0 50 50" xml:space="preserve">
<circle fill="none" stroke="#000000" stroke-miterlimit="10" cx="25" cy="25" r="23.875"/>
<g>
	<path d="M23.1474609,29.626627v3.1679707H10.9560547V29.626627h4.5429688V18.4586582
		c-0.1914063,0.2558594-0.4960938,0.5234375-0.9121094,0.8007813s-0.8691406,0.5332031-1.359375,0.7675781
		c-0.4912109,0.234375-1.0029297,0.4316406-1.5361328,0.5917969s-1.0029297,0.2402344-1.4072266,0.2402344v-3.2958984
		c0.4257813,0,0.921875-0.1279297,1.4873047-0.3837891s1.1142578-0.5546875,1.6474609-0.8964844
		c0.5332031-0.3408203,0.9921875-0.6816406,1.3769531-1.0234375c0.3828125-0.3417969,0.6171875-0.5869141,0.703125-0.7363281
		h3.5839844V29.626627H23.1474609z"/>
	<path d="M33.7719536,35.4768867v-4.7730465h-9.2162895v-2.9426174l10.2670937-13.2381115h2.2509384v13.1785622h2.6421242v3.0021667
		h-2.6421242v4.7730465H33.7719536z M27.8876362,27.7016735h6.24436v-8.1352539L27.8876362,27.7016735z"/>
</g>
</svg>
