<?xml version="1.0" encoding="utf-8"?>
<!-- Generator: Adobe Illustrator 18.0.0, SVG Export Plug-In . SVG Version: 6.00 Build 0)  -->
<!DOCTYPE svg PUBLIC "-//W3C//DTD SVG 1.1//EN" "http://www.w3.org/Graphics/SVG/1.1/DTD/svg11.dtd">
<svg version="1.1" id="Layer_1" xmlns="http://www.w3.org/2000/svg" xmlns:xlink="http://www.w3.org/1999/xlink" x="0px" y="0px"
	 width="50px" height="50px" viewBox="0 0 50 50" enable-background="new 0 0 50 50" xml:space="preserve">
<circle fill="none" stroke="#000000" stroke-miterlimit="10" cx="25" cy="25" r="23.875"/>
<g>
	<path d="M24.1163826,30.5719986v2.9574051H12.7346077v-2.9574051h4.2416039V20.1452274
		c-0.1789417,0.2387524-0.4629154,0.4882011-0.8499737,0.7468891c-0.3890047,0.2591743-0.8130188,0.4979248-1.2700987,0.7167397
		c-0.4590254,0.2197876-0.9370136,0.4035912-1.434453,0.5528717c-0.4984112,0.1492805-0.9365273,0.224165-1.3148336,0.224165
		v-3.0770226c0.398243,0,0.8616438-0.1196194,1.3892307-0.3588581c0.5275869-0.2387505,1.0405865-0.517374,1.5389977-0.8363571
		c0.4979258-0.3184986,0.9258299-0.6369953,1.2837133-0.9559784c0.3598289-0.3184967,0.5776711-0.5475235,0.6574173-0.6870785
		h3.3473816v14.1014004H24.1163826z"/>
	<path d="M37.8931465,28.6967831c0,0.810154-0.1730728,1.5486031-0.5192223,2.2153511s-0.8101501,1.2362461-1.3920097,1.7084904
		c-0.5826836,0.4730682-1.2659149,0.835701-2.051342,1.0887184c-0.7846031,0.2530212-1.6161842,0.37994-2.4939194,0.37994
		c-0.8942165,0-1.7299175-0.1392822-2.506279-0.4178505c-0.7763634-0.2785683-1.452177-0.6618042-2.025795-1.1521797
		c-0.573204-0.4887276-1.0248451-1.071413-1.3536873-1.7464008c-0.3288403-0.6749897-0.4936733-1.4093208-0.4936733-2.2029896
		c0-0.523344,0.0923061-1.0128956,0.2785664-1.4686584c0.1854382-0.4557629,0.4260921-0.8645477,0.7211437-1.2280025
		c0.2950497-0.3626328,0.6243038-0.6791115,0.9869347-0.9494362c0.3634567-0.2695007,0.7302094-0.4891415,1.1019058-0.6580944
		c-0.692297-0.3037052-1.2832222-0.7681198-1.7723618-1.3924236c-0.4895535-0.6243038-0.7343292-1.3334961-0.7343292-2.1267529
		c0-0.7763615,0.1771946-1.4641266,0.5324097-2.0637054c0.3539772-0.5987549,0.813036-1.1052017,1.3792362-1.5189323
		c0.5653763-0.4133186,1.193388-0.7256756,1.885685-0.9366608c0.692297-0.2109871,1.3755283-0.3164797,2.051342-0.3164797
		c0.6749916,0,1.358223,0.1054926,2.050518,0.3164797c0.6922989,0.2109852,1.3203087,0.5188103,1.8865089,0.9238853
		c0.5653763,0.405077,1.0252609,0.9074039,1.3796501,1.5065708s0.5315857,1.287344,0.5315857,2.0632935
		c0,0.7936687-0.2488976,1.5065689-0.7466927,2.1395264c-0.4986191,0.6329575-1.1019058,1.1014938-1.8106842,1.4051991
		c0.4054871,0.1858482,0.7977867,0.4178505,1.1777267,0.6960049c0.37994,0.2785683,0.7129021,0.6078205,0.9997101,0.9877605
		c0.286808,0.3795261,0.5151024,0.7973785,0.6840553,1.2531395C37.8082581,27.6583385,37.8931465,28.1561337,37.8931465,28.6967831z
		 M35.0827522,28.5195885c0-0.4895535-0.1054955-0.9247112-0.3164787-1.3038254
		c-0.2109871-0.37994-0.4895554-0.7050724-0.835701-0.9753971c-0.3461494-0.2699146-0.7343292-0.4722462-1.1645432-0.6074085
		s-0.8653717-0.2027435-1.3038273-0.2027435c-0.455761,0-0.8991623,0.072113-1.3293743,0.2151051
		c-0.4302139,0.1438179-0.8101521,0.3506813-1.1389942,0.6205959c-0.3296642,0.2699127-0.5950451,0.5946331-0.7977905,0.9745731
		c-0.2027435,0.3799381-0.3041153,0.8060303-0.3041153,1.2791004c0,0.4722462,0.1054935,0.8983383,0.3164787,1.2782784
		c0.2109852,0.3799381,0.4854317,0.7005386,0.8233395,0.9617977c0.3370819,0.2620831,0.7211418,0.4648285,1.1521797,0.6082325
		c0.430212,0.143404,0.8645477,0.215107,1.3038254,0.215107c0.4557629,0,0.8983383-0.0758228,1.3293762-0.2282944
		c0.4302139-0.1516457,0.8134499-0.3626308,1.1513557-0.6329575c0.3379059-0.2695007,0.6082306-0.5900993,0.810154-0.9617977
		C34.9813805,29.389082,35.0827522,28.9753513,35.0827522,28.5195885z M28.4490623,20.8474541
		c0,0.4050751,0.0931301,0.7598782,0.2785664,1.0635815c0.1854362,0.3037052,0.4219723,0.5571346,0.7087803,0.7594681
		c0.2868099,0.2027435,0.6115303,0.358923,0.9749851,0.4685364c0.3626328,0.1100254,0.7219677,0.1644192,1.0763569,0.1644192
		c0.3543911,0,0.7087822-0.0543938,1.0631714-0.1644192c0.3543892-0.1096134,0.6749878-0.2699146,0.9617996-0.4813118
		c0.286808-0.2105732,0.5233421-0.4722462,0.7087784-0.7846031c0.1862602-0.3123589,0.2785683-0.6708698,0.2785683-1.0759449
		c0-0.3712864-0.0840645-0.7046604-0.2530174-1.0001221c-0.1689529-0.2954636-0.3923035-0.548481-0.6708717-0.7598782
		c-0.2785645-0.2105751-0.5991669-0.3708744-0.9617958-0.4808998c-0.3634567-0.1096134-0.7466927-0.1644211-1.1521816-0.1644211
		c-0.4054871,0-0.789547,0.0593395-1.1521797,0.1771965c-0.3626308,0.1182671-0.6832314,0.2826862-0.9617977,0.4936733
		c-0.2785683,0.2113972-0.4977951,0.4685364-0.6585064,0.7722397
		C28.5290051,20.1386738,28.4490623,20.4765797,28.4490623,20.8474541z"/>
</g>
</svg>
