<?xml version="1.0" encoding="UTF-8"?>
<!DOCTYPE svg PUBLIC "-//W3C//DTD SVG 1.1//EN" "http://www.w3.org/Graphics/SVG/1.1/DTD/svg11.dtd">
<!-- Creator: CorelDRAW X7 -->
<svg xmlns="http://www.w3.org/2000/svg" xml:space="preserve" width="50px" height="50px" version="1.1" style="shape-rendering:geometricPrecision; text-rendering:geometricPrecision; image-rendering:optimizeQuality; fill-rule:evenodd; clip-rule:evenodd"
viewBox="0 0 1980611 1980658"
 xmlns:xlink="http://www.w3.org/1999/xlink">
 <defs>
  <style type="text/css">
   <![CDATA[
    .str0 {stroke:black;stroke-width:59373.4}
    .fil0 {fill:none}
    .fil2 {fill:black}
    .fil1 {fill:black;fill-rule:nonzero}
   ]]>
  </style>
 </defs>
 <g id="Layer_x0020_1">
  <metadata id="CorelCorpID_0Corel-Layer"/>
  <rect class="fil0" x="-23" y="-16" width="1980658" height="1980658"/>
  <circle class="fil0 str0" cx="990306" cy="990306" r="945040"/>
  <ellipse class="fil0 str0" cx="990306" cy="990306" rx="534676" ry="945040"/>
  <path class="fil1" d="M698445 1146576c-23909,0 -44308,-4725 -61245,-14083 -16890,-9357 -29430,-23019 -37617,-40939l35699 -46788c982,3088 2807,6551 5380,10387 2573,3884 6223,8048 10855,12492 4725,4492 11042,8235 19089,11229 7954,3042 16844,4539 26622,4539 13428,0 24751,-2901 33921,-8609 9171,-5755 13709,-13896 13709,-24376 0,-24611 -27932,-36963 -83703,-36963l-14270 0 0 -57221 13802 0c14832,0 27792,-1216 38927,-3509 11183,-2292 20213,-6176 27090,-11603 6925,-5521 10387,-12212 10387,-20212 0,-6457 -2105,-11838 -6316,-16142 -4164,-4351 -8749,-7205 -13615,-8703 -4866,-1450 -9872,-2245 -14925,-2245 -14972,0 -27558,3228 -37898,9591 -10200,6410 -18107,13849 -23534,22365l-43700 -50812c10387,-12866 25265,-22972 44822,-30365 19511,-7299 39489,-10948 59888,-10948 31114,0 56988,7954 77668,24002 20727,16048 31114,35980 31114,59888 0,16563 -5194,30318 -15347,41407 -10246,11042 -24002,18434 -41360,22224 18715,3228 33827,12258 45244,26996 11369,14739 17124,31816 17124,51280 0,14691 -3462,27791 -10340,39254 -6784,11463 -15955,20587 -27371,27371 -11369,6831 -23908,11884 -37477,15346 -13521,3416 -27792,5147 -42623,5147z"/>
  <path id="1" class="fil1" d="M1079576 1040134c0,19745 -4866,37758 -14691,54087 -9825,16235 -23300,29148 -40471,38600 -17265,9451 -36307,14176 -57315,14176 -35559,0 -63350,-12820 -83469,-38319 -20072,-25546 -30084,-61011 -30084,-106535 0,-52870 10667,-93903 32096,-123192 21429,-29242 50858,-43840 88382,-43840 38225,0 69947,15019 95306,45103l-38694 43840c-7111,-9217 -15767,-16375 -25873,-21615 -10153,-5147 -20774,-7720 -31816,-7720 -16937,0 -30365,6082 -40330,18247 -9873,12165 -15113,29148 -15440,50998 12071,-16375 30739,-24563 55770,-24563 30412,0 55771,9685 76124,28961 20306,19324 30505,43232 30505,71772zm-145790 34436c9451,9685 20540,14504 33313,14504 12726,0 23768,-4819 33172,-14504 9358,-9638 14037,-21101 14037,-34436 0,-12819 -4586,-23861 -13849,-32938 -9218,-9124 -20400,-13615 -33360,-13615 -13054,0 -24236,4491 -33453,13615 -9311,9077 -13990,20119 -13990,32938 0,13335 4726,24798 14130,34436z"/>
  <path id="2" class="fil1" d="M1248152 1146997c-17171,0 -33313,-3135 -48285,-9451 -14972,-6316 -27651,-14691 -38085,-25218 -10387,-10434 -19417,-22412 -26950,-35886 -7532,-13382 -13100,-27278 -16703,-41595 -3556,-14410 -5380,-28540 -5380,-42576 0,-14692 2012,-29383 6035,-44121 4024,-14785 9872,-28821 17686,-41968 7907,-13288 17124,-24938 27745,-35185 10668,-10246 23207,-18340 37758,-24376 14597,-5989 29944,-9030 46179,-9030 17077,0 33125,3228 48098,9685 14972,6457 27651,14972 38085,25593 10386,10667 19416,22692 26949,36213 7580,13475 13194,27371 16844,41548 3556,14223 5427,28119 5427,41641 0,14831 -2012,29663 -6035,44495 -3931,14878 -9873,28868 -17686,42108 -7861,13195 -17124,24938 -27839,35044 -10667,10153 -23300,18201 -37851,24143 -14551,5942 -29850,8936 -45992,8936zm-64052 -154726c0,11229 1357,22130 3977,32657 2573,10528 6363,20353 11369,29383 5100,9030 11744,16282 20212,21709 8375,5521 17920,8235 28494,8235 10761,0 20446,-2948 28961,-8796 8516,-5895 15253,-13568 20072,-22926 4773,-9404 8422,-19230 10855,-29476 2527,-10293 3743,-20540 3743,-30786 0,-11042 -1357,-21850 -4024,-32518 -2667,-10620 -6503,-20446 -11509,-29429 -5054,-9030 -11791,-16282 -20072,-21803 -8329,-5427 -17639,-8141 -28026,-8141 -10902,0 -20680,2901 -29289,8796 -8609,5848 -15346,13522 -20119,22926 -4819,9311 -8468,19183 -10901,29429 -2433,10340 -3743,20587 -3743,30740z"/>
  <rect class="fil2" x="126366" y="960631" width="237320" height="59350" rx="39566" ry="29675"/>
  <rect class="fil2" x="1607754" y="960631" width="237320" height="59350" rx="39566" ry="29675"/>
 </g>
</svg>
