<?xml version="1.0" encoding="utf-8"?>
<!-- Generator: Adobe Illustrator 18.0.0, SVG Export Plug-In . SVG Version: 6.00 Build 0)  -->
<!DOCTYPE svg PUBLIC "-//W3C//DTD SVG 1.1//EN" "http://www.w3.org/Graphics/SVG/1.1/DTD/svg11.dtd">
<svg version="1.1" id="Layer_1" xmlns="http://www.w3.org/2000/svg" xmlns:xlink="http://www.w3.org/1999/xlink" x="0px" y="0px"
	 width="50px" height="50px" viewBox="0 0 50 50" enable-background="new 0 0 50 50" xml:space="preserve">
<g>
	<path d="M32.0736618,10.3935366c-3.6149292,0-6.924799,1.322835-9.478054,3.5060892
		c-0.0826607,0.0203896-0.1495857,0.0766811-0.1791954,0.1552496c-1.0343914,0.913722-1.9377937,1.9711142-2.6805,3.1410589
		c-0.0009136,0.0006294-0.0013218,0.0016689-0.0022354,0.0022964c-0.0273113,0.019289-0.049778,0.0418816-0.0672092,0.0688152
		c-0.0067329,0.0103207-0.0120831,0.0200748-0.0173054,0.0312767c-0.0095978,0.0205479-0.0157967,0.0412521-0.0197296,0.063591
		c-1.3681126,2.2207298-2.1599388,4.8325424-2.1621723,7.6262875c0,0.0000935-0.0000629,0.0001259-0.0000629,0.0002193
		c0,0.0000629,0.0000305,0.0001259,0.0000305,0.0001888c0,0.0038071-0.0002823,0.0075836-0.0002823,0.0113907
		c0,8.0541191,6.5525951,14.6064644,14.6067162,14.6064644S46.6801224,33.0541191,46.6801224,25
		S40.1277809,10.3935366,32.0736618,10.3935366z M22.8013916,14.402977h1.6676941l-3.6805019,2.1676788
		C21.3815804,15.7787991,22.0583363,15.0539312,22.8013916,14.402977z M35.8383636,18.1641235l4.6240196,6.5674133
		c-0.9780998,0.0061054-2.9715233,0.0095978-5.9651985,0.0103531c0.0003433-0.002203,0.0017624-0.0039654,0.0020752-0.0061989
		l0.9660187-6.8540001L35.8383636,18.1641235z M28.8935528,38.7245827L41.0337296,25.273592
		c0.0353699-0.0065136,0.0715523-0.0104465,0.1029549-0.0324421c0.113842-0.0803299,0.1412506-0.2359581,0.0658569-0.351593
		c-0.0141602-0.0352726-0.0353012-0.0662975-0.0625534-0.0918484l-3.9504089-5.6106777l4.4747162,3.3873692
		c0.0156097,0.0080547,1.5299721,0.8034992,1.6311646,2.046505c0.0659523,0.8186035-0.4943848,1.6744595-1.6875496,2.5610275
		L29.039772,38.7584076C28.9908428,38.7476158,28.9422932,38.7358475,28.8935528,38.7245827z M27.2464676,38.2388535
		l6.5750313-12.9811516c3.2616653-0.0004101,5.4496078-0.0037136,6.5412331-0.009943l-12.0345173,13.33391
		C27.9619274,38.4805374,27.6002331,38.3682404,27.2464676,38.2388535z M23.4855099,36.1600952l9.1435452-9.6892471
		l-5.8645096,11.5783653C25.5831165,37.5667839,24.481987,36.9286995,23.4855099,36.1600952z M19.8738232,17.9621468
		l3.4612503,6.7747402c-1.5080376-0.0013218-3.1105995-0.0028954-4.8073673-0.0047207l-0.5384045-0.0006599
		C18.0357132,22.2699413,18.7156487,19.961895,19.8738232,17.9621468z M23.91432,24.7373905l-3.4351025-6.7235775
		l12.7514229,6.7282333C30.7162132,24.7420788,27.6087284,24.7405052,23.91432,24.7373905z M20.4078217,17.3929386l5.036972-2.9663
		l9.5407944,3.1636515l-0.9832268,6.976244L20.4078217,17.3929386z M27.011076,14.402977h3.8588467l3.0070496,2.2763596
		L27.011076,14.402977z M17.9887352,25.2470341l0.5382156,0.0006618c6.0510368,0.0064812,10.9003162,0.010006,14.5387802,0.0100689
		l-9.9854622,10.5808811C20.0271854,33.3010597,18.062521,29.5006447,17.9887352,25.2470341z M32.0736618,39.0909348
		c-0.8204594,0-1.6233921-0.0744476-2.4058094-0.2096863l12.2683048-11.3026009
		c1.3245659-0.9827251,1.9548798-1.9916306,1.872818-2.9995289c-0.1233444-1.5249348-1.8355637-2.4250965-1.8708038-2.4391918
		l-6.5058708-4.9278183c-0.0005341-0.0004101-0.0010681-0.0007553-0.0016022-0.0011959l-4.3186188-3.2711058
		c-0.0448074-0.034234-0.0991783-0.0523586-0.1555653-0.0523586h-7.5314808
		c2.3894463-1.8637867,5.3904228-2.9783831,8.6486282-2.9783831c7.7696724,0,14.0909348,6.3212605,14.0909348,14.0909348
		S39.8433342,39.0909348,32.0736618,39.0909348z"/>
	<path d="M32.0736618,8.0736599c-7.085146,0-13.1637478,4.3774586-15.6828938,10.568327H8.7890568
		c-0.0561342,0-0.110507,0.0181236-0.1553135,0.0518551l-6.41465,4.8411312
		c-0.2016299,0.0800476-1.072087,0.4666939-1.203738,1.2490482c-0.0088418,0.0524216-0.0089676,0.1056614-0.0107611,0.1587429
		C1.0038702,24.9505672,1,24.9573021,1,24.9652615c0,0.0040283,0.0021082,0.0073948,0.0022969,0.0113907
		c-0.0030206,0.5684528,0.391366,1.1743507,1.1820586,1.8045387c2.413769,1.9241676,14.8116159,13.2964954,14.9500647,13.4223576
		c0.0176201,0.0140991,1.1747894,0.9182854,2.5587616,0.9182854c0.7035637,0,1.4657803-0.2341003,2.1663246-0.9374161
		l0.9786987-0.9786987c0.0065765-0.0065765,0.0090618-0.0151978,0.0147572-0.0222435
		c2.655014,1.731884,5.8211517,2.7428627,9.2206993,2.7428627C41.4070358,41.9263382,49,34.333374,49,25
		S41.4070358,8.0736599,32.0736618,8.0736599z M15.1539602,24.7282658l-0.7152386-0.001133
		c-2.2303581-0.0027695-4.3313932-0.0056648-6.1742554-0.0083065l7.2809229-3.3584213
		C15.3060322,22.4480038,15.1723042,23.5741158,15.1539602,24.7282658z M6.8784809,21.1612282l4.0001259-1.7983074
		l4.1692839,1.6593571l-7.7238607,3.5623798L6.8784809,21.1612282z M12.8214025,25.2406158l3.2464056,9.2122345
		l-8.3633938-9.2193146C9.237154,25.2357693,10.9703598,25.238224,12.8214025,25.2406158z M15.6951323,20.724678
		l-3.9377928-1.5671635h4.4297848C15.9984894,19.6687965,15.8343353,20.1917191,15.6951323,20.724678z M8.8753977,19.1575146
		h1.2027311l-2.9746079,1.3372784L8.8753977,19.1575146z M2.4312954,24.0056953
		c0.0246689-0.0085583,0.048079-0.0211449,0.0689721-0.0367508l3.8460088-2.902647l0.4750633,3.6504192
		c-2.6149583-0.0039005-4.5238662-0.0069847-5.2445168-0.0081806C1.7774771,24.2487335,2.4240584,24.0084019,2.4312954,24.0056953z
		 M1.5554577,25.2240334c0.7186054,0.0011959,2.6981215,0.0044041,5.4141154,0.0084324l6.0377903,10.5044537
		c-3.8528681-3.5069389-9.0244179-8.1811466-10.5018101-9.3584862C1.9819703,25.960762,1.6617161,25.5687981,1.5554577,25.2240334z
		 M14.2557821,36.8743896l-5.729084-9.9673691l7.9831343,8.8000984l1.5831165,4.4923706
		c-0.3639908-0.1856461-0.5986919-0.3676414-0.6234856-0.3871193
		C17.4290924,39.7753372,16.1063213,38.5620651,14.2557821,36.8743896z M21.4945087,39.8204269
		c-0.9238224,0.9272842-1.9683456,0.8891792-2.7632866,0.639061l-1.7519894-4.9715881
		c-0.0000935-0.0002518-0.0001888-0.0004692-0.0002823-0.0007515l-3.6106491-10.2458401
		c0.353199,0.0004406,0.709198,0.0009117,1.069665,0.0013523l0.71527,0.001133
		c0.0804882,5.6473045,2.9385166,10.6321373,7.2685242,13.6493835L21.4945087,39.8204269z M32.0736618,41.4108124
		c-9.049181,0-16.4110641-7.3618851-16.4110641-16.4108124S23.0244808,8.5891886,32.0736618,8.5891886
		c9.0489273,0,16.4108086,7.3618832,16.4108086,16.4108124S41.1225891,41.4108124,32.0736618,41.4108124z"/>
	<path d="M31.8028069,18.9881382c-0.4633274-0.1147232-0.8425789-0.3663826-1.1380386-0.7402229
		c-0.2060661-0.2607212-0.568264,0.1067314-0.3645267,0.3645267c0.1124268,0.1422539,0.2432594,0.2643394,0.3814545,0.3767662
		c-0.0014477,0.000597-0.0028934,0.0007534-0.0043106,0.0013523c-0.3053074,0.1290398-0.0422268,0.5729523,0.2601871,0.4451408
		c0.1829395-0.0773106,0.3309841,0.0693493,0.3651237,0.2295074c-0.8743896,0.1588364-1.7443428-0.4369907-1.8987122-1.32724
		c-0.0567322-0.3271141-0.5534763-0.1880054-0.4971218,0.137064c0.1852684,1.0683727,1.2181492,1.809885,2.2836609,1.742487
		c0.4453278-0.0281925,0.7854366-0.263773,0.6062737-0.7353439C32.0175896,19.4210701,32.0765533,19.0559139,31.8028069,18.9881382z
		"/>
	<path d="M27.1005955,29.4046764c0.3436947-0.3436966,0.6873589-0.6873932,1.0310555-1.0310574
		c0.0927601-0.0927601,0.0904942-0.204525,0.0414715-0.2927837c0.0040588-0.0067024,0.0098171-0.0097561,0.0134983-0.017149
		c0.0859013-0.1718636,0.171833-0.3436966,0.2577648-0.5155277c0.148201-0.2964363-0.2964668-0.5575981-0.4451714-0.2602196
		c-0.0859013,0.1718636-0.171833,0.3436966-0.2577648,0.5155277c-0.0422573,0.0845165-0.0332279,0.1643448,0.0002823,0.2309875
		c-0.3352318,0.3352318-0.6704636,0.6704636-1.0056629,1.0056648C26.500803,29.2753849,26.8653278,29.6399422,27.1005955,29.4046764
		z"/>
	<path d="M26.2309551,15.912117c-0.3325558-0.0133095-0.3312988,0.5022812,0,0.5155277
		c0.2708225,0.0108242,0.5116901,0.1367798,0.6670971,0.3608761c0.1880379,0.2711067,0.6351585,0.0137501,0.4451408-0.2601871
		C27.0802994,16.1492405,26.6935272,15.9305878,26.2309551,15.912117z"/>
	<path d="M24.8471413,32.0239754c0.5722599-0.7108631,1.1445198-1.4217281,1.7167797-2.1326256
		c0.2063198-0.2563171-0.1560364-0.6235485-0.3645573-0.3645248c-0.5722275,0.7108955-1.1444874,1.4217606-1.7167492,2.1326256
		C24.2762661,31.9157982,24.6386528,32.2830009,24.8471413,32.0239754z"/>
	<path d="M24.6006413,31.1673965c0.3577614-0.7922344,0.5849724-1.6082897,0.6905079-2.4711323
		c0.0402756-0.3294735-0.4757252-0.3256035-0.5155277,0c-0.0937042,0.7661495-0.3025093,1.5075989-0.6201191,2.2109451
		C24.0198231,31.2076397,24.4639874,31.4699974,24.6006413,31.1673965z"/>
</g>
</svg>
