<?xml version="1.0" encoding="utf-8"?>
<!-- Generator: Adobe Illustrator 18.0.0, SVG Export Plug-In . SVG Version: 6.00 Build 0)  -->
<!DOCTYPE svg PUBLIC "-//W3C//DTD SVG 1.1//EN" "http://www.w3.org/Graphics/SVG/1.1/DTD/svg11.dtd">
<svg version="1.1" id="Layer_1" xmlns="http://www.w3.org/2000/svg" xmlns:xlink="http://www.w3.org/1999/xlink" x="0px" y="0px"
	 width="50px" height="50px" viewBox="0 0 50 50" enable-background="new 0 0 50 50" xml:space="preserve">
<g>
	<path d="M32.0736618,10.3935366c-3.6148968,0-6.924799,1.3228035-9.478117,3.5060263
		c-0.0827866,0.0203896-0.149807,0.0767441-0.1794147,0.1554699c-1.0342979,0.9136276-1.9375744,1.9708939-2.6802502,3.1406822
		c-0.0009441,0.0006294-0.0013523,0.0016994-0.0022659,0.002327c-0.0275955,0.0194149-0.0501862,0.0422268-0.0677757,0.0693817
		c-0.0065441,0.0100384-0.011673,0.0194778-0.0167713,0.0303326c-0.0097847,0.0208626-0.0161419,0.0418816-0.0201054,0.0645981
		C18.2590218,19.5861359,17.4666939,22.2019444,17.4666939,25c0,8.0541191,6.5528469,14.6064644,14.6069679,14.6064644
		S46.6801224,33.0541191,46.6801224,25S40.1277809,10.3935366,32.0736618,10.3935366z M22.8012028,14.402977h1.66782
		l-3.6806583,2.1677094C21.3813915,15.7788305,22.0581169,15.0539627,22.8012028,14.402977z M35.8383636,18.1641235
		l4.6235466,6.5674133c-0.9780693,0.0061054-2.9713669,0.0095978-5.9647255,0.0103531
		c0.0003433-0.002203,0.0017624-0.0039654,0.0020752-0.0061989l0.9660187-6.8540001L35.8383636,18.1641235z M28.8935204,38.724617
		l12.1403999-13.4512463c0.0350838-0.0065765,0.0710793-0.0103836,0.1022606-0.0322208
		c0.113842-0.0803299,0.1412506-0.2359581,0.0658569-0.351593c-0.0141602-0.0352726-0.0353012-0.066267-0.0625534-0.0918159
		l-3.9500961-5.6108685l4.4749069,3.3875275c0.0156097,0.0080547,1.5299721,0.8034992,1.6311646,2.046505
		c0.0659523,0.8186035-0.4943848,1.6744595-1.6875496,2.5610275L29.0397415,38.7584419
		C28.9908123,38.7476463,28.9422607,38.7359123,28.8935204,38.724617z M27.2464676,38.238884l6.5750313-12.9811821
		c3.2619171-0.0004101,5.4498253-0.0037136,6.5412331-0.009943L28.3281841,38.5816994
		C27.961895,38.4805717,27.6002331,38.3682709,27.2464676,38.238884z M23.4851322,36.1599693l9.1440182-9.6892471
		l-5.8646049,11.5785522C25.5829582,37.5667839,24.4817028,36.9286385,23.4851322,36.1599693z M19.8736038,17.9621468
		l3.4614697,6.7747402c-1.5081329-0.0013218-3.1107578-0.0028954-4.8076191-0.0047207l-0.5384045-0.0006599
		C18.0354614,22.2699413,18.7154274,19.961895,19.8736038,17.9621468z M23.91432,24.7373905l-3.4352913-6.7235451
		l12.7511082,6.7282009C30.7158051,24.7420788,27.6084461,24.7405052,23.91432,24.7373905z M20.4078217,17.3929386l5.036972-2.9663
		l9.5407944,3.1636515l-0.9832268,6.9767475L20.4078217,17.3929386z M27.011076,14.402977h3.8588467l3.0070496,2.2763596
		L27.011076,14.402977z M17.9884834,25.2470341l0.5379639,0.0006618c6.0512886,0.0064812,10.9007263,0.010006,14.5392838,0.0100689
		l-9.9855576,10.5809765C20.0269661,33.3011551,18.0622692,29.5006771,17.9884834,25.2470341z M32.0736618,39.0909348
		c-0.8204594,0-1.6233921-0.0744781-2.4058094-0.2096863l12.2683048-11.3026009
		c1.3245659-0.9827251,1.9548798-1.9916306,1.872818-2.9995289c-0.1233444-1.5249348-1.8355637-2.4250965-1.8708038-2.4391918
		l-6.5058708-4.9278183c-0.0005341-0.0004101-0.0010681-0.0007553-0.0016022-0.0011959l-4.3186188-3.2711058
		c-0.0448074-0.034234-0.0991783-0.0523586-0.1555653-0.0523586h-7.5317001
		c2.3894768-1.8637867,5.3905163-2.9783831,8.6488476-2.9783831c7.7696724,0,14.0909348,6.3212605,14.0909348,14.0909348
		S39.8433342,39.0909348,32.0736618,39.0909348z"/>
	<path d="M32.0736618,8.0736599c-7.085146,0-13.1639366,4.3774586-15.6831131,10.568327H8.788805
		c-0.0558825,0-0.1107588,0.0181236-0.1550617,0.0518551l-6.4149017,4.8411312
		c-0.2013783,0.0800476-1.0723389,0.4666939-1.2037382,1.2490482c-0.0088732,0.0528946-0.0090934,0.1066055-0.0108241,0.1601906
		C1.00365,24.9515114,1,24.9578056,1,24.9652615c0,0.0037766,0.0019823,0.0069237,0.0021397,0.0106354
		c-0.003241,0.5686741,0.3909254,1.1748219,1.181964,1.805294c2.4135177,1.9241676,14.8118677,13.2964954,14.9503164,13.4223576
		c0.0171165,0.0140991,1.1745377,0.9182854,2.5585098,0.9182854c0.7033119,0,1.466032-0.2341003,2.1663246-0.9374161
		l0.9786987-0.9786987c0.0065765-0.0065765,0.0090942-0.0152283,0.0148201-0.0223083
		c2.6550446,1.7319145,5.8212776,2.7429276,9.2208881,2.7429276C41.4070358,41.9263382,49,34.333374,49,25
		S41.4070358,8.0736599,32.0736618,8.0736599z M15.1537085,24.7282333l-0.7152386-0.0011005
		c-2.2304211-0.0027695-4.3315821-0.0056648-6.1744757-0.0083065l7.2811747-3.3584538
		C15.3058119,22.4479713,15.1720524,23.5740852,15.1537085,24.7282333z M6.8782291,21.1612282l4.0003777-1.7983074
		l4.1690321,1.6593571l-7.7238607,3.5623798L6.8782291,21.1612282z M12.8211508,25.2406158l3.2464056,9.2122345
		l-8.3633938-9.2193146C9.2369337,25.2357693,10.9701395,25.238224,12.8211508,25.2406158z M15.694912,20.724678
		l-3.9378242-1.5671635h4.4298172C15.9982691,19.6687965,15.8341465,20.1917191,15.694912,20.724678z M8.8753977,19.1575146
		h1.2026997l-2.9746079,1.337183L8.8753977,19.1575146z M2.4312954,24.0056953
		c0.0241654-0.0085583,0.0478272-0.0211449,0.0684686-0.0367508l3.8460088-2.9024277l0.4750638,3.6501999
		c-2.6150846-0.0039005-4.5239925-0.0069847-5.2443285-0.0081806C1.7769736,24.2487335,2.4236178,24.0084019,2.4312954,24.0056953z
		 M1.5550801,25.2240334c0.7182595,0.0011959,2.6979642,0.0044041,5.4142413,0.0084324l6.0377588,10.5044193
		C9.1541491,32.22995,3.9825368,27.5557728,2.505302,26.3784332C1.9817187,25.960762,1.6613386,25.5687981,1.5550801,25.2240334z
		 M14.2554674,36.8742638l-5.7290211-9.9672432l7.9831343,8.8000984l1.5829582,4.4919319
		c-0.3639584-0.1855507-0.5986271-0.3673592-0.6233273-0.3866806C17.428936,39.7753372,16.106102,38.5620041,14.2554674,36.8742638z
		 M21.494257,39.8204269c-0.9234753,0.9271889-1.9683132,0.8887711-2.7634735,0.6385574l-1.7518654-4.9712105
		c-0.0000629-0.0001564-0.0000935-0.0003433-0.0001564-0.0004997l-3.6107121-10.245966
		c0.3531361,0.0004406,0.7090406,0.0009117,1.0694132,0.0013523l0.7155218,0.001133
		c0.0804882,5.6472416,2.9385796,10.6320763,7.2685871,13.6493187L21.494257,39.8204269z M32.0736618,41.4108124
		c-9.0494328,0-16.4113159-7.3618851-16.4113159-16.4108124c0-0.0040588,0.0003138-0.0080547,0.0003138-0.0121136
		c0-0.0003471,0.0001888-0.0006294,0.0001888-0.0009766c0-0.0002823-0.0001574-0.0004711-0.0001574-0.0007553
		c0.0075521-9.0425091,7.3661938-16.396965,16.4109707-16.396965c9.0489273,0,16.4108086,7.3618832,16.4108086,16.4108124
		S41.1225891,41.4108124,32.0736618,41.4108124z"/>
	<path d="M31.802618,18.9881382c-0.4633274-0.1147232-0.8425789-0.3663826-1.1380386-0.7402229
		c-0.2060661-0.2607212-0.568264,0.1067314-0.3645267,0.3645267c0.1124268,0.1422539,0.2432594,0.2643394,0.3814545,0.3767662
		c-0.0014458,0.000597-0.0028934,0.0007534-0.0043106,0.0013523c-0.3053074,0.1290398-0.0422268,0.5729523,0.2601871,0.4451408
		c0.1829395-0.0773106,0.3309841,0.0693493,0.3651237,0.2295074c-0.8743896,0.1588364-1.7443428-0.4369907-1.8987122-1.32724
		c-0.0567322-0.3271141-0.5534763-0.1880054-0.4971218,0.137064c0.1852684,1.0683727,1.2181492,1.809885,2.2836609,1.742487
		c0.4453278-0.0281925,0.7854366-0.263773,0.6062737-0.7353439C32.0173988,19.4210701,32.0763664,19.0559139,31.802618,18.9881382z"
		/>
	<path d="M27.1004066,29.4046764c0.3436947-0.3436966,0.6873589-0.6873932,1.0310555-1.0310574
		c0.0927601-0.0927601,0.0904942-0.204525,0.0414715-0.2927837c0.0040588-0.0067024,0.0098171-0.0097561,0.0134983-0.017149
		c0.0859013-0.1718636,0.171833-0.3436966,0.2577648-0.5155277c0.148201-0.2964363-0.2964668-0.5575981-0.4451714-0.2602196
		c-0.0859013,0.1718636-0.171833,0.3436966-0.2577648,0.5155277c-0.0422573,0.0845165-0.0332279,0.1643448,0.0002823,0.2309875
		c-0.3352318,0.3352318-0.6704636,0.6704636-1.0056629,1.0056648C26.5006142,29.2753849,26.865139,29.6399422,27.1004066,29.4046764
		z"/>
	<path d="M26.2307663,15.912117c-0.3325558-0.0133095-0.3312988,0.5022812,0,0.5155277
		c0.2708225,0.0108242,0.5116901,0.1367798,0.6670971,0.3608761c0.1880379,0.2711067,0.6351585,0.0137501,0.4451408-0.2601871
		C27.0801105,16.1492405,26.6933384,15.9305878,26.2307663,15.912117z"/>
	<path d="M24.8469524,32.0239754c0.5722599-0.7108631,1.1445198-1.4217281,1.7167797-2.1326256
		c0.2063198-0.2563171-0.1560364-0.6235485-0.3645573-0.3645248c-0.5722275,0.7108955-1.1444874,1.4217606-1.7167492,2.1326256
		C24.2760773,31.9157982,24.638464,32.2830009,24.8469524,32.0239754z"/>
	<path d="M24.6004524,31.1673965c0.3577614-0.7922344,0.5849724-1.6082897,0.6905079-2.4711323
		c0.0402756-0.3294735-0.4757252-0.3256035-0.5155277,0c-0.0937042,0.7661495-0.3025093,1.5075989-0.6201191,2.2109451
		C24.0196342,31.2076397,24.4637985,31.4699974,24.6004524,31.1673965z"/>
	<path d="M34.3446083,20.373148c-0.020359-0.2071686-0.2335358-0.2837543-0.3797226-0.2290993
		c-0.0106659-0.0348015-0.0213661-0.0695705-0.032032-0.1043701c-0.0743523-0.2422218-0.3808556-0.2190628-0.4782753-0.0528946
		c-0.0578651-0.1867771-0.2808571-0.2409916-0.4104309-0.1596546c-0.1219292-0.1592464-0.4517174-0.1089649-0.4682045,0.1552811
		c-0.0448723,0.7192669,0.5851898,1.4521255,0.3138657,2.1410599c-0.1219597,0.3096809,0.3767662,0.4426537,0.4971199,0.1370316
		c0.1066055-0.2706642,0.0967255-0.5290279,0.0445862-0.7837067c0.1177444-0.0102901,0.2191582-0.0880089,0.1987991-0.2407417
		c-0.0333519-0.2505589-0.0667381-0.5010853-0.1001244-0.7516441c0.0216484,0.0705452,0.0433311,0.1410904,0.0649757,0.2116661
		c0.0389557,0.1269321,0.1420364,0.1787243,0.2454948,0.1778107c-0.0076141,0.2119827-0.0296097,0.4230843-0.0774384,0.6342163
		c-0.0733109,0.3237152,0.4237137,0.4612198,0.4971237,0.1370316C34.3554001,21.2252598,34.3868027,20.8018951,34.3446083,20.373148
		z"/>
	<path d="M33.5771065,22.0909348c0,0.1232815,0,0.2465935,0,0.3699074c-0.0168991,0.0338249-0.0338249,0.0676174-0.050724,0.1014442
		c-0.0436745,0.087347-0.0324097,0.1695347,0.0041237,0.2373428c-0.1039925,0.0247002-0.1969719,0.1016636-0.2071686,0.2365551
		c-0.0110741,0.1462841-0.0621758,0.262989-0.1434174,0.3832493c-0.186718,0.2763271,0.2601547,0.5339661,0.445137,0.2601871
		c0.1333199-0.1973209,0.1959381-0.4072876,0.21381-0.6434364c0.0026436-0.034832-0.0035896-0.0638733-0.011673-0.0913429
		c0.0566978-0.0146942,0.1090889-0.0518551,0.1443291-0.1223698c0.0014153-0.0028,0.0028-0.0056305,0.0042152-0.0084324
		c0.0666771-0.0395508,0.1168938-0.106163,0.1168938-0.2075768c0-0.1718636,0-0.3436947,0-0.5155277
		C34.0926323,21.7584724,33.5771065,21.7584724,33.5771065,22.0909348z"/>
	<path d="M32.642395,21.9945889c-0.0033035-0.0033054-0.0070801-0.0038395-0.0104141-0.0068913c0-0.080143,0-0.1603165,0-0.2404594
		c0-0.1091843-0.0576439-0.1788483-0.1323128-0.2163239c-0.0410614-0.1146908-0.1070747-0.2195644-0.2012177-0.3093033
		c-0.24049-0.2292576-0.6055527,0.1347656-0.3645267,0.3645248c0.0795116,0.0758324,0.1018848,0.1380386,0.0969105,0.2470665
		c-0.0041199,0.0901489,0.0322533,0.1535511,0.0856209,0.1946754c0,0.192852,0,0.3857021,0,0.5785847
		c0,0.2004662,0,0.4009628,0,0.601429c0,0.3324623,0.5155258,0.3324623,0.5155258,0c0-0.2004662,0-0.4009628,0-0.601429
		c0-0.035965,0-0.0718975,0-0.1078625c0.1505623-0.0646305,0.2474442-0.2670155,0.0963478-0.4181118
		C32.6996956,22.0518551,32.6710625,22.023222,32.642395,21.9945889z"/>
</g>
</svg>
