<?xml version="1.0" encoding="UTF-8" standalone="no"?>
<svg width="44px" height="44px" viewBox="0 0 44 44" version="1.1" xmlns="http://www.w3.org/2000/svg" xmlns:xlink="http://www.w3.org/1999/xlink">
    <!-- Generator: Sketch 3.7.2 (28276) - http://www.bohemiancoding.com/sketch -->
    <title>use-user</title>
    <desc>Created with Sketch.</desc>
    <defs></defs>
    <g id="44px-Line" stroke="none" stroke-width="1" fill="none" fill-rule="evenodd">
        <g id="use-user"></g>
        <path d="M1,44 C1.552,44 2,43.553 2,43 C2,32.523 10.523,24 21,24 C31.477,24 40,32.523 40,43 C40,43.553 40.448,44 41,44 C41.552,44 42,43.553 42,43 C42,33.224 35.275,25.01 26.215,22.682 C29.656,20.821 32,17.179 32,13 C32,6.935 27.065,2 21,2 C14.935,2 10,6.935 10,13 C10,17.179 12.344,20.821 15.785,22.682 C6.725,25.01 0,33.224 0,43 C0,43.553 0.448,44 1,44 L1,44 Z M12,13 C12,8.037 16.038,4 21,4 C25.962,4 30,8.037 30,13 C30,17.963 25.962,22 21,22 C16.038,22 12,17.963 12,13 L12,13 Z" id="Shape" fill="#000000"></path>
    </g>
</svg>