<?xml version="1.0" encoding="UTF-8" standalone="no"?>
<svg width="44px" height="44px" viewBox="0 0 44 44" version="1.1" xmlns="http://www.w3.org/2000/svg" xmlns:xlink="http://www.w3.org/1999/xlink">
    <!-- Generator: Sketch 3.7.2 (28276) - http://www.bohemiancoding.com/sketch -->
    <title>sho-bag-2</title>
    <desc>Created with Sketch.</desc>
    <defs></defs>
    <g id="44px-Line" stroke="none" stroke-width="1" fill="none" fill-rule="evenodd">
        <g id="sho-bag-2"></g>
        <path d="M1,44 L43,44 C43.29,44 43.565,43.874 43.755,43.655 C43.945,43.436 44.03,43.145 43.989,42.858 L39.989,14.858 C39.919,14.366 39.498,14 39,14 L32,14 L32,10 C32,4.486 27.514,0 22,0 C16.486,0 12,4.486 12,10 L12,14 L5,14 C4.502,14 4.081,14.366 4.01,14.858 L0.01,42.858 C-0.031,43.145 0.054,43.436 0.244,43.655 C0.435,43.874 0.71,44 1,44 L1,44 Z M14,10 C14,5.589 17.589,2 22,2 C26.411,2 30,5.589 30,10 L30,14 L14,14 L14,10 L14,10 Z M5.867,16 L12,16 L12,18.184 C10.839,18.598 10,19.698 10,21 C10,22.654 11.346,24 13,24 C14.654,24 16,22.654 16,21 C16,19.698 15.161,18.598 14,18.184 L14,16 L30,16 L30,18.184 C28.839,18.598 28,19.698 28,21 C28,22.654 29.346,24 31,24 C32.654,24 34,22.654 34,21 C34,19.698 33.161,18.598 32,18.184 L32,16 L38.133,16 L41.847,42 L2.153,42 L5.867,16 L5.867,16 Z M13,20 C13.551,20 14,20.449 14,21 C14,21.551 13.551,22 13,22 C12.449,22 12,21.551 12,21 C12,20.449 12.449,20 13,20 L13,20 Z M31,20 C31.551,20 32,20.449 32,21 C32,21.551 31.551,22 31,22 C30.449,22 30,21.551 30,21 C30,20.449 30.449,20 31,20 L31,20 Z" id="Shape" fill="#000000"></path>
    </g>
</svg>