<?xml version="1.0" encoding="UTF-8" standalone="no"?>
<svg width="44px" height="44px" viewBox="0 0 44 44" version="1.1" xmlns="http://www.w3.org/2000/svg" xmlns:xlink="http://www.w3.org/1999/xlink">
    <!-- Generator: Sketch 3.7.2 (28276) - http://www.bohemiancoding.com/sketch -->
    <title>gen-filter</title>
    <desc>Created with Sketch.</desc>
    <defs></defs>
    <g id="44px-Line" stroke="none" stroke-width="1" fill="none" fill-rule="evenodd">
        <g id="gen-filter"></g>
        <path d="M18.293,37.707 L24.293,43.707 C24.484,43.898 24.74,44 25,44 C25.129,44 25.259,43.976 25.383,43.924 C25.757,43.77 26,43.404 26,43 L26,19.414 L43.707,1.707 C43.993,1.421 44.079,0.991 43.924,0.617 C43.769,0.243 43.404,0 43,0 L1,0 C0.596,0 0.231,0.243 0.076,0.617 C-0.079,0.991 0.007,1.421 0.293,1.707 L18,19.414 L18,37 C18,37.266 18.105,37.52 18.293,37.707 L18.293,37.707 Z M3.414,2 L40.586,2 L24.293,18.293 C24.105,18.48 24,18.734 24,19 L24,40.586 L20,36.586 L20,19 C20,18.734 19.895,18.48 19.707,18.293 L3.414,2 L3.414,2 Z" id="Shape" fill="#000000"></path>
    </g>
</svg>