<?xml version="1.0" encoding="UTF-8"?>
<!DOCTYPE svg PUBLIC "-//W3C//DTD SVG 1.1//EN" "http://www.w3.org/Graphics/SVG/1.1/DTD/svg11.dtd">
<!-- Creator: CorelDRAW X7 -->
<svg xmlns="http://www.w3.org/2000/svg" xml:space="preserve" width="20px" height="20px" version="1.1" style="shape-rendering:geometricPrecision; text-rendering:geometricPrecision; image-rendering:optimizeQuality; fill-rule:evenodd; clip-rule:evenodd"
viewBox="0 0 42352 42350"
 xmlns:xlink="http://www.w3.org/1999/xlink">
 <defs>
  <style type="text/css">
   <![CDATA[
    .fil0 {fill:none}
    .fil1 {fill:black}
   ]]>
  </style>
 </defs>
 <g id="Layer_x0020_1">
  <metadata id="CorelCorpID_0Corel-Layer"/>
  <rect class="fil0" x="1" y="-1" width="42350" height="42350"/>
  <path class="fil1" d="M24177 36380c266,3209 2271,4817 5990,4817l0 1153 -17982 0 0 -1153c3722,0 5722,-1608 5990,-4817 -5490,0 -9892,-1473 -13195,-4434 -3294,-2954 -4945,-6546 -4945,-10767 0,-4520 1673,-8134 5030,-10820 3346,-2696 7718,-4166 13110,-4392 -243,-3206 -2248,-4807 -5990,-4807l0 -1160 17982 0 0 1160c-3721,0 -5724,1601 -5990,4807 5948,183 10467,1751 13536,4702 3071,2942 4604,6448 4604,10510 0,4221 -1640,7813 -4934,10767 -3294,2961 -7696,4434 -13206,4434l0 0zm-6002 -28694c-3559,212 -6353,1320 -8366,3324 -2016,2015 -3029,5574 -3029,10691 0,8209 3794,12526 11395,12961l0 -26976zm6002 0l0 26976c3432,-138 6193,-1203 8281,-3187 2101,-1970 3144,-5574 3144,-10797 0,-8228 -3804,-12557 -11425,-12992z"/>
 </g>
</svg>
