<?xml version="1.0" encoding="UTF-8"?>
<!DOCTYPE svg PUBLIC "-//W3C//DTD SVG 1.1//EN" "http://www.w3.org/Graphics/SVG/1.1/DTD/svg11.dtd">
<!-- Creator: CorelDRAW X7 -->
<svg xmlns="http://www.w3.org/2000/svg" xml:space="preserve" width="20px" height="20px" version="1.1" style="shape-rendering:geometricPrecision; text-rendering:geometricPrecision; image-rendering:optimizeQuality; fill-rule:evenodd; clip-rule:evenodd"
viewBox="0 0 19364 19362"
 xmlns:xlink="http://www.w3.org/1999/xlink">
 <defs>
  <style type="text/css">
   <![CDATA[
    .fil0 {fill:none}
    .fil1 {fill:black}
   ]]>
  </style>
 </defs>
 <g id="Layer_x0020_1">
  <metadata id="CorelCorpID_0Corel-Layer"/>
  <polygon class="fil0" points="0,19362 19364,19362 19364,0 0,0 "/>
  <path class="fil1" d="M10986 16632c121,1467 1084,2203 2784,2203l0 527 -8222 0 0 -527c1702,0 2662,-735 2785,-2203 -2510,0 -4063,-672 -5573,-2026 -1507,-1352 -2261,-2994 -2261,-4923 0,-2067 765,-3720 2299,-4947 1530,-1233 3069,-1905 5535,-2009 -111,-1466 -1074,-2198 -2785,-2198l0 -529 8222 0 -62 529c-1701,0 -2601,732 -2722,2198 2719,85 4372,802 5775,2150 1405,1346 2106,2948 2106,4806 0,1929 -751,3571 -2256,4923 -1506,1354 -3106,2026 -5625,2026l0 0zm-2653 -13118c-1628,97 -2445,603 -3366,1520 -921,920 -1384,2547 -1384,4887 0,3753 1275,5728 4750,5926l0 -12333 0 0zm2653 0l0 12333c1569,-63 2418,-550 3373,-1457 960,-900 1437,-2548 1437,-4937 0,-3761 -1326,-5740 -4810,-5939z"/>
 </g>
</svg>
