<?xml version="1.0" encoding="utf-8"?>
<!-- Generator: Adobe Illustrator 18.0.0, SVG Export Plug-In . SVG Version: 6.00 Build 0)  -->
<!DOCTYPE svg PUBLIC "-//W3C//DTD SVG 1.1//EN" "http://www.w3.org/Graphics/SVG/1.1/DTD/svg11.dtd">
<svg version="1.1" id="Layer_1" xmlns="http://www.w3.org/2000/svg" xmlns:xlink="http://www.w3.org/1999/xlink" x="0px" y="0px"
	 width="50px" height="50px" viewBox="0 0 50 50" enable-background="new 0 0 50 50" xml:space="preserve">
<g>
	<rect x="0.875" y="31.8789063" fill="#59C4C3" width="8.9172363" height="3"/>
	<rect x="38.8601074" y="31.8789063" fill="#59C4C3" width="10.2648926" height="3"/>
	<path d="M36.0407715,13.2890625c-0.5175781-1.25-1.2226563-2.4072266-2.8642578-2.4072266
		c-0.1213989,0-0.2373047,0.0202637-0.3544922,0.0358887l-0.2011719-4.1716309c0-1.4853516-1.2089844-2.6933594-2.6943359-2.6933594
		c-0.9296875,0-1.7504272,0.4735107-2.234375,1.1980591v-1.539856c0-1.4853516-1.2089844-2.6933594-2.6943359-2.6933594
		c-1.3717041,0-2.4941406,1.0340576-2.65979,2.3615112c-0.1607666-0.0300293-0.3251953-0.0499878-0.4945068-0.0499878
		c-1.671875,0-2.3242188,1.4511719-2.6855469,2.6035156L17.166748,16.8925781
		c-0.0527344,0.2929688-0.125,0.8291016-0.1875,1.3007813c-0.0255127,0.1887817-0.0482178,0.3555298-0.0687256,0.5026245
		c-1.15271,0.963562-2.659729,2.5194702-4.6602783,4.8108521L12.1193848,23.65625
		c-2.2407227,2.5644531-2.3496094,6.6054688-2.4453125,10.1699219l-0.0063477,0.2246094
		c-0.1044922,3.8574219,1.3505859,7.5361328,4.0986328,10.359375c2.8271484,2.9052734,6.7714844,4.5722656,10.8193359,4.5722656
		c8.2255859,0,14.9179688-6.6923828,14.9169922-14.8916016C40.0153809,24.4550781,36.088623,13.421875,36.0407715,13.2890625z
		 M29.9265137,5.0527344c0.9345703,0,1.6943359,0.7597656,1.6953125,1.7177734l0.2080078,4.3173828
		c0.0024414,0.0530396,0.0178223,0.1020508,0.0336304,0.1504517c-0.819397,0.4626465-1.3803101,1.331604-1.3803101,2.3378296
		c0,0.0449219,0.0058594,0.0898438,0.0185547,0.1337891l2.0957031,7.5621948v5.0803833
		c-1.1171875-0.3916016-2.2587891-0.7216797-3.4072266-0.9853516L28.2331543,6.7460938
		C28.2331543,5.8125,28.9929199,5.0527344,29.9265137,5.0527344z M34.1130371,26.7412109
		c-0.0029297,0.0224609-0.0097656,0.0449219-0.0175781,0.0625c-0.0097656,0.0205078-0.0195313,0.0429688-0.0273438,0.0654297
		c-0.0712891,0.1376953-0.2275391,0.1601563-0.328125,0.1201172c-0.0471802-0.0197144-0.0953369-0.0360107-0.1425781-0.055481
		v-2.0531616L34.1130371,26.7412109z M28.1849365,25.2781372c-0.1637573-0.0336304-0.3283691-0.0631714-0.4927979-0.0940552
		v-9.4981689L28.1849365,25.2781372z M20.8337402,24.5224609c-0.3146973,0.0253296-0.5846558,0.0700073-0.8461914,0.119751
		l0.9342041-0.9555664L20.8337402,24.5224609z M22.0480957,22.5344849l0.1496582-0.1530762l0.0921021,2.2787476
		c-0.0789795-0.0006104-0.1572876-0.0057983-0.2363892-0.0058594c-0.0039063,0-0.0097656,0-0.0136719,0h-0.2141724
		L22.0480957,22.5344849z M23.3044434,3.7109375c0-0.9335938,0.7597656-1.6933594,1.6933594-1.6933594
		c0.9345703,0,1.6943359,0.7597656,1.6943359,1.6933594v21.1132813c-1.1210938-0.1630859-2.2626953-0.2666016-3.4072266-0.3095703
		l-0.1262817-3.1422729c0.0532837-0.0809937,0.0901489-0.1713867,0.0901489-0.2698364
		c0-0.5709839-0.262207-1.1541748-0.6709595-1.6820679c0.0166626-0.0390625,0.034668-0.0776367,0.0410767-0.1216431
		l1.9189453-13.2763672c0-0.9463501-0.493103-1.7763062-1.2333984-2.2568359V3.7109375z M18.151123,17.0712891L20.126709,6.1738281
		c0.4150391-1.3105469,0.9121094-1.8447266,1.7167969-1.8447266c0.9345703,0,1.6943359,0.7597656,1.6992188,1.6220703
		l-1.8270264,12.6047974c-0.8005371-0.6379395-1.7788696-1.0686646-2.5948486-1.0686646
		c-0.2949219,0-0.6566162,0.1293945-1.0892944,0.3847046C18.0742798,17.5591431,18.1169434,17.2607422,18.151123,17.0712891z
		 M17.6556396,19.3585815c0.0162964-0.0109863,0.0296021-0.0241699,0.0445557-0.0369263
		c0.8091431-0.6680298,1.2189331-0.8343506,1.4206543-0.8343506c0.3560181,0,0.7877197,0.149292,1.2155151,0.3757324
		c-0.3270874,0.3341064-1.1260986,1.1281738-1.7106323,1.7062988c-0.8798828-0.0830078-1.03125-0.9199219-1.0458984-1.0205078
		c-0.005188-0.0361938-0.0213013-0.0665894-0.0352173-0.0981445C17.5837402,19.4173584,17.6182861,19.3897705,17.6556396,19.3585815
		z M38.5036621,34.0644531c0,7.6748047-6.2431641,13.9179688-13.9179688,13.9179688
		c-3.7802734,0-7.4619141-1.5566406-10.1035156-4.2695313c-2.5571289-2.6279297-3.9121094-6.0498047-3.8144531-9.6347656
		l0.0058594-0.2246094c0.0961914-3.5625,0.1953125-7.2460938,2.1987305-9.5390625l0.1313477-0.1503906
		c1.7241821-1.9743652,2.9720459-3.2694702,3.8838501-4.1223755c0.2111816,0.5969849,0.7574463,1.3342896,1.8807983,1.3342896
		c0.1152344,0,0.2177734-0.0390625,0.2958984-0.1152344c1.2175903-1.2020264,1.7299805-1.7092285,1.9544067-1.9685669
		c0.6147461,0.4693604,1.1165771,1.0750732,1.213562,1.6238403l-6.7246094,6.8769531
		c-0.0917969,0.09375-0.1425781,0.21875-0.1425781,0.3496094c0,0.1552734,0.03125,0.3125,0.0927734,0.4628906
		c0.0068359,0.0185547,0.0615234,0.1171875,0.0712891,0.1347656c0.0439453,0.0810547,0.0957031,0.1679688,0.1660156,0.2431641
		c0.0380859,0.0419922,0.078125,0.078125,0.1347656,0.1220703c0.0810547,0.0673828,0.1572266,0.1171875,0.234375,0.1552734
		c0.0566406,0.0283203,0.1132813,0.0507813,0.1240234,0.0546875c0.0341797,0.0234375,0.0693359,0.046875,0.1074219,0.0673828
		c3.234375,2.5429688,4.3271484,6.1591797,2.9990234,9.9316406c-0.0917969,0.2607422,0.0449219,0.5458984,0.3056641,0.6376953
		c0.2597656,0.09375,0.546875-0.0449219,0.6376953-0.3056641c1.4853516-4.2197266,0.2578125-8.2597656-3.3691406-11.0849609
		c-0.0615234-0.0478516-0.0498047-0.0625-0.1269531-0.078125c-0.0390625-0.0263672-0.1855469-0.1025391-0.2304688-0.1171875
		c-0.0009766,0-0.0546875-0.0537109-0.0849609-0.0830078l2.3410645-2.3936157
		c0.0765381-0.0114746,0.1499634-0.0233765,0.2217407-0.0355835c1.4074097-0.1983032,1.5739136-0.199707,2.713562-0.199707
		h0.2998047c0.0292969,0.0019531,0.0585938,0.0019531,0.0878906,0c3.9023438,0.0068359,7.6923828,0.7666016,11.2685547,2.2587891
		c0.6259766,0.2548828,1.3818359-0.0546875,1.6445313-0.6865234c0.0048828-0.0107422,0.0087891-0.0224609,0.0126953-0.0351563
		c0.0664063-0.1582031,0.0996094-0.3222656,0.0996094-0.5087891c0-0.0449219-0.0058594-0.0898438-0.0185547-0.1337891
		l-3.6132813-13.0361328c0.0341797-0.9052734,0.7802734-1.6308594,1.6923828-1.6308594
		c0.8857422,0,1.3935547,0.46875,1.9316406,1.7675781C35.1472168,13.7578125,39.0056152,24.6015625,38.5036621,34.0644531z"/>
</g>
</svg>
