<?xml version="1.0" encoding="utf-8"?>
<!-- Generator: Adobe Illustrator 18.0.0, SVG Export Plug-In . SVG Version: 6.00 Build 0)  -->
<!DOCTYPE svg PUBLIC "-//W3C//DTD SVG 1.1//EN" "http://www.w3.org/Graphics/SVG/1.1/DTD/svg11.dtd">
<svg version="1.1" id="Layer_1" xmlns="http://www.w3.org/2000/svg" xmlns:xlink="http://www.w3.org/1999/xlink" x="0px" y="0px"
	 width="50px" height="50px" viewBox="0 0 50 50" enable-background="new 0 0 50 50" xml:space="preserve">
<g>
	<g>
		<rect x="2.5" y="21.6233692" fill="#5AC4C2" width="45" height="1.4338126"/>
	</g>
	<path d="M42.5567093,33.3872414l-0.0002518-7.2314625c0-0.1555099-0.1264763-0.2819881-0.2817345-0.2817364L8.0643072,25.8737888
		c-0.1555095,0-0.2817354,0.1262264-0.2817349,0.2817345v7.2312107c0.0000005,0.1555099,0.1264782,0.2819901,0.2819877,0.2819901
		l34.2104187-0.0002556C42.430233,33.6687241,42.5567093,33.5422478,42.5567093,33.3872414z"/>
	<path fill="#FFFFFF" d="M9.092288,28.6537838c0.155509,0,0.2819872-0.1264782,0.2817345-0.2817364V26.437767l0.6732874-0.0002518
		l-0.000001,0.8522758c-0.0002518,0.1557617,0.1259737,0.2819862,0.2817354,0.2817345
		c0.1555099,0,0.2817354-0.1262245,0.28123-0.2817345l0.000001-0.8522758h0.6730356l0.0002518,1.9345341
		c-0.0002518,0.1552563,0.1264782,0.2819862,0.2817354,0.2817345s0.2817354-0.1262245,0.2814827-0.2814827l0.0002518-1.9350376
		l0.6732874,0.0002518l-0.000001,0.8522758c0.000001,0.1555099,0.1264791,0.2819881,0.2814837,0.2819881
		c0.1557617-0.0002518,0.2822399-0.12673,0.2822409-0.2822418l0.000001-0.8522758h0.6735401l-0.0002527,1.9345341
		c0,0.1555099,0.1264782,0.2819862,0.2814827,0.2814827c0.1557617,0.0002518,0.2822399-0.1262245,0.2819872-0.2814827v-1.9342804
		l0.6732874-0.0002537l-0.000001,0.8522758c0.000001,0.1560154,0.1264782,0.2824936,0.2819881,0.2819881
		c0.1555099,0.0000019,0.2817354-0.1262245,0.2817354-0.2817345v-0.8522739l0.6732864-0.0002537l0.0000019,1.9347858
		c0,0.1555099,0.1262264,0.2817345,0.2817345,0.2817345c0.1555099,0.0000019,0.2819881-0.1264763,0.2814846-0.2814827
		l0.0002518-1.9350395l0.6732864,0.0002537v0.8522739c0.0002537,0.1557636,0.1264782,0.2819881,0.2817364,0.2817364
		c0.1552563-0.0002518,0.2819862-0.1264782,0.2819881-0.2819881v-0.8522758h0.6735382v1.9342823
		c0,0.155508,0.1264801,0.2819881,0.2817364,0.2817345c0.1552563,0.0002537,0.2817345-0.1262245,0.2814827-0.2814827
		l0.0000019-1.9342804l0.6732864-0.0002537v0.8522758c0,0.1560135,0.1264782,0.2824917,0.2817345,0.2822399
		c0.1557617-0.0002518,0.2822418-0.1267319,0.2819881-0.2819881v-0.8522758l0.6732883-0.0002518v1.9347858
		c0,0.1555099,0.1264782,0.2819881,0.2814827,0.2814846c0.1557617,0.0002518,0.2822399-0.1262264,0.2819881-0.2814846
		l0.0002537-1.9345341h0.6730347v0.8522758c0,0.1560135,0.1262264,0.2822399,0.2814827,0.2819881
		c0.1557617-0.0002518,0.2819881-0.1264782,0.2819881-0.2819881v-0.8522758h0.6730347l0.0002537,1.9345341
		c0,0.1555099,0.1264782,0.2819881,0.2819881,0.2814846c0.155508,0,0.2817345-0.1262264,0.2814827-0.2814846v-1.9347858
		l0.6732864,0.0002518v0.8522758c0,0.155508,0.1264801,0.2819881,0.2819881,0.2819881
		c0.1555099,0,0.2819881-0.1264782,0.2817364-0.2822399v-0.8522758h0.6735401v1.9347858
		c-0.0002537,0.1552582,0.1262245,0.2817345,0.2814827,0.2814846c0.1557617-0.0002537,0.2819881-0.1264782,0.2817364-0.2817364
		l0.0002518-1.9345341l0.6727829-0.0002518v0.8522739c0.0002518,0.1557617,0.1267319,0.2822418,0.2819881,0.2819881
		c0.1552563-0.0002518,0.2819862-0.1264782,0.2817364-0.2817345v-0.8522758h0.6730347l0.0002518,1.9350376
		c-0.0002518,0.1552582,0.1262264,0.2817364,0.2814846,0.2814846c0.1552563-0.0002518,0.2819862-0.1264782,0.2817345-0.2817364
		v-1.9347858l0.6732883,0.0002518v0.8522758c0,0.1560135,0.1262264,0.2822399,0.2814827,0.2819881
		c0.1555099,0,0.2822399-0.1262264,0.2819881-0.2819881v-0.8522758L31.07271,26.437767l-0.0002537,1.9345322
		c0.0002537,0.1552582,0.1267319,0.2817364,0.2817364,0.2817364c0.1555099,0,0.2819862-0.1264782,0.2817364-0.2817364v-1.9347858
		h0.6735382v0.8522758c0.0002518,0.1557617,0.1267319,0.2822399,0.2822418,0.2822399
		c0.1552582-0.0002518,0.2817345-0.12673,0.2817345-0.2822399v-0.8522758h0.673542v1.9347858
		c0.0002518,0.1552582,0.1264763,0.2814846,0.2814827,0.2814846c0.1555099,0,0.2819862-0.1264782,0.2817345-0.2817364
		l0.0002518-1.9345322h0.6730347v0.8522758c0.0002518,0.1557617,0.1264801,0.2819862,0.2817383,0.2817345
		c0.1555061,0,0.2819862-0.1264782,0.2819862-0.2819881v-0.8522758l0.6732864,0.0002537l-0.0002518,1.9345341
		c0,0.1555099,0.1264801,0.2819881,0.2817345,0.2817345c0.1557655,0.0002518,0.2819901-0.1259727,0.2819901-0.2814827
		l-0.0002518-1.9350395l0.6732864,0.0002537v0.8522758c0,0.1555099,0.1264763,0.2819881,0.2817345,0.2817345
		c0.1557617,0.0002518,0.2822418-0.1262264,0.2819901-0.2819881l-0.0000038-0.8522758l0.6732903,0.0002518v1.9347858
		c0,0.1550064,0.1264763,0.2814827,0.2814827,0.2814827c0.1550026,0,0.2819862-0.1264782,0.2817345-0.2817345l0.0002518-1.9345341
		h0.6730347v0.8522758c0,0.1555099,0.1264763,0.2819881,0.2817345,0.2817364
		c0.1552582-0.0002537,0.2819901-0.1264801,0.2819901-0.2819881l-0.0000038-0.8522758l0.6727829-0.0002537v1.9347858
		c0,0.1555099,0.1264801,0.2819881,0.2817383,0.2817364c0.1555061-0.0000019,0.2819862-0.1264782,0.2817345-0.2817364v-1.9347858
		l0.4627419,0.0002518l-0.0002518,6.6679916l-33.646946-0.000248l0.0022717-6.66749l0.4622383-0.0002518l-0.0002527,1.9350376
		C8.8105526,28.5275574,8.9367781,28.6537819,9.092288,28.6537838z"/>
	<g>
		<path d="M17.7691498,21.444294c-0.1650867,0-0.2986736-0.133585-0.2986736-0.2986717v-0.5973454
			c0-0.1650867,0.1335869-0.2986717,0.2986736-0.2986717c0.1650848,0,0.2986717,0.133585,0.2986717,0.2986717v0.5973454
			C18.0678215,21.310709,17.9342346,21.444294,17.7691498,21.444294z"/>
		<path d="M17.7691498,25.5455017c-0.1650867,0-0.2986736-0.1335869-0.2986736-0.2986736v-1.0252285
			c0-0.1650867,0.1335869-0.2986717,0.2986736-0.2986717c0.1650848,0,0.2986717,0.133585,0.2986717,0.2986717v1.0252285
			C18.0678215,25.4119148,17.9342346,25.5455017,17.7691498,25.5455017z M17.7691498,23.4947529
			c-0.1650867,0-0.2986736-0.1335869-0.2986736-0.2986736v-1.0252285c0-0.1650867,0.1335869-0.2986717,0.2986736-0.2986717
			c0.1650848,0,0.2986717,0.133585,0.2986717,0.2986717v1.0252285
			C18.0678215,23.361166,17.9342346,23.4947529,17.7691498,23.4947529z"/>
		<path d="M17.7691498,27.1683655c-0.1650867,0-0.2986736-0.133585-0.2986736-0.2986717v-0.5973454
			c0-0.1650867,0.1335869-0.2986717,0.2986736-0.2986717c0.1650848,0,0.2986717,0.133585,0.2986717,0.2986717v0.5973454
			C18.0678215,27.0347805,17.9342346,27.1683655,17.7691498,27.1683655z"/>
	</g>
	<g>
		<path d="M32.5531502,21.444294c-0.1650887,0-0.2986717-0.133585-0.2986717-0.2986717v-0.5973454
			c0-0.1650867,0.1335831-0.2986717,0.2986717-0.2986717c0.1650848,0,0.2986717,0.133585,0.2986717,0.2986717v0.5973454
			C32.8518219,21.310709,32.718235,21.444294,32.5531502,21.444294z"/>
		<path d="M32.5531502,25.5455017c-0.1650887,0-0.2986717-0.1335869-0.2986717-0.2986736v-1.0252285
			c0-0.1650867,0.1335831-0.2986717,0.2986717-0.2986717c0.1650848,0,0.2986717,0.133585,0.2986717,0.2986717v1.0252285
			C32.8518219,25.4119148,32.718235,25.5455017,32.5531502,25.5455017z M32.5531502,23.4947529
			c-0.1650887,0-0.2986717-0.1335869-0.2986717-0.2986736v-1.0252285c0-0.1650867,0.1335831-0.2986717,0.2986717-0.2986717
			c0.1650848,0,0.2986717,0.133585,0.2986717,0.2986717v1.0252285C32.8518219,23.361166,32.718235,23.4947529,32.5531502,23.4947529
			z"/>
		<path d="M32.5531502,27.1683655c-0.1650887,0-0.2986717-0.133585-0.2986717-0.2986717v-0.5973454
			c0-0.1650867,0.1335831-0.2986717,0.2986717-0.2986717c0.1650848,0,0.2986717,0.133585,0.2986717,0.2986717v0.5973454
			C32.8518219,27.0347805,32.718235,27.1683655,32.5531502,27.1683655z"/>
	</g>
	<g>
		<path fill="#231F20" d="M23.7804012,16.3312778c-0.2280884,0-0.4305096,0.0530834-0.6025963,0.1586685
			c-0.1038342,0.0641689-0.1986275,0.1487541-0.2837963,0.2537556c-0.0621262-0.0956688-0.1379604-0.1761703-0.2266293-0.2403374
			c-0.3094654-0.2245884-0.8035583-0.2187557-1.1261482-0.0402508c-0.0446262,0.0250835-0.0872097,0.0536671-0.128336,0.0857506
			v-0.1551685h-0.728014v2.8968906h0.728014v-1.6176167c0-0.2140865,0.0525017-0.3826733,0.1557541-0.5016766
			c0.0997524-0.114336,0.2330456-0.1703358,0.4071751-0.1703358c0.1347523,0,0.2289619,0.0390835,0.2878799,0.1190014
			c0.0685425,0.0933361,0.1032524,0.2502556,0.1032524,0.4672604v1.7033672h0.7277222v-1.6176167
			c0-0.2181702,0.0510426-0.3826733,0.1557541-0.5028419c0.0994587-0.1137524,0.2342129-0.1691704,0.4118404-0.1691704
			c0.1755867,0,0.2455883,0.0682507,0.2829227,0.119585c0.0688343,0.0939178,0.1035442,0.2508392,0.1035442,0.4666767v1.7033672
			h0.728014v-1.7173691c0-0.381506-0.0845852-0.6842632-0.2517147-0.9001007
			C24.3491631,16.4461956,24.0986156,16.3312778,23.7804012,16.3312778z"/>
		<path fill="#231F20" d="M29.8996887,16.6731167c-0.1761703-0.2269211-0.4264259-0.3418388-0.7446404-0.3418388
			c-0.2280884,0-0.4305077,0.0530834-0.6025944,0.1586685c-0.1038361,0.0641689-0.1986294,0.1487541-0.2837982,0.2537556
			c-0.0621262-0.0956688-0.1379604-0.1761703-0.2266293-0.2403374c-0.3094635-0.2245884-0.8035564-0.2187557-1.1261463-0.0402508
			c-0.0446262,0.0250835-0.0872116,0.0536671-0.128336,0.0857506v-0.1551685h-0.7280159v2.8968906h0.7280159v-1.6176167
			c0-0.2140865,0.0524998-0.3826733,0.1557522-0.5016766c0.0997524-0.114336,0.2330475-0.1703358,0.4071751-0.1703358
			c0.1347523,0,0.2289619,0.0390835,0.2878799,0.1190014c0.0685444,0.0933361,0.1032524,0.2502556,0.1032524,0.4672604v1.7033672
			h0.7277222v-1.6176167c0-0.2181702,0.0510445-0.3826733,0.1557541-0.5028419
			c0.0994606-0.1137524,0.2342129-0.1691704,0.4118404-0.1691704c0.1755886,0,0.2455883,0.0682507,0.2829227,0.119585
			c0.0688343,0.0939178,0.1035442,0.2508392,0.1035442,0.4666767v1.7033672h0.728014v-1.7173691
			C30.1514015,17.1917114,30.0668163,16.8889542,29.8996887,16.6731167z"/>
	</g>
</g>
</svg>
