<?xml version="1.0" encoding="utf-8"?>
<!-- Generator: Adobe Illustrator 18.0.0, SVG Export Plug-In . SVG Version: 6.00 Build 0)  -->
<!DOCTYPE svg PUBLIC "-//W3C//DTD SVG 1.1//EN" "http://www.w3.org/Graphics/SVG/1.1/DTD/svg11.dtd">
<svg version="1.1" id="Layer_1" xmlns="http://www.w3.org/2000/svg" xmlns:xlink="http://www.w3.org/1999/xlink" x="0px" y="0px"
	 width="50px" height="50px" viewBox="0 0 50 50" enable-background="new 0 0 50 50" xml:space="preserve">
<g>
	<g>
		<g>
			<path d="M37.0869141,13.2890625c-0.5175781-1.25-1.2226563-2.4072266-2.8642578-2.4072266
				c-0.1213989,0-0.2373047,0.0202637-0.3544922,0.0358887l-0.2021484-4.1716309
				c0-1.4853516-1.2080078-2.6933594-2.6933594-2.6933594c-0.9304199,0-1.7515869,0.4743652-2.2353516,1.1998901v-1.541687
				c0-1.4853516-1.2080078-2.6933594-2.6933594-2.6933594c-1.3717651,0-2.4942627,1.0340576-2.6598511,2.3616333
				c-0.1610718-0.0301514-0.3257446-0.0501099-0.4954224-0.0501099c-1.671875,0-2.3242188,1.4511719-2.6855469,2.6035156
				l-1.9912109,10.9599609c-0.0517578,0.2861328-0.1210938,0.8027344-0.1826172,1.2666016
				c-0.0274048,0.2019043-0.0515747,0.3806763-0.0734863,0.5367432c-1.15271,0.963501-2.6596069,2.5194702-4.6599121,4.8109131
				L13.1640625,23.65625c-2.2392578,2.5634766-2.3486328,6.6035156-2.4443359,10.1669922l-0.0068359,0.2275391
				c-0.1044922,3.8574219,1.3505859,7.5361328,4.0986328,10.359375c2.8271484,2.9052734,6.7714844,4.5722656,10.8193359,4.5722656
				c8.2255859,0,14.9179688-6.6923828,14.9169922-14.8916016C41.0615234,24.4550781,37.1347656,13.421875,37.0869141,13.2890625z
				 M30.9726563,5.0527344c0.9335938,0,1.6933594,0.7597656,1.6943359,1.7177734l0.2089844,4.3173828
				c0.0024414,0.0528564,0.0180664,0.1017456,0.0341797,0.1500244c-0.8201294,0.4625244-1.3818359,1.3317261-1.3818359,2.3382568
				c0,0.0449219,0.0058594,0.0898438,0.0185547,0.1337891l2.0957031,7.56073v5.0818481
				c-1.1152344-0.3916016-2.2578125-0.7216797-3.4072266-0.9853516L29.2792969,6.7460938
				C29.2792969,5.8125,30.0390625,5.0527344,30.9726563,5.0527344z M35.1591797,26.7421875
				c-0.0039063,0.0224609-0.0107422,0.0439453-0.0185547,0.0615234c-0.0107422,0.0205078-0.0195313,0.0429688-0.0273438,0.0654297
				c-0.0712891,0.1376953-0.2275391,0.1601563-0.328125,0.1201172c-0.0471802-0.0197144-0.0953369-0.0360107-0.1425781-0.055481
				V24.878418L35.1591797,26.7421875z M29.2301636,25.2780762c-0.1638184-0.0336304-0.3284912-0.0630493-0.4928589-0.0939941
				v-9.5082397L29.2301636,25.2780762z M21.8789063,24.5224609c-0.3146973,0.0253296-0.5846558,0.0700073-0.8461914,0.119751
				l0.9342041-0.9555664L21.8789063,24.5224609z M23.0932617,22.5344849l0.1505737-0.1540527l0.0921631,2.2797241
				c-0.0789795-0.0006104-0.1572876-0.0057983-0.2363892-0.0058594c-0.0039063,0-0.0097656,0-0.0146484,0h-0.2141724
				L23.0932617,22.5344849z M24.3505859,3.7109375c0-0.9335938,0.7597656-1.6933594,1.6933594-1.6933594
				s1.6933594,0.7597656,1.6933594,1.6933594v21.1132813c-1.1201172-0.1630859-2.2617188-0.2666016-3.40625-0.3095703
				l-0.1263428-3.1436768c0.0527344-0.0807495,0.0892334-0.1705933,0.0892334-0.2684326
				c0-0.5709839-0.262207-1.1541748-0.6709595-1.6820679c0.0166626-0.0390625,0.034668-0.0776367,0.0410767-0.1216431
				l1.9189453-13.2763672c0-0.9459229-0.4926758-1.7757568-1.2324219-2.2563477V3.7109375z M19.1962891,17.0712891
				L21.171875,6.1738281c0.4150391-1.3105469,0.9121094-1.8447266,1.7167969-1.8447266
				c0.9345703,0,1.6943359,0.7597656,1.6992188,1.6220703l-1.8270264,12.6047974
				c-0.8005371-0.6379395-1.7788696-1.0686646-2.5948486-1.0686646c-0.2948608,0-0.6563721,0.1293335-1.0889893,0.3845825
				C19.1195068,17.5591431,19.1618652,17.2608032,19.1962891,17.0712891z M18.6940918,19.3641968
				c0.0224609-0.0146484,0.0408936-0.0323486,0.060791-0.050415c0.8028564-0.661438,1.2102051-0.8264771,1.4111328-0.8264771
				c0.3560181,0,0.7877197,0.149292,1.2155151,0.3757324c-0.3270874,0.3341064-1.1260986,1.1281738-1.7106323,1.7062988
				c-0.8798828-0.0830078-1.03125-0.9199219-1.0458984-1.0205078c-0.005188-0.0361938-0.0213013-0.0665894-0.0351563-0.0982056
				C18.6265259,19.4193726,18.6588745,19.3935547,18.6940918,19.3641968z M39.5488281,34.0644531
				c0,7.6748047-6.2431641,13.9179688-13.9179688,13.9179688c-3.7802734,0-7.4619141-1.5566406-10.1035156-4.2695313
				c-2.5566406-2.6279297-3.9121094-6.0498047-3.8144531-9.6347656l0.0058594-0.2275391
				c0.0966797-3.5615234,0.1962891-7.2441406,2.1982422-9.5361328l0.1318359-0.1503906
				c1.7241821-1.9743652,2.9720459-3.2694702,3.8838501-4.1223755c0.2111816,0.5969849,0.7574463,1.3342896,1.8807983,1.3342896
				c0.1074219,0,0.2177734-0.0390625,0.2958984-0.1152344c1.2175903-1.2020264,1.7299805-1.7092285,1.9544067-1.9685669
				c0.6147461,0.4693604,1.1165771,1.0750732,1.213562,1.6238403l-6.7246094,6.8769531
				c-0.0917969,0.09375-0.1425781,0.21875-0.1425781,0.3496094c0,0.1552734,0.03125,0.3125,0.0927734,0.4628906
				c0.0068359,0.0185547,0.0615234,0.1171875,0.0712891,0.1347656c0.0439453,0.0810547,0.0957031,0.1679688,0.1660156,0.2431641
				c0.0380859,0.0419922,0.078125,0.078125,0.1347656,0.1220703c0.0810547,0.0673828,0.1572266,0.1171875,0.234375,0.1552734
				c0.0556641,0.0273438,0.1123047,0.0498047,0.1240234,0.0546875c0.0341797,0.0234375,0.0693359,0.046875,0.1074219,0.0673828
				c3.234375,2.5429688,4.328125,6.1591797,3,9.9316406c-0.0917969,0.2607422,0.0449219,0.5458984,0.3056641,0.6376953
				c0.2607422,0.09375,0.5458984-0.0449219,0.6376953-0.3056641c1.4853516-4.2197266,0.2568359-8.2597656-3.3701172-11.0849609
				c-0.0615234-0.0478516-0.0498047-0.0625-0.1269531-0.078125c-0.0371094-0.0253906-0.1865234-0.1035156-0.2304688-0.1171875
				c-0.0009766,0-0.0546875-0.0537109-0.0849609-0.0830078l2.3410645-2.3936157
				c0.0762329-0.0114136,0.149292-0.0233154,0.2207642-0.0354614c1.4095459-0.1984863,1.5783081-0.1998291,2.7145386-0.1998291
				h0.2998047c0.0292969,0.0019531,0.0585938,0.0019531,0.0878906,0c3.9023438,0.0068359,7.6914063,0.765625,11.2685547,2.2587891
				c0.625,0.2548828,1.3935547-0.078125,1.609375-0.6152344c0.0185547-0.03125,0.0341797-0.0654297,0.0458984-0.1015625
				c0.0673828-0.1582031,0.1015625-0.3232422,0.1015625-0.5136719c0-0.0449219-0.0058594-0.0898438-0.0185547-0.1337891
				l-3.6132813-13.0361328c0.0341797-0.9052734,0.7802734-1.6308594,1.6933594-1.6308594
				c0.8857422,0,1.3935547,0.46875,1.9316406,1.7675781C36.1933594,13.7578125,40.0517578,24.6015625,39.5488281,34.0644531z"/>
		</g>
		<path fill="#59C4C3" d="M23.0234375,35.2324219H10.7285156l-0.0743113-1.3852577
			c-0.0103397-0.1927528-0.0060196-0.386013,0.0129232-0.5781097l0.1022234-1.0366325h12.2540865V35.2324219z"/>
		<rect x="22.3916016" y="32.2324219" fill="#59C4C3" width="26.2750645" height="3"/>
	</g>
	<path fill="#4EACA9" d="M40.6623573,31.4318295l0.0449066,0.8733463l-39.040596-0.0043945v-3H40.546875"/>
	<path d="M24.4179688,29.6318359c-0.1660156,0-0.2998047,0.1337891-0.2998047,0.2998047v4.7470703
		c0,0.1660156,0.1337891,0.2998047,0.2998047,0.2998047s0.2998047-0.1337891,0.2998047-0.2998047v-4.7470703
		C24.7177734,29.765625,24.5839844,29.6318359,24.4179688,29.6318359z"/>
	<g>
		<path d="M39.1716118,17.6001968l-1.1921196-1.1921234c-0.4385185-0.4385157-1.1529427-0.4368343-1.5933304,0.0035553
			L25.7016983,27.0960903c-0.0353203,0.0353203-0.0605907,0.0794125-0.0731964,0.1277485l-0.8414993,3.2244797
			c-0.0542164,0.207737,0.1351261,0.3970795,0.3428631,0.3428612l3.2244778-0.8414955
			c0.0483379-0.0126095,0.0924301-0.0378799,0.1277504-0.0732002l10.6859665-10.6829567
			C39.6121597,18.7494297,39.6122894,18.0408707,39.1716118,17.6001968z"/>
		<path fill="#FFFFFF" d="M38.7706451,18.796114l-0.791214,0.791214l-1.987072-1.987072l0.791214-0.791214
			c0.2213249-0.221323,0.579895-0.2221622,0.7985039-0.0035534l1.1921234,1.1921215
			C38.9953537,18.2187672,38.9952927,18.5714684,38.7706451,18.796114z"/>
		
			<rect x="30.9423752" y="16.3033123" transform="matrix(-0.7071068 -0.7071068 0.7071068 -0.7071068 37.2032127 60.9433594)" fill="#FFFFFF" width="0.5620272" height="12.9266577"/>
		
			<rect x="31.7372055" y="17.0981407" transform="matrix(-0.7071068 -0.7071068 0.7071068 -0.7071068 37.9980431 62.8622437)" fill="#FFFFFF" width="0.5620272" height="12.9266577"/>
		
			<rect x="32.532032" y="17.8929691" transform="matrix(0.7071068 0.7071068 -0.7071068 0.7071068 26.8332233 -16.0685329)" fill="#FFFFFF" width="0.5620272" height="12.9266577"/>
		<polygon fill="#FFFFFF" points="25.4503899,30.1266785 26.1194534,27.5980606 27.980051,29.4586601 		"/>
	</g>
</g>
</svg>
