<?xml version="1.0" encoding="utf-8"?>
<!-- Generator: Adobe Illustrator 18.0.0, SVG Export Plug-In . SVG Version: 6.00 Build 0)  -->
<!DOCTYPE svg PUBLIC "-//W3C//DTD SVG 1.1//EN" "http://www.w3.org/Graphics/SVG/1.1/DTD/svg11.dtd">
<svg version="1.1" id="Layer_1" xmlns="http://www.w3.org/2000/svg" xmlns:xlink="http://www.w3.org/1999/xlink" x="0px" y="0px"
	 width="50px" height="50px" viewBox="0 0 50 50" enable-background="new 0 0 50 50" xml:space="preserve">
<path d="M48.8121109,29.2471409c-0.0848312-0.0414734-8.4918137-4.1888809-10.563633-5.2554245
	c-0.088604-0.0457153-0.1451569-0.1390324-0.1508141-0.2488441c-0.0395889-0.7587872-0.5683823-2.0044231-2.8701935-3.6289806
	c-0.0480728-0.0334625-0.0970879-0.070694-0.1413879-0.106041l-3.1492023-2.5671501
	c-0.0073051-0.2434254-0.0160236-0.4003658-0.0188522-0.4491463c-0.0009422-0.017437-0.0117817-0.0318127-0.015316-0.048542
	c0.4663486-0.7660923,1.7374325-2.5323935,3.0881672-4.4080343c0.5269089-0.731451,1.0670166-1.4822264,1.5797844-2.2018957
	c0.0782356-0.1083975,0.0527878-0.2592125-0.0556107-0.3365049c-0.1074562-0.0768213-0.2592125-0.0527859-0.3365059,0.0565548
	c-0.5127716,0.7187271-1.0528755,1.4690304-1.5797844,2.2000113c-1.3000717,1.8058891-2.5346336,3.5202284-3.0575352,4.3546581
	c-1.534893-0.8642387-2.6237049-1.1040106-3.2263756-1.1537323c0.1412716-0.21173,0.3017464-0.4397192,0.4872017-0.6893883
	l0.5869999,0.514184c0.0461864,0.04006,0.1027431,0.0598545,0.1592979,0.0598545c0.066925,0,0.1338482-0.0278063,0.181921-0.0824766
	c0.0876598-0.0999155,0.0772915-0.252615-0.0226231-0.3402767l-0.6112709-0.5353918
	c0.0931988-0.1208878,0.181921-0.2377691,0.2839565-0.3660793l0.9013538,0.7214365
	c0.044302,0.035347,0.0980301,0.0527849,0.1508141,0.0527849c0.070694,0,0.1404476-0.031105,0.1885185-0.0904884
	c0.0829487-0.1041565,0.0659809-0.2559137-0.0377026-0.3393335l-0.8985271-0.7191982
	c0.05797-0.0711651,0.1173534-0.1433916,0.1776791-0.2165604l1.7511005,1.4546556
	c0.0452442,0.0372324,0.0999146,0.0556135,0.1545849,0.0556135c0.0688095,0,0.137619-0.0296917,0.1856918-0.0871906
	c0.0848331-0.1022711,0.0706921-0.2544994-0.0311069-0.3398046l-1.7525139-1.4558334
	c0.0824757-0.0980291,0.1766186-0.2058382,0.2628651-0.3070498l0.6469727,0.5667343
	c0.0461864,0.04006,0.1027412,0.0598545,0.1592979,0.0598545c0.0669231,0,0.1338482-0.0278063,0.1819191-0.0824766
	c0.0876617-0.0999155,0.0772934-0.252615-0.0226212-0.3402767l-0.6514492-0.5705032
	c0.0995617-0.1152325,0.1982975-0.2295218,0.302454-0.3484058l0.9230328,0.7393456
	c0.0443039,0.035347,0.0980301,0.0527849,0.1508141,0.0527849c0.0706978,0,0.1404495-0.031105,0.1885185-0.0904884
	c0.0829506-0.1041565,0.0659828-0.2559137-0.0377007-0.3393335l-0.9040661-0.7241468
	c0.0618591-0.0697517,0.1226559-0.1387959,0.1859264-0.2098446l1.7483902,1.4528885
	c0.0452461,0.0372324,0.0999146,0.0556135,0.1545868,0.0556135c0.0688095,0,0.137619-0.0296917,0.1856918-0.0871897
	c0.0848312-0.102272,0.070694-0.2545004-0.0311089-0.3398046l-1.7362537-1.4427557
	c0.0504284-0.0559664,0.1072197-0.1169996,0.1583576-0.1737909l0.6946907,0.6089153
	c0.0461845,0.04006,0.1027412,0.0598545,0.1592979,0.0598545c0.0669212,0,0.1338463-0.0278063,0.1819191-0.0824766
	c0.0876617-0.0999155,0.0772934-0.252615-0.0226212-0.3402758l-0.6878586-0.6030235
	c0.1034508-0.1133471,0.2030106-0.22363,0.3096428-0.3396873l0.9522514,0.7626753
	c0.0443039,0.035347,0.0980301,0.0527849,0.1508179,0.0527849c0.070694,0,0.1404457-0.031105,0.1885185-0.0904884
	c0.0829468-0.1041565,0.065979-0.2559137-0.0377045-0.3393335L32.9989471,9.869091
	c0.0619736-0.0669241,0.1290169-0.1378536,0.1919365-0.2054844l1.7641792,1.4659662
	c0.0452423,0.0372324,0.0999146,0.0556135,0.154583,0.0556135c0.0688095,0,0.137619-0.0296917,0.1856918-0.0871906
	c0.0848312-0.1022711,0.070694-0.2544994-0.031105-0.3398037l-1.7430916-1.4485292
	c0.1441002-0.1541138,0.2791252-0.3008051,0.4281731-0.458807c0.0914345-0.0966158,0.0876617-0.2493153-0.0094261-0.3407469
	c-0.0980301-0.0923738-0.2507286-0.0867186-0.341217,0.0098972c-2.9625683,3.1407175-4.9079609,5.4420567-5.8175621,6.8717337
	c-0.1570587-0.0537271-0.3740921-0.0828304-0.6985798-0.0190878c-0.1046276,0.01791-0.2149105-0.0117817-0.2988014-0.0848331
	c-0.4967461-0.4274654-1.5232296-1.1193285-2.8381443-1.1094313c-0.0706959,0.0056562-0.1592979-0.0098972-0.2309361-0.0721083
	c-0.6975174-0.6051435-2.5082378-1.9667187-4.2624016-1.609005c-0.452446-0.5570717-1.6900692-1.8969669-3.4168987-2.2999249
	c-0.0424166-0.0098972-0.0791769-0.0235653-0.1112251-0.0410032c-1.2253704-0.6711254-4.2096176-2.1392136-5.443471-1.2574177
	c-0.3157682,0.2252789-0.4892054,0.5669689-0.5193682,1.019413L8.3381386,9.0440874
	C8.0553608,8.9031696,5.5329833,7.6947665,4.4207244,8.5515833c-0.3289647,0.2530861-0.4967461,0.638135-0.5014591,1.1485481
	c-0.5580146-0.2559137-1.398807-0.5118275-2.0605068-0.1536427c-0.5749813,0.310585-0.8634146,0.9944353-0.8587016,2.0312872
	c0.0009426,0.3053999,0.1149962,0.5905342,0.3195388,0.802146l1.0314316,1.0700779
	c-0.0365255,0.0258036-0.0836549,0.0386457-0.1171169,0.0681019c-0.5881777,0.5193691-0.4298222,1.3743-0.4269944,1.3879671
	c0.1743796,1.3955078,2.8909307,4.1780415,3.2227235,4.5112476c0.4119129,0.3482876,1.3535624,1.3219852,1.3677015,1.3356533
	l2.1208324,2.1184769c0.7776394,0.9802952,2.7834759,2.5058804,2.8532276,2.557724l3.936265,3.3749523
	c1.1857824,1.2913513,2.451684,1.453949,2.4771338,1.453949c0.0009422,0,0.0009422,0,0.0009422,0
	c1.4299126,0.3624268,2.2575092,0.7960186,2.6760197,1.0590019c-0.0744648,0.2007713-0.0480728,0.3643112-0.0047131,0.4750671
	c0.1234798,0.3200073,0.4599857,0.4279366,0.5259666,0.4463158c0.049015,0.0136681,0.1027431,0.0164948,0.1536427,0.0061264
	c1.4732723-0.2771206,3.5658264,0.8912239,4.1728554,1.2564774c0.2252808,0.1347885,0.5024033,0.1847458,0.7823524,0.1347885
	c5.5160503-0.9581451,17.0260468,7.9554825,17.141983,8.0454979c0.0612717,0.0480728,0.1347923,0.0716362,0.2073708,0.0716362
	c0.0999146,0,0.1998291-0.0447731,0.2667542-0.1300774c0.1140556-0.1470413,0.088604-0.3595963-0.0593834-0.4741211
	c-0.4637566-0.3624268-11.0669746-8.5693436-17.0340576-8.2460365c2.8123417-1.9505749,4.1556549-5.5050907,4.7888412-8.7633972
	c2.8176422,1.8583202,2.0065422,3.496664,1.9624786,3.5789051c-0.0895462,0.1625977-0.0311089,0.3671398,0.1300774,0.4580994
	c0.052784,0.0292206,0.1093407,0.0433598,0.1658936,0.0433598c0.1178246,0,0.2328224-0.062212,0.2940903-0.1724949
	c0.054554-0.0961437,1.2465782-2.3430481-2.4231701-4.6241226c0.3395691-2.0442467,0.4137993-3.9090481,0.4159203-5.1014271
	l2.7132511,2.2121468c0.0574989,0.0457153,0.1178246,0.0914307,0.1762657,0.132906
	c2.2707024,1.6019344,2.5638504,2.7094803,2.5845871,3.1119671c0.0188522,0.3530025,0.2120819,0.6574593,0.5165405,0.8134575
	c2.0765305,1.0693722,10.4891701,5.2191353,10.5730591,5.2610798c0.0480728,0.0235653,0.0989723,0.0348759,0.1498718,0.0348759
	c0.124424,0,0.244133-0.0692806,0.3025742-0.1885185C49.04776,29.5322742,48.9789505,29.3296185,48.8121109,29.2471409z
	 M23.9606647,14.8542271c1.130167-0.0339336,1.9587059,0.5815792,2.3819294,0.9449482
	c0.2403622,0.2078419,0.5636711,0.2950325,0.8700142,0.2365913c0.1390324-0.0273361,0.2196236-0.0275707,0.2773571-0.0223866
	c0.0355835,0.6536865,0.1003857,2.932169-0.4649334,5.7158794c-0.4753017-0.2210369-1.309967-0.5376301-2.3423424-0.6166916
	l-0.0622101-0.0721073c0.1616535-1.9724922,0.2250423-5.1060228-0.8233547-6.2122726
	C23.8522663,14.8358459,23.9025764,14.8539915,23.9606647,14.8542271z M15.7761345,28.3191586l-3.980567-3.4154835
	c-0.0207376-0.0155525-2.0228033-1.5378399-2.7740498-2.4809036l-2.1425123-2.1434536
	c-0.0395889-0.0410042-0.9755831-1.0076313-1.3912663-1.3573341c-0.795548-0.8045025-2.8862178-3.1086693-3.0134678-4.1219559
	c-0.0009427-0.0051842-0.0895462-0.5137129,0.2064278-0.775754c0.2950313-0.2582703,0.9331663-0.2450733,1.7334273,0.0070696
	c0.0235648,0.0141392,2.4139791,1.4402809,3.3678823,2.4540386c0.0245075,0.0188522,2.3951278,1.8748169,3.1510863,2.9225082
	c0.1225367,0.1691952,0.2912607,0.3035145,0.4882631,0.3883476c0.6456757,0.2766514,2.8108101,1.2527065,3.5347214,2.2103786
	c0.1140537,0.1498737,0.3270798,0.1776791,0.4731808,0.0655117c0.1489296-0.1126404,0.1781502-0.3247242,0.0659819-0.4736538
	c-0.802146-1.0599442-2.9305201-2.047781-3.808073-2.4234047c-0.0848331-0.0367603-0.1545849-0.0909595-0.2054853-0.1625977
	c-0.8125143-1.1254539-3.1831341-2.9814186-3.2444029-3.0243073c-0.9802961-1.0476913-3.3763657-2.4771318-3.5460324-2.5685635
	c-0.6579294-0.2146759-1.199213-0.2773581-1.6450593-0.2215099l-1.2402158-1.2871094
	c-0.0838907-0.0862474-0.1300777-0.2059565-0.1310203-0.3360338c-0.0018852-0.5283232,0.0838907-1.2055759,0.504287-1.4341545
	c0.573096-0.3096418,1.6080625,0.2167959,1.9577644,0.4463177c0.0001178,0,0.0002356,0,0.0003533,0.0001173
	c0.0324016,0.0213261,2.0396519,1.3649921,3.0724974,2.4020786c0.0904889,0.0909605,0.1856909,0.1635399,0.2912612,0.2205667
	c0.5325646,0.2903185,3.2434602,1.7843275,4.3208432,2.6934576c0.1385612,0.1168823,0.296917,0.2101974,0.4722385,0.2780647
	c0.6126852,0.2365913,2.7099533,1.1707001,3.9824533,3.2378044c0.0631542,0.1036854,0.1743793,0.1607132,0.2874908,0.1607132
	c0.0603256,0,0.1215935-0.0160255,0.177206-0.0504284c0.1583557-0.097559,0.208313-0.3054008,0.1102848-0.4646988
	c-1.3827839-2.2466698-3.6516037-3.2575989-4.3142462-3.5139847c-0.1046276-0.04006-0.1988869-0.0956726-0.2799492-0.164011
	c-1.0981207-0.9270391-3.670455-2.3545952-4.433012-2.7702789c-0.0480723-0.0259209-0.0923743-0.0598545-0.1357336-0.1036854
	c-0.944006-0.9480124-2.5876517-2.0879593-3.0531745-2.4043169C4.5519805,9.6043406,4.6132488,9.2554636,4.8326373,9.086504
	C5.420815,8.6312323,7.1108832,9.1901894,8.0280256,9.6440477l2.1422768,1.1539688
	c0.0961447,0.0573797,2.8945827,1.7364902,4.0034256,2.9882526c0.1404457,0.1588268,0.3251944,0.283721,0.5353918,0.3619556
	c1.6617908,0.6178694,3.563942,1.5849695,3.9211845,2.4474421c0.0537281,0.1300774,0.1790924,0.2087841,0.3119984,0.2087841
	c0.0433598,0,0.0867176-0.0084839,0.1291351-0.0259228c0.1724949-0.0711651,0.2544994-0.2686386,0.1828632-0.4411316
	c-0.5382214-1.3012495-3.1935043-2.407382-4.3095331-2.8225937c-0.1083975-0.04006-0.1970015-0.0994434-0.265811-0.1762648
	c-1.0557032-1.1932039-3.4161901-2.6670647-4.0255766-3.0379753c-0.0476007-0.4186287,0.0212088-0.7100077,0.219389-0.8516321
	c0.7097721-0.5028725,2.943716,0.323781,4.7271004,1.3003063c0.0857763,0.0466585,0.1809778,0.0824766,0.2827778,0.1060419
	c1.5647039,0.3652544,2.7269201,1.6749859,3.0445738,2.0671043c0.1611824,0.1998301,0.4269943,0.2889051,0.6843224,0.2332916
	c1.0403862-0.2158537,2.1755028,0.3815145,2.9327583,0.9034748c-1.1814232-0.560607-2.0217438-0.0259209-2.3634338,0.2780647
	c-0.1819191,0.164011-0.2818336,0.3968315-0.2818336,0.6551018c-0.0018864,0.9614449-0.2912617,2.2282877-0.2940903,2.2410135
	c-0.0011768,0.0053024,0.0029469,0.0098972,0.0020027,0.0150814c-0.0027084,0.0163784-0.0098972,0.0313416-0.0104847,0.0480728
	c-0.0009441,0.013195-0.0518436,1.2974777-0.4137993,2.3178349c-0.0405312,0.1795635-0.377037,1.7805557,0.2592125,2.6185207
	l0.0961456,0.1253643c0.1630688,0.2116127,0.3167114,0.4119129,0.429821,0.6305943
	c0.3440475,0.6640568,0.5391636,1.2248993,0.5485897,1.5793133c0.0150814,0.5236111,0.1083984,0.9326954,0.2959728,1.2871113
	c0.2035999,0.3878765,0.4222832,0.7154274,0.647562,0.9736977c0.4750671,0.5434036,0.7748108,1.0575886,0.9152565,1.5703583
	c0.1187668,0.434536,0.1442165,0.8521042,0.0744648,1.2404518c-0.0329895,0.1838055,0.0895462,0.359127,0.2733517,0.3921185
	c0.0197945,0.0032997,0.0405331,0.0051842,0.0593834,0.0051842c0.1611843,0,0.3035145-0.114996,0.3327351-0.2785358
	c0.0867195-0.4877911,0.0574989-1.0048046-0.0876598-1.5378399c-0.1687241-0.6136265-0.5146561-1.2145309-1.0585327-1.8366413
	c-0.1885185-0.2153816-0.3817482-0.5071144-0.5589561-0.8436203c-0.1366768-0.2601547-0.2064285-0.5749817-0.2186813-0.9906635
	c-0.0122547-0.4675255-0.2224522-1.0971775-0.6239967-1.8719883c-0.1404457-0.2714672-0.3195381-0.5052299-0.4929752-0.7309818
	l-0.0942593-0.1225357c-0.3789215-0.4995747-0.2281075-1.65802-0.1489296-2.0223331
	c0.2622757-0.7368717,0.3692608-1.5896816,0.4121475-2.0793571c0.671833,0.0898991,1.5213451-0.0365257,1.7416763-0.0739937
	c0.3091698,0.0202656,0.5693245-0.0919037,0.7851791-0.30163c0.4675255-0.456686,0.593832-1.3545055,0.6230526-1.968133
	c0.5599003,0.7295656,0.7814102,2.8258924,0.554245,5.607482c-0.0160236,0.1984158,0.0461864,0.3911762,0.1753216,0.5424614
	c0.1300774,0.1512871,0.3101139,0.2427177,0.5090008,0.2577991c1.0361443,0.0789433,1.8658619,0.4330044,2.2440758,0.6211681
	c-0.6918621,2.9463081-2.1152954,6.3242054-4.9911442,8.9023132c-0.0175552-0.1134644-0.0865993-0.2163239-0.2004185-0.2629833
	l-1.1249828-0.4604549c-0.4963932-0.2793617-1.3353004-0.6602859-2.6519852-0.9916077
	C17.8969669,29.593544,16.8195839,29.4512119,15.7761345,28.3191586z M22.7239838,14.9451866
	c0.013195,0.6254101-0.0857773,1.5859127-0.4269943,1.9186478c-0.0857773,0.084362-0.1743813,0.1230068-0.3035164,0.1083965
	c-0.0292206-0.0023556-0.057497-0.0004711-0.0867176,0.0042419c-0.4071999,0.0725803-1.1094322,0.1413898-1.5741291,0.0810642
	c0.0914307-0.4618702,0.2403603-1.3281136,0.2413025-2.0647497c0-0.0372324,0.0084839-0.1069841,0.0584412-0.1526995
	C20.9651051,14.5422287,21.6711063,14.17556,22.7239838,14.9451866z M21.1262894,31.5612049
	c-0.002121-0.0028286,0.0009422-0.0094261-0.0005894-0.0129604l0.0283947,0.0115471
	C21.1450233,31.5610867,21.1352444,31.5599079,21.1262894,31.5612049z M25.7883511,32.6451874l-0.4083786,0.1161728
	c-0.6638203-0.3769188-1.7527504-0.9138432-2.8612385-1.1325245c0.0900173-0.0834198,0.1823902-0.1656609,0.2694626-0.2507286
	l1.2808647,0.4328842c0.0254517,0.0084839,0.0518436,0.0127258,0.0772934,0.0127258
	c0.1008568,0,0.1941738-0.0636253,0.2290497-0.164011c0.0424175-0.1263084-0.0254498-0.2634544-0.1517563-0.305872
	l-1.0481644-0.3541794c0.0651569-0.0683365,0.1213589-0.1406803,0.1847496-0.2097263l1.1801243,0.3716164
	c0.0339336,0.0103703,0.0678673,0.0155544,0.1018009,0.0155544c0.1432743,0,0.2771225-0.0923748,0.3223667-0.2365913
	c0.0556126-0.1776791-0.0433598-0.3676109-0.2205677-0.4236946l-0.8947544-0.2818356
	c0.1317272-0.1581192,0.2601547-0.3167114,0.3841057-0.4781303l1.8924904,0.9517822
	c0.049015,0.0245075,0.1008568,0.0362911,0.1517563,0.0362911c0.1234798,0,0.2422466-0.0683384,0.30163-0.1861629
	c0.0838909-0.1668396,0.0169659-0.3699665-0.1498718-0.4533863l-1.793047-0.9017086
	c0.1034508-0.1476326,0.2131443-0.2925568,0.3108196-0.4420757l0.8808537,0.4129734
	c0.0329895,0.0155525,0.0678654,0.0226231,0.1027412,0.0226231c0.0904903,0,0.1772079-0.0513725,0.2186813-0.1390324
	c0.0565567-0.1206512,0.0047131-0.2643967-0.1159382-0.3209534l-0.8350182-0.3914108
	c0.1132278-0.1849842,0.2309341-0.3687897,0.3357983-0.5556583l0.6377811,0.3089352
	c0.0339336,0.0164948,0.0697517,0.0240345,0.1055698,0.0240345c0.0895462,0,0.1753235-0.0499573,0.2167969-0.1362038
	c0.0584412-0.1201801,0.0084839-0.2643967-0.1112251-0.3223667l-0.6221123-0.3006859
	c0.0967331-0.1841602,0.188755-0.3689079,0.2780647-0.5540104l2.0491962,0.6416702
	c0.0245075,0.0075417,0.049015,0.0108395,0.0725803,0.0108395c0.1027412,0,0.1979446-0.0659809,0.2299919-0.1691952
	c0.0405312-0.1272488-0.031105-0.2625122-0.1574135-0.3025723l-1.981329-0.6204605
	c0.0539646-0.1199455,0.0983829-0.2398891,0.1494007-0.3598347l0.815815,0.2054844
	c0.0197945,0.0051842,0.0395889,0.0075417,0.0593834,0.0075417c0.1083965,0,0.2064266-0.0730515,0.2337627-0.1823921
	c0.0329895-0.1291351-0.0452442-0.2601547-0.1743793-0.292675l-0.7474766-0.188282
	c0.0580864-0.1468086,0.1194744-0.2930298,0.1735554-0.4394836l1.0037422,0.2059555
	c0.0160236,0.0032997,0.0320492,0.0047131,0.0480728,0.0047131c0.1121674,0,0.213026-0.0787067,0.2365894-0.1927605
	c0.0263939-0.1305485-0.057497-0.2582703-0.1885185-0.2851334l-0.9425907-0.1934681
	c0.0301628-0.0878963,0.0612679-0.1760292,0.0900173-0.263689l2.0072498,0.4505596
	c0.01791,0.0037689,0.0358181,0.0056553,0.0527859,0.0056553c0.1102829,0,0.2101974-0.0763512,0.2356472-0.1885185
	c0.0292206-0.1300793-0.052784-0.2592144-0.1828632-0.2884331l-1.9616528-0.4404278
	c0.017086-0.056673,0.0300465-0.1116962,0.0467777-0.1682529l0.7328644,0.1849842
	c0.0197945,0.0051842,0.0395889,0.0075417,0.0593834,0.0075417c0.1083984,0,0.2064285-0.0730515,0.2337627-0.1823921
	c0.0329914-0.1291351-0.0452442-0.2601547-0.1743793-0.292675l-0.7226143-0.1823921
	c0.0404129-0.1496353,0.0882492-0.3023357,0.1250114-0.4503231l1.0274258,0.2109051
	c0.0160236,0.0032997,0.0320473,0.0047131,0.0480709,0.0047131c0.1121693,0,0.213026-0.0787067,0.2365913-0.1927605
	c0.026392-0.1305485-0.0574989-0.2582703-0.1885185-0.2851334l-1.0085735-0.2068996
	c0.028513-0.059618,0.0380573-0.1225376,0.0303993-0.1847477c0.006361-0.0296917,0.0134315-0.0597363,0.0197945-0.0893116
	l2.1130562,0.4738884c0.0179081,0.0037708,0.0358181,0.0056572,0.052784,0.0056572
	c0.1102848,0,0.2101994-0.0763512,0.2356491-0.1885185c0.0292206-0.1300793-0.0527859-0.2592144-0.1828632-0.288435
	l-2.1172981-0.4748306c0.0201473-0.1046276,0.0344048-0.2031288,0.0530205-0.3061066l0.8879223,0.075407
	c0.0075417,0.0004711,0.0141392,0.0009441,0.0207367,0.0009441c0.1244221,0,0.2299919-0.0952034,0.2403622-0.2210388
	c0.0113106-0.1324348-0.0867195-0.2493153-0.2196255-0.2606258l-0.8466835-0.0718727
	c0.0248623-0.1557636,0.0483093-0.3081112,0.0697517-0.4592781l1.1332321,0.0452442c0.0028286,0,0.0065975,0,0.0094261,0
	c0.1291351,0,0.2356472-0.1018009,0.2413044-0.2318783c0.0047131-0.132906-0.0989723-0.2450733-0.2318783-0.2507305
	l-1.0896378-0.0435944c0.011076-0.0911961,0.0261574-0.1886368,0.0360546-0.2778282l2.1912918,0.1277199
	c0.0047131,0.000473,0.0094261,0.000473,0.0141392,0.000473c0.1272507,0,0.2337627-0.0989723,0.2413044-0.2271652
	c0.0075397-0.132906-0.0942593-0.2474308-0.2271652-0.2549725l-2.1745605-0.1267776
	c0.0090714-0.0990906,0.0194397-0.2010078,0.0270996-0.296917l0.6986961,0.0966167
	c0.0113106,0.0014133,0.0226212,0.0023556,0.0329914,0.0023556c0.1187668,0,0.2224503-0.0876617,0.239418-0.208313
	c0.0179081-0.1319637-0.0744648-0.2535572-0.2064285-0.2719383l-0.7309799-0.1010933
	c0.0095444-0.1583557,0.020031-0.3195381,0.0262756-0.4661102l1.0855122,0.1010914
	c0.0075397,0.0004711,0.0150814,0.0009441,0.0226212,0.0009441c0.1234798,0,0.2290516-0.0937881,0.2403622-0.2186813
	c0.0122528-0.132906-0.0848331-0.2507305-0.2177391-0.2629833l-1.1165009-0.1041565
	c0.0029469-0.1365585,0.0063629-0.2712326,0.0070705-0.3930626l2.0906696,0.2337627
	c0.008482,0.0009441,0.0179081,0.0014153,0.026392,0.0014153c0.1215954,0,0.226223-0.0909615,0.239418-0.2144394
	c0.0150814-0.1324348-0.0801201-0.2516727-0.213026-0.2667542l-2.1452217-0.2398891
	c-0.0029449-0.1668396-0.0074234-0.310585-0.0123711-0.4269943c0.4778938,0.0273342,1.5175724,0.2045422,3.0803909,1.0929356
	C31.3081722,18.7263966,31.4891491,29.345171,25.7883511,32.6451874z"/>
</svg>
