<?xml version="1.0" encoding="utf-8"?>
<!-- Generator: Adobe Illustrator 18.0.0, SVG Export Plug-In . SVG Version: 6.00 Build 0)  -->
<!DOCTYPE svg PUBLIC "-//W3C//DTD SVG 1.1//EN" "http://www.w3.org/Graphics/SVG/1.1/DTD/svg11.dtd">
<svg version="1.1" id="Layer_1" xmlns="http://www.w3.org/2000/svg" xmlns:xlink="http://www.w3.org/1999/xlink" x="0px" y="0px"
	 width="50px" height="50px" viewBox="0 0 50 50" enable-background="new 0 0 50 50" xml:space="preserve">
<g>
	<g>
		<path d="M45.2733765,30.4769821l-0.0209961-0.2138672l-0.2094727-0.0478516
			c-1.1328125-0.2626953-2.0859375-0.8701172-2.7900391-1.3701172c-1.0166016-0.7226563-1.8085938-1.4658203-2.4208984-2.2734375
			c-0.6035156-0.7949219-1.1601563-1.59375-1.3374023-2.6162109c-0.1831055-1.0546875-0.5908203-2.0097656-1.2124023-2.8388672
			l-0.246582-0.3320313c-0.3286133-0.4443359-0.668457-0.9042969-1.0473633-1.3261719
			c-0.5585938-0.6230469-1.1235352-1.1796875-1.6782227-1.65625c-0.621582-0.5332031-1.28125-1.0361328-1.9194336-1.5234375
			l-0.4296875-0.328124c-0.6850586-0.5253906-1.3452148-0.8554688-2.0170898-1.0087891
			c-1.25-0.2851563-2.40625-0.4042969-3.5556641-0.375l-0.1743164,0.0019531c-0.9091797,0-1.7333984-0.2041016-2.4482422-0.6074219
			c-0.9790039-0.5507813-1.8012695-1.2861328-2.6987305-2.1201172l-0.0996094-0.0927734
			c-1.1323242-1.0527344-2.3037109-2.1425781-3.8100586-2.7714844c-0.6303711-0.2626953-1.4702148-0.5673828-2.371582-0.59375
			c-0.3999023-0.0126953-0.7993164-0.0019531-1.199707,0.0097656c-0.2543945,0.0068359-0.5083008,0.0136719-0.7626953,0.0146484
			c-1.5429688,0.0048828-2.887207,0.8632813-3.4243164,2.1865234c-0.0229492,0.0576172-0.0717773,0.1201172-0.1142578,0.1464844
			c-0.1967773,0.1259766-0.3984375,0.2451172-0.6000977,0.3632813c-0.3154297,0.1865234-0.6308594,0.3730469-0.9291992,0.5830078
			c-0.8256836,0.5800781-1.6230469,1.2714844-1.8774414,2.4560547c-0.0839844,0.3935547-0.1708984,0.7998047-0.1958008,1.2138672
			c-0.0708008,1.1640615-0.3310547,2.3242178-0.5825195,3.4462881c-0.0820313,0.3662109-0.1640625,0.7324219-0.2402344,1.0996094
			c-0.3452148,1.6689453-0.050293,3.0068359,0.902832,4.0917969c0.5634766,0.640625,1.1518555,1.2617188,1.7402344,1.8818359
			l0.675293,0.7138672c0.6240234,0.6660156,1.2514648,1.3291016,1.878418,1.9912109
			c0.1147461,0.1210938,0.2260742,0.2451172,0.3378906,0.3691406c0.2680664,0.296875,0.5454102,0.6035156,0.859375,0.8730469
			c0.4262695,0.3632813,0.8706055,0.7050781,1.3149414,1.046875c0.2827148,0.2177734,0.5654297,0.4345703,0.8422852,0.6572266
			c0.0834961,0.0673828,0.1542969,0.1503906,0.2260742,0.2324219c0.090332,0.1035156,0.1816406,0.2060547,0.2856445,0.2919922
			c0.1489258,0.1240234,0.3081055,0.2353516,0.4677734,0.3466797c0.1166992,0.0820313,0.2338867,0.1630859,0.3461914,0.2509766
			c0.7875977,0.6152344,1.7519531,1.2636719,2.9296875,1.4111328c1.1342773,0.1416016,2.2080078,0.578125,3.1557617,0.9628906
			c0.6850586,0.2783203,1.3598633,0.4482422,2.0625,0.5205078c1.1665039,0.1171875,2.046875,0.4023438,2.7705078,0.8974609
			c0.6806641,0.4648438,1.3144531,0.8769531,1.9375,1.2578125c0.3779297,0.2304688,0.7612305,0.453125,1.1445313,0.6748047
			c0.5253906,0.3037109,1.050293,0.6074219,1.5600586,0.9345703c0.9775391,0.6269531,2.0273438,1.1103516,3.1196289,1.4365234
			c0.6367188,0.1904297,1.2797852,0.3603516,1.9228516,0.5302734c0.3935547,0.1044922,0.7875977,0.2089844,1.1791992,0.3173828
			c0.0708008,0.0195313,0.1337891,0.0292969,0.1938477,0.0292969c0.1269531,0,0.4267578-0.0488281,0.4633789-0.5048828
			l0.0200195-0.2451172l-0.2363281-0.0673828c-0.3505859-0.1005859-0.7016602-0.1982422-1.0517578-0.2949219
			c-0.8188477-0.2265625-1.6660156-0.4609375-2.480957-0.7294922c-0.6743164-0.2216797-1.3222656-0.5185547-2.0874023-0.8955078
			c-0.3500977-0.1738281-0.6782227-0.3837891-1.0258789-0.6064453c-0.1420898-0.0917969-0.284668-0.1826172-0.4282227-0.2714844
			l-0.2060547-0.1259766c-1.2314453-0.7587891-2.4628906-1.5175781-3.6928711-2.2792969
			c-0.793457-0.4912109-1.5849609-0.7792969-2.4199219-0.8808594l-0.2172852-0.0263672
			c-0.4799805-0.0566406-0.9760742-0.1152344-1.4311523-0.2441406c-0.3295898-0.0927734-0.6474609-0.2236328-0.9838867-0.3623047
			c-0.2685547-0.1113281-0.5375977-0.2216797-0.8129883-0.3134766l-0.3349609-0.1132813
			c-0.5463867-0.1865234-1.1108398-0.3798828-1.6962891-0.4472656c-1.4233398-0.1650391-2.4931641-0.9833984-3.265625-1.6777344
			c-0.3452148-0.3105469-0.6518555-0.6943359-0.9487305-1.0644531l-0.1547852-0.1933594
			c-0.105957-0.1308594-0.2158203-0.2607422-0.3256836-0.390625c-0.3359375-0.3964844-0.652832-0.7705078-0.8681641-1.1923828
			c-0.390625-0.7646484-0.7431641-1.5703125-1.0834961-2.3496094c-0.2045898-0.4677734-0.4086914-0.9345703-0.6220703-1.3974609
			c-0.3925781-0.8496094-0.7167969-1.4941406-1.0512695-2.0888672c-0.59375-1.0546875-0.8432617-1.9921875-0.784668-2.9511719
			l0.0629883-1.1035156c0.0429688-0.7783203,0.0854492-1.5566406,0.1503906-2.3330078
			c0.0375977-0.4443359,0.0961914-0.9072256,0.2666016-1.2822256c0.203125-0.4453125,0.4628906-0.8603516,0.737793-1.2998047
			c0.1083984-0.1728516,0.2172852-0.3466797,0.3217773-0.5214844c0.0507813-0.0849609,0.1054688-0.1679688,0.1601563-0.25
			c0.5253906,0.2324219,1.0195313,0.1357422,1.4584961-0.2851563c0.1821289-0.1728516,0.3408203-0.3505859,0.4765625-0.5322266
			c-0.0131836,0.2548828-0.03125,0.5029297-0.0664063,0.75c-0.0869141,0.6083984-0.1850586,1.2158203-0.2832031,1.8232422
			c-0.081543,0.5058594-0.1630859,1.0107422-0.2382813,1.5166006c-0.0087891,0.0615234-0.0175781,0.0810547-0.046875,0.0810547
			c-0.0009766,0-0.0024414,0-0.003418-0.0009766c-0.1645508,0.0322266-0.3251953,0.0810547-0.4863281,0.1308594
			c-0.1176758,0.0361328-0.2353516,0.0722656-0.3549805,0.1005859c-0.0732422,0.0166016-0.2958984,0.0673828-0.3867188,0.2773438
			c-0.0927734,0.2128906,0.0283203,0.421875,0.0678711,0.4902344l0.1152344,0.1992188l1.012207-0.2714844
			c-0.0639648,1.5185547,0.1220703,2.9326172,0.565918,4.3027344l-0.1293945,0.0683594
			c-0.265625,0.1416016-0.5239258,0.2792969-0.7880859,0.4052734c-0.0664063,0.0322266-0.269043,0.1298828-0.3178711,0.3486328
			c-0.0498047,0.2216797,0.0981445,0.4052734,0.1464844,0.4648438l0.1479492,0.1826172l1.2353516-0.5761719l0.0195313,0.0527344
			c0.0976563,0.2636719,0.1914063,0.5175781,0.3027344,0.7646484c0.1557617,0.34375,0.3188477,0.6835938,0.4819336,1.0244141
			c0.2543945,0.5322266,0.5092773,1.0634766,0.7553711,1.6542969c0.5551758,1.3349609,1.1293945,2.7148438,2.2001953,3.8134766
			l0.2050781,0.2177734c0.1538086,0.1650391,0.3081055,0.3310547,0.4775391,0.4794922
			c0.5615234,0.4892578,1.1303711,0.9707031,1.699707,1.4521484l0.4335938,0.3662109
			c0.0712891,0.0595703,0.1464844,0.0742188,0.2001953,0.0859375l0.2329102,0.0683594l0.4174805-0.7685547l-0.2338867-0.1503906
			c-0.1181641-0.0761719-0.2387695-0.1474609-0.3588867-0.21875c-0.2509766-0.1484375-0.4882813-0.2890625-0.6845703-0.4628906
			c-0.6464844-0.5732422-1.2109375-1.1220703-1.7265625-1.6796875c-0.644043-0.6982422-1.0800781-1.3398438-1.371582-2.0205078
			c-0.5820313-1.359375-1.0834961-2.4941406-1.6362305-3.6171875c-0.59375-1.2070313-1.0009766-2.4501953-1.2104492-3.6933594
			c-0.2578125-1.5322266-0.2563477-2.8798828,0.0043945-4.1201162c0.1367188-0.6494141,0.2382813-1.3125,0.3359375-1.9541016
			c0.0336914-0.2197266,0.0673828-0.4404297,0.1025391-0.6591797c0.9350586-0.2509766,1.2978516-0.7988281,1.3647461-2.0058594
			c0.0131836-0.2363281-0.0180664-0.4658203-0.0615234-0.7021484c0.0263672,0.0195313,0.0517578,0.0390625,0.0761719,0.0595703
			c0.4003906,0.3300781,0.6171875,0.8066406,0.8393555,1.3496094c0.3720703,0.9091797,0.4887695,1.8623047,0.6123047,2.8701172
			c0.0258789,0.2138672,0.0522461,0.4287109,0.1162109,0.5791016c-0.1987305,0.0859375-0.4047852,0.15625-0.6225586,0.2294922
			l-0.4536133,0.1582031l-0.0864258,0.9160147l1.296875-0.3417969l0.1010742,0.5693359
			c0.0961914,0.5537109,0.1928711,1.1064453,0.3120117,1.6542969c0.1259766,0.578125-0.0395508,1.0634766-0.5703125,1.6728516
			c-0.1044922,0.1181641-0.1020508,0.2617188-0.1005859,0.3886719l-0.0004883,0.3261719l0.3232422,0.0087891
			c0.0390625,0.0058594,0.078125,0.0097656,0.1132813,0.0097656l0.1508789-0.0146484l0.0751953-0.0498047
			c0.1083984-0.0712891,0.2109375-0.1738281,0.3056641-0.3037109c0.019043-0.0253906,0.0375977-0.0527344,0.0561523-0.0791016
			c0.1547852,0.2900391,0.315918,0.5878906,0.5200195,0.8583984c0.3061523,0.4033203,0.6503906,0.7802734,0.9829102,1.1455078
			l0.3388672,0.3740234c0.0712891,0.0800781,0.1518555,0.1552734,0.2329102,0.2304688
			c0.1181641,0.1083984,0.2299805,0.2109375,0.2822266,0.3154297c0.1884766,0.3769531,0.3442383,0.7646484,0.5092773,1.1757813
			l0.2841797,0.6933594l0.2075195-0.0068359c0.1533203-0.0058594,0.3442383-0.0117188,0.4584961-0.1757813
			c0.1142578-0.1650391,0.0546875-0.3457031,0.0107422-0.4775391c-0.0620117-0.1875-0.1293945-0.3730469-0.1977539-0.5585938
			c0.1015625,0.0283203,0.2041016,0.0556641,0.3071289,0.0810547l1.5761719,0.3857422
			c0.6977539,0.1699219,1.3955078,0.3398438,2.1464844,0.5410156c0.0673828,0.3574219,0.1240234,0.7158203,0.1811523,1.0751953
			l0.0708008,0.4414063l0.1733398,0.3144531l0.7973633-0.0185547l-0.2387695-1.6123047l0.0092773,0.0019531
			c0.5551758,0.1269531,1.1044922,0.2529297,1.6533203,0.3847656c0.2216797,0.0527344,0.4370117,0.1064453,0.6298828,0.1894531
			c0.6767578,0.2910156,1.3510742,0.5869141,2.0258789,0.8818359l1.078125,0.4726563
			c0.2319336,0.1005859,0.4648438,0.1982422,0.703125,0.2988281l0.5610352,0.2363281l0.3671875-0.7705078l-0.9726563-0.4697266
			c0.2939453-0.2138672,0.5825195-0.4941406,0.7719727-0.9121094c0.2089844-0.34375-0.0224609-0.5351563-0.1005859-0.5869141
			l-0.1269531-0.0605469h-0.0893555c-0.1308594,0-0.362793,0.0605469-0.4672852,0.2265625
			c-0.2226563,0.3544922-0.4887695,0.7050781-0.925293,0.8671875l-0.0908203,0.0488281
			c-0.3183594-0.1357422-0.6342773-0.2773438-0.9506836-0.4179688c-0.3129883-0.1396484-0.6259766-0.2783203-0.9765625-0.4287109
			c-0.3496094-0.1484375-0.7104492-0.3017578-1.0913086-0.3984375c-0.581543-0.1474609-1.1665039-0.2792969-1.7514648-0.4111328
			c-0.34375-0.078125-0.6875-0.1552734-1.0302734-0.2363281c-0.3354492-0.0791016-0.6699219-0.1650391-1.0043945-0.2509766
			c-0.6767578-0.1728516-1.3764648-0.3525391-2.0805664-0.4746094c-1.1538086-0.1982422-2.0302734-0.7402344-2.6708984-1.6533203
			l0.215332-0.1806641c0.3232422-0.2734375,0.6523438-0.5507813,0.987793-0.8203125
			c0.1962891-0.1582031,0.4189453-0.2929688,0.6347656-0.4238281l0.5-0.3085938
			c0.4589844-0.2861328,0.934082-0.5820313,1.4179688-0.8232422c0.2768555-0.1376953,0.5888672-0.2207031,0.9189453-0.3076172
			c0.1503906-0.0390625,0.300293-0.0791016,0.4511719-0.125c0.1484375-0.0458984,0.2885742-0.0888672,0.362793-0.2431641
			c0.074707-0.15625,0.019043-0.2949219-0.0454102-0.4560547l-0.0927734-0.2324219l-0.2451172,0.0498047
			c-0.9536133,0.1933594-1.9511719,0.4609375-2.8491211,1.0800781l-0.0834961-0.1503906
			c0.0800781-0.1044922,0.1591797-0.2099609,0.2387695-0.3164063c0.262207-0.3505859,0.5332031-0.7128906,0.8413086-1.0107422
			c0.3017578-0.2929688,0.6601563-0.5449219,1.0390625-0.8105469c0.1767578-0.1240234,0.3574219-0.2509766,0.5395508-0.3867188
			l0.4677734-0.3476563l-0.5556641-0.17871c-0.0332031-0.0097656-0.0644531-0.0244141-0.09375-0.0371094
			c-0.0786133-0.0341797-0.159668-0.0703125-0.2578125-0.0703125l-0.1030273,0.0068359l-0.065918,0.0351563
			c-0.6948242,0.3681631-1.4780273,0.8544912-2.0224609,1.6640615c-0.1655273,0.2460938-0.3359375,0.4882813-0.4912109,0.7089844
			l-0.3129883-0.2675781c-0.4057617-0.3476563-0.7973633-0.6835938-1.1938477-1.0126953
			c-0.4057617-0.3369141-0.8164063-0.6679688-1.2333984-1.0029287l-0.2084961-0.1689453
			c0.4711914-0.2949219,0.8574219-0.6777344,1.152832-1.1416016l0.1801758-0.2841797l-0.7558594-0.3476563l-0.2382813,0.2548828
			c-0.4052734,0.4648438-0.7548828,0.8330078-1.2558594,0.9873047c-0.0068359,0.0019531-0.0131836,0.0039063-0.019043,0.0058594
			c-0.0009766-0.0068359-0.0019531-0.0136719-0.003418-0.0205078l-0.1113281-0.7421875
			c-0.0761719-0.5097656-0.1523438-1.0195313-0.2329102-1.5283203c-0.1342773-0.8496094-0.4604492-1.6494141-0.9970703-2.4443359
			c-0.4467773-0.6611328-1.0302734-1.0400391-1.7661133-1.1298828c0.1083984-0.0195313,0.2216797-0.0302734,0.3413086-0.0332031
			l0.1074219-0.0009766c0.949707,0,1.8891602,0.2832031,3.0473633,0.9199219
			c0.7416992,0.4082031,1.3647461,0.9628906,2.0244141,1.5517578c0.199707,0.1777344,0.3999023,0.3564453,0.6030273,0.5292969
			l0.5766602,0.4980469c0.6118164,0.5302734,1.2441406,1.0791016,1.9038086,1.5771484
			c0.8364258,0.6308594,1.7788086,0.984375,2.800293,1.0507813l0.8305664,0.0517578
			c0.8491211,0.0527344,1.6977539,0.1054688,2.5439453,0.1806641c0.7436523,0.0664063,1.4624023,0.3242188,2.1362305,0.765624
			c0.2514648,0.1650391,0.4916992,0.3476563,0.7324219,0.5302734c0.1279297,0.0966797,0.2553711,0.1933594,0.3847656,0.2880859
			c1.3237305,0.9677734,2.4145508,1.9462891,3.3349609,2.9912109c0.9379883,1.0644531,1.5410156,2.0390625,1.8984375,3.0673828
			c0.1318359,0.3789063,0.2124023,0.7734375,0.2983398,1.1914063c0.0429688,0.2099609,0.0864258,0.4199219,0.1357422,0.6279297
			c0.2050781,0.8544922,0.4003906,1.765625,0.3447266,2.6787109c-0.0039063,0.0625-0.0151367,0.2519531,0.1196289,0.3955078
			c0.081543,0.0878906,0.2651367,0.1855469,0.5786133,0.0888672l0.2211914-0.0673828l-0.046875-1.21875
			c0.0541992,0.0673828,0.1079102,0.1347656,0.1616211,0.203125c0.34375,0.4326172,0.6992188,0.8808594,1.1230469,1.2568359
			c0.6650391,0.5908203,1.4223633,1.1474609,2.3149414,1.7001953c0.4492188,0.2783203,0.9404297,0.4794922,1.4160156,0.6738281
			c0.1782227,0.0732422,0.3569336,0.1464844,0.5336914,0.2236328c0.2280273,0.0996094,0.4301758,0.0654297,0.5595703-0.0771484
			C45.305603,30.7972946,45.2816772,30.5560837,45.2733765,30.4769821z M8.2426147,16.6683884
			C8.218689,17.0609665,8.203064,17.4535446,8.187439,17.8461227c-0.0234375,0.5849609-0.046875,1.1699219-0.097168,1.7529297
			c-0.105957,1.2275391,0.1538086,2.3671875,0.7944336,3.4833984c0.7988281,1.3916016,1.4428711,2.8935547,2.065918,4.3466797
			c0.1669922,0.3896484,0.3339844,0.7802734,0.5043945,1.1689453c0.0449219,0.1015625,0.0947266,0.2021484,0.1479492,0.2998047
			c-0.3037109-0.2939453-0.5957031-0.6103516-0.8779297-0.9521484c-0.4824219-0.5830078-1.0273438-1.1201172-1.5546875-1.640625
			c-0.2602539-0.2558594-0.5200195-0.5117188-0.7729492-0.7744141l-0.34375-0.3535156
			c-0.4760742-0.4902344-0.96875-0.9970703-1.4257813-1.5146484c-0.8427734-0.9560547-1.1523438-2.0585938-0.9194336-3.2792969
			c0.0610352-0.3193359,0.1313477-0.6357422,0.2011719-0.953125c0.0947266-0.4296875,0.1894531-0.8583984,0.2626953-1.2919922
			c0.206543-1.2236328,0.3515625-2.218749,0.4550781-3.1298819c0.1137695-0.9931641,0.4462891-1.6484375,1.0791016-2.1240234
			c0.2568359-0.1933594,0.5063477-0.3964844,0.7539063-0.5986328l0.1293945-0.1044922
			c0.4882813,0.3173828,1.0395508,0.3417969,1.5419922,0.1728516l-0.2631836,0.4140625
			c-0.315918,0.4970703-0.6313477,0.9931641-0.9443359,1.4921875C8.5204468,14.9047174,8.3036499,15.6703424,8.2426147,16.6683884z
			 M11.4105835,9.6683893c0.3364258-0.1894531,0.7109375-0.3212891,1.0737305-0.3671875
			c-0.1083984,0.0898438-0.2329102,0.171875-0.3657227,0.2578125c-0.1386719,0.0898438-0.2792969,0.1816406-0.4121094,0.2910156
			C11.6288452,9.7670221,11.5326538,9.6976862,11.4105835,9.6683893z M20.8041382,19.3705368l0.0810547,0.1630859l-2.0834961,1.625
			c-0.4233398-0.4492188-0.7612305-0.8925781-0.8427734-1.4785156c-0.0458984-0.3291016-0.0878906-0.6582031-0.1293945-0.9873047
			c-0.0571289-0.4492188-0.1137695-0.8994141-0.1811523-1.3476563c-0.0493164-0.3271484-0.1137695-0.6513672-0.1821289-0.9863281
			c0.5620117,0.2998047,1.0615234,0.6904297,1.5415039,1.2021484c0.2705078,0.2890625,0.5981445,0.5068359,0.9658203,0.7519531
			C20.3690796,18.5775681,20.6063843,18.9769821,20.8041382,19.3705368z"/>
		<path d="M35.2538452,35.6410446c-0.0703125,0.0410156-0.2827148,0.1660156-0.3061523,0.4042969
			c-0.015625,0.1591797,0.0571289,0.3115234,0.2167969,0.453125l0.1586914,0.140625l0.1855469-0.1025391
			c2.2084961-1.2216797,3.4086914-3.4755859,3.1328125-5.8828125c-0.2441406-2.1337891-2.3666992-4.2138672-4.6342773-4.5419922
			l-0.5732422-0.0830078l0.2626953,0.515625c0.0712891,0.1396484,0.1787109,0.3505859,0.3969727,0.4150391
			c1.1552734,0.3486328,2.1044922,1.0058594,2.9013672,2.0068359c1.0043945,1.2626953,1.0703125,3.1201172,0.168457,4.7324219
			C36.7079468,34.5121384,36.0658569,35.1654587,35.2538452,35.6410446z"/>
		<path d="M41.8656616,30.3002243c-0.0756836-0.0341797-0.1557617-0.0625-0.2358398-0.0888672
			c-0.1069336-0.0371094-0.2080078-0.0712891-0.2729492-0.1191406c-0.3276367-0.2421875-0.6713867-0.5263672-1.0498047-0.8681641
			c-0.2172852-0.1962891-0.4228516-0.40625-0.6328125-0.6210938l-0.4643555-0.4667969l-0.7290039,0.4736328l0.5288086,0.5849609
			c0.2197266,0.2460938,0.4291992,0.4804688,0.6523438,0.7011719c0.2250977,0.2236328,0.5283203,0.5097656,0.878418,0.7470703
			c0.2895508,0.1972656,0.609375,0.3291016,0.9301758,0.4609375c0.1074219,0.0439453,0.2158203,0.0498047,0.2880859,0.0498047
			l0.4619141-0.1132813l0.1508789-0.4423828l-0.2841797-0.171875C42.015564,30.3793259,41.9428101,30.334404,41.8656616,30.3002243z
			"/>
	</g>
	<path fill="#FFFFFF" d="M10.8083887,12.4335413c0.2675343,0.2736168,0.4820805,0.2814054,0.8476982,0.0082531
		c0.564992-0.4221067,0.8644953-0.9987249,0.9386253-1.6905727c0.0231972-0.216485-0.0084972-0.4388533-0.0164862-0.7060251
		c-0.4482584,0.1522398-0.6705399,0.4482775-0.8569784,0.7565966
		C11.4037266,11.3268824,11.1198797,11.8723335,10.8083887,12.4335413z"/>
	<path fill="#FFFFFF" d="M13.200758,12.6367645c0.4043598-0.0236158,0.6331673-0.1513691,0.7832336-0.436985
		c0.3868036-0.7361879,0.2525759-1.4656811-0.0173903-2.2151375c-0.3900537,0.1135464-0.6307049,0.3363895-0.6613102,0.7089529
		C13.2528076,11.3325129,13.2345209,11.9742441,13.200758,12.6367645z"/>
	<path fill="#FFFFFF" d="M8.9398746,11.6635771c0.3312902,0.285368,1.1239891,0.1813469,1.6873198-0.1926699
		c0.5191031-0.3446512,0.7766008-0.8008776,0.6463776-1.2274065C10.4979744,10.7154598,9.73388,11.180419,8.9398746,11.6635771z"/>
</g>
</svg>
