<?xml version="1.0" encoding="UTF-8"?>
<!DOCTYPE svg PUBLIC "-//W3C//DTD SVG 1.1//EN" "http://www.w3.org/Graphics/SVG/1.1/DTD/svg11.dtd">
<!-- Creator: CorelDRAW X7 -->
<svg xmlns="http://www.w3.org/2000/svg" xml:space="preserve" width="44px" height="44px" version="1.1" style="shape-rendering:geometricPrecision; text-rendering:geometricPrecision; image-rendering:optimizeQuality; fill-rule:evenodd; clip-rule:evenodd"
viewBox="0 0 4400000 4404961"
 xmlns:xlink="http://www.w3.org/1999/xlink">
 <defs>
  <style type="text/css">
   <![CDATA[
    .fil0 {fill:none}
    .fil1 {fill:black}
   ]]>
  </style>
 </defs>
 <g id="Layer_x0020_1">
  <metadata id="CorelCorpID_0Corel-Layer"/>
  <g id="_2679894978672">
   <rect class="fil0" x="59" y="2577" width="4399882" height="4399882"/>
   <path class="fil1" d="M570462 118l1530091 -118 1720009 0c44999,4134 74171,12401 107714,45235 27874,27638 46299,65669 46771,105943 0,41693 -17126,80196 -46771,109487 -27873,27401 -66258,45235 -106533,45235l-995298 0c91180,84329 171139,183540 234445,293971 73227,128029 124604,271767 145391,425426l614281 0c40747,0 78778,16889 107714,45353 27874,27637 46299,65786 46771,106061 1535,38622 -19606,82558 -46771,109368 -27873,27401 -66140,45236 -106415,45236l-613926 0c-37322,278381 -174682,524164 -362947,705105 -207397,199131 -477274,320309 -744435,320309l-1119665 0 1970870 1783433c29882,27874 47007,64960 49015,105943 2126,39212 -10275,79959 -37322,110077 -30472,30472 -63188,46653 -106652,48779 -42046,0 -78187,-8977 -110077,-38031l-2266376 -2050475c-22677,-20079 -38622,-47244 -46181,-76062 -7558,-28700 -6968,-60117 2953,-88699 0,-18661 37913,-60353 53031,-71692 23858,-17834 53503,-29409 83738,-30826 278854,0 556172,4724 835733,2362 57519,-472 690933,-827 690933,-827 174682,0 369088,-90943 523928,-238342 132517,-126139 235862,-293853 273184,-481054l-2314920 0c-39566,1181 -78187,-15118 -106769,-41220l-118 118c-29173,-26574 -49133,-64251 -50905,-104880 -2244,-39684 14291,-79723 40865,-108896 28110,-30944 64842,-48778 106534,-51140l2325076 0c-37794,-187084 -141257,-354679 -273892,-481055 -154722,-147399 -348655,-238342 -522983,-238342l-1517926 0c-41101,0 -76297,-13228 -106769,-41102 -31181,-28464 -48661,-64605 -51023,-106769 -2717,-82322 64369,-153895 145627,-157911z" display="inline"/>
  </g>
 </g>
</svg>
