<?xml version="1.0" encoding="UTF-8"?>
<!DOCTYPE svg PUBLIC "-//W3C//DTD SVG 1.1//EN" "http://www.w3.org/Graphics/SVG/1.1/DTD/svg11.dtd">
<!-- Creator: CorelDRAW X7 -->
<svg xmlns="http://www.w3.org/2000/svg" xml:space="preserve" width="10px" height="10px" version="1.1" style="shape-rendering:geometricPrecision; text-rendering:geometricPrecision; image-rendering:optimizeQuality; fill-rule:evenodd; clip-rule:evenodd"
viewBox="0 0 34642 34675"
 xmlns:xlink="http://www.w3.org/1999/xlink">
 <defs>
  <style type="text/css">
   <![CDATA[
    .fil0 {fill:none}
    .fil1 {fill:black}
   ]]>
  </style>
 </defs>
 <g id="Layer_x0020_1">
  <metadata id="CorelCorpID_0Corel-Layer"/>
  <g id="_2679950092064">
   <g id="_2679894978672">
    <rect class="fil0" x="2" y="20" width="34638" height="34635"/>
    <path class="fil1" d="M4492 0l12048 0 13541 0c352,33 581,98 847,356 221,217 364,515 368,834 0,328 -135,630 -368,864 -221,212 -524,356 -839,356l-7834 0c716,662 1346,1444 1845,2311 577,1010 978,2140 1141,3351l4840 0c319,0 618,130 847,355 221,217 364,520 368,835 12,307 -155,650 -368,863 -221,213 -520,356 -839,356l-4831 0c-295,2189 -1375,4124 -2860,5547 -1632,1571 -3755,2525 -5858,2525l-8816 0 15517 14036c233,221 368,515 384,834 17,311 -81,630 -294,868 -237,241 -495,368 -839,384 -331,0 -613,-69 -867,-298l-17841 -16143c-180,-156 -307,-373 -364,-598 -61,-225 -53,-474 25,-699 0,-148 298,-475 417,-565 188,-139 421,-229 659,-241 2196,0 4377,37 6578,16 454,0 5441,-4 5441,-4 1374,0 2904,-716 4124,-1878 1043,-990 1857,-2311 2151,-3784l-18225 0c-311,8 -618,-123 -843,-327l0 4c-229,-213 -384,-507 -401,-826 -16,-315 115,-630 324,-860 221,-241 511,-384 838,-400l18303 0c-294,-1473 -1112,-2795 -2156,-3789 -1219,-1162 -2745,-1878 -4115,-1878l-11950 0c-323,0 -601,-102 -843,-323 -245,-221 -380,-507 -401,-838 -20,-651 508,-1211 1146,-1244l0 0z" display="inline"/>
   </g>
  </g>
 </g>
</svg>
