<?xml version="1.0" encoding="UTF-8"?>
<!DOCTYPE svg PUBLIC "-//W3C//DTD SVG 1.1//EN" "http://www.w3.org/Graphics/SVG/1.1/DTD/svg11.dtd">
<!-- Creator: CorelDRAW X7 -->
<svg xmlns="http://www.w3.org/2000/svg" xml:space="preserve" width="40px" height="40px" version="1.1" style="shape-rendering:geometricPrecision; text-rendering:geometricPrecision; image-rendering:optimizeQuality; fill-rule:evenodd; clip-rule:evenodd"
viewBox="0 0 655207 655207"
 xmlns:xlink="http://www.w3.org/1999/xlink">
 <defs>
  <style type="text/css">
   <![CDATA[
    .fil0 {fill:none}
    .fil1 {fill:black}
   ]]>
  </style>
 </defs>
 <g id="Layer_x0020_1">
  <metadata id="CorelCorpID_0Corel-Layer"/>
  <g id="_2662457725392">
   <rect class="fil0" x="10" y="10" width="655188" height="655188"/>
   <path id="Shape" class="fil1" d="M374401 46817c-149427,0 -271945,117352 -280302,264730l-74115 -74115c-4565,-4565 -11975,-4565 -16540,0 -4566,4585 -4566,11976 0,16541l93595 93596c2283,2283 5282,3443 8280,3443 2999,0 5978,-1160 8261,-3443l93595 -93596c4585,-4565 4585,-11956 0,-16541 -4565,-4565 -11955,-4565 -16540,0l-72992 72993c8879,-133952 120621,-240199 256758,-240199 141941,0 257398,115456 257398,257378 0,141921 -115457,257378 -257398,257378 -112457,0 -211025,-71909 -245248,-178950 -1954,-6152 -8512,-9576 -14703,-7584 -6132,1974 -9537,8551 -7564,14723 37299,116772 144824,195219 267515,195219 154826,0 280806,-125961 280806,-280786 0,-154826 -125980,-280787 -280806,-280787l0 0z"/>
  </g>
 </g>
</svg>
