<?xml version="1.0" encoding="UTF-8"?>
<!DOCTYPE svg PUBLIC "-//W3C//DTD SVG 1.1//EN" "http://www.w3.org/Graphics/SVG/1.1/DTD/svg11.dtd">
<!-- Creator: CorelDRAW X7 -->
<svg xmlns="http://www.w3.org/2000/svg" xml:space="preserve" width="50px" height="51px" version="1.1" style="shape-rendering:geometricPrecision; text-rendering:geometricPrecision; image-rendering:optimizeQuality; fill-rule:evenodd; clip-rule:evenodd"
viewBox="0 0 5000000 5074884"
 xmlns:xlink="http://www.w3.org/1999/xlink">
 <defs>
  <style type="text/css">
   <![CDATA[
    .str0 {stroke:black;stroke-width:90002.8}
    .fil2 {fill:none}
    .fil1 {fill:none;fill-rule:nonzero}
    .fil0 {fill:black}
   ]]>
  </style>
 </defs>
 <g id="Layer_x0020_1">
  <metadata id="CorelCorpID_0Corel-Layer"/>
  <g id="_2102935193968">
   <g>
    <circle class="fil0" cx="1866128" cy="3046706" r="41832"/>
    <circle class="fil0" cx="3142140" cy="3059108" r="41832"/>
    <g>
     <path class="fil1 str0" d="M2716385 3220613c51143,303317 335207,438912 591987,570963l537537 275088c316663,162406 320797,237409 320797,970778l416706 0c0,-908296 -49962,-1104129 -612539,-1366578l-554191 -258434c-197014,-97680 -258433,-219574 -278630,-353987"/>
    </g>
    <g>
     <path class="fil1 str0" d="M842034 5037442l520410 0 3020883 0m-1221889 -1322168c-397335,262332 -901091,262922 -1311892,1418"/>
    </g>
    <g>
     <path class="fil1 str0" d="M1870807 3043088c-15945,143863 -76184,270481 -287489,369342l-554191 258434c-562577,262449 -612539,458282 -612539,1366578l416706 0c0,-737503 4134,-808372 320797,-970778l537537 -275088c257370,-132406 542379,-268237 592342,-573207"/>
    </g>
    <g>
     <path class="fil1 str0" d="M2483346 2745795c-483322,0 -816758,-583365 -816758,-1187518 0,-966762 862586,-170910 1250000,-916800 108429,375012 416824,354342 416824,862586 0,512497 -308395,1241732 -850066,1241732z"/>
    </g>
    <g>
     <path class="fil1 str0" d="M3141004 3055017c366154,-114452 692030,-329065 963220,-621751 -287608,-174927 -354224,-470803 -354224,-754158 0,-220873 0,-366744 0,-529151 0,-575096 -520883,-1112515 -1250000,-1112515 -729117,0 -1250000,537419 -1250000,1112515 0,162407 0,308278 0,529151 0,283355 -66616,579231 -354224,754158 269064,293513 605334,498441 978929,612893"/>
    </g>
    <g>
     <path class="fil1 str0" d="M2718629 3258055c-142564,25159 -288907,24450 -433006,-945"/>
    </g>
   </g>
   <rect class="fil2" x="-59" y="37383" width="5000118" height="5000118"/>
  </g>
 </g>
</svg>
