<?xml version="1.0" encoding="UTF-8"?>
<!DOCTYPE svg PUBLIC "-//W3C//DTD SVG 1.1//EN" "http://www.w3.org/Graphics/SVG/1.1/DTD/svg11.dtd">
<!-- Creator: CorelDRAW X7 -->
<svg xmlns="http://www.w3.org/2000/svg" xml:space="preserve" width="50px" height="51px" version="1.1" style="shape-rendering:geometricPrecision; text-rendering:geometricPrecision; image-rendering:optimizeQuality; fill-rule:evenodd; clip-rule:evenodd"
viewBox="0 0 4999882 5074763"
 xmlns:xlink="http://www.w3.org/1999/xlink">
 <defs>
  <style type="text/css">
   <![CDATA[
    .str0 {stroke:#333333;stroke-width:89998.6}
    .fil1 {fill:none}
    .fil0 {fill:none;fill-rule:nonzero}
   ]]>
  </style>
 </defs>
 <g id="Layer_x0020_1">
  <metadata id="CorelCorpID_0Corel-Layer"/>
  <g id="_2102892925296">
   <g>
    <g>
     <path class="fil0 str0" d="M4898427 4352294c-360113,-948883 -932820,-619715 -1556314,-962702 -3662,-49960 -5433,-151415 4488,-317121 107833,-122006 222988,-367907 264208,-530543 218265,-154131 384679,-690697 207753,-913568 -45944,-54448 94369,-1255374 -866679,-1529976 -265272,-80313 -655266,-83148 -919238,3071 -349246,122006 -943450,590424 -849317,1517457 -191808,211650 -18189,769121 200194,922898 46298,183068 151414,387632 270468,538338 9212,158738 7559,257713 3189,309917 -627392,340624 -1197029,17480 -1555488,961992 -37086,98149 -23976,204446 36260,291728 224524,325389 1408560,393655 2362049,393655 953489,0 2137525,-68266 2362049,-393773 60236,-87164 73346,-193461 36378,-291373z"/>
    </g>
    <g>
     <path class="fil0 str0" d="M2502835 3997378c-373459,0 -708296,-145273 -942978,-375112 161454,-54802 297633,-118581 320665,-180470 15117,-39920 20550,-114329 21732,-198068 391056,293500 811050,291728 1201044,-6023 944,86101 6496,163226 21968,204091 23149,61889 159092,126022 321018,180470 -234799,230075 -569754,375112 -943449,375112zm-904592 -1692847c-271532,16771 -308381,-764162 -140431,-606133l98620 306137c0,0 -66141,-859711 396726,-925851 0,0 491567,507275 1102069,617234 0,0 -132163,-242476 -242358,-462867 0,0 352672,396726 661289,462867 0,0 46889,-59999 99093,-158856 -5433,52204 -11457,104881 -22323,161336 150352,-73463 95078,222399 83031,273776 -21851,94368 -96967,340742 -232438,332357 -22677,426607 -475977,944867 -926560,927977 -434048,-17952 -854514,-522157 -876718,-927977z"/>
    </g>
   </g>
   <rect class="fil1" y="37322" width="4999882" height="4999882"/>
  </g>
 </g>
</svg>
