<?xml version="1.0" encoding="UTF-8"?>
<!DOCTYPE svg PUBLIC "-//W3C//DTD SVG 1.1//EN" "http://www.w3.org/Graphics/SVG/1.1/DTD/svg11.dtd">
<!-- Creator: CorelDRAW X7 -->
<svg xmlns="http://www.w3.org/2000/svg" xml:space="preserve" width="50px" height="50px" version="1.1" style="shape-rendering:geometricPrecision; text-rendering:geometricPrecision; image-rendering:optimizeQuality; fill-rule:evenodd; clip-rule:evenodd"
viewBox="0 0 3571525 3571525"
 xmlns:xlink="http://www.w3.org/1999/xlink">
 <defs>
  <style type="text/css">
   <![CDATA[
    .fil0 {fill:none}
    .fil1 {fill:#D90000}
    .fil2 {fill:white}
   ]]>
  </style>
 </defs>
 <g id="Layer_x0020_1">
  <metadata id="CorelCorpID_0Corel-Layer"/>
  <g id="_2103099308640">
   <rect class="fil0" x="42" y="42" width="3571441" height="3571441"/>
   <g>
    <polygon class="fil1" points="1785762,714322 1838238,716853 1890797,719468 1942767,727145 1994820,734907 2045777,747731 2096818,760470 2146256,778186 2195778,795903 2243360,818344 2290858,840870 2335909,867867 2381045,894864 2423227,926248 2465495,957547 2504387,992812 2543364,1028161 2578713,1067138 2613978,1106030 2645277,1148298 2676661,1190480 2703658,1235616 2730655,1280667 2753181,1328165 2775622,1375747 2793339,1425269 2811055,1474707 2823794,1525748 2836618,1576705 2844380,1628758 2852057,1680728 2854672,1733287 2857203,1785762 2854672,1838238 2852057,1890797 2844380,1942767 2836618,1994820 2823794,2045777 2811055,2096818 2793339,2146256 2775622,2195778 2753181,2243360 2730655,2290858 2703658,2335909 2676661,2381045 2645277,2423227 2613978,2465495 2578713,2504387 2543364,2543364 2504387,2578713 2465495,2613978 2423227,2645277 2381045,2676661 2335909,2703658 2290858,2730655 2243360,2753181 2195778,2775622 2146256,2793339 2096818,2811055 2045777,2823794 1994820,2836618 1942767,2844380 1890797,2852057 1838238,2854672 1785762,2857203 1733287,2854672 1680728,2852057 1628758,2844380 1576705,2836618 1525748,2823794 1474707,2811055 1425269,2793339 1375747,2775622 1328165,2753181 1280667,2730655 1235616,2703658 1190480,2676661 1148298,2645277 1106030,2613978 1067138,2578713 1028161,2543364 992812,2504387 957547,2465495 926248,2423227 894864,2381045 867867,2335909 840870,2290858 818344,2243360 795903,2195778 778186,2146256 760470,2096818 747731,2045777 734907,1994820 727145,1942767 719468,1890797 716853,1838238 714322,1785762 716853,1733287 719468,1680728 727145,1628758 734907,1576705 747731,1525748 760470,1474707 778186,1425269 795903,1375747 818344,1328165 840870,1280667 867867,1235616 894864,1190480 926248,1148298 957547,1106030 992812,1067138 1028161,1028161 1067138,992812 1106030,957547 1148298,926248 1190480,894864 1235616,867867 1280667,840870 1328165,818344 1375747,795903 1425269,778186 1474707,760470 1525748,747731 1576705,734907 1628758,727145 1680728,719468 1733287,716853 "/>
    <path id="Shape" class="fil2" d="M1381568 1414049l169 168 421 422 774728 774728 422 421 0 0c9027,8943 23538,8943 32480,0 9028,-9027 9028,-23538 0,-32480l-421 -422 -774728 -774728 -422 -421 -84 -85c-9027,-8943 -23454,-8858 -32396,85 -8943,8942 -8943,23284 -169,32312z"/>
    <path id="Shape_0" class="fil2" d="M1414049 2189957l168 -169 422 -421 774728 -774728 421 -422 0 0c9028,-9027 9028,-23453 0,-32480 -8942,-9028 -23453,-9028 -32480,0l-422 421 -774728 774728 -421 422 -85 84c-8943,9027 -8858,23454 85,32396 8942,8943 23369,9028 32312,169z"/>
   </g>
  </g>
 </g>
</svg>
