<?xml version="1.0" encoding="UTF-8"?>
<!DOCTYPE svg PUBLIC "-//W3C//DTD SVG 1.1//EN" "http://www.w3.org/Graphics/SVG/1.1/DTD/svg11.dtd">
<!-- Creator: CorelDRAW X7 -->
<svg xmlns="http://www.w3.org/2000/svg" xml:space="preserve" width="100px" height="100px" version="1.1" style="shape-rendering:geometricPrecision; text-rendering:geometricPrecision; image-rendering:optimizeQuality; fill-rule:evenodd; clip-rule:evenodd"
viewBox="0 0 1405397 1405397"
 xmlns:xlink="http://www.w3.org/1999/xlink">
 <defs>
  <style type="text/css">
   <![CDATA[
    .fil0 {fill:none}
    .fil1 {fill:#666666}
   ]]>
  </style>
 </defs>
 <g id="Layer_x0020_1">
  <metadata id="CorelCorpID_0Corel-Layer"/>
  <g id="_2103123095904">
   <rect class="fil0" x="5" y="5" width="1405396" height="1405396"/>
   <path id="Shape" class="fil1" d="M263527 1194571l878342 0c4980,0 9727,-2108 13047,-5809 3320,-3702 4947,-8648 4416,-13595l-70265 -667533c-929,-8964 -8465,-15753 -17462,-15753l-158106 0 0 -70264c0,-116243 -94565,-210808 -210792,-210808 -116244,0 -210809,94565 -210809,210808l0 70264 -158107 0c-8996,0 -16532,6789 -17478,15753l-70264 667533c-532,4963 1095,9893 4415,13595 3336,3701 8084,5809 13063,5809l0 0zm263511 -772954c0,-96855 78796,-175668 175669,-175668 96855,0 175651,78813 175651,175668l0 70264 -351320 0 0 -70264 0 0zm-177428 105405l142288 0 0 73501c-20400,7270 -35140,26591 -35140,49465 0,29065 23653,52702 52702,52702 29065,0 52702,-23637 52702,-52702 0,-22874 -14740,-42195 -35124,-49465l0 -73501 351320 0 0 73501c-20383,7270 -35123,26591 -35123,49465 0,29065 23637,52702 52702,52702 29048,0 52702,-23637 52702,-52702 0,-22874 -14740,-42195 -35140,-49465l0 -73501 142287 0 66579 632409 -839300 0 66545 -632409 0 0zm159850 105404c9677,0 17578,7885 17578,17562 0,9677 -7901,17562 -17578,17562 -9677,0 -17562,-7885 -17562,-17562 0,-9677 7885,-17562 17562,-17562l0 0zm386477 0c9677,0 17562,7885 17562,17562 0,9677 -7885,17562 -17562,17562 -9677,0 -17579,-7885 -17579,-17562 0,-9677 7902,-17562 17579,-17562l0 0z"/>
  </g>
 </g>
</svg>
