<?xml version="1.0" encoding="UTF-8"?>
<!DOCTYPE svg PUBLIC "-//W3C//DTD SVG 1.1//EN" "http://www.w3.org/Graphics/SVG/1.1/DTD/svg11.dtd">
<!-- Creator: CorelDRAW X7 -->
<svg xmlns="http://www.w3.org/2000/svg" xml:space="preserve" width="100px" height="100px" version="1.1" style="shape-rendering:geometricPrecision; text-rendering:geometricPrecision; image-rendering:optimizeQuality; fill-rule:evenodd; clip-rule:evenodd"
viewBox="0 0 11291476 11291342"
 xmlns:xlink="http://www.w3.org/1999/xlink">
 <defs>
  <style type="text/css">
   <![CDATA[
    .fil0 {fill:none}
    .fil1 {fill:#B3B3B3}
   ]]>
  </style>
 </defs>
 <g id="Layer_x0020_1">
  <metadata id="CorelCorpID_0Corel-Layer"/>
  <rect class="fil0" x="66" y="-21" width="11291343" height="11291342"/>
  <path class="fil1" d="M2117385 9597514l7056839 0c40008,0 78150,-16937 104822,-46676 26673,-29740 39742,-69482 35474,-109224l-564520 -5363144c-7468,-72015 -68015,-126560 -140297,-126560l-1329750 0 2134 -565588c0,-933932 -702417,-1692627 -1636216,-1692627 -933799,0 -1638349,760429 -1638349,1694361l-134 563854 -1325483 0c-72282,0 -132695,54545 -140296,126560l-564521 5363144c-4267,39875 8802,79484 35475,109224 26672,29739 64947,46676 104822,46676l0 0 0 0zm2056572 -5052411c131228,38008 227249,159101 227249,302598 0,173904 -141097,315000 -315001,315000 -173904,0 -315000,-141096 -315000,-315000 0,-147098 100954,-270725 237250,-305399l-267 -424624 -1310146 267 -521178 5314867 6941881 -14536 -525312 -5300731 -1312413 1600 0 426491c130294,38675 225381,159368 225381,302065 0,173904 -141096,315000 -315000,315000 -173904,0 -315001,-141096 -315001,-315000 0,-147765 101889,-271791 239118,-305799l-400 -424090 -2941294 133 133 427158zm-1067 -1157714c0,-778166 640137,-1518590 1469114,-1527526 844313,15470 1472447,752694 1472447,1530860l5468 562254 -2947029 -1067 0 -564521zm3018511 1282674c98021,0 177638,79617 177638,177638 0,98021 -79617,177638 -177638,177638 -98021,0 -177638,-79617 -177638,-177638 0,-98021 79617,-177638 177638,-177638zm-3105196 0c98021,0 177638,79617 177638,177638 0,98021 -79617,177638 -177638,177638 -98021,0 -177638,-79617 -177638,-177638 0,-98021 79617,-177638 177638,-177638z"/>
 </g>
</svg>
