<?xml version="1.0" encoding="UTF-8"?>
<!DOCTYPE svg PUBLIC "-//W3C//DTD SVG 1.1//EN" "http://www.w3.org/Graphics/SVG/1.1/DTD/svg11.dtd">
<!-- Creator: CorelDRAW X7 -->
<svg xmlns="http://www.w3.org/2000/svg" xml:space="preserve" width="100px" height="100px" version="1.1" style="shape-rendering:geometricPrecision; text-rendering:geometricPrecision; image-rendering:optimizeQuality; fill-rule:evenodd; clip-rule:evenodd"
viewBox="0 0 10000000 10000354"
 xmlns:xlink="http://www.w3.org/1999/xlink">
 <defs>
  <style type="text/css">
   <![CDATA[
    .fil0 {fill:none}
    .fil4 {fill:none;fill-rule:nonzero}
    .fil3 {fill:white}
    .fil2 {fill:#B3B3B3;fill-rule:nonzero}
    .fil1 {fill:#B3B3B3;fill-rule:nonzero}
   ]]>
  </style>
 </defs>
 <g id="Layer_x0020_1">
  <metadata id="CorelCorpID_0Corel-Layer"/>
  <g id="_1703206305728">
   <rect class="fil0" x="-59" y="177" width="10000118" height="10000118"/>
   <g>
    <g id="_1703239455856">
     <rect class="fil0" x="58615" y="117406" width="9882953" height="9882970"/>
     <g>
      <path class="fil1" d="M7564312 7424232l0 -128978 0 0 61654 1654 60827 4606 60000 7677 59056 10394 58111 13465 56929 16181 55631 18898 54567 21378 53150 23977 51733 26575 50315 28937 48544 31181 47008 33426 45236 35551 43583 37678 41576 39685 39685 41575 37677 43583 35552 45237 33425 47008 31182 48544 28937 50315 26575 51733 23976 53150 21379 54567 18897 55630 16182 56930 13464 58111 10394 59055 7677 60001 4725 60827 1535 61654 -128977 0 -1299 -55040 -4252 -54449 -6733 -53623 -9449 -52677 -11811 -51733 -14527 -50788 -16772 -49724 -19252 -48662 -21378 -47245 -23505 -46063 -25866 -44882 -27874 -43347 -29882 -42048 -31772 -40512 -33662 -38858 -35433 -37087 -37087 -35434 -38859 -33661 -40512 -31772 -42047 -29882 -43347 -27875 -44882 -25866 -46064 -23504 -47244 -21378 -48662 -19252 -49725 -16772 -50788 -14528 -51732 -11811 -52678 -9449 -53622 -6732 -54450 -4134 -55039 -1417 0 0zm-1070088 1070205l-128977 0 0 0 1535 -61654 4725 -60827 7677 -60001 10394 -59055 13465 -58111 16181 -56930 18898 -55630 21378 -54567 23976 -53150 26575 -51733 28937 -50315 31182 -48426 33307 -47126 35670 -45237 37677 -43583 39686 -41575 41575 -39685 43583 -37678 45236 -35551 46890 -33426 48662 -31181 50197 -28937 51851 -26575 53150 -23977 54450 -21378 55748 -18898 56812 -16181 58110 -13465 59056 -10394 60000 -7677 60828 -4606 61654 -1654 0 128978 -55040 1417 -54450 4134 -53622 6732 -52678 9449 -51732 11811 -50670 14528 -49843 16772 -48544 19252 -47244 21378 -46181 23504 -44765 25866 -43465 27875 -41929 29882 -40512 31772 -38859 33661 -37087 35434 -35433 37087 -33662 38858 -31890 40512 -29764 41930 -27874 43465 -25866 44882 -23504 46063 -21378 47245 -19253 48662 -16771 49724 -14528 50788 -11811 51733 -9449 52677 -6732 53623 -4252 54449 -1300 55040 0 0zm1070088 1070087l0 128978 0 0 -61654 -1536 -60828 -4724 -60000 -7678 -59056 -10393 -58110 -13465 -56812 -16181 -55748 -18898 -54450 -21378 -53150 -23977 -51851 -26575 -50197 -28937 -48543 -31181 -47009 -33308 -45236 -35669 -43583 -37678 -41575 -39685 -39686 -41575 -37677 -43583 -35670 -45237 -33307 -47008 -31182 -48544 -28937 -50197 -26575 -51851 -23976 -53150 -21378 -54449 -18898 -55749 -16181 -56811 -13465 -58111 -10394 -59055 -7677 -60001 -4725 -60827 -1535 -61654 128977 0 1300 55040 4252 54449 6732 53622 9449 52678 11811 51733 14528 50669 16771 49843 19253 48544 21378 47245 23504 46181 25866 44764 27874 43583 29764 41811 31890 40513 33662 38858 35433 37087 37087 35433 38859 33662 40512 31890 41811 29764 43583 27874 44765 25867 46181 23504 47244 21378 48544 19252 49843 16772 50670 14528 51732 11811 52678 9449 53622 6732 54450 4252 55040 1299 0 0zm1070205 -1070087l128977 0 0 0 -1535 61654 -4725 60827 -7677 60001 -10394 59055 -13464 58111 -16182 56811 -18897 55749 -21379 54449 -23976 53150 -26575 51851 -28937 50197 -31182 48662 -33425 46890 -35552 45237 -37677 43583 -39685 41575 -41576 39685 -43583 37678 -45236 35669 -47126 33308 -48426 31181 -50315 28937 -51733 26575 -53150 23977 -54567 21378 -55631 18898 -56929 16181 -58111 13465 -59056 10393 -60000 7678 -60827 4724 -61654 1536 0 -128978 55039 -1299 54450 -4252 53622 -6732 52678 -9449 51732 -11811 50788 -14528 49725 -16772 48662 -19252 47244 -21378 46064 -23504 44882 -25867 43465 -27874 41929 -29764 40512 -31890 38859 -33662 37087 -35433 35433 -37087 33662 -38858 31772 -40513 29882 -41929 27874 -43465 25866 -44764 23505 -46181 21378 -47245 19252 -48544 16772 -49843 14527 -50669 11811 -51733 9449 -52678 6733 -53622 4252 -54449 1299 -55040 0 0z"/>
     </g>
     <g>
      <path class="fil2" d="M7430255 7787187c0,-18897 25749,-34252 57402,-34252 31654,0 57284,15355 57284,34252l-114686 0 0 0zm0 727329l0 -727329 114804 0 0 727329 -114804 0zm114804 0c0,18898 -25748,34252 -57402,34252 -31535,0 -57284,-15354 -57284,-34252l114686 0 0 0z"/>
     </g>
     <path class="fil2" d="M7437106 8529162c-13347,-13347 -6142,-42402 16181,-64843 22441,-22323 51497,-29528 64843,-16182l514138 514138c13465,13465 6260,42402 -16063,64725 -22441,22323 -51497,29646 -64843,16300l-514256 -514138z"/>
     <rect class="fil3" x="6140603" y="8614415" width="46664" height="801846"/>
     <rect class="fil3" x="7947838" y="7087379" width="147463" height="115524"/>
     <g>
      <path class="fil2" d="M1889661 8787353l4248931 0 0 146458 -4248931 0 0 0 0 -146458zm-439374 -293034l146458 0 0 0 354 15118 1181 15000 1890 14410 2480 14409 3189 13819 4134 13937 4489 13819 5433 13229 5787 12992 6378 12520 6969 12165 7795 11930 8386 11811 8504 10866 9331 10748 9567 10158 10393 9803 10867 9331 10748 8622 11338 7913 12402 7914 12166 7323 12519 6259 12874 5788 13347 5315 13701 4606 13819 4016 13819 3189 14410 2598 14409 1772 15118 1299 15000 237 0 146576 -22559 -709 -22087 -1536 -22086 -2834 -21497 -3898 -21378 -4961 -20905 -6141 -20197 -6851 -20079 -7795 -19371 -8859 -19252 -9921 -18189 -10748 -17480 -10984 -17363 -12284 -17008 -13346 -15472 -13701 -15355 -14646 -14409 -15118 -14055 -15945 -13229 -16890 -11811 -16890 -11457 -17599 -10748 -18661 -9803 -18898 -8740 -19488 -7796 -19961 -6968 -20315 -6024 -20906 -4961 -21378 -3897 -21496 -2835 -22087 -1535 -22205 -709 -22441 0 0 0 0zm146458 -8054473l0 8054473 -146458 0 0 -8054473 0 0 146458 0zm292916 -439374l0 146576 0 0 -15001 237 -15118 1299 -14409 1772 -14410 2598 -13819 3189 -13819 4016 -13701 4606 -13346 5315 -12993 5788 -12638 6496 -12047 6850 -11929 8032 -11693 8031 -10866 8622 -10867 9331 -10275 9803 -9685 10158 -9449 10984 -8386 10630 -8150 11693 -7795 11811 -7087 12402 -6496 12520 -5669 12992 -5433 13465 -4607 13464 -4015 13819 -3189 13701 -2599 14764 -1772 14528 -1181 14764 -354 15000 -146458 0 591 -22441 1535 -22205 2835 -21969 3897 -21496 4961 -21496 6024 -20906 6968 -20315 7796 -19843 8858 -19370 9803 -19016 10512 -18425 11457 -17953 12165 -17126 13229 -16654 13819 -15827 14409 -15118 15355 -14646 15591 -13701 16889 -13346 17127 -12166 17716 -11338 18544 -10630 19016 -9804 19370 -8740 20079 -7795 20197 -6969 20905 -6023 21379 -4961 21378 -3898 22205 -2834 22086 -1536 22560 -709 0 0zm3752628 146576l-3752628 0 0 -146576 3752628 0 73228 73347 -73228 73229zm0 -146576l73228 0 0 73347 -73228 -73347zm-73348 2086907l0 -2013678 146576 0 0 2013678 0 0 -146576 0zm439374 292797l0 146458 0 0 -22559 -590 -22087 -1536 -21969 -2835 -21496 -3897 -21496 -4961 -21024 -6024 -20315 -6968 -19725 -7796 -19488 -8858 -18898 -9803 -18543 -10512 -17835 -11457 -17126 -12165 -16772 -13229 -15709 -13819 -15236 -14409 -14528 -15355 -13701 -15590 -13346 -16890 -12166 -17126 -11338 -17717 -10748 -18543 -9804 -19016 -8740 -19371 -7795 -20079 -6851 -20197 -6141 -20905 -4843 -21260 -3898 -21496 -2952 -22205 -1536 -22087 -590 -22559 146457 0 355 15000 1181 15118 1890 14410 2480 14409 3189 13819 4134 13819 4488 13701 5433 13347 5670 12874 6496 12638 6968 12047 7914 12047 8149 11693 8622 10867 9331 10748 9685 10393 10158 9567 10984 9567 10748 8386 11693 8150 11812 7795 12283 7087 12520 6378 13110 5787 13347 5434 13583 4488 13819 4134 13700 3189 14646 2480 14646 1890 14646 1181 15118 354 0 0 0 0zm2013795 146458l-2013795 0 0 -146458 2013795 0 73229 73229 -73229 73229zm0 -146458l73229 0 0 73229 -73229 -73229zm-73347 4706612l0 -4633383 146576 0 0 4633383 -146576 0z"/>
     </g>
     <line class="fil4" x1="8104906" y1="2201710" x2="5633785" y2= "63071" />
     <path class="fil2" d="M8069709 2335412c30473,26103 33898,72284 7441,102757 -26339,30472 -72402,33898 -102875,7441l-2316868 -2317341c-30473,-26457 -33662,-72639 -7441,-103111 26339,-30237 72638,-33662 102993,-7205l2316750 2317459 0 0z"/>
     <g>
      <path class="fil2" d="M2636714 3827156c-78662,0 -142679,-41457 -142679,-92127 0,-50787 64017,-92244 142679,-92244l0 184371zm3997826 0l-3997826 0 0 -184371 3997826 0 0 184371zm0 -184371c78662,0 142679,41457 142679,92244 0,50670 -64017,92127 -142679,92127l0 -184371z"/>
     </g>
     <g>
      <path class="fil2" d="M2636477 5017126c-78662,0 -142560,-41457 -142560,-92127 0,-50787 63898,-92244 142560,-92244l0 184371zm3997945 0l-3997945 0 0 -184371 3997945 0 0 184371zm0 -184371c78662,0 142560,41457 142560,92126 0,50788 -63898,92245 -142560,92245l0 -184371z"/>
     </g>
     <g>
      <path class="fil2" d="M2636477 6207096c-78662,0 -142560,-41575 -142560,-92245 0,-50788 63898,-92245 142560,-92245l0 184490zm3997945 0l-3997945 0 0 -184490 3997945 0 0 184490zm0 -184490c78662,0 142560,41457 142560,92245 0,50670 -63898,92245 -142560,92245l0 -184490z"/>
     </g>
    </g>
   </g>
  </g>
 </g>
</svg>
