<?xml version="1.0" encoding="UTF-8"?>
<!DOCTYPE svg PUBLIC "-//W3C//DTD SVG 1.1//EN" "http://www.w3.org/Graphics/SVG/1.1/DTD/svg11.dtd">
<!-- Creator: CorelDRAW X7 -->
<svg xmlns="http://www.w3.org/2000/svg" xml:space="preserve" width="100px" height="100px" version="1.1" style="shape-rendering:geometricPrecision; text-rendering:geometricPrecision; image-rendering:optimizeQuality; fill-rule:evenodd; clip-rule:evenodd"
viewBox="0 0 4356912 4356912"
 xmlns:xlink="http://www.w3.org/1999/xlink">
 <defs>
  <style type="text/css">
   <![CDATA[
    .str0 {stroke:white;stroke-width:39212.1}
    .fil0 {fill:none}
    .fil4 {fill:#B3B3B3}
    .fil3 {fill:white}
    .fil2 {fill:#B3B3B3;fill-rule:nonzero}
    .fil1 {fill:#B3B3B3;fill-rule:nonzero}
   ]]>
  </style>
 </defs>
 <g id="Layer_x0020_1">
  <metadata id="CorelCorpID_0Corel-Layer"/>
  <g id="_2102926955392">
   <rect class="fil0" x="15" y="15" width="4356910" height="4356910"/>
   <g>
    <rect class="fil0" x="675256" y="693113" width="3006348" height="3006348"/>
    <g>
     <path class="fil1" d="M2373770 702112l-1141523 0 0 -44564 1141523 0 22282 22282 -22282 22282zm0 -44564l22282 0 0 22282 -22282 -22282zm-22282 634803l0 -612521 44564 0 0 612521 0 0 -44564 0zm133640 89076l0 44564 0 0 -6844 -206 -6741 -463 -6690 -875 -6535 -1183 -6535 -1493 -6381 -1852 -6176 -2110 -6020 -2367 -5918 -2676 -5764 -2985 -5609 -3190 -5454 -3499 -5198 -3705 -5094 -4014 -4786 -4220 -4631 -4374 -4426 -4683 -4168 -4734 -4065 -5146 -3705 -5197 -3448 -5404 -3242 -5609 -2985 -5815 -2676 -5866 -2367 -6124 -2110 -6123 -1852 -6381 -1492 -6484 -1184 -6535 -875 -6742 -463 -6741 -206 -6844 44564 0 103 4580 360 4580 566 4374 772 4374 978 4220 1235 4219 1389 4168 1647 4066 1750 3911 1955 3859 2110 3654 2418 3653 2471 3551 2624 3293 2830 3294 2985 3139 3087 2933 3345 2882 3242 2573 3551 2470 3602 2367 3757 2161 3808 1956 3962 1749 4065 1647 4117 1389 4220 1235 4168 978 4477 772 4425 566 4477 360 4580 103 0 0zm612573 44564l-612573 0 0 -44564 612573 0 22282 22282 -22282 22282zm0 -44564l22282 0 0 22282 -22282 -22282zm-22282 1859897l0 -1837615 44564 0 0 1837615 0 0 -44564 0zm-89076 133691l0 -44563 0 0 4580 -103 4477 -361 4425 -566 4477 -771 4168 -978 4220 -1235 4117 -1390 4065 -1646 3962 -1750 3757 -1904 3808 -2264 3705 -2367 3396 -2367 3294 -2676 3344 -2831 3088 -2984 2985 -3088 2779 -3293 2675 -3345 2522 -3551 2367 -3602 2110 -3705 1955 -3808 1750 -3962 1647 -4014 1389 -4220 1235 -4220 978 -4219 772 -4374 566 -4374 360 -4580 103 -4580 44564 0 -206 6844 -463 6741 -875 6741 -1184 6536 -1492 6484 -1852 6381 -2110 6175 -2367 6072 -2676 5918 -2985 5763 -3242 5661 -3499 5352 -3654 5197 -4014 5094 -4219 4838 -4426 4631 -4631 4425 -4786 4169 -5043 4013 -5352 3808 -5351 3397 -5558 3190 -5815 3036 -5918 2676 -6021 2367 -6175 2110 -6381 1853 -6535 1492 -6535 1184 -6690 874 -6741 464 -6844 205 0 0zm-1754096 -44563l1754096 0 0 44563 -1754096 0 0 0 0 -44563zm-133641 -89128l44564 0 0 0 103 4580 360 4580 566 4374 772 4374 978 4219 1235 4220 1390 4220 1646 4014 1750 3962 1955 3808 2110 3705 2367 3602 2573 3602 2573 3294 2830 3293 2934 3088 3139 2984 3293 2831 3294 2624 3447 2419 3757 2418 3705 2213 3808 1904 3911 1750 4065 1646 4168 1390 4220 1235 4220 978 4374 771 4374 566 4580 361 4580 103 0 44563 -6845 -205 -6741 -464 -6741 -874 -6535 -1184 -6484 -1492 -6381 -1853 -6124 -2110 -6123 -2367 -5867 -2676 -5866 -3036 -5558 -3242 -5300 -3345 -5300 -3756 -5146 -4065 -4735 -4169 -4682 -4425 -4375 -4631 -4271 -4838 -4013 -5146 -3603 -5145 -3499 -5352 -3242 -5661 -2984 -5763 -2676 -5918 -2367 -6072 -2110 -6175 -1853 -6381 -1492 -6484 -1184 -6536 -875 -6741 -463 -6741 -206 -6844 0 0zm44564 -2450136l0 2450136 -44564 0 0 -2450136 0 0 44564 0zm89077 -133640l0 44564 0 0 -4580 103 -4580 360 -4374 566 -4374 772 -4220 978 -4220 1235 -4168 1389 -4065 1647 -3911 1749 -3860 1956 -3653 2110 -3654 2418 -3550 2470 -3294 2625 -3293 2830 -3139 2985 -2934 3087 -2881 3345 -2573 3242 -2470 3551 -2367 3602 -2162 3756 -1955 3808 -1750 3963 -1646 4065 -1390 4117 -1235 4220 -978 4168 -772 4477 -566 4425 -360 4477 -103 4580 -44564 0 206 -6844 463 -6741 875 -6690 1184 -6535 1492 -6536 1853 -6381 2110 -6175 2367 -6020 2676 -5918 2984 -5764 3191 -5609 3499 -5454 3705 -5198 4014 -5094 4219 -4786 4375 -4631 4682 -4426 4735 -4168 5146 -4065 5197 -3706 5403 -3447 5609 -3242 5815 -2985 5867 -2676 6123 -2367 6124 -2110 6381 -1852 6484 -1493 6535 -1183 6741 -875 6741 -463 6845 -206 0 0z"/>
    </g>
    <line class="fil0" x1="3122916" y1="1327138" x2="2371197" y2= "676588" />
    <path class="fil2" d="M3112212 1367791c9263,7976 10292,22024 2265,31287 -8028,9263 -22025,10292 -31288,2264l-704788 -704942c-9262,-8028 -10240,-22076 -2264,-31339 8028,-9211 22076,-10240 31339,-2213l704736 704943z"/>
    <g>
     <path class="fil1" d="M1459491 1821611c-23928,0 -43380,-12608 -43380,-28045 0,-15438 19452,-28046 43380,-28046l0 56091zm1216140 0l-1216140 0 0 -56091 1216140 0 0 56091zm0 -56091c23929,0 43380,12608 43380,28046 0,15437 -19451,28045 -43380,28045l0 -56091z"/>
    </g>
    <g>
     <path class="fil1" d="M1459440 2183576c-23929,0 -43381,-12607 -43381,-28045 0,-15438 19452,-28046 43381,-28046l0 56091zm1216139 0l-1216139 0 0 -56091 1216139 0 0 56091zm0 -56091c23929,0 43381,12608 43381,28046 0,15438 -19452,28045 -43381,28045l0 -56091z"/>
    </g>
    <ellipse class="fil3 str0" cx="2958467" cy="3241345" rx="422383" ry="422384"/>
    <g>
     <path class="fil1" d="M1459440 2545542c-23929,0 -43381,-12608 -43381,-28046 0,-15438 19452,-28045 43381,-28045l0 56091zm1216139 0l-1216139 0 0 -56091 1216139 0 0 56091zm0 -56091c23929,0 43381,12607 43381,28045 0,15438 -19452,28046 -43381,28046l0 -56091z"/>
    </g>
    <g>
     <path class="fil1" d="M3342750 3241324l-31081 0 0 0 -412 -18217 -1389 -17908 -2264 -17650 -3139 -17445 -3911 -17084 -4735 -16776 -5557 -16364 -6330 -16004 -7101 -15644 -7770 -15232 -8491 -14769 -9211 -14357 -9881 -13894 -10446 -13328 -11064 -12813 -11732 -12196 -12299 -11784 -12814 -11064 -13328 -10498 -13842 -9828 -14357 -9212 -14769 -8490 -15232 -7771 -15695 -7101 -16004 -6330 -16364 -5557 -16776 -4735 -17085 -3911 -17444 -3139 -17651 -2264 -17908 -1389 -18216 -412 0 -31081 19760 514 19555 1493 19194 2470 18886 3345 18628 4322 18217 5146 17907 6072 17445 6844 17033 7719 16570 8491 16107 9211 15592 10035 15078 10652 14460 11424 13945 12093 13328 12710 12762 13328 12093 13946 11373 14563 10703 15026 10035 15592 9211 16107 8491 16570 7719 16982 6844 17444 6072 17908 5146 18217 4323 18628 3344 18886 2470 19194 1493 19555 514 19760 0 0zm-384298 384299l0 -31082 0 0 18216 -411 17908 -1390 17651 -2264 17444 -3139 17085 -3911 16776 -4734 16364 -5558 16004 -6329 15643 -7102 15232 -7770 14821 -8491 14305 -9211 13894 -9880 13328 -10447 12814 -11063 12247 -11733 11733 -12299 11064 -12813 10549 -13328 9829 -13843 9159 -14357 8543 -14769 7770 -15232 7101 -15695 6330 -16004 5557 -16364 4735 -16776 3911 -17084 3139 -17445 2264 -17651 1389 -17907 412 -18217 31081 0 -514 19760 -1493 19555 -2470 19194 -3344 18886 -4323 18628 -5146 18217 -6072 17908 -6844 17444 -7719 17033 -8491 16570 -9263 16107 -9983 15592 -10755 15078 -11372 14460 -12093 13946 -12659 13328 -13380 12761 -13945 12093 -14563 11373 -15026 10703 -15541 10035 -16158 9211 -16570 8491 -16982 7719 -17445 6844 -17907 6072 -18217 5146 -18628 4323 -18886 3345 -19194 2470 -19555 1492 -19760 515 0 0zm-384248 -384299l31082 0 0 0 412 18217 1389 17907 2264 17651 3139 17445 3911 17084 4734 16776 5558 16364 6330 16004 7101 15695 7770 15232 8491 14769 9211 14357 9829 13843 10498 13328 11064 12813 11784 12299 12196 11733 12813 11063 13328 10447 13894 9880 14357 9211 14769 8491 15232 7770 15644 7102 16004 6329 16364 5558 16775 4734 17085 3911 17445 3139 17650 2264 17908 1390 18217 411 0 31082 -19761 -515 -19554 -1492 -19195 -2470 -18885 -3345 -18629 -4323 -18216 -5146 -17908 -6072 -17445 -6844 -16981 -7719 -16570 -8491 -16107 -9211 -15592 -10035 -15026 -10703 -14563 -11373 -13946 -12093 -13328 -12761 -12710 -13328 -12093 -13946 -11424 -14460 -10652 -15078 -10035 -15592 -9211 -16107 -8491 -16570 -7719 -17033 -6844 -17444 -6072 -17908 -5146 -18217 -4323 -18628 -3345 -18886 -2470 -19194 -1492 -19555 -515 -19760 0 0zm384248 -384247l0 31081 0 0 -18217 412 -17908 1389 -17650 2264 -17445 3139 -17085 3911 -16775 4735 -16364 5557 -16004 6330 -15644 7101 -15232 7771 -14769 8490 -14357 9212 -13894 9828 -13328 10498 -12813 11064 -12248 11733 -11732 12247 -11064 12813 -10498 13328 -9829 13894 -9211 14357 -8491 14769 -7770 15232 -7101 15644 -6330 16004 -5558 16364 -4734 16776 -3911 17084 -3139 17445 -2264 17650 -1389 17908 -412 18217 -31082 0 515 -19760 1492 -19555 2470 -19194 3345 -18886 4323 -18628 5146 -18217 6072 -17908 6844 -17444 7719 -16982 8491 -16570 9211 -16107 10035 -15592 10652 -15026 11424 -14563 12093 -13946 12762 -13276 13276 -12762 13946 -12093 14563 -11424 15026 -10652 15592 -10035 16107 -9211 16570 -8491 16981 -7719 17445 -6844 17908 -6072 18216 -5146 18629 -4322 18885 -3345 19195 -2470 19554 -1493 19761 -514 0 0z"/>
     <path id="1" class="fil4" d="M2958452 2872617c203676,0 368758,165082 368758,368707 0,203676 -165134,368758 -368758,368758 -203625,0 -368707,-165082 -368707,-368758 0,-203625 165082,-368707 368707,-368707z"/>
    </g>
    <ellipse class="fil3" cx="2958468" cy="3241345" rx="345161" ry="345162"/>
    <g>
     <path class="fil1" d="M2933545 3049278c0,-5764 7822,-10447 17445,-10447 9623,0 17445,4683 17445,10447l-34890 0zm0 221223l0 -221223 34890 0 0 221223 -34890 0zm34890 0c0,5764 -7822,10447 -17445,10447 -9623,0 -17445,-4683 -17445,-10447l34890 0z"/>
    </g>
    <path class="fil2" d="M2935604 3274978c-4066,-4065 -1853,-12916 4940,-19709 6792,-6792 15643,-9005 19709,-4940l156385 156385c4117,4117 1904,12917 -4889,19709 -6792,6793 -15643,9006 -19709,4940l-156436 -156385z"/>
   </g>
  </g>
 </g>
</svg>
