<?xml version="1.0" encoding="UTF-8"?>
<!DOCTYPE svg PUBLIC "-//W3C//DTD SVG 1.1//EN" "http://www.w3.org/Graphics/SVG/1.1/DTD/svg11.dtd">
<!-- Creator: CorelDRAW X7 -->
<svg xmlns="http://www.w3.org/2000/svg" xml:space="preserve" width="50px" height="50px" version="1.1" style="shape-rendering:geometricPrecision; text-rendering:geometricPrecision; image-rendering:optimizeQuality; fill-rule:evenodd; clip-rule:evenodd"
viewBox="0 0 1060248 1060248"
 xmlns:xlink="http://www.w3.org/1999/xlink">
 <defs>
  <style type="text/css">
   <![CDATA[
    .fil0 {fill:none}
    .fil1 {fill:#2D2D2D;fill-rule:nonzero}
   ]]>
  </style>
 </defs>
 <g id="Layer_x0020_1">
  <metadata id="CorelCorpID_0Corel-Layer"/>
  <rect class="fil0" x="29" y="29" width="1060191" height="1060191"/>
  <path class="fil1" d="M530124 97399c119464,0 227682,48462 305973,126752 78290,78290 126751,186509 126751,305973 0,119464 -48461,227682 -126751,305973 -78291,78290 -186509,126751 -305973,126751 -119464,0 -227683,-48461 -305973,-126751 -78290,-78291 -126752,-186509 -126752,-305973 0,-119464 48462,-227683 126752,-305973 78290,-78290 186509,-126752 305973,-126752zm195575 281354l-282305 282305 -108845 -108819c-3757,-3782 -9868,-3782 -13625,0 -3781,3756 -3781,9842 0,13649l115657 115607c1854,1903 4333,2830 6813,2830 2479,0 4934,-927 6837,-2830l289092 -289093c3807,-3756 3807,-9892 0,-13649 -3756,-3757 -9867,-3757 -13624,0l0 0 0 0zm98176 -142380c-75135,-75134 -179021,-121643 -293751,-121643 -114730,0 -218616,46509 -293751,121643 -75134,75135 -121643,179021 -121643,293751 0,114730 46509,218616 121643,293751 75135,75134 179021,121642 293751,121642 114730,0 218616,-46508 293751,-121642 75134,-75135 121642,-179021 121642,-293751 0,-114730 -46508,-218616 -121642,-293751z"/>
 </g>
</svg>
