<?xml version="1.0" encoding="UTF-8"?>
<!DOCTYPE svg PUBLIC "-//W3C//DTD SVG 1.1//EN" "http://www.w3.org/Graphics/SVG/1.1/DTD/svg11.dtd">
<!-- Creator: CorelDRAW X7 -->
<svg xmlns="http://www.w3.org/2000/svg" xml:space="preserve" width="50px" height="50px" version="1.1" style="shape-rendering:geometricPrecision; text-rendering:geometricPrecision; image-rendering:optimizeQuality; fill-rule:evenodd; clip-rule:evenodd"
viewBox="0 0 5000000 5000000"
 xmlns:xlink="http://www.w3.org/1999/xlink">
 <defs>
  <style type="text/css">
   <![CDATA[
    .fil0 {fill:none}
    .fil2 {fill:#ffffff;}
    .fil1 {fill:#ffffff;fill-rule:nonzero}
   ]]>
  </style>
 </defs>
 <g id="Layer_x0020_1">
  <metadata id="CorelCorpID_0Corel-Layer"/>
  <g id="_2317565510096">
   <rect class="fil0" x="59" y="59" width="4999882" height="4999882"/>
   <g>
    <g>
     <path class="fil1" d="M4981929 2500000l-213776 0 0 0 -2952 -116809 -8740 -115156 -14528 -113502 -19960 -111849 -25275 -109604 -30472 -107597 -35669 -105353 -40629 -102872 -45354 -100510 -50078 -97794 -54684 -94959 -58936 -92007 -63306 -88935 -67322 -85629 -71337 -82321 -75117 -78779 -78779 -75116 -82321 -71338 -85629 -67322 -88935 -63188 -92007 -59054 -94959 -54566 -97794 -50078 -100510 -45354 -102872 -40629 -105471 -35669 -107597 -30471 -109604 -25394 -111613 -19842 -113620 -14527 -115156 -8740 -116809 -2953 0 -213776 127675 3189 126022 9685 124014 15708 122242 21732 120234 27755 117754 33543 115392 38976 112794 44409 109959 49841 107006 54803 103935 59763 100510 64487 97440 69093 93660 73700 90116 77951 86101 82204 82204 86101 77951 90116 73700 93660 69211 97204 64606 100746 59644 103935 54803 107007 49841 109958 44409 112794 38976 115274 33543 117990 27637 119998 21850 122242 15709 124132 9684 126022 3189 127675 0 0zm-2481811 2481811l0 -213776 0 0 116809 -2953 115156 -8740 113502 -14527 111731 -19960 109722 -25275 107479 -30472 105471 -35669 102872 -40629 100510 -45354 97794 -50078 94959 -54566 91889 -59054 89053 -63306 85629 -67322 82321 -71338 78779 -75116 75117 -78779 71337 -82321 67322 -85747 63306 -88936 58936 -92006 54684 -94959 50078 -97794 45354 -100510 40629 -102873 35669 -105352 30472 -107479 25275 -109722 19960 -111731 14528 -113502 8740 -115156 2952 -116809 213776 0 -3189 127675 -9684 126022 -15709 124132 -21850 122124 -27637 120116 -33543 117872 -38976 115274 -44409 112793 -49841 109959 -54803 107006 -59644 103936 -64606 100746 -69211 97204 -73700 93778 -77951 90116 -82204 86101 -86101 82204 -90116 77951 -93660 73700 -97322 69211 -100628 64488 -103935 59762 -107006 54803 -109959 49841 -112794 44409 -115392 38976 -117872 33543 -120116 27637 -122124 21850 -124132 15708 -126022 9685 -127675 3189 0 0zm-2481811 -2481811l213776 0 0 0 2953 116809 8740 115156 14527 113502 19960 111731 25276 109722 30471 107479 35669 105471 40629 102872 45354 100510 50078 97794 54566 94959 59054 91888 63306 89054 67322 85629 71338 82321 75117 78779 78778 75116 82321 71338 85629 67322 89054 63306 91888 59054 94959 54566 97794 50078 100510 45354 102873 40629 105470 35669 107479 30472 109723 25275 111730 19960 113502 14527 115156 8740 116809 2953 0 213776 -127675 -3189 -126022 -9685 -124132 -15708 -122124 -21850 -120116 -27637 -117872 -33543 -115392 -38976 -112793 -44409 -109959 -49841 -107006 -54803 -103936 -59762 -100628 -64488 -97322 -69211 -93659 -73700 -90117 -77951 -86101 -82204 -82204 -86101 -77951 -90116 -73700 -93660 -69211 -97322 -64487 -100628 -59763 -103935 -54803 -107007 -49841 -109958 -44409 -112794 -38976 -115392 -33543 -117872 -27637 -120116 -21850 -122124 -15708 -124132 -9685 -126022 -3189 -127675 0 0zm2481811 -2481693l0 213776 0 0 -116809 2953 -115156 8740 -113620 14527 -111612 19842 -109605 25394 -107597 30471 -105470 35669 -102873 40629 -100510 45354 -97794 50078 -94959 54566 -92006 59054 -88936 63188 -85629 67322 -82321 71338 -78778 75116 -75117 78779 -71338 82321 -67322 85747 -63306 88936 -58936 92006 -54684 94959 -50078 97794 -45354 100392 -40629 102872 -35669 105471 -30471 107479 -25276 109722 -19960 111731 -14527 113502 -8740 115156 -2953 116809 -213776 0 3189 -127675 9685 -126022 15708 -124132 21850 -122124 27637 -120116 33543 -117872 38976 -115392 44409 -112794 49841 -109840 54803 -107006 59644 -103936 64606 -100746 69211 -97204 73700 -93778 77951 -90116 82204 -86101 86101 -82204 90117 -77951 93659 -73700 97440 -69093 100510 -64487 103936 -59763 107006 -54803 109959 -49841 112793 -44409 115392 -38976 117754 -33543 120234 -27755 122243 -21732 124013 -15708 126022 -9685 127675 -3189 0 0z"/>
    </g>
    <g>
     <path id="Shape" class="fil1" d="M1878986 3342467l1898120 -1898002 75589 75590 -1898119 1898001 -75590 0 0 -75589zm75590 75589l-37795 37795 -37795 -37795 75590 0zm-731682 -807388l731682 731799 -75590 75589 -731681 -731799 -118 -118 75707 -75471zm-75589 75589l-118 -118 0 0 118 118zm-15945 0l-75589 -75589 -118 118 4370 -4370 4724 -3898 4134 -3307 5669 -3898 5315 -3188 4724 -2599 4370 -2244 5788 -2598 5314 -2008 4961 -1654 6614 -1889 5315 -945 4960 -945 6142 -827 6260 -354 5079 -118 5078 118 6142 354 6141 827 5315 945 4961 945 6732 1889 5079 1772 4724 1772 5787 2480 5315 2598 4606 2717 4843 2952 5197 3544 4724 3661 5079 4370 3897 3898 -75825 75353 -827 -827 118 118 -472 -354 -237 -236 -590 -355 -827 -354 -354 -236 -118 -118 -1181 -355 -827 -354 590 236 -945 -236 -826 -236 -237 118 0 -118 -1062 118 -1063 -118 -119 118 0 -118 -1181 236 -826 236 708 -236 -1181 472 -590 119 118 0 -1299 590 -945 473 -118 118 236 -118 -827 708 -472 354 -355 355 -118 118zm118 -118l0 0 -118 118 118 -118zm-118 16181l-75589 75589 118 118 -4370 -4370 -3898 -4724 -3307 -4134 -3897 -5669 -3189 -5315 -2599 -4724 -2244 -4370 -2598 -5788 -2008 -5315 -1653 -4960 -1890 -6614 -945 -5315 -945 -4961 -709 -6141 -472 -6142 -118 -5197 118 -5078 472 -6142 709 -6142 945 -4960 945 -5079 1890 -6968 1771 -5079 1772 -4724 2480 -5788 2480 -4842 2599 -4724 3425 -5788 3661 -5078 3307 -4252 3898 -4606 4252 -4370 75589 75589 -472 590 -355 355 -708 945 -118 118 118 -355 -473 945 -354 827 -118 118 -354 1181 -355 827 236 -827 -236 1063 -236 1181 0 0 0 0 118 1063 -118 1181 0 0 0 0 236 1181 236 827 -236 -708 473 1181 118 590 0 -118 590 1299 473 945 118 118 -118 -236 708 827 355 472 354 355 118 118zm-118 -118l0 0 118 118 -118 -118zm701918 853214l-777389 -777507 75589 -75589 777389 777507 -75471 75708 -118 -119zm118 119l0 0 -118 -119 118 119zm83503 -72401l0 107006 0 0 -3543 -118 -1536 -118 -3661 -118 -3307 -354 -1654 -118 -3779 -591 -1536 -236 -3897 -591 -3425 -827 -1063 -236 -3425 -826 -3898 -1182 -1417 -472 -945 -236 -3898 -1299 -5669 -2363 -591 -354 -1535 -590 -3779 -1772 -1418 -709 -3897 -2008 -2717 -1653 -2008 -1181 -2244 -1536 -2244 -1417 -3897 -2834 -1299 -1063 -1300 -945 -4488 -3662 -1181 -1181 -1299 -1063 -2953 -2952 75353 -75826 -590 -591 1299 1063 1181 1181 -1890 -1535 1300 945 1299 1063 -1299 -945 354 236 590 355 827 472 -118 0 -1063 -591 1417 709 -944 -354 1535 590 2244 1063 -2835 -1181 -826 -354 2126 709 1417 472 -827 -236 -354 -118 2008 472 -591 -118 -827 -118 1536 236 -709 -118 1654 118 -237 118 -590 -118 1535 118 -472 -118 0 0zm8149 -3307l75590 75589 -118 119 -2953 2952 -1299 1063 -1181 1181 -4489 3662 -1299 945 -1299 1063 -4842 3425 -1418 826 -1299 945 -2834 1772 -2717 1653 -3898 2008 -2125 1063 -3189 1418 -591 236 -2244 1063 -4961 2008 -3188 1063 -1536 472 -1417 472 -3898 1182 -3425 826 -1535 355 -3544 708 -3425 591 -1535 236 -3543 591 -1536 118 -3779 354 -3544 118 -1535 118 -3543 118 0 -107006 -473 118 1536 -118 -236 118 -709 -118 1535 -118 -472 118 1535 -236 -354 118 -472 0 1535 -354 -354 118 -827 236 1417 -472 1536 -473 -355 118 -1889 827 590 -354 2244 -945 -118 0 709 -355 -1063 591 -118 0 0 118 1299 -945 1417 -826 -2244 1535 1299 -1063 1299 -945 -1889 1535 1181 -1181 1299 -1063 -591 591 -118 118zm75590 75589l-118 119 0 0 118 -119zm1943709 -1943827l-1943709 1943827 -75590 -75589 1943710 -1943828 0 0 75589 75590zm-75707 -91652l75825 -75353 -118 -119 4134 4252 3543 4134 4252 5433 3307 4961 2953 4488 2953 5551 2598 5197 2126 4960 2008 5079 1890 5905 1653 6142 945 5079 945 4960 708 6142 473 5078 236 6142 -236 6260 -473 5078 -708 6142 -945 4961 -945 5078 -1653 6142 -1890 5905 -2008 5079 -2126 4961 -2598 5196 -2953 5551 -2953 4489 -3307 4960 -4252 5433 -3543 4134 -4134 4252 -75589 -75590 354 -472 945 -1063 -236 472 236 -472 591 -945 118 -118 236 -472 236 -709 354 -827 0 0 0 0 237 -1063 236 -1181 0 0 0 -1063 0 -118 0 0 0 -1063 0 0 -236 -1181 -237 -1063 0 0 0 0 -354 -827 -236 -708 -236 -473 -118 -118 -591 -945 -236 -472 236 472 -945 -1063 -354 -472 -118 -118zm118 118l-118 -118 0 0 118 118zm-53858 -91298l0 107006 -37912 -91179 4370 -4370 4724 -3898 4134 -3307 5669 -3898 5315 -3189 4724 -2598 4370 -2244 5788 -2598 5314 -2008 4961 -1654 6614 -1889 5315 -945 4960 -945 6142 -827 6260 -354 5078 -118 5079 118 6260 354 6142 827 4960 945 5315 945 6614 1889 4961 1654 5314 2008 5788 2598 4370 2244 4724 2598 5315 3189 5669 3898 4134 3307 4724 3898 4370 4370 -75825 75353 -355 -355 -472 -354 -827 -709 236 119 -118 -119 -945 -472 -1299 -591 118 0 -590 -118 -1181 -472 708 236 -826 -236 -1181 -236 0 118 -119 -118 -1063 118 -1062 -118 -119 118 0 -118 -1181 236 -826 236 708 -236 -1181 472 -590 118 118 0 -1299 591 -945 472 -118 119 236 -119 -827 709 -472 354 -355 355 -37913 -91180zm0 107006l-128620 0 90708 -91179 37912 91179zm0 -53503l0 0 0 0 0 0 0 -53503 0 53503zm0 53503l-128620 0 90708 -91179 37912 91179zm119 0l-119 0 0 -107006 119 0 37794 91298 -37794 15708zm0 -107006l129092 0 -91298 91298 -37794 -91298z"/>
     <path id="1" class="fil2" d="M3814901 1482260l-1898120 1898002 -731682 -731800c-25157,-25393 -66258,-25393 -91534,0 -25393,25394 -25393,66377 0,91652l777390 777508c12755,12637 29291,19015 45826,19015 16653,0 33188,-6378 45944,-19015l1943710 -1943828c25275,-25275 25275,-66259 0,-91534 -25276,-25393 -66377,-25393 -91653,0l0 0 119 0z"/>
    </g>
   </g>
  </g>
 </g>
</svg>
