<?xml version="1.0" encoding="UTF-8"?>
<!DOCTYPE svg PUBLIC "-//W3C//DTD SVG 1.1//EN" "http://www.w3.org/Graphics/SVG/1.1/DTD/svg11.dtd">
<!-- Creator: CorelDRAW X7 -->
<svg xmlns="http://www.w3.org/2000/svg" xml:space="preserve" width="50px" height="50px" version="1.1" style="shape-rendering:geometricPrecision; text-rendering:geometricPrecision; image-rendering:optimizeQuality; fill-rule:evenodd; clip-rule:evenodd"
viewBox="0 0 5000000 5000000"
 xmlns:xlink="http://www.w3.org/1999/xlink">
 <defs>
  <style type="text/css">
   <![CDATA[
    .fil0 {fill:none}
    .fil1 {fill:black;fill-rule:nonzero}
   ]]>
  </style>
 </defs>
 <g id="Layer_x0020_1">
  <metadata id="CorelCorpID_0Corel-Layer"/>
  <rect class="fil0" width="5000000" height="5000000"/>
  <path class="fil1" d="M3761339 3056789c-159926,160045 -343594,285600 -542852,373240 -187210,82326 -388595,131579 -597538,145162l0 461472 572616 0c159100,0 158982,241661 0,241661l-572616 0 0 596593c0,154611 -241543,164297 -241543,0l0 -596357 -572735 0c-159218,0 -159454,-241661 0,-241661l572735 0 0 -461708c-457456,-30709 -867311,-235165 -1164840,-547812 -305561,-321388 -493244,-757465 -493244,-1237598 0,-239417 46301,-472456 135240,-687305 88232,-213196 218747,-408557 387532,-574389 170675,-167958 367217,-299418 580885,-388358 210715,-87641 438439,-134296 675257,-134296 491354,0 936171,200203 1257796,523954 321624,323868 520646,771284 520646,1265827 0,238236 -45828,468794 -133232,681990 -87169,212723 -221464,416942 -384107,579585zm-2350940 -2356846c-145044,145162 -258906,315837 -335680,501867 -76420,184848 -116933,385878 -116933,593404 0,447298 173628,820183 440801,1087357 146462,146461 321034,261386 510253,339460 189100,78073 394028,119885 600727,119885 378319,0 763607,-140201 1074837,-451431l118 0c145281,-145162 258788,-315719 335680,-501630 76302,-184849 116933,-385997 116933,-593641 0,-426746 -172446,-813805 -450723,-1093971 -278158,-280167 -662501,-453794 -1086176,-453794 -205164,0 -405013,40749 -589152,117169 -185321,76892 -355759,190518 -500685,335325z"/>
  <g id="_2430548561840">
  </g>
  <g id="_2430548561776">
  </g>
  <g id="_2430548560400">
  </g>
  <g id="_2430548561104">
  </g>
  <g id="_2430548561616">
  </g>
  <g id="_2430548562736">
  </g>
  <g id="_2430548562928">
  </g>
  <g id="_2430548563888">
  </g>
  <g id="_2430548563664">
  </g>
  <g id="_2430548563344">
  </g>
  <g id="_2430548562448">
  </g>
  <g id="_2430548566256">
  </g>
  <g id="_2430548566032">
  </g>
  <g id="_2430548565072">
  </g>
  <g id="_2430548565680">
  </g>
 </g>
</svg>
