<?xml version="1.0" encoding="UTF-8"?>
<!DOCTYPE svg PUBLIC "-//W3C//DTD SVG 1.1//EN" "http://www.w3.org/Graphics/SVG/1.1/DTD/svg11.dtd">
<!-- Creator: CorelDRAW X7 -->
<svg xmlns="http://www.w3.org/2000/svg" xml:space="preserve" width="50px" height="50px" version="1.1" style="shape-rendering:geometricPrecision; text-rendering:geometricPrecision; image-rendering:optimizeQuality; fill-rule:evenodd; clip-rule:evenodd"
viewBox="0 0 5000118 5000118"
 xmlns:xlink="http://www.w3.org/1999/xlink">
 <defs>
  <style type="text/css">
   <![CDATA[
    .fil0 {fill:none}
    .fil1 {fill:black;fill-rule:nonzero}
   ]]>
  </style>
 </defs>
 <g id="Layer_x0020_1">
  <metadata id="CorelCorpID_0Corel-Layer"/>
  <g id="_2430548544656">
   <rect class="fil0" width="5000000" height="5000000"/>
   <path class="fil1" d="M3666375 0l1197912 0c74294,0 135831,60947 135831,135359l-118 1198266c0,174100 -271072,180950 -271072,0l0 -870500 -1082868 1083223c168430,196423 294694,402060 385287,645138 86106,230913 131343,477181 131343,727110 0,573679 -233747,1093971 -610413,1470873 -376901,377020 -897311,610649 -1470755,610649 -573679,0 -1093971,-233511 -1470991,-610531 -377020,-377020 -610531,-897312 -610531,-1470991 0,-573562 233629,-1093853 610413,-1470755 580648,-580648 1438510,-762544 2198337,-479307 236346,88232 455447,218984 644902,385643l1082869 -1082987 -870146 0c-174100,0 -180950,-271190 0,-271190zm81971 2214519c-283591,-672778 -940423,-1103893 -1666588,-1103893 -856444,0 -1602806,600255 -1773599,1447840 -47481,235283 -47481,484740 0,720023 46892,232566 140202,453794 272489,650454 129926,192762 298120,360602 490764,490527 197014,132642 417651,225598 650571,272607 235756,47600 483441,47364 719196,0 464542,-93664 875933,-369579 1141217,-763134 64963,-96499 120831,-198904 165950,-305916 47246,-111499 82916,-226660 106539,-343829 71695,-355996 34962,-729944 -106539,-1064679z"/>
  </g>
 </g>
</svg>
