<?xml version="1.0" encoding="UTF-8"?>
<!DOCTYPE svg PUBLIC "-//W3C//DTD SVG 1.1//EN" "http://www.w3.org/Graphics/SVG/1.1/DTD/svg11.dtd">
<!-- Creator: CorelDRAW X7 -->
<svg xmlns="http://www.w3.org/2000/svg" xml:space="preserve" width="50px" height="50px" version="1.1" style="shape-rendering:geometricPrecision; text-rendering:geometricPrecision; image-rendering:optimizeQuality; fill-rule:evenodd; clip-rule:evenodd"
viewBox="0 0 434513 434523"
 xmlns:xlink="http://www.w3.org/1999/xlink">
 <defs>
  <style type="text/css">
   <![CDATA[
    .fil0 {fill:none}
    .fil1 {fill:#ffffff}
   ]]>
  </style>
 </defs>
 <g id="Layer_x0020_1">
  <metadata id="CorelCorpID_0Corel-Layer"/>
  <rect class="fil0" x="-5" y="-4" width="434523" height="434523"/>
  <path class="fil1" d="M339064 328379l66083 0c2001,0 3838,-821 5163,-2125l-11 -10c1304,-1304 2135,-3151 2135,-5153l0 -157230 -84599 0c-11712,0 -22346,-4773 -30034,-12461l0 -20c-7677,-7699 -12461,-18333 -12461,-30034 0,-11712 4773,-22346 12461,-30034 7688,-7688 18322,-12461 30034,-12461l84599 0 0 -15437c0,-2002 -831,-3839 -2135,-5143 -1303,-1304 -3151,-2135 -5152,-2135l-375781 0c-2001,0 -3849,831 -5152,2135 -1304,1304 -2135,3141 -2135,5143l0 257677c0,2012 831,3849 2135,5153 1303,1304 3151,2135 5152,2135l65960 0c-1140,-6744 -1735,-13662 -1735,-20724 0,-34119 13847,-65045 36202,-87401 22356,-22356 53283,-36203 87402,-36203 34119,0 65046,13847 87401,36203 22356,22356 36203,53282 36203,87401 0,7062 -595,13980 -1735,20724zm-238493 20313l-71205 0c-7605,0 -14524,-3100 -19512,-8088 -4999,-4999 -8099,-11907 -8099,-19513l0 -257677c0,-7606 3100,-14514 8099,-19513 4988,-4989 11907,-8088 19512,-8088l7996 0 4804 0 0 -8315c0,-3243 667,-6374 1848,-9227 1232,-2956 3048,-5656 5265,-7883l11 -11 10 -10 626 -626 31 0c2094,-1930 4547,-3521 7226,-4640 2833,-1180 5984,-1847 9228,-1847l6425 0 286511 0 8755 0 21 0c3254,0 6395,667 9238,1847 2966,1242 5666,3059 7873,5266 2206,2207 4023,4896 5255,7873 1180,2853 1848,5994 1848,9248l0 10 0 8315 1909 0 10901 0 20 0c7586,0 14483,3110 19472,8088l20 0c4978,4978 8078,11886 8068,19492l21 0 0 21 0 257677c0,7606 -3100,14524 -8089,19513l-20 0c-4999,4978 -11897,8088 -19492,8088l-71328 0c-6200,17624 -16289,33432 -29223,46365 -22355,22356 -53282,36202 -87401,36202 -34119,0 -65046,-13846 -87402,-36202 -12933,-12933 -23023,-28741 -29222,-46365zm119262 -105887l48735 14750 41 20c1899,595 3511,1776 4640,3295l10 -10c1150,1539 1807,3449 1807,5460 0,14473 -195,28094 -1560,40473 -1407,12625 -4055,23926 -8951,33421 -9926,19307 -25805,25240 -39836,30485l-72 21 0 10 -4209 1581 -379 113 -852 236 -760 143 -872 83 -801 0 -862 -83 -729 -143 -862 -236 -390 -113 -4209 -1581 0 -10 -41 -11c-14041,-5245 -29941,-11198 -39856,-30495 -4907,-9495 -7555,-20806 -8951,-33421 -1365,-12379 -1560,-26000 -1560,-40473 0,-2011 657,-3921 1806,-5460l11 10c1119,-1519 2740,-2700 4639,-3295l41 -20 48736 -14750 31 0c851,-247 1755,-390 2607,-390 862,0 1765,143 2617,390l31 0zm15817 102952c4968,-3151 9361,-7421 12687,-13888 3665,-7134 5769,-16177 6949,-26523 1119,-9834 1437,-20714 1499,-32261l-39600 -11999 -39590 11999c61,11547 380,22427 1498,32271 1181,10346 3285,19389 6949,26513 3347,6487 7730,10757 12677,13908 5132,3275 11178,5533 17378,7832l0 -10 1098 410 1047 -390c6200,-2299 12266,-4567 17408,-7842l0 -20zm56650 -113206c-19215,-19215 -45780,-31112 -75105,-31112 -29325,0 -55890,11897 -75105,31112 -19215,19214 -31111,45779 -31111,75104 0,29326 11896,55890 31111,75105 19215,19215 45780,31111 75105,31111 29325,0 55890,-11896 75105,-31111 19215,-19215 31111,-45779 31111,-75105 0,-29325 -11896,-55890 -31111,-75104zm38019 -126602c8715,0 15787,7072 15787,15787 0,8735 -7072,15807 -15787,15807 -8735,0 -15807,-7072 -15807,-15807 0,-8715 7072,-15787 15807,-15787zm-10 9864c3274,0 5933,2659 5933,5933 0,3275 -2659,5933 -5933,5933 -3275,0 -5933,-2658 -5933,-5933 0,-3274 2658,-5933 5933,-5933zm-267676 -80000l309247 0 0 -8315c0,-523 -113,-1026 -288,-1467 -185,-432 -482,-852 -821,-1191l0 -21c-339,-349 -770,-636 -1201,-811l-10 0c-421,-174 -934,-277 -1458,-277l-301691 0c-534,0 -1037,103 -1458,277l-10 0c-431,175 -862,462 -1201,811l0 21c-339,339 -636,759 -821,1191 -175,441 -288,944 -288,1467l0 8315zm265202 107714l84599 0 0 -44373 -84599 0c-6107,0 -11660,2494 -15674,6508 -4013,4013 -6507,9566 -6507,15684 0,6107 2494,11660 6507,15674 4014,4013 9567,6507 15674,6507z"/>
 </g>
</svg>
