<?xml version="1.0" encoding="UTF-8"?>
<!DOCTYPE svg PUBLIC "-//W3C//DTD SVG 1.1//EN" "http://www.w3.org/Graphics/SVG/1.1/DTD/svg11.dtd">
<!-- Creator: CorelDRAW X7 -->
<svg xmlns="http://www.w3.org/2000/svg" xml:space="preserve" width="50px" height="50px" version="1.1" style="shape-rendering:geometricPrecision; text-rendering:geometricPrecision; image-rendering:optimizeQuality; fill-rule:evenodd; clip-rule:evenodd"
viewBox="0 0 559364 559377"
 xmlns:xlink="http://www.w3.org/1999/xlink">
 <defs>
  <style type="text/css">
   <![CDATA[
    .fil0 {fill:none}
    .fil1 {fill:#ffffff}
   ]]>
  </style>
 </defs>
 <g id="Layer_x0020_1">
  <metadata id="CorelCorpID_0Corel-Layer"/>
  <rect class="fil0" x="-7" y="-5" width="559377" height="559377"/>
  <path id="Shape" class="fil1" d="M203941 210891c-1586,661 -3290,991 -4942,991 -1678,0 -3396,-343 -4955,-991l0 -13c-1520,-621 -2960,-1559 -4163,-2762l0 -13 -60505 -60506 -27 -26 0 -13c-2484,-2511 -3752,-5814 -3752,-9065 0,-3264 1268,-6567 3752,-9078l0 -13 27 -26c2510,-2511 5827,-3766 9104,-3766 3303,0 6607,1255 9117,3766l0 13 60506 60506 13 13c2511,2510 3766,5814 3766,9091 0,3277 -1255,6594 -3766,9104l-13 13 -13 -13c-1216,1229 -2643,2167 -4149,2788zm-114920 77895c-2326,-2339 -3766,-5563 -3766,-9104 0,-3541 1440,-6765 3766,-9104l0 -13c2326,-2326 5563,-3766 9117,-3766l100861 0c18684,0 35637,-7611 47913,-19887l13 0c12263,-12249 19874,-29216 19874,-47913l0 -181530c0,-3555 1440,-6792 3766,-9118l0 13c2325,-2339 5563,-3792 9117,-3792 3555,0 6792,1467 9104,3792l14 -13c2325,2326 3765,5563 3765,9118l0 181530c0,18697 7612,35664 19874,47913l13 0c12276,12276 29229,19887 47913,19887l100861 0c3554,0 6791,1440 9117,3766l0 13c2326,2339 3766,5563 3766,9104 0,3541 -1440,6765 -3766,9104l0 14c-2326,2325 -5563,3765 -9117,3765l-100861 0c-18684,0 -35637,7612 -47913,19887l-13 0c-12262,12249 -19874,29216 -19874,47913l0 181544c0,3541 -1440,6765 -3765,9104l0 13c-2326,2326 -5563,3766 -9118,3766 -3554,0 -6792,-1440 -9117,-3766l0 -13c-2326,-2339 -3766,-5563 -3766,-9104l0 -181544c0,-18697 -7611,-35664 -19874,-47913l-13 0c-12276,-12275 -29229,-19887 -47913,-19887l-100861 0c-3554,0 -6791,-1440 -9117,-3765l0 -14zm205262 -23705c-5616,-5616 -10544,-11985 -14601,-18896 -4057,6924 -8985,13293 -14601,18909 -5616,5616 -11972,10531 -18896,14588 6924,4070 13280,8985 18896,14601 5616,5616 10544,11985 14601,18909 4057,-6911 8985,-13267 14614,-18909l0 -13c5616,-5616 11959,-10531 18883,-14588 -6924,-4057 -13280,-8985 -18896,-14601zm135705 -117484l-60505 60506 0 13c-1203,1203 -2643,2141 -4163,2762l0 13c-1572,661 -3277,991 -4955,991 -1665,0 -3356,-330 -4942,-991 -1506,-621 -2933,-1572 -4149,-2788l-13 13 -13 -13 0 -13c-2498,-2511 -3766,-5814 -3766,-9091 0,-3277 1255,-6581 3766,-9091l13 -13 60506 -60506 0 -13c2510,-2511 5827,-3766 9104,-3766 3303,0 6607,1255 9117,3766l27 26 0 13c2484,2511 3752,5814 3752,9065 0,3277 -1268,6567 -3752,9078l0 13 -27 26zm-78740 203677l13 -13 13 -13c2511,-2511 5814,-3766 9091,-3766 3277,0 6594,1255 9104,3766l14 13 60505 60506 27 26 0 13c2484,2511 3752,5814 3752,9065 0,3277 -1268,6567 -3752,9078l0 13 -27 26c-1202,1203 -2642,2141 -4162,2775l-13 13c-1586,661 -3290,991 -4929,991 -1678,0 -3383,-343 -4942,-991l0 -13c-1519,-621 -2973,-1572 -4175,-2775l-60506 -60505 -13 -14 0 -13c-2498,-2510 -3766,-5814 -3766,-9091 0,-3277 1255,-6580 3766,-9091zm-216825 55445l55458 -55458 14 -13 13 0c2510,-2498 5814,-3766 9091,-3766 3277,0 6580,1255 9091,3766l13 13 13 13c2511,2511 3766,5814 3766,9091 0,3277 -1255,6594 -3766,9104l-13 14 -55458 55458 0 13c-1202,1202 -2643,2127 -4175,2762l0 13c-1573,660 -3277,991 -4942,991 -1678,0 -3383,-344 -4942,-991l0 -13c-1533,-635 -2973,-1560 -4176,-2762 -2510,-2511 -3779,-5841 -3779,-9118 0,-3263 1282,-6593 3779,-9104l13 -13z"/>
 </g>
</svg>
