<?xml version="1.0" encoding="UTF-8"?>
<!DOCTYPE svg PUBLIC "-//W3C//DTD SVG 1.1//EN" "http://www.w3.org/Graphics/SVG/1.1/DTD/svg11.dtd">
<!-- Creator: CorelDRAW X7 -->
<svg xmlns="http://www.w3.org/2000/svg" xml:space="preserve" width="50px" height="50px" version="1.1" style="shape-rendering:geometricPrecision; text-rendering:geometricPrecision; image-rendering:optimizeQuality; fill-rule:evenodd; clip-rule:evenodd"
viewBox="0 0 764684 765190"
 xmlns:xlink="http://www.w3.org/1999/xlink">
 <defs>
  <style type="text/css">
   <![CDATA[
    .fil0 {fill:none}
    .fil1 {fill:#ffffff}
   ]]>
  </style>
 </defs>
 <g id="Layer_x0020_1">
  <metadata id="CorelCorpID_0Corel-Layer"/>
  <rect class="fil0" x="-9" y="247" width="764702" height="764702"/>
  <g id="_624892480">
   <path class="fil1" d="M382866 36074c97401,0 192002,53830 261097,127622l-89905 560c-11741,0 -22056,6196 -22056,17937 0,11742 9195,16493 20936,16493l127514 0c11741,0 21225,-9484 21225,-21226l0 -127495c0,-11742 -6503,-21731 -18245,-21731 -11741,0 -17233,9989 -17233,21731l-252 79897c-74135,-77820 -177732,-129862 -282955,-129862 -210897,0 -379361,170705 -379361,381601 0,11742 6503,21966 18244,21966 11724,0 18335,-8851 18335,-20593 18,-187413 155242,-346900 342656,-346900z"/>
   <path class="fil1" d="M381818 729116c-97401,0 -192002,-53830 -261096,-127622l89904 -560c11742,0 22056,-6196 22056,-17937 0,-11742 -9194,-16493 -20936,-16493l-127514 0c-11741,0 -21225,9484 -21225,21226l0 127495c0,11742 6503,21731 18245,21731 11741,0 17233,-9989 17233,-21731l253 -79897c74134,77820 177731,129862 282954,129862 210897,0 379361,-170705 379361,-381601 0,-11742 -6503,-21966 -18244,-21966 -11724,0 -18335,8851 -18335,20593 -18,187413 -155242,346900 -342656,346900z"/>
  </g>
 </g>
</svg>
