<?xml version="1.0" encoding="UTF-8"?>
<!DOCTYPE svg PUBLIC "-//W3C//DTD SVG 1.1//EN" "http://www.w3.org/Graphics/SVG/1.1/DTD/svg11.dtd">
<!-- Creator: CorelDRAW X7 -->
<svg xmlns="http://www.w3.org/2000/svg" xml:space="preserve" width="50px" height="50px" version="1.1" style="shape-rendering:geometricPrecision; text-rendering:geometricPrecision; image-rendering:optimizeQuality; fill-rule:evenodd; clip-rule:evenodd"
viewBox="0 0 279652 279652"
 xmlns:xlink="http://www.w3.org/1999/xlink">
 <defs>
  <style type="text/css">
   <![CDATA[
    .fil0 {fill:none}
    .fil1 {fill:white}
   ]]>
  </style>
 </defs>
 <g id="Layer_x0020_1">
  <metadata id="CorelCorpID_0Corel-Layer"/>
  <rect class="fil0" x="-3" y="-3" width="279658" height="279658"/>
  <path id="Shape" class="fil1" d="M227047 168094c-7524,-7531 -19779,-7531 -27303,0l-23776 23782c-2550,2550 -10490,3124 -22461,-1348 -12915,-4829 -26966,-14243 -38560,-25837 -11581,-11587 -20994,-25638 -25817,-38546 -4472,-11971 -3897,-19898 -1341,-22461l23769 -23776c3647,-3647 5655,-8489 5655,-13648 0,-5160 -2008,-10002 -5655,-13649l-44155 -44155c-7518,-7531 -19773,-7525 -27297,0l-13576 13576c-6,6 -13,6 -13,6 -7,7 -7,13 -13,20l-11885 11871c-29549,29569 -1942,103479 62845,168272 30408,30415 64284,53827 95373,65936 14950,5820 28505,8720 40218,8720 13668,0 24806,-3957 32674,-11825l11865 -11858c13,-13 20,-13 33,-20 6,-13 6,-19 13,-33l13562 -13562c7525,-7524 7525,-19772 0,-27297l-44155 -44168 0 0zm-180024 -152721c1856,-1857 4294,-2782 6731,-2782 2431,0 4869,925 6725,2782l44156 44155c3706,3706 3706,9744 0,13457l-10121 10120 -57619 -57612 10128 -10120 0 0zm191789 242729c-11534,11535 -34292,11858 -62421,912 -29860,-11633 -62534,-34273 -92004,-63736 -58881,-58881 -87657,-129600 -62844,-154432l8429 -8423 57632 57612 -6738 6739c-6091,6084 -6421,18048 -912,32799 5384,14382 15346,29312 28070,42048 12723,12730 27660,22699 42055,28076 14758,5517 26715,5199 32806,-898l6725 -6732 57619 57619 -8417 8416 0 0zm25474 -25466l-10127 10120 -57619 -57612 10134 -10127c3587,-3594 9863,-3594 13456,0l44156 44155c3706,3713 3706,9751 0,13464l0 0z"/>
  <path id="Shape_0" class="fil1" d="M144734 90881c11766,0 22824,4578 31135,12895 8324,8324 12908,19389 12908,31148 0,2702 2187,4889 4889,4889 2702,0 4895,-2187 4895,-4889 7,-14382 -5595,-27898 -15769,-38071 -10167,-10160 -23683,-15762 -38058,-15762 -2708,0 -4895,2186 -4895,4895 0,2708 2187,4895 4895,4895l0 0z"/>
  <path id="Shape_1" class="fil1" d="M144734 51733c22223,0 43119,8647 58821,24357 15716,15716 24371,36604 24371,58834 0,2702 2186,4889 4895,4889 2702,0 4888,-2187 4888,-4889 0,-24839 -9671,-48192 -27230,-65758 -17559,-17552 -40906,-27224 -65745,-27224 -2708,0 -4895,2187 -4895,4896 0,2702 2187,4895 4895,4895l0 0z"/>
  <path id="Shape_2" class="fil1" d="M144734 2794c-2708,0 -4895,2187 -4895,4896 0,2701 2187,4888 4895,4888 32681,0 63406,12730 86508,35825 23102,23109 35832,53834 35832,86521 0,2702 2186,4889 4895,4889 2702,0 4888,-2187 4888,-4889 0,-35297 -13740,-68486 -38699,-93437 -24951,-24952 -58127,-38693 -93424,-38693l0 0z"/>
 </g>
</svg>
