<?xml version="1.0" encoding="UTF-8"?>
<!DOCTYPE svg PUBLIC "-//W3C//DTD SVG 1.1//EN" "http://www.w3.org/Graphics/SVG/1.1/DTD/svg11.dtd">
<!-- Creator: CorelDRAW X7 -->
<svg xmlns="http://www.w3.org/2000/svg" xml:space="preserve" width="50px" height="50px" version="1.1" style="shape-rendering:geometricPrecision; text-rendering:geometricPrecision; image-rendering:optimizeQuality; fill-rule:evenodd; clip-rule:evenodd"
viewBox="0 0 279664 279658"
 xmlns:xlink="http://www.w3.org/1999/xlink">
 <defs>
  <style type="text/css">
   <![CDATA[
    .fil0 {fill:none}
    .fil1 {fill:white}
    .fil3 {fill:white;fill-rule:nonzero}
    .fil2 {fill:white;fill-rule:nonzero}
   ]]>
  </style>
 </defs>
 <g id="Layer_x0020_1">
  <metadata id="CorelCorpID_0Corel-Layer"/>
  <g id="_2299373889440">
   <rect class="fil0" x="2" y="1" width="279661" height="279658"/>
   <path class="fil1" d="M267093 146802c0,7887 0,15762 0,23643 0,5245 0,10497 0,15749 0,1599 0,3204 0,4816 0,370 0,733 0,1110 0,66 0,138 0,211 0,165 -7,324 -13,496 -53,601 -40,640 39,125 -46,311 -106,614 -178,925 -126,601 -337,1182 -555,1764 343,-905 -443,687 -542,852 -165,258 -330,502 -515,753 297,-410 264,-390 -99,46 -205,218 -416,430 -641,634 -79,80 -1222,945 -416,370 -496,357 -1024,641 -1566,912 -528,244 -555,258 -92,46 -298,106 -588,198 -886,278 -204,59 -1988,323 -1010,224 -377,47 -753,47 -1123,47l-4050 0 -158 0 -53 0 79 0c-2550,-11654 -12816,-20394 -25196,-20545 -2451,-27 -4836,310 -7082,964 -2074,535 -4089,1321 -5985,2339 -6626,3547 -11072,10048 -12651,17242l-18127 0c1639,1638 3270,3276 4915,4908 0,-14084 1929,-28162 1929,-42246 0,-20526 -1823,-41038 -1823,-61556 0,-2715 0,-5424 0,-8132 0,2107 -5014,4036 -1757,4915 16376,0 31405,0 47782,0 158,0 310,0 462,0 502,0 1018,19 1520,46 53,6 1658,211 667,59 1123,179 2220,476 3290,833 53,13 1499,594 601,198 436,191 859,409 1275,627 839,436 1625,952 2391,1507 -786,-562 430,356 463,396 363,310 693,634 1030,964 337,331 648,674 971,1031 205,238 403,476 595,713 -284,-369 -258,-317 79,152 555,780 1031,1606 1473,2445 225,422 430,865 621,1301 -396,-865 192,608 199,641 72,191 145,396 218,588 482,1321 951,2636 1433,3944 3554,9849 7128,19693 10689,29523 654,1823 1308,3640 1968,5450 906,2517 3317,4188 6052,3435 2424,-667 4340,-3528 3428,-6045 -2781,-7676 -5562,-15359 -8343,-23029 -1632,-4518 -3277,-9037 -4902,-13549 -1645,-4532 -3369,-8780 -6567,-12525 -4789,-5602 -12194,-8535 -19474,-8535 -3112,0 -6230,0 -9341,0 -10815,0 -21616,0 -32430,0 -2497,0 -4988,0 -7485,0 -2675,0 -4908,2232 -4908,4915 0,14077 0,28168 0,42246 0,20518 0,41037 0,61562 0,2709 0,5424 0,8133 0,2675 2233,4908 4908,4908l15947 0c1249,6923 5523,13093 11363,17097 7822,5337 18332,5318 26543,951 6838,-3647 11442,-10497 12849,-17995 4030,59 8073,-13 11825,-1606 6554,-2774 10187,-9486 10187,-16396 0,-9275 0,-18550 0,-27818 0,-5695 0,-11363 0,-17051 0,-2682 -2233,-4908 -4915,-4908 -2675,0 -4908,2226 -4908,4902zm-21338 59739l0 0 0 -7 0 7zm-192 -879l-26 -660 0 105c-53,3561 -826,6144 -3092,9467 -845,1229 595,-681 -350,462 -297,357 -608,687 -925,1024 -621,668 -1314,1275 -2021,1857 773,-635 -423,270 -482,317 -384,257 -780,489 -1176,733 -403,231 -806,436 -1216,647 -284,139 -568,265 -852,384 462,-199 423,-192 -119,19 -885,331 -1797,569 -2715,767 -79,20 -1619,271 -581,138 -483,60 -972,80 -1454,119 -978,53 -1962,14 -2933,-66 -1566,-132 925,172 -595,-99 -627,-106 -1235,-264 -1849,-429 -449,-126 -899,-278 -1335,-430 -1433,-488 813,410 -555,-211 -839,-377 -1645,-832 -2431,-1328 -389,-238 -759,-502 -1129,-779 799,581 -377,-324 -436,-370 -813,-701 -1546,-1480 -2240,-2293 -971,-1123 516,753 -350,-462 -264,-370 -509,-760 -753,-1150 -495,-792 -892,-1618 -1275,-2464 410,925 -152,-495 -172,-568 -152,-442 -277,-892 -403,-1354 -119,-456 -211,-918 -310,-1387 -86,-588 -106,-628 -33,-119 -152,-1546 680,-5913 482,-4426 46,-311 112,-621 172,-938 238,-1242 627,-2445 1090,-3614 -350,865 409,-779 489,-931 290,-549 614,-1071 951,-1592 172,-258 343,-503 528,-754 -303,384 -277,344 80,-99 383,-475 812,-918 1228,-1361 430,-436 892,-852 1361,-1248 436,-357 469,-390 93,-86 238,-192 495,-357 746,-535 1024,-700 2127,-1275 3250,-1777 -852,383 853,-278 1024,-324 602,-198 1216,-343 1830,-482l879 -159 -26 0 -27 0 -46 7 0 0 99 -7 0 0 7 0 26 -6 46 0 7 -13c674,-40 1347,-47 2021,-40 496,13 985,40 1473,92 595,60 641,60 133,0 317,60 627,113 938,179 4076,812 6738,2523 9546,5813 964,1136 -522,-746 343,469 357,509 674,1037 984,1566 232,403 436,819 648,1229 238,528 257,568 66,112 119,284 231,575 330,872 786,2127 932,3131 991,4783l0 59 0 7 0 53 0 46 0 7 0 59 0 20 0 39 0 53 0 7 0 59 13 33 0 33 0 60 0 0 7 310c0,185 7,364 26,555z"/>
   <path class="fil1" d="M249976 141946c-12102,0 -24218,0 -36334,0l7 7 4908 0 0 -22574 -4901 0 -14 14c4136,0 8265,0 12394,0 2226,0 4446,0 6665,0 463,0 918,0 1381,13 -984,-33 304,92 495,145 -958,-264 152,99 370,225 -872,-515 93,119 271,310 -694,-726 264,489 403,767 -409,-819 106,581 231,944 225,628 450,1256 674,1883 780,2187 1553,4380 2339,6567 1777,5000 3560,10001 5344,15009 344,971 687,1935 1031,2913 905,2517 3323,4182 6044,3429 2445,-668 4334,-3521 3435,-6045 -2906,-8165 -5813,-16324 -8720,-24489 -422,-1182 -779,-2411 -1222,-3594 -1764,-4763 -6051,-7907 -11184,-7907 -4241,0 -8482,0 -12723,0 -2405,0 -4816,0 -7221,0 -2682,0 -4915,2233 -4915,4915 0,10794 0,21589 0,32383 0,2676 2233,4915 4915,4915 12109,0 24225,0 36327,0 2682,0 4915,-2239 4915,-4915 0,-2682 -2233,-4915 -4915,-4915z"/>
   <path class="fil1" d="M243965 140764l-1943 2490 423 4776c6349,4426 4552,3145 6818,3746 608,0 1592,79 2735,-443 409,-211 726,-416 1076,-680l476 -443 436 -535c747,-1136 1249,-1949 899,-3521 -179,-773 -555,-1724 -1031,-3032l-5133 -2682 -4756 324z"/>
   <ellipse class="fil1" cx="271970" cy="146812" rx="4993" ry="5234"/>
   <g>
    <path class="fil1" d="M192562 65156c185,648 377,1156 0,0zm-9044 1744c-99,-4221 -3085,-7808 -7464,-7808 -1084,0 -2174,0 -3251,0 -47630,0 -95260,-99 -142877,-112 -12750,0 -17949,6401 -17916,18840l416 101424c0,3667 0,7459 0,11125 0,687 0,1374 0,2061 0,344 0,694 27,1031 -93,-1024 92,456 118,568 113,449 225,898 397,1328 -357,-932 191,409 244,508 225,390 449,786 714,1156 -582,-799 290,344 363,423 317,317 628,648 978,945 429,357 456,383 79,59 251,172 502,331 773,489 390,218 786,449 1216,621 -945,-396 475,106 554,132 463,113 912,232 1381,291 -839,-112 826,-26 1222,-26 2127,0 4592,-93 6719,-93l8185 0c1565,-7214 6018,-13734 12664,-17301l918 -463 13 -6 205 -100c3435,-1744 7293,-2715 11389,-2668 713,6 1433,46 2134,112 3924,284 7775,1460 11184,3594 6150,3844 10405,9902 11891,16832l363 0c19634,0 39261,0 58894,0l38467 0 0 0c0,-11329 0,-17744 0,-29067 0,-22494 0,-44981 0,-67462l0 -36433zm-106973 138234l7 -93 -7 -72 -13 138c-33,3568 -812,6151 -3078,9480 -846,1229 588,-687 -350,456 -291,357 -608,694 -919,1024 -621,667 -1321,1268 -2028,1856 773,-627 -416,271 -482,317 -383,258 -780,496 -1176,727 -396,238 -806,449 -1222,654 -271,132 -555,264 -839,390 456,-205 416,-198 -126,20 -885,317 -1796,561 -2715,759 -79,20 -1618,265 -581,139 -482,66 -971,93 -1453,119 -978,59 -1962,7 -2934,-66 -1559,-132 925,172 -601,-93 -621,-112 -1235,-270 -1843,-436 -456,-119 -898,-277 -1341,-422 -1427,-496 833,396 -548,-212 -839,-376 -1638,-845 -2425,-1334 -389,-238 -766,-502 -1136,-773 799,581 -376,-324 -442,-377 -813,-700 -1540,-1479 -2233,-2292 -965,-1123 515,753 -350,-456 -265,-376 -516,-766 -754,-1156 -488,-793 -891,-1618 -1275,-2464 417,925 -152,-495 -178,-562 -145,-449 -271,-905 -390,-1360 -125,-450 -218,-919 -310,-1388 -99,-588 -106,-627 -40,-105 -39,-331 -66,-648 -92,-971 -40,-509 -60,-998 -66,-1474l19 -337c14,-488 40,-971 73,-1466l40 -344 0 -26 132 -707c172,-912 429,-1797 740,-2675l0 -7 13 -46 20 -60 20 -26 0 -27 257 -594 20 -53 20 -33 304 -621 26 -66 7 -13 20 -47 26 -59 403 -746 13 -27 33 -53 33 -53 7 0 20 -46 33 -46 26 -46 0 -7 27 -46 26 -53 20 -40 482 -733 13 -26 20 -27 33 -46 27 -53 33 -46 33 -46 19 -27 14 -13 33 -53 33 -46 6 -7 33 -46 27 -40 26 -39 7 -13 39 -40 33 -53 73 -99 27 -33 13 -7 39 -46 33 -46c370,-449 773,-866 1170,-1268 383,-410 806,-780 1228,-1150 754,-608 1606,-1163 2544,-1685l6 0 100 -59 52 -26 0 0 47 -27 52 -20 47 -26 6 -13 53 -20 46 -27 47 -19 6 -7 53 -26 53 -27 40 -20 13 -6 46 -27 53 -26 46 -26 7 0 53 -27 52 -26 205 -99 7 0 350 -159 13 0 0 -13 27 -7c-271,146 700,-224 1076,-370l40 -6 7 0 26 -20 7 0 33 -7 13 0 0 0 0 -6 33 -14 86 -19 0 -7 39 -7 20 -6 27 -7 46 -13 33 -13 0 0 53 -13 6 -7 60 -13 13 -7 46 -13 0 0 80 -27 26 -6 26 0 34 -13 0 -7 46 -7 13 -6 26 -7 33 -6 14 0 39 -14 7 0 40 -13 13 0 33 -13 20 -7 19 -6 40 0 46 -20 14 -7 26 0 33 0 13 -6 46 -20 0 0 53 -7 33 -6 33 -14 7 0 46 -6 0 0 40 -13 13 0 33 -7 26 -7 20 -6 40 -7 0 -6 46 -7 13 0 27 -13 0 0 26 -7 13 0 47 -6 46 -14 13 -6 33 -7 27 0 13 -6 46 -14 20 0 26 -6 7 0 7 0 19 -7 33 -6 14 0 39 -7 7 -7 760 -132 26 -13 7 0 33 -7 46 0 20 0 26 0 7 0 39 0 7 0 26 0 14 -6 6 0 33 -13 7 0 26 0 60 -7 6 0 27 0 53 0 13 0 20 0 19 0 7 0 46 -7 0 0 20 -6 27 0 6 0 27 0 6 0 27 0 26 -13 7 0 33 0 6 0 20 0 26 0 0 0 34 0 13 0 13 0 66 0 13 0 20 0 20 -7 6 0 33 0 7 0 27 0 19 -7 14 0 33 0 0 0 26 0 26 0 0 0 27 0 20 0 26 0 53 -6 7 0 26 0 59 0 7 0 26 0 20 0 13 0 27 0 59 -7 33 0 14 0 13 0 26 0 7 0 33 0 59 0 33 0 7 0 26 0 20 0 7 0 26 0 7 0 26 0 20 0 7 0 39 0 0 0 27 -6 20 0 13 0 26 0 7 0 26 0 20 0 13 0 40 0 7 0 39 0 0 0 46 0 7 0 33 0 13 0 33 0 7 0 40 0 13 0 171 6 7 0 46 0 0 0 33 0 20 0 33 0 13 0 33 0 14 0 33 0 59 7 27 0 59 0 46 0 99 6 33 0 60 7 33 0 6 7 34 0 112 0 26 0 13 0 40 0 13 13 27 0 66 0 33 0 6 6 33 0 27 7 20 0 46 0 46 0 13 0 33 0 33 7 14 0 39 0 53 13 7 6 33 0 33 0 13 0 106 7 53 0 13 13 53 7 -20 -7 39 7 -19 0 -20 -7 -7 0 449 73 67 20 52 0 7 0 53 13 6 0 47 13 13 0 53 13 0 0 53 7 6 0 53 13 7 7 52 6 7 0 53 14 59 13 60 6 13 7 40 13 59 7c971,224 1942,542 2874,885 -859,-324 786,377 958,462 548,278 1077,602 1598,932 126,79 1262,892 1057,720l40 40 40 33 53 39 0 0 39 33 46 47 47 26 0 0 46 40 40 39 805 734 40 33 0 13 40 39 46 40 46 33 40 46 39 40 34 40 19 13 27 26 39 40 40 46 20 20 26 20 73 72 7 7 26 33 13 7 40 46 33 40 46 46 33 39 40 33 39 53 20 7 27 26 33 47 39 46 27 26 6 13 47 47 33 46 39 40 7 0 33 39 40 53 39 33 20 20 20 26 33 40 46 46 33 40 0 6 40 40 33 40 39 53 20 13 20 26 33 40 40 46 33 40 0 6 138 166 -6 -27c-106,-125 -27,-20 224,330l0 7 34 40 0 0 26 46 0 0 66 92 0 7 33 46 0 0 33 46 0 7 33 33 0 13 33 40 0 0 33 46 0 7 27 46 26 46 7 7 26 46 0 0 33 53 13 0 20 40 0 13 33 33 0 6 27 47 6 6 27 47 0 0 26 46 7 6 26 40 7 13 26 40 0 0 26 53 0 6 27 40 7 13 26 33 0 7 26 46 7 7 26 39 7 14 26 39 0 13 27 33 6 14 20 39 7 7 26 46 0 0 27 46 6 7 27 46 0 7 26 39 7 14c238,409 456,845 667,1281l20 33 0 20 26 53 7 7 20 46 0 6c-132,-251 403,1051 456,1203 198,601 356,1222 502,1823 52,185 343,2022 224,1064 73,594 99,1182 119,1770l0 20 0 13 0 33 0 27 0 26 0 7 0 33 0 19 0 33 0 304 13 27zm116235 -138320l0 -33 0 -6 0 -27 0 -26 0 -26 0 -14 0 -13 0 -26 0 -27 0 -26 0 -27 0 -6 0 -20 0 -132c-489,-9427 -6599,-16654 -16244,-16654 -1784,0 -3568,0 -5345,0 -39029,0 -105295,-482 -141767,-443 -19647,7 -26517,9103 -26517,28301l26 103089c0,3402 0,6811 0,10219 0,5305 1453,10240 5378,14025 3157,3046 7564,4743 11930,4743 1572,0 3151,0 4717,0l10206 0c1262,6904 5536,13061 11356,17044 7829,5345 18332,5318 26544,952 6844,-3640 11442,-10498 12849,-17989l38923 0c19627,0 39254,0 58874,0 1579,0 2583,0 4155,0 2676,0 4915,-2233 4915,-4922 0,-12247 0,-24508 0,-36769 0,-22488 0,-44975 0,-67469l0 -33632 0 -26 0 -33 0 -27 0 -6 0 6zm-148043 136120l6 -33 0 -40 7 -26 -13 99zm13714 -13675l-7 0 -39 7 -13 0 -27 0 -20 0 -26 0 40 0 6 0 86 -7zm-132 7l-20 0 20 0zm-66 6l-27 7 0 0 0 0 27 -7zm-112 27l-7 0 13 0 20 -7 7 0 6 0 40 0 6 -13 -85 20zm132 -27l0 0 46 -6 -46 6zm178 -13l27 0 -27 0zm4287 7l7 0 0 0 -7 0zm7 0l33 0 13 0 -19 0 -27 0zm46 0l27 0 26 6 40 0 -27 -6 -13 0 -53 0 0 0 0 0zm93 6l20 0 33 7 -33 -7 -20 0zm59 20l13 -13 -13 13 -6 -13 6 13zm13 -13l7 13 13 0 -20 -13zm20 13l14 0 -14 0zm14 0l6 0 -6 0zm6 0l20 0 -20 0zm20 0l13 7 -13 -7zm7372 3191l-33 -20 -13 -20 -46 -33 -27 -26 -19 -13 46 39 92 73zm-33 -20l-39 -39 39 39zm-105 -92l-40 -33 40 33zm5020 6434l14 27 13 26 -27 -53 0 0 -13 -26 -6 -14 19 40 0 0zm27 53l6 26 -6 -19 0 -7zm6 26l7 7 13 26 -13 -26 -7 -7zm20 33l7 0 -7 0zm7 0l0 7 0 -7zm0 7l0 0 0 0zm-17057 -9652l-20 0 20 0zm-99 20l-7 0 -20 7 27 -7zm231 -26l46 -7 -46 7zm4340 0l33 0 -33 0z"/>
   </g>
   <g>
    <path class="fil2" d="M139958 125609l-8218 0 0 0 -47 -1612 -119 -1592 -198 -1566 -277 -1539 -350 -1519 -417 -1487 -495 -1453 -555 -1420 -621 -1374 -700 -1355 -753 -1314 -813 -1269 -872 -1228 -931 -1183 -985 -1143 -1030 -1076 -1097 -1044 -1129 -985 -1183 -924 -1235 -879 -1269 -813 -1301 -753 -1361 -693 -1381 -628 -1413 -555 -1454 -495 -1486 -416 -1519 -351 -1540 -277 -1565 -198 -1592 -119 -1612 -46 0 -8218 2034 46 2002 158 1975 251 1949 344 1916 443 1869 535 1837 614 1810 713 1751 800 1691 865 1671 951 1599 1038 1539 1090 1500 1176 1433 1248 1361 1295 1321 1381 1236 1433 1169 1487 1110 1559 1024 1598 951 1658 872 1698 793 1757 713 1804 615 1836 535 1870 442 1916 344 1949 251 1975 158 2001 47 2035 0 0zm-39518 39525l0 -8218 0 0 1612 -47 1592 -119 1565 -198 1540 -277 1519 -350 1486 -417 1454 -495 1413 -555 1381 -627 1361 -694 1301 -753 1269 -813 1235 -878 1183 -925 1129 -985 1097 -1043 1030 -1077 985 -1143 931 -1183 872 -1228 813 -1269 753 -1314 700 -1355 621 -1374 555 -1420 495 -1453 417 -1487 350 -1519 277 -1539 198 -1566 119 -1592 47 -1612 8218 0 -47 2035 -158 2001 -251 1976 -344 1948 -442 1916 -535 1870 -615 1836 -713 1804 -793 1757 -872 1698 -951 1658 -1024 1599 -1110 1559 -1169 1486 -1236 1434 -1321 1380 -1361 1295 -1433 1249 -1500 1176 -1539 1090 -1599 1037 -1671 951 -1691 865 -1751 800 -1810 713 -1837 615 -1869 535 -1916 442 -1949 344 -1975 251 -2002 158 -2034 47 0 0zm-39525 -39525l8218 0 0 0 46 1612 119 1592 199 1566 277 1539 350 1519 416 1487 496 1453 555 1414 627 1380 694 1361 753 1302 819 1275 872 1235 925 1176 991 1143 1031 1083 1083 1031 1143 991 1176 925 1235 872 1275 819 1301 753 1361 694 1381 627 1414 555 1453 495 1486 417 1520 350 1539 277 1566 198 1592 119 1612 47 0 8218 -2035 -47 -2002 -158 -1975 -251 -1949 -344 -1915 -442 -1870 -535 -1837 -615 -1810 -713 -1750 -800 -1691 -865 -1672 -951 -1592 -1031 -1552 -1096 -1493 -1176 -1434 -1242 -1374 -1308 -1308 -1374 -1242 -1434 -1176 -1493 -1096 -1552 -1031 -1592 -951 -1672 -866 -1691 -799 -1751 -713 -1810 -615 -1836 -535 -1870 -442 -1916 -344 -1948 -251 -1976 -159 -2001 -46 -2035 0 0zm39525 -39524l0 8218 0 0 -1612 46 -1592 119 -1566 198 -1539 277 -1520 351 -1486 416 -1453 495 -1414 555 -1381 628 -1361 693 -1301 753 -1275 820 -1235 872 -1176 924 -1143 991 -1083 1031 -1031 1083 -991 1143 -925 1176 -872 1235 -819 1275 -753 1302 -694 1361 -627 1380 -555 1414 -496 1453 -416 1487 -350 1519 -277 1539 -199 1566 -119 1592 -46 1612 -8218 0 46 -2035 159 -2001 251 -1975 344 -1949 442 -1916 535 -1870 615 -1836 713 -1810 799 -1751 866 -1691 951 -1671 1031 -1592 1096 -1553 1176 -1493 1242 -1433 1308 -1374 1374 -1308 1434 -1242 1493 -1176 1552 -1097 1592 -1031 1672 -951 1691 -865 1750 -800 1810 -713 1837 -614 1870 -535 1915 -443 1949 -344 1975 -251 2002 -158 2035 -46 0 0z"/>
   </g>
   <path class="fil3" d="M86712 124090l6937 7379 21053 -19772c344,-324 767,-588 1216,-767l13 0c3686,-1413 6593,2629 4347,5708l-667 707 -23564 22144c-1421,1129 -3006,1466 -4598,416l-99 -73c-2517,-1889 -5847,-5906 -8014,-8330l-2437 -2682 -192 -205 -6 -27c-2894,-3521 2272,-8409 5621,-4915l390 403 0 14z"/>
  </g>
 </g>
</svg>
