<?xml version="1.0" encoding="UTF-8"?>
<!DOCTYPE svg PUBLIC "-//W3C//DTD SVG 1.1//EN" "http://www.w3.org/Graphics/SVG/1.1/DTD/svg11.dtd">
<!-- Creator: CorelDRAW X7 -->
<svg xmlns="http://www.w3.org/2000/svg" xml:space="preserve" width="100px" height="100px" version="1.1" style="shape-rendering:geometricPrecision; text-rendering:geometricPrecision; image-rendering:optimizeQuality; fill-rule:evenodd; clip-rule:evenodd"
viewBox="0 0 3705967 3705967"
 xmlns:xlink="http://www.w3.org/1999/xlink">
 <defs>
  <style type="text/css">
   <![CDATA[
    .fil0 {fill:none}
    .fil2 {fill:#15181b}
    .fil1 {fill:#15181b;fill-rule:nonzero}
   ]]>
  </style>
 </defs>
 <g id="Layer_x0020_1">
  <metadata id="CorelCorpID_0Corel-Layer"/>
  <g id="_2148976269200">
   <rect class="fil0" x="22" y="36" width="3705923" height="3705923"/>
   <g>
    <g>
     <path class="fil1" d="M2992550 1852983l-55588 0 0 0 -1401 -55807 -4202 -55063 -6916 -54232 -9498 -53400 -12124 -52437 -14576 -51431 -17027 -50336 -19434 -49242 -21710 -47972 -23943 -46747 -26087 -45391 -28188 -43945 -30246 -42545 -32171 -40969 -34053 -39306 -35936 -37643 -37643 -35936 -39306 -34053 -40969 -32172 -42545 -30245 -43946 -28188 -45390 -26088 -46747 -23942 -47972 -21710 -49242 -19434 -50336 -17027 -51431 -14576 -52437 -12124 -53400 -9498 -54232 -6916 -55063 -4202 -55808 -1401 0 -55588 58609 1488 57865 4377 57033 7266 56114 10023 55151 12737 54056 15364 52963 17902 51780 20397 50512 22848 49110 25168 47754 27401 46222 29676 44646 31734 43070 33835 41319 35804 39569 37774 37774 39569 35804 41319 33835 43070 31734 44646 29676 46222 27400 47754 25168 49110 22849 50511 20397 51781 17902 52962 15363 54057 12738 55151 10023 56114 7266 57033 4377 57865 1488 58608 0 0zm-1139567 1139611l0 -55589 0 0 55808 -1400 55063 -4202 54232 -6916 53400 -9498 52437 -12125 51431 -14575 50336 -17027 49242 -19434 47972 -21710 46747 -23943 45390 -26131 43990 -28144 42501 -30246 40969 -32215 39306 -34053 37643 -35892 35936 -37643 34053 -39350 32171 -40925 30246 -42501 28188 -44034 26087 -45390 23943 -46747 21710 -47972 19434 -49242 17027 -50336 14576 -51431 12124 -52437 9498 -53400 6916 -54232 4202 -55063 1401 -55808 55588 0 -1488 58609 -4377 57865 -7266 57033 -10023 56114 -12738 55151 -15363 54056 -17902 52963 -20397 51780 -22849 50512 -25168 49110 -27400 47754 -29676 46222 -31734 44689 -33835 43027 -35804 41363 -37774 39569 -39569 37730 -41319 35804 -43070 33879 -44690 31733 -46178 29633 -47754 27444 -49110 25168 -50512 22848 -51780 20398 -52963 17902 -54056 15363 -55151 12737 -56114 10024 -57033 7266 -57865 4377 -58609 1488 0 0zm-1139566 -1139611l55588 0 0 0 1401 55808 4202 55063 6916 54232 9498 53400 12124 52437 14576 51474 17027 50337 19434 49198 21710 48016 23942 46747 26088 45390 28188 43946 30245 42545 32172 40969 34053 39306 35892 37643 37687 35892 39306 34097 40969 32171 42545 30246 43945 28188 45391 26087 46747 23943 47972 21710 49242 19434 50336 17027 51431 14575 52437 12125 53400 9498 54232 6916 55063 4202 55807 1400 0 55589 -58608 -1488 -57865 -4377 -57033 -7266 -56114 -10024 -55151 -12737 -54057 -15363 -52962 -17902 -51781 -20398 -50511 -22848 -49110 -25168 -47754 -27400 -46222 -29677 -44646 -31733 -43070 -33835 -41319 -35848 -39613 -37730 -37730 -39569 -35804 -41319 -33835 -43071 -31734 -44646 -29676 -46221 -27401 -47754 -25168 -49111 -22848 -50555 -20397 -51736 -17902 -52963 -15364 -54100 -12737 -55151 -10023 -56114 -7266 -57033 -4377 -57865 -1488 -58609 0 0zm1139566 -1139566l0 55588 0 0 -55807 1401 -55063 4202 -54232 6916 -53400 9498 -52437 12124 -51431 14576 -50336 17027 -49242 19434 -47972 21710 -46747 23942 -45391 26088 -43945 28188 -42545 30245 -40969 32172 -39306 34097 -37687 35892 -35892 37643 -34053 39349 -32172 40926 -30245 42501 -28188 44033 -26088 45347 -23942 46747 -21710 48016 -19434 49198 -17027 50336 -14576 51431 -12124 52437 -9498 53400 -6916 54232 -4202 55063 -1401 55807 -55588 0 1488 -58608 4377 -57865 7266 -57033 10023 -56114 12737 -55151 15364 -54057 17902 -52962 20397 -51737 22848 -50555 25168 -49110 27401 -47710 29676 -46222 31734 -44690 33835 -43026 35804 -41363 37730 -39569 39613 -37730 41319 -35848 43070 -33835 44646 -31734 46222 -29676 47754 -27401 49110 -25168 50511 -22848 51781 -20397 52962 -17902 54057 -15364 55151 -12737 56114 -10023 57033 -7266 57865 -4377 58608 -1488 0 0z"/>
    </g>
    <polygon id="Shape" class="fil2" points="2374904,1610757 1852983,2132677 1331107,1610757 1368574,1573333 1852983,2057786 2337436,1573333 "/>
   </g>
  </g>
 </g>
</svg>
