<?xml version="1.0" encoding="UTF-8"?>
<!DOCTYPE svg PUBLIC "-//W3C//DTD SVG 1.1//EN" "http://www.w3.org/Graphics/SVG/1.1/DTD/svg11.dtd">
<!-- Creator: CorelDRAW X7 -->
<svg xmlns="http://www.w3.org/2000/svg" xml:space="preserve" width="100px" height="100px" version="1.1" style="shape-rendering:geometricPrecision; text-rendering:geometricPrecision; image-rendering:optimizeQuality; fill-rule:evenodd; clip-rule:evenodd"
viewBox="0 0 10000000 10000000"
 xmlns:xlink="http://www.w3.org/1999/xlink">
 <defs>
  <style type="text/css">
   <![CDATA[
    .fil0 {fill:none}
    .fil1 {fill:#B3B3B3}
   ]]>
  </style>
 </defs>
 <g id="Layer_x0020_1">
  <metadata id="CorelCorpID_0Corel-Layer"/>
  <g id="_1658973661856">
   <rect class="fil0" x="59" y="59" width="9999882" height="9999882"/>
   <path class="fil1" d="M1428757 8999976l7142722 0c40393,0 79015,-17243 106062,-47361 26928,-30118 40038,-70275 35904,-110431l-571526 -5428498c-7559,-72754 -68857,-128029 -141848,-128029l-1346081 0 2244 -572471c0,-945340 -711013,-1713280 -1656116,-1713280 -945221,0 -1658241,769712 -1658241,1714933l-119 570700 -1341593 0c-73227,0 -134289,55275 -142084,128147l-571408 5428379c-4370,40394 8858,80432 35905,110550 27046,30118 65786,47243 106061,47243l0 0 0 0 0 118 118 0zm3562621 -3194004l118 0c46771,0 84920,38149 84920,84919l0 830066c0,46771 -38149,84920 -84920,84920l-118 0c-46771,0 -84920,-38149 -84920,-84920l0 -830066c0,-46770 38149,-84919 84920,-84919zm0 1116596c48306,0 87518,39212 87518,87518 0,48307 -39212,87519 -87518,87519 -48306,0 -87518,-39212 -87518,-87519 0,-48306 39212,-87518 87518,-87518zm8622 -1818396c366608,0 698847,148816 939080,389049l-237 236c240587,240468 389286,572707 389286,938843 0,366254 -148463,698257 -389049,938726l-237 118 -118 236c-240468,240587 -572471,389049 -938725,389049 -366136,0 -698375,-148698 -938843,-389285l-237 236c-240232,-240232 -389049,-572471 -389049,-939080 0,-366490 148817,-698847 389049,-939079 240233,-240233 572590,-389049 939080,-389049zm828530 499598c-211886,-211886 -504913,-343223 -828530,-343223 -323499,0 -616644,131337 -828530,343223 -211887,211886 -343223,505031 -343223,828530 0,323617 131336,616644 343223,828531l0 354c211650,211768 504795,342868 828530,342868 323853,0 616880,-131100 828530,-342868l355 -354c211768,-211651 342868,-504678 342868,-828531 0,-323735 -131100,-616880 -342868,-828530l-355 0zm-2318231 -1717650c132872,38503 229957,160982 229957,306255 0,175981 -142793,318893 -318774,318893 -175982,0 -318775,-142793 -318775,-318893 0,-148817 102164,-274012 240114,-309090l-354 -429914 -1326003 354 -527472 5379482 7026268 -14763 -531842 -5365191 -1328365 1653 0 431686c131927,39212 228185,161336 228185,305783 0,175981 -142793,318893 -318893,318893 -175981,0 -318774,-142793 -318774,-318893 0,-149525 103109,-275074 242004,-309562l-354 -429206 -2977040 118 118 432395 0 0zm-1063 -1171871c0,-787547 647943,-1537063 1486866,-1546039 854633,15590 1490410,761799 1490410,1549464l5551 569046 -2982827 -1063 0 -571408zm3055109 1298365c99211,0 179880,80550 179880,179761 0,99211 -80669,179643 -179880,179643 -99211,0 -179761,-80432 -179761,-179643 0,-99211 80669,-179761 179761,-179761zm-3142863 0c99211,0 179761,80550 179761,179761 0,99211 -80550,179643 -179761,179643 -99211,0 -179761,-80432 -179761,-179643 0,-99211 80550,-179761 179761,-179761z"/>
  </g>
 </g>
</svg>
