<?xml version="1.0" encoding="UTF-8"?>
<!DOCTYPE svg PUBLIC "-//W3C//DTD SVG 1.1//EN" "http://www.w3.org/Graphics/SVG/1.1/DTD/svg11.dtd">
<!-- Creator: CorelDRAW X7 -->
<svg xmlns="http://www.w3.org/2000/svg" xml:space="preserve" width="100px" height="100px" version="1.1" style="shape-rendering:geometricPrecision; text-rendering:geometricPrecision; image-rendering:optimizeQuality; fill-rule:evenodd; clip-rule:evenodd"
viewBox="0 0 521213 521213"
 xmlns:xlink="http://www.w3.org/1999/xlink">
 <defs>
  <style type="text/css">
   <![CDATA[
    .fil0 {fill:none}
    .fil1 {fill:#B3B3B3}
   ]]>
  </style>
 </defs>
 <g id="Layer_x0020_1">
  <metadata id="CorelCorpID_0Corel-Layer"/>
  <g id="_1659081366896">
   <rect class="fil0" x="3" y="3" width="521207" height="521207"/>
   <path class="fil1" d="M74469 469090l372287 0c2106,0 4119,-898 5529,-2468 1403,-1570 2086,-3663 1871,-5756l-29789 -282940c-394,-3792 -3589,-6673 -7393,-6673l-70160 0 117 -29838c0,-49273 -37058,-89299 -86318,-89299 -49267,0 -86430,40119 -86430,89385l-6 29745 -69926 0c-3817,0 -6999,2881 -7405,6680l-29783 282934c-228,2105 462,4192 1871,5762 1410,1570 3429,2462 5528,2462l0 0 0 0 0 6 7 0zm168267 -106184l0 -6 -87 -86 -19452 -19453c-1724,-1724 -1724,-4531 0,-6254l6 -7c1723,-1723 4537,-1723 6260,0l16406 16406 45893 -45893c1723,-1723 4537,-1723 6260,0l0 6c1724,1724 1724,4531 0,6255l-48940 48940 -80 86 -6 6c-1723,1724 -4537,1724 -6260,0zm17870 -96870c19109,0 36425,7756 48946,20278l-12 12c12540,12534 20290,29850 20290,48934 0,19089 -7738,36394 -20278,48927l-12 6 -6 13c-12534,12539 -29838,20278 -48928,20278 -19083,0 -36400,-7751 -48933,-20291l-13 13c-12521,-12521 -20277,-29838 -20277,-48946 0,-19102 7756,-36425 20277,-48946 12522,-12522 29844,-20278 48946,-20278zm43184 26040c-11043,-11044 -26316,-17890 -43184,-17890 -16861,0 -32140,6846 -43184,17890 -11043,11043 -17889,26323 -17889,43184 0,16867 6846,32140 17889,43184l0 18c11032,11038 26311,17871 43184,17871 16880,0 32153,-6833 43184,-17871l19 -18c11038,-11032 17871,-26305 17871,-43184 0,-16874 -6833,-32153 -17871,-43184l-19 0zm-120829 -89526c6926,2006 11986,8390 11986,15962 0,9172 -7443,16621 -16615,16621 -9172,0 -16615,-7443 -16615,-16621 0,-7757 5325,-14282 12515,-16110l-18 -22408 -69113 19 -27493 280385 366218 -769 -27720 -279641 -69236 86 0 22500c6876,2044 11893,8409 11893,15938 0,9172 -7442,16621 -16621,16621 -9172,0 -16615,-7443 -16615,-16621 0,-7793 5374,-14337 12614,-16135l-19 -22371 -155167 7 6 22537 0 0zm-55 -61080c0,-41048 33771,-80114 77497,-80581 44545,812 77682,39706 77682,80760l290 29659 -155469 -55 0 -29783zm159236 67673c5171,0 9376,4198 9376,9369 0,5171 -4205,9363 -9376,9363 -5171,0 -9369,-4192 -9369,-9363 0,-5171 4204,-9369 9369,-9369zm-163810 0c5171,0 9369,4198 9369,9369 0,5171 -4198,9363 -9369,9363 -5171,0 -9369,-4192 -9369,-9363 0,-5171 4198,-9369 9369,-9369z"/>
  </g>
 </g>
</svg>
