<?xml version="1.0" encoding="UTF-8"?>
<!DOCTYPE svg PUBLIC "-//W3C//DTD SVG 1.1//EN" "http://www.w3.org/Graphics/SVG/1.1/DTD/svg11.dtd">
<!-- Creator: CorelDRAW X7 -->
<svg xmlns="http://www.w3.org/2000/svg" xml:space="preserve" width="50px" height="50px" version="1.1" style="shape-rendering:geometricPrecision; text-rendering:geometricPrecision; image-rendering:optimizeQuality; fill-rule:evenodd; clip-rule:evenodd"
viewBox="0 0 5000000 5000000"
 xmlns:xlink="http://www.w3.org/1999/xlink">
 <defs>
  <style type="text/css">
   <![CDATA[
    .fil0 {fill:none}
    .fil1 {fill:#ffffff}
   ]]>
  </style>
 </defs>
 <g id="Layer_x0020_1">
  <metadata id="CorelCorpID_0Corel-Layer"/>
  <rect class="fil0" width="5000000" height="5000000"/>
  <path id="Shape" class="fil1" d="M3360815 2057309l396272 -118823c4016,-1181 7441,-3898 11339,-5551 2126,-945 4252,-473 6496,-1654l222763 -111381c37678,-18780 61537,-57404 61537,-99688l0 -222645c0,-42285 -23859,-80672 -61537,-99688l-164769 -82444c-37206,-703841 -619862,-1265591 -1332916,-1265591 -713054,0 -1295710,561750 -1332916,1265827l-164769 82444c-37678,18898 -61537,57403 -61537,99688l0 222645c0,42285 23859,80790 61537,99688l222763 111382c1063,472 2244,236 3071,826 14174,6615 29410,10631 46182,10867 237,0 355,118 591,118l0 0 0 0 236 0c13229,0 25985,-3189 38269,-7677 3307,-1182 6496,-2599 9686,-4253 9567,-4606 18425,-10394 26457,-17717 1536,-1535 3543,-2598 5079,-4134 7795,-8150 14764,-17126 20079,-27638 473,-1063 355,-2244 827,-3426 3071,-6496 4016,-13819 5670,-21024 1889,-7441 4252,-14528 4488,-21969 0,-1299 591,-2126 591,-3425l0 -445408c0,-614193 499740,-1113815 1113814,-1113815 614075,0 1113697,499622 1113697,1113815l0 362492 -222763 66970 0 -429816c0,-491236 -399698,-890934 -890934,-890934 -491236,0 -890933,399698 -890933,890934l0 445407c0,491354 399697,891052 890933,891052 413163,0 760536,-283355 860697,-665454l0 0zm-2865563 2670084l0 111381c0,61656 49962,111382 111381,111382l3786734 0c61419,0 111381,-49726 111381,-111382l0 -111381c0,-2652721 -4009496,-2652721 -4009496,0zm222763 0c0,-2343027 3563970,-2343027 3563970,0l-3563970 0 0 0zm1781985 -2227393c-368516,0 -668289,-299655 -668289,-668289l0 -445407c0,-368516 299773,-668289 668289,-668289 368516,0 668289,299773 668289,668289l0 445407c0,17363 -1418,34490 -2599,51616l-586317 175872c-58939,17717 -92484,79845 -74767,138665 14528,48309 58703,79373 106775,79373 10513,0 21379,-1535 32009,-4724l450251 -135005c-111264,214968 -335444,362492 -593641,362492l0 0z"/>
 </g>
</svg>
