<?xml version="1.0" encoding="UTF-8"?>
<!DOCTYPE svg PUBLIC "-//W3C//DTD SVG 1.1//EN" "http://www.w3.org/Graphics/SVG/1.1/DTD/svg11.dtd">
<!-- Creator: CorelDRAW X7 -->
<svg xmlns="http://www.w3.org/2000/svg" xml:space="preserve" width="50px" height="50px" version="1.1" style="shape-rendering:geometricPrecision; text-rendering:geometricPrecision; image-rendering:optimizeQuality; fill-rule:evenodd; clip-rule:evenodd"
viewBox="0 0 155553 155549"
 xmlns:xlink="http://www.w3.org/1999/xlink">
 <defs>
  <style type="text/css">
   <![CDATA[
    .fil0 {fill:none}
    .fil3 {fill:#ffffff}
    .fil1 {fill:#ffffff}
    .fil2 {fill:#ffffff;fill-rule:nonzero}
   ]]>
  </style>
 </defs>
 <g id="Layer_x0020_1">
  <metadata id="CorelCorpID_0Corel-Layer"/>
  <rect class="fil0" x="-1" y="-1" width="155553" height="155554"/>
  <g id="_2273897276848">
   <path class="fil1" d="M112006 54122c85,309 177,551 0,0zm35702 39655l0 10789c0,2509 0,5026 0,7543 0,765 0,1533 0,2308 0,176 0,349 0,529 0,33 0,66 0,103 0,81 0,154 -4,239 -25,286 -18,308 19,59 -22,146 -52,293 -85,444 -62,287 -162,566 -268,842 165,-430 -213,330 -257,407 -81,125 -158,243 -247,364 140,-198 125,-187 -47,22 -103,103 -202,202 -309,305 -37,37 -588,452 -198,173 -239,173 -489,309 -750,441 -254,114 -268,121 -48,18 -143,52 -279,99 -422,136 -100,30 -956,155 -482,107 -183,22 -363,22 -544,22l-1940 0 -73 0 -26 0 37 0c-1220,-5585 -6137,-9771 -12071,-9844 -1172,-11 -2315,150 -3395,463 -992,257 -1955,636 -2866,1121 -3175,1701 -5303,4813 -6060,8260l-5566 0 0 -12530c99,-1786 158,-3572 158,-5358 0,-2689 -59,-5379 -158,-8069l0 -21602 0 -1364 21337 0c78,0 151,0 225,0 235,0 485,11 727,26 22,4 794,99 320,26 536,88 1065,231 1573,400 29,4 720,287 290,96 209,92 411,195 610,301 404,206 782,456 1146,720 -378,-268 206,173 221,192 176,147 330,305 496,463 158,154 312,323 463,492 95,114 195,228 283,338 -136,-173 -122,-151 40,77 265,371 493,768 702,1169 110,205 206,415 301,628 -191,-419 92,290 92,301 37,96 70,191 107,287 231,632 455,1264 687,1889 1705,4718 3417,9432 5118,14143l827 2285c11,85 22,162 37,239zm-40038 -38821c-51,-2021 -1477,-3741 -3579,-3741 -514,0 -1036,0 -1554,0l-20636 -11c-459,-1539 -1010,-3050 -1650,-4519 7875,29 15341,58 21511,58 852,0 1709,0 2565,0 4615,0 7547,3462 7779,7978l0 62 0 8 0 3 0 11 0 15 0 11 0 15 0 7 0 4 0 14 0 11 0 11 0 4 0 19 0 0 0 -4 0 4 0 11 0 18 0 11 0 10042 1392 0c5181,0 10355,0 15536,0 1488,0 2984,0 4476,0 3487,0 7033,1408 9329,4090 1532,1793 2356,3829 3146,6001 779,2160 1569,4328 2351,6489l3745 10344c194,330 319,716 349,1128l3 18c15,140 11,287 -7,426l0 4 -4 29 -7 77 0 7805c0,4439 0,8885 0,13328 0,3310 -1742,6525 -4880,7856 -1797,764 -3737,797 -5670,768 -672,3593 -2877,6875 -6151,8624 -3939,2090 -8973,2098 -12721,-456 -2796,-1922 -4843,-4880 -5442,-8194l-7422 0c-125,22 -246,33 -375,33 -757,0 -1235,0 -1992,0 -9403,0 -34885,0 -44285,0l-1499 0c-672,3586 -2877,6871 -6155,8617 -3935,2090 -8966,2102 -12717,-456 -2786,-1907 -4836,-4861 -5439,-8165l-4894 0c-746,0 -1503,0 -2256,0 -2091,0 -4204,-815 -5718,-2274 -1877,-1812 -2576,-4174 -2576,-6721 0,-1628 0,-3263 0,-4891l-3 -12967c1459,933 2972,1756 4512,2466l40 9803c0,1760 0,3572 0,5328 0,331 0,658 0,989 0,165 0,330 15,496 -48,-493 44,217 55,272 55,213 111,430 191,635 -172,-444 92,195 118,243 107,187 213,378 342,555 -283,-382 139,165 172,202 155,154 302,312 467,452 206,172 224,183 40,29 122,81 243,158 372,232 183,106 374,216 580,301 -448,-191 232,48 265,62 224,52 441,111 661,140 -400,-55 397,-11 588,-11 1018,0 2197,-48 3219,-48l3921 0c749,-3454 2884,-6577 6066,-8286l441 -220 8 -4 95 -48c1646,-837 3498,-1304 5457,-1278 345,3 687,22 1025,51 1878,136 3722,702 5354,1720 2947,1844 4990,4747 5699,8065l173 0c9410,0 17740,0 27147,0l18317 0 0 -1572c0,-9833 0,-19663 0,-29492 0,-6746 0,-13493 0,-20239 0,-246 37,-482 107,-706l0 -11692 3 0zm-50175 66229l4 -47 -4 -34 -11 67c-15,1708 -386,2947 -1473,4541 -405,588 279,-330 -166,217 -139,173 -294,331 -441,492 -297,320 -632,607 -973,890 371,-302 -199,128 -228,150 -188,122 -379,239 -563,349 -191,114 -385,214 -587,313 -129,62 -265,125 -401,187 217,-99 198,-95 -62,8 -427,154 -860,268 -1301,363 -37,11 -776,129 -279,70 -232,30 -463,41 -699,55 -466,30 -937,4 -1403,-33 -746,-62 444,81 -287,-40 -298,-55 -591,-133 -882,-213 -220,-55 -433,-133 -643,-202 -683,-236 401,191 -261,-100 -404,-180 -786,-404 -1161,-639 -187,-118 -367,-239 -547,-371 382,279 -177,-155 -210,-180 -393,-335 -738,-709 -1069,-1099 -463,-540 246,360 -173,-217 -121,-183 -242,-367 -360,-555 -231,-382 -422,-775 -610,-1183 202,449 -70,-235 -81,-268 -70,-213 -132,-434 -187,-650 -63,-217 -107,-441 -151,-665 -48,-283 -51,-305 -22,-52 -14,-158 -29,-309 -40,-467 -22,-242 -30,-477 -33,-701l7 -166c7,-231 22,-463 37,-698l18 -169 0 -11 63 -338c84,-437 205,-860 356,-1279l0 -3 4 -26 14 -26 8 -11 0 -15 125 -286 7 -22 7 -19 147 -297 11 -33 4 -4 7 -22 15 -26 195 -360 4 -15 18 -22 15 -29 3 0 8 -18 14 -22 15 -26 0 -4 15 -18 11 -26 7 -22 232 -349 7 -11 7 -15 19 -22 11 -26 18 -22 15 -22 11 -14 3 -4 19 -26 18 -25 4 0 15 -22 11 -19 11 -22 3 -4 22 -18 15 -29 33 -44 15 -15 7 -7 19 -23 14 -18c177,-217 371,-415 562,-610 181,-195 383,-375 585,-551 363,-290 771,-555 1220,-808l3 0 48 -26 26 -11 0 0 22 -19 26 -7 22 -11 3 -7 22 -8 26 -11 18 -14 4 0 30 -15 22 -11 18 -7 7 -4 26 -15 22 -14 22 -12 4 0 25 -11 26 -11 99 -47 4 0 165 -77 4 0 0 -8 19 0c-133,70 334,-110 510,-180l22 -4 4 0 11 -7 4 0 14 -4 8 0 0 0 0 -3 14 -4 45 -11 0 -4 14 0 11 -3 15 -4 22 -7 15 -8 0 0 25 -7 4 0 26 -7 7 -4 26 -4 0 0 37 -14 11 0 11 0 18 -8 0 -3 22 -4 4 0 11 -7 22 -4 4 0 18 -8 4 0 18 -3 4 0 22 -8 7 -3 7 0 19 0 25 -11 8 -4 11 0 15 0 7 0 18 -11 0 0 30 0 14 -4 15 -7 4 0 25 -7 0 0 19 -4 3 0 15 -4 11 -3 15 -4 18 -4 0 0 19 -3 7 0 15 -8 0 0 14 0 4 0 22 -3 26 -8 3 -3 15 -4 15 0 4 0 22 -7 11 0 11 -4 3 0 4 0 7 -7 19 -4 3 0 22 0 4 -4 364 -62 11 -8 0 0 22 -3 18 0 11 0 11 0 4 0 18 0 4 0 11 0 7 0 4 0 15 -8 4 0 11 0 29 -3 4 0 11 0 29 0 4 0 11 0 7 0 4 0 22 -4 0 0 7 0 15 0 4 0 11 0 3 0 15 0 11 -7 4 0 18 0 0 0 11 0 11 0 0 0 15 0 7 0 4 0 33 0 7 0 8 0 11 -4 0 0 22 0 0 0 14 0 8 0 7 0 15 0 0 0 11 0 14 0 0 0 15 0 7 0 11 0 30 -4 0 0 15 0 25 0 4 0 11 0 11 0 7 0 11 0 26 -3 15 0 11 0 7 0 11 0 4 0 15 0 29 0 15 0 3 0 11 0 11 0 0 0 15 0 0 0 15 0 11 0 4 0 14 0 0 0 15 -4 7 0 11 0 11 0 0 0 15 0 7 0 4 0 18 0 8 0 18 0 0 0 22 0 0 0 19 0 3 0 19 0 3 0 19 0 7 0 81 4 0 0 26 0 0 0 14 0 11 0 15 0 4 0 22 0 3 0 19 0 29 3 11 0 30 0 18 0 51 4 15 0 29 0 15 0 4 4 15 0 55 0 11 0 11 0 18 0 4 7 11 0 36 0 15 0 0 0 19 0 11 4 7 0 26 0 22 0 3 0 19 0 18 3 7 0 15 0 26 8 7 0 15 0 15 0 3 0 52 3 25 0 8 8 26 3 -8 -3 15 3 -7 0 -8 -3 -7 0 217 36 29 8 29 0 4 0 22 7 4 0 22 4 4 0 29 7 0 0 22 4 4 0 29 4 0 7 26 4 3 0 26 7 26 4 29 3 4 4 22 4 29 3c463,111 930,261 1378,423 -411,-154 379,184 460,224 261,136 514,287 760,445 63,40 607,430 511,349l18 18 22 15 23 18 0 0 18 19 26 22 18 11 0 0 22 22 22 14 382 353 22 15 0 3 19 23 22 18 22 15 18 25 18 19 15 18 15 4 11 11 18 22 19 22 7 7 15 11 33 37 3 0 11 18 12 0 18 22 15 22 22 22 18 15 18 22 15 22 11 4 15 11 14 26 19 22 11 11 4 3 25 26 15 22 18 19 0 0 19 14 22 30 14 14 11 8 8 11 15 22 25 22 15 18 0 4 18 22 19 18 18 22 7 8 8 14 18 19 22 22 15 22 0 0 66 81 -4 -11c-51,-63 -14,-15 103,154l0 4 22 18 0 0 11 26 0 0 30 40 0 4 18 26 0 0 15 18 0 4 14 14 0 8 19 22 0 0 18 18 0 4 11 22 11 26 4 3 11 19 0 0 15 25 11 0 7 22 0 4 15 15 0 3 14 22 0 8 15 18 0 0 15 22 4 4 11 22 3 4 11 18 0 0 11 26 0 3 11 22 4 4 15 15 0 3 11 23 3 3 11 19 4 7 11 18 0 4 18 18 0 4 11 22 0 4 15 22 0 0 11 18 4 8 11 22 0 3 15 15 3 7c110,195 217,404 316,618l15 14 0 8 11 25 4 4 7 22 0 4c-62,-121 195,503 217,573 99,290 173,588 242,878 22,88 162,967 103,507 41,287 52,566 59,849l0 7 0 8 0 14 0 15 0 11 0 4 0 15 0 11 0 18 0 143 7 15 15 -4zm-15242 -1054l4 -19 0 -22 0 -11 -4 52zm6570 -6556l-3 0 -15 4 -8 0 -14 0 -11 0 -11 0 18 0 4 0 44 -4 -4 0zm-62 4l-11 0 11 0zm-30 4l-18 3 0 0 0 0 18 -3zm-55 14l-3 0 7 0 7 -3 4 0 4 0 18 0 0 -8 -37 11zm63 -14l0 0 22 -4 -22 4zm84 -8l15 0 -15 0zm2054 4l4 0 0 0 -4 0zm4 0l15 0 7 0 -11 0 -11 0zm22 0l11 0 15 4 18 0 -11 -4 -7 0 -26 0 0 0 0 0zm44 4l11 0 15 3 -15 -3 -11 0zm26 11l7 -8 -7 8 0 -8 0 8zm7 -8l7 8 4 0 -11 -8zm11 8l8 0 -8 0zm8 0l3 0 -3 0zm3 0l8 0 -8 0zm8 0l7 3 -7 -3zm3531 1528l-15 -11 -4 -7 -25 -18 -15 -11 -7 -4 22 15 44 40 0 -4zm-15 -11l-15 -18 15 18zm-51 -44l-19 -18 19 18zm2406 3083l8 11 7 19 -15 -30 0 0 -7 -11 -4 -7 11 18 0 0zm15 30l4 11 -4 -11 0 0zm4 11l0 0 7 14 -7 -14 0 0zm7 14l4 0 -4 0zm4 0l0 4 0 -4zm0 4l0 0 0 0zm-8172 -4626l-8 0 8 0zm-48 11l-4 0 -7 3 11 -3 0 0zm110 -15l22 -4 -22 4zm2080 0l15 0 -15 0zm85307 -22668l-3 4 -1996 -5611c-378,-1044 -749,-2095 -1120,-3146 -111,-297 -221,-599 -324,-904 -62,-169 -308,-841 -114,-448 -66,-132 -525,-716 -194,-367 -81,-92 -544,-397 -129,-151 -103,-59 -632,-235 -173,-107 -95,-25 -709,-84 -238,-69 -221,-8 -441,-8 -662,-8 -1066,0 -2127,0 -3193,0 -1981,0 -3961,0 -5938,0l7 -7 2345 0 0 10814 -2348 0 -4 0 14084 0zm3131 4711l99 0 4 0 15 0 18 0c220,3 448,-26 680,-85 308,-88 591,-242 845,-444 -154,117 -305,209 -481,301 444,-210 819,-559 1061,-981l-128 198 -202 246c150,-158 279,-341 382,-532 250,-412 386,-787 250,-1400l-15 -55 0 0 0 -4 -4 -15 -51 -184 -7 -18 -4 -11c-99,-316 -243,-694 -412,-1168l-3766 -10565c-202,-562 -371,-1153 -584,-1723 -842,-2278 -2896,-3785 -5358,-3785 -2032,0 -4064,0 -6096,0 -1153,0 -2307,0 -3457,0 -1286,0 -2356,1070 -2356,2356 0,5173 0,10340 0,15510 0,1286 1070,2359 2356,2359l17134 0 0 0 15 0 14 0 15 0 18 0 15 0zm209 -4c225,-7 500,-37 798,-147 -250,92 -518,147 -798,147zm1467 -536l213 -199c-70,70 -140,136 -213,199zm-3510 26776l0 0 0 -4 0 4zm-88 -419l-11 -320 0 52c-29,1705 -397,2943 -1484,4534 -408,592 286,-323 -169,220 -140,177 -294,331 -445,496 -294,320 -628,610 -966,886 371,-301 -202,129 -232,151 -184,125 -371,235 -562,356 -191,107 -386,206 -581,305 -136,66 -272,129 -407,188 220,-96 202,-92 -59,7 -423,162 -860,272 -1301,367 -37,11 -775,133 -279,66 -228,30 -467,37 -695,59 -470,22 -944,8 -1407,-33 -750,-62 445,81 -283,-48 -301,-47 -592,-125 -886,-205 -213,-63 -433,-136 -643,-206 -683,-232 394,195 -264,-99 -404,-180 -790,-401 -1165,-640 -187,-114 -364,-235 -544,-367 386,275 -176,-158 -206,-180 -393,-335 -742,-709 -1073,-1103 -466,-536 247,364 -165,-220 -129,-176 -246,-360 -364,-548 -235,-382 -426,-775 -610,-1183 195,445 -73,-239 -81,-272 -73,-209 -132,-430 -194,-646 -59,-221 -103,-441 -147,-665 -44,-283 -52,-305 -19,-59 -73,-739 324,-2830 232,-2120 22,-147 55,-298 81,-452 114,-596 301,-1169 521,-1731 -169,419 199,-371 232,-445 143,-261 298,-514 459,-764 85,-121 166,-239 254,-360 -143,187 -132,165 40,-48 184,-224 390,-441 588,-650 206,-210 426,-408 651,-599 209,-169 224,-188 44,-41 114,-91 239,-172 356,-257 492,-334 1022,-613 1558,-852 -408,187 408,-133 489,-151 290,-99 584,-169 882,-235l419 -74 -11 0 -11 0 -26 0 0 0 48 0 0 0 3 0 11 -3 22 0 0 -8c324,-22 647,-22 970,-22 243,11 474,22 710,48 283,29 305,29 62,0 151,29 301,55 448,85 1955,389 3230,1212 4575,2785 459,547 -250,-357 165,228 169,242 324,496 471,749 114,191 209,393 312,588 110,254 121,272 30,55 58,136 110,276 158,416 374,1017 444,1502 477,2292l0 30 0 0 0 26 0 25 0 0 0 30 0 7 0 22 0 22 0 4 0 25 4 23 0 14 0 26 0 0 4 151c0,88 3,172 11,268l3 0z"/>
   <path class="fil2" d="M12501 87931c-485,-555 -956,-1132 -1404,-1712 -625,-805 -1224,-1650 -1778,-2514 -651,-1003 -1257,-2032 -1801,-3072 -551,-1043 -1055,-2127 -1503,-3215 -10983,-26798 10557,-58171 41452,-55173 2859,0 8301,1625 10987,2731 2433,995 4770,2278 6963,3784 2253,1544 4366,3333 6287,5295 1933,1977 3686,4156 5207,6464 2914,4435 4928,9311 5923,14510 1268,6604 868,13144 -1050,19211 -1922,6077 -5384,11692 -10230,16429 -1973,1932 -4152,3689 -6460,5206 -13563,8926 -31483,9025 -44811,-691l-1631 -1256 -6151 -5997zm606 -5967c1275,1866 2763,3663 4369,5324 1951,1944 3902,3652 6169,5214 11858,8121 27335,7757 39185,-48 2084,-1374 4064,-2969 5872,-4736 5233,-5104 8646,-11347 10054,-17994 1418,-6640 838,-13699 -1867,-20478 -893,-2234 -2047,-4421 -3402,-6475 -1375,-2079 -2969,-4056 -4733,-5868 -1735,-1771 -3642,-3391 -5670,-4795 -1977,-1356 -4064,-2506 -6214,-3388 -3152,-1290 -6452,-2102 -9796,-2418 -30792,-2976 -50315,31755 -33967,55662z"/>
   <path id="Shape" class="fil3" d="M41834 51432c-4078,0 -7397,3318 -7397,7397 0,4079 3319,7397 7397,7397 4079,0 7397,-3318 7397,-7397 0,-4079 -3318,-7397 -7397,-7397l0 0zm0 11097c-2039,0 -3700,-1661 -3700,-3700 0,-2039 1661,-3697 3700,-3697 2040,0 3697,1658 3697,3697 0,2039 -1657,3700 -3697,3700l0 0z"/>
   <path id="Shape_0" class="fil3" d="M41834 42187c-9175,0 -16642,7467 -16642,16642 0,2576 574,5049 1702,7345 40,77 84,155 136,228l13279 19361c346,503 915,805 1525,805 610,0 1180,-302 1525,-805l13280 -19365c51,-73 95,-147 132,-227 1132,-2293 1705,-4766 1705,-7342 0,-9175 -7466,-16642 -16642,-16642l0 0zm11678 22238l-11678 17024 -11677 -17028c-842,-1749 -1268,-3630 -1268,-5592 0,-7136 5806,-12942 12945,-12942 7136,0 12942,5806 12942,12942 0,1962 -423,3843 -1264,5596l0 0z"/>
  </g>
 </g>
</svg>
