<?xml version="1.0" encoding="UTF-8"?>
<!DOCTYPE svg PUBLIC "-//W3C//DTD SVG 1.1//EN" "http://www.w3.org/Graphics/SVG/1.1/DTD/svg11.dtd">
<!-- Creator: CorelDRAW X7 -->
<svg xmlns="http://www.w3.org/2000/svg" xml:space="preserve" width="50px" height="50px" version="1.1" style="shape-rendering:geometricPrecision; text-rendering:geometricPrecision; image-rendering:optimizeQuality; fill-rule:evenodd; clip-rule:evenodd"
viewBox="0 0 5000000 5000000"
 xmlns:xlink="http://www.w3.org/1999/xlink">
 <defs>
  <style type="text/css">
   <![CDATA[
    .fil0 {fill:none}
    .fil1 {fill:black;fill-rule:nonzero}
   ]]>
  </style>
 </defs>
 <g id="Layer_x0020_1">
  <metadata id="CorelCorpID_0Corel-Layer"/>
  <rect class="fil0" x="59" y="59" width="4999882" height="4999882"/>
  <path class="fil1" d="M3148061 2389569c166178,0 316884,67558 425544,176335 108896,108896 176454,259485 176454,425663 0,166179 -67558,316885 -176454,425545 -108660,108895 -259366,176453 -425544,176453 -166061,0 -316767,-67558 -425663,-176453 -108778,-108660 -176336,-259366 -176336,-425545 0,-166178 67558,-316767 176336,-425663 108896,-108777 259602,-176335 425663,-176335zm361648 638848l-324917 0 0 324916c0,48424 -73581,48424 -73581,0l0 -324916 -325034 0c-48307,0 -48425,-73700 0,-73700l325034 0 0 -324916c0,-48424 73581,-48424 73581,0l0 324916 324917 0c48542,0 48542,73700 0,73700zm-1086834 550267l-23503 -15709 0 -118 -118 -118 -355 -118c-59172,-38031 -1148958,-740658 -1148958,-1420135 0,-158974 34369,-299877 98148,-414797 64842,-116809 160155,-206689 280626,-261255 126730,-56929 270586,-68976 416686,-38504 133817,28110 269759,91770 396017,188856 111258,-97440 236926,-162518 365546,-192045 139604,-31889 282751,-21968 415623,33307 130628,54212 235154,146218 306727,265035 71102,117754 109487,261846 109487,421883 0,126731 -37795,254288 -99802,377947 -20905,-17598 -43227,-33661 -66495,-48306 52322,-109014 83975,-219918 83975,-329641 0,-144919 -34369,-274484 -97675,-379364 -62480,-103935 -153659,-184249 -267752,-231610 -116691,-48543 -242713,-57165 -365782,-29055 -124958,28582 -247200,94959 -353970,195587l-26339 24921 -27873 -22913c-123660,-101219 -257594,-166887 -388459,-194170 -128974,-26929 -255468,-16653 -366135,32952 -104054,47244 -186494,124959 -242595,226296 -56810,102282 -87518,229603 -87518,374876 0,634832 1053763,1314192 1111045,1350924l0 118 591 590 1063 473 3425 2244 7795 -5315 236 -236c29173,-19606 102636,-68739 198422,-140195 16181,22086 33779,43110 52795,62834 -99211,74290 -175391,125431 -205627,145627l0 0 -12520 8386 -3188 2126 -1418 827 -21023 10393 -21378 10630 -19724 -13110 0 -118zm1100180 -962111c-95904,-95904 -228540,-155313 -374994,-155313 -146455,0 -279209,59409 -375113,155313 -95785,95786 -155194,228540 -155194,374994 0,146454 59409,279090 155194,374994 95904,95904 228540,155313 375113,155313 146454,0 279090,-59409 374994,-155313 95904,-95904 155312,-228540 155312,-374994 0,-146454 -59526,-279208 -155312,-374994z"/>
 </g>
</svg>
