<?xml version="1.0" encoding="UTF-8"?>
<!DOCTYPE svg PUBLIC "-//W3C//DTD SVG 1.1//EN" "http://www.w3.org/Graphics/SVG/1.1/DTD/svg11.dtd">
<!-- Creator: CorelDRAW X7 -->
<svg xmlns="http://www.w3.org/2000/svg" xml:space="preserve" width="50px" height="50px" version="1.1" style="shape-rendering:geometricPrecision; text-rendering:geometricPrecision; image-rendering:optimizeQuality; fill-rule:evenodd; clip-rule:evenodd"
viewBox="0 0 5000000 5000000"
 xmlns:xlink="http://www.w3.org/1999/xlink">
 <defs>
  <style type="text/css">
   <![CDATA[
    .fil0 {fill:none}
    .fil1 {fill:black}
   ]]>
  </style>
 </defs>
 <g id="Layer_x0020_1">
  <metadata id="CorelCorpID_0Corel-Layer"/>
  <rect class="fil0" x="59" y="59" width="4999882" height="4999882"/>
  <path id="Rectangle-path" class="fil1" d="M2103038 3412505l113620 -4370 -56810 -1477181 -113502 4370 56692 1477181zm-284523 116809c15708,131809 106888,220509 226886,220745l909198 0c116927,-118 212241,-93187 227004,-222280l165706 -1823239 118581 0 0 -113620 -568101 0 0 -113620c0,-125432 -102046,-227359 -227359,-227359l-340860 0c-125313,0 -227359,101927 -227359,227359l0 113620 -568101 0 0 113620 118581 0 165824 1824774 0 0zm1250059 -13110c-6614,57874 -45118,120117 -113975,120117l-909080 0c-73582,-118 -107242,-62243 -113975,-118817l-164761 -1812964 1466434 0 -164643 1811664 0 0zm-852625 -2038904c0,-62716 50905,-113621 113621,-113621l340860 0c62716,0 113621,50905 113621,113621l0 113620 -568102 0 0 -113620 0 0zm227241 1931662l113620 0 0 -1477181 -113620 0 0 1477181zm455308 1063l57046 -1477181 -113620 -4370 -57047 1477181 113621 4370z"/>
 </g>
</svg>
