<?xml version="1.0" encoding="UTF-8"?>
<!DOCTYPE svg PUBLIC "-//W3C//DTD SVG 1.1//EN" "http://www.w3.org/Graphics/SVG/1.1/DTD/svg11.dtd">
<!-- Creator: CorelDRAW X7 -->
<svg xmlns="http://www.w3.org/2000/svg" xml:space="preserve" width="100px" height="100px" version="1.1" style="shape-rendering:geometricPrecision; text-rendering:geometricPrecision; image-rendering:optimizeQuality; fill-rule:evenodd; clip-rule:evenodd"
viewBox="0 0 56256 56256"
 xmlns:xlink="http://www.w3.org/1999/xlink">
 <defs>
  <style type="text/css">
   <![CDATA[
    .str1 {stroke:white;stroke-width:1124.88}
    .str0 {stroke:#F0F0F0;stroke-width:506.295}
    .fil0 {fill:none}
    .fil1 {fill:#F0F0F0}
    .fil2 {fill:white}
    .fil3 {fill:#F0F0F0;fill-rule:nonzero}
   ]]>
  </style>
 </defs>
 <g id="Layer_x0020_1">
  <metadata id="CorelCorpID_0Corel-Layer"/>
  <rect class="fil0" width="56255" height="56255"/>
  <rect class="fil1 str0" transform="matrix(0.785775 0.221673 -0.282905 1.00282 23294.6 5316.34)" width="30765" height="30150" rx="1593" ry="1593"/>
  <rect class="fil2 str1" transform="matrix(0.832889 -0.25253 0.322287 1.06295 8527.67 19152.5)" width="30765" height="30150" rx="2597" ry="2597"/>
  <g>
   <path class="fil3" d="M10766 19090l21494 -6517c466,-140 948,-78 1348,136l3 0c400,213 720,581 862,1047l0 2 8345 27523c141,466 78,949 -136,1349 -214,401 -582,721 -1048,863l-2 0 -21496 6518c-467,141 -949,79 -1350,-135 -401,-214 -721,-582 -862,-1048l0 -2 -8345 -27524 0 -1c-141,-466 -79,-948 135,-1348 214,-401 582,-721 1048,-863l4 0zm21751 -5661l-21495 6518c-231,70 -414,230 -520,428 -106,198 -136,439 -66,670l0 1 8343 27522 1 0c70,230 230,414 428,519 199,107 439,137 671,67l21495 -6517 0 -1c232,-70 415,-229 520,-427 106,-199 136,-440 67,-671l-8344 -27523 -1 0c-70,-230 -229,-413 -428,-518l1 -1c-199,-106 -440,-137 -672,-67zm-22081 7617l0 0 0 0zm-857 256l0 -1 0 1z"/>
  </g>
  <path class="fil1" d="M22225 23448c-105,-346 -470,-541 -815,-436 -346,105 -542,470 -437,815 105,346 470,542 817,437 345,-105 540,-471 435,-816zm8979 -445c-105,-345 -470,-540 -815,-436 -346,105 -541,471 -437,816 105,346 471,542 816,437 347,-105 541,-470 436,-817zm-2087 633c-104,-345 -469,-540 -814,-435 -346,104 -542,470 -438,815 105,346 471,541 817,436 346,-104 540,-469 435,-816zm-2086 633c-105,-346 -470,-541 -816,-436 -345,105 -540,470 -436,815 105,346 471,542 815,438 347,-105 542,-471 437,-817zm-8347 2531c-105,-346 -469,-541 -816,-436 -345,105 -540,470 -436,815 106,346 470,542 817,437 345,-105 540,-470 435,-816zm6260 -1899c-104,-345 -470,-540 -815,-435 -346,105 -541,470 -436,815 105,346 470,541 815,437 346,-105 541,-470 436,-817zm-2086 633c-105,-346 -470,-540 -816,-436 -346,105 -541,471 -437,815 106,347 471,543 817,438 346,-105 541,-471 436,-817zm-2087 633c-105,-345 -471,-541 -816,-436 -346,105 -540,470 -435,815 105,347 469,542 815,437 345,-104 541,-470 436,-816zm7714 -4618c-105,-345 -470,-540 -815,-435 -346,105 -542,470 -437,815 104,346 470,542 817,437 345,-105 540,-470 435,-817zm1265 4174c-105,-346 -470,-540 -815,-436 -345,105 -542,470 -437,815 105,346 470,542 817,437 345,-105 540,-471 435,-816zm-9612 -1643c-104,-345 -470,-540 -815,-436 -346,105 -541,471 -436,816 105,345 470,542 815,437 346,-105 541,-471 436,-817zm1266 4174c-105,-347 -471,-541 -816,-436 -346,105 -541,469 -436,815 105,345 470,541 815,436 346,-105 541,-470 437,-815zm4994 -6072c-105,-345 -469,-540 -815,-435 -346,104 -541,470 -436,814 105,347 470,543 815,438 347,-105 541,-471 436,-817zm1265 4173c-104,-345 -469,-540 -815,-435 -345,104 -541,469 -436,815 105,346 470,541 815,436 347,-105 541,-470 436,-816zm-2086 633c-105,-346 -470,-540 -816,-435 -345,104 -541,469 -436,814 105,346 471,542 816,437 345,-105 541,-470 436,-816zm633 2087c-105,-346 -471,-541 -816,-436 -346,105 -540,470 -435,816 104,345 469,540 814,436 346,-105 542,-471 437,-816zm632 2087c-105,-346 -469,-541 -816,-437 -344,105 -540,471 -435,816 104,346 470,542 815,437 346,-105 541,-471 436,-816zm-2531 -8348c-104,-344 -469,-540 -815,-435 -345,105 -541,470 -436,816 105,345 471,541 816,437 345,-105 540,-471 435,-818zm-821 4807c-104,-346 -470,-541 -814,-436 -347,105 -543,470 -438,815 105,346 470,541 817,436 345,-104 540,-470 435,-815zm633 2087c-105,-346 -470,-541 -815,-437 -347,105 -542,471 -437,816 105,346 470,541 817,436 345,-105 540,-470 435,-815zm4173 -1265c-104,-346 -469,-542 -816,-437 -345,105 -540,470 -435,816 104,345 470,540 815,436 346,-106 541,-470 436,-815z"/>
  <rect class="fil1" transform="matrix(3.9128 -1.18635 0.308464 1.01736 21221 40964.6)" width="3703" height="846" rx="423" ry="423"/>
  <rect class="fil1" transform="matrix(3.9128 -1.18635 0.308464 1.01736 21907 43227.1)" width="3703" height="846" rx="423" ry="423"/>
 </g>
</svg>
