<?xml version="1.0" encoding="UTF-8"?>
<!DOCTYPE svg PUBLIC "-//W3C//DTD SVG 1.1//EN" "http://www.w3.org/Graphics/SVG/1.1/DTD/svg11.dtd">
<!-- Creator: CorelDRAW X7 -->
<svg xmlns="http://www.w3.org/2000/svg" xml:space="preserve" width="50px" height="50px" version="1.1" style="shape-rendering:geometricPrecision; text-rendering:geometricPrecision; image-rendering:optimizeQuality; fill-rule:evenodd; clip-rule:evenodd"
viewBox="0 0 5418544 5418544"
 xmlns:xlink="http://www.w3.org/1999/xlink">
 <defs>
  <style type="text/css">
   <![CDATA[
    .fil0 {fill:none}
    .fil1 {fill:white}
   ]]>
  </style>
 </defs>
 <g id="Layer_x0020_1">
  <metadata id="CorelCorpID_0Corel-Layer"/>
  <g id="_1088020128">
   <rect class="fil0" x="13" y="51" width="5418518" height="5418544"/>
   <path class="fil1" d="M2095920 4022118c-190329,0 -349811,-128508 -397297,-303477l-236663 0c-59134,0 -108028,-47486 -108028,-106748 0,-60413 48894,-108028 108028,-108028l236663 0c47486,-174841 206968,-303476 397297,-303476 189048,0 349682,128635 396016,303476l1464520 0c59134,0 108028,47615 108028,108028 0,59134 -48766,106748 -108028,106748l-1464520 0c-46334,174969 -206968,303477 -396016,303477l0 0zm0 -606825c-108028,0 -196729,87420 -196729,196728 0,108028 88701,195449 196729,195449 108027,0 196728,-87549 196728,-195449 0,-109308 -88701,-196728 -196728,-196728l0 0z"/>
   <path class="fil1" d="M1698623 1699903l-236663 0c-59134,0 -108028,47614 -108028,108028 0,59133 48894,106747 108028,106747l236663 0c47486,174970 206968,303477 397297,303477l0 0c189048,0 349682,-128507 396016,-303477l1464520 0c59134,0 108028,-47614 108028,-106747 0,-60414 -48766,-108028 -108028,-108028l-1464520 0c-46334,-174842 -206968,-303477 -396016,-303477 -190329,0 -349811,128635 -397297,303477zm397297 -88701c-108028,0 -196729,87421 -196729,196729 0,108027 88701,195448 196729,195448 108027,0 196728,-87421 196728,-195448 0,-109308 -88701,-196729 -196728,-196729l0 0z"/>
   <path class="fil1" d="M3322368 3120136c190329,0 349811,-128507 397297,-303476l236663 0c59134,0 108028,-47486 108028,-106748 0,-60414 -48894,-108028 -108028,-108028l-236663 0c-47486,-174841 -206968,-303476 -397297,-303476 -189048,0 -349682,128635 -396016,303476l-1464520 0c-59134,0 -108028,47614 -108028,108028 0,59134 48766,106748 108028,106748l1464520 0c46334,174969 206968,303476 396016,303476l0 0zm0 -606825c108028,0 196729,87421 196729,196729 0,108028 -88701,195448 -196729,195448 -108027,0 -196728,-87548 -196728,-195448 0,-109308 88701,-196729 196728,-196729l0 0z"/>
  </g>
 </g>
</svg>
