<?xml version="1.0" encoding="UTF-8" standalone="no"?>
<svg width="50px" height="50px" viewBox="0 0 50 50" version="1.1" xmlns="http://www.w3.org/2000/svg" xmlns:xlink="http://www.w3.org/1999/xlink">
    <!-- Generator: Sketch 3.7.1 (28215) - http://www.bohemiancoding.com/sketch -->
    <title>Group 2</title>
    <desc>Created with Sketch.</desc>
    <defs></defs>
    <g id="Page-1" stroke="none" stroke-width="1" fill="none" fill-rule="evenodd">
        <g id="Artboard-4" transform="translate(-625.000000, -925.000000)">
            <rect id="Rectangle-6" x="625" y="925" width="50" height="50"></rect>
            <path d="M663,950.5 C663,943.607727 657.392273,938 650.5,938 C643.607727,938 638,943.607727 638,950.5 C638,954.140455 639.565455,957.421818 642.057273,959.708182 L642.045,959.718636 L642.450455,960.060455 L642.531364,960.123182 C642.747273,960.301818 642.970455,960.471364 643.197727,960.635455 C643.271364,960.688636 643.344545,960.742273 643.419545,960.793636 C643.662273,960.960909 643.911364,961.119545 644.165909,961.27 C644.221364,961.302727 644.277273,961.334545 644.333182,961.366364 C644.611818,961.525 644.896364,961.674091 645.187727,961.811818 L645.252273,961.840909 C646.201818,962.281818 647.215455,962.606364 648.275,962.797727 L648.358636,962.812727 C648.687727,962.869545 649.020455,962.915 649.357273,962.945455 C649.398182,962.949091 649.439545,962.951818 649.480455,962.955 C649.817273,962.982273 650.156364,963 650.5,963 C650.840455,963 651.176818,962.982273 651.51,962.955455 C651.552273,962.952273 651.594545,962.95 651.636818,962.945909 C651.970909,962.915455 652.300909,962.871364 652.626818,962.815455 L652.711818,962.8 C653.755909,962.612727 654.754545,962.295909 655.692273,961.865909 L655.795909,961.819091 C656.076364,961.687273 656.350455,961.545 656.619091,961.393636 C656.685909,961.355909 656.752273,961.317727 656.818636,961.278636 C657.063636,961.134545 657.303636,960.984091 657.537273,960.824091 C657.621818,960.766818 657.703636,960.706364 657.786818,960.646818 C657.986364,960.503182 658.182273,960.355 658.372727,960.2 C658.415,960.165455 658.460455,960.136364 658.501818,960.101364 L658.917727,959.754091 L658.905455,959.743636 C661.419545,957.455455 663,954.159091 663,950.5 L663,950.5 L663,950.5 Z M639.36765,950.442123 C639.36765,944.303614 644.361928,939.309773 650.5,939.309773 C656.638072,939.309773 661.63235,944.303614 661.63235,950.442123 C661.63235,953.749959 660.180779,956.723824 657.882713,958.764318 C657.754363,958.675696 657.625141,958.596242 657.492862,958.529884 L653.796485,956.681914 C653.464698,956.51602 653.258203,956.182486 653.258203,955.811844 L653.258203,954.520928 C653.344206,954.41528 653.434575,954.295662 653.527563,954.16382 C654.006035,953.488457 654.389774,952.736696 654.670047,951.927309 C655.222736,951.664935 655.580281,951.113556 655.580281,950.491454 L655.580281,948.943839 C655.580281,948.565339 655.441017,948.19819 655.193049,947.909622 L655.193049,945.872184 C655.215751,945.645608 655.296078,944.366916 654.371002,943.31218 C653.566417,942.394088 652.26415,941.929149 650.5,941.929149 C648.73585,941.929149 647.433583,942.394088 646.628998,943.31218 C645.703922,944.366916 645.784249,945.646044 645.806951,945.872184 L645.806951,947.909622 C645.558983,948.19819 645.419719,948.565339 645.419719,948.943839 L645.419719,950.491454 C645.419719,950.97211 645.635381,951.42046 646.004713,951.723434 C646.358329,953.108211 647.086079,954.157272 647.355002,954.512197 L647.355002,955.77561 C647.355002,956.131845 647.160732,956.459267 646.847716,956.6304 L643.395815,958.512858 C643.285364,958.573104 643.17666,958.642517 643.067083,958.721098 C640.79783,956.681477 639.36765,953.725948 639.36765,950.442123 L639.36765,950.442123 L639.36765,950.442123 Z" id="Fill-1" fill="#2D2D2D"></path>
        </g>
    </g>
</svg>