<?xml version="1.0" encoding="UTF-8"?>
<!DOCTYPE svg PUBLIC "-//W3C//DTD SVG 1.1//EN" "http://www.w3.org/Graphics/SVG/1.1/DTD/svg11.dtd">
<!-- Creator: CorelDRAW X7 -->
<svg xmlns="http://www.w3.org/2000/svg" xml:space="preserve" width="50px" height="50px" version="1.1" style="shape-rendering:geometricPrecision; text-rendering:geometricPrecision; image-rendering:optimizeQuality; fill-rule:evenodd; clip-rule:evenodd"
viewBox="0 0 5000000 5000000"
 xmlns:xlink="http://www.w3.org/1999/xlink">
 <defs>
  <style type="text/css">
   <![CDATA[
    .fil0 {fill:#999999}
   ]]>
  </style>
 </defs>
 <g id="Layer_x0020_1">
  <metadata id="CorelCorpID_0Corel-Layer"/>
  <path class="fil0" d="M3669658 2500000c0,59504 -48288,107910 -107911,107910l-953837 0 0 953837c0,59504 -48170,107911 -107910,107911 -59740,0 -107910,-48288 -107910,-107911l0 -953837 -953837 0c-59504,0 -107911,-48170 -107911,-107910 0,-59740 48288,-107910 107911,-107910l953837 0 0 -953837c0,-59504 48170,-107911 107910,-107911 59740,0 107910,48288 107910,107911l0 953837 953837 0c59504,0 107911,48170 107911,107910zm1330342 0c0,1378512 -1121488,2500000 -2500000,2500000 -1378512,0 -2500000,-1121488 -2500000,-2500000 0,-1378512 1121488,-2500000 2500000,-2500000 1378512,0 2500000,1121488 2500000,2500000zm-215702 0c0,-1259622 -1024676,-2284298 -2284298,-2284298 -1259622,0 -2284298,1024676 -2284298,2284298 0,1259622 1024676,2284298 2284298,2284298 1259622,0 2284298,-1024676 2284298,-2284298z"/>
 </g>
</svg>
