<?xml version="1.0" encoding="UTF-8"?>
<!DOCTYPE svg PUBLIC "-//W3C//DTD SVG 1.1//EN" "http://www.w3.org/Graphics/SVG/1.1/DTD/svg11.dtd">
<!-- Creator: CorelDRAW X7 -->
<svg xmlns="http://www.w3.org/2000/svg" xml:space="preserve" width="50px" height="50px" version="1.1" style="shape-rendering:geometricPrecision; text-rendering:geometricPrecision; image-rendering:optimizeQuality; fill-rule:evenodd; clip-rule:evenodd"
viewBox="0 0 5000000 5000000"
 xmlns:xlink="http://www.w3.org/1999/xlink">
 <defs>
  <style type="text/css">
   <![CDATA[
    .fil0 {fill:none}
    .fil1 {fill:#15181b}
   ]]>
  </style>
 </defs>
 <g id="Layer_x0020_1">
  <metadata id="CorelCorpID_0Corel-Layer"/>
  <g id="_2219925489536">
   <rect class="fil0" x="-59" y="-21" width="5000118" height="5000118"/>
   <path class="fil1" d="M1305750 4160092l-1216220 -1216220 355 -472 -6497 -6024c-44765,-44765 -44765,-117287 0,-161934 44766,-44529 117288,-44647 161817,118l6141 6614 237 -236 1216337 1216219 3282623 -3282623 1181 -1181 2835 -2953c44765,-44883 117287,-44765 161934,0 44766,44766 44766,117169 0,161816l-2952 3071 118 119 -3283686 3283686c-121422,121657 -202920,121303 -324223,0z"/>
  </g>
 </g>
</svg>
