<?xml version="1.0" encoding="UTF-8"?>
<!DOCTYPE svg PUBLIC "-//W3C//DTD SVG 1.1//EN" "http://www.w3.org/Graphics/SVG/1.1/DTD/svg11.dtd">
<!-- Creator: CorelDRAW X7 -->
<svg xmlns="http://www.w3.org/2000/svg" xml:space="preserve" width="50px" height="50px" version="1.1" style="shape-rendering:geometricPrecision; text-rendering:geometricPrecision; image-rendering:optimizeQuality; fill-rule:evenodd; clip-rule:evenodd"
viewBox="0 0 5000000 5000000"
 xmlns:xlink="http://www.w3.org/1999/xlink">
 <defs>
  <style type="text/css">
   <![CDATA[
    .fil0 {fill:none}
    .fil1 {fill:#999999}
   ]]>
  </style>
 </defs>
 <g id="Layer_x0020_1">
  <metadata id="CorelCorpID_0Corel-Layer"/>
  <path class="fil0" d="M2443684 3091145c34710,34711 79929,35183 112632,0l1140496 -1140614c36836,-36836 -19244,-93388 -56198,-56316l-1140614 1140614 -1140614 -1140614c-37308,-37308 -93034,19598 -56198,56316 383943,372964 761511,761512 1140496,1140614"/>
  <g id="_2219931585184">
  </g>
  <g id="_2219931585376">
  </g>
  <g id="_2219931585600">
  </g>
  <g id="_2219931586688">
  </g>
  <g id="_2219931587936">
  </g>
  <g id="_2219931587168">
  </g>
  <g id="_2219931588320">
  </g>
  <g id="_2219931588768">
  </g>
  <g id="_2219931590304">
  </g>
  <g id="_2219931589600">
  </g>
  <g id="_2219931588960">
  </g>
  <g id="_2219931589344">
  </g>
  <g id="_2219931592256">
  </g>
  <g id="_2219931590816">
  </g>
  <g id="_2219931592416">
  </g>
  <g id="_2219931591136">
  </g>
  <g id="_2219931590720">
  </g>
  <g id="_2219931592832">
  </g>
  <g id="_2219931594016">
  </g>
  <g id="_2219931592896">
  </g>
  <g id="_2219931593984">
  </g>
  <g id="_2219931594464">
  </g>
  <g id="_2219931593696">
  </g>
  <g id="_2219931528000">
  </g>
  <g id="_2219931527040">
  </g>
  <g id="_2219931527936">
  </g>
  <g id="_2219931528192">
  </g>
  <g id="_2219931528864">
  </g>
  <g id="_2219931530496">
  </g>
  <g id="_2219931530688">
  </g>
  <path class="fil1" d="M3669658 2500000c0,59504 -48288,107910 -107911,107910 -1793034,0 -330460,0 -2123494,0 -59504,0 -107911,-48170 -107911,-107910 0,-59740 48288,-107910 107911,-107910 1793034,0 330460,0 2123494,0 59504,0 107911,48170 107911,107910z"/>
  <path class="fil1" d="M5000000 2500000c0,1378512 -1121488,2500000 -2500000,2500000 -1378512,0 -2500000,-1121488 -2500000,-2500000 0,-1378512 1121488,-2500000 2500000,-2500000 1378512,0 2500000,1121488 2500000,2500000zm-215702 0c0,-1259622 -1024676,-2284298 -2284298,-2284298 -1259622,0 -2284298,1024676 -2284298,2284298 0,1259622 1024676,2284298 2284298,2284298 1259622,0 2284298,-1024676 2284298,-2284298z"/>
 </g>
</svg>
