<?xml version="1.0" encoding="utf-8"?>
<!-- Generator: Adobe Illustrator 19.1.1, SVG Export Plug-In . SVG Version: 6.00 Build 0)  -->
<svg version="1.1" id="Layer_1" xmlns="http://www.w3.org/2000/svg" xmlns:xlink="http://www.w3.org/1999/xlink" x="0px" y="0px"
	 viewBox="-124 126 50 50" style="enable-background:new -124 126 50 50;" xml:space="preserve">
<style type="text/css">
	.st0{fill:none;}
	.st1{fill:#FFFFFF;}
</style>
<g id="Layer_x0020_1">
	<rect x="-124" y="126" class="st0" width="50" height="50"/>
</g>
<g>
	<path class="st1" d="M-98.6,135.4l0.4,0.7l-0.4,0.7h-0.8l-0.4-0.7l0.4-0.7H-98.6 M-98.2,134.5h-1.6l0.2,0.4h1.2L-98.2,134.5
		L-98.2,134.5z M-98.1,134.5l-0.2,0.4l0.7,1.1h0.5L-98.1,134.5L-98.1,134.5z M-100,134.6l-0.8,1.4h0.5l0.6-1L-100,134.6L-100,134.6z
		 M-98.4,135.1h-1.2l-0.6,1l0.6,1h1.2l0.6-1L-98.4,135.1L-98.4,135.1z M-97.2,136.1L-97.2,136.1L-97.2,136.1L-97.2,136.1
		L-97.2,136.1z M-100.3,136.1h-0.4l0.8,1.4l0.2-0.4L-100.3,136.1L-100.3,136.1z M-97.7,136.2l-0.6,1.1l0.2,0.4l0.8-1.4L-97.7,136.2
		L-97.7,136.2z M-98.4,137.3h-1.2l-0.2,0.4h1.6L-98.4,137.3L-98.4,137.3L-98.4,137.3z"/>
	<g>
		<g>
			<g>
				<path class="st1" d="M-99,141.4C-99,141.4-98.9,141.5-99,141.4c0.1,0.3,0.2,0.5,0.2,0.7c0.1,0.4,0.3,0.8,0.4,1.3
					c0.2,0.6,0.4,1.2,0.6,1.8c-0.2,0.2-0.4,0.3-0.7,0.5c-0.2,0.2-0.4,0.3-0.6,0.5c-0.3-0.2-0.7-0.5-1-0.7l-0.3-0.2
					c0.2-0.5,0.3-0.9,0.5-1.4s0.3-1,0.5-1.5c0.1-0.2,0.1-0.4,0.2-0.6C-99,141.5-99,141.5-99,141.4 M-100.2,141.8
					c0,0.1-0.1,0.3-0.1,0.4c-0.3,0.7-0.5,1.5-0.8,2.2c-0.1-0.1-0.1-0.1-0.2-0.2c-0.2-0.1-0.3-0.3-0.5-0.4c0.2-0.3,0.4-0.5,0.5-0.7
					c0.1-0.1,0.1-0.2,0.2-0.2C-100.8,142.4-100.5,142.1-100.2,141.8 M-97.7,141.8c0.1,0.1,0.1,0.2,0.2,0.2c0.5,0.5,0.9,1.1,1.4,1.8
					c-0.2,0.2-0.4,0.3-0.5,0.5l-0.1,0.1c-0.1-0.2-0.2-0.4-0.2-0.7C-97.2,143.1-97.5,142.4-97.7,141.8 M-102.4,144.7
					c0.1,0.1,0.2,0.2,0.4,0.3c0.1,0.1,0.2,0.2,0.3,0.3c-0.3,0.2-0.6,0.4-0.9,0.6s-0.5,0.4-0.8,0.5l-0.1,0.1
					C-103.2,145.9-102.8,145.3-102.4,144.7 M-95.5,144.7c0.4,0.6,0.8,1.2,1.1,1.8c-0.2-0.1-0.4-0.3-0.5-0.4
					c-0.4-0.3-0.8-0.6-1.2-0.9c0.1-0.1,0.2-0.2,0.3-0.3C-95.7,144.9-95.6,144.8-95.5,144.7 M-97.4,146.3c0.1,0.6,0.3,1.3,0.4,1.9
					c-0.1-0.1-0.2-0.2-0.2-0.3c-0.3-0.3-0.6-0.7-0.9-1l0,0c0.2-0.2,0.4-0.3,0.7-0.5C-97.5,146.3-97.4,146.3-97.4,146.3
					 M-100.5,146.3c0.3,0.2,0.5,0.4,0.8,0.6c-0.3,0.4-0.7,0.8-1,1.2l-0.1,0.1C-100.8,147.6-100.7,146.9-100.5,146.3 M-96.2,146.6
					c0.5,0.4,1,0.7,1.5,1.1c0.4,0.3,0.9,0.6,1.3,0.9c-0.1,0.8-0.1,1.5-0.2,2.3c0,0.4-0.1,0.8-0.1,1.1c-0.4-0.4-0.7-0.8-1-1.2
					l-0.8-0.9l0,0v-0.1v-0.1c-0.1-0.6-0.2-1.1-0.3-1.7C-96,147.5-96.1,147.1-96.2,146.6 M-101.7,146.6c-0.1,0.7-0.3,1.3-0.4,2
					c-0.1,0.4-0.2,0.9-0.3,1.3c-0.1,0.1-0.1,0.2-0.2,0.2c-0.1,0.1-0.1,0.1-0.2,0.2c-0.3,0.3-0.6,0.6-0.8,1c-0.2,0.2-0.4,0.5-0.6,0.7
					v-0.1c0-0.2,0-0.4-0.1-0.6c0-0.4-0.1-0.8-0.1-1.3s-0.1-1-0.1-1.4c0.3-0.2,0.5-0.4,0.8-0.6C-103.1,147.5-102.4,147.1-101.7,146.6
					 M-99,147.6c0.7,0.9,1.6,1.8,2.4,2.8c0.1,0.4,0.2,0.8,0.3,1.2c0.1,0.3,0.1,0.6,0.2,0.9c0.1,0.6,0.2,1.2,0.4,1.8
					c0.2,0.8,0.3,1.6,0.5,2.4c-0.3,0.9-0.6,1.8-0.8,2.7c-0.2,0.7-0.4,1.4-0.6,2.1c-0.7,0.2-1.4,0.5-2.1,0.7l0,0l0,0h-0.1l0,0
					c-0.4-0.1-0.7-0.2-1.1-0.3c-0.3-0.1-0.7-0.2-1-0.3c-0.3-1.1-0.7-2.2-1-3.3l-0.5-1.5l0,0l0,0c0.2-1.3,0.5-2.5,0.7-3.8
					c0.2-0.9,0.3-1.7,0.5-2.6l0,0C-100.6,149.5-99.8,148.6-99,147.6 M-105.4,150.6c0,0.2,0,0.4,0.1,0.6c0,0.5,0.1,0.9,0.1,1.4
					c-0.3-0.1-0.5-0.1-0.8-0.2C-105.8,151.7-105.6,151.1-105.4,150.6 M-92.5,150.6c0.2,0.6,0.4,1.2,0.6,1.8
					c-0.2,0.1-0.5,0.1-0.8,0.2c0-0.4,0.1-0.8,0.1-1.2C-92.6,151.1-92.5,150.9-92.5,150.6 M-95.1,152.1c0.1,0.1,0.2,0.2,0.2,0.3
					c0.3,0.3,0.6,0.7,0.8,1l0.1,0.1l0,0c-0.2,0.4-0.3,0.8-0.5,1.3c0,0.1-0.1,0.1-0.1,0.2C-94.7,154.1-94.9,153.1-95.1,152.1
					 M-102.8,152.1c0,0.1-0.1,0.3-0.1,0.4c-0.2,0.8-0.3,1.6-0.5,2.4c0-0.1-0.1-0.2-0.1-0.3c-0.2-0.4-0.3-0.8-0.5-1.1
					c0.2-0.3,0.5-0.6,0.7-0.9C-103.1,152.4-102.9,152.2-102.8,152.1 M-106.3,153.4c0.1,0,0.3,0.1,0.4,0.1s0.2,0.1,0.4,0.1
					c-0.3,0.4-0.5,0.7-0.8,1.1c-0.1,0.2-0.2,0.3-0.4,0.5c0.1-0.3,0.1-0.7,0.2-1C-106.4,154-106.4,153.8-106.3,153.4
					C-106.3,153.5-106.3,153.5-106.3,153.4 M-91.6,153.4c0.2,0.7,0.3,1.3,0.4,1.8l0,0c-0.4-0.5-0.8-1.1-1.1-1.6c0.1,0,0.1,0,0.2-0.1
					C-92,153.5-91.8,153.4-91.6,153.4C-91.7,153.5-91.7,153.4-91.6,153.4 M-104.7,154.5c0.2,0.4,0.4,0.9,0.5,1.3
					c0.1,0.3,0.3,0.7,0.4,1c-0.2,0.6-0.4,1.1-0.6,1.7c-0.2,0.5-0.4,1-0.6,1.5c-0.1-0.1-0.1-0.2-0.2-0.3s-0.2-0.3-0.3-0.4
					c-0.2-0.2-0.4-0.5-0.6-0.7c-0.3-0.4-0.5-0.7-0.8-1.1c0.4-0.6,0.8-1.1,1.2-1.7C-105.4,155.3-105.1,154.9-104.7,154.5
					 M-93.2,154.5c0.4,0.5,0.8,1.1,1.2,1.6c0.3,0.5,0.7,0.9,1,1.4c-0.4,0.5-0.7,0.9-1.1,1.4c-0.3,0.4-0.6,0.7-0.8,1.1
					c-0.2-0.7-0.5-1.3-0.7-2l-0.5-1.2c0.2-0.4,0.3-0.8,0.5-1.2C-93.5,155.2-93.4,154.8-93.2,154.5 M-103.2,158.4l0.2,0.8
					c0.2,0.6,0.4,1.3,0.6,1.9c-0.5-0.1-1.1-0.3-1.7-0.4c0.2-0.5,0.3-0.9,0.5-1.4C-103.5,159-103.3,158.7-103.2,158.4 M-94.7,158.4
					c0.1,0.3,0.3,0.7,0.4,1c0.2,0.4,0.3,0.8,0.5,1.2c-0.6,0.2-1.2,0.3-1.7,0.4c0.2-0.5,0.3-1.1,0.5-1.6
					C-94.9,159.2-94.8,158.8-94.7,158.4 M-106.9,159.2l0.1,0.2c0.4,0.5,0.7,1,1.1,1.5c-0.1,0-0.2,0.1-0.4,0.1
					c-0.2,0.1-0.3,0.1-0.5,0.2C-106.8,160.5-106.9,159.9-106.9,159.2 M-91,159.2c0,0.7-0.2,1.3-0.4,1.9c-0.2-0.1-0.3-0.1-0.5-0.2
					c-0.1-0.1-0.3-0.1-0.4-0.2c0.3-0.4,0.5-0.7,0.8-1.1C-91.3,159.6-91.1,159.4-91,159.2 M-104.3,161.8c0.3,0.1,0.7,0.2,1,0.3
					c0.4,0.1,0.8,0.2,1.2,0.3c0,0.4,0,0.7,0.1,1.1c0,0.3,0,0.6,0.1,0.8c-0.6,0-1.2,0.1-1.9,0.1c-0.2,0-0.3,0-0.5,0
					c-0.1,0-0.1,0-0.2,0c0-0.5,0.1-1.1,0.1-1.6C-104.4,162.6-104.3,162.2-104.3,161.8 M-93.6,161.8c0,0.5,0.1,1.1,0.1,1.6
					c0,0.4,0,0.7,0.1,1.1c-0.1,0-0.1,0-0.2,0l0,0c-0.5,0-1.1-0.1-1.6-0.1c-0.2,0-0.5,0-0.7,0c0-0.3,0-0.7,0.1-1c0-0.3,0-0.6,0.1-0.9
					C-95.1,162.2-94.4,162-93.6,161.8 M-105.4,161.9C-105.4,162-105.4,162-105.4,161.9c0,0.2,0,0.4,0,0.6c0,0.3,0,0.6-0.1,0.8v0.1
					c-0.1-0.2-0.3-0.5-0.4-0.7c-0.1-0.2-0.2-0.4-0.3-0.5c0.2-0.1,0.4-0.2,0.6-0.2C-105.5,162-105.5,162-105.4,161.9 M-92.5,161.9
					c0.2,0.1,0.4,0.1,0.6,0.2c0.1,0,0.1,0,0.2,0.1c-0.2,0.4-0.4,0.8-0.7,1.2c0-0.3,0-0.5,0-0.8C-92.5,162.4-92.5,162.2-92.5,161.9
					 M-97,162.7c0,0.4,0,0.7-0.1,1c-0.1-0.1-0.2-0.2-0.3-0.2c-0.2-0.1-0.3-0.3-0.5-0.4c0,0,0,0-0.1-0.1
					C-97.5,162.9-97.2,162.8-97,162.7 M-101,162.7c0.1,0,0.2,0.1,0.3,0.1c0.2,0.1,0.4,0.1,0.6,0.2c0,0,0,0-0.1,0.1
					c-0.3,0.2-0.5,0.4-0.8,0.7C-100.9,163.4-101,163.1-101,162.7 M-99,163.5l0.1,0.1c0.5,0.4,1,0.9,1.5,1.3
					c-0.2,0.2-0.4,0.5-0.6,0.7c-0.3,0.4-0.7,0.8-1.1,1.2c-0.3-0.4-0.7-0.8-1-1.2c-0.2-0.3-0.4-0.5-0.6-0.8c0.5-0.4,1-0.9,1.5-1.3
					H-99 M-102.2,165.5L-102.2,165.5c-0.1,0.3-0.2,0.5-0.3,0.7c-0.4-0.2-0.7-0.4-1-0.6c0.2,0,0.5,0,0.7,0
					C-102.6,165.5-102.4,165.5-102.2,165.5 M-95.7,165.5c0.2,0,0.4,0,0.6,0s0.5,0,0.7,0c-0.3,0.2-0.7,0.4-1,0.6
					C-95.5,165.9-95.5,165.7-95.7,165.5C-95.7,165.6-95.7,165.5-95.7,165.5 M-96.7,166c0.1,0.2,0.2,0.5,0.2,0.7
					c-0.4,0.1-0.7,0.2-1.1,0.3c0.1-0.2,0.3-0.4,0.4-0.5C-97,166.3-96.9,166.1-96.7,166 M-101.2,166c0.1,0.2,0.3,0.3,0.4,0.5
					c0.1,0.2,0.3,0.3,0.4,0.5c-0.3-0.1-0.7-0.2-1.1-0.3c0.1-0.2,0.1-0.3,0.2-0.5C-101.2,166.1-101.2,166-101.2,166 M-99,140.5
					c-0.2,0.5-0.4,1.1-0.6,1.6c-0.4,1-0.7,2.1-1.1,3.1c0.5,0.4,1.1,0.8,1.6,1.2l0,0c0,0,0.1,0,0.1-0.1c0.5-0.4,1.1-0.8,1.6-1.2
					c-0.4-1.1-0.8-2.2-1.1-3.2C-98.6,141.5-98.8,141-99,140.5L-99,140.5z M-98.5,140.5c0.5,1.5,1,3,1.6,4.4c0.4-0.4,0.8-0.7,1.2-1.1
					c0,0,0-0.1-0.1-0.1c-0.5-0.7-1-1.3-1.5-1.9C-97.6,141.3-98,140.9-98.5,140.5L-98.5,140.5z M-99.4,140.5L-99.4,140.5L-99.4,140.5
					z M-99.4,140.5c-0.1,0-0.1,0.1-0.2,0.1c-0.6,0.6-1.2,1.3-1.7,2c-0.3,0.4-0.6,0.8-0.9,1.2c0.4,0.4,0.8,0.7,1.2,1.1
					C-100.5,143.4-100,142-99.4,140.5L-99.4,140.5z M-95.4,144.2c-0.4,0.4-0.8,0.7-1.2,1.1c1.1,0.7,2.1,1.5,3.2,2.3
					C-94,146.4-94.7,145.3-95.4,144.2L-95.4,144.2z M-102.5,144.2c-0.7,1.1-1.4,2.2-2,3.4c0.4-0.3,0.8-0.6,1.2-0.9
					c0.6-0.5,1.3-0.9,2-1.4C-101.7,144.9-102.1,144.6-102.5,144.2L-102.5,144.2z M-97.2,145.7c-0.4,0.3-0.9,0.7-1.3,1l-0.1,0.1
					c0.1,0.1,0.2,0.2,0.2,0.3c0.6,0.7,1.2,1.3,1.7,2c0.1,0.1,0.1,0.1,0.2,0.2C-96.7,148.1-96.9,146.9-97.2,145.7L-97.2,145.7z
					 M-100.8,145.7c-0.2,1.2-0.5,2.4-0.7,3.6c0.7-0.8,1.5-1.7,2.2-2.5C-99.8,146.4-100.3,146.1-100.8,145.7L-100.8,145.7z
					 M-96.7,145.8c0.3,1.3,0.5,2.6,0.8,3.9c0,0.1,0,0.2,0.1,0.3c0.7,0.8,1.4,1.6,2.1,2.4c0.1,0.1,0.2,0.2,0.3,0.3
					c0.1-1.5,0.3-2.9,0.4-4.3C-94.3,147.6-95.5,146.7-96.7,145.8L-96.7,145.8z M-101.2,145.8L-101.2,145.8L-101.2,145.8z
					 M-101.2,145.8c-1.2,0.9-2.4,1.7-3.6,2.6c0.1,1,0.2,1.9,0.3,2.9c0.1,0.5,0.1,1,0.1,1.5c0.6-0.7,1.3-1.5,1.9-2.2
					c0.1-0.2,0.3-0.4,0.5-0.6C-101.8,148.6-101.5,147.2-101.2,145.8L-101.2,145.8z M-99,147.1c-0.9,1-1.8,2-2.6,3.1l-0.1,0.1
					c-0.4,2.1-0.8,4.3-1.3,6.4c0,0.1,0,0.1,0,0.2c0.5,1.6,1,3.2,1.5,4.8c0,0,0,0.1,0.1,0.1c0.7,0.2,1.5,0.5,2.2,0.7
					c0.1,0,0.1,0,0.2,0h0.1c0.7-0.2,1.5-0.5,2.2-0.7c0.1,0,0.1-0.1,0.1-0.2c0.5-1.6,1-3.2,1.5-4.8c-0.3-1.4-0.6-2.9-0.9-4.3
					c-0.2-0.7-0.3-1.5-0.4-2.2C-97.2,149.2-98.1,148.2-99,147.1L-99,147.1z M-105.2,149.2c-0.5,1.1-0.9,2.2-1.2,3.4
					c0.5,0.2,1,0.3,1.5,0.5C-105,151.7-105.1,150.5-105.2,149.2L-105.2,149.2z M-92.7,149.2c-0.1,1.3-0.2,2.5-0.3,3.8
					c0.5-0.1,1-0.3,1.5-0.5C-91.9,151.4-92.3,150.3-92.7,149.2L-92.7,149.2z M-102.2,150.9L-102.2,150.9L-102.2,150.9z
					 M-102.2,150.9c-0.3,0.3-0.5,0.6-0.8,0.9c-0.4,0.5-0.9,1-1.3,1.6c0.3,0.8,0.7,1.6,1,2.5c0,0.1,0.1,0.1,0.1,0.2
					C-102.9,154.3-102.6,152.6-102.2,150.9L-102.2,150.9z M-95.7,151c0.3,1.7,0.7,3.4,1,5.1c0-0.1,0.1-0.1,0.1-0.2
					c0.3-0.8,0.7-1.6,1-2.4c-0.1-0.1-0.1-0.2-0.2-0.3c-0.5-0.6-1.1-1.2-1.6-1.9C-95.5,151.2-95.6,151.1-95.7,151L-95.7,151z
					 M-91.4,153c-0.2,0-0.3,0.1-0.5,0.1c-0.4,0.1-0.7,0.2-1.1,0.3c0.7,1,1.4,2,2.2,3c0-0.3-0.1-0.5-0.1-0.8
					C-91,154.8-91.2,153.9-91.4,153L-91.4,153z M-106.5,153L-106.5,153c-0.1,0.4-0.2,0.8-0.3,1.2c-0.2,0.8-0.3,1.5-0.4,2.3
					c0.7-1,1.5-2,2.2-3c-0.4-0.1-0.9-0.3-1.3-0.4C-106.4,153.1-106.4,153-106.5,153L-106.5,153z M-104.7,153.8
					c-0.8,1.2-1.7,2.4-2.5,3.5c-0.1,0.1-0.1,0.2,0,0.3c0.5,0.6,1,1.2,1.4,1.9c0.3,0.4,0.6,0.8,0.9,1.1c0.5-1.2,0.9-2.5,1.4-3.7
					c0-0.1,0.1-0.1,0-0.2C-103.9,155.7-104.3,154.8-104.7,153.8L-104.7,153.8z M-93.3,153.8c-0.4,0.9-0.8,1.9-1.2,2.9
					c0,0.1-0.1,0.1,0,0.2c0.5,1.3,0.9,2.5,1.4,3.8c0.1-0.1,0.2-0.3,0.3-0.4c0.7-0.9,1.3-1.7,2-2.6c0.1-0.1,0-0.2,0-0.3
					C-91.6,156.1-92.4,155-93.3,153.8L-93.3,153.8z M-94.7,157.5c-0.1,0.2-0.1,0.4-0.2,0.7c-0.4,1.2-0.7,2.3-1.1,3.5
					c0.9-0.2,1.7-0.4,2.6-0.7C-93.9,159.8-94.3,158.6-94.7,157.5L-94.7,157.5z M-103.2,157.5c-0.1,0.1-0.1,0.2-0.1,0.3
					c-0.4,1.1-0.8,2.1-1.2,3.2c0.9,0.2,1.7,0.5,2.6,0.7c0-0.1-0.1-0.3-0.1-0.4c-0.3-1.1-0.7-2.2-1.1-3.4
					C-103.1,157.7-103.1,157.6-103.2,157.5L-103.2,157.5z M-90.7,158.3c-0.1,0.1-0.2,0.3-0.3,0.4c-0.6,0.8-1.2,1.5-1.8,2.3
					c0.5,0.2,1.1,0.4,1.6,0.6C-90.8,160.5-90.6,159.4-90.7,158.3L-90.7,158.3z M-107.3,158.3c-0.1,1.1,0.1,2.3,0.5,3.3
					c0.5-0.2,1.1-0.4,1.6-0.6c-0.1-0.1-0.1-0.2-0.2-0.3c-0.6-0.7-1.1-1.5-1.7-2.2C-107.1,158.5-107.2,158.4-107.3,158.3
					L-107.3,158.3z M-93.3,161.4c-1,0.2-1.9,0.5-2.9,0.7c0,0.8-0.1,1.7-0.1,2.5c0.9,0.1,1.7,0.1,2.6,0.2c0.1,0,0.3,0,0.4,0
					s0.1,0,0.2,0C-93.2,163.7-93.3,162.5-93.3,161.4L-93.3,161.4z M-104.6,161.4c0,1.1-0.1,2.3-0.2,3.4h0.1c0.3,0,0.6,0,0.9,0l0,0
					c0.7,0,1.5-0.1,2.2-0.1c0-0.8-0.1-1.7-0.1-2.5c-0.8-0.2-1.7-0.4-2.5-0.6C-104.4,161.5-104.5,161.4-104.6,161.4L-104.6,161.4z
					 M-105.1,161.5c-0.5,0.2-1,0.4-1.5,0.6c0.1,0.3,0.3,0.6,0.4,0.9c0.3,0.5,0.6,1,1,1.4c0.1-0.6,0.1-1.2,0.1-1.8
					C-105.1,162.2-105.1,161.8-105.1,161.5L-105.1,161.5z M-92.9,161.5c0,0.2,0,0.3,0,0.5c0,0.8,0.1,1.6,0.1,2.4l0.1-0.1
					c0.5-0.6,0.9-1.4,1.3-2.2C-91.9,161.8-92.4,161.6-92.9,161.5L-92.9,161.5z M-101.3,162.3c0,0.7,0.1,1.4,0.1,2.1
					c0.6-0.5,1.2-1,1.8-1.5C-100.1,162.7-100.7,162.5-101.3,162.3L-101.3,162.3z M-96.6,162.3L-96.6,162.3L-96.6,162.3z
					 M-96.6,162.3c-0.6,0.2-1.2,0.4-1.9,0.6c0.1,0.2,0.3,0.3,0.5,0.4c0.4,0.4,0.8,0.7,1.3,1.1C-96.7,163.7-96.6,163-96.6,162.3
					L-96.6,162.3z M-99,163.1c-0.7,0.6-1.4,1.2-2.1,1.8c0.7,0.8,1.4,1.7,2.1,2.5c0.7-0.8,1.4-1.6,2.1-2.5
					C-97.6,164.3-98.3,163.7-99,163.1L-99,163.1z M-101.7,165.1L-101.7,165.1L-101.7,165.1z M-101.7,165.1c-0.9,0-1.7,0.1-2.6,0.2
					c0.6,0.5,1.2,1,1.9,1.3c0.1,0,0.1,0,0.2,0.1C-102.1,166.1-101.9,165.6-101.7,165.1L-101.7,165.1z M-96.2,165.1
					c0.2,0.5,0.4,1,0.6,1.5c0.7-0.3,1.4-0.8,2-1.4C-94.5,165.2-95.4,165.2-96.2,165.1L-96.2,165.1z M-101.3,165.3
					c-0.2,0.4-0.3,0.9-0.5,1.3c0,0.1-0.1,0.1-0.1,0.2c0.7,0.3,1.5,0.5,2.2,0.5C-100.2,166.7-100.7,166-101.3,165.3L-101.3,165.3z
					 M-96.6,165.3l-0.1,0.1c-0.5,0.6-1.1,1.2-1.6,1.9c0.8-0.1,1.5-0.2,2.3-0.5C-96.3,166.3-96.4,165.8-96.6,165.3L-96.6,165.3z"/>
			</g>
		</g>
		<path class="st1" d="M-99,140.3c0.6,0.4,1.2,1.1,1.7,1.6c0.9,1.1,1.7,2.2,2.6,3.6c0.9,1.5,1.7,3.1,2.3,4.7c1,2.7,1.6,5.3,1.6,7.8
			c0,0.7,0,1.4-0.1,2c-0.3,1.7-1,3.3-2.2,4.6c-1,1.1-2.3,1.9-3.6,2.4c-0.7,0.2-1.5,0.4-2.3,0.4c-0.5,0-1,0-1.4-0.1
			c-1.4-0.3-2.7-0.9-3.8-1.9c-1.5-1.3-2.5-3.2-2.8-5.2c-0.1-0.6-0.1-1.2-0.1-2c0.1-1.9,0.4-3.8,1-5.8c0.9-3,2.3-5.8,4.1-8.5
			c0.5-0.7,0.9-1.3,1.4-1.8C-100.2,141.4-99.6,140.8-99,140.3 M-99,140.1c-0.7,0.5-1.2,1.1-1.8,1.7c-0.5,0.6-1,1.2-1.4,1.8
			c-1.8,2.6-3.2,5.4-4.2,8.5c-0.6,1.9-0.9,3.9-1,5.9c0,0.7,0,1.4,0.1,2.1c0.3,2.1,1.4,4,2.9,5.3c1.1,1,2.5,1.7,3.9,2
			c0.5,0.1,1,0.1,1.4,0.1c0.8,0,1.6-0.1,2.3-0.4c1.4-0.4,2.7-1.3,3.7-2.4c1.1-1.3,1.9-2.9,2.2-4.6c0.1-0.7,0.1-1.3,0.1-2
			c-0.1-2.7-0.7-5.4-1.6-7.9c-0.6-1.7-1.4-3.3-2.3-4.8c-0.8-1.3-1.6-2.5-2.6-3.6C-97.8,141.2-98.3,140.6-99,140.1L-99,140.1z"/>
	</g>
	<path class="st1" d="M-98,138.4c-0.1-0.1-0.2-0.3-0.4-0.3c-0.2-0.1-0.4-0.2-0.6-0.2c-0.9,0-1.6,0.9-1.1,1.9c0,0.1,0.1,0.2,0.1,0.2
		c0,0.1,0.1,0.1,0.1,0.1s0,0,0.1,0c1,0.6,2.1-0.1,2.1-1C-97.7,138.9-97.8,138.6-98,138.4z M-99,140.1c-0.1,0-0.2,0-0.3-0.1
		c-0.2-0.1-0.4-0.3-0.5-0.6c0-0.1,0-0.2,0-0.3c0-0.5,0.4-0.9,0.9-0.9c0.1,0,0.2,0,0.2,0c0.3,0.1,0.5,0.3,0.6,0.5
		c0,0.1,0.1,0.2,0.1,0.3C-98.1,139.7-98.5,140.1-99,140.1z"/>
	<path class="st1" d="M-98.7,135.8l-0.1-0.1c-0.1,0-0.1,0-0.2,0c-0.3,0-0.5,0.3-0.3,0.5c0,0,0,0,0,0.1l0,0l0,0
		c0.3,0.2,0.6,0,0.6-0.3C-98.6,136-98.6,135.9-98.7,135.8z"/>
	<rect x="-99.2" y="137.5" class="st1" width="0.5" height="0.9"/>
	<path class="st1" d="M-99,141.2c-0.2,0-0.3-0.1-0.3-0.3v-0.8c0-0.2,0.1-0.3,0.3-0.3c0.2,0,0.3,0.1,0.3,0.3v0.8
		C-98.7,141-98.8,141.2-99,141.2z"/>
</g>
</svg>
