<?xml version="1.0" encoding="utf-8"?>
<!-- Generator: Adobe Illustrator 18.0.0, SVG Export Plug-In . SVG Version: 6.00 Build 0)  -->
<!DOCTYPE svg PUBLIC "-//W3C//DTD SVG 1.1//EN" "http://www.w3.org/Graphics/SVG/1.1/DTD/svg11.dtd">
<svg version="1.1" id="Layer_1" xmlns="http://www.w3.org/2000/svg" xmlns:xlink="http://www.w3.org/1999/xlink" x="0px" y="0px"
	 width="50px" height="50px" viewBox="0 0 50 50" enable-background="new 0 0 50 50" xml:space="preserve">
<g>
	<path d="M35.3034935,14.6160746c-1.0932426,0-1.982357,0.8891125-1.982357,1.9823542v9.6681118
		c0,0.0143738-0.0021553,0.0388126-0.0215607,0.0819378c-0.0043144,0.0107822-0.009346,0.0222816-0.0129395,0.033783
		c-0.0431252,0.084095-0.1487846,0.1272202-0.2422218,0.0876884c-0.0352211-0.0143757-0.0697212-0.0287495-0.1049423-0.0431252
		V11.5713854c0-1.0932417-0.8898315-1.9823542-1.9830723-1.9823542c-1.0932426,0-1.9823551,0.8898315-1.9823551,1.9830732
		v13.6407251c-0.126503-0.0258751-0.2537231-0.0510311-0.3809452-0.07547V9.3381815
		c0-1.0932417-0.8898315-1.9823537-1.9830723-1.9823537c-1.0932426,0-1.9823551,0.889112-1.9823551,1.9823537v15.4153566
		c-0.0618134-0.0007172-0.1229095-0.0007172-0.1847229-0.0007172c-0.0028744,0-0.0071869,0-0.0100632,0
		c-0.0589371,0-0.1207523,0.0007172-0.1861591,0.0021553v-13.741353c0-1.0932417-0.8898315-1.9823542-1.9830742-1.9823542
		c-1.0932407,0-1.9823532,0.8891125-1.9823532,1.9823542v14.1517687c-0.1243477,0.0172501-0.2515678,0.0345001-0.3809452,0.0531883
		v-3.034626c0-1.2607155-1.0256786-2.2863922-2.2871113-2.2863922c-1.2607136,0-2.2863922,1.0256767-2.2863922,2.2863922v9.4941692
		c0,6.0541573,4.9249783,10.9798546,10.9791374,10.9798546s10.9798584-4.9256973,10.9805756-10.9798546V16.5984287
		C37.2865639,15.505187,36.3967323,14.6160746,35.3034935,14.6160746z M29.7100601,11.5721045
		c0-0.6878586,0.5592003-1.2470579,1.2463398-1.2470579c0.6878586,0,1.247057,0.5591993,1.247057,1.2463388v14.4313669
		c-0.8172359-0.286068-1.652441-0.5282917-2.4933968-0.7216396V11.5721045z M25.3636875,9.3381815
		c0-0.6871395,0.5592003-1.2463388,1.2463398-1.2463388c0.6878586,0,1.247057,0.5591993,1.247057,1.2463388v15.5397043
		c-0.8193932-0.1193161-1.6553154-0.1955051-2.4933968-0.22785V9.3381815z M21.0173149,11.0136232
		c0-0.6871395,0.5591984-1.2463388,1.2463379-1.2463388c0.6878586,0,1.2470589,0.5591993,1.2470589,1.2463388v13.6364126
		c-0.8387985,0.033783-1.6740055,0.1114101-2.4933968,0.2321625V11.0136232z M36.5498314,31.6781235
		c0,5.6487732-4.5950661,10.2438393-10.2438431,10.2438393c-5.648056,0-10.2431221-4.5950661-10.2431221-10.2438393v-9.4941692
		c0-0.8546124,0.6957645-1.5503769,1.5503769-1.5503769c0.8553295,0,1.551096,0.6957645,1.551096,1.5503769v5.5848045
		c0,0.1157207,0.0229988,0.2307243,0.0675621,0.3406944c0.0050316,0.0136566,0.0452824,0.0862522,0.0524712,0.0991898
		c0.0323448,0.0596581,0.0704384,0.1236286,0.1221905,0.1789722c0.033062,0.0373764,0.0697193,0.067564,0.0963135,0.0876904
		c0.058939,0.0495949,0.1171589,0.0876884,0.1674728,0.1121273c0.0438442,0.0230007,0.0876884,0.0402508,0.1164398,0.0488758
		c0.0265942,0.0122185,0.0912838,0.0359383,0.1200333,0.0416889c3.1920357,0.6476059,6.246069,2.0506363,8.8321877,4.0574303
		c0.1588459,0.1229057,0.3917255,0.0955925,0.5167923-0.0654106c0.1243458-0.1610031,0.0948753-0.3917274-0.0654087-0.5167923
		c-2.6752434-2.0750732-5.8349361-3.5262604-9.0902233-4.1832123c-0.0136566-0.0064678-0.0704384-0.0280323-0.0848141-0.033062
		c-0.0035934-0.0014381-0.0805016-0.076189-0.084095-0.0783463c-0.0035934-0.0071869-0.0265942-0.0826588-0.0309067-0.0898457
		v-1.8069763c2.2008591-0.3097878,3.7167339-0.4686337,4.5066566-0.4729462c0.0208454,0.0014362,0.0416889,0.0014362,0.0625324,0
		c2.8693104,0.0043125,5.6588383,0.5627918,8.2909584,1.660347c0.4614449,0.1926289,1.0184898-0.0366573,1.2139931-0.5031357
		c0.0035934-0.008625,0.0064697-0.0172501,0.0093422-0.0258751c0.0495949-0.118597,0.0733147-0.236475,0.0733147-0.3744774
		v-9.6472664c0-0.6871395,0.5592003-1.2463388,1.2463417-1.2463388c0.6878548,0,1.2470551,0.5591993,1.2470551,1.2463388
		L36.5498314,31.6781235z"/>
	<g>
		<polygon fill="#59C4C3" points="28.9740448,22.7438717 28.5090046,22.7438717 19.8751965,22.7438717 19.8751965,24.9519176 
			28.5090046,24.9519176 28.9740448,24.9519176 32.9739723,24.9519176 32.9739723,22.7438717 		"/>
		<rect x="5.2756381" y="22.7438717" fill="#59C4C3" width="10.0900259" height="2.2080467"/>
	</g>
	<rect x="28.9819527" y="20.5861378" fill="#4EACA9" width="10.0900259" height="2.2080467"/>
	<path d="M30.0004425,24.7650394c-0.1221905,0-0.2206612-0.0984707-0.2206612-0.2206612v-3.4939175
		c0-0.1221905,0.0984707-0.2206612,0.2206612-0.2206612s0.2206612,0.0984707,0.2206612,0.2206612v3.4939175
		C30.2211037,24.6665688,30.122633,24.7650394,30.0004425,24.7650394z"/>
	<g>
		<path d="M44.3943481,8.8619576L43.2022247,7.669836c-0.4385147-0.4385166-1.1529427-0.4368353-1.5933304,0.0035539
			L30.9244328,18.357851c-0.0353203,0.0353203-0.0605907,0.0794125-0.0731983,0.1277504l-0.8414974,3.2244797
			c-0.0542183,0.2077351,0.1351242,0.3970795,0.3428631,0.3428612l3.2244759-0.8414974
			c0.0483398-0.0126076,0.0924301-0.037878,0.1277504-0.0731983l10.6859665-10.6829576
			C44.8348923,10.0111914,44.835022,9.3026323,44.3943481,8.8619576z"/>
		<path fill="#FFFFFF" d="M43.9933777,10.0578766l-0.791214,0.791213l-1.987072-1.987071l0.791214-0.791214
			c0.2213249-0.2213235,0.579895-0.2221632,0.7985039-0.0035534l1.1921234,1.1921215
			C44.2180862,9.4805288,44.2180252,9.8332291,43.9933777,10.0578766z"/>
		
			<rect x="36.1651077" y="7.5650744" transform="matrix(-0.7071068 -0.7071068 0.7071068 -0.7071068 52.2978401 49.7192802)" fill="#FFFFFF" width="0.5620272" height="12.9266577"/>
		
			<rect x="36.959938" y="8.3599033" transform="matrix(-0.7071068 -0.7071068 0.7071068 -0.7071068 53.0926743 51.6381683)" fill="#FFFFFF" width="0.5620272" height="12.9266577"/>
		
			<rect x="37.7547646" y="9.1547318" transform="matrix(0.7071068 0.7071068 -0.7071068 0.7071068 22.1840591 -22.3209324)" fill="#FFFFFF" width="0.5620272" height="12.9266577"/>
		<polygon fill="#FFFFFF" points="30.6731224,21.3884411 31.342186,18.8598232 33.2027855,20.7204208 		"/>
	</g>
</g>
</svg>
