<?xml version="1.0" encoding="utf-8"?>
<!-- Generator: Adobe Illustrator 18.0.0, SVG Export Plug-In . SVG Version: 6.00 Build 0)  -->
<!DOCTYPE svg PUBLIC "-//W3C//DTD SVG 1.1//EN" "http://www.w3.org/Graphics/SVG/1.1/DTD/svg11.dtd">
<svg version="1.1" id="Layer_1" xmlns="http://www.w3.org/2000/svg" xmlns:xlink="http://www.w3.org/1999/xlink" x="0px" y="0px"
	 width="50px" height="50px" viewBox="0 0 50 50" enable-background="new 0 0 50 50" xml:space="preserve">
<g>
	<path d="M37.1292953,13.7044077c-1.1884346,0-2.1549683,0.9665298-2.1549683,2.1549644v10.509944
		c0,0.0156269-0.0023422,0.0421944-0.0234375,0.0890751c-0.0046883,0.0117188-0.0101585,0.0242214-0.0140648,0.0367222
		c-0.0468826,0.0914192-0.1617393,0.1382999-0.2633171,0.0953255c-0.0382843-0.0156269-0.0757904-0.0312538-0.1140747-0.0468807
		V10.3946066c0-1.1884336-0.9673119-2.1549644-2.1557465-2.1549644s-2.1549644,0.9673119-2.1549644,2.1557465V25.223856
		c-0.1375179-0.0281277-0.2758179-0.0554752-0.4141159-0.0820408V7.9669514c0-1.1884341-0.9673119-2.1549644-2.1557465-2.1549644
		s-2.1549644,0.9665303-2.1549644,2.1549644v16.7576218c-0.0671959-0.0007801-0.1336098-0.0007801-0.2008076-0.0007801
		c-0.0031242,0-0.0078125,0-0.0109386,0c-0.0640697,0-0.1312656,0.0007801-0.2023697,0.0023441V9.7882795
		c0-1.1884346-0.9673119-2.1549649-2.1557446-2.1549649c-1.1884346,0-2.1549664,0.9665303-2.1549664,2.1549649V25.172287
		c-0.1351719,0.0187531-0.2734718,0.0375061-0.414114,0.0578213v-3.2988625c0-1.3704891-1.1149883-2.4854755-2.4862576-2.4854755
		c-1.3704891,0-2.4854765,1.1149864-2.4854765,2.4854755v10.3208599c0,6.5813141,5.3538141,11.9359093,11.9351282,11.9359093
		s11.9359112-5.3545952,11.9366894-11.9359093V15.8593721C39.285038,14.6709375,38.3177261,13.7044077,37.1292953,13.7044077z
		 M31.0488243,10.3953886c0-0.7477522,0.6078911-1.3556433,1.3548622-1.3556433
		c0.7477531,0,1.3556442,0.6078911,1.3556442,1.3548613v15.6879549c-0.8883972-0.3109779-1.7963257-0.5742931-2.7105064-0.7844772
		V10.3953886z M26.3239975,7.9669514c0-0.7469711,0.6078911-1.3548617,1.3548622-1.3548617
		c0.7477531,0,1.3556423,0.6078906,1.3556423,1.3548617v16.8927956c-0.8907394-0.1297035-1.7994499-0.2125263-2.7105045-0.2476883
		V7.9669514z M21.5991726,9.7882795c0-0.7469711,0.6078911-1.3548622,1.3548622-1.3548622
		c0.7477512,0,1.3556423,0.6078911,1.3556423,1.3548622v14.8237791c-0.9118366,0.0367241-1.8197651,0.1211109-2.7105045,0.2523766
		V9.7882795z M38.4841537,32.2521057c0,6.1406326-4.9951706,11.1358032-11.1358051,11.1358032
		c-6.1398525,0-11.135025-4.9951706-11.135025-11.1358032V21.9312458c0-0.9290257,0.7563477-1.6853733,1.6853733-1.6853733
		c0.9298058,0,1.6861534,0.7563477,1.6861534,1.6853733v6.0710926c0,0.1257973,0.0250034,0.2508144,0.0734482,0.3703613
		c0.0054684,0.0148449,0.0492249,0.0937614,0.0570374,0.1078262c0.035162,0.0648518,0.0765724,0.1343918,0.1328297,0.1945553
		c0.0359421,0.0406303,0.0757923,0.0734482,0.104702,0.0953255c0.0640697,0.0539131,0.1273594,0.0953255,0.1820545,0.121891
		c0.0476627,0.0250034,0.0953236,0.0437546,0.1265774,0.0531311c0.0289116,0.0132828,0.0992317,0.0390682,0.1304855,0.0453186
		c3.4699783,0.7039967,6.7899361,2.2291927,9.6012344,4.4107227c0.1726799,0.1336098,0.4258366,0.10392,0.5617924-0.0711021
		c0.1351719-0.1750221,0.103138-0.4258347-0.071104-0.5617905c-2.908186-2.2557602-6.3430023-3.8333054-9.8817387-4.5474606
		c-0.0148449-0.0070324-0.0765724-0.0304718-0.0921993-0.0359421c-0.0039063-0.0015621-0.0875111-0.0828228-0.0914173-0.0851669
		c-0.0039082-0.0078144-0.0289097-0.0898552-0.0335979-0.0976696v-1.9643135
		c2.3924942-0.3367634,4.0403614-0.5094414,4.8990669-0.5141296c0.0226593,0.0015621,0.0453186,0.0015621,0.0679779,0
		c3.1191502,0.0046883,6.1515713,0.6117973,9.0128765,1.8049202c0.5008469,0.2094021,1.1071739-0.0398502,1.3197021-0.5469456
		c0.0039063-0.0093765,0.0070305-0.0187531,0.0101547-0.0281296c0.0539131-0.1289215,0.0797005-0.2570629,0.0797005-0.4070835
		V15.8593721c0-0.7469711,0.6078911-1.3548622,1.3548622-1.3548622c0.7477493,0,1.3556404,0.6078911,1.3556404,1.3548622
		L38.4841537,32.2521057z"/>
	<g>
		<rect x="20.357605" y="22.539917" fill="#59C4C3" width="9.8911152" height="2.4003086"/>
		<rect x="34.543808" y="22.539917" fill="#59C4C3" width="10.9693785" height="2.4003086"/>
		<rect x="4.4868164" y="22.539917" fill="#59C4C3" width="10.9685974" height="2.4003086"/>
	</g>
</g>
</svg>
