<?xml version="1.0" encoding="UTF-8"?>
<!DOCTYPE svg PUBLIC "-//W3C//DTD SVG 1.1//EN" "http://www.w3.org/Graphics/SVG/1.1/DTD/svg11.dtd">
<!-- Creator: CorelDRAW X7 -->
<svg xmlns="http://www.w3.org/2000/svg" xml:space="preserve" width="50px" height="50px" version="1.1" style="shape-rendering:geometricPrecision; text-rendering:geometricPrecision; image-rendering:optimizeQuality; fill-rule:evenodd; clip-rule:evenodd"
viewBox="0 0 5000000 5000000"
 xmlns:xlink="http://www.w3.org/1999/xlink">
 <defs>
  <style type="text/css">
   <![CDATA[
    .fil0 {fill:none}
    .fil1 {fill:black;fill-rule:nonzero}
   ]]>
  </style>
 </defs>
 <g id="Layer_x0020_1">
  <metadata id="CorelCorpID_0Corel-Layer"/>
  <g id="_1703166887584">
   <rect class="fil0" x="59" y="59" width="4999882" height="4999882"/>
   <path class="fil1" d="M3500496 3247744c89644,-61652 174919,-132636 254287,-212123l7441 -7440 3780 -3780c75943,-77361 145745,-164407 206807,-256531 65196,-98266 120707,-202674 164053,-308617 43464,-105589 76534,-216729 98975,-331176 22086,-113030 33424,-229485 33424,-347475 0,-241532 -47597,-471843 -133816,-681249 -89408,-217792 -220981,-414088 -383971,-578259 -162871,-163816 -357868,-296216 -574361,-386450 -208225,-86574 -437001,-134526 -676879,-134526 -116809,0 -231728,11339 -343105,33543 -113384,22559 -223461,56219 -328459,99801 -106061,44173 -208225,99093 -304956,163699 -96731,64723 -188383,139486 -273303,222988 -82912,81495 -157202,171021 -221571,266453 -65078,96494 -120116,198894 -163698,304483 -44055,106416 -77715,218264 -100392,333538 -22441,114093 -34015,231729 -34015,350428 0,234681 44999,458733 126612,663533 84565,212477 209170,405229 364010,567865 150234,158029 329758,288538 529243,382317 192989,90589 405466,147635 629400,162517l42873 2834 0 42992 0 471252 0 45826 -45944 0 -584518 0c-36614,0 -60117,19370 -69920,43936 -4016,10276 -6142,21969 -6142,33543l-118 0c0,11339 2244,22913 6378,33307 9803,24566 33188,44054 69802,44054l584518 0 45944 0 0 45944 0 608613c0,37558 18425,60708 42047,70156l236 0c10157,4134 21732,6142 32834,6142 11575,0 23268,-2362 33661,-6496 25630,-10157 45826,-33779 45826,-69802l0 -608849 0 -45944 45944 0 584400 0c36614,0 59881,-19488 69684,-44054 4016,-10158 6142,-21732 6142,-33307 0,-11693 -2126,-23267 -6142,-33543 -9803,-24566 -33070,-43936 -69684,-43936l-584400 0 -45944 0 0 -45826 0 -471016 0 -42992 43110 -2834c104053,-6614 206099,-22323 304719,-46299 99211,-24094 196060,-56928 289484,-97912l118 0c99093,-43582 194643,-96967 285350,-159210l236 -118zm-1006874 -3078967c890774,0 1612888,722114 1612888,1612888 0,890773 -722114,1613006 -1612888,1613006 -890773,0 -1612888,-722233 -1612888,-1613006 0,-890774 722115,-1612888 1612888,-1612888z"/>
  </g>
 </g>
</svg>
