<?xml version="1.0" encoding="UTF-8"?>
<!DOCTYPE svg PUBLIC "-//W3C//DTD SVG 1.1//EN" "http://www.w3.org/Graphics/SVG/1.1/DTD/svg11.dtd">
<!-- Creator: CorelDRAW X7 -->
<svg xmlns="http://www.w3.org/2000/svg" xml:space="preserve" width="50px" height="50px" version="1.1" style="shape-rendering:geometricPrecision; text-rendering:geometricPrecision; image-rendering:optimizeQuality; fill-rule:evenodd; clip-rule:evenodd"
viewBox="0 0 4999882 4999882"
 xmlns:xlink="http://www.w3.org/1999/xlink">
 <defs>
  <style type="text/css">
   <![CDATA[
    .fil1 {fill:none}
    .fil0 {fill:black;fill-rule:nonzero}
   ]]>
  </style>
 </defs>
 <g id="Layer_x0020_1">
  <metadata id="CorelCorpID_0Corel-Layer"/>
  <g id="_1703255017984">
   <path class="fil0" d="M4864057 44881c-399324,0 -798885,118 -1197737,118 -121651,0 -114447,181179 0,181179l978646 0 -1189351 1189469c-106180,-92833 -207753,-172202 -329522,-244957 -105707,-63306 -217320,-117045 -332948,-160155 -372632,-138777 -769712,-163462 -1144588,-81731 -372278,81141 -723178,267634 -1006284,550740 -187792,187792 -339561,412552 -442788,661525 -99329,239405 -154368,502196 -154368,777389 0,275429 55039,538220 154368,777626 103227,248972 254996,473614 442906,661525 187911,187910 412553,339679 661525,442906 239406,99329 502197,154368 777626,154368 275311,0 538102,-55039 777507,-154368 249091,-103345 473733,-255114 661407,-442906 187675,-187793 339326,-412435 442789,-661644 99211,-239405 154249,-502196 154249,-777507 0,-531015 -188146,-970969 -532669,-1374545l1188879 -1189470 0 979001c0,120706 181060,115037 181060,0l119 -1198210c0,-50905 -40512,-90353 -90826,-90353zm-2783696 1016677c1031913,0 1868474,836562 1868474,1868475 0,1031912 -836561,1868474 -1868474,1868474 -1031913,0 -1868475,-836562 -1868475,-1868474 0,-1031913 836562,-1868475 1868475,-1868475z"/>
   <rect class="fil1" x="29" y="-29" width="4999882" height="4999882"/>
  </g>
 </g>
</svg>
