<?xml version="1.0" encoding="UTF-8" standalone="no"?>
<svg width="677px" height="330px" viewBox="0 0 677 330" version="1.1" xmlns="http://www.w3.org/2000/svg" xmlns:xlink="http://www.w3.org/1999/xlink">
    <!-- Generator: Sketch 40.1 (33804) - http://www.bohemiancoding.com/sketch -->
    <title>Group 7</title>
    <desc>Created with Sketch.</desc>
    <defs></defs>
    <g id="SilveHype" stroke="none" stroke-width="1" fill="none" fill-rule="evenodd">
        <g id="Home" transform="translate(-96.000000, -285.000000)">
            <g id="Hero">
                <g id="bg">
                    <g id="Group-2" transform="translate(97.000000, 285.000000)">
                        <g id="Group-5">
                            <g id="Group-7">
                                <g id="Group-4" stroke="#000000" stroke-linecap="square">
                                    <path d="M0.5,82.6821725 L0.5,1.3326618" id="Line"></path>
                                    <path d="M0,0.5 L540.643766,0.5" id="Line"></path>
                                    <path d="M540.5,1.00205165 L540.5,97.4132093" id="Line"></path>
                                </g>
                                <g id="Group-3" transform="translate(369.500000, 285.500000) scale(1, -1) translate(-369.500000, -285.500000) translate(64.000000, 241.000000)" stroke="#000000" stroke-linecap="square">
                                    <path d="M0.5,72.7181492 L0.5,1.29208195" id="Line" transform="translate(0.500000, 36.988550) scale(1, -1) translate(-0.500000, -36.988550) "></path>
                                    <path d="M0,0.5 L610.643766,0.5" id="Line" transform="translate(305.321883, 0.500000) scale(1, -1) translate(-305.321883, -0.500000) "></path>
                                    <path d="M610.5,0.959678772 L610.5,87.4791016" id="Line" transform="translate(610.500000, 44.322248) scale(1, -1) translate(-610.500000, -44.322248) "></path>
                                </g>
                                <g id="Group" transform="translate(49.000000, 53.000000)" fill="#000000">
                                    <path d="M2.10742467,0.533963144 L2.10742467,2.43066181 L14.5714445,2.43066181 L14.5714445,95.0979394 L2.10742467,95.0979394 L2.10742467,96.9946381 L88.0007785,96.9946381 L88.0007785,66.3765025 L86.2395583,66.3765025 C85.0654056,71.6150298 83.4171006,76.0631952 81.2945939,79.7211324 C79.1720872,83.3790695 76.778658,86.3595662 74.1142347,88.6627118 C71.4498113,90.9658574 68.6047918,92.6141624 65.5790907,93.6076762 C62.5533896,94.60119 59.5503134,95.0979394 56.569772,95.0979394 L34.2158235,95.0979394 L34.2158235,2.43066181 L46.6798433,2.43066181 L46.6798433,0.533963144 L2.10742467,0.533963144 Z M95.042627,38.8743719 L95.042627,40.7710705 L104.119685,40.7710705 L104.119685,79.9243501 C104.119685,86.5176689 105.790569,91.1916296 109.132389,93.9463724 C112.474208,96.7011151 117.306225,98.0784659 123.628585,98.0784659 C125.615613,98.0784659 127.64777,97.8300912 129.725117,97.3333343 C131.802464,96.8365774 133.766882,96.0688737 135.618431,95.0302002 C137.469979,93.9915267 139.118284,92.7270735 140.563395,91.2368028 C142.008506,89.7465322 143.092323,88.0079091 143.814878,86.0208815 L144.085835,86.0208815 L144.085835,96.9946381 L169.284832,96.9946381 L169.284832,95.0979394 L160.343252,95.0979394 L160.343252,38.8743719 L134.873299,38.8743719 L134.873299,40.7710705 L143.814878,40.7710705 L143.814878,75.7245173 C143.814878,78.1631421 143.476186,80.5114122 142.79879,82.7693981 C142.121394,85.027384 141.173054,86.9918022 139.953742,88.6627118 C138.734429,90.3336214 137.266761,91.665813 135.550691,92.6593268 C133.834622,93.6528406 131.937942,94.1495901 129.860595,94.1495901 C126.428457,94.1495901 124.035028,92.9528755 122.680236,90.5594105 C121.325445,88.1659454 120.648059,85.2531873 120.648059,81.8210488 L120.648059,38.8743719 L95.042627,38.8743719 Z M172.262326,38.8743719 L172.262326,40.7710705 L179.171728,40.7710705 L199.358021,72.3375554 L182.965126,95.0979394 L173.888068,95.0979394 L173.888068,96.9946381 L195.971059,96.9946381 L195.971059,95.0979394 L185.539217,95.0979394 L200.577328,74.0987756 L213.989697,95.0979394 L204.641682,95.0979394 L204.641682,96.9946381 L239.188693,96.9946381 L239.188693,95.0979394 L233.634076,95.0979394 L212.363955,61.4992774 L227.266587,40.7710705 L234.853382,40.7710705 L234.853382,38.8743719 L215.750917,38.8743719 L215.750917,40.7710705 L224.827975,40.7710705 L211.00917,59.7380572 L199.4935,40.7710705 L207.757687,40.7710705 L207.757687,38.8743719 L172.262326,38.8743719 Z M240.946881,38.8743719 L240.946881,40.7710705 L250.023939,40.7710705 L250.023939,79.9243501 C250.023939,86.5176689 251.694824,91.1916296 255.036643,93.9463724 C258.378462,96.7011151 263.210479,98.0784659 269.53284,98.0784659 C271.519867,98.0784659 273.552024,97.8300912 275.629371,97.3333343 C277.706718,96.8365774 279.671136,96.0688737 281.522685,95.0302002 C283.374233,93.9915267 285.022538,92.7270735 286.467649,91.2368028 C287.91276,89.7465322 288.996577,88.0079091 289.719133,86.0208815 L289.99009,86.0208815 L289.99009,96.9946381 L315.189086,96.9946381 L315.189086,95.0979394 L306.247507,95.0979394 L306.247507,38.8743719 L280.777553,38.8743719 L280.777553,40.7710705 L289.719133,40.7710705 L289.719133,75.7245173 C289.719133,78.1631421 289.38044,80.5114122 288.703044,82.7693981 C288.025648,85.027384 287.077308,86.9918022 285.857996,88.6627118 C284.638684,90.3336214 283.171015,91.665813 281.454946,92.6593268 C279.738876,93.6528406 277.842197,94.1495901 275.76485,94.1495901 C272.332711,94.1495901 269.939282,92.9528755 268.58449,90.5594105 C267.229699,88.1659454 266.552313,85.2531873 266.552313,81.8210488 L266.552313,38.8743719 L240.946881,38.8743719 Z M323.314763,38.8743719 L323.314763,40.7710705 L332.120863,40.7710705 L332.120863,95.0979394 L323.314763,95.0979394 L323.314763,96.9946381 L359.352037,96.9946381 L359.352037,95.0979394 L348.649238,95.0979394 L348.649238,60.4154495 C348.649238,57.5252276 349.078248,54.9285828 349.936283,52.6254372 C350.794318,50.3222916 351.810396,48.3578733 352.984549,46.7321235 C354.158701,45.1063736 355.423155,43.8645 356.777946,43.0064654 C358.132738,42.1484307 359.261714,41.7194199 360.164908,41.7194199 C360.977783,41.7194199 361.58743,41.8774765 361.993867,42.1935945 C362.400305,42.5097125 362.693839,42.8709849 362.874478,43.2774223 C363.055116,43.6838598 363.168014,44.0677116 363.213174,44.4289894 C363.258333,44.7902671 363.280913,44.9709033 363.280913,44.9709033 C363.280913,45.0612227 363.235754,45.422495 363.145434,46.0547311 C363.055115,46.6869671 362.942217,47.3869323 362.806738,48.1546475 C362.671259,48.9223627 362.558362,49.6449073 362.468042,50.3223031 C362.377723,50.9996988 362.332564,51.4738688 362.332564,51.7448271 C362.332564,54.0931324 363.190585,55.6962783 364.906655,56.554313 C366.622724,57.4123476 368.519404,57.8413585 370.596751,57.8413585 C373.486973,57.8413585 375.586868,57.0736548 376.8965,55.5382244 C378.206132,54.002794 378.860938,51.8803191 378.860938,49.170736 C378.860938,45.5579586 377.686803,42.7355186 375.338497,40.7033313 C372.990192,38.671144 369.919377,37.6550656 366.125961,37.6550656 C361.609989,37.6550656 357.974686,38.8969392 355.219944,41.3807237 C352.465201,43.8645081 350.274987,46.8224253 348.649238,50.2545638 L348.378281,50.2545638 L348.378281,38.8743719 L323.314763,38.8743719 Z M416.114486,79.9243501 L399.586112,40.7710705 L409.069606,40.7710705 L409.069606,38.8743719 L374.658073,38.8743719 L374.658073,40.7710705 L381.838432,40.7710705 L407.308385,101.736385 L401.482811,116.232582 C400.850575,117.858332 400.105451,119.664693 399.247416,121.651721 C398.389382,123.638748 397.395883,125.512848 396.26689,127.274077 C395.137897,129.035306 393.873444,130.502975 392.473492,131.677128 C391.073541,132.851281 389.560713,133.438348 387.934963,133.438348 C387.212408,133.438348 386.580181,133.189973 386.038265,132.693217 C385.496348,132.19646 385.225394,131.451335 385.225394,130.457822 C385.225394,129.10303 385.518928,127.928895 386.106004,126.935381 C386.69308,125.941867 386.986614,124.632255 386.986614,123.006505 C386.986614,121.109797 386.21891,119.687288 384.68348,118.738933 C383.14805,117.790579 381.522324,117.316409 379.806255,117.316409 C377.45795,117.316409 375.448372,117.903477 373.777463,119.07763 C372.106553,120.251782 371.271111,122.148462 371.271111,124.767726 C371.271111,128.199864 372.558144,130.886827 375.132247,132.828695 C377.706351,134.770563 381.025541,135.741482 385.089915,135.741482 C388.883332,135.741482 391.908987,134.793142 394.166973,132.896434 C396.424959,130.999726 398.457116,128.019229 400.263505,123.954855 C402.069893,120.071119 403.989153,115.577795 406.02134,110.474746 C408.053527,105.371698 410.401797,99.4784435 413.066221,92.7948053 C415.730644,86.1111671 418.869197,78.4792892 422.481975,69.8989429 C426.094752,61.3185965 430.43002,51.6094028 435.487908,40.7710705 L441.719918,40.7710705 L441.719918,38.8743719 L422.075539,38.8743719 L422.075539,40.7710705 L433.320253,40.7710705 L416.114486,79.9243501 Z M71.1953831,116.113588 L71.1953831,118.010287 L83.6594028,118.010287 L83.6594028,210.677564 L71.1953831,210.677564 L71.1953831,212.574263 L98.2910783,212.574263 L98.2910783,210.677564 L85.8270585,210.677564 L85.8270585,125.73256 L86.0980154,125.73256 L147.06333,212.574263 L150.721248,212.574263 L150.721248,118.010287 L163.185268,118.010287 L163.185268,116.113588 L136.089573,116.113588 L136.089573,118.010287 L148.553593,118.010287 L148.553593,180.601342 L148.282636,180.601342 L103.168303,116.113588 L71.1953831,116.113588 Z M202.335516,212.574263 C198.813058,212.574263 196.058356,211.738821 194.071329,210.067911 C192.084301,208.397001 190.616632,206.206788 189.668278,203.497205 C188.719924,200.787622 188.132857,197.671648 187.907058,194.14919 C187.681259,190.626732 187.568362,187.059168 187.568362,183.44639 C187.568362,179.833613 187.681259,176.288628 187.907058,172.81133 C188.132857,169.334032 188.719924,166.240638 189.668278,163.531054 C190.616632,160.821471 192.084301,158.631258 194.071329,156.960348 C196.058356,155.289439 198.813058,154.453997 202.335516,154.453997 C205.857974,154.453997 208.612675,155.289439 210.599703,156.960348 C212.58673,158.631258 214.054399,160.821471 215.002753,163.531054 C215.951107,166.240638 216.538175,169.334032 216.763973,172.81133 C216.989772,176.288628 217.10267,179.833613 217.10267,183.44639 C217.10267,187.059168 216.989772,190.626732 216.763973,194.14919 C216.538175,197.671648 215.951107,200.787622 215.002753,203.497205 C214.054399,206.206788 212.58673,208.397001 210.599703,210.067911 C208.612675,211.738821 205.857974,212.574263 202.335516,212.574263 L202.335516,212.574263 Z M202.335516,152.557298 C197.638905,152.557298 193.281058,153.39274 189.261843,155.06365 C185.242628,156.734559 181.742802,158.969932 178.762261,161.769834 C175.781719,164.569737 173.456029,167.843767 171.785119,171.592024 C170.11421,175.34028 169.278767,179.291696 169.278767,183.44639 C169.278767,187.691404 170.11421,191.687979 171.785119,195.436236 C173.456029,199.184492 175.781719,202.458523 178.762261,205.258425 C181.742802,208.058328 185.242628,210.271121 189.261843,211.89687 C193.281058,213.52262 197.638905,214.335483 202.335516,214.335483 C207.032126,214.335483 211.389974,213.52262 215.409189,211.89687 C219.428403,210.271121 222.928229,208.058328 225.90877,205.258425 C228.889312,202.458523 231.215002,199.184492 232.885912,195.436236 C234.556822,191.687979 235.392264,187.691404 235.392264,183.44639 C235.392264,179.291696 234.556822,175.34028 232.885912,171.592024 C231.215002,167.843767 228.889312,164.569737 225.90877,161.769834 C222.928229,158.969932 219.428403,156.734559 215.409189,155.06365 C211.389974,153.39274 207.032126,152.557298 202.335516,152.557298 L202.335516,152.557298 Z M251.375692,136.977273 L251.375692,154.453997 L242.298634,154.453997 L242.298634,156.350695 L251.375692,156.350695 L251.375692,198.078066 C251.375692,199.703816 251.46601,201.465018 251.646649,203.361726 C251.827288,205.258435 252.527253,207.019637 253.746565,208.645387 C254.965877,210.271137 256.862557,211.625908 259.436661,212.709741 C262.010765,213.793575 265.646068,214.335483 270.342678,214.335483 C272.058748,214.335483 273.865109,214.177426 275.761817,213.861308 C277.658526,213.54519 279.442308,212.890384 281.113217,211.89687 C282.784127,210.903357 284.274375,209.480847 285.584007,207.629298 C286.893639,205.77775 287.819399,203.316582 288.361316,200.245721 L286.329139,199.839286 C285.967861,201.194078 285.493691,202.594008 284.906615,204.039119 C284.319538,205.48423 283.574414,206.771262 282.67122,207.900255 C281.768025,209.029248 280.706788,209.955009 279.487476,210.677564 C278.268163,211.40012 276.800494,211.761392 275.084425,211.761392 C273.548995,211.761392 272.307121,211.490438 271.358767,210.948521 C270.410413,210.406604 269.687868,209.66148 269.191111,208.713126 C268.694354,207.764772 268.355662,206.703535 268.175023,205.529382 C267.994384,204.355229 267.904066,203.090776 267.904066,201.735985 L267.904066,156.350695 L283.755048,156.350695 L283.755048,154.453997 L267.904066,154.453997 L267.904066,136.977273 C266.549274,137.51919 265.171924,137.97078 263.771972,138.332058 C262.372021,138.693336 260.99467,138.873972 259.639879,138.873972 C258.285087,138.873972 256.907737,138.693336 255.507785,138.332058 C254.107834,137.97078 252.730483,137.51919 251.375692,136.977273 L251.375692,136.977273 Z M290.525939,210.677564 L290.525939,212.574263 L324.531037,212.574263 L324.531037,210.677564 L315.995893,210.677564 L315.995893,181.68517 C315.995893,177.530476 316.447483,173.917753 317.350677,170.846892 C318.253872,167.776031 319.450586,165.201966 320.940857,163.124619 C322.431128,161.047272 324.169751,159.489285 326.156778,158.450612 C328.143806,157.411938 330.221122,156.892609 332.388788,156.892609 C335.008052,156.892609 337.085368,157.77321 338.620798,159.534439 C340.156229,161.295668 340.923932,164.072949 340.923932,167.866366 L340.923932,210.677564 L332.524267,210.677564 L332.524267,212.574263 L366.529364,212.574263 L366.529364,210.677564 L357.452306,210.677564 L357.452306,172.472634 C357.452306,166.511551 355.804001,161.815011 352.507342,158.382872 C349.210683,154.950734 344.581881,153.23469 338.620798,153.23469 C334.556424,153.23469 331.192075,153.821758 328.527652,154.99591 C325.863228,156.170063 323.673015,157.547414 321.956946,159.128004 C320.240876,160.708594 318.953844,162.289161 318.095809,163.869751 C317.237774,165.450341 316.628127,166.647055 316.26685,167.45993 L315.995893,167.45993 L315.995893,114.894282 L290.525939,114.894282 L290.525939,116.79098 L299.467519,116.79098 L299.467519,210.677564 L290.525939,210.677564 Z M373.435734,154.453997 L373.435734,156.350695 L382.512792,156.350695 L382.512792,210.677564 L373.435734,210.677564 L373.435734,212.574263 L408.118224,212.574263 L408.118224,210.677564 L399.041166,210.677564 L399.041166,154.453997 L373.435734,154.453997 Z M414.618159,210.677564 L414.618159,212.574263 L448.623256,212.574263 L448.623256,210.677564 L440.088112,210.677564 L440.088112,181.68517 C440.088112,177.530476 440.539703,173.917753 441.442897,170.846892 C442.346091,167.776031 443.542806,165.201966 445.033077,163.124619 C446.523347,161.047272 448.26197,159.489285 450.248998,158.450612 C452.236026,157.411938 454.313341,156.892609 456.481008,156.892609 C459.100272,156.892609 461.177587,157.77321 462.713018,159.534439 C464.248448,161.295668 465.016152,164.072949 465.016152,167.866366 L465.016152,210.677564 L456.616486,210.677564 L456.616486,212.574263 L490.621584,212.574263 L490.621584,210.677564 L481.544526,210.677564 L481.544526,172.472634 C481.544526,166.511551 479.896221,161.815011 476.599562,158.382872 C473.302902,154.950734 468.674101,153.23469 462.713018,153.23469 C458.648643,153.23469 455.261715,153.844337 452.552132,155.06365 C449.842549,156.282962 447.629756,157.705472 445.913687,159.331222 C444.197617,160.956972 442.888005,162.605277 441.984811,164.276186 C441.081617,165.947096 440.44939,167.188969 440.088112,168.001844 L439.817155,168.001844 L439.817155,154.453997 L414.618159,154.453997 L414.618159,156.350695 L423.559738,156.350695 L423.559738,210.677564 L414.618159,210.677564 Z M510.940323,233.708905 C510.940323,230.096128 511.685447,227.205949 513.175718,225.038283 C514.665989,222.870616 516.765884,220.702982 519.475467,218.535316 L533.565229,218.535316 C534.92002,218.535316 536.410268,218.715952 538.036018,219.07723 C539.661768,219.438507 541.152016,220.115893 542.506808,221.109407 C543.8616,222.102921 544.990576,223.435112 545.89377,225.106022 C546.796964,226.776931 547.248555,228.967145 547.248555,231.676728 C547.248555,234.386311 546.706646,236.870058 545.622813,239.128044 C544.53898,241.38603 543.11647,243.327869 541.355241,244.953619 C539.594012,246.579368 537.539276,247.843822 535.19097,248.747016 C532.842665,249.65021 530.358918,250.101801 527.739654,250.101801 C524.307516,250.101801 521.507655,249.559892 519.339989,248.476059 C517.172322,247.392226 515.456279,246.014875 514.191806,244.343965 C512.927334,242.673056 512.069313,240.889274 511.617715,238.992566 C511.166118,237.095857 510.940323,235.334655 510.940323,233.708905 L510.940323,233.708905 Z M526.655826,189.949357 C525.120396,189.949357 523.675307,189.768721 522.320515,189.407443 C520.965724,189.046166 519.814168,188.210723 518.865814,186.901092 C517.91746,185.59146 517.172336,183.672201 516.630419,181.143256 C516.088502,178.614312 515.817548,175.227384 515.817548,170.982371 C515.817548,168.905024 515.953025,166.872867 516.223984,164.885839 C516.494942,162.898812 517.014271,161.137609 517.781986,159.602179 C518.549701,158.066748 519.656098,156.824875 521.101209,155.876521 C522.54632,154.928167 524.39784,154.453997 526.655826,154.453997 C529.094451,154.453997 530.991131,154.905587 532.345922,155.808781 C533.700714,156.711976 534.739372,157.976429 535.461927,159.602179 C536.184483,161.227929 536.636073,163.147188 536.816712,165.360014 C536.997351,167.57284 537.087669,169.988849 537.087669,172.608112 C537.087669,176.311209 536.839294,179.314285 536.342537,181.617431 C535.84578,183.920577 535.145815,185.681779 534.242621,186.901092 C533.339427,188.120404 532.25561,188.933267 530.991138,189.339704 C529.726665,189.746142 528.281576,189.949357 526.655826,189.949357 L526.655826,189.949357 Z M530.720181,202.955291 L515.817548,202.955291 C512.746687,202.955291 510.308099,202.413383 508.50171,201.329549 C506.695322,200.245716 505.792141,198.574832 505.792141,196.316846 C505.792141,195.323332 506.017936,194.216935 506.469533,192.997623 C506.921131,191.778311 508.456538,190.310642 511.075802,188.594573 C512.88219,189.317128 515.185301,190.039673 517.985204,190.762228 C520.785106,191.484784 523.991398,191.846056 527.604176,191.846056 C532.120147,191.846056 535.913507,191.281568 538.984368,190.152575 C542.055228,189.023582 544.561555,187.555913 546.503423,185.749525 C548.445291,183.943136 549.845221,181.933559 550.703256,179.720732 C551.56129,177.507906 551.990301,175.272534 551.990301,173.014548 C551.990301,169.311451 551.358075,166.489011 550.093603,164.547143 C548.829131,162.605275 547.654995,161.047288 546.571162,159.873136 C548.377551,158.608664 549.642004,157.773221 550.36456,157.366784 C551.087115,156.960346 551.719342,156.757131 552.261258,156.757131 C553.254772,156.757131 553.84184,157.073244 554.022478,157.70548 C554.203117,158.337716 554.383753,159.286056 554.564392,160.550528 C554.654712,160.911806 554.767609,161.385976 554.903089,161.973052 C555.038568,162.560128 555.309522,163.102037 555.715959,163.598794 C556.122397,164.095551 556.709464,164.524561 557.47718,164.885839 C558.244895,165.247117 559.260973,165.427753 560.525445,165.427753 C562.331834,165.427753 563.776923,164.908424 564.860757,163.869751 C565.94459,162.831077 566.486498,161.408567 566.486498,159.602179 C566.486498,157.524832 565.831692,155.831368 564.52206,154.521736 C563.212429,153.212104 561.24801,152.557298 558.628747,152.557298 C555.648205,152.557298 553.254776,153.076627 551.448387,154.1153 C549.641999,155.153974 547.609842,156.711961 545.351856,158.789308 C543.274509,157.163558 540.768182,155.718469 537.832801,154.453997 C534.897419,153.189524 531.397593,152.557298 527.333219,152.557298 C523.268844,152.557298 519.588382,153.099206 516.291723,154.18304 C512.995063,155.266873 510.217782,156.734542 507.959797,158.58609 C505.701811,160.437639 503.963188,162.605272 502.743875,165.089057 C501.524563,167.572841 500.914916,170.214645 500.914916,173.014548 C500.914916,175.001575 501.20845,176.740198 501.795526,178.230469 C502.382602,179.72074 503.105147,181.030352 503.963182,182.159345 C504.821216,183.288338 505.746977,184.281837 506.74049,185.139871 C507.734004,185.997906 508.637185,186.74303 509.45006,187.375266 C506.650157,188.910697 504.414785,190.536422 502.743875,192.252491 C501.072966,193.968561 499.831092,195.616866 499.018217,197.197456 C498.205342,198.778046 497.686013,200.155397 497.460215,201.329549 C497.234416,202.503702 497.121519,203.316565 497.121519,203.768162 C497.121519,206.568064 497.798904,208.916334 499.153696,210.813043 C500.508487,212.709751 502.179372,214.199999 504.166399,215.283832 C506.153427,216.367666 508.298481,217.135369 510.601627,217.586966 C512.904772,218.038564 514.959509,218.264359 516.765898,218.264359 L516.765898,218.535316 C514.688551,219.077232 512.588655,219.844936 510.466148,220.83845 C508.343642,221.831964 506.401803,223.028678 504.640574,224.428629 C502.879345,225.828581 501.456835,227.476886 500.373002,229.373594 C499.289169,231.270302 498.74726,233.437936 498.74726,235.876561 C498.74726,237.141033 499.018214,238.69902 499.560131,240.550568 C500.102048,242.402117 501.276183,244.208478 503.082571,245.969707 C504.88896,247.730936 507.485605,249.243764 510.872584,250.508236 C514.259563,251.772708 518.798046,252.404935 524.488171,252.404935 C529.546059,252.404935 534.039384,251.592072 537.968279,249.966322 C541.897174,248.340572 545.261523,246.218097 548.061425,243.598834 C550.861328,240.97957 552.983803,237.999074 554.428914,234.657254 C555.874025,231.315435 556.596569,227.883348 556.596569,224.36089 C556.596569,220.206196 555.874025,216.75153 554.428914,213.996787 C552.983803,211.242044 551.087123,209.051831 548.738818,207.426081 C546.390513,205.800331 543.658391,204.648775 540.54237,203.97138 C537.42635,203.293984 534.152319,202.955291 530.720181,202.955291 L530.720181,202.955291 Z" id="Spring"></path>
                                    <path d="M383.041078,147.093975 C384.937786,148.990683 387.195738,149.939023 389.815002,149.939023 C392.434266,149.939023 394.692218,148.990683 396.588926,147.093975 C398.485634,145.197267 399.433974,142.939315 399.433974,140.320051 C399.433974,137.700788 398.485634,135.442836 396.588926,133.546128 C394.692218,131.649419 392.434266,130.70108 389.815002,130.70108 C387.195738,130.70108 384.937786,131.649419 383.041078,133.546128 C381.14437,135.442836 380.19603,137.700788 380.19603,140.320051 C380.19603,142.939315 381.14437,145.197267 383.041078,147.093975 Z" id="Path"></path>
                                    <path d="M7.54252011,128.42904 C7.54252011,126.142759 7.64380953,124.044621 7.84639142,122.134563 C8.04897331,120.224505 8.46860093,118.574935 9.10528686,117.185802 C9.7419728,115.796669 10.6680475,114.71866 11.8835389,113.951743 C13.0990302,113.184825 14.719661,112.801373 16.7454799,112.801373 C18.9160001,112.801373 20.6162155,113.213765 21.8461769,114.038563 C23.0761384,114.863361 23.9949782,115.977544 24.6027239,117.381147 C25.2104695,118.784751 25.5794524,120.405381 25.7096836,122.243088 C25.8399149,124.080796 25.9050295,126.01253 25.9050295,128.038349 C25.9050295,130.29569 25.8254449,132.386593 25.6662735,134.311121 C25.507102,136.235649 25.1236492,137.899689 24.5159035,139.303292 C23.9081578,140.706895 22.996553,141.806609 21.7810617,142.602466 C20.5655703,143.398324 18.8870599,143.796247 16.7454799,143.796247 C15.1248248,143.796247 13.7284777,143.564728 12.5563968,143.101684 C11.3843159,142.638639 10.4293013,141.821089 9.6913244,140.649008 C8.95334752,139.476927 8.4107256,137.899706 8.06344236,135.917298 C7.71615912,133.934889 7.54252011,131.438828 7.54252011,128.42904 L7.54252011,128.42904 Z M0.466659517,128.42904 C0.466659517,130.686381 0.915226971,132.784519 1.81237534,134.723517 C2.7095237,136.662516 3.90329192,138.348261 5.39371582,139.780804 C6.88413971,141.213348 8.6132949,142.342001 10.5812332,143.166799 C12.5491716,143.991597 14.6038999,144.403989 16.7454799,144.403989 C18.9160001,144.403989 20.9779634,143.977127 22.9314316,143.123389 C24.8848998,142.269651 26.6068201,141.104822 28.097244,139.628869 C29.5876679,138.152915 30.7742011,136.43823 31.6568794,134.484761 C32.5395576,132.531293 32.9808901,130.46933 32.9808901,128.29881 C32.9808901,125.809946 32.5106178,123.574344 31.570059,121.591936 C30.6295002,119.609527 29.3995572,117.923782 27.880193,116.534649 C26.3608289,115.145516 24.6244387,114.074742 22.6709705,113.322295 C20.7175023,112.569848 18.7423585,112.19363 16.7454799,112.19363 C14.8933026,112.19363 12.9977434,112.577083 11.0587453,113.344 C9.11974723,114.110917 7.36888717,115.203396 5.8061126,116.621469 C4.24333803,118.039542 2.9627503,119.746993 1.96431099,121.743871 C0.965871683,123.74075 0.466659517,125.969117 0.466659517,128.42904 L0.466659517,128.42904 Z M45.8727443,126.909684 L45.8727443,113.495936 C46.1910872,113.466995 46.5094254,113.438056 46.8277684,113.409115 C47.1461114,113.380175 47.4644496,113.365705 47.7827925,113.365705 C48.8825228,113.365705 49.7868926,113.510404 50.4959293,113.799807 C51.2049659,114.08921 51.7620577,114.530542 52.1672215,115.123818 C52.5723853,115.717093 52.8617836,116.469529 53.0354252,117.381147 C53.2090669,118.292766 53.2958864,119.385245 53.2958864,120.658617 C53.2958864,121.440004 53.2452417,122.20691 53.1439507,122.959357 C53.0426598,123.711804 52.8039061,124.384655 52.4276826,124.97793 C52.0514591,125.571206 51.4871323,126.041478 50.7346853,126.388761 C49.9822383,126.736045 48.9548741,126.909684 47.652562,126.909684 L45.8727443,126.909684 Z M39.5782671,113.495936 L39.5782671,143.188504 L35.5845298,143.188504 L35.5845298,143.796247 L49.8664815,143.796247 L49.8664815,143.188504 L45.8727443,143.188504 L45.8727443,127.517426 L48.7378167,127.517426 C50.0980093,127.517426 51.1543133,127.777885 51.9067604,128.29881 C52.6592074,128.819735 53.2235342,129.514291 53.5997577,130.382499 C53.9759812,131.250707 54.2147348,132.241896 54.3160258,133.356097 C54.4173167,134.470297 54.4969013,135.620655 54.5547818,136.807206 C54.5837221,137.588594 54.6488367,138.420614 54.7501276,139.303292 C54.8514186,140.18597 55.1191121,141.003521 55.5532161,141.755968 C55.9873202,142.508415 56.6529364,143.137856 57.5500848,143.644311 C58.4472331,144.150766 59.6916461,144.403989 61.2833609,144.403989 C62.0647482,144.403989 62.7158945,144.353345 63.2368193,144.252054 C63.7577442,144.150763 64.1990767,144.013298 64.5608301,143.839657 C64.9225834,143.666015 65.2409216,143.456201 65.5158542,143.210209 C65.7907868,142.964217 66.0729502,142.696523 66.3623529,142.407121 L65.928251,142.016429 C65.6388483,142.305832 65.3060402,142.616935 64.9298167,142.949748 C64.5535931,143.282561 64.0760859,143.448965 63.4972805,143.448965 C62.9763556,143.448965 62.5784329,143.347676 62.3035003,143.145094 C62.0285677,142.942512 61.811519,142.537354 61.6523475,141.929609 C61.493176,141.321863 61.3701817,140.468138 61.2833609,139.368408 C61.1965401,138.268677 61.0807807,136.807216 60.9360794,134.983979 C60.8203183,133.421204 60.523685,132.176791 60.0461705,131.250702 C59.5686561,130.324614 58.9247447,129.601118 58.1144172,129.080193 C57.3040896,128.559268 56.3418401,128.16858 55.2276397,127.908118 C54.1134393,127.647656 52.8473215,127.387197 51.4292483,127.126735 L51.4292483,126.909684 C52.4132175,126.822863 53.4116418,126.641989 54.4245512,126.367056 C55.4374607,126.092124 56.3563005,125.694201 57.1810982,125.173276 C58.0058958,124.652351 58.678747,123.9795 59.1996719,123.154702 C59.7205967,122.329905 59.9810553,121.338715 59.9810553,120.181105 C59.9810553,118.734091 59.6410122,117.533088 58.9609159,116.578059 C58.2808195,115.62303 57.4198594,114.863359 56.3780097,114.299024 C55.33616,113.734689 54.1858015,113.336766 52.9268998,113.105244 C51.667998,112.873722 50.4742298,112.757962 49.3455593,112.757962 C48.130068,112.757962 46.9290648,112.779667 45.7425137,112.823078 C44.5559626,112.866488 43.3549595,112.888193 42.1394681,112.888193 L35.5845298,112.888193 L35.5845298,113.495936 L39.5782671,113.495936 Z" id="OR"></path>
                                </g>
                            </g>
                        </g>
                    </g>
                </g>
            </g>
        </g>
    </g>
</svg>