<?xml version="1.0" encoding="UTF-8"?>
<!DOCTYPE svg PUBLIC "-//W3C//DTD SVG 1.1//EN" "http://www.w3.org/Graphics/SVG/1.1/DTD/svg11.dtd">
<!-- Creator: CorelDRAW X7 -->
<svg xmlns="http://www.w3.org/2000/svg" xml:space="preserve" width="50px" height="50px" version="1.1" style="shape-rendering:geometricPrecision; text-rendering:geometricPrecision; image-rendering:optimizeQuality; fill-rule:evenodd; clip-rule:evenodd"
viewBox="0 0 5000118 5000118"
 xmlns:xlink="http://www.w3.org/1999/xlink">
 <defs>
  <style type="text/css">
   <![CDATA[
    .fil0 {fill:none}
    .fil1 {fill:#15181B}
   ]]>
  </style>
 </defs>
 <g id="Layer_x0020_1">
  <metadata id="CorelCorpID_0Corel-Layer"/>
  <g id="_1306444016">
   <rect class="fil0" x="6" y="-6" width="5000118" height="5000118"/>
   <path id="Shape" class="fil1" d="M2500000 49962c676321,0 1289096,274379 1732496,717661 443281,443399 717660,1056175 717660,1732495 0,676321 -274379,1289096 -717660,1732496 -443400,443281 -1056175,717660 -1732496,717660 -676321,0 -1289096,-274379 -1732496,-717660 -443281,-443400 -717660,-1056175 -717660,-1732496 0,-676320 274379,-1289096 717660,-1732495 443400,-443282 1056175,-717661 1732496,-717661zm842861 1883209c0,-464778 -378083,-842861 -842861,-842861 -464778,0 -842861,378083 -842861,842861 0,331782 193352,618799 473164,756048 -682462,159808 -1200274,751559 -1247756,1470046l-20906 -20788c-419068,-418950 -678682,-998772 -678682,-1638359 0,-639823 259614,-1219408 678682,-1638359 418951,-419068 998772,-678682 1638359,-678682 639823,0 1219408,259614 1638359,678682 419068,418951 678682,998536 678682,1638359 0,639587 -259614,1219409 -678682,1638359l-20906 20788c-47482,-718487 -565294,-1310238 -1247520,-1470046 279576,-137249 472928,-424266 472928,-756048l0 0zm-2334522 2340074l354 -6260c0,-822191 669116,-1491071 1491307,-1491071 822191,0 1491307,668880 1491307,1491071l354 6260c-402768,339223 -923651,543915 -1491661,543915 -567774,0 -1088656,-204692 -1491661,-543915zm1491661 -1627020c-393201,0 -713290,-319971 -713290,-713054 0,-393201 320089,-713172 713290,-713172 393201,0 713290,319971 713290,713172 0,393083 -320089,713054 -713290,713054l0 0z"/>
  </g>
 </g>
</svg>
