<?xml version="1.0" encoding="utf-8"?>
<!-- Generator: Adobe Illustrator 19.1.1, SVG Export Plug-In . SVG Version: 6.00 Build 0)  -->
<svg version="1.1" id="Layer_1" xmlns="http://www.w3.org/2000/svg" xmlns:xlink="http://www.w3.org/1999/xlink" x="0px" y="0px"
	 viewBox="-124 126 50 50" style="enable-background:new -124 126 50 50;" xml:space="preserve">
<style type="text/css">
	.st0{fill:none;}
	.st1{fill:#FFFFFF;}
</style>
<g id="Layer_x0020_1">
	<rect x="-124" y="126" class="st0" width="50" height="50"/>
</g>
<g>
	<g>
		<g>
			<path class="st1" d="M-91,159.9c-0.1,0.6-0.2,1.2-0.4,1.8l-0.9-0.4L-91,159.9 M-90.6,159.1l-2.3,2.3l1.7,0.7
				C-90.8,161.1-90.6,160.1-90.6,159.1L-90.6,159.1z"/>
			<path class="st1" d="M-93.5,162v2.6h-2.6l0.7-1.8L-93.5,162 M-93.2,161.6l-2.4,1l-1,2.4h3.3L-93.2,161.6L-93.2,161.6z"/>
			<path class="st1" d="M-99.1,164.3l1.8,0.7l-1.8,1.8l-1.8-1.8L-99.1,164.3 M-99.1,164l-2.3,1l2.3,2.4l2.4-2.3l0,0l0,0L-99.1,164
				L-99.1,164z"/>
			<path class="st1" d="M-102.1,153.4l-0.7,1.8l-1.8,0.8v-2.6H-102.1 M-101.7,153.1h-3.3v3.4l2.4-1L-101.7,153.1L-101.7,153.1z"/>
			<path class="st1" d="M-99.1,151.1l1.8,1.8l-1.8,0.7l-1.8-0.7L-99.1,151.1 M-99.1,150.6l-2.3,2.4l2.3,1l2.4-1L-99.1,150.6
				L-99.1,150.6z"/>
			<path class="st1" d="M-96.3,163l-0.5,1.3l-1.3-0.5L-96.3,163 M-95.7,162.4l-3.2,1.3l2.3,0.9L-95.7,162.4L-95.7,162.4z"/>
			<path class="st1" d="M-101.9,163l1.8,0.8l-1.3,0.5L-101.9,163 M-102.5,162.4l0.9,2.3l2.3-0.9L-102.5,162.4L-102.5,162.4z"/>
			<path class="st1" d="M-103.1,156.2l-0.7,1.8l-0.5-1.3L-103.1,156.2 M-102.5,155.6l-2.2,0.9l0.9,2.3L-102.5,155.6L-102.5,155.6z"
				/>
			<path class="st1" d="M-101.4,153.7l1.3,0.5l-1.8,0.8L-101.4,153.7 M-101.5,153.3l-0.9,2.3l3.2-1.3L-101.5,153.3L-101.5,153.3z"/>
			<path class="st1" d="M-103.8,160l0.7,1.8l-0.3-0.1l0,0l0,0l-1-0.4L-103.8,160 M-103.8,159.2l-1,2.2l1.3,0.5l1,0.4L-103.8,159.2
				L-103.8,159.2z"/>
			<path class="st1" d="M-99.1,154.9l2.9,1.2l1.2,2.9l-1.2,2.9l-2.9,1.1l-2.8-1.2l-1.2-2.9l1.2-2.9L-99.1,154.9 M-99.1,154.6
				l-3.1,1.3l-1.3,3.1l1.3,3.1l3.1,1.3l3.1-1.3l1.3-3.1l-1.3-3.1L-99.1,154.6L-99.1,154.6z"/>
			<path class="st1" d="M-96.8,153.7l0.5,1.3l-1.8-0.8L-96.8,153.7 M-96.7,153.3l-0.2,0.1l-2.1,0.9l3.2,1.3L-96.7,153.3L-96.7,153.3
				z"/>
			<path class="st1" d="M-95.1,156.2l1.3,0.5l-0.5,1.3L-95.1,156.2 M-95.7,155.6l1.3,3.2l0.9-2.3L-95.7,155.6L-95.7,155.6z"/>
			<path class="st1" d="M-94.4,160l0.2,0.5l0.3,0.8l-1.3,0.5L-94.4,160 M-94.4,159.1l-1.3,3.2l2.2-1l-0.4-1.1L-94.4,159.1
				L-94.4,159.1z"/>
			<path class="st1" d="M-93,157.2l1.8,1.8l-1.8,1.8l-0.7-1.8L-93,157.2 M-93.1,156.6l-1,2.4l1,2.4l2.4-2.4L-93.1,156.6L-93.1,156.6
				z"/>
			<path class="st1" d="M-93.5,153.4v2.6l-1.8-0.8l-0.7-1.8H-93.5 M-93.2,153.1h-3.3l1,2.4l2.4,1L-93.2,153.1L-93.2,153.1z"/>
			<path class="st1" d="M-105.2,157.2l0.7,1.8l-0.2,0.4l-0.6,1.4l-1.8-1.8L-105.2,157.2 M-105.1,156.6l-2.4,2.4l2.4,2.4l0.8-1.9
				l0.2-0.5L-105.1,156.6L-105.1,156.6z"/>
			<path class="st1" d="M-104.7,162l1.8,0.7l0.7,1.8h-2.6L-104.7,162 M-105,161.6v3.3h3.3l-1-2.4L-105,161.6L-105,161.6z"/>
			<path class="st1" d="M-91.4,156.3c0.2,0.6,0.4,1.2,0.4,1.8l-1.4-1.4L-91.4,156.3 M-91.2,155.9l-1.6,0.7l2.3,2.3
				C-90.6,157.8-90.8,156.8-91.2,155.9L-91.2,155.9L-91.2,155.9z"/>
			<path class="st1" d="M-92.6,153.9c0.4,0.5,0.7,1,1,1.6l-1,0.4V153.9 M-92.9,153.1v3.3l1.7-0.7C-91.6,154.7-92.2,153.9-92.9,153.1
				L-92.9,153.1z"/>
			<path class="st1" d="M-95.6,151.5c0.5,0.3,1.1,0.6,1.5,0.9H-96L-95.6,151.5 M-95.8,151.1l-0.7,1.7h3.2
				C-94,152.1-94.9,151.5-95.8,151.1L-95.8,151.1z"/>
			<path class="st1" d="M-98.2,150.8c0.6,0.1,1.2,0.2,1.7,0.4l-0.4,1L-98.2,150.8 M-99,150.5l2.3,2.3l0.7-1.7
				C-97,150.7-97.9,150.5-99,150.5L-99,150.5z"/>
			<path class="st1" d="M-100,150.8l-1.4,1.4l-0.4-1C-101.2,151-100.7,150.9-100,150.8 M-99.2,150.5c-1,0-2,0.2-2.9,0.6h-0.1
				l0.7,1.7L-99.2,150.5L-99.2,150.5z"/>
			<path class="st1" d="M-102.6,151.5l0.4,0.9h-1.9C-103.7,152.1-103.1,151.8-102.6,151.5 M-102.4,151.1L-102.4,151.1
				c-1,0.4-1.8,1-2.5,1.7h3.2L-102.4,151.1L-102.4,151.1z"/>
			<path class="st1" d="M-105.6,153.9v2l-1-0.4C-106.3,155-106,154.4-105.6,153.9 M-105.3,153.1c-0.7,0.8-1.3,1.6-1.7,2.6l1.7,0.7
				V153.1L-105.3,153.1z"/>
			<path class="st1" d="M-106.8,156.3l0.9,0.4l-1.4,1.4C-107.2,157.4-107.1,156.8-106.8,156.3 M-107,155.9c-0.4,0.9-0.6,1.9-0.6,3
				l2.3-2.3L-107,155.9L-107,155.9L-107,155.9z"/>
			<path class="st1" d="M-107.3,159.9l1.4,1.4l-0.9,0.4C-107.1,161.1-107.2,160.5-107.3,159.9 M-107.7,159.1c0,1,0.2,2,0.6,3
				l1.7-0.7L-107.7,159.1L-107.7,159.1z"/>
			<path class="st1" d="M-105.6,162.1v1.9c-0.4-0.5-0.7-1-1-1.6L-105.6,162.1 M-105.3,161.6l-1.7,0.7c0.4,1,1,1.8,1.7,2.6V161.6
				L-105.3,161.6z"/>
			<path class="st1" d="M-102.2,165.5l-0.4,0.9c-0.5-0.3-1.1-0.6-1.5-0.9H-102.2 M-101.7,165.2h-3.2c0.7,0.7,1.6,1.3,2.5,1.7
				L-101.7,165.2L-101.7,165.2z"/>
			<path class="st1" d="M-101.4,165.8l1.3,1.4c-0.6-0.1-1.2-0.2-1.7-0.4L-101.4,165.8 M-101.5,165.2l-0.7,1.7c0.9,0.4,2,0.6,3,0.6
				L-101.5,165.2L-101.5,165.2z"/>
			<path class="st1" d="M-96.8,165.7l0.4,1c-0.5,0.2-1.1,0.3-1.8,0.4L-96.8,165.7 M-96.7,165.2l-2.3,2.3c1,0,2-0.2,2.9-0.6h0.1
				L-96.7,165.2L-96.7,165.2z"/>
			<path class="st1" d="M-94.1,165.5c-0.5,0.4-1,0.7-1.5,0.9l-0.4-0.9H-94.1 M-93.3,165.2h-3.2l0.7,1.7h0.1
				C-94.8,166.4-94,165.9-93.3,165.2L-93.3,165.2z"/>
			<path class="st1" d="M-92.7,162l1,0.4c-0.3,0.6-0.6,1.1-1,1.6V162 M-93,161.6v3.2c0.7-0.8,1.3-1.6,1.7-2.6L-93,161.6L-93,161.6z"
				/>
		</g>
		<path class="st1" d="M-99.1,147.8L-99.1,147.8c-0.1,0-0.2-0.1-0.2-0.2v-2.2c0-0.1,0.1-0.2,0.2-0.2l0,0c0.1,0,0.2,0.1,0.2,0.2v2.2
			C-98.9,147.7-99,147.8-99.1,147.8z"/>
	</g>
	<path class="st1" d="M-99.1,145.7c-6.3,0-11.4-5-11.4-11.2h0.4c0,6,5,10.9,11.1,10.9s11.1-4.9,11.1-10.9h0.4
		C-87.7,140.7-92.8,145.7-99.1,145.7z"/>
</g>
<path class="st1" d="M-99.1,150.9c-1.1,0-1.9-0.9-1.9-1.9s0.9-1.9,1.9-1.9c1.1,0,1.9,0.9,1.9,1.9S-98,150.9-99.1,150.9z
	 M-99.1,147.5c-0.8,0-1.5,0.7-1.5,1.5s0.7,1.5,1.5,1.5s1.5-0.7,1.5-1.5S-98.2,147.5-99.1,147.5z"/>
</svg>
