<?xml version="1.0" encoding="utf-8"?>
<!-- Generator: Adobe Illustrator 19.1.1, SVG Export Plug-In . SVG Version: 6.00 Build 0)  -->
<svg version="1.1" id="Layer_1" xmlns="http://www.w3.org/2000/svg" xmlns:xlink="http://www.w3.org/1999/xlink" x="0px" y="0px"
	 viewBox="-124 126 50 50" style="enable-background:new -124 126 50 50;" xml:space="preserve">
<style type="text/css">
	.st0{fill:none;}
	.st1{fill:#FFFFFF;}
</style>
<g id="Layer_x0020_1">
	<rect x="-124" y="126" class="st0" width="50" height="50"/>
</g>
<g>
	<g>
		<path class="st1" d="M-108.3,154.1l1.4,3.4l-4-3.4H-108.3 M-108,153.6h-4.5l6.9,5.9L-108,153.6L-108,153.6z"/>
		<path class="st1" d="M-103.2,161.2l3.4,1.4v2.7L-103.2,161.2 M-105.1,159.9l5.9,6.9v-4.6L-105.1,159.9L-105.1,159.9z"/>
		<path class="st1" d="M-94.9,161.2l-3.6,4.2v-2.7L-94.9,161.2 M-93,159.9l-5.9,2.4v4.6L-93,159.9L-93,159.9z"/>
		<path class="st1" d="M-87.2,154.1l-4.2,3.6l1.4-3.6H-87.2 M-85.7,153.6h-4.6l-2.4,5.9L-85.7,153.6L-85.7,153.6z"/>
		<path class="st1" d="M-112.4,154.9l5.9,4.9l-2.4,2.4C-111,160.2-112.1,157.6-112.4,154.9 M-113,153.7c0,3.6,1.6,6.9,3.9,9.3
			l3.3-3.3L-113,153.7L-113,153.7z"/>
		<path class="st1" d="M-105.4,161l4.9,5.9c-2.7-0.3-5.3-1.4-7.5-3.4L-105.4,161 M-105.4,160.2l-3.3,3.3c2.4,2.4,5.7,3.9,9.5,4
			L-105.4,160.2L-105.4,160.2z"/>
		<path class="st1" d="M-92.8,161l2.4,2.6c-2.2,1.9-4.7,3-7.5,3.3L-92.8,161 M-92.8,160.2l-6.2,7.3c3.7,0,7-1.6,9.5-3.9L-92.8,160.2
			L-92.8,160.2z"/>
		<path class="st1" d="M-85.6,154.9c-0.3,2.9-1.4,5.5-3.4,7.5l-2.4-2.6L-85.6,154.9 M-85,153.7l-7.3,6.2l3.3,3.3
			C-86.6,160.8-85,157.4-85,153.7L-85,153.7z"/>
		<g>
			<path class="st1" d="M-99.1,136.7L-99.1,136.7c-0.1,0-0.3-0.1-0.3-0.3v-1.6c0-0.1,0.1-0.3,0.3-0.3l0,0c0.1,0,0.3,0.1,0.3,0.3v1.6
				C-98.8,136.5-98.9,136.7-99.1,136.7z"/>
			<path class="st1" d="M-91.3,149.3l4.2,3.6h-2.7L-91.3,149.3 M-92.6,147.4l2.4,5.9h4.6L-92.6,147.4L-92.6,147.4z"/>
			<path class="st1" d="M-99.1,145.5l5.6,2.3l2.3,5.6l-2.3,5.6l-5.6,2.3l-5.6-2.3l-2.3-5.6l2.3-5.6L-99.1,145.5 M-99.1,145
				L-99.1,145L-99.1,145l-6,2.4l-2.6,5.9l0,0l0,0l2.6,5.9l5.9,2.4l0,0l0,0l6-2.4l2.4-5.9l0,0l0,0l-2.4-5.9L-99.1,145L-99.1,145z"/>
			<path class="st1" d="M-98.4,141.5l3.4,4.2l-3.4-1.4V141.5 M-98.9,140.1v4.6l5.9,2.4L-98.9,140.1L-98.9,140.1z"/>
			<path class="st1" d="M-99.8,141.5v2.7l-3.4,1.4L-99.8,141.5 M-99.2,140.1l-5.9,7l5.9-2.4V140.1L-99.2,140.1z"/>
			<path class="st1" d="M-106.8,149.3l-1.4,3.4h-2.6L-106.8,149.3 M-105.5,147.4l-6.9,5.9h4.5L-105.5,147.4L-105.5,147.4z"/>
			<path class="st1" d="M-89,144.5c1.9,2.2,3.2,4.7,3.4,7.5l-5.9-4.9L-89,144.5 M-89,143.8l-3.3,3.3l7.3,6.2
				C-85,149.5-86.6,146.2-89,143.8L-89,143.8z"/>
			<path class="st1" d="M-97.6,140.1c2.7,0.3,5.3,1.4,7.5,3.3l-2.4,2.6L-97.6,140.1 M-98.9,139.4l6.2,7.3l3.3-3.3
				C-91.9,140.9-95.2,139.5-98.9,139.4L-98.9,139.4z"/>
			<path class="st1" d="M-100.5,140.1l-4.9,5.9l-2.4-2.4C-106,141.5-103.2,140.4-100.5,140.1 M-99.4,139.4c-3.7,0.1-7,1.6-9.5,4
				l3.3,3.3L-99.4,139.4L-99.4,139.4z"/>
			<path class="st1" d="M-109.1,144.7l2.4,2.4l-5.9,4.9C-112.1,149.3-111,146.7-109.1,144.7 M-109.1,143.8c-2.4,2.4-3.9,5.7-3.9,9.3
				l7.2-6.2L-109.1,143.8L-109.1,143.8z"/>
		</g>
	</g>
	<path class="st1" d="M-99.1,139.8c-1.1,0-1.9-0.9-1.9-1.9s0.9-1.9,1.9-1.9c1.1,0,1.9,0.9,1.9,1.9S-98,139.8-99.1,139.8z
		 M-99.1,136.4c-0.8,0-1.5,0.7-1.5,1.5c0,0.8,0.7,1.5,1.5,1.5s1.5-0.7,1.5-1.5C-97.6,137.1-98.2,136.4-99.1,136.4z"/>
</g>
</svg>
