<?xml version="1.0" encoding="utf-8"?>
<!-- Generator: Adobe Illustrator 18.0.0, SVG Export Plug-In . SVG Version: 6.00 Build 0)  -->
<!DOCTYPE svg PUBLIC "-//W3C//DTD SVG 1.1//EN" "http://www.w3.org/Graphics/SVG/1.1/DTD/svg11.dtd">
<svg version="1.1" id="Layer_1" xmlns="http://www.w3.org/2000/svg" xmlns:xlink="http://www.w3.org/1999/xlink" x="0px" y="0px"
	 width="50px" height="50px" viewBox="0 0 50 50" enable-background="new 0 0 50 50" xml:space="preserve">
<g>
	<path d="M45.0026932,30.1511936c-0.0065269-0.0084171-0.0180321-0.0076427-0.025589-0.014513
		c-0.59235-0.7476921-1.4972763-1.2371674-2.5231094-1.2371674c-1.1761093,0-2.1969643,0.6378632-2.7623482,1.5793686
		c-0.0013733,0.0010319-0.003437,0.0001717-0.0048103,0.0013752c-0.0398445,0.0319443-0.0597687,0.0771122-0.0633736,0.1240845
		c-0.2474861,0.4567566-0.4010239,0.9716492-0.4010239,1.5267315c0,1.7820244,1.4495277,3.2315559,3.2315559,3.2315559
		s3.2315559-1.4495316,3.2315559-3.2315559c0-0.7378197-0.2583046-1.4105453-0.6759872-1.9550629
		C45.0050964,30.1681957,45.0083618,30.1584911,45.0026932,30.1511936z M42.4539948,29.2512474
		c0.8570099,0,1.6202431,0.3810177,2.1452675,0.9785194c-0.2660332,0.1783562-0.5557671,0.3126621-0.8661079,0.3947563
		c-1.1008873,0.291708-2.140976-0.0294552-2.8841171-0.8719501C41.3074226,29.4392223,41.8573532,29.2512474,42.4539948,29.2512474z
		 M45.3338165,32.131073c0,1.5876122-1.2922096,2.8798218-2.8798218,2.8798218s-2.8798218-1.2922096-2.8798218-2.8798218
		c0-0.4285069,0.1002998-0.8317642,0.2689514-1.1975803c0.7544785,0.8256645,1.8022957,1.3445911,2.9213867,1.4284039
		c0.10923,0.0082436,0.2191467,0.0123672,0.3283768,0.0123672c0.3812752,0,0.7598-0.0494652,1.1300812-0.1483879
		c0.3807602-0.1006432,0.7364464-0.2627716,1.0740967-0.4583893C45.3125229,31.8878803,45.3338165,32.0065575,45.3338165,32.131073z
		 M44.1329765,31.8865051c-0.4382935,0.116787-0.8875809,0.1593819-1.3423615,0.1250305
		c-1.0706596-0.0805473-2.0705605-0.5930347-2.7692184-1.4060764c0.1502762-0.2383823,0.3371353-0.450058,0.5475235-0.6352863
		c0.6282425,0.7194405,1.4730568,1.1098175,2.3831367,1.1098175c0.2857819,0,0.5784378-0.0377846,0.8717766-0.1161003
		c0.3555145-0.0941162,0.6888695-0.2474842,0.9930305-0.4550381c0.1844559,0.2699833,0.3271751,0.5706234,0.4125328,0.8953934
		C44.8889999,31.6160069,44.5233536,31.7830296,44.1329765,31.8865051z"/>
	<path d="M47.3507919,26.8399467c-0.2799416-1.055891-0.9250183-1.9187374-1.7615891-2.4943428
		c-0.0180321-0.7831573-0.2588196-1.5368614-0.708107-2.1826229c-0.4362297-0.6272984-1.0266914-1.0786457-1.6805229-1.3634853
		c-0.1021919-0.1415176-0.2143402-0.2773685-0.335762-0.403429c-0.6842346-0.70965-1.6034126-1.1101608-2.5892334-1.1280212
		c-0.9851303-0.031601-1.9187355,0.348299-2.6290741,1.0332184c-0.1324158,0.1276073-0.2492027,0.2658615-0.3584328,0.4084091
		c-0.0345192,0.0449982-0.0666351,0.0910263-0.0989227,0.1372242c-0.0721359,0.1039066-0.1379128,0.2107315-0.1983681,0.3204765
		c-0.0293655,0.0528984-0.0613136,0.1041641-0.0879326,0.1582642c-0.0664635,0.1362801-0.1236572,0.2759094-0.1724319,0.418457
		c-0.0338326,0.0970364-0.0587387,0.1957893-0.0843277,0.2950573c-0.0132217,0.0523834-0.0259323,0.1047649-0.0369263,0.1576633
		c-0.081749,0.3872852-0.1011543,0.7841873-0.0563316,1.1798897c-0.026104,0.009531-0.0537567,0.0149403-0.076252,0.0331459
		l-1.8404236,1.472887c-0.1511345,0.10923-0.2383804,0.209528-0.3228798,0.305706l-0.0398445,0.0460281
		c-0.0133972,0.0152855-0.0170021,0.0349503-0.0293694,0.0508366c-1.235878-1.0418072-3.0113792-1.8536453-5.0527439-2.3300667
		l1.307497-1.3097286c0.2998676,0.0781441,0.6045437,0.1320724,0.9160881,0.1320724
		c1.5024261,0,2.8372307-0.898571,3.4019279-2.2903938c0.7604904-1.8747711-0.1456375-4.0195246-2.0204086-4.7800121
		c-0.4417305-0.1793022-0.9054413-0.2699833-1.3780842-0.2699833c-1.5024261,0-2.8372307,0.8985701-3.4019279,2.2903938
		c-0.4463654,1.0995121-0.3063927,2.2852402,0.2534962,3.2367096c-0.0218124,0.0183754-0.0474014,0.0322876-0.061142,0.0594234
		l-1.0771847,2.080864c-0.0941181,0.1614399-0.133276,0.2885323-0.1710587,0.4115009l-0.0164871,0.0542717
		c-0.0010319,0.0030918-0.0010319,0.0061836-0.0018902,0.0091896c-0.6667137-0.0686989-1.3483715-0.106741-2.0322609-0.106741
		c-2.3352184,0-4.5545101,0.4037743-6.4485149,1.1538715l-0.7160053-2.8661709
		c0.6759872-0.6528034,1.1170292-1.5035419,1.2516785-2.4487419c0.1607533-1.1239014-0.1264057-2.2423058-0.8072033-3.149807
		c-1.4069366-1.8740826-4.074482-2.2546701-5.9485655-0.8484211c-0.0395012,0.0297127-0.0621719,0.0728207-0.0680113,0.118247
		c-0.9248476,0.1251163-1.8179226,0.5385065-2.5260277,1.2488451c-0.1291523,0.1305265-0.2493744,0.2665482-0.3702822,0.4252415
		l-0.0831251,0.1422043c-0.0058393,0.0101337-0.0006866,0.0215549-0.0044651,0.0322876
		C8.320672,16.6003265,7.57547,17.1797943,7.052506,17.9655285c-0.100986,0.151823-0.1923547,0.3091412-0.2720442,0.4664612
		c-0.0080724,0.0161438-0.0008588,0.0330601-0.0036068,0.0499783c-0.731463,0.4528904-1.3421884,1.1155701-1.7131581,1.9615002
		c-0.0786595,0.1808491-0.1452966,0.3670197-0.1988811,0.5531921c-0.6679168,0.5767193-1.1750803,1.3506031-1.3990359,2.2723598
		c-0.0700719,0.2892189-0.1085429,0.6766758-0.1209087,0.9425373c-0.0010304,0.0219841,0.014255,0.0377846,0.0209529,0.0575352
		c-0.3574016,0.5860806-0.5877118,1.2600937-0.6344266,1.9910412c-0.0228422,0.3531094-0.0022328,0.7067318,0.0589087,1.050909
		c-0.241302,0.6326237-0.3433187,1.3286209-0.263629,2.0466881c0.247313,2.2340603,2.1268921,3.9185371,4.3712583,3.9185371
		c0.1621275,0,0.3263159-0.0089302,0.4911909-0.0274811c1.4244542-0.1581764,2.6119008-0.9853859,3.294416-2.1308403
		c0.0326319,0.0134811,0.0649195,0.0279942,0.1020164,0.0279942c0.0006876,0,0.0041218,0,0.005496,0l2.8365431-0.0515232
		l0.0590811,0.0006866c0.1902933,0,0.3311243-0.0281658,0.4671469-0.0549583l0.0700712-0.0144272
		c0.0477457-0.0091877,0.0925713-0.026104,0.1382551-0.0408745c1.6015244,2.4916801,5.8209591,4.1613846,10.5477295,4.1613846
		c4.5326996,0,8.4632607-1.4866257,10.2318916-3.708149l2.9459457,1.24189
		c0.271698,2.1699142,2.12397,3.8553352,4.3662758,3.8553352c2.4277916,0,4.4035454-1.9757576,4.4035454-4.404232
		c0-0.5227947-0.0963478-1.0224018-0.2643166-1.4880028C47.4258461,29.5512867,47.7023544,28.1659908,47.3507919,26.8399467z
		 M47.011425,26.9306278c0.3046761,1.1515503,0.0893059,2.3488731-0.5792961,3.3248138
		c-0.1332741-0.2814903-0.2948875-0.5461483-0.4822617-0.7910576c0.3757782-0.7172089,0.476078-1.5366898,0.2674065-2.3235397
		c-0.2212067-0.8339958-0.754303-1.5326557-1.5003662-1.9661388c-0.1169548-0.0678406-0.2414703-0.1139545-0.3637543-0.1661644
		c-0.0140839-0.0085011-0.0214691-0.024559-0.0381279-0.0289383c-0.0066986-0.0017185-0.0127106,0.0036068-0.019577,0.0027466
		c-0.3654747-0.1476994-0.7489815-0.2229252-1.1398735-0.2298794c-0.0264511-0.0042953-0.0496368-0.0103912-0.0750542-0.0026627
		c-0.2720451,0.001545-0.5451202,0.0249023-0.8154449,0.0965214c-0.8532295,0.2260151-1.5329971,0.7841873-1.9499969,1.4981327
		c-0.0199203,0.018549-0.0257607,0.0435371-0.0353775,0.0692997c-0.0592537,0.107254-0.1209068,0.2132206-0.1677933,0.3267441
		c-0.0041237,0.0056686-0.0121956,0.0059261-0.0156288,0.0121937c-0.0068703,0.0123653-0.0010338,0.0259342-0.0048103,0.039072
		c-0.2129631,0.5417709-0.284584,1.1447678-0.1739769,1.7525749c-0.2608833,0.1858273-0.4930801,0.4058323-0.7089653,0.6412964
		c-0.2784004-0.687582-0.2091866-1.7849483-0.0410461-2.3055077c0.0113335-0.0159721,0.030056-0.0252476,0.0357208-0.0449982
		c0.0226707-0.0776291,0.0474014-0.1531963,0.0741959-0.2287636c0.4506569-1.2571754,1.4886856-2.2113914,2.7781487-2.5541954
		C44.2126656,23.4833584,46.4377975,24.7707596,47.011425,26.9306278z M41.6996918,26.3336411
		c0.3943253-0.1738052,0.754303-0.4163094,1.0689392-0.7192688c0.1592102-0.152853,0.2974625-0.3288918,0.4283333-0.5102558
		c0.2887039,0.0101337,0.5746613,0.0522976,0.8487663,0.1489048c-0.175869,0.5251961-0.5088806,0.9867611-0.9658966,1.3052616
		c-0.7606583,0.5288048-1.7564392,0.5987053-2.5851097,0.2030888c0.0202675-0.0437088,0.0467148-0.0838108,0.0690422-0.1264038
		C40.9412651,26.6069736,41.281147,26.519125,41.6996918,26.3336411z M40.8018074,26.2522335
		c0.3735466-0.5042439,0.9052696-0.8946209,1.5539474-1.0665379c0.121254-0.0320301,0.2438812-0.0434513,0.366333-0.0595951
		c-0.0671501,0.0772858-0.1241722,0.1645317-0.1973343,0.2347755c-0.2850952,0.2747917-0.6100388,0.4939404-0.9672699,0.6512585
		C41.275135,26.1371651,41.0403595,26.2105865,40.8018074,26.2522335z M41.6041985,27.3689213
		c0.5894318,0,1.1781731-0.1751804,1.6762352-0.5221062c0.5093956-0.3546524,0.8822556-0.8658524,1.0847435-1.4478111
		c0.0577049,0.0286808,0.1188469,0.0474014,0.1751785,0.0800323c0.1566315,0.0910263,0.3008957,0.1973362,0.4352036,0.3130913
		c-0.2638016,0.6603603-0.7053604,1.2256603-1.2932434,1.633812c-0.195961,0.1370525-0.4101257,0.250061-0.6318512,0.3469257
		c-0.195446-0.0267925-0.3936386-0.0453396-0.5964699-0.0453396c-0.8054848,0-1.5561829,0.2243843-2.2053795,0.6044559
		c-0.054615-0.4278164-0.0013733-0.8466167,0.1241722-1.2385406C40.7629929,27.2740326,41.1827354,27.3689213,41.6041985,27.3689213
		z M43.8836021,27.7144718c0.6014519-0.4173412,1.0582924-0.9878769,1.3540382-1.6506424
		c0.2962608,0.3326702,0.5224495,0.7244205,0.6402664,1.167696c0.1727753,0.6525459,0.1006432,1.3277607-0.1784439,1.9339352
		c-0.5554237-0.6072903-1.2788124-1.0548573-2.0940895-1.2778683
		C43.7000046,27.8324604,43.7946396,27.7769871,43.8836021,27.7144718z M39.3914337,25.1767654
		c-0.1013298-0.0372677-0.1966476-0.085701-0.2904205-0.1356792c-0.0822639-0.3422871-0.0977211-0.6998615-0.0338326-1.0569191
		c0.1222839-0.6780491,0.5008087-1.2681656,1.0661926-1.6618061c0.674099-0.4678345,1.4928093-0.5588589,2.2234154-0.336792
		c0.2291069,0.5078506,0.271183,1.08955,0.1166153,1.6260834c-0.1695137,0.0243874-0.3391991,0.0559883-0.5085373,0.1011581
		c-0.9349823,0.2479992-1.743042,0.7972412-2.3264618,1.5383205C39.5556221,25.2303505,39.4724998,25.2064781,39.3914337,25.1767654
		z M39.4156494,25.5504837c-0.024044,0.0364094-0.0432777,0.0764256-0.0661201,0.1136951
		c-0.0298843-0.0547009-0.0659485-0.1068268-0.0915413-0.1631584c0.0041237,0.001545,0.0077286,0.0039501,0.0118523,0.0054951
		C39.317585,25.5243778,39.3670464,25.5355415,39.4156494,25.5504837z M42.7993736,22.1672745
		c0.2720451,0.1418629,0.518158,0.3333588,0.7299194,0.5728569c0.0274773,0.2925682,0.0091019,0.5555096-0.0470581,0.8463593
		c-0.2117653-0.0188923-0.425415-0.0274792-0.6412964-0.0148563C42.9479332,23.1074085,42.9369431,22.6222286,42.7993736,22.1672745
		z M43.8298454,23.6305447c0.0231857-0.1240864,0.0482597-0.2490311,0.0571899-0.367794
		c0.0686989,0.1325874,0.1243439,0.2695541,0.1688271,0.4113312C43.9811516,23.6571636,43.9055862,23.6435108,43.8298454,23.6305447
		z M44.5925674,22.3635788c0.3637543,0.5236511,0.5712242,1.1255322,0.6268692,1.7538624
		c-0.2437057-0.1346474-0.4994354-0.2464542-0.7651253-0.3331852c-0.0829544-0.3628979-0.225502-0.7067318-0.4415588-1.0174179
		c-0.3685646-0.5304356-0.8843155-0.8929901-1.4526176-1.0881786c-0.0170059-0.0085869-0.0319443-0.0116787-0.0510101-0.0143394
		c-0.842411-0.2724743-1.7952538-0.1732922-2.5763474,0.3695087c-0.6430168,0.4472256-1.0730667,1.1177177-1.2111473,1.8885098
		c-0.0767708,0.4262714-0.0498085,0.8521996,0.0570183,1.2588062c0.0022316,0.0202656,0.0084152,0.0352077,0.0173454,0.0534992
		c0.0779724,0.2747917,0.1932144,0.5385933,0.3513908,0.7843609c-0.0468864,0.094717-0.0848427,0.1945-0.1255455,0.2928238
		c-0.036068-0.009531-0.0724754-0.0218105-0.10923-0.0145969l-0.3915787,0.0659504
		c-1.0270348-1.645834-0.586338-3.7996902,1.0084877-4.9084778C41.1762123,20.310194,43.446682,20.7189484,44.5925674,22.3635788z
		 M38.8466606,29.2402573l-3.0872917-0.4341736c-0.1140404-0.0233555-0.2239571-0.0721321-0.3180733-0.1415176
		c-0.1291504-0.0954895-0.2267036-0.2267036-0.2809753-0.3792133c-0.0061836-0.0175171-0.0027466-0.0358944-0.0077286-0.0535831
		c0.1063118,0.3379936,0.4151077,0.5729408,0.7716522,0.5729408c0.0700722,0,0.1401443-0.0089302,0.2088432-0.0274792
		c0.4327965-0.1154118,0.6917877-0.5612621,0.5777473-0.9940605c-0.1039047-0.3915787-0.4997749-0.6365738-0.8953056-0.5835037
		c0.1020164-0.0349503,0.2045479-0.0662079,0.3491592-0.0835552l2.7039528-0.4561558
		C38.664608,27.1868706,38.5581284,28.4179401,38.8466606,29.2402573z M35.8637886,26.4380627
		c0.0765991,0.109745,0.0858727,0.2492008,0.0370979,0.3726864c-0.1054535,0.0257626-0.1995697,0.0552597-0.286644,0.0862598
		c-0.0992661-0.1787872-0.2117615-0.3543968-0.3376503-0.525713c0.0115089-0.0102177,0.0183754-0.0238285,0.0314293-0.0328465
		C35.4900703,26.213419,35.7380714,26.2580738,35.8637886,26.4380627z M35.3444328,25.9476433
		c0.0410461-0.0269642,0.0805473-0.0538406,0.1346474-0.0811481l2.1248322-1.2042789
		c0.0017166,0.4102135,0.1805038,1.1707878,0.5104256,1.7694912l-1.8366432,0.3093128
		c0.0175171-0.1755238-0.0216408-0.3546524-0.1253738-0.5035572C35.9671783,25.9710007,35.6413803,25.8687267,35.3444328,25.9476433
		z M35.6698875,28.3670616c-0.0906792-0.060112-0.1631584-0.1472282-0.1921806-0.257576
		c-0.0326309-0.1243-0.010994-0.2498455,0.049633-0.3524628C35.5943222,27.9588661,35.6417236,28.1620407,35.6698875,28.3670616z
		 M35.8974495,27.5331955c0.0091057-0.000515,0.0182076-0.003521,0.0274811-0.003521
		c0.2088432,0,0.3922653,0.140831,0.4458504,0.342804c0.0589104,0.2242565-0.0628586,0.4476967-0.2699852,0.5366173
		C36.0681648,28.1137791,36.0004997,27.8212547,35.8974495,27.5331955z M37.850193,23.1317101
		c-0.0115051-0.1547432-0.0025749-0.3089695,0.0161438-0.461565c0.0042953-0.0353794,0.0096207-0.0704155,0.0154572-0.1055374
		c0.0508385-0.3008118,0.1597252-0.5899448,0.3232269-0.8526287c0.0199203-0.0319443,0.0407028-0.0633736,0.0621719-0.0944595
		c0.0886192-0.127779,0.185482-0.2511787,0.3005524-0.3620396c0.1193619-0.1148968,0.251091-0.2102165,0.3874588-0.2954884
		c0.0286789-0.0179462,0.0575333-0.0358086,0.086731-0.0524673c0.1406593-0.079689,0.2862968-0.1483879,0.4382935-0.1971626
		c0.0024033-0.0008602,0.0048065-0.0011177,0.0070419-0.0018902c0.1574898-0.0498924,0.3199615-0.0808926,0.4841499-0.0971222
		c0.01511-0.0014591,0.0300522-0.0036926,0.0449944-0.0048943c0.1695137-0.013567,0.340744-0.0108204,0.5109444,0.0123653
		c0,0,0,0,0.0001717,0c-0.4164848,0.1169586-0.823864,0.2869873-1.1986122,0.5473518
		C38.609993,21.6660366,38.1179428,22.3632355,37.850193,23.1317101z M37.8910675,20.5540733
		c0.6265297-0.6045437,1.446785-0.9349823,2.315815-0.9349823c0.020607,0,0.0412178,0,0.0625153,0.0006886
		c0.217083,0.0040359,0.4303932,0.0301399,0.6382027,0.074194c0.1837692,0.0395012,0.361351,0.0990963,0.5344734,0.168911
		c0.019577,0.0077286,0.0407028,0.0112495,0.0601082,0.0193214c0.3836784,0.1633282,0.7364464,0.3994789,1.0418091,0.6998615
		c-0.4078979-0.0988407-0.8260956-0.1325874-1.2468719-0.1003857c-0.0089302-0.0058384-0.0111618-0.0174313-0.0212975-0.0217266
		c-1.0078011-0.4307365-2.1653633-0.2163982-2.9526405,0.5427151c-0.0978966,0.0942879-0.1875458,0.1947594-0.2686119,0.300211
		c-0.0474014,0.061657-0.0858727,0.1281223-0.1274338,0.192955c-0.029541,0.0460281-0.0637169,0.0895653-0.0901642,0.1371403
		c-0.0527267,0.0939445-0.0954933,0.1923542-0.1363678,0.2912788c-0.0087585,0.0211239-0.0207825,0.0408764-0.029026,0.0621719
		c-0.0449944,0.1173019-0.0805473,0.2376957-0.1087151,0.3598061c-0.0008583,0.0039501-0.0025749,0.0076427-0.0036049,0.0115929
		c-0.1143837,0.5055313-0.0827827,1.0433521,0.1066551,1.5509453c0.0001717,0.0003433,0.0001717,0.0006866,0.0001717,0.0009441
		c-0.0159721,0.1186752-0.0140839,0.2388973-0.0195808,0.3585186c-0.0365829,0.0030899-0.0736771,0.0073853-0.1071701,0.0264473
		l-0.3019257,0.1712303C36.5768738,23.165802,36.8332901,21.5737228,37.8910675,20.5540733z M34.8491173,25.1623383
		l1.7394371-1.3918228c0.0425911,0.2388973,0.1645317,0.5650425,0.3235664,0.8798504l-1.3645134,0.7735405
		c-0.0111656-0.0133953-0.0178642-0.0298824-0.030056-0.0424213c-0.1305275-0.135334-0.3063927-0.2122765-0.4953117-0.2157116
		c-0.0778008-0.0013733-0.1525116,0.0173473-0.224987,0.0404472C34.8154564,25.1914501,34.8278236,25.1777954,34.8491173,25.1623383
		z M35.0160561,25.5175076c0.0820923,0.0012035,0.1561165,0.0348644,0.2181168,0.0870762
		c-0.1300125,0.0750523-0.2301407,0.150362-0.3184166,0.2234402l-0.0487747,0.0405312
		c-0.0013771,0.0011158-0.0022354,0.002533-0.003437,0.0036488c-0.049118-0.0530262-0.0968628-0.1063957-0.1483879-0.1587772
		c0.0166588-0.0326309,0.0206108-0.0699005,0.0487747-0.0969925C34.8319435,25.5511703,34.9233131,25.5126991,35.0160561,25.5175076
		z M28.3420372,16.8594894c0.5104275-1.2578611,1.7181396-2.0705585,3.0762997-2.0705585
		c0.4273014,0,0.8463612,0.0817499,1.2461834,0.2438774c1.6947823,0.6883554,2.5143509,2.6270142,1.826683,4.3224831
		c-0.5104294,1.2578621-1.7181396,2.0705605-3.0763016,2.0705605c-0.4273014,0-0.8463593-0.0817509-1.2461834-0.2438793
		C28.473938,20.493618,27.6543694,18.5549583,28.3420372,16.8594894z M27.4393444,22.2742729l1.0174198-1.9654522
		c0.2658615,0.390892,0.9624596,1.020853,1.6322651,1.24893l-1.3057785,1.3083553
		c-0.0723038-0.015028-0.1427193-0.0328026-0.2155399-0.0470581c-0.0135689-0.2643166-0.1724319-0.5110283-0.4331417-0.616909
		c-0.2502327-0.1022739-0.5303497-0.0355511-0.7249355,0.1334457
		C27.4202805,22.3146324,27.4261208,22.2971134,27.4393444,22.2742729z M27.5951176,22.6594105
		c0.0650921-0.0911961,0.1598949-0.1570606,0.2756519-0.1570606c0.0453396,0,0.0893078,0.0082436,0.1318989,0.0254173
		c0.1020164,0.041563,0.1688271,0.1276073,0.1983662,0.226017C28.0009518,22.7192631,27.7989788,22.6875763,27.5951176,22.6594105z
		 M28.0359879,23.1549816c-0.0894794,0.0487747-0.196991,0.0640602-0.2978058,0.0233574
		c-0.0496349-0.0200939-0.0899944-0.0518665-0.1240005-0.0889645
		C27.7556992,23.1096401,27.8961868,23.1316242,28.0359879,23.1549816z M18.1822796,23.9587498
		c0.0089321,0.0490322-0.0044651,0.0989246-0.0051517,0.1492462c0.0003433-0.1707153-0.0405312-0.3378239-0.1446095-0.4769363
		c-0.1264038-0.1683102-0.311203-0.2782269-0.5200443-0.3077679c-0.1652184-0.025074-0.3254566,0.018034-0.4709263,0.094717
		l-0.7178936-1.7542057c0.3598061-0.1397133,0.704155-0.3191872,1.0177612-0.5539627
		c0.0372696-0.0279942,0.0707588-0.0596828,0.1068268-0.0887928L18.1822796,23.9587498z M18.1721478,24.2480545
		c-0.0029202,0.0142536,0.0020599,0.0291958-0.0015469,0.0431938c-0.0170021,0.0661201-0.0455112,0.1274338-0.0786591,0.1858273
		C18.1300697,24.4060593,18.1572056,24.3292027,18.1721478,24.2480545z M17.9988556,24.5995293
		c-0.0219822,0.0250759-0.0391579,0.0541-0.0645752,0.0764275c-0.0027485,0.0024052-0.0063553,0.0030918-0.0091019,0.0054951
		C17.9528294,24.6563778,17.9753265,24.6277828,17.9988556,24.5995293z M17.3335152,24.1316967l-0.1607533-0.3929539
		c0.0875893-0.0542717,0.1884041-0.0805473,0.2902489-0.067152c0.1154137,0.0164871,0.2177734,0.0769424,0.2878456,0.1710587
		c0.0156288,0.0206089,0.0214672,0.0455112,0.0329742,0.0680103C17.6299477,23.9821053,17.4805298,24.0561275,17.3335152,24.1316967
		z M17.6897144,24.4270973c-0.0096169,0.0085888-0.0149422,0.020525-0.0254173,0.0283394
		c-0.0504932,0.037611-0.10923,0.0587368-0.1686535,0.0723038l-0.0017185-0.0042076
		C17.5574703,24.4902992,17.6246243,24.4593868,17.6897144,24.4270973z M16.9738808,24.3936081
		c-0.282692-0.2802887-0.7141151-0.2952309-1.0304708-0.0764275l-1.0936728-1.6540775
		c0.3802433-0.2042904,0.7312908-0.4580441,1.0387144-0.7666702c0.0367537-0.0369244,0.0680113-0.0769424,0.103219-0.1148109
		l1.1958618,2.9204407c0.0377827,0.1126633,0.0501499,0.2287636,0.0377827,0.3462372
		c-0.0178604,0.1607533-0.0824375,0.3105164-0.1868572,0.4341717c-0.012022,0.0141697-0.0302277,0.0200939-0.0432796,0.0333195
		C17.2866287,25.1961727,17.2833652,24.7024059,16.9738808,24.3936081z M16.2769394,25.9594078
		c-0.0168304,0.0621719-0.0362377,0.1240005-0.0683556,0.1811924c-0.0087585,0.0156288-0.025074,0.0247307-0.0346909,0.0396729
		c0.2218933-0.3700256,0.1221104-0.8527145-0.2401009-1.093502c-0.3213348-0.2144241-0.7306042-0.155344-0.9998999,0.0984955
		l-1.3815184-1.4193878c0.3154955-0.2665482,0.5987034-0.5702801,0.8309031-0.9179783
		c0.0288534-0.0432796,0.0518675-0.0886192,0.0790024-0.1325874l1.7408094,2.6325111
		c0.0583935,0.1002979,0.0941162,0.2150249,0.1044216,0.3318119c0.0060101,0.0702438-0.0008583,0.1397991-0.0128822,0.2081547
		c-0.0073833,0.0204372-0.0235291,0.036581-0.0228405,0.0597668C16.2719593,25.9521942,16.2765961,25.9549427,16.2769394,25.9594078
		z M15.8671551,26.0196915c-0.0267925,0.0399303-0.0597668,0.0733337-0.0958338,0.1025314
		c-0.0410471-0.0812359-0.0910244-0.1597233-0.152853-0.2337456l-0.0424213-0.043623
		c0.0437956-0.0408745,0.085701-0.0826092,0.1310415-0.1226254c0.0594244-0.0526409,0.1229696-0.1033058,0.1849699-0.1547432
		C15.9595537,25.7092609,15.9602413,25.8793755,15.8671551,26.0196915z M15.4783239,26.3638687
		c-0.0790024-0.2026596-0.2321997-0.3620396-0.4307365-0.4485989c-0.3589478-0.1585217-0.7599726-0.0234432-0.978261,0.2844105
		l-1.5738726-1.1659794c0.2407866-0.2900772,0.4453354-0.611927,0.6023102-0.9373837
		c0.0164881-0.0156288,0.0345211-0.0296268,0.0441389-0.0516968c0.0156288-0.0356369,0.025075-0.0724754,0.0396729-0.1083698
		c0.0042934-0.0101337,0.0116787-0.0202656,0.0159721-0.0303993l2.1598673,2.2182598
		c0.0748816,0.0893078,0.1298399,0.1964779,0.1607542,0.3091412c0.0412188,0.1566334,0.0357227,0.3194466-0.0171747,0.4719563
		c-0.006011,0.017519-0.0209532,0.0297127-0.0279951,0.0465431C15.5471935,26.7615433,15.5528612,26.5551929,15.4783239,26.3638687z
		 M14.320075,26.9230709c-0.3256292-0.0781441-0.6558952,0.0628586-0.8453302,0.3267441l-1.7663994-0.8816528
		c0.1375685-0.3184166,0.2321997-0.6734123,0.3165264-1.0189648c0.0161448-0.0664654,0.0237017-0.1327591,0.0367537-0.1991386
		l2.6005659,1.9262085c0.0899944,0.0755672,0.1628141,0.1710587,0.2115898,0.2768536
		c0.0686979,0.1456394,0.0906811,0.3070793,0.0652628,0.4671459c-0.0034342,0.0216408-0.0145979,0.0404472-0.0197506,0.0615711
		C15.0098038,27.4542789,14.7484074,27.0269756,14.320075,26.9230709z M13.9841413,27.9872036
		c-0.3434906-0.0218983-0.6342554,0.1684818-0.7742271,0.4598484l-1.8691034-0.5544796
		c0.1133518-0.3361053,0.2261887-0.7793808,0.2182884-1.2058239L14.34618,28.077198
		c0.1016731,0.0590801,0.1902933,0.140831,0.2569304,0.2363205c0.0927429,0.1319008,0.1428928,0.287159,0.1456404,0.4485989
		c0.0003433,0.0238724-0.0068703,0.046629-0.0085869,0.0702438c0.0092735-0.2102165-0.0587368-0.4123592-0.1981945-0.5710526
		C14.3990774,28.0984936,14.2005396,28.0009441,13.9841413,27.9872036z M14.3879137,28.7965527L13.5444736,28.54632
		c0.0853577-0.1313,0.2364931-0.2103024,0.416997-0.2087555C14.2039747,28.3533649,14.3858528,28.5565395,14.3879137,28.7965527z
		 M13.7856035,27.4049873c0.1104326-0.1231403,0.2820053-0.182394,0.452033-0.139801
		c0.1195354,0.0288544,0.220521,0.1030483,0.2844105,0.2081566c0.0628586,0.1023598,0.0810633,0.2230968,0.054615,0.3410854
		c-0.0219831-0.0147705-0.0401888-0.0328045-0.0635462-0.0463715L13.7856035,27.4049873z M11.9034481,22.872118
		c-0.4750471-1.367178-1.6094236-2.4755363-3.1176901-2.8422127c-0.4850082-0.1173019-0.9701881-0.1449528-1.4412851-0.1013279
		c0.8219719-0.6291027,1.9427814-0.7781773,2.9093628-0.3555126C11.5948219,20.1609478,12.2575865,21.5530281,11.9034481,22.872118z
		 M14.8799639,26.8001003l-0.5334406-0.3950996c0.1236563-0.1790447,0.354826-0.2586479,0.5595455-0.1675377
		c0.1126652,0.0487766,0.1999121,0.1394577,0.244566,0.2541828c0.0446529,0.114727,0.042592,0.2404442-0.0075569,0.3531094
		c-0.0214682,0.0503216-0.0662937,0.0824375-0.1033907,0.1212521
		C14.9919415,26.9074421,14.9404182,26.8508511,14.8799639,26.8001003z M10.8659353,18.1778069
		c-0.4606199-0.2021446-0.9372129-0.314209-1.4124317-0.3524208c0.9064713-0.4443913,1.994648-0.3922672,2.8605871,0.1841106
		c1.1359234,0.7570515,1.5642557,2.1712017,1.1015739,3.4017563C13.1391544,20.0220051,12.2240963,18.7727318,10.8659353,18.1778069
		z M15.1743355,25.4321499c0.1011572-0.0936871,0.233573-0.1389408,0.3675346-0.1219387
		c-0.0377846,0.0322876-0.0781441,0.0633736-0.1150694,0.0960064c-0.0499783,0.0446529-0.096693,0.0908527-0.1449528,0.1363659
		L15.1743355,25.4321499z M16.2444801,24.7726498l-0.1112919-0.1683102c0.134304-0.0978947,0.305191-0.1186771,0.4535789-0.0527267
		c-0.0702438,0.0437946-0.1428909,0.086216-0.2112465,0.1312141C16.3308678,24.7124519,16.2882748,24.7427654,16.2444801,24.7726498
		z M16.6077213,25.0359344c0.0765972-0.0505791,0.1581764-0.0989246,0.2378654-0.1481304
		c0.004982,0.027565,0.0163174,0.0534992,0.0163174,0.08218c0,0.1229706-0.04809,0.239069-0.1353359,0.3270035
		c-0.0370979,0.037096-0.079174,0.0669804-0.1250305,0.0893078c-0.0254192-0.0763416-0.0573635-0.1513081-0.0989246-0.2232685
		l-0.0250759-0.0378704C16.5211601,25.0953579,16.5630665,25.0648727,16.6077213,25.0359344z M15.3416147,13.8539495
		c1.0304708,0.1470146,1.9420938,0.6869812,2.5665598,1.5196018c0.6251526,0.831933,0.8882656,1.8575964,0.7412529,2.8880663
		c-0.1470146,1.0304718-0.6869812,1.9420948-1.5196018,2.5665607c-0.2291088,0.171917-0.478138,0.3063927-0.7348976,0.4228363
		c0.2864704-0.4221497,0.495142-0.8783913,0.6191406-1.3563576c0.0029202-0.0025768,0.0072136-0.0014591,0.0099621-0.0042076
		c1.0648193-1.0888653,1.1774845-2.8303604,0.2624264-4.0511255c-0.7110252-0.9466591-1.8754568-1.4048758-3.0433245-1.198781
		c-0.0017176,0.0003433-0.0024042,0.0023184-0.0041218,0.0027475c-0.4674902-0.1649609-0.9559336-0.2521219-1.4460945-0.2548695
		C13.5585566,13.9265976,14.444418,13.7277174,15.3416147,13.8539495z M15.8760862,15.6682663
		c-0.2893906-0.2881889-0.610898-0.5234795-0.9507818-0.7144604c0.8130417,0.039072,1.5757618,0.4260139,2.0794907,1.0971088
		c0.6873245,0.9157448,0.7144604,2.1589222,0.1370525,3.1060104C17.2474709,17.9067917,16.8327065,16.6209354,15.8760862,15.6682663
		z M9.8966064,15.9293184c1.5766201-1.5821161,4.1473017-1.5876122,5.730792-0.0123653
		c1.5834913,1.5773077,1.5882998,4.1479883,0.0123663,5.730792c-0.2907648,0.2919674-0.6230917,0.532238-0.9834127,0.7228756
		l-0.0003433-0.0006866c0.2091856-0.419487,0.331296-0.8621597,0.3982763-1.3087845l0.0936012-0.0866451
		c1.1781712-1.2805309,1.1348915-3.2466698-0.0989246-4.4749928c-0.9844437-0.9816942-2.4813747-1.2228251-3.7124443-0.6086645
		l-0.1978502,0.0817509c-0.0214682,0.0089312-0.030055,0.0303984-0.0456839,0.0457697
		c-0.409956-0.034606-0.8267813-0.0134811-1.2410307,0.069643c-0.041563,0.0083294-0.0814075,0.0213833-0.1226263,0.0309143
		C9.7851439,16.0555515,9.8361521,15.9901161,9.8966064,15.9293184z M13.1590776,16.7413292
		c-0.4479113-0.2986641-0.9380722-0.5045872-1.4471254-0.6230049c1.0586376-0.418457,2.2702999-0.1841965,3.0883217,0.6298752
		c1.0187931,1.0144138,1.1153135,2.5863113,0.2995243,3.712101C15.1162853,19.0192719,14.4454489,17.5979939,13.1590776,16.7413292z
		 M7.3451595,18.1599445c0.5997343-0.900631,1.5147924-1.5141048,2.5761776-1.7270699
		c1.0600119-0.2129631,2.1413193,0.0006886,3.0426378,0.6011086c1.3294792,0.885519,1.9623604,2.4259872,1.7650251,3.9120121
		c-0.0006866,0.0060101-0.0022326,0.0106487-0.0022326,0.0167446c-0.0803766,0.5867672-0.2864714,1.1649475-0.6361446,1.6900578
		c-0.2109032,0.3158398-0.4680052,0.59132-0.7536173,0.8341675c0.1322432-0.4721279,0.183424-0.9561062,0.1573181-1.4339008
		c0.8796787-1.480444,0.4535789-3.3782272-0.9851303-4.3362217c-1.1410751-0.7614326-2.6285601-0.715662-3.724637,0.1039047
		c-0.5064774,0.0369263-0.9978399,0.1699429-1.4589758,0.3726883C7.3327942,18.1824436,7.3379464,18.1709366,7.3451595,18.1599445z
		 M5.385891,20.5842991c0.8978834-2.0465145,3.2913246-2.9808083,5.3385267-2.0849857
		c0.9899397,0.4341717,1.754549,1.2399998,2.152998,2.2697849c0.3884869,1.0047092,0.3719997,2.0884209-0.0340061,3.0635033
		c-0.1511354,0.3408279-0.3745756,0.6901588-0.6296177,0.9924297l-0.0925703-0.0684395
		c0.044138-0.4421597,0.0237007-0.8799362-0.0602827-1.3012276c0.0118504-0.0133972,0.0271358-0.0233574,0.0346928-0.0407047
		c0.7048416-1.6082211-0.0419064-3.436964-1.7002773-4.1631031c-1.228322-0.5399666-2.6812859-0.2548695-3.6142058,0.7055302
		c-0.0182047,0.0188065-0.0187201,0.0442238-0.0269637,0.0673237c-0.4939394,0.1150703-0.9571362,0.3223667-1.3801441,0.5927792
		C5.3786774,20.606369,5.3812537,20.5951195,5.385891,20.5842991z M3.8078961,23.3514576
		c0.5282884-2.1708584,2.7225046-3.5084095,4.8954244-2.979435c2.1708593,0.5276012,3.5077238,2.7231922,2.979435,4.8947372
		c-0.0599384,0.2461109-0.1239996,0.4843216-0.2005978,0.7079334c-0.067668-0.5099964-0.2150249-0.997324-0.4434462-1.4407692
		c0.1095734-1.5541229-0.9375572-2.9955807-2.4569864-3.3650036c-0.9124823-0.2213802-1.849524-0.0196648-2.5906043,0.4897308
		c-0.0178614,0.0091019-0.0312576,0.0189781-0.0446539,0.033062c-0.3616953,0.2579613-0.6787367,0.5839329-0.9126539,0.9818668
		c-0.494626,0.2692966-0.9329195,0.6321068-1.2928975,1.063961C3.7584336,23.6020336,3.7799017,23.4665279,3.8078961,23.3514576z
		 M10.6651659,23.927578c-0.7455463-1.0078869-1.9115238-1.6948681-3.2574911-1.7810841
		c-0.4051466-0.0266209-0.8001604,0.0079002-1.1802325,0.0877609c-0.0010304-0.1080265,0.0010304-0.2156258,0.0125375-0.3215923
		c0.6503987-0.4306507,1.4637837-0.596384,2.2586203-0.4016266C9.6599407,21.7934723,10.5071602,22.7798042,10.6651659,23.927578z
		 M5.877769,22.1999073c-0.0001717,0.0420761-0.0061827,0.0829525-0.0048089,0.1252022
		c-0.0599389,0.0178604-0.1212521,0.0322876-0.1801605,0.0527248C5.7506776,22.3142033,5.8149104,22.2577839,5.877769,22.1999073z
		 M3.0817575,26.2821178c0.1428919-2.2292519,2.0664377-3.9302177,4.3039341-3.7852631
		c2.2292519,0.1435776,3.9267817,2.0739937,3.7845764,4.3039341c-0.0144262,0.2212067-0.0508366,0.4384651-0.0999556,0.6524582
		c-0.1689968-0.4979744-0.4269581-0.9506092-0.7481222-1.3484573c-0.0001717-0.0062675,0.0053244-0.0107327,0.0044661-0.0170879
		c-0.0477457-0.3388538-0.1552582-0.6566677-0.2998676-0.9526711c-0.000515-0.0024891,0.0017176-0.0045509,0.0010309-0.00704
		c-0.0013742-0.0053253-0.0072136-0.0070419-0.0091028-0.012022c-0.5023546-1.0115795-1.5134182-1.7241516-2.6866097-1.7988605
		c-1.0545154-0.0738506-2.0343213,0.381361-2.678194,1.155159c-0.0084157,0.0079861-0.01477,0.0144272-0.0214682,0.0238724
		C4.3901124,24.7932587,4.1932921,25.13237,4.0658574,25.511755c-0.3946705,0.3355045-0.7288866,0.7374725-0.9854739,1.1871872
		C3.0752313,26.5603447,3.0728269,26.421402,3.0817575,26.2821178z M9.8414755,25.5945358
		c-0.0767698-0.069128-0.1592073-0.1316433-0.2406149-0.1953602c0.048089-0.0075569,0.0958338-0.0177765,0.1435795-0.0274792
		C9.7775869,25.4455471,9.8145123,25.5175076,9.8414755,25.5945358z M6.6586943,23.7090321
		c0.2121053-0.0355511,0.4290195-0.0545292,0.6514297-0.041563c0.9552464,0.0614853,1.7852912,0.599905,2.2630858,1.3796291
		c-0.1396284,0.0233574-0.2797728,0.0389004-0.4200888,0.0417347c-0.5420275-0.3245983-1.1570473-0.5346432-1.8131137-0.5987053
		C7.0652151,24.2787094,6.8416028,24.0069237,6.6586943,23.7090321z M6.8167,24.4725246
		c-0.132072,0.0028343-0.2646594,0.0078144-0.3989644,0.0227566c-0.198709,0.022068-0.3905482,0.0618286-0.5787811,0.109745
		c-0.1075125-0.1461563-0.201972-0.3014126-0.2888751-0.4608784c0.2296233-0.1513939,0.4801993-0.2689533,0.7464042-0.3499317
		C6.4380016,24.0447063,6.6148992,24.2689209,6.8167,24.4725246z M5.4774308,24.7095337
		c-0.1636729,0.0572758-0.3213348,0.1256313-0.4750471,0.2006836c-0.0036063-0.0173473-0.008759-0.0348644-0.0121937-0.0522099
		l-0.0116787-0.059082c-0.0089307-0.0458546-0.0159726-0.0870743-0.0221553-0.1306973
		c0.0954905-0.1085434,0.1959615-0.2122765,0.3050194-0.3058777C5.3281846,24.4815407,5.3999739,24.597126,5.4774308,24.7095337z
		 M4.6824226,25.0829067c-0.0154572,0.0091019-0.0319448,0.0162296-0.0472298,0.0255051
		c0.0116782-0.0202675,0.0276508-0.0367546,0.0398445-0.056591C4.6776137,25.062212,4.6798463,25.0726013,4.6824226,25.0829067z
		 M7.3506556,32.8998032c-2.2484879,0.2431908-4.2304268-1.3760223-4.4749923-3.5805435
		c-0.245939-2.2210083,1.3602219-4.2283669,3.5805435-4.4749928c0.1518226-0.0164871,0.3029585-0.0247307,0.4527202-0.0247307
		c2.0643768,0,3.7935076,1.5498276,4.0222721,3.6052742C11.1771383,30.6458187,9.5709772,32.6531754,7.3506556,32.8998032z
		 M14.3934097,30.132988c-0.0884485-0.2086697-0.1550856-0.4200897-0.2012854-0.6339111
		c0.1406593,0.0665512,0.2457676,0.1985378,0.2646599,0.3628979C14.467432,29.9608994,14.4387503,30.0520096,14.3934097,30.132988z
		 M13.9078865,29.1049213c-0.446538,0.0494633-0.7687321,0.4527206-0.7185822,0.8978844
		c0.0443106,0.3972454,0.3692522,0.6933346,0.7625484,0.715662c-0.0814066,0.0139103-0.1641884,0.0249023-0.2651739,0.0249023
		l-0.0570202-0.0006866l-2.740366,0.0494633c0.2796011-0.4905052,0.5660725-1.6913471,0.4032583-2.5473251l2.9883661,0.8862057
		c0.1106033,0.0405312,0.2122765,0.1057949,0.2940273,0.1875458c0.1140385,0.1140385,0.1902933,0.2583046,0.2212076,0.4176826
		c0.0036068,0.0187206-0.0025759,0.0370979-0.0003433,0.0559044C14.730546,29.3664894,14.3399973,29.0527115,13.9078865,29.1049213z
		 M14.0360079,30.371027c-0.2577896,0.0110779-0.4693794-0.1595516-0.4977169-0.4066925
		c-0.0207815-0.1865158,0.0747089-0.3587761,0.2272186-0.448513C13.8214989,29.8032379,13.9102907,30.0885925,14.0360079,30.371027z
		 M24.9098816,34.7244225c-4.5780392,0-8.647541-1.5852089-10.1760731-3.942667
		c0.086216-0.0705872,0.165906-0.1496754,0.2299671-0.2444801c0.1731195-0.2562428,0.2363214-0.5646973,0.1772413-0.8676567
		c-0.0274792-0.1430626-0.0886211-0.2723866-0.1647043-0.3932095c0.0784883-0.1622143,0.1270914-0.3379955,0.1241722-0.5197868
		c-0.0020609-0.1199646-0.024044-0.2367516-0.0613127-0.3484707c0.1243429-0.1556015,0.2157116-0.3335304,0.2474842-0.532238
		c0.0116787-0.074194,0.0048094-0.1482162,0.0022326-0.2222385c0.2522936-0.1370525,0.4499731-0.3596344,0.5446043-0.6330528
		c0.0199223-0.0578785,0.0226707-0.1185913,0.0331469-0.1781864c0.2730751-0.0911102,0.5075073-0.2759075,0.6497116-0.5307789
		c0.0372696-0.0669804,0.0565052-0.1401424,0.0796909-0.2119331c0.2749634-0.0417328,0.5294895-0.1756096,0.7103367-0.3898621
		c0.1250305-0.1472702,0.1992245-0.3240814,0.238554-0.5109406c0.2289371-0.0250759,0.4477406-0.1045933,0.6222324-0.2591648
		c0.1683102-0.1483879,0.287159-0.3421154,0.3441772-0.5605755c0.0269642-0.1071682,0.0322895-0.2191467,0.0271358-0.3325844
		c1.8603439-0.7507839,4.0574799-1.1519814,6.3714027-1.1519814c0.6737576,0,1.3449364,0.0374413,2.0006599,0.1052799
		c0.0506649,0.3665047,0.3026142,0.6907597,0.6778774,0.8090916c0.0961781,0.0309143,0.1964779,0.0460281,0.2974644,0.0460281
		c0.0948029,0,0.1896057-0.0137405,0.2809734-0.0412197c0.1387711-0.0412178,0.2644882-0.1106033,0.3805885-0.2136497
		l0.2902489-0.2906799c2.1351357,0.4620819,3.9874096,1.292984,5.2250042,2.3727455
		c-0.0731659,0.3397121,0.0194054,0.706646,0.2979774,0.9530144c0.0379562,0.0338345,0.0827789,0.0561619,0.1250305,0.08321
		c0.0061836,0.2278214,0.080719,0.4552975,0.2363205,0.644989c0.0475731,0.0574493,0.1078568,0.0999565,0.1652184,0.145813
		c-0.1339607,0.2690392-0.1660767,0.5877972-0.0580482,0.893589c0.0776291,0.2184601,0.2170868,0.4073811,0.4032555,0.5447769
		c0.1346512,0.0996113,0.2926559,0.1696835,0.4664612,0.2054062l0.0985832,0.0139122
		c-0.1104317-0.0025768-0.2126236,0.0012016-0.3108597,0.0101318l-0.0700722,0.0061836
		c-0.3091431,0.0247307-0.5894279,0.1676235-0.7900276,0.403944c-0.199913,0.2349472-0.2967758,0.5351582-0.2720451,0.8436127
		c0.0185471,0.2315121,0.1051102,0.4492855,0.2493744,0.629961c0.0474014,0.0592518,0.1025314,0.1119785,0.1614418,0.1612682
		C33.0519791,33.2963638,29.2148457,34.7244225,24.9098816,34.7244225z M34.9822197,30.9247322
		c-0.0334892-0.0298824-0.075737-0.0488605-0.1035614-0.0838108c-0.1002998-0.1257172-0.1607513-0.2775402-0.1738052-0.4382935
		c-0.001545-0.0194073,0.0066986-0.0371838,0.0065269-0.0565052c0.0094452,0.229538,0.1136932,0.4300499,0.2754784,0.5722561
		C34.9854851,30.9204388,34.9837685,30.9226723,34.9822197,30.9247322z M35.0565872,30.3140068
		c0-0.2548695,0.2067795-0.4616508,0.4616508-0.4616508c0.0051537,0,0.0092735,0.0027485,0.0144272,0.0029202
		c-0.0869026,0.2630272-0.2030029,0.5200443-0.3513908,0.7694187C35.1053619,30.542429,35.0565872,30.4345722,35.0565872,30.3140068
		z M38.0222816,32.2705269l-2.6735573-1.1264744c0.0103073-0.0149422,0.0212975-0.029541,0.0314293-0.0446548
		c0.0465431,0.0084152,0.089138,0.0279942,0.1380844,0.0279942c0.448597,0,0.813385-0.3647861,0.813385-0.813385
		c0-0.4118443-0.312233-0.7391911-0.7096519-0.7924309c0.0427666-0.0029202,0.0839844-0.0072136,0.1305275-0.0072136
		c0.0638885,0,0.1339607,0.0041218,0.2218933,0.0164871l2.730751,0.252121
		C38.3726425,30.2398129,37.9549599,31.4021854,38.0222816,32.2705269z M35.5905418,30.7610607
		c0.1258888-0.2235279,0.2285919-0.4532356,0.311718-0.6880112c0.0449982,0.071188,0.0776291,0.1506195,0.0776291,0.2409573
		C35.9798889,30.5432873,35.8096886,30.7250786,35.5905418,30.7610607z M42.4539948,36.1835709
		c-2.0865326,0-3.8082771-1.5849495-4.0277672-3.6140327c0.0003433-0.0050697,0.005497-0.0080719,0.005497-0.0132256
		c0-0.0135689-0.0077286-0.0239601-0.0106506-0.0364952c-0.0121918-0.1280365-0.019577-0.257534-0.019577-0.3887444
		c0-2.2340622,1.817749-4.0518131,4.0524979-4.0518131c0.1863441,0,0.3683929,0.0170021,0.5482101,0.0415611
		c0.0206108,0.0082436,0.0405312,0.0188923,0.0632019,0.0188923c0.0087585,0,0.0171738-0.0039501,0.0257645-0.0053234
		c1.9317894,0.307251,3.4146347,1.9798775,3.4146347,3.9966831C46.505806,34.365818,44.6880569,36.1835709,42.4539948,36.1835709z"
		/>
	<path d="M30.4016056,20.6097183c0.3249416,0.1319008,0.6656837,0.1992245,1.0139828,0.1992245
		c1.1053543,0,2.0877342-0.6622505,2.5033569-1.6865387c0.5598907-1.3794575-0.1071663-2.9574509-1.4873123-3.5173407
		c-0.3249397-0.1318998-0.6663704-0.1992245-1.0139828-0.1992245c-1.1053524,0-2.0877342,0.6615629-2.5033569,1.6858511
		C28.3544025,18.4718342,29.0214615,20.0498295,30.4016056,20.6097183z M29.2399216,17.2235909
		c0.361351-0.8903275,1.2159557-1.4660177,2.1777287-1.4660177c0.3022709,0,0.5990467,0.0583935,0.882082,0.1731195
		c1.2001572,0.4870682,1.7799683,1.8596573,1.2935867,3.0598125c-0.361351,0.8910141-1.2159576,1.4667034-2.1777306,1.4667034
		c-0.3022709,0-0.5990467-0.0583935-0.882082-0.1731186C29.3333511,19.79702,28.7528515,18.4244328,29.2399216,17.2235909z"/>
	<path d="M6.5468884,25.6604004c-1.7710366,0.196476-3.0522554,1.797142-2.855092,3.5681782
		c0.1813631,1.6391354,1.5608201,2.8757,3.2082,2.8757c0.1188478,0,0.2390695-0.0068703,0.3599777-0.0206108
		c0.8580394-0.0948009,1.6274571-0.5186691,2.1667371-1.1925964c0.5392799-0.6739292,0.7838449-1.51754,0.6883545-2.3748932
		C9.9206505,26.7581959,8.3454037,25.4549923,6.5468884,25.6604004z M9.1519194,30.6712379
		c-0.4808865,0.6011066-1.1664934,0.97826-1.9304161,1.063446c-1.605474,0.1744919-3.0062275-0.9789486-3.1807208-2.5445766
		c-0.17518-1.5786819,0.9665818-3.0055408,2.5445766-3.1807213c0.1078558-0.0116787,0.2157121-0.0178604,0.321507-0.0178604
		c1.4680777,0,2.6970863,1.1019154,2.8592138,2.5631237C9.8505783,29.3192596,9.6328058,30.070816,9.1519194,30.6712379z"/>
</g>
<path fill="none" stroke="#000000" stroke-width="0.5" stroke-linecap="round" stroke-linejoin="round" stroke-miterlimit="10" d="
	M25,25"/>
</svg>
