<?xml version="1.0" encoding="utf-8"?>
<!-- Generator: Adobe Illustrator 19.1.1, SVG Export Plug-In . SVG Version: 6.00 Build 0)  -->
<svg version="1.1" id="Layer_1" xmlns="http://www.w3.org/2000/svg" xmlns:xlink="http://www.w3.org/1999/xlink" x="0px" y="0px"
	 viewBox="-124 126 50 50" style="enable-background:new -124 126 50 50;" xml:space="preserve">
<style type="text/css">
	.st0{fill:none;}
	.st1{fill:#FFFFFF;}
</style>
<g id="Layer_x0020_1">
	<rect x="-124" y="126" class="st0" width="50" height="50"/>
</g>
<g>
	<g>
		<path class="st1" d="M-110.8,155.7c0,6.5,5.3,11.8,11.8,11.8s11.8-5.3,11.8-11.8c0-5.4-3.7-10-8.7-11.4l-0.5,0.6
			c4.9,1.2,8.5,5.6,8.5,10.8c0,6.2-5,11.2-11.2,11.2s-11.2-5-11.2-11.2c0-5.2,3.6-9.6,8.5-10.8l-0.5-0.6
			C-107.2,145.6-110.8,150.2-110.8,155.7z"/>
	</g>
	<g>
		<path class="st1" d="M-91.5,137.6l-2.8-2.8l-1.3,2.8H-91.5z M-94,136l0.9,0.9h-1.3L-94,136z"/>
	</g>
	<g>
		<path class="st1" d="M-98.8,144.5l0.4-1.2l1.5-4.8h-4.3l1.5,4.8l0.4,1.2c0.1,0,0.2,0,0.3,0C-98.9,144.5-98.9,144.5-98.8,144.5z
			 M-100.2,139.2h2.4L-99,143L-100.2,139.2z"/>
	</g>
	<g>
		<path class="st1" d="M-95.1,134.5h-3.3l2.1,2.7L-95.1,134.5z M-97,135.2h0.9l-0.3,0.7L-97,135.2z"/>
	</g>
	<g>
		<path class="st1" d="M-96.1,143.6l4.7-5.1h-4.4l-1.6,4.9l-0.4,1.2c0.3,0,0.5,0.1,0.7,0.1L-96.1,143.6z M-95.4,139.2h2.4l-3.6,3.9
			l0,0L-95.4,139.2z"/>
	</g>
	<g>
		<path class="st1" d="M-99.6,134.5h-3.3l1.2,2.7L-99.6,134.5z M-101,135.2l-0.5,0.7l-0.3-0.7H-101z"/>
	</g>
	<g>
		<path class="st1" d="M-103.7,134.8l-2.7,2.8h4L-103.7,134.8z M-104,136l0.4,0.9h-1.3L-104,136z"/>
	</g>
	<g>
		<path class="st1" d="M-97.2,137.6l-1.8-2.4l-1.8,2.4H-97.2z M-99,136.4l0.4,0.6h-0.9L-99,136.4z"/>
	</g>
	<g>
		<path class="st1" d="M-100.6,143.4l-1.6-4.9h-4.4l4.7,5.1l1,1.1c0.2,0,0.5-0.1,0.7-0.1L-100.6,143.4z M-105,139.2h2.3l1.3,3.9
			L-105,139.2z"/>
	</g>
</g>
</svg>
