<?xml version="1.0" encoding="UTF-8"?>
<!DOCTYPE svg PUBLIC "-//W3C//DTD SVG 1.1//EN" "http://www.w3.org/Graphics/SVG/1.1/DTD/svg11.dtd">
<!-- Creator: CorelDRAW X7 -->
<svg xmlns="http://www.w3.org/2000/svg" xml:space="preserve" width="50px" height="50px" version="1.1" style="shape-rendering:geometricPrecision; text-rendering:geometricPrecision; image-rendering:optimizeQuality; fill-rule:evenodd; clip-rule:evenodd"
viewBox="0 0 5000000 5000000"
 xmlns:xlink="http://www.w3.org/1999/xlink">
 <defs>
  <style type="text/css">
   <![CDATA[
    .fil0 {fill:none}
    .fil2 {fill:black}
    .fil1 {fill:#FFFFF4}
   ]]>
  </style>
 </defs>
 <g id="Layer_x0020_1">
  <metadata id="CorelCorpID_0Corel-Layer"/>
  <g id="_2113181328208">
   <rect class="fil0" x="-59" y="-21" width="5000118" height="5000118"/>
   <path class="fil1" d="M2142233 4012922c-94255,94609 -200912,90829 -282056,65199l-178825 -507536c0,0 0,0 -118,0l-368515 -1046017c36024,118 72285,118 109137,236l72994 118c8268,576514 300010,1085349 741992,1393390l-94609 94610 0 0zm-357885 -1487764l54923 118c617736,709 1112751,1063 1484220,1063l-1019442 1080153c-311585,-259142 -512142,-647029 -519701,-1081334zm491354 -1106964l170202 0 -375721 221228c60475,-80790 129571,-154848 205519,-221228l0 0zm1330908 383871l471983 670533c-99806,590 -303317,944 -608996,944 119,-236 237,-354 237,-590l98625 -699707 38033 28820 0 0 118 0zm-709038 2099003l1239369 -1373193c3662,-591 7323,-1063 10512,-3307 11576,-8150 14410,-24096 6733,-35907 -1417,-3543 -3662,-6614 -6496,-9331l-403241 -572735 456864 345720c1536,827 156147,82089 166423,208944 6732,83624 -50435,170911 -172210,261504l-1282954 1181730c-5079,-1063 -10040,-2244 -15000,-3425l0 0zm-168195 -49608l671242 -1325121c332963,-118 556317,-472 667816,-1063l-1228621 1361264c-37324,-10394 -74294,-21851 -110437,-35080l0 0 0 0zm-383870 -212133l933455 -989204 -598720 1181966c-120594,-49253 -233039,-114334 -334735,-192762l0 0zm-368752 -1857814l353397 691557c-154020,-118 -317608,-236 -490763,-354l-55041 -118c4842,-251347 74175,-486984 192407,-691085l0 0zm412454 691675l-350680 -686360 1301734 686833c-256662,0 -573916,-237 -951054,-473l0 0zm-357885 -749787l514150 -302844 973968 323041 -100279 712109 -1387839 -732306 0 0 0 0zm674076 -305207l393910 0 306978 232330 -700888 -232330 0 0zm-1210432 1054049l-72994 -118c-227724,-236 -442219,-590 -630374,-827l743291 -342885c-24450,111028 -38033,225952 -39923,343830zm-844869 -364145l408320 -183549 425683 169375 -788529 363673 -45474 -349499 0 0zm606752 416470l331309 940423 -853727 -941132c156501,236 333435,472 522418,709zm293395 -460999l-402060 -160044 452258 0c-19252,52206 -36025,105593 -50198,160044zm-696282 -160044l122838 0 -303671 136539 180833 -136539zm-657895 494897c2599,-827 4961,-2126 7087,-3662l392611 -296347 48545 372649c-267056,-354 -461826,-709 -535411,-827 20434,-47009 86459,-71459 87168,-71813l0 0zm-89294 124492c73349,118 275442,354 552655,827l616437 1072357c-393320,-358004 -921289,-835184 -1072120,-955424 -53624,-42639 -86224,-82680 -97090,-117760l0 0 118 0zm1296537 1189290l-584900 -1017552 814986 898375 161580 458636c-37088,-18898 -61065,-37560 -63664,-39568 -4134,-3780 -139138,-127563 -328002,-299891l0 0z"/>
   <path class="fil2" d="M3222267 772111c-723330,0 -1343901,446825 -1601035,1078853l-776009 0c-5787,0 -11338,1772 -15945,5315l-654824 494307c-20552,8150 -109491,47600 -122838,127445 -945,5433 -945,10866 -1063,16300 -118,708 -591,1417 -591,2126 0,354 0,708 0,1181 0,57994 39923,119885 120949,184139 246386,196424 1512095,1357366 1526032,1370240 1890,1418 120004,93783 261386,93783 71814,0 149651,-23859 221110,-95672l99924 -99925c709,-590 945,-1535 1536,-2244 270953,176817 594113,279930 941132,279930 952825,0 1728007,-775064 1728007,-1727889 0,-952825 -775182,-1727889 -1727889,-1727889l118 0zm-1071412 1796631c-34017,-1299 -33899,51262 0,52679 27639,1063 52207,13938 68034,36852 19252,27638 64844,1299 45474,-26576 -26812,-38741 -66262,-61065 -113508,-62955zm517694 383162c-89176,16182 -177998,-44647 -193825,-135477 -5788,-33426 -56459,-19252 -50671,13938 18898,109255 124256,184848 233039,177879 45355,-2834 71340,-22914 61891,-75002 3780,-23387 -63073,-42521 -50434,18662l0 0zm-421667 -920580c-34017,-1181 -33899,51261 0,52679 27638,1063 52206,14055 68033,36851 19253,27639 64845,1299 45474,-26457 -26812,-38742 -66262,-61183 -113507,-63073zm452612 238472c-21024,-26576 -57993,10866 -37205,37206 177289,225007 213904,186502 37205,-37206zm-73703 -697581c-34016,-1299 -33898,51261 0,52679 27639,1063 52207,13937 68034,36851 19134,27639 64845,1300 45474,-26575 -26812,-38742 -66262,-61065 -113508,-62955zm568719 314065c-47246,-11693 -85987,-37442 -116106,-75593 -21024,-26576 -57994,10866 -37206,37206 11457,14528 24804,26930 38978,38505 -236,0 -355,0 -473,118 -31182,13111 -4370,58467 26576,45474 18662,-7914 33781,6969 37206,23387 -89176,16181 -178116,-44648 -193825,-135477 -5788,-33308 -56459,-19135 -50671,13937 18898,109256 124256,184967 233039,177880 45356,-2835 80199,-26930 61891,-75002 22560,-6260 28584,-43466 591,-50317l0 0 0 -118zm27757 -877351c-369106,0 -707030,135005 -967590,357886 -8504,2126 -15355,7795 -18307,15827 -105594,93310 -197841,201266 -273670,320797 0,0 -119,119 -237,119 -2716,2008 -5079,4370 -6850,7086 -709,945 -1181,2008 -1772,3190 -945,2007 -1654,4133 -2008,6496 -139611,226660 -220519,493244 -220755,778489 0,0 0,0 0,0 0,0 0,0 0,0 0,590 0,827 0,1181 0,822191 668998,1491071 1491307,1491071 822191,0 1491071,-668880 1491071,-1491071 0,-822191 -668880,-1491071 -1491071,-1491071l-118 0zm-946565 409265l170202 0 -375721 221228c60475,-80790 129571,-154848 205519,-221228l0 0zm1330908 383871l471983 670533c-99806,590 -303317,944 -608996,944 119,-236 237,-354 237,-590l98625 -699707 38033 28820 0 0 118 0zm-709038 2099003l1239369 -1373193c3662,-591 7323,-1063 10512,-3307 11576,-8150 14410,-24096 6733,-35789 -1417,-3543 -3662,-6732 -6496,-9331l-403241 -572853 456864 345720c1536,827 156147,82089 166423,208944 6732,83624 -50435,170911 -172210,261504l-1282954 1181730c-5079,-1063 -10040,-2244 -15000,-3425l0 0zm-168195 -49608l671242 -1325121c332963,-118 556317,-472 667816,-1063l-1228621 1361264c-37324,-10394 -74294,-21851 -110437,-35080l0 0 0 0zm-383870 -212133l933455 -989204 -598720 1181966c-120594,-49253 -233039,-114334 -334735,-192762l0 0zm-368752 -1857814l353397 691557c-154020,-118 -317608,-236 -490763,-354l-55041 -118c4842,-251347 74175,-486984 192407,-691085l0 0zm412454 691675l-350680 -686360 1301734 686833c-256662,0 -573916,-237 -951054,-473l0 0zm-357885 -749787l514150 -302844 973968 323041 -100279 712109 -1387839 -732306 0 0 0 0zm674076 -305207l393910 0 306978 232330 -700888 -232330 0 0zm-921052 1106964l54923 118c617736,709 1112751,1063 1484220,1063l-1019442 1080153c-311585,-259142 -512142,-647029 -519701,-1081334zm1437919 1413352c-83861,0 -165714,-7678 -245677,-21497l1252480 -1153855c135241,-100279 199613,-203274 191227,-306151 -12638,-155675 -187447,-247449 -190991,-248985l-664154 -503047c-118,-118 -118,-118 -237,-118l-440801 -334026c-4606,-3426 -10158,-5316 -15945,-5316l-768686 0c243787,-190281 550057,-304025 882784,-304025 793135,0 1438628,645375 1438628,1438510 0,793135 -645493,1438510 -1438628,1438510l0 0zm-1727299 -1466267l-72994 -118c-227724,-118 -442219,-590 -630374,-827l743291 -342885c-24450,111146 -38033,225952 -39923,343830zm-844869 -364145l408320 -183549 425683 169375 -788529 363673 -45474 -349499 0 0zm606752 416470l331309 940423 -853727 -941132c156501,236 333435,472 522418,709zm293395 -460999l-402060 -159926 452258 0c-19252,52088 -36025,105594 -50198,159926zm-696282 -160044l122838 0 -303671 136539 180833 -136539zm-657895 494897c2599,-827 4961,-2126 7087,-3662l392611 -296347 48545 372649c-267056,-354 -461826,-709 -535411,-827 20434,-47009 86459,-71459 87168,-71813l0 0zm-89294 124492c73349,118 275442,354 552655,827l616437 1072357c-393320,-358004 -921289,-835184 -1072120,-955424 -53624,-42639 -86224,-82680 -97090,-117760l0 0 118 0zm1296537 1189290l-584900 -1017552 814986 898375 161580 458636c-37088,-18898 -61065,-37560 -63664,-39568 -4134,-3780 -139138,-127563 -328002,-299891l0 0zm738921 300718c-94255,94609 -200912,90829 -282056,65199l-178825 -507536c0,0 0,0 -118,0l-368515 -1046017c36024,118 72285,118 109137,236l72994 118c8268,576514 300010,1085349 741992,1393390l-94609 94610 0 0zm1080034 162406c-923888,0 -1675447,-751559 -1675447,-1675328 0,-923769 751559,-1675328 1675447,-1675328 923769,0 1675328,751559 1675328,1675328 0,923769 -751559,1675328 -1675328,1675328z"/>
  </g>
 </g>
</svg>
