<?xml version="1.0" encoding="utf-8"?>
<!-- Generator: Adobe Illustrator 18.0.0, SVG Export Plug-In . SVG Version: 6.00 Build 0)  -->
<!DOCTYPE svg PUBLIC "-//W3C//DTD SVG 1.1//EN" "http://www.w3.org/Graphics/SVG/1.1/DTD/svg11.dtd">
<svg version="1.1" id="Layer_1" xmlns="http://www.w3.org/2000/svg" xmlns:xlink="http://www.w3.org/1999/xlink" x="0px" y="0px"
	 width="50px" height="50px" viewBox="0 0 50 50" enable-background="new 0 0 50 50" xml:space="preserve">
<g>
	<path d="M47.4998131,21.949192c0-0.201273-0.1638107-0.3649426-0.3646126-0.3646107L34.986412,21.584486
		c-0.0105667-4.8145809-3.400959-8.8355856-7.92519-9.8145332l2.1325569-2.6844759l-1.5497837-1.5882368l-5.2313728,0.0032554
		l-1.580925,1.5861611l2.1036835,2.6517324c-4.5995312,0.9211988-8.0655994,4.9778719-8.0761671,9.8459558l-11.994792-0.0000954
		C2.6632445,21.5842495,2.5,21.7475891,2.5,21.9488602v9.3576851c0,0.2012253,0.1636219,0.3648949,0.3647995,0.3648949
		l22.0546169-0.0001411c0.0011311,0,0.002264,0.0001411,0.0032082,0.0001411c0.0011311,0,0.002264-0.0001411,0.003397-0.0001411
		l22.2095566-0.0001888C47.3363762,31.6714401,47.5,31.5077705,47.5,31.3072071L47.4998131,21.949192z M21.9896965,9.1460094
		l0.7881031-0.7819223l4.4942245,0.0031614l0.7660217,0.7741375l-1.783989,2.2455082l-0.1673965,0.2219372
		c-0.3819733-0.043972-0.7703629-0.0665722-1.1640358-0.0665722c-0.3310184,0-0.6582623,0.0159941-0.980978,0.0472279
		l-0.173624-0.2020264L21.9896965,9.1460094z M24.9226246,12.4572306c5.0456696,0,9.1364079,4.0844164,9.1484852,9.1272554
		l-18.2969723-0.0001411C15.7865934,16.5415993,19.877142,12.4572306,24.9226246,12.4572306z"/>
	<path fill="#FFFFFF" d="M4.1921935,25.1817646c0.2012401,0.0000019,0.3649111-0.1636696,0.3645844-0.364584v-2.5030918
		l0.8712797-0.0003262L5.4280562,23.416666c-0.0003262,0.2015667,0.1630182,0.364912,0.3645844,0.3645859
		c0.2012405,0,0.3645849-0.1633453,0.3639312-0.3645859l0.0000014-1.1029015h0.8709531l0.0003262,2.503418
		c-0.0003262,0.2009125,0.163672,0.3649101,0.3645849,0.364584s0.3645844-0.1633434,0.3642573-0.3642578l0.0003266-2.5040703
		l0.8712792,0.0003262l-0.000001,1.1029034c0.000001,0.2012405,0.1636715,0.3649101,0.3642578,0.3649101
		c0.2015667-0.0003242,0.3652382-0.1639957,0.3652401-0.3652382l0.000001-1.1029034h0.8716059l-0.0003271,2.503418
		c0.000001,0.2012386,0.1636715,0.3649101,0.3642578,0.3642578c0.2015667,0.0003262,0.3652382-0.1633434,0.3649111-0.3642578
		l0.000001-2.5030918l0.8712788-0.0003262l-0.000001,1.1029034c0.000001,0.2018929,0.1636715,0.3655643,0.364912,0.364912
		c0.2012396,0,0.364584-0.1633434,0.364584-0.364584v-1.1029015l0.8712797-0.0003281l0.000001,2.5037441
		c0,0.2012405,0.1633453,0.3645859,0.3645849,0.3645859s0.3649111-0.1636715,0.3642588-0.3642597l0.0003262-2.5040722
		l0.8712797,0.0003281v1.1029015c0.0003271,0.2015667,0.1636715,0.3649101,0.364584,0.364584
		c0.2009134-0.0003262,0.3649111-0.1636696,0.364912-0.364912v-1.1029015h0.8716059v2.5030918
		c0,0.2012386,0.1636715,0.364912,0.364584,0.3645859c0.2009144,0.0003262,0.3645859-0.1633453,0.3642597-0.3642597v-2.5030918
		l0.8712788-0.0003262v1.1029015c0,0.2018929,0.1636734,0.3655643,0.3645859,0.3652382
		c0.2015667-0.0003262,0.3652382-0.1639996,0.364912-0.364912v-1.1029015l0.8712788-0.0003262v2.5037441
		c0,0.2012405,0.1636734,0.364912,0.3642597,0.3642597c0.2015648,0.0003262,0.3652363-0.1633453,0.364912-0.3642597
		l0.0003262-2.503418h0.8709526v1.1029015c0,0.2018929,0.1633453,0.3652382,0.3642597,0.364912
		c0.2015648-0.0003262,0.3649101-0.1636715,0.3649101-0.364912v-1.1029015h0.8709545l0.0003262,2.503418
		c0,0.2012405,0.1636715,0.364912,0.364912,0.3642597c0.2012386,0,0.364584-0.1633453,0.3642578-0.3642597v-2.5037441
		l0.8712807,0.0003262v1.1029015c0,0.2012405,0.1636715,0.364912,0.3649101,0.364912
		c0.2012405,0,0.364912-0.1636715,0.3645859-0.3652382v-1.1029015h0.8716068v2.5037441
		c-0.0003262,0.2009125,0.1633434,0.364584,0.3642578,0.3642597c0.2015667-0.0003262,0.3649101-0.1636715,0.3645859-0.3645859
		l0.0003262-2.503418l0.8706264-0.0003262v1.1029015c0.0003262,0.2015648,0.1639996,0.3652382,0.364912,0.364912
		s0.3649101-0.1636715,0.3645859-0.3645859v-1.1029015h0.8709526l0.0003262,2.5040703
		c-0.0003262,0.2009144,0.1633453,0.364584,0.3642597,0.3642597c0.2009125-0.0003262,0.3649101-0.1636715,0.364584-0.3645859
		v-2.5037441l0.8712807,0.0003262v1.1029015c0,0.2018929,0.1633453,0.3652382,0.3642578,0.364912
		c0.2012405,0,0.3652363-0.1633434,0.364912-0.364912v-1.1029015l0.8712788,0.0003262l-0.0003242,2.503418
		c0.0003242,0.2009144,0.1639977,0.3645859,0.3645821,0.3645859c0.2012405,0,0.3649139-0.1636715,0.3645859-0.3645859v-2.5037441
		h0.8716087v1.1029015c0.0003242,0.2015667,0.1639977,0.3652401,0.3652382,0.3652382
		c0.2009125-0.0003262,0.3645821-0.1639977,0.3645821-0.3652382v-1.1029015h0.8716087v2.5037441
		c0.0003281,0.2009144,0.1636696,0.3642597,0.3642578,0.3642597c0.2012405,0,0.3649101-0.1636715,0.3645859-0.364584
		l0.0003242-2.5034199h0.8709526l0.0000038,1.1029034c0.0003242,0.2015667,0.1636696,0.364912,0.3645821,0.364584
		c0.2012405,0,0.3649101-0.1636715,0.3649139-0.364912v-1.1029015l0.8712807,0.0003281l-0.0003281,2.503418
		c0,0.2012405,0.1636696,0.364912,0.3645859,0.364584c0.2015648,0.0003262,0.3649101-0.1630173,0.3649101-0.3642578
		l-0.0003281-2.5040722l0.8712807,0.0003281v1.1029015c0,0.2012405,0.1636696,0.364912,0.3645859,0.3645859
		c0.2015648,0.0003242,0.3652382-0.1633453,0.3649101-0.364912v-1.1029034l0.8712807,0.0003262v2.5037441
		c0,0.2005863,0.1636696,0.3642578,0.364254,0.3642578c0.2005882,0,0.3649139-0.1636715,0.3645859-0.364584l0.0003281-2.503418
		h0.8709526v1.1029034c0,0.2012405,0.1636696,0.3649101,0.3645859,0.364584
		c0.2009125-0.0003281,0.3649101-0.1636715,0.3649101-0.364912v-1.1029034l0.8706245-0.0003262v2.5037441
		c0,0.2012405,0.1636696,0.364912,0.3645859,0.364584c0.2012367,0,0.3649101-0.1636715,0.3645821-0.364584v-2.5037441
		l0.5988235,0.0003262l-0.0003281,8.6288357L3.2265015,30.941946l0.0029399-8.6281834l0.5981677-0.0003262l-0.0003269,2.5040703
		C3.8276093,25.0184212,3.9909539,25.1817646,4.1921935,25.1817646z"/>
	<g>
		<path d="M15.4068842,25.5608101c-0.2136326,0-0.3865023-0.1728687-0.3865023-0.3865013v-0.7730064
			c0-0.2136326,0.1728697-0.3865013,0.3865023-0.3865013c0.2136335,0,0.3865032,0.1728687,0.3865032,0.3865013v0.7730064
			C15.7933874,25.3879414,15.6205177,25.5608101,15.4068842,25.5608101z"/>
		<path d="M15.4068842,40.2592316c-0.2136326,0-0.3865023-0.1728668-0.3865023-0.3865013v-1.4697647
			c0-0.2136345,0.1728697-0.3865051,0.3865023-0.3865051c0.2136335,0,0.3865032,0.1728706,0.3865032,0.3865051v1.4697647
			C15.7933874,40.0863647,15.6205177,40.2592316,15.4068842,40.2592316z M15.4068842,37.3196983
			c-0.2136326,0-0.3865023-0.1728668-0.3865023-0.3865013v-1.4697685c0-0.2136307,0.1728697-0.3865013,0.3865023-0.3865013
			c0.2136335,0,0.3865032,0.1728706,0.3865032,0.3865013v1.4697685
			C15.7933874,37.1468315,15.6205177,37.3196983,15.4068842,37.3196983z M15.4068842,34.3801651
			c-0.2136326,0-0.3865023-0.1728668-0.3865023-0.3865013v-1.4697685c0-0.2136307,0.1728697-0.3865013,0.3865023-0.3865013
			c0.2136335,0,0.3865032,0.1728706,0.3865032,0.3865013v1.4697685
			C15.7933874,34.2072983,15.6205177,34.3801651,15.4068842,34.3801651z M15.4068842,31.4398785
			c-0.2136326,0-0.3865023-0.1728706-0.3865023-0.3865032v-1.4697666c0-0.2136326,0.1728697-0.3865032,0.3865023-0.3865032
			c0.2136335,0,0.3865032,0.1728706,0.3865032,0.3865032v1.4697666
			C15.7933874,31.2670078,15.6205177,31.4398785,15.4068842,31.4398785z M15.4068842,28.5003452
			c-0.2136326,0-0.3865023-0.1728706-0.3865023-0.3865032v-1.4697666c0-0.2136345,0.1728697-0.3865032,0.3865023-0.3865032
			c0.2136335,0,0.3865032,0.1728687,0.3865032,0.3865032v1.4697666
			C15.7933874,28.3274746,15.6205177,28.5003452,15.4068842,28.5003452z"/>
		<path d="M15.4068842,42.5027618c-0.2136326,0-0.3865023-0.1728706-0.3865023-0.3865051v-0.7730026
			c0-0.2136345,0.1728697-0.3865051,0.3865023-0.3865051c0.2136335,0,0.3865032,0.1728706,0.3865032,0.3865051v0.7730026
			C15.7933874,42.3298912,15.6205177,42.5027618,15.4068842,42.5027618z"/>
	</g>
	<g>
		<path d="M34.538765,25.5608101c-0.2136345,0-0.3865051-0.1728687-0.3865051-0.3865013v-0.7730064
			c0-0.2136326,0.1728706-0.3865013,0.3865051-0.3865013c0.2136307,0,0.3865013,0.1728687,0.3865013,0.3865013v0.7730064
			C34.9252663,25.3879414,34.7523956,25.5608101,34.538765,25.5608101z"/>
		<path d="M34.538765,40.2592316c-0.2136345,0-0.3865051-0.1728668-0.3865051-0.3865013v-1.4697647
			c0-0.2136345,0.1728706-0.3865051,0.3865051-0.3865051c0.2136307,0,0.3865013,0.1728706,0.3865013,0.3865051v1.4697647
			C34.9252663,40.0863647,34.7523956,40.2592316,34.538765,40.2592316z M34.538765,37.3196983
			c-0.2136345,0-0.3865051-0.1728668-0.3865051-0.3865013v-1.4697685c0-0.2136307,0.1728706-0.3865013,0.3865051-0.3865013
			c0.2136307,0,0.3865013,0.1728706,0.3865013,0.3865013v1.4697685
			C34.9252663,37.1468315,34.7523956,37.3196983,34.538765,37.3196983z M34.538765,34.3801651
			c-0.2136345,0-0.3865051-0.1728668-0.3865051-0.3865013v-1.4697685c0-0.2136307,0.1728706-0.3865013,0.3865051-0.3865013
			c0.2136307,0,0.3865013,0.1728706,0.3865013,0.3865013v1.4697685
			C34.9252663,34.2072983,34.7523956,34.3801651,34.538765,34.3801651z M34.538765,31.4398785
			c-0.2136345,0-0.3865051-0.1728706-0.3865051-0.3865032v-1.4697666c0-0.2136326,0.1728706-0.3865032,0.3865051-0.3865032
			c0.2136307,0,0.3865013,0.1728706,0.3865013,0.3865032v1.4697666
			C34.9252663,31.2670078,34.7523956,31.4398785,34.538765,31.4398785z M34.538765,28.5003452
			c-0.2136345,0-0.3865051-0.1728706-0.3865051-0.3865032v-1.4697666c0-0.2136345,0.1728706-0.3865032,0.3865051-0.3865032
			c0.2136307,0,0.3865013,0.1728687,0.3865013,0.3865032v1.4697666
			C34.9252663,28.3274746,34.7523956,28.5003452,34.538765,28.5003452z"/>
		<path d="M34.538765,42.5027618c-0.2136345,0-0.3865051-0.1728706-0.3865051-0.3865051v-0.7730026
			c0-0.2136345,0.1728706-0.3865051,0.3865051-0.3865051c0.2136307,0,0.3865013,0.1728706,0.3865013,0.3865051v0.7730026
			C34.9252663,42.3298912,34.7523956,42.5027618,34.538765,42.5027618z"/>
	</g>
</g>
</svg>
