<?xml version="1.0" encoding="UTF-8"?>
<!DOCTYPE svg PUBLIC "-//W3C//DTD SVG 1.1//EN" "http://www.w3.org/Graphics/SVG/1.1/DTD/svg11.dtd">
<!-- Creator: CorelDRAW X7 -->
<svg xmlns="http://www.w3.org/2000/svg" xml:space="preserve" width="50px" height="50px" version="1.1" style="shape-rendering:geometricPrecision; text-rendering:geometricPrecision; image-rendering:optimizeQuality; fill-rule:evenodd; clip-rule:evenodd"
viewBox="0 0 5000000 5000000"
 xmlns:xlink="http://www.w3.org/1999/xlink">
 <defs>
  <style type="text/css">
   <![CDATA[
    .fil0 {fill:none}
    .fil2 {fill:black}
    .fil1 {fill:#FFFFF6}
   ]]>
  </style>
 </defs>
 <g id="Layer_x0020_1">
  <metadata id="CorelCorpID_0Corel-Layer"/>
  <g id="_2113337904160">
   <rect class="fil0" width="5000000" height="5000000"/>
   <path class="fil1" d="M2141878 4012685c-94254,94610 -200911,90830 -282056,65199l-178824 -507535c0,0 0,0 -118,0l-368516 -1046018c36025,119 72286,119 109137,237l72995 118c8268,576514 300009,1085349 741992,1393390l-94610 94609zm-647264 -1540678l-72994 -118c-227724,-236 -442219,-591 -630375,-827l743292 -342885c-24450,111027 -38033,225952 -39923,343830zm-844869 -364145l408320 -183549 425683 169375 -788529 363673 -45474 -349499 0 0zm606751 416469l331310 940424 -853728 -941132c156501,236 333436,472 522418,708zm293395 -460998l-402060 -160045 452259 0c-19253,52207 -36025,105594 -50199,160045zm-696281 -160045l122838 0 -303671 136540 180833 -136540zm-657895 494898c2598,-827 4961,-2126 7087,-3662l392610 -296348 48545 372650c-267055,-354 -461825,-709 -535410,-827 20433,-47009 86459,-71459 87168,-71813l0 0zm-89294 124492c73348,118 275441,354 552655,827l616437 1072356c-393320,-358003 -921289,-835183 -1072121,-955424 -53505,-42639 -86223,-82679 -96971,-117759l0 0zm1296537 1189289l-584901 -1017551 814987 898374 161579 458637c-37087,-18898 -61064,-37560 -63663,-39568 -4134,-3780 -139138,-127563 -328002,-299892z"/>
   <path class="fil1" d="M1783993 2524922l54923 118c617736,709 1112752,1063 1484220,1063l-1019441 1080152c-311585,-259142 -512143,-647028 -519702,-1081333zm491354 -1106964l170202 0 -375720 221227c60474,-80789 129571,-154847 205518,-221227l0 0zm1330908 383870l471984 670533c-99807,591 -303317,945 -608996,945 118,-236 236,-354 236,-590l98626 -699707 38150 28819 0 0zm-709038 2099004l1239370 -1373193c3662,-591 7323,-1063 10512,-3308 11575,-8149 14410,-24095 6733,-35906 -1418,-3544 -3662,-6733 -6497,-9331l-403241 -572735 456865 345720c1536,827 156147,82089 166423,208943 6732,83625 -50435,170911 -172210,261505l-1282954 1181730c-5079,-1063 -10040,-2244 -15001,-3425l0 0zm-168194 -49608l671242 -1325121c332963,-118 556316,-472 667816,-1063l-1228621 1361264c-37324,-10395 -74294,-21852 -110437,-35080l0 0zm-383870 -212133l933454 -989204 -598719 1181966c-120595,-49254 -233039,-114334 -334735,-192762l0 0zm-368752 -1857814l353397 691557c-154021,-118 -317609,-236 -490764,-355l-55041 -118c4843,-251346 74176,-486984 192408,-691084l0 0zm412454 691675l-350681 -686360 1301734 686832c-256661,0 -573915,-236 -951053,-472zm-357886 -749787l514151 -302845 973967 323042 -100279 712109 -1387839 -732306 0 0zm674077 -305207l393910 0 306978 232330 -700888 -232330 0 0z"/>
   <path class="fil2" d="M3222031 1008929c-368988,0 -706912,135005 -967590,357886 -8386,2008 -15237,7795 -18189,15827 -105594,93310 -197841,201266 -273671,320679 0,118 -118,237 -236,237 -2834,1889 -5079,4252 -6850,6968 -709,1063 -1300,2126 -1772,3308 -1063,2007 -1536,4133 -2008,6496 -139611,226660 -220401,493244 -220637,778489 0,0 0,0 0,0 0,0 0,0 0,0 0,354 -118,827 -118,1181 0,822191 668879,1491071 1491071,1491071 822309,0 1491188,-668880 1491188,-1491071 0,-822191 -668879,-1491071 -1491188,-1491071zm34843 1170510c-34607,18425 -69215,36851 -103822,55277 -30001,15945 -3425,61419 26576,45474 34607,-18426 69214,-36852 103822,-55159 30001,-16064 3425,-61420 -26576,-45592zm-631319 -607224c-33899,-1299 -33780,51261 0,52679 27757,1063 52325,13937 68270,36851 19016,27639 64726,1418 45356,-26575 -26930,-38742 -66380,-61065 -113626,-62955zm156855 1234881c-35079,35080 -70159,70278 -105239,105358 -23977,23977 13229,61183 37206,37088 35080,-35080 70160,-70160 105239,-105122 24096,-23977 -13228,-61301 -37206,-37324zm411982 -920816c-47246,-11693 -85987,-37442 -116106,-75593 -21024,-26576 -58112,10866 -37206,37206 35198,44647 84215,75475 139375,89058 32953,8268 46891,-42521 13937,-50671zm27639 -1114169c-723212,0 -1343783,446825 -1600917,1078853l-776009 0c-5787,0 -11339,1890 -15945,5197l-654824 494307c-20552,8150 -109491,47718 -122838,127563 -945,5315 -945,10866 -1181,16300 0,708 -473,1417 -473,2126 0,472 236,590 236,1063 -354,57994 39923,120003 120713,184375 246385,196424 1512095,1357248 1526268,1370122 1654,1536 119768,93783 261150,93783 71814,0 149651,-23859 221110,-95672l99924 -99925c591,-590 945,-1535 1535,-2244 270954,176698 594232,279930 941251,279930 952943,0 1728007,-775182 1728007,-1727889 0,-952825 -775064,-1727889 -1728007,-1727889zm-1621705 1131414c-19253,52206 -35907,105593 -50198,159926l-402060 -159926 452258 0zm-808844 567773l743409 -342885c-24450,111028 -38151,225952 -40041,343830l-73112 -118c-227724,-236 -442219,-590 -630256,-827zm465250 53270l331310 940423 -853728 -941132c156501,236 333318,472 522418,709zm-402886 -621043l122838 0 -303789 136539 180951 -136539zm204573 20906l425565 169493 -788529 363555 -45592 -349381 408556 -183667zm-862468 474109c2480,-945 4961,-2244 7087,-3780l392611 -296347 48426 372649c-266937,-354 -461825,-709 -535292,-827 20434,-47009 86459,-71577 87168,-71695zm7559 242134c-53387,-42639 -86105,-82680 -96971,-117878 73467,118 275442,472 552773,945l616319 1072357c-393320,-358004 -921289,-835184 -1072121,-955424zm1527686 1371421c-4134,-3780 -139138,-127563 -328002,-299773l-584901 -1017670 814987 898375 161580 458636c-37206,-19016 -61183,-37560 -63664,-39568zm410919 827c-94373,94609 -201030,90829 -282175,65199l-547458 -1553553c36143,118 72522,118 109256,236l73112 118c8150,576396 299892,1085349 741874,1393390l-94609 94610zm1079916 162406c-923770,0 -1675211,-751677 -1675211,-1675328 0,-923769 751441,-1675328 1675211,-1675328 923887,0 1675446,751559 1675446,1675328 0,923651 -751559,1675328 -1675446,1675328zm-946448 -2757134l170085 0 -375721 221346c60593,-80908 129689,-154966 205636,-221346zm269773 2363l974086 323041 -100515 712227 -1387721 -732424 514150 -302844zm159926 -2363l394028 0 306978 232449 -701006 -232449zm863059 355169l38151 28938 471983 670297c-99806,590 -303317,944 -608878,1063 0,-237 119,-355 119,-591l98625 -699707zm-228196 700298c-256662,0 -573916,-119 -951054,-473l-350562 -686360 1301616 686833zm-1363508 -692148l353279 691675c-153903,-118 -317490,-354 -490764,-472l-54804 -118c4724,-251347 74057,-486866 192289,-691085zm-192408 743763l54805 0c617736,709 1112870,945 1484338,945l-1019441 1080271c-311585,-259024 -512260,-647029 -519702,-1081216zm561160 1113933l933454 -989086 -598719 1181966c-120595,-49253 -233039,-114334 -334735,-192880zm383870 212369l671360 -1325357c332845,0 556199,-236 667698,-945l-1228621 1361146c-37324,-10276 -74294,-21733 -110437,-34844zm168194 49490l1239370 -1373193c3662,-709 7205,-1063 10512,-3307 11930,-8386 14646,-24804 6379,-36616l-409383 -581357 456864 345838c1536,827 156147,81971 166541,208944 6732,83388 -50553,170793 -172328,261386l-1282954 1181730c-5079,-1063 -9922,-2244 -15001,-3425zm324578 37442c-83625,0 -165596,-7678 -245441,-21497l1252362 -1153737c135241,-100397 199613,-203392 191227,-306269 -12639,-155675 -187329,-247567 -191109,-249103l-664155 -503047c0,0 -118,0 -118,-118l-440919 -333908c-4607,-3426 -10158,-5316 -15827,-5316l-768804 0c243905,-190163 550293,-304025 882784,-304025 793253,0 1438628,645375 1438628,1438510 0,793135 -645375,1438510 -1438628,1438510z"/>
  </g>
 </g>
</svg>
