<?xml version="1.0" encoding="UTF-8"?>
<!DOCTYPE svg PUBLIC "-//W3C//DTD SVG 1.1//EN" "http://www.w3.org/Graphics/SVG/1.1/DTD/svg11.dtd">
<!-- Creator: CorelDRAW X7 -->
<svg xmlns="http://www.w3.org/2000/svg" xml:space="preserve" width="50px" height="50px" version="1.1" style="shape-rendering:geometricPrecision; text-rendering:geometricPrecision; image-rendering:optimizeQuality; fill-rule:evenodd; clip-rule:evenodd"
viewBox="0 0 5000000 5000000"
 xmlns:xlink="http://www.w3.org/1999/xlink">
 <defs>
  <style type="text/css">
   <![CDATA[
    .fil1 {fill:none}
    .fil2 {fill:black}
    .fil0 {fill:#FFFFFE}
   ]]>
  </style>
 </defs>
 <g id="Layer_x0020_1">
  <metadata id="CorelCorpID_0Corel-Layer"/>
  <g id="_2219973380128">
   <g>
    <path class="fil0" d="M2142115 4012922c-94255,94609 -200912,90829 -282056,65199l-178825 -507536c0,0 0,0 -118,0l-368516 -1046017c36025,118 72286,118 109138,236l72994 118c8268,576514 300010,1085349 741992,1393390l-94609 94610 0 0zm-647265 -1540679l-72994 -118c-227724,-236 -442219,-590 -630374,-827l743291 -342885c-24450,111028 -38033,225952 -39923,343830zm-844869 -364145l408320 -183549 425683 169375 -788529 363673 -45474 -349499 0 0zm606751 416470l331310 940423 -853728 -941132c156501,236 333436,472 522418,709zm293396 -460999l-402060 -160044 452258 0c-19253,52206 -36025,105593 -50198,160044zm-696282 -160044l122838 0 -303671 136539 180833 -136539zm-657895 494897c2599,-827 4961,-2126 7087,-3662l392611 -296347 48545 372649c-267056,-354 -461826,-709 -535411,-827 20434,-47009 86459,-71459 87168,-71813l0 0zm-89294 124492c73349,118 275442,354 552655,827l616437 1072357c-393320,-358004 -921289,-835184 -1072121,-955424 -53623,-42639 -86223,-82680 -97089,-117760l0 0 118 0zm1296537 1189290l-584901 -1017552 814987 898375 161580 458636c-37088,-18898 -61065,-37560 -63664,-39568 -4134,-3780 -139138,-127563 -328002,-299891l0 0z"/>
    <path class="fil0" d="M1784229 2525158l54923 118c617736,709 1112752,1063 1484220,1063l-1019441 1080153c-311585,-259142 -512142,-647029 -519702,-1081334zm491354 -1106964l170203 0 -375721 221228c60475,-80790 129571,-154848 205518,-221228l0 0zm1330909 383871l471983 670533c-99806,590 -303317,944 -608996,944 118,-236 237,-354 237,-590l98625 -699707 38032 28820 0 0 119 0zm-709039 2099003l1239370 -1373193c3662,-591 7323,-1063 10512,-3307 11576,-8150 14410,-24096 6733,-35907 -1418,-3543 -3662,-6614 -6496,-9331l-403241 -572735 456864 345720c1536,827 156147,82089 166423,208944 6732,83624 -50435,170911 -172210,261504l-1282954 1181730c-5079,-1063 -10040,-2244 -15001,-3425l0 0zm-168194 -49608l671242 -1325121c332963,-118 556317,-472 667816,-1063l-1228621 1361264c-37324,-10394 -74294,-21851 -110437,-35080l0 0 0 0zm-383870 -212133l933454 -989204 -598719 1181966c-120595,-49253 -233039,-114334 -334735,-192762l0 0zm-368752 -1857814l353397 691557c-154021,-118 -317608,-236 -490763,-354l-55042 -118c4843,-251347 74176,-486984 192408,-691085l0 0zm412454 691675l-350680 -686360 1301734 686833c-256662,0 -573916,-237 -951054,-473l0 0zm-357885 -749787l514150 -302844 973967 323041 -100278 712109 -1387839 -732306 0 0 0 0zm674076 -305207l393910 0 306978 232330 -700888 -232330 0 0z"/>
   </g>
   <rect class="fil1" width="5000000" height="5000000"/>
   <path class="fil2" d="M3222031 1008929c-368988,0 -706912,135005 -967472,357886 -8504,2126 -15355,7795 -18307,15827 -105594,93310 -197841,201266 -273671,320679 0,118 -118,118 -236,237 -2716,2008 -5079,4252 -6850,7086 -709,945 -1181,2008 -1772,3190 -945,2007 -1654,4133 -2008,6496 -139611,226660 -220519,493244 -220755,778489 0,0 0,0 0,0 0,0 0,0 0,0 0,354 0,827 0,1181 0,822191 668879,1491071 1491071,1491071 822309,0 1491188,-668880 1491188,-1491071 0,-822191 -668879,-1491071 -1491188,-1491071zm-27521 877351c-47364,-11693 -86105,-37324 -116224,-75475 -21024,-26694 -57994,10867 -37206,37088 35316,44647 84215,75475 139375,89176 32953,8150 46891,-42639 14055,-50789zm27521 -1114169c-723212,0 -1343783,446825 -1600917,1078853l-776009 0c-5787,0 -11339,1890 -15827,5315l-654942 494189c-20552,8150 -109373,47600 -122838,127445 -827,5433 -945,10866 -1063,16299 -118,709 -473,1418 -473,2245 0,472 236,708 236,1181 -354,57994 39923,119885 120713,184139 246386,196424 1511977,1357366 1526150,1370240 1772,1418 119886,93783 261150,93783 71814,0 149651,-23977 221110,-95791l99924 -99806c709,-709 945,-1535 1535,-2362 271072,176816 594232,280048 941251,280048 952825,0 1728007,-775182 1728007,-1727889 0,-952707 -775182,-1727889 -1728007,-1727889zm-1727181 1700132l-72994 -118c-227724,-236 -442101,-590 -630256,-827l743291 -342885c-24568,111028 -38151,226071 -40041,343830zm-844751 -364145l408320 -183549 425565 169375 -788411 363673 -45474 -349499zm606633 416470l331428 940423 -853846 -941132c156501,236 333436,472 522418,709zm293396 -460999l-402060 -159926 452258 0c-19253,52206 -36025,105475 -50198,159926zm-696164 -159926l122720 0 -303671 136421 180951 -136421zm-657895 494897c2481,-945 4961,-2244 7087,-3780l392611 -296347 48427 372649c-266938,-354 -461826,-709 -535411,-827 20552,-46891 86577,-71459 87286,-71695zm-89412 124374c73349,118 275442,473 552773,827l616319 1072357c-393320,-358004 -921289,-835184 -1072121,-955424 -53387,-42639 -86105,-82562 -96971,-117760zm1296537 1189290l-584901 -1017552 814987 898375 161580 458518c-37206,-18898 -61065,-37560 -63664,-39450 -4134,-3780 -139138,-127681 -328002,-299891zm738921 300718c-94255,94609 -200912,90711 -282056,65199l-178825 -507536c0,0 0,0 0,0l-368634 -1046017c36025,118 72404,118 109138,236l72994 118c8268,576514 300010,1085349 742110,1393390l-94727 94610zm1079916 162288c-923652,0 -1675329,-751441 -1675329,-1675210 0,-923769 751677,-1675210 1675329,-1675210 923769,0 1675328,751441 1675328,1675210 0,923769 -751441,1675210 -1675328,1675210zm-946448 -2757016l170203 0 -375721 221346c60593,-80790 129571,-154848 205518,-221346zm1330909 383989l471983 670415c-99924,590 -303317,944 -608996,1063 118,-237 237,-355 237,-591l98625 -699707 38151 28820zm-709039 2098885l1239370 -1373193c3544,-591 7205,-1063 10394,-3189 11930,-8386 14764,-24804 6378,-36734l-409264 -581357 456864 345838c1536,827 156147,81971 166423,208944 6850,83506 -50435,170911 -172210,261386l-1283072 1181730c-4961,-1063 -9922,-2244 -14883,-3425zm-168194 -49608l671242 -1325121c333081,-118 556435,-354 667816,-1063l-1228503 1361146c-37442,-10276 -74412,-21733 -110555,-34962zm-383870 -212251l933454 -989086 -598719 1181966c-120595,-49253 -233039,-114334 -334735,-192880zm-368752 -1857696l353397 691675c-153902,-118 -317490,-354 -490763,-472l-54923 -118c4724,-251229 74057,-486866 192289,-691085zm412572 691675l-350798 -686360 1301734 686833c-256662,0 -573916,-119 -950936,-473zm-358003 -749787l514150 -302726 974086 322923 -100397 712227 -1387839 -732424zm674076 -305207l393910 0 307096 232449 -701006 -232449zm-921053 1107082l54923 0c617736,709 1112752,1063 1484220,1063l-1019323 1080153c-311703,-259142 -512260,-647029 -519820,-1081216zm1437802 1413116c-83743,0 -165714,-7560 -245559,-21379l1252480 -1153855c135241,-100279 199495,-203274 191227,-306151 -12757,-155675 -187447,-247567 -190991,-248985l-664273 -503165c0,0 0,0 0,0l-440919 -333908c-4606,-3544 -10158,-5434 -15945,-5434l-768804 119c243905,-190282 550293,-304026 882902,-304026 793135,0 1438510,645257 1438510,1438392 0,793135 -645375,1438392 -1438628,1438392z"/>
  </g>
 </g>
</svg>
